<?xml version="1.0" standalone="no"?>
<!DOCTYPE svg PUBLIC "-//W3C//DTD SVG 1.1//EN" "http://www.w3.org/Graphics/SVG/1.1/DTD/svg11.dtd" >
<svg xmlns="http://www.w3.org/2000/svg" xmlns:xlink="http://www.w3.org/1999/xlink" version="1.1" viewBox="-10 0 1738 2048">
   <path fill="currentColor"
d="M858 40q-60 1 -102.5 44t-42.5 103v2v960v1q0 61 43 104t104 43t104 -43t43 -104v-1v-960v-2q0 -61 -43 -104t-104 -43h-2zM334 524l-3 -1q-28 0 -60 15t-50 36q-105 116 -163 264.5t-58 310.5q0 174 68 333t183.5 274t274.5 183.5t333 68.5t333 -68t274 -183.5
t183.5 -274.5t68.5 -333q0 -162 -58 -310.5t-163 -264.5q-18 -21 -50 -36t-60 -15q-61 0 -104 43t-43 104q0 24 11.5 53.5t27.5 46.5q145 163 145 379q0 154 -75.5 284.5t-205.5 205.5t-284 75t-284.5 -75.5t-205.5 -205.5t-75 -284q0 -216 145 -379q16 -17 27.5 -46.5
t11.5 -53.5q0 -60 -42 -102.5t-102 -43.5z" />
</svg>
