<?xml version="1.0" standalone="no"?>
<!DOCTYPE svg PUBLIC "-//W3C//DTD SVG 1.1//EN" "http://www.w3.org/Graphics/SVG/1.1/DTD/svg11.dtd" >
<svg xmlns="http://www.w3.org/2000/svg" xmlns:xlink="http://www.w3.org/1999/xlink" version="1.1" viewBox="-10 0 1916 2048">
   <path fill="currentColor"
d="M786 1323v-594q0 -67 47 -114.5t115 -47.5t115 47.5t47 114.5v594q0 67 -47 114.5t-115 47.5q-67 0 -114.5 -47.5t-47.5 -114.5zM0 1024q0 -193 75 -368.5t202 -302.5t302.5 -202t368.5 -75v162v162q-127 0 -240.5 48t-200.5 135t-135 200.5t-48 240.5t48 240.5
t135 200.5t200.5 135t240.5 48t240.5 -48t200.5 -135t135 -200.5t48 -240.5t-48 -240.5t-135 -200.5q-86 -86 -200 -134.5t-241 -48.5v-162v-162q193 0 368.5 75t302.5 202t202 302.5t75 368.5t-75 368.5t-202 302.5t-302.5 202t-368.5 75t-368.5 -75.5t-302.5 -202.5
t-202 -302t-75 -368z" />
</svg>
