<?xml version="1.0" standalone="no"?>
<!DOCTYPE svg PUBLIC "-//W3C//DTD SVG 1.1//EN" "http://www.w3.org/Graphics/SVG/1.1/DTD/svg11.dtd" >
<svg xmlns="http://www.w3.org/2000/svg" xmlns:xlink="http://www.w3.org/1999/xlink" version="1.1" viewBox="-10 0 1854 2048">
   <path fill="currentColor"
d="M917 107q-186 0 -355.5 73t-292.5 196t-196 292.5t-73 355.5t73 355.5t196 292.5t292.5 196t355.5 73t355.5 -73t292.5 -196t196 -292.5t73 -355.5t-73 -355.5t-196 -292.5t-292.5 -196t-355.5 -73zM917 421q165 0 303.5 80.5t219 219t80.5 303.5t-80.5 303.5t-219 219
t-303.5 80.5t-303.5 -80.5t-219 -219t-80.5 -303.5t80.5 -303.5t219 -219t303.5 -80.5z" />
</svg>
