<?xml version="1.0" standalone="no"?>
<!DOCTYPE svg PUBLIC "-//W3C//DTD SVG 1.1//EN" "http://www.w3.org/Graphics/SVG/1.1/DTD/svg11.dtd" >
<svg xmlns="http://www.w3.org/2000/svg" xmlns:xlink="http://www.w3.org/1999/xlink" version="1.1" viewBox="-10 0 1599 2048">
   <path fill="currentColor"
d="M1276 340l21 112h282q-3 78 -55 184h-195l29 206q40 4 104 12t78 10v138q-76 -22 -172 -22q48 353 64 744h-170q0 -368 -47 -770t-113 -630zM1178 966q-161 -10 -369 -10q-164 0 -297 8q-1 17 -11 126.5t-12 137.5t-8.5 116.5t-8.5 134.5t-4.5 115t-2.5 130h-168
q12 -411 46 -743.5t110 -640.5l174 -16q0 2 -14 50.5t-19 77.5h498l39 180h-570q-12 56 -32 184q0 4 -1 9t-1 7q63 -6 233 -6v-126h160v124q132 0 239 8q4 24 9.5 67t9.5 67zM387 452l-34 184h-293q-50 -90 -60 -184h387zM301 976q-46 2 -147 14q-53 8 -86 10v-128
q22 -6 99.5 -15.5t152.5 -14.5q-19 94 -19 134z" />
</svg>
