<?xml version="1.0" standalone="no"?>
<!DOCTYPE svg PUBLIC "-//W3C//DTD SVG 1.1//EN" "http://www.w3.org/Graphics/SVG/1.1/DTD/svg11.dtd" >
<svg xmlns="http://www.w3.org/2000/svg" xmlns:xlink="http://www.w3.org/1999/xlink" version="1.1" viewBox="-10 0 1550 2048">
   <path fill="currentColor"
d="M449 741q-133 0 -211 89t-78 237q0 85 18 145h1182q18 -85 18 -145q0 -148 -78.5 -237t-211.5 -89q-121 0 -242 80h-156q-125 -80 -241 -80zM743 221l70 494h21l14 -211q21 -35 59 -62q77 -61 178 -61q189 0 283 86q43 39 57 84l-329 -61q-49 49 -92 124l28 -8
q21 -8 62 -8q185 0 310.5 132t125.5 345q0 150 -42.5 275t-115 212t-171 147.5t-208.5 89t-229 28.5q-174 0 -319 -57t-242 -156.5t-150 -233t-53 -286.5q0 -222 125.5 -363t310.5 -141q14 0 68 4q-113 -121 -207 -121l-229 62q8 -43 47 -82q84 -84 264 -84q164 0 281 131
l-76 -252z" />
</svg>
