<?xml version="1.0" standalone="no"?>
<!DOCTYPE svg PUBLIC "-//W3C//DTD SVG 1.1//EN" "http://www.w3.org/Graphics/SVG/1.1/DTD/svg11.dtd" >
<svg xmlns="http://www.w3.org/2000/svg" xmlns:xlink="http://www.w3.org/1999/xlink" version="1.1" viewBox="-10 0 1623 2048">
   <path fill="currentColor"
d="M577 300q-18 27 -24 60q-12 78 49 148q36 47 45.5 89.5t-4 72.5t-36.5 55.5t-48 40.5t-43.5 26t-18.5 14q23 -46 32 -76.5t2 -55t-17.5 -40t-34 -47t-39.5 -59.5q-43 -78 43 -160q41 -41 94 -68zM749 230q-13 21 -20 54q-12 66 41 128q28 35 38 67.5t4.5 56.5t-19.5 45.5
t-33 36.5t-36.5 26.5t-29.5 18.5t-12 9q19 -40 26 -66.5t1 -48t-15 -35t-29.5 -40t-34.5 -50.5q-38 -68 37 -142q31 -32 82 -60zM1243 1210q0 37 29.5 64.5t68.5 27.5q38 0 64 -27t26 -65t-26 -65t-64 -27t-68 27.5t-30 64.5zM1126 904v158q36 -55 92 -85.5t123 -30.5
q107 0 184.5 77t77.5 184.5t-77.5 184t-184.5 76.5q-68 0 -126.5 -32.5t-94.5 -89.5q-21 133 -99 240.5t-198 169.5t-258 62q-113 0 -217 -42.5t-180.5 -114.5t-122 -172.5t-45.5 -212.5v-372q0 -44 51 -44h1024q51 0 51 44z" />
</svg>
