<?xml version="1.0" standalone="no"?>
<!DOCTYPE svg PUBLIC "-//W3C//DTD SVG 1.1//EN" "http://www.w3.org/Graphics/SVG/1.1/DTD/svg11.dtd" >
<svg xmlns="http://www.w3.org/2000/svg" xmlns:xlink="http://www.w3.org/1999/xlink" version="1.1" viewBox="-10 0 1533 2048">
   <path fill="currentColor"
d="M1513 500l-12 10q-32 -20 -88.5 -36t-128.5 -16q-25 0 -119 12q74 25 143 78q146 111 146 278q0 95 -43 200h-21q-37 -94 -78 -156q-40 -68 -97 -119t-116 -57q39 39 74 86q74 104 74 218q0 102 -64 200h-16q-71 -225 -278 -422l-10.5 41.5t-14.5 59t-15.5 66t-17.5 80.5
t-15.5 83.5t-15 95t-11.5 95t-8.5 103t-2.5 100.5q0 16 1 41t1 41l27 -2l73 -198q199 29 318 132q50 42 88 100q-50 56 -137 104q-196 102 -504 102t-508 -102q-90 -48 -137 -104q41 -65 110 -116q158 -117 396 -130q47 -331 208 -644q-55 4 -113.5 15t-132.5 33.5
t-153 64.5t-149 97h-17q0 -17 6.5 -45.5t22.5 -68.5t40 -81.5t63 -84.5t87 -77t117 -59t148 -32q-26 -17 -62 -32q-85 -36 -164 -36q-107 0 -227 64l-10 -14q46 -69 104 -118q148 -122 307 -122q168 0 344 118q44 -19 74 -28q97 -28 176 -28q235 0 338 210z" />
</svg>
