<?xml version="1.0" standalone="no"?>
<!DOCTYPE svg PUBLIC "-//W3C//DTD SVG 1.1//EN" "http://www.w3.org/Graphics/SVG/1.1/DTD/svg11.dtd" >
<svg xmlns="http://www.w3.org/2000/svg" xmlns:xlink="http://www.w3.org/1999/xlink" version="1.1" viewBox="-10 0 1485 2048">
   <path fill="currentColor"
d="M1319 944q70 0 108 28t38 72q0 40 -24 68.5t-58 43t-68 27t-58 29.5t-24 41q0 21 23.5 62.5t23.5 70.5q0 57 -54.5 86t-135.5 29q-74 0 -120 22t-46 58q0 17 10.5 51t10.5 55q0 63 -40 103.5t-110 40.5q-104 0 -208 -53.5t-189.5 -141.5t-160.5 -203t-126.5 -236.5
t-81 -242.5t-29.5 -221q0 -226 107.5 -371t253.5 -145q195 0 321 270q61 133 137 226t160 141.5t165.5 69t174.5 20.5zM215 909q36 0 61 -44t25 -109q0 -66 -25.5 -112t-60.5 -46t-58 45.5t-23 112.5q0 66 23 109.5t58 43.5zM521 817q37 0 62.5 -36.5t25.5 -90.5
t-25.5 -91.5t-62.5 -37.5t-62.5 37.5t-25.5 91.5t25.5 90.5t62.5 36.5z" />
</svg>
