<?xml version="1.0" standalone="no"?>
<!DOCTYPE svg PUBLIC "-//W3C//DTD SVG 1.1//EN" "http://www.w3.org/Graphics/SVG/1.1/DTD/svg11.dtd" >
<svg xmlns="http://www.w3.org/2000/svg" xmlns:xlink="http://www.w3.org/1999/xlink" version="1.1" viewBox="-10 0 1571 2048">
   <path fill="currentColor"
d="M828 1556v294q-12 0 -32 1t-32 1q-175 0 -319 -53.5t-241.5 -150t-150.5 -232t-53 -296.5q0 -117 36.5 -217t98.5 -169t146.5 -108.5t179.5 -39.5q18 0 72 4q-117 -128 -219 -128l-242 66q12 -51 51 -86q96 -88 279 -88q174 0 297 136l-80 -266l168 -28q11 36 20 84
q21 107 21 182v420q0 72 -45 72q-28 0 -83.5 -31t-90.5 -31q-68 0 -122.5 45.5t-83 114.5t-28.5 144q0 47 15 99t42 98.5t72 76.5t98 30q31 0 57 -9.5t41.5 -21t37 -21.5t43.5 -10q47 0 47 118zM1061 578h39q94 0 176.5 34.5t143.5 96t96 154t35 203.5q0 136 -48 263
t-130 225.5t-193 171t-236 104.5v-346q0 -77 -37 -120.5t-108 -43.5q-43 0 -77 10t-50.5 21t-35 21t-34.5 10q-35 0 -60.5 -30.5t-36.5 -71.5t-11 -84q0 -46 12.5 -86t40.5 -68t66 -28q18 0 35.5 9.5t32 20t45.5 19.5t73 9q66 0 105.5 -46.5t39.5 -117.5v-484
q49 -34 100.5 -52t119.5 -18q181 0 260 90q36 38 45 88l-328 -62q-22 25 -32 36.5t-23 30.5t-25 41z" />
</svg>
