<?xml version="1.0" standalone="no"?>
<!DOCTYPE svg PUBLIC "-//W3C//DTD SVG 1.1//EN" "http://www.w3.org/Graphics/SVG/1.1/DTD/svg11.dtd" >
<svg xmlns="http://www.w3.org/2000/svg" xmlns:xlink="http://www.w3.org/1999/xlink" version="1.1" viewBox="-30 0 2088 2048">
   <path fill="currentColor"
d="M-19 2054q0 4 6 4q92 0 118 -5q13 -2 50 -12t49 -12q8 -2 28 -2h6.5h7.5q48 0 75 -8q12 -3 25 -8t19.5 -7t16.5 -4t22 -2h9q22 1 28 1q7 0 24 -4q8 -2 32 -4t44 -3l20 -1q22 -2 22 -17q0 -7 -5.5 -12t-14.5 -6q-13 -1 -29 -1q-7 0 -19.5 0.5t-17.5 0.5q-15 0 -22 -3
q-3 -1 -17 -9t-32 -12q-12 -3 -34.5 -8.5t-33.5 -7.5q-7 -1 -14.5 -2t-12 -1.5t-8 -1.5t-5.5 -3q-8 -8 -36 -8h-7h-6q-5 0 -7 -1q-34 -4 -34 -12q1 -7 35.5 -14t67.5 -7q26 0 48 -6t27 -7q70 -5 92 -11q7 -2 20 -7.5t21 -5.5h5q13 2 31 2q40 0 43 -12q1 -3 1 -6q0 -5 -3 -10
t-7 -9t-4 -5q10 -5 43 -5q18 0 81 -7q6 0 50 -1.5t72 -2.5q5 -1 15 -1h11.5h13.5q35 0 54 -3q15 -2 38 -3.5t32 -2.5q1 -1 21 -1t33 -4t13 -14q0 -5 -1.5 -8t-5 -5.5t-7 -4t-10 -2.5t-11.5 -1.5t-14 -2t-16 -2.5q-17 -2 -32 -2q-7 0 -15.5 0.5t-11.5 0.5q-5 0 -10 -2
q-42 -15 -60 -15h-9q-25 4 -40 4q-14 0 -19 -3q-18 -10 -65 -10q-9 0 -17 2t-10 2q-4 0 -12 -5q-13 -8 -58.5 -9t-52.5 -3q-3 -1 -18 -6.5t-29 -8t-34 -2.5h-10q-42 2 -64 2q-41 0 -52 -4q-9 -4 -19 -5.5t-14 -2.5t-4 -3q0 -1 1 -1q1 -3 1 -3.5t1 -2t1.5 -2t2.5 -1t3.5 -0.5
t4.5 -0.5t5.5 -1t8 -1t10.5 -0.5q18 -2 60 -4t49 -3q28 -2 47 -11q9 -5 37 -12t38 -7q9 0 33 -5t29 -5h1q2 0 9 2t15.5 4t16.5 2q10 0 18.5 -3.5t16.5 -5t19.5 -2t15.5 -0.5q4 -1 18 -2t26 -2t20 -3q9 -2 20.5 -9.5t11.5 -14.5q0 -9 -20 -12q-11 -2 -43.5 -8t-50.5 -7h-11
q-10 0 -21.5 1.5t-17.5 1.5t-12 -1q-54 -7 -55 -7h-9q-3 1 -9 1q-10 0 -41 -2t-44 -2q-18 0 -65 -11q-5 -1 -13.5 -2.5t-16.5 -3.5t-16 -5q-8 -4 -25 -8t-27.5 -7.5t-10.5 -8.5q0 -2 3 -5q14 -15 56.5 -31.5t69.5 -16.5q24 0 43 -10.5t26 -10.5q14 -2 68.5 -6.5t57.5 -5.5
q4 0 60 -3.5t113 -7.5t73 -7q51 -10 76 -11h9q10 0 23 1.5t19 1.5q12 0 26 -3q87 -16 104 -16q14 0 21 -5t12 -5q4 0 21 4.5t33 4.5q6 0 13 -1q10 -1 47.5 -2.5t67.5 -4t40 -6.5q7 -3 22 -3q8 0 25 1.5t24 1.5q8 0 12 -1q2 -1 5 -1q2 0 13 1.5t21 1.5q12 0 27 -2
q59 -8 159 -16q60 -6 76 -6q8 0 16 1h8q15 0 37 -4t29 -4h15h21q57 0 61 -15q2 -7 2 -11q0 -19 -48 -21h-39h-39h-37q-38 0 -50 -1q-7 -1 -27 -4t-38 -5.5t-31 -2.5h-8q-13 1 -39 5t-34 4h-7q-62 -12 -91 -12q-9 0 -39.5 1t-39.5 1t-24.5 2.5t-21.5 2.5q-9 0 -16 -3
q-49 -24 -107 -24h-12h-11q-13 0 -17 -3q-14 -7 -19.5 -9t-19.5 -3.5t-42 -1.5q-29 0 -59 -5t-42 -5h-6q-10 1 -26.5 2.5t-23.5 1.5q-13 0 -23 -5q-12 -6 -44 -6q-10 0 -29.5 1t-27.5 1q-16 0 -22 -2q-11 -4 -22 -5.5t-25 -2t-23 -1.5t-15.5 -1.5t-8.5 -0.5t-6.5 -0.5
t-11.5 -2.5q-4 -1 -13.5 -5.5t-19.5 -4.5q-8 0 -20 2t-21 2q-7 0 -17.5 -2t-17.5 -2q-2 0 -6 1h-32q-104 0 -132 -4q-6 -1 -15 -1q-6 0 -17 1t-16 1q-13 0 -19 -4q-7 -5 -8 -8q6 -4 42 -7q111 -10 141 -20q14 -4 62.5 -13t58.5 -11q4 -1 29.5 -10.5t45.5 -9.5q5 0 10 1h15
q18 0 37 -5t27 -5h14t18 -0.5t17 -1.5t14 -4t5 -8q0 -2 -1 -5q-5 -13 -20.5 -18t-52.5 -6q-21 -1 -37.5 -3.5t-30 -6.5t-19.5 -5t-15 -1q-6 0 -21.5 1t-26.5 1t-21 -1q-78 -6 -85 -8q-74 -16 -87 -16h-7q-3 1 -11 1q-27 0 -72 -4q-7 -3 -10 -5q4 -3 18 -6q17 -3 49 -3
q8 0 24.5 0.5t24.5 0.5q31 0 43 -4q28 -10 78 -13q12 -1 27 -2.5t30.5 -6t15.5 -10.5q0 -3 -6 -7q-13 -8 -47 -15t-54 -7h-11h-13q-33 0 -50 -4q-12 -4 -34 -4q-5 0 -15 0.5t-15 0.5q-19 0 -32 -2q-35 -6 -49 -10.5t-17.5 -8t-8.5 -16t-15 -25.5q-9 -12 -18 -21.5t-12.5 -13
t-3.5 -7.5q0 -5 9 -21q7 -12 22.5 -22.5t27 -16t30.5 -12.5t21 -7q8 -4 41 -8t43 -9q7 -3 46.5 -6.5t49.5 -5.5q4 -1 8 -1q6 0 19 1.5t19 1.5q13 0 22 -4q18 -10 37 -10q15 0 29 5q9 4 24 4q13 0 32 -3.5t31 -6t31.5 -8l19.5 -5.5q15 -4 68.5 -10t56 -6.5t13.5 -1t22 -1.5
t23 -3t19.5 -6t7.5 -10q0 -4 -2 -7q-9 -16 -26.5 -20.5t-46.5 -4.5q-9 0 -21.5 0.5t-17.5 0.5q-19 0 -38 -7q-40 -16 -109 -16q-19 0 -28 2q-3 1 -5 1q-4 0 -10 -4.5t-17 -6.5q-57 -5 -79 -12q-8 -3 -16 -3t-17.5 3t-12.5 3q-5 0 -8 -3q-10 -12 -43.5 -22.5t-53.5 -10.5h-3
h-5q-8 0 -20.5 -1.5t-28 -4.5t-22.5 -4q-141 -19 -157 -19q-18 0 -36 -5.5t-18 -14.5t20 -19q25 -12 62.5 -16.5t67.5 -4.5t35 -3q4 -1 31 -3t61 -4t46 -4q13 -1 46 -10.5t47 -9.5q8 0 13 2q27 11 71 11q34 0 44 -8q2 -2 5 -2q2 0 13.5 5t20.5 5t18 -4q17 -8 99 -16
q10 -1 26 -7t24 -6h5q21 3 71 3q77 0 111 -10q23 -6 48 -6q7 0 18.5 0.5t17.5 0.5q8 0 14 -1q3 0 28 -2t40 -5.5t21 -10.5q6 -6 6 -14q0 -10 -7.5 -17.5t-18.5 -7.5q-3 0 -7 1q-13 3 -20 3q-11 0 -33 -7q-37 -14 -78 -14q-17 0 -28.5 -3t-21.5 -3t-17 3.5t-12 3.5
q-7 0 -22 -5q-56 -20 -109 -20q-49 0 -92 -5q-8 -1 -26 -8.5t-42 -7.5h-7q-19 1 -32 4t-14 3q-6 0 -17 -8q-5 -3 -10 -8t-8.5 -6t-13.5 -1t-34 1q-28 3 -51.5 8.5t-28.5 5.5q-7 0 -13 -4q-15 -10 -61 -17.5t-80 -7.5q-9 0 -15 1q-12 1 -26.5 4.5t-20.5 3.5q-5 0 -11 -2
q-37 -8 -70 -8q-7 0 -61 -11t-61 -11q-6 0 -22 -4.5t-21 -8.5q3 -2 7 -3q16 -4 35 -4q8 0 22 1t18 1q7 0 11 -1q3 -1 66 -2.5t76 -5.5q14 -5 48 -10t50 -5q7 0 17 1.5t18 1.5q9 0 20 -1t18 -3.5t10 -5t4.5 -5t3.5 -2.5q1 -1 5 -1h4.5h5.5q55 0 55 -18t-50 -18h-5h-6
q-14 -9 -66 -17q-20 -4 -33 -9.5t-29 -8.5q-10 -2 -18 -2q-7 0 -14.5 2.5t-11.5 2.5t-10 -1q-16 -5 -56 -8t-47 -5q-9 -4 -24 -4t-28 -6q-14 -6 -37 -11t-45 -13q-27 -10 -94.5 -8t-77.5 0q-27 -9 -57 -6q-4 1 -4 5zM-8 2049l-2 -2050q26 -1 48 5q12 4 80.5 2t89.5 6
q24 9 47 14t35 10q16 7 32 7.5t21 2.5q10 4 50 6.5t53 6.5q10 3 17 3q5 0 13 -3t14 -3q5 0 11 2q14 2 27.5 8t35.5 9q50 9 62 16q6 4 23 4h8h7q18 0 18 7q0 5 -11.5 6.5t-28 1.5t-23.5 2t-12 8t-22 8q-10 1 -17 1t-17 -1.5t-19 -1.5q-18 0 -52.5 5t-49.5 10q-9 3 -72 5
t-69 3q-2 1 -4.5 1t-16 -1t-23.5 -1q-23 0 -42 4q-16 5 -16 10q0 8 23.5 16t31.5 8q3 0 58 11t64 11q32 0 67 8q7 2 15 2t23 -3.5t24 -4.5q5 -1 12 -1q30 0 77 7.5t59 15.5q10 6 21 6q8 0 32.5 -6t47.5 -8q9 0 18.5 -1t13.5 -1.5t7 -0.5t4 1.5t4.5 5.5t11.5 8q13 9 23 9
q3 0 17 -2.5t29 -3.5h7q21 0 37 7.5t29 8.5q44 5 94 5q51 0 105 19q16 6 27 6q8 0 16 -3.5t12 -3.5q6 0 18.5 3t31.5 3q39 0 74 13q23 8 38 8q9 0 22 -3h3q7 0 11.5 4.5t4.5 10.5q0 5 -3 9q-4 4 -17 6.5t-37 4.5t-28.5 3t-10.5 1q-5 0 -17 -1t-20 -1q-27 0 -53 8
q-31 9 -108 9q-50 0 -68 -3q-4 -1 -7 -1q-12 0 -29 7t-22 7q-85 8 -103 17q-3 1 -8 1t-18.5 -4.5t-19.5 -4.5q-8 0 -14 5q-6 6 -36 6q-44 0 -66 -10q-8 -3 -20 -3q-17 0 -50.5 10t-41.5 10q-11 2 -45 3.5t-62.5 4t-38.5 6.5l-2.5 -0.5t-7.5 -0.5h-10q-95 0 -142 24
q-26 13 -26 25t24 21t42 9q15 0 155 19q6 1 21.5 4t28.5 4.5t23 1.5h6h2q16 0 48 10.5t40 18.5q7 7 18 7q6 0 18 -2.5t16 -2.5t7 1q23 8 81 13q4 1 12 6t16 5q4 0 10 -1q6 -2 21 -2q71 0 107 15q22 8 43 8q6 0 18.5 -0.5t20.5 -0.5q27 0 41.5 3.5t21.5 16.5q1 1 1 2
q0 5 -12 7.5t-34.5 4t-30.5 2.5q-1 0 -55 6t-70 10q-86 22 -112 22q-12 0 -18 -2q-17 -6 -33 -6q-23 0 -44 11q-5 3 -13 3q-4 0 -16.5 -1.5t-19.5 -1.5q-8 0 -16 1q-6 1 -47 4.5t-52 9.5q-6 3 -39 7t-44 9q-1 0 -20 7t-31.5 12.5t-29 17t-24.5 24.5q-10 17 -10 26q0 6 4 11
t13.5 15t17.5 20.5t14 24t10.5 18t21.5 10.5t51 11q16 3 38 3h14.5h13.5q20 0 29 2q19 5 52 5h13h12q17 0 50.5 7t43.5 13q-14 7 -61 10q-51 3 -81 13q-9 3 -35 3h-22.5h-23.5q-38 0 -59 4q-25 4 -25 13q0 3 4 7t9 6l4 2h1q48 4 71 4q12 0 17 -1h3q13 0 85 16q8 2 87 8
q12 1 24 1q11 0 27 -0.5t21 -0.5q6 0 11 0.5t18.5 4.5t30.5 6.5t39 3.5q36 1 48 5t15 13q1 0 1 1t-3 2t-8.5 1.5t-12 1t-16.5 0.5t-18 1q-12 1 -29.5 5.5t-33.5 4.5h-14q-6 -1 -11 -1q-22 0 -50 10l-28 10q-9 2 -57.5 11t-63.5 14q-30 9 -139 19q-51 4 -51 17q0 6 11 13
q10 8 29 8q6 0 18 -1t17 -1h9q28 4 129 4h37q2 -1 4 -1q5 0 15.5 2.5t19.5 2.5q11 0 24 -3q13 -2 19.5 -2t13 4t16 6t14 2.5t12 1t17.5 1.5t23.5 1.5t23.5 2t19 4.5q11 4 36 4q9 0 28 -1t28 -1q23 0 30 4q13 7 30 7q8 0 25 -2t24 -3h6q9 0 40 5t61 5h18.5h13.5t11 1t7.5 1
t6.5 2l5 2.5l6 3l7 3.5q9 5 31 5h9.5h9.5q54 0 98 22q9 5 22 5q9 0 24.5 -3t20.5 -3q10 0 40 -1t39 -1q28 0 89 11q4 1 10 1q11 0 36.5 -4t36.5 -5h6q13 0 30.5 2.5t37.5 5.5t28 4q13 1 52 1h38.5h38.5h37q38 2 38 10q0 1 -2 11q-2 8 -77 8h-5h-5q-10 0 -31.5 4t-35.5 4h-6
q-9 -1 -17 -1q-17 0 -77 6q-100 8 -160 16q-12 1 -22 1q-9 0 -20 -1t-15 -1q-5 0 -10 1h-5q-4 0 -21 -1t-28 -1q-20 0 -30 4q-9 3 -38 5.5t-66 4t-48 2.5q-6 1 -12 1q-13 0 -29.5 -4.5t-24.5 -4.5q-12 0 -18.5 5t-14.5 5q-18 0 -106 16q-13 3 -23 3q-6 0 -18.5 -1.5
t-23.5 -1.5h-10q-26 1 -79 12q-14 2 -71 6t-113 7.5t-60 3.5q-3 1 -57.5 5.5t-69.5 6.5q-13 1 -30 11t-37 10q-31 0 -75 17t-60 35q-5 5 -5 10q0 9 14 15.5t34 11t21 5.5q9 4 18 6t17.5 3.5t12.5 2.5q48 11 68 11q12 0 42.5 2t42.5 2q6 0 10 -1h8q1 0 53 7q8 1 15 1
t18.5 -1.5t20.5 -1.5h9q17 1 49 7t44 8q12 1 12 6q0 8 -24 12q-8 2 -19.5 3t-25.5 2t-19 2q-2 0 -14 0.5t-21.5 2t-18.5 5.5q-6 3 -13 3q-8 0 -23 -4t-17 -4h-4q-9 0 -32 5t-29 5q-13 0 -41 7t-40 13q-17 8 -42 10q-6 1 -48.5 3t-60.5 4q-4 0 -10 0.5t-8.5 1t-6.5 1t-5.5 1
l-4.5 1.5t-4.5 2t-3 2.5t-2.5 3.5t-2.5 4.5t-1.5 4.5q0 7 8 10.5t20.5 5.5t14.5 3q14 5 54 5q15 0 67 -1q5 -1 10 -1q20 0 32.5 2.5t26.5 7.5t19 7q12 3 55.5 4t51.5 6q11 7 20 7q4 0 12.5 -2t13.5 -2q43 0 59 9q9 4 25 4q13 0 42 -4h7q16 0 56 15q8 3 16 3q4 0 13 -1t16 -1
q12 0 26 2q9 2 24 4q21 2 26.5 4t5.5 9q0 4 -9 5.5t-25 2t-24 2.5q-7 1 -30.5 2.5t-39.5 3.5q-17 3 -53 3h-11h-11h-18q-27 2 -71 3.5t-52 1.5q-62 7 -79 7h-1.5h-2.5q-50 0 -50 14q0 7 7 14t7 12v2q-6 5 -39 5q-14 0 -23 -2h-8q-10 0 -25.5 6.5t-17.5 6.5q-21 6 -90 11
q-9 1 -29.5 7t-44.5 6q-38 0 -75 7.5t-39 21.5v2q0 4 1.5 7t5 5t7 3.5t8.5 2.5t8 1t8 0.5l5 0.5q6 1 18.5 1.5t20.5 1t10 2.5q5 5 11.5 7t18.5 3t16 2q11 1 33.5 7t34.5 9q16 3 29 10.5t19 9.5q10 4 28 4q6 0 19.5 -0.5t20.5 -0.5q13 0 23 1t10 8t-11 9q-79 3 -99 8
q-17 4 -19 4q-1 0 -30 -1h-9q-17 0 -28 2.5t-29 9t-29 10.5q-25 7 -72 7h-8q-26 0 -36 2q-13 3 -50 12.5t-50 11.5q-22 5 -110 5zM-13 2054l-2 -2059q27 -3 54 5q11 3 79.5 1t92.5 7q23 8 45.5 13.5t35.5 10.5q15 6 30.5 6.5t22.5 3.5q8 3 48.5 6t54.5 7q8 2 13 2t12.5 -2.5
t14.5 -2.5q6 0 14 1q16 3 29 9t34 9q52 9 64 16q2 2 17.5 2t28 2.5t12.5 10.5t-13.5 10.5t-31.5 2.5t-21 1q-2 1 -9.5 8t-25.5 9q-11 1 -19 1q-7 0 -17 -1.5t-18 -1.5q-17 0 -51 5t-49 9q-11 4 -74 5.5t-68 3.5h-7q-4 0 -17.5 -1t-22.5 -1q-21 0 -38 5q-12 3 -12 7
q0 5 19.5 11t29.5 6q5 0 59.5 11.5t62.5 11.5q33 0 68 8q7 1 13 1q7 0 22 -3t26 -5h12q33 0 79.5 7t59.5 16q9 6 18 6q6 0 30 -6t50 -8q30 -2 37 -2q5 0 7.5 0.5t3.5 2t4.5 5t9.5 7.5q12 8 20 8q2 0 15.5 -3t30.5 -4h7q22 0 39 7.5t28 9.5q44 5 93 5q52 0 107 19q16 5 25 5
q6 0 13.5 -3.5t14.5 -3.5q8 0 20 3.5t30 3.5q40 0 76 13q23 8 35 8q9 0 22 -3q2 -1 5 -1q8 0 14 6t6 14q0 7 -4 11q-5 6 -19 9t-38.5 5t-28.5 3h-12q-5 0 -17 -0.5t-19 -0.5q-27 0 -51 7q-32 9 -109 9q-51 0 -70 -3h-6q-10 0 -26.5 6.5t-23.5 6.5q-84 8 -101 17q-6 3 -13 3
q-8 0 -20.5 -5t-16.5 -5q-5 0 -9 3q-8 7 -40 7q-44 0 -69 -10q-6 -3 -16 -3q-16 0 -49 10t-44 11t-45 3t-61.5 4t-33.5 4q-3 2 -32.5 2t-68 5t-64.5 18q-23 11 -23 22q0 10 21 17.5t39 7.5q16 0 156 19q6 1 22 3.5t28.5 4.5t21.5 2h5h3q18 0 50.5 10t42.5 20q5 6 12 6
q4 0 15 -3t18 -3q6 0 11 2q22 8 80 13q8 1 15 6t12 5q4 0 8 -1q7 -2 25 -2q69 0 107 15q21 8 41 8q5 0 18 -1t21 -1q28 0 44 4t24 19q1 2 1 4q0 8 -14 11.5t-39 5t-28 1.5q-2 1 -55.5 7t-68.5 10q-88 22 -114 22q-13 0 -20 -3q-16 -6 -31 -6q-22 0 -41 11q-7 4 -17 4
q-6 0 -18.5 -2t-19 -2t-11.5 1q-8 2 -48.5 5.5t-49.5 7.5q-8 5 -41 9t-42 8q-2 0 -21 7t-31 12.5t-28 16.5t-23 24q-10 16 -10 23q0 5 3.5 9.5t13 14t18 21t14.5 24.5t10 17t19.5 9.5t49.5 10.5q14 2 35 2h15h14q21 0 31 3q19 5 51 5h13.5h11.5q19 0 52.5 7t45.5 14q3 2 3 3
q0 11 -68 15q-50 2 -79 12q-10 4 -39 4q-7 0 -23 -0.5t-25 -0.5q-34 0 -53 4q-23 4 -23 10q0 2 4 4.5t7 3.5l4 1q46 5 71 5q11 0 14 -1q2 -1 6 -1q12 0 86 17q7 1 85 8q12 1 23 1t26.5 -1t21.5 -1q7 0 13 1q5 1 18.5 4.5t30.5 6.5t39 3q36 2 49.5 6t18.5 16v2q0 3 -3.5 5.5
t-11 3t-14.5 1t-17.5 0.5h-16.5q-10 1 -28 6t-35 5q-7 0 -14 -1h-11q-21 0 -47.5 9.5t-29.5 10.5q-9 2 -57.5 10.5t-63.5 13.5q-30 9 -140 19q-46 4 -46 12q0 4 9 11q8 6 25 6q5 0 16.5 -1t17.5 -1t12 1q27 4 130 4q26 0 35 -1h5q6 0 16 2t18 2q10 0 23 -2q12 -2 20 -2t16 4
t15 6q9 2 13.5 2.5t11.5 0.5t17 2q10 1 23.5 1.5t24 1.5t21.5 5q8 3 28 3q9 0 28 -1t29 -1q28 0 37 5q11 6 27 6q7 0 23.5 -2t25.5 -2h6q11 0 41 5t60 5h32t20.5 2.5t11.5 3.5l14 7q7 4 24 4h10h11q56 0 103 23q7 4 18 4q8 0 23.5 -3t22.5 -3q9 0 39.5 -0.5t39.5 -0.5
q29 0 90 11q3 1 8 1q10 0 36 -4t38 -5h7q13 0 30.5 2t37.5 5t28 4q12 2 50 2q12 0 38 -0.5t39 -0.5q24 0 38 1q43 1 43 15q0 3 -2 11q-3 11 -62 11h-17h-13q-8 0 -30 4t-36 4h-7h-17q-16 0 -77 5q-100 9 -159 16q-13 2 -25 2q-9 0 -20 -1.5t-14 -1.5q-4 0 -7 1t-8.5 1
t-23 -1t-26.5 -1q-17 0 -26 3q-10 3 -39.5 5.5t-66.5 4.5t-48 3h-12q-14 0 -31 -4t-23 -4q-8 0 -15 4.5t-18 4.5q-17 0 -105 17q-14 2 -24 2q-7 0 -19.5 -1.5t-22.5 -1.5q-5 0 -10 1q-26 1 -78 11q-14 3 -71.5 7t-113.5 7t-60 4q-2 0 -56.5 4.5t-69.5 6.5q-10 1 -28 11
t-40 10q-29 0 -72.5 17t-58.5 33q-3 4 -3 8q0 7 12 12t30.5 9.5t23.5 6.5q8 4 16.5 6t17 3t12.5 2q48 12 67 12q12 0 43 1.5t42 1.5h10h8q1 0 54 6q7 1 14 1q6 0 17.5 -1.5t21.5 -1.5q4 0 9 1q18 1 50.5 7t43.5 7q16 3 16 9q0 5 -9.5 11t-18.5 8l-20 2.5t-25.5 2.5t-18.5 1
q-3 1 -15 1.5t-20.5 2t-17.5 4.5q-7 3 -16 3t-24 -3.5t-16 -4t-3 -0.5q-7 0 -30.5 5t-30.5 5q-11 0 -39 7t-39 13q-18 8 -45 11q-6 1 -48 3t-61 3q-4 1 -9.5 1.5t-8 0.5t-6.5 0.5t-5.5 1t-3.5 1t-3 1.5l-2.5 2.5t-2.5 3t-2 3.5v3q0 4 6 6.5t17 4.5t16 4q13 4 53 4
q19 0 66 -1h10q20 0 33.5 2.5t28 7.5t17.5 6q10 3 54.5 4t54.5 8q10 5 17 5q3 0 11 -2t15 -2q45 0 62 10q7 4 22 4q14 0 41 -4q4 -1 8 -1q17 0 58 15q6 3 13 3q3 0 12 -1t16 -1q13 0 29 3q7 1 16.5 2t14.5 2t10.5 2t8.5 2t5.5 2.5t3.5 4t1 6.5q0 7 -11 9.5t-28.5 3
t-22.5 1.5q-8 2 -31 3t-39 4q-18 3 -53 3h-13h-11h-16q-28 2 -72 3t-51 2q-62 6 -80 6q-48 0 -48 10q0 3 7 10.5t7 13.5q0 3 -1 5q-2 8 -41 8q-16 0 -27 -1q-3 -1 -7 -1q-9 0 -23 6t-18 8q-22 6 -92 11q-6 0 -27.5 6.5t-46.5 6.5q-36 0 -71.5 7t-37.5 17v2q0 2 1 3.5t2.5 3
t3.5 2.5t5 2t5.5 1.5t6 1.5t5.5 1t5.5 0.5t4.5 0.5h17t22.5 1.5t13 5t9 5t17 2.5t16.5 2q11 2 33.5 8t35.5 8q17 4 30 12t18 9q8 3 25 3h18h21q14 0 26 1q15 1 15 13q0 11 -17 12q-78 4 -98 9q-16 4 -21 4q-4 0 -29 -1h-9q-16 0 -26.5 2t-28.5 8.5t-29 10.5q-27 8 -74 8
h-5.5h-5.5q-23 0 -32 2q-13 2 -50 11.5t-49 12.5q-12 2 -41 3t-53 2h-23z" />
</svg>
