<?xml version="1.0" standalone="no"?>
<!DOCTYPE svg PUBLIC "-//W3C//DTD SVG 1.1//EN" "http://www.w3.org/Graphics/SVG/1.1/DTD/svg11.dtd" >
<svg xmlns="http://www.w3.org/2000/svg" xmlns:xlink="http://www.w3.org/1999/xlink" version="1.1" viewBox="-10 0 2088 2048">
   <path fill="currentColor"
d="M2067 2054q0 4 -6 4q-92 0 -118 -5q-13 -2 -50 -12t-49 -12q-8 -2 -28 -2h-6.5h-7.5q-48 0 -75 -8q-12 -3 -25 -8t-19.5 -7t-16.5 -4t-22 -2h-9q-22 1 -28 1q-7 0 -24 -4q-8 -2 -32 -4t-44 -3l-20 -1q-22 -2 -22 -17q0 -7 5.5 -12t14.5 -6q13 -1 29 -1q7 0 19.5 0.5
t17.5 0.5q15 0 22 -3q3 -1 17 -9t32 -12q12 -3 34.5 -8.5t33.5 -7.5q7 -1 14.5 -2t12 -1.5t8 -1.5t5.5 -3q8 -8 36 -8h7h6q5 0 7 -1q34 -4 34 -12q-1 -7 -35.5 -14t-67.5 -7q-26 0 -48 -6t-27 -7q-70 -5 -92 -11q-7 -2 -20 -7.5t-21 -5.5h-5q-13 2 -31 2q-40 0 -43 -12
q-1 -3 -1 -6q0 -5 3 -10t7 -9t4 -5q-10 -5 -43 -5q-18 0 -81 -7q-6 0 -50 -1.5t-72 -2.5q-5 -1 -15 -1h-11.5h-13.5q-35 0 -54 -3q-15 -2 -38 -3.5t-32 -2.5q-1 -1 -21 -1t-33 -4t-13 -14q0 -5 1.5 -8t5 -5.5t7 -4t10 -2.5t11.5 -1.5t14 -2t16 -2.5q17 -2 32 -2
q7 0 15.5 0.5t11.5 0.5q5 0 10 -2q42 -15 60 -15h9q25 4 40 4q14 0 19 -3q18 -10 65 -10q9 0 17 2t10 2q4 0 12 -5q13 -8 58.5 -9t52.5 -3q3 -1 18 -6.5t29 -8t34 -2.5h10q42 2 64 2q41 0 52 -4q9 -4 19 -5.5t14 -2.5t4 -3q0 -1 -1 -1q-1 -3 -1 -3.5t-1 -2t-1.5 -2t-2.5 -1
t-3.5 -0.5t-4.5 -0.5t-5.5 -1t-8 -1t-10.5 -0.5q-18 -2 -60 -4t-49 -3q-28 -2 -47 -11q-9 -5 -37 -12t-38 -7q-9 0 -33 -5t-29 -5h-1q-2 0 -9 2t-15.5 4t-16.5 2q-10 0 -18.5 -3.5t-16.5 -5t-19.5 -2t-15.5 -0.5q-4 -1 -18 -2t-26 -2t-20 -3q-9 -2 -20.5 -9.5t-11.5 -14.5
q0 -9 20 -12q11 -2 43.5 -8t50.5 -7h11q10 0 21.5 1.5t17.5 1.5t12 -1q54 -7 55 -7h9q3 1 9 1q10 0 41 -2t44 -2q18 0 65 -11q5 -1 13.5 -2.5t16.5 -3.5t16 -5q8 -4 25 -8t27.5 -7.5t10.5 -8.5q0 -2 -3 -5q-14 -15 -56.5 -31.5t-69.5 -16.5q-24 0 -43 -10.5t-26 -10.5
q-14 -2 -68.5 -6.5t-57.5 -5.5q-4 0 -60 -3.5t-113 -7.5t-73 -7q-51 -10 -76 -11h-9q-10 0 -23 1.5t-19 1.5q-12 0 -26 -3q-87 -16 -104 -16q-14 0 -21 -5t-12 -5q-4 0 -21 4.5t-33 4.5q-6 0 -13 -1q-10 -1 -47.5 -2.5t-67.5 -4t-40 -6.5q-7 -3 -22 -3q-8 0 -25 1.5t-24 1.5
q-8 0 -12 -1q-2 -1 -5 -1q-2 0 -13 1.5t-21 1.5q-12 0 -27 -2q-59 -8 -159 -16q-60 -6 -76 -6q-8 0 -16 1h-8q-15 0 -37 -4t-29 -4h-15h-21q-57 0 -61 -15q-2 -7 -2 -11q0 -19 48 -21h39h39h37q38 0 50 -1q7 -1 27 -4t38 -5.5t31 -2.5h8q13 1 39 5t34 4h7q62 -12 91 -12
q9 0 39.5 1t39.5 1t24.5 2.5t21.5 2.5q9 0 16 -3q49 -24 107 -24h12h11q13 0 17 -3q14 -7 19.5 -9t19.5 -3.5t42 -1.5q29 0 59 -5t42 -5h6q10 1 26.5 2.5t23.5 1.5q13 0 23 -5q12 -6 44 -6q10 0 29.5 1t27.5 1q16 0 22 -2q11 -4 22 -5.5t25 -2t23 -1.5t15.5 -1.5t8.5 -0.5
t6.5 -0.5t11.5 -2.5q4 -1 13.5 -5.5t19.5 -4.5q8 0 20 2t21 2q7 0 17.5 -2t17.5 -2q2 0 6 1h32q104 0 132 -4q6 -1 15 -1q6 0 17 1t16 1q13 0 19 -4q7 -5 8 -8q-6 -4 -42 -7q-111 -10 -141 -20q-14 -4 -62.5 -13t-58.5 -11q-4 -1 -29.5 -10.5t-45.5 -9.5q-5 0 -10 1h-15
q-18 0 -37 -5t-27 -5h-14t-18 -0.5t-17 -1.5t-14 -4t-5 -8q0 -2 1 -5q5 -13 20.5 -18t52.5 -6q21 -1 37.5 -3.5t30 -6.5t19.5 -5t15 -1q6 0 21.5 1t26.5 1t21 -1q78 -6 85 -8q74 -16 87 -16h7q3 1 11 1q27 0 72 -4q7 -3 10 -5q-4 -3 -18 -6q-17 -3 -49 -3q-8 0 -24.5 0.5
t-24.5 0.5q-31 0 -43 -4q-28 -10 -78 -13q-21 -1 -47 -6t-26 -13q0 -3 6 -7q13 -8 47 -15t54 -7h11h13q33 0 50 -4q12 -4 34 -4q5 0 15 0.5t15 0.5q19 0 32 -2q35 -6 49 -10.5t17.5 -8t8.5 -16t15 -25.5q9 -12 18 -21.5t12.5 -13t3.5 -7.5q0 -5 -9 -21q-7 -12 -22.5 -22.5
t-27 -16t-30.5 -12.5t-21 -7q-8 -4 -41 -8t-43 -9q-7 -3 -46.5 -6.5t-49.5 -5.5q-4 -1 -8 -1q-6 0 -19 1.5t-19 1.5q-13 0 -22 -4q-18 -10 -37 -10q-15 0 -29 5q-9 4 -24 4q-13 0 -32 -3.5t-31 -6t-31.5 -8l-19.5 -5.5q-15 -4 -68.5 -10t-56 -6.5t-13.5 -1t-22 -1.5t-23 -3
t-19.5 -6t-7.5 -10q0 -4 2 -7q9 -16 26.5 -20.5t46.5 -4.5q9 0 21.5 0.5t17.5 0.5q19 0 38 -7q40 -16 109 -16q19 0 28 2q3 1 5 1q4 0 10 -4.5t17 -6.5q57 -5 79 -12q8 -3 16 -3t17.5 3t12.5 3q5 0 8 -3q10 -12 43.5 -22.5t53.5 -10.5h3h5q8 0 20.5 -1.5t28 -4.5t22.5 -4
q141 -19 157 -19q18 0 36 -5.5t18 -14.5t-20 -19q-25 -12 -62.5 -16.5t-67.5 -4.5t-35 -3q-4 -1 -31 -3t-61 -4t-46 -4q-13 -1 -46 -10.5t-47 -9.5q-8 0 -13 2q-27 11 -71 11q-34 0 -44 -8q-2 -2 -5 -2q-2 0 -13.5 5t-20.5 5t-18 -4q-17 -8 -99 -16q-10 -1 -26 -7t-24 -6h-5
q-21 3 -71 3q-77 0 -111 -10q-23 -6 -48 -6q-7 0 -18.5 0.5t-17.5 0.5q-8 0 -14 -1q-3 0 -28 -2t-40 -5.5t-21 -10.5q-6 -6 -6 -14q0 -10 7.5 -17.5t18.5 -7.5q3 0 7 1q13 3 20 3q11 0 33 -7q37 -14 78 -14q17 0 28.5 -3t21.5 -3t17 3.5t12 3.5q7 0 22 -5q56 -20 109 -20
q49 0 92 -5q8 -1 26 -8.5t42 -7.5h7q19 1 32 4t14 3q6 0 17 -8q5 -3 10 -8t8.5 -6t13.5 -1t34 1q28 3 51.5 8.5t28.5 5.5q7 0 13 -4q15 -10 61 -17.5t80 -7.5q9 0 15 1q12 1 26.5 4.5t20.5 3.5q5 0 11 -2q37 -8 70 -8q7 0 61 -11t61 -11q6 0 22 -4.5t21 -8.5q-3 -2 -7 -3
q-16 -4 -35 -4q-8 0 -22 1t-18 1q-7 0 -11 -1q-3 -1 -66 -2.5t-76 -5.5q-14 -5 -48 -10t-50 -5q-7 0 -17 1.5t-18 1.5q-9 0 -20 -1t-18 -3.5t-10 -5t-4.5 -5t-3.5 -2.5q-1 -1 -5 -1h-4.5h-5.5q-55 0 -55 -18t50 -18h5h6q14 -9 66 -17q20 -4 33 -9.5t29 -8.5q10 -2 18 -2
q7 0 14.5 2.5t11.5 2.5t10 -1q16 -5 56 -8t47 -5q9 -4 24 -4t28 -6q14 -6 37 -11t45 -13q27 -10 94.5 -8t77.5 0q27 -9 57 -6q4 1 4 5zM2056 2049l2 -2050q-26 -1 -48 5q-12 4 -80.5 2t-89.5 6q-24 9 -47 14t-35 10q-16 7 -32 7.5t-21 2.5q-10 4 -50 6.5t-53 6.5
q-10 3 -17 3q-5 0 -13 -3t-14 -3q-5 0 -11 2q-14 2 -27.5 8t-35.5 9q-50 9 -62 16q-6 4 -23 4h-8h-7q-18 0 -18 7q0 5 11.5 6.5t28 1.5t23.5 2t12 8t22 8q10 1 17 1t17 -1.5t19 -1.5q18 0 52.5 5t49.5 10q9 3 72 5t69 3q2 1 4.5 1t16 -1t23.5 -1q23 0 42 4q16 5 16 10
q0 8 -23.5 16t-31.5 8q-3 0 -58 11t-64 11q-32 0 -67 8q-7 2 -15 2t-23 -3.5t-24 -4.5q-5 -1 -12 -1q-30 0 -77 7.5t-59 15.5q-10 6 -21 6q-8 0 -32.5 -6t-47.5 -8q-9 0 -18.5 -1t-13.5 -1.5t-7 -0.5t-4 1.5t-4.5 5.5t-11.5 8q-13 9 -23 9q-3 0 -17 -2.5t-29 -3.5h-7
q-21 0 -37 7.5t-29 8.5q-44 5 -94 5q-51 0 -105 19q-16 6 -27 6q-8 0 -16 -3.5t-12 -3.5q-6 0 -18.5 3t-31.5 3q-39 0 -74 13q-23 8 -38 8q-9 0 -22 -3h-3q-7 0 -11.5 4.5t-4.5 10.5q0 5 3 9q4 4 17 6.5t37 4.5t28.5 3t10.5 1q5 0 17 -1t20 -1q27 0 53 8q31 9 108 9
q50 0 68 -3q4 -1 7 -1q12 0 29 7t22 7q85 8 103 17q3 1 8 1t18.5 -4.5t19.5 -4.5q8 0 14 5q6 6 36 6q44 0 66 -10q8 -3 20 -3q17 0 50.5 10t41.5 10q11 2 45 3.5t62.5 4t38.5 6.5l2.5 -0.5t7.5 -0.5h10q95 0 142 24q26 13 26 25t-24 21t-42 9q-15 0 -155 19q-6 1 -21.5 4
t-28.5 4.5t-23 1.5h-6h-2q-16 0 -48 10.5t-40 18.5q-7 7 -18 7q-6 0 -18 -2.5t-16 -2.5t-7 1q-23 8 -81 13q-4 1 -12 6t-16 5q-4 0 -10 -1q-6 -2 -21 -2q-71 0 -107 15q-22 8 -43 8q-6 0 -18.5 -0.5t-20.5 -0.5q-27 0 -41.5 3.5t-21.5 16.5q-1 1 -1 2q0 5 12 7.5t34.5 4
t30.5 2.5q1 0 55 6t70 10q86 22 112 22q12 0 18 -2q17 -6 33 -6q23 0 44 11q5 3 13 3q4 0 16.5 -1.5t19.5 -1.5q8 0 16 1q6 1 47 4.5t52 9.5q6 3 39 7t44 9q1 0 20 7t31.5 12.5t29 17t24.5 24.5q10 17 10 26q0 6 -4 11t-13.5 15t-17.5 20.5t-14 24t-10.5 18t-21.5 10.5
t-51 11q-16 3 -38 3h-14.5h-13.5q-20 0 -29 2q-19 5 -52 5h-13h-12q-17 0 -50.5 7t-43.5 13q14 7 61 10q51 3 81 13q9 3 35 3h22.5h23.5q38 0 59 4q25 4 25 13q0 3 -4 7t-9 6l-4 2h-1q-48 4 -71 4q-12 0 -17 -1h-3q-13 0 -85 16q-8 2 -87 8q-12 1 -24 1q-11 0 -27 -0.5
t-21 -0.5q-6 0 -11 0.5t-18.5 4.5t-30.5 6.5t-39 3.5q-36 1 -48 5t-15 13q-1 0 -1 1t3 2t8.5 1.5t12 1t16.5 0.5t18 1q12 1 29.5 5.5t33.5 4.5h14q6 -1 11 -1q22 0 50 10l28 10q9 2 57.5 11t63.5 14q30 9 139 19q51 4 51 17q0 6 -11 13q-10 8 -29 8q-6 0 -18 -1t-17 -1h-9
q-28 4 -129 4h-37q-2 -1 -4 -1q-5 0 -15.5 2.5t-19.5 2.5q-11 0 -24 -3q-13 -2 -19.5 -2t-13 4t-16 6t-14 2.5t-12 1t-17.5 1.5t-23.5 1.5t-23.5 2t-19 4.5q-11 4 -36 4q-9 0 -28 -1t-28 -1q-23 0 -30 4q-13 7 -30 7q-8 0 -25 -2t-24 -3h-6q-9 0 -40 5t-61 5h-18.5h-13.5
t-11 1t-7.5 1t-6.5 2l-5 2.5l-6 3l-7 3.5q-9 5 -31 5h-9.5h-9.5q-54 0 -98 22q-9 5 -22 5q-9 0 -24.5 -3t-20.5 -3q-10 0 -40 -1t-39 -1q-28 0 -89 11q-4 1 -10 1q-11 0 -36.5 -4t-36.5 -5h-6q-13 0 -30.5 2.5t-37.5 5.5t-28 4q-13 1 -52 1h-38.5h-38.5h-37q-38 2 -38 10
q0 1 2 11q2 8 77 8h5h5q10 0 31.5 4t35.5 4h6q9 -1 17 -1q17 0 77 6q100 8 160 16q12 1 22 1q9 0 20 -1t15 -1q5 0 10 1h5q4 0 21 -1t28 -1q20 0 30 4q9 3 38 5.5t66 4t48 2.5q6 1 12 1q13 0 29.5 -4.5t24.5 -4.5q12 0 18.5 5t14.5 5q18 0 106 16q13 3 23 3q6 0 18.5 -1.5
t23.5 -1.5h10q26 1 79 12q14 2 71 6t113 7.5t60 3.5q3 1 57.5 5.5t69.5 6.5q13 1 30 11t37 10q31 0 75 17t60 35q5 5 5 10q0 9 -14 15.5t-34 11t-21 5.5q-9 4 -18 6t-17.5 3.5t-12.5 2.5q-48 11 -68 11q-12 0 -42.5 2t-42.5 2q-6 0 -10 -1h-8q-1 0 -53 7q-8 1 -15 1
t-18.5 -1.5t-20.5 -1.5h-9q-17 1 -49 7t-44 8q-12 1 -12 6q0 8 24 12q8 2 19.5 3t25.5 2t19 2q2 0 14 0.5t21.5 2t18.5 5.5q6 3 13 3q8 0 23 -4t17 -4h4q9 0 32 5t29 5q13 0 41 7t40 13q17 8 42 10q6 1 48.5 3t60.5 4q4 0 10 0.5t8.5 1t6.5 1t5.5 1l4.5 1.5t4.5 2t3 2.5
t2.5 3.5t2.5 4.5t1.5 4.5q0 7 -8 10.5t-20.5 5.5t-14.5 3q-14 5 -54 5q-15 0 -67 -1q-5 -1 -10 -1q-20 0 -32.5 2.5t-26.5 7.5t-19 7q-12 3 -55.5 4t-51.5 6q-11 7 -20 7q-4 0 -12.5 -2t-13.5 -2q-43 0 -59 9q-9 4 -25 4q-13 0 -42 -4h-7q-16 0 -56 15q-8 3 -16 3
q-4 0 -13 -1t-16 -1q-12 0 -26 2q-9 2 -24 4q-21 2 -26.5 4t-5.5 9q0 4 9 5.5t25 2t24 2.5q7 1 30.5 2.5t39.5 3.5q17 3 53 3h11h11h18q27 2 71 3.5t52 1.5q62 7 79 7h1.5h2.5q50 0 50 14q0 7 -7 14t-7 12v2q6 5 39 5q14 0 23 -2h8q10 0 25.5 6.5t17.5 6.5q21 6 90 11
q9 1 29.5 7t44.5 6q38 0 75 7.5t39 21.5v2q0 4 -1.5 7t-5 5t-7 3.5t-8.5 2.5t-8 1t-8 0.5l-5 0.5q-6 1 -18.5 1.5t-20.5 1t-10 2.5q-5 5 -11.5 7t-18.5 3t-16 2q-11 1 -33.5 7t-34.5 9q-16 3 -29 10.5t-19 9.5q-10 4 -28 4q-6 0 -19.5 -0.5t-20.5 -0.5q-13 0 -23 1t-10 8
t11 9q79 3 99 8q17 4 19 4q1 0 30 -1h9q17 0 28 2.5t29 9t29 10.5q25 7 72 7h8q26 0 36 2q13 3 50 12.5t50 11.5q22 5 110 5zM2061 2054l2 -2059q-27 -3 -54 5q-11 3 -79.5 1t-92.5 7q-23 8 -45.5 13.5t-35.5 10.5q-15 6 -30.5 6.5t-22.5 3.5q-8 3 -48.5 6t-54.5 7
q-8 2 -13 2t-12.5 -2.5t-14.5 -2.5q-6 0 -14 1q-16 3 -29 9t-34 9q-52 9 -64 16q-2 2 -17.5 2t-28 2.5t-12.5 10.5t13.5 10.5t31.5 2.5t21 1q2 1 9.5 8t25.5 9q11 1 19 1q7 0 17 -1.5t18 -1.5q17 0 51 5t49 9q11 4 74 5.5t68 3.5h7q4 0 17.5 -1t22.5 -1q21 0 38 5q12 3 12 7
q0 5 -19.5 11t-29.5 6q-5 0 -59.5 11.5t-62.5 11.5q-33 0 -68 8q-7 1 -13 1q-7 0 -22 -3t-26 -5h-12q-33 0 -79.5 7t-59.5 16q-9 6 -18 6q-6 0 -30 -6t-50 -8q-30 -2 -37 -2q-5 0 -7.5 0.5t-3.5 2t-4.5 5t-9.5 7.5q-12 8 -20 8q-2 0 -15.5 -3t-30.5 -4h-7q-22 0 -39 7.5
t-28 9.5q-44 5 -93 5q-52 0 -107 19q-16 5 -25 5q-6 0 -13.5 -3.5t-14.5 -3.5q-8 0 -20 3.5t-30 3.5q-40 0 -76 13q-23 8 -35 8q-9 0 -22 -3q-2 -1 -5 -1q-8 0 -14 6t-6 14q0 7 4 11q5 6 19 9t38.5 5t28.5 3h12q5 0 17 -0.5t19 -0.5q27 0 51 7q32 9 109 9q51 0 70 -3h6
q10 0 26.5 6.5t23.5 6.5q84 8 101 17q6 3 13 3q8 0 20.5 -5t16.5 -5q5 0 9 3q8 7 40 7q44 0 69 -10q6 -3 16 -3q16 0 49 10t44 11t45 3t61.5 4t33.5 4q3 2 32.5 2t68 5t64.5 18q23 11 23 22q0 10 -21 17.5t-39 7.5q-16 0 -156 19q-6 1 -22 3.5t-28.5 4.5t-21.5 2h-5h-3
q-18 0 -50.5 10t-42.5 20q-5 6 -12 6q-4 0 -15 -3t-18 -3q-6 0 -11 2q-22 8 -80 13q-8 1 -15 6t-12 5q-4 0 -8 -1q-7 -2 -25 -2q-69 0 -107 15q-21 8 -41 8q-5 0 -18 -1t-21 -1q-28 0 -44 4t-24 19q-1 2 -1 4q0 8 14 11.5t39 5t28 1.5q2 1 55.5 7t68.5 10q88 22 114 22
q13 0 20 -3q16 -6 31 -6q22 0 41 11q7 4 17 4q6 0 18.5 -2t19 -2t11.5 1q8 2 48.5 5.5t49.5 7.5q8 5 41 9t42 8q2 0 21 7t31 12.5t28 16.5t23 24q10 16 10 23q0 5 -3.5 9.5t-13 14t-18 21t-14.5 24.5t-10 17t-19.5 9.5t-49.5 10.5q-14 2 -35 2h-15h-14q-21 0 -31 3
q-19 5 -51 5h-13.5h-11.5q-19 0 -52.5 7t-45.5 14q-3 2 -3 3q0 11 68 15q50 2 79 12q10 4 39 4q7 0 23 -0.5t25 -0.5q34 0 53 4q23 4 23 10q0 2 -4 4.5t-7 3.5l-4 1q-46 5 -71 5q-11 0 -14 -1q-2 -1 -6 -1q-12 0 -86 17q-7 1 -85 8q-12 1 -23 1t-26.5 -1t-21.5 -1
q-7 0 -13 1q-5 1 -18.5 4.5t-30.5 6.5t-39 3q-36 2 -49.5 6t-18.5 16v2q0 3 3.5 5.5t11 3t14.5 1t17.5 0.5h16.5q10 1 28 6t35 5q7 0 14 -1h11q21 0 47.5 9.5t29.5 10.5q9 2 57.5 10.5t63.5 13.5q30 9 140 19q46 4 46 12q0 4 -9 11q-8 6 -25 6q-5 0 -16.5 -1t-17.5 -1t-12 1
q-27 4 -130 4q-26 0 -35 -1h-5q-6 0 -16 2t-18 2q-10 0 -23 -2q-12 -2 -20 -2t-16 4t-15 6q-9 2 -13.5 2.5t-11.5 0.5t-17 2q-10 1 -23.5 1.5t-24 1.5t-21.5 5q-8 3 -28 3q-9 0 -28 -1t-29 -1q-28 0 -37 5q-11 6 -27 6q-7 0 -23.5 -2t-25.5 -2h-6q-11 0 -41 5t-60 5h-32
t-20.5 2.5t-11.5 3.5l-14 7q-7 4 -24 4h-10h-11q-56 0 -103 23q-7 4 -18 4q-8 0 -23.5 -3t-22.5 -3q-9 0 -39.5 -0.5t-39.5 -0.5q-29 0 -90 11q-3 1 -8 1q-10 0 -36 -4t-38 -5h-7q-13 0 -30.5 2t-37.5 5t-28 4q-12 2 -50 2q-12 0 -38 -0.5t-39 -0.5q-24 0 -38 1
q-43 1 -43 15q0 3 2 11q3 11 62 11h17h13q8 0 30 4t36 4h7h17q16 0 77 5q100 9 159 16q13 2 25 2q9 0 20 -1.5t14 -1.5q4 0 7 1t8.5 1t23 -1t26.5 -1q17 0 26 3q10 3 39.5 5.5t66.5 4.5t48 3h12q14 0 31 -4t23 -4q8 0 15 4.5t18 4.5q17 0 105 17q14 2 24 2q7 0 19.5 -1.5
t22.5 -1.5q5 0 10 1q26 1 78 11q14 3 71.5 7t113.5 7t60 4q2 0 56.5 4.5t69.5 6.5q10 1 28 11t40 10q29 0 72.5 17t58.5 33q3 4 3 8q0 7 -12 12t-30.5 9.5t-23.5 6.5q-8 4 -16.5 6t-17 3t-12.5 2q-48 12 -67 12q-12 0 -43 1.5t-42 1.5h-10h-8q-1 0 -54 6q-7 1 -14 1
q-6 0 -17.5 -1.5t-21.5 -1.5q-4 0 -9 1q-18 1 -50.5 7t-43.5 7q-16 3 -16 9q0 5 9.5 11t18.5 8l20 2.5t25.5 2.5t18.5 1q3 1 15 1.5t20.5 2t17.5 4.5q7 3 16 3t24 -3.5t16 -4t3 -0.5q7 0 30.5 5t30.5 5q11 0 39 7t39 13q18 8 45 11q6 1 48 3t61 3q4 1 9.5 1.5t8 0.5t6.5 0.5
t5.5 1t3.5 1t3 1.5l2.5 2.5t2.5 3t2 3.5v3q0 4 -6 6.5t-17 4.5t-16 4q-13 4 -53 4q-19 0 -66 -1h-10q-20 0 -33.5 2.5t-28 7.5t-17.5 6q-10 3 -54.5 4t-54.5 8q-10 5 -17 5q-3 0 -11 -2t-15 -2q-45 0 -62 10q-7 4 -22 4q-14 0 -41 -4q-4 -1 -8 -1q-17 0 -58 15q-6 3 -13 3
q-3 0 -12 -1t-16 -1q-13 0 -29 3q-7 1 -16.5 2t-14.5 2t-10.5 2t-8.5 2t-5.5 2.5t-3.5 4t-1 6.5q0 7 11 9.5t28.5 3t22.5 1.5q8 2 31 3t39 4q18 3 53 3h13h11h16q28 2 72 3t51 2q62 6 80 6q48 0 48 10q0 3 -7 10.5t-7 13.5q0 3 1 5q2 8 41 8q16 0 27 -1q3 -1 7 -1q9 0 23 6
t18 8q22 6 92 11q6 0 27.5 6.5t46.5 6.5q36 0 71.5 7t37.5 17v2q0 2 -1 3.5t-2.5 3t-3.5 2.5t-5 2t-5.5 1.5t-6 1.5t-5.5 1t-5.5 0.5t-4.5 0.5h-17t-22.5 1.5t-13 5t-9 5t-17 2.5t-16.5 2q-11 2 -33.5 8t-35.5 8q-17 4 -30 12t-18 9q-8 3 -25 3h-18h-21q-14 0 -26 1
q-15 1 -15 13q0 11 17 12q78 4 98 9q16 4 21 4q4 0 29 -1h9q16 0 26.5 2t28.5 8.5t29 10.5q27 8 74 8h5.5h5.5q23 0 32 2q13 2 50 11.5t49 12.5q12 2 41 3t53 2h23z" />
</svg>
