<?xml version="1.0" standalone="no"?>
<!DOCTYPE svg PUBLIC "-//W3C//DTD SVG 1.1//EN" "http://www.w3.org/Graphics/SVG/1.1/DTD/svg11.dtd" >
<svg xmlns="http://www.w3.org/2000/svg" xmlns:xlink="http://www.w3.org/1999/xlink" version="1.1" viewBox="-10 0 2177 2048">
   <path fill="currentColor"
d="M2157 1023q0 116 -36 197.5t-87 82.5l-1 1q-15 0 -30 -9h5q-39 -27 -64 -93t-30.5 -144t15 -162t67.5 -141v1q18 -13 37 -13q51 0 87.5 82t36.5 198zM1991 1295l-98 173q3 31 3 56q0 115 -36 197t-87 83h-1q-13 0 -27 -7h-1q-39 -29 -63.5 -97.5t-28.5 -149t19.5 -165
t73.5 -138.5l-142 -4q-52 50 -77.5 130.5t-23 160t28.5 152t70 108.5l106 4l-130 228l-575 -994l572 -996l126 215l-103 -2q-52 50 -77.5 130.5t-23 160t28.5 152t70 109.5l146 3q-38 -26 -63 -91t-31 -141.5t13 -159.5t63 -141q22 -20 46 -20q51 0 87.5 82t36.5 198
q0 18 -2 46l97 166l-124 -4q-52 50 -77.5 130.5t-23 160.5t28.5 152t70 109zM1458 1308q-40 -28 -65.5 -97t-30 -149.5t19 -165.5t74.5 -140l-142 -4q-52 50 -77.5 130.5t-23 160t28.5 152t70 109.5zM1393 5l-550 927h-835l522 -932zM1413 2048h-890l-523 -932h835z" />
</svg>
