<?xml version="1.0" standalone="no"?>
<!DOCTYPE svg PUBLIC "-//W3C//DTD SVG 1.1//EN" "http://www.w3.org/Graphics/SVG/1.1/DTD/svg11.dtd" >
<svg xmlns="http://www.w3.org/2000/svg" xmlns:xlink="http://www.w3.org/1999/xlink" version="1.1" viewBox="-10 0 1965 2048">
   <path fill="currentColor"
d="M972 0q109 0 187 34t79 82v2q0 14 -8 28v-5q-26 37 -88.5 61t-137 29t-154 -14.5t-133.5 -63.5h1q-12 -18 -12 -35q0 -49 77.5 -83.5t188.5 -34.5zM1230 157l164 94q29 -3 53 -3q109 0 187 34t79 82v2q0 12 -7 25v1q-27 37 -92.5 60.5t-141.5 27t-156 -18.5t-132 -70
l-4 135q47 49 123.5 73.5t152.5 22t144.5 -27t103.5 -66.5l3 -101l217 123l-944 546l-945 -543l204 -119l-3 97q48 50 124.5 74t152 22t144 -27t103.5 -67l4 -138q-25 36 -87 60t-134.5 29.5t-151.5 -12.5t-133 -60q-20 -21 -20 -44q0 -49 78 -83t188 -34q17 0 44 1l158 -92
l-4 118q48 49 124 73.5t152 22t144.5 -27t103.5 -66.5zM1242 664q-27 38 -92 62t-141.5 28t-157.5 -18t-134 -70l-3 134q47 50 123.5 74t152.5 21.5t144.5 -27t103.5 -66.5zM5 725l880 522v794l-885 -497zM1945 706v846l-886 496v-793z" />
</svg>
