<?xml version="1.0" standalone="no"?>
<!DOCTYPE svg PUBLIC "-//W3C//DTD SVG 1.1//EN" "http://www.w3.org/Graphics/SVG/1.1/DTD/svg11.dtd" >
<svg xmlns="http://www.w3.org/2000/svg" xmlns:xlink="http://www.w3.org/1999/xlink" version="1.1" viewBox="-10 0 1972 2048">
   <path fill="currentColor"
d="M1588 552q-60 0 -132 28q-24 -168 -154 -280t-302 -112q-188 0 -324 136t-136 328v16q-4 0 -8 -2t-8 -2q-104 0 -176 74t-72 178v4q-32 -12 -64 -12q-88 0 -150 64t-62 152q0 160 212 160h1376q148 0 256 -106t108 -258t-106 -260t-258 -108zM408 1392q0 36 -32 36
q-36 0 -36 -36q0 -32 36 -32q32 0 32 32zM748 1428q0 32 -36 32q-32 0 -32 -32q0 -36 32 -36q36 0 36 36zM592 1632q0 32 -32 32q-36 0 -36 -32q0 -36 36 -36q32 0 32 36zM1300 1360q0 32 -32 32q-36 0 -36 -32q0 -36 36 -36q32 0 32 36zM1112 1564q0 32 -36 32
q-32 0 -32 -32q0 -36 32 -36q36 0 36 36zM1336 1596q0 36 -36 36q-32 0 -32 -36q0 -32 32 -32q36 0 36 32zM856 1664q0 36 -32 36q-36 0 -36 -36q0 -32 36 -32q32 0 32 32zM1112 1828q0 32 -36 32q-32 0 -32 -32q0 -36 32 -36q36 0 36 36zM1564 1428q0 32 -36 32
q-32 0 -32 -32q0 -36 32 -36q36 0 36 36zM408 1732q0 36 -32 36q-36 0 -36 -36q0 -32 36 -32q32 0 32 32z" />
</svg>
