<?xml version="1.0" standalone="no"?>
<!DOCTYPE svg PUBLIC "-//W3C//DTD SVG 1.1//EN" "http://www.w3.org/Graphics/SVG/1.1/DTD/svg11.dtd" >
<svg xmlns="http://www.w3.org/2000/svg" xmlns:xlink="http://www.w3.org/1999/xlink" version="1.1" viewBox="-11 0 644 2048">
   <path fill="currentColor"
d="M483 1992q84 -12 108 -124q24 -108 -16 -260q-12 -80 16 -208q56 -304 12 -616q-8 -64 -28 -118t-54 -114t-38 -68q-24 -48 -38 -112t-14 -100l-4 -40h28v-52l-8 -8v-108l-136 -8l-136 8v108l-8 8v52h28q0 140 -56 252q-4 8 -38 68t-54 114t-28 118q-44 312 12 616
q28 128 16 204q-36 160 -16 264q12 48 38 80t50 36l20 8h344z" />
</svg>
