<?xml version="1.0" standalone="no"?>
<!DOCTYPE svg PUBLIC "-//W3C//DTD SVG 1.1//EN" "http://www.w3.org/Graphics/SVG/1.1/DTD/svg11.dtd" >
<svg xmlns="http://www.w3.org/2000/svg" xmlns:xlink="http://www.w3.org/1999/xlink" version="1.1" viewBox="-10 0 1964 2048">
   <path fill="currentColor"
d="M972 1716q404 0 688 -286t284 -690h-1944q0 404 284 690t688 286zM0 1824h1944v164h-1944v-164zM560 464q0 12 4 16v4q4 4 4 8q4 4 8 12t8 12l16 16q4 4 16 12q4 0 4 4l8 4l24 8h8v-8q-4 -4 -4 -20v-12v-16q0 -16 8 -32v-8l4 -4q4 -4 4 -8l4 -4l4 -4l4 -4q8 -8 12 -8
q8 -8 8 -12q4 0 12 -8h4l4 -4q8 -8 12 -8l8 -8l16 -12q32 -24 48 -56q24 -40 28 -72q8 -36 0 -68t-24 -56t-56 -56q-4 0 -10 -4t-10 -8h-4q-4 0 -4 8v20q0 16 -8 64q0 16 -8 32q-4 8 -10 16t-6 12l-20 20q-8 12 -24 24l-8 4v4l-4 4h-4l-4 4l-8 8l-8 8l-4 4q-8 8 -24 32
q-16 12 -20 32q-4 4 -4 8q-4 8 -4 12l-4 8v8q0 12 -4 20v8v8q0 12 8 36zM872 464q4 0 4 8t4 8l4 4v8q0 4 6 12t10 12l16 16q8 8 16 12l4 4q4 4 8 4t12 4t12 4h8q0 -4 -4 -8v-20v-12v-16q0 -16 8 -32v-8l4 -4q0 -4 4 -8q0 -4 4 -4q0 -4 4 -4l4 -4l8 -8l12 -12q4 0 12 -8h4
l4 -4q8 -8 12 -8l8 -8l16 -12q20 -16 48 -56q24 -40 28 -72q8 -40 -4 -68q-4 -28 -20 -56q-12 -24 -56 -56q-16 -8 -20 -12h-8v8v20q0 16 -8 64q-8 28 -12 32q-4 12 -12 28l-20 20l-24 24l-8 4v4l-4 4h-4l-4 4q-8 8 -12 8l-4 8q-4 0 -4 4q-12 8 -28 32l-16 32q-4 4 -4 8
q-4 8 -4 12v8q-4 4 -4 8t-2 10t-2 10v8v8q0 24 4 36z" />
</svg>
