<?xml version="1.0" standalone="no"?>
<!DOCTYPE svg PUBLIC "-//W3C//DTD SVG 1.1//EN" "http://www.w3.org/Graphics/SVG/1.1/DTD/svg11.dtd" >
<svg xmlns="http://www.w3.org/2000/svg" xmlns:xlink="http://www.w3.org/1999/xlink" version="1.1" viewBox="-10 0 1692 2048">
   <path fill="currentColor"
d="M1648 1939q-72 -16 -126 -80t-58 -140q-4 -92 -70 -174t-158 -102l-4 -4q-80 -20 -128 -80q-56 -72 -56 -140q-8 -148 -144 -236q-8 -8 -24 -16q-36 -20 -68 -24q-72 -20 -126 -84t-58 -140q-8 -56 -24 -96q-52 -112 -152 -160q0 -8 4 -12q100 -132 -40 -272
q-84 -84 -200 -116t-180 20q-56 64 -24 180t116 204q124 120 248 52l36 -12q96 36 140 136q12 20 20 76v4q4 92 70 174t158 102q28 4 56 20l8 4q8 4 16 12q4 4 10 8t10 4l8 8q72 72 80 164q8 104 72 176q60 76 160 104q76 16 130 80t58 140q4 96 70 176t158 100q28 8 36 -20
v-4q0 -28 -24 -32z" />
</svg>
