<?xml version="1.0" standalone="no"?>
<!DOCTYPE svg PUBLIC "-//W3C//DTD SVG 1.1//EN" "http://www.w3.org/Graphics/SVG/1.1/DTD/svg11.dtd" >
<svg xmlns="http://www.w3.org/2000/svg" xmlns:xlink="http://www.w3.org/1999/xlink" version="1.1" viewBox="-10 0 1598 2048">
   <path fill="currentColor"
d="M1060 48q-236 0 -386 106t-130 370q-156 -56 -196 -216q-28 -100 -136 -80q-44 12 -66 52t-10 84q48 184 178 278t278 122q64 212 12 408l-4 8v4q-44 148 -276 184q-196 -44 -280 92q-64 108 -34 248t118 248q32 44 84 44q40 0 68 -24q84 -72 20 -156q-52 -64 -72 -142
t-4 -98q40 0 68 8q60 16 196 36q64 20 260 32q300 16 532 -230t284 -618q52 -344 -102 -552t-402 -208z" />
</svg>
