<?xml version="1.0" standalone="no"?>
<!DOCTYPE svg PUBLIC "-//W3C//DTD SVG 1.1//EN" "http://www.w3.org/Graphics/SVG/1.1/DTD/svg11.dtd" >
<svg xmlns="http://www.w3.org/2000/svg" xmlns:xlink="http://www.w3.org/1999/xlink" version="1.1" viewBox="-11 0 1975 2048">
   <path fill="currentColor"
d="M1911 860l-176 -64q8 -140 -84 -180l-1128 -416q-32 -116 -132 -152q-32 -12 -68 -12q-88 0 -170 72t-122 184q-52 140 -18 262t134 158q32 12 68 12q72 0 128 -40l432 156q-12 40 -12 88q0 180 136 292l-316 624q-28 64 32 100q24 8 36 8q44 0 64 -40l316 -620q4 4 20 8
t20 4v636q0 28 22 50t54 22q28 0 50 -22t22 -50v-636q16 -4 40 -12l316 620q20 40 68 40q8 0 32 -8q68 -36 32 -100l-316 -624q60 -48 96 -120q88 20 168 -84l176 60q72 20 108 -80q40 -104 -28 -136zM371 416q-32 80 -84 126t-88 34q-40 -16 -50 -82t22 -150
q24 -72 70 -116t82 -44h16q36 16 48 82t-16 150zM1383 1016q-8 68 -50 112t-90 36q-52 -4 -80 -58t-20 -122t50 -112t94 -36q48 8 76 60t20 120z" />
</svg>
