<?xml version="1.0" standalone="no"?>
<!DOCTYPE svg PUBLIC "-//W3C//DTD SVG 1.1//EN" "http://www.w3.org/Graphics/SVG/1.1/DTD/svg11.dtd" >
<svg xmlns="http://www.w3.org/2000/svg" xmlns:xlink="http://www.w3.org/1999/xlink" version="1.1" viewBox="-11 0 1973 2048">
   <path fill="currentColor"
d="M1584 522l64 -12q68 -12 136 -120l100 -152q72 -104 48 -128l-24 -20l-20 -24q-28 -24 -128 48l-152 100q-104 68 -120 132l-12 68l-296 296l108 108zM640 1186l-76 -72q0 4 -4 4l-496 496q-64 68 -64 160t64 156t160 64t160 -64l496 -496q4 0 4 -4l-72 -72zM1876 1538
l-968 -968q8 -44 0 -132q-28 -152 -128 -252q-152 -144 -356 -132q-52 4 -62 42t26 74l172 172q32 32 32 74t-32 74l-108 112q-32 32 -74 32t-74 -32l-180 -180q-36 -36 -76 -28t-44 60q-28 220 132 380q116 116 280 128q68 8 124 -4l956 956q80 80 188 80q112 0 192 -80
q76 -80 76 -188t-76 -188z" />
</svg>
