<?xml version="1.0" standalone="no"?>
<!DOCTYPE svg PUBLIC "-//W3C//DTD SVG 1.1//EN" "http://www.w3.org/Graphics/SVG/1.1/DTD/svg11.dtd" >
<svg xmlns="http://www.w3.org/2000/svg" xmlns:xlink="http://www.w3.org/1999/xlink" version="1.1" viewBox="-10 0 1965 2048">
   <path fill="currentColor"
d="M1729 752q0 -52 -52 -86t-124 -34t-122 34t-50 86t50 86t122 34t124 -34t52 -86zM1945 564q0 -48 -20 -90t-40 -58l-16 -20q-48 -60 -116 -88t-116 -28h-44q-76 4 -144 22t-96 34l-28 16q-36 16 -72 18t-56 -2l-20 -4q-24 -12 -74 -18t-90 -6h-40q-152 0 -204 24
q-68 20 -148 -12q-96 -60 -268 -72q-172 -16 -276 116q-72 64 -76 168q-8 112 80 148q0 20 6 52t52 76t126 28q-8 -4 -20 -16t-32 -42t-22 -62t32 -72t110 -76q-4 -4 -14 -8t-42 -8t-68 8q-76 0 -84 -68q0 -4 2 -14t14 -32t32 -38t64 -28t100 -12q12 0 32 4t72 16t92 28
t76 50t40 78q8 200 68 280q48 96 120 172q4 8 8 22t12 50t-12 56q-4 8 -12 28t-20 88t4 148q0 228 68 328q36 44 60 0q16 -12 28 -12l28 12q12 20 26 20t26 -8l8 -12q32 -44 48 -126t16 -142l4 -60q8 -88 2 -146t-18 -90l-12 -28q-12 -28 -12 -56t12 -52l8 -20
q32 -32 62 -76t42 -72l16 -24q28 -36 44 -106t20 -122l4 -52q8 -68 86 -112t150 -56l76 -8q92 0 146 30t58 62l8 32q0 32 -22 48t-42 20h-20q-40 -12 -68 -10t-40 10l-16 8q120 56 138 122t-26 106l-44 40q80 16 126 -22t54 -86l4 -48q40 -16 60 -52t20 -68v-28zM997 1080
q-4 12 -6 32t12 46t58 10q12 484 -56 548l-32 -20q-12 0 -20 4t-12 12v4q-32 -28 -46 -166t-10 -262v-120q44 16 60 -6t12 -50l-8 -32q0 -200 -56 -352t-112 -204l-52 -52q52 16 112 22t96 2h36q128 16 244 -24q-24 16 -60 56t-98 196t-62 356zM565 752q0 -52 -50 -86
t-122 -34t-124 34t-52 86t52 86t124 34t122 -34t50 -86z" />
</svg>
