<?xml version="1.0" standalone="no"?>
<!DOCTYPE svg PUBLIC "-//W3C//DTD SVG 1.1//EN" "http://www.w3.org/Graphics/SVG/1.1/DTD/svg11.dtd" >
<svg xmlns="http://www.w3.org/2000/svg" xmlns:xlink="http://www.w3.org/1999/xlink" version="1.1" viewBox="-10 0 1972 2048">
   <path fill="currentColor"
d="M1748 1072q4 -16 0 -28t-20 -16l-72 -36q-16 -8 -28 0q-16 16 -16 20t-8 16t-12 20q-16 20 -48 20q-48 0 -68 -44q-28 -44 -28 -120t28 -120q24 -48 68 -48q24 0 44 20l24 36q0 8 16 16q12 8 28 0l72 -32q12 -8 20 -20q4 -12 -4 -28q-68 -140 -200 -140q-108 0 -184 88
q-72 92 -72 228t72 228q72 84 184 84q136 0 204 -144zM1036 1216q100 0 152 -52q60 -52 60 -136q0 -40 -20 -80q-20 -32 -44 -56q16 -12 40 -52q16 -40 16 -68q0 -84 -56 -132t-148 -48q-124 0 -196 100q-12 28 4 44l56 52q16 8 24 8q16 0 28 -12q32 -48 80 -48q36 0 44 20
q8 24 8 28t-4 12t-4 12q-4 16 -48 16h-40q-20 0 -28 8q-12 12 -12 24v84q0 12 12 24q8 16 28 8h40q44 0 56 16q8 24 8 32q0 48 -56 48q-60 0 -88 -48q-12 -12 -28 -12q-12 -4 -24 8l-56 56q-24 16 -4 44q28 44 84 76q52 24 116 24zM816 640q4 -16 -8 -28q-8 -12 -24 -12h-96
q-24 0 -32 24l-48 240l-48 -240q-8 -24 -32 -24h-72q-32 0 -36 24l-48 240l-48 -240q0 -24 -32 -24h-96q-16 0 -28 12q-8 20 -4 28l120 540q4 28 36 28h92q28 0 32 -28l48 -220l44 220q4 28 32 28h96q28 0 32 -28zM1884 84q32 0 48 20q20 16 20 48v1400q0 16 -12 36t-32 28
l-904 344q-4 4 -24 4t-24 -4l-912 -344q-24 -16 -32 -28q-12 -20 -12 -36v-1400q0 -28 20 -48q16 -20 48 -20h1816z" />
</svg>
