<?xml version="1.0" standalone="no"?>
<!DOCTYPE svg PUBLIC "-//W3C//DTD SVG 1.1//EN" "http://www.w3.org/Graphics/SVG/1.1/DTD/svg11.dtd" >
<svg xmlns="http://www.w3.org/2000/svg" xmlns:xlink="http://www.w3.org/1999/xlink" version="1.1" viewBox="-10 0 1044 2048">
   <path fill="currentColor"
d="M464 360q64 0 108 -52t44 -112q-8 -68 -48 -108q-48 -48 -112 -44q-64 0 -108 48q-44 52 -44 112q0 64 48 112q44 44 112 44zM992 888l-228 -124l-52 -80l-80 -132l-56 -88q-52 -68 -136 -68q-48 0 -104 44l-44 48l-240 240q-8 16 -16 40l-36 316v4v8q0 28 20 48
q4 8 28 20q4 0 12 2t12 2q24 0 48 -24q20 -20 20 -44l8 -48l12 -136l12 -92l100 -100l-40 308l-16 132l-20 172l-16 156l-164 364q-8 32 -8 44q0 44 32 76q28 32 76 28q60 0 92 -60l176 -388q0 -8 4 -16q0 -4 8 -20q4 -4 4 -16l20 -176l8 8l104 168l100 384q16 32 24 40
q24 36 72 44q40 0 64 -20l4 -4q4 -4 8 -4q48 -40 36 -104l-104 -388l-8 -20q-4 -16 -4 -20q-4 -8 -4 -20l-8 -16l-24 -36l-8 -16l-44 -64l-20 -28l-20 -28l-52 -80l8 -104l12 -92l20 -188l72 112q0 4 20 24l244 136l32 8q32 0 52 -24q20 -20 20 -52q0 -36 -32 -56z" />
</svg>
