<?xml version="1.0" standalone="no"?>
<!DOCTYPE svg PUBLIC "-//W3C//DTD SVG 1.1//EN" "http://www.w3.org/Graphics/SVG/1.1/DTD/svg11.dtd" >
<svg xmlns="http://www.w3.org/2000/svg" xmlns:xlink="http://www.w3.org/1999/xlink" version="1.1" viewBox="-10 0 1968 2048">
   <path fill="currentColor"
d="M1922 992l-80 -44l-84 -48q-52 -36 -64 -84q-24 -76 -68 -156q-24 -56 -12 -108l24 -88l24 -92q8 -20 -4 -32t-36 -8l-92 24l-88 24q-60 16 -108 -12q-76 -40 -156 -64q-56 -12 -84 -64l-48 -84l-44 -80q-28 -52 -60 0l-48 84l-48 80q-24 52 -80 68q-84 24 -152 64
q-48 28 -108 12l-92 -24l-92 -24q-20 -8 -32 4t-8 36l24 92l28 96q16 52 -16 104v4q-36 76 -60 148q-16 56 -64 80l-84 48l-84 48q-52 28 0 60l84 48l84 48q56 32 68 84l60 144q28 48 12 108l-24 92l-24 96q-8 20 4 32t36 8l92 -24l96 -28q52 -12 108 12v4q76 36 148 60
q52 16 84 64l44 84l48 84q28 52 60 0l48 -84l48 -84q36 -52 84 -64q80 -24 148 -64q52 -28 108 -12l92 24l92 24q52 12 40 -40l-24 -92l-24 -92q-16 -56 12 -104v-4q36 -64 64 -152q12 -52 68 -84l80 -48l80 -44q52 -28 0 -60z" />
</svg>
