<?xml version="1.0" standalone="no"?>
<!DOCTYPE svg PUBLIC "-//W3C//DTD SVG 1.1//EN" "http://www.w3.org/Graphics/SVG/1.1/DTD/svg11.dtd" >
<svg xmlns="http://www.w3.org/2000/svg" xmlns:xlink="http://www.w3.org/1999/xlink" version="1.1" viewBox="-10 0 1268 2048">
   <path fill="currentColor"
d="M1224 148q-8 0 -28 -16q-32 -16 -44 -24q-16 -12 -48 -28l-48 -24q-4 0 -12 -4t-12 -4q-28 0 -40 24l-80 140l-848 1520q-64 104 -64 124q0 24 24 44q172 100 196 100q20 0 40 -24l68 -128q52 -96 206 -372t254 -452q292 -528 460 -824v-12q0 -24 -24 -40z" />
</svg>
