<?xml version="1.0" standalone="no"?>
<!DOCTYPE svg PUBLIC "-//W3C//DTD SVG 1.1//EN" "http://www.w3.org/Graphics/SVG/1.1/DTD/svg11.dtd" >
<svg xmlns="http://www.w3.org/2000/svg" xmlns:xlink="http://www.w3.org/1999/xlink" version="1.1" viewBox="-11 0 2010 2048">
   <path fill="currentColor"
d="M1958 1216q-48 -172 -216 -324t-388 -212q32 48 32 96q64 24 104 60q32 32 44 76h24q96 0 132 80q48 88 -24 188q48 40 72 84q44 100 32 142t-92 126l-4 4q36 44 180 44q56 0 96 -48q72 -96 8 -316zM1670 1296q-40 -88 -132 -88h-4l4 -4q124 -100 88 -180
q-20 -40 -68 -40q-40 0 -112 36l-4 4q0 -4 4 -4q36 -92 -4 -128q-56 -52 -120 -52h-16v-8l4 -8q20 -80 -34 -124t-106 -44q-20 0 -68 8q-12 4 -26 6t-24 6t-14 4h-8v-4q0 -28 -8 -56l-16 -32q-48 -88 -156 -112q-20 -8 -60 -8q-68 0 -132 36t-96 72l-32 36q-76 -44 -140 -44
q-56 0 -102 34t-62 70l-16 32q-32 -8 -44 -8q-56 0 -68 48t4 96l16 44q-76 32 -102 70t-10 74t32 54t32 30q192 -368 640 -384h20h28q464 0 792 684l12 24q4 12 20 36l28 4l16 4l16 -16q56 -56 60 -80t-32 -88zM1510 1488q-12 -12 -12 -20q-8 -16 -12 -20
q-116 -256 -300 -452t-428 -196h-24h-20q-392 16 -572 332q0 4 -4 8l-12 24q-4 4 -6 10t-6 12t-4 10q-76 172 -92 372h1556l-32 -32q-24 -32 -32 -48zM758 1092q0 -28 20 -48t48 -20t48 20t20 48t-20 48t-48 20t-48 -20t-20 -48zM986 1368q0 20 -12 32q-20 36 -56 36
q-28 0 -48 -18t-20 -46v-8q0 -20 4 -28q12 -20 32 -32q16 -8 32 -8q36 0 56 32q12 12 12 36v4zM1054 1252q-28 0 -48 -20t-20 -48t20 -48t48 -20q68 0 68 68q0 28 -20 48t-48 20z" />
</svg>
