<?xml version="1.0" standalone="no"?>
<!DOCTYPE svg PUBLIC "-//W3C//DTD SVG 1.1//EN" "http://www.w3.org/Graphics/SVG/1.1/DTD/svg11.dtd" >
<svg xmlns="http://www.w3.org/2000/svg" xmlns:xlink="http://www.w3.org/1999/xlink" version="1.1" viewBox="-11 0 1955 2048">
   <path fill="currentColor"
d="M682 704l464 552q4 -16 32 -24l-592 -1096q-20 -40 -62 -52t-82 8t-52 62t8 82zM1806 1592h-4l-8 -4h-8q-68 -16 -160 -16h-12q-108 0 -188 16q92 100 20 164l-4 4q-28 24 -60 24q-24 0 -56 -24q-16 -12 -48 -44l-56 -64q-60 24 -100 52l-72 48q-28 16 -92 56
q-8 8 -28 18l-28 14q-8 4 -24 14t-24 14q-52 28 -68 36q0 8 12 20q32 32 52 40q24 8 44 8q24 0 56 -4t58 -10t50 -12t36 -10l16 -4l260 -60l328 -28q28 -4 52 -24q44 -36 44 -72q12 -36 12 -76q4 -28 4 -76h-4zM1922 1548q-40 -72 -92 -132l-16 -16q-12 0 0 28q8 16 8 28
l4 24q-4 0 -12 -20q-36 -72 -44 -84q-36 -52 -80 -72q-36 -16 -44 -20q-16 -8 -20 -8q-16 0 4 28q24 36 68 120q8 20 4 20t-16 -16q-52 -92 -128 -152q-40 -32 -100 -40h-36h-4q-40 0 -4 24q92 56 136 156q12 24 4 24q-8 -8 -16 -20q-76 -108 -188 -156q-40 -20 -68 -20
q-4 0 -12 4l-24 4l-48 12h-4q-40 12 8 28q4 4 8 4q96 40 172 144l8 20q-4 0 -20 -16q-64 -72 -136 -100l-24 -12l52 60l136 164q76 -16 216 -24h12q76 0 168 20q8 0 16 4q12 0 76 16q24 8 32 8q16 0 16 -12zM942 1772q12 -8 70 -44t90 -56q48 -28 92 -52l-184 -200
q-56 -8 -80 -8q-60 0 -96 36q-20 16 -48 44q-36 28 4 28h12q20 -4 52 -4q136 0 240 88l8 4v4h-4l-8 -8q-124 -56 -228 -56q-16 0 -100 12q-48 12 -88 60q-8 16 -24 40q-20 40 4 40q4 -4 8 -4q24 -8 40 -8q56 -12 104 -12q84 0 136 20l20 12h-4q-12 0 -20 -4q-12 0 -32 -2
t-32 -2q-72 0 -168 24q-20 4 -60 20q-44 12 -76 60q-24 36 24 52q100 20 120 20h20q12 0 36 -8q12 -4 36 -18t32 -18q32 -20 104 -60zM978 1332l12 12l48 52l192 208l8 8l8 8l12 12v4l48 52q56 56 76 56t40 -16q4 -8 12 -16q28 -36 -40 -104l-8 -12l-4 -4l-8 -12l-16 -16
l-8 -12l-204 -240l-16 -24l-20 -20l-300 -356l-628 -748q-32 -36 -76 -36t-72 28q-32 28 -34 72t26 76l936 1012z" />
</svg>
