<?xml version="1.0" standalone="no"?>
<!DOCTYPE svg PUBLIC "-//W3C//DTD SVG 1.1//EN" "http://www.w3.org/Graphics/SVG/1.1/DTD/svg11.dtd" >
<svg xmlns="http://www.w3.org/2000/svg" xmlns:xlink="http://www.w3.org/1999/xlink" version="1.1" viewBox="-10 0 1972 2048">
   <path fill="currentColor"
d="M1588 1096q-72 0 -132 24q-12 -84 -48 -148l128 -180q8 -16 4 -24q-8 -16 -16 -20l-260 -84v-272q0 -12 -12 -24q-12 -4 -28 0l-256 80l-160 -220q-8 -8 -24 -8q-8 0 -24 8l-160 220l-256 -80q-16 -8 -28 0q-12 12 -12 24v272l-256 84q-12 4 -20 20q-4 8 4 24l160 220
l-160 220q-8 16 -4 28t20 16l248 80q-20 40 -20 100v8q-32 -12 -64 -12q-88 0 -150 64t-62 152q0 160 212 160h1376q148 0 256 -106t108 -258t-106 -260t-258 -108zM1000 732q-192 0 -326 134t-134 326v20q-4 -4 -16 -4q-100 0 -172 72q-28 -40 -36 -68q-44 -100 -44 -200
t44 -196q36 -100 108 -164q64 -72 164 -108q96 -44 196 -44t200 44q96 40 160 108q72 72 104 152q-108 -72 -248 -72z" />
</svg>
