<?xml version="1.0" standalone="no"?>
<!DOCTYPE svg PUBLIC "-//W3C//DTD SVG 1.1//EN" "http://www.w3.org/Graphics/SVG/1.1/DTD/svg11.dtd" >
<svg xmlns="http://www.w3.org/2000/svg" xmlns:xlink="http://www.w3.org/1999/xlink" version="1.1" viewBox="-10 0 1972 2048">
   <path fill="currentColor"
d="M1940 496l-436 -436q-32 -24 -64 0l-84 88q-12 12 -12 28q0 20 12 32l196 192l-56 56l-196 -192q-28 -36 -60 0l-72 72q-12 12 -12 32q0 16 12 28l116 120l-56 52l-116 -116q-32 -28 -60 0l-76 76q-12 12 -12 28q0 20 12 32l196 196l-56 56l-196 -196q-32 -28 -60 0
l-72 72q-16 16 -16 32t16 32l116 116l-56 56l-116 -116q-32 -32 -64 0l-72 72q-12 12 -12 32q0 16 12 28l196 196l-56 56l-196 -196q-28 -32 -60 0l-76 76q-28 28 0 60l120 116l-60 56l-116 -116q-12 -12 -28 -12q-20 0 -32 12l-72 72q-36 32 0 60l192 196l-56 56l-192 -196
q-12 -12 -32 -12q-16 0 -28 12l-88 84q-24 32 0 64l436 436q12 12 32 12q16 0 32 -12l1428 -1428q24 -32 0 -64z" />
</svg>
