<?xml version="1.0" standalone="no"?>
<!DOCTYPE svg PUBLIC "-//W3C//DTD SVG 1.1//EN" "http://www.w3.org/Graphics/SVG/1.1/DTD/svg11.dtd" >
<svg xmlns="http://www.w3.org/2000/svg" xmlns:xlink="http://www.w3.org/1999/xlink" version="1.1" viewBox="-10 0 1036 2048">
   <path fill="currentColor"
d="M868 196q-148 -148 -360 -148q-152 0 -284 88q-224 152 -224 420v936q0 212 148 360t360 148q152 0 284 -88q224 -152 224 -424v-932q0 -212 -148 -360zM452 352q-16 4 -36 18t-48 68t-28 126v248q0 44 -40 72q-16 12 -48 12t-58 -24t-26 -60v-248q0 -80 24 -150t54 -108
t68 -66t56 -36t30 -12q80 -28 104 52q28 80 -52 108zM848 1488q0 180 -148 284q-92 56 -192 56q-144 0 -240 -100q-100 -92 -100 -236v-372q0 -40 30 -70t70 -30l480 -4q44 0 68 32q32 24 32 68v372z" />
</svg>
