<?xml version="1.0" standalone="no"?>
<!DOCTYPE svg PUBLIC "-//W3C//DTD SVG 1.1//EN" "http://www.w3.org/Graphics/SVG/1.1/DTD/svg11.dtd" >
<svg xmlns="http://www.w3.org/2000/svg" xmlns:xlink="http://www.w3.org/1999/xlink" version="1.1" viewBox="-10 0 1980 2048">
   <path fill="currentColor"
d="M1592 1012q-68 0 -128 24q-28 -168 -158 -280t-302 -112q-152 0 -270 88t-166 228l-12 -16q-8 -12 -12 -20q-60 -96 -60 -216q0 -88 36 -172q36 -80 104 -144q28 -24 12 -60q-12 -32 -48 -28q-124 8 -232 52q-104 52 -184 132q-84 92 -124 192q-48 108 -48 232t48 236
q56 120 132 196q4 4 14 12t14 12q-84 4 -146 66t-62 146q0 164 216 164h1376q152 0 260 -106t108 -258t-108 -260t-260 -108zM544 1124h-16q-84 0 -150 50t-90 126q-24 -16 -36 -28q-64 -64 -108 -160q-40 -92 -40 -200q0 -176 100 -304q100 -136 260 -184q-80 136 -80 284
q0 144 68 268q40 68 92 116l-4 4v12v8q4 4 4 8z" />
</svg>
