<?xml version="1.0" standalone="no"?>
<!DOCTYPE svg PUBLIC "-//W3C//DTD SVG 1.1//EN" "http://www.w3.org/Graphics/SVG/1.1/DTD/svg11.dtd" >
<svg xmlns="http://www.w3.org/2000/svg" xmlns:xlink="http://www.w3.org/1999/xlink" version="1.1" viewBox="-10 0 1956 2048">
   <path fill="currentColor"
d="M500 1292q124 0 262 -66t206 -202q68 136 206 202t262 66t220 -30t146 -74t82 -90t44 -74l8 -32q-64 64 -200 64q-68 0 -128 -76t-132 -150t-172 -74q-104 0 -188 42t-116 82l-32 44q-12 -20 -34 -48t-110 -74t-192 -46q-80 0 -142 46t-98 104t-86 104t-106 46
q-136 0 -200 -64q4 12 10 32t40 72t84 92t146 72t220 32z" />
</svg>
