<?xml version="1.0" standalone="no"?>
<!DOCTYPE svg PUBLIC "-//W3C//DTD SVG 1.1//EN" "http://www.w3.org/Graphics/SVG/1.1/DTD/svg11.dtd" >
<svg xmlns="http://www.w3.org/2000/svg" xmlns:xlink="http://www.w3.org/1999/xlink" version="1.1" viewBox="-10 0 1972 2048">
   <path fill="currentColor"
d="M0 1442h64v-256l100 224q16 36 60 36t60 -36l100 -224v256h64v-256q0 -32 -32 -40q-72 -24 -96 28l-100 220l-96 -220q-20 -52 -96 -28q-28 4 -28 40v256zM500 1234h68v140v10q0 6 10 12t26 6h140v-168h64v232q4 68 -100 68h-204v-44h204q20 0 28 -8t8 -12v-12v-16h-136
q-108 0 -108 -60v-148zM860 1442h184q36 0 60 -12q44 -20 44 -52v-48q0 -32 -48 -48q-32 -8 -56 -8h-76q-40 0 -44 -28v-4v-28v-8q4 -16 36 -20h4h184v-40h-180q-40 0 -52 4q-56 16 -56 64v36q0 52 88 60q8 4 20 4h68h4q32 0 36 12q8 8 8 12v36q0 12 -12 16q-8 8 -28 8h-4
h-180v44zM1552 1370q0 68 100 72h20h168v-40h-172q-52 0 -52 -36v-220h-64v224zM1188 1370v-152q0 -60 84 -72h16h124h16q84 12 84 72v152q0 44 -40 60l64 56h-76l-52 -44l-52 4h-68q-12 0 -36 -8q-64 -16 -64 -68zM1260 1366v8q8 28 48 28h56l-52 -48h76l44 40
q16 -4 16 -20q4 0 4 -8v-144q0 -4 -4 -8q0 -24 -44 -24h-96q-48 0 -48 32v144zM1896 1074q-60 -8 -96 12l-20 12q4 0 4 8t4 8q4 12 24 32q24 16 32 20t30 14t30 18l36 24l12 12q0 -8 -8 -16q-4 -4 -12 -16q-24 -32 -52 -48q-56 -40 -56 -44l-4 -4q12 0 36 -8q4 0 22 -2
t26 -6q4 0 12 -2t12 -2v-4q-16 -24 -24 -32q-56 -44 -80 -60q-8 -8 -28 -16t-24 -8q-20 -8 -20 -12q-12 -8 -20 -36l-44 -88q-20 -48 -24 -56q-76 -120 -192 -184q-16 -12 -64 -20q-12 -4 -36 -4q-4 -4 -12 -8t-12 -8q-96 -68 -120 -8q-12 24 32 80q4 8 12 20t12 20
q4 4 4 12t4 12q16 48 24 68q4 4 10 14t10 18q12 12 12 16q-4 4 -6 10t-4 14t-2 12q-28 104 16 168q28 40 52 28q4 0 24 -60q0 -12 4 -16v4l20 40q12 24 64 68q4 4 16 14t20 14l-12 -12l-28 -28q-12 -16 -32 -50t-24 -42q-4 -16 -20 -48l-4 -8q0 -8 -4 -8q-4 4 -12 14t-12 18
t-12 76h-4q-8 0 -28 -32q-24 -68 -4 -132q16 -48 12 -56q0 -4 -16 -20q-16 -24 -20 -32q-8 -12 -14 -42t-14 -46q-24 -36 -28 -40l-24 -36q-8 -16 -4 -20q0 -8 8 -8h8q4 0 12 2t12 2l48 24q16 16 24 20h8h26q18 0 26 4q40 12 68 36q96 56 156 168q4 8 8 20t8 16q8 24 32 72
q24 52 36 64q4 4 12 8t22 8t18 8t16 8t16 4l48 36q36 12 36 28zM1388 642h-20v4h4q4 8 16 20q4 4 4 12t4 12l4 -4q8 -8 8 -24l-4 -8q-4 -4 -12 -8zM0 970h24q20 0 28 8q12 8 12 20q0 8 -8 24q-16 8 -32 8h-12v40h-12v-100zM16 1022h8q24 0 24 -24q0 -16 -20 -16h-12v40z
M144 1034q0 40 -36 40q-32 0 -32 -40q0 -36 32 -36q36 0 36 36zM88 1034q0 28 20 28q24 0 24 -28t-24 -28q-20 0 -20 28zM168 998l8 36q0 4 2 12t2 12q4 -4 4 -12t4 -12l12 -36h12l8 36q8 16 8 24q0 -4 2 -12t2 -12l12 -36h12l-24 72h-8l-12 -32q-4 -4 -4 -12t-4 -12
q0 8 -8 24l-8 32h-12l-24 -72h16zM276 1038q0 24 24 24q16 0 20 -4l4 8q-8 8 -24 8q-36 0 -36 -40q0 -36 36 -36q28 0 28 32v8h-52zM316 1026q0 -20 -20 -20q-8 0 -20 20h40zM344 1022v-24h12v16q4 -16 20 -16h4v12h-4q-12 0 -20 16v8v36h-12v-48zM400 1038q0 24 24 24
q16 0 20 -4l4 8q-8 8 -24 8q-36 0 -36 -40q0 -36 32 -36t32 32v8h-52zM440 1026q0 -20 -20 -20t-20 20h40zM528 966v88v16h-8l-4 -12q-8 16 -24 16q-32 0 -32 -40q0 -36 36 -36q16 0 20 12v-44h12zM516 1030v-8q-8 -16 -20 -16q-20 0 -20 28t20 28q12 0 20 -16v-4v-12z
M584 966h12v44q4 -12 24 -12q32 0 32 36q0 40 -32 40q-16 0 -28 -16v12h-12q0 -4 2 -8t2 -8v-88zM596 1042v4q0 16 20 16t20 -28t-20 -28q-12 0 -20 16v8v12zM672 998l16 44v4q4 4 4 8q0 -4 4 -12l16 -44h12l-20 52q-8 32 -24 44q-8 8 -16 8l-4 -8l4 -4q8 0 8 -4
q8 -8 12 -16v-4l-28 -68h16z" />
</svg>
