<?xml version="1.0" standalone="no"?>
<!DOCTYPE svg PUBLIC "-//W3C//DTD SVG 1.1//EN" "http://www.w3.org/Graphics/SVG/1.1/DTD/svg11.dtd" >
<svg xmlns="http://www.w3.org/2000/svg" xmlns:xlink="http://www.w3.org/1999/xlink" version="1.1" viewBox="-10 0 1979 2048">
   <path fill="currentColor"
d="M1523 1600q-124 -96 -146 -376t18 -512l44 -232h344q28 0 62 -10t74 -56t40 -122q0 -92 -42 -142t-86 -54h-44h-1260q-236 0 -500 408q-40 64 -20 84t96 -12q152 -64 262 -88t142 -16l36 8q24 72 14 390t-70 454q-8 20 -40 84t-46 94t-34 86t-20 92t6 82t38 82t80 64
q148 84 266 -64t102 -424l-24 -940h316q-52 772 -8 1056q20 204 134 312t248 104t260 -78t170 -198q40 -128 0 -212q-32 -84 -80 -88q-24 0 -20 28q8 52 -4 84q-12 72 -110 122t-198 -10z" />
</svg>
