<?xml version="1.0" standalone="no"?>
<!DOCTYPE svg PUBLIC "-//W3C//DTD SVG 1.1//EN" "http://www.w3.org/Graphics/SVG/1.1/DTD/svg11.dtd" >
<svg xmlns="http://www.w3.org/2000/svg" xmlns:xlink="http://www.w3.org/1999/xlink" version="1.1" viewBox="-10 0 1993 2048">
   <path fill="currentColor"
d="M1969 1408q-88 -336 -256 -596t-332 -396t-354 -226t-282 -114t-148 -32h-8q-44 -4 -82 26t-42 78q-12 100 92 124l-548 1592q-24 72 16 112q28 28 68 28q12 0 44 -8l332 -116l444 -152l824 -284q0 4 4 10t4 10q20 88 112 88q16 0 28 -4q44 -12 70 -52t14 -88zM897 1612
q-16 -40 -56 -88q-76 -76 -182 -76t-182 76q-112 112 -64 252l-288 100l240 -700l24 36q48 48 116 48t116 -48t48 -116t-48 -116q-76 -76 -176 -36l224 -648q84 20 174 56t218 116t238 186t222 284t184 394zM1021 584q0 32 -24 56t-56 24t-54 -24t-22 -56q0 -76 76 -76
q32 0 56 22t24 54zM957 1284q-40 36 -40 88t40 88q36 36 88 36t88 -36t36 -88t-36 -88q-36 -40 -88 -40t-88 40zM1377 968q0 68 -46 116t-114 48t-116 -48t-48 -116t48 -114t116 -46q64 0 112 48t48 112z" />
</svg>
