<?xml version="1.0" standalone="no"?>
<!DOCTYPE svg PUBLIC "-//W3C//DTD SVG 1.1//EN" "http://www.w3.org/Graphics/SVG/1.1/DTD/svg11.dtd" >
<svg xmlns="http://www.w3.org/2000/svg" xmlns:xlink="http://www.w3.org/1999/xlink" version="1.1" viewBox="-10 0 1966 2048">
   <path fill="currentColor"
d="M1166 584q4 48 4 148v376h4v4h8v4q4 0 20 8q4 0 24 6t32 10q100 8 140 -12h4q8 -8 12 -8l8 -8q8 -4 12 -8l16 -16l8 -8q4 -4 8 -4q4 -4 8 -10t4 -10t8 -12v-4q0 -4 4 -10t8 -10q0 -12 8 -20q0 -8 8 -32q0 -16 4 -28q4 -8 4 -32q4 -36 -4 -164h-4v-32l-4 -4q0 -12 -8 -32
t-8 -32q-8 -8 -8 -16q-8 -16 -8 -20l-4 -8q-4 -8 -8 -8q-20 -28 -40 -52h-4l4 -4q-52 -44 -68 -52q0 -4 -8 -8l-8 -4l-36 -24h-4l-24 -12q-12 -4 -28 -12l-16 -8q-8 0 -16 -8q-4 0 -12 -2t-12 -2l-4 -4q-8 0 -8 -4q-12 0 -20 -8q-8 0 -32 -8t-40 -12l-36 -12q-8 0 -16 -8
h-16v-4h-16q-12 -8 -52 -16q-24 -8 -56 -16v-4q-8 0 -40 -8l-8 -4h-12q-4 -4 -20 -4q-12 -4 -44 -12q-12 0 -20 -4t-28 -4v1400q16 8 24 8q8 4 22 10t22 6q4 0 10 2t10 2q4 4 16 4q8 8 20 8q8 4 12 4q16 8 28 8l36 12v4h16q0 4 8 4t8 4q8 4 22 8t22 4q32 12 40 8l-8 8h16
q-4 -32 -4 -96v-1088q0 -40 24 -68l8 -4q32 -4 58 14t30 50zM666 1420q-8 4 -20 4v4h-8q-8 4 -20 8t-16 8l-8 4h-12q-8 8 -20 8q-4 4 -8 4q-8 4 -12 4t-10 4t-10 4q-8 0 -8 4q-28 12 -64 12v4q-56 8 -112 0v-4q-12 0 -20 -4q-4 0 -20 -8l-4 -8h-4q0 -4 2 -12t2 -12l16 -8
t20 -12q4 0 28 -10t40 -14q12 -4 28 -12h12v-4q4 0 12 -4t12 -4t10 -2t10 -2l-4 -4q12 0 20 -4q4 0 10 -2t10 -6v-4h16q12 -4 34 -12t30 -12h8q8 -8 16 -8q4 -4 12 -4q8 -4 32 -12v-184h-16v4q-4 4 -8 4t-8 4q-4 0 -12 4h-8q-16 8 -20 8l-36 12l-24 12q-24 8 -40 12
q-4 4 -16 4l-24 12h-12q-8 4 -40 16q-8 4 -24 10t-24 10h-12l-24 12q-4 0 -8 4h-8q-8 4 -24 10t-24 10q-12 0 -16 4h-8q-8 4 -16 12h-16v4q-4 0 -20 4t-20 8l-16 8q-4 4 -14 8t-14 4t-8 4l-24 12v4q-4 -4 -8 -4v4q-8 12 -28 16q-32 32 -36 40q-20 36 0 68q8 16 16 24
q8 4 24 20q16 8 24 16q4 0 12 4h4q8 8 16 8q16 8 24 8q16 8 48 16v4h20q4 4 8 4q8 4 12 4q12 0 20 4t24 4q8 4 24 4l4 4h16q8 -16 8 4q8 0 24 2t20 2v4h60q32 4 100 4q20 -4 60 -4l-4 -4q12 0 28 -2t24 -2t20 -2t20 -6v-164zM1946 1360l-8 -16v-4l-8 -8q-4 -8 -12 -16v-4h-8
q-8 -8 -32 -24h-4l-4 -8l-4 4q-16 -8 -20 -12q-8 0 -16 -8q-12 -4 -34 -12t-30 -8q-48 -12 -52 -12v-4q-12 0 -20 -4q-52 -12 -56 -12h-44l4 -4q-8 0 -16 -2t-16 -2q-44 0 -68 -4h-40q-24 0 -40 -4v4q-28 0 -84 8v4h-44v4q-20 0 -28 4q-4 0 -12 2t-12 2t-14 2t-14 6
q-32 8 -56 16h-12q-24 8 -32 12q-8 8 -4 20v172l36 -12q4 -4 12 -4q12 -4 28 -12h8q16 -8 40 -16q4 0 10 -2t10 -6q4 0 14 -4t14 -4q4 -4 12 -4q16 -8 24 -8v-4q8 0 22 -4t22 -8l24 -12h12q4 0 8 -4l8 -4q8 0 22 -4t22 -8q4 -4 40 -12q8 -4 28 -4q12 -4 80 -4l-4 4
q24 0 36 4l16 8q24 16 12 32l-8 4l-4 8h-4l-24 12v4q-4 0 -40 12h-8q-4 4 -8 4v4q-12 0 -16 4l-72 24l-4 4h-8q-8 0 -16 8h-8q-4 0 -8 4t-8 4q-36 16 -64 20l-24 12q-12 0 -16 4q-4 0 -8 2t-8 2l-24 12q-24 8 -40 12l4 4h-20v4q-4 0 -14 2t-14 6q-4 0 -14 4t-18 8l-36 12
l-24 12v180l72 -24q8 -4 32 -12q4 -4 16 -4q8 -4 40 -16l36 -12q0 -4 8 -4t8 -4l42 -14q30 -10 46 -14v-4l8 -4h8l24 -12h12l24 -12q12 0 16 -4q4 0 20 -8q4 0 10 -2t10 -2q8 -4 24 -10t24 -10q4 0 12 -4h4l24 -12h12q0 -4 8 -4t8 -4q4 -4 12 -4t12 -4q72 -24 104 -40
q12 0 16 -4q8 -4 22 -10t18 -6q56 -32 80 -52l4 -8h4q4 -4 4 -8l4 -4q0 -8 4 -8q8 -12 8 -48z" />
</svg>
