<?xml version="1.0" standalone="no"?>
<!DOCTYPE svg PUBLIC "-//W3C//DTD SVG 1.1//EN" "http://www.w3.org/Graphics/SVG/1.1/DTD/svg11.dtd" >
<svg xmlns="http://www.w3.org/2000/svg" xmlns:xlink="http://www.w3.org/1999/xlink" version="1.1" viewBox="-10 0 1787 2048">
   <path fill="currentColor"
d="M1691 1611q-48 -16 -90 4t-62 64q0 4 -2 10t-2 10l-448 -164l448 -160l4 8v8q20 44 62 66t90 6q44 -16 64 -60t4 -88q-16 -52 -72 -72q28 -52 8 -100q-16 -44 -60 -64t-88 -4t-64 60t-4 88q4 4 4 10t4 10l-604 220l-604 -220q8 -16 8 -20q16 -44 -4 -88t-64 -60t-88 4
t-60 64q-20 56 8 100q-56 20 -72 72q-16 44 6 86t66 62q44 16 86 -6t62 -66v-8l4 -8l448 160l-448 164q0 -4 -2 -10t-2 -10q-20 -44 -62 -64t-86 -4t-66 60t-6 88q20 56 72 68q-28 52 -8 100q16 44 60 66t88 6q44 -20 64 -62t4 -90q0 -8 -8 -16l604 -220l604 220q-8 8 -8 16
q-16 48 4 90t64 62q44 16 88 -6t60 -66q16 -48 -8 -100q52 -12 72 -68q16 -44 -4 -88t-64 -60zM355 995q0 80 56 136t136 56q4 0 8 -4v20q0 40 26 66t66 26q48 0 72 -36q28 56 84 56q52 0 80 -48q28 48 80 48q56 0 84 -56q24 36 72 36q40 0 66 -26t26 -66v-20h4l4 4
q80 0 136 -56t56 -136q0 -48 -20 -88q72 -124 72 -284q0 -240 -170 -410t-410 -170t-410 170t-170 410q0 160 72 284q-20 40 -20 88zM1179 587q64 0 106 42t42 102t-42 104t-106 44q-60 0 -102 -44t-42 -104t42 -102t102 -42zM883 891q104 44 104 136q0 36 -22 48t-48 -4
t-34 -48q-8 32 -34 48t-48 4t-22 -48q0 -40 26 -74t54 -50zM587 587q60 0 102 42t42 102t-42 104t-102 44q-64 0 -106 -44t-42 -104t42 -102t106 -42z" />
</svg>
