<?xml version="1.0" standalone="no"?>
<!DOCTYPE svg PUBLIC "-//W3C//DTD SVG 1.1//EN" "http://www.w3.org/Graphics/SVG/1.1/DTD/svg11.dtd" >
<svg xmlns="http://www.w3.org/2000/svg" xmlns:xlink="http://www.w3.org/1999/xlink" version="1.1" viewBox="-10 0 1964 2048">
   <path fill="currentColor"
d="M408 1188q56 24 84 28q72 24 148 24q20 20 60 52q56 32 100 44q80 20 168 -4q52 -20 88 -40q40 -32 60 -52l20 -32q8 4 22 6t52 6t54 -4q28 -4 84 -28q40 -20 64 -44l4 -4q4 -4 8 -4l-48 684v16q0 4 -4 12q-20 76 -100 76h-788q-12 0 -16 -4h-4h-4q-36 -12 -64 -44v-4
l-4 -4q-4 -4 -4 -8t-4 -8q0 -8 -4 -12v-16v-4l-48 -684q4 0 12 8q24 24 64 44zM332 464q16 -92 86 -150t162 -58q36 0 72 12q68 -144 224 -144t224 144q36 -12 76 -12q92 0 162 60t82 148q88 16 146 84t58 160q0 80 -48 146t-128 90q0 4 -12 52q-32 68 -84 100
q-40 32 -84 44q-40 8 -64 8q-36 0 -84 -16l-16 -8q-44 104 -152 136q-36 12 -76 12q-36 0 -72 -12q-108 -32 -152 -136q-8 8 -16 8q-56 16 -84 16q-24 0 -64 -8t-84 -40q-52 -40 -84 -104q-12 -48 -12 -52q-80 -24 -128 -90t-48 -146q0 -92 58 -160t142 -84zM1616 1440
q12 0 16 4q20 -44 64 -44q28 0 46 20t18 48q44 12 52 60q8 60 -56 72q-16 56 -76 56q-32 0 -56 -24t-24 -56v-4q-52 -16 -52 -64q0 -28 20 -48t48 -20zM1744 1008h12l8 4q20 -40 64 -40q64 0 64 64q44 12 52 60q0 56 -56 72q-12 56 -76 56q-32 0 -56 -24t-24 -56v-4
q-52 -12 -52 -64q0 -28 18 -48t46 -20zM68 1184q12 0 20 4q12 -44 60 -44q28 0 46 20t18 48q48 12 52 60q8 60 -56 68q-12 56 -76 56q-32 0 -56 -24t-24 -56v-4q-52 -8 -52 -64q0 -28 20 -46t48 -18z" />
</svg>
