<?xml version="1.0" standalone="no"?>
<!DOCTYPE svg PUBLIC "-//W3C//DTD SVG 1.1//EN" "http://www.w3.org/Graphics/SVG/1.1/DTD/svg11.dtd" >
<svg xmlns="http://www.w3.org/2000/svg" xmlns:xlink="http://www.w3.org/1999/xlink" version="1.1" viewBox="-10 0 1972 2048">
   <path fill="currentColor"
d="M1876 916h-244q-36 0 -56 -32l-156 -280q-28 -48 -76 -36q-52 8 -60 56l-40 288q-8 41 -8 76l-32 220q0 8 -4 12q0 8 -4 -4q-4 -4 -4 -8l-40 -220q0 -12 -4 -38t-8 -38l-92 -624q-8 -60 -68 -60q-56 -7 -76 48l-172 656q-12 29 -20 72l-40 136q-8 32 -20 0l-36 -128
q-4 -12 -10 -42t-6 -34l-48 -272q-12 -48 -68 -56q-52 0 -72 48l-88 232q-16 36 -52 36h-196q-32 0 -54 22.5t-22 50.5t22 50t54 21h272q44 0 64 -40l4 -12q20 -36 28 -56q8 -16 12 -4q0 5 6 27t10 33l128 492q8 53 64 60q56 0 76 -52l108 -516q0 -12 8 -40t12 -36l68 -252
q4 -24 12 -8q4 5 4 12l40 240q12 72 12 76l116 768q8 60 72 60q60 0 72 -60l112 -784q0 -7 4 -35.5t4 -36.5q8 -31 28 -4l52 88q20 29 20 36q24 36 68 36h324q32 0 54 -22t22 -50t-22 -50t-54 -22z" />
</svg>
