<?xml version="1.0" standalone="no"?>
<!DOCTYPE svg PUBLIC "-//W3C//DTD SVG 1.1//EN" "http://www.w3.org/Graphics/SVG/1.1/DTD/svg11.dtd" >
<svg xmlns="http://www.w3.org/2000/svg" xmlns:xlink="http://www.w3.org/1999/xlink" version="1.1" viewBox="-10 0 1946 2048">
   <path fill="currentColor"
d="M726 989h468q96 0 164 -68t68 -168v-444q0 -92 -68 -158t-164 -86q-108 -16 -244 -16q-132 0 -224 16q-140 24 -186 80t-46 164v176h468v60h-644q-104 0 -182 62t-106 174q-60 244 0 476q56 236 244 236h164v-212q0 -116 86 -204t202 -88zM698 369q-36 0 -62 -26t-26 -62
q0 -40 26 -66t62 -26t62 26t26 66q0 36 -26 62t-62 26zM1894 781q-64 -236 -232 -236h-176v208q0 120 -88 208t-204 88h-468q-92 0 -162 70t-70 166v444q0 168 232 236t468 0q232 -64 232 -236v-176h-464v-60h700q92 0 142 -58t90 -178q64 -200 0 -476zM1222 1669
q36 0 62 26t26 66q0 36 -26 62t-62 26t-62 -26t-26 -62q0 -40 26 -66t62 -26z" />
</svg>
