<?xml version="1.0" standalone="no"?>
<!DOCTYPE svg PUBLIC "-//W3C//DTD SVG 1.1//EN" "http://www.w3.org/Graphics/SVG/1.1/DTD/svg11.dtd" >
<svg xmlns="http://www.w3.org/2000/svg" xmlns:xlink="http://www.w3.org/1999/xlink" version="1.1" viewBox="-10 0 1980 2048">
   <path fill="currentColor"
d="M1292 1387q24 0 8 32l-160 440q-8 32 -28 24q-24 -8 -8 -40l156 -424q8 -32 32 -32zM1088 1387q-16 0 -32 32l-152 424q-16 32 4 40q16 4 32 -24l160 -440q8 -32 -12 -32zM888 1387q-24 0 -32 32l-156 424q-16 32 8 40q20 8 28 -24l160 -440q16 -32 -8 -32zM684 1387
q-24 0 -32 32l-156 424q-8 32 8 40q16 4 32 -24l160 -440q8 -32 -12 -32zM1492 1387q-16 0 -32 32l-152 424q-16 32 8 40q20 8 28 -24l160 -440q16 -32 -12 -32zM480 1387q-16 0 -32 32l-152 424q-16 32 8 40q12 8 28 -24l160 -440q16 -32 -12 -32zM1592 531q-48 0 -128 24
q-28 -168 -158 -280t-302 -112q-192 0 -328 136t-136 328q0 4 2 10t2 10q-4 0 -10 -2t-10 -2q-104 0 -176 74t-72 178v4q-32 -12 -60 -12q-92 0 -154 64t-62 152q0 164 216 164h1376q152 0 260 -108t108 -260t-108 -260t-260 -108z" />
</svg>
