<?xml version="1.0" standalone="no"?>
<!DOCTYPE svg PUBLIC "-//W3C//DTD SVG 1.1//EN" "http://www.w3.org/Graphics/SVG/1.1/DTD/svg11.dtd" >
<svg xmlns="http://www.w3.org/2000/svg" xmlns:xlink="http://www.w3.org/1999/xlink" version="1.1" viewBox="-10 0 1351 2048">
   <path fill="currentColor"
d="M1134 1656q-100 192 -188 268t-192 76q-204 0 -492 -304q-220 -224 -256 -560q-28 -284 76 -432h4q0 -8 16 -20q308 80 452 256q120 140 208 368q68 168 120 216q84 84 252 132zM614 888q112 132 192 328q180 -40 300 -164q108 -112 160 -356q-44 -64 -136 -104
q-12 -4 -28 -12q-8 -4 -14 -32t-4 -80t14 -112l20 -84q8 -24 0 -36q-8 -16 -24 -20l-104 -20q-36 -8 -44 28q-76 280 -104 316q-12 12 -16 12q-24 0 -32 -52q0 -64 28 -412q0 -16 -12 -28t-28 -12h-88q-36 0 -36 36q0 196 -40 380q-12 116 -44 116q-12 0 -20 -4
q-44 -20 -88 -232l-20 -156q0 -20 -16 -32q-16 -8 -32 -4l-108 28q-40 8 -24 44l8 28q4 28 14 74t18 82q12 88 -56 140q-4 0 -32 20q-8 4 -16 12t-22 20t-22 20q308 92 456 268zM1162 1104q-124 128 -328 184q52 132 100 184q76 76 236 116q164 -340 160 -604
q0 -72 -16 -168q-60 192 -152 288z" />
</svg>
