<?xml version="1.0" standalone="no"?>
<!DOCTYPE svg PUBLIC "-//W3C//DTD SVG 1.1//EN" "http://www.w3.org/Graphics/SVG/1.1/DTD/svg11.dtd" >
<svg xmlns="http://www.w3.org/2000/svg" xmlns:xlink="http://www.w3.org/1999/xlink" version="1.1" viewBox="-10 0 1972 2048">
   <path fill="currentColor"
d="M1912 88h-1572q-40 0 -40 40v204h-260q-40 0 -40 36v1552q0 40 40 40h1572q40 0 40 -40v-204h260q40 0 40 -36v-1552q0 -40 -40 -40zM1556 1808q0 40 -40 40h-1380q-40 0 -40 -40v-1188q0 -40 40 -40h1380q40 0 40 40v1188zM1856 1568q0 40 -40 40h-164v-1240
q0 -12 -16 -28h180q40 0 40 40v1188z" />
</svg>
