<?xml version="1.0" standalone="no"?>
<!DOCTYPE svg PUBLIC "-//W3C//DTD SVG 1.1//EN" "http://www.w3.org/Graphics/SVG/1.1/DTD/svg11.dtd" >
<svg xmlns="http://www.w3.org/2000/svg" xmlns:xlink="http://www.w3.org/1999/xlink" version="1.1" viewBox="-10 0 1574 2048">
   <path fill="currentColor"
d="M160 406q-16 0 -40 -16q-40 -36 0 -76l16 -16q20 -16 52 -40t74 -52t102 -58t124 -50q448 -148 888 168q40 28 12 72q-28 40 -72 12q-388 -280 -792 -152q-88 32 -170 80t-122 80l-36 32q-24 16 -36 16zM76 794q-4 0 -8 -2t-8 -2q-44 -20 -32 -68q12 -24 26 -56t74 -112
t132 -142t198 -116t270 -66q144 -8 274 28t208 88t142 118t86 98t30 52q24 52 -24 72q-44 24 -72 -24q-4 -8 -24 -40t-74 -86t-124 -100t-182 -76t-236 -22t-232 54t-172 102t-112 118t-66 98t-22 48q-12 36 -52 36zM1460 1450q-12 0 -16 -4q-52 -16 -36 -64
q44 -136 36 -266t-26 -210t-26 -88q-12 -48 32 -64q52 -24 68 32q112 332 20 628q-16 36 -52 36zM1440 1678q-20 0 -32 -12q-108 -84 -154 -166t-44 -122t18 -68q112 -352 -32 -572q-128 -192 -388 -208q-116 -12 -208 18t-158 98t-92 106t-66 110q-4 8 -12 22t-12 22
q-44 64 -180 156q-44 24 -72 -24q-24 -44 24 -72q92 -44 140 -116q12 -28 16 -36q40 -76 74 -122t110 -126t192 -118t256 -26q316 32 464 260q176 268 40 664v8l-4 4q-28 84 152 224q44 36 8 76q-12 20 -40 20zM1288 1790q-12 0 -16 -4q-132 -52 -194 -164t-52 -214t30 -186
q24 -92 24 -172t-10 -114t-14 -34q-88 -188 -284 -196q-192 -8 -304 188q-52 96 -146 202t-154 158t-76 64q-40 40 -72 -8q-40 -40 8 -72l28 -20l64 -64q40 -40 86 -88t92 -108t78 -116q144 -252 400 -240q264 8 376 252q8 8 18 50t16 136t-30 214q-84 340 152 432
q48 20 32 68q-12 36 -52 36zM312 1906q-24 0 -44 -20q-28 -44 12 -76q8 -4 16 -12q356 -248 528 -504q160 -236 28 -368q-56 -24 -108 -8q-68 20 -128 96t-88 136q-64 128 -176 232t-174 140t-90 44q-52 20 -72 -28q-16 -48 28 -68q12 0 76 -36t162 -128t150 -204
q116 -228 276 -284q96 -32 196 16l8 4l8 8q8 8 18 20t24 32t26 46t20 56t8 70t-10 82t-34 94t-60 108q-192 280 -556 532l-12 8q-16 12 -32 12zM152 1774q-24 0 -44 -28q-28 -44 20 -72q12 0 108 -70t244 -224t236 -326q20 -48 68 -24q52 24 24 72q-32 68 -74 132t-86 118
t-90 104t-92 90t-86 74t-76 60t-62 44t-42 30l-20 12q-16 8 -28 8zM1072 1934q-24 0 -32 -8q-108 -76 -154 -174t-40 -168t34 -122q24 -48 72 -20q48 24 20 72q-12 24 -20 56t24 118t128 154q40 28 12 72q-16 20 -44 20zM852 1998q-20 0 -40 -12q-52 -52 -122 -60t-114 8
l-44 16q-48 28 -72 -20q-24 -52 24 -72q28 -16 72 -30t148 -4t184 82q40 40 0 76q-12 16 -36 16z" />
</svg>
