<?xml version="1.0" standalone="no"?>
<!DOCTYPE svg PUBLIC "-//W3C//DTD SVG 1.1//EN" "http://www.w3.org/Graphics/SVG/1.1/DTD/svg11.dtd" >
<svg xmlns="http://www.w3.org/2000/svg" xmlns:xlink="http://www.w3.org/1999/xlink" version="1.1" viewBox="-10 0 1809 2048">
   <path fill="currentColor"
d="M832 1612q40 184 12 268q-32 76 -124 100q-4 0 -16 4t-30 6t-34 2q-120 0 -172 -108q-16 -28 -56 -140q-48 -136 -112 -240q-44 -60 -64 -104q-88 -136 -140 -256q-96 -228 -96 -316q0 -52 28 -80q8 -8 24 -16q0 -44 32 -64l32 -16q0 -40 8 -56q8 -32 40 -44q4 0 14 -2
t14 -6q8 -32 16 -48q24 -32 52 -36q28 -8 52 0q8 -32 20 -48q40 -40 88 -40q24 0 44 4t34 10t26 20t20 22t14 26t10 24t8 26l4 16q4 24 4 64q0 48 8 64q0 4 6 12t10 16q60 84 80 164q8 44 -12 164q-28 184 -12 244q12 64 80 176q68 120 88 188zM1788 464q-4 -72 -60 -88
q0 -40 -36 -60q-16 -12 -36 -12q0 -32 -12 -56q-16 -28 -48 -40q-4 0 -14 -2t-14 -2q-8 -32 -20 -44q-20 -24 -56 -32q-36 0 -52 4q-8 -24 -24 -40q-32 -36 -84 -36h-8q-128 8 -144 168q0 44 4 64q8 40 -4 64q0 8 -12 28q-52 116 -60 176q-4 48 28 164q40 160 36 240
q-8 64 -56 184q-52 108 -60 192q-24 184 16 268q24 44 68 64t64 20q4 0 20 2t32 2q144 0 192 -124q12 -28 40 -148q24 -128 84 -252q20 -44 52 -108q72 -152 108 -268q64 -256 56 -328z" />
</svg>
