<?xml version="1.0" standalone="no"?>
<!DOCTYPE svg PUBLIC "-//W3C//DTD SVG 1.1//EN" "http://www.w3.org/Graphics/SVG/1.1/DTD/svg11.dtd" >
<svg xmlns="http://www.w3.org/2000/svg" xmlns:xlink="http://www.w3.org/1999/xlink" version="1.1" viewBox="-10 0 1976 2048">
   <path fill="currentColor"
d="M110 1031v-4q-12 -160 54 -306t134 -214l72 -68q44 -36 8 -76q-32 -48 -72 -8q-16 12 -42 36t-78 90t-94 140t-70 184t-20 226q0 52 12 132t86 244t202 284q20 12 36 12t40 -16q32 -40 -4 -76q-116 -104 -182 -258t-74 -220t-8 -102zM1650 363q-40 -40 -72 8q-36 40 8 76
q32 28 78 76t120 200t62 312v4q0 36 -8 102t-74 220t-182 258q-36 36 -4 76q24 16 40 16t36 -12q128 -120 202 -284t86 -244t12 -132q8 -116 -20 -226t-70 -184t-94 -140t-78 -90t-42 -36zM1458 1479h-904q-56 0 -56 52q0 56 56 56h904q56 0 56 -56q0 -52 -56 -52zM930 1379
q-128 -112 -116 -224q8 -52 82 -114t78 -110q8 -24 -14 -48t-10 -36q56 0 74 40t14 86t14 84t70 34q28 -4 22 -50t-2 -54q100 60 64 200q-4 32 -52 78t-44 74q96 -16 154 -110t64 -204t-46 -212t-148 -138q0 8 18 50t16 56t-26 46q-44 -4 -60 -36t-18 -86t-6 -70
q-56 -208 -276 -204q84 72 84 160t-48 156t-100 158t-56 154q-4 116 70 202t198 118z" />
</svg>
