<?xml version="1.0" standalone="no"?>
<!DOCTYPE svg PUBLIC "-//W3C//DTD SVG 1.1//EN" "http://www.w3.org/Graphics/SVG/1.1/DTD/svg11.dtd" >
<svg xmlns="http://www.w3.org/2000/svg" xmlns:xlink="http://www.w3.org/1999/xlink" version="1.1" viewBox="-10 0 1972 2048">
   <path fill="currentColor"
d="M0 1024q0 -56 100 -104q108 -52 252 -76q160 -28 324 -32h60q128 0 240 12q140 12 232 40q92 20 152 48q56 24 80 56q32 24 32 56t-32 56q56 -24 80 -56q20 -32 16 -68q-12 -36 -72 -72q-56 -36 -140 -60q-4 0 -20 -4t-24 -8q-148 -32 -304 -44q-196 -12 -364 4
q172 -32 364 -32t364 32q168 24 260 72q92 44 104 92q8 16 8 20q0 24 -44 68q-52 40 -132 68q-100 32 -176 44q-88 12 -192 24q-120 8 -192 8t-192 -8q116 16 192 20q100 12 232 4q124 0 256 -20q120 -12 200 -40q16 -4 40 -12q116 -44 156 -88q44 -56 -8 -104
q100 48 100 104q0 52 -100 104t-252 76q-160 28 -324 32h-60q-128 0 -240 -12q-140 -12 -232 -40q-92 -20 -152 -48q-56 -24 -80 -56q-32 -32 -32 -56q0 -32 32 -56q-56 24 -80 56q-20 32 -16 68q12 36 72 72q56 36 140 60l48 12q144 32 300 44q196 12 364 -4
q-172 32 -364 32t-364 -32q-168 -24 -260 -72q-92 -44 -104 -92q-8 -16 -8 -20q0 -32 44 -68q52 -40 132 -68q100 -32 176 -44q88 -12 192 -24q120 -8 192 -8t192 8q-116 -16 -192 -20q-100 -12 -232 -4q-124 0 -256 20q-120 12 -200 40q-16 4 -40 12q-116 44 -156 88
q-40 56 8 104q-100 -48 -100 -104z" />
</svg>
