<?xml version="1.0" standalone="no"?>
<!DOCTYPE svg PUBLIC "-//W3C//DTD SVG 1.1//EN" "http://www.w3.org/Graphics/SVG/1.1/DTD/svg11.dtd" >
<svg xmlns="http://www.w3.org/2000/svg" xmlns:xlink="http://www.w3.org/1999/xlink" version="1.1" viewBox="-10 0 1972 2048">
   <path fill="currentColor"
d="M1392 1476q-96 -220 -220 -220q-48 0 -96 36h-4q-36 36 -52 56q-100 100 -164 100q-52 0 -108 -40q-52 -36 -116 -36q-124 0 -272 140q-112 112 -132 168q-8 16 0 24q8 16 24 16h1184q12 0 20 -12q8 -8 8 -24l-8 -28q-12 -32 -28 -84t-36 -96zM1292 880q0 60 -42 104
t-106 44t-106 -44t-42 -104q0 -64 42 -108t106 -44t106 44t42 108zM1836 68h-1456q-48 0 -82 34t-34 82v104h-148q-48 0 -82 36t-34 84v1456q0 48 34 82t82 34h1456q48 0 82 -34t34 -82v-104h148q48 0 82 -36t34 -84v-1456q0 -48 -34 -82t-82 -34zM1448 1840h-1212
q-40 0 -68 -30t-28 -70v-1212q0 -40 28 -68t68 -28h1212q40 0 70 28t30 68v1212q0 12 -4 20q-16 80 -96 80zM1812 1520q0 40 -30 68t-70 28h-24v-1208q0 -48 -34 -84t-82 -36h-1164q16 -80 96 -80h1212q40 0 68 30t28 70v1212z" />
</svg>
