<?xml version="1.0" standalone="no"?>
<!DOCTYPE svg PUBLIC "-//W3C//DTD SVG 1.1//EN" "http://www.w3.org/Graphics/SVG/1.1/DTD/svg11.dtd" >
<svg xmlns="http://www.w3.org/2000/svg" xmlns:xlink="http://www.w3.org/1999/xlink" version="1.1" viewBox="-10 0 1980 2048">
   <path fill="currentColor"
d="M1956 945q0 -68 -68 -76l-32 -4l-404 -296q-120 -96 -272 -52q-60 16 -44 76q16 64 80 44q88 -24 160 32l244 180q-52 0 -148 8q-120 20 -224 48l-40 8q-224 44 -448 0l-44 -8q-112 -32 -228 -48q-96 -8 -148 -8l244 -180q64 -52 160 -32q64 20 80 -44q16 -60 -44 -76
q-152 -44 -272 52l-404 296l-32 4q-68 8 -68 76l-4 72q0 56 48 76q20 8 20 28l8 132q12 120 100 202t212 86l148 4q176 0 272 -152l120 -208q12 -20 48 -20h8q40 0 48 16l120 212q96 152 272 152l148 -4q124 -4 212 -86t100 -202l8 -132q0 -20 16 -28q52 -20 52 -76z
M1576 989q44 0 60 4q108 16 112 104l4 136q4 68 -44 124t-124 56q-116 8 -120 8q-36 0 -66 -8t-54 -20t-44 -28t-36 -34t-28 -36t-22 -34t-14 -28l-8 -24l-4 -8q-20 -64 20 -116q32 -56 96 -68q164 -28 272 -28zM496 1421l-120 -8q-76 0 -124 -56q-52 -52 -44 -124l4 -136
q4 -88 112 -104q96 -12 332 24q64 12 96 64q36 52 20 116q-76 224 -276 224z" />
</svg>
