<?xml version="1.0" standalone="no"?>
<!DOCTYPE svg PUBLIC "-//W3C//DTD SVG 1.1//EN" "http://www.w3.org/Graphics/SVG/1.1/DTD/svg11.dtd" >
<svg xmlns="http://www.w3.org/2000/svg" xmlns:xlink="http://www.w3.org/1999/xlink" version="1.1" viewBox="-10 0 1972 2048">
   <path fill="currentColor"
d="M1880 952h-228q-28 -236 -198 -406t-406 -198v-228q0 -32 -20 -52t-52 -20t-52 20t-20 52v228q-236 28 -406 198t-198 406h-228q-32 0 -52 20t-20 52t20 52t52 20h228q28 236 198 406t406 198v228q0 32 20 52t52 20t52 -20t20 -52v-228q236 -28 406 -198t198 -406h228
q32 0 52 -20t20 -52t-20 -52t-52 -20zM1048 1552q-48 8 -72 8t-72 -8q-176 -24 -304 -152t-152 -304q-8 -48 -8 -72t8 -72q24 -176 152 -304t304 -152q48 -8 72 -8t72 8q176 24 304 152t152 304q8 48 8 72t-8 72q-24 176 -152 304t-304 152zM1300 1024q0 136 -94 230
t-230 94t-230 -94t-94 -230t94 -230t230 -94t230 94t94 230z" />
</svg>
