<?xml version="1.0" standalone="no"?>
<!DOCTYPE svg PUBLIC "-//W3C//DTD SVG 1.1//EN" "http://www.w3.org/Graphics/SVG/1.1/DTD/svg11.dtd" >
<svg xmlns="http://www.w3.org/2000/svg" xmlns:xlink="http://www.w3.org/1999/xlink" version="1.1" viewBox="-10 0 1964 2048">
   <path fill="currentColor"
d="M1032 776q20 -24 0 -44q-20 -16 -44 0q-16 20 0 44q24 16 44 0zM928 796q-20 20 0 40q24 24 40 0q20 -20 0 -40q-16 -24 -40 0zM1108 808q-36 -28 -64 0l-40 40q-32 32 0 64l44 40q28 36 64 0l36 -36q40 -32 0 -64zM1468 668q12 -28 14 -54t0 -38t-24 -38t-26 -28
t-32 -30q-132 -116 -236 -4q-56 80 -36 150t84 118q60 40 140 16t116 -92zM1336 632q-12 -16 -4 -40t28 -32t40 8q28 32 18 56t-38 24t-44 -16zM972 52q-400 0 -686 286t-286 686t286 686t686 286t686 -286t286 -686t-286 -686t-686 -286zM1496 1184q-140 -96 -208 -224
q-80 152 -252 252q-56 168 -236 384t-256 172q-48 -24 -32 -60q4 -28 36 -76t64 -80l28 -36q0 28 40 88q-20 -24 -12 -80l12 -84q4 -28 28 -80t34 -72t34 -58t24 -42q24 -8 40 -30t20 -38v-20q0 -144 -96 -240q48 60 48 164v20q0 116 -48 116q-48 -4 -104 16l-80 16
q40 0 64 20q-48 76 -144 120q-64 28 -86 -14t18 -82q24 -24 32 -36q-12 -8 -12 -28q-16 -48 36 -120q16 -24 28 -36l4 -4l8 -8q88 -88 236 -144q60 -88 106 -146t62 -74l16 -16q40 -32 52 -36q-48 -84 -66 -192t-2 -152q0 4 -4 8q8 -16 20 -28q16 -20 54 -20t54 32
q16 36 16 84q-24 0 -48 14t-36 26l-16 16q44 -20 96 -20q16 12 32 36q-68 124 -36 240q16 44 24 52v4q20 32 54 50t58 22l24 4q-64 -28 -96 -88q-20 -40 -24 -56q-20 -80 32 -172q76 -120 212 -100q88 8 146 80t46 164q-12 116 -112 168q8 16 8 38t-4 34l-4 16q36 48 36 100
q-20 -4 -44 2t-36 14l-12 8q92 -24 144 24q44 52 68 96q4 8 56 36t44 64q-4 48 -56 46t-132 -54z" />
</svg>
