<?xml version="1.0" standalone="no"?>
<!DOCTYPE svg PUBLIC "-//W3C//DTD SVG 1.1//EN" "http://www.w3.org/Graphics/SVG/1.1/DTD/svg11.dtd" >
<svg xmlns="http://www.w3.org/2000/svg" xmlns:xlink="http://www.w3.org/1999/xlink" version="1.1" viewBox="-10 0 1780 2048">
   <path fill="currentColor"
d="M1760 1280q0 -4 -2 -10t-2 -10q0 -8 -4 -12v-4h-4q-8 -8 -12 -8l-16 -8l-8 -4h-4q-8 -4 -16 -4q-4 -4 -8 -4t-8 -4h-12l-28 -8h28h16l4 4h8h12l4 4l8 4l8 4q4 0 12 4h4l8 8h4q4 0 4 -8q0 -4 2 -12t2 -16q0 -48 -32 -92l-20 -20h-4l-4 -4h-4l-8 -4q-8 0 -16 -4h-4
q-4 -4 -8 -4q-8 0 -12 -4l-28 -4q12 -4 28 0h12q12 0 16 4h4h4q4 4 8 4h8l8 4q16 -16 24 -28q28 -44 28 -80q0 -8 -2 -18t-2 -14l-4 -8q0 -8 -8 -24q-8 -8 -8 -16q-8 -8 -8 -12l-12 -12l-16 -8h-8l-8 -4h-4l-8 -4q-8 -4 -16 -4q-4 -4 -12 -4l-28 -8h28h12q4 0 8 4h8
q4 4 16 4l8 4l8 4h4l4 -4l16 -16q0 -4 8 -12l8 -16q0 -4 4 -12t4 -12t4 -4q0 -8 2 -20t2 -16q-4 -4 -4 -8v-24q-4 -4 -4 -12q-8 -16 -8 -20l-8 -8q-8 -16 -12 -20l-8 -8q0 -4 -4 -4q-4 -4 -12 -4l-8 -4v-4h-8h-4q-8 -4 -12 -4q-4 -4 -12 -4q-4 -4 -12 -4l-28 -8h28q8 0 12 4
h16q4 4 12 4h4l8 4h4q12 -4 16 -16q4 0 4 -2t4 -2q8 -16 12 -20l8 -8q0 -8 8 -24q0 -4 4 -8v-24l4 -4v-8q-4 -4 -4 -8v-24l-4 -4q0 -8 -4 -8q0 -4 -4 -12v-8q0 -4 -4 -4l-4 -8q-4 -4 -12 -20l-8 -4l-20 -20v-4q4 0 10 -8t10 -8l8 -8q4 -4 8 -10t4 -10l8 -8q0 -4 2 -12t2 -12
l8 -8v-28l4 -4v-4q0 -68 -58 -116t-138 -48q-20 0 -28 4h-4q-4 4 -8 4l-4 4q-4 4 -8 4q-8 8 -8 12q-4 0 -12 8t-12 8l-4 4q-4 4 -4 8l-8 8l-20 16q4 -8 12 -20l4 -4q4 -4 4 -8t8 -12l4 -4q4 -4 4 -8q4 0 12 -8l8 -8h4h-4q-16 -8 -28 -8h-12q-20 0 -28 4h-12q-8 0 -18 4
t-14 8h-4l-36 24q-4 0 -12 -4h-8l-8 -4h-32q-20 0 -32 4q-4 4 -12 4l-16 8l-12 12q-4 0 -12 8t-16 12v4h4l12 12l12 12q4 4 4 8l4 4l8 16q0 4 4 10t4 10q0 8 4 16q0 20 4 28q0 8 -2 14t-2 10v8v-8l-4 -8v-12v-8l-4 -8q0 -8 -4 -16q0 -8 -4 -16l-4 -4v-8q0 -4 -6 -16t-10 -16
l-12 -12l-8 -8l-4 -4q-4 0 -4 -4h-4l-24 -12h-12q-12 -4 -36 -4q-8 0 -18 2t-14 2l-16 8l-8 4h-8l-12 12l-4 4q-8 0 -8 4q-4 4 -16 12v4q8 8 8 12q4 8 12 16v8l4 8q4 8 4 20q4 4 4 16v32v20l-4 8v-8v-20q-4 -4 -4 -16q0 -8 -4 -16v-16l-8 -16q0 -4 -12 -28q0 -4 -8 -12
q0 -4 -4 -4q0 -4 -4 -4l-12 -12q-4 0 -12 -8h-8l-8 -4q0 -4 -8 -4q-4 0 -8 -4h-12q-12 -4 -32 -4q-8 0 -32 8h-8q-16 8 -20 8l-8 8q-8 4 -16 12h-4v4q4 4 4 16v4v4q4 8 4 12q0 20 -4 28v24l-4 8v-8v-24q0 -8 -4 -12v-16q0 -12 -4 -16v-12l-4 -4q0 -4 -2 -10t-2 -10l-8 -8
l-8 -8q-12 -12 -20 -16q-4 -4 -8 -4q-4 -4 -20 -12l-4 -4q-4 -4 -14 -4t-14 -4h-8q-8 -4 -28 -4q-8 0 -16 4t-16 4q-4 0 -8 4q-4 0 -20 8q-4 0 -8 4t-20 12q0 4 -4 4v4v8q4 12 4 32v20l-4 8v-8q0 -12 -4 -20v-16v-4q-4 -8 -4 -12q-4 -4 -4 -16q0 -4 -4 -4l-4 -8q0 -8 -4 -12
l-16 -16q-8 -8 -12 -8q-8 -4 -16 -12h-4q-4 -4 -8 -4l-16 -8l-4 -4h-12q-4 0 -8 -2t-8 -2h-12h-20h-12q-12 0 -28 8h-4q-24 -16 -36 -20q-4 -4 -12 -4q-4 -4 -14 -8t-14 -4h-4h-4q-16 -8 -28 -8h-4l-4 -4q-8 0 -20 -2t-20 -2q-80 0 -136 50t-56 118q0 24 4 32l4 8q0 8 8 24
l4 8q4 4 8 12t8 12t8 4q0 4 8 12h4h8l8 -4h12h8h16h4q8 0 16 2t12 2t10 2t10 6h8h-8h-20h-16h-4h-4q-4 -4 -8 -4q-12 0 -16 4h-16q-8 0 -12 4h-4q-4 4 -10 8t-10 8q0 4 -2 4t-2 4q-8 4 -16 20l-4 4v4q-8 16 -8 24v4l-4 4q-4 12 -4 36t4 32q0 4 4 8q0 8 8 24q0 4 2 4t2 4
q8 16 16 20l4 4v4q8 8 16 12q4 0 8 -4q4 0 10 -2t10 -2l4 -4h12h28h24h8q-4 4 -8 4h-24q-4 4 -12 4h-4q-8 4 -12 4q-12 0 -16 4q-12 0 -16 4h-4q0 4 -4 4t-8 4l-12 12l-4 4q-8 8 -16 24l-4 4q-8 16 -8 28l-4 4q-4 12 -4 36q0 20 4 32q0 4 4 12v4q0 4 4 8t4 8q0 8 12 20
q0 4 4 8l16 16q8 -8 16 -8q8 -4 16 -4q8 -4 20 -4q8 -4 28 -4q8 0 14 2t10 2h8h-8q-8 4 -24 4q-8 0 -12 4h-16q-4 4 -16 4q-4 4 -8 4t-8 4q-4 0 -12 4h-4l-4 4q-12 12 -16 20l-8 8q-8 16 -8 20l-8 16v4l-4 8q-4 12 -4 32q0 88 84 140q56 28 108 28q16 0 48 -8q8 0 12 -4
q12 0 32 -12q8 0 8 -4q24 -4 36 -24h4q8 -8 24 -32h4q8 4 24 20q64 84 68 156h40q4 -52 -16 -120q-28 -56 -44 -72l-24 -24q0 -4 -4 -4l-20 -20v-20q0 -20 -4 -32l-4 -4v-8l-8 -16q0 -4 -8 -20l-8 -8q-8 -8 -8 -12q-4 -4 -12 -4q0 -4 -8 -4l-4 -4l-8 -4h-8q-8 -4 -16 -4
l-16 -8h-12l-28 -8h28h16h4q8 4 12 4l4 4h12h4l4 4h8l8 8l4 -4l16 -16l4 -8q12 -12 12 -20q0 -4 4 -8t4 -8v-4q4 -8 4 -12q4 -12 4 -32q0 -24 -4 -36q0 -4 -4 -4q0 -12 -8 -28l-4 -4q-8 -16 -16 -24l-4 -4l-4 -4q-4 -4 -8 -4t-4 -4l-8 -4h-4h-4l-8 -4q-4 0 -8 -4h-8h-8
q-4 -4 -8 -4l-4 -4h-8l-28 -8h28q4 4 16 4h16q4 4 16 4l4 4h4l8 4h4l16 -16v-4l4 -4q8 -4 16 -20q0 -4 2 -4t2 -4q8 -16 8 -24q4 -4 4 -8q4 -8 4 -32q0 -4 -4 -4q0 -4 -4 -4l-4 -4l-4 -4l-12 -12q-4 0 -4 -4l-8 -4l-8 -8q-8 -8 -12 -8l-8 -8q-8 -4 -12 -8l-8 -4q4 0 20 8
l24 12q4 0 12 8h4l8 8l12 12l8 8q8 8 8 12l4 4q4 4 8 4q8 0 16 4h12h20h12q4 -4 14 -4t14 -4q4 0 10 -4t10 -8t8 -4q0 -4 2 -4t2 -4l4 -4q0 -8 4 -8q0 -4 4 -8v-8l4 -8l4 -8q0 -12 4 -16l4 -4v-8v-16l8 -24v28v12q0 12 -4 16q0 12 -4 16v8l-4 8l-4 4v12h-4q0 4 -8 12v8v4
l16 16q0 4 2 4t2 4q4 0 12 6t12 10l4 4l24 12q0 4 4 4q4 4 14 6t14 2h4h32q20 0 28 -4q8 0 8 -4q12 0 20 -8h4q4 -4 8 -4l4 -4q8 -8 8 -16l8 -8v-4l4 -8l4 -8v-4l4 -8l8 -16q0 -8 4 -12l8 -28q0 12 -4 28v16q0 4 -4 12t-4 16l-4 8l-4 8q-4 0 -4 4t-4 8l4 4q0 4 8 10t8 10
q4 4 4 8q4 4 12 8t12 8l4 4l24 12l4 4q4 4 14 6t14 2h4h32q20 0 32 -4q4 0 12 -8l8 -4h8l8 -4q8 -4 8 -8q8 0 8 -8q0 -4 4 -4l4 -8l4 -8l4 -8q0 -12 4 -16l4 -4v-8v-12l4 -4l8 -24q0 8 -4 28v12q0 8 -4 16q0 8 -4 16v4h4l4 4l12 12l16 8h4l8 4q4 4 10 4t10 4h12q8 4 32 4
q12 0 28 -8q8 0 12 -4q4 0 20 -8q4 0 12 -8q0 -4 4 -4t8 -4l12 -12q4 -4 4 -12l4 -8l4 -8v-16q4 -4 4 -12q4 -8 4 -16l4 -28q4 12 4 32v12l-4 8v8q0 8 -4 16v8l-4 8v4q16 8 24 8q4 4 12 4q12 4 36 4q16 0 32 -8q4 0 8 -4h8q4 -4 4 -8v-20q0 -4 2 -8t2 -8v-12l4 -8l12 -36
q0 16 -4 36v16v8q0 8 -4 12v20v24v4q0 12 4 20v8l12 24q0 4 4 4l12 24l4 4h4q4 8 12 16h4q8 -8 16 -8q4 0 8 -4h8q8 -4 16 -4h32h20l8 4h-8q-12 0 -20 4h-12q-12 0 -16 4q-12 0 -16 4q-12 0 -16 4q-4 0 -12 4l-8 4l-8 4l-8 8l-8 8q-4 4 -12 20q-4 4 -4 8t-4 10t-8 10v12
q-4 8 -4 24v8q0 24 4 36v8q4 4 4 8q4 8 4 12q4 8 12 16q0 4 8 12l4 8q4 8 8 8t4 4q0 -4 8 -4q8 -8 16 -8q4 0 4 -4h12q8 -4 16 -4h32h20h8q0 4 -8 4h-20l-4 4h-8q-12 0 -16 4h-16l-16 8q-4 0 -20 8q-8 0 -12 4q-8 8 -12 16q-8 8 -8 12q-8 8 -12 16q-4 4 -4 10t-4 10v8
q-4 12 -4 36q0 48 32 92l12 12l4 4h4q4 -4 8 -4l16 -8h4l4 -4h8h16q12 -4 32 -4q4 0 12 4h8h8h-8q-4 4 -20 4h-12q-8 4 -16 4h-8l-8 4q-4 0 -8 4h-8q-16 8 -20 12q-8 0 -12 4q-12 4 -16 16q-32 44 -32 92v28q4 4 4 12q0 4 4 4q0 -4 4 -4l8 -8q4 -4 8 -4q8 -8 12 -8l16 -8h8
l8 -4q12 0 20 -4h16q12 0 20 -4q20 0 28 4h32q-12 4 -32 4q-8 0 -12 4h-16q-12 0 -16 4h-20l-4 4h-12q-12 0 -16 4q-4 0 -8 2t-8 2h-4v20q-12 -4 -32 -4h-4q-8 0 -24 2t-20 2q-24 8 -40 16l-4 4h-8q-4 4 -12 10t-12 6l-8 8q-12 8 -20 20l-8 8q-12 12 -16 20h4l4 4v4l8 4
l12 12q4 4 8 12l4 4q8 8 16 24t8 20l4 8q0 -4 -4 -8q-8 -8 -12 -16q-8 -8 -8 -12l-12 -12l-12 -12l-12 -12q0 -4 -4 -4t-8 -4q-8 -8 -12 -8h-8q-20 0 -28 4h-8q-4 0 -10 2t-10 6l-8 4q-16 4 -28 16q0 4 -4 4l-16 16l-8 8q0 4 -4 10t-8 10t-4 8l-12 24l4 4q8 0 8 4t4 8l8 8
l4 4q0 8 4 8q8 12 16 28q4 8 4 20l4 8l-4 -4q0 -4 -4 -10t-8 -10q0 -4 -8 -12q0 -4 -8 -12t-8 -12l-8 -8q-4 -4 -4 -8l-4 -4h-4l-16 -16h-4q-4 -4 -12 -4q-4 -4 -12 -4q-24 -8 -40 -8q-8 0 -18 2t-14 2q-132 36 -132 192q0 24 4 36q0 8 4 12q0 12 4 20l4 4v8l8 16l8 16l4 4
l76 264h84l60 -212q0 -4 4 -4t8 -4q4 0 12 -4q4 -4 28 -20l4 -4l24 -24q8 0 8 -8l4 -4v-8v-4v-12v-8v-8q0 -8 -4 -16v-12q0 -12 -4 -16l-4 -28q8 12 12 28l4 4v8q4 4 4 16q0 4 2 8t2 8v8v8v8v8q4 0 4 4h8q12 4 32 4t28 -4h8l24 -12h4q16 -8 24 -16q4 0 4 -2t4 -2l16 -16
l4 -4v-4q4 -4 10 -12t10 -12q0 -4 4 -8q0 -8 4 -12v-4l4 -4q0 -12 -4 -16v-16v-8l-4 -8v-16q-4 -4 -4 -16q-4 -4 -4 -12l-8 -28l16 24q0 8 4 12q4 8 4 16q4 4 4 16l4 8v8v8v12v16v12h24h8q32 0 44 -4l36 -12h4q4 -4 8 -4q4 -4 20 -12l8 -8q8 -4 20 -16l8 -8q16 -16 20 -24
q4 -4 4 -12q4 -4 12 -20q4 -4 4 -12q4 -4 4 -10t4 -10v-12q4 -4 4 -8h8q4 4 16 4h16h16q4 0 10 -2t10 -2t12 -4q16 -8 28 -12q4 -4 12 -10t12 -10l4 -4v-4q12 -12 12 -16l8 -8q4 -4 4 -10t4 -10l4 -8q0 -4 2 -14t6 -14v-8v-28v-12z" />
</svg>
