<?xml version="1.0" standalone="no"?>
<!DOCTYPE svg PUBLIC "-//W3C//DTD SVG 1.1//EN" "http://www.w3.org/Graphics/SVG/1.1/DTD/svg11.dtd" >
<svg xmlns="http://www.w3.org/2000/svg" xmlns:xlink="http://www.w3.org/1999/xlink" version="1.1" viewBox="-11 0 1967 2048">
   <path fill="currentColor"
d="M386 848h12l8 4q112 52 244 202t200 310q88 224 100 432l4 24q8 72 228 72q212 0 624 -80q100 -304 140 -580h-4q-140 -76 -176 -160q-8 -16 -8 -24q-4 -48 -196 -48h-56q-88 72 -192 72q-116 0 -220 -92q-96 -80 -318 -282t-404 -366t-194 -176h-12q-36 0 -68 80
q-16 40 -28 64q-40 92 -58 146t-10 156t72 190q168 228 116 1056h92q-24 -888 76 -984q12 -16 28 -16z" />
</svg>
