<?xml version="1.0" standalone="no"?>
<!DOCTYPE svg PUBLIC "-//W3C//DTD SVG 1.1//EN" "http://www.w3.org/Graphics/SVG/1.1/DTD/svg11.dtd" >
<svg xmlns="http://www.w3.org/2000/svg" xmlns:xlink="http://www.w3.org/1999/xlink" version="1.1" viewBox="-10 0 1980 2048">
   <path fill="currentColor"
d="M48 424l24 28q-56 136 -24 288t140 260l816 816q148 148 364 148q108 0 184 -32l28 24q56 56 144 46t156 -78t78 -156t-46 -144l-44 -44q80 -288 -132 -500l-812 -812q-160 -152 -368 -152q-44 0 -132 16l-44 -40q-56 -56 -144 -46t-156 78t-78 156t46 144zM1368 1864
q-172 0 -292 -120l-812 -816q-124 -116 -124 -292q0 -56 12 -104l1320 1320q-48 12 -104 12zM556 220q176 0 296 120l812 812q120 120 120 296v44l-1272 -1272h44zM144 256q24 -4 64 -4q88 0 144 20q120 44 176 180q8 16 22 80t40 100t78 48q100 20 132 44q124 92 144 200
q52 248 264 288q156 28 208 84q76 84 116 236q20 84 58 118t118 42q4 0 14 2t18 2q52 0 52 52q0 44 -40 48h-12q-80 -8 -120 -16q-136 -36 -180 -192q-32 -124 -78 -188t-150 -84q-168 -36 -228 -88q-96 -88 -128 -244q-16 -64 -50 -106t-62 -56t-98 -38t-98 -36
q-44 -20 -62 -58t-24 -92t-18 -78q-60 -152 -196 -164q-52 -8 -104 4q-16 0 -24 -4q-32 -12 -24 -54t48 -46z" />
</svg>
