<?xml version="1.0" standalone="no"?>
<!DOCTYPE svg PUBLIC "-//W3C//DTD SVG 1.1//EN" "http://www.w3.org/Graphics/SVG/1.1/DTD/svg11.dtd" >
<svg xmlns="http://www.w3.org/2000/svg" xmlns:xlink="http://www.w3.org/1999/xlink" version="1.1" viewBox="-10 0 1972 2048">
   <path fill="currentColor"
d="M1900 452h-1848q-52 0 -52 52v1040q0 52 52 52h1848q52 0 52 -52v-1040q0 -52 -52 -52zM1228 604q0 -40 36 -40h168q40 0 40 40v168q0 36 -40 36h-168q-36 0 -36 -36v-168zM748 1096q0 40 -30 70t-70 30h-432q-40 0 -70 -30t-30 -70v-432q0 -44 30 -74t70 -30h432
q40 0 70 30t30 74v432zM860 604q0 -40 40 -40h168q40 0 40 40v168q0 36 -40 36h-168q-40 0 -40 -36v-168zM1836 1484h-976v-112h976v112zM1836 1260h-976v-112h976v112zM1836 1036h-976v-112h976v112zM1836 772q0 36 -36 36h-168q-40 0 -40 -36v-168q0 -40 40 -40h168
q36 0 36 40v168zM432 880q56 0 108 -44q44 -52 44 -112q0 -56 -44 -108q-52 -44 -108 -44q-64 0 -108 44q-48 48 -48 108q0 64 48 112q44 44 108 44zM704 996q0 -16 -8 -40q-4 -8 -10 -22t-6 -18q-16 -24 -28 -32q-8 -8 -32 -24q-32 -8 -44 -8l-20 12q-4 0 -12 6t-16 10
q-24 16 -44 20q-16 8 -52 8t-56 -8q-28 -8 -40 -20q-4 0 -10 -4l-12 -8q-6 -4 -10 -4q-12 -12 -16 -12q-20 0 -44 8l-36 24q-8 8 -24 32q-8 16 -16 40q0 8 -4 22t-8 18q-4 16 -4 44q0 8 -2 22t-2 22q0 44 32 76q36 28 76 28h348q44 0 80 -28q28 -28 28 -76v-44q0 -12 -8 -44
z" />
</svg>
