<?xml version="1.0" standalone="no"?>
<!DOCTYPE svg PUBLIC "-//W3C//DTD SVG 1.1//EN" "http://www.w3.org/Graphics/SVG/1.1/DTD/svg11.dtd" >
<svg xmlns="http://www.w3.org/2000/svg" xmlns:xlink="http://www.w3.org/1999/xlink" version="1.1" viewBox="-11 0 1471 2048">
   <path fill="currentColor"
d="M470 1559q-148 40 -72 100q104 76 352 60q156 -12 288 -68l-108 -52q-216 40 -408 20q-116 -16 -52 -60zM990 1395q-276 52 -524 24q-56 -4 -68 -24t8 -36l16 -16q-172 60 -72 112q136 72 464 40q132 -16 256 -52zM1166 443q-12 4 -36 10t-88 32t-116 54t-104 74t-76 98
t-8 122t80 146q40 56 34 102t-30 78l-28 28q8 -4 24 -14t54 -40t54 -60t26 -76t-30 -90q-84 -120 -80 -168q8 -112 324 -296zM1326 1719l12 28q0 28 -76 52q-176 52 -568 58t-548 -54q-64 -32 64 -72q24 -8 40 -12l68 -8q-56 -36 -216 28q-140 56 -88 100q24 16 88 28
q600 100 1060 -8q216 -52 200 -108q-4 -16 -36 -32zM1054 1243l92 -48q-148 24 -296 36q-312 28 -472 8q-188 -28 64 -100l64 -16q-140 -12 -308 72q-108 52 76 80q300 48 660 -8q68 -12 120 -24zM1142 1479l-4 8q284 -76 308 -228q16 -100 -88 -144q-68 -28 -144 0l-32 24
q12 -4 40 -8q84 -20 128 52q72 108 -116 240q-40 28 -92 56zM730 1119q-16 -36 -72 -118t-78 -132t8 -136t142 -174t172 -172t68 -144t-2 -108t-26 -72l-20 -20q28 112 -14 206t-114 150t-164 132t-132 136q-64 92 0 198t232 254zM1158 1931q-464 84 -896 16q48 36 280 52
q320 20 610 -24t298 -156q-24 64 -292 112z" />
</svg>
