<?xml version="1.0" standalone="no"?>
<!DOCTYPE svg PUBLIC "-//W3C//DTD SVG 1.1//EN" "http://www.w3.org/Graphics/SVG/1.1/DTD/svg11.dtd" >
<svg xmlns="http://www.w3.org/2000/svg" xmlns:xlink="http://www.w3.org/1999/xlink" version="1.1" viewBox="-10 0 1964 2048">
   <path fill="currentColor"
d="M1928 1352l-140 -60l-708 296q-52 20 -108 20t-108 -20l-708 -296l-140 60q-16 4 -16 16t16 16l916 384q16 8 40 8t40 -8l916 -384q16 -4 16 -16t-16 -16zM1928 1008l-140 -60l-412 172l-296 124q-52 20 -108 20t-108 -20l-300 -124l-408 -172l-140 60q-16 4 -16 16
t16 16l368 156l548 228q16 8 40 8t40 -8l548 -228l368 -156q16 -4 16 -16t-16 -16zM16 696l140 60l228 96l228 96l184 76l136 56q16 8 40 8t40 -8l136 -56l184 -76l228 -96l228 -96l140 -60q16 -4 16 -16t-16 -16l-916 -384q-16 -8 -40 -8t-40 8l-916 384q-16 4 -16 16
t16 16z" />
</svg>
