<?xml version="1.0" standalone="no"?>
<!DOCTYPE svg PUBLIC "-//W3C//DTD SVG 1.1//EN" "http://www.w3.org/Graphics/SVG/1.1/DTD/svg11.dtd" >
<svg xmlns="http://www.w3.org/2000/svg" xmlns:xlink="http://www.w3.org/1999/xlink" version="1.1" viewBox="-10 0 1972 2048">
   <path fill="currentColor"
d="M1916 1085h16q0 -88 -56 -176q-12 -16 -34 -56t-32 -54t-40 -48t-64 -62t-92 -74t-142 -102q-148 -100 -230 -108t-150 34t-116 42t-116 -42t-150 -34t-230 108q-96 68 -160 114t-106 92t-56 58t-44 66t-38 66q-56 88 -56 176h16q60 0 92 24q4 0 14 -4t18 -6t16 -6
q124 -40 208 -56q232 -104 592 -104t592 104q84 16 208 56l48 16q32 -24 92 -24zM764 521q-44 12 -92 34t-76 40t-82 56t-74 50q-16 12 -32 2t-16 -28t16 -30q20 -12 64 -42t66 -46t60 -38t74 -36t72 -26q20 -4 34 8t10 32t-24 24zM1236 533q-44 4 -184 68q-16 8 -32 -4
t-16 -28t16 -28q156 -68 216 -72q20 0 28 16t0 32t-28 16zM0 1121q48 172 180 290t302 162t276 58t198 14h20h20q92 0 198 -14t276 -58t302 -162t180 -290q-8 0 -20 -4h-16q-56 0 -80 20q0 4 -8 4q-12 0 -36 -8t-62 -22t-78 -22q-96 -28 -212 -28q-92 0 -176 16
q-232 44 -288 44t-288 -44q-84 -16 -176 -16q-112 0 -212 28q-40 8 -78 22t-62 22t-36 8q-8 0 -8 -4q-24 -20 -80 -20h-16zM276 1193q112 -48 232 -44q28 0 38 20t0 40t-38 20q-100 -8 -192 36q-24 8 -42 -6t-18 -34t20 -32z" />
</svg>
