<?xml version="1.0" standalone="no"?>
<!DOCTYPE svg PUBLIC "-//W3C//DTD SVG 1.1//EN" "http://www.w3.org/Graphics/SVG/1.1/DTD/svg11.dtd" >
<svg xmlns="http://www.w3.org/2000/svg" xmlns:xlink="http://www.w3.org/1999/xlink" version="1.1" viewBox="-11 0 1969 2048">
   <path fill="currentColor"
d="M607 1508q40 -12 56 -72l-132 44q36 40 76 28zM1943 520q-48 -96 -496 -96h-12q-92 132 -108 336q24 156 -40 324q344 -40 508 -268q8 -16 32 -48q144 -192 116 -248zM1367 428q-124 0 -196 4h-16q92 104 132 200q36 -136 80 -204zM1267 772q0 -4 4 -4
q-36 -176 -192 -332h-20q-76 0 -220 -8q-36 0 -108 -2t-104 -2q-404 0 -520 180q-92 148 -104 334t20 318q4 24 10 66t6 62q20 240 100 240t248 -156q4 0 12 -4l40 -12q40 -12 100 -34t138 -48t158 -60t156 -68t136 -72t92 -70q76 -176 52 -312v-12z" />
</svg>
