<?xml version="1.0" standalone="no"?>
<!DOCTYPE svg PUBLIC "-//W3C//DTD SVG 1.1//EN" "http://www.w3.org/Graphics/SVG/1.1/DTD/svg11.dtd" >
<svg xmlns="http://www.w3.org/2000/svg" xmlns:xlink="http://www.w3.org/1999/xlink" version="1.1" viewBox="-10 0 855 2048">
   <path fill="currentColor"
d="M448 290q4 -4 -2 -4h-14q8 -12 16 -36q4 -4 -4 -4q0 -4 4 -4q8 -7 -8 -8q0 -7 -12 -8v-4q4 -4 4 -12v-4v-4q0 -4 -8 -4l12 -48l-16 -4l-8 8q-4 4 -4 8q-8 -4 -12 0q0 -12 4 -20q0 -4 -8 -5.5t-12 1.5v-4q0 -7 -12 -8v-20q4 -4 0 -4h-8v-4v-4v-20q0 -4 -4 -8
q-20 -4 -20 12q-16 0 -16 8q-8 -8 -16 0q0 -12 4 -16q0 -4 -10 -5.5t-14 1.5l-4 4q-12 0 -16 4h-4q0 -16 -24 -4q-4 4 -4 8v4h-4q-4 -4 -8 -4q-4 -7 -4 -28q-4 -4 -28 8q4 5 4 16q-4 0 -4 4q-4 -7 -16 -5.5t-12 9.5l-4 4h-8v-4q0 -16 -16 -4q-8 8 -8 12v8h-8q-4 -4 -12 0.5
t-8 7.5v24q-8 0 -8 8v-4q0 -4 -8 -5.5t-12 1.5q-4 0 -4 2t-4 2q-4 -4 -14 0.5t-10 7.5q20 29 20 32q-8 0 -16 8h-8q-20 0 -20 16l8 16l-16 8q4 8 12 32q-12 5 -16 12q12 44 32 88t54 106t46 82l8 -4l12 -4l40 -7.5t52 -4.5q56 0 100 16l12 4q36 -91 44 -116q8 -16 24 -58
t28 -66q0 -7 -4 -8v-4zM152 558q-4 68 4 436q112 -12 180 -4v-432q-48 -16 -94 -16t-66 8zM160 1030q4 164 10 380t12 358.5t6 157.5q0 29 18 42.5t34 13.5h16q60 5 68 -60q12 -180 12 -900q-92 -12 -176 8zM780 554l-4 -212h-76l8 208h-4q-48 461 32 1360v52q0 36 36 36
t36 -40v-8q36 -436 24 -767.5t-26 -453.5t-26 -175zM776 314q44 -156 -16 -156q-40 0 -64 24t-24 52l28 80h76z" />
</svg>
