<?xml version="1.0" standalone="no"?>
<!DOCTYPE svg PUBLIC "-//W3C//DTD SVG 1.1//EN" "http://www.w3.org/Graphics/SVG/1.1/DTD/svg11.dtd" >
<svg xmlns="http://www.w3.org/2000/svg" xmlns:xlink="http://www.w3.org/1999/xlink" version="1.1" viewBox="-10 0 1980 2048">
   <path fill="currentColor"
d="M1492 756q-56 0 -94 38t-38 94v88q0 52 38 90t94 38h308v-348h-308zM1580 996q-64 0 -64 -64q0 -28 18 -48t46 -20t46 20t18 48q0 64 -64 64zM1704 284h-1480q-92 0 -158 68t-66 160v1088q0 68 46 116t114 48h1480q68 0 114 -48t46 -116v-428h-308q-80 0 -138 -58
t-58 -138v-88q0 -80 58 -138t138 -58h308v-116q0 -52 -38 -90t-90 -38h-1480q-32 0 -32 -32t32 -32h1480q80 0 136 56t56 136v984q96 -68 96 -184v-832q0 -108 -76 -184t-180 -76zM1492 756q-56 0 -94 38t-38 94v88q0 52 38 90t94 38h308v-348h-308zM1580 996q-64 0 -64 -64
q0 -28 18 -48t46 -20t46 20t18 48q0 64 -64 64zM1492 756q-56 0 -94 38t-38 94v88q0 52 38 90t94 38h308v-348h-308zM1580 996q-64 0 -64 -64q0 -28 18 -48t46 -20t46 20t18 48q0 64 -64 64z" />
</svg>
