<?xml version="1.0" standalone="no"?>
<!DOCTYPE svg PUBLIC "-//W3C//DTD SVG 1.1//EN" "http://www.w3.org/Graphics/SVG/1.1/DTD/svg11.dtd" >
<svg xmlns="http://www.w3.org/2000/svg" xmlns:xlink="http://www.w3.org/1999/xlink" version="1.1" viewBox="-10 0 1023 2048">
   <path fill="currentColor"
d="M956 468q-132 -92 -180 -220q-32 -72 -84 -100q0 -4 8 -20t8 -26t-8 -28t-32 -38q-40 32 -56 56q-76 -28 -188 -8t-196 80q-148 112 -198 374t-16 502t106 340q-4 4 -4 16q-36 0 -44 36q-4 12 6 26t18 14v12q-88 148 -92 216q-12 116 52 200q-4 4 -4 16q-24 16 -32 36
l-8 60h828q0 -40 -8 -60q-16 -36 -32 -36q0 -4 -2 -8t-2 -8q64 -84 52 -184q-4 -96 -84 -232l-4 -12h8q8 0 18 -12t6 -28q-4 -36 -40 -36q0 -12 -4 -16l36 -288q-124 -96 -212 -248t-84 -300q0 -28 16 -30t16 22q0 52 34 92t106 20q108 -28 164 -4q24 8 50 28t42 28
q40 -40 68 -96q48 -88 -28 -136z" />
</svg>
