<?xml version="1.0" standalone="no"?>
<!DOCTYPE svg PUBLIC "-//W3C//DTD SVG 1.1//EN" "http://www.w3.org/Graphics/SVG/1.1/DTD/svg11.dtd" >
<svg xmlns="http://www.w3.org/2000/svg" xmlns:xlink="http://www.w3.org/1999/xlink" version="1.1" viewBox="-11 0 710 2048">
   <path fill="currentColor"
d="M652 1932v-16q40 -64 36 -132t-68 -164v-8l4 -4q4 0 14 -10t6 -22q-8 -24 -32 -24h-8v-8q-8 -24 -44 -104t-48 -116t-30 -120t-26 -184q0 -4 2 -12t2 -12h68q4 0 12 -4t14 -16t6 -28t-10 -30t-18 -20t-12 -6h-32l-8 -176q108 -160 124 -184q24 -40 24 -72q0 -40 -30 -70
t-74 -30h-56v-28q0 -28 -28 -28h-192q-28 0 -28 28v28h-56q-44 0 -74 30t-30 70q0 32 24 72l124 188l-8 172h-32q-4 0 -12 6t-18 20t-10 30q-4 20 12 34t24 14h64l4 4q0 8 4 8q-4 72 -14 134t-16 98t-24 88t-26 70t-32 74t-32 72v4v4h-4q-28 0 -32 24q-4 12 4 22t16 10v8v4
q-72 104 -76 156q-4 80 44 144l-4 4v8q-20 12 -24 28l-8 40h672q-4 -28 -8 -40t-20 -28zM256 216q48 -44 68 -24q24 24 -24 68l-12 12q28 20 60 20t60 -20l-12 -12q-44 -44 -24 -68t68 24q4 4 12 16q16 -28 16 -64q0 -40 -16 -60q-4 0 -4 4l-8 4q-44 52 -68 28
q-20 -24 28 -72l8 -8q-20 -16 -60 -16q-32 0 -60 16l8 4q8 4 8 8q48 44 24 68t-68 -24q-8 -8 -12 -16q-16 28 -16 64q0 40 16 60q0 -4 8 -12z" />
</svg>
