<?xml version="1.0" standalone="no"?>
<!DOCTYPE svg PUBLIC "-//W3C//DTD SVG 1.1//EN" "http://www.w3.org/Graphics/SVG/1.1/DTD/svg11.dtd" >
<svg xmlns="http://www.w3.org/2000/svg" xmlns:xlink="http://www.w3.org/1999/xlink" version="1.1" viewBox="-11 0 790 2048">
   <path fill="currentColor"
d="M520 168q0 52 -36 88t-88 36t-88 -36t-36 -88t36 -88t88 -36t88 36t36 88zM728 1928l-4 -8q48 -64 44 -144q-4 -88 -72 -176v-12h4q8 0 16 -10t4 -22q-4 -28 -32 -28h-4l-8 -16q-52 -100 -74 -144t-52 -162t-38 -266v-8h88q8 0 26 -16t14 -40q0 -20 -12 -36t-22 -22
t-14 -6h-60q-8 -120 38 -230t106 -154q60 -40 24 -92q-24 -40 -68 -28q-4 0 -16 8t-26 14t-30 6q-32 0 -76 -28l-8 -4l-8 4q-40 32 -76 32q-40 0 -84 -36q-48 32 -88 32q-16 0 -30 -6t-26 -14t-16 -8q-40 -12 -68 28q-32 52 24 92q60 44 106 154t42 230h-72q-12 0 -30 16
t-22 44q-4 24 14 42t30 18h96l4 8q-8 148 -38 264t-52 160t-78 148v8l-4 8h-4q-32 0 -36 28q-4 12 4 22t16 10v12q-76 104 -80 164q-4 88 44 152v12h-4q-20 16 -24 32l-8 44h752q-4 -32 -8 -44z" />
</svg>
