<?xml version="1.0" standalone="no"?>
<!DOCTYPE svg PUBLIC "-//W3C//DTD SVG 1.1//EN" "http://www.w3.org/Graphics/SVG/1.1/DTD/svg11.dtd" >
<svg xmlns="http://www.w3.org/2000/svg" xmlns:xlink="http://www.w3.org/1999/xlink" version="1.1" viewBox="-10 0 1964 2048">
   <path fill="currentColor"
d="M52 870l1212 188q-12 -32 -12 -60q0 -60 40 -100t100 -40q56 0 98 40t42 100q0 56 -40 96l396 60q32 8 46 -12t-2 -52l-184 -368q-40 20 -76 20q-60 0 -100 -40t-40 -100q0 -100 92 -128l-92 -184q-44 -72 -116 -44l-200 84q40 68 40 132q0 92 -64 158t-156 66
q-84 0 -146 -52t-74 -132l-768 324q-20 8 -28 18t2 18t30 8zM656 698q48 0 48 48q0 44 -48 44q-44 0 -44 -44q0 -48 44 -48zM0 906l36 344q52 -52 120 -52t116 46t48 114t-48 116t-116 48q-44 0 -92 -28l16 136q12 80 96 88l992 60l-4 -4v-8q0 -56 42 -98t98 -42t98 42
t42 98q0 4 -2 14t-2 14l308 16q36 4 64 -20t36 -56l96 -516zM512 1566q-44 0 -44 -44q0 -48 44 -48q48 0 48 48q0 44 -48 44zM708 1394q-40 0 -68 -28t-28 -68t28 -68t68 -28t68 28t28 68t-28 68t-68 28z" />
</svg>
