<?xml version="1.0" standalone="no"?>
<!DOCTYPE svg PUBLIC "-//W3C//DTD SVG 1.1//EN" "http://www.w3.org/Graphics/SVG/1.1/DTD/svg11.dtd" >
<svg xmlns="http://www.w3.org/2000/svg" xmlns:xlink="http://www.w3.org/1999/xlink" version="1.1" viewBox="-11 0 1352 2048">
   <path fill="currentColor"
d="M1176 596q-40 48 -68 76q28 24 24 48q-16 64 -168 20q-60 -16 -100 -48t-32 -56q12 -36 96 -36q8 -16 24 -56h-4h-24q-60 0 -92 4q-100 16 -168 48t-100 72t-50 104t-24 124t-20 154t-38 170q-56 200 -192 376q-80 108 -184 200q-52 44 -56 116t100 84q16 0 64 -8
q320 -64 572 -244q236 -164 388 -390t196 -466q0 -8 4 -24t4 -24q24 -160 -152 -244zM1016 708q20 -16 60 -56q40 -48 56 -72q12 -12 20 -28q4 -8 10 -18t10 -14q108 -160 138 -268t6 -132l-24 -28q-44 -40 -100 -40h-20q-64 4 -104 164l-48 216q-48 144 -64 184l-28 72z
" />
</svg>
