<?xml version="1.0" standalone="no"?>
<!DOCTYPE svg PUBLIC "-//W3C//DTD SVG 1.1//EN" "http://www.w3.org/Graphics/SVG/1.1/DTD/svg11.dtd" >
<svg xmlns="http://www.w3.org/2000/svg" xmlns:xlink="http://www.w3.org/1999/xlink" version="1.1" viewBox="-10 0 1964 2048">
   <path fill="currentColor"
d="M1944 436q0 -56 -38 -94t-94 -38h-212v268h212q56 0 94 -40t38 -96zM1812 688h-212v264h212q56 0 94 -38t38 -94t-38 -94t-94 -38zM1812 1068h-212v264h212q56 0 94 -38t38 -94t-38 -94t-94 -38zM1812 1448h-212v264h212q56 0 94 -38t38 -94t-38 -94t-94 -38zM0 436
q0 56 38 94t94 38h212v-264h-212q-56 0 -94 38t-38 94zM0 816q0 56 38 94t94 38h212v-264h-212q-56 0 -94 38t-38 94zM0 1196q0 56 38 96t94 40h212v-268h-212q-56 0 -94 38t-38 94zM0 1580q0 56 38 94t94 38h212v-264h-212q-56 0 -94 38t-38 94zM1368 112h-788
q-48 0 -82 34t-34 82v1592q0 48 34 82t82 34h788q48 0 82 -34t34 -82v-1592q0 -48 -34 -82t-82 -34z" />
</svg>
