<?xml version="1.0" standalone="no"?>
<!DOCTYPE svg PUBLIC "-//W3C//DTD SVG 1.1//EN" "http://www.w3.org/Graphics/SVG/1.1/DTD/svg11.dtd" >
<svg xmlns="http://www.w3.org/2000/svg" xmlns:xlink="http://www.w3.org/1999/xlink" version="1.1" viewBox="-10 0 1972 2048">
   <path fill="currentColor"
d="M400 1028q-164 0 -282 116t-118 284q0 164 118 282t282 118q168 0 284 -118t116 -282q0 -168 -116 -284t-284 -116zM400 1748q-132 0 -226 -94t-94 -226q0 -136 94 -230t226 -94q136 0 230 94t94 230q0 132 -94 226t-230 94zM1552 1028q-168 0 -286 116t-118 284
q0 164 118 282t286 118q164 0 282 -118t118 -282q0 -168 -118 -284t-282 -116zM1552 1748q-136 0 -230 -94t-94 -226q0 -136 94 -230t230 -94q132 0 226 94t94 230q0 132 -94 226t-226 94zM1304 368q0 60 -42 102t-102 42q-64 0 -106 -42t-42 -102q0 -64 42 -106t106 -42
q60 0 102 42t42 106zM1160 868h308q24 -4 34 -20t10 -32v-12q0 -16 -12 -28t-24 -16h-12h-264l-176 -280q-44 -32 -86 -32t-62 16l-20 16l-324 324q-24 56 -18 94t26 54l20 20l332 188l-4 336q8 32 28 50t36 22h16q32 4 54 -12t26 -36l8 -16v-436q0 -32 -12 -54t-28 -30
l-12 -4l-192 -104l200 -192l92 152q8 16 22 24t26 8h8z" />
</svg>
