<?xml version="1.0" standalone="no"?>
<!DOCTYPE svg PUBLIC "-//W3C//DTD SVG 1.1//EN" "http://www.w3.org/Graphics/SVG/1.1/DTD/svg11.dtd" >
<svg xmlns="http://www.w3.org/2000/svg" xmlns:xlink="http://www.w3.org/1999/xlink" version="1.1" viewBox="-10 0 1960 2048">
   <path fill="currentColor"
d="M1576 844q-72 0 -132 24q-24 -168 -152 -278t-300 -110q-188 0 -324 134t-136 326l4 4v12q-4 0 -8 -4h-8q-104 0 -176 72t-72 176v4q-40 -8 -60 -8q-88 0 -150 62t-62 150q0 160 212 160h1364q152 0 258 -106t106 -258q0 -148 -106 -254t-258 -106z" />
</svg>
