<?xml version="1.0" standalone="no"?>
<!DOCTYPE svg PUBLIC "-//W3C//DTD SVG 1.1//EN" "http://www.w3.org/Graphics/SVG/1.1/DTD/svg11.dtd" >
<svg xmlns="http://www.w3.org/2000/svg" xmlns:xlink="http://www.w3.org/1999/xlink" version="1.1" viewBox="-10 0 1584 2048">
   <path fill="currentColor"
d="M1314 895q48 72 112 88q12 4 38 4t38 4l20 10q12 6 16 6t8 6t8 6q4 -4 8 -10t0 -10t-8 -10t-4 -10q-24 -24 -60 -36q-16 -8 -48 -20t-48 -20q-36 -24 -86 -96t-94 -92q-8 -4 -28 -10t-28 -10q-20 -12 -42 -60t-18 -72q0 -4 28 -44t12 -72t-32 -112q-28 -80 -8 -136
q4 -12 30 -56t36 -66t-6 -50q-132 128 -88 304q0 8 12 44t16 56q20 56 -4 84q-12 16 -28 10t-24 2q-12 12 -16 12q20 -28 20 -56q0 -36 -28 -64t-68 -28h-4q4 -16 -12 -28q-64 -40 -48 -64q4 -4 28 -20q48 -24 68 -48q28 -36 28 -80q16 -64 -4 -100q-8 -16 -24 -4
q-24 24 -8 52l4 4h4v4q16 56 -32 100q-24 28 -52 52q-36 24 -48 44h-36q-12 -4 -32 -4t-32 4h-36q-20 -28 -48 -44q-20 -16 -52 -48q-48 -56 -32 -104v-4h4l4 -4q16 -28 -8 -52q-24 -16 -28 28q-8 44 0 76q0 44 28 80q20 24 68 48q24 16 28 20q16 24 -48 64q-16 12 -12 28
h-4q-40 0 -66 28t-26 64t16 56q-4 0 -12 -12q-8 -8 -28 -2t-28 -10q-24 -28 -4 -84q4 -20 16 -56t12 -44q44 -176 -88 -304q-16 28 -6 50t36 66t30 56q20 56 -8 136q-16 80 -32 112t10 70t30 46q4 24 -18 72t-42 60q-8 4 -28 10t-28 10q-44 20 -94 92t-86 96q-16 12 -50 22
t-46 18q-36 12 -60 36q0 4 -4 10t-8 10t0 10t8 10q4 0 8 -6t8 -6t16 -8t20 -8q12 -4 38 -4t38 -4q64 -16 112 -88q108 -144 112 -148q8 16 6 24t-14 26t-12 22q-20 36 -40 88q-28 88 -36 188q-4 60 -4 188q12 164 16 172t2 22t-6 20t-10 18l-10 20q-20 44 -32 80
q-24 84 -12 176v44q-8 24 -64 52q-48 24 -76 64q-20 20 -16 44q8 36 32 20q-8 -8 -8 -16q-4 -20 48 -44q28 -20 84 -52q8 -4 24 -14t26 -18t14 -20t-4 -40t-8 -32q-16 -100 20 -196q4 -12 12 -12q4 0 12 18t14 42t10 28q24 64 44 92q48 92 128 168q100 92 160 100
q40 4 74 -26t42 -70q0 -4 4 -12v-8v8q4 8 4 12q32 108 116 96q56 -8 160 -100q80 -76 128 -168q8 -8 48 -92q0 -4 4 -14t6 -22t6 -26t8 -20t8 -6q8 0 12 12q36 96 20 196q0 4 -8 32t-4 40t14 20t26 18t24 14q56 32 84 52q52 24 48 44q0 8 -8 16q24 16 32 -20q4 -24 -16 -44
q-28 -40 -76 -64q-56 -28 -64 -52v-12v-18v-14q12 -92 -12 -176q-12 -36 -32 -80q-4 -8 -14 -26t-12 -24t2 -30q16 -40 16 -172q0 -128 -4 -188q-16 -128 -36 -188q-20 -52 -40 -88q0 -4 -12 -22t-14 -26t6 -24q4 4 112 148z" />
</svg>
