<?xml version="1.0" standalone="no"?>
<!DOCTYPE svg PUBLIC "-//W3C//DTD SVG 1.1//EN" "http://www.w3.org/Graphics/SVG/1.1/DTD/svg11.dtd" >
<svg xmlns="http://www.w3.org/2000/svg" xmlns:xlink="http://www.w3.org/1999/xlink" version="1.1" viewBox="-11 0 1992 2048">
   <path fill="currentColor"
d="M361 1824q-68 -120 -24 -290t184 -310q160 -160 354 -194t306 78q-84 260 -412 376q-320 116 -408 340zM1093 1356q-120 120 -304 184q-316 112 -384 340l4 4q112 112 306 78t354 -194q140 -140 184 -312t-28 -292q-52 112 -132 192zM509 660q352 32 532 -172
q-56 -152 -246 -200t-402 32q-184 72 -294 206t-98 274q180 -168 508 -140zM669 1044q184 -72 296 -210t92 -278q-76 76 -196 120q-156 60 -356 44q-340 -32 -488 152v4q56 148 248 198t404 -30zM1549 628q204 -280 132 -544q-156 -32 -300 104t-184 360q-40 192 20 358
t184 226q-56 -232 148 -504zM1745 104q24 120 0 232q-36 172 -152 324q-204 280 -124 496h4q156 32 298 -102t186 -358q36 -196 -24 -364t-188 -228z" />
</svg>
