<?xml version="1.0" standalone="no"?>
<!DOCTYPE svg PUBLIC "-//W3C//DTD SVG 1.1//EN" "http://www.w3.org/Graphics/SVG/1.1/DTD/svg11.dtd" >
<svg xmlns="http://www.w3.org/2000/svg" xmlns:xlink="http://www.w3.org/1999/xlink" version="1.1" viewBox="-10 0 1970 2048">
   <path fill="currentColor"
d="M1470 847l-32 -116q-24 -76 -250 -70t-522 94q-300 92 -492 208t-172 192l48 160q0 8 8 16l8 8l8 8l8 4q8 8 16 8q0 4 8 4l16 8h16q4 4 20 4q4 4 16 4t20 4h20h24h20h8h16h32h8h20q4 0 10 -2t10 -2h12q20 0 32 -4h8h4q4 0 18 -2t22 -2q4 -4 12 -4h12q4 -4 16 -4
q16 0 40 -8q8 0 22 -2t18 -2t12 -4t12 -4h8q4 0 8 -4q12 0 36 -8q12 0 16 -4q4 4 16 4q4 4 8 4t10 2t10 2l8 4h12q4 0 8 4q8 0 16 2t16 2t12 4q4 0 20 2t20 2h4l8 4h12q4 0 10 2t10 2t18 2t22 2t20 2t16 2h28q4 0 8 4h4h40q12 0 16 4h12h12h44h8h12h8q8 4 12 4h40h12h28
q28 0 44 -4h4h40h20h24q8 -4 20 -4h12q28 0 84 -8h12l84 -12h12l8 -4q56 -8 80 -12q40 -8 56 -16h4q16 -4 40 -12h4l36 -12h4q0 -4 8 -4l4 -4q8 0 8 -4q4 0 8 -4h8l4 -4h4q16 -8 20 -12h4l4 -4l8 -4q4 -4 16 -12v-4q4 0 12 -8q4 -4 4 -8h4l4 -4q4 -4 4 -8v-4l4 -4v-4l4 -4
v-8v-4v-164q-8 -132 -480 -180zM30 1147q-12 -32 58 -92t228 -136t358 -136t372 -82t262 -10t102 48q8 36 -68 96q-4 4 -16 14t-20 14q-184 136 -540 236q-20 4 -56 14t-52 18q-56 16 -208 44q-188 28 -298 18t-122 -46zM1198 1191q-64 0 -96 -4q24 -8 72 -32q8 0 8 -4h4
q4 -4 8 -4q48 -24 68 -36h4q16 -12 48 -28l4 -4q4 -4 16 -10t16 -10l4 -4q4 -4 14 -10t18 -10q0 -4 4 -4q4 -4 8 -4l12 -12q8 0 8 -8q4 0 4 -2t4 -2v-4q12 -4 16 -16q4 0 4 -4q4 0 4 -4q4 0 4 -2t4 -2q0 -8 8 -16q4 0 4 -4q4 -4 4 -8q4 -4 4 -12h4q0 -12 4 -16v-4v-4v-4v-12
h-4l-4 -16q200 20 320 64t120 88q0 36 -84 72t-254 64t-382 28z" />
</svg>
