<?xml version="1.0" standalone="no"?>
<!DOCTYPE svg PUBLIC "-//W3C//DTD SVG 1.1//EN" "http://www.w3.org/Graphics/SVG/1.1/DTD/svg11.dtd" >
<svg xmlns="http://www.w3.org/2000/svg" xmlns:xlink="http://www.w3.org/1999/xlink" version="1.1" viewBox="-11 0 1964 2048">
   <path fill="currentColor"
d="M15 1634q-36 80 12 178t124 132t132 -6q44 -44 244 -362t268 -382q100 -92 356 36l20 -24q-196 -216 -228 -256q-4 -4 12 -28l256 236l24 -24l-248 -264q4 -4 10 -12t10 -12l264 236l24 -20l-248 -268l20 -20l256 236l24 -24l-244 -260l24 -24l264 240l24 -24l-248 -260
q4 -8 14 -16t14 -16l268 248l24 -24l-252 -268q4 -4 12 -10t12 -10l264 248l24 -24l-252 -264l24 -24l268 248l24 -24l-252 -264q8 -12 24 -28l268 252l24 -24l-248 -264l24 -24l264 244l24 -24l-244 -260q4 0 10 -8t10 -8l264 240l24 -20l-240 -260q4 -4 20 -12l260 240
l24 -24l-232 -248q20 -8 28 0l252 216l28 -28q-192 -236 -264 -296q-44 -52 -122 -24t-274 188q-124 100 -278 278t-286 350t-156 200q-16 16 -266 230t-282 290z" />
</svg>
