<?xml version="1.0" standalone="no"?>
<!DOCTYPE svg PUBLIC "-//W3C//DTD SVG 1.1//EN" "http://www.w3.org/Graphics/SVG/1.1/DTD/svg11.dtd" >
<svg xmlns="http://www.w3.org/2000/svg" xmlns:xlink="http://www.w3.org/1999/xlink" version="1.1" viewBox="-11 0 1695 2048">
   <path fill="currentColor"
d="M1546 1241l-748 -716q-20 -20 -44 -4t-12 40l48 132l-728 -632q-28 -20 -48 0q-24 16 -8 48l348 592l-268 -68q-20 -8 -40 12q-16 24 4 44l852 1152q0 8 20 28q120 128 312 128q184 0 312 -128q128 -132 128 -316t-128 -312zM1234 1893q-140 0 -240 -100t-100 -240
t100 -240t240 -100t240 100t100 240t-100 240t-240 100z" />
</svg>
