<?xml version="1.0" standalone="no"?>
<!DOCTYPE svg PUBLIC "-//W3C//DTD SVG 1.1//EN" "http://www.w3.org/Graphics/SVG/1.1/DTD/svg11.dtd" >
<svg xmlns="http://www.w3.org/2000/svg" xmlns:xlink="http://www.w3.org/1999/xlink" version="1.1" viewBox="-10 0 1980 2048">
   <path fill="currentColor"
d="M1880 711q-32 0 -54 24t-22 56t20 60q-236 244 -316 212q-72 -36 -72 -224q32 0 56 -24t24 -60q0 -32 -24 -56t-56 -24t-56 24t-24 56q0 60 56 80q-88 200 -244 128q-124 -56 -172 -388q64 -16 64 -80q0 -32 -24 -56t-56 -24t-56 24t-24 56q0 64 64 80q-48 332 -172 388
q-156 72 -244 -128q56 -20 56 -80q0 -32 -24 -56t-56 -24t-56 24t-24 56q0 36 24 60t56 24q0 188 -72 224q-80 32 -316 -212q20 -28 20 -60t-22 -56t-54 -24t-56 24t-24 56t24 58t56 26q16 0 32 -8q232 500 212 668q-36 44 0 72q12 8 84 14t166 8t186 2h156h64
q616 8 656 -24q16 -12 16 -30t-8 -30l-8 -12q-20 -168 212 -668q16 8 32 8q32 0 56 -26t24 -58t-24 -56t-56 -24z" />
</svg>
