<?xml version="1.0" standalone="no"?>
<!DOCTYPE svg PUBLIC "-//W3C//DTD SVG 1.1//EN" "http://www.w3.org/Graphics/SVG/1.1/DTD/svg11.dtd" >
<svg xmlns="http://www.w3.org/2000/svg" xmlns:xlink="http://www.w3.org/1999/xlink" version="1.1" viewBox="-10 0 1980 2048">
   <path fill="currentColor"
d="M1960 1748v-1448q0 -104 -76 -180t-180 -76h-1448q-104 0 -180 76t-76 180v1448q0 104 76 180t180 76h1448q104 0 180 -76t76 -180zM576 1736q-76 0 -134 -56t-58 -136t56 -138t136 -58t138 58t58 138t-58 136t-138 56zM576 1220q-76 0 -134 -58t-58 -134q0 -80 56 -138
t136 -58t138 58t58 138t-58 136t-138 56zM576 704q-76 0 -134 -56t-58 -136t56 -138t136 -58t138 58t58 138t-58 136t-138 56zM1352 1736q-80 0 -138 -56t-58 -136t58 -138t138 -58t136 58t56 138t-56 136t-136 56zM1352 1220q-80 0 -138 -56t-58 -136t58 -138t138 -58
t136 58t56 138t-56 136t-136 56zM1352 704q-80 0 -138 -56t-58 -136t58 -138t138 -58t136 58t56 138t-56 136t-136 56z" />
</svg>
