<?xml version="1.0" standalone="no"?>
<!DOCTYPE svg PUBLIC "-//W3C//DTD SVG 1.1//EN" "http://www.w3.org/Graphics/SVG/1.1/DTD/svg11.dtd" >
<svg xmlns="http://www.w3.org/2000/svg" xmlns:xlink="http://www.w3.org/1999/xlink" version="1.1" viewBox="-10 0 1186 2048">
   <path fill="currentColor"
d="M770 1004q124 -68 212 -182t126 -244t50 -246t4 -220q-8 -64 -80 -64q-28 4 -48 28t-16 52q-8 16 2 84t-14 178t-60 216t-136 198t-240 124q-136 -44 -232 -142t-132 -198t-52 -214t-14 -166t6 -80q8 -64 -60 -80q-72 -8 -80 64q0 204 8 260q56 432 352 616
q-240 96 -312 310t-48 634q0 28 20 48t48 20h4q32 -4 52 -26t16 -50q-20 -452 62 -620t354 -228q196 60 292 140t138 244t26 464q0 68 68 76h4q64 0 72 -68q20 -408 -66 -614t-326 -314zM226 292h700q52 0 52 -52t-52 -52h-700q-56 0 -56 52t56 52zM934 504q0 -52 -56 -52
h-608q-56 0 -56 52t56 52h608q56 0 56 -52zM418 712q-56 0 -56 56q0 52 56 52h312q56 0 56 -52q0 -56 -56 -56h-312zM926 1756h-700q-56 0 -56 56q0 52 56 52h700q52 0 52 -52q0 -56 -52 -56zM214 1548q0 52 56 52h608q56 0 56 -52t-56 -52h-608q-56 0 -56 52zM730 1336
q56 0 56 -52t-56 -52h-312q-56 0 -56 52t56 52h312z" />
</svg>
