<?xml version="1.0" standalone="no"?>
<!DOCTYPE svg PUBLIC "-//W3C//DTD SVG 1.1//EN" "http://www.w3.org/Graphics/SVG/1.1/DTD/svg11.dtd" >
<svg xmlns="http://www.w3.org/2000/svg" xmlns:xlink="http://www.w3.org/1999/xlink" version="1.1" viewBox="-10 0 1976 2048">
   <path fill="currentColor"
d="M976 224q-404 4 -690 174t-286 406v84q4 280 4 404q0 228 288 376t684 156q396 -8 684 -156t288 -376l8 -404v-84q-4 -236 -290 -406t-690 -174zM1532 772l104 -72q32 -24 56 8q20 32 -8 60l-104 72q-8 8 -24 8t-32 -16q-20 -32 8 -60zM1216 440l100 -76q36 -20 56 12
q32 32 -8 56l-100 72q-8 8 -24 8q-24 0 -36 -16q-20 -36 12 -56zM980 548q148 4 250 50t102 110t-102 110t-250 54q-148 -8 -250 -54t-102 -110t102 -110t250 -50zM1232 1040l-100 72q-16 8 -24 8q-16 0 -32 -16q-24 -28 8 -60l100 -72q32 -20 60 8q20 36 -12 60zM588 440
l100 -76q36 -20 56 12q32 32 -8 56l-100 72q-8 8 -24 8q-24 0 -36 -16q-20 -36 12 -56zM484 944l104 -72q32 -32 56 8q20 36 -8 56l-100 76q-16 8 -24 8q-24 0 -36 -20q-24 -32 8 -56zM276 808l104 -72q32 -24 56 8q20 32 -8 60l-104 72q-8 8 -24 8t-32 -16q-20 -32 8 -60z
M1812 1308q0 168 -250 278t-586 118q-336 -8 -586 -118t-250 -278v-208l24 24q68 60 168 112v68q0 36 24 60t60 24t60 -28v132q0 36 26 60t58 24q36 0 60 -24t24 -60v-144q12 0 20 4v36q0 36 24 60t60 24q56 0 76 -52v164q0 36 26 60t58 24q36 0 60 -24t24 -60v-200
q44 0 132 -8v12q0 36 24 60t56 24q36 0 60 -24t24 -60v-36q84 -16 168 -44q0 32 24 56t56 24q36 0 60 -24t24 -60v-68q100 -52 168 -112l24 -24v208z" />
</svg>
