<?xml version="1.0" standalone="no"?>
<!DOCTYPE svg PUBLIC "-//W3C//DTD SVG 1.1//EN" "http://www.w3.org/Graphics/SVG/1.1/DTD/svg11.dtd" >
<svg xmlns="http://www.w3.org/2000/svg" xmlns:xlink="http://www.w3.org/1999/xlink" version="1.1" viewBox="-10 0 988 2048">
   <path fill="currentColor"
d="M896 1442q-12 -100 -64 -310t-76 -254q-12 -24 -28 -64q-272 32 -488 -4q-4 20 -28 68q-24 44 -76 254t-64 310l-72 476q64 4 104 0q28 -4 16 24l-8 16q28 16 94 6t70 6q20 40 112 20q20 -8 20 -12q-8 -12 20 -24q16 4 20 16q-4 16 6 22t22 6h8h12q8 0 18 -6t6 -22
q-4 -12 8 -16q24 -4 32 16q4 4 0 8t8 8q64 24 112 -4q8 -4 12 -12q12 -16 70 -6t94 -6l-12 -36q4 -8 20 -4h104q-60 -340 -72 -476zM172 110q4 12 6 30t8 74t-6 92q-12 64 6 188t42 188q16 44 16 84q232 40 480 4q-4 -32 16 -88q24 -64 42 -188t6 -188q-8 -48 -6 -92t6 -76
l8 -28l-8 -4l-32 -20l-4 -4h-8q-16 -8 -32 -12q-12 0 -32 -10t-32 -10t-28 8q4 4 10 12t10 32t-4 48t-46 56t-106 56q-108 -40 -142 -92t-14 -80l20 -32q-8 -4 -28 -4q-12 0 -34 8t-30 8q-4 0 -10 2t-10 6h-4l-24 12l-24 16z" />
</svg>
