<?xml version="1.0" standalone="no"?>
<!DOCTYPE svg PUBLIC "-//W3C//DTD SVG 1.1//EN" "http://www.w3.org/Graphics/SVG/1.1/DTD/svg11.dtd" >
<svg xmlns="http://www.w3.org/2000/svg" xmlns:xlink="http://www.w3.org/1999/xlink" version="1.1" viewBox="-10 0 1820 2048">
   <path fill="currentColor"
d="M1200 1476q-20 16 -50 38t-42 30q-36 24 -96 48t-112 24t-112 -24t-96 -48q-12 -8 -42 -30t-50 -38q-96 -72 -500 -348q-64 -44 -100 -84v796q0 68 48 116q52 44 112 44h1480q60 0 112 -44q48 -48 48 -116v-796q-44 52 -100 84q-392 272 -500 348zM1800 768
q0 -40 -16 -72q-8 -20 -32 -60q-48 -76 -124 -124q-436 -304 -468 -328q-12 -4 -44 -32l-30 -20q-18 -12 -26 -16q0 -4 -52 -32q-40 -24 -56 -28q-20 -8 -52 -8t-52 8q-16 4 -56 28q-52 28 -52 32q-8 4 -56 36q-32 28 -44 32q-32 24 -120 86t-140 98q-48 32 -98 66t-74 52
t-36 26q-68 48 -116 116q-56 68 -56 136v12v16q0 68 56 136q56 72 116 116q12 8 36 26t74 52t98 66q52 36 140 98t120 86q24 12 44 28q24 16 56 40q12 8 52 32l56 28q40 8 52 8t52 -8l56 -28q40 -24 52 -32q32 -24 56 -40q20 -16 44 -28q32 -24 468 -328q84 -64 124 -124
q24 -40 32 -64q16 -28 16 -68v-12v-8z" />
</svg>
