<?xml version="1.0" standalone="no"?>
<!DOCTYPE svg PUBLIC "-//W3C//DTD SVG 1.1//EN" "http://www.w3.org/Graphics/SVG/1.1/DTD/svg11.dtd" >
<svg xmlns="http://www.w3.org/2000/svg" xmlns:xlink="http://www.w3.org/1999/xlink" version="1.1" viewBox="-10 0 1716 2048">
   <path fill="currentColor"
d="M1572 564v-4l-16 -16l-48 -48q-188 -144 -404 -316q-68 -60 -76 -64q-28 -24 -84 -48q-48 -24 -96 -24t-96 24q-56 24 -84 48q-8 4 -76 64q-216 172 -404 316l-48 48l-16 16v4q-8 4 -16 4q-92 100 -108 200v1084q0 64 48 104q40 48 104 48h1392q60 0 108 -48
q44 -44 44 -104v-1084q-16 -100 -108 -200q-8 0 -16 -4zM1572 1684v168q0 16 -8 20q-4 8 -20 8h-1392q-16 0 -20 -8q-8 -4 -8 -20v-728q28 36 64 64q248 188 404 320q20 12 46 36t30 28q44 24 84 44q48 24 96 24t96 -24q40 -20 84 -44q8 -4 32 -28t44 -36q156 -132 404 -320
q36 -28 64 -64v560zM1572 848v8q0 64 -44 124q-36 64 -92 112q-72 56 -210 166t-170 134q-4 0 -32 28q-28 20 -44 32q-12 8 -44 32q-24 20 -48 24q-16 12 -40 12t-40 -12q-24 -4 -48 -24q-32 -24 -44 -32q-12 -12 -44 -32q-28 -28 -32 -28q-32 -24 -170 -134t-210 -166
q-56 -48 -92 -112q-44 -60 -44 -124v-28q0 -64 44 -124q0 -4 4 -10t8 -10q40 -60 80 -88q8 -4 20 -16t20 -16q224 -176 340 -268l12 -8l20 -20q40 -32 44 -36q12 -8 44 -32q24 -16 48 -24q12 -8 40 -8t40 8q24 8 48 24q12 8 26 18t18 14t44 36l20 20l12 8q116 92 340 268
q8 4 20 16t20 16q40 28 80 88q4 4 8 10t4 10q44 60 44 124v20z" />
</svg>
