<?xml version="1.0" standalone="no"?>
<!DOCTYPE svg PUBLIC "-//W3C//DTD SVG 1.1//EN" "http://www.w3.org/Graphics/SVG/1.1/DTD/svg11.dtd" >
<svg xmlns="http://www.w3.org/2000/svg" xmlns:xlink="http://www.w3.org/1999/xlink" version="1.1" viewBox="-10 0 1956 2048">
   <path fill="currentColor"
d="M1752 360h-1568q-76 0 -130 54t-54 130v140q0 76 54 132t130 56h1568q76 0 130 -56t54 -132v-140q0 -76 -54 -130t-130 -54zM1752 1176h-1568q-76 0 -130 56t-54 132v140q0 76 54 130t130 54h1568q76 0 130 -54t54 -130v-140q0 -76 -54 -132t-130 -56z" />
</svg>
