<?xml version="1.0" standalone="no"?>
<!DOCTYPE svg PUBLIC "-//W3C//DTD SVG 1.1//EN" "http://www.w3.org/Graphics/SVG/1.1/DTD/svg11.dtd" >
<svg xmlns="http://www.w3.org/2000/svg" xmlns:xlink="http://www.w3.org/1999/xlink" version="1.1" viewBox="-10 0 1964 2048">
   <path fill="currentColor"
d="M1880 992l-764 -764q-60 -60 -148 -60t-148 60l-756 756q-64 64 -64 150t64 150l448 448q56 56 80 78t74 46t106 24h408q56 0 106 -24t74 -46t80 -78l440 -440q64 -64 64 -150t-64 -150zM760 1468h-36q-24 0 -40 -16l-72 -72q-16 -16 0 -32l340 -340q16 -24 32 0l116 112
q12 20 0 32l-300 300q-12 16 -40 16zM1100 1604l-76 76q-16 16 -36 16h-40q-20 0 -36 -16l-76 -76q-12 -12 0 -32l116 -116q20 -12 32 0l116 116q16 16 0 32zM1104 700l-528 528q-24 16 -40 16h-36q-24 0 -40 -16l-72 -72q-12 -20 0 -32l568 -568q16 -24 32 0l116 112
q12 20 0 32z" />
</svg>
