<?xml version="1.0" standalone="no"?>
<!DOCTYPE svg PUBLIC "-//W3C//DTD SVG 1.1//EN" "http://www.w3.org/Graphics/SVG/1.1/DTD/svg11.dtd" >
<svg xmlns="http://www.w3.org/2000/svg" xmlns:xlink="http://www.w3.org/1999/xlink" version="1.1" viewBox="-10 0 1892 2048">
   <path fill="currentColor"
d="M1576 520l-408 -404q-60 -64 -168 -84v660h660q-16 -104 -84 -172zM1428 1968q-92 0 -172 -72l-40 -44q-72 -68 -72 -172q0 -32 4 -44h-44q-104 0 -176 -80q-64 -76 -64 -164v-76q0 -88 64 -160q68 -80 176 -80h44q-4 -16 -4 -48q0 -100 72 -172h-260q-52 0 -88 -36
t-36 -88v-704h-708q-52 0 -88 36t-36 88v1744q0 52 36 88t88 36h1416q52 0 88 -36t36 -88v-64l-60 64q-80 72 -176 72zM1852 1304l-372 -372q-20 -20 -52 -20q-28 0 -48 20l-44 44q-20 20 -20 52t20 52l168 164h-400q-32 0 -48 24q-20 20 -20 48v76q0 28 20 48q16 24 48 24
h400l-168 164q-20 20 -20 52t20 52l44 40q20 24 48 24q36 0 52 -24l372 -368q20 -20 20 -48q0 -32 -20 -52z" />
</svg>
