<?xml version="1.0" standalone="no"?>
<!DOCTYPE svg PUBLIC "-//W3C//DTD SVG 1.1//EN" "http://www.w3.org/Graphics/SVG/1.1/DTD/svg11.dtd" >
<svg xmlns="http://www.w3.org/2000/svg" xmlns:xlink="http://www.w3.org/1999/xlink" version="1.1" viewBox="-10 0 1852 2048">
   <path fill="currentColor"
d="M1544 532l-400 -400q-64 -64 -168 -80v648h648q-16 -104 -80 -168zM1448 1948q-92 0 -168 -68l-364 -364q-68 -68 -68 -168q0 -92 64 -168l324 -320h-300q-56 0 -84 -36q-36 -36 -36 -84v-692h-692q-52 0 -88 36t-36 84v1712q0 48 36 84t88 36h1384q48 0 84 -36t36 -84
v-16l-12 12q-68 72 -168 72zM1812 1260q-20 -20 -44 -20h-392l164 -160q20 -28 20 -52t-20 -52l-44 -40q-20 -20 -48 -20q-24 0 -52 20l-360 360q-20 28 -20 52q0 28 20 48l360 364q28 20 52 20q28 0 48 -20l44 -44q20 -20 20 -48q0 -24 -20 -52l-164 -160h392q28 0 44 -24
q20 -20 20 -48v-72q0 -24 -20 -52z" />
</svg>
