<?xml version="1.0" standalone="no"?>
<!DOCTYPE svg PUBLIC "-//W3C//DTD SVG 1.1//EN" "http://www.w3.org/Graphics/SVG/1.1/DTD/svg11.dtd" >
<svg xmlns="http://www.w3.org/2000/svg" xmlns:xlink="http://www.w3.org/1999/xlink" version="1.1" viewBox="-10 0 1956 2048">
   <path fill="currentColor"
d="M1688 744q0 -120 -84 -204t-204 -84t-204 84t-84 204q0 32 24 56t60 24q32 0 56 -24t24 -56q0 -52 36 -88t88 -36t88 36t36 88q0 68 -48 116t-116 48h-1276q-36 0 -60 24t-24 60q0 32 24 56t60 24h1276q136 0 232 -96t96 -232zM60 740h460q116 0 198 -84t82 -200
q0 -100 -72 -172t-172 -72t-172 72t-72 172q0 28 18 46t42 18q64 0 64 -64q0 -48 34 -84t86 -36q48 0 84 36t36 84q0 64 -46 112t-110 48h-460q-60 0 -60 60q0 28 18 46t42 18zM1608 1216h-1196q-32 0 -58 24t-26 60q0 32 26 58t58 26h1196q68 0 116 48t48 116q0 52 -36 86
t-88 34t-88 -34t-36 -86q0 -36 -24 -60t-60 -24q-32 0 -56 24t-24 60q0 116 84 202t204 86t204 -86t84 -202q0 -136 -96 -234t-232 -98z" />
</svg>
