<?xml version="1.0" standalone="no"?>
<!DOCTYPE svg PUBLIC "-//W3C//DTD SVG 1.1//EN" "http://www.w3.org/Graphics/SVG/1.1/DTD/svg11.dtd" >
<svg xmlns="http://www.w3.org/2000/svg" xmlns:xlink="http://www.w3.org/1999/xlink" version="1.1" viewBox="-10 0 1964 2048">
   <path fill="currentColor"
d="M1044 1016v-4l4 -4q0 -32 -24 -56t-56 -24t-54 24t-22 56v12q-36 28 -36 64q0 32 22 56t54 24q24 0 40 -12q20 12 40 12q32 0 54 -24t22 -56q0 -48 -44 -68zM1944 1048q0 -116 -144 -220v-8q0 -32 -24 -54t-56 -22q-28 0 -48 16q-60 -28 -124 -44q92 -404 -92 -512
q-44 -24 -100 -24q-168 0 -384 204q-172 -160 -320 -196q-16 -56 -72 -56q-68 0 -76 68q-4 0 -8 2t-8 2q-184 108 -92 512q-396 120 -396 332q0 100 106 186t290 146q-60 272 12 420q-8 24 -8 36q0 32 22 56t54 24q20 0 44 -16q28 12 68 12q168 0 384 -204q216 204 384 204
q56 0 100 -24q156 -88 112 -404q-8 -32 -24 -104q188 -60 294 -146t106 -186zM1356 240q40 0 72 20q140 80 60 440q-120 -32 -288 -52q-72 -100 -184 -220q200 -188 340 -188zM1272 1220q-20 36 -104 168q-128 8 -196 8t-196 -8q-84 -132 -104 -168q-28 -40 -92 -172
q48 -104 92 -176q32 -60 104 -164q64 -8 196 -8t196 8q72 104 104 164q44 72 92 176q-64 128 -92 172zM1396 1120q40 100 76 216q-120 28 -224 44q16 -24 40 -64t40 -64q48 -88 68 -132zM1120 1452q-72 96 -148 172q-100 -108 -148 -172q48 4 148 4t148 -4zM696 1380
q-104 -16 -224 -44q36 -116 76 -216q20 44 68 132q16 24 40 64t40 64zM548 972q-44 -96 -76 -216q132 -32 224 -40q-12 16 -80 124q-48 88 -68 132zM824 644q72 -96 148 -172q76 76 148 172q-96 -8 -148 -8t-148 8zM1328 840q-68 -108 -80 -124q92 8 224 40q-32 116 -76 220
q-32 -68 -68 -136zM516 260l4 -4q20 32 60 32q44 0 64 -40q136 40 284 180q-92 92 -184 220q-168 20 -288 52q-80 -360 60 -440zM60 1048q0 -164 352 -272q40 144 100 272q-60 124 -100 272q-352 -108 -352 -272zM588 1852q-24 0 -36 -4l4 -4v-8q0 -32 -24 -54t-56 -22
q-4 0 -10 2t-10 2q-56 -124 0 -368q172 40 288 48q100 140 184 224q-196 184 -340 184zM1508 1492q36 276 -80 344q-28 16 -72 16q-144 0 -340 -184q84 -84 184 -224q116 -8 288 -48l12 48q8 32 8 48zM1532 1320q-32 -112 -100 -272q72 -172 100 -272q68 20 112 40v4
q0 32 22 56t54 24q28 0 48 -20q116 84 116 168q0 164 -352 272z" />
</svg>
