<?xml version="1.0" standalone="no"?>
<!DOCTYPE svg PUBLIC "-//W3C//DTD SVG 1.1//EN" "http://www.w3.org/Graphics/SVG/1.1/DTD/svg11.dtd" >
<svg xmlns="http://www.w3.org/2000/svg" xmlns:xlink="http://www.w3.org/1999/xlink" version="1.1" viewBox="-11 0 1517 2048">
   <path fill="currentColor"
d="M1476 1116q-76 -220 -208 -406t-260 -296t-266 -194t-210 -114t-112 -46h-4q-48 -12 -96 -12q-104 0 -188 60t-116 160q-40 124 20 242t184 162q492 196 652 656q32 96 116 156t188 60q52 0 104 -20q132 -44 184 -164q56 -120 12 -244zM1032 1580q-128 -28 -232 -108
t-162 -172t-88 -152t-42 -96v-4q-24 -88 -102 -130t-162 -18t-128 102t-20 162q8 32 28 84t88 176t154 226t238 204t332 142q16 4 48 4q72 0 132 -46t76 -118q20 -88 -26 -164t-134 -92z" />
</svg>
