<?xml version="1.0" standalone="no"?>
<!DOCTYPE svg PUBLIC "-//W3C//DTD SVG 1.1//EN" "http://www.w3.org/Graphics/SVG/1.1/DTD/svg11.dtd" >
<svg xmlns="http://www.w3.org/2000/svg" xmlns:xlink="http://www.w3.org/1999/xlink" version="1.1" viewBox="-11 0 1976 2048">
   <path fill="currentColor"
d="M728 1412q124 0 236 -36q112 -32 220 -104q148 -104 240 -264q0 -8 8 -24q24 -40 56 -128l12 -36q16 -84 56 -132l-16 -152q-8 -44 12 -88q20 -64 76 -88q24 -8 36 -8q20 0 40 4q4 -24 8 -52t8 -48l4 -16q-4 -16 -18 -32t-32 -28t-38 -24t-34 -18t-30 -10l-12 -4
q-48 8 -60 76l-32 192v4h-4q-8 0 -12 4q-40 20 -80 92l-24 36q-56 76 -92 120q-8 12 -20 20q-140 144 -332 212q-276 100 -588 0l-36 -12q-8 -4 -24 -10t-24 -10q-80 -20 -108 -20q-36 0 -64 16q-24 8 -44 44q-44 80 32 188q52 68 124 128q152 112 296 160q124 40 260 48z
M1876 708q-24 -196 -24 -204q-32 -52 -160 -64v-4h-28q-48 24 -40 92l20 192l-12 12q-36 32 -52 108q0 8 -4 22t-8 22q-28 76 -60 136q-4 12 -12 28q-56 88 -88 128l-4 4q-4 4 -4 8q-84 92 -168 152q-232 156 -512 156h-56q-4 0 -18 -2t-22 -2q-4 0 -22 -2t-26 -2h-32
q-100 0 -140 40q-24 32 -28 52q-24 96 80 176q80 60 156 92q152 64 328 76h56q340 0 600 -212q200 -160 294 -404t50 -500q-12 -60 -64 -100z" />
</svg>
