<?xml version="1.0" standalone="no"?>
<!DOCTYPE svg PUBLIC "-//W3C//DTD SVG 1.1//EN" "http://www.w3.org/Graphics/SVG/1.1/DTD/svg11.dtd" >
<svg xmlns="http://www.w3.org/2000/svg" xmlns:xlink="http://www.w3.org/1999/xlink" version="1.1" viewBox="-11 0 1798 2048">
   <path fill="currentColor"
d="M1668 1220q-28 -12 -52 -20v-352q24 -8 52 -20q76 -44 100 -134t-20 -166t-134 -100t-166 20q-28 12 -44 36l-304 -180q8 -32 8 -52q0 -92 -66 -156t-154 -64t-154 64t-66 156q0 20 8 52l-304 180q-16 -24 -44 -36q-76 -44 -166 -20t-134 100t-20 166t100 134
q28 12 52 20v352q-24 8 -52 20q-76 44 -100 134t20 166t134 100t166 -20q28 -12 44 -36l304 176q-8 40 -8 56q0 92 66 156t154 64t154 -64t66 -156q0 -20 -8 -52l304 -176q20 20 44 32q76 44 166 20t134 -100t20 -166t-100 -134zM1040 1640q-64 -64 -152 -64q-80 0 -152 64
l-304 -176q20 -92 -24 -164q-44 -80 -132 -100v-352q92 -28 132 -100q44 -72 24 -164l304 -176q64 64 152 64q96 0 152 -64l304 176q-20 92 24 164q44 80 132 100v352q-88 20 -132 100q-44 72 -24 164z" />
</svg>
