<?xml version="1.0" standalone="no"?>
<!DOCTYPE svg PUBLIC "-//W3C//DTD SVG 1.1//EN" "http://www.w3.org/Graphics/SVG/1.1/DTD/svg11.dtd" >
<svg xmlns="http://www.w3.org/2000/svg" xmlns:xlink="http://www.w3.org/1999/xlink" version="1.1" viewBox="-10 0 1956 2048">
   <path fill="currentColor"
d="M708 764q28 28 64 52q88 -56 196 -56q100 0 192 52q32 -16 64 -48q36 -36 56 -72q-140 -96 -312 -96t-316 100q24 36 56 68zM532 1048q136 36 224 148l84 -48v-16q0 -80 76 -116v-96q-140 -12 -248 -120q-124 -120 -124 -294t124 -294q52 -52 108 -80q-108 48 -176 116
q-128 128 -150 306t66 322q-172 0 -312 106t-188 278q-24 108 -12 212q0 -68 16 -128q44 -168 194 -254t318 -42zM516 1100q-32 -8 -88 -16q0 12 -2 28t-2 24q0 160 88 294t228 202q24 -44 36 -88q12 -36 12 -76q-196 -108 -196 -332v-8q-48 -24 -76 -28zM1920 1260
q-48 -176 -190 -282t-314 -106q84 -144 62 -320t-146 -304q-68 -68 -176 -116q52 32 104 80q124 120 124 294t-124 294q-100 100 -240 120v96q76 36 76 116v16l84 48q84 -116 224 -152q168 -44 318 42t194 254q16 60 16 132q12 -108 -12 -212zM1148 1468q0 36 12 76
q16 52 36 84q140 -64 228 -198t88 -294q0 -8 -2 -26t-2 -26q-44 0 -88 12q-48 12 -76 28v12q0 224 -196 332zM1108 1556q-36 -140 20 -272l-84 -48q-36 28 -76 28t-76 -28l-84 52q56 124 20 272q-44 168 -194 254t-318 42q-60 -16 -120 -56q76 64 188 96q172 48 336 -22
t248 -222q88 152 250 220t334 20q96 -20 188 -92q-68 36 -120 52q-168 44 -318 -42t-194 -254z" />
</svg>
