<?xml version="1.0" standalone="no"?>
<!DOCTYPE svg PUBLIC "-//W3C//DTD SVG 1.1//EN" "http://www.w3.org/Graphics/SVG/1.1/DTD/svg11.dtd" >
<svg xmlns="http://www.w3.org/2000/svg" xmlns:xlink="http://www.w3.org/1999/xlink" version="1.1" viewBox="-10 0 1980 2048">
   <path fill="currentColor"
d="M1660 520q-136 0 -228 26t-208 110q-136 100 -244 160q-108 -60 -244 -160q-116 -84 -208 -110t-228 -26t-218 92t-82 244q0 56 42 116t72 88t106 88q144 112 144 152q0 60 -60 156q-48 60 -48 108q0 64 112 108q48 20 60 32v32q-8 100 32 144q36 36 104 36
q108 0 168 -104q28 -48 60 -72t78 -40t78 -20h32q116 4 188 60q32 24 60 72q60 104 168 104q68 0 104 -36q36 -40 36 -144v-32q4 -12 56 -32q112 -44 112 -108q0 -44 -44 -108q-64 -88 -64 -156q0 -40 144 -152q72 -56 108 -86t74 -90t38 -116q0 -152 -82 -244t-218 -92z
M1348 1704q-28 0 -48 -20t-20 -48t20 -48t48 -20t48 20t20 48q0 68 -68 68zM612 1704q-68 0 -68 -68q0 -28 20 -48t48 -20t48 20t20 48t-20 48t-48 20zM980 1460q-148 0 -258 -70t-110 -166q0 -76 70 -138t174 -86q24 56 88 76q4 4 12 4h4h4h4q12 8 24 0h8h8q4 -4 8 -4
q64 -20 88 -76q104 24 174 86t70 138q0 96 -110 166t-258 70zM780 216q0 -36 24 -60t60 -24h232q36 0 60 24t24 60t-24 62t-60 26h-232q-36 0 -60 -26t-24 -62zM1172 416q0 36 -26 62t-62 26h-208q-36 0 -62 -26t-26 -62t26 -62t62 -26h208q36 0 62 26t26 62zM1128 616
q0 36 -26 62t-62 26h-120q-36 0 -62 -26t-26 -62t26 -62t62 -26h124q32 0 58 26t26 62z" />
</svg>
