<?xml version="1.0" standalone="no"?>
<!DOCTYPE svg PUBLIC "-//W3C//DTD SVG 1.1//EN" "http://www.w3.org/Graphics/SVG/1.1/DTD/svg11.dtd" >
<svg xmlns="http://www.w3.org/2000/svg" xmlns:xlink="http://www.w3.org/1999/xlink" version="1.1" viewBox="-11 0 1951 2048">
   <path fill="currentColor"
d="M14 692q-28 80 8 144q28 52 72 76q8 24 12 32q56 120 216 112l8 28q8 28 16 52t34 60t60 62t94 52t136 34q116 12 212 -36q0 120 64 156q112 68 116 272v180q0 20 20 28t36 -8l88 -92q20 -20 20 -44v-160q56 20 80 -24q4 0 12 4t12 4q136 28 246 -32t134 -172
q8 -36 0 -76q12 0 20 -4q76 -16 122 -84t46 -160q48 -88 24 -192q-12 -60 -44 -112q8 -132 -124 -196q0 -120 -100 -216q-68 -60 -148 -80q-52 -88 -148 -132q-128 -52 -228 0q-56 -52 -152 -64q-84 -12 -160 20q-88 -20 -176 -4q-116 16 -204 84q-124 0 -220 104
q-20 20 -36 52q-60 28 -104 76q-112 124 -64 256z" />
</svg>
