<?xml version="1.0" standalone="no"?>
<!DOCTYPE svg PUBLIC "-//W3C//DTD SVG 1.1//EN" "http://www.w3.org/Graphics/SVG/1.1/DTD/svg11.dtd" >
<svg xmlns="http://www.w3.org/2000/svg" xmlns:xlink="http://www.w3.org/1999/xlink" version="1.1" viewBox="-10 0 1974 2048">
   <path fill="currentColor"
d="M1583 1226l-696 472q-40 28 -96 28q-72 0 -116 -40l-664 -584q-16 20 -8 80q0 40 24 56l688 604q24 20 70 20t70 -20l700 -476q100 28 172 20q168 -16 208 -152q16 -48 16 -88q-84 76 -204 88q-68 8 -164 -8zM35 982l672 584q28 28 78 34t110 -38l664 -452q100 28 176 20
q168 -28 208 -152q44 -192 -104 -320q-76 -64 -188 -152t-324 -204t-340 -116q-204 0 -220 224l-728 408q-32 24 -32 104q8 40 28 60zM311 842l560 -316q32 -12 32 -52q0 -56 16 -86t30 -34t38 -4q124 0 342 138t374 274q76 72 60 112q-12 48 -96 60q-16 4 -34 2t-36 -6
t-30 -8t-20 -4l-12 -4q-4 -4 -20 -4q-24 0 -36 8l-616 420q-60 36 -104 -8l-456 -400q-20 -20 -20 -48q8 -28 28 -40z" />
</svg>
