<?xml version="1.0" standalone="no"?>
<!DOCTYPE svg PUBLIC "-//W3C//DTD SVG 1.1//EN" "http://www.w3.org/Graphics/SVG/1.1/DTD/svg11.dtd" >
<svg xmlns="http://www.w3.org/2000/svg" xmlns:xlink="http://www.w3.org/1999/xlink" version="1.1" viewBox="-11 0 2004 2048">
   <path fill="currentColor"
d="M1959 333q-128 -124 -344 -86t-392 218q-20 20 -44 52q-8 12 -36 46t-40 50q-48 64 -52 76q-24 24 -36 48q-8 -32 -24 -32q-8 0 -24 28q-4 -8 -44 -68q-36 -48 -40 -52q-16 -24 -64 -80q-8 -8 -12 -8q-60 -72 -80 -88q-176 -164 -378 -194t-326 90q-44 28 -4 340t124 396
q72 80 180 100q-176 68 -96 320q80 236 150 284t246 36q164 -12 280 -232q40 -88 56 -160q8 68 32 68t32 -72q16 80 56 164q116 220 280 232q176 12 246 -36t150 -284q80 -244 -96 -324q104 -12 180 -96q84 -84 124 -396t-4 -340z" />
</svg>
