<?xml version="1.0" standalone="no"?>
<!DOCTYPE svg PUBLIC "-//W3C//DTD SVG 1.1//EN" "http://www.w3.org/Graphics/SVG/1.1/DTD/svg11.dtd" >
<svg xmlns="http://www.w3.org/2000/svg" xmlns:xlink="http://www.w3.org/1999/xlink" version="1.1" viewBox="-10 0 1930 2048">
   <path fill="currentColor"
d="M1038 1184h-4q-8 12 -32 36zM1134 688q-92 -72 -166 -68t-118 44l-44 40q16 12 42 34t64 76t26 90q-20 0 -50 -24t-52 -50t-46 -54l-24 -28q-16 16 -252 288q-132 148 -244 320q64 32 84 128l-104 -100q-288 440 -244 620q112 16 336 -132l-128 -120q96 -12 144 104
q244 -168 528 -500q100 -120 116 -136l-8 12l-124 -120q92 -36 164 72q140 -160 182 -228t28 -126t-110 -142zM590 1156q12 0 32 2t64 40t60 110zM1202 576q64 -192 36 -368q-4 -36 -38 -48t-60 4t-22 52q28 164 -36 340q80 36 120 76q60 44 104 112q8 -4 24 -20
q60 -96 160 -182t178 -134t210 -120q56 -32 12 -80q-36 -40 -80 -16q-180 96 -292 176q104 -108 244 -216q28 -24 22 -58t-32 -46t-58 4q-308 240 -492 524z" />
</svg>
