<?xml version="1.0" standalone="no"?>
<!DOCTYPE svg PUBLIC "-//W3C//DTD SVG 1.1//EN" "http://www.w3.org/Graphics/SVG/1.1/DTD/svg11.dtd" >
<svg xmlns="http://www.w3.org/2000/svg" xmlns:xlink="http://www.w3.org/1999/xlink" version="1.1" viewBox="-10 0 1980 2048">
   <path fill="currentColor"
d="M980 664q136 0 136 -136t-136 -136t-136 136t136 136zM1180 720h-400q-28 0 -44 16q-20 20 -20 44v400h112v476h304v-476h112v-400q0 -24 -20 -44q-16 -16 -44 -16zM1672 328q-284 -284 -692 -284q-400 0 -692 284q-288 296 -288 696t288 692q292 288 692 288
q396 0 700 -292q280 -280 280 -688t-288 -696zM1552 1584q-244 240 -572 240q-320 0 -564 -236q-236 -236 -236 -564t236 -568q232 -232 564 -232q336 0 568 232q236 236 236 568q0 336 -232 560zM988 1032l-12 -16q-4 12 12 16zM988 1020l-16 8zM988 984q-8 56 -16 80
q8 -24 16 -80zM980 1016v16v-16z" />
</svg>
