<?xml version="1.0" standalone="no"?>
<!DOCTYPE svg PUBLIC "-//W3C//DTD SVG 1.1//EN" "http://www.w3.org/Graphics/SVG/1.1/DTD/svg11.dtd" >
<svg xmlns="http://www.w3.org/2000/svg" xmlns:xlink="http://www.w3.org/1999/xlink" version="1.1" viewBox="-10 0 1988 2048">
   <path fill="currentColor"
d="M1300 1200q-64 0 -100 -48q-32 -52 -32 -128q0 -176 132 -176q28 0 60 20q28 16 52 60l128 -68q-80 -144 -260 -144q-128 0 -204 84q-84 84 -84 224q0 144 80 224q84 84 216 84q80 0 148 -44t108 -112l-124 -64q-28 88 -120 88zM732 1200q-64 0 -100 -48
q-32 -52 -32 -128q0 -176 132 -176q24 0 56 20q32 16 52 60l132 -68q-80 -144 -260 -144q-124 0 -208 84q-80 88 -80 224q0 148 80 224q80 84 212 84q84 0 152 -44t108 -112l-120 -64q-36 88 -124 88zM1896 644q-76 -188 -212 -316q-288 -288 -700 -288q-408 0 -692 284
q-144 144 -216 324q-76 176 -76 376q0 196 72 376q80 180 216 316q144 144 320 220q180 72 376 72q200 0 376 -76q184 -72 328 -216t208 -312q72 -180 72 -380t-72 -380zM1560 1588q-120 116 -268 180q-148 60 -308 60t-304 -60q-140 -60 -264 -176q-116 -116 -176 -264
q-64 -140 -64 -304t64 -308q60 -140 176 -264q236 -236 568 -236q336 0 572 240q120 120 176 260q60 144 60 308q0 344 -232 564z" />
</svg>
