<?xml version="1.0" standalone="no"?>
<!DOCTYPE svg PUBLIC "-//W3C//DTD SVG 1.1//EN" "http://www.w3.org/Graphics/SVG/1.1/DTD/svg11.dtd" >
<svg xmlns="http://www.w3.org/2000/svg" xmlns:xlink="http://www.w3.org/1999/xlink" version="1.1" viewBox="-10 0 1964 2048">
   <path fill="currentColor"
d="M1660 332q-280 -280 -688 -280t-688 280q-284 296 -284 692q0 392 284 684q292 288 688 288t696 -288q276 -276 276 -684q0 -412 -284 -692zM1540 1580q-236 236 -568 236q-328 0 -560 -232q-236 -236 -236 -560q0 -152 44 -264l496 224l152 68l116 52l92 40q28 24 28 60
q0 52 -36 72q-36 24 -84 24q-128 0 -220 -88l-132 136q136 116 296 116v148h112v-148q104 -12 176 -68q76 -64 92 -148l364 160q-44 84 -132 172zM1248 1012l-156 -72l-88 -36l-124 -56q-8 -16 -8 -24q0 -40 36 -60q32 -16 80 -16q88 0 168 56l128 -132q-112 -80 -244 -88
v-152h-112v152q-92 8 -160 52t-92 120l-372 -168q60 -80 108 -128q228 -236 560 -236q336 0 564 236q232 228 232 564q0 104 -24 208z" />
</svg>
