<?xml version="1.0" standalone="no"?>
<!DOCTYPE svg PUBLIC "-//W3C//DTD SVG 1.1//EN" "http://www.w3.org/Graphics/SVG/1.1/DTD/svg11.dtd" >
<svg xmlns="http://www.w3.org/2000/svg" xmlns:xlink="http://www.w3.org/1999/xlink" version="1.1" viewBox="-10 0 1972 2048">
   <path fill="currentColor"
d="M1668 332q-280 -284 -692 -284q-408 0 -688 284q-288 288 -288 692q0 400 288 688t688 288t700 -288q276 -276 276 -688t-284 -692zM1548 1584q-244 240 -572 240q-324 0 -564 -240q-236 -232 -236 -560q0 -144 40 -260l260 116h-16v116h88v48v28h-88v116h104
q24 124 92 212q144 188 400 188q144 0 256 -64l-40 -180q-88 40 -188 40q-132 0 -212 -80q-32 -36 -52 -116h356l504 224q-44 84 -132 172zM908 1072h4h-4zM1216 996h16v-116h-280l-112 -52q32 -52 36 -56q76 -88 200 -88q96 0 184 40l44 -188q-120 -48 -244 -48
q-232 0 -380 168q-12 16 -56 76l-320 -140q48 -72 112 -136q228 -232 560 -232q336 0 568 232t232 568q0 112 -24 208z" />
</svg>
