<?xml version="1.0" standalone="no"?>
<!DOCTYPE svg PUBLIC "-//W3C//DTD SVG 1.1//EN" "http://www.w3.org/Graphics/SVG/1.1/DTD/svg11.dtd" >
<svg xmlns="http://www.w3.org/2000/svg" xmlns:xlink="http://www.w3.org/1999/xlink" version="1.1" viewBox="-10 0 1972 2048">
   <path fill="currentColor"
d="M1668 332q-292 -284 -692 -284q-404 0 -688 284q-288 292 -288 692t288 688q292 288 688 288q404 0 696 -292q280 -280 280 -684q0 -408 -284 -692zM1544 1584q-244 236 -568 236q-328 0 -564 -236t-236 -560t240 -564q228 -236 560 -236q336 0 564 236q236 228 236 564
q0 340 -232 560zM972 512q-172 0 -284 96q-120 104 -144 280h-76l192 192l192 -192h-72q24 -172 220 -172q112 0 164 80q60 76 60 236q0 148 -64 236q-60 88 -164 88q-204 0 -216 -176h-244q24 184 144 280q116 100 284 100q224 0 368 -148q140 -152 140 -372
q0 -240 -136 -380q-136 -148 -364 -148z" />
</svg>
