<?xml version="1.0" standalone="no"?>
<!DOCTYPE svg PUBLIC "-//W3C//DTD SVG 1.1//EN" "http://www.w3.org/Graphics/SVG/1.1/DTD/svg11.dtd" >
<svg xmlns="http://www.w3.org/2000/svg" xmlns:xlink="http://www.w3.org/1999/xlink" version="1.1" viewBox="-10 0 1980 2048">
   <path fill="currentColor"
d="M1672 332q-280 -288 -692 -288q-404 0 -692 288q-288 292 -288 692t288 692q292 288 692 288q396 0 700 -292q280 -280 280 -688t-288 -692zM1552 1584q-244 240 -572 240q-320 0 -564 -236q-236 -236 -236 -564t236 -568q232 -232 564 -232q336 0 568 236
q232 228 232 564t-228 560zM1380 744h-212v-212q0 -16 -16 -40q-24 -16 -40 -16h-536q-28 8 -36 20q-12 12 -12 36v720q0 24 12 36q16 16 40 16h212v216q0 20 16 36t40 16h532q24 0 40 -16t16 -36v-720q0 -16 -16 -40q-16 -16 -40 -16zM840 744q-24 8 -32 20q-16 12 -16 36
v400h-160v-616h428v160h-220zM1328 1464h-428v-612h428v612z" />
</svg>
