<?xml version="1.0" standalone="no"?>
<!DOCTYPE svg PUBLIC "-//W3C//DTD SVG 1.1//EN" "http://www.w3.org/Graphics/SVG/1.1/DTD/svg11.dtd" >
<svg xmlns="http://www.w3.org/2000/svg" xmlns:xlink="http://www.w3.org/1999/xlink" version="1.1" viewBox="-10 0 1988 2048">
   <path fill="currentColor"
d="M984 456q-220 0 -314 166t-94 402t94 402t314 166t314 -166t94 -402t-94 -402t-314 -166zM808 1024q0 -352 176 -352q24 0 36 4q44 36 12 88l-216 396q-8 -96 -8 -136zM984 1376q-24 0 -36 -4h-8q-4 -4 -8 -4q-68 -28 -28 -96l240 -416q16 80 16 168q0 352 -176 352z
M1896 644q-72 -176 -212 -316q-288 -288 -704 -288q-404 0 -688 288q-144 136 -216 324q-76 168 -76 372t76 372q72 180 212 320q144 144 320 216q176 76 372 76q188 0 380 -76q188 -80 328 -216q136 -136 208 -312q72 -180 72 -380t-72 -380zM1292 1764q-144 64 -308 64
q-160 0 -304 -60q-156 -72 -260 -176q-124 -124 -180 -264q-64 -152 -64 -304t64 -304q60 -148 180 -268q228 -236 564 -236t572 240q120 120 176 260q60 144 60 308q0 332 -232 564q-124 120 -268 176z" />
</svg>
