<?xml version="1.0" standalone="no"?>
<!DOCTYPE svg PUBLIC "-//W3C//DTD SVG 1.1//EN" "http://www.w3.org/Graphics/SVG/1.1/DTD/svg11.dtd" >
<svg xmlns="http://www.w3.org/2000/svg" xmlns:xlink="http://www.w3.org/1999/xlink" version="1.1" viewBox="-10 0 1628 2048">
   <path fill="currentColor"
d="M1536 36h-1464q-28 0 -50 22t-22 50v1832q0 28 22 50t50 22h1464q28 0 50 -22t22 -50v-1832q0 -28 -22 -50t-50 -22zM1468 1868h-1324v-1688h1324v1688zM1296 556h-488q-28 0 -50 20t-22 48q0 32 22 52t50 20h488q28 0 50 -20t22 -52q0 -28 -22 -48t-50 -20zM1296 992
h-488q-28 0 -50 20t-22 52t22 52t50 20h488q28 0 50 -20t22 -52t-22 -52t-50 -20zM264 572q-52 44 -8 100l104 124q20 24 56 24h4q36 0 56 -32l188 -304q36 -68 -24 -100q-56 -36 -100 24l-136 220l-40 -48q-44 -56 -100 -8zM436 956q-44 0 -76 32t-32 76t32 76t76 32
t76 -32t32 -76t-32 -76t-76 -32zM1296 1424h-488q-28 0 -50 20t-22 52t22 52t50 20h488q28 0 50 -20t22 -52t-22 -52t-50 -20zM436 1388q-44 0 -76 32t-32 76t32 76t76 32t76 -32t32 -76t-32 -76t-76 -32z" />
</svg>
