<?xml version="1.0" standalone="no"?>
<!DOCTYPE svg PUBLIC "-//W3C//DTD SVG 1.1//EN" "http://www.w3.org/Graphics/SVG/1.1/DTD/svg11.dtd" >
<svg xmlns="http://www.w3.org/2000/svg" xmlns:xlink="http://www.w3.org/1999/xlink" version="1.1" viewBox="-10 0 1748 2048">
   <path fill="currentColor"
d="M1448 1149q-48 -16 -76 -16q-68 0 -120 36q-32 24 -36 28q-8 -16 -8 -32q-8 -24 -16 -88q0 -8 -2 -24t-6 -28q-8 -72 -8 -112q-8 -128 4 -228q4 -84 24 -184q52 -248 164 -380q32 -32 16 -56q-4 -8 -12 -16q-24 -12 -48 0t-72 44q-348 220 -568 600q-132 244 -184 496
q-8 -4 -24 -20q-96 -56 -196 -20q-124 48 -202 162t-78 250q0 184 128 314t316 130q260 0 384 -224q0 -4 -2 -10t-6 -10q-40 -92 -40 -200q0 -92 28 -164q4 -12 20 -56q-16 -32 -36 -52q-68 -88 -176 -80q-24 0 -32 4q28 -116 40 -156q4 -12 10 -28t6 -24q16 -44 16 -52
q8 -16 24 -54t20 -50q48 -104 112 -196q44 -76 108 -152t136 -148q56 -56 136 -116q-100 268 -104 544q-8 196 28 368q4 4 6 16t2 16t2 14t2 14h-16h-12q-104 0 -164 80q-48 60 -72 132q-24 68 -24 140q0 80 24 144q44 132 160 216t260 84q188 0 316 -130t128 -314
q0 -136 -78 -250t-202 -162z" />
</svg>
