<?xml version="1.0" standalone="no"?>
<!DOCTYPE svg PUBLIC "-//W3C//DTD SVG 1.1//EN" "http://www.w3.org/Graphics/SVG/1.1/DTD/svg11.dtd" >
<svg xmlns="http://www.w3.org/2000/svg" xmlns:xlink="http://www.w3.org/1999/xlink" version="1.1" viewBox="-11 0 750 2048">
   <path fill="currentColor"
d="M680 1916v-20q52 -104 48 -180q0 -32 -20 -88t-40 -96l-16 -40q4 -4 8 -6t12 -14t8 -20q-12 -36 -40 -36q-24 -36 -84 -208t-64 -240h68q4 0 12 -4t14 -16t6 -28t-10 -28t-18 -18t-12 -6h-44l4 -136q32 0 32 -36q0 -40 -32 -40q44 -40 60 -110t-4 -114q-16 -28 -168 -268
q32 -12 32 -60q0 -60 -64 -60q-56 0 -56 60q0 48 32 60q-8 8 -38 52t-38 60l60 128q8 20 -8 20l-24 -20l-44 -100q-64 96 -80 128q-20 44 -2 114t62 110q-36 0 -36 40q0 28 32 36l4 136h-32q-4 0 -12 4t-20 16t-12 28t8 28t16 18t12 6h52q0 60 4 90t-20 92t-36 90t-42 86
t-38 78q-8 4 -16 12q-32 0 -36 36q-4 16 6 28t18 12q0 8 -4 12q-76 156 -80 204q-4 100 48 192v12h-4q-16 20 -20 36l-8 56h692q0 -36 -4 -52t-24 -36z" />
</svg>
