<?xml version="1.0" standalone="no"?>
<!DOCTYPE svg PUBLIC "-//W3C//DTD SVG 1.1//EN" "http://www.w3.org/Graphics/SVG/1.1/DTD/svg11.dtd" >
<svg xmlns="http://www.w3.org/2000/svg" xmlns:xlink="http://www.w3.org/1999/xlink" version="1.1" viewBox="-10 0 1964 2048">
   <path fill="currentColor"
d="M972 416q312 -256 556 -188q-236 -172 -532 -176h-48q-296 4 -532 176q244 -68 556 188zM752 588q-204 -216 -404 -292h-8q-4 -4 -8 -4q-8 8 -24 22t-24 22v4q-76 76 -140 172q-136 216 -144 488v48q4 316 200 564q8 -124 32 -216q100 -396 520 -808zM1800 512
q-64 -96 -140 -172l-4 -4q-4 -8 -12 -14t-18 -16l-14 -14q-4 0 -8 4h-8q-200 72 -404 292v4q412 396 524 808q28 112 32 208q188 -236 196 -560v-48q-8 -272 -144 -488zM1680 1632q-4 -8 -10 -24t-6 -20v-8q-160 -380 -576 -712q-20 -20 -64 -52t-52 -40q-8 8 -52 40t-64 52
q-444 356 -592 760q-8 16 -8 24q0 4 -8 20l36 36q276 284 664 288h48q392 -4 660 -288q12 -8 40 -36q-8 -16 -8 -20t-2 -10t-6 -10z" />
</svg>
