<?xml version="1.0" standalone="no"?>
<!DOCTYPE svg PUBLIC "-//W3C//DTD SVG 1.1//EN" "http://www.w3.org/Graphics/SVG/1.1/DTD/svg11.dtd" >
<svg xmlns="http://www.w3.org/2000/svg" xmlns:xlink="http://www.w3.org/1999/xlink" version="1.1" viewBox="-10 0 1644 2048">
   <path fill="currentColor"
d="M596 2012q40 12 118 -10t98 -22q28 0 102 20t102 12q256 -76 432 -384t176 -540q0 -364 -312 -496q-104 -44 -176 -46t-154 26t-118 32q0 -40 -4 -60q120 -92 304 -140q104 -28 186 -114t110 -158l32 -76q-288 -64 -468 44q-120 72 -180 292q-20 -120 -52 -216
q-4 -28 -12 -48q-20 -44 -54 -52t-62 10t-28 42q0 28 36 64q40 116 56 224q0 4 2 16t2 16v4l4 8v4v4q4 8 4 28t4 32q0 52 4 76q-40 -8 -102 -26t-102 -28t-102 -6t-130 32q-152 60 -232 212t-80 300q0 212 178 520t418 404z" />
</svg>
