<?xml version="1.0" standalone="no"?>
<!DOCTYPE svg PUBLIC "-//W3C//DTD SVG 1.1//EN" "http://www.w3.org/Graphics/SVG/1.1/DTD/svg11.dtd" >
<svg xmlns="http://www.w3.org/2000/svg" xmlns:xlink="http://www.w3.org/1999/xlink" version="1.1" viewBox="-10 0 1972 2048">
   <path fill="currentColor"
d="M0 1544q0 52 52 52h1848q52 0 52 -52v-124h-1952v124zM1900 452h-1848q-52 0 -52 52v760h1952v-760q0 -52 -52 -52zM980 1196q-140 0 -240 -98t-100 -238t100 -240t240 -100t240 100t100 240t-100 238t-240 98zM740 692q-20 0 -20 20v76q0 20 20 20h20q4 0 4 4v252
q0 20 20 20h384q20 0 20 -20v-252l4 -4h20q20 0 20 -20v-76q0 -20 -20 -20h-472zM1112 908q-28 28 -104 -24q-16 8 -24 8h-16q-8 0 -24 -8q-76 52 -104 24q-8 -4 -6 -28t2 -28q0 -8 -2 -22t-2 -18q0 -80 116 -12q4 -4 20 -4h16q16 0 20 4q116 -68 116 12q0 4 -2 18t-2 22
q0 4 2 28t-6 28z" />
</svg>
