<?xml version="1.0" standalone="no"?>
<!DOCTYPE svg PUBLIC "-//W3C//DTD SVG 1.1//EN" "http://www.w3.org/Graphics/SVG/1.1/DTD/svg11.dtd" >
<svg xmlns="http://www.w3.org/2000/svg" xmlns:xlink="http://www.w3.org/1999/xlink" version="1.1" viewBox="-10 0 1717 2048">
   <path fill="currentColor"
d="M1684 1928q-160 -188 -500 -272q-28 -8 -64 -12l-8 -4h-8l-12 -4q-4 0 -50 -6t-66 -6q-40 -4 -128 -4q-192 0 -376 44q4 -84 18 -166t34 -152t46 -136t54 -118t56 -100t52 -82t44 -58t32 -36l8 -16q60 44 96 124q36 96 -4 192q-4 12 4 20t20 4q44 -20 68 -52
q88 -104 40 -216q-24 -68 -92 -108q68 16 148 76q144 116 152 288q0 16 14 20t22 -8q56 -72 68 -160q28 -200 -120 -316q-32 -28 -96 -52h8q184 24 276 156q8 12 26 8t18 -20q8 -76 -20 -144q-84 -204 -284 -224q-72 0 -132 16q8 -64 -12 -132q-60 -188 -280 -224
q-84 -12 -148 12q-16 8 -16 22t16 22q152 64 212 236q0 4 2 4t2 4q-40 -60 -76 -84q-148 -116 -332 -44q-88 32 -144 108q-8 8 0 20t20 8q168 -32 316 84q76 60 112 128q-56 -64 -128 -68q-124 -20 -204 88q-24 40 -32 76q-4 12 8 20t20 0q80 -60 188 -44q92 12 148 68l-4 4
q-272 224 -492 744q-84 196 -148 424q-32 32 -44 48q-20 20 -6 48t42 28h1600q32 0 44 -28t-8 -48z" />
</svg>
