<?xml version="1.0" standalone="no"?>
<!DOCTYPE svg PUBLIC "-//W3C//DTD SVG 1.1//EN" "http://www.w3.org/Graphics/SVG/1.1/DTD/svg11.dtd" >
<svg xmlns="http://www.w3.org/2000/svg" xmlns:xlink="http://www.w3.org/1999/xlink" version="1.1" viewBox="-10 0 1292 2048">
   <path fill="currentColor"
d="M636 40q-264 0 -450 186t-186 450q0 232 148 406t372 218v604q0 44 30 74t70 30t72 -32t32 -72v-600q288 -36 444 -284q104 -164 104 -344q0 -264 -186 -450t-450 -186zM636 1196q-208 0 -368 -152q-52 -52 -92 -124q-52 -144 -20 -302t148 -274q136 -136 324 -136
q192 0 320 136q112 104 112 264q0 156 -112 268q-92 92 -222 92t-222 -92q-76 -76 -76 -188t76 -188q68 -68 160 -68t156 68q48 48 0 96q-48 44 -92 0q-28 -28 -66 -28t-66 28q-36 40 -36 94t36 90q56 52 130 52t126 -52q72 -68 72 -172q0 -100 -72 -172q-92 -92 -224 -92
q-136 0 -228 92q-124 124 -124 296t124 296q144 144 348 156q-56 12 -112 12z" />
</svg>
