<?xml version="1.0" standalone="no"?>
<!DOCTYPE svg PUBLIC "-//W3C//DTD SVG 1.1//EN" "http://www.w3.org/Graphics/SVG/1.1/DTD/svg11.dtd" >
<svg xmlns="http://www.w3.org/2000/svg" xmlns:xlink="http://www.w3.org/1999/xlink" version="1.1" viewBox="-10 0 1972 2048">
   <path fill="currentColor"
d="M1948 488q0 -76 -48 -148q-88 -124 -240 -116q-128 8 -432 112l-76 24q-56 20 -200 28q-204 8 -388 60q-396 116 -520 376q-36 84 -44 200v212q0 124 52 232q64 152 240 254t368 102q272 0 484 -204q104 -108 208 -276q64 -112 124 -188q60 -72 196 -132
q212 -96 264 -244q16 -36 16 -84v-204zM1840 532q-28 72 -74 108t-138 76q-168 80 -232 160q-72 92 -136 208q-76 132 -192 248q-176 176 -408 176q-172 0 -316 -90t-196 -206q-80 -188 -8 -344q108 -220 452 -316q160 -48 368 -56q148 -8 224 -36l76 -24q300 -100 404 -108
h12q84 0 140 76q44 64 24 128zM1676 436q-108 4 -380 100l-76 24q-92 32 -256 40q-200 8 -344 52q-304 88 -384 260q-52 120 8 260q40 88 160 160t256 72q192 0 336 -148q92 -92 172 -224q56 -112 148 -224q80 -92 268 -188q80 -36 110 -58t46 -66q0 -20 -12 -32
q-20 -28 -52 -28zM652 1168q-100 0 -174 -52t-74 -124t74 -124t174 -52t174 52t74 124t-74 124t-174 52z" />
</svg>
