<?xml version="1.0" standalone="no"?>
<!DOCTYPE svg PUBLIC "-//W3C//DTD SVG 1.1//EN" "http://www.w3.org/Graphics/SVG/1.1/DTD/svg11.dtd" >
<svg xmlns="http://www.w3.org/2000/svg" xmlns:xlink="http://www.w3.org/1999/xlink" version="1.1" viewBox="-10 0 1540 2048">
   <path fill="currentColor"
d="M836 78q-36 24 -96 132q-24 52 -36 108q-60 -152 -152 -200q-136 -84 -388 -52q-24 4 -36 24t0 44q100 228 292 276q160 44 252 108v36q-220 -68 -392 12q-160 80 -220 200t-60 308q0 508 644 800q32 16 40 80q8 60 52 20q56 -60 128 -96q656 -300 656 -804
q0 -372 -260 -508q-168 -88 -416 -8q0 -168 72 -296q72 -112 32 -164q-16 -24 -52 -30t-60 10z" />
</svg>
