<?xml version="1.0" standalone="no"?>
<!DOCTYPE svg PUBLIC "-//W3C//DTD SVG 1.1//EN" "http://www.w3.org/Graphics/SVG/1.1/DTD/svg11.dtd" >
<svg xmlns="http://www.w3.org/2000/svg" xmlns:xlink="http://www.w3.org/1999/xlink" version="1.1" viewBox="-11 0 1184 2048">
   <path fill="currentColor"
d="M977 1092q-68 -92 -136 -388q-36 -172 -64 -208q-56 -56 -128 -60q8 -60 32 -120q20 -44 50 -80t46 -50t20 -14q56 -40 20 -96q-40 -56 -96 -20l-4 8q-8 4 -18 12t-22 20l-28 28q-16 16 -30 36t-32 44t-30 52v4l-16 -12q-48 -168 -212 -200q-48 -12 -84 -12
q-116 0 -196 80q-24 32 -12 60q4 20 20 58t64 90t112 68q20 4 64 4q92 0 172 -32l44 36q0 4 -2 16t-2 20q-80 8 -120 60q-32 36 -68 208q-68 296 -136 388q-112 156 -152 260t-32 232q12 172 128 300t316 128h16q84 0 116 -8h8q32 8 116 8h16q204 0 320 -126t124 -302
q8 -128 -32 -232t-152 -260z" />
</svg>
