<?xml version="1.0" standalone="no"?>
<!DOCTYPE svg PUBLIC "-//W3C//DTD SVG 1.1//EN" "http://www.w3.org/Graphics/SVG/1.1/DTD/svg11.dtd" >
<svg xmlns="http://www.w3.org/2000/svg" xmlns:xlink="http://www.w3.org/1999/xlink" version="1.1" viewBox="-10 0 2211 2048">
   <path fill="currentColor"
d="M0 1509q0 27 20 45q19 19 46 19h439q29 0 51 21t22 51t-22 52t-51 22t-51 -22q-20 -19 -46 -19t-44.5 18t-18.5 44.5t19 44.5q59 60 141 60q83 0 141 -58.5t58 -141t-58 -141.5t-141 -59h-439q-27 0 -46.5 19.5t-19.5 44.5zM0 1285q0 24 20 42q19 19 46 19h820
q82 0 140.5 -58.5t58.5 -141t-58 -140t-141 -57.5q-85 0 -141 57q-18 18 -18 45.5t17.5 44.5t44.5 17t46 -18q21 -21 50.5 -21t51 21t21.5 51.5t-21.5 52t-50.5 21.5h-820q-27 0 -46.5 19.5t-19.5 45.5zM198 1109q0 9 13 9h107q8 0 15 -11q25 -61 78 -100.5t119 -44.5l40 -5
q14 0 14 -13l5 -39q11 -121 101.5 -202t213.5 -81t214 81t103 202l5 44q0 13 13 13h122q101 0 172 70.5t71 170.5t-71 171t-172 71h-515q-14 0 -14 13v103q0 12 14 12h515q101 0 186 -49.5t134.5 -135t49.5 -185.5q0 -83 -32 -152q85 -111 85 -247q0 -105 -53 -195.5
t-143.5 -143.5t-195.5 -53q-173 0 -288 130q-90 -46 -200 -46q-158 0 -279 98t-154 250q-95 22 -168.5 91.5t-102.5 164.5v2q-2 4 -2 7zM809 285q0 26 21 45l45 48q18 18 46 18t45.5 -17t17.5 -45q0 -27 -16 -45l-49 -48q-18 -20 -44.5 -20t-46 19t-19.5 45zM1207 614
q81 -76 185 -76q109 0 187.5 78.5t78.5 187.5q0 73 -38 137q-107 -108 -259 -108h-25q-26 -121 -129 -219zM1328 222q0 26 19 44t45.5 18t45.5 -18t19 -44v-152q0 -27 -19 -46t-45.5 -19t-45.5 19t-19 46v152zM1743 392q0 27 17 45q19 19 45.5 19t42.5 -19l110 -107
q19 -19 19 -46q0 -26 -19 -45t-46 -19t-45 18l-107 110q-17 18 -17 44zM1801 1276q0 26 19 45l47 48q23 19 46 19q22 0 45 -19q19 -19 19 -45q0 -24 -19 -45l-48 -48q-18 -19 -43 -19q-28 0 -47 19t-19 45zM1913 804q0 27 19 44q17 20 43 20h151q27 0 46 -19t19 -45
t-19.5 -45.5t-45.5 -19.5h-151q-26 0 -44 19t-18 46z" />
</svg>
