<?xml version="1.0" standalone="no"?>
<!DOCTYPE svg PUBLIC "-//W3C//DTD SVG 1.1//EN" "http://www.w3.org/Graphics/SVG/1.1/DTD/svg11.dtd" >
<svg xmlns="http://www.w3.org/2000/svg" xmlns:xlink="http://www.w3.org/1999/xlink" version="1.1" viewBox="-10 0 2196 2048">
   <path fill="currentColor"
d="M0 1507q0 27 18 45q49 20 66 20h589q26 0 44.5 -19t18.5 -46q0 -26 -18.5 -43.5t-44.5 -17.5h-589q-29 0 -56.5 17.5t-27.5 43.5zM104 1282.5q0 26.5 19 44.5q17 19 44 19h703q26 0 45 -18.5t19 -45t-19 -45.5t-45 -19h-703q-26 0 -44.5 19t-18.5 45.5zM183 1105
q0 10 12 10h104q13 0 16 -10q29 -59 81.5 -98t118.5 -47h41q12 0 12 -14l5 -42q8 -80 52 -145.5t114.5 -102.5t151.5 -37q121 0 212.5 82t103.5 203l6 42q0 14 13 14h120q99 0 171.5 71.5t72.5 169.5q0 101 -72 173t-172 72h-515q-13 0 -13 14v99q0 13 13 13h515
q101 0 186.5 -49.5t135 -135t49.5 -186.5q0 -81 -32 -150q87 -108 87 -245q0 -105 -53 -195.5t-143.5 -143.5t-196.5 -53q-82 0 -156.5 33.5t-130.5 93.5q-92 -48 -201 -48q-159 0 -281.5 98t-156.5 251q-95 24 -167.5 93.5t-101.5 164.5q-1 2 -1 5zM236 1745q0 26 20 44
q17 19 43 19h704q26 0 44.5 -18.5t18.5 -44.5q0 -28 -18 -46.5t-45 -18.5h-704q-26 0 -44.5 18.5t-18.5 46.5zM795 287q0 28 18 45l48 49q18 18 45 18q29 0 46.5 -18t17.5 -46q0 -26 -18 -44l-48 -48q-19 -19 -43 -19q-28 0 -47 18.5t-19 44.5zM1196 614q74 -71 183 -71
t186 77t77 186q0 75 -35 135q-106 -106 -261 -106h-22q-33 -129 -128 -221zM1316 224q0 26 18.5 43.5t44.5 17.5q28 0 45 -17t17 -44v-153q0 -27 -17.5 -45.5t-44.5 -18.5q-26 0 -44.5 18.5t-18.5 45.5v153zM1729 395q0 27 18 45q14 18 45 18q30 0 44 -18l110 -108
q18 -17 18 -47q0 -26 -18.5 -44.5t-45 -18.5t-45.5 18l-108 111q-18 18 -18 44zM1788 1281q0 27 18 45l49 47q27 20 45 20t46 -20q18 -18 18 -45q0 -26 -18 -46l-48 -45q-21 -20 -48 -20t-44.5 18.5t-17.5 45.5zM1896 809q0 27 20 45q21 19 45 19h152q25 0 44 -19t19 -45
q0 -25 -18.5 -42.5t-44.5 -17.5h-152q-27 0 -46 17.5t-19 42.5z" />
</svg>
