<?xml version="1.0" standalone="no"?>
<!DOCTYPE svg PUBLIC "-//W3C//DTD SVG 1.1//EN" "http://www.w3.org/Graphics/SVG/1.1/DTD/svg11.dtd" >
<svg xmlns="http://www.w3.org/2000/svg" xmlns:xlink="http://www.w3.org/1999/xlink" version="1.1" viewBox="-10 0 2029 2048">
   <path fill="currentColor"
d="M0 1203q0 100 49.5 185.5t134 135t185.5 49.5h809q100 0 185.5 -49.5t135 -135t49.5 -185.5q0 -75 -31 -150q85 -104 85 -247q0 -80 -30.5 -152.5t-83 -125t-125 -83.5t-152.5 -31q-166 0 -290 131q-87 -49 -202 -49q-158 0 -279 97.5t-156 250.5q-125 29 -204.5 129
t-79.5 230zM128 1203q0 -94 62.5 -162t157.5 -79l37 -3q14 0 14 -13l5 -41q15 -121 104.5 -202.5t210.5 -81.5q123 0 214.5 82t102.5 202l6 44q3 13 15 13h121q99 0 170.5 71t71.5 170q0 101 -71.5 173t-170.5 72h-809q-99 0 -170 -72.5t-71 -172.5zM628 285q0 28 19 47
l49 48q28 21 47 19q24 0 42 -19.5t18 -46.5t-20 -44l-44 -49q-20 -18 -45 -18q-28 0 -47 18.5t-19 44.5zM1028 616q78 -75 183 -75q110 0 187.5 77t77.5 188q0 70 -38 137q-108 -107 -260 -107h-24q-28 -122 -126 -220zM1149 222q0 28 17.5 45.5t44.5 17.5q28 0 45.5 -17.5
t17.5 -45.5v-153q0 -27 -17.5 -44.5t-45.5 -17.5q-27 0 -44.5 17.5t-17.5 44.5v153zM1562 393q0 29 17 47q23 18 46 18q20 0 44 -18l107 -108q18 -20 18 -47t-18 -45t-44 -18q-27 0 -43 18l-110 107q-17 20 -17 46zM1621 1277.5q0 26.5 19 46.5l49 47q16 19 43 19t44.5 -19
t17.5 -47q0 -25 -18 -43l-48 -48q-18 -19 -43 -19q-27 0 -45.5 18.5t-18.5 45zM1731 806q0 26 19 43q18 19 46 19h153q25 0 42.5 -17.5t17.5 -44.5t-17.5 -45.5t-42.5 -18.5h-153q-27 0 -46 19t-19 45z" />
</svg>
