<?xml version="1.0" standalone="no"?>
<!DOCTYPE svg PUBLIC "-//W3C//DTD SVG 1.1//EN" "http://www.w3.org/Graphics/SVG/1.1/DTD/svg11.dtd" >
<svg xmlns="http://www.w3.org/2000/svg" xmlns:xlink="http://www.w3.org/1999/xlink" version="1.1" viewBox="-10 0 2215 2048">
   <path fill="currentColor"
d="M0 1513q0 26 19 44t47 18h1398q27 0 46 -18t19 -44q0 -27 -19 -45.5t-46 -18.5h-1398q-28 0 -47 18.5t-19 45.5zM196 1279q0 26 19 43q19 21 45 21h1399q26 0 44 -18.5t18 -45.5q0 -26 -17.5 -44t-44.5 -18h-1399q-27 0 -45.5 18t-18.5 44zM205 1100q0 9 12 9h107
q8 0 16 -12q26 -58 79 -95t117 -42l41 -5q12 0 12 -14l5 -38q12 -121 103 -202t213 -81q121 0 212 80.5t103 200.5l6 43q0 13 14 13h121q72 0 131 38.5t88 101.5q8 12 15 12h107q15 0 10 -16l-14 -42q84 -105 84 -247q0 -79 -30.5 -151.5t-82.5 -125t-125 -83t-153 -30.5
q-173 0 -285 125q-95 -47 -201 -47q-157 0 -279 98.5t-157 251.5q-199 53 -267 251q-2 2 -2 7zM327 1743q0 26 20 45q17 19 44 19h1401q25 0 44 -19t19 -45t-18.5 -43t-44.5 -17h-1401q-27 0 -45.5 17t-18.5 43zM818 288q0 26 17 44l49 47q18 21 43 21t44.5 -19t19.5 -46
q0 -26 -19 -47l-48 -45q-18 -20 -45 -20t-44 18.5t-17 46.5zM1215 615q76 -76 181 -76q110 0 187.5 78t77.5 187q0 73 -36 134q-107 -106 -259 -106h-26q-31 -132 -125 -217zM1335 224q0 26 17.5 43.5t43.5 17.5q28 0 47 -17.5t19 -43.5v-153q0 -26 -19.5 -45t-46.5 -19
q-26 0 -43.5 18.5t-17.5 45.5v153zM1745 394q0 25 19 45q41 40 91 0l107 -107q18 -20 18 -48q0 -26 -18 -44t-44 -18q-27 0 -45 18l-109 110q-19 19 -19 44zM1806 1275.5q0 26.5 19 44.5l48 49q18 18 43 18q23 0 46 -18q18 -20 18 -48q0 -25 -18 -42l-49 -49
q-19 -18 -44 -18q-27 0 -45 18.5t-18 45zM1916 804q0 27 20 45q17 19 44 19h153q26 0 44 -18.5t18 -45.5t-18 -45t-44 -18h-153q-27 0 -45.5 18.5t-18.5 44.5z" />
</svg>
