<?xml version="1.0" standalone="no"?>
<!DOCTYPE svg PUBLIC "-//W3C//DTD SVG 1.1//EN" "http://www.w3.org/Graphics/SVG/1.1/DTD/svg11.dtd" >
<svg xmlns="http://www.w3.org/2000/svg" xmlns:xlink="http://www.w3.org/1999/xlink" version="1.1" viewBox="-10 0 2030 2048">
   <path fill="currentColor"
d="M0 1203q0 149 104 256t254 114q13 0 13 -12v-103q0 -13 -13 -13q-97 -8 -163.5 -77.5t-66.5 -164.5q0 -94 63 -164t157 -77l39 -6q14 0 14 -13l5 -38q12 -121 102.5 -202.5t213.5 -81.5q122 0 213 81.5t104 202.5l5 44q0 13 14 13h120q101 0 173 70.5t72 170.5
q0 95 -66.5 164.5t-163.5 77.5q-15 0 -15 13v103q0 12 15 12q149 -5 252 -113t103 -257q0 -76 -35 -155q89 -106 89 -245q0 -80 -31 -152.5t-83.5 -125t-125 -83t-151.5 -30.5q-173 0 -290 129q-96 -46 -199 -46q-159 0 -281 97.5t-157 251.5q-123 29 -203.5 129.5
t-80.5 229.5zM561 2045h22l397 -587q4 -5 2 -10t-10 -5h-163l171 -315q9 -16 -10 -16h-220q-9 0 -16 11l-162 427q-2 15 11 15h162zM626 283q0 28 19 46l49 48q47 36 90 0q18 -20 18 -47q0 -26 -18 -45l-48 -48q-21 -19 -46 -19q-26 0 -45 19t-19 46zM1026 613
q76 -76 185 -76t186 77.5t77 188.5q0 68 -38 135q-109 -105 -258 -105h-23q-30 -127 -129 -220zM1147 218q0 28 18 46.5t46 18.5q26 0 43.5 -18t17.5 -47v-153q0 -26 -17.5 -43.5t-44 -17.5t-45 17.5t-18.5 43.5v153zM1559 391q0 26 20.5 45t41.5 19q18 0 46 -19l108 -107
q19 -20 19 -47t-18.5 -45.5t-45.5 -18.5q-25 0 -44 19l-107 107q-20 22 -20 47zM1620 1275q0 26 18 45l48 49q19 19 44 19q27 0 45.5 -19t18.5 -47q0 -26 -19 -43l-46 -49q-22 -18 -47 -18q-26 0 -44 18.5t-18 44.5zM1729 803q0 25 19 43q19 19 45 19h153q26 0 45 -18
t19 -44t-19 -45t-45 -19h-153q-26 0 -45 19t-19 45z" />
</svg>
