<?xml version="1.0" standalone="no"?>
<!DOCTYPE svg PUBLIC "-//W3C//DTD SVG 1.1//EN" "http://www.w3.org/Graphics/SVG/1.1/DTD/svg11.dtd" >
<svg xmlns="http://www.w3.org/2000/svg" xmlns:xlink="http://www.w3.org/1999/xlink" version="1.1" viewBox="-10 0 2032 2048">
   <path fill="currentColor"
d="M0 1206q0 149 102.5 254.5t252.5 112.5q13 0 13 -12v-100q0 -13 -13 -13q-96 -5 -162 -75t-66 -167q0 -95 63 -164t157 -77l39 -6q12 0 12 -10l6 -41q14 -123 103 -203.5t211.5 -80.5t214 80.5t103.5 200.5l5 44q3 13 16 13h120q100 0 171.5 71.5t71.5 172.5
q0 97 -66 167t-162 75q-15 0 -15 13v100q0 12 15 12q149 -5 251.5 -111.5t102.5 -255.5q0 -76 -29 -150q87 -108 87 -250q0 -79 -31 -151.5t-83.5 -125t-125 -84t-152.5 -31.5q-172 0 -289 131q-100 -49 -204 -49q-158 0 -279 98t-156 252q-126 29 -205 129.5t-79 230.5z
M400 1732q0 18 12.5 37t35.5 26q26 8 48 -2.5t29 -42.5l11 -45q6 -25 -7 -47t-39 -30q-25 -8 -47.5 5.5t-29.5 39.5l-11 45q-2 6 -2 14zM458 1515q0 25 18 43q17 19 42 19q26 0 45 -18t19 -44t-19 -44t-45 -18t-43 17.5t-17 44.5zM503 1345q-1 17 10 33.5t36 24.5
q23 7 46.5 -5.5t30.5 -37.5l21 -68q8 -27 -5.5 -48.5t-40.5 -29.5q-24 -7 -47 5.5t-31 37.5l-18 68q-2 19 -2 20zM589 1965q0 19 12 37t37 25q9 2 18 2q48 0 59 -46l10 -44q7 -29 -6 -51.5t-39 -27.5q-24 -7 -47 6t-31 38l-10 44q-3 13 -3 17zM631 287.5q0 26.5 19 44.5
l49 48q15 18 40 19.5t46 -19.5q19 -18 19 -44q0 -27 -19 -45l-47 -48q-17 -18 -44 -20q-26 0 -44.5 19t-18.5 45.5zM648 1748q0 25 18.5 43t43.5 18q26 0 43.5 -17.5t17.5 -43.5t-17.5 -43.5t-44 -17.5t-44 17.5t-17.5 43.5zM694 1578q-1 17 10.5 35t33.5 23q26 7 48 -4.5
t31 -42.5l20 -67q7 -24 -6 -46.5t-39 -30.5q-25 -8 -48 6t-31 40l-17 67q-2 9 -2 20zM901 1739q0 18 11 35.5t35 24.5q3 0 10 1.5t11 1.5q45 0 56 -49l11 -45q8 -24 -5 -47t-39 -31q-28 -7 -50.5 6t-30.5 39l-7 45q0 1 -1 8t-1 11zM956 1518q0 26 19 43q16 18 43 18
t44.5 -17.5t17.5 -43.5q0 -27 -17.5 -44.5t-44.5 -17.5t-44.5 17.5t-17.5 44.5zM1002 1345q0 19 12 36t36 24q2 0 9 1.5t11 1.5q12 0 27 -7q23 -12 30 -39l19 -68q7 -25 -5.5 -47t-37.5 -30q-26 -7 -48 4.5t-30 37.5l-21 68q0 2 -1 8t-1 10zM1028 619q74 -74 184 -74
q111 0 188.5 76t77.5 185q0 74 -40 140q-110 -110 -261 -110h-23q-32 -122 -126 -217zM1151 225q0 26 17.5 43t43.5 17q27 0 46 -17t19 -43v-154q0 -26 -19 -45t-46 -19q-26 0 -43.5 18.5t-17.5 45.5v154zM1564 395q0 28 17 45q40 39 90 0l107 -108q19 -19 19 -47
q0 -26 -18.5 -44.5t-45.5 -18.5q-26 0 -45 18l-107 111q-17 16 -17 44zM1622 1280q0 26 20 44l46 47q22 19 45 19t45 -19q19 -17 19 -44q0 -25 -19 -46l-48 -46q-17 -18 -43 -18t-45 18q-20 19 -20 45zM1733 806q0 27 19 44q21 20 47 20h151q26 0 44 -18.5t18 -45.5
t-18 -45.5t-44 -18.5h-151q-27 0 -46.5 19t-19.5 45z" />
</svg>
