<?xml version="1.0" standalone="no"?>
<!DOCTYPE svg PUBLIC "-//W3C//DTD SVG 1.1//EN" "http://www.w3.org/Graphics/SVG/1.1/DTD/svg11.dtd" >
<svg xmlns="http://www.w3.org/2000/svg" xmlns:xlink="http://www.w3.org/1999/xlink" version="1.1" viewBox="-10 0 2042 2048">
   <path fill="currentColor"
d="M0 1203q0 126 75 225.5t193 132.5q10 1 18 -6l87 -105q-100 0 -171.5 -72.5t-71.5 -174.5q0 -93 63.5 -161.5t158.5 -79.5l36 -3q15 0 15 -14l5 -40q12 -121 103.5 -203t213.5 -82q123 0 215 82t104 203l5 44q5 13 16 13h123q98 0 169.5 71t71.5 170q0 95 -63 165.5
t-155 78.5q-54 6 -67 21l-164 211q-15 21 -11.5 47t22.5 42q17 19 45 15.5t44 -26.5l144 -184q92 -9 168 -61t120 -134t44 -175q0 -80 -31 -150q88 -107 88 -248q0 -80 -31.5 -152.5t-84.5 -125t-126 -84t-153 -31.5q-168 0 -290 130q-89 -49 -203 -49q-158 0 -280 98.5
t-155 251.5q-127 29 -208.5 130t-81.5 230zM291 1819q9 25 35 36q24 11 49.5 0.5t34.5 -34.5q10 -24 0 -47.5t-33 -34.5q-25 -11 -49.5 -1t-33.5 34q-10 29 -3 47zM427 1614v8q2 25 22 42q20 16 47 14t43 -21l163 -211q16 -21 14 -48t-22 -42q-20 -17 -47 -14t-45 23
l-161 210q-14 18 -14 39zM465 1977q0 7 4 23q10 24 35 34q12 5 26 5q11 0 24 -3q23 -9 32 -33q12 -25 2.5 -50t-33.5 -34q-25 -12 -50.5 -1.5t-33.5 34.5q-6 11 -6 25zM590 1800v8q2 25 24 43q17 19 45 15.5t45 -25.5l310 -391q15 -23 12.5 -48.5t-23.5 -43.5
q-20 -16 -46 -13t-42 24l-311 393q-14 16 -14 38zM633 284q0 27 21 44l45 49q18 18 41 20q23 3 46 -17t23 -48q0 -25 -19 -44l-48 -49q-17 -18 -43 -18q-28 0 -47 18t-19 45zM853 1886q0 13 5 23q10 24 34 34q12 6 26 6q7 0 22 -4q25 -10 35 -35q11 -24 1.5 -49t-33.5 -34
q-24 -11 -50 -1.5t-35 33.5q-5 13 -5 27zM1033 614q80 -72 185 -72q111 0 189.5 76.5t78.5 186.5q0 74 -38 138q-109 -108 -260 -108h-26q-30 -129 -129 -221zM1155 221q0 26 18.5 44t44.5 18q28 0 47 -18t19 -44v-155q0 -26 -19.5 -45t-46.5 -19q-25 0 -44 18.5t-19 45.5
v155zM1572 391.5q0 26.5 16 44.5q20 19 46.5 19.5t42.5 -19.5l111 -108q18 -18 18 -45t-19 -46.5t-45 -19.5q-25 0 -45 19l-109 110q-16 19 -16 45.5zM1630 1281q0 27 18 45l49 47q18 18 41 20h4q19 0 46 -20q18 -18 18 -44t-18 -47l-49 -46q-18 -19 -44 -19q-27 0 -46 18.5
t-19 45.5zM1742 805q0 26 18 44q18 21 45 21h153q26 0 45 -19.5t19 -45.5t-19 -44t-45 -18h-153q-27 0 -45 18t-18 44z" />
</svg>
