<?xml version="1.0" standalone="no"?>
<!DOCTYPE svg PUBLIC "-//W3C//DTD SVG 1.1//EN" "http://www.w3.org/Graphics/SVG/1.1/DTD/svg11.dtd" >
<svg xmlns="http://www.w3.org/2000/svg" xmlns:xlink="http://www.w3.org/1999/xlink" version="1.1" viewBox="-10 0 2036 2048">
   <path fill="currentColor"
d="M0 1202q0 149 104 256.5t255 114.5q12 0 12 -12v-101q0 -12 -12 -12q-96 -5 -163.5 -77t-67.5 -169q0 -93 63 -161.5t157 -79.5l39 -4q15 0 15 -12l5 -41q12 -121 102.5 -203t213.5 -82q122 0 214 82t104 203l6 43q0 14 12 14h122q99 0 171.5 71.5t72.5 169.5
q0 97 -67 169t-163 77q-14 0 -14 12v101q0 12 14 12q149 -5 253 -113t104 -258q0 -81 -32 -150q88 -109 88 -247q0 -107 -53 -197.5t-143.5 -143t-195.5 -52.5q-175 0 -290 130q-92 -49 -203 -49q-158 0 -281 98.5t-157 250.5q-124 30 -204.5 130.5t-80.5 229.5zM404 1714
q0 19 12 37t37 25q12 2 20 2q44 0 57 -47l119 -439q8 -27 -6 -50t-40 -28q-24 -8 -47 4.5t-31 38.5l-118 441q-3 14 -3 16zM598 1945q0 21 11.5 38.5t38.5 22.5q13 2 20 2q17 0 33 -13t21 -36l179 -667q7 -26 -5 -48.5t-38 -29.5q-26 -8 -48.5 4.5t-29.5 38.5l-180 667
q-2 19 -2 21zM630 283.5q0 26.5 19 45.5l48 49q22 17 46 17t43.5 -17.5t19.5 -44.5t-18 -48l-47 -48q-21 -19 -45 -19q-28 0 -47 19.5t-19 46zM909 1716q0 18 11.5 35.5t34.5 24.5q13 2 19 2q20 0 37 -10.5t22 -36.5l118 -439q7 -26 -5 -48.5t-38 -29.5q-26 -8 -48 4.5
t-29 38.5l-119 441q-3 16 -3 18zM1031 614q79 -75 185 -75q110 0 187 77.5t77 188.5q0 70 -39 138q-108 -109 -260 -109h-25q-31 -130 -125 -220zM1151 222q0 26 19 43.5t46 17.5q26 0 43.5 -17.5t17.5 -43.5v-154q0 -29 -17.5 -47t-43.5 -18q-28 0 -46.5 18.5t-18.5 46.5
v154zM1565 392q0 27 20 44q15 18 40.5 19.5t46.5 -19.5l108 -107q20 -19 20 -47q0 -27 -18.5 -45.5t-45.5 -18.5q-24 0 -44 19l-107 108q-20 19 -20 47zM1626 1277.5q0 26.5 18 46.5l48 47q20 16 45 16l1 1q26 0 44 -18t18 -46q0 -26 -20 -43l-46 -49q-20 -18 -46 -18
t-44 18.5t-18 45zM1734 804.5q0 26.5 20 44.5q19 19 46 19h152q27 0 45.5 -18.5t18.5 -44.5q0 -27 -18.5 -46.5t-45.5 -19.5h-152q-27 0 -46.5 19.5t-19.5 46z" />
</svg>
