<?xml version="1.0" standalone="no"?>
<!DOCTYPE svg PUBLIC "-//W3C//DTD SVG 1.1//EN" "http://www.w3.org/Graphics/SVG/1.1/DTD/svg11.dtd" >
<svg xmlns="http://www.w3.org/2000/svg" xmlns:xlink="http://www.w3.org/1999/xlink" version="1.1" viewBox="-10 0 2030 2048">
   <path fill="currentColor"
d="M0 1201q0 149 104 256t254 115q13 0 13 -13v-100q0 -13 -13 -13q-95 -5 -161.5 -76t-66.5 -169q0 -94 62.5 -162t157.5 -79l37 -3q14 0 14 -13l5 -40q12 -121 102.5 -202.5t213.5 -81.5t214 81.5t102 202.5l6 43q0 13 13 13h125q98 0 169.5 71.5t71.5 169.5q0 95 -67 166
t-161 79q-13 0 -13 13v100q0 13 13 13q98 -3 179 -54t127.5 -134.5t46.5 -182.5q0 -80 -30 -146q84 -105 84 -246q0 -79 -30.5 -151.5t-83 -125.5t-125 -83.5t-152.5 -30.5q-169 0 -285 124q-89 -48 -204 -48q-158 0 -279.5 98t-154.5 250q-126 29 -207 129.5t-81 229.5z
M405 1701q0 21 12 40.5t34 26.5q21 8 45.5 -4.5t32.5 -41.5l19 -78q8 -23 -5 -46.5t-39 -31.5q-28 -7 -50 6.5t-27 39.5l-21 75q-1 5 -1 14zM502 1349q0 43 48 59q25 8 48 -4t30 -40l19 -77q7 -23 -5.5 -46t-37.5 -31q-27 -7 -49.5 5.5t-27.5 38.5l-23 77q-2 9 -2 18z
M593 1938q0 18 13 37t36 27q1 0 8 1t11 1q15 0 27 -6q21 -9 31 -43l20 -74q8 -26 -5 -49t-38 -30q-26 -7 -49 6t-30 38l-21 76q-3 11 -3 16zM628 289q0 28 19 46l49 48q38 38 87 0q19 -19 19 -45t-19 -46l-47 -49q-18 -18 -44 -18t-45 18.5t-19 45.5zM694 1580q0 19 12 38
t35 26q26 8 48 -3.5t30 -42.5l18 -75q8 -26 -4.5 -49t-37.5 -30q-28 -8 -50.5 5.5t-27.5 39.5l-21 77q-2 4 -2 14zM902 1709q3 42 47 62l19 3q19 0 36 -12t24 -37l22 -76q7 -27 -7 -49.5t-40 -27.5q-23 -8 -46 5t-31 38l-20 77q-1 2 -1.5 5.5t-1.5 6t-1 5.5zM1007 1353
q0 18 11.5 36t33.5 24l19 3q22 0 39 -13.5t21 -35.5l20 -74q8 -27 -4.5 -49t-38.5 -29q-25 -8 -47.5 4.5t-29.5 37.5l-22 79q-2 9 -2 17zM1031 616q75 -71 180 -71q110 0 187.5 77t77.5 187q0 64 -35 132q-107 -107 -259 -107h-25q-30 -127 -126 -218zM1147 225q0 28 18 46
t46 18t45.5 -18t17.5 -46v-150q0 -29 -17.5 -47t-45.5 -18t-46 18t-18 47v150zM1562 397q0 28 17 45q23 19 46 19q21 0 44 -19l107 -107q18 -20 18 -46.5t-18 -45t-44 -18.5t-46 18l-107 108q-17 19 -17 46zM1621 1281q0 26 19 47l46 48q24 23 47 23q21 0 43 -23
q20 -21 19.5 -46.5t-19.5 -44.5l-48 -49q-18 -18 -43 -18q-27 0 -45.5 18.5t-18.5 44.5zM1731 809q0 26 18 44t43 18h153q29 0 47 -17.5t18 -44.5q0 -28 -18.5 -46t-46.5 -18h-153q-26 0 -43.5 19t-17.5 45z" />
</svg>
