<?xml version="1.0" standalone="no"?>
<!DOCTYPE svg PUBLIC "-//W3C//DTD SVG 1.1//EN" "http://www.w3.org/Graphics/SVG/1.1/DTD/svg11.dtd" >
<svg xmlns="http://www.w3.org/2000/svg" xmlns:xlink="http://www.w3.org/1999/xlink" version="1.1" viewBox="-10 0 2027 2048">
   <path fill="currentColor"
d="M0 1205q0 96 47.5 179.5t130 134t179.5 53.5q13 0 13 -13v-99q0 -14 -13 -14q-95 -5 -162.5 -76t-67.5 -165q0 -93 63.5 -161.5t156.5 -79.5l39 -5q13 0 13 -14l6 -37q12 -123 102 -204.5t213 -81.5q121 0 212.5 81.5t103.5 201.5l6 44q0 13 12 13h121q101 0 172.5 71.5
t71.5 171.5q0 94 -67.5 165t-162.5 76q-14 0 -14 14v99q0 13 14 13q149 -5 252.5 -112.5t103.5 -254.5q0 -85 -32 -152q88 -106 88 -247q0 -105 -52.5 -195t-143 -142.5t-195.5 -52.5q-172 0 -289 129q-91 -49 -201 -49q-158 0 -280 98t-156 250q-126 31 -205 131t-79 230z
M474 1507q0 27 18 46t44 19t44 -19t18 -46q0 -25 -18 -43t-44 -18t-44 18t-18 43zM474 1778q0 24 19 43q19 18 43 18q27 0 44.5 -17.5t17.5 -43.5t-18 -43.5t-44 -17.5t-44 17.5t-18 43.5zM627 289q0 27 18 44l49 49q19 18 40 19q23 4 45.5 -16t22.5 -47.5t-18 -47.5
l-48 -46q-16 -19 -43 -19q-28 0 -47 18.5t-19 45.5zM712 1651q0 25 18 45q18 18 44 18t44.5 -18t18.5 -45q0 -26 -18.5 -44.5t-44.5 -18.5t-44 18.5t-18 44.5zM712 1382q0 25 18 43.5t44 18.5t44.5 -18t18.5 -44t-18.5 -44t-44.5 -18t-44 18t-18 44zM712 1924q0 25 18 43
q19 19 44 19q26 0 44.5 -17.5t18.5 -44t-18.5 -45.5t-44.5 -19q-25 0 -43.5 19t-18.5 45zM953 1507q0 27 18 46t44 19t44 -19t18 -46q0 -25 -18 -43t-44 -18t-44 18t-18 43zM953 1778q0 24 17 43q20 18 45 18q27 0 44.5 -17.5t17.5 -43.5t-18 -43.5t-44 -17.5t-44 18t-18 43
zM1026 616q77 -74 184 -74q109 0 186 77.5t77 186.5q0 70 -38 137q-107 -107 -260 -107h-24q-33 -131 -125 -220zM1146 227q0 25 18.5 43t45.5 18t44.5 -18t17.5 -43v-153q0 -27 -18 -46t-44 -19t-45 19.5t-19 45.5v153zM1558 396q0 26 18 44q17 18 42 19.5t47 -19.5
l107 -107q20 -20 20 -45q0 -27 -19.5 -46t-45.5 -19q-24 0 -43 19l-108 109q-18 18 -18 45zM1618 1278q0 28 18 46l48 47q27 18 47 18q23 0 42 -19.5t19 -45.5q0 -25 -20 -44l-46 -48q-20 -18 -46 -18t-44 18.5t-18 45.5zM1726 806q0 27 19 44q19 20 47 20h151
q26 0 45 -18.5t19 -45.5t-19 -45.5t-45 -18.5h-151q-27 0 -46.5 19t-19.5 45z" />
</svg>
