<?xml version="1.0" standalone="no"?>
<!DOCTYPE svg PUBLIC "-//W3C//DTD SVG 1.1//EN" "http://www.w3.org/Graphics/SVG/1.1/DTD/svg11.dtd" >
<svg xmlns="http://www.w3.org/2000/svg" xmlns:xlink="http://www.w3.org/1999/xlink" version="1.1" viewBox="-10 0 2027 2048">
   <path fill="currentColor"
d="M0 1202q0 97 47.5 181t129.5 134.5t180 54.5q13 0 13 -13v-99q0 -14 -13 -14q-96 -5 -163 -76t-67 -168q0 -93 63 -161t156 -79l39 -3q14 0 14 -13l6 -41q12 -121 102 -202t213 -81q120 0 211.5 81.5t104.5 201.5l5 44q0 13 13 13h121q99 0 171.5 71t72.5 169
q0 97 -67.5 168t-163.5 76q-13 0 -13 14v99q0 13 13 13q98 -3 180 -54t129 -135t47 -181q0 -83 -31 -149q87 -107 87 -247q0 -106 -53 -196t-142.5 -142t-194.5 -52q-174 0 -289 129q-92 -49 -201 -49q-158 0 -280 98t-156 250q-124 29 -204 129.5t-80 228.5zM441 1268
q0 42 31.5 72.5t76.5 30.5q44 0 74.5 -30t30.5 -73q0 -28 -26.5 -75.5t-48.5 -74.5q-24 -25 -30 -31l-27 30q-30 32 -55.5 77t-25.5 74zM627 288q0 28 18 45l49 49q47 35 90 0q18 -22 18 -47.5t-18 -44.5l-48 -48q-21 -19 -45 -19q-27 0 -45.5 19t-18.5 46zM664 1563
q0 74 50.5 124t122.5 50q73 0 124 -51t51 -123q0 -60 -60 -147q-52 -68 -95 -111q-9 -6 -20 -17l-17 17q-40 36 -96 110q-60 85 -60 148zM774 1069q0 28 21 48t51 20q29 0 49.5 -20t20.5 -48q0 -47 -70 -120l-18 19q-20 22 -37 52t-17 49zM1026 616q74 -74 184 -74
q109 0 186 77t77 187q0 66 -39 137q-108 -107 -259 -107h-25q-32 -130 -124 -220zM1146 223q0 27 19 46t45 19t43.5 -19t17.5 -46v-152q0 -27 -17 -44.5t-44 -17.5t-45.5 17.5t-18.5 44.5v152zM1558 396q0 27 18 44q20 18 43 18q19 0 45 -18l107 -107q21 -20 21 -46
q0 -28 -19 -46t-46 -18q-24 0 -43 19l-108 107q-18 19 -18 47zM1618 1276q0 28 17 48l49 43q16 21 44 21q27 0 43 -21q21 -18 21 -43t-21 -44l-45 -48q-20 -18 -46 -18t-44 18t-18 44zM1726 806q0 25 19 43q19 19 47 19h151q27 0 45.5 -18t18.5 -44q0 -27 -19 -45.5
t-45 -18.5h-151q-27 0 -46.5 19t-19.5 45z" />
</svg>
