<?xml version="1.0" standalone="no"?>
<!DOCTYPE svg PUBLIC "-//W3C//DTD SVG 1.1//EN" "http://www.w3.org/Graphics/SVG/1.1/DTD/svg11.dtd" >
<svg xmlns="http://www.w3.org/2000/svg" xmlns:xlink="http://www.w3.org/1999/xlink" version="1.1" viewBox="-10 0 1801 2048">
   <path fill="currentColor"
d="M0 943q0 30 21 49.5t54 19.5h126q30 0 51.5 -20t21.5 -49q0 -33 -21 -54t-52 -21h-126q-33 0 -54 21t-21 54zM132 1405q0 109 79.5 188.5t187.5 79.5h513q109 0 186.5 -78.5t77.5 -189.5q0 -54 -16 -92q93 -59 147.5 -158.5t54.5 -211.5q0 -91 -35.5 -174.5t-95.5 -143
t-143 -95.5t-174 -36q-122 0 -225.5 60.5t-162.5 163.5t-59 225v25q-112 64 -148 186q-85 27 -136 95t-51 156zM249 346q0 32 19 51l121 126q52 40 105 0q21 -21 21 -53q0 -30 -21 -52l-123 -123q-24 -22 -52 -22q-32 0 -51 21.5t-19 51.5zM280 1405q0 -47 30.5 -80.5
t76.5 -37.5l46 -7q15 0 15 -16l7 -43q7 -64 54 -107.5t111 -43.5q65 0 113 43.5t56 107.5l6 49q7 17 18 17h99q49 0 84 35t35 83q0 50 -35 86t-84 36h-513q-50 0 -84.5 -36t-34.5 -86zM611 927q8 -122 94.5 -205.5t208.5 -83.5q125 0 212.5 89t87.5 216q0 78 -38 145
t-103 108q-66 -54 -152 -54q-33 -98 -115 -156.5t-186 -58.5h-9zM841 273q0 31 21.5 52.5t51.5 21.5q31 0 52.5 -21.5t21.5 -52.5v-175q0 -29 -21.5 -49t-52.5 -20q-30 0 -51.5 20t-21.5 49v175zM1314 1411q0 30 20 53l123 121q47 48 105 0q19 -19 19 -50q0 -30 -19 -50
l-126 -125q-21 -19 -51.5 -19t-50.5 20t-20 50zM1314 469q0 32 20 54q20 20 50 20q31 0 52 -20l126 -126q19 -19 19 -51q0 -30 -21 -51.5t-52 -21.5q-30 0 -51 22l-123 123q-20 20 -20 51zM1507 943q0 30 21 49.5t54 19.5h126q30 0 51.5 -20t21.5 -49q0 -33 -21 -54t-52 -21
h-126q-33 0 -54 21t-21 54z" />
</svg>
