<?xml version="1.0" standalone="no"?>
<!DOCTYPE svg PUBLIC "-//W3C//DTD SVG 1.1//EN" "http://www.w3.org/Graphics/SVG/1.1/DTD/svg11.dtd" >
<svg xmlns="http://www.w3.org/2000/svg" xmlns:xlink="http://www.w3.org/1999/xlink" version="1.1" viewBox="-10 0 1608 2048">
   <path fill="currentColor"
d="M0 1032q0 -27 19 -46q20 -18 45 -18h153q25 0 42.5 19t17.5 45.5t-17.5 45t-42.5 18.5h-153q-26 0 -45 -19t-19 -45zM214 1550q0 -26 17 -45l110 -107q17 -17 44 -17t45 16.5t18 42.5q0 27 -19 48l-106 106q-46 36 -92 0q-17 -19 -17 -44zM214 515q0 -26 17 -45
q22 -19 48 -19q24 0 44 19l106 110q19 16 19 44q0 26 -18 44t-45 18t-44 -18l-110 -107q-17 -18 -17 -46zM404 1032q0 -104 52.5 -194t142.5 -142.5t195 -52.5q78 0 150.5 31t124.5 83t83 124.5t31 150.5q0 105 -52.5 195t-142 142t-194.5 52t-195 -52t-142.5 -142
t-52.5 -195zM531 1032q0 110 77 187t186 77t186.5 -77t77.5 -187q0 -108 -77.5 -184t-186.5 -76t-186 76t-77 184zM730 1613q0 -26 18.5 -44.5t45.5 -18.5t45.5 18.5t18.5 44.5v149q0 27 -19 46t-45.5 19t-45 -19t-18.5 -46v-149zM730 455v-153q0 -26 19 -45t45 -19t45 19
t19 45v153q0 26 -19 43t-45.5 17t-45 -17t-18.5 -43zM1143 1440q0 -26 17 -42q16 -17 42 -17q27 0 44 17l110 107q18 19 18 45t-18 44q-45 35 -90 0l-106 -106q-17 -19 -17 -48zM1143 624q0 -28 17 -44l106 -110q20 -19 44 -19q27 0 45.5 19t18.5 45q0 28 -18 46l-110 107
q-20 18 -44 18q-26 0 -42.5 -18t-16.5 -44zM1312 1032.5q0 -26.5 18 -46.5q18 -18 43 -18h151q26 0 45 19t19 45t-19 45t-45 19h-151q-26 0 -43.5 -18.5t-17.5 -45z" />
</svg>
