<?xml version="1.0" standalone="no"?>
<!DOCTYPE svg PUBLIC "-//W3C//DTD SVG 1.1//EN" "http://www.w3.org/Graphics/SVG/1.1/DTD/svg11.dtd" >
<svg xmlns="http://www.w3.org/2000/svg" xmlns:xlink="http://www.w3.org/1999/xlink" version="1.1" viewBox="-10 0 2034 2048">
   <path fill="currentColor"
d="M0 1203q0 124 73.5 221t192.5 133l-48 127q-5 15 10 15h159l-93 295h21l312 -403q4 -4 1 -9.5t-11 -5.5h-162l185 -346q7 -16 -11 -16h-220q-10 0 -17 10l-80 215q-80 -20 -132.5 -86.5t-52.5 -149.5q0 -94 63.5 -162.5t157.5 -79.5l39 -5q14 0 14 -13l5 -38
q12 -121 103 -203t213 -82t213.5 82t104.5 203l5 43q0 13 13 13h120q102 0 174 70.5t72 171.5q0 95 -66.5 164.5t-164.5 77.5q-15 0 -15 13v103q0 12 15 12q149 -5 253.5 -113t104.5 -257q0 -83 -33 -150q89 -108 89 -248q0 -106 -53 -196t-143.5 -143t-196.5 -53
q-173 0 -290 130q-90 -49 -202 -49q-158 0 -280.5 98t-157.5 251q-124 29 -204 129.5t-80 230.5zM605 1919q-2 16 9.5 32.5t35.5 24.5q7 2 15 2q19 0 38 -11t25 -35l171 -640q7 -26 -5 -48.5t-36 -29.5q-26 -8 -49 4.5t-30 38.5l-172 642q-2 9 -2 20zM629 285.5
q0 26.5 19 44.5l48 49q19 19 45.5 19t42.5 -19q21 -17 21 -45q0 -27 -19 -44l-47 -49q-19 -19 -45 -19q-28 0 -46.5 18.5t-18.5 45zM915 1690q0 14 8 28q14 23 38 32q7 4 22 4q17 0 25 -4q22 -9 30 -44l112 -414q7 -27 -5.5 -49t-38.5 -29q-26 -8 -48 4.5t-29 38.5l-111 416
q0 3 -1.5 8.5t-1.5 8.5zM1029 615q75 -72 185 -72t187 76t77 186q0 70 -38 138q-112 -110 -262 -110h-23q-34 -132 -126 -218zM1150 222q0 26 19 45.5t45 19.5q27 0 44.5 -19t17.5 -46v-153q0 -27 -17.5 -46t-44.5 -19q-26 0 -45 19t-19 46v153zM1563 393.5q0 27.5 20 44.5
q16 19 42 19t45 -19l108 -108q20 -18 20 -44.5t-19 -45.5t-46 -19q-24 0 -42 20l-108 107q-20 18 -20 45.5zM1623 1280q0 25 19 44l49 47q14 17 40 19h1q1 0 3.5 0.5t3.5 0.5q21 0 39 -20q20 -18 20 -44t-20 -46l-48 -46q-18 -20 -44 -20q-25 0 -44 19t-19 46zM1732 805
q0 26 20 44q21 21 46 21h152q26 0 45 -19.5t19 -45.5t-18.5 -44t-45.5 -18h-152q-28 0 -47 18t-19 44z" />
</svg>
