<?xml version="1.0" standalone="no"?>
<!DOCTYPE svg PUBLIC "-//W3C//DTD SVG 1.1//EN" "http://www.w3.org/Graphics/SVG/1.1/DTD/svg11.dtd" >
<svg xmlns="http://www.w3.org/2000/svg" xmlns:xlink="http://www.w3.org/1999/xlink" version="1.1" viewBox="-10 0 1722 2048">
   <path fill="currentColor"
d="M0 1509q0 -28 19 -47q20 -18 45 -18h405q82 0 140.5 59.5t58.5 141.5q0 84 -58 142.5t-141.5 58.5t-141.5 -59q-18 -18 -18 -45t17 -45t45 -18q26 0 46 18q22 22 51.5 22t51.5 -21.5t22 -52.5q0 -29 -22 -50.5t-51 -21.5h-405q-26 0 -45 -18.5t-19 -45.5zM0 1282
q0 -27 19 -46q20 -18 45 -18h788q29 0 51 -21.5t22 -52t-22 -51.5t-51 -21q-31 0 -51 21q-20 16 -47.5 16t-44.5 -17t-17 -44q0 -28 16 -46q57 -57 144 -57q83 0 141.5 58.5t58.5 141t-58.5 141t-141.5 58.5h-788q-27 0 -45.5 -18t-18.5 -44zM160 1106q0 9 12 9h108
q9 0 16 -11q26 -61 79 -101t119 -45l39 -6q15 0 15 -12l6 -39q11 -121 102 -203.5t214 -82.5q124 0 215 82t104 204l6 44q0 13 12 13h121q102 0 174.5 71.5t72.5 171.5t-72.5 171.5t-174.5 71.5h-516q-14 0 -14 13v104q0 12 14 12h516q102 0 188 -49.5t136 -135.5t50 -187
t-50 -186.5t-136 -135.5t-188 -50h-23q-35 -149 -156.5 -244.5t-278.5 -95.5q-158 0 -280 98.5t-155 252.5q-96 22 -170 91.5t-103 165.5v3q-2 3 -2 6z" />
</svg>
