<?xml version="1.0" standalone="no"?>
<!DOCTYPE svg PUBLIC "-//W3C//DTD SVG 1.1//EN" "http://www.w3.org/Graphics/SVG/1.1/DTD/svg11.dtd" >
<svg xmlns="http://www.w3.org/2000/svg" xmlns:xlink="http://www.w3.org/1999/xlink" version="1.1" viewBox="-10 0 1799 2048">
   <path fill="currentColor"
d="M0 1512q0 -28 19 -46t47 -18h670q27 0 44.5 18t17.5 46q0 26 -18 44t-44 18h-670q-28 0 -47 -18t-19 -44zM197 1283q0 -26 20 -45q16 -17 44 -17h673q26 0 43 18t17 44.5t-17 45.5t-43 19h-673q-26 0 -45 -19.5t-19 -45.5zM243 1109q0 10 13 10h106q11 0 18 -10
q25 -61 77.5 -101t117.5 -45l41 -5q12 0 12 -13l5 -39q13 -122 104.5 -203t214.5 -81q122 0 211.5 80t105.5 202l5 44q0 12 14 12h120q101 0 173 71.5t72 173.5q0 98 -73 170.5t-172 72.5h-515q-14 0 -14 12v101q0 13 14 13h515q75 0 144 -29t118.5 -79t79 -118t29.5 -143
q0 -101 -49.5 -186t-135 -134.5t-186.5 -49.5h-24q-36 -151 -157 -246.5t-275 -95.5q-159 0 -281 99t-155 253q-97 22 -170 91t-101 166v1q-2 3 -2 6zM329 1743q0 -28 19 -45q17 -18 44 -18h672q28 0 46.5 18t18.5 44.5t-19 45.5t-46 19h-672q-26 0 -44.5 -19t-18.5 -45z
" />
</svg>
