<?xml version="1.0" standalone="no"?>
<!DOCTYPE svg PUBLIC "-//W3C//DTD SVG 1.1//EN" "http://www.w3.org/Graphics/SVG/1.1/DTD/svg11.dtd" >
<svg xmlns="http://www.w3.org/2000/svg" xmlns:xlink="http://www.w3.org/1999/xlink" version="1.1" viewBox="-10 0 1870 2048">
   <path fill="currentColor"
d="M0 1512q0 -27 19 -45.5t47 -18.5h1395q28 0 46 18t18 46q0 26 -19 43.5t-45 17.5h-1395q-28 0 -47 -17.5t-19 -43.5zM195 1278q0 -28 20 -45q17 -17 44 -17h1396q26 0 43.5 18t17.5 44t-17.5 44.5t-43.5 18.5h-1396q-26 0 -45 -19t-19 -44zM205 1100q0 9 12 9h107
q7 0 14 -12q27 -58 80 -95t116 -42l41 -5q13 0 13 -14l5 -37q12 -121 102.5 -202t212.5 -81q121 0 211 80t103 200l6 43q0 13 14 13h119q73 0 132 38.5t88 101.5q7 12 15 12h107q14 0 11 -16q-33 -115 -130.5 -188t-222.5 -73h-23q-38 -149 -157.5 -244t-272.5 -95
q-157 0 -279 98.5t-156 250.5q-95 23 -167 91t-100 162v-2q-1 2 -1 7zM326 1741q0 -26 19 -44q17 -17 45 -17h1397q26 0 44.5 17.5t18.5 43.5q0 27 -18.5 46t-44.5 19h-1397q-26 0 -45 -19.5t-19 -45.5z" />
</svg>
