<?xml version="1.0" standalone="no"?>
<!DOCTYPE svg PUBLIC "-//W3C//DTD SVG 1.1//EN" "http://www.w3.org/Graphics/SVG/1.1/DTD/svg11.dtd" >
<svg xmlns="http://www.w3.org/2000/svg" xmlns:xlink="http://www.w3.org/1999/xlink" version="1.1" viewBox="-10 0 1568 2048">
   <path fill="currentColor"
d="M0 1203q0 149 104 256t254 114q13 0 13 -12v-101q0 -12 -13 -12q-96 -5 -163 -76.5t-67 -168.5q0 -93 63 -161.5t156 -79.5l40 -3q14 0 14 -14l5 -40q12 -121 102.5 -202.5t213.5 -81.5q122 0 213 81.5t103 202.5l6 44q0 13 13 13h121q99 0 172 71t73 170
q0 97 -67.5 168.5t-162.5 76.5q-15 0 -15 12v101q0 12 15 12q97 -3 179 -53t129 -134.5t47 -182.5q0 -101 -49.5 -185t-135 -133t-185.5 -49h-24q-36 -150 -157 -245t-275 -95q-158 0 -280.5 97.5t-157.5 250.5q-124 29 -204 129.5t-80 229.5zM407 1741q11 23 34 34t47 1.5
t33 -33.5q11 -25 2 -48.5t-34 -32.5q-22 -12 -45.5 -2t-35.5 35q-10 18 -1 46zM454 1530q0 17 11.5 33.5t34.5 24.5q22 13 46.5 1t32.5 -45l68 -252q7 -28 -6 -50.5t-40 -27.5q-9 -2 -18 -2q-18 0 -35.5 11.5t-24.5 33.5l-65 253q-4 16 -4 20zM593 1947q0 14 5 22
q9 25 33 34q11 5 25 5q7 0 22 -4q25 -9 35.5 -33.5t-0.5 -49t-33 -34.5t-47 0q-21 9 -30.5 26.5t-9.5 33.5zM648 1753q0 41 47 54q13 3 18 3q17 0 29 -6q23 -9 32 -42l124 -470q7 -27 -4.5 -49t-36.5 -29q-9 -2 -20 -2q-19 0 -36.5 11.5t-22.5 33.5l-127 473q-3 16 -3 23z
M905 1718q0 14 5 24q9 22 33 33q13 5 26 5q7 0 22 -4q24 -9 35 -33q8 -25 -1 -47.5t-31 -33.5q-26 -12 -49.5 -2t-34.5 35q-5 11 -5 23zM958 1526q0 16 12 33.5t34 24.5q18 4 20 4q11 0 28 -8q22 -10 30 -39l67 -249q2 -19 2 -20q0 -18 -11.5 -34.5t-33.5 -23.5
q-10 -2 -20 -2q-18 0 -35 11t-23 34l-67 250z" />
</svg>
