<?xml version="1.0" standalone="no"?>
<!DOCTYPE svg PUBLIC "-//W3C//DTD SVG 1.1//EN" "http://www.w3.org/Graphics/SVG/1.1/DTD/svg11.dtd" >
<svg xmlns="http://www.w3.org/2000/svg" xmlns:xlink="http://www.w3.org/1999/xlink" version="1.1" viewBox="-10 0 1070 2048">
   <path fill="currentColor"
d="M0 1771h29l515 -761q10 -20 -12 -20h-212l224 -408q10 -20 -15 -20h-284q-12 0 -22 13l-208 553q-2 21 14 21h206zM635 1298h21l390 -573q6 -9 3 -15t-13 -6h-157l164 -301q13 -22 -14 -22h-204q-15 0 -23 14l-155 410q-4 9 0.5 15t13.5 6h153z" />
</svg>
