<?xml version="1.0" standalone="no"?>
<!DOCTYPE svg PUBLIC "-//W3C//DTD SVG 1.1//EN" "http://www.w3.org/Graphics/SVG/1.1/DTD/svg11.dtd" >
<svg xmlns="http://www.w3.org/2000/svg" xmlns:xlink="http://www.w3.org/1999/xlink" version="1.1" viewBox="-10 0 1568 2048">
   <path fill="currentColor"
d="M0 1207q0 148 104.5 255t252.5 112q14 0 14 -13v-99q0 -14 -14 -14q-94 -4 -162 -75.5t-68 -165.5t63.5 -164t156.5 -77l39 -6q14 0 14 -13l6 -37q11 -123 101.5 -205.5t214.5 -82.5q121 0 212 82t104 202l5 44q0 13 14 13h120q101 0 173 72t72 172q0 94 -67.5 165.5
t-162.5 75.5q-15 0 -15 14v99q0 13 15 13q149 -5 252.5 -112t103.5 -255q0 -100 -50 -185.5t-135.5 -134.5t-185.5 -49h-23q-37 -150 -157.5 -246t-274.5 -96q-158 0 -280.5 98t-157.5 251q-126 32 -205 131.5t-79 230.5zM404 1732q0 18 12.5 37t35.5 26q26 8 47.5 -2.5
t29.5 -42.5l11 -45q5 -25 -7.5 -47t-38.5 -30q-25 -8 -48 5.5t-30 39.5l-10 45q-2 4 -2 14zM461 1515q0 24 19 43q17 19 42 19q27 0 45 -18t18 -44t-18 -44t-45 -18q-26 0 -43.5 17.5t-17.5 44.5zM507 1345q-2 17 9.5 33.5t36.5 24.5q23 7 46 -5.5t31 -37.5l21 -68
q8 -27 -5 -48.5t-41 -29.5q-24 -7 -47 5.5t-30 37.5l-19 68q0 2 -1 9t-1 11zM593 1965q0 19 12 37t36 25q9 2 19 2q48 0 59 -46l10 -44q7 -29 -6 -51.5t-39 -27.5q-24 -7 -47 6t-31 38l-10 44q-3 10 -3 17zM652 1748q0 24 19 43q18 18 42 18q27 0 44.5 -17.5t17.5 -43.5
t-17.5 -43.5t-44 -17.5t-44 17.5t-17.5 43.5zM699 1578q-2 17 9.5 35t33.5 23q26 7 47.5 -4.5t30.5 -42.5l21 -67q7 -24 -5.5 -46.5t-39.5 -30.5q-25 -8 -48 6t-31 40l-16 67q-2 9 -2 20zM905 1739q0 18 11.5 35.5t34.5 24.5q3 0 10 1.5t10 1.5q46 0 57 -49l10 -45
q8 -24 -4.5 -47t-37.5 -31q-28 -7 -51 6t-31 39l-7 45q0 2 -1 8.5t-1 10.5zM960 1518q0 25 19 43q17 18 43 18t43.5 -17.5t17.5 -43.5q0 -27 -17.5 -44.5t-44 -17.5t-44 17.5t-17.5 44.5zM1005 1345q0 19 12.5 36t36.5 24q3 0 10 1.5t10 1.5q11 0 27 -7q24 -13 31 -39
l18 -68q7 -25 -5.5 -47t-38.5 -30q-26 -7 -47.5 4.5t-29.5 37.5l-21 68q0 3 -1.5 9t-1.5 9z" />
</svg>
