<?xml version="1.0" standalone="no"?>
<!DOCTYPE svg PUBLIC "-//W3C//DTD SVG 1.1//EN" "http://www.w3.org/Graphics/SVG/1.1/DTD/svg11.dtd" >
<svg xmlns="http://www.w3.org/2000/svg" xmlns:xlink="http://www.w3.org/1999/xlink" version="1.1" viewBox="-10 0 1571 2048">
   <path fill="currentColor"
d="M0 1205q0 125 73 223t191 133q10 2 18 -5l87 -108q-99 0 -170 -71t-71 -172q0 -95 63 -164.5t157 -77.5l39 -5q12 0 12 -10l6 -41q14 -123 104 -204t213 -81t214.5 81.5t102.5 203.5l6 43q2 13 16 13h121q101 0 171.5 70.5t70.5 171.5q0 93 -63 162.5t-154 80.5
q-14 0 -37 5q-22 2 -31 17l-176 208q-16 21 -12.5 47.5t23.5 42.5q12 14 42 14q29 0 45 -26l159 -182q139 -14 235 -120.5t96 -248.5q0 -76 -29 -144.5t-78.5 -118t-117.5 -79t-144 -29.5h-24q-37 -149 -158.5 -243.5t-277.5 -94.5q-105 0 -197 44.5t-155 124t-85 180.5
q-126 28 -205.5 128.5t-79.5 231.5zM253 1804q0 7 4 22q10 24 33 33q25 11 50 1.5t34 -33.5q11 -25 1.5 -48.5t-34.5 -32.5q-25 -12 -48 -2t-34 35q-6 12 -6 25zM391 1622v7q2 25 22 42q26 14 47 14q25 0 45 -24l174 -207q16 -20 15 -49q-3 -24 -21 -40t-39 -16q-6 0 -10 1
q-26 5 -42 24l-177 208q-14 16 -14 40zM448 1974q0 13 6 24q9 24 33 35q12 5 24 5q14 0 24 -5q26 -11 35 -31q11 -25 1.5 -50t-33.5 -34q-24 -11 -50 -1.5t-34 33.5q-6 11 -6 24zM573 1799v8q3 25 23.5 41.5t41.5 16.5q25 0 47 -25l325 -392q12 -14 12 -38v-9
q-3 -25 -20.5 -40t-38.5 -15h-10q-26 2 -41 23l-326 389q-13 20 -13 41zM836 1885q0 10 4 22q10 25 34 35q16 5 24 5q16 0 25 -6q25 -10 34 -31q11 -19 1 -50q-9 -23 -32 -33l-27 -7q-10 2 -24 5q-24 10 -34 33q-5 14 -5 27z" />
</svg>
