<?xml version="1.0" standalone="no"?>
<!DOCTYPE svg PUBLIC "-//W3C//DTD SVG 1.1//EN" "http://www.w3.org/Graphics/SVG/1.1/DTD/svg11.dtd" >
<svg xmlns="http://www.w3.org/2000/svg" xmlns:xlink="http://www.w3.org/1999/xlink" version="1.1" viewBox="-10 0 1569 2048">
   <path fill="currentColor"
d="M0 1203q0 -129 80.5 -229.5t203.5 -128.5q35 -153 158 -251t280 -98q155 0 275.5 95.5t157.5 245.5h23q101 0 186.5 48.5t135 133t49.5 184.5q0 98 -47 182.5t-129 135t-180 53.5q-15 0 -15 -13v-99q0 -14 15 -14q95 -4 163 -75.5t68 -169t-73 -169.5t-173 -72h-120
q-13 0 -13 -12l-6 -44q-13 -121 -104 -202.5t-213 -81.5t-213 81.5t-102 202.5l-6 40q0 14 -14 14l-39 2q-94 11 -157 80t-63 161q0 98 67 169.5t163 75.5q13 0 13 14v99q0 13 -13 13q-150 -7 -254 -114.5t-104 -256.5zM400 1703q0 -5 3 -15l122 -431q7 -22 24 -33t35 -11
q7 0 18 2q26 5 40 27.5t6 49.5l-122 428q-14 48 -61 48q-5 0 -9 -1q-6 -3 -8 -3q-24 -7 -36 -24.5t-12 -36.5zM596 1913l182 -656q5 -22 22.5 -33t36.5 -11q10 0 21 2q24 7 36 29t5 48l-182 657q-4 19 -21.5 32t-37.5 13q-11 0 -19 -3q-22 -6 -39 -30q-12 -19 -4 -48z
M905 1705q0 -4 2 -17l122 -431q7 -22 23 -33t35 -11q9 0 19 2q23 6 35 23t12 35q0 4 -1.5 10.5t-1.5 8.5l-122 428q-4 22 -21 35t-38 13l-18 -4q-23 -6 -34.5 -24t-11.5 -35z" />
</svg>
