<?xml version="1.0" standalone="no"?>
<!DOCTYPE svg PUBLIC "-//W3C//DTD SVG 1.1//EN" "http://www.w3.org/Graphics/SVG/1.1/DTD/svg11.dtd" >
<svg xmlns="http://www.w3.org/2000/svg" xmlns:xlink="http://www.w3.org/1999/xlink" version="1.1" viewBox="-10 0 1574 2048">
   <path fill="currentColor"
d="M0 1205q0 -130 81.5 -231t207.5 -129q33 -155 155 -254t280 -99q157 0 278.5 95.5t158.5 246.5h25q101 0 186 49.5t133.5 135t48.5 186.5q0 150 -102.5 257t-251.5 112q-14 0 -14 -13v-100q0 -13 14 -13q94 -7 161.5 -77.5t67.5 -165.5q0 -101 -71.5 -173t-171.5 -72
h-122q-13 0 -16 -13l-5 -43q-8 -80 -52.5 -144.5t-114.5 -101.5t-152 -37q-123 0 -213.5 81.5t-102.5 203.5l-5 41q0 10 -12 10l-39 6q-95 8 -158.5 77t-63.5 165q0 97 66.5 167.5t162.5 75.5q13 0 13 13v100q0 13 -13 13q-74 -4 -140.5 -34t-114.5 -79t-76 -116t-28 -140z
M405 1711q0 -4 1.5 -10.5t1.5 -8.5l20 -77q8 -25 30 -38t48 -5q25 8 38.5 30t5.5 48l-18 75q-15 49 -57 49h-6.5t-8.5 -1t-7 -1q-24 -7 -36 -25.5t-12 -35.5zM504 1350q0 -2 1 -8t1 -7l22 -78q7 -22 24 -33.5t35 -11.5h6t7 1t6 1q25 7 38 29.5t6 48.5l-19 75q-7 30 -29.5 43
t-48.5 2q-25 -7 -37 -25t-12 -37zM596 1945q0 -4 1 -10t1 -9l22 -74q7 -27 30 -40.5t49 -5.5q25 8 37.5 30.5t4.5 48.5l-19 78q-12 45 -59 45q-6 0 -18 -2q-25 -5 -37 -23.5t-12 -37.5zM696 1588q0 -6 3 -19l20 -77q8 -25 30.5 -38t48.5 -6q25 7 37.5 29.5t4.5 48.5l-18 75
q-14 50 -54 50q-5 0 -23 -4q-25 -5 -37 -22t-12 -37zM907 1713q0 -7 2 -18l21 -74q7 -27 30 -40.5t48 -6.5q25 8 39 30.5t7 47.5l-22 79q-11 45 -59 45q-10 0 -19 -2q-23 -4 -35 -22.5t-12 -38.5zM1010 1357q0 -3 3 -19l23 -77q4 -24 21.5 -35.5t36.5 -10.5q5 -1 18 2
q24 6 38 29q14 19 6 48l-18 77q-15 49 -57 49q-7 0 -25 -4q-23 -7 -34.5 -23.5t-11.5 -35.5z" />
</svg>
