<?xml version="1.0" standalone="no"?>
<!DOCTYPE svg PUBLIC "-//W3C//DTD SVG 1.1//EN" "http://www.w3.org/Graphics/SVG/1.1/DTD/svg11.dtd" >
<svg xmlns="http://www.w3.org/2000/svg" xmlns:xlink="http://www.w3.org/1999/xlink" version="1.1" viewBox="-10 0 1568 2048">
   <path fill="currentColor"
d="M0 1203q0 -129 80.5 -229.5t203.5 -128.5q35 -153 157.5 -251t280.5 -98q155 0 275.5 95.5t157.5 245.5h23q100 0 185.5 48.5t135 133t49.5 184.5q0 150 -103 258t-252 113q-15 0 -15 -13v-99q0 -14 15 -14q95 -4 162.5 -75.5t67.5 -169t-73 -169.5t-172 -72h-120
q-14 0 -14 -12l-5 -44q-12 -120 -103.5 -202t-213.5 -82t-213 81.5t-103 202.5l-5 41q0 13 -14 13l-39 2q-92 4 -156 75t-64 166q0 98 67 169.5t163 75.5q13 0 13 14v99q0 13 -13 13q-150 -7 -254 -114.5t-104 -256.5zM443 1269q0 -27 27 -73.5t51 -75.5q24 -27 29 -32
l27 30q28 31 53 76.5t25 74.5q0 44 -30 73.5t-75 29.5q-44 0 -75.5 -30t-31.5 -73zM666 1567q0 -31 17.5 -71.5t43.5 -76.5q21 -29 50 -63t45 -48q8 -7 18 -18l18 18q42 37 96 109q26 37 43.5 77.5t17.5 72.5q0 72 -50.5 123t-124.5 51q-72 0 -123 -50.5t-51 -123.5z
M776 1069q0 -47 72 -119l19 19q19 23 35.5 52.5t16.5 47.5q0 29 -21 49.5t-50 20.5q-30 0 -51 -20.5t-21 -49.5z" />
</svg>
