<?xml version="1.0" standalone="no"?>
<!DOCTYPE svg PUBLIC "-//W3C//DTD SVG 1.1//EN" "http://www.w3.org/Graphics/SVG/1.1/DTD/svg11.dtd" >
<svg xmlns="http://www.w3.org/2000/svg" xmlns:xlink="http://www.w3.org/1999/xlink" version="1.1" viewBox="-10 0 1571 2048">
   <path fill="currentColor"
d="M0 1203q0 124 74 222t192 134l-49 126q-3 16 11 16h159l-78 282h21l296 -390q5 -5 2 -10.5t-11 -5.5h-162l185 -346q7 -16 -11 -16h-220q-10 0 -17 11l-80 214q-80 -20 -132 -86.5t-52 -150.5q0 -93 63 -161.5t157 -79.5l39 -5q14 0 14 -13l6 -39q11 -121 102 -203
t213 -82t213.5 82t104.5 203l5 44q0 13 14 13h120q102 0 173.5 71t71.5 170q0 96 -66.5 165.5t-163.5 76.5q-15 0 -15 14v102q0 13 15 13q73 -2 139 -33t113.5 -80.5t76 -117t28.5 -140.5q0 -101 -50.5 -186t-136 -134.5t-185.5 -49.5h-24q-37 -149 -157.5 -243.5
t-275.5 -94.5q-158 0 -280.5 98t-157.5 251q-123 29 -203.5 129.5t-80.5 229.5zM610 1940q0 18 11.5 35t34.5 24q15 4 19 4q10 0 28 -8q24 -11 31 -39l21 -79q7 -24 -6 -46.5t-39 -30.5q-25 -7 -47.5 6t-30.5 40l-20 75zM710 1584q0 16 11.5 32.5t33.5 24.5q26 9 48 -3
t30 -40l22 -77q8 -25 -5.5 -47.5t-40.5 -30.5q-25 -7 -48 6t-31 39l-18 75q-2 19 -2 21zM921 1707q0 19 12 38t35 26q3 0 9 1.5t9 1.5q15 0 28 -6q21 -8 31 -43l19 -75q7 -26 -5 -49.5t-37 -31.5q-28 -7 -51 6.5t-28 39.5l-20 77q-2 7 -2 15zM1022 1349q0 18 11.5 35.5
t36.5 27.5q8 4 20 4q11 0 25 -6q23 -11 33 -43l21 -77q2 -15 2 -16q0 -19 -12 -37t-37 -25q-2 0 -8 -1t-8 -1q-19 0 -36.5 11.5t-24.5 35.5l-21 76q-2 8 -2 16z" />
</svg>
