<?xml version="1.0" standalone="no"?>
<!DOCTYPE svg PUBLIC "-//W3C//DTD SVG 1.1//EN" "http://www.w3.org/Graphics/SVG/1.1/DTD/svg11.dtd" >
<svg xmlns="http://www.w3.org/2000/svg" xmlns:xlink="http://www.w3.org/1999/xlink" version="1.1" viewBox="-10 0 1571 2048">
   <path fill="currentColor"
d="M0 1203q0 124 74.5 222t192.5 134l-49 126q-4 16 10 16h159l-73 321h21l293 -429q4 -5 1 -10.5t-11 -5.5h-163l185 -346q8 -17 -10 -17h-220q-11 0 -18 12l-80 214q-79 -20 -131.5 -86.5t-52.5 -150.5q0 -93 63 -161.5t157 -79.5l39 -5q15 0 15 -14l5 -38
q12 -121 102.5 -203t213.5 -82q122 0 213.5 82t104.5 203l5 44q0 13 13 13h120q102 0 174 71t72 170q0 96 -66.5 165.5t-164.5 77.5q-15 0 -15 13v102q0 13 15 13q149 -5 253 -113t104 -258q0 -101 -49.5 -186t-135.5 -134.5t-187 -49.5h-23q-37 -149 -158 -243.5
t-275 -94.5q-158 0 -281 98t-157 251q-124 29 -204.5 129.5t-80.5 229.5zM609 1929q0 44 43 58q2 0 9 1t10 1q19 0 37 -11t24 -36l168 -650q7 -26 -4.5 -48t-37.5 -30l-19 -2q-19 0 -36 11.5t-23 33.5l-169 652q-2 10 -2 20zM919 1700q0 15 8 28q15 25 38 33q12 3 22.5 3
t23.5 -5q23 -10 32 -43l107 -424q4 -16 4 -20q0 -17 -12 -34t-34 -24q-19 -2 -20 -2q-19 0 -35 11t-22 34l-110 426q0 2 -1 8t-1 9z" />
</svg>
