<?xml version="1.0" standalone="no"?>
<!DOCTYPE svg PUBLIC "-//W3C//DTD SVG 1.1//EN" "http://www.w3.org/Graphics/SVG/1.1/DTD/svg11.dtd" >
<svg xmlns="http://www.w3.org/2000/svg" xmlns:xlink="http://www.w3.org/1999/xlink" version="1.1" viewBox="-10 0 1817 2048">
   <path fill="currentColor"
d="M0 1510q0 26 20 45q19 19 46 19h429q29 0 51 21.5t22 50.5q0 30 -22 52t-51 22t-51 -23q-21 -18 -46 -18q-27 0 -45 18t-18 45q0 25 18 45q59 59 141.5 59t141 -58.5t58.5 -141.5t-58.5 -141.5t-140.5 -58.5h-429q-27 0 -46.5 19t-19.5 45zM0 1285q0 24 20 43
q20 18 46 18h811q82 0 140.5 -58t58.5 -140.5t-58.5 -140.5t-140.5 -58q-86 0 -142 57q-17 17 -17 45t17 45t44 17t46 -17q21 -21 52 -21q28 0 50 21t22 51t-22 51.5t-50 21.5h-811q-27 0 -46.5 19.5t-19.5 45.5zM188 1109q0 9 12 9h108q9 0 16 -11q25 -61 78 -100.5
t118 -44.5l39 -5q14 0 14 -13l6 -39q12 -121 103 -202.5t213.5 -81.5t213.5 81.5t103 202.5l5 44q0 13 14 13h121q102 0 173.5 71t71.5 170.5t-72 171t-173 71.5h-516q-13 0 -13 13v102q0 13 13 13h516q100 0 185.5 -50t135 -135.5t49.5 -185.5q0 -99 -51 -185
q82 -79 113 -192l11 -51q2 -2 2 -5q0 -5 -10 -12l-45 -16q-94 -28 -143.5 -101t-49.5 -151q0 -27 7 -59l10 -46q3 -11 -10 -17l-59 -18q-49 -12 -94 -12q-41 0 -83.5 10t-88 30.5t-88 59.5t-75.5 91q-79 -33 -173 -33q-158 0 -279.5 98t-154.5 250q-96 22 -169.5 91.5
t-101.5 164.5v2q-2 2 -2 7zM1177 594q35 -62 96.5 -94.5t127.5 -32.5q16 0 23 1q-1 9 -1 26q0 106 59 202.5t162 145.5q-17 42 -56 77q-99 -86 -236 -86h-24q-30 -141 -151 -239z" />
</svg>
