<?xml version="1.0" standalone="no"?>
<!DOCTYPE svg PUBLIC "-//W3C//DTD SVG 1.1//EN" "http://www.w3.org/Graphics/SVG/1.1/DTD/svg11.dtd" >
<svg xmlns="http://www.w3.org/2000/svg" xmlns:xlink="http://www.w3.org/1999/xlink" version="1.1" viewBox="-10 0 1911 2048">
   <path fill="currentColor"
d="M0 1512q0 27 19 44.5t47 17.5h703q26 0 43.5 -17.5t17.5 -44.5q0 -28 -17.5 -46t-43.5 -18h-703q-28 0 -47 18.5t-19 45.5zM197 1285q0 26 20 44q18 19 44 19h704q26 0 44 -18.5t18 -44.5t-17.5 -44t-44.5 -18h-704q-26 0 -45 18t-19 44zM275 1109q0 11 13 11h106
q10 0 17 -11q26 -61 78.5 -100.5t117.5 -44.5l41 -6q13 0 13 -13l5 -38q12 -122 103.5 -203.5t214.5 -81.5t212.5 80.5t105.5 202.5l5 43q0 13 14 13h120q102 0 173.5 71.5t71.5 172.5q0 98 -72.5 170.5t-172.5 72.5h-516q-13 0 -13 13v100q0 13 13 13h516q101 0 186.5 -49
t135.5 -134t50 -186t-49 -185q81 -72 113 -193l13 -51q1 -2 1 -5q0 -9 -11 -12l-46 -16q-49 -15 -87 -43t-60 -62.5t-33 -70.5t-11 -71q0 -26 8 -65l10 -45q5 -11 -10 -17l-61 -18q-49 -12 -93 -12q-42 0 -85 9.5t-88.5 30.5t-88 59.5t-73.5 91.5q-87 -36 -178 -36
q-158 0 -280 98.5t-155 252.5q-98 23 -171 92t-102 165v2q-1 1 -1 5zM329 1744q0 27 19 45q18 19 44 19h705q27 0 46 -19t19 -45t-19 -43.5t-46 -17.5h-705q-26 0 -44.5 17.5t-18.5 43.5zM1269 596q38 -62 100 -96t128 -32h19v18q0 110 59 209t162 148q-20 45 -57 80
q-99 -88 -239 -88h-24q-28 -136 -148 -239z" />
</svg>
