<?xml version="1.0" standalone="no"?>
<!DOCTYPE svg PUBLIC "-//W3C//DTD SVG 1.1//EN" "http://www.w3.org/Graphics/SVG/1.1/DTD/svg11.dtd" >
<svg xmlns="http://www.w3.org/2000/svg" xmlns:xlink="http://www.w3.org/1999/xlink" version="1.1" viewBox="-10 0 1650 2048">
   <path fill="currentColor"
d="M0 1203q0 149 104 256.5t254 114.5q13 0 13 -13v-100q0 -13 -13 -13q-96 -4 -163 -75.5t-67 -169.5q0 -93 63 -161.5t157 -79.5l39 -3q14 0 14 -13l6 -41q12 -121 102.5 -203t213.5 -82q121 0 213 82t104 203l6 44q0 13 13 13h120q100 0 172.5 71.5t72.5 169.5t-67 169.5
t-163 75.5q-15 0 -15 13v100q0 13 15 13q149 -5 253 -113t104 -258q0 -96 -49 -180q88 -83 116 -195l10 -51q2 -2 2 -5q0 -9 -12 -12l-42 -13q-64 -19 -109 -63.5t-64 -93t-19 -98.5q-1 -27 5 -59l11 -43q3 -10 -11 -16l-59 -19q-47 -14 -98 -14q-39 0 -81 9.5t-87.5 30
t-88.5 59.5t-75 91q-84 -36 -177 -36q-158 0 -281 98t-157 251q-124 29 -204.5 129.5t-80.5 229.5zM409 1729q10 24 35 33q21 12 45.5 2.5t33.5 -33.5q12 -25 2.5 -48.5t-33.5 -32.5q-23 -12 -46.5 -2t-34.5 35q-12 17 -2 46zM456 1517q0 17 12 34t34 24q29 11 50.5 -0.5
t29.5 -42.5l66 -240q8 -28 -6 -50t-40 -28q-25 -7 -47.5 5.5t-29.5 37.5l-66 241q0 2 -1.5 9t-1.5 10zM596 1935q0 14 4 22q10 25 33 34q11 5 25 5q7 0 22 -4q26 -9 36.5 -33.5t-0.5 -49t-33 -34.5t-46 0q-22 9 -31.5 26.5t-9.5 33.5zM651 1737q0 43 48 58q10 4 17 4
q13 0 26 -6q26 -10 35 -43l123 -458q7 -26 -5 -48t-37 -30q-26 -7 -49 5.5t-30 37.5l-125 461q-3 13 -3 19zM908 1706q0 14 5 23q9 23 33 33q13 6 26 6q7 0 22 -4q25 -10 34 -33q9 -25 0 -47.5t-31 -33.5q-24 -12 -48.5 -2.5t-35.5 35.5q-5 9 -5 23zM962 1515q0 18 11.5 34
t34.5 23q18 3 20 3q45 0 57 -46l65 -237q7 -26 -5 -48t-37 -30q-26 -7 -48 5.5t-30 37.5l-66 238q-2 10 -2 20zM1010 599q35 -64 97 -97.5t132 -33.5q12 0 19 2v23q0 109 58.5 205.5t161.5 145.5q-21 49 -56 80q-98 -88 -243 -88h-24q-28 -140 -145 -237z" />
</svg>
