<?xml version="1.0" standalone="no"?>
<!DOCTYPE svg PUBLIC "-//W3C//DTD SVG 1.1//EN" "http://www.w3.org/Graphics/SVG/1.1/DTD/svg11.dtd" >
<svg xmlns="http://www.w3.org/2000/svg" xmlns:xlink="http://www.w3.org/1999/xlink" version="1.1" viewBox="-10 0 1646 2048">
   <path fill="currentColor"
d="M0 1203q0 149 104 256.5t254 114.5q13 0 13 -13v-102q0 -13 -13 -13q-97 -8 -163.5 -77.5t-66.5 -165.5q0 -94 63 -163.5t157 -77.5l39 -5q14 0 14 -13l6 -39q12 -121 102.5 -202.5t212.5 -81.5t213 81.5t104 202.5l6 44q0 13 13 13h120q102 0 174 71t72 170
q0 96 -66.5 165.5t-164.5 77.5q-15 0 -15 13v102q0 13 15 13q149 -5 252.5 -113t103.5 -258q0 -100 -51 -185q90 -81 116 -192l11 -54q1 -1 1 -5q0 -9 -12 -12l-44 -13q-64 -18 -108.5 -61.5t-63.5 -92t-19 -98.5q0 -27 7 -59l10 -46q4 -11 -10 -17l-59 -18q-49 -12 -93 -12
q-41 0 -83.5 10t-89 30.5t-90 59.5t-74.5 91q-79 -33 -175 -33q-158 0 -280.5 97.5t-157.5 250.5q-123 29 -203.5 129.5t-80.5 229.5zM573 1551q-5 16 11 16h161l-98 310h22l312 -418q4 -5 2 -10t-10 -5h-164l172 -315q8 -16 -11 -16h-220q-9 0 -16 10zM1007 598
q37 -64 99 -97.5t129 -33.5q14 0 20 1v23q0 108 58 204t162 147q-18 41 -56 80q-103 -89 -241 -89h-23q-32 -140 -148 -235z" />
</svg>
