<?xml version="1.0" standalone="no"?>
<!DOCTYPE svg PUBLIC "-//W3C//DTD SVG 1.1//EN" "http://www.w3.org/Graphics/SVG/1.1/DTD/svg11.dtd" >
<svg xmlns="http://www.w3.org/2000/svg" xmlns:xlink="http://www.w3.org/1999/xlink" version="1.1" viewBox="-10 0 1655 2048">
   <path fill="currentColor"
d="M0 1205q0 148 104.5 256t254.5 113q13 0 13 -13v-100q0 -13 -13 -13q-96 -4 -163.5 -76.5t-67.5 -166.5q0 -96 63 -165.5t157 -77.5l40 -5q15 0 15 -13l5 -38q12 -123 102.5 -205.5t213.5 -82.5q122 0 214.5 82t104.5 203l6 43q0 14 12 14h122q101 0 173.5 72t72.5 173
q0 61 -30.5 116t-84.5 89.5t-117 37.5q-14 0 -14 13v100q0 13 14 13q99 -3 181 -53.5t129.5 -134t47.5 -181.5q0 -99 -51 -188q93 -83 118 -196l11 -51q2 -3 2 -6q0 -6 -13 -12l-41 -13q-65 -19 -110.5 -63.5t-64.5 -93.5t-19 -96q-3 -24 7 -62l9 -43q5 -12 -9 -18l-60 -18
q-46 -13 -97 -13q-40 0 -83 10t-89 31t-89.5 60.5t-75.5 92.5q-91 -35 -176 -35q-158 0 -281 98.5t-158 252.5q-126 32 -205.5 132t-79.5 231zM404 1732q0 18 12.5 37t35.5 26q26 8 47.5 -2.5t29.5 -42.5l11 -45q5 -25 -7.5 -47t-38.5 -30q-25 -8 -48 5.5t-30 39.5l-10 45
q-2 4 -2 14zM461 1515q0 24 19 43q17 19 42 19q27 0 45 -18t18 -44t-18 -44t-45 -18q-26 0 -43.5 17.5t-17.5 44.5zM507 1345q-2 17 9.5 33.5t36.5 24.5q23 7 46 -5.5t31 -37.5l21 -68q8 -27 -5 -48.5t-41 -29.5q-24 -7 -47 5.5t-30 37.5l-19 68q0 2 -1 9t-1 11zM593 1965
q0 19 12 37t36 25q9 2 19 2q48 0 59 -46l10 -44q7 -29 -6 -51.5t-39 -27.5q-24 -7 -47 6t-31 38l-10 44q-3 10 -3 17zM652 1748q0 24 19 43q18 18 42 18q27 0 44.5 -17.5t17.5 -43.5t-17.5 -43.5t-44 -17.5t-44 17.5t-17.5 43.5zM699 1578q-2 17 9.5 35t33.5 23
q26 7 47.5 -4.5t30.5 -42.5l21 -67q7 -24 -5.5 -46.5t-39.5 -30.5q-25 -8 -48 6t-31 40l-16 67q-2 9 -2 20zM905 1739q0 18 11.5 35.5t34.5 24.5q3 0 10 1.5t10 1.5q46 0 57 -49l10 -45q8 -24 -4.5 -47t-37.5 -31q-28 -7 -51 6t-31 39l-7 45q0 2 -1 8.5t-1 10.5zM960 1518
q0 25 19 43q17 18 43 18t43.5 -17.5t17.5 -43.5q0 -27 -17.5 -44.5t-44 -17.5t-44 17.5t-17.5 44.5zM1005 1345q0 19 12.5 36t36.5 24q3 0 10 1.5t10 1.5q11 0 27 -7q24 -13 31 -39l18 -68q7 -25 -5.5 -47t-38.5 -30q-26 -7 -47.5 4.5t-29.5 37.5l-21 68q0 3 -1.5 9t-1.5 9z
M1010 594q36 -65 98.5 -100.5t128.5 -34.5q11 0 23 2v24q-2 110 57.5 206.5t165.5 144.5q-21 46 -59 83q-104 -86 -241 -86h-23q-35 -145 -150 -239z" />
</svg>
