<?xml version="1.0" standalone="no"?>
<!DOCTYPE svg PUBLIC "-//W3C//DTD SVG 1.1//EN" "http://www.w3.org/Graphics/SVG/1.1/DTD/svg11.dtd" >
<svg xmlns="http://www.w3.org/2000/svg" xmlns:xlink="http://www.w3.org/1999/xlink" version="1.1" viewBox="-10 0 1655 2048">
   <path fill="currentColor"
d="M0 1205q0 125 74.5 224t192.5 132q10 2 18 -5l84 -105q-98 0 -169.5 -73t-71.5 -173q0 -94 63 -162.5t157 -76.5l37 -5q14 0 14 -14l6 -40q14 -122 105 -204t214 -82q122 0 213.5 82.5t105.5 203.5l4 43q0 13 14 13h121q99 0 170.5 71.5t71.5 170.5q0 95 -63 165.5
t-154 77.5q-51 7 -65 22l-174 217q-18 19 -14 47q2 26 23 43.5t42 17.5q26 0 48 -28l153 -193q69 -7 131 -39t106 -81t70 -114t26 -135q0 -98 -51 -183q91 -82 119 -196v-7l14 -57l-56 -20q-65 -19 -110 -62.5t-64.5 -91.5t-19.5 -98q0 -29 6 -60l15 -58l-63 -17q-1 0 -2 -1
t-2.5 -2t-3.5 -1.5l-2 -0.5q-49 -12 -94 -12q-42 1 -85 10.5t-90 30.5t-90.5 60.5t-74.5 92.5q-84 -36 -175 -36q-159 0 -281.5 98t-157.5 251q-127 30 -206 130t-79 230zM277 1801.5q0 14.5 5 23.5q9 24 32 34q24 11 49.5 2t34.5 -33q11 -24 1 -49.5t-34 -34.5
q-24 -11 -49 -1.5t-34 33.5q-5 11 -5 25.5zM415 1619v8q2 25 24 41q15 17 41 16.5t49 -23.5l174 -218q15 -20 12.5 -47t-22.5 -43t-47 -13t-43 25l-174 214q-14 17 -14 40zM458 2008q9 24 34 34q12 6 24 6q7 0 23 -5q24 -9 33 -33t0.5 -48t-32.5 -36q-25 -9 -47.5 0.5
t-33.5 32.5q-12 21 -1 49zM577 1809v7q2 25 23 43t42 18q25 0 45 -26l323 -400q16 -19 14 -46.5t-22 -43.5q-22 -16 -49 -13.5t-43 21.5l-319 401q-14 18 -14 39zM839 1892q0 13 5 25q9 25 35 35q26 9 46 1q24 -10 34 -34q11 -25 2.5 -48.5t-33.5 -34.5q-24 -9 -48.5 0
t-35.5 31q-5 14 -5 25zM1010 598q35 -65 97 -99t131 -32q13 0 20 1v22q0 109 59.5 206t163.5 146q-28 53 -59 84q-99 -88 -240 -88h-24q-33 -144 -148 -240z" />
</svg>
