<?xml version="1.0" standalone="no"?>
<!DOCTYPE svg PUBLIC "-//W3C//DTD SVG 1.1//EN" "http://www.w3.org/Graphics/SVG/1.1/DTD/svg11.dtd" >
<svg xmlns="http://www.w3.org/2000/svg" xmlns:xlink="http://www.w3.org/1999/xlink" version="1.1" viewBox="-10 0 1653 2048">
   <path fill="currentColor"
d="M0 1203q0 149 104.5 256.5t254.5 114.5q13 0 13 -13v-100q0 -13 -13 -13q-96 -5 -163.5 -76.5t-67.5 -168.5q0 -94 63 -163t157 -80l40 -3q15 0 15 -12l5 -41q12 -121 103 -203.5t213 -82.5t214 82.5t105 203.5l5 43q0 13 13 13h121q100 0 173.5 72t73.5 171
q0 97 -68 168.5t-164 76.5q-15 0 -15 13v100q0 13 15 13q150 -5 253.5 -113.5t103.5 -257.5q0 -99 -51 -184q90 -82 118 -195l11 -54q1 -1 1 -5q0 -9 -12 -12l-42 -14q-63 -18 -109 -61.5t-65 -92t-19 -96.5q-2 -25 6 -61l11 -46q5 -11 -11 -18l-59 -18q-50 -12 -94 -12
q-42 0 -85.5 10t-90 30.5t-90 59.5t-74.5 92q-93 -34 -175 -34q-158 0 -281 98.5t-158 251.5q-124 29 -204.5 130t-80.5 231zM415 1713q0 19 12.5 37t37.5 25q25 8 47.5 -3t29.5 -42l108 -438q7 -28 -6.5 -50.5t-39.5 -27.5q-25 -8 -47.5 4.5t-30.5 38.5l-108 440
q0 2 -1.5 7.5t-1.5 8.5zM610 1943q0 18 11.5 34.5t33.5 23.5q13 2 18 2q49 0 61 -44l168 -667q7 -28 -5 -49.5t-37 -28.5q-26 -8 -49.5 5t-29.5 38l-169 667q0 1 -1 8.5t-1 10.5zM921 1720q0 40 47 55q16 4 23 4q12 0 26 -5q23 -10 29 -44l107 -438q7 -27 -5.5 -49
t-37.5 -29q-26 -8 -49 4.5t-29 38.5l-107 440q-4 20 -4 23zM1010 595q35 -65 97 -99t132 -33q13 0 20 1v22q-1 109 57.5 205.5t165.5 147.5q-25 51 -59 80q-103 -85 -241 -85h-23q-31 -142 -149 -239z" />
</svg>
