<?xml version="1.0" standalone="no"?>
<!DOCTYPE svg PUBLIC "-//W3C//DTD SVG 1.1//EN" "http://www.w3.org/Graphics/SVG/1.1/DTD/svg11.dtd" >
<svg xmlns="http://www.w3.org/2000/svg" xmlns:xlink="http://www.w3.org/1999/xlink" version="1.1" viewBox="-10 0 1653 2048">
   <path fill="currentColor"
d="M0 1203q0 149 104 256.5t254 114.5q13 0 13 -13v-102q0 -13 -13 -13q-97 -8 -163.5 -77.5t-66.5 -165.5q0 -92 63 -161t157 -80l39 -5q14 0 14 -13l6 -39q12 -121 102.5 -202.5t212.5 -81.5t213 81.5t104 202.5l6 44q0 13 13 13h120q101 0 173.5 71t72.5 170
q0 96 -66.5 165.5t-164.5 77.5q-15 0 -15 13v102q0 13 15 13q149 -5 252.5 -113t103.5 -258q0 -97 -48 -181q91 -82 118 -196v-10l14 -58l-57 -16q-91 -27 -141.5 -101t-50.5 -152q0 -29 7 -58l15 -59l-64 -19l-10 -3q-53 -11 -93 -11q-42 0 -85.5 10t-90 31t-90 60
t-74.5 92q-83 -36 -177 -36q-158 0 -279.5 98t-154.5 251q-126 28 -207 128.5t-81 229.5zM404 1709q0 17 11 33.5t33 24.5q25 9 48 -3.5t31 -38.5l21 -79q8 -23 -5 -46t-39 -31q-25 -7 -48 6.5t-31 39.5l-18 75q-3 17 -3 19zM500 1355q0 13 8 27q8 20 40 29q27 7 49 -4.5
t30 -39.5l21 -77q8 -26 -5 -48t-38 -29q-28 -7 -50.5 5.5t-29.5 38.5l-21 76q-4 15 -4 22zM594 1942q0 19 11.5 37t34.5 25q12 4 17 4q9 0 28 -8q22 -9 32 -41l22 -79q8 -24 -5 -47t-38 -31q-28 -7 -50.5 6t-30.5 40l-19 76q-2 9 -2 18zM694 1586q0 17 11 33.5t34 24.5
q25 8 47.5 -4t30.5 -39l20 -78q8 -24 -4.5 -47t-36.5 -30q-27 -7 -50.5 6t-31.5 40l-18 75zM903 1718q0 42 48 56q10 2 18 2q17 0 27 -5q24 -9 33 -43l21 -76q7 -28 -6 -50t-40 -28q-26 -8 -48 5t-30 38l-20 78q0 3 -1.5 11t-1.5 12zM1007 1357q0 18 11.5 35t34.5 24
q16 3 18 3q9 0 28 -8q23 -9 33 -41l21 -78q7 -24 -6.5 -46.5t-40.5 -30.5q-24 -8 -46.5 5t-30.5 39l-19 79q-3 13 -3 19zM1010 598q35 -63 98.5 -98t135.5 -35h16q-1 10 -1 28q0 106 58.5 202t162.5 147q-25 48 -58 82q-105 -91 -244 -91h-23q-28 -132 -145 -235z" />
</svg>
