<?xml version="1.0" standalone="no"?>
<!DOCTYPE svg PUBLIC "-//W3C//DTD SVG 1.1//EN" "http://www.w3.org/Graphics/SVG/1.1/DTD/svg11.dtd" >
<svg xmlns="http://www.w3.org/2000/svg" xmlns:xlink="http://www.w3.org/1999/xlink" version="1.1" viewBox="-10 0 1648 2048">
   <path fill="currentColor"
d="M0 1202q0 149 104 256t254 115q13 0 13 -13v-100q0 -13 -13 -13q-96 -5 -163 -76.5t-67 -168.5q0 -93 63 -162t157 -80l39 -3q14 0 14 -13l6 -41q12 -121 102.5 -202.5t213.5 -81.5q122 0 214 82t104 202l5 43q0 14 13 14h122q99 0 171.5 72t72.5 170q0 97 -67 168.5
t-163 76.5q-14 0 -14 13v100q0 13 14 13q98 -3 180 -53.5t129.5 -135t47.5 -182.5t-51 -183q87 -83 115 -193l10 -54q2 -1 2 -5q0 -9 -12 -12l-43 -13q-64 -18 -109.5 -61t-64.5 -90.5t-19 -96.5q0 -32 8 -64l10 -45q3 -11 -10 -18l-60 -18q-50 -11 -94 -11q-41 0 -83.5 10
t-88.5 30t-89.5 58.5t-74.5 89.5q-92 -34 -175 -34q-158 0 -281 98.5t-158 251.5q-124 29 -204 129.5t-80 230.5zM444 1268q0 42 31 72.5t76 30.5t75 -30t30 -73q0 -29 -26 -76.5t-48 -73.5q-12 -14 -31 -32l-26 30q-30 33 -55.5 77.5t-25.5 74.5zM667 1565q0 74 51 124.5
t123 50.5q74 0 125 -51t51 -124q0 -61 -60 -149q-50 -65 -96 -111q-9 -6 -20 -17l-17 17q-44 40 -95 111q-27 37 -44.5 77.5t-17.5 71.5zM777 1067q0 29 21.5 49.5t52.5 20.5q28 0 48.5 -20.5t20.5 -49.5q0 -47 -69 -121l-19 20q-21 23 -38 52.5t-17 48.5zM1005 595
q40 -64 101 -96.5t128 -32.5q13 0 20 2v22q0 108 59 204.5t163 147.5q-17 42 -56 77q-103 -86 -239 -86h-25q-34 -147 -151 -238z" />
</svg>
