<?xml version="1.0" standalone="no"?>
<!DOCTYPE svg PUBLIC "-//W3C//DTD SVG 1.1//EN" "http://www.w3.org/Graphics/SVG/1.1/DTD/svg11.dtd" >
<svg xmlns="http://www.w3.org/2000/svg" xmlns:xlink="http://www.w3.org/1999/xlink" version="1.1" viewBox="-10 0 1651 2048">
   <path fill="currentColor"
d="M0 1202q0 124 74.5 221.5t192.5 133.5l-48 127q-5 15 10 15h158l-96 313h21l316 -421q4 -4 1 -9.5t-10 -5.5h-163l185 -347q8 -16 -10 -16h-221q-10 0 -17 11l-80 215q-80 -20 -132.5 -87t-52.5 -150q0 -93 63 -162t157 -80l39 -5q15 0 15 -14l6 -38q12 -121 102.5 -203
t213.5 -82q122 0 213.5 82.5t104.5 202.5l5 43q0 14 13 14h121q102 0 174 71t72 171q0 95 -67 165t-165 77q-14 0 -14 14v102q0 13 14 13q150 -5 254 -113t104 -258q0 -98 -49 -183q85 -83 112 -196l14 -51q1 -1 1 -5q0 -9 -11 -12l-46 -13q-65 -19 -109.5 -62.5t-63.5 -91
t-18 -94.5q0 -31 8 -64l8 -45q3 -11 -10 -18l-60 -18q-52 -10 -92 -10q-42 -1 -85 8.5t-88.5 30t-88 59t-73.5 89.5q-96 -34 -178 -34q-159 0 -281.5 98.5t-157.5 251.5q-124 29 -204.5 129.5t-80.5 230.5zM611 1939q0 17 11.5 34.5t34.5 24.5q17 4 20 4q10 0 27 -8
q23 -11 32 -39l21 -78q7 -25 -6 -47.5t-40 -30.5q-24 -7 -47 6t-31 40l-20 75zM711 1584q0 48 46 56q15 3 20 3q42 0 57 -47l23 -76q7 -25 -6.5 -47.5t-39.5 -30.5t-48.5 5t-30.5 40l-19 76q-2 9 -2 21zM921 1708q1 19 13 36.5t36 25.5q18 4 24 4q39 0 53 -50l19 -77
q7 -25 -5 -48.5t-37 -30.5q-28 -7 -51 6t-28 40l-22 77q0 3 -1 9t-1 8zM1009 595q37 -62 100 -96t132 -34h16v24q0 71 25 138.5t76 124t120 90.5q-19 42 -56 77q-103 -88 -241 -88h-24q-32 -141 -148 -236zM1024 1350q0 48 48 61q15 3 22 3q41 0 56 -48l21 -78v-16
q2 -19 -10 -37t-36 -25q-2 0 -8 -1t-9 -1q-18 0 -36 11.5t-25 35.5l-21 76q0 1 -1 8t-1 11z" />
</svg>
