<?xml version="1.0" standalone="no"?>
<!DOCTYPE svg PUBLIC "-//W3C//DTD SVG 1.1//EN" "http://www.w3.org/Graphics/SVG/1.1/DTD/svg11.dtd" >
<svg xmlns="http://www.w3.org/2000/svg" xmlns:xlink="http://www.w3.org/1999/xlink" version="1.1" viewBox="-10 0 1653 2048">
   <path fill="currentColor"
d="M0 1200q0 125 74.5 223t192.5 133l-49 127q-3 15 11 15h158l-72 262h21l292 -369q5 -6 1.5 -11t-10.5 -5h-163l185 -347q8 -16 -10 -16h-221q-10 0 -17 11l-80 215q-80 -20 -132.5 -87t-52.5 -151q0 -93 63 -162t157 -80l39 -6q15 0 15 -12l6 -39q12 -121 102.5 -203
t213.5 -82q121 0 213 82.5t106 202.5l4 44q0 13 14 13h121q102 0 174 71t72 171q0 96 -67.5 166t-164.5 78q-14 0 -14 12v103q0 13 14 13q98 -3 180.5 -53.5t129.5 -135t47 -183.5q0 -97 -49 -182q89 -85 117 -197l10 -54q2 -1 2 -5q0 -8 -12 -11l-42 -14
q-64 -18 -109.5 -61t-65 -92t-19.5 -99q0 -29 6 -59l11 -46q5 -11 -11 -18q-23 -9 -67 -19t-86 -10q-41 0 -83.5 10t-88.5 30.5t-89.5 59.5t-74.5 91q-93 -33 -178 -33q-159 0 -281.5 98t-157.5 251q-124 29 -204.5 130t-80.5 230zM605 1935q0 18 11 34.5t34 22.5q11 2 22 2
q45 0 57 -47l173 -657q7 -26 -5.5 -48.5t-37.5 -29.5q-26 -7 -48.5 5t-29.5 37l-174 660q-2 10 -2 21zM917 1709q0 18 11 34.5t35 23.5q3 0 11 1t13 1q42 0 53 -47l113 -432q7 -27 -6 -49t-38 -29q-26 -7 -48.5 4.5t-29.5 37.5l-112 435q-2 11 -2 20zM1010 593
q37 -64 99 -97.5t131 -33.5q14 0 20 1v23q0 108 58.5 204t162.5 148q-20 46 -59 79q-103 -88 -240 -88h-24q-31 -139 -148 -236z" />
</svg>
