<?xml version="1.0" standalone="no"?>
<!DOCTYPE svg PUBLIC "-//W3C//DTD SVG 1.1//EN" "http://www.w3.org/Graphics/SVG/1.1/DTD/svg11.dtd" >
<svg xmlns="http://www.w3.org/2000/svg" xmlns:xlink="http://www.w3.org/1999/xlink" version="1.1" viewBox="-10 0 1806 2048">
   <path fill="currentColor"
d="M0 1507q0 27 20 45q21 20 46 20h439q30 0 52 21.5t22 51.5q0 28 -22.5 50.5t-51.5 22.5q-28 0 -50 -23q-21 -20 -47 -20q-25 0 -43.5 19t-18.5 46t18 45q58 58 141 58q84 0 142 -58t58 -140q0 -84 -58.5 -142.5t-141.5 -58.5h-439q-27 0 -46.5 18.5t-19.5 44.5zM0 1282
q0 26 20 44q17 18 46 18h821q83 0 141.5 -58t58.5 -141t-58.5 -140.5t-141.5 -57.5q-85 0 -142 56q-16 19 -16 47q0 26 16.5 43.5t44.5 17.5t46 -17q21 -21 51 -21q29 0 50.5 21t21.5 51t-21.5 52t-50.5 22h-821q-27 0 -46.5 19t-19.5 44zM198 1107q0 9 13 9h107q9 0 16 -10
q25 -61 78 -101t119 -45l39 -5q14 0 14 -14l5 -37q12 -121 103 -202.5t214 -81.5t213 80.5t104 203.5l5 43q0 13 13 13h122q101 0 172.5 71t71.5 170q0 100 -71.5 171.5t-172.5 71.5h-517q-12 0 -12 13v102q0 13 12 13h517q100 0 185 -49.5t134.5 -135t49.5 -186.5
q0 -83 -32 -151q86 -112 86 -249q0 -80 -31 -152.5t-83.5 -124.5t-125.5 -83t-152 -31q-173 0 -290 130q-87 -46 -198 -46q-158 0 -280 98t-154 250q-96 23 -169.5 92.5t-102.5 162.5v3q-2 6 -2 7zM1209 612q81 -76 185 -76q110 0 188 78t78 187q0 68 -38 138
q-107 -107 -259 -107h-25q-26 -120 -129 -220z" />
</svg>
