<?xml version="1.0" standalone="no"?>
<!DOCTYPE svg PUBLIC "-//W3C//DTD SVG 1.1//EN" "http://www.w3.org/Graphics/SVG/1.1/DTD/svg11.dtd" >
<svg xmlns="http://www.w3.org/2000/svg" xmlns:xlink="http://www.w3.org/1999/xlink" version="1.1" viewBox="-10 0 1898 2048">
   <path fill="currentColor"
d="M0 1509q0 28 20 45q19 19 46 19h713q26 0 44 -19t18 -45.5t-18 -45.5t-44 -19h-713q-27 0 -46.5 19.5t-19.5 45.5zM197 1282q0 26 20 44q18 18 45 18h714q27 0 44.5 -17.5t17.5 -44t-18 -45t-44 -18.5h-714q-27 0 -46 19t-19 44zM282 1108q0 8 15 8h107q9 0 16 -10
q26 -61 79 -101t118 -45l41 -5q13 0 13 -14l6 -38q12 -121 103 -203t214.5 -82t214.5 81.5t103 203.5l6 43q0 14 13 14h121q102 0 174 71t72 171q0 99 -72 170.5t-174 71.5h-517q-12 0 -12 13v103q0 13 12 13h517q101 0 187 -49.5t136 -135t50 -186.5q0 -79 -33 -150
q86 -113 86 -246q0 -107 -52.5 -197.5t-143 -143t-197.5 -52.5q-171 0 -288 125q-95 -46 -203 -46q-104 0 -196 44t-155 124t-85 182q-98 22 -171 89.5t-102 162.5zM329 1740q0 26 19 43q18 19 45 19h715q26 0 44.5 -17.5t18.5 -44.5t-18.5 -46t-44.5 -19h-715
q-26 0 -45 19.5t-19 45.5zM1300 613q76 -73 185 -73q110 0 188 77.5t78 188.5q0 71 -37 132q-110 -107 -262 -107h-24q-27 -122 -128 -218z" />
</svg>
