<?xml version="1.0" standalone="no"?>
<!DOCTYPE svg PUBLIC "-//W3C//DTD SVG 1.1//EN" "http://www.w3.org/Graphics/SVG/1.1/DTD/svg11.dtd" >
<svg xmlns="http://www.w3.org/2000/svg" xmlns:xlink="http://www.w3.org/1999/xlink" version="1.1" viewBox="-10 0 1619 2048">
   <path fill="currentColor"
d="M0 1202q0 100 49 185t134 135t185 50h808q100 0 185 -50t135 -135t50 -185q0 -72 -32 -149q85 -104 85 -247q0 -107 -52 -197t-142 -142.5t-196 -52.5q-168 0 -290 131q-85 -49 -201 -49q-157 0 -278 97.5t-156 250.5q-125 28 -204.5 128t-79.5 230zM128 1202
q0 -93 62 -161t157 -79l51 -3l5 -54q15 -121 105 -202.5t210 -81.5q123 0 214 82t103 202l8 57h133q98 0 169.5 71t71.5 169q0 101 -71 173t-170 72h-808q-98 0 -169 -73t-71 -172zM1026 616q78 -74 183 -74q110 0 187.5 76.5t77.5 187.5q0 69 -38 137q-108 -107 -260 -107
h-23q-31 -125 -127 -220z" />
</svg>
