<?xml version="1.0" standalone="no"?>
<!DOCTYPE svg PUBLIC "-//W3C//DTD SVG 1.1//EN" "http://www.w3.org/Graphics/SVG/1.1/DTD/svg11.dtd" >
<svg xmlns="http://www.w3.org/2000/svg" xmlns:xlink="http://www.w3.org/1999/xlink" version="1.1" viewBox="-10 0 1628 2048">
   <path fill="currentColor"
d="M0 1202q0 149 104 256t254 115q13 0 13 -13v-100q0 -13 -13 -13q-96 -5 -163 -76.5t-67 -168.5q0 -93 63 -162t157 -80l39 -5q14 0 14 -14l6 -38q12 -121 102.5 -202.5t213.5 -81.5q122 0 214 82t104 202l5 44q0 13 13 13h122q101 0 172.5 71t71.5 171q0 97 -67 168.5
t-163 76.5q-14 0 -14 13v100q0 13 14 13q98 -3 180 -53.5t129.5 -135t47.5 -182.5q0 -83 -32 -150q88 -107 88 -248q0 -106 -53 -196.5t-143.5 -143t-195.5 -52.5q-175 0 -290 129q-92 -49 -203 -49q-158 0 -281 98.5t-158 251.5q-123 29 -203.5 129.5t-80.5 230.5z
M401 1723q10 25 35 34q22 12 46.5 2.5t33.5 -33.5q9 -25 0 -49t-33 -35q-22 -9 -45.5 0.5t-34.5 32.5q-11 19 -2 48zM448 1512q0 17 12 34t35 23q25 8 48 -4t32 -42l74 -232q8 -27 -6 -49.5t-41 -28.5q-25 -8 -47 4.5t-30 37.5l-74 238zM588 1931q0 7 4 21q11 25 34 34
q9 5 25 5q7 0 22 -4q25 -9 36 -34t-0.5 -49.5t-34 -34t-46.5 -0.5q-21 9 -30.5 27t-9.5 35zM643 1731q0 19 11.5 35.5t35.5 21.5q2 0 8.5 1t9.5 1q49 -3 61 -46l131 -453q8 -27 -4 -48.5t-38 -29.5t-48 4.5t-30 37.5l-135 453q0 3 -0.5 7.5t-1 8.5t-0.5 7zM900 1701
q0 11 4 24q9 23 34 32q11 5 27 5q13 0 22 -4q25 -10 34 -32q9 -25 0 -48.5t-31 -35.5q-25 -9 -49 0.5t-35 32.5q-6 12 -6 26zM954 1511q0 40 46 56q15 4 22 4q14 0 25 -6q20 -10 31 -42l73 -232q9 -26 -4 -48t-39 -30q-25 -8 -47 4.5t-30 37.5l-74 234q-3 20 -3 22z
M1031 613q77 -74 185 -74q109 0 186.5 78t77.5 187q0 69 -39 137q-110 -110 -260 -110h-25q-34 -129 -125 -218z" />
</svg>
