<?xml version="1.0" standalone="no"?>
<!DOCTYPE svg PUBLIC "-//W3C//DTD SVG 1.1//EN" "http://www.w3.org/Graphics/SVG/1.1/DTD/svg11.dtd" >
<svg xmlns="http://www.w3.org/2000/svg" xmlns:xlink="http://www.w3.org/1999/xlink" version="1.1" viewBox="-10 0 1622 2048">
   <path fill="currentColor"
d="M0 1205q0 73 28 140t76 115.5t114 79t139 33.5q14 0 14 -12v-101q0 -12 -14 -12q-97 -7 -163.5 -77t-66.5 -166q0 -94 63.5 -163.5t156.5 -77.5l39 -5q14 0 14 -13l6 -38q7 -80 51.5 -145.5t113.5 -102t151 -36.5q122 0 212.5 80.5t103.5 200.5l5 44q0 13 14 13h120
q101 0 173 71.5t72 171.5q0 96 -66.5 166t-163.5 77q-15 0 -15 12v101q0 12 15 12q150 -7 253 -113t103 -255q0 -72 -35 -154q89 -112 89 -245q0 -107 -53 -197t-143 -142.5t-196 -52.5q-178 0 -289 129q-91 -47 -199 -47q-158 0 -280.5 98t-157.5 252q-125 29 -204.5 129
t-79.5 230zM572 1550q-3 15 10 15h162l-99 312h22l313 -417q4 -5 1.5 -10t-10.5 -5h-163l172 -317q8 -16 -11 -16h-220q-8 0 -15 11zM1025 615q75 -74 185 -74t186.5 77t76.5 188q0 67 -38 135q-109 -105 -258 -105h-23q-33 -133 -129 -221z" />
</svg>
