<?xml version="1.0" standalone="no"?>
<!DOCTYPE svg PUBLIC "-//W3C//DTD SVG 1.1//EN" "http://www.w3.org/Graphics/SVG/1.1/DTD/svg11.dtd" >
<svg xmlns="http://www.w3.org/2000/svg" xmlns:xlink="http://www.w3.org/1999/xlink" version="1.1" viewBox="-10 0 1636 2048">
   <path fill="currentColor"
d="M0 1203q0 98 47.5 182t130.5 134.5t181 53.5q14 0 14 -12v-101q0 -13 -14 -13q-96 -5 -163.5 -76.5t-67.5 -167t63.5 -165t157.5 -77.5l39 -6q15 0 15 -12l5 -39q12 -123 103.5 -206t215.5 -83q121 0 213 82t105 204l5 44q0 12 14 12h121q101 0 173.5 72.5t72.5 173.5
q0 96 -68 167.5t-163 76.5q-15 0 -15 13v101q0 12 15 12q98 -3 180.5 -53.5t130 -134.5t47.5 -182q0 -81 -32 -150q90 -112 90 -252q0 -107 -52.5 -198t-143.5 -143.5t-197 -52.5q-84 0 -161 34.5t-133 95.5q-99 -48 -202 -48q-159 0 -282.5 98t-158.5 252q-126 32 -206 133
t-80 231zM399 1732q0 18 12 37t35 26q26 8 48 -2.5t29 -42.5l11 -45q6 -25 -7 -47t-39 -30q-25 -8 -47.5 5.5t-29.5 39.5l-11 45q-1 4 -1 14zM455 1515q0 24 19 43q18 19 42 19q27 0 45 -18t18 -44t-18 -44t-45 -18q-26 0 -43.5 17.5t-17.5 44.5zM501 1345q-1 17 10.5 33.5
t35.5 24.5q23 7 46.5 -5.5t30.5 -37.5l21 -68q9 -27 -4.5 -48.5t-40.5 -29.5q-25 -7 -47.5 5.5t-30.5 37.5l-18 68q0 2 -1.5 9t-1.5 11zM588 1965q0 19 11.5 37t35.5 25q10 2 19 2q48 0 59 -46l11 -44q7 -29 -6.5 -51.5t-39.5 -27.5q-24 -7 -47 6t-31 38l-10 44q-2 10 -2 17
zM646 1748q0 24 19 43q18 18 43 18q26 0 43.5 -17.5t17.5 -43.5t-17.5 -43.5t-44 -17.5t-44 17.5t-17.5 43.5zM693 1578q-1 17 10 35t33 23q26 7 48 -4.5t31 -42.5l20 -67q8 -24 -5 -46.5t-40 -30.5q-24 -8 -47 6t-31 40l-17 67q-2 9 -2 20zM899 1739q0 18 11.5 35.5
t34.5 24.5q4 0 10.5 1.5t9.5 1.5q46 0 57 -49l11 -45q7 -24 -5.5 -47t-37.5 -31q-28 -7 -51 6t-30 39l-7 45q0 2 -1.5 8.5t-1.5 10.5zM954 1518q0 25 19 43q17 18 43 18q27 0 44.5 -17.5t17.5 -43.5q0 -27 -17.5 -44.5t-44.5 -17.5t-44.5 17.5t-17.5 44.5zM1000 1345
q0 19 12 36t37 24q2 0 9 1.5t10 1.5q12 0 27 -7q24 -13 31 -39l18 -68q7 -25 -5.5 -47t-37.5 -30q-26 -7 -48 4.5t-29 37.5l-21 68q0 3 -1.5 9t-1.5 9zM1035 613q78 -78 188 -78t187 78t77 188q0 75 -37 138q-108 -108 -265 -108h-24q-32 -131 -126 -218z" />
</svg>
