<?xml version="1.0" standalone="no"?>
<!DOCTYPE svg PUBLIC "-//W3C//DTD SVG 1.1//EN" "http://www.w3.org/Graphics/SVG/1.1/DTD/svg11.dtd" >
<svg xmlns="http://www.w3.org/2000/svg" xmlns:xlink="http://www.w3.org/1999/xlink" version="1.1" viewBox="-10 0 1648 2048">
   <path fill="currentColor"
d="M0 1212q0 126 74.5 224.5t195.5 134.5q12 2 19 -6l85 -109q-100 0 -172.5 -71.5t-72.5 -172.5q0 -97 64 -168t160 -78l39 -6q12 0 12 -10l6 -42q13 -124 105 -206.5t216 -82.5t217 82t105 204l6 45q2 12 15 12h122q101 0 174 73.5t73 176.5q0 94 -64 164.5t-157 79.5
q-53 0 -68 21l-163 180q-18 20 -14.5 46t23.5 47q15 20 44 17.5t45 -28.5l146 -155q93 -9 170.5 -61.5t123 -134.5t45.5 -176q0 -71 -33 -156q87 -109 87 -248q0 -109 -53.5 -200.5t-145 -144.5t-199.5 -53q-176 0 -292 128q-97 -49 -207 -49q-161 0 -284 99.5t-158 256.5
q-128 29 -208.5 131t-80.5 236zM284 1772q0 16 3 24q9 24 33 33q25 11 51 1.5t34 -33.5q11 -25 1.5 -50.5t-34.5 -34.5t-49 0.5t-35 33.5q-4 9 -4 26zM421 1589q0 26 24 50q48 41 94 -11l164 -182q17 -20 13.5 -46t-23.5 -43q-20 -15 -47 -11.5t-44 21.5l-165 178
q-16 24 -16 44zM469 1958q0 13 6 24q10 25 31 34q13 6 27 6q9 0 24 -5q24 -10 33 -33q11 -23 1.5 -48t-33.5 -34q-25 -12 -48.5 -2t-36.5 35q-4 11 -4 23zM594 1779v10q2 27 24 45q16 20 44.5 17.5t44.5 -28.5l315 -367q18 -20 15 -47.5t-26 -42.5q-20 -16 -45.5 -14
t-42.5 22l-316 368q-13 14 -13 37zM865 1842q-7 25 0 46q10 24 34 36q12 6 27 6q7 0 22 -4q25 -10 34 -35q12 -25 2.5 -49t-33.5 -33q-25 -12 -49 -2.5t-37 35.5zM1045 614q76 -76 185 -76q112 0 191 78.5t79 191.5q0 70 -38 136q-110 -109 -266 -109h-24
q-28 -128 -127 -221z" />
</svg>
