<?xml version="1.0" standalone="no"?>
<!DOCTYPE svg PUBLIC "-//W3C//DTD SVG 1.1//EN" "http://www.w3.org/Graphics/SVG/1.1/DTD/svg11.dtd" >
<svg xmlns="http://www.w3.org/2000/svg" xmlns:xlink="http://www.w3.org/1999/xlink" version="1.1" viewBox="-10 0 1625 2048">
   <path fill="currentColor"
d="M0 1205q0 73 28 140t76 115.5t114 79t140 33.5q13 0 13 -12v-101q0 -12 -13 -12q-97 -7 -163.5 -77t-66.5 -166q0 -94 63 -164t157 -77l39 -5q14 0 14 -14l5 -37q12 -122 102.5 -203t213.5 -81t213.5 80t103.5 201l5 43q0 14 14 14h120q101 0 173 71.5t72 171.5
q0 96 -66.5 166t-163.5 77q-15 0 -15 12v101q0 12 15 12q149 -7 252.5 -113t103.5 -255q0 -81 -31 -149q87 -106 87 -251q0 -105 -52.5 -195.5t-143 -143t-195.5 -52.5q-174 0 -290 129q-99 -48 -202 -48q-158 0 -280.5 98.5t-157.5 252.5q-123 29 -203.5 129.5t-80.5 229.5
zM410 1704q0 44 48 58q23 7 47 -5t31 -37l112 -428q7 -25 -6.5 -47.5t-40.5 -30.5q-24 -7 -46.5 6t-29.5 39l-112 426q-3 12 -3 19zM604 1932q0 13 6 27q11 23 38 32q3 0 7.5 1t8.5 1.5t7 0.5q48 0 56 -49l172 -653q8 -25 -4.5 -47.5t-37.5 -30.5q-27 -7 -50.5 6t-28.5 39
l-172 653q-2 11 -2 20zM914 1703q0 17 12 34.5t34 24.5q7 2 17 2q19 0 36.5 -10.5t23.5 -33.5l112 -428q8 -24 -5 -47t-38 -31q-28 -7 -50 6t-27 39l-112 426q-3 12 -3 18zM1029 618q75 -75 185 -75t187 76.5t77 185.5q0 70 -39 138q-107 -107 -261 -107h-23
q-32 -131 -126 -218z" />
</svg>
