<?xml version="1.0" standalone="no"?>
<!DOCTYPE svg PUBLIC "-//W3C//DTD SVG 1.1//EN" "http://www.w3.org/Graphics/SVG/1.1/DTD/svg11.dtd" >
<svg xmlns="http://www.w3.org/2000/svg" xmlns:xlink="http://www.w3.org/1999/xlink" version="1.1" viewBox="-10 0 1627 2048">
   <path fill="currentColor"
d="M0 1204q0 74 28 140.5t76 115.5t114.5 79.5t140.5 33.5q13 0 13 -12v-101q0 -12 -13 -12q-96 -5 -163.5 -77t-67.5 -167t63 -164.5t157 -77.5l40 -5q11 0 11 -11l6 -40q13 -122 104.5 -204t214.5 -82q122 0 213.5 81t105.5 202l4 43q0 14 14 14h121q99 0 170.5 71.5
t71.5 172.5q0 95 -66.5 167t-161.5 77q-14 0 -14 12v101q0 12 14 12q150 -7 253.5 -113.5t103.5 -255.5q0 -72 -30 -149q84 -112 84 -246q0 -106 -53 -196.5t-143 -143.5t-196 -53q-172 0 -289 124q-97 -48 -202 -48q-159 0 -281.5 99t-156.5 253q-127 29 -206.5 128.5
t-79.5 231.5zM403 1708q0 19 11 36.5t36 25.5q12 6 27.5 5t30.5 -14.5t20 -35.5l21 -76q7 -28 -6 -50.5t-39 -27.5q-24 -8 -47 5t-31 38l-21 78q-2 9 -2 16zM501 1352q1 22 12.5 39t35.5 20q20 4 23 4q42 0 56 -49l22 -75q7 -26 -6 -49.5t-40 -31.5q-25 -7 -47.5 6t-30.5 39
l-22 79q-3 14 -3 18zM593 1942q0 20 12 37.5t36 24.5q16 4 21 4q10 0 28 -8q19 -9 29 -41l22 -76q7 -28 -6 -51t-39 -28q-25 -7 -48.5 6t-30.5 38l-21 78q-3 9 -3 16zM693 1584q0 19 12 36.5t36 24.5q26 8 48 -3t30 -42l21 -76q8 -28 -5 -49.5t-40 -26.5q-24 -9 -47.5 4
t-30.5 39l-21 77q-3 10 -3 16zM906 1714q-1 18 10.5 35t34.5 25l19 2q12 0 28 -6q24 -9 31 -41l21 -78q8 -26 -5 -48t-38 -30q-28 -7 -50 6.5t-27 39.5l-22 75q-2 19 -2 20zM1007 1355q0 20 12 37.5t36 22.5l19 2q48 0 60 -46l21 -77q7 -28 -6 -50.5t-40 -27.5q-26 -8 -48 5
t-29 40l-22 76q-3 13 -3 18zM1032 615q75 -72 183 -72q109 0 186 78t77 188q0 71 -35 132q-108 -108 -261 -108h-24q-27 -122 -126 -218z" />
</svg>
