<?xml version="1.0" standalone="no"?>
<!DOCTYPE svg PUBLIC "-//W3C//DTD SVG 1.1//EN" "http://www.w3.org/Graphics/SVG/1.1/DTD/svg11.dtd" >
<svg xmlns="http://www.w3.org/2000/svg" xmlns:xlink="http://www.w3.org/1999/xlink" version="1.1" viewBox="-10 0 1629 2048">
   <path fill="currentColor"
d="M0 1202q0 149 104.5 256.5t254.5 114.5q13 0 13 -12v-101q0 -12 -13 -12q-96 -6 -163.5 -77.5t-67.5 -168.5q0 -93 63 -162t157 -80l39 -3q15 0 15 -13l6 -41q12 -121 102.5 -203t213.5 -82q122 0 213.5 82t104.5 203l5 43q0 14 13 14h121q102 0 174 71t72 171
q0 97 -68 168.5t-164 77.5q-14 0 -14 12v101q0 12 14 12q150 -5 254 -113t104 -258q0 -80 -32 -150q88 -108 88 -248q0 -107 -52.5 -197.5t-143 -143t-196.5 -52.5q-174 0 -291 129q-90 -48 -202 -48q-159 0 -281.5 98.5t-157.5 251.5q-124 29 -204.5 129.5t-80.5 230.5z
M477 1509q0 25 18 43q19 19 44 19q26 0 43.5 -17.5t17.5 -44t-17.5 -44t-44 -17.5t-44 17.5t-17.5 43.5zM477 1780.5q0 26.5 18 43.5q19 18 44 18q26 0 43.5 -17.5t17.5 -44t-17.5 -45t-43.5 -18.5t-44 18.5t-18 45zM716 1651q0 26 19 46t43 20q26 0 45 -19.5t19 -46.5
q0 -25 -19 -43.5t-45 -18.5q-24 0 -43 18.5t-19 43.5zM716 1383q0 25 18 43t44 18q27 0 45.5 -17.5t18.5 -43.5t-18.5 -44.5t-45.5 -18.5q-25 0 -43.5 18.5t-18.5 44.5zM716 1926q0 26 18.5 44.5t43.5 18.5q26 0 45 -18.5t19 -44.5q0 -25 -19 -43.5t-45 -18.5
q-24 0 -43 18.5t-19 43.5zM958 1509q0 24 18 43q19 19 45 19t44 -17.5t18 -44t-18 -44t-44.5 -17.5t-44.5 17.5t-18 43.5zM958 1781q0 25 18 43t44.5 18t44.5 -17.5t18 -44t-18 -45t-44 -18.5t-44.5 18.5t-18.5 45.5zM1031 613q76 -75 186 -75t186.5 77.5t76.5 188.5
q0 66 -37 137q-108 -108 -262 -108h-23q-33 -130 -127 -220z" />
</svg>
