<?xml version="1.0" standalone="no"?>
<!DOCTYPE svg PUBLIC "-//W3C//DTD SVG 1.1//EN" "http://www.w3.org/Graphics/SVG/1.1/DTD/svg11.dtd" >
<svg xmlns="http://www.w3.org/2000/svg" xmlns:xlink="http://www.w3.org/1999/xlink" version="1.1" viewBox="-10 0 1629 2048">
   <path fill="currentColor"
d="M0 1202q0 149 104 256.5t255 114.5q12 0 12 -12v-103q0 -14 -12 -14q-98 -7 -165 -77t-67 -165t63.5 -164.5t157.5 -77.5l39 -5q14 0 14 -14l5 -37q12 -121 103 -203t215 -82q122 0 213.5 81.5t104.5 203.5l4 43q0 13 14 13h120q101 0 173.5 71t72.5 171q0 95 -66.5 165
t-164.5 77q-15 0 -15 14v103q0 12 15 12q150 -5 254 -113t104 -258q0 -83 -33 -150q89 -107 89 -251q0 -106 -53 -196.5t-143.5 -143.5t-196.5 -53q-171 0 -293 131q-93 -47 -199 -47q-159 0 -282 98t-157 252q-124 29 -204.5 129.5t-80.5 230.5zM444 1268q0 42 31.5 72.5
t76 30.5t75 -30t30.5 -73q0 -29 -26.5 -76.5t-49.5 -75.5q-2 -2 -13.5 -14.5t-16.5 -18.5l-26 31q-31 33 -56 78.5t-25 75.5zM667 1565q0 71 51.5 123t122.5 52q73 0 124.5 -52t51.5 -123q0 -30 -17.5 -72t-41.5 -77q-52 -67 -97 -112q-6 -5 -20 -18l-43 43
q-50 48 -90.5 117t-40.5 119zM777 1065q0 30 21 50t53 20q29 0 49.5 -20t20.5 -50q0 -46 -70 -121l-19 20q-21 22 -38 52t-17 49zM1031 613q75 -74 185 -74t187 76.5t77 185.5q0 71 -38 138q-112 -108 -262 -108h-23q-32 -132 -126 -218z" />
</svg>
