<?xml version="1.0" standalone="no"?>
<!DOCTYPE svg PUBLIC "-//W3C//DTD SVG 1.1//EN" "http://www.w3.org/Graphics/SVG/1.1/DTD/svg11.dtd" >
<svg xmlns="http://www.w3.org/2000/svg" xmlns:xlink="http://www.w3.org/1999/xlink" version="1.1" viewBox="-10 0 1628 2048">
   <path fill="currentColor"
d="M0 1199q0 123 74.5 222.5t192.5 134.5l-48 124q-5 15 10 15h158l-85 306h22l304 -411q5 -5 1.5 -10.5t-10.5 -5.5h-163l185 -349q9 -16 -10 -16h-221q-11 0 -14 10l-83 219q-80 -20 -132.5 -87.5t-52.5 -151.5q0 -94 63 -163.5t157 -78.5l39 -5q15 0 15 -12l6 -39
q12 -122 102.5 -203.5t213.5 -81.5t214 81.5t105 203.5l4 44q0 12 14 12h121q102 0 174 71.5t72 170.5q0 96 -67.5 166.5t-164.5 77.5q-14 0 -14 13v103q0 13 14 13q149 -5 253 -113.5t104 -259.5q0 -81 -30 -149q85 -112 85 -246q0 -80 -31.5 -152.5t-84 -125t-125.5 -83.5
t-152 -31q-83 0 -158.5 33.5t-130.5 93.5q-92 -49 -202 -49q-159 0 -281.5 97.5t-157.5 252.5q-124 28 -204.5 129t-80.5 230zM611 1937q0 19 12 38t34 23q2 0 6 0.5t7 1t6 0.5q48 -4 60 -46l21 -79q7 -24 -6.5 -47t-39.5 -31q-24 -7 -47 6.5t-31 40.5l-19 75q-3 17 -3 18z
M711 1580q0 17 11.5 34t34.5 25q25 8 47.5 -4t29.5 -39l23 -78q7 -28 -6 -50.5t-40 -27.5q-25 -8 -47.5 5t-31.5 40l-19 76q0 2 -0.5 6t-1 7t-0.5 6zM923 1701q0 21 12 39t35 24q17 4 20 4q44 0 57 -45l19 -79q7 -25 -4.5 -47t-37.5 -31q-28 -7 -51 7t-28 39l-21 75
q-1 5 -1 14zM1024 1347q0 18 12 35t37 26l19 2q14 0 28 -6q22 -12 30 -40l21 -77q7 -25 -6.5 -47.5t-39.5 -30.5q-25 -8 -47.5 5t-30.5 40l-21 76q-2 10 -2 17zM1032 611q74 -72 183 -72q110 0 187 77.5t77 187.5q0 71 -36 133q-111 -108 -261 -108h-24q-34 -130 -126 -218z
" />
</svg>
