<?xml version="1.0" standalone="no"?>
<!DOCTYPE svg PUBLIC "-//W3C//DTD SVG 1.1//EN" "http://www.w3.org/Graphics/SVG/1.1/DTD/svg11.dtd" >
<svg xmlns="http://www.w3.org/2000/svg" xmlns:xlink="http://www.w3.org/1999/xlink" version="1.1" viewBox="-10 0 1623 2048">
   <path fill="currentColor"
d="M0 1202q0 125 74.5 223t191.5 131l-48 125q-6 16 10 16h159l-78 313h21l296 -420q5 -5 1.5 -10.5t-10.5 -5.5h-163l185 -345q8 -16 -11 -16h-220q-9 0 -16 11l-80 214q-80 -20 -132 -85.5t-52 -150.5q0 -93 62.5 -161.5t156.5 -79.5l40 -3q13 0 13 -13l6 -40
q7 -79 51.5 -144.5t114 -103t150.5 -37.5q121 0 212 82t104 203l5 42q0 14 13 14h121q100 0 172.5 71.5t72.5 169.5q0 97 -67.5 168t-162.5 76q-15 0 -15 13v100q0 13 15 13q97 -3 179 -54t129 -135t47 -181q0 -82 -31 -150q87 -104 87 -247q0 -80 -31 -152t-83.5 -124.5
t-125 -83.5t-151.5 -31q-173 0 -289 129q-90 -48 -201 -48q-158 0 -280.5 97.5t-157.5 250.5q-123 29 -203.5 129.5t-80.5 229.5zM593 1940q0 19 10.5 35t34.5 23l19 2q46 0 59 -45l182 -664q7 -26 -5 -48t-37 -30q-26 -8 -48.5 4.5t-29.5 37.5l-183 665q-2 19 -2 20z
M902 1713q0 45 47 60l19 2q13 0 26 -6q23 -9 32 -41l122 -437q7 -26 -5.5 -48t-37.5 -30q-26 -8 -48.5 4.5t-29.5 37.5l-121 440q-4 16 -4 18zM1027 615q76 -72 185 -72t186 76.5t77 185.5q0 70 -38 138q-108 -108 -260 -108h-24q-31 -129 -126 -220z" />
</svg>
