<?xml version="1.0" standalone="no"?>
<!DOCTYPE svg PUBLIC "-//W3C//DTD SVG 1.1//EN" "http://www.w3.org/Graphics/SVG/1.1/DTD/svg11.dtd" >
<svg xmlns="http://www.w3.org/2000/svg" xmlns:xlink="http://www.w3.org/1999/xlink" version="1.1" viewBox="-10 0 1134 2048">
   <path fill="currentColor"
d="M0 816q0 -80 57 -137t137 -57q79 0 135.5 57t56.5 136.5t-56.5 137t-135.5 57.5q-80 0 -137 -57t-57 -137zM94 816q0 42 29 70q30 30 71 30t71 -30t30 -70.5t-30 -71t-71 -30.5q-42 0 -71 30t-29 72zM509 1288q0 122 68 218q36 50 99 80t143 30q234 0 293 -178
q6 -23 -6.5 -44t-35.5 -24q-23 -6 -43 7t-25 35q0 2 -2 6l-2 8q-18 30 -48 48q-50 30 -131 30q-50 0 -89 -18q-64 -26 -91 -94q-18 -44 -18 -104v-344q0 -24 3 -48q6 -62 48 -112q47 -55 147 -56q83 0 131 30q32 19 48 48q1 2 2.5 8l1.5 6q6 23 25 33.5t43 4.5
q23 -4 35.5 -24t6.5 -42v-2l-9 -24q-8 -18 -29.5 -46.5t-48.5 -47.5q-33 -24 -87.5 -40t-118.5 -16q-81 0 -143.5 29t-97.5 77q-69 95 -69 222v344z" />
</svg>
