<?xml version="1.0" standalone="no"?>
<!DOCTYPE svg PUBLIC "-//W3C//DTD SVG 1.1//EN" "http://www.w3.org/Graphics/SVG/1.1/DTD/svg11.dtd" >
<svg xmlns="http://www.w3.org/2000/svg" xmlns:xlink="http://www.w3.org/1999/xlink" version="1.1" viewBox="-10 0 1573 2048">
   <path fill="currentColor"
d="M0 1200q0 150 104.5 257.5t254.5 114.5q12 0 12 -13v-100q0 -13 -12 -13q-96 -5 -163.5 -76.5t-67.5 -169.5q0 -93 63 -162t157 -80l39 -2q15 0 15 -13l6 -41q11 -121 101.5 -202.5t214.5 -81.5q122 0 213.5 81.5t104.5 202.5l5 43q0 13 13 13h121q100 0 173 72t73 170
t-68 169.5t-164 76.5q-14 0 -14 13v100q0 13 14 13q98 -3 180.5 -54t130 -135t47.5 -183q0 -100 -50 -185t-135.5 -133.5t-186.5 -48.5h-24q-37 -150 -157.5 -246t-275.5 -96q-159 0 -281.5 98t-157.5 251q-123 29 -204 130.5t-81 229.5zM521 1314.5q0 26.5 18 45.5l193 194
q14 18 43 18q31 0 45 -18l195 -194q18 -20 18 -45q0 -26 -18.5 -43.5t-45 -17.5t-46.5 17l-84 83v-298q0 -27 -18.5 -44.5t-45.5 -17.5t-44.5 17.5t-17.5 44.5v298l-82 -83q-19 -17 -47 -17t-45.5 17t-17.5 43.5z" />
</svg>
