<?xml version="1.0" standalone="no"?>
<!DOCTYPE svg PUBLIC "-//W3C//DTD SVG 1.1//EN" "http://www.w3.org/Graphics/SVG/1.1/DTD/svg11.dtd" >
<svg xmlns="http://www.w3.org/2000/svg" xmlns:xlink="http://www.w3.org/1999/xlink" version="1.1" viewBox="-10 0 1571 2048">
   <path fill="currentColor"
d="M0 1203q0 74 28 141t76 115.5t114 78.5t140 34q13 0 13 -13v-99q0 -14 -13 -14q-97 -7 -163.5 -77t-66.5 -166q0 -94 63 -163.5t157 -77.5l39 -5q14 0 14 -13l6 -39q8 -79 51.5 -144.5t113.5 -102.5t150 -37q123 0 214.5 80.5t103.5 201.5l5 43q0 13 14 13h120
q101 0 173 72.5t72 171.5q0 96 -66.5 166t-163.5 77q-15 0 -15 14v99q0 13 15 13q150 -7 253.5 -113.5t103.5 -255.5q0 -100 -50.5 -185t-136 -135t-185.5 -50h-24q-37 -149 -157.5 -245t-275.5 -96q-157 0 -280 99t-158 253q-124 29 -204 129.5t-80 229.5zM465 1298
q0 83 42 154t113 113.5t154 42.5q128 0 220 -91.5t92 -218.5q0 -26 -19 -45t-45.5 -19t-46 19t-19.5 45q0 75 -53.5 129t-128.5 54t-128.5 -54t-53.5 -129q0 -67 40 -120t98 -57l-31 29q-17 17 -17 43q0 28 17 49q16 17 40 17.5t52 -17.5l136 -140q19 -19 19 -43
q0 -28 -19 -46l-136 -136q-21 -20 -46 -20q-26 0 -44.5 19t-18.5 45.5t17 43.5l26 27q-112 19 -186 104.5t-74 201.5z" />
</svg>
