<?xml version="1.0" standalone="no"?>
<!DOCTYPE svg PUBLIC "-//W3C//DTD SVG 1.1//EN" "http://www.w3.org/Graphics/SVG/1.1/DTD/svg11.dtd" >
<svg xmlns="http://www.w3.org/2000/svg" xmlns:xlink="http://www.w3.org/1999/xlink" version="1.1" viewBox="-10 0 1569 2048">
   <path fill="currentColor"
d="M0 1201q0 149 104 256.5t254 114.5q13 0 13 -13v-99q0 -14 -13 -14q-96 -5 -163 -76t-67 -169q0 -92 63 -161t157 -80h39q14 0 14 -13l5 -43q12 -121 103 -203t213 -82t213 82t104 203l6 43q0 13 13 13h120q100 0 173 72t73 169t-68 168.5t-163 76.5q-15 0 -15 14v99
q0 13 15 13q98 -3 180 -53.5t129 -135t47 -182.5q0 -75 -29.5 -143t-79 -117t-118.5 -78t-144 -29h-23q-37 -150 -157.5 -245.5t-275.5 -95.5q-158 0 -280.5 98.5t-157.5 250.5q-124 29 -204 129.5t-80 229.5zM519 1248q0 28 18 48q17 17 46 17q27 0 46 -17l83 -86v297
q0 27 17.5 46t44.5 19q25 0 44 -19t19 -46v-294l84 83q45 34 91 0q19 -17 19 -46q0 -27 -19 -47l-193 -192q-18 -18 -45 -18t-44 18l-193 192q-18 18 -18 45z" />
</svg>
