<?xml version="1.0" standalone="no"?>
<!DOCTYPE svg PUBLIC "-//W3C//DTD SVG 1.1//EN" "http://www.w3.org/Graphics/SVG/1.1/DTD/svg11.dtd" >
<svg xmlns="http://www.w3.org/2000/svg" xmlns:xlink="http://www.w3.org/1999/xlink" version="1.1" viewBox="-10 0 1158 2048">
   <path fill="currentColor"
d="M0 819q0 -80 57 -137.5t137 -57.5q79 0 135.5 57t56.5 137t-56.5 137.5t-135.5 58t-136.5 -57t-57.5 -137.5zM94 818q0 42 29 72q30 30 71 30t71 -30t30 -71t-30 -71t-71 -30q-42 0 -71 29t-29 71zM565 1554q0 22 16.5 39t39.5 17t39.5 -17t16.5 -39v-404h305
q23 0 39.5 -17t16.5 -41t-16 -40t-40 -16h-305v-290h408q23 0 38 -16.5t15 -40t-15 -40t-38 -15.5h-509q-11 0 -11 12v908z" />
</svg>
