<?xml version="1.0" standalone="no"?>
<!DOCTYPE svg PUBLIC "-//W3C//DTD SVG 1.1//EN" "http://www.w3.org/Graphics/SVG/1.1/DTD/svg11.dtd" >
<svg xmlns="http://www.w3.org/2000/svg" xmlns:xlink="http://www.w3.org/1999/xlink" version="1.1" viewBox="-10 0 1649 2048">
   <path fill="currentColor"
d="M0 1128q0 -30 20 -47q16 -16 47 -16h155q27 0 45 17.5t18 45.5q0 26 -18 45t-45 19h-155q-28 0 -47.5 -19t-19.5 -45zM69 1507q0 -26 20 -45q18 -18 46 -18h1360q28 0 46.5 18.5t18.5 45t-19 45.5t-46 19h-1360q-27 0 -46.5 -19t-19.5 -46zM222 598q0 -29 18 -44
q19 -21 46 -21q26 0 45 21l108 109q20 18 20 45q0 28 -18 46t-45 18q-25 0 -45 -19l-111 -110q-18 -15 -18 -45zM416 1128q0 97 40 174q4 11 18 11h125q8 0 10 -5t-5 -12q-60 -73 -60 -168q0 -112 80 -190.5t191 -78.5t190 78.5t79 190.5q0 96 -60 168q-4 7 -4 9q-1 3 2 5.5
t8 2.5h127q10 0 15 -11q42 -79 42 -174q0 -108 -54 -200t-146 -146t-199 -54t-199.5 54t-146 146t-53.5 200zM750 535v-156q0 -27 19 -46.5t45.5 -19.5t46.5 19.5t20 46.5v156q0 26 -20 46t-46.5 20t-45.5 -20t-19 -46zM1171 708q0 -27 18 -45l108 -109q19 -21 46 -21
q28 0 46.5 19t18.5 46q0 29 -17 45l-112 110q-19 17 -44 17q-28 1 -46 -16.5t-18 -45.5zM1345 1128q0 -31 18 -47q16 -16 44 -16h156q27 0 46.5 17.5t19.5 45.5q0 26 -19.5 45t-46.5 19h-156q-26 0 -44 -19t-18 -45z" />
</svg>
