<?xml version="1.0" standalone="no"?>
<!DOCTYPE svg PUBLIC "-//W3C//DTD SVG 1.1//EN" "http://www.w3.org/Graphics/SVG/1.1/DTD/svg11.dtd" >
<svg xmlns="http://www.w3.org/2000/svg" xmlns:xlink="http://www.w3.org/1999/xlink" version="1.1" viewBox="-10 0 1526 2048">
   <path fill="currentColor"
d="M0 1507q0 -30 21 -47q15 -17 47 -17h1370q28 0 48 18t20 46q0 26 -20 46t-48 20h-1370q-28 0 -48 -20t-20 -46zM147 887.5q0 -29.5 18 -47.5q19 -19 48 -19q26 0 45 19l112 112q20 21 20 47t-20 47q-17 20 -45.5 19.5t-47.5 -19.5l-112 -112q-18 -17 -18 -46.5zM366 1305
q-4 17 12 17h111q8 0 17 -12q34 -72 99.5 -114t146.5 -42t148.5 42t100.5 114q9 12 17 12h111q14 0 11 -17q-38 -127 -145.5 -206t-242.5 -79t-241.5 79t-144.5 206zM688 822v-160q0 -28 18 -47.5t46 -19.5t47 19.5t19 47.5v160q0 29 -19 48t-47 19t-46 -19.5t-18 -47.5z
M1115 999q0 -26 19 -47l115 -112q18 -19 47 -19q27 0 44.5 19t17.5 47q0 30 -18 47l-110 112q-19 19 -42 21q-26 2 -49.5 -19t-23.5 -49z" />
</svg>
