<?xml version="1.0" standalone="no"?>
<!DOCTYPE svg PUBLIC "-//W3C//DTD SVG 1.1//EN" "http://www.w3.org/Graphics/SVG/1.1/DTD/svg11.dtd" >
<svg xmlns="http://www.w3.org/2000/svg" xmlns:xlink="http://www.w3.org/1999/xlink" version="1.1" viewBox="-10 0 792 2048">
   <path fill="currentColor"
d="M19 809q-43 -91 12 -170q39 -56 119 -68l14 -3h16q108 4 159 98q24 43 12 98q-9 43 -32 78q-45 73 -100 123q-3 4 -8 6q-31 25 -64 2q-13 -8 -18 -14q-75 -77 -110 -150zM22 753q1 7 4 21q10 48 43.5 74t81.5 30q11 2 13 0t2 -14l-2 -19q-9 -50 -49 -73q-7 -5 -63 -28
q-8 -3 -20 -3t-10 12zM191 863q-1 12 2 14t14 1q10 -1 30 -5q39 -10 65 -42q21 -25 31 -78q2 -7 -0.5 -10t-10.5 -2q-22 2 -41 9q-84 31 -90 113zM211 1273q-42 -89 13 -170q39 -55 118 -68l14 -2h16q108 4 159 97q24 45 12 98q-8 42 -32 79q-44 71 -100 122q-6 5 -8 7
q-31 24 -64 2q-11 -7 -18 -15q-75 -78 -110 -150zM214 1218q1 4 2.5 11.5t1.5 8.5q11 48 44 74t81 31q11 0 13 -1.5t2 -13.5l-2 -18q-9 -51 -48 -74q-6 -4 -64 -28q-10 -3 -19 -3q-13 0 -11 13zM383 1327q-1 12 2 14t14 2l30 -6q38 -9 65 -43q21 -25 31 -76q2 -8 -0.5 -11
t-10.5 -2q-20 2 -41 9q-84 32 -90 113zM435 809q-42 -90 13 -170q39 -56 119 -68l13 -3h16q109 4 159 98q25 44 13 98q-9 41 -33 78q-45 73 -100 123q-4 4 -8 6q-31 25 -64 2q-13 -8 -18 -14q-74 -77 -110 -150zM438 753l5 21q10 48 43 74t81 30q11 2 13.5 -0.5t2.5 -13.5
l-3 -19q-9 -50 -48 -73q-6 -5 -64 -28q-8 -3 -19 -3q-13 0 -11 12zM607 863q-1 12 2 14t14 1q10 -1 30 -5q39 -10 66 -42q20 -25 30 -78q2 -7 -0.5 -10t-10.5 -2q-22 2 -40 9q-85 31 -91 113z" />
</svg>
