<?xml version="1.0" standalone="no"?>
<!DOCTYPE svg PUBLIC "-//W3C//DTD SVG 1.1//EN" "http://www.w3.org/Graphics/SVG/1.1/DTD/svg11.dtd" >
<svg xmlns="http://www.w3.org/2000/svg" xmlns:xlink="http://www.w3.org/1999/xlink" version="1.1" viewBox="-10 0 1864 2048">
   <path fill="currentColor"
d="M0 1503q0 25 19 42.5t46 17.5h1391q27 0 45.5 -17.5t18.5 -42.5q0 -27 -18.5 -45.5t-45.5 -18.5h-1391q-26 0 -45.5 19t-19.5 45zM195 1271q0 26 19 44q16 20 45 20h1390q26 0 43.5 -19t17.5 -45t-17.5 -43.5t-43.5 -17.5h-1390q-27 0 -45.5 17.5t-18.5 43.5zM206 1090
v-4q-5 17 9 17h108q6 0 14 -11q27 -58 79.5 -95.5t115.5 -41.5l40 -6q14 0 14 -13l5 -38q12 -120 102 -201t212 -81q120 0 210.5 80t102.5 200l5 42q0 14 16 14h118q72 0 131 38.5t88 101.5q7 11 16 11h106q13 0 11 -17q-25 -62 -34 -79q81 -73 112 -192l12 -49q3 -7 -1 -12
t-9 -5l-46 -16q-100 -29 -152 -118.5t-28 -191.5l10 -43q6 -11 -10 -18l-63 -17q-123 -30 -240.5 19.5t-184.5 158.5q-88 -34 -170 -34q-156 0 -277.5 98t-156.5 250q-95 22 -166 90t-99 163zM324 1731q0 26 20 44q19 20 44 20h1394q26 0 44 -19t18 -45t-18 -43.5t-44 -17.5
h-1394q-26 0 -45 17.5t-19 43.5zM1184 589q39 -64 105.5 -99t139.5 -28q-7 117 53 219t166 151q-17 39 -56 80q-103 -85 -235 -85h-24q-35 -147 -149 -238z" />
</svg>
