<?xml version="1.0" standalone="no"?>
<!DOCTYPE svg PUBLIC "-//W3C//DTD SVG 1.1//EN" "http://www.w3.org/Graphics/SVG/1.1/DTD/svg11.dtd" >
<svg xmlns="http://www.w3.org/2000/svg" xmlns:xlink="http://www.w3.org/1999/xlink" version="1.1" viewBox="-10 0 616 2048">
   <path fill="currentColor"
d="M0 853q0 -29 28.5 -76t54.5 -78l17.5 -20t11.5 -14l27 32q31 35 57 80.5t26 75.5q0 46 -32 79t-78 33t-79 -33t-33 -79zM233 1163q0 -32 18.5 -75t44.5 -80q52 -68 98 -114q5 -3 20 -18l19 18q43 42 99 114q29 38 46.5 80t17.5 75q0 77 -52.5 129.5t-129.5 52.5
q-76 0 -128.5 -53.5t-52.5 -128.5zM347 648q0 -49 75 -127l19 21q21 24 37.5 54.5t16.5 51.5q0 30 -21 51t-52 21q-32 0 -53.5 -21t-21.5 -51z" />
</svg>
