<?xml version="1.0" standalone="no"?>
<!DOCTYPE svg PUBLIC "-//W3C//DTD SVG 1.1//EN" "http://www.w3.org/Graphics/SVG/1.1/DTD/svg11.dtd" >
<svg xmlns="http://www.w3.org/2000/svg" xmlns:xlink="http://www.w3.org/1999/xlink" version="1.1" viewBox="-10 0 1851 2048">
   <path fill="currentColor"
d="M0 1087q0 -28 22 -52q26 -22 53 -22h174q30 0 50 22t20 52q0 32 -20 54t-50 22h-174q-30 0 -52.5 -23t-22.5 -53zM249 491q0 -30 19 -51q26 -22 53 -22q29 0 51 22l123 123q21 24 21 52q0 31 -20.5 52t-49.5 21q-27 0 -52 -21l-126 -122q-19 -23 -19 -54zM398 1500
q0 -32 22 -52q19 -19 51 -19h197l232 -219q12 -9 26 0l236 219h206q30 0 51.5 20.5t21.5 50.5t-21.5 51.5t-51.5 21.5h-253q-11 0 -21 -5l-180 -170l-179 170q-9 5 -21 5h-243q-30 0 -51.5 -21.5t-21.5 -51.5zM467 1087q0 109 47 198q2 13 18 13h141q9 0 11.5 -6.5
t-1.5 -13.5q-71 -87 -71 -191q0 -126 89.5 -214.5t215.5 -88.5t214.5 88.5t88.5 214.5q0 105 -71 191q-5 7 -2.5 13.5t11.5 6.5h142q15 0 18 -13q46 -87 46 -198q0 -91 -35.5 -173.5t-95.5 -142.5t-142.5 -95.5t-173.5 -35.5t-174 35.5t-143.5 95.5t-96.5 142.5t-36 173.5z
M843 418v-172q0 -32 21 -52.5t53 -20.5t52.5 21t20.5 52v172q0 32 -20.5 52.5t-52.5 20.5t-53 -20.5t-21 -52.5zM1317 615q0 -28 21 -52l121 -123q21 -22 52 -22t52 21.5t21 51.5q0 32 -19 54l-127 122q-23 21 -52 21q-30 0 -49.5 -20.5t-19.5 -52.5zM1513 1087
q0 -30 20 -52t49 -22h176q30 0 51.5 22t21.5 52q0 31 -21.5 53.5t-51.5 22.5h-176q-30 0 -49.5 -22t-19.5 -54z" />
</svg>
