<?xml version="1.0" standalone="no"?>
<!DOCTYPE svg PUBLIC "-//W3C//DTD SVG 1.1//EN" "http://www.w3.org/Graphics/SVG/1.1/DTD/svg11.dtd" >
<svg xmlns="http://www.w3.org/2000/svg" xmlns:xlink="http://www.w3.org/1999/xlink" version="1.1" viewBox="-10 0 964 2048">
   <path fill="currentColor"
d="M0 1577q0 -119 54.5 -221t153.5 -170v-920q0 -111 76.5 -188.5t187.5 -77.5q112 0 189 77.5t77 188.5v920q98 68 152 170t54 221q0 128 -63 236.5t-172 171.5t-237 63t-236.5 -63t-172 -171.5t-63.5 -236.5zM162 1577q0 129 91 220.5t219 91.5q129 0 222.5 -93t93.5 -219
q0 -87 -44.5 -160.5t-122.5 -114.5l-26 -13q-14 -6 -14 -27v-996q0 -45 -31 -74.5t-78 -29.5q-45 0 -77 29.5t-32 74.5v996q0 21 -13 27l-25 13q-76 41 -119.5 114t-43.5 161zM235 1577q0 99 67.5 168.5t163 69.5t166 -70t70.5 -168q0 -88 -60.5 -155t-146.5 -79v-680
q0 -9 -9 -18t-20 -9q-12 0 -19.5 7.5t-7.5 19.5v680q-85 12 -144.5 79t-59.5 155z" />
</svg>
