<?xml version="1.0" standalone="no"?>
<!DOCTYPE svg PUBLIC "-//W3C//DTD SVG 1.1//EN" "http://www.w3.org/Graphics/SVG/1.1/DTD/svg11.dtd" >
<svg xmlns="http://www.w3.org/2000/svg" xmlns:xlink="http://www.w3.org/1999/xlink" version="1.1" viewBox="-10 0 1060 2048">
   <path fill="currentColor"
d="M0 1069q0 50 52 85q94 67 286 67q86 0 159 -15q78 -17 127 -52.5t49 -84.5q0 -14 -5 -29q99 -25 156 -66.5t57 -95.5q0 -13 -4 -29q163 -58 163 -157q0 -63 -71 -112q-140 -93 -411 -93q-127 0 -231 23q-111 22 -180 71t-69 111q0 38 23 68q-85 49 -85 118q0 54 53 95
q-69 40 -69 96zM29 1285q0 52 64.5 82t162.5 30q100 0 165 -30t65 -82q0 -20 -12.5 -33.5t-32.5 -13.5q-16 0 -28.5 11.5t-15.5 27.5q-14 11 -53 20.5t-88 9.5q-79 0 -128 -22q11 -12 12.5 -29.5t-7.5 -29.5q-11 -15 -29 -18.5t-33 6.5q-42 28 -42 71zM90 1069l9 -8
q6 -6 26.5 -16t46.5 -17l5 -3q117 39 271 39q68 0 124 -8l12 11q-6 12 -30 24q-29 16 -89 27.5t-127.5 11.5t-128 -11.5t-89.5 -27.5q-24 -10 -30 -22zM95 1472q0 46 51.5 70.5t128.5 24.5t130 -24.5t53 -70.5q0 -18 -13.5 -32t-31.5 -14q-34 0 -44 34q-28 18 -94 18
q-58 0 -92 -18q-11 -34 -44 -34q-18 0 -31 13.5t-13 32.5zM105 878q0 -5 7 -13q18 -22 68 -42q138 73 378 73q123 0 231 -22v4q0 11 -13 22q-30 26 -110 49q-87 26 -218 26t-218 -26q-84 -23 -112 -49q-13 -11 -13 -22zM167 692q0 -12 17 -28q33 -30 128 -58
q103 -30 246 -30q145 0 248 30q97 28 129 58q16 17 16 28.5t-16 26.5q-32 30 -129 59q-103 30 -248 30q-143 0 -246 -30q-96 -28 -128 -59q-17 -15 -17 -27z" />
</svg>
