<?xml version="1.0" standalone="no"?>
<!DOCTYPE svg PUBLIC "-//W3C//DTD SVG 1.1//EN" "http://www.w3.org/Graphics/SVG/1.1/DTD/svg11.dtd" >
<svg xmlns="http://www.w3.org/2000/svg" xmlns:xlink="http://www.w3.org/1999/xlink" version="1.1" viewBox="-11 0 711 2048">
   <path fill="currentColor"
d="M0 778q-1 36 23.5 62t60.5 24q35 2 60 -24l113 -112v702q-1 36 24.5 60t62.5 24q35 1 61 -22.5t27 -59.5v-704l112 112q24 26 60 26q37 0 61.5 -24.5t24.5 -61.5q-2 -37 -27 -58l-255 -262q-25 -24 -63 -26q-38 1 -63 28l-256 260q-26 22 -26 56z" />
</svg>
