<?xml version="1.0" standalone="no"?>
<!DOCTYPE svg PUBLIC "-//W3C//DTD SVG 1.1//EN" "http://www.w3.org/Graphics/SVG/1.1/DTD/svg11.dtd" >
<svg xmlns="http://www.w3.org/2000/svg" xmlns:xlink="http://www.w3.org/1999/xlink" version="1.1" viewBox="-10 0 1554 2048">
   <path fill="currentColor"
d="M0 1024q0 -156 60.5 -298t163 -244t244 -163.5t297.5 -60.5q157 0 299 61t245 163t164 244.5t61 297.5q0 156 -61 298t-164 245.5t-245 163.5t-298 61q-155 0 -297 -60.5t-244.5 -163t-163.5 -245t-61 -299.5zM168 1024q0 162 80.5 300t218.5 217t299 79q121 0 232 -47.5
t191.5 -127t128 -190.5t47.5 -231q0 -245 -178 -422q-178 -176 -422 -176q-121 0 -231.5 48t-190.5 127.5t-127.5 191t-47.5 231.5zM435 1032q0 -7 12 -10l604 -250q11 -1 16.5 4.5t1.5 15.5l-248 604q-2 11 -11 12q-11 0 -16 -12l-103 -230q-9 -13 -14 -14l-230 -104
q-12 -5 -12 -16z" />
</svg>
