<?xml version="1.0" standalone="no"?>
<!DOCTYPE svg PUBLIC "-//W3C//DTD SVG 1.1//EN" "http://www.w3.org/Graphics/SVG/1.1/DTD/svg11.dtd" >
<svg xmlns="http://www.w3.org/2000/svg" xmlns:xlink="http://www.w3.org/1999/xlink" version="1.1" viewBox="-10 0 1557 2048">
   <path fill="currentColor"
d="M0 1028q0 -208 103.5 -385.5t280.5 -281t385 -103.5q156 0 298 61.5t245 164.5t164 245.5t61 298.5t-61 299t-164 245t-245 162.5t-298 61.5q-157 0 -299.5 -61.5t-245.5 -164.5t-163.5 -244t-60.5 -298zM169 1028q0 244 177 422t423 178q162 0 300 -81t219 -219t81 -300
t-81 -300t-219 -219t-300 -81t-300 81t-219 219t-81 300zM503 1286l256 -600q2 -10 10 -10t10 10l255 600q4 11 -1.5 17.5t-16.5 0.5l-237 -90q-10 -4 -20 0l-239 90q-10 6 -16 0t-1 -18z" />
</svg>
