<?xml version="1.0" standalone="no"?>
<!DOCTYPE svg PUBLIC "-//W3C//DTD SVG 1.1//EN" "http://www.w3.org/Graphics/SVG/1.1/DTD/svg11.dtd" >
<svg xmlns="http://www.w3.org/2000/svg" xmlns:xlink="http://www.w3.org/1999/xlink" version="1.1" viewBox="-10 0 1292 2048">
   <path fill="currentColor"
d="M0 872q0 -105 66 -188t168 -106q29 -126 129.5 -206.5t229.5 -80.5q127 0 226.5 79t128.5 201h20q126 0 215 87.5t89 213.5q0 67 -27.5 127t-76.5 103v2q0 66 -41.5 118.5t-104.5 66.5q-17 70 -68.5 118t-121.5 60q32 38 32 84q0 54 -38 93t-92 39t-92.5 -39t-38.5 -93
q0 -21 8 -42h-8q-65 0 -112 -47t-47 -112q0 -45 23 -80q-59 -32 -84 -93h-88h-1h-7v-1q-120 -8 -203.5 -95.5t-83.5 -208.5zM104 854q0 89 63.5 152t151.5 63q56 0 103 -25q13 84 77.5 139t151.5 55q97 0 166 -68q46 53 115 53q64 0 109 -45.5t45 -108.5q45 -30 71 -77.5
t26 -102.5q0 -89 -64 -151t-154 -62q-62 0 -114 33q7 -28 7 -59q0 -108 -77.5 -183.5t-186.5 -75.5q-105 0 -181.5 72.5t-79.5 177.5q-2 0 -6.5 -0.5t-7.5 -0.5q-88 0 -151.5 62.5t-63.5 151.5z" />
</svg>
