<?xml version="1.0" standalone="no"?>
<!DOCTYPE svg PUBLIC "-//W3C//DTD SVG 1.1//EN" "http://www.w3.org/Graphics/SVG/1.1/DTD/svg11.dtd" >
<svg xmlns="http://www.w3.org/2000/svg" xmlns:xlink="http://www.w3.org/1999/xlink" version="1.1" viewBox="-10 0 1167 2048">
   <path fill="currentColor"
d="M0 1179q0 -25 17.5 -41.5t47.5 -16.5h427q30 0 47.5 16.5t17.5 41.5q0 31 -17 48t-48 17h-427q-30 0 -47.5 -17t-17.5 -48zM0 737q0 -26 17.5 -42t47.5 -16h222q30 0 47.5 16t17.5 42q0 30 -17.5 47.5t-47.5 17.5h-222q-30 0 -47.5 -17.5t-17.5 -47.5zM74 1399
q0 -24 20.5 -44.5t44.5 -20.5q29 0 47 20t18 45q0 31 -17 48.5t-48 17.5q-25 0 -45 -18t-20 -48zM180 957q0 -26 16.5 -46t40.5 -20q29 0 47.5 20t18.5 46q0 30 -17.5 47.5t-48.5 17.5q-25 0 -41 -17.5t-16 -47.5zM254 1399q0 -25 18 -45t47 -20h287l66 65q0 30 -20 48
t-46 18h-287q-30 0 -47.5 -17.5t-17.5 -48.5zM352 957q0 -25 21 -45.5t45 -20.5h287q29 0 47 20t18 46q0 30 -17.5 47.5t-47.5 17.5h-287q-26 0 -46 -18t-20 -47zM409 737q0 -26 18 -42t48 -16h427q25 0 45.5 17t20.5 41q0 29 -20 47t-46 18h-427q-31 0 -48.5 -17.5
t-17.5 -47.5zM606 1179q0 -24 20.5 -41t45.5 -17t45.5 17t20.5 41q0 29 -20 47t-46 18t-46 -18t-20 -47zM721 1399q0 -25 18 -45t47 -20h140q29 0 47 19.5t18 45.5q0 31 -17.5 48.5t-47.5 17.5h-140q-30 0 -47.5 -17.5t-17.5 -48.5zM786 1179q0 -24 20.5 -41t45.5 -17h229
q25 0 41 16.5t16 41.5q0 30 -16 47.5t-41 17.5h-229q-26 0 -46 -18t-20 -47zM819 957q0 -25 20.5 -45.5t45.5 -20.5h146q24 0 41 20t17 46q0 30 -16 47.5t-42 17.5h-146q-26 0 -46 -18t-20 -47zM1024 737q0 -25 16.5 -41.5t40.5 -16.5q30 0 48 16t18 42q0 30 -18 47.5
t-48 17.5q-25 0 -41 -17.5t-16 -47.5z" />
</svg>
