<?xml version="1.0" standalone="no"?>
<!DOCTYPE svg PUBLIC "-//W3C//DTD SVG 1.1//EN" "http://www.w3.org/Graphics/SVG/1.1/DTD/svg11.dtd" >
<svg xmlns="http://www.w3.org/2000/svg" xmlns:xlink="http://www.w3.org/1999/xlink" version="1.1" viewBox="-10 0 1569 2048">
   <path fill="currentColor"
d="M0 1206q0 -130 79.5 -230.5t204.5 -130.5q35 -153 157.5 -251t280.5 -98q155 0 275.5 95.5t157.5 245.5h23q101 0 186.5 49.5t135 134.5t49.5 185q0 149 -103.5 256t-252.5 112q-15 0 -15 -13v-99q0 -14 15 -14q95 -4 163 -75.5t68 -166.5q0 -99 -72.5 -171.5
t-173.5 -72.5h-120q-13 0 -13 -12l-6 -44q-13 -121 -104 -203t-213 -82q-123 0 -213.5 82.5t-102.5 205.5l-5 37q0 14 -14 14l-39 5q-94 8 -157 77.5t-63 163.5q0 95 67.5 166.5t162.5 75.5q13 0 13 14v99q0 13 -13 13q-150 -5 -254 -112t-104 -256zM411 1781q0 -26 19 -45
q18 -16 43 -16q26 0 44 17.5t18 44t-18 44t-44 17.5t-44 -17.5t-18 -44.5zM476 1510q0 -25 17.5 -43.5t43.5 -18.5t44 18.5t18 43.5q0 27 -18 45.5t-44 18.5t-43.5 -18.5t-17.5 -45.5zM618 1928q0 -25 19 -46q18 -18 43 -18q26 0 45 19t19 45t-19 43.5t-45 17.5t-44 -17.5
t-18 -43.5zM682 1654q0 -26 19 -46q18 -18 43 -18q26 0 45 19t19 45t-18.5 45t-45.5 19q-25 0 -43.5 -19t-18.5 -45zM714 1384q0 -26 19 -45q19 -18 43 -18q26 0 45 18.5t19 44.5t-19 44t-45 18t-44 -18t-18 -44zM891 1781q0 -25 18 -45q19 -16 45.5 -16t44 17.5t17.5 44
t-17.5 44t-44 17.5t-45 -18t-18.5 -44zM955 1510q0 -24 19 -43t45 -19t43.5 18.5t17.5 43.5q0 27 -17.5 45.5t-43.5 18.5q-27 0 -45.5 -19t-18.5 -45z" />
</svg>
