<?xml version="1.0" standalone="no"?>
<!DOCTYPE svg PUBLIC "-//W3C//DTD SVG 1.1//EN" "http://www.w3.org/Graphics/SVG/1.1/DTD/svg11.dtd" >
<svg xmlns="http://www.w3.org/2000/svg" xmlns:xlink="http://www.w3.org/1999/xlink" version="1.1" viewBox="-10 0 1629 2048">
   <path fill="currentColor"
d="M0 1202q0 149 104.5 256.5t254.5 114.5q13 0 13 -12v-101q0 -12 -13 -12q-96 -6 -163.5 -77.5t-67.5 -168.5q0 -93 63 -162t157 -80l39 -3q15 0 15 -13l6 -41q12 -121 102.5 -203t213.5 -82q122 0 213.5 82t104.5 203l5 43q0 14 13 14h121q102 0 174 71t72 171
q0 97 -68 168.5t-164 77.5q-14 0 -14 12v101q0 12 14 12q150 -5 254 -113t104 -258q0 -80 -32 -150q88 -108 88 -248q0 -107 -52.5 -197.5t-143 -143t-196.5 -52.5q-174 0 -291 129q-90 -48 -202 -48q-159 0 -281.5 98.5t-157.5 251.5q-124 29 -204.5 129.5t-80.5 230.5z
M410 1778q0 24 18 43q20 18 44 18q26 0 43.5 -17.5t17.5 -43.5t-18 -43.5t-43.5 -17.5t-43.5 17.5t-18 43.5zM474 1507q0 27 18 46t44 19t44 -19t18 -46q0 -25 -18 -43t-44 -18t-44 18t-18 43zM616 1924q0 25 18 43q19 19 44 19q26 0 44.5 -17.5t18.5 -44t-19 -45.5t-44 -19
t-43.5 19t-18.5 45zM680 1651q0 24 19 45q18 18 42 18q27 0 46 -18t19 -45q0 -26 -19 -44.5t-46 -18.5q-25 0 -43 18.5t-18 44.5zM712 1382q0 25 18 43.5t44 18.5t44.5 -18t18.5 -44t-18.5 -44t-44.5 -18t-44 18t-18 44zM889 1778q0 24 18 43q19 18 44 18q27 0 44.5 -17.5
t17.5 -43.5t-17.5 -43.5t-44 -17.5t-44.5 18t-18 43zM953 1507q0 27 18 46t44 19t44 -19t18 -46q0 -25 -18 -43t-44 -18t-44 18t-18 43zM1031 613q76 -75 186 -75t186.5 77.5t76.5 188.5q0 66 -37 137q-108 -108 -262 -108h-23q-33 -130 -127 -220z" />
</svg>
