<?xml version="1.0" standalone="no"?>
<!DOCTYPE svg PUBLIC "-//W3C//DTD SVG 1.1//EN" "http://www.w3.org/Graphics/SVG/1.1/DTD/svg11.dtd" >
<svg xmlns="http://www.w3.org/2000/svg" xmlns:xlink="http://www.w3.org/1999/xlink" version="1.1" viewBox="-10 0 1653 2048">
   <path fill="currentColor"
d="M0 1205q0 148 104.5 256t254.5 113q13 0 13 -13v-100q0 -13 -13 -13q-96 -4 -163.5 -76t-67.5 -167.5t63 -164.5t157 -77l40 -6q15 0 15 -12l5 -39q12 -122 102.5 -205t213.5 -83q122 0 214 82.5t105 203.5l5 43q0 13 13 13h121q102 0 174.5 72t72.5 173q0 95 -68 167
t-164 76q-15 0 -15 13v100q0 13 15 13q99 -3 180.5 -53.5t129 -134.5t47.5 -181q0 -103 -48 -186q82 -74 113 -193l13 -54q1 -1 1 -5q0 -9 -12 -12l-45 -13q-49 -14 -87.5 -42.5t-60.5 -63t-33 -70.5t-11 -71q0 -30 8 -65l9 -46q2 -10 -11 -17l-59 -18q-50 -12 -94 -12
q-41 0 -83.5 10t-88.5 31t-88.5 60t-74.5 91q-90 -37 -178 -37q-158 0 -281 98.5t-158 251.5q-126 32 -205.5 132t-79.5 231zM413 1782q0 25 18.5 43.5t43.5 18.5q27 0 44.5 -17.5t17.5 -44.5t-17.5 -44.5t-44.5 -17.5t-44.5 17.5t-17.5 44.5zM445 1510q0 27 18 45.5
t44 18.5t44.5 -18.5t18.5 -45.5q0 -25 -18.5 -43.5t-44.5 -18.5t-44 18.5t-18 43.5zM621 1930q0 24 18 43q19 18 43 18q27 0 46 -17.5t19 -43.5q0 -27 -19 -46t-46 -19q-24 0 -42.5 19t-18.5 46zM668 1655.5q0 26.5 19 43.5q19 19 43 19q27 0 46 -18.5t19 -44.5t-19 -45.5
t-46 -19.5q-24 0 -43 19.5t-19 46zM717 1383q0 27 18 44q18 18 43 18q28 0 46.5 -17.5t18.5 -44.5q0 -26 -19 -44.5t-46 -18.5q-25 0 -43 18.5t-18 44.5zM895 1782q0 25 18 43.5t45 18.5q26 0 43.5 -18t17.5 -44q0 -27 -17.5 -44.5t-44 -17.5t-44.5 17.5t-18 44.5zM926 1510
q0 26 19 45t45 19t44 -18.5t18 -45.5q0 -25 -18 -43.5t-44 -18.5t-45 19t-19 43zM1010 595q35 -61 97 -94t128 -35q16 0 24 2v23q0 108 58.5 204.5t162.5 146.5q-18 41 -57 80q-99 -88 -241 -88h-23q-31 -138 -149 -239z" />
</svg>
