<?xml version="1.0" standalone="no"?>
<!DOCTYPE svg PUBLIC "-//W3C//DTD SVG 1.1//EN" "http://www.w3.org/Graphics/SVG/1.1/DTD/svg11.dtd" >
<svg xmlns="http://www.w3.org/2000/svg" xmlns:xlink="http://www.w3.org/1999/xlink" version="1.1" viewBox="-10 0 2040 2048">
   <path fill="currentColor"
d="M0 1201q0 126 74.5 224.5t193.5 131.5l-49 127q-6 16 10 16h159l-106 315h21l326 -424q4 -4 1.5 -9.5t-10.5 -5.5h-164l186 -348q9 -16 -10 -16h-221q-11 0 -18 12l-80 215q-80 -21 -132.5 -87t-52.5 -151q0 -94 63 -163t157 -80l38 -2q13 0 17 -11l5 -44
q12 -121 103 -203.5t214 -82.5q122 0 214 82.5t105 203.5l6 44q0 13 13 13h120q101 0 173 72t72 171q0 98 -67 169.5t-163 76.5q-15 0 -15 13v101q0 12 15 12q99 -3 181.5 -53.5t130 -135t47.5 -183.5q0 -82 -32 -150q85 -108 85 -246q0 -107 -53 -197.5t-143.5 -143.5
t-197.5 -53q-80 0 -156 33.5t-132 93.5q-90 -49 -203 -49q-159 0 -282 98.5t-157 252.5q-124 28 -205 130t-81 231zM589 1965q0 19 12 37t37 25q9 2 18 2q48 0 59 -46l10 -44q7 -29 -6 -51.5t-39 -27.5q-24 -7 -47 6t-31 38l-10 44q-3 13 -3 17zM629 283q0 26 19 44l48 49
q18 18 42 20q23 4 45.5 -16.5t22.5 -47.5q0 -26 -19 -45l-47 -49q-18 -18 -45 -18q-28 0 -47 18t-19 45zM648 1748q0 25 18.5 43t43.5 18q26 0 43.5 -17.5t17.5 -43.5t-17.5 -43.5t-44 -17.5t-44 17.5t-17.5 43.5zM694 1578q-1 17 10.5 35t33.5 23q26 7 48 -4.5t31 -42.5
l20 -67q7 -24 -6 -46.5t-39 -30.5q-25 -8 -48 6t-31 40l-17 67q-2 9 -2 20zM901 1739q0 18 11 35.5t35 24.5q3 0 10 1.5t11 1.5q45 0 56 -49l11 -45q8 -24 -5 -47t-39 -31q-28 -7 -50.5 6t-30.5 39l-7 45q0 1 -1 8t-1 11zM956 1518q0 26 19 43q16 18 43 18t44.5 -17.5
t17.5 -43.5q0 -27 -17.5 -44.5t-44.5 -17.5t-44.5 17.5t-17.5 44.5zM1033 613q75 -72 183 -72q110 0 187.5 77t77.5 187q0 73 -35 135q-108 -108 -263 -108h-23q-33 -133 -127 -219zM1153 220q0 26 18.5 45t45 19t44.5 -18.5t18 -45.5v-155q0 -27 -18 -45.5t-44.5 -18.5
t-45 19t-18.5 45v155zM1569 390.5q0 27.5 18 44.5q15 18 41 19.5t47 -19.5l108 -108q20 -18 20 -44.5t-20 -44.5q-18 -20 -45 -20q-26 0 -43 20l-108 108q-18 17 -18 44.5zM1628 1281q0 26 19 45l48 47q20 19 46 19l2 1q24 0 40 -20q20 -18 20 -45q0 -26 -20 -46l-46 -46
q-20 -20 -46 -20t-44.5 19t-18.5 46zM1737 805q0 27 20 44q17 19 44 19h155q26 0 45 -18.5t19 -45t-18.5 -44.5t-45.5 -18h-155q-27 0 -45.5 18t-18.5 45z" />
</svg>
