<?xml version="1.0" standalone="no"?>
<!DOCTYPE svg PUBLIC "-//W3C//DTD SVG 1.1//EN" "http://www.w3.org/Graphics/SVG/1.1/DTD/svg11.dtd" >
<svg xmlns="http://www.w3.org/2000/svg" xmlns:xlink="http://www.w3.org/1999/xlink" version="1.1" viewBox="-10 0 1651 2048">
   <path fill="currentColor"
d="M0 1202q0 124 74.5 221.5t192.5 133.5l-48 127q-5 15 10 15h158l-96 313h21l316 -421q4 -4 1 -9.5t-10 -5.5h-163l185 -347q8 -16 -10 -16h-221q-10 0 -17 11l-80 215q-80 -20 -132.5 -87t-52.5 -150q0 -93 63 -162t157 -80l39 -5q15 0 15 -14l6 -38q12 -121 102.5 -203
t213.5 -82q122 0 213.5 82.5t104.5 202.5l5 43q0 14 13 14h121q102 0 174 71t72 171q0 95 -67 165t-165 77q-14 0 -14 14v102q0 13 14 13q150 -5 254 -113t104 -258q0 -98 -49 -183q85 -83 112 -196l14 -51q1 -1 1 -5q0 -9 -11 -12l-46 -13q-65 -19 -109.5 -62.5t-63.5 -91
t-18 -94.5q0 -31 8 -64l8 -45q3 -11 -10 -18l-60 -18q-52 -10 -92 -10q-42 -1 -85 8.5t-88.5 30t-88 59t-73.5 89.5q-96 -34 -178 -34q-159 0 -281.5 98.5t-157.5 251.5q-124 29 -204.5 129.5t-80.5 230.5zM589 1965q0 19 12 37t37 25q9 2 18 2q48 0 59 -46l10 -44
q7 -29 -6 -51.5t-39 -27.5q-24 -7 -47 6t-31 38l-10 44q-3 13 -3 17zM648 1748q0 25 18.5 43t43.5 18q26 0 43.5 -17.5t17.5 -43.5t-17.5 -43.5t-44 -17.5t-44 17.5t-17.5 43.5zM694 1578q-1 17 10.5 35t33.5 23q26 7 48 -4.5t31 -42.5l20 -67q7 -24 -6 -46.5t-39 -30.5
q-25 -8 -48 6t-31 40l-17 67q-2 9 -2 20zM901 1739q0 18 11 35.5t35 24.5q3 0 10 1.5t11 1.5q45 0 56 -49l11 -45q8 -24 -5 -47t-39 -31q-28 -7 -50.5 6t-30.5 39l-7 45q0 1 -1 8t-1 11zM956 1518q0 26 19 43q16 18 43 18t44.5 -17.5t17.5 -43.5q0 -27 -17.5 -44.5
t-44.5 -17.5t-44.5 17.5t-17.5 44.5zM1009 595q37 -62 100 -96t132 -34h16v24q0 71 25 138.5t76 124t120 90.5q-19 42 -56 77q-103 -88 -241 -88h-24q-32 -141 -148 -236z" />
</svg>
