<?xml version="1.0" standalone="no"?>
<!DOCTYPE svg PUBLIC "-//W3C//DTD SVG 1.1//EN" "http://www.w3.org/Graphics/SVG/1.1/DTD/svg11.dtd" >
<svg xmlns="http://www.w3.org/2000/svg" xmlns:xlink="http://www.w3.org/1999/xlink" version="1.1" viewBox="-10 0 1651 2048">
   <path fill="currentColor"
d="M0 1202q0 124 74.5 221.5t192.5 133.5l-48 127q-5 15 10 15h158l-96 313h21l316 -421q4 -4 1 -9.5t-10 -5.5h-163l185 -347q8 -16 -10 -16h-221q-10 0 -17 11l-80 215q-80 -20 -132.5 -87t-52.5 -150q0 -93 63 -162t157 -80l39 -5q15 0 15 -14l6 -38q12 -121 102.5 -203
t213.5 -82q122 0 213.5 82.5t104.5 202.5l5 43q0 14 13 14h121q102 0 174 71t72 171q0 95 -67 165t-165 77q-14 0 -14 14v102q0 13 14 13q150 -5 254 -113t104 -258q0 -98 -49 -183q85 -83 112 -196l14 -51q1 -1 1 -5q0 -9 -11 -12l-46 -13q-65 -19 -109.5 -62.5t-63.5 -91
t-18 -94.5q0 -31 8 -64l8 -45q3 -11 -10 -18l-60 -18q-52 -10 -92 -10q-42 -1 -85 8.5t-88.5 30t-88 59t-73.5 89.5q-96 -34 -178 -34q-159 0 -281.5 98.5t-157.5 251.5q-124 29 -204.5 129.5t-80.5 230.5zM717 1655q0 28 18 44q18 19 43 19q27 0 46 -18.5t19 -44.5
t-19 -45.5t-46 -19.5q-24 0 -42.5 19.5t-18.5 45.5zM717 1383q0 27 18 44q18 18 43 18q28 0 46.5 -17.5t18.5 -44.5q0 -26 -19 -44.5t-46 -18.5q-25 0 -43 18.5t-18 44.5zM717 1930q0 24 18 43q19 18 43 18q27 0 46 -17.5t19 -43.5q0 -27 -19 -46t-46 -19q-24 0 -42.5 19
t-18.5 46zM958 1510q0 27 19 45.5t44.5 18.5t43.5 -18.5t18 -45.5q0 -25 -18 -43.5t-43.5 -18.5t-44.5 18.5t-19 43.5zM958 1782q0 25 18.5 43.5t45 18.5t44 -18t17.5 -44q0 -27 -17.5 -44.5t-44 -17.5t-45 17.5t-18.5 44.5zM1009 595q37 -62 100 -96t132 -34h16v24
q0 71 25 138.5t76 124t120 90.5q-19 42 -56 77q-103 -88 -241 -88h-24q-32 -141 -148 -236z" />
</svg>
