<?xml version="1.0" standalone="no"?>
<!DOCTYPE svg PUBLIC "-//W3C//DTD SVG 1.1//EN" "http://www.w3.org/Graphics/SVG/1.1/DTD/svg11.dtd" >
<svg xmlns="http://www.w3.org/2000/svg" xmlns:xlink="http://www.w3.org/1999/xlink" version="1.1" viewBox="-10 0 1179 2048">
   <path fill="currentColor"
d="M0 1405q0 -15 1 -22v-6v-4v-3.5t0.5 -3.5t0.5 -3v-1q0 -4 1.5 -9t1.5 -7v-2q0 -1 0.5 -3.5l0.5 -2.5l6 -28l1 -1v-1l2 -11l1 -1l1 -2v-2q4 -14 8 -21q0 -1 1 -3q1 -1 3 -11q19 -43 47 -80l5 -6q0 -1 1.5 -3t2.5 -3q0 -1 5 -4q0 -2 2.5 -4t2.5 -4q4 -3 5 -6q2 0 5 -4l5 -6
l568 -622l-28 164l509 -545l-313 608l313 -236l-283 568l202 -139l-349 623l-1.5 2.5t-2.5 4.5q-1 0 -1.5 2.5t-1.5 3.5q0 1 -1 3.5t-2 3.5q-48 94 -138.5 150.5t-200.5 56.5q-103 0 -190.5 -51t-138.5 -138.5t-51 -190.5zM90 1405q0 121 85 206t205 85q92 0 166.5 -53
t105.5 -138q19 -47 19 -100q0 -120 -85 -205t-206 -85q-112 0 -194 75q-45 40 -70.5 96t-25.5 119z" />
</svg>
