<?xml version="1.0" standalone="no"?>
<!DOCTYPE svg PUBLIC "-//W3C//DTD SVG 1.1//EN" "http://www.w3.org/Graphics/SVG/1.1/DTD/svg11.dtd" >
<svg xmlns="http://www.w3.org/2000/svg" xmlns:xlink="http://www.w3.org/1999/xlink" version="1.1" viewBox="-10 0 1644 2048">
   <path fill="currentColor"
d="M0 1042q0 -27 20 -45q19 -19 47 -19h154q26 0 44.5 18.5t18.5 45.5q0 28 -18.5 47t-44.5 19h-154q-28 0 -47.5 -19t-19.5 -47zM219 518q0 -26 18 -46q21 -19 49 -19q24 0 44 19l109 110q19 18 19 45t-19 45.5t-45 18.5q-28 0 -45 -19l-112 -108q-18 -19 -18 -46z
M413 1042q0 -79 32 -152.5t85.5 -126t127 -84.5t153.5 -32q108 0 199.5 53.5t145 144.5t53.5 197q0 17 -2 32q-32 -19 -73 -19q-27 0 -54 11q1 -8 1 -24q0 -109 -79 -186.5t-191 -77.5q-110 0 -189 77.5t-79 186.5v13q-33 3 -63 19q-1 1 -8 6l-14 10t-17.5 14t-19.5 18
q-8 -36 -8 -80zM415 1315v-11q0 -10 2 -24q5 -40 31 -77q15 -18 21 -23q0 -2 2.5 -4t2.5 -3q3 -1 9 -8q3 -2 6.5 -5t5.5 -4q5 -6 10 -8l13 -9q16 -10 37 -10h2q11 0 20 2q3 1 9 5v1q17 7 26 21t9 31q0 19 -10 32q-7 10 -17 17q-2 1 -4.5 2.5t-3.5 1.5l-4 3q-4 3 -7 6l-8 8
t-8.5 10t-6.5 11.5t-4 13.5v9v2q4 17 8 26q8 16 26 33q1 3 18 19q96 88 90 187q-2 34 -15.5 65t-32 52.5t-29.5 32t-19 15.5q-1 1 -4.5 3.5t-5.5 2.5q-9 5 -16 5q-10 2 -14 2q-34 0 -54 -23q-16 -19 -13 -43.5t24 -40.5l2 -1q1 -2 3 -3.5t5.5 -4.5t6.5 -6.5t6 -7.5t6.5 -8.5
t6.5 -10t5 -11.5t3.5 -12.5t1.5 -12.5q2 -23 -11 -45q-6 -12 -17 -25q-8 -9 -11 -12q-11 -12 -11 -13q-3 -1 -6 -4l-4 -4q-17 -15 -25 -26q-14 -18 -19 -24q-21 -29 -29 -58q-5 -16 -6 -24q0 -2 -1.5 -6t-1.5 -7zM706 1290v-10q3 -25 15 -48.5t26.5 -39.5t28 -28.5
t23.5 -18.5l9 -6q17 -10 37 -10q13 0 22 2q1 0 4 2t5 3q1 0 2 1q1 0 6 3q22 14 28 41v5v3q0 4 -1.5 9t-1.5 7q-7 25 -31 37q-37 24 -39 52q-1 9 0 16q2 13 12 29q13 18 19 24q17 18 21 20q14 13 35 38q61 73 55 149q-2 34 -16 65.5t-32 52t-30 32t-19 15.5l-9 6q-12 5 -15 5
q-13 2 -15 2h-2q-9 0 -14 -2q-2 0 -6 -1t-5 -1t-2.5 -0.5t-3 -1.5l-1.5 -1q-17 -12 -20 -16q-17 -20 -13.5 -44t24.5 -40l2 -3q3 -2 7 -5.5t9 -8.5t9.5 -12t8.5 -14.5t6.5 -16.5t3.5 -18q1 -45 -52 -95q-21 -19 -33 -32q-62 -74 -57 -146zM746 456v-154q0 -28 19.5 -47
t45.5 -19q28 0 47 19t19 47v154q0 27 -19 44.5t-47 17.5q-26 0 -45.5 -17.5t-19.5 -44.5zM997 1280q3 -25 15 -48.5t26 -39.5t28 -28.5t23 -18.5l10 -6q2 -2 7 -5q13 -5 28 -5q38 0 58 29q5 7 8 17q1 2 1 6v8q0 35 -34 53q-35 24 -39 52q-4 37 51 89q98 87 92 187
q-2 34 -15.5 65t-32.5 52.5t-29.5 32t-18.5 15.5q-18 11 -31 12q-3 1 -11 1q-34 0 -52 -23q-17 -19 -14 -43.5t24 -40.5q3 -1 13 -10t21.5 -29t13.5 -39q2 -45 -53 -95q-46 -41 -70 -87q-25 -49 -19 -101zM1168 627q0 -28 17 -45l109 -110q20 -19 46 -19t45.5 19t19.5 46
q0 28 -20 46l-111 108q-20 19 -45 19q-26 0 -43.5 -18.5t-17.5 -45.5zM1340 1042q0 -24 20 -45q17 -19 43 -19h155q26 0 46 19t20 45q0 27 -19.5 46.5t-46.5 19.5h-155q-27 0 -45 -19t-18 -47z" />
</svg>
