<?xml version="1.0" standalone="no"?>
<!DOCTYPE svg PUBLIC "-//W3C//DTD SVG 1.1//EN" "http://www.w3.org/Graphics/SVG/1.1/DTD/svg11.dtd" >
<svg xmlns="http://www.w3.org/2000/svg" xmlns:xlink="http://www.w3.org/1999/xlink" version="1.1" viewBox="-10 0 605 2048">
   <path fill="currentColor"
d="M0 1025v-1q0 -9 1 -27.5t7 -60.5t18.5 -86t38.5 -101t61 -108t93.5 -104t129.5 -93q18 -9 37 -3.5t28 22.5q10 18 5 37.5t-23 29.5q-147 81 -226 228q60 -28 122 -28q120 0 206.5 85.5t86.5 206.5q0 9 -0.5 17.5t-3.5 38.5t-8.5 57.5t-17.5 69.5t-28.5 79.5t-43.5 82
t-60 83.5t-80.5 78.5t-103.5 71.5q-11 6 -24 6q-28 0 -43 -26q-10 -17 -4.5 -36.5t23.5 -28.5q150 -84 228 -230q-61 28 -127 28q-78 0 -145 -38.5t-106.5 -105t-40.5 -144.5zM127 1022q0 68 48.5 116.5t116.5 48.5q64 0 111 -42.5t54 -105.5l1 -17q0 -2 1 -3
q-1 -67 -50 -113.5t-117 -46.5q-63 0 -109.5 40.5t-54.5 101.5l-1 19v2z" />
</svg>
