<?xml version="1.0" standalone="no"?>
<!DOCTYPE svg PUBLIC "-//W3C//DTD SVG 1.1//EN" "http://www.w3.org/Graphics/SVG/1.1/DTD/svg11.dtd" >
<svg xmlns="http://www.w3.org/2000/svg" xmlns:xlink="http://www.w3.org/1999/xlink" version="1.1" viewBox="-10 0 1314 2048">
   <path fill="currentColor"
d="M0 870q0 -105 67.5 -187t172.5 -106q26 -125 127.5 -206t232.5 -81q127 0 225 77.5t129 202.5h21q84 0 158 36.5t117.5 100t43.5 137.5q0 126 -97 214q0 39 -24 89.5t-64.5 92t-82.5 50.5q-14 70 -64 117.5t-122 63.5q34 34 34 79q0 55 -39.5 94t-94.5 39t-94 -39
t-39 -94q0 -6 3 -19.5t3 -20.5h-6q-66 0 -113 -47t-47 -113q0 -26 27 -79q-54 -29 -87 -94h-93q-123 -11 -208.5 -97.5t-85.5 -209.5z" />
</svg>
