<?xml version="1.0" standalone="no"?>
<!DOCTYPE svg PUBLIC "-//W3C//DTD SVG 1.1//EN" "http://www.w3.org/Graphics/SVG/1.1/DTD/svg11.dtd" >
<svg xmlns="http://www.w3.org/2000/svg" xmlns:xlink="http://www.w3.org/1999/xlink" version="1.1" viewBox="-10 0 1081 2048">
   <path fill="currentColor"
d="M55 1101q-126 -269 38 -507q115 -166 354 -203q18 -5 41 -7h47q326 10 478 290q72 133 36 292q-29 127 -96 237q-145 226 -299 365q-9 8 -23 19q-52 39 -95.5 40.5t-97.5 -33.5q-32 -19 -55 -44q-220 -224 -328 -449zM63 936q2 12 7 33t7 30q32 140 130 218.5t244 92.5
q32 3 38 -3t6 -39q-1 -9 -3 -29t-4 -29q-28 -150 -143 -219q-20 -13 -46 -25.5t-45.5 -20t-51.5 -20t-47 -18.5q-18 -7 -60 -9q-38 0 -32 38zM571 1264q-3 35 4.5 42t41.5 3q42 -5 89 -16q120 -30 196 -128q38 -46 58 -100t36 -128q5 -25 -3 -34.5t-32 -6.5q-66 12 -119 31
q-129 48 -196.5 129.5t-74.5 207.5z" />
</svg>
