<?xml version="1.0" standalone="no"?>
<!DOCTYPE svg PUBLIC "-//W3C//DTD SVG 1.1//EN" "http://www.w3.org/Graphics/SVG/1.1/DTD/svg11.dtd" >
<svg xmlns="http://www.w3.org/2000/svg" xmlns:xlink="http://www.w3.org/1999/xlink" version="1.1" viewBox="-10 0 1147 2048">
   <path fill="currentColor"
d="M0 1016q0 -22 14.5 -37t35.5 -15q22 0 37 15t15 37q0 21 -15.5 36t-36.5 15t-35.5 -15t-14.5 -36zM148 1016q0 -22 14.5 -37t35.5 -15h241l-170 -171q-15 -14 -15 -35t15 -36.5t36.5 -15.5t36.5 15l169 170v-240q0 -22 15.5 -37t37.5 -15q21 0 35.5 15t14.5 37v242
l171 -172q16 -15 36.5 -15t36.5 15q14 16 14 37t-14 35l-170 171h241q20 0 35.5 15t15.5 37q0 21 -15.5 36t-35.5 15h-242l171 171q14 14 14 35t-14 36q-16 15 -36.5 15t-36.5 -15l-171 -172v243q0 22 -14.5 37t-35.5 15q-22 0 -37.5 -15t-15.5 -37v-241l-169 170
q-15 15 -36.5 15t-36.5 -15t-15 -36t15 -35l172 -171h-243q-21 0 -35.5 -15t-14.5 -36zM149 1378q0 -21 16 -36q14 -15 35 -15t36.5 15t15.5 36t-15.5 36.5t-36.5 15.5t-35 -16q-16 -15 -16 -36zM149 652.5q0 -20.5 16 -36.5q14 -15 35 -15t36.5 15.5t15.5 36t-15 36.5
q-16 15 -37 15t-35 -15q-16 -16 -16 -36.5zM511 1528q0 -21 15.5 -36t37.5 -15q21 0 35.5 15t14.5 36t-14.5 36.5t-35.5 15.5q-22 0 -37.5 -15.5t-15.5 -36.5zM511 503q0 -22 15.5 -37t37.5 -15q21 0 35.5 15t14.5 37q0 20 -14.5 35t-35.5 15q-22 0 -37.5 -15t-15.5 -35z
M875 1378q0 -21 16 -36q14 -15 35 -15t36.5 15t15.5 36t-15.5 36.5t-36.5 15.5t-35 -16q-16 -15 -16 -36zM875 652.5q0 -20.5 16 -36.5q14 -15 35 -15t36.5 15.5t15.5 36t-15 36.5q-16 15 -37 15t-35 -15q-16 -16 -16 -36.5zM1025 1016q0 -22 15 -37t37 -15q20 0 35 15
t15 37q0 21 -15 36t-35 15q-22 0 -37 -15t-15 -36z" />
</svg>
