<?xml version="1.0" standalone="no"?>
<!DOCTYPE svg PUBLIC "-//W3C//DTD SVG 1.1//EN" "http://www.w3.org/Graphics/SVG/1.1/DTD/svg11.dtd" >
<svg xmlns="http://www.w3.org/2000/svg" xmlns:xlink="http://www.w3.org/1999/xlink" version="1.1" viewBox="-10 0 1114 2048">
   <path fill="currentColor"
d="M0 926q0 -112 43.5 -213.5t117 -174.5t175 -116t211.5 -43q112 0 213 43t174.5 116.5t116.5 174.5t43 213q0 181 -107.5 323.5t-276.5 195.5v246h-317v-243q-173 -51 -283 -195t-110 -327zM121 926q0 174 126 298q124 126 300 126q116 0 214.5 -57t156 -154.5
t57.5 -212.5q0 -86 -34 -165t-91.5 -136t-137 -91t-165.5 -34t-165 34t-136.5 91t-91 136t-33.5 165zM164 952v-54h162v54h-162zM245 688l39 -38l114 113l-39 39zM434 1057q0 -47 33 -81.5t80 -35.5l203 -336l49 26l-150 361q19 28 19 66q0 49 -34 83t-83 34t-83 -34
t-34 -83zM532 708v-162h52v162h-52zM752 952v-56h162v56h-162z" />
</svg>
