<?xml version="1.0" standalone="no"?>
<!DOCTYPE svg PUBLIC "-//W3C//DTD SVG 1.1//EN" "http://www.w3.org/Graphics/SVG/1.1/DTD/svg11.dtd" >
<svg xmlns="http://www.w3.org/2000/svg" xmlns:xlink="http://www.w3.org/1999/xlink" version="1.1" viewBox="-10 0 1127 2048">
   <path fill="currentColor"
d="M0 1224q0 -99 54 -226.5t139 -247.5q175 -231 303 -349l56 -54q28 29 62 54q46 47 140.5 156t161.5 198q80 113 135.5 242.5t55.5 226.5q0 112 -43.5 214t-117.5 176.5t-177 118t-217 43.5q-112 0 -214 -42t-176 -115.5t-118 -176t-44 -218.5zM169 1005q0 93 39 148.5
t119 55.5q81 0 120.5 -55t40.5 -149q-1 -94 -40.5 -149.5t-120.5 -55.5q-80 0 -119 55.5t-39 149.5zM287 1005v-26t1 -24.5t3.5 -24t7 -18t11.5 -14t17 -4.5q16 0 25 9t13 29t4.5 34t0.5 39t-0.5 39t-4.5 33.5t-13 28.5t-25 9q-10 0 -17 -4t-11.5 -13.5t-7 -18.5t-3.5 -24.5
t-1 -24v-25.5zM330 1584h99l373 -803h-101zM652 1361q1 94 40.5 149t119.5 55q81 0 119.5 -55t39.5 -149q-1 -94 -39.5 -149t-119.5 -55q-80 0 -119.5 55t-40.5 149zM769 1361q0 -25 1 -39t4.5 -33.5t13 -28.5t24.5 -9q11 0 18 4t11.5 14t7.5 18t3.5 24t1 24t0.5 26t-0.5 26
t-1 24t-3.5 24.5t-7.5 18t-11.5 14t-18 4.5q-15 0 -24.5 -9.5t-13 -29t-4.5 -33.5t-1 -39z" />
</svg>
