<?xml version="1.0" standalone="no"?>
<!DOCTYPE svg PUBLIC "-//W3C//DTD SVG 1.1//EN" "http://www.w3.org/Graphics/SVG/1.1/DTD/svg11.dtd" >
<svg xmlns="http://www.w3.org/2000/svg" xmlns:xlink="http://www.w3.org/1999/xlink" version="1.1" viewBox="-10 0 1672 2048">
   <path fill="currentColor"
d="M0 915q0 -104 65 -186t163 -104q29 -124 127.5 -203t225.5 -79q123 0 220 77.5t126 197.5h20q123 0 210 86.5t87 210.5v2v5q84 89 84 213q0 84 -42.5 156.5t-114.5 114.5t-156 42q-108 0 -191.5 -66.5t-110.5 -168.5h-426q-120 -5 -203.5 -91.5t-83.5 -206.5zM102 915
q0 78 54 136t131 61h423q5 -3 9 -3h73q3 0 6 3h160q77 -3 131.5 -61t54.5 -136q0 -80 -59 -137.5t-138 -57.5h-97q-11 0 -11 -11l-5 -35q-9 -97 -82.5 -163.5t-170.5 -66.5q-100 0 -172.5 66t-82.5 164l-4 35q0 11 -12 11h-30q-76 8 -127 63.5t-51 131.5zM565 1588
q-28 -37 0 -73l85 -86q15 -13 38 -13q21 0 34.5 13t13.5 35t-14 36l-85 88q-14 14 -37 14q-21 0 -35 -14zM818 1213q24 60 77.5 97.5t119.5 37.5q87 0 147.5 -62.5t60.5 -150.5q0 -44 -14 -79q-37 69 -104 111.5t-147 45.5h-140zM964 1601q0 -21 15 -35.5t36 -14.5t37 16
q14 14 14 34v122q0 21 -15 36.5t-36 15.5t-36 -15.5t-15 -36.5v-122zM1293 1464q0 -20 14.5 -34t35.5 -14q22 0 35 13l88 86q15 16 15 36q0 21 -15 36t-37 15q-23 0 -37 -14l-85 -88q-14 -16 -14 -36zM1293 805.5q0 -21.5 14 -35.5l85 -88q16 -14 37 -14t37 14q15 17 15 38
q0 19 -15 36l-88 86q-14 14 -35 14t-35.5 -14.5t-14.5 -36zM1429 1135q0 -21 14 -36t35 -15h122q21 0 36.5 15t15.5 36t-15.5 36t-36.5 15h-122q-21 0 -35 -15t-14 -36z" />
</svg>
