<?xml version="1.0" standalone="no"?>
<!DOCTYPE svg PUBLIC "-//W3C//DTD SVG 1.1//EN" "http://www.w3.org/Graphics/SVG/1.1/DTD/svg11.dtd" >
<svg xmlns="http://www.w3.org/2000/svg" xmlns:xlink="http://www.w3.org/1999/xlink" version="1.1" viewBox="-10 0 1725 2048">
   <path fill="currentColor"
d="M0 943q0 -129 81 -230.5t204 -130.5q35 -153 157.5 -251t281.5 -98q155 0 275.5 96t157.5 246h24q101 0 186.5 48.5t135.5 133.5t50 186q0 129 -80 230q73 62 169 65l49 4q14 0 14 15v57q0 113 -55 209t-151 152t-208 56q-87 0 -164 -33t-132.5 -89t-88 -133t-32.5 -162
h-515q-150 -7 -254.5 -114t-104.5 -257zM128 943q0 97 67.5 168.5t163.5 76.5h836q96 -5 164 -76.5t68 -168.5q0 -98 -73 -170.5t-173 -72.5h-121q-13 0 -13 -12l-5 -44q-13 -121 -104.5 -202.5t-213.5 -81.5q-124 0 -214.5 81.5t-101.5 202.5l-6 44q0 12 -15 12h-39
q-94 11 -157 80t-63 163zM982 1314q0 89 44.5 162t115 112.5t149.5 39.5q69 0 136 -33.5t118.5 -102t63.5 -156.5q-120 -25 -203 -98q-94 73 -211 76h-213z" />
</svg>
