<?xml version="1.0" standalone="no"?>
<!DOCTYPE svg PUBLIC "-//W3C//DTD SVG 1.1//EN" "http://www.w3.org/Graphics/SVG/1.1/DTD/svg11.dtd" >
<svg xmlns="http://www.w3.org/2000/svg" xmlns:xlink="http://www.w3.org/1999/xlink" version="1.1" viewBox="-10 0 1727 2048">
   <path fill="currentColor"
d="M0 945q0 -129 80.5 -230t204.5 -130q35 -153 157.5 -251.5t281.5 -98.5q155 0 275.5 96t157.5 246h24q101 0 186.5 48.5t135.5 133.5t50 186q0 22 -2 45q72 58 114 143t42 182q0 86 -33 163.5t-89 132.5t-133.5 88t-162.5 33q-84 0 -161 -33t-132.5 -89t-89 -133
t-33.5 -161h-514q-150 -7 -254.5 -114t-104.5 -257zM128 945q0 97 67.5 169t163.5 77h836q96 -5 164 -77t68 -169q0 -98 -73 -170t-173 -72h-121q-13 0 -13 -13l-5 -43q-13 -121 -104.5 -203t-213.5 -82q-123 0 -213.5 82t-102.5 203l-6 43q0 13 -15 13h-39q-94 11 -157 80
t-63 162zM969 1327q7 126 102.5 211.5t217.5 85.5q67 0 127 -26.5t100.5 -70t63.5 -99t23 -113.5q0 -55 -22 -110.5t-63 -100.5q-44 92 -131 150.5t-192 61.5h-215q0 2 1 9q-9 2 -12 2z" />
</svg>
