<?xml version="1.0" standalone="no"?>
<!DOCTYPE svg PUBLIC "-//W3C//DTD SVG 1.1//EN" "http://www.w3.org/Graphics/SVG/1.1/DTD/svg11.dtd" >
<svg xmlns="http://www.w3.org/2000/svg" xmlns:xlink="http://www.w3.org/1999/xlink" version="1.1" viewBox="-10 0 1254 2048">
   <path fill="currentColor"
d="M0 1408q0 -88 51 -156t135 -95q36 -122 149 -186v-26q0 -164 103.5 -288t261.5 -154q40 -7 81 -7h2q23 0 52 4q29 2 55 8l68 21q15 8 12 20l-10 52q-9 36 -9 73q0 39 12.5 80t37.5 80.5t68 72t99 49.5l53 15q13 3 13 14q0 4 -1 5l-13 51q-6 28 -16 55q-17 49 -53 102h-1
q-49 70 -122 117q15 38 15 93q0 111 -77.5 189t-185.5 78h-512q-109 0 -188.5 -79.5t-79.5 -187.5zM148 1408q0 50 34.5 85.5t85.5 35.5h512q48 0 83.5 -35.5t35.5 -85.5q0 -48 -35.5 -83.5t-83.5 -35.5h-98q-12 0 -19 -17l-6 -48q-8 -64 -56 -107.5t-113 -43.5
q-64 0 -110.5 43.5t-54.5 107.5l-8 42q0 16 -14 16l-47 7q-46 4 -76 38t-30 81zM479 929h9q103 0 185.5 58.5t115.5 156.5q87 0 152 54q78 -48 114 -131q-116 -59 -181.5 -168t-65.5 -232v-26h-9.5h-8.5q-69 0 -133 29t-108 84l-2 -1q-61 75 -68 176z" />
</svg>
