<?xml version="1.0" standalone="no"?>
<!DOCTYPE svg PUBLIC "-//W3C//DTD SVG 1.1//EN" "http://www.w3.org/Graphics/SVG/1.1/DTD/svg11.dtd" >
<svg xmlns="http://www.w3.org/2000/svg" xmlns:xlink="http://www.w3.org/1999/xlink" version="1.1" viewBox="-10 0 1799 2048">
   <path fill="currentColor"
d="M0 1207q0 28 21 47q18 21 47 21h1098q32 0 54.5 22.5t22.5 54.5q0 33 -22 54t-55 21t-55 -21q-18 -20 -45 -20q-28 0 -48 19.5t-20 45.5q0 28 21 47q64 62 147 62q87 0 149.5 -60.5t62.5 -147t-62.5 -149.5t-149.5 -63h-1098q-28 0 -48 19.5t-20 47.5zM0 962q0 26 21 46
q20 19 47 19h1498q88 0 150.5 -61t62.5 -147q0 -87 -62.5 -148.5t-150.5 -61.5q-86 0 -146 60q-20 18 -20 49q0 29 19 47.5t47 18.5t47 -19q21 -23 53 -23t54 22.5t22 55t-22 54t-54 21.5h-1498q-28 0 -48 19.5t-20 47.5zM118 1479q0 27 18 44q18 18 43 18q28 0 47 -17.5
t19 -44.5q0 -26 -19.5 -44.5t-46.5 -18.5q-25 0 -43 18.5t-18 44.5zM188 737q0 27 19 44q18 18 43 18q27 0 46 -17.5t19 -44.5q0 -26 -19 -44.5t-46 -18.5q-25 0 -43.5 18.5t-18.5 44.5zM415 565q0 27 18 43q18 19 43 19q28 0 47 -17.5t19 -44.5q0 -26 -19.5 -44.5
t-46.5 -18.5q-25 0 -43 18.5t-18 44.5zM422 1432q0 26 19 43q18 18 42 18q28 0 47 -17.5t19 -43.5t-19.5 -44.5t-46.5 -18.5q-25 0 -43 18.5t-18 44.5zM734 697q0 27 18 44q19 18 44 18q27 0 46 -17.5t19 -44.5q0 -26 -19 -44.5t-46 -18.5q-25 0 -43.5 18.5t-18.5 44.5z
M758 1518.5q0 25.5 19 43.5q18 18 43 18q27 0 46 -17.5t19 -43.5t-19.5 -45t-45.5 -19q-25 0 -43.5 19t-18.5 44.5zM1093 685.5q0 25.5 18 42.5q19 19 44 19q27 0 46 -17.5t19 -44.5q0 -25 -19.5 -44t-45.5 -19q-25 0 -43.5 19t-18.5 44.5zM1473 1213q0 27 19 44
q18 18 43 18q27 0 46 -17.5t19 -44.5q0 -26 -19 -44.5t-46 -18.5q-25 0 -43.5 18.5t-18.5 44.5z" />
</svg>
