<?xml version="1.0" standalone="no"?>
<!DOCTYPE svg PUBLIC "-//W3C//DTD SVG 1.1//EN" "http://www.w3.org/Graphics/SVG/1.1/DTD/svg11.dtd" >
<svg xmlns="http://www.w3.org/2000/svg" xmlns:xlink="http://www.w3.org/1999/xlink" version="1.1" viewBox="-10 0 1250 2048">
   <path fill="currentColor"
d="M0 1405q0 109 79.5 188.5t188.5 79.5h512q108 0 185.5 -78.5t77.5 -189.5q0 -54 -15 -92q93 -59 147.5 -158.5t54.5 -211.5q0 -91 -35.5 -174.5t-96 -143t-143 -95.5t-172.5 -36q-123 0 -226.5 60.5t-162.5 163.5t-59 225v25q-113 64 -149 186q-84 27 -135 95t-51 156z
M148 1405q0 -47 30 -80.5t76 -37.5l47 -7q14 0 14 -16l8 -43q8 -64 54.5 -107.5t110.5 -43.5q65 0 113 43.5t56 107.5l6 49q7 17 19 17h98q48 0 83.5 35t35.5 83q0 50 -35.5 86t-83.5 36h-512q-51 0 -85.5 -36t-34.5 -86zM479 927q7 -122 94.5 -205.5t209.5 -83.5
q124 0 211.5 89t87.5 216q0 78 -38 145t-103 108q-66 -54 -152 -54q-33 -98 -115.5 -156.5t-185.5 -58.5h-9z" />
</svg>
