<?xml version="1.0" standalone="no"?>
<!DOCTYPE svg PUBLIC "-//W3C//DTD SVG 1.1//EN" "http://www.w3.org/Graphics/SVG/1.1/DTD/svg11.dtd" >
<svg xmlns="http://www.w3.org/2000/svg" xmlns:xlink="http://www.w3.org/1999/xlink" version="1.1" viewBox="-11 0 1572 2048">
   <path fill="currentColor"
d="M0 1034q2 -37 37.5 -117.5t99.5 -172.5q209 -292 589 -308v-33q0 -23 16 -37.5t36 -14.5q21 0 37 14.5t16 37.5v33q110 5 205.5 33.5t166 74.5t120.5 95t90 105q46 67 79 142.5t45.5 120t13.5 45.5v6v8q0 20 -16 32.5t-37 12.5q-35 0 -44 -19q-88 -98 -191 -98
q-39 2 -77.5 17t-61.5 31t-43.5 32.5t-20.5 17.5q-21 19 -40 19q-25 0 -39 -13q-81 -81 -150 -99v551v6v9v13.5t-1 15.5t-3 17t-4.5 18.5t-6.5 19.5t-9.5 20t-12.5 19.5t-16 18.5q-57 66 -163 66q-114 0 -170 -66q-14 -13 -24 -28.5t-15.5 -30.5t-9 -29t-4.5 -27t-1 -22
t0.5 -17.5t0.5 -9.5q0 -20 17.5 -35t41.5 -10q20 0 33 17t13 41q-7 46 19 79q23 33 99 33q58 0 85 -27q14 -15 21 -36t6 -35l-1 -14v-550q-82 20 -144 86q-5 9 -17.5 17t-22.5 8q-20 0 -45 -25q-90 -100 -190 -98q-45 0 -84.5 14t-59 28.5t-40.5 34t-24 21.5q-23 16 -38 16
t-36 -13q-18 -11 -22 -23.5t-3 -37.5zM157 928q75 -40 143 -40h7q128 0 235 99q43 -37 104 -65.5t132 -33.5h6q129 0 236 99q43 -37 103.5 -65.5t132.5 -33.5h7q63 0 131 33q-50 -96 -66 -124q-201 -262 -556 -262q-177 0 -316.5 67t-227.5 195q-28 39 -71 131z" />
</svg>
