<?xml version="1.0" standalone="no"?>
<!DOCTYPE svg PUBLIC "-//W3C//DTD SVG 1.1//EN" "http://www.w3.org/Graphics/SVG/1.1/DTD/svg11.dtd" >
<svg xmlns="http://www.w3.org/2000/svg" xmlns:xlink="http://www.w3.org/1999/xlink" version="1.1" viewBox="-10 0 2041 2048">
   <path fill="currentColor"
d="M0 1516q0 27 20 45q19 19 46 19h439q29 0 51 21t22 51.5t-22 52t-51 21.5t-51 -22q-20 -19 -46 -19t-44.5 18t-18.5 44.5t19 45.5q59 59 141 59q83 0 141 -58.5t58 -141t-58 -141t-141 -58.5h-439q-27 0 -46.5 19t-19.5 44zM0 1292q0 25 20 43q19 18 46 18h820
q82 0 140.5 -58.5t58.5 -141t-58 -140t-141 -57.5q-85 0 -141 57q-18 18 -18 45.5t17.5 44.5t44.5 17t46 -18q21 -21 50.5 -21t51 21t21.5 51.5t-21.5 52t-50.5 21.5h-820q-27 0 -46.5 19.5t-19.5 45.5zM432 802q0 -26 20 -46q20 -18 45 -18h152q26 0 43.5 19t17.5 45.5
t-17.5 45t-43.5 18.5h-152q-27 0 -46 -19t-19 -45zM646 285q0 -26 18 -45q21 -18 47 -18q25 0 44 18l107 110q18 17 18 44t-18 44.5t-44 17.5q-28 0 -44 -18l-110 -106q-18 -19 -18 -47zM837 793v-5q2 -102 55 -188.5t142 -136.5t192 -50q79 0 151 31t124 83.5t83 124.5
t31 150q0 106 -52 195t-141 141.5t-194 52.5h-15q-8 0 -13 -5.5t-5 -13.5v-91q0 -14 16 -14h18q108 -1 184.5 -78.5t76.5 -186.5q0 -107 -77.5 -183.5t-186.5 -76.5q-106 0 -182 73t-81 177q0 6 -6 13t-19 7h-85q-16 0 -16 -19zM1162 1532v-149q0 -26 19 -44.5t45 -18.5
q28 0 46 18.5t18 44.5v149q0 27 -18.5 46t-45 19t-45.5 -19t-19 -46zM1162 225v-153q0 -26 19 -44.5t45.5 -18.5t45 18.5t18.5 44.5v153q0 26 -18.5 43t-45 17t-45.5 -17t-19 -43zM1575 1210q0 -26 17 -42q17 -17 43 -17q27 0 44 17l109 107q18 19 18 45t-18 44
q-45 35 -90 0l-106 -106q-17 -19 -17 -48zM1575 394q0 -28 17 -44l106 -110q20 -18 45 -18t44 18.5t19 44.5q0 28 -18 47l-109 106q-20 18 -44 18q-26 0 -43 -17.5t-17 -44.5zM1744 802.5q0 -26.5 18 -46.5q18 -18 43 -18h151q26 0 45.5 19.5t19.5 45t-19.5 44.5t-45.5 19
h-151q-26 0 -43.5 -18.5t-17.5 -45z" />
</svg>
