<?xml version="1.0" standalone="no"?>
<!DOCTYPE svg PUBLIC "-//W3C//DTD SVG 1.1//EN" "http://www.w3.org/Graphics/SVG/1.1/DTD/svg11.dtd" >
<svg xmlns="http://www.w3.org/2000/svg" xmlns:xlink="http://www.w3.org/1999/xlink" version="1.1" viewBox="-10 0 1643 2048">
   <path fill="currentColor"
d="M0 1203q0 -130 79.5 -230t204.5 -128q26 -116 105 -202.5t189 -123.5q69 -24 144 -24q91 0 176 36q32 -53 74.5 -91.5t87.5 -59t87.5 -30.5t84.5 -10t92 12l60 19q16 6 11 17l-11 45q-7 35 -7 64q0 35 10.5 71t32.5 70t60 62t86 43l46 16q11 3 11 12q0 2 -1 5l-13 50
q-31 121 -112 192q44 79 48 168q1 5 1 17q0 100 -50 185t-135 134.5t-185 49.5h-808q-100 0 -185 -49.5t-134 -134.5t-49 -185zM128 1203q0 99 71 172t169 73h808q99 0 170 -72.5t71 -172.5q0 -99 -71.5 -170t-169.5 -71h-133l-8 -56q-11 -113 -94 -193.5t-197 -89.5
q-3 0 -10.5 -0.5t-11.5 -0.5q-56 0 -115 21v-1q-82 32 -137.5 102.5t-66.5 161.5l-5 54l-51 2q-95 11 -157 79t-62 162zM1005 596q120 102 148 238h23q140 0 237 88q37 -35 57 -80q-102 -48 -161 -147t-59 -208v-18q-6 -1 -18 -1q-65 -1 -127 33t-100 95z" />
</svg>
