<?xml version="1.0" standalone="no"?>
<!DOCTYPE svg PUBLIC "-//W3C//DTD SVG 1.1//EN" "http://www.w3.org/Graphics/SVG/1.1/DTD/svg11.dtd" >
<svg xmlns="http://www.w3.org/2000/svg" xmlns:xlink="http://www.w3.org/1999/xlink" version="1.1" viewBox="-10 0 2040 2048">
   <path fill="currentColor"
d="M0 1204v-1q0 -129 81 -230t205 -131q34 -153 157 -252t282 -99q112 0 203 49q56 -59 132 -93t156 -34q107 0 197.5 53t143.5 143.5t53 197.5q0 138 -85 246q32 68 32 150q0 99 -47.5 183.5t-130 135.5t-181.5 54q-15 0 -15 -13v-101q0 -13 15 -13q96 -5 163 -76.5
t67 -169.5q0 -99 -72 -170.5t-173 -71.5h-120q-13 0 -13 -13l-6 -44q-13 -121 -105 -203.5t-214 -82.5q-123 0 -214 82.5t-103 203.5l-5 44q-4 10 -17 10l-38 3q-94 11 -157 79.5t-63 162.5v4h2q1 109 82 181q25 22 56 37v1q46 21 90 23q13 0 13 13v100q0 13 -13 13
q-58 -4 -111 -23v2q-93 -33 -157.5 -108t-83.5 -172v-3v-2q-6 -28 -6 -65zM411 1740q0 -4 1.5 -9.5t1.5 -8.5l7 -44q8 -27 30.5 -40t50.5 -6q26 8 38.5 30.5t4.5 46.5l-10 45q-12 49 -57 49q-4 0 -11 -1t-9 -1q-24 -7 -35.5 -24.5t-11.5 -36.5zM467 1520q0 -27 17.5 -44.5
t44 -17.5t44 17.5t17.5 44.5q0 26 -17.5 43t-44.5 17q-26 0 -42 -18q-19 -18 -19 -42zM589 1967q0 -4 3 -17l10 -43q8 -26 31 -38.5t47 -5.5q26 5 39 27.5t6 51.5l-10 44q-11 45 -59 45q-6 0 -18 -2q-25 -7 -37 -25t-12 -37zM629 285q0 -27 19 -45t47 -18q27 0 45 18l47 49
q19 19 19 45q0 27 -22.5 47.5t-45.5 17.5q-23 -2 -42 -20l-48 -49q-19 -19 -19 -45zM648 1750q0 -25 17.5 -42.5t44 -17.5t44 17.5t17.5 42.5q0 27 -17.5 44.5t-43.5 17.5q-25 0 -44 -19q-18 -18 -18 -43zM694 1580q0 -10 2 -19l17 -68q8 -26 31 -39.5t48 -5.5q26 7 39 29.5
t6 46.5l-20 67q-9 31 -31 42.5t-48 4.5q-22 -4 -33.5 -22.5t-10.5 -35.5zM901 1741q0 -4 1 -10t1 -9l7 -44q8 -26 30.5 -39t50.5 -6q26 7 39 30.5t5 47.5l-11 44q-11 49 -56 49q-4 0 -11.5 -1t-9.5 -1q-23 -7 -34.5 -24.5t-11.5 -36.5zM956 1521q0 -27 17.5 -44.5
t44.5 -17.5t44.5 17.5t17.5 44.5q0 26 -17.5 43.5t-44.5 17.5q-26 0 -43 -19q-19 -17 -19 -42zM1033 615q94 86 127 219h23q155 0 263 109q35 -62 35 -136q0 -110 -77.5 -187t-187.5 -77q-108 0 -183 72zM1153 222v-154q0 -26 18.5 -45.5t44.5 -19.5q27 0 45 19t18 46v154
q0 27 -18 46t-45 19q-26 0 -44.5 -19.5t-18.5 -45.5zM1569 393.5q0 -27.5 18 -45.5l108 -108q17 -19 43 -19q28 0 45 19q20 18 20 44.5t-20 45.5l-108 108q-21 21 -47 19.5t-41 -19.5q-18 -17 -18 -44.5zM1628 1283q0 -26 18.5 -45t44.5 -19t46 19l46 47q20 20 20 46t-20 45
q-15 19 -40 19l-2 -1q-27 0 -46 -18l-48 -48q-19 -19 -19 -45zM1737 807q0 -27 18.5 -45t45.5 -18h155q27 0 45.5 18t18.5 44.5t-19 45.5t-45 19h-155q-26 0 -44 -20q-20 -17 -20 -44z" />
</svg>
