<?xml version="1.0" standalone="no"?>
<!DOCTYPE svg PUBLIC "-//W3C//DTD SVG 1.1//EN" "http://www.w3.org/Graphics/SVG/1.1/DTD/svg11.dtd" >
<svg xmlns="http://www.w3.org/2000/svg" xmlns:xlink="http://www.w3.org/1999/xlink" version="1.1" viewBox="-10 0 1630 2048">
   <path fill="currentColor"
d="M0 1209v-1v-1q0 -129 81 -230.5t205 -130.5q34 -154 157 -252t282 -98q112 0 203 49q56 -60 132 -94t156 -34q107 0 197.5 53t143.5 143.5t53 197.5q0 138 -85 246q32 68 32 150q0 99 -47.5 183.5t-130 135.5t-181.5 54q-15 0 -15 -13v-100q0 -14 15 -14q96 -5 163 -76.5
t67 -169.5q0 -99 -72 -170.5t-173 -71.5h-120q-13 0 -13 -13l-6 -44q-13 -122 -105 -204t-214 -82q-123 0 -214 82t-103 204l-5 44q-4 10 -17 10l-38 3q-94 11 -157 79.5t-63 162.5v3q1 2 2 2q0 95 67 166q31 33 69 49v2q42 22 92 25q13 0 13 13v100q0 13 -13 13
q-55 -3 -107 -22q-85 -28 -147 -92t-88 -150q-16 -52 -16 -107zM411 1745q0 -4 1.5 -10t1.5 -9l7 -43q8 -27 31 -40.5t50 -6.5q26 8 38.5 31t4.5 47l-10 45q-12 49 -57 49q-4 0 -11 -1t-9 -1q-24 -7 -35.5 -24.5t-11.5 -36.5zM467 1524q0 -26 17.5 -44t44 -18t44 18t17.5 44
t-17.5 43.5t-44.5 17.5q-26 0 -42 -18q-19 -18 -19 -43zM589 1971q0 -4 3 -17l10 -44q8 -25 31 -37.5t47 -5.5q26 5 39 27.5t6 51.5l-10 43q-12 47 -59 47q-6 0 -18 -3q-25 -7 -37 -25t-12 -37zM648 1754q0 -26 17.5 -43t44 -17t44 17t17.5 43q0 27 -17.5 44.5t-43.5 17.5
q-25 0 -43.5 -18.5t-18.5 -43.5zM694 1584q0 -10 2 -19l17 -67q8 -27 31 -40.5t48 -6.5q26 8 39 30.5t6 46.5l-20 68q-9 30 -31 41.5t-48 4.5q-22 -4 -33.5 -22.5t-10.5 -35.5zM901 1745q0 -4 1 -11t1 -8l7 -43q8 -27 31 -40.5t50 -6.5q26 8 39 31t5 47l-11 45
q-11 49 -56 49q-4 0 -11.5 -1t-9.5 -1q-23 -7 -34.5 -24.5t-11.5 -36.5zM956 1524q0 -26 17.5 -44t44.5 -18t44.5 18t17.5 44t-17.5 43.5t-44.5 17.5t-43 -18q-19 -17 -19 -43zM1033 620q94 85 127 218h23q155 0 263 108q35 -62 35 -135q0 -110 -77.5 -187t-187.5 -77
q-108 0 -183 73z" />
</svg>
