<?xml version="1.0" standalone="no"?>
<!DOCTYPE svg PUBLIC "-//W3C//DTD SVG 1.1//EN" "http://www.w3.org/Graphics/SVG/1.1/DTD/svg11.dtd" >
<svg xmlns="http://www.w3.org/2000/svg" xmlns:xlink="http://www.w3.org/1999/xlink" version="1.1" viewBox="-10 0 1651 2048">
   <path fill="currentColor"
d="M0 1219v-4v-1v-4v-3v-1v-1v-7v-5v-1q5 -125 85 -222t200 -125q35 -153 157.5 -251t281.5 -98q82 0 178 35q31 -52 73.5 -90.5t88 -59t88.5 -30t85 -8.5q43 0 92 10l60 19q13 6 10 17l-8 46q-8 33 -8 63q0 34 11 70.5t33 71t60 63.5t87 43l46 13q11 3 11 12q0 4 -1 5
l-14 51q-27 114 -112 196q49 86 49 183q0 150 -104 258.5t-254 112.5q-14 0 -14 -14v-101q0 -14 14 -14q98 -7 165 -77t67 -165q0 -100 -72 -171t-174 -71h-121q-13 0 -13 -14l-5 -43q-13 -121 -104.5 -203t-213.5 -82q-123 0 -213.5 82t-102.5 203l-6 38q0 13 -15 13l-39 6
q-94 11 -157 80t-63 162v1v1h2q0 59 27 111t73 85h1v1l1 1q24 17 46 26q38 16 80 18q13 0 13 12v101q0 13 -13 13q-104 -5 -191 -62q-75 -48 -119 -126t-48 -169zM411 1741q0 -4 1.5 -10t1.5 -9l7 -44q8 -26 30.5 -39t50.5 -6q26 7 38.5 30.5t4.5 47.5l-10 44q-12 49 -57 49
q-4 0 -11 -1t-9 -1q-24 -7 -35.5 -24.5t-11.5 -36.5zM467 1521q0 -27 17.5 -44.5t44 -17.5t44 17.5t17.5 44.5q0 26 -17.5 43.5t-44.5 17.5q-25 0 -42 -19q-19 -18 -19 -42zM589 1969q0 -4 3 -17l10 -44q8 -25 31 -38t47 -5q26 5 39 27t6 51l-10 44q-11 46 -59 46
q-9 0 -18 -2q-25 -7 -37 -25t-12 -37zM648 1752q0 -26 17.5 -43.5t44 -17.5t44 17.5t17.5 43.5t-17.5 44t-43.5 18q-25 0 -43.5 -18.5t-18.5 -43.5zM694 1582q0 -10 2 -20l17 -67q8 -26 31 -40t48 -6q26 8 39 30.5t6 46.5l-20 68q-9 30 -31 41.5t-48 4.5q-22 -4 -33.5 -22.5
t-10.5 -35.5zM901 1742q0 -3 1 -9.5t1 -8.5l7 -44q8 -27 30.5 -40t50.5 -6q26 8 39 31t5 47l-11 45q-11 49 -56 49q-4 0 -11 -1.5t-10 -1.5q-23 -7 -34.5 -24.5t-11.5 -36.5zM956 1522q0 -27 17.5 -44.5t44.5 -17.5t44.5 17.5t17.5 44.5q0 26 -17.5 43.5t-44.5 17.5t-43 -18
q-19 -17 -19 -43zM1009 599q116 95 148 236h24q138 0 241 88q37 -34 56 -78q-69 -33 -120 -90t-76 -124t-25 -139v-23h-16q-70 0 -132.5 33.5t-99.5 96.5z" />
</svg>
