<?xml version="1.0" standalone="no"?>
<!DOCTYPE svg PUBLIC "-//W3C//DTD SVG 1.1//EN" "http://www.w3.org/Graphics/SVG/1.1/DTD/svg11.dtd" >
<svg xmlns="http://www.w3.org/2000/svg" xmlns:xlink="http://www.w3.org/1999/xlink" version="1.1" viewBox="-10 0 1577 2048">
   <path fill="currentColor"
d="M0 1206q0 -130 81 -231.5t205 -129.5q34 -154 157 -252.5t282 -98.5q91 0 165 30q0 1 1 2q93 36 165 115h2q76 82 102 196h23q122 0 212 64q60 40 100 99.5t54 129.5q4 24 6 39v1v3q0 1 1 13t1 18v1v1q0 99 -47.5 183.5t-130 135t-181.5 53.5q-15 0 -15 -13v-100
q0 -14 15 -14q96 -5 163 -76.5t67 -168.5q0 -99 -72 -171t-173 -72h-120q-13 0 -13 -13l-6 -44q-11 -112 -95 -193q0 -1 -1 -2.5t-2 -1.5q-2 -2 -3 -2q0 -2 -1 -2q-82 -74 -192 -84q-7 -1 -25 -1q-123 0 -214 82.5t-103 203.5l-5 44q-4 11 -17 11l-38 2q-94 11 -157 79.5
t-63 163.5v3h2q0 53 22 100.5t60 81.5q23 20 56 36q44 22 90 24q13 0 13 14v100q0 12 -13 12q-58 -3 -111 -22v1q-93 -33 -157.5 -107.5t-83.5 -172.5v-2v-3q-6 -29 -6 -65zM411 1742q0 -3 1.5 -9t1.5 -9l7 -44q8 -27 30.5 -40t50.5 -6q26 8 38.5 31t4.5 47l-10 45
q-12 49 -57 49q-4 0 -10.5 -1.5t-9.5 -1.5q-24 -7 -35.5 -24.5t-11.5 -36.5zM467 1522q0 -27 17.5 -44.5t44 -17.5t44 17.5t17.5 44.5q0 26 -17.5 43.5t-44.5 17.5q-26 0 -42 -18q-19 -18 -19 -43zM589 1970q0 -4 3 -17l10 -44q8 -25 31 -38t47 -6q26 5 39 27.5t6 51.5
l-10 44q-11 46 -59 46q-9 0 -18 -3q-25 -7 -37 -24.5t-12 -36.5zM648 1753q0 -26 17.5 -43.5t44 -17.5t44 17.5t17.5 43.5t-17.5 43.5t-43.5 17.5q-25 0 -43.5 -18t-18.5 -43zM694 1583q0 -11 2 -20l17 -68q8 -25 31 -39t48 -6q26 8 39 30t6 47l-20 67q-9 31 -31 42t-48 4
q-22 -4 -33.5 -22t-10.5 -35zM901 1743q0 -4 1 -10t1 -8l7 -45q8 -26 30.5 -39t50.5 -6q26 8 39 31t5 47l-11 44q-11 50 -56 50q-4 0 -11 -1.5t-10 -1.5q-23 -7 -34.5 -24.5t-11.5 -36.5zM956 1523q0 -27 17.5 -44.5t44.5 -17.5t44.5 17.5t17.5 44.5q0 26 -17.5 43.5
t-44.5 17.5t-43 -19q-19 -16 -19 -42z" />
</svg>
