<?xml version="1.0" standalone="no"?>
<!DOCTYPE svg PUBLIC "-//W3C//DTD SVG 1.1//EN" "http://www.w3.org/Graphics/SVG/1.1/DTD/svg11.dtd" >
<svg xmlns="http://www.w3.org/2000/svg" xmlns:xlink="http://www.w3.org/1999/xlink" version="1.1" viewBox="-10 0 1608 2048">
   <path fill="currentColor"
d="M0 1107q0 -27 19 -46q20 -19 45 -19h153q25 0 42.5 19t17.5 45.5t-17.5 45t-42.5 18.5h-153q-26 0 -45 -19t-19 -44zM214 590q0 -26 17 -45q23 -19 48 -19q24 0 44 19l106 109q19 17 19 44t-18 44.5t-45 17.5t-44 -18l-110 -106q-17 -19 -17 -46zM226 1286
q0 -25 17.5 -41.5t47.5 -16.5h426q31 0 48.5 16.5t17.5 41.5q0 30 -17.5 48t-48.5 18h-426q-30 0 -47.5 -17.5t-17.5 -48.5zM299 1507q0 -25 21 -45.5t45 -20.5q29 0 47 20t18 46q0 30 -17.5 47.5t-47.5 17.5q-26 0 -46 -18t-20 -47zM405 1128v-5q3 -140 97.5 -244.5
t231.5 -126.5h2h2q22 -4 57 -4t56 4h2h1q137 22 231.5 126.5t97.5 244.5v5q0 19 -16 19h-85q-14 0 -19.5 -7.5t-5.5 -13.5q-4 -104 -80.5 -176.5t-182 -72.5t-182 72.5t-80.5 176.5q0 6 -6 13.5t-19 7.5h-85q-17 0 -17 -19zM480 1507q0 -26 18 -46t47 -20h287q24 0 45 20.5
t21 45.5q0 29 -20 47t-46 18h-287q-30 0 -47.5 -17.5t-17.5 -47.5zM730 529v-152q0 -26 19 -45t45 -19t45 19t19 45v152q0 26 -19 43.5t-45.5 17.5t-45 -17.5t-18.5 -43.5zM832 1286q0 -24 20 -41t45.5 -17t45.5 17t20 41q0 29 -20 47.5t-45.5 18.5t-45.5 -18.5t-20 -47.5z
M947 1507q0 -26 18 -46t47 -20h139q30 0 47.5 20t17.5 46q0 30 -17 47.5t-48 17.5h-139q-30 0 -47.5 -17.5t-17.5 -47.5zM1012 1286q0 -24 20 -41t46 -17h229q24 0 40 16.5t16 41.5q0 30 -15.5 48t-40.5 18h-229q-26 0 -46 -18.5t-20 -47.5zM1143 698q0 -28 17 -44l106 -109
q20 -19 44 -19q26 0 45 19t19 45q0 28 -18 46l-110 106q-20 18 -44 18q-26 0 -42.5 -17.5t-16.5 -44.5zM1312 1107q0 -26 18 -46q19 -19 43 -19h151q26 0 45 19.5t19 45t-19 44.5t-45 19h-151q-26 0 -43.5 -18.5t-17.5 -44.5z" />
</svg>
