<?xml version="1.0" standalone="no"?>
<!DOCTYPE svg PUBLIC "-//W3C//DTD SVG 1.1//EN" "http://www.w3.org/Graphics/SVG/1.1/DTD/svg11.dtd" >
<svg xmlns="http://www.w3.org/2000/svg" xmlns:xlink="http://www.w3.org/1999/xlink" version="1.1" viewBox="-10 0 2177 2048">
   <path fill="currentColor"
d="M0 844q0 29 18 44q19 18 45 18h1109q28 0 49 19.5t21 48.5t-21 50.5t-49 21.5q-29 0 -50 -22q-20 -17 -43 -18q-26 0 -43.5 17t-17.5 43q0 25 18 44q57 56 136 56t134.5 -55.5t55.5 -136.5q0 -79 -55.5 -135.5t-134.5 -56.5h-1109q-26 0 -44.5 18.5t-18.5 43.5zM0 628
q0 28 18 42q19 17 45 18h1473q79 0 135 -56t56 -135.5t-56 -135t-135 -55.5q-78 0 -135 54q-17 20 -17 46q0 25 17 41.5t43 16.5q24 0 44 -16q19 -20 48 -20q28 0 49 20t21 48.5t-21 50t-49 21.5h-1473q-26 0 -44.5 18t-18.5 42zM1357 1736h706l43 -202h-392v-4
q32 -14 92 -38t101.5 -41t92.5 -47t82 -61.5t53 -79.5t22 -107q0 -88 -46 -148.5t-115 -86t-155 -25.5q-155 0 -253.5 83.5t-117.5 246.5h223q0 -59 34.5 -100t97.5 -42q48 0 72 26t24 58q0 19 -3.5 34t-16.5 30t-22.5 23.5t-36.5 23.5t-42.5 23t-56.5 28q-141 68 -175 88
q-128 77 -177 190q-25 56 -34 128z" />
</svg>
