<?xml version="1.0" standalone="no"?>
<!DOCTYPE svg PUBLIC "-//W3C//DTD SVG 1.1//EN" "http://www.w3.org/Graphics/SVG/1.1/DTD/svg11.dtd" >
<svg xmlns="http://www.w3.org/2000/svg" xmlns:xlink="http://www.w3.org/1999/xlink" version="1.1" viewBox="-10 0 2156 2048">
   <path fill="currentColor"
d="M0 844q0 29 18 44q19 18 45 18h1109q28 0 49 19.5t21 48.5t-21 50.5t-49 21.5q-29 0 -50 -22q-20 -17 -43 -18q-26 0 -43.5 17t-17.5 43q0 25 18 44q57 56 136 56t134.5 -55.5t55.5 -136.5q0 -79 -55.5 -135.5t-134.5 -56.5h-1109q-26 0 -44.5 18.5t-18.5 43.5zM0 628
q0 28 18 42q19 17 45 18h1473q79 0 135 -56t56 -135.5t-56 -135t-135 -55.5q-78 0 -135 54q-17 20 -17 46q0 25 17 41.5t43 16.5q24 0 44 -16q19 -20 48 -20q28 0 49 20t21 48.5t-21 50t-49 21.5h-1473q-26 0 -44.5 18t-18.5 42zM1396 1486q0 44 17 84.5t53 79.5t102.5 62.5
t155.5 23.5q193 0 281 -77t88 -209q0 -58 -32.5 -106t-84.5 -54v-2q69 -12 114.5 -61.5t45.5 -120.5q0 -49 -18 -86.5t-46.5 -61.5t-68.5 -39.5t-80.5 -22t-85.5 -6.5q-148 0 -243 72t-117 214h217q7 -49 40.5 -76t83.5 -28q46 0 72.5 20t26.5 54q0 74 -135 74h-50l-31 150
h47q109 0 109 74q0 50 -36 77t-88 27q-61 0 -89 -36q-27 -34 -22 -94h-221q-5 30 -5 68z" />
</svg>
