<?xml version="1.0" standalone="no"?>
<!DOCTYPE svg PUBLIC "-//W3C//DTD SVG 1.1//EN" "http://www.w3.org/Graphics/SVG/1.1/DTD/svg11.dtd" >
<svg xmlns="http://www.w3.org/2000/svg" xmlns:xlink="http://www.w3.org/1999/xlink" version="1.1" viewBox="-10 0 2170 2048">
   <path fill="currentColor"
d="M0 844q0 29 18 44q19 18 45 18h1109q28 0 49 19.5t21 48.5t-21 50.5t-49 21.5q-29 0 -50 -22q-20 -17 -43 -18q-26 0 -43.5 17t-17.5 43q0 25 18 44q57 56 136 56t134.5 -55.5t55.5 -136.5q0 -79 -55.5 -135.5t-134.5 -56.5h-1109q-26 0 -44.5 18.5t-18.5 43.5zM0 628
q0 28 18 42q19 17 45 18h1473q79 0 135 -56t56 -135.5t-56 -135t-135 -55.5q-78 0 -135 54q-17 20 -17 46q0 25 17 41.5t43 16.5q24 0 44 -16q19 -20 48 -20q28 0 49 20t21 48.5t-21 50t-49 21.5h-1473q-26 0 -44.5 18t-18.5 42zM1394 1472q-4 50 12.5 97t53 86t104 63
t158.5 24q92 0 163.5 -24.5t111.5 -61t65.5 -84.5t34 -87t8.5 -79q0 -106 -68.5 -171t-176.5 -65q-111 0 -155 46h-2l37 -110h368l42 -200h-559l-155 476h213q26 -54 118 -54q51 0 82 26.5t31 79.5q0 54 -37 87t-107 33q-50 0 -78 -18q-34 -18 -38 -64h-226z" />
</svg>
