<?xml version="1.0" standalone="no"?>
<!DOCTYPE svg PUBLIC "-//W3C//DTD SVG 1.1//EN" "http://www.w3.org/Graphics/SVG/1.1/DTD/svg11.dtd" >
<svg xmlns="http://www.w3.org/2000/svg" xmlns:xlink="http://www.w3.org/1999/xlink" version="1.1" viewBox="-10 0 2198 2048">
   <path fill="currentColor"
d="M0 844q0 29 18 44q19 18 45 18h1109q28 0 49 19.5t21 48.5t-21 50.5t-49 21.5q-29 0 -50 -22q-20 -17 -43 -18q-26 0 -43.5 17t-17.5 43q0 25 18 44q57 56 136 56t134.5 -55.5t55.5 -136.5q0 -79 -55.5 -135.5t-134.5 -56.5h-1109q-26 0 -44.5 18.5t-18.5 43.5zM0 628
q0 28 18 42q19 17 45 18h1473q79 0 135 -56t56 -135.5t-56 -135t-135 -55.5q-78 0 -135 54q-17 20 -17 46q0 25 17 41.5t43 16.5q24 0 44 -16q19 -20 48 -20q28 0 49 20t21 48.5t-21 50t-49 21.5h-1473q-26 0 -44.5 18t-18.5 42zM1495 1740h263q42 -206 148.5 -370
t230.5 -260l41 -200h-636l-44 202h372q-316 318 -375 628z" />
</svg>
