<?xml version="1.0" standalone="no"?>
<!DOCTYPE svg PUBLIC "-//W3C//DTD SVG 1.1//EN" "http://www.w3.org/Graphics/SVG/1.1/DTD/svg11.dtd" >
<svg xmlns="http://www.w3.org/2000/svg" xmlns:xlink="http://www.w3.org/1999/xlink" version="1.1" viewBox="-10 0 2164 2048">
   <path fill="currentColor"
d="M0 844q0 29 18 44q19 18 45 18h1109q28 0 49 19.5t21 48.5t-21 50.5t-49 21.5q-29 0 -50 -22q-20 -17 -43 -18q-26 0 -43.5 17t-17.5 43q0 25 18 44q57 56 136 56t134.5 -55.5t55.5 -136.5q0 -79 -55.5 -135.5t-134.5 -56.5h-1109q-26 0 -44.5 18.5t-18.5 43.5zM0 628
q0 28 18 42q19 17 45 18h1473q79 0 135 -56t56 -135.5t-56 -135t-135 -55.5q-78 0 -135 54q-17 20 -17 46q0 25 17 41.5t43 16.5q24 0 44 -16q19 -20 48 -20q28 0 49 20t21 48.5t-21 50t-49 21.5h-1473q-26 0 -44.5 18t-18.5 42zM1386 1502q0 118 91.5 178t246.5 60
q95 0 168 -19t114 -47t66.5 -66.5t33.5 -70t8 -65.5q0 -66 -38 -113.5t-100 -60.5l2 -2q72 -10 119 -63.5t47 -126.5q0 -61 -28 -104.5t-76 -65.5t-98 -31t-108 -9q-76 0 -137 15t-99 39t-63 57t-35 64.5t-10 66.5q0 55 29 95.5t80 56.5v4q-90 10 -151.5 65t-61.5 143z
M1612 1478q0 -55 45 -81t108 -27q65 0 94.5 30t29.5 64v14q0 44 -40.5 67t-103.5 23h3q-22 0 -43 -3t-43.5 -12t-36 -28.5t-13.5 -46.5zM1693 1150q0 -50 39.5 -73t95.5 -23q48 0 81.5 21t33.5 67q0 12 -5 25.5t-18 28.5t-42 25.5t-70 10.5q-64 0 -89.5 -24.5t-25.5 -57.5z
" />
</svg>
