<?xml version="1.0" standalone="no"?>
<!DOCTYPE svg PUBLIC "-//W3C//DTD SVG 1.1//EN" "http://www.w3.org/Graphics/SVG/1.1/DTD/svg11.dtd" >
<svg xmlns="http://www.w3.org/2000/svg" xmlns:xlink="http://www.w3.org/1999/xlink" version="1.1" viewBox="-10 0 2145 2048">
   <path fill="currentColor"
d="M0 844q0 29 18 44q19 18 45 18h1109q28 0 49 19.5t21 48.5t-21 50.5t-49 21.5q-29 0 -50 -22q-20 -17 -43 -18q-26 0 -43.5 17t-17.5 43q0 25 18 44q57 56 136 56t134.5 -55.5t55.5 -136.5q0 -79 -55.5 -135.5t-134.5 -56.5h-1109q-26 0 -44.5 18.5t-18.5 43.5zM0 628
q0 28 18 42q19 17 45 18h1473q79 0 135 -56t56 -135.5t-56 -135t-135 -55.5q-78 0 -135 54q-17 20 -17 46q0 25 17 41.5t43 16.5q24 0 44 -16q19 -20 48 -20q28 0 49 20t21 48.5t-21 50t-49 21.5h-1473q-26 0 -44.5 18t-18.5 42zM1397 1512q3 64 30 110t71.5 71t95.5 36.5
t111 10.5q91 0 165.5 -34t120.5 -86t77.5 -120t44 -131.5t12.5 -122.5q0 -170 -86.5 -260t-231.5 -90q-149 0 -252 91t-103 239q0 106 67.5 173t173.5 67q57 0 111.5 -23t76.5 -59h3q-19 77 -62 130.5t-113 53.5q-46 0 -63 -10q-20 -17 -26 -46h-223zM1671 1206
q0 -50 31 -86.5t92 -37.5q54 0 82.5 27.5t28.5 82.5q0 14 -6 32t-19 38t-39 33.5t-60 13t-57.5 -12.5t-34 -30t-14.5 -33t-4 -27z" />
</svg>
