<?xml version="1.0" standalone="no"?>
<!DOCTYPE svg PUBLIC "-//W3C//DTD SVG 1.1//EN" "http://www.w3.org/Graphics/SVG/1.1/DTD/svg11.dtd" >
<svg xmlns="http://www.w3.org/2000/svg" xmlns:xlink="http://www.w3.org/1999/xlink" version="1.1" viewBox="-10 0 2556 2048">
   <path fill="currentColor"
d="M0 844q0 29 18 44q19 18 45 18h1109q28 0 49 19.5t21 48.5t-21 50.5t-49 21.5q-29 0 -50 -22q-20 -17 -43 -18q-26 0 -43.5 17t-17.5 43q0 25 18 44q57 56 136 56t134.5 -55.5t55.5 -136.5q0 -79 -55.5 -135.5t-134.5 -56.5h-1109q-26 0 -44.5 18.5t-18.5 43.5zM0 628
q0 28 18 42q19 17 45 18h1473q79 0 135 -56t56 -135.5t-56 -135t-135 -55.5q-78 0 -135 54q-17 20 -17 46q0 25 17 41.5t43 16.5q24 0 44 -16q19 -20 48 -20q28 0 49 20t21 48.5t-21 50t-49 21.5h-1473q-26 0 -44.5 18t-18.5 42zM1367 1730h262l175 -848h-261zM1814 1418
q0 83 26 147.5t70 101.5t96.5 55t111.5 18q98 0 175 -40t121 -98.5t73 -133.5t39 -135t10 -113q0 -154 -85 -239.5t-227 -84.5q-165 0 -287.5 145.5t-122.5 376.5zM2033 1428q0 -25 4.5 -62.5t17.5 -89.5t32.5 -95t55 -73.5t79.5 -31.5q43 0 69 29t26 85q0 154 -53.5 261.5
t-131.5 106.5q-99 0 -99 -130z" />
</svg>
