<?xml version="1.0" standalone="no"?>
<!DOCTYPE svg PUBLIC "-//W3C//DTD SVG 1.1//EN" "http://www.w3.org/Graphics/SVG/1.1/DTD/svg11.dtd" >
<svg xmlns="http://www.w3.org/2000/svg" xmlns:xlink="http://www.w3.org/1999/xlink" version="1.1" viewBox="-10 0 2574 2048">
   <path fill="currentColor"
d="M0 844q0 29 18 44q19 18 45 18h1109q28 0 49 19.5t21 48.5t-21 50.5t-49 21.5q-29 0 -50 -22q-20 -17 -43 -18q-26 0 -43.5 17t-17.5 43q0 25 18 44q57 56 136 56t134.5 -55.5t55.5 -136.5q0 -79 -55.5 -135.5t-134.5 -56.5h-1109q-26 0 -44.5 18.5t-18.5 43.5zM0 628
q0 28 18 42q19 17 45 18h1473q79 0 135 -56t56 -135.5t-56 -135t-135 -55.5q-78 0 -135 54q-17 20 -17 46q0 25 17 41.5t43 16.5q24 0 44 -16q19 -20 48 -20q28 0 49 20t21 48.5t-21 50t-49 21.5h-1473q-26 0 -44.5 18t-18.5 42zM1375 1740h263l176 -852h-263zM1754 1740
h706l43 -202h-391v-2q32 -16 92 -40t101 -40.5t92 -47t82 -61.5t53 -79.5t22 -107.5q0 -88 -46 -148t-115 -85.5t-155 -24.5q-155 0 -253 83.5t-117 246.5h221q0 -60 35 -101t99 -41q48 0 71.5 25t23.5 59q0 52 -35 80.5t-133 77.5q-6 1 -9 4q-142 67 -176 88
q-127 76 -176 186q-26 58 -35 130z" />
</svg>
