<?xml version="1.0" standalone="no"?>
<!DOCTYPE svg PUBLIC "-//W3C//DTD SVG 1.1//EN" "http://www.w3.org/Graphics/SVG/1.1/DTD/svg11.dtd" >
<svg xmlns="http://www.w3.org/2000/svg" xmlns:xlink="http://www.w3.org/1999/xlink" version="1.1" viewBox="-10 0 1918 2048">
   <path fill="currentColor"
d="M0 1049q0 27 20 45q17 19 44 19h705q26 0 43.5 -18.5t17.5 -45.5q0 -26 -17.5 -44t-43.5 -18h-705q-26 0 -45 18t-19 44zM25 1509q0 27 19 45q18 19 45 18h705q26 0 45 -18.5t19 -44.5t-19 -44t-45 -18h-705q-27 0 -45.5 18t-18.5 44zM128 1277q0 26 18.5 43.5t46.5 17.5
h703q27 0 44.5 -17.5t17.5 -43.5q0 -28 -17.5 -46t-44.5 -18h-703q-28 0 -46.5 18.5t-18.5 45.5zM309 802q0 -26 20 -46q19 -18 44 -18h152q26 0 43.5 19t17.5 45.5t-17.5 45t-43.5 18.5h-152q-26 0 -45 -19t-19 -45zM523 285q0 -25 18 -45q22 -18 47 -18q24 0 44 18
l106 110q19 17 19 44t-18 44.5t-45 17.5t-44 -18l-109 -106q-18 -20 -18 -47zM713 793v-5q2 -102 55.5 -188.5t142.5 -136.5t192 -50q78 0 150.5 31t124.5 83.5t83 124.5t31 150q0 106 -52 195t-141 141.5t-194 52.5h-15q-7 0 -13 -5.5t-6 -13.5v-91q0 -14 16 -14h19
q108 -1 184.5 -78.5t76.5 -186.5q0 -107 -77.5 -183.5t-186.5 -76.5q-106 0 -182.5 73t-80.5 177q0 6 -5.5 13t-18.5 7h-86q-17 0 -17 -19zM1040 1532v-149q0 -26 18 -44.5t45 -18.5t45.5 18.5t18.5 44.5v149q0 27 -19 46t-45.5 19t-44.5 -18.5t-18 -46.5zM1040 225v-153
q0 -26 18.5 -44.5t44.5 -18.5t45 18.5t19 44.5v153q0 26 -19 43t-45.5 17t-44.5 -17t-18 -43zM1452 1210q0 -26 17 -42q16 -17 42 -17q28 0 45 17l109 107q18 19 18 45t-18 44q-45 35 -90 0l-106 -106q-17 -19 -17 -48zM1452 394q0 -28 17 -44l106 -110q20 -18 44 -18
q27 0 45.5 18.5t18.5 44.5q0 28 -18 47l-109 106q-20 18 -45 18t-42 -17.5t-17 -44.5zM1621 802q0 -25 19 -46q18 -18 42 -18h151q26 0 45.5 19.5t19.5 45t-19.5 44.5t-45.5 19h-151q-26 0 -43.5 -18.5t-17.5 -45.5z" />
</svg>
