<?xml version="1.0" standalone="no"?>
<!DOCTYPE svg PUBLIC "-//W3C//DTD SVG 1.1//EN" "http://www.w3.org/Graphics/SVG/1.1/DTD/svg11.dtd" >
<svg xmlns="http://www.w3.org/2000/svg" xmlns:xlink="http://www.w3.org/1999/xlink" version="1.1" viewBox="-10 0 1505 2048">
   <path fill="currentColor"
d="M0 1527q0 -18 13 -31.5t30 -13.5h31q-24 -73 -40 -155q-23 -123 -23 -223q0 -192 67 -360q69 -164 193 -281q126 -119 292 -180q168 -65 367 -65q119 0 224 21q106 25 204 77l127 68l-140 30q-66 14 -90 58q-18 36 2 82l31 71l-77 4q-48 3 -88 20q-36 18 -43 37
q-12 25 26 75l61 72l-94 13q-174 26 -285 72t-176 119q-63 70 -93.5 177t-32.5 268h393v-208l-29 18q-16 9 -34.5 4.5t-27.5 -20.5q-10 -15 -6 -33.5t20 -28.5l285 -178l2 -2h1h1q1 0 2 -1q8 -3 17 -5h2h2q1 1 2 1h1h1h2h1q0 1 1 1h1h2l1 1h1q2 1 2 2h1q1 0 1 1h2q1 0 2 1
l1 1l286 176q16 9 19.5 28t-5.5 35q-9 15 -28 19.5t-34 -5.5l-23 -14v207h71q18 0 30 13.5t12 31.5q1 19 -11.5 32t-30.5 13h-1379q-18 0 -30.5 -12.5t-12.5 -32.5zM116 1104q0 80 22 204q17 91 41 158h201q5 -163 33 -268q40 -143 120 -232q82 -91 216 -146q92 -39 233 -65
l-7 -19q-11 -51 7 -92q26 -57 96 -90q8 -4 14 -6q-96 -22 -194 -10q-111 14 -208 63q-124 66 -225 185q-11 14 -28 14q-14 0 -24 -8q-11 -10 -12.5 -25.5t7.5 -27.5q113 -133 250 -204q110 -56 235 -71q63 -8 124 -1t85.5 12.5t33.5 8.5l7 2q5 -34 18 -63q17 -32 48 -59
q-34 -11 -78 -21q-90 -20 -201 -20q-177 0 -330 58q-150 57 -256 159q-110 103 -167 244q-61 151 -61 320zM970 1482h290v-263l-148 -91l-142 89v265z" />
</svg>
