<?xml version="1.0" standalone="no"?>
<!DOCTYPE svg PUBLIC "-//W3C//DTD SVG 1.1//EN" "http://www.w3.org/Graphics/SVG/1.1/DTD/svg11.dtd" >
<svg xmlns="http://www.w3.org/2000/svg" xmlns:xlink="http://www.w3.org/1999/xlink" version="1.1" viewBox="-10 0 1477 2048">
   <path fill="currentColor"
d="M0 1082.5q0 17.5 12.5 30t30.5 12.5h223q16 0 27.5 -10t14.5 -25l68 -394l121 985q3 16 14.5 26.5t26.5 10.5q17 0 29 -10.5t15 -26.5l93 -723l77 210q5 12 15.5 20t24.5 8h3q14 -1 24.5 -10t14.5 -23l114 -513l53 985q1 16 11.5 27.5t26.5 13t28.5 -7.5t16.5 -25
l123 -518h208q17 0 29.5 -12.5t12.5 -30t-12.5 -30t-29.5 -12.5h-241q-15 0 -26.5 9t-15.5 23l-62 265l-54 -999q-1 -16 -12 -27.5t-27 -12.5t-29 8.5t-16 25.5l-149 670l-87 -236q-5 -13 -18 -21t-27 -6q-15 1 -25 11.5t-13 25.5l-73 561l-115 -938q-3 -16 -14 -26.5
t-26 -10.5q-16 -1 -28.5 9t-15.5 26l-110 643h-188q-18 0 -30.5 12.5t-12.5 30z" />
</svg>
