<?xml version="1.0" standalone="no"?>
<!DOCTYPE svg PUBLIC "-//W3C//DTD SVG 1.1//EN" "http://www.w3.org/Graphics/SVG/1.1/DTD/svg11.dtd" >
<svg xmlns="http://www.w3.org/2000/svg" xmlns:xlink="http://www.w3.org/1999/xlink" version="1.1" viewBox="-11 0 1161 2048">
   <path fill="currentColor"
d="M0 1571q0 -34 21.5 -57t52.5 -23v-2l984 3q7 -1 8 -1q31 0 52.5 24t20.5 57q0 34 -21.5 57t-52.5 23v1l-975 -2q-11 1 -16 1q-31 0 -53 -23.5t-21 -57.5zM62 1163q-2 -48 12 -114q6 -34 33 -102q2 -6 9 -21l3.5 3.5l1.5 1.5q11 50 36 90q23 37 61 52q29 12 82 13
q2 0 6 0.5t6 0.5q-37 -37 -59 -75q-34 -58 -43 -135q-7 -61 7 -147q3 -16 22 -75q17 -53 48 -96q36 -55 104 -113q41 -35 116 -80q8 -5 26 -14v4v3v1q-28 65 -37 130q-7 59 18 111q19 40 69 86q10 10 44 43t53 51l19 19q29 -43 33 -101q4 -62 -11 -135l1 -8q2 2 22 18
q62 56 96 100q54 70 79 131q21 51 28 104q7 48 6 78q-1 88 -19 147q-8 24 -14 38q28 -7 48 -19q28 -18 45 -49q18 -32 29 -74q0 -1 2 -3q1 2 3.5 6.5t3.5 7.5q14 35 20 72q9 42 6 85q-2 32 -12 60q-9 27 -17 43q-21 43 -46 73q-7 9 -11 12h-820q-1 -1 -4.5 -4t-6.5 -5
q-30 -29 -61 -85q-9 -17 -22 -52t-15 -77z" />
</svg>
