<?xml version="1.0" standalone="no"?>
<!DOCTYPE svg PUBLIC "-//W3C//DTD SVG 1.1//EN" "http://www.w3.org/Graphics/SVG/1.1/DTD/svg11.dtd" >
<svg xmlns="http://www.w3.org/2000/svg" xmlns:xlink="http://www.w3.org/1999/xlink" version="1.1" viewBox="-10 0 1169 2048">
   <path fill="currentColor"
d="M6 1629q-14 -31 7 -60l104 -200q1 -4 8 -11q5 -5 29 -22q2 -1 51 -37q54 -36 126 -89l134 -223q19 -30 54 -30h53q-18 21 -33.5 44.5t-29 63.5t-13.5 80.5t21 93.5t66 104q31 35 37 69t-8 62t-44 55t-65.5 47t-80 39t-79 30.5t-69.5 21.5h-211q-18 0 -34 -10t-23 -28z
M212 518q0 -52 34 -93t86 -53q13 -63 64 -103.5t116 -40.5q63 0 112 39t65 101h10q65 0 112.5 40.5t47.5 96.5q0 63 -48 107q0 31 -27 70t-59 46q-7 34 -32 58t-61 32q17 18 17 41q0 28 -19.5 46.5t-47.5 18.5t-47.5 -19t-19.5 -46q0 -4 1.5 -11t1.5 -10h-3q-32 0 -56 -23.5
t-24 -56.5q0 -13 13 -40q-26 -14 -42 -47h-47q-61 -5 -104 -48t-43 -105zM556.5 1096q-0.5 -18 5.5 -40t12 -35.5t16 -33.5t14 -30h28q31 0 49 23l5 8l98 186l348 391l2 2q24 30 7 66q-17 34 -56 34h-421q20 -17 33 -29t34 -37t31.5 -46t17.5 -51.5t0.5 -59t-28 -62.5
t-60 -68t-65.5 -65.5t-42 -57t-21.5 -51.5t-7 -44z" />
</svg>
