<?xml version="1.0" standalone="no"?>
<!DOCTYPE svg PUBLIC "-//W3C//DTD SVG 1.1//EN" "http://www.w3.org/Graphics/SVG/1.1/DTD/svg11.dtd" >
<svg xmlns="http://www.w3.org/2000/svg" xmlns:xlink="http://www.w3.org/1999/xlink" version="1.1" viewBox="-10 0 1628 2048">
   <path fill="currentColor"
d="M0 887v-24q0 -11 7.5 -18.5t19.5 -7.5h566q12 0 19.5 7.5t7.5 18.5v24q0 11 -7.5 18t-19.5 7h-32v124h158q3 -32 26.5 -53.5t55.5 -21.5t55 21.5t26 53.5h99v-254q-16 -1 -26.5 -12.5t-10.5 -27.5v-23q0 -16 12 -28t29 -12h149q16 0 28 12t12 28v23q0 16 -10.5 27.5
t-25.5 12.5v254h116q31 0 53 22.5t22 52.5v219l279 364h-355v-227h-53q12 29 12 62q0 68 -48 116.5t-116 48.5t-116 -48.5t-48 -116.5q0 -33 11 -62h-75q13 31 13 62q0 68 -48.5 116.5t-116.5 48.5t-116 -48.5t-48 -116.5q0 -33 12 -62h-89q14 33 14 62q0 68 -49 116.5
t-117 48.5t-116 -48.5t-48 -116.5q0 -32 12 -63q-27 -4 -45 -25t-18 -49v-65h-2v-415h-31q-12 0 -19.5 -7t-7.5 -18zM153 1182q0 23 17 39.5t41 16.5h108q24 0 40 -16.5t16 -39.5v-172q0 -23 -16.5 -39.5t-39.5 -16.5h-108q-24 0 -41 16.5t-17 39.5v172zM862 345q0 46 35 78
q0 22 19.5 50.5t41.5 32.5q5 25 23.5 42.5t44.5 22.5q-12 12 -12 30q0 20 13.5 33.5t34 13.5t34.5 -14t14 -33q0 -2 -1 -7t-1 -8h2q24 0 40.5 -17t16.5 -41q0 -11 -9 -28q20 -11 31 -35h34q44 -4 75 -35t31 -75q0 -38 -24.5 -67.5t-62.5 -38.5q-9 -45 -46 -74.5t-84 -29.5
q-46 0 -81 28t-46 73h-8q-47 0 -81 29t-34 70z" />
</svg>
