<?xml version="1.0" standalone="no"?>
<!DOCTYPE svg PUBLIC "-//W3C//DTD SVG 1.1//EN" "http://www.w3.org/Graphics/SVG/1.1/DTD/svg11.dtd" >
<svg xmlns="http://www.w3.org/2000/svg" xmlns:xlink="http://www.w3.org/1999/xlink" version="1.1" viewBox="-10 0 1557 2048">
   <path fill="currentColor"
d="M0 1024q0 -156 61 -298.5t164 -245.5t245 -164t298 -60.5t298.5 61.5t245.5 164t164 245t61 298t-61 298t-164 245.5t-245.5 164.5t-298.5 60.5t-298 -61.5t-245 -164t-164 -245t-61 -298zM779 338q187 330 187 686q0 426 -181 686q137 -2 261 -58t213.5 -148
t142.5 -217.5t53 -262.5q0 -185 -90.5 -342t-246 -249.5t-339.5 -94.5z" />
</svg>
