<?xml version="1.0" standalone="no"?>
<!DOCTYPE svg PUBLIC "-//W3C//DTD SVG 1.1//EN" "http://www.w3.org/Graphics/SVG/1.1/DTD/svg11.dtd" >
<svg xmlns="http://www.w3.org/2000/svg" xmlns:xlink="http://www.w3.org/1999/xlink" version="1.1" viewBox="-10 0 1557 2048">
   <path fill="currentColor"
d="M0 1024q0 -156 61 -298.5t164 -245.5t245 -164t298 -60.5t298.5 61.5t245.5 164t164 245t61 298t-61 298t-164 245.5t-245.5 164.5t-298.5 60.5t-298 -61.5t-245 -164t-164 -245t-61 -298zM769 338q126 362 126 686q0 402 -121 686q138 -1 264.5 -55t217.5 -146
t145 -219.5t54 -266.5t-54.5 -266t-146.5 -218.5t-219 -146t-266 -54.5z" />
</svg>
