<?xml version="1.0" standalone="no"?>
<!DOCTYPE svg PUBLIC "-//W3C//DTD SVG 1.1//EN" "http://www.w3.org/Graphics/SVG/1.1/DTD/svg11.dtd" >
<svg xmlns="http://www.w3.org/2000/svg" xmlns:xlink="http://www.w3.org/1999/xlink" version="1.1" viewBox="-10 0 1559 2048">
   <path fill="currentColor"
d="M0 1024q0 -157 61 -299.5t164 -245.5t245.5 -164t298.5 -61q157 0 299.5 61.5t245.5 164.5t164 245.5t61 298.5t-61 299t-164 246t-245.5 164t-299.5 61q-156 0 -298.5 -61.5t-245.5 -164.5t-164 -245.5t-61 -298.5zM183 1024q0 80 10 147.5t39 142.5t77 138.5t128 127.5
t189 116q69 16 143 16q140 0 267 -54.5t219.5 -146.5t147 -219.5t54.5 -267.5q0 -186 -92.5 -344.5t-251 -251t-344.5 -92.5q-87 0 -158 18q-90 44 -160 94.5t-115.5 105.5t-77 110.5t-47 118.5t-22 119t-6.5 122z" />
</svg>
