<?xml version="1.0" standalone="no"?>
<!DOCTYPE svg PUBLIC "-//W3C//DTD SVG 1.1//EN" "http://www.w3.org/Graphics/SVG/1.1/DTD/svg11.dtd" >
<svg xmlns="http://www.w3.org/2000/svg" xmlns:xlink="http://www.w3.org/1999/xlink" version="1.1" viewBox="-10 0 1557 2048">
   <path fill="currentColor"
d="M0 1024q0 -156 61 -298.5t164 -245.5t245 -164t298 -60.5t298.5 61.5t245.5 164t164 245t61 298t-61 298t-164 245.5t-245.5 164.5t-298.5 60.5t-298 -61.5t-245 -164t-164 -245t-61 -298zM82 1024q0 139 54.5 266.5t146.5 219t219 146t266 54.5h26q61 -66 102.5 -149.5
t61.5 -176t28 -176.5t8 -184q0 -194 -50 -373.5t-157 -312.5h-19q-139 0 -266 54t-219 146t-146.5 219.5t-54.5 266.5z" />
</svg>
