<?xml version="1.0" standalone="no"?>
<!DOCTYPE svg PUBLIC "-//W3C//DTD SVG 1.1//EN" "http://www.w3.org/Graphics/SVG/1.1/DTD/svg11.dtd" >
<svg xmlns="http://www.w3.org/2000/svg" xmlns:xlink="http://www.w3.org/1999/xlink" version="1.1" viewBox="-10 0 1557 2048">
   <path fill="currentColor"
d="M0 1024q0 -156 61 -298.5t164 -245.5t245 -164t298 -60.5t298.5 61.5t245.5 164t164 245t61 298t-61 298t-164 245.5t-245.5 164.5t-298.5 60.5t-298 -61.5t-245 -164t-164 -245t-61 -298zM82 1024q0 136 52.5 262t142 217.5t213.5 147t260 59.5q-175 -238 -175 -686
q0 -191 47 -369.5t133 -316.5q-184 2 -338.5 95t-244.5 249.5t-90 341.5z" />
</svg>
