<?xml version="1.0" standalone="no"?>
<!DOCTYPE svg PUBLIC "-//W3C//DTD SVG 1.1//EN" "http://www.w3.org/Graphics/SVG/1.1/DTD/svg11.dtd" >
<svg xmlns="http://www.w3.org/2000/svg" xmlns:xlink="http://www.w3.org/1999/xlink" version="1.1" viewBox="-10 0 1808 2048">
   <path fill="currentColor"
d="M81 808v541h445v90h360v-90h803v-541h-1608zM526 1258h-90v-264h-84v264h-181v-360h355v360zM977 1258h-178v91h-180v-451h358v360zM1605 1258h-90v-264h-91v264h-90v-264h-90v264h-180v-360h541v360zM886 994h-87v168h87v-168zM781 297q37 38 112.5 113t113.5 112h781
v1229h-1788v-1454h781z" />
</svg>
