<?xml version="1.0" standalone="no"?>
<!DOCTYPE svg PUBLIC "-//W3C//DTD SVG 1.1//EN" "http://www.w3.org/Graphics/SVG/1.1/DTD/svg11.dtd" >
<svg xmlns="http://www.w3.org/2000/svg" xmlns:xlink="http://www.w3.org/1999/xlink" version="1.1" viewBox="-10 0 1808 2048">
   <path fill="currentColor"
d="M0 297h784q38 37 112 111.5t111 111.5h781v1231h-1788v-1454zM882 621l-12 1l-12 4q-25 17 -65.5 58t-45.5 46q18 18 53.5 54t53.5 54q51 4 88 31t18 77l92 92q10 7 30 13t37 11t32.5 13.5t22 26t0.5 43.5q-9 51 -56 59q-45 7 -78 -24q-36 -33 -14 -80l-104 -104v228
q-6 20 4.5 41.5t23 35.5t17 36t-13.5 44q-33 53 -84 32q-38 -16 -53 -56q-20 -51 25 -80q8 -5 17 -9v-254q-1 -13 -12.5 -28.5t-22.5 -27t-15.5 -30.5t8.5 -38q-19 -19 -57.5 -57t-57.5 -57q-43 44 -129.5 131.5t-129.5 131.5q-3 3 -19.5 19t-22 23.5t-13.5 22t-6 27.5
t13 27l409 409q3 3 18.5 19.5t23 22t21.5 13.5t27 6t27 -13q2 -2 413 -407q22 -18 36 -37t18.5 -45t-18.5 -47l-367 -367q-12 -10 -34 -34.5t-42 -39.5t-44 -17z" />
</svg>
