<?xml version="1.0" standalone="no"?>
<!DOCTYPE svg PUBLIC "-//W3C//DTD SVG 1.1//EN" "http://www.w3.org/Graphics/SVG/1.1/DTD/svg11.dtd" >
<svg xmlns="http://www.w3.org/2000/svg" xmlns:xlink="http://www.w3.org/1999/xlink" version="1.1" viewBox="-10 0 1808 2048">
   <path fill="currentColor"
d="M0 297h784l223 223h781v1231h-1788v-1454zM490 664q-5 13 -13 39q-37 116 -23 215q-99 99 -85 268q9 152 76 235q46 61 113 98t141 41q27 3 201 11q11 -1 87 -3.5t116 -7.5q125 -17 199 -83q66 -54 98.5 -137t30.5 -174q12 -97 -79 -255q2 -151 -43 -247
q-102 19 -262 122q-143 -30 -294 0q-155 -108 -263 -122zM709 1098q16 1 74 6t90 5q39 3 141 -5.5t141 0.5q78 13 116.5 89t15.5 153q-7 50 -44.5 86t-83 52t-97.5 22q-90 9 -155 11t-148 -9t-150 -39q-48 -21 -74.5 -71t-25.5 -103t19 -103q44 -92 181 -94zM717 1190
q-48 -1 -72 66q-20 43 9 96q25 48 63 48q27 0 50 -31q23 -26 24.5 -66t-19 -73.5t-55.5 -39.5zM1088 1190q-29 0 -48 22.5t-26 52.5q-15 36 5 79t53 53t66 -28q20 -28 22.5 -67.5t-16.5 -72.5t-56 -39z" />
</svg>
