<?xml version="1.0" standalone="no"?>
<!DOCTYPE svg PUBLIC "-//W3C//DTD SVG 1.1//EN" "http://www.w3.org/Graphics/SVG/1.1/DTD/svg11.dtd" >
<svg xmlns="http://www.w3.org/2000/svg" xmlns:xlink="http://www.w3.org/1999/xlink" version="1.1" viewBox="-10 0 1436 2048">
   <path fill="currentColor"
d="M1345 125q25 -5 48 14.5t23 41.5q0 21 -14 63q-3 0 -7 1.5t-6 3.5l-2 2q-7 0 -7 -7q-5 -20 -20 -27.5t-43 -7.5q-99 10 -154 99q-112 111 -197 295q-38 75 -92 225q-49 135 -49 246v70q0 16 9.5 20t25.5 -6q24 -16 64 -56v21q-2 1 -11 12t-11 13.5t-10.5 12.5t-12 13
t-12 11t-13.5 11t-14 8.5t-16 8t-16 5t-18 3.5q-22 5 -39 -9t-17 -40q0 -71 28 -183q64 -227 176 -421q88 -178 211 -310q28 -33 44 -50t44.5 -38t58.5 -31q28 -14 49 -14zM643 835q15 0 28.5 13t13.5 29q1 26 1.5 38.5t-4 37.5t-7 37.5t-9.5 37.5q-1 7 -2 11
q-70 250 -211 491q-90 167 -211 289q-3 2 -20.5 20.5t-24 24t-21 17.5t-27 18.5t-26.5 10.5q-42 14 -78 14q-30 0 -42 -49q-10 -51 21 -92q2 2 6 5t6 5t2 5q5 25 16.5 33.5t39.5 8.5q62 0 148 -71q118 -109 211 -295q62 -116 112 -302q29 -159 35 -232q6 -10 3 -27t-17 -22
l-15 -1.5t-12.5 4.5t-11 8t-10.5 10q-7 3 -12 8t-9.5 11.5t-6.5 8.5q-7 7 -14 7v-14q16 -33 64 -65.5t84 -32.5z" />
</svg>
