<?xml version="1.0" standalone="no"?>
<!DOCTYPE svg PUBLIC "-//W3C//DTD SVG 1.1//EN" "http://www.w3.org/Graphics/SVG/1.1/DTD/svg11.dtd" >
<svg xmlns="http://www.w3.org/2000/svg" xmlns:xlink="http://www.w3.org/1999/xlink" version="1.1" viewBox="-11 0 1508 2048">
   <path fill="currentColor"
d="M939 1161q-55 35 -175 109.5t-175 109.5q57 128 10 270q-37 117 -120.5 185.5t-198.5 84.5q-46 11 -110 -10q-51 -13 -70 -70q-60 -135 30 -240q6 -6 36.5 -38.5t50.5 -50.5t43 -31q28 -23 92 -59t88 -51q4 -5 9.5 -7.5t14.5 -6t16 -6.5q-11 -8 -23.5 -19t-20 -16
t-16.5 -5q-136 -85 -230 -179q-80 -80 -110 -130q-44 -34 -64 -78.5t-15.5 -90.5t29.5 -91q47 -117 180 -250q229 -201 539 -309q220 -79 420 -50q20 10 70 25t70 25q113 45 155 132.5t5 206.5q-64 207 -240 310q-123 76 -246.5 104t-263.5 6q-83 -14 -159 -90
q-20 -40 -30 -50q0 -10 10 -20q10 0 20 10q104 104 259 70q138 -25 245 -76.5t185 -143.5q75 -95 100 -180q28 -112 -90 -179q-96 -48 -240 -30q-269 40 -539 209q-150 83 -230 190q-30 40 -70 120q-24 59 -14 117.5t54 102.5q80 80 120 110q30 25 95 80t95 80q3 0 9 2t11 2
t10 -4q41 -28 79 -40q152 -85 280 -110q0 14 2.5 23.5t3.5 12t7.5 8t6.5 6.5zM510 1410q-135 75 -230 170q-55 55 -70 130q-7 44 18.5 65.5t71.5 14.5q112 -28 180 -130q36 -57 41.5 -117.5t-11.5 -132.5z" />
</svg>
