<?xml version="1.0" standalone="no"?>
<!DOCTYPE svg PUBLIC "-//W3C//DTD SVG 1.1//EN" "http://www.w3.org/Graphics/SVG/1.1/DTD/svg11.dtd" >
<svg xmlns="http://www.w3.org/2000/svg" xmlns:xlink="http://www.w3.org/1999/xlink" version="1.1" viewBox="-10 0 1800 2048">
   <path fill="currentColor"
d="M1780 466q0 12 -21 73q-87 -69 -190 -84q-103 -13 -231 42q-288 144 -379 432q-43 85 -43 211v168q22 170 43 253q21 116 105 348h-874v-53q0 -103 21 -284q36 -216 94 -390q56 -155 148 -337q99 -175 116 -200q89 -148 253 -264q130 -102 337 -136q179 -30 358 52
q168 74 263 169zM21 1456q49 0 169 21q-6 27 -16 84.5t-16 83.5q-26 -5 -79 -10t-79 -11q5 -30 10 -85.5t11 -82.5zM337 961q-19 38 -42 126q-27 -11 -79.5 -26t-78.5 -26q11 -21 27 -68.5t26 -68.5q46 23 147 63zM1148 1624q38 57 53 116v11h-11q-20 0 -69.5 -5.5
t-77.5 -5.5q-11 1 -11 -10q-6 -16 -15.5 -53t-15.5 -53v-10h10q89 0 137 10zM590 539q-16 21 -47.5 58t-47.5 58q-18 -18 -60.5 -46t-55.5 -38q32 -42 95 -105q21 10 58 36t58 37zM959 1319q0 -74 -11 -116h11q21 10 57.5 31t57.5 32q5 0 7.5 3t2.5 5l1 3q10 29 10 95v10
h-10q-50 -33 -126 -63zM927 276q-21 11 -58 32t-58 31q-2 -4 -29 -39.5t-34 -54.5q16 -11 47.5 -27t47.5 -26h10q11 16 37 42t37 42zM969 992q21 -62 53 -94q10 10 36 31t37 32l11 10v11q0 44 -21 105q-21 -16 -58 -47.5t-58 -47.5zM1275 223q-85 0 -127 11
q-6 -16 -10.5 -47.5t-10.5 -47.5h126q8 0 9.5 1.5t1.5 9.5q0 9 5.5 32.5t5.5 40.5zM1201 740q-23 44 -42 63q-16 -16 -47.5 -53t-47.5 -53q32 -21 74 -63v11q23 23 63 84v11zM1369 508q0 3 5.5 23.5t5.5 39.5q-44 23 -63 42q-5 -16 -21 -42t-21 -42q16 -5 47 -10t47 -11z
M1580 297v-52q16 11 52.5 36.5t52.5 36.5q-5 6 -10 16t-11 16q-12 -12 -44 -30t-40 -23zM1643 508q14 14 0 53q-9 0 -38 -5.5t-46 -5.5v-53h21q10 0 31 5.5t32 5.5z" />
</svg>
