<?xml version="1.0" standalone="no"?>
<!DOCTYPE svg PUBLIC "-//W3C//DTD SVG 1.1//EN" "http://www.w3.org/Graphics/SVG/1.1/DTD/svg11.dtd" >
<svg xmlns="http://www.w3.org/2000/svg" xmlns:xlink="http://www.w3.org/1999/xlink" version="1.1" viewBox="-10 0 1808 2048">
   <path fill="currentColor"
d="M1079 125h434q5 0 16 5t16 5q202 51 232 233q0 10 5.5 32t5.5 32v84q0 10 -5.5 32t-5.5 32q-5 74 -15.5 227.5t-15.5 227.5q-43 520 -53 751q0 32 -10.5 42.5t-42.5 10.5q-58 5 -169.5 10t-169.5 11q-116 6 -348.5 21t-349.5 21q-70 0 -190 21h-106q-5 0 -16 -5t-16 -5
q-98 -16 -164.5 -72.5t-89.5 -149.5q-6 -16 -10.5 -48t-10.5 -48v-53q0 -4 5.5 -17t5.5 -25q0 -42 5 -132t5 -132q0 -96 11 -138q65 -166 135 -291t172 -227q146 -154 300 -255.5t334 -146.5q14 -9 30.5 -17.5t38.5 -18.5t37 -17z" />
</svg>
