<?xml version="1.0" standalone="no"?>
<!DOCTYPE svg PUBLIC "-//W3C//DTD SVG 1.1//EN" "http://www.w3.org/Graphics/SVG/1.1/DTD/svg11.dtd" >
<svg xmlns="http://www.w3.org/2000/svg" xmlns:xlink="http://www.w3.org/1999/xlink" version="1.1" viewBox="-11 0 1783 2048">
   <path fill="currentColor"
d="M839 972h-208q-110 0 -175 65t-65 175v187q0 31 -31 31h-94q-145 0 -208 -125q-52 -106 -52 -187q-6 -65 -6.5 -116t8.5 -112t29 -116q24 -74 73.5 -123.5t124.5 -64.5h604q32 0 32 -10v-52q-22 -10 -32 -10h-354q-24 0 -33 -9.5t-9 -32.5v-136q0 -114 94 -145
q104 -42 156 -52q200 -34 376 10q82 16 145 62q36 37 53 70t10 76v375q0 110 -60 169.5t-169 59.5q-81 11 -209 11zM548 347q0 33 22.5 58t60.5 25q31 0 57 -26t26 -57q0 -30 -24.5 -52.5t-58.5 -30.5q-38 0 -60.5 25t-22.5 58zM923 1076h208q109 0 174.5 -65t65.5 -175
v-187q0 -31 31 -31h94q144 0 208 125q52 106 52 187q5 65 5.5 116t-8 112t-28.5 116q-25 74 -74 123.5t-124 64.5h-604q-32 0 -32 10v52q22 10 32 10h354q23 0 32.5 9.5t9.5 32.5v136q0 114 -94 145q-104 42 -156 52q-200 34 -376 -10q-83 -16 -145 -62q-37 -37 -53.5 -70
t-9.5 -76v-375q0 -110 59.5 -169.5t169.5 -59.5q80 -11 209 -11zM1214 1701q0 -33 -23 -58t-60 -25q-32 0 -57.5 26t-25.5 57q0 30 24.5 52.5t58.5 30.5q37 0 60 -25t23 -58z" />
</svg>
