<?xml version="1.0" standalone="no"?>
<!DOCTYPE svg PUBLIC "-//W3C//DTD SVG 1.1//EN" "http://www.w3.org/Graphics/SVG/1.1/DTD/svg11.dtd" >
<svg xmlns="http://www.w3.org/2000/svg" xmlns:xlink="http://www.w3.org/1999/xlink" version="1.1" viewBox="-10 0 1190 2048">
   <path fill="currentColor"
d="M0 1924v-514l292 257zM1057 882q39 39 64.5 85.5t34.5 88t11.5 62t2.5 35.5v771h-260v-768q-1 -55 -37 -93.5t-125 -38.5q-87 0 -186 17.5t-182.5 45t-125 42.5t-68.5 27l-2 1l-184 82v-1115h260v730q269 -87 488 -87q194 0 309 115zM715 542q151 -197 195 -418h260
q-29 232 -195 418h-260z" />
</svg>
