<?xml version="1.0" standalone="no"?>
<!DOCTYPE svg PUBLIC "-//W3C//DTD SVG 1.1//EN" "http://www.w3.org/Graphics/SVG/1.1/DTD/svg11.dtd" >
<svg xmlns="http://www.w3.org/2000/svg" xmlns:xlink="http://www.w3.org/1999/xlink" version="1.1" viewBox="-11 0 1809 2048">
   <path fill="currentColor"
d="M603 1364q-15 -91 -90 -116q-9 -5 -31.5 -18.5t-31.5 -17.5q-54 -18 -72 -27q-23 -12 -53 18q-12 24 9 45q9 18 35 44q18 27 63 72q3 3 9 12t8.5 12.5t6.5 11.5t4.5 13.5t1 14t-2.5 17.5q-15 105 -81 171q-4 4 -8.5 6t-6.5 2l-3 1q-19 0 -42 -11t-38 -25
q-19 -21 -15.5 -39.5t24.5 -32.5q7 0 12.5 -6t5.5 -12q30 -30 18 -63q-4 -5 -8.5 -14t-9.5 -13q-36 -36 -126 -108q-166 -128 -180 -323q-13 -208 99 -404q50 -83 117 -116q36 -18 108 -36q181 -50 314 -27q152 30 188 152q30 102 18 180q-6 92 -70 166.5t-154 102.5
q-40 13 -63.5 5t-44.5 -41q-3 -6 -18 -27.5t-26 -38t-19 -32.5v-9q0 -5 -4.5 -9.5t-4.5 -8.5q6 35 10 54.5t13.5 48t21.5 49.5q16 22 31.5 33.5t40.5 11.5q89 6 157 -22t121 -95q101 -139 72 -341q0 -10 -1.5 -20t-3.5 -15.5t-6.5 -18.5t-6.5 -18q0 -11 1 -16t5 -10.5
t12 -9.5h3q15 0 15 -8q153 -31 278 -18q179 14 297 98q207 129 278 386q9 27 9 72q0 13 -6.5 14.5t-20.5 -5.5q-8 -4 -14.5 -11t-12.5 -15t-9 -10q-4 -5 -13 -18.5t-14 -17.5q-6 -7 -12 -7t-6 7q0 4 -4.5 13t-4.5 14q-46 155 -125 234q-6 6 -12 17.5t-6 18.5q0 12 -2 33.5
t-2 39.5t4 34q5 36 14 112.5t13 112.5q7 31 -4 48.5t-41 32.5q-54 18 -90 18h-144v-33t-2.5 -29.5t-7 -29.5t-13.5 -23.5t-22 -19.5q18 -72 27 -117q12 -46 -18 -90q-22 -34 -71 -18q-97 60 -225 18q-26 -9 -47 -3.5t-34 30.5q-27 54 -27 108t18 144q0 16 -1 22t-6.5 12
t-19.5 11q-85 24 -179 9h-9q0 -22 -0.5 -33t-3.5 -29.5t-9 -29.5t-18.5 -23.5t-31.5 -19.5q45 -45 27 -153zM235 1158q18 -18 18 -36q7 -20 -8.5 -47t-36.5 -34q-7 -6 -15 -4t-11.5 4.5t-9.5 8.5q-13 13 -35.5 40t-36.5 41q0 4 -4.5 8.5t-4.5 9.5q-6 13 -0.5 24.5t18.5 11.5
q27 0 36 9q54 0 90 -36zM235 862q0 -14 -11 -25t-25 -11q-16 0 -29 12.5t-7 31.5q0 14 13 25t32 11q27 -27 27 -44z" />
</svg>
