<?xml version="1.0" standalone="no"?>
<!DOCTYPE svg PUBLIC "-//W3C//DTD SVG 1.1//EN" "http://www.w3.org/Graphics/SVG/1.1/DTD/svg11.dtd" >
<svg xmlns="http://www.w3.org/2000/svg" xmlns:xlink="http://www.w3.org/1999/xlink" version="1.1" viewBox="-11 0 1016 2048">
   <path fill="currentColor"
d="M709 776q26 217 -133 331q-1 1 -12.5 6.5t-14.5 7.5t-12 7l-13.5 7.5t-11.5 7.5t-12.5 9.5t-10.5 9.5q-16 16 -16 31q0 12 -3.5 35.5t-3.5 35.5q0 11 -5.5 18t-18.5 13q-15 0 -31 16q-18 12 -21.5 36.5t13.5 42.5q8 16 23 31q11 13 8 22.5t-16 16.5q-12 8 -39 20t-39 20
q-12 6 -15.5 24.5t7.5 30.5q11 7 21 16.5t22 23.5t20 22q12 12 8.5 27t-16.5 21q-4 4 -15.5 7.5t-15.5 7.5q-50 26 -16 71q0 8 16 24q27 51 -8 86q-48 63 -95 63q-19 0 -54.5 -4t-55.5 -4q-8 -8 -8 -16q12 -83 39.5 -248t39.5 -247q29 -128 39 -228v-3q0 -9 -0.5 -14
t-4 -9.5t-10.5 -4.5q-24 0 -24 23q-8 40 -19.5 122.5t-19.5 121.5q-12 67 -31.5 196.5t-31.5 196.5q-4 15 -8 47t-8 47q-50 -21 -63 -70q-13 -63 0 -126q12 -67 31.5 -196.5t31.5 -196.5q18 -71 32 -181q6 -6 4 -13.5t-4 -9.5l-8 -8q-156 -144 -110 -354q11 -54 40.5 -97
t77.5 -92q4 12 15.5 35.5t15.5 35.5q61 124 181 157q48 12 81 -5t45 -58q12 -58 -24 -94q-17 -18 -43.5 -24t-50.5 0v8q16 16 23 16q55 11 55 63q0 25 -21 41.5t-49 5.5q-1 -1 -12.5 -6.5t-14.5 -7.5t-12 -7l-13.5 -7.5t-11.5 -7.5t-12.5 -9.5t-10.5 -9.5q-56 -54 -82 -123
t-22 -134.5t29.5 -124t66.5 -97.5q79 -79 228 -79q113 6 195.5 68.5t111.5 167.5q26 113 -8 212l-71 -71q-8 -8 -8 -31q0 -115 -63 -189q-75 -76 -188 -63q-47 5 -84 23.5t-59 45t-35 60.5t-17 66t-2 65h118q137 6 227.5 87.5t102.5 210.5zM992 1672q12 64 -25 124.5
t-108 96.5q-7 0 -10.5 -2t-7.5 -7t-6 -7q-31 -75 -94 -220t-95 -220q-15 -39 -42.5 -114t-43.5 -114q-5 -12 -0.5 -23t16.5 -17q173 -126 173 -330q0 -180 -150 -306q-4 -4 -11.5 -16t-11.5 -16l7 -8q148 38 205 165q77 186 -24 386q-11 24 0 47q8 7 13 15.5t12 24l7 15.5
q13 26 -8 47q0 8 -16 24q-12 23 -9 36.5t25 25.5q4 4 15.5 12t15.5 12q18 12 19.5 20.5t-11.5 26.5q-10 11 -15.5 17t-10.5 16.5t-5 21.5q0 8 4 23.5t4 23.5q0 24 23 24q13 0 30.5 4t24.5 4q29 6 37 23t-5 40q-6 18 -6 35t6 35q6 16 18 20t29 4q31 0 31 31zM521 1209
q200 468 275 660l-8 8q-9 -9 -39 -24q-50 -40 -79 -110q-27 -67 -82 -204.5t-83 -204.5q-3 -7 -3 -15t1.5 -17.5t1.5 -14.5q5 -13 9 -38.5t7 -39.5z" />
</svg>
