<?xml version="1.0" standalone="no"?>
<!DOCTYPE svg PUBLIC "-//W3C//DTD SVG 1.1//EN" "http://www.w3.org/Graphics/SVG/1.1/DTD/svg11.dtd" >
<svg xmlns="http://www.w3.org/2000/svg" xmlns:xlink="http://www.w3.org/1999/xlink" version="1.1" viewBox="-10 0 1748 2048">
   <path fill="currentColor"
d="M0 927q55 0 91 -13t52.5 -37t22.5 -47.5t6 -54.5t-5 -87t-5 -86q0 -32 -5 -90.5t-5 -82.5q0 -156 90 -230.5t256 -74.5h81v193h-40q-73 0 -103 41t-30 122q0 19 5.5 62t5.5 70q0 18 5 69t5 84q0 123 -47.5 181t-146.5 83q99 25 146.5 83t47.5 181q0 33 -5 84t-5 69
q0 22 -5.5 65t-5.5 57q0 81 30 122t103 41h40v193h-81q-336 0 -336 -305q0 -112 10 -173q11 -67 11 -173q0 -152 -173 -152zM1728 1100q-172 0 -172 153q0 31 5 87t5 86q10 61 10 173q0 305 -346 305h-81v-173h40q73 0 103 -41t30 -122q0 -77 -11 -122q0 -26 -5 -77t-5 -76
q0 -123 47.5 -181t146.5 -83q-99 -25 -146.5 -83t-47.5 -181q0 -33 5 -84t5 -69q11 -56 11 -132q0 -77 -32 -116.5t-101 -46.5h-40v-193h81q166 0 256 74.5t90 230.5q0 31 -5 87t-5 86q-10 61 -10 173q0 31 6 54.5t22.5 47.5t52.5 37t91 13v173z" />
</svg>
