<?xml version="1.0" standalone="no"?>
<!DOCTYPE svg PUBLIC "-//W3C//DTD SVG 1.1//EN" "http://www.w3.org/Graphics/SVG/1.1/DTD/svg11.dtd" >
<svg xmlns="http://www.w3.org/2000/svg" xmlns:xlink="http://www.w3.org/1999/xlink" version="1.1" viewBox="-10 0 1808 2048">
   <path fill="currentColor"
d="M204 1000q0 -33 -8 -41q-12 -13 -32 -11t-25 19q-18 31 -3.5 58.5t52.5 39.5q23 7 43.5 3.5t37.5 -20.5q87 -70 122 -105q6 -6 27 -24t29 -25t26.5 -21t31 -21.5t30 -16t35.5 -14.5q169 -57 277 40l49 49l16 16q7 -14 25 -32q77 -90 195 -90q133 0 236 90
q24 20 68.5 60.5t69.5 61.5q38 38 82 49q30 6 57 -9t40 -40q10 -31 -16 -57q-22 -22 -49 -8q-13 6 -17.5 17.5t1.5 23.5v8q-32 -22 -32 -65q0 -41 48 -57q55 -19 103 9t60 88q15 91 -16 155q-17 39 -49.5 61.5t-80.5 36.5q-42 12 -84 14.5t-83.5 -3.5t-78.5 -17t-80 -27
l-220 -98q-146 -66 -285 -32q-74 20 -179 65q-9 4 -51 23t-57.5 26t-46.5 19t-56 21q-147 54 -269 9q-157 -58 -146 -220q7 -50 24 -80.5t57 -41.5q24 -12 52.5 -12t53.5 12q27 11 38 32t4.5 43t-26.5 39z" />
</svg>
