<?xml version="1.0" standalone="no"?>
<!DOCTYPE svg PUBLIC "-//W3C//DTD SVG 1.1//EN" "http://www.w3.org/Graphics/SVG/1.1/DTD/svg11.dtd" >
<svg xmlns="http://www.w3.org/2000/svg" xmlns:xlink="http://www.w3.org/1999/xlink" version="1.1" viewBox="-10 0 830 2048">
   <path fill="currentColor"
d="M696 1505q-12 18 -28 50q-15 30 -15 50q-3 35 -10 109.5t-11 110.5q0 37 -35 49q-25 7 -78.5 25t-78.5 25h-78q-4 0 -14 -3.5t-14 -3.5q-82 -27 -121 -50q-21 -21 -21 -35q-7 -57 -7 -163q0 -38 -1.5 -58.5t-11.5 -49.5t-30 -49v-7q266 75 554 0zM802 604
q-4 49 -14.5 148.5t-13.5 149.5l-28 291q-18 184 -22 227q0 66 -71 78q-89 17 -205 29q-156 11 -298 -29q-16 -3 -27 -14.5t-14.5 -21.5t-8.5 -28q0 -43 -14 -99q-1 -11 -9.5 -84t-12.5 -115l-7 -64q0 -4 -3.5 -11t-3.5 -10q-3 -51 -10 -106t-17 -121t-15 -106
q-8 -40 -8 -107q414 87 802 -7zM0 561q28 -14 43 -14q32 -4 99.5 -11t99.5 -10q3 0 10 -3.5t13 -7.5l5 -3q-5 -17 -15 -59t-21.5 -69.5t-34.5 -49.5q-28 -29 -81 -89t-82 -88q32 -32 42 -33t36 26q10 9 25 26t28 30t25 22q121 99 142 248q10 30 26 40t45 10q60 3 177 10
t178 11q8 0 50 14q-43 33 -167.5 50.5t-256.5 16.5t-246 -19t-140 -48z" />
</svg>
