<?xml version="1.0" standalone="no"?>
<!DOCTYPE svg PUBLIC "-//W3C//DTD SVG 1.1//EN" "http://www.w3.org/Graphics/SVG/1.1/DTD/svg11.dtd" >
<svg xmlns="http://www.w3.org/2000/svg" xmlns:xlink="http://www.w3.org/1999/xlink" version="1.1" viewBox="-10 0 1516 2048">
   <path fill="currentColor"
d="M1321 1045q-34 14 -55 43t-34 81q0 150 9 230q39 -32 61.5 -67.5t36.5 -83.5q35 35 53.5 65t25.5 68q7 51 -3 105.5t-41 98.5q-36 58 -124 88l-26 27q-83 125 -231 150q-5 5 -18 9.5t-17 8.5q-30 24 -66 34.5t-93 18.5q-88 7 -160.5 -5.5t-140.5 -56.5q0 -9 -18 -9
q-161 -27 -239 -159q-18 -18 -27 -18q-69 -26 -110.5 -71.5t-54.5 -98.5t-3 -113q0 -76 80 -142q11 80 97 151q0 -15 4.5 -39t4.5 -32q9 -53 9 -151q0 -70 -71 -106q-74 -30 -115 -62q-36 -28 -49 -63t5 -70q4 -12 12 -22t22.5 -22.5t18.5 -16.5q35 -35 35 -54v-88
q0 -4 -4.5 -13t-4.5 -14q-5 -13 -18 -39t-17 -40q-7 -41 13.5 -71.5t66.5 -43.5q9 0 26.5 -4.5t26.5 -4.5q19 -53 6.5 -81.5t-59.5 -42.5q-18 -9 -54 -18t-53 -18l71 -70q78 -40 154.5 -39t155.5 47q17 14 52.5 45t53.5 44q4 5 13 9.5t14 8.5q0 -4 4.5 -13t4.5 -14
q15 -73 79 -124q4 0 8.5 -4.5t9.5 -4.5h9q0 6 -1 25t-0.5 28t5 22.5t14.5 22.5q13 -57 49 -88.5t101 -53.5q-14 32 -12.5 62t21.5 62q3 -2 15.5 -10t16.5 -10t15 -8.5t16.5 -8.5t15.5 -6t17.5 -5.5t17 -3t19.5 -1.5l-27 53q0 9 -4.5 26.5t-4.5 26.5q0 18 18 27q31 16 44 -9
q53 -61 105 -94t126 -39q65 -7 125.5 11.5t104.5 68.5q9 -1 9 8q-27 0 -45 9q-48 16 -70 27q-16 10 -25 21.5t-13.5 21t-4 24t1.5 22.5t5 26l9 9h9q87 7 115 54t-18 114q-39 64 -26 142q14 43 35 53q39 17 53 51t0 71.5t-53 63.5q-16 12 -35 22.5t-45 22.5t-35 17z" />
</svg>
