<?xml version="1.0" standalone="no"?>
<!DOCTYPE svg PUBLIC "-//W3C//DTD SVG 1.1//EN" "http://www.w3.org/Graphics/SVG/1.1/DTD/svg11.dtd" >
<svg xmlns="http://www.w3.org/2000/svg" xmlns:xlink="http://www.w3.org/1999/xlink" version="1.1" viewBox="-10 0 1809 2048">
   <path fill="currentColor"
d="M1730 1146q82 28 49 108q-11 39 -36 102.5t-33 84.5q-15 37 -43 50.5t-65 -1.5q-4 -1 -44 -17t-64 -22q-10 10 -29.5 34.5t-29.5 34.5q-6 6 -19 21t-25 26.5t-25 20.5q-10 0 -10 20q10 20 24.5 54.5t24.5 53.5q14 30 3 57t-42 42q-34 15 -98 44.5t-99 43.5
q-30 8 -56.5 -1.5t-41.5 -37.5q-10 -19 -24.5 -53.5t-24.5 -54.5q-5 0 -10 -5t-10 -5q-34 0 -97.5 5t-98.5 5q-2 6 -18 45.5t-22 62.5q-14 44 -39 54.5t-69 -5.5q-39 -11 -102 -36.5t-85 -32.5q-37 -15 -50 -43t1 -65q10 -19 24.5 -58.5t24.5 -59.5q-10 -10 -34.5 -29.5
t-34.5 -29.5q-6 -6 -20.5 -19t-26.5 -25t-21 -25q0 -10 -20 -10q-19 10 -53.5 24.5t-54.5 24.5q-29 14 -55.5 2.5t-42.5 -41.5q-14 -34 -44 -97.5t-45 -98.5q-8 -31 1.5 -58t37.5 -41q20 -10 54.5 -24.5t53.5 -24.5q0 -5 5 -10t5 -10q0 -34 -5 -97.5t-5 -98.5
q-6 -2 -45.5 -18t-62.5 -22q-43 -15 -53.5 -39.5t4.5 -68.5q16 -47 69 -177q16 -37 43.5 -50t64.5 1q7 2 46 18t62 22q15 -14 40 -44t39 -45q5 -9 12.5 -16.5t18.5 -16.5t18 -16q10 0 10 -20q-10 -19 -24.5 -53.5t-24.5 -54.5q-14 -30 -2.5 -56t41.5 -42q35 -14 99 -44
t98 -45q31 -8 57.5 2t40.5 38q10 20 24.5 54.5t24.5 53.5q5 0 10 5t10 5q35 0 98.5 -5t97.5 -5q3 -6 19 -45.5t21 -62.5q16 -37 43.5 -50.5t64.5 0.5q12 4 56.5 20t74.5 25.5t56 13.5q38 15 51 43.5t-2 65.5q-10 20 -24.5 59.5t-24.5 58.5q10 10 34.5 29.5t34.5 29.5
q7 6 21.5 18.5t26 24.5t20.5 25q0 10 20 10q20 -10 54.5 -24.5t53.5 -24.5q30 -14 56.5 -2.5t41.5 41.5q15 35 45 99t44 98q8 31 -1.5 57.5t-37.5 40.5q-19 10 -53.5 24.5t-54.5 24.5q0 5 -5 10t-5 10q0 35 5 99t5 98q4 1 44.5 17t63.5 22zM1041 1353q69 -32 119 -86
t74.5 -118t24 -136.5t-30.5 -141.5q-32 -69 -85.5 -119t-117.5 -74.5t-136 -23.5t-142 30q-69 33 -119 86.5t-74.5 117.5t-23.5 136.5t30 141.5q33 69 86.5 119t117 74.5t136 23.5t141.5 -30z" />
</svg>
