<?xml version="1.0" standalone="no"?>
<!DOCTYPE svg PUBLIC "-//W3C//DTD SVG 1.1//EN" "http://www.w3.org/Graphics/SVG/1.1/DTD/svg11.dtd" >
<svg xmlns="http://www.w3.org/2000/svg" xmlns:xlink="http://www.w3.org/1999/xlink" version="1.1" viewBox="-10 0 1682 2048">
   <path fill="currentColor"
d="M1008 213q146 92 280 193q116 85 260 197l114 86l-6 1235l-562 -233l-3 -620l-33 -30q-27 -33 -69 -75q-44 -47 -86 -78q-45 -33 -72 -33q-24 0 -69 33q-42 31 -86 78q-42 42 -72 75l-33 30l-3 620l-562 233l-6 -1235l117 -86q137 -110 254 -197q145 -107 280 -193
q136 -89 180 -89q43 0 177 89z" />
</svg>
