<?xml version="1.0" standalone="no"?>
<!DOCTYPE svg PUBLIC "-//W3C//DTD SVG 1.1//EN" "http://www.w3.org/Graphics/SVG/1.1/DTD/svg11.dtd" >
<svg xmlns="http://www.w3.org/2000/svg" xmlns:xlink="http://www.w3.org/1999/xlink" version="1.1" viewBox="-10 0 1808 2048">
   <path fill="currentColor"
d="M14 130q246 -3 482 64t431.5 187.5t360 290t276 365.5t171 419.5t52.5 447.5h-363q-11 -296 -109.5 -540.5t-295.5 -451.5q-194 -204 -447 -304.5t-544 -100.5q-14 -126 -14 -377zM1215 1918h-363q-7 -35 -21 -112t-21 -112q-85 -253 -247.5 -400.5t-422.5 -199.5
q-19 -9 -39.5 -11.5t-58.5 -2.5q-13 0 -19.5 -4.5t-7.5 -9.5t-1 -14v-349q426 0 768 279q412 371 433 936zM503 1666q0 105 -73.5 178.5t-178.5 73.5q-102 0 -171 -72t-80 -180q0 -105 73 -178t178 -73t178.5 73t73.5 178z" />
</svg>
