<?xml version="1.0" standalone="no"?>
<!DOCTYPE svg PUBLIC "-//W3C//DTD SVG 1.1//EN" "http://www.w3.org/Graphics/SVG/1.1/DTD/svg11.dtd" >
<svg xmlns="http://www.w3.org/2000/svg" xmlns:xlink="http://www.w3.org/1999/xlink" version="1.1" viewBox="-11 0 1809 2048">
   <path fill="currentColor"
d="M1707 978q38 19 56 51t25 84q0 66 -33 97t-102 38v9q0 18 -9 31.5t-27 31.5q-62 49 -143 36h-18q-41 48 -106 58.5t-119 -22.5q-5 0 -9.5 -4.5t-8.5 -4.5q-43 42 -125 26q-48 -12 -90 -26l9 9q22 27 55.5 88.5t34.5 63.5q13 51 0 90q0 13 -10.5 25.5t-25.5 19.5
q-4 0 -6.5 2t-2.5 5v2q0 43 -24.5 62.5t-65.5 27.5q-6 0 -17 -2t-20 -2t-17 4q-10 0 -24.5 12t-20.5 15q-54 27 -108 0q-14 -14 -27 0q-33 13 -72 -2t-53 -43q-10 -15 -23.5 -58t-21.5 -59q0 -5 -4.5 -9.5t-4.5 -8.5q-5 4 -14 17.5t-13 18.5q-39 39 -95.5 42.5t-102.5 -24.5
q-10 -10 -35.5 -34.5t-40.5 -40t-34.5 -37.5t-32.5 -41q-167 -250 -180 -530q-7 -137 34 -267t128 -236q179 -220 458 -260q67 -8 133.5 2.5t117.5 42.5q143 91 198 242q0 7 5.5 12.5t12.5 5.5q9 4 31 8.5t31 9.5q22 -46 55 -85.5t71 -67t80.5 -48.5t83.5 -29.5t80 -11
t70 8.5l-18 18q-74 73 -89 197q-9 27 -27 99q-33 80 -88 123t-137 57h-63q-7 6 -12.5 2t-5.5 -11q-5 -5 -9.5 -18.5t-8.5 -17.5q-46 6 -64 21.5t-25 50.5q19 0 48 4.5t41 4.5q33 5 147.5 22.5t189.5 32t148 34.5q20 5 50.5 19t39.5 17zM1312 736q6 0 5.5 -1t-14.5 -8
q-9 -5 -27 -9.5t-27 -8.5q-20 -7 -26 -4.5t-19 22.5q0 -25 -7 -30.5t-29 -5.5q-7 0 -8 1t-1 8q4 9 8.5 27t9.5 27q0 4 2 6t5 3h2q72 0 126 -27zM1195 547q0 4 -4.5 13t-4.5 14q9 4 22.5 13t22.5 14q21 -38 34 -58.5t34 -46.5t45.5 -43.5t57.5 -30.5q-13 9 -25 19.5t-24 25.5
t-19 23.5t-19.5 29t-15.5 25t-17 29.5t-15 27v18q7 5 24.5 18t25 18.5t19 15.5t21.5 20q0 -4 9 -15t9 -21q18 -45 36 -135q2 -10 6.5 -38t11 -49.5t18.5 -37.5q9 -18 27 -36q-69 0 -144 45q-30 24 -48.5 40t-44 45t-42.5 58zM953 700q0 54 9 81h9q4 -2 33 -13t40 -16t30 -15
t32 -19q8 -9 8 -18q-6 2 -18 6.5t-18 6t-15.5 3.5t-19.5 2q-26 8 -48.5 4.5t-41.5 -22.5q80 16 126 -18q63 -25 143 -9q9 4 31.5 8.5t31.5 9.5q-9 -5 -22.5 -18.5t-22.5 -17.5q-103 -77 -233 -90q-18 0 -18 9q-36 48 -36 126zM683 485q-69 0 -115 44t-46 117q0 67 47 114.5
t114 47.5t114.5 -47.5t47.5 -114.5q0 -66 -50 -113.5t-112 -47.5zM1097 1032q54 2 87 2.5t88 -2.5t87.5 -5.5t85.5 -6.5t83 -6q0 -4 -2.5 -6.5t-4.5 -2.5h-2q-48 -8 -97.5 -17t-108 -20t-91.5 -17q-144 -16 -224 -26h-18q-38 38 -54 62q-36 72 -63 99q-58 65 -114.5 102.5
t-127.5 50.5q-94 12 -198 -18h-18q-30 21 -63 31t-63 9.5t-63 -4.5q-30 -10 -98 -27q0 4 4.5 8.5t4.5 9.5q73 160 215 251q163 122 359 108q102 -7 175 -74t86 -168v-27q-9 -36 -27 -90q30 22 69 25t68.5 -11.5t33.5 -40.5q9 0 31 4.5t31 4.5q54 0 90 -36q13 -7 19 -24
t-1 -30h18q27 6 56 -5t43 -31q12 -14 9 -20.5t-18 -6.5q-28 -4 -55 -8.5t-58 -10t-49 -8.5q-53 0 -125 -18zM683 736q-45 0 -71.5 -27t-26.5 -63q0 -35 29 -62.5t69 -27.5q41 0 70 25t29 64.5t-29 65t-70 25.5zM630 574q-25 12 -9 45q27 13 55.5 13t42 -13.5t13.5 -25.5
t-13 -19q-9 -5 -22.5 -9.5t-22.5 -8.5q-7 4 -23 8.5t-21 9.5z" />
</svg>
