<?xml version="1.0" standalone="no"?>
<!DOCTYPE svg PUBLIC "-//W3C//DTD SVG 1.1//EN" "http://www.w3.org/Graphics/SVG/1.1/DTD/svg11.dtd" >
<svg xmlns="http://www.w3.org/2000/svg" xmlns:xlink="http://www.w3.org/1999/xlink" version="1.1" viewBox="-10 0 1808 2048">
   <path fill="currentColor"
d="M973 339q71 -13 152 -11t137 11q54 18 83 49.5t29 62.5t-29 58.5t-83 38.5q-68 14 -130 9t-105.5 -24.5t-43.5 -44.5q0 -28 30 -32t60 13q32 29 89.5 26.5t89.5 -26.5q47 -28 15 -50q-20 -14 -65 -20q-60 -7 -150 14t-178 65q-58 37 -98 48.5t-101 11.5q-78 7 -118 -6.5
t-80 -53.5q-15 -22 -16.5 -34.5t6.5 -34.5q15 -24 59.5 -41t89.5 -17t79 18q36 24 -28 29q-17 1 -41 1q-114 0 -110 40q2 9 10 20q22 23 91 16.5t128 -36.5q42 -19 89.5 -42t64 -31t36.5 -15.5t38 -11.5zM129 469q75 -50 72 -20q0 4 -2 10q-10 10 -10 49q5 25 60.5 53.5
t140 49.5t166.5 26q29 0 81 5t58 5q45 8 230 8t267 -8q147 -10 267 -37t185 -64.5t55 -76.5q-10 -31 8 -30q23 2 53 41q11 14 18 28q15 23 -5 55.5t-64 54.5q-28 21 -133 51t-165 38q-11 6 -56.5 11t-63.5 9q-74 8 -348.5 8t-356.5 -8q-120 -14 -174.5 -24.5t-143.5 -35.5
q-89 -30 -143 -69.5t-46 -69.5q0 -8 14.5 -26.5t35.5 -32.5zM99 737q-10 -67 10 -50q29 19 115.5 56t133.5 43q16 0 43 5t36 5q102 22 427 29t457 -9q161 -14 280 -47t157 -72q22 -22 26 -22t4 22q0 38 -40.5 166.5t-78.5 210.5q-21 65 -139 229q-107 149 -119 199
q-31 81 -85.5 128t-148 68.5t-243.5 21.5q-152 0 -242 -19t-142 -63.5t-83 -125.5q-8 -31 -42 -91t-77 -118q-69 -108 -129 -199l-40 -59q-20 19 -30 39q-23 39 -27.5 107t17.5 122q23 60 85 116t114 63q52 6 48 18q-6 17 -92 21h-26q-65 0 -89.5 -5.5t-59.5 -33.5
q-73 -51 -96 -99t-23 -140q0 -62 7.5 -90.5t32.5 -78.5q20 -30 79 -89l40 -30l-30 -79q-3 -17 -11.5 -49t-13.5 -57t-5 -43z" />
</svg>
