<?xml version="1.0" standalone="no"?>
<!DOCTYPE svg PUBLIC "-//W3C//DTD SVG 1.1//EN" "http://www.w3.org/Graphics/SVG/1.1/DTD/svg11.dtd" >
<svg xmlns="http://www.w3.org/2000/svg" xmlns:xlink="http://www.w3.org/1999/xlink" version="1.1" viewBox="-11 0 1229 2048">
   <path fill="currentColor"
d="M1083 125q75 17 125 95q-2 -1 -18 -15.5t-34.5 -30t-44 -26t-45.5 -5.5q-20 4 -38 14t-30.5 20.5t-26.5 30.5t-21 32t-20 36t-19 34q-126 261 -182 597q-29 184 -35 295q0 11 -2.5 33.5t-3.5 37.5t-1 34t3 32q19 -57 28.5 -84.5t28.5 -74.5t38 -82q18 -30 30.5 -49
t32 -44t42 -41.5t47.5 -26.5q-90 94 -136 247q-7 23 -13.5 51.5t-10 48t-9.5 53t-9 48.5q-1 21 -4 72t-4.5 79.5t-1.5 70.5t3 77q2 9 2 39q-1 73 14 79q9 4 24 -7q13 -32 17 -30q7 2 -6 41q-17 51 -39 49q-2 0 -4 -1q-14 -11 -55 -9t-79.5 7t-75.5 -3q-12 3 -38.5 1
t-51.5 -14.5t-22 -28.5q-1 -2 -3 -7l-5 -14l2 2q19 19 32 16q26 6 37 -6.5t9 -31.5t-2 -35.5t3 -17.5q10 49 15 37q7 -19 2 -84q0 -117 -13 -167q-13 -105 -69.5 -192t-148.5 -120q-43 -8 -39 -13q7 -8 64 0q35 5 48 14q34 11 63 32.5t51.5 51t39 57.5t32.5 64q0 -48 8 -139
t8 -106q14 -129 40 -289q18 -93 37 -168t48.5 -158.5t72.5 -158t98 -135.5q43 -55 99 -88.5t116 -25.5zM88 1074q12 42 21 86t21 117.5t14 88.5q21 121 40 325q8 -16 62 -29q52 -12 48 5q-25 -2 -43.5 11.5t-28 37t-14 46t-6.5 46.5q-14 31 4 64q15 28 33 14q9 -6 15 -23
q6 -28 9 -25q7 4 0 41q-8 38 -24 35q-1 -1 -3 -1q-3 0 -23.5 3t-25 3.5t-23 2t-25 2t-23 1t-24.5 -0.5t-22.5 -2.5t-24.5 -4t-22 -6.5t-23 -9q8 -4 12 -10.5t4.5 -11t2 -7t5 1t11.5 15.5q46 18 31 -54q0 -3 -1 -8l-1 -8q2 2 9 19q12 44 16 33q7 -19 -4 -91q-1 -8 -3 -13
q-14 -162 -82 -245q-2 -7 10 1q31 24 59 64q11 16 13 26q22 53 23 18q0 -11 -1 -41q-2 -37 -2 -48q2 -33 -1 -93.5t-2 -91.5q-2 -29 -2 -76.5t-2 -75.5q0 -16 -3 -61.5t-4 -70.5z" />
</svg>
