<?xml version="1.0" standalone="no"?>
<!DOCTYPE svg PUBLIC "-//W3C//DTD SVG 1.1//EN" "http://www.w3.org/Graphics/SVG/1.1/DTD/svg11.dtd" >
<svg xmlns="http://www.w3.org/2000/svg" xmlns:xlink="http://www.w3.org/1999/xlink" version="1.1" viewBox="-10 0 1623 2048">
   <path fill="currentColor"
d="M810 124q22 2 40 7q104 56 293.5 166t237.5 137q19 13 51 30t56.5 31t49.5 32.5t41.5 43.5t22.5 56q1 75 0.5 334.5t0.5 333.5q-1 12 -0.5 39t0.5 42t-2.5 38.5t-8.5 39.5t-17.5 33t-27.5 30q-94 57 -275 159.5t-263 151.5q-15 7 -34 18.5t-34.5 21.5t-34 20.5t-36 18
t-36 12.5t-38.5 4.5t-39 -6.5q-113 -62 -318 -179t-268 -153q-9 -5 -35 -19t-37.5 -21t-32.5 -22t-31.5 -28t-20.5 -32t-12 -41q-2 -75 -1.5 -338.5t0.5 -339.5q0 -11 -0.5 -36.5t-0.5 -39.5t3 -36.5t8 -37.5t16 -31.5t28 -28.5q101 -60 289.5 -168t252.5 -145
q23 -11 64 -38t77 -43t72 -16zM831 491q-130 -6 -251 49t-200 156q-80 98 -103.5 226t12.5 253.5t124 215.5q86 98 215.5 139.5t263.5 19.5t236 -104q7 -7 23.5 -21.5t30.5 -27t30.5 -29t25.5 -30.5t13 -28t-4.5 -26t-28.5 -20q-20 -4 -47 -22t-50 -35t-46.5 -29.5t-44 -6.5
t-33.5 34q-52 60 -131.5 78t-156 -9.5t-121.5 -91.5q-48 -58 -53 -135t30.5 -145.5t101.5 -104.5q57 -37 127.5 -38.5t133 31t99.5 89.5q31 -2 71.5 -23.5t89 -53.5t76.5 -45q-66 -115 -183.5 -187t-249.5 -79zM1109 890v89h-91v90h91v89h88v-89h91v-90h-91v-89h-88z
M1411 890v89h-88v90h88v89h88v-89h88v-90h-88v-89h-88z" />
</svg>
