<?xml version="1.0" standalone="no"?>
<!DOCTYPE svg PUBLIC "-//W3C//DTD SVG 1.1//EN" "http://www.w3.org/Graphics/SVG/1.1/DTD/svg11.dtd" >
<svg xmlns="http://www.w3.org/2000/svg" xmlns:xlink="http://www.w3.org/1999/xlink" version="1.1" viewBox="-10 0 1808 2048">
   <path fill="currentColor"
d="M420 389h313q53 76 156.5 232.5t156.5 232.5q44 66 131 195t139 207.5t124.5 189t132.5 204.5h-312l-9 -9q-40 -63 -125.5 -188t-125.5 -188q-5 -5 -5 -7q0 3 -4 7q-40 63 -125 188.5t-125 187.5l-9 9h-313v-9q67 -103 205.5 -308.5t205.5 -308.5v-9
q-67 -103 -205.5 -308.5t-205.5 -308.5v-9zM0 398h313l9 9q36 49 102.5 152t102.5 152q18 27 52.5 77.5t55 81t48.5 74t50 80.5v9q-76 116 -222 332t-198 294h-313v-9q10 -15 33.5 -52.5t43 -65.5t39.5 -52q49 -76 147.5 -223.5t147.5 -223.5v-9q-207 -332 -411 -626z
M1091 756h697v214h-563q-23 -36 -67 -102.5t-67 -102.5v-9zM1296 1078h492v214h-358q-23 -36 -67.5 -102.5t-66.5 -102.5v-9z" />
</svg>
