<?xml version="1.0" standalone="no"?>
<!DOCTYPE svg PUBLIC "-//W3C//DTD SVG 1.1//EN" "http://www.w3.org/Graphics/SVG/1.1/DTD/svg11.dtd" >
<svg xmlns="http://www.w3.org/2000/svg" xmlns:xlink="http://www.w3.org/1999/xlink" version="1.1" viewBox="-10 0 1808 2048">
   <path fill="currentColor"
d="M778 1918q-158 0 -302 -61.5t-248.5 -166t-166 -248.5t-61.5 -302q0 -159 62 -303.5t167.5 -250t254 -166.5t312.5 -58q155 3 295.5 65.5t242.5 165.5t162 246t60 301t-61.5 302t-166 248.5t-248.5 166t-302 61.5zM1100 586q-94 0 -163.5 69t-69.5 163q0 95 67 164
t166 69q95 0 163.5 -67t68.5 -166q0 -95 -66.5 -163.5t-165.5 -68.5zM1556 586q-96 0 -163.5 -67t-60.5 -165q0 -95 66 -159.5t166 -64.5q93 0 158.5 68.5t65.5 163.5q0 93 -68.5 158.5t-163.5 65.5z" />
</svg>
