<?xml version="1.0" standalone="no"?>
<!DOCTYPE svg PUBLIC "-//W3C//DTD SVG 1.1//EN" "http://www.w3.org/Graphics/SVG/1.1/DTD/svg11.dtd" >
<svg xmlns="http://www.w3.org/2000/svg" xmlns:xlink="http://www.w3.org/1999/xlink" version="1.1" viewBox="-11 0 148 2048">
   <path fill="currentColor"
d="M2 1863q-1 -47 41 -55q37 -8 65 17q34 30 6 71q-16 24 -43.5 27.5t-48.5 -13.5t-20 -47zM2 1382q0 -48 43 -55q38 -7 65 19q31 30 4 70q-16 24 -43.5 27.5t-49 -14t-19.5 -47.5zM20 1665q-37 -36 -7 -72q24 -30 61 -28q40 2 49 47q5 21 -5 39t-27 27t-37.5 6.5
t-33.5 -19.5zM2 903q-1 -47 40 -55q37 -8 66 17q34 30 6 71q-15 25 -42.5 28.5t-49 -14.5t-20.5 -47zM2 1143q1 -49 44 -57q38 -6 64 21q31 30 4 71q-15 24 -43 26.5t-49.5 -15t-19.5 -46.5zM2 422q0 -48 43 -55q38 -7 65 19q31 30 4 70q-15 24 -43 27.5t-49.5 -14
t-19.5 -47.5zM20 707q-37 -36 -8 -74q25 -30 62 -29q40 2 49 47q5 21 -5 39t-26.5 27.5t-37 7.5t-34.5 -18zM20 225q-37 -36 -8 -73q24 -30 61 -28q40 2 50 46q5 22 -4.5 40t-26.5 27t-37.5 6.5t-34.5 -18.5z" />
</svg>
