<?xml version="1.0" standalone="no"?>
<!DOCTYPE svg PUBLIC "-//W3C//DTD SVG 1.1//EN" "http://www.w3.org/Graphics/SVG/1.1/DTD/svg11.dtd" >
<svg xmlns="http://www.w3.org/2000/svg" xmlns:xlink="http://www.w3.org/1999/xlink" version="1.1" viewBox="-10 0 1808 2048">
   <path fill="currentColor"
d="M894 172q168 0 286.5 118.5t118.5 286.5t-118.5 286.5t-286.5 118.5t-286.5 -118.5t-118.5 -286.5t118.5 -286.5t286.5 -118.5zM405 1066q168 0 287 118.5t119 286.5t-119 286.5t-287 118.5t-286.5 -118.5t-118.5 -286.5t118.5 -286.5t286.5 -118.5zM1383 1066
q168 0 286.5 118.5t118.5 286.5t-118.5 286.5t-286.5 118.5t-287 -118.5t-119 -286.5t119 -286.5t287 -118.5z" />
</svg>
