<?xml version="1.0" standalone="no"?>
<!DOCTYPE svg PUBLIC "-//W3C//DTD SVG 1.1//EN" "http://www.w3.org/Graphics/SVG/1.1/DTD/svg11.dtd" >
<svg xmlns="http://www.w3.org/2000/svg" xmlns:xlink="http://www.w3.org/1999/xlink" version="1.1" viewBox="-10 0 1808 2048">
   <path fill="currentColor"
d="M1259 226q38 -1 72.5 16.5t55.5 47.5q29 45 43 98t12.5 112t-8 106.5t-19.5 109.5q26 18 115 52.5t126 64.5q33 20 60 47t47.5 61t23.5 70t-13 75q-23 46 -60.5 84t-87 65.5t-92.5 46t-101 37.5q-11 26 -4.5 77.5t15.5 95t-1 92.5q-1 39 -11 77t-28 73t-49.5 59t-71.5 28
q-52 4 -104 -10t-101 -43.5t-86 -58.5t-83 -70q-27 5 -65 35t-81 63.5t-78 43.5q-48 25 -97.5 36t-102.5 -1.5t-85 -55.5q-29 -43 -42.5 -95t-12.5 -110t7.5 -104t18.5 -107q-18 -22 -62.5 -40t-94.5 -38t-77 -45q-33 -21 -60.5 -48t-49.5 -62t-26 -71.5t11 -76.5
q23 -47 61.5 -85t89 -66t94 -46t102.5 -37q10 -30 3 -88.5t-15.5 -106t3.5 -104.5q3 -48 22 -92.5t57.5 -76.5t87.5 -33q53 1 105.5 17t101.5 46.5t87.5 61t83.5 71.5q45 -41 81 -70.5t83.5 -60t98 -47.5t101.5 -20zM1256 303q-63 5 -121 36.5t-126 85.5q-33 15 -43 33.5
t1 38.5t27.5 38t38 41.5t29.5 40.5q17 33 50.5 48t66.5 16.5t76.5 6t69.5 15.5q13 -12 21 -31t11.5 -48.5t5 -48t1.5 -56v-46.5q-10 -172 -108 -170zM528 304q-44 0 -65 28q-20 32 -30.5 68.5t-10 81.5t3 73.5t9.5 78.5q-2 36 11 51.5t37.5 14t50.5 -8.5t57.5 -13.5
t50.5 -4.5q33 -3 61.5 -27t46 -52.5t43 -62.5t48.5 -52q-40 -36 -70 -60.5t-71 -52t-84 -43t-88 -19.5zM895 534q-56 61 -100 119q16 10 85.5 7.5t106.5 0.5q6 -10 -10.5 -32.5t-44.5 -52.5t-37 -42zM894 736q-82 0 -163 6q-93 138 -163 283q70 148 164 284q167 11 326 -1
q89 -135 162 -284q-73 -146 -146 -257q-12 -19 -35 -26t-46.5 -5.5t-50.5 2.5t-48 -2zM633 751q-54 7 -123 20q-22 1 -29 12.5t-1.5 30t15 37.5t19 40.5t10.5 33.5q18 -11 55.5 -82t53.5 -92zM1155 752q56 90 81 136q20 62 41 13q5 -12 15 -45q12 -37 17 -48
q8 -27 -19.5 -36.5t-73 -11t-61.5 -8.5zM397 798q-106 30 -182 73q-26 16 -40 25t-38.5 28t-36 35.5t-18.5 40t-2 47.5q16 33 42 61t52.5 47t65 38t66 30t68.5 25q19 -2 32.5 -24t19.5 -48.5t16 -58.5t22 -48q11 -29 9.5 -52.5t-13 -54t-24 -54.5t-24.5 -54.5t-15 -55.5z
M1392 799q-23 80 -61 167q-15 25 -16 53t10 55t24 52.5t26 56t16 54.5q22 10 53 0.5t79.5 -35.5t58.5 -30q16 -10 28 -18t29 -21t28 -24t22 -26.5t16 -30t4.5 -32t-8.5 -35.5q-24 -37 -59 -67t-80 -52.5t-81 -36t-89 -30.5zM894 863q46 -1 83.5 23.5t57 62t19 83t-27.5 81.5
q-29 48 -84.5 63.5t-109 -5.5t-78.5 -72q-17 -29 -19.5 -63t9.5 -64.5t33 -56t52 -39.5t65 -13zM1261 1112q-46 89 -78 141q-38 43 -2 43q10 0 84 -16q18 -3 27 -4q18 -4 21.5 -18t-3.5 -33t-17 -38.5t-20 -40.5t-12 -34zM528 1115q-20 47 -46 120q-6 16 -5.5 25.5t10 15.5
t22 9t29.5 4t32 1.5t30.5 2.5t23.5 6q0 -21 -43 -89.5t-53 -94.5zM1342 1344q-85 20 -178 31q-30 -1 -54 12t-42 36t-33.5 47t-35 50.5t-39.5 41.5q3 19 21.5 39.5t38 34t51 34t42.5 28.5q30 17 54 27t57 18.5t60.5 0t45.5 -34.5q22 -39 31.5 -85t7 -96.5t-8.5 -90.5
t-18 -93zM449 1347q-25 106 -27 191q1 26 1.5 39.5t3 39.5t8 42t14 35t23.5 31t35 18q45 3 89 -8.5t87 -37.5t72.5 -49t71.5 -59q8 -17 -4 -39.5t-32 -41.5t-42.5 -43.5t-30.5 -43.5q-19 -27 -54 -39.5t-68.5 -13t-76 -5t-70.5 -16.5zM1002 1388q-89 3 -161 2q-42 -9 -41 7
q0 12 48 63q23 25 29 35q10 10 19.5 10.5t18.5 -6.5t18 -17.5t18 -24.5t17 -26.5t17.5 -24.5t16.5 -18z" />
</svg>
