<?xml version="1.0" standalone="no"?>
<!DOCTYPE svg PUBLIC "-//W3C//DTD SVG 1.1//EN" "http://www.w3.org/Graphics/SVG/1.1/DTD/svg11.dtd" >
<svg xmlns="http://www.w3.org/2000/svg" xmlns:xlink="http://www.w3.org/1999/xlink" version="1.1" viewBox="-10 0 1342 2048">
   <path fill="currentColor"
d="M663 124q10 0 60.5 2t71 3.5t57 8t64.5 17.5q24 5 67 29.5t62 29.5q36 -17 76.5 -18.5t76.5 17.5t53 56q26 50 0.5 103.5t-79.5 71.5q18 71 25 144.5t8 191.5t2 147q-3 12 -3.5 22t3 18t6 14t11.5 11t13.5 8t17 7t17.5 5.5t20 5.5q42 25 25 63q-13 31 -47 36
q-33 6 -56 -23q0 16 3.5 99t3.5 116t-3.5 94t-12.5 110q-31 151 -110 242q5 6 14 15.5t17.5 17.5t18 19.5t14 21.5t6.5 24t-4 26q-15 25 -32 32.5t-35 -1.5t-33.5 -22t-34.5 -31t-31 -26q-134 61 -316 71q-148 14 -339 -51q-14 5 -32.5 19t-34 26t-33 21t-35.5 6.5
t-35 -19.5q-15 -14 -17 -29.5t4 -28.5t20.5 -28t25.5 -24t27 -20q-96 -81 -115 -189q-2 -88 -2 -250.5v-199.5q3 -19 -3 -21.5t-18 5.5t-25 16.5t-26.5 7.5t-20.5 -18q-23 -25 -19.5 -45.5t25 -36t47.5 -24.5t49 -11q-3 -33 -11.5 -94t-13 -111t-2.5 -95q-3 -51 -1.5 -75
t7.5 -73.5t8 -73.5q-18 -15 -25.5 -22.5l-24 -24t-23.5 -29.5t-14.5 -31t-6.5 -37t9 -38q32 -106 220 -70q82 -58 183 -80.5t236 -29.5zM686 144q-72 2 -108 5q-59 3 -113.5 14t-108 32.5t-98 58.5t-71.5 87q-36 68 -54.5 145.5t-19.5 161.5t4.5 154t18.5 160q1 68 -4 193.5
t-5 174.5q1 25 -0.5 71.5t-0.5 78t4.5 71t16 74t33.5 64.5q13 27 38 48.5t49 33t53.5 29.5t47.5 38q196 79 501 18q33 -5 63.5 -19.5t69.5 -40.5t55 -35q38 -33 65.5 -76.5t43.5 -94.5t24 -97.5t13 -102.5q0 -85 -6.5 -248.5t-6.5 -242.5q-2 -41 -3 -113t-3 -121t-8.5 -111
t-24.5 -117t-46 -104q-29 -54 -76.5 -93t-105 -60t-116.5 -29.5t-121 -6.5zM837 213q71 -1 127.5 46.5t54.5 117.5q5 57 -29.5 104.5t-90.5 58.5q-59 16 -115.5 -6t-83.5 -75q-26 -38 -23 -80.5t23 -79t57.5 -61t79.5 -25.5zM1114 215q-22 1 -33 5.5t-15 9t1 14t10.5 16.5
t18.5 21q2 3 3 4q30 -8 47 4.5t16 35t-17 41.5q5 47 29.5 52.5t51.5 -37.5q21 -29 17.5 -60.5t-20 -57.5t-46.5 -40t-63 -8zM862 225q-39 -3 -76.5 13t-62 44.5t-35 66t4.5 77.5q17 56 70.5 86.5t114 22.5t98.5 -53q31 -33 34.5 -78t-14.5 -83t-54.5 -66t-79.5 -30zM428 234
q41 -1 80.5 18t62.5 53q39 51 28 117.5t-62 105.5q-35 30 -84 35t-91 -12t-72 -54.5t-29 -85.5q-13 -71 41.5 -126t125.5 -51zM148 241q-51 0 -86 37.5t-28 87.5q1 38 37 64q34 25 54 3q11 -11 12 -36q-8 -13 -12.5 -27.5t-5 -29t11.5 -22t36 -3.5q21 -10 32 -25t9.5 -27.5
t-17.5 -19.5t-43 -2zM435 245q-52 0 -75 14q-51 18 -76 68.5t-13.5 106t55.5 86.5q33 28 78.5 33t85 -9.5t69 -49t32.5 -78.5q12 -68 -38 -121t-118 -50zM765 338q33 1 47 31.5t-6 56.5q-37 40 -73 11q-27 -23 -25 -57q3 -39 49 -42h8zM325 351q23 -2 45 10.5t24 35.5
q1 55 -39 60q-34 3 -60 -25q-30 -34 1 -63q11 -10 29 -18zM640 494q30 0 44 7q12 14 49 46.5t52 56.5q12 20 4.5 33t-21 17.5t-27.5 10.5t-16 14q13 37 -5 74q-19 39 -52 16q-7 -5 -14 -13q-16 16 -39.5 17.5t-37.5 -16t-5 -48.5q13 -21 6 -32t-19.5 -12.5t-28 -9.5
t-19.5 -23q8 -48 45 -88.5t84 -49.5zM711 554q-16 19 -40.5 22.5t-48 -2t-45.5 -8t-37 10t-19 45.5q9 22 27 28t39.5 1.5t44 -10.5t45.5 -3.5t39 18.5q52 12 57 -23q6 -31 -24 -59q-17 -18 -38 -20zM642 647q-28 5 -47 14q-11 12 -15.5 39.5t5.5 49t35 16.5q8 -6 13 -15.5
t7.5 -17.5t3.5 -22t0.5 -21t-1.5 -23.5t-1 -19.5zM664 651q-19 64 3 107q36 19 48 -16t-7 -68q-16 -27 -44 -23zM1222 1006q-8 0 -11 7t-2 15t0 14q-2 8 -2.5 14.5t2 12t5.5 10t9 9t10.5 7t12 6t12.5 5t13 4.5q19 0 23 -6t-3 -13.5t-12 -14t-5 -7t19 6.5q24 7 22 -7
q-3 -21 -38 -47q-34 -26 -55 -16zM103 1021q-71 15 -92 46q-8 18 -3 23t14 3.5t17 -4.5t6.5 -1t-18.5 15q4 38 38 23q31 -13 50 -47q22 -41 -12 -58zM1075 1771q-37 -3 -71 45q11 7 26.5 25.5t28 33t31.5 23.5t38 4q-3 -9 -9 -28q-12 -34 -9 -33q3 0 21 29q24 12 23 -11
q-2 -32 -32 -65q-24 -28 -47 -23zM259 1778q-25 7 -50 23.5t-40.5 41t1.5 50.5q12 -24 37 -46q8 -6 8 -2q-1 4 -18 28q-13 43 18 39q34 -5 87 -49q6 -5 10 -9q41 -6 14 -38q-23 -27 -56 -36q-6 -2 -11 -2z" />
</svg>
