<?xml version="1.0" standalone="no"?>
<!DOCTYPE svg PUBLIC "-//W3C//DTD SVG 1.1//EN" "http://www.w3.org/Graphics/SVG/1.1/DTD/svg11.dtd" >
<svg xmlns="http://www.w3.org/2000/svg" xmlns:xlink="http://www.w3.org/1999/xlink" version="1.1" viewBox="-11 0 1351 2048">
   <path fill="currentColor"
d="M688 124q58 -1 112.5 6t109.5 23.5t102.5 49t79.5 78.5q23 32 40.5 67t28.5 76t18 73t10.5 81.5t5 76t2.5 82.5t2 77q1 78 3.5 165t6 193.5t5.5 165.5q-2 241 -97 375q-14 21 -37 41t-37 29.5t-50 30.5t-43 26q-180 71 -442 46q-128 -9 -228 -101q-41 -9 -74 -43
t-51 -73.5t-28 -83.5q-9 -81 -9.5 -166.5t4.5 -206t6 -166.5q4 -20 2 -53t-4.5 -53t-7 -53t-6.5 -53q-7 -80 -7.5 -146.5t7.5 -142.5t33.5 -145t67.5 -126q34 -38 80 -66t89.5 -43.5t101 -24.5t101.5 -12t103 -4zM842 195q-40 2 -76 23t-58 55q-28 36 -28 83.5t21 86.5
t60 65.5t84 24.5q67 5 123 -36.5t58 -107.5q10 -52 -15.5 -98t-71.5 -72t-97 -24zM1124 196q39 -2 73.5 13.5t48.5 48.5q27 28 0 88q-21 46 -48 56q-25 8 -34 -27q-11 -12 -9 -24.5t9.5 -22t11 -22.5t-4.5 -25q-32 5 -70 -26q-35 -28 -20 -46q10 -12 43 -13zM867 214
q28 1 58 18q47 21 70 70t12.5 101.5t-54.5 81.5q-32 24 -73 28.5t-77.5 -7.5t-65.5 -41.5t-38 -68.5q-12 -48 10 -92.5t66 -69.5t92 -20zM426 216q-61 -3 -113.5 38.5t-56.5 101.5q-10 56 17 107.5t80 72.5q36 19 76.5 16.5t75.5 -18.5t61 -48.5t33 -71.5q11 -50 -11.5 -97
t-67 -75.5t-94.5 -25.5zM141 223q37 2 52 6.5t13 18.5t-29 40q-15 2 -31 8t-28 16t-11 24.5t19 29.5q6 18 -0.5 35t-20 25t-30 2t-28.5 -28q-22 -25 -23 -57.5t13.5 -59t43 -44.5t60.5 -16zM433 236q27 2 40 6q51 8 82 52t28.5 98t-38.5 90q-37 44 -98.5 50.5t-112.5 -26.5
t-60 -91q-12 -46 8.5 -90t62.5 -69t88 -20zM766 322q-29 5 -44.5 31.5t3.5 51.5q32 46 71 21q29 -19 32 -54q2 -41 -42 -49q-9 -1 -20 -1zM330 335q-22 6 -33.5 25t-10 38.5t16.5 34t40 12.5q43 2 53 -35q9 -35 -15 -61q-20 -21 -51 -14zM642 480q-15 1 -30 6
q-7 6 -28.5 24.5t-35 32.5t-26.5 32.5t-10.5 37.5t20.5 36q19 -3 29.5 0t13 12t1.5 18.5t-3 25t-1 25.5q1 26 12.5 33.5t25 1.5t28.5 -11.5t21 -0.5q19 15 33.5 15.5t22.5 -10t12 -27t3.5 -34t-3.5 -32.5q4 -3 13.5 -7t18.5 -8t18 -10t14 -13.5t4 -19t-10 -24.5
q-16 -11 -34 -31t-30.5 -35t-33.5 -26.5t-45 -10.5zM709 545q32 7 53 42q22 38 -5 51q-13 6 -34 5q-20 -17 -48.5 -18t-52 7t-49.5 7t-42 -19q-1 -35 11.5 -49t34.5 -12.5t45 6t47.5 1.5t39.5 -21zM641 641q3 0 2.5 9.5t-0.5 10.5q8 34 -9 71q-17 40 -43 8q-3 -3 -5 -7
q-3 -23 -2 -44.5t15.5 -35.5t41.5 -12zM667 643q32 1 44.5 25t6.5 57q-19 45 -42 20q-22 -23 -20 -66q0 -23 11 -36zM1234 1002q22 5 32 8t26.5 11t26.5 19q11 17 11 26t-8.5 9.5t-18 -1.5t-21.5 -7q33 14 22 28.5t-38 7.5q-16 -3 -26 -16q-23 -8 -22.5 -40.5t16.5 -44.5z
M95 1017q17 9 18.5 27.5t-9 36.5t-27.5 32t-33 17q-22 1 -27.5 -5.5t1 -15.5t12 -17t6 -9.5t-17.5 6.5q-33 -4 -8 -32q27 -30 65 -39q12 -3 20 -1zM1084 1780q53 5 81 83q2 32 -10 27q-7 -3 -33 -36q-6 -7 -6 -5q-1 2 8 23q26 37 1 41q-23 4 -49 -18q-14 -12 -17 -25
q-35 -11 -40 -33t15 -39.5t50 -17.5zM253 1787q18 -3 54 26q40 32 21 43q-2 1 -5 2q-8 4 -34 21q-75 52 -93 44q-13 -7 -6 -39q23 -28 18 -30q-7 -2 -24 20q-11 15 -14 28q-21 -20 -10 -44.5t40 -46t53 -24.5z" />
</svg>
