<?xml version="1.0" standalone="no"?>
<!DOCTYPE svg PUBLIC "-//W3C//DTD SVG 1.1//EN" "http://www.w3.org/Graphics/SVG/1.1/DTD/svg11.dtd" >
<svg xmlns="http://www.w3.org/2000/svg" xmlns:xlink="http://www.w3.org/1999/xlink" version="1.1" viewBox="-10 0 1808 2048">
   <path fill="currentColor"
d="M857 632h-313v940h-231v-940h-313v-166h848v166h9zM1567 1287q0 -56 -46 -102q-8 -8 -18.5 -15t-29.5 -15.5t-28.5 -12.5t-40 -15t-40.5 -15q-190 -55 -304 -139q-101 -85 -101 -212q0 -142 119 -221q112 -83 295 -83q179 0 295 102q111 98 111 239h-212q0 -74 -55 -129
q-61 -46 -148 -46q-89 0 -138 37q-46 35 -46 101q0 50 55 92q40 30 184 74q179 55 277 138q92 78 92 222q0 71 -28.5 129t-82.5 92q-112 83 -295 83q-196 0 -313 -92q-141 -110 -129 -268h221q0 96 65 148q61 46 166 46q101 0 138 -37q37 -58 37 -101z" />
</svg>
