<?xml version="1.0" standalone="no"?>
<!DOCTYPE svg PUBLIC "-//W3C//DTD SVG 1.1//EN" "http://www.w3.org/Graphics/SVG/1.1/DTD/svg11.dtd" >
<svg xmlns="http://www.w3.org/2000/svg" xmlns:xlink="http://www.w3.org/1999/xlink" version="1.1" viewBox="-10 0 1666 2048">
   <path fill="currentColor"
d="M1115 124q96 -5 174.5 55.5t87.5 154.5q-1 12 -17 14.5t-34.5 -0.5t-33.5 1q-25 9 -41.5 -0.5t-24.5 -26.5t-23.5 -35.5t-35.5 -24.5q-23 -13 -56 -12t-59 15t-39 38t4 56q30 31 75.5 46t101 25t86.5 24q71 20 104 89t14 141q-14 66 -66 110.5t-118 59t-131 3.5
q-59 -4 -112 -33.5t-86 -81t-29 -112.5h97q22 -6 38 4t24 27t23 33.5t35 20.5q25 13 59.5 14t64.5 -9.5t47.5 -36t8.5 -59.5q-25 -33 -65.5 -49t-95.5 -26t-82 -21q-67 -19 -113 -70t-41 -117q-3 -64 36.5 -116.5t99.5 -78t123 -22.5zM213 138h204q18 69 53.5 206.5
t53.5 205.5q14 -68 40.5 -205.5t39.5 -206.5h230v715h-137q-2 -67 -5.5 -201t-5.5 -201q-13 67 -40.5 201t-41.5 201h-146q-17 -64 -51 -192.5t-51 -192.5v385h-143v-715zM828 896q66 -4 154 19q-4 13 -31.5 40.5t-56 61t-36.5 60.5q-84 -9 -158 40.5t-105 130.5
q-14 51 -25 151t-14 116q-1 62 -39.5 113t-97.5 47q-54 -108 -60 -236t35 -242q43 -137 166.5 -222.5t267.5 -78.5zM1221 903q77 0 136 16q105 22 178 107t72 191h-150q-20 3 -34.5 -8t-24 -29.5t-19 -38t-26 -34t-40.5 -15.5q-34 -13 -75 -14.5t-79 8t-67 36t-37 65.5
q5 17 17 49t18.5 52t11 49t1.5 54q14 61 -24 60q-25 -1 -102 -45q-5 -2 -8 -4q-54 -30 -79 -89t-21.5 -122t28.5 -119q27 -59 81 -98.5t115.5 -56t127.5 -14.5zM336 922q108 0 189 27q-13 25 -61.5 81.5t-63.5 92.5h-204v578q145 15 207 12q44 7 82.5 -15.5t61.5 -64.5
q26 -36 36.5 -78.5t15 -111t7.5 -87.5q-2 -72 37 -134.5t105 -91.5q40 71 56.5 154.5t10.5 166t-32 161.5q-39 120 -143 199t-230 85q-61 2 -129.5 0t-151 -7t-129.5 -6v-953q56 -1 168 -3.5t168 -4.5zM1210 1111h60q79 136 79 292.5t-74 295.5q-19 13 -48.5 11t-56.5 -10.5
t-50 -21.5q-23 -14 -25.5 -34.5t8 -52.5t11.5 -43q46 -152 1 -266q-18 -31 -20.5 -63.5t9.5 -57.5t40 -39.5t66 -10.5zM1376 1342q102 24 156 64q68 41 96.5 118.5t9.5 158t-79 131.5q-68 58 -160.5 82t-182.5 16.5t-178 -38.5q-89 -30 -144 -114.5t-40 -175.5h127
q15 -3 25 -4t18.5 4.5t13 11t9.5 15.5t8 19t8 21t10 21q78 92 276 58q32 -3 55.5 -21.5t30.5 -44.5t4 -53t-23 -49.5t-51 -30.5q2 -31 5.5 -94t5.5 -95zM767 1720q11 1 32.5 2t32.5 1q17 17 48 57t62.5 71.5t66.5 46.5q-97 31 -190.5 25t-187.5 -44l35.5 -35.5t40 -41
t30 -36.5t30.5 -46z" />
</svg>
