<?xml version="1.0" standalone="no"?>
<!DOCTYPE svg PUBLIC "-//W3C//DTD SVG 1.1//EN" "http://www.w3.org/Graphics/SVG/1.1/DTD/svg11.dtd" >
<svg xmlns="http://www.w3.org/2000/svg" xmlns:xlink="http://www.w3.org/1999/xlink" version="1.1" viewBox="-10 0 1808 2048">
   <path fill="currentColor"
d="M28 189l657 13l41 46v116l-34 37h-53q-10 0 -16 6q-3 6 -3 16l-6 498v3q3 3 3 10q3 6 6 9q6 3 12 3q10 -5 16 -9l514 -502q0 -3 3 -3q3 -3 3 -9q3 -6 3 -10q0 -6 -6 -9q-3 -3 -15 -3h-44l-31 -40v-119l34 -47l645 7l31 31v137l-1467 1489h-165l-47 -50l-3 -1392
q0 -7 -6 -13q-3 -6 -13 -6l-53 -3l-34 -31v-144z" />
</svg>
