<?xml version="1.0" standalone="no"?>
<!DOCTYPE svg PUBLIC "-//W3C//DTD SVG 1.1//EN" "http://www.w3.org/Graphics/SVG/1.1/DTD/svg11.dtd" >
<svg xmlns="http://www.w3.org/2000/svg" xmlns:xlink="http://www.w3.org/1999/xlink" version="1.1" viewBox="-10 0 1186 2048">
   <path fill="currentColor"
d="M626 124q1 57 1.5 70t4 71.5t9 84.5t18 80.5t29 91.5t43.5 84t61 89q39 47 101 109t103.5 106.5t84 104t64 133t21.5 162.5q0 118 -33.5 219.5t-90.5 173t-130.5 122t-154 75t-161.5 24.5q-83 0 -164 -21t-160.5 -71t-139 -123.5t-96 -186.5t-36.5 -252
q0 -204 95.5 -443.5t270.5 -460.5q152 -190 260 -242zM257 1728q113 94 282 130q103 22 104 -9q1 -23 -51 -53q-25 -14 -53 -24q-108 -38 -282 -44z" />
</svg>
