<?xml version="1.0" standalone="no"?>
<!DOCTYPE svg PUBLIC "-//W3C//DTD SVG 1.1//EN" "http://www.w3.org/Graphics/SVG/1.1/DTD/svg11.dtd" >
<svg xmlns="http://www.w3.org/2000/svg" xmlns:xlink="http://www.w3.org/1999/xlink" version="1.1" viewBox="-11 0 1693 2048">
   <path fill="currentColor"
d="M837 124q48 -2 83.5 35.5t32.5 86.5q107 57 188 202q52 102 85 216t44 230.5t6.5 232t-23.5 233.5q-2 4 -16 82q-16 85 -43 85q-12 0 -26 -14q106 -366 35 -736q-16 -74 -34 -134t-46.5 -126t-70.5 -120.5t-96 -93.5q-18 10 -27.5 15.5t-32.5 17t-40 14t-38.5 3.5
t-39.5 -9.5t-31 -30.5q-23 -25 -26 -59.5t11 -63.5t42.5 -48.5t62.5 -17.5zM837 172q-31 -2 -51 22t-17 55t30 47q46 31 80 -6q29 -30 21 -71q-12 -45 -63 -47zM422 496q27 0 40 1q8 1 32 2q95 6 106 26q8 13 -11 34q-56 -8 -95.5 -11t-90.5 -3t-97 10.5t-87 31.5
q-71 31 -99 107.5t-4 151.5q-1 7 1 15.5t7 19.5t8.5 18.5t11.5 21.5q8 15 11.5 22.5t9 19.5t5.5 18.5t-2 13.5t-10.5 10t-21.5 3q-33 -51 -52.5 -103t-25.5 -112t15 -113q18 -50 56 -87.5t87 -58t100.5 -30t105.5 -8.5zM1257 498q216 4 307 120q34 45 44.5 101t0 111.5
t-32.5 106.5t-53 98q-5 6 -17 24q-50 77 -73 81q-19 4 -28 -26q72 -92 114 -169t47 -162q8 -79 -46.5 -142t-134.5 -79q-11 -5 -84 -12q-63 -7 -63 -24q-1 -11 19 -28zM1053 519q17 0 23 17t-8 27q-318 74 -585 272q-66 50 -118 97.5t-104.5 106.5t-90 126t-55.5 138
q-15 33 -12 47t20.5 25t36.5 16.5t38 20t25 37.5q15 31 8 65t-30 57t-54.5 35t-65.5 -2q-34 -9 -55.5 -37.5t-25 -61.5t11.5 -65.5t47 -47.5q-3 -55 10.5 -111t41.5 -108t58.5 -95t71.5 -90q160 -176 370 -297t442 -172zM836 988q38 -2 62.5 26.5t21.5 66t-35 58.5
q-56 39 -98 -3q-34 -33 -30 -81q5 -54 57 -65q10 -2 22 -2zM272 1125l9 3q200 213 476 341q62 28 118.5 49.5t123 40t127 27t127.5 7.5t129 -15q32 0 46 -11.5t14.5 -31.5t-1.5 -41.5t4.5 -44.5t26.5 -37q30 -33 76.5 -34t82.5 29t39 75q5 34 -12 64.5t-45.5 47t-63.5 16.5
t-62 -22q-111 62 -284 53q-221 -17 -433.5 -112.5t-397.5 -248.5q-6 -8 -19 -19.5t-26.5 -22t-28 -22.5t-25 -24t-16.5 -23.5t-2.5 -23t17.5 -20.5zM116 1426q-31 -2 -51 22t-17 55t30 47q48 32 82 -7q28 -32 19 -72q-11 -45 -63 -45zM1554 1426q-34 -1 -53 24t-13.5 56.5
t34.5 46.5q48 27 79 -13q26 -33 15 -72q-12 -43 -62 -42zM499 1528l13 5q4 9 20 44t22.5 48.5t21.5 43t26.5 46t27.5 39t34 40t38 32.5q64 55 151 47.5t145 -69.5q6 -3 12 -8.5t13.5 -15t12 -16t12.5 -19.5q9 -14 13.5 -20.5t13 -17t14 -13.5t12.5 -4.5t13.5 4t13.5 17.5
q-45 80 -108.5 137.5t-142.5 72.5q-55 9 -108.5 -7t-97 -50.5t-77.5 -77t-60 -91.5q-4 -14 -19.5 -42t-27 -49t-10.5 -43t22 -33z" />
</svg>
