<?xml version="1.0" standalone="no"?>
<!DOCTYPE svg PUBLIC "-//W3C//DTD SVG 1.1//EN" "http://www.w3.org/Graphics/SVG/1.1/DTD/svg11.dtd" >
<svg xmlns="http://www.w3.org/2000/svg" xmlns:xlink="http://www.w3.org/1999/xlink" version="1.1" viewBox="-11 0 1810 2048">
   <path fill="currentColor"
d="M1381 520l46 -46l175 174q175 174 180 187q12 26 1 53q-7 14 -181 188l-175 174l-46 -46l-46 -46l148 -148l148 -148l-148 -148l-148 -148zM545 658l-26 -25h305q224 0 266.5 1t46.5 5q2 2 15.5 14.5t41 37.5t56.5 53l18 19h-306l-305 1l-23 -22q-5 -5 -21 -19.5
t-22 -20.5q-22 -20 -46 -44zM183 977q177 -175 178 -175q2 0 47 45l45 46l-148 148l-148 148l148 148l148 148l-45 44q-43 45 -46 45q-2 1 -177 -173q-6 -7 -19 -19q-124 -125 -145.5 -150t-20.5 -43v-1q2 -21 25.5 -48.5t157.5 -162.5zM658 961q3 -1 298.5 -1t307.5 1
q7 0 -5 10q-2 2 -48 45t-60 56l-19 18h-306h-307l17 -16q4 -4 13.5 -13t23 -21.5t22.5 -21.5q48 -44 52 -48q2 -2 4.5 -4t4 -3.5t2.5 -1.5zM545 1312l-26 -25h306h306l21 19q19 19 27 25q23 23 44 42q46 43 46 44h-306q-307 0 -311 -4q-11 -12 -42.5 -40.5t-64.5 -60.5z" />
</svg>
