<?xml version="1.0" standalone="no"?>
<!DOCTYPE svg PUBLIC "-//W3C//DTD SVG 1.1//EN" "http://www.w3.org/Graphics/SVG/1.1/DTD/svg11.dtd" >
<svg xmlns="http://www.w3.org/2000/svg" xmlns:xlink="http://www.w3.org/1999/xlink" version="1.1" viewBox="-10 0 1190 2048">
   <path fill="currentColor"
d="M0 124h539v411l68.5 68.5l81.5 81.5l69 69l2 1h410v538h-407q-3 0 -5.5 1.5t-5 5t-4.5 4.5q-23 23 -65.5 66t-77.5 77.5t-66 65.5q-1 0 -1 205l1 206h-539v-538h412q73 -74 220 -221v-282l-110.5 -110.5t-109.5 -110.5h-412v-538zM181 304v179h178v-179h-178zM181 1566
v179h178v-179h-178z" />
</svg>
