<?xml version="1.0" standalone="no"?>
<!DOCTYPE svg PUBLIC "-//W3C//DTD SVG 1.1//EN" "http://www.w3.org/Graphics/SVG/1.1/DTD/svg11.dtd" >
<svg xmlns="http://www.w3.org/2000/svg" xmlns:xlink="http://www.w3.org/1999/xlink" version="1.1" viewBox="-11 0 1810 2048">
   <path fill="currentColor"
d="M586 1651q375 8 757 -124q25 -11 38 -29.5t11.5 -37.5t-11.5 -35t-31.5 -23.5t-48.5 -1.5q-68 -11 -164 -13.5t-169 -2t-162 -14t-160 -46.5q-24 -29 -24 -59t17.5 -54t46.5 -46t58.5 -36t57.5 -22q54 -22 115.5 -39t141.5 -35t118 -28q-49 -39 -152.5 -84t-137.5 -64
q-7 -3 -23 -9.5t-27 -11.5t-27 -12.5t-26.5 -14.5t-22.5 -16.5t-17.5 -19t-8.5 -21t1 -24.5t14 -27q40 -17 82.5 -28t91.5 -16t84 -7.5t93.5 -4.5t85.5 -3q53 -10 82 -55.5t20 -98.5t-54 -81q-19 -14 -40.5 -23t-41 -13t-45.5 -3.5t-43.5 2t-46.5 7.5t-43.5 10t-45 13
t-41.5 12q-42 4 -85 23q-38 17 15 17h15q21 0 62 -3t68 -4t60 8t56 32q-6 21 -26.5 33.5t-50 17t-59.5 6.5t-64 4.5t-54 8.5q-21 2 -100.5 5.5t-129.5 12t-97 28.5q-25 26 -28 55.5t10 55t38 51.5t50 44t51 33q121 77 289 129q-82 -4 -159.5 3.5t-155 29t-146.5 62.5
t-121 100q-30 48 -18 95.5t49.5 85.5t85.5 55q123 62 259.5 86.5t272.5 8.5q10 0 30.5 -1t39 -2t36.5 -1t27.5 4t6.5 12q-41 25 -94.5 40.5t-116 28t-100.5 26.5q-89 20 -218 49zM1788 1024q3 106 -24 212t-77 199.5t-122.5 176t-159 144.5t-189 102.5t-209.5 52.5
q-179 23 -357.5 -28t-323.5 -167t-225 -276q-85 -162 -99 -348.5t46.5 -364.5t187.5 -309q86 -94 200 -160.5t237.5 -98.5t255.5 -28t253 48q162 54 294.5 168t213.5 268t94 323q4 38 4 86z" />
</svg>
