<?xml version="1.0" standalone="no"?>
<!DOCTYPE svg PUBLIC "-//W3C//DTD SVG 1.1//EN" "http://www.w3.org/Graphics/SVG/1.1/DTD/svg11.dtd" >
<svg xmlns="http://www.w3.org/2000/svg" xmlns:xlink="http://www.w3.org/1999/xlink" version="1.1" viewBox="-10 0 1664 2048">
   <path fill="currentColor"
d="M1367 1924q-2 -1 -19.5 -17.5t-39 -35t-58 -43t-76 -45t-94.5 -37.5t-112.5 -24.5t-130.5 -1.5t-148 27q-108 30 -184.5 25t-133 -33.5t-88.5 -61t-51 -59t-20 -26.5q-10 -50 7.5 -99.5t54 -94t83.5 -89t99.5 -92.5t98 -96t82 -108.5t50.5 -121.5q-37 -58 -47 -116
t0 -110t39 -119q20 -60 51 -31q22 21 35 73l95 -17q-8 -54 30 -94q24 -25 36 -14q3 4 4 12q0 53 31 96q42 -91 73.5 -156t70 -139t66.5 -113t44 -39q6 0 7.5 7t-1 19.5t-7 28t-11.5 35t-13.5 38t-13 39t-10.5 35.5q-24 65 -52.5 155t-53.5 146q16 7 38.5 12t34.5 8.5t25 16
t21 33.5q57 32 107 46t82.5 13.5t82.5 0.5t95 10q27 -19 47 -11t22 36q2 3 9.5 12t11 15.5t7 22.5t-2.5 35l-76 68q49 74 -37 101t-138 4q-34 -12 -76 -10.5t-74.5 6t-83.5 -7.5q-29 42 -64.5 63t-66 20.5t-56.5 -6.5t-41 -16l-15 -9q-3 10 -13 37t-19 51t-12.5 57.5t2 62
t29.5 59t66 53.5q73 43 140.5 106.5t112.5 125.5t79.5 123t51 101.5t18.5 57.5zM173 1565q-85 -46 -133 -162.5t-38 -276.5q10 -62 45 -126t80 -111.5t93 -80t85 -39.5q19 -3 58 -9t55.5 -9t46 -10t46.5 -15.5t38 -22.5t40 -33q-1 42 -0.5 74t13 68t42.5 79
q-15 55 -52.5 110t-84.5 101t-100 93t-100 91t-82.5 88.5t-50.5 93t-1 97.5z" />
</svg>
