<?xml version="1.0" standalone="no"?>
<!DOCTYPE svg PUBLIC "-//W3C//DTD SVG 1.1//EN" "http://www.w3.org/Graphics/SVG/1.1/DTD/svg11.dtd" >
<svg xmlns="http://www.w3.org/2000/svg" xmlns:xlink="http://www.w3.org/1999/xlink" version="1.1" viewBox="-11 0 1535 2048">
   <path fill="currentColor"
d="M1066 124q5 6 17 7.5t17 4.5q12 89 -22.5 176.5t-105.5 150.5t-158 84q-19 9 -34 11t-23.5 -3t-14.5 -12.5t-7.5 -22t-2 -25.5t2 -29.5t4 -29t5.5 -27.5q35 -104 123.5 -181t198.5 -104zM448 554h45q35 -5 75.5 4t71.5 23.5t71.5 28.5t73.5 16q41 -5 136 -38.5t151 -32.5
q114 -13 223.5 32t182.5 135q-10 21 -36 49t-51.5 52t-49.5 58t-31 66q-29 79 -20 168.5t55 161.5q17 32 45 59t67 57t57 47q-38 146 -166 311q-5 4 -23 23.5t-24.5 26l-23.5 23.5t-26.5 24.5t-26 20t-29.5 19t-29.5 13.5t-32.5 11q-35 9 -80 0.5t-76.5 -21t-75.5 -28
t-76 -20.5q-45 -6 -97 7t-92.5 31.5t-92.5 32t-96 9.5q-50 -12 -94 -44t-91 -80q-102 -125 -167.5 -267.5t-83.5 -291.5q-38 -252 53 -439q52 -110 157.5 -178.5t226.5 -68.5z" />
</svg>
