<?xml version="1.0" standalone="no"?>
<!DOCTYPE svg PUBLIC "-//W3C//DTD SVG 1.1//EN" "http://www.w3.org/Graphics/SVG/1.1/DTD/svg11.dtd" >
<svg xmlns="http://www.w3.org/2000/svg" xmlns:xlink="http://www.w3.org/1999/xlink" version="1.1" viewBox="-10 0 1809 2048">
   <path fill="currentColor"
d="M930 327q18 2 34 15t20 31q2 140 1 629.5t0 629.5q5 21 -3.5 42t-24.5 34t-37 13t-38 -18q-67 -55 -211.5 -178t-222.5 -186q-35 -2 -156 -1.5t-155 0.5q-10 -1 -30 0t-34 0.5t-30 -4t-26.5 -14t-15.5 -27.5v-446q0 -5 -0.5 -21.5t-0.5 -25t1.5 -23t5 -23t9.5 -18.5
t16.5 -15.5t24.5 -7.5q70 -2 201.5 -1.5t202.5 -0.5q41 -40 124.5 -112t99.5 -86q25 -18 58.5 -49t58 -55.5t59.5 -48t69 -33.5zM1491 337q30 0 57 27q99 122 157.5 273.5t73.5 314.5v30.5t2 36t8 25.5q-18 238 -103 425q-7 13 -23 45t-25 48.5t-25.5 44t-31 44t-35.5 34.5
t-43 28q-44 1 -61 -25.5t-6 -60.5t40 -57q110 -149 150 -337t5 -376.5t-139 -341.5q-21 -20 -37.5 -46t-24.5 -54t6.5 -50t54.5 -28zM1326 485q24 0 41 17q74 93 118.5 204t52.5 227q22 139 -12 282t-112 266q-11 51 -60 58q-44 7 -73 -22q-31 -33 0 -77
q123 -165 138 -377.5t-90 -390.5q-15 -18 -28 -38t-23.5 -45.5t-11.5 -46t13.5 -36.5t46.5 -21zM1154 685q37 2 54 27q81 132 88.5 289.5t-66.5 293.5q-7 48 -54 62q-43 13 -71 -12q-25 -23 -12 -65q62 -95 73 -212.5t-34 -222.5q-15 -20 -25 -45.5t-12.5 -51t12 -43.5
t47.5 -20z" />
</svg>
