<?xml version="1.0" standalone="no"?>
<!DOCTYPE svg PUBLIC "-//W3C//DTD SVG 1.1//EN" "http://www.w3.org/Graphics/SVG/1.1/DTD/svg11.dtd" >
<svg xmlns="http://www.w3.org/2000/svg" xmlns:xlink="http://www.w3.org/1999/xlink" version="1.1" viewBox="-10 0 1495 2048">
   <path fill="currentColor"
d="M1005 124q69 2 107 4.5t96 15t101 35.5q133 57 161 149q20 135 -59 261l-153 138l-11 6q-4 3 -19 12.5t-23.5 16.5t-17 17t-6.5 20t14 20q7 7 32.5 33.5t37 40.5t22.5 39t10 48q-12 96 -75 174.5t-164 158.5q-34 23 -83 64t-84.5 70.5t-85.5 59t-98 42.5q-23 -2 -34 8
q-9 7 0 8q8 0 24 -8q-19 29 -75 49t-104 19q-173 85 -341 132q-9 22 -24 46t-26.5 39.5t-33 42.5t-30.5 39q-14 -3 -15.5 -14t6 -26.5t17 -31t18 -32t9.5 -25.5q11 -20 2 -28t-28 2q-1 -8 -6.5 -9.5t-13.5 2t-16.5 8t-16 7.5t-13 0t-6.5 -14l169 -327l154 -334
q33 -111 130 -320.5t130 -320.5q-10 -20 -4.5 -28t18 -22.5t12.5 -28.5q-88 32 -183 89q-11 3 -25 13.5t-25.5 20.5t-24 17.5t-25 6t-24.5 -14.5q-28 14 -52 41q-4 3 -26 29q-15 18 -22 -1q-2 -3 -3 -8q22 -15 15 -19q-8 -4 -26 14q-6 5 -11 13q-4 -34 30 -60t66 -15
q-24 -19 8 -25q7 -2 1 -3q0 -12 17 -27t47 -33.5t37 -24.5q39 -25 2 -23q-11 0 -26 3q24 -27 91 -66t91 -59q210 -89 464 -126zM853 335q-17 40 -120 271q-5 14 -25 46t-22 55q1 13 -8 36t-18 40.5t-11.5 37t10.5 27.5q27 5 75.5 -21.5t65.5 -30.5q16 -7 72.5 -27.5
t82 -31.5t63.5 -37.5t63 -58.5q10 -11 60.5 -55t68.5 -78q15 -3 18 -42q1 -19 5 -18q3 0 8 5q19 13 33 -20q15 -38 0 -65q-4 -7 -10 -11q-19 -26 -33.5 -19.5t-6.5 34.5q-7 4 -16 -12t-22.5 -32t-31.5 -12q-71 -14 -204 8q0 -17 -18 -19q-16 -1 -41 9.5t-38 20.5zM937 949
q-45 1 -100.5 18t-99 37t-99.5 36t-103 15q-14 28 -109 219t-141 293q34 -8 67 -19t69 -27.5t61 -28t66.5 -35t59 -33t64.5 -38t59 -35.5q42 -23 81.5 -51.5t97 -75t75.5 -60.5q20 -11 36.5 -33t23.5 -36.5t20 -45.5q25 -34 -0.5 -59t-67.5 -35q-24 -6 -60 -6z" />
</svg>
