<?xml version="1.0" standalone="no"?>
<!DOCTYPE svg PUBLIC "-//W3C//DTD SVG 1.1//EN" "http://www.w3.org/Graphics/SVG/1.1/DTD/svg11.dtd" >
<svg xmlns="http://www.w3.org/2000/svg" xmlns:xlink="http://www.w3.org/1999/xlink" version="1.1" viewBox="-10 0 1808 2048">
   <path fill="currentColor"
d="M890 886v276h-107q-98 -6 -153 -10.5t-136 -17.5t-147 -34q-73 -19 -196 -72q-37 -9 -89 -44q-62 -51 -62 -125v-231q0 -54 44 -98q56 -56 169 -89q187 -66 383 -80q250 -18 365 -18q315 0 596 89q24 8 50.5 21.5t59.5 32t50 27.5q71 44 71 133v222q0 87 -62 125
q-16 12 -34.5 22.5t-46.5 23.5t-35 16q-4 4 -10.5 4t-14 -2t-10.5 -2q-478 -119 -650 -160q-18 -9 -35 -9zM890 1705h-178q-263 -16 -445 -72q-28 -8 -58.5 -21t-70 -32t-58.5 -27q-80 -54 -80 -151v-205q37 50 94.5 87t98 52t118.5 39q255 63 543 63q20 0 28 7.5t8 27.5
v232zM1779 1189v249q0 49 -53 89q-79 49 -134 71q-4 4 -10.5 4t-17 -2t-16.5 -2l-534 -134l-107 -26q-4 0 -8.5 -4.5t-6.5 -9.5l-2 -4v-249q31 9 88.5 22t88.5 22q85 22 250 62.5t249 62.5h35q9 -6 40 -24t42.5 -26t33 -25t35.5 -35t27 -41z" />
</svg>
