<?xml version="1.0" standalone="no"?>
<!DOCTYPE svg PUBLIC "-//W3C//DTD SVG 1.1//EN" "http://www.w3.org/Graphics/SVG/1.1/DTD/svg11.dtd" >
<svg xmlns="http://www.w3.org/2000/svg" xmlns:xlink="http://www.w3.org/1999/xlink" version="1.1" viewBox="-10 0 1808 2048">
   <path fill="currentColor"
d="M1275 1110l513 -62v575l-363 45q-106 -408 -150 -558zM655 1172l115 575l-770 98v-602zM1204 588q59 -143 26 -257q103 30 213 98q55 35 109.5 85t93.5 96.5t70.5 88.5t46.5 67l16 25l-584 71q-9 -31 -26.5 -88.5t-26.5 -88.5q25 -25 62 -97zM566 871q4 9 8.5 26.5
t9.5 26.5l-584 71l319 -248q97 111 247 124zM983 694q8 28 76 282t127 466t71 235q14 66 -35 115q-15 15 -32 25.5t-40 17t-35.5 9t-42 6t-36.5 4.5q-32 7 -57 -20t-32 -69q-8 -51 -58 -269t-105 -450.5t-58 -245.5q-4 -13 -12 -19t-13.5 -6.5t-18.5 -0.5q-120 0 -186 -106
q-25 -38 -28.5 -90.5t9.5 -100t36 -84.5q4 -8 13 -10t16 -1l7 2q26 18 44 36q57 74 89 106q13 13 26 0q58 -36 151 -97q8 0 10 -2t0 -8t-2 -8l-79 -159q-14 -20 -8.5 -37t25.5 -17q155 -29 231 98q70 106 8 248q-19 37 -53 88q-13 13 -14 27.5t6 34.5z" />
</svg>
