<?xml version="1.0" standalone="no"?>
<!DOCTYPE svg PUBLIC "-//W3C//DTD SVG 1.1//EN" "http://www.w3.org/Graphics/SVG/1.1/DTD/svg11.dtd" >
<svg xmlns="http://www.w3.org/2000/svg" xmlns:xlink="http://www.w3.org/1999/xlink" version="1.1" viewBox="-11 0 1809 2048">
   <path fill="currentColor"
d="M656 1353q6 -5 10 -10.5t6 -8.5t4 -4.5t5 -1.5q387 -573 756 -1107q39 -52 76 -58t95 32q29 18 129 94q40 34 48.5 70t-22.5 76q-159 228 -472 687t-472 686q-51 70 -112.5 77t-119.5 -51l-26 -26l-523 -523q-77 -77 0 -155q19 -23 40 -44t42.5 -40.5t28.5 -26.5
q52 -52 86.5 -52t85.5 52l326 326q0 -13 5 -5q4 7 4 13z" />
</svg>
