<?xml version="1.0" standalone="no"?>
<!DOCTYPE svg PUBLIC "-//W3C//DTD SVG 1.1//EN" "http://www.w3.org/Graphics/SVG/1.1/DTD/svg11.dtd" >
<svg xmlns="http://www.w3.org/2000/svg" xmlns:xlink="http://www.w3.org/1999/xlink" version="1.1" viewBox="-10 0 1808 2048">
   <path fill="currentColor"
d="M844 130h119q25 5 70 10t70 10q181 46 327 149q123 93 189 198q129 172 159 398q0 9 5 31t5 38v129q-5 19 -10 56.5t-10 53.5q-49 196 -149 337t-268 249q-195 107 -348 119q-10 0 -29.5 5t-29.5 5h-130q-19 -5 -56 -10t-53 -10q-198 -50 -338 -149q-139 -98 -248 -268
q-107 -195 -119 -348q4 -4 4 -12t-2 -22t-2 -25v-119q5 -25 10 -70t10 -70q46 -181 149 -327q95 -134 268 -239q156 -95 328 -109q15 0 39.5 -5t39.5 -5zM874 279q-147 4 -282 64.5t-233.5 161t-156 242t-53.5 297.5q5 200 108 369.5t275 267.5t372 98q154 0 293.5 -61.5
t239.5 -165.5t158 -247.5t54 -300.5q-4 -147 -66 -282t-164.5 -233.5t-245 -156t-299.5 -53.5zM896 435q14 0 26 13t12 30v546q10 -10 34.5 -25t34.5 -25q199 -134 258 -179q3 -3 7 -5.5t6.5 -4t4.5 -4t2 -5.5q16 -14 35 -10t35 20q14 16 10 34.5t-20 34.5q-15 10 -49.5 35
t-49.5 35q-20 14 -67.5 46.5t-84 59t-67.5 53.5q-20 15 -54.5 39.5t-54.5 39.5q-22 15 -46 4t-24 -34v-645q0 -50 40 -50q6 -3 12 -3z" />
</svg>
