<?xml version="1.0" standalone="no"?>
<!DOCTYPE svg PUBLIC "-//W3C//DTD SVG 1.1//EN" "http://www.w3.org/Graphics/SVG/1.1/DTD/svg11.dtd" >
<svg xmlns="http://www.w3.org/2000/svg" xmlns:xlink="http://www.w3.org/1999/xlink" version="1.1" viewBox="-10 0 1808 2048">
   <path fill="currentColor"
d="M889 125q182 0 347 70t284.5 189t191.5 283.5t76 346.5q0 14 -5 51t-5 58q-27 133 -118 207q-102 89 -287 89h-79q168 -185 168 -405q0 -151 -74 -280.5t-204 -206t-285 -76.5q-114 0 -227 49q-5 -5 -15 -9.5t-15 -9.5q-100 -50 -227 -50q-136 0 -247 69
q120 -173 311 -274t410 -101zM425 589q69 0 99 10q-86 86 -137 195t-51 230q0 151 74 280.5t204 206t285 76.5q130 0 247 -59q28 7 158 29q39 0 69 20q118 0 247 -29q-128 174 -320.5 274.5t-410.5 100.5q-182 0 -347 -70t-283.5 -188.5t-188.5 -283.5t-70 -347
q0 -59 10 -99q56 -181 166.5 -263.5t248.5 -82.5zM622 629q34 34 79 49q56 69 109 208q5 10 10 29.5t10 29.5q-32 66 -73 147t-62 123t-41.5 92t-31.5 92q-91 -68 -144 -168.5t-53 -216.5t53 -216.5t144 -168.5zM850 1034q88 297 148 405l29 30q-93 19 -148 19
q-87 0 -158 -29v-40q0 -59 10 -79q14 -100 89 -247z" />
</svg>
