<?xml version="1.0" standalone="no"?>
<!DOCTYPE svg PUBLIC "-//W3C//DTD SVG 1.1//EN" "http://www.w3.org/Graphics/SVG/1.1/DTD/svg11.dtd" >
<svg xmlns="http://www.w3.org/2000/svg" xmlns:xlink="http://www.w3.org/1999/xlink" version="1.1" viewBox="-10 0 1808 2048">
   <path fill="currentColor"
d="M1186 1311q-22 22 -87 84t-100 96q-4 4 -7 5.5t-5.5 1.5t-5.5 -1.5t-4.5 -2.5t-5 -4.5l-4.5 -4.5l-342 -327q-5 -4 -14 -13l-14 -14q-25 24 -74 70.5t-72 68.5q-74 71 -220 213q-12 12 -21.5 12.5t-22.5 -12.5q-33 -33 -97.5 -94t-89.5 -86q40 -28 45 -32
q359 -343 532 -510q12 -11 20 -11.5t20 10.5q7 7 553 532q3 2 5.5 5t5.5 7.5t5 6.5zM1197 550q88 85 186.5 179.5t218.5 209.5t186 178q-140 134 -202 194q-65 -62 -194.5 -186t-194.5 -186q-135 129 -137 131q-34 -32 -101 -96.5t-101 -97.5q213 -205 339 -326z" />
</svg>
