<?xml version="1.0" standalone="no"?>
<!DOCTYPE svg PUBLIC "-//W3C//DTD SVG 1.1//EN" "http://www.w3.org/Graphics/SVG/1.1/DTD/svg11.dtd" >
<svg xmlns="http://www.w3.org/2000/svg" xmlns:xlink="http://www.w3.org/1999/xlink" version="1.1" viewBox="-10 0 1680 2048">
   <path fill="currentColor"
d="M1065 124v1q143 0 272 67q128 66 212 185q111 159 111 350q0 100 -33 196q-47 138 -151 239q-103 100 -242 142q-84 25 -169 25q-54 0 -111 -11q-93 -18 -176 -64l-589 670l-68 -60l-3 2l-80 -73l1 -1l-39 -34l590 -671q-88 -117 -113 -271q-7 -53 -7 -91q0 -131 52 -246
q72 -162 220 -259q146 -96 323 -96zM1067 322q-169 0 -286 119q-118 120 -118 287q0 81 31 155q48 115 149 183q100 68 224 68q166 0 285 -119q118 -120 118 -287q0 -123 -68 -226q-66 -101 -181 -149q-73 -31 -154 -31z" />
</svg>
