<?xml version="1.0" standalone="no"?>
<!DOCTYPE svg PUBLIC "-//W3C//DTD SVG 1.1//EN" "http://www.w3.org/Graphics/SVG/1.1/DTD/svg11.dtd" >
<svg xmlns="http://www.w3.org/2000/svg" xmlns:xlink="http://www.w3.org/1999/xlink" version="1.1" viewBox="-10 0 1808 2048">
   <path fill="currentColor"
d="M506 912q7 0 8.5 -1t-1.5 -6q23 0 59 -1q68 -2 79 12t11 102v43q0 34 -13.5 47t-46.5 13q-23 2 -102 4t-121 11q-62 16 -94.5 54.5t-32.5 94.5q0 51 28.5 87t83.5 47q220 47 425 15q99 -22 171 -105q17 -20 34 -44.5t29 -43t27.5 -50t23 -47t22 -53.5t19 -49t20.5 -55
t19 -52q106 -264 223 -417q61 -78 152.5 -114.5t212.5 -49.5q22 0 33.5 10t11.5 27v67q0 7 0.5 33t0 37.5t-4.5 28.5t-11 28q-7 20 -26 27.5t-46.5 9.5t-39.5 7q-157 52 -231 224q-9 22 -5 33.5t13 15t30 3.5h37q12 2 38 -1.5t44.5 0t28.5 23.5q8 15 12.5 30.5t4.5 36
t-0.5 31.5t-4.5 38.5t-4 34.5q0 11 -4.5 17.5t-14 9t-16 3t-17.5 0.5q-21 0 -55.5 1.5t-62.5 1.5t-54 -3q-45 0 -70 18.5t-41 63.5q-47 138 -134 246q-171 228 -447 238h-298q-260 -11 -365 -223q-55 -113 -41 -221.5t93 -210.5q16 -24 36 -42t45.5 -30.5t46 -20.5
t53.5 -14.5t52 -9.5t56 -7l24 -3q13 -3 29.5 -3t37 1.5t30.5 1.5z" />
</svg>
