<?xml version="1.0" standalone="no"?>
<!DOCTYPE svg PUBLIC "-//W3C//DTD SVG 1.1//EN" "http://www.w3.org/Graphics/SVG/1.1/DTD/svg11.dtd" >
<svg xmlns="http://www.w3.org/2000/svg" xmlns:xlink="http://www.w3.org/1999/xlink" version="1.1" viewBox="-10 0 1808 2048">
   <path fill="currentColor"
d="M753 215q150 0 272 61q120 60 200 140l-220 251q-7 -6 -27.5 -21.5t-29.5 -22t-24.5 -14.5t-29.5 -12q-9 -2 -37.5 -11t-52.5 -14t-51 -5q-70 0 -130 30q-70 35 -111 90t-70 141q-30 90 -30 191q0 232 100 332q105 120 261 120q81 0 141 -30q70 -35 111 -90l220 251
q-93 107 -220 170q-122 61 -272 61q-138 0 -291 -51q-137 -46 -241 -150q-33 -33 -62.5 -82.5t-46 -86.5t-42.5 -102q-70 -140 -70 -342q0 -192 60 -342t161 -251q95 -95 241 -160q115 -51 291 -51zM1426 718h171v201h191v170h-191v211h-171v-211h-191v-170h191v-201z
M854 758h140v171h161v140h-161v181h-140v-181h-161v-140h161v-171z" />
</svg>
