<?xml version="1.0" standalone="no"?>
<!DOCTYPE svg PUBLIC "-//W3C//DTD SVG 1.1//EN" "http://www.w3.org/Graphics/SVG/1.1/DTD/svg11.dtd" >
<svg xmlns="http://www.w3.org/2000/svg" xmlns:xlink="http://www.w3.org/1999/xlink" version="1.1" viewBox="-10 0 1808 2048">
   <path fill="currentColor"
d="M749 220q150 0 270 60t200 140l-220 249q-9 -6 -28 -21t-28 -22t-24.5 -15t-29.5 -12q-9 -2 -37.5 -11t-52 -13.5t-50.5 -4.5q-72 0 -130 29q-68 34 -110 90q-40 54 -69 140q-31 93 -31 190q0 230 100 330q105 120 260 120q78 0 140 -31q69 -35 110 -89l220 249
q-93 107 -220 170q-120 60 -270 60q-140 0 -290 -50q-134 -44 -239 -150q-33 -33 -62.5 -82t-45.5 -85t-42 -102q-70 -126 -70 -340q0 -190 60 -340q59 -148 160 -249q97 -97 239 -160q113 -50 290 -50zM1358 520h120l-40 239h100l40 -239h120l-40 239h130v110h-160l-20 160
h130v110h-160l-40 240h-120l50 -240v0h-99l-40 240h-120l40 -240h-120v-110h150l20 -160h-130v-110h150zM1408 879l-20 160h100l20 -160h-100z" />
</svg>
