<?xml version="1.0" standalone="no"?>
<!DOCTYPE svg PUBLIC "-//W3C//DTD SVG 1.1//EN" "http://www.w3.org/Graphics/SVG/1.1/DTD/svg11.dtd" >
<svg xmlns="http://www.w3.org/2000/svg" xmlns:xlink="http://www.w3.org/1999/xlink" version="1.1" viewBox="-10 0 1438 2048">
   <path fill="currentColor"
d="M1418 1795q-116 62 -248 96q-128 33 -267 33q-418 0 -660 -241q-243 -243 -243 -658t243 -658t660 -243q138 0 267 33q135 35 248 96v360q-117 -84 -237 -124q-118 -40 -243 -40q-232 0 -362 153q-132 153 -132 423q0 267 132 422q132 153 362 153q128 0 243 -39
q116 -39 237 -124v358z" />
</svg>
