<?xml version="1.0" standalone="no"?>
<!DOCTYPE svg PUBLIC "-//W3C//DTD SVG 1.1//EN" "http://www.w3.org/Graphics/SVG/1.1/DTD/svg11.dtd" >
<svg xmlns="http://www.w3.org/2000/svg" xmlns:xlink="http://www.w3.org/1999/xlink" version="1.1" viewBox="-10 0 1808 2048">
   <path fill="currentColor"
d="M737 213q133 -5 258 44t230 157l-220 251q-246 -164 -408 -64q-115 71 -156 250q-40 174 7 348q47 176 160 244q156 95 373 -61q22 -16 44 -34l220 251q-84 97 -186 155t-204 73.5t-207 -2t-199 -65t-177 -123.5t-143 -170t-94.5 -210.5t-34.5 -239.5q0 -110 28.5 -214
t79 -190.5t120 -160t151 -124.5t173.5 -81t185 -34zM1567 816h80l141 432h-80l-30 -101h-141l-30 101h-81zM749 817h72v234q0 55 3 71q4 28 22 44q18 15 47 15h2q21 0 38 -11q15 -10 21 -29.5t6 -84.5v-239h72v227q0 86 -9 125q-9 38 -43 63q-33 24 -85 24q-54 0 -86 -20
t-46 -57t-14 -132v-230zM1106 817h130q50 0 75 11q23 10 46 37q21 25 33 68q12 42 12 104q0 57 -13 97q-14 42 -32 65q-20 25 -47 37t-70 12h-134v-431zM1177 890v284h54q33 0 50 -6q15 -6 25 -19t16 -41t6 -74q0 -51 -7 -76q-5 -25 -21 -43q-13 -14 -34 -21q-13 -4 -59 -4
h-30zM1607 916l-50 161h101z" />
</svg>
