<?xml version="1.0" standalone="no"?>
<!DOCTYPE svg PUBLIC "-//W3C//DTD SVG 1.1//EN" "http://www.w3.org/Graphics/SVG/1.1/DTD/svg11.dtd" >
<svg xmlns="http://www.w3.org/2000/svg" xmlns:xlink="http://www.w3.org/1999/xlink" version="1.1" viewBox="-11 0 1809 2048">
   <path fill="currentColor"
d="M1788 866v741h-311v311h-752l-627 -627q-38 -33 -63 -73t-33.5 -88t14.5 -93q56 -120 287 -601q105 -54 303.5 -153.5t238.5 -119.5q58 -37 131.5 -32.5t125.5 50.5q131 130 370 369.5t316 315.5zM881 189l-480 240h380q57 1 162.5 0.5t192 0t163.5 2.5l-195 -195
q-41 -49 -104 -63.5t-119 15.5zM1438 1879v-283q-184 -183 -550.5 -550t-549.5 -551v806q1 15 -1 65.5t4.5 82t27.5 57.5q70 72 200 202t172 171h697z" />
</svg>
