<?xml version="1.0" standalone="no"?>
<!DOCTYPE svg PUBLIC "-//W3C//DTD SVG 1.1//EN" "http://www.w3.org/Graphics/SVG/1.1/DTD/svg11.dtd" >
<svg xmlns="http://www.w3.org/2000/svg" xmlns:xlink="http://www.w3.org/1999/xlink" version="1.1" viewBox="-10 0 1756 2048">
   <path fill="currentColor"
d="M908 823q-204 0 -371.5 -12.5t-327.5 -47.5q-35 -6 -95 -30.5t-74 -29.5q-40 -13 -40 -60v-349q0 -16 8 -28t22 -12q10 -4 39.5 -17t42 -18t35.5 -14t42.5 -13.5t39.5 -7.5q89 -21 179.5 -34t195.5 -18.5t172.5 -6.5t191.5 -1q333 0 599 70q58 15 129 50q40 13 40 60v349
q0 20 -30 50q-80 40 -120 50q-47 7 -132 21.5t-155 24.5t-132 14q-45 5 -132 5t-127 5zM1736 842v360q0 15 -17.5 32.5t-32.5 17.5q-14 5 -57.5 20.5t-74 25t-57.5 13.5q-373 67 -859 50q-115 -7 -169.5 -11.5t-149.5 -19.5t-169 -38q-40 -10 -120 -50q-30 -15 -30 -50v-350
q104 36 213 59t224.5 33.5t210 14t220.5 3.5q238 8 451.5 -16t416.5 -94zM1736 1401v350q0 14 -16.5 32.5t-33.5 26.5q-55 21 -83 30.5t-73.5 22t-82.5 17.5q-612 92 -1208 -10q-32 -4 -63.5 -13.5t-78.5 -26.5t-57 -20q-22 -7 -31 -23t-9 -46v-340q100 36 207.5 59
t223 33.5t211 14t226.5 3.5q126 0 220.5 -3.5t210 -14t224.5 -33.5t213 -59z" />
</svg>
