<?xml version="1.0" standalone="no"?>
<!DOCTYPE svg PUBLIC "-//W3C//DTD SVG 1.1//EN" "http://www.w3.org/Graphics/SVG/1.1/DTD/svg11.dtd" >
<svg xmlns="http://www.w3.org/2000/svg" xmlns:xlink="http://www.w3.org/1999/xlink" version="1.1" viewBox="-11 0 1809 2048">
   <path fill="currentColor"
d="M1788 787v29q-5 5 -10 15t-10 15q-15 20 -49.5 59.5t-49.5 59.5q-59 59 -59 118q0 4 -2.5 7t-8 6t-9.5 7q-315 74 -623 89q-105 0 -155 -0.5t-135.5 -7.5t-154.5 -21q-55 -10 -159 -30t-158 -30q-5 0 -10 -2.5t-7 -4.5l-3 -3q0 -76 -69 -128q-15 -15 -44.5 -40t-44.5 -40
q-37 -44 -23.5 -90t72.5 -68q17 -7 97.5 -36.5t120.5 -52.5q71 -35 206 -117.5t150 -90.5q63 -47 118.5 -75.5t119.5 -42.5h29q101 26 228 99q95 48 168 108q22 12 74 40t80 43t71 36.5t82 38t79 30.5q38 8 60 26.5t29 53.5zM907 668q-89 0 -168 79q-10 10 -10 20
q15 119 89 208q5 9 14 17t15 11t21 11q69 28 119 -39q74 -89 89 -208q0 -7 -1.5 -10t-8.5 -10q-79 -79 -159 -79zM878 1736q-25 -5 -70 -9.5t-69 -9.5q-115 -22 -208 -78.5t-178 -149.5q-92 -108 -148 -218q0 -5 -5 -9.5t-5 -9.5v-10q707 177 1415 0v19q-149 298 -406 406
q-117 59 -257 59h-20q-20 10 -49 10z" />
</svg>
