<?xml version="1.0" standalone="no"?>
<!DOCTYPE svg PUBLIC "-//W3C//DTD SVG 1.1//EN" "http://www.w3.org/Graphics/SVG/1.1/DTD/svg11.dtd" >
<svg xmlns="http://www.w3.org/2000/svg" xmlns:xlink="http://www.w3.org/1999/xlink" version="1.1" viewBox="-11 0 1630 2048">
   <path fill="currentColor"
d="M1547 648q75 75 59 197.5t-112 221.5q-50 52 -110.5 82.5t-120.5 36.5q0 1 -0.5 3t-0.5 3q-10 41 -54.5 101.5t-113 127t-156 138t-181.5 134t-190.5 115.5t-183 82t-159 33.5t-118.5 -29.5q-59 -41 -85 -143.5t-21 -231t32 -274.5t69 -274.5t96 -230.5t108 -145
q-13 -99 27 -212q48 -136 147 -209.5t191 -40.5q59 22 94 83t38 142t-25 172q74 16 136 41t97 49q49 36 105 107q10 -12 15 -17q97 -99 219 -117.5t198 55.5z" />
</svg>
