<?xml version="1.0" standalone="no"?>
<!DOCTYPE svg PUBLIC "-//W3C//DTD SVG 1.1//EN" "http://www.w3.org/Graphics/SVG/1.1/DTD/svg11.dtd" >
<svg xmlns="http://www.w3.org/2000/svg" xmlns:xlink="http://www.w3.org/1999/xlink" version="1.1" viewBox="-10 0 1185 2048">
   <path fill="currentColor"
d="M856 767q18 20 59.5 63t63 67t55.5 65.5t53.5 73.5t38.5 75t28 86q37 198 -56 410q-59 133 -184 218.5t-272 96.5q-153 12 -296 -48t-226 -182q-57 -81 -87 -180.5t-32.5 -198t16.5 -199.5q73 -379 333 -734q37 -48 61.5 -76.5t61.5 -67t75.5 -66t80.5 -46.5
q-13 218 65 410q-112 -12 -215.5 24t-163.5 121q-43 62 -52.5 138.5t20.5 145.5q11 19 27 35.5t30 27.5t38 23.5t37.5 18.5t42 18.5t38.5 16.5q21 9 25.5 10.5t24 10.5t26 13.5t21 15t20 19.5t12 22t8.5 28q10 52 -22.5 96.5t-84.5 55.5q-88 23 -181.5 -6t-167.5 -93
q-7 33 -19.5 99.5t-18.5 99.5q89 38 178.5 56.5t188 9t177.5 -55.5q72 -41 111.5 -118.5t34.5 -162.5q1 -68 -37.5 -126t-100.5 -89q-26 -15 -77 -36t-90 -43.5t-66 -53.5q-25 -40 -0.5 -85.5t69.5 -62.5q68 -22 135.5 -15.5t131.5 37.5q11 4 33.5 20.5t28.5 17.5zM466 1768
q15 3 39 8t41.5 8.5t39 6t42 2t39.5 -5.5q48 -31 -5 -68q-31 -23 -66 -29q-54 -16 -124 -29t-107.5 -18t-126.5 -15q109 105 228 140z" />
</svg>
