<?xml version="1.0" standalone="no"?>
<!DOCTYPE svg PUBLIC "-//W3C//DTD SVG 1.1//EN" "http://www.w3.org/Graphics/SVG/1.1/DTD/svg11.dtd" >
<svg xmlns="http://www.w3.org/2000/svg" xmlns:xlink="http://www.w3.org/1999/xlink" version="1.1" viewBox="-10 0 1072 2048">
   <path fill="currentColor"
d="M531 124q62 104 185 308t184 308q91 136 152 246v10q-172 91 -521 303h-10l-341 -199q-16 -11 -55 -33.5t-64 -41t-42 -39.5v-9q57 -85 171 -275q24 -42 75.5 -128t75.5 -128q21 -43 45.5 -85.5t63 -104.5t52.5 -85q5 -9 14.5 -23t14.5 -24zM0 1195q7 3 15.5 6t13.5 5.5
t9 6.5q43 24 128.5 76.5t127.5 75.5q38 23 113.5 66.5t113.5 66.5q9 -4 33.5 -19t33.5 -19q206 -129 464 -265q-28 38 -85 118t-86 118q-57 80 -175 246t-175 247q-4 0 -6.5 -2t-2.5 -4l-1 -3q-38 -57 -118.5 -166t-118.5 -166q-81 -102 -208 -284q-14 -19 -38 -52t-38 -52z
" />
</svg>
