<?xml version="1.0" standalone="no"?>
<!DOCTYPE svg PUBLIC "-//W3C//DTD SVG 1.1//EN" "http://www.w3.org/Graphics/SVG/1.1/DTD/svg11.dtd" >
<svg xmlns="http://www.w3.org/2000/svg" xmlns:xlink="http://www.w3.org/1999/xlink" version="1.1" viewBox="-10 0 1808 2048">
   <path fill="currentColor"
d="M888 151q122 1 239 36.5t216 102.5q-28 -8 -94.5 -28t-115.5 -33.5t-96 -22.5q-167 -35 -337.5 1.5t-305.5 138.5q-11 3 -23 13.5t-22.5 22t-22 23t-21.5 18.5t-21.5 5t-21.5 -15q118 -127 283.5 -195t342.5 -67zM1207 275q132 38 208 94q110 88 204 209
q-41 -80 -123 -164q-20 -4 -40 -44q-17 -33 -3 -33q6 0 18 9q14 4 34.5 27t35.5 36.5t22 1.5q75 64 119 154t48 188q2 7 -1 80q-1 26 3 27q4 0 15 -25q12 -43 19 -16q2 7 4 24q2 12 3 17q17 70 14 158q-20 111 -68 210q-16 23 -16.5 55t5 57.5t-5.5 57.5q-53 146 -211 249
q-22 10 -42.5 30t-33.5 39t-33 39.5t-41 31.5q-57 29 -121.5 45t-151.5 29q-13 6 -91 6q-50 0 -51 11q0 6 16 18q-22 2 -44 0.5t-47 -7t-41.5 -9.5t-46.5 -12.5t-42 -11.5q-17 -5 -18 -4t7 7q21 14 21 16q0 3 -16 0q-85 -17 -164.5 -59.5t-178.5 -112.5
q-138 -97 -226.5 -245.5t-114.5 -319.5q-1 -26 -5 -28q-3 -1 -8 12q-2 6 -11 35q-5 -88 16 -245q5 -21 3 -21q-1 -1 -7 8q-12 19 -19 23q5 -16 20 -70t27 -89t28 -68q48 -102 142.5 -167t201.5 -56q9 -2 16.5 -2t13 2t9 4.5t5.5 7t3.5 9t1.5 11.5t-0.5 12t-2.5 13t-3 13
t-3 13q54 -72 111 -118.5t127 -52.5q19 -2 27.5 -0.5t7 8t-8.5 14.5t-19 18q-47 51 -74 114.5t-26 135.5t38 130q27 34 36 73t-6 80q-40 -60 -117 -71.5t-132 35.5q-53 43 -68.5 111.5t7 135t73.5 108.5q-42 -50 -61.5 -108.5t-4.5 -116.5q6 -35 28.5 -66.5t54 -50t68.5 -22
t70 17.5q-1 6 -23.5 47t-20.5 66q-16 78 7 155.5t82 126.5q10 12 21 22t27.5 18t25 13t31 11.5t27 7.5t32.5 7.5t29 6.5q56 16 -5 16q-8 0 -19 -1q62 58 200 31q11 2 66 -16q41 -13 42 3q0 5 -3 12q7 -1 14 -5t14.5 -11.5l12.5 -12.5t13 -15l12 -13.5t10.5 -10.5t10.5 -7.5
t9 -1.5t9 4.5t7 13.5q83 -38 117 -174q5 -11 11.5 -41.5t12.5 -50.5t13 -18q5 16 9.5 22t7.5 3t4.5 -11.5t3.5 -22.5q9 -30 12 -67t1 -61t-7 -69.5t-6 -63.5q-10 -41 9 -30q11 6 53 56q7 8 8 7q10 -116 -35 -227.5t-134 -189.5q20 -9 68.5 14t77.5 51q-14 -30 -34 -58
t-48.5 -55.5t-48 -45t-57 -47.5t-52.5 -43zM200 322q5 80 58 128q-9 13 -68 51.5t-78 66.5q7 -160 88 -246zM649 602q17 19 45.5 24.5t53.5 3t53 1.5q23 -7 40 0.5t23.5 22t3 34t-17.5 35.5q-26 23 -82 52.5t-72 40.5q-39 -40 -52.5 -100t5.5 -114zM579 1078q12 7 34 21
q36 26 74.5 40.5t82 13t79.5 -24.5q49 -31 114.5 -23.5t102.5 51.5q11 25 8.5 35t-18 14.5t-32.5 5.5t-35 7.5t-25 20.5q-56 50 -129 71.5t-145 7.5q-61 -35 -92.5 -103t-18.5 -137z" />
</svg>
