<?xml version="1.0" standalone="no"?>
<!DOCTYPE svg PUBLIC "-//W3C//DTD SVG 1.1//EN" "http://www.w3.org/Graphics/SVG/1.1/DTD/svg11.dtd" >
<svg xmlns="http://www.w3.org/2000/svg" xmlns:xlink="http://www.w3.org/1999/xlink" version="1.1" viewBox="-10 0 1809 2048">
   <path fill="currentColor"
d="M1065 1426q38 38 49 84t4 104v214q0 40 19 53.5t53 -0.5q105 -35 198.5 -96.5t165.5 -141t125.5 -175.5t80 -200.5t29 -216.5t-27.5 -223q-31 -112 -88 -212t-133 -178.5t-170 -139t-198 -94t-217.5 -43t-228.5 14.5q-150 30 -280.5 105t-226 181.5t-153.5 245t-64 290.5
q-14 244 87 438.5t306 337.5q99 63 215 107q26 7 44 -3.5t18 -31.5v-170q-45 9 -125 9q-69 -7 -115 -36.5t-72 -88.5q-28 -82 -99 -125l-17 -18q-8 -7 -6.5 -17t14.5 -10h45q77 11 125 90q29 47 72 69.5t87 21.5t91 -20q9 0 9 -9q17 -71 54 -107q-40 -8 -116 -27
q-103 -27 -169 -83.5t-99 -148.5q-5 -18 -9.5 -49t-8.5 -49q-15 -86 3.5 -167.5t76.5 -145.5v-17q-14 -46 -14 -93.5t14 -94.5q6 -34 13 -38.5t41 2.5q14 2 28 5t29.5 9t25.5 10t27 13.5t24 13t27 15.5t26 15q9 9 27 9q107 -27 209.5 -27t210.5 27q17 0 26 -9q54 -36 90 -54
q24 -12 37 -18t35.5 -12t43.5 -6q12 0 19 5.5t7 12.5q36 97 9 206q0 17 9 26q22 28 33.5 44t22.5 40.5t16 49.5q41 178 -36 331q-61 133 -241 178q-18 5 -53.5 9.5t-53.5 8.5z" />
</svg>
