<?xml version="1.0" standalone="no"?>
<!DOCTYPE svg PUBLIC "-//W3C//DTD SVG 1.1//EN" "http://www.w3.org/Graphics/SVG/1.1/DTD/svg11.dtd" >
<svg xmlns="http://www.w3.org/2000/svg" xmlns:xlink="http://www.w3.org/1999/xlink" version="1.1" viewBox="-10 0 1801 2048">
   <path fill="currentColor"
d="M0 1042v-31q5 -23 14 -39t29 -38.5t27 -32.5l482 -481l20 -20q10 0 10 10l180 180q15 15 0 30q-8 46 7.5 87.5t52.5 63.5q14 7 17 15t3 25v441q0 20 -20 40q-39 23 -57 65t-3 86q15 45 50.5 72.5t80.5 27.5q44 0 79 -25.5t51 -64.5q15 -45 1.5 -88t-51.5 -73
q-14 -7 -17 -14.5t-3 -25.5v-451h10l160 160q4 4 6.5 9t2.5 8l1 3v61q7 59 53.5 93.5t107.5 26.5t98 -60t22 -111q-7 -52 -56.5 -85t-103.5 -25q-21 0 -41 -10l-170 -170q-10 -10 -10 -30q15 -67 -39 -121.5t-122 -39.5q-30 0 -30 -10q-120 -120 -180 -170q-16 -16 0 -31
q22 -18 44.5 -40.5t47.5 -49.5t38 -40q90 -91 181 0l762 762q91 91 0 181l-732 732q-4 4 -17.5 18t-20.5 21t-19.5 17t-25.5 15.5t-27 8.5h-21q-2 -1 -20 -9t-29.5 -15t-20.5 -16q-19 -19 -59 -57t-72 -70.5t-59 -63.5l-552 -551q-4 -13 -29.5 -45.5t-30.5 -54.5z" />
</svg>
