<?xml version="1.0" standalone="no"?>
<!DOCTYPE svg PUBLIC "-//W3C//DTD SVG 1.1//EN" "http://www.w3.org/Graphics/SVG/1.1/DTD/svg11.dtd" >
<svg xmlns="http://www.w3.org/2000/svg" xmlns:xlink="http://www.w3.org/1999/xlink" version="1.1" viewBox="-11 0 1810 2048">
   <path fill="currentColor"
d="M853 689q101 -3 179 55q108 89 84 132q-15 3 -74 20.5t-91 16.5q-33 -47 -96.5 -54.5t-109.5 27.5q-47 27 -72 81t-14 111t57 89q60 38 129 16t101 -84h-154q-69 0 21 -127q4 -5 5 -7q30 -1 134 -0.5t133 -0.5q16 2 25.5 -9t13.5 -26.5t11.5 -33t17.5 -25.5
q53 -84 146 -129t195 -44q75 -1 142.5 36t109.5 102.5t41 140.5q6 68 -18.5 133.5t-69 115t-105.5 83.5t-128 44q-74 16 -150 -4.5t-134 -74t-78 -127.5q-49 103 -150 162.5t-213 47.5q-111 -6 -192 -92t-78 -197q-1 -98 53 -186t142.5 -140t186.5 -52zM1462 857
q-34 2 -73 18q-39 15 -67.5 51t-39.5 77t0 84t45 71q36 30 82 33t85.5 -14.5t71 -52.5t40.5 -78q15 -44 -1 -90t-55.5 -74t-87.5 -25zM156 860h281q26 -6 30 5t-16 26q-27 3 -146.5 2t-147.5 -1q-26 8 -25 -6t21 -24q2 -1 3 -2zM24 940h360q15 -2 26 -0.5t15 8.5t-9 22
q-75 2 -216.5 2h-174.5q-26 8 -25 -6t21 -24q2 -1 3 -2zM228 1020h136q24 -3 38 4t2 28q-15 3 -81 2t-82 -1q-25 8 -29.5 -6t16.5 -27z" />
</svg>
