<?xml version="1.0" standalone="no"?>
<!DOCTYPE svg PUBLIC "-//W3C//DTD SVG 1.1//EN" "http://www.w3.org/Graphics/SVG/1.1/DTD/svg11.dtd" >
<svg xmlns="http://www.w3.org/2000/svg" xmlns:xlink="http://www.w3.org/1999/xlink" version="1.1" viewBox="-10 0 1808 2048">
   <path fill="currentColor"
d="M712 181q50 83 89 172q42 -7 92 -7h2q50 0 92 7q35 -78 89 -172q135 30 238 81q-1 85 -15 197q3 2 37.5 23t50.5 34q60 45 82 67q77 -51 159 -93q102 110 160 210q-57 92 -109 156v436v38h-1h-2l-290 28q-26 4 -28 29l-9 128l-253 18l-18 -118q-2 -11 -10.5 -19t-20.5 -8
h-306q-12 0 -20.5 8t-10.5 19l-18 118l-253 -18l-9 -128q-1 -11 -9 -19.5t-19 -9.5l-290 -28h-3v-474q-41 -50 -109 -156q58 -100 160 -210q82 42 159 93q22 -22 82 -67q12 -10 27 -19.5t33 -20t28 -17.5q-12 -84 -15 -196q106 -53 238 -82zM483 874q-73 0 -124 50.5
t-51 123.5t51 124t123 51q73 0 124 -51t51 -124q0 -72 -51 -123t-123 -51zM1305 874q-73 0 -123.5 51t-50.5 124t51 123.5t124 50.5t123.5 -50.5t50.5 -123.5t-50.5 -124t-123.5 -51h-1zM1269 945q-41 8 -68.5 40t-27.5 74v4q0 48 34 82t82 34t82 -34t34 -82v-4
q0 -48 -34 -82t-82 -34q-6 0 -20 2zM480 948q-41 7 -68.5 38t-28.5 73v1q0 48 34 82t82 34t82 -34t34 -82v-1q-2 -47 -35.5 -80t-80.5 -33q-7 0 -19 2zM894 976q23 0 39.5 15t16.5 36v161q0 21 -16.5 36t-39.5 15t-39.5 -15t-16.5 -36v-161q0 -21 16.5 -36t39.5 -15z
M109 1392l261 26l9 128q2 27 29 29l309 22h2q12 0 20.5 -7.5t10.5 -18.5l18 -120h252l18 120q2 11 10.5 18.5t20.5 7.5h2l309 -22q27 -2 29 -29l9 -128l261 -26v65q0 101 -61 180t-168.5 128.5t-248 75t-306.5 26.5h-2q-165 0 -306 -26t-248.5 -75.5t-168.5 -128.5t-61 -180
v-65z" />
</svg>
