<?xml version="1.0" standalone="no"?>
<!DOCTYPE svg PUBLIC "-//W3C//DTD SVG 1.1//EN" "http://www.w3.org/Graphics/SVG/1.1/DTD/svg11.dtd" >
<svg xmlns="http://www.w3.org/2000/svg" xmlns:xlink="http://www.w3.org/1999/xlink" version="1.1" viewBox="-11 0 1810 2048">
   <path fill="currentColor"
d="M1691 449q25 24 45 56t34.5 77t17.5 94.5t-13 111t-51 124t-102 135t-161 142.5q-63 47 -104.5 127.5t-58 164t-18.5 175.5q0 11 -8 19t-19 8h-121q-10 0 -17.5 -7t-9.5 -17q-9 -69 -60.5 -115t-121.5 -46t-122 46t-61 115q-1 10 -9 17t-18 7h-123q-10 0 -17 -7t-9 -17
q-9 -69 -61 -115t-122 -46t-122 46t-61 115q-1 10 -9 17t-18 7h-125q-10 0 -17.5 -6t-9.5 -16q-35 -182 -7.5 -338.5t99.5 -274t180 -194.5l110 192q31 52 89.5 68t111.5 -13l52 -29l1 -1q89 -55 174 -130q9 -8 8.5 -20t-10.5 -20v-1q-8 -7 -18.5 -6.5t-18.5 8.5
q-33 30 -74 60.5t-66 46.5l-24 15l-51 29l2 -2l-3 2q-33 19 -69.5 8.5t-55.5 -43.5l-118 -202q-20 -35 -8 -74.5t49 -56.5q109 -52 213.5 -75.5t189 -20t164.5 22t145 47.5t125 59t111 54.5t96 37t87 2.5t78 -46q48 -50 48 -115q0 -68 -47.5 -115.5t-114.5 -47.5
q-54 0 -97 32q-8 6 -18.5 5.5t-17.5 -7.5l-36 -36q-8 -8 -7.5 -19.5t8.5 -19.5q84 -78 198 -76l-1 -2q113 2 195 84zM1197 867q-23 0 -39 16t-16 38v1l87 43q20 -15 22 -38.5t-13.5 -41.5t-40.5 -18z" />
</svg>
