<?xml version="1.0" standalone="no"?>
<!DOCTYPE svg PUBLIC "-//W3C//DTD SVG 1.1//EN" "http://www.w3.org/Graphics/SVG/1.1/DTD/svg11.dtd" >
<svg xmlns="http://www.w3.org/2000/svg" xmlns:xlink="http://www.w3.org/1999/xlink" version="1.1" viewBox="-11 0 1626 2048">
   <path fill="currentColor"
d="M1521 1253q56 37 75.5 101t-10.5 120q-36 55 -100.5 71.5t-120.5 -14.5q-33 -17 -41 -32l-368 212q8 16 8 49q0 68 -47.5 116t-115 48t-116 -48t-48.5 -116q0 -7 4 -21t4 -28l-368 -212q-10 21 -33 32q-62 35 -125.5 17.5t-95.5 -74.5q-35 -62 -17 -125.5t75 -95.5
q16 -16 41 -16v-426q-5 0 -11 -1.5t-9.5 -3.5t-10 -5.5t-10.5 -5.5q-55 -37 -72 -101.5t14 -119.5q32 -57 95.5 -74.5t125.5 17.5q3 2 10 7.5t13.5 11.5t9.5 13l368 -212q-8 -16 -8 -49q0 -68 48.5 -116t116 -48t115 48t47.5 116q0 7 -4 21t-4 28l368 212q11 -21 33 -32
q62 -35 126 -17.5t95 74.5q36 62 18 125.5t-75 95.5q-16 16 -41 16v426q6 0 11.5 1.5t9 3.5t10 5.5t10.5 5.5zM318 1359h965q0 -7 2.5 -13t7.5 -14t7 -13q0 -9 24 -33l-482 -843q-8 8 -41 8q-3 0 -17.5 -4t-23.5 -4l-483 843q17 17 25 33q16 16 16 40zM1283 607l-360 -213
l-8 8l475 827h8v-426q-60 -12 -98 -74q-31 -51 -17 -122zM686 394l-376 221q14 72 -17 123q-37 61 -98 73v426h8zM915 1654l368 -213v-8h-965v8l368 213q37 -49 115 -49q65 0 114 49z" />
</svg>
