<?xml version="1.0" standalone="no"?>
<!DOCTYPE svg PUBLIC "-//W3C//DTD SVG 1.1//EN" "http://www.w3.org/Graphics/SVG/1.1/DTD/svg11.dtd" >
<svg xmlns="http://www.w3.org/2000/svg" xmlns:xlink="http://www.w3.org/1999/xlink" version="1.1" viewBox="-10 0 1405 2048">
   <path fill="currentColor"
d="M1095 924q28 11 48 19.5t52.5 24.5t56 31t50 36.5t43.5 43t28.5 49t11.5 56.5q0 28 -11.5 52.5t-27.5 40t-32.5 27t-27.5 15.5l-11 5q0 20 -10 30q-28 42 -68.5 66t-77.5 27.5t-70.5 1.5t-53.5 -8l-20 -6q-10 -31 -10 -71q-23 0 -54 -5.5t-75 -19t-95.5 -43.5t-96.5 -72
q-120 581 -120 681q-5 2 -14 4.5t-37 7.5t-56.5 6.5t-68 -2t-75.5 -14t-76.5 -34t-72.5 -58.5q210 -791 210 -841l-270 -601l-5 2.5t-11 3t-15 -1t-16 -13.5t-14 -31q-4 -24 -2 -37.5t7 -18.5l5 -4q-1 -2 -2.5 -6.5t-4 -15t-4.5 -19.5t-2 -17.5t3 -11.5q1 -2 4 -6t14 -14.5
t23.5 -19.5t33.5 -19t44 -15t55 -4.5t67 8.5q1 0 2.5 0.5t7.5 5.5t13.5 13.5t20 27t26.5 43.5q3 0 8 1t13.5 8.5t8.5 20.5q4 15 1.5 26t-6.5 18l-5 6l210 481l411 -341q-2 -5 -5 -11.5t-3.5 -20.5t8.5 -18t21.5 -6.5t20.5 -3.5h8l90 -70q1 -2 4.5 -5t17 -6.5t30 -1.5
t45.5 15t63 38q106 80 92 98l-2 2l-80 90q1 6 1.5 14.5t-6.5 27.5t-25 28q-14 9 -29 11.5t-23 0.5l-8 -2l-110 101q-2 3 -4 9t-7.5 23.5t-8.5 34t-3.5 38t3.5 38.5t16.5 33t33.5 24zM1295 1284q19 -10 33 -33.5t7 -56.5q0 -34 -24 -67t-57.5 -56t-67.5 -41t-58 -27l-23 -9
q-7 -2 -17.5 -6t-37 -20.5t-45.5 -36t-32.5 -54t-7.5 -73.5l-301 220q-1 3 -2.5 8t-4 18.5t-4.5 25.5t-2 26t3 22q1 1 2 4q97 147 319 186q9 -18 19 -35.5t15 -25.5l6 -9q1 2 3.5 5t14 10t25.5 11t40 3t57 -9t54.5 -20.5t35.5 -24t19 -22t9 -17.5l2 -6q1 2 4 5t8.5 13.5
t9 22.5t3.5 30.5t-5 38.5z" />
</svg>
