<?xml version="1.0" standalone="no"?>
<!DOCTYPE svg PUBLIC "-//W3C//DTD SVG 1.1//EN" "http://www.w3.org/Graphics/SVG/1.1/DTD/svg11.dtd" >
<svg xmlns="http://www.w3.org/2000/svg" xmlns:xlink="http://www.w3.org/1999/xlink" version="1.1" viewBox="-10 0 1808 2048">
   <path fill="currentColor"
d="M569 184h1214v451h-1214v-451zM184 214q76 0 130.5 57.5t54.5 137.5t-54.5 137.5t-130.5 57.5t-130 -57.5t-54 -137.5t54 -137.5t130 -57.5zM574 799h1214v450h-1214v-450zM190 829q76 0 130 57.5t54 137.5t-54 137.5t-130 57.5h-1q-76 0 -130 -57.5t-54 -137.5
t54 -137.5t130 -57.5h1zM574 1413h1214v451h-1214v-451zM190 1444q76 0 130 57.5t54 137.5t-54 137.5t-130 57.5h-1q-76 0 -130 -57.5t-54 -137.5t54 -137.5t130 -57.5h1z" />
</svg>
