<?xml version="1.0" standalone="no"?>
<!DOCTYPE svg PUBLIC "-//W3C//DTD SVG 1.1//EN" "http://www.w3.org/Graphics/SVG/1.1/DTD/svg11.dtd" >
<svg xmlns="http://www.w3.org/2000/svg" xmlns:xlink="http://www.w3.org/1999/xlink" version="1.1" viewBox="-11 0 1809 2048">
   <path fill="currentColor"
d="M1578 457l-10 10l-1228 1227q-30 30 -79 30q-54 -13 -69 -60q-14 -55 20 -89q18 -22 40 -44t51.5 -49.5t46.5 -44.5q5 0 10 -5t10 -5q-124 -84 -178 -129q-92 -76 -168 -168q-22 -22 -24 -46t14 -53q216 -331 524 -465q169 -74 336 -75.5t337 65.5q30 0 40 -10l198 -198
q50 -33 89 -20q45 15 59 69q0 22 -19 60zM509 1288l69 -69q-165 -239 -20 -485q-195 104 -366 327q116 129 297 227h20zM954 744q8 -31 -12.5 -55t-56.5 -24q-77 0 -143.5 41t-105 109.5t-38.5 146.5q0 31 15 50t44 19q24 0 42 -15.5t18 -43.5v-30q7 -67 54 -108t114 -41
q53 0 69 -49zM1766 1021q44 59 0 89q-289 338 -673 406q-190 41 -426 -10h-10l60 -59q22 -33 59 -70q10 -10 40 -10q350 43 663 -207q27 -18 89 -80q10 0 29 -19q-97 -140 -237 -248l119 -119q20 24 69 69t69 70q24 29 74 93.5t75 94.5z" />
</svg>
