<?xml version="1.0" standalone="no"?>
<!DOCTYPE svg PUBLIC "-//W3C//DTD SVG 1.1//EN" "http://www.w3.org/Graphics/SVG/1.1/DTD/svg11.dtd" >
<svg xmlns="http://www.w3.org/2000/svg" xmlns:xlink="http://www.w3.org/1999/xlink" version="1.1" viewBox="-10 0 1808 2048">
   <path fill="currentColor"
d="M0 180h1788v1688h-1788v-1688zM1261 497q-36 0 -57.5 24t-21.5 56q0 29 24 49t55 20q38 0 59 -21t21 -58q0 -29 -24.5 -49.5t-55.5 -20.5zM614 514q-2 0 -3.5 0.5t-3 1.5t-2.5 2t-2 3.5t-2 4t-2.5 5.5t-2.5 6q-20 74 -64.5 228t-64.5 229q-20 65 -54.5 194t-54.5 194
q0 7 0.5 10t5.5 6.5t14 3.5h109q7 0 13.5 -6t6.5 -14q10 -35 29.5 -109.5t29.5 -109.5q3 -3 6 -7.5t5 -6.5t7 -4t12 -2h209q29 0 29 20q10 35 35 109.5t35 109.5q8 15 11.5 17.5t18.5 2.5h99q23 0 25 -2.5t-5 -17.5l-119 -388q-25 -75 -69.5 -228.5t-69.5 -228.5
q0 -9 -3.5 -14t-6.5 -5.5t-10 -0.5h-149q-8 -3 -12 -3zM709 699q6 0 6 7q44 131 60 288q8 8 6 14t-16 6h-139q-10 0 -10 -20q27 -71 69 -258q0 -5 5 -15t5 -15q7 -7 14 -7zM1205 712q-13 0 -13 24v646q0 15 2.5 17.5t17.5 2.5h69q37 0 43.5 -6t6.5 -44q0 -407 -10 -616
q0 -7 -0.5 -10t-5.5 -6.5t-14 -3.5h-89q-4 -4 -7 -4z" />
</svg>
