<?xml version="1.0" standalone="no"?>
<!DOCTYPE svg PUBLIC "-//W3C//DTD SVG 1.1//EN" "http://www.w3.org/Graphics/SVG/1.1/DTD/svg11.dtd" >
<svg xmlns="http://www.w3.org/2000/svg" xmlns:xlink="http://www.w3.org/1999/xlink" version="1.1" viewBox="-10 0 1808 2048">
   <path fill="currentColor"
d="M801 134h142q85 0 178 27q326 81 516 365q130 203 142 409q0 27 9 45v97q-4 22 -9 62.5t-9 62.5q-55 260 -240 445q-226 240 -551 267h-143q-133 -12 -293 -71q-233 -90 -392 -321q-122 -171 -151 -418v-142q0 -54 18 -142q63 -293 311 -499q213 -161 472 -187zM907 259
q-157 0 -299 60t-244 161t-162 241t-60 294t58.5 294t158 241t238.5 161t293 60t294 -60t242 -161t164 -241t65 -294q0 -154 -59.5 -293t-160.5 -239t-239 -160.5t-289 -63.5zM872 473q60 0 105.5 45.5t45.5 105.5q0 62 -43 106.5t-108 44.5q-60 0 -105.5 -45.5
t-45.5 -105.5q0 -62 43 -106.5t108 -44.5zM1032 882v578q3 3 6.5 10.5t8 12t12.5 4.5q18 9 44 9h53v71h-533v-71h80q53 0 53 -54v-409q0 -28 -13.5 -45t-39.5 -17h-89v-72q71 -5 209 -9t209 -8z" />
</svg>
