<?xml version="1.0" standalone="no"?>
<!DOCTYPE svg PUBLIC "-//W3C//DTD SVG 1.1//EN" "http://www.w3.org/Graphics/SVG/1.1/DTD/svg11.dtd" >
<svg xmlns="http://www.w3.org/2000/svg" xmlns:xlink="http://www.w3.org/1999/xlink" version="1.1" viewBox="-10 0 1808 2048">
   <path fill="currentColor"
d="M894 130q284 0 492 152q72 -36 125 -36q99 0 165.5 69t66.5 164q0 99 -53 152q98 180 98 393q0 181 -71 346.5t-191 285.5t-285.5 191t-346.5 71t-346.5 -71t-285.5 -191t-191 -285.5t-71 -346.5t71 -346.5t191 -285.5t285.5 -191t346.5 -71zM894 273q-202 0 -375 101.5
t-274.5 274.5t-101.5 375q0 203 99.5 375.5t272.5 274t379 101.5q155 0 294 -58.5t239.5 -159t159 -239.5t58.5 -294q0 -165 -72 -322q-18 9 -53 9q-99 0 -166 -68.5t-67 -163.5q0 -27 18 -81q-181 -125 -411 -125zM894 657q154 0 260.5 110.5t106.5 265.5
q-7 155 -114.5 260.5t-261.5 105.5q-155 -7 -260.5 -114t-105.5 -261q7 -155 114 -261t261 -106z" />
</svg>
