<?xml version="1.0" standalone="no"?>
<!DOCTYPE svg PUBLIC "-//W3C//DTD SVG 1.1//EN" "http://www.w3.org/Graphics/SVG/1.1/DTD/svg11.dtd" >
<svg xmlns="http://www.w3.org/2000/svg" xmlns:xlink="http://www.w3.org/1999/xlink" version="1.1" viewBox="-10 0 1754 2048">
   <path fill="currentColor"
d="M1733 1364q0 77 -9 112q-20 78 -83.5 113t-141.5 9q-9 -3 -26 -7q-20 -6 -28 -8.5t-20 -2t-16 2t-14.5 11.5t-16.5 19t-22 31q-3 4 -4 6q-67 99 -87 182l-26 52q-12 34 -61 34q-206 13 -424 -69q-22 -4 -61 -12.5t-61 -13.5q0 5 -4 9t-4 8q17 9 52 44l-156 26
q-106 23 -252 8q-53 0 -78 -52q-79 -224 -173 -450q-17 -32 -17 -70v-43q4 -8 10 -14t13.5 -12t10.5 -9q0 17 18 35q7 7 17 26q26 -94 52 -173q50 -135 128.5 -228.5t200.5 -136.5q83 -30 178 -36.5t178 2.5q13 0 43 4t43 4q85 13 156 70q74 74 165 52q7 -7 9 -8t8 -1
q40 -20 45.5 -37.5t-19.5 -57.5q-66 -89 -86 -122q-39 -69 -113 -211.5t-113 -212.5q-8 -12 -12 -25t-7.5 -28.5t-6.5 -24.5q0 -15 8.5 -25t26.5 -10q73 0 122.5 21.5t85.5 82.5q28 47 52 100t58 136t46 111q37 87 104 182q12 16 25.5 28t38 28.5t31.5 21.5q8 8 35 8v-34
q-4 -30 -17.5 -86.5t-17.5 -87.5q-4 -39 -16.5 -121t-17.5 -121q0 -52 52 -52q30 0 46.5 15t31.5 45q20 53 36 119.5t23 108.5t19 119q19 111 34 156q8 29 9 60t-1 51.5t-8 53.5q-15 160 9 295zM1638 1260q0 -9 -26 -35q-9 -9 -18 -9q-109 -55 -216 -43q-10 5 -70 26
q7 7 18 19t17.5 18.5t16 13.5t18.5 10q83 42 225 26q9 0 35 -26z" />
</svg>
