<?xml version="1.0" standalone="no"?>
<!DOCTYPE svg PUBLIC "-//W3C//DTD SVG 1.1//EN" "http://www.w3.org/Graphics/SVG/1.1/DTD/svg11.dtd" >
<svg xmlns="http://www.w3.org/2000/svg" xmlns:xlink="http://www.w3.org/1999/xlink" version="1.1" viewBox="-11 0 1163 2048">
   <path fill="currentColor"
d="M553 125q87 -7 168.5 25.5t139.5 97.5q40 44 63 99.5t28 118t1.5 117.5t-13.5 120q-2 34 -13 69t-28 75.5t-24 63.5q7 20 28 39t41 31.5t37 33.5t18 46q-9 43 -24.5 91.5t-36 106t-30.5 90.5q12 9 28 4t39 -12t44 -13t42.5 0.5t34.5 27.5q29 45 40 96.5t-1 103.5
q-5 27 -23.5 44.5t-43 23.5t-50.5 4.5t-49 -10.5q-26 -19 -55 -17.5t-55 20t-35 45.5q1 11 5.5 32.5t7 36t2.5 33t-5 31t-17.5 23t-33.5 14.5q-1 21 -8 37t-22 25t-28.5 15t-36.5 8t-35.5 2.5t-36.5 0.5h-6h-24t-26 -0.5t-24.5 -1.5t-26.5 -2t-24 -3.5t-24.5 -6t-20.5 -8.5
t-20 -12q-11 -18 -20.5 -55t-16 -63.5t-27 -46t-54.5 -15.5q-20 -10 -57 -22t-63.5 -21t-52 -29t-34.5 -49q2 -197 -50 -335q-3 -15 -14 -39.5t-19 -44t-11.5 -40.5t7 -38t36.5 -28q19 -14 69.5 -38.5t83.5 -49.5t40 -57q-4 -32 -21.5 -60t-38 -45t-44.5 -42t-36 -50
q-14 -31 -13 -69t10 -69.5t14 -70t-2 -71.5q1 -31 18.5 -59t43 -57.5t36.5 -51.5q68 -63 159 -101t190 -48zM574 163q-17 -2 -33.5 0.5t-35.5 10.5t-28.5 13t-32.5 18.5t-28 16.5q-58 28 -89.5 79.5t-16.5 111.5q-1 4 -2 12q-7 41 -10 63.5t-1.5 57.5t11.5 64
q-10 29 -21 33.5t-23 -9t-24 -30.5t-28.5 -29t-32.5 -6q-40 9 -56.5 43.5t-6.5 74t38 63.5q3 8 7.5 13t11 6.5t12 2t14.5 -1.5t14 -3.5t14 -4.5q12 -3 17 -4.5t10 -0.5t3.5 7t-7.5 18q-30 79 67 205q25 17 55 20t76 -2t59 -5q-12 -14 -44 -43.5t-51.5 -55.5t-24.5 -57
q8 2 26 25.5t42 51.5t42 38q61 50 144.5 47t141.5 -55q83 -91 119.5 -213t20.5 -248q-2 -31 -15 -63.5t-39.5 -53.5t-57.5 -9q-18 -13 -9.5 -21.5t27.5 -11.5t28.5 -10.5t-6.5 -19.5q-42 -66 -117 -101t-160 -37zM514 338q12 -1 23 4.5t15 16.5q-6 8 -24 14t-35 10.5
t-33.5 17t-20.5 31.5q-24 2 -10 -30q16 -37 49 -57q20 -12 36 -7zM833 452q13 12 25 44q36 30 7 58q-22 22 -51 19q-28 -3 -21 -35q13 3 22 4t14 -5t6.5 -12t1.5 -17t-1 -19.5t-2 -19.5t-1 -17zM546 455q32 23 52 63q24 42 -20 65q-34 19 -63 8q-26 -10 -10 -39q25 9 37 6
t12 -15t-2 -27.5t-6 -31.5t0 -29zM688 476l2 1l4 3q6 14 13 28t17.5 29t16.5 24.5t20.5 27t19 22.5t22.5 25.5t20 22.5q3 26 -10 47t-37.5 33.5t-49 19.5t-49.5 9q-28 14 -46 -20q-12 -23 -5 -30q3 -4 10 4q15 17 44 19.5t55.5 -6.5t42 -29.5t6.5 -44.5q-10 -15 -31.5 -41.5
t-35.5 -44.5t-23.5 -45t-5.5 -54zM839 777q-11 31 -37.5 54.5t-57.5 28.5q-38 -25 12 -48q10 -4 35 -13q39 -14 48 -22zM535 804q21 12 56.5 12.5t67 3t49.5 18.5q-7 28 -44 29t-76 -18.5t-53 -44.5zM702 1153q-27 -1 -39 8.5t-9 26t10.5 32.5t19.5 33q11 6 31 61
q12 32 18 33q7 1 13 -19q0 -12 4 -38t5.5 -45.5t-1 -40.5t-15.5 -34.5t-37 -16.5zM806 1173q-10 -1 -15 3t-6 9.5t-1 15t-1 13.5q1 10 -10 82q-7 43 3 44q1 0 3 -1q5 -12 21.5 -35t28.5 -41.5t19.5 -38t-2.5 -33t-40 -18.5zM606 1195q-2 2 -17 14t-20 16.5t-15.5 15t-16 20
t-8.5 20.5q10 20 37 34t69 27t57 19q6 -21 -24 -74t-62 -92zM1036 1376q-21 5 -35 9t-32 11t-28.5 16.5t-18.5 22.5t-6 30.5t12 39.5q-19 45 43 47q9 1 27 1q28 -1 28 4q0 1 -3 4q-36 4 -34 10q2 9 37 7q22 -1 32 -9q30 -19 34 -59t-13 -78t-43 -56zM578 1456q-96 1 -202 22
q27 226 78 374q122 42 270 7q-9 -63 -15 -183.5t-7 -140.5q7 -30 -2.5 -48.5t-30 -24t-45 -7.5t-46.5 1zM781 1656q-23 0 -30 14.5t-2.5 35t6 42.5t-4.5 35q40 37 52 -9q12 -42 -7 -93q-6 -16 -14 -25z" />
</svg>
