<?xml version="1.0" standalone="no"?>
<!DOCTYPE svg PUBLIC "-//W3C//DTD SVG 1.1//EN" "http://www.w3.org/Graphics/SVG/1.1/DTD/svg11.dtd" >
<svg xmlns="http://www.w3.org/2000/svg" xmlns:xlink="http://www.w3.org/1999/xlink" version="1.1" viewBox="-10 0 1808 2048">
   <path fill="currentColor"
d="M1787 200q1 66 -1 199v20q-10 4 -30 10.5t-30 9.5q-14 5 -38 12t-39.5 11.5t-35.5 14t-33 20.5t-25.5 29.5t-18.5 42.5q-3 12 -38 17q-24 4 -95 14.5t-110 17.5q-15 2 -32 26q-5 7 -21 45q6 4 18.5 12.5t19 13t18.5 10.5t21.5 8t22 1.5t26.5 -4.5q44 -13 137 -19
q8 -1 21 9.5t13 16.5q0 7 -16 107q-154 13 -292 25q5 36 19.5 147t23.5 170q1 5 9 11t15 6q17 1 101 1q5 -21 0 -37t-16.5 -25.5t-24.5 -17t-25.5 -18t-17.5 -22.5q127 -52 268 -1q-64 55 -85 74q1 15 5 45q1 9 6 30t6 31t-1 30q-12 63 -16 94t1.5 82t27.5 92q2 5 1.5 8
t-2.5 10t-2 10q-1 14 -5.5 45t-6.5 54.5t-1 44.5q2 33 2.5 45t-3 27.5t-7 18.5t-18.5 6t-28.5 1.5t-45.5 -4.5q-3 -1 -10.5 -4t-9.5 -4v-157h-89q1 12 9 77t12 102h-200v-167h-98q3 34 18 194h-139q-2 -4 -7 -14.5t-7.5 -17.5t-1.5 -13q7 -30 7 -64.5t-3 -56.5t-11 -63.5
t-10 -56.5q29 -40 30 -68q3 -44 3 -178q0 -32 -3 -34q-20 -12 -24.5 -33.5t-0.5 -37.5t-7 -30q5 -7 14.5 -18t14 -18t4.5 -13q0 -4 -1.5 -8t-5 -8.5t-6.5 -7.5t-8 -8.5t-7 -7.5q-5 -6 -54 -60q149 -59 288 6q-84 64 -91 69v64h97q3 -51 9.5 -157t9.5 -163q-30 2 -248 13.5
t-332 18.5v310h105q2 -2 5.5 -6.5t5.5 -6.5q-14 -17 -40 -48.5t-37 -45.5q120 -50 243 0q-7 6 -21.5 17.5t-24 20.5t-16.5 18q-8 11 -10 31t4 24q41 27 14 79q-13 25 -17.5 56t-3.5 50t6 58t6 52t7.5 46t6.5 51q0 28 -4.5 80.5t-5.5 61.5v14.5v16.5v14h-111v-163q-7 1 -42 4
t-56 5v164h-186q9 -65 21 -149h-147q18 152 20 168q-10 0 -27.5 -0.5t-31.5 -0.5t-26 1q-24 2 -34.5 -8.5t-7.5 -34.5q3 -20 1 -44q-1 -8 0.5 -32.5t-2.5 -41.5t-19 -32q-3 -3 -4.5 -9.5t0 -16t3 -17t4.5 -20t4 -16.5q2 -8 12.5 -24t11.5 -25q5 -92 -2.5 -161t-41.5 -132
q29 -14 39.5 -26.5t4 -25.5t-29.5 -29q-4 -2 -55 -44q82 -33 153.5 -31.5t117.5 36.5q-12 9 -87 64q1 10 5 46q14 1 73.5 4t93.5 5q3 -47 8.5 -146.5t8.5 -152.5h-215q-1 -8 -2.5 -23.5t-3.5 -27.5t-6 -22q-9 -26 0 -35t35 -7q10 1 38.5 4t38.5 2.5t36 -4.5q28 -9 54.5 -29
t29.5 -39q4 -25 -20.5 -36.5t-58.5 -9.5q-28 2 -128 -5q-27 -2 -30 -12q-16 -48 -67 -85q-11 -8 -23 -14t-20 -8.5t-23 -7t-22 -6.5q-9 -3 -18.5 -7.5t-22 -11.5t-17.5 -10v-9q95 -41 50 -138q50 24 109 39t98.5 21.5t115 6t99 -1.5t110.5 -6q109 -6 307 -20
q403 -26 713 -158q26 -11 156 -71h10q2 2 7.5 6t8.5 7.5t3 6.5zM411 1539v-226q-48 -3 -152 -9v244q32 -2 87 -5t65 -4zM663 1313h-112v196q0 10 3 16.5t5.5 9.5t10.5 4t10.5 1t13 -1t11.5 -1q5 0 17.5 1t19.5 1t14 -7t7 -21v-199zM603 775q19 4 41 4t49.5 -2t42.5 -2
q-3 -21 -9 -60.5t-8 -51.5q-29 2 -72.5 6t-60.5 5q-11 19 -17 32.5t-7 28t9 25t32 15.5zM1113 1561v-258h-91v258h91zM1398 1304q-41 2 -107 4q3 45 7.5 127.5t6.5 120.5q26 -2 93 -6v-246zM937 758q67 7 115.5 -7.5t81.5 -65.5q-39 -50 -41 -52q-32 2 -51.5 4t-38.5 5.5
t-29 6.5t-19 11t-12 15t-5.5 20.5t-2 27t1.5 35.5z" />
</svg>
