<?xml version="1.0" standalone="no"?>
<!DOCTYPE svg PUBLIC "-//W3C//DTD SVG 1.1//EN" "http://www.w3.org/Graphics/SVG/1.1/DTD/svg11.dtd" >
<svg xmlns="http://www.w3.org/2000/svg" xmlns:xlink="http://www.w3.org/1999/xlink" version="1.1" viewBox="-10 0 1756 2048">
   <path fill="currentColor"
d="M1052 1276q0 22 -4 72t-4 72q-19 304 -19 432v63q0 7 -1 8t-8 1l-270 -54q-22 -4 -62.5 -9t-63.5 -9q-90 -18 -116 -18q-58 -9 -175.5 -31.5t-176.5 -31.5q-36 -14 -144 -36q-8 0 -8 -16v-2q14 -79 35 -306q0 -9 4.5 -31.5t4.5 -31.5q5 -5 5.5 -16t4.5 -20q5 -24 9.5 -71
t8.5 -73q18 -90 18 -144q33 -212 44 -360q0 -36 36 -54l162 -54q7 0 12.5 -7t5.5 -20q23 -128 118 -270q59 -89 134 -126q18 0 50 -4.5t50 -4.5q74 0 108 45q7 7 9 8t9 1q76 0 116 54q30 40 64 108q0 9 17 9q9 -5 22.5 -9t22.5 -9q14 0 16 2.5t2 15.5q0 40 -4 116.5
t-4 117.5q-4 50 -8.5 153t-9.5 153q-4 63 -8.5 184.5t-9.5 184.5q6 6 7 8.5t1 9.5zM386 1231q34 34 64 54q50 33 62 81q7 35 -7 59t-47 31h-44q-67 -11 -136 -63q-7 -7 -9 -6t-9 15q-18 72 -36 108q-13 39 18 54q122 95 262 81q74 -7 126.5 -46t79.5 -107q28 -70 28 -135
t-46 -126q0 -5 -4 -9t-4 -9q-13 -21 -34.5 -40.5t-37 -29.5t-46.5 -29q-18 -9 -54 -45q-12 -24 -12 -51t18 -51t48 -33q83 -12 172 18q7 6 12 2.5t5 -11.5l55 -162q7 -20 4.5 -24.5t-22.5 -11.5q-84 -24 -190 -9q-115 22 -193.5 97t-84.5 191q-26 119 62 207zM746 196
q-7 -7 -9 -8t-9 -1q-8 -4 -17 -4t-22.5 2t-23.5 2q-40 13 -68.5 34t-56.5 56q-77 88 -126 252v2q0 5 1 6t7 1q23 -4 63.5 -18t62.5 -18q4 0 6.5 -2t3.5 -5v-2q0 -9 4 -27t4 -27q32 -87 72 -146.5t108 -96.5zM810 385q0 -45 -18 -117q-7 -14 -9 -15t-9 6q-42 21 -54 45
q-53 66 -82 153v9h10q26 -5 69.5 -19t56.5 -17q27 -7 31.5 -12.5t4.5 -32.5zM882 403q18 -9 72 -27v-9q-15 -60 -54 -99q-18 -18 -36 -27h-10v9q0 4 5 18t5 18q8 24 8 99q0 18 10 18zM1710 1600l26 189v2q0 8 -8 16q-54 9 -158 31.5t-158 31.5q-136 34 -224 45q-3 0 -7 1
q-7 2 -6.5 -0.5t3.5 -9.5q0 -60 10 -90q5 -63 9 -184.5t8 -184.5v-90q0 -63 9 -90v-63q5 -81 14.5 -238.5t13.5 -238.5v-90q8 -64 8 -207v-90q7 0 8.5 1t1.5 8l35 36q6 6 16.5 14.5t17.5 15.5t11 15t12 12.5t14.5 5t18.5 0.5q18 0 58.5 4.5t58.5 4.5q7 0 12.5 5.5t5.5 12.5
q5 18 9.5 54t8.5 54q5 32 14 90t13 90q9 45 22.5 139.5t22.5 139.5q14 76 36.5 229t35.5 230q5 18 14.5 49.5t13.5 49.5z" />
</svg>
