<?xml version="1.0" standalone="no"?>
<!DOCTYPE svg PUBLIC "-//W3C//DTD SVG 1.1//EN" "http://www.w3.org/Graphics/SVG/1.1/DTD/svg11.dtd" >
<svg xmlns="http://www.w3.org/2000/svg" xmlns:xlink="http://www.w3.org/1999/xlink" version="1.1" viewBox="-10 0 1808 2048">
   <path fill="currentColor"
d="M934 251v674q7 0 8 -1t1 -8q9 0 9 -9q9 0 9 -9q7 0 8 -1t1 -8q7 0 8 -1t1 -8q9 0 9 -18v-548q0 -27 27 -27h54q20 0 23.5 3.5t3.5 23.5v449h9q7 0 8 -1t1 -8v-9l18 -18q4 -4 4 -8.5t-2 -6.5l-2 -2v-342h99v252q5 0 9 -4.5t9 -4.5l99 -99q9 0 9 -18v-135q8 -4 17 -4t20 2
t17 2t19 -2t22 -2t13 4t4 13t-2 22t-2 19v45q0 9 9 18h80q6 0 9 0.5t6 5t3 12.5v90h-27q5 -4 14 -4t13 -5h-125q-7 0 -8 1t-1 8q-12 12 -36.5 34.5t-44.5 42.5t-36 40q0 9 18 9h215q14 0 16 2t2 15v63q0 16 -4 21.5t-23 5.5h-323q-2 0 -8 -1.5t-8 0.5t-2 10l-108 108h476v81
q0 12 -5.5 15t-21.5 3h-566q-7 0 -8 1t-1 8q-7 0 -8 1t-1 8q-7 0 -8 1t-1 8q-7 0 -8 1t-1 8q-7 0 -8 1t-1 8q-7 0 -8 1t-1 8q-7 0 -8 1t-1 8q4 4 8.5 4t7.5 -2l2 -2h674q7 0 8 1t1 8v63q0 20 -3.5 23.5t-23.5 3.5h-799l-9 9q-4 9 -18 22.5t-18 22.5q4 4 8.5 4t10 -2t8.5 -2
h889q6 0 9 0.5t6 5t3 12.5v89h-1024q-18 0 -27 9l-99 99q0 4 4.5 6t9.5 2l4 1h1222q14 0 16 2.5t2 15.5v171q0 20 -3.5 23.5t-23.5 3.5h-1321q-4 4 -4 8.5t2 6.5l2 3v207h-206q-18 0 -18 -18v-207q-3 -3 -5.5 -3.5t-3.5 0.5t-3.5 2t-5.5 1h-180q-14 0 -16 -2.5t-2 -15.5
v-180q0 -12 4.5 -15t13.5 -3h198h-216q3 -3 5.5 -3.5t3.5 0.5t3.5 2t5.5 1h207q4 -4 4 -8.5t-2 -6.5l-2 -3v-1303q0 -14 2.5 -16t15.5 -2h170q20 0 23.5 3.5t3.5 23.5v1240q8 -4 14.5 -10.5t12.5 -14.5t9 -11q9 -9 23.5 -25t25.5 -27t23 -19q9 0 9 -18v-1025q8 -4 19 -4
t24.5 2t19.5 2t16.5 -2t17.5 -2t11 4t4 11t-2 17.5t-2 16.5v872q72 -72 117 -108q4 -4 6 -8.5t2 -7.5l1 -2v-791h99q7 0 7.5 1t0.5 8q9 -6 15.5 -9t9 -2.5t6 1.5t5.5 1q-9 225 -9 656v18q4 -4 4 -8.5t-2 -10t-2 -8.5v-629q5 0 5 -6.5t4 -11.5z" />
</svg>
