<?xml version="1.0" standalone="no"?>
<!DOCTYPE svg PUBLIC "-//W3C//DTD SVG 1.1//EN" "http://www.w3.org/Graphics/SVG/1.1/DTD/svg11.dtd" >
<svg xmlns="http://www.w3.org/2000/svg" xmlns:xlink="http://www.w3.org/1999/xlink" version="1.1" viewBox="-10 0 1564 2048">
   <path fill="currentColor"
d="M1544 896v1028h-1544v-1028h259v-22q0 -155 1 -233q0 -45 5 -76q15 -104 70 -193.5t134 -147.5t180.5 -84t205.5 -9q123 20 222.5 92.5t155.5 182t56 233.5v257h255zM1031 896q0 -4 0.5 -8t0.5 -5q0 -166 -1 -250q0 -21 -5 -44q-21 -103 -100.5 -160t-186.5 -46
q-95 10 -159.5 84t-64.5 174v255h516z" />
</svg>
