<?xml version="1.0" standalone="no"?>
<!DOCTYPE svg PUBLIC "-//W3C//DTD SVG 1.1//EN" "http://www.w3.org/Graphics/SVG/1.1/DTD/svg11.dtd" >
<svg xmlns="http://www.w3.org/2000/svg" xmlns:xlink="http://www.w3.org/1999/xlink" version="1.1" viewBox="-10 0 831 2048">
   <path fill="currentColor"
d="M423 181q4 -3 22 -13t29 -19.5t22 -24.5q235 223 294 481q16 66 16 89q28 215 -130 342q-33 22 -62.5 49.5t-71 72.5t-62.5 66q22 -4 79 -32.5t103 -55.5l46 -26q-171 163 -212 187q-52 42 -40 106v8q133 242 97 513q-51 -325 -244 -603q-40 -40 -117.5 -140t-134.5 -179
l-57 -80q162 98 203 98q-58 -43 -92.5 -122.5t-40 -162t8 -158.5t43.5 -119q24 -34 44.5 -58.5t52 -53t49 -43t71.5 -56.5t84 -66z" />
</svg>
