<?xml version="1.0" standalone="no"?>
<!DOCTYPE svg PUBLIC "-//W3C//DTD SVG 1.1//EN" "http://www.w3.org/Graphics/SVG/1.1/DTD/svg11.dtd" >
<svg xmlns="http://www.w3.org/2000/svg" xmlns:xlink="http://www.w3.org/1999/xlink" version="1.1" viewBox="-10 0 1614 2048">
   <path fill="currentColor"
d="M109 124h810q0 4 4.5 9t4.5 9l422 423q9 9 9 27v270q-21 -10 -62 -25t-54 -20v-135h-334q-54 0 -85 -31.5t-31 -85.5v-324h-675v1575h458q19 0 28 9q63 63 99 90l8 9h-612q-56 -13 -77.5 -47.5t-21.5 -87.5v-1548q0 -79 73 -108q10 0 21.5 -4.5t14.5 -4.5zM919 241v333
h332zM1070 921q129 -3 244.5 53.5t191.5 162.5t88 238v99q-14 150 -113.5 271t-246.5 161q-72 18 -100 18h-90q-18 -4 -49.5 -9t-49.5 -9q-147 -40 -246.5 -161t-113.5 -271q-20 -203 105.5 -362.5t327.5 -186.5q34 -4 52 -4zM1080 1024q-162 0 -279 117t-117 279
q0 106 53.5 197t145 142.5t197.5 47.5q162 0 279 -117t117 -279q0 -161 -116.5 -274t-279.5 -113zM1080 1195q20 0 37 17t17 37v45q10 20 10 72h107q26 0 44.5 16.5t18.5 37.5q0 26 -17.5 40t-45.5 14h-107v126q-7 20 -25 32.5t-39 12.5q-20 0 -37 -17t-17 -37v-117h-117
q-20 0 -37 -17t-17 -37t17 -37t37 -17h117v-117q0 -20 17 -37t37 -17z" />
</svg>
