<?xml version="1.0" standalone="no"?>
<!DOCTYPE svg PUBLIC "-//W3C//DTD SVG 1.1//EN" "http://www.w3.org/Graphics/SVG/1.1/DTD/svg11.dtd" >
<svg xmlns="http://www.w3.org/2000/svg" xmlns:xlink="http://www.w3.org/1999/xlink" version="1.1" viewBox="-10 0 1808 2048">
   <path fill="currentColor"
d="M901 411q65 59 129 112q44 -2 103 3.5t94 11.5t102 18l127 -92q51 84 85 147q30 18 68.5 47.5t57.5 49.5q26 -10 121 -43l-6 15q-16 44 -25.5 67t-26.5 62t-32.5 63.5t-37.5 53.5t-48 50.5t-56 37.5q-49 -68 -154 -118.5t-233.5 -75.5t-273 -26.5t-272.5 20.5
t-232.5 74.5t-152.5 127.5q-30 -20 -56.5 -46.5t-45 -51t-39 -61t-32.5 -61.5t-32.5 -68.5t-32.5 -67.5l113 46q55 -49 142 -95l86 -144q63 49 133 94q54 -20 142 -32t147 -10zM1730 949l-175 404q-77 96 -187.5 161.5t-232 94.5t-253.5 27t-250.5 -34.5t-224 -98.5
t-174.5 -157l-163 -395q68 82 134 139.5t152 103.5q26 13 73.5 25t82.5 18l34 6l351 -177l349 181q132 -19 190 -51q204 -113 294 -247z" />
</svg>
