<?xml version="1.0" standalone="no"?>
<!DOCTYPE svg PUBLIC "-//W3C//DTD SVG 1.1//EN" "http://www.w3.org/Graphics/SVG/1.1/DTD/svg11.dtd" >
<svg xmlns="http://www.w3.org/2000/svg" xmlns:xlink="http://www.w3.org/1999/xlink" version="1.1" viewBox="-11 0 1597 2048">
   <path fill="currentColor"
d="M1147 125q86 -2 148.5 66t53.5 154v1375q3 66 -35.5 115.5t-97 71.5t-120.5 16h-893q-66 2 -115.5 -36t-71 -96.5t-15.5 -120.5v-1353q2 -83 69.5 -141.5t150.5 -50.5h926zM1439 1294q9 0 27 -0.5t30 0t26.5 3t25.5 10.5t18 22q7 18 8.5 40.5t0 49.5t-0.5 42q5 38 -10 69
t-52 33h-73v-269h67h-67zM1439 934q9 0 27 -0.5t30 0t26.5 3t25.5 10.5t18 22q7 18 8.5 40.5t0 50t-0.5 42.5q5 38 -10 68.5t-52 32.5q-24 1 -73 1v-270h67h-67zM1439 575q9 0 27 -0.5t30 0t26.5 3t25.5 10.5t18 22q7 18 8.5 40.5t0 49.5t-0.5 42q5 38 -10 69t-52 33h-73
v-269h67h-67zM967 439h-584q-29 -1 -46 18t-21 42.5t-1 50.5q2 23 0.5 42.5t0.5 43t9 41.5q14 21 34.5 28t57 5t45.5 -1h505q23 0 38.5 -11t21.5 -28t8.5 -37t-0.5 -38q-1 -13 0.5 -44.5t-2 -53t-18.5 -38.5q-18 -20 -48 -20z" />
</svg>
