<?xml version="1.0" standalone="no"?>
<!DOCTYPE svg PUBLIC "-//W3C//DTD SVG 1.1//EN" "http://www.w3.org/Graphics/SVG/1.1/DTD/svg11.dtd" >
<svg xmlns="http://www.w3.org/2000/svg" xmlns:xlink="http://www.w3.org/1999/xlink" version="1.1" viewBox="-10 0 1808 2048">
   <path fill="currentColor"
d="M1468 615l320 1125l-426 131l-344 -1113l178 -60q-15 -55 -42 -119t-64 -130t-84.5 -109.5t-93.5 -43.5t-95.5 44t-88.5 109t-68 130.5t-44 118.5l154 48l-344 1113l-426 -130l343 -1114l166 48q12 -36 27.5 -74t43 -98.5t62 -111.5t77 -99t96 -75.5t109.5 -27.5t109 27
t93.5 74t73.5 97t59 110.5t40.5 99.5t26.5 78z" />
</svg>
