<?xml version="1.0" standalone="no"?>
<!DOCTYPE svg PUBLIC "-//W3C//DTD SVG 1.1//EN" "http://www.w3.org/Graphics/SVG/1.1/DTD/svg11.dtd" >
<svg xmlns="http://www.w3.org/2000/svg" xmlns:xlink="http://www.w3.org/1999/xlink" version="1.1" viewBox="-10 0 1808 2048">
   <path fill="currentColor"
d="M187 241h1306q63 -8 123.5 17t100.5 77t44 116q3 229 2.5 599.5t0.5 599.5q-9 34 0 55t18.5 49t2.5 48q-22 6 -46 7t-49 -2.5t-45.5 -8t-48.5 -10.5t-46 -9q-52 -14 -105 -17.5t-138 -0.5t-106 3q-27 -10 -55.5 -2t-58.5 16.5t-55.5 15t-45.5 -7t-28 -49.5
q-9 -28 -15 -77t-17 -89t-35 -70q-1 -15 -8.5 -48.5t-12.5 -60.5t-5.5 -54.5t15.5 -40.5t48 -8q110 10 209.5 -25t156.5 -118q17 -19 41 -54.5t40 -58.5t46.5 -43t68.5 -23q25 10 42 1t26.5 -25t6 -38t-20.5 -37q-26 -14 -60 -24.5t-60 -15t-67 -11t-62 -10.5
q-39 -1 -62.5 21.5t-31.5 51.5t-20.5 67t-29.5 57q-17 40 -53 60t-77.5 15t-74.5 -32q-125 -95 -231 -197q-27 -17 -55.5 -49.5t-56.5 -61.5t-59 -43t-47.5 -8.5t-31.5 23t-25 36.5t-28.5 32.5t-41.5 10.5q-23 4 -49.5 -8t-45.5 -26t-45.5 -20.5t-49.5 7.5
q-12 14 -33.5 43.5t-36.5 48t-41 34t-56 14.5q-11 -18 -12.5 -51.5t2 -63t-0.5 -61.5q2 -55 0 -97.5t-1 -97t7 -96.5q13 -61 60.5 -102t118.5 -73zM137 1229q10 0 18 4.5t20 16t14 12.5q124 70 278 67q8 13 -4.5 38t-29.5 55t-16 51q-18 18 -28 49.5t-14.5 62t-11 60
t-24 50.5t-47.5 27q-6 -2 -35.5 -10t-39 -11t-36 -10.5t-39 -12t-35 -12t-37 -13.5t-33 -14t-33.5 -16q0 -8 -1.5 -48.5t-2 -57.5t1 -47t5.5 -54q17 -17 32.5 -46.5t25.5 -54.5t29 -49.5t43 -36.5zM637 1296q58 6 111 83q30 37 53.5 119t37.5 109q5 11 14.5 28t18.5 32
t18 32.5t14 32t4.5 28t-8.5 21.5q-30 -7 -63.5 -26.5t-58.5 -39t-59 -37t-67 -20.5q-30 -11 -67 -2.5t-65.5 23.5t-63 22.5t-59.5 -3.5q4 -9 48.5 -95t59.5 -135q15 -19 35.5 -60.5t42.5 -70.5t54 -41z" />
</svg>
