<?xml version="1.0" standalone="no"?>
<!DOCTYPE svg PUBLIC "-//W3C//DTD SVG 1.1//EN" "http://www.w3.org/Graphics/SVG/1.1/DTD/svg11.dtd" >
<svg xmlns="http://www.w3.org/2000/svg" xmlns:xlink="http://www.w3.org/1999/xlink" version="1.1" viewBox="-10 0 1808 2048">
   <path fill="currentColor"
d="M327 1775h-162q-37 -76 -68 -159q-32 -86 -53 -175q-19 -80 -32 -195q-12 -106 -12 -222q0 -126 12 -228q11 -96 32 -187q19 -86 52 -174q37 -96 69 -162h162v22q-31 47 -68 127q-29 61 -60 165q-28 96 -44 201q-16 108 -16 236q0 134 16 237q16 100 44 200q29 98 59 164
q34 75 69 128v22zM1788 1024q0 116 -12 222q-13 115 -32 195q-21 89 -53 175q-31 83 -68 159h-162v-22q35 -53 69 -128q35 -78 59 -164q28 -100 44 -200q16 -103 16 -237q0 -122 -17 -236q-17 -111 -43 -201q-31 -104 -60 -165q-37 -80 -68 -127v-22h162q39 79 69 162
q30 78 52 174q21 91 32 187q12 102 12 228zM455 876q-59 0 -100 -42q-40 -41 -40 -105t41 -105q43 -41 103 -41q62 0 101 42q40 40 40 104q0 65 -41 106t-104 41zM455 1525q-59 0 -100 -43q-40 -41 -40 -104q0 -64 41 -105q43 -41 103 -41q62 0 101 42q40 40 40 104
q0 63 -41 106q-41 41 -104 41zM1428 1503h-230v-131h-3q-79 153 -234 153q-116 0 -181 -74q-65 -76 -65 -201q0 -265 271 -305l214 -33q0 -149 -140 -149t-267 97v-212q53 -31 138 -53q90 -23 161 -23q336 0 336 388v543zM1200 1134v-62l-143 22q-118 18 -118 123
q0 48 28 79q29 30 79 30q68 0 111 -54q43 -55 43 -138z" />
</svg>
