<?xml version="1.0" standalone="no"?>
<!DOCTYPE svg PUBLIC "-//W3C//DTD SVG 1.1//EN" "http://www.w3.org/Graphics/SVG/1.1/DTD/svg11.dtd" >
<svg xmlns="http://www.w3.org/2000/svg" xmlns:xlink="http://www.w3.org/1999/xlink" version="1.1" viewBox="-10 0 1808 2048">
   <path fill="currentColor"
d="M0 1717q5 -28 20 -54.5t29 -42.5t39 -41q12 -12 26.5 -24t24.5 -19t31 -20t28 -17t34.5 -19.5t32.5 -18.5q76 -43 207 -98q7 0 13 -6t6 -14q120 -241 167 -353q14 -34 39 -103t40 -104v-10q-58 -138 -69 -225q-27 -105 -10 -236q13 -62 79 -128q10 -10 49 -10h79
q34 0 49 30q27 19 68 78q9 17 14 37t9 44t7 37q0 123 -39 334q-5 20 -15 54.5t-15 53.5v10q76 139 216 295q7 7 11 8.5t19 1.5q108 -20 314 -20q108 0 187 39q58 40 78 69q20 40 20 59v69q0 35 -29 49q-2 2 -11.5 12t-14.5 14t-14 11t-18.5 9.5t-20.5 2.5q-10 0 -34.5 5
t-34.5 5q-113 7 -211.5 -25.5t-200.5 -102.5q-10 -10 -34.5 -29.5t-34.5 -29.5q-5 0 -10 -5t-10 -5q-118 20 -177 40q-40 10 -118 34t-117 34q-5 0 -10 5t-10 5q-71 127 -167 256q-76 91 -167 167q-49 34 -108 49h-79q-29 0 -49 -10q-38 -15 -64.5 -43.5t-33.5 -64.5
q-10 0 -10 -39zM865 1029q-15 39 -50 118t-49 118l236 -59q-28 -34 -76 -97t-61 -80zM1287 1284q87 57 196 89q29 10 69 -10q16 -8 20 -24.5t-10 -24.5q0 -10 -20 -10q-11 -5 -38 -10t-40 -10q-88 -15 -177 0zM363 1559q-82 40 -167 108q-26 18 -68 79v20q10 10 19 10
q11 -7 34.5 -25.5t34.5 -24.5q27 -22 49.5 -47t54.5 -66t43 -54zM786 567q29 -86 29 -167q0 -62 -9 -88q0 -10 -20 -10q-5 0 -10 5t-10 5q-9 14 -13.5 31.5t-5 28.5t-0.5 38q0 53 9 79q9 9 14 21t9 30t7 27z" />
</svg>
