<?xml version="1.0" standalone="no"?>
<!DOCTYPE svg PUBLIC "-//W3C//DTD SVG 1.1//EN" "http://www.w3.org/Graphics/SVG/1.1/DTD/svg11.dtd" >
<svg xmlns="http://www.w3.org/2000/svg" xmlns:xlink="http://www.w3.org/1999/xlink" version="1.1" viewBox="-10 0 1671 2048">
   <path fill="currentColor"
d="M594 1924h-135q4 -11 6.5 -28t5 -28.5t6.5 -15.5q26 -10 41 -24.5t20 -35t5.5 -35.5t-1.5 -43t-2 -42v-558q-32 -6 -84.5 -10.5t-91.5 -11.5t-67 -23q-147 -93 -189 -240.5t27 -308.5q45 -105 -63 -117q-18 0 -72 -18v-18q27 -13 76.5 -45t76.5 -45q6 -3 34 -5.5
t38 -12.5q46 -23 74 -32.5t52.5 -11.5t44 14t37.5 40t44 71q61 122 -9 261q-14 23 -20.5 37.5t-11.5 35.5t5.5 36.5t35.5 25.5q18 -26 65.5 -93.5t68.5 -96t66 -87t74 -88.5t77 -75t89.5 -71.5t95.5 -54.5t112 -46h63q15 21 69 80t75 100q46 75 132 240t138 246
q35 53 45 133t-9.5 154t-62.5 109v-315h-36q-28 41 -39.5 93t-9.5 92t7.5 103t5.5 99q0 114 -4.5 336.5t-4.5 329.5h-63q0 -9 -2 -23t-2 -25.5t4 -23.5q53 -413 -99 -828q-112 99 -126 270q-9 81 -63 243q-6 16 -24.5 51t-25 54t1 48t39.5 54q4 9 2 19.5t-6.5 36t-4.5 43.5
q-13 -17 -29 -38t-25.5 -32.5t-17.5 -19.5v27q-32 9 -99.5 22.5t-98.5 22.5q0 -5 -4.5 -18t-4.5 -18q36 -18 54 -36q68 -41 74.5 -82.5t-47.5 -88.5q-178 -137 -99 -333q8 -16 10.5 -37t3.5 -55t4 -61q-18 10 -55 28.5t-52 29.5t-19 23q-34 126 -72 414q-16 75 -33.5 196
t-20.5 137zM1008 1582q94 -121 108 -247.5t-54 -220.5q-108 216 -162 333z" />
</svg>
