<?xml version="1.0" standalone="no"?>
<!DOCTYPE svg PUBLIC "-//W3C//DTD SVG 1.1//EN" "http://www.w3.org/Graphics/SVG/1.1/DTD/svg11.dtd" >
<svg xmlns="http://www.w3.org/2000/svg" xmlns:xlink="http://www.w3.org/1999/xlink" version="1.1" viewBox="-10 0 1808 2048">
   <path fill="currentColor"
d="M0 130h1788v40v1698q0 30 -10 40t-40 10h-1738v-1788zM447 508q-42 0 -95.5 6t-53.5 13v944q0 16 6.5 33t13.5 17h179v-358q26 -3 66 -6t62 -5t52 -7t58 -12q119 -30 183 -120.5t56 -217.5q-8 -115 -76.5 -189t-192.5 -89q-71 -9 -258 -9zM497 657q37 4 76 7t62 5.5
t50 6.5q46 15 73 51.5t27 87.5q0 125 -80 159q-50 22 -93 25t-115 -5v-337zM1282 775q-47 0 -100 11q-82 23 -132 72t-57 116q-7 81 29.5 136t119.5 93q6 2 23 7t27.5 8.5t25 10t24.5 13.5q73 44 59 100q-7 36 -32.5 52t-56.5 8q-25 -4 -93 -19.5t-106 -20.5q-11 33 -30 109
q0 8 6.5 19t13.5 11q191 80 358 10q124 -47 139 -179q0 -154 -119 -199q-15 -8 -53.5 -23t-55.5 -26q-12 -8 -35.5 -18.5t-34.5 -21.5q-30 -22 -23.5 -58t43.5 -51q20 -10 69 -10q44 11 139 30q5 -20 15 -55t15 -55q7 -7 -2.5 -23t-17.5 -16q-78 -30 -158 -31z" />
</svg>
