<?xml version="1.0" standalone="no"?>
<!DOCTYPE svg PUBLIC "-//W3C//DTD SVG 1.1//EN" "http://www.w3.org/Graphics/SVG/1.1/DTD/svg11.dtd" >
<svg xmlns="http://www.w3.org/2000/svg" xmlns:xlink="http://www.w3.org/1999/xlink" version="1.1" viewBox="-10 0 1808 2048">
   <path fill="currentColor"
d="M312 131q95 3 170.5 60t103.5 163h616q15 -58 49.5 -104.5t79.5 -74t99 -38.5t106 -3t102 36.5t86.5 76.5t52 103.5t9.5 108t-30 101.5t-62 85.5t-91.5 58.5t-113.5 22q-81 0 -148 -42l-787 787q21 36 32 74h606v-223h594v595h-594v-223h-606q-15 58 -50 104.5t-80 74
t-98.5 38.5t-105.5 3t-102.5 -36.5t-87 -76.5t-51.5 -103.5t-9.5 -108t29.5 -101.5t62 -85.5t91.5 -58.5t114.5 -22q81 0 149 42l786 -786q-22 -35 -32 -75h-616q-16 62 -50.5 108.5t-78.5 72.5t-95 36.5t-101.5 4t-98 -29.5t-83 -59t-57 -90t-21.5 -117q0 -71 26.5 -129.5
t71 -95t99.5 -56t114 -17.5zM1497 276h-1q-62 0 -105.5 44t-43.5 106t43.5 105.5t105.5 43.5h1q61 0 105 -43.5t44 -105.5t-44 -106t-105 -44zM299.5 284q-61.5 0 -105.5 44.5t-44 106t44 105.5t105.5 44t105.5 -44t44 -106t-44 -106t-105.5 -44zM1340 1471v297h298v-297
h-298zM292.5 1475q-61.5 0 -105.5 44t-44 105v1q0 61 44 105t105.5 44t105.5 -43.5t44 -105.5v-1q0 -61 -44 -105t-105.5 -44z" />
</svg>
