<?xml version="1.0" standalone="no"?>
<!DOCTYPE svg PUBLIC "-//W3C//DTD SVG 1.1//EN" "http://www.w3.org/Graphics/SVG/1.1/DTD/svg11.dtd" >
<svg xmlns="http://www.w3.org/2000/svg" xmlns:xlink="http://www.w3.org/1999/xlink" version="1.1" viewBox="-10 0 1560 2048">
   <path fill="currentColor"
d="M377 124q45 0 77 31t32 74q0 57 -50 89l52 192q68 -18 138 -27.5t106 -10.5l37 -1q128 -2 280 35l53 -185q-53 -30 -53 -90q0 -43 32 -74t77 -31t76.5 30.5t31.5 74.5q0 41 -28 70.5t-70 33.5l-54 189q66 21 123.5 49t114.5 73.5t97.5 101t65.5 135t25 172.5
q0 107 -47.5 220t-121.5 206t-163.5 177t-175.5 141.5t-156.5 91t-106.5 33.5q-37 0 -107 -33.5t-155.5 -90t-174.5 -140t-162.5 -176.5t-121 -206.5t-48.5 -222.5q0 -92 25.5 -170.5t66 -133.5t98.5 -100.5t115.5 -74t124.5 -49.5l-53 -193q-45 0 -76.5 -30.5t-31.5 -74.5
t31.5 -74.5t76.5 -30.5zM316 754q-64 2 -118.5 46.5t-74.5 121.5q-23 74 10.5 165t97.5 163t139.5 133t137.5 75.5t90 -10.5q36 -57 52 -138.5t4.5 -169t-44.5 -167.5t-101 -139.5t-160 -77.5q-18 -3 -33 -2zM1245 754q-23 0 -34 2q-77 15 -137.5 60t-96 105.5t-55.5 133
t-20 144t15.5 137t45.5 112.5q28 25 90 10.5t137.5 -75.5t139.5 -133t97.5 -163t10.5 -165q-20 -77 -74.5 -121.5t-118.5 -46.5zM1155 1043q-41 0 -70 28t-29 68t29 68t70 28t69.5 -28t28.5 -68t-28.5 -68t-69.5 -28zM400 1046q-41 0 -70 28t-29 68t29 68t70 28t70 -28
t29 -68t-29 -68t-70 -28zM1184 1083q10 0 17.5 7t7.5 17t-7.5 17t-17.5 7t-17.5 -7t-7.5 -17t7.5 -17t17.5 -7zM370 1086q10 0 17.5 7t7.5 17t-7.5 17.5t-17.5 7.5v-1q-10 0 -17.5 -7t-7.5 -17t7.5 -17t17.5 -7z" />
</svg>
