<?xml version="1.0" standalone="no"?>
<!DOCTYPE svg PUBLIC "-//W3C//DTD SVG 1.1//EN" "http://www.w3.org/Graphics/SVG/1.1/DTD/svg11.dtd" >
<svg xmlns="http://www.w3.org/2000/svg" xmlns:xlink="http://www.w3.org/1999/xlink" version="1.1" viewBox="-10 0 1549 2048">
   <path fill="currentColor"
d="M797 126l-1 -2q28 1 51.5 17t35.5 40l635 1315q21 43 0 86t-67 57l-976 281q-13 4 -31 4q-59 0 -91 -48l-336 -507q-17 -25 -17 -56q0 -29 16 -53l688 -1087q30 -47 86 -47h7zM824 349l1 1q-21 2 -25 21l-296 1384q-4 19 10.5 31.5t33.5 7.5l829 -238q28 -7 28 -38
q0 -8 -3 -16l-549 -1138q-8 -17 -29 -15z" />
</svg>
