<?xml version="1.0" standalone="no"?>
<!DOCTYPE svg PUBLIC "-//W3C//DTD SVG 1.1//EN" "http://www.w3.org/Graphics/SVG/1.1/DTD/svg11.dtd" >
<svg xmlns="http://www.w3.org/2000/svg" xmlns:xlink="http://www.w3.org/1999/xlink" version="1.1" viewBox="-11 0 1684 2048">
   <path fill="currentColor"
d="M208 124q5 6 14 15.5t40 37.5t65.5 53t90.5 56t115 53.5t138 37.5t160 15q82 0 160.5 -15t139 -38.5t114 -52t91 -57t65 -52t40.5 -38.5l13 -15q10 14 25 40t53 105.5t66.5 158.5t48.5 188.5t14 205.5q-4 80 -16 150t-38.5 152t-66.5 156t-103.5 157.5t-146.5 161
t-199.5 161.5t-259.5 164q-356 -201 -551 -421q-75 -85 -129 -173.5t-84 -175.5t-45 -165.5t-21 -166.5q-6 -96 13.5 -203.5t51 -192t64 -155t55.5 -108.5zM241 313q-55 116 -87 227q84 -105 210 -148q-59 -32 -123 -79zM1421 313q-63 47 -123 79q127 43 210 148
q-31 -111 -87 -227zM536 487q-67 -5 -129.5 15.5t-108 59t-77 92.5t-42.5 112.5t2 122.5t50.5 121t92 93.5t112.5 49t119.5 4.5t114.5 -35t96 -76.5t65 -113.5q36 103 124 166t196 63q67 0 127 -24t102.5 -64.5t70.5 -95t36 -113t-7.5 -121t-54.5 -116.5t-93 -88.5t-112 -46
t-118.5 -2.5t-112.5 37t-94 76.5t-64 112.5q-32 -97 -112.5 -159t-182.5 -70zM511.5 655q69.5 0 119 49.5t49.5 119.5t-49.5 119.5t-119 49.5t-119.5 -49.5t-50 -119.5t50 -119.5t119.5 -49.5zM1151.5 655q69.5 0 119 49.5t49.5 119.5t-49.5 119.5t-119 49.5t-119.5 -49.5
t-50 -119.5t50 -119.5t119.5 -49.5zM759 1206l72 72l72 -72q-40 -26 -72 -58q-31 32 -72 58zM368 1424q50 55 115 114v-107h118v204q79 59 171 116v-173h118v173q97 -60 171 -116v-204h118v108q131 -116 215 -245q43 -65 76 -145q-89 88 -211 118t-242 -7l-186 186
l-186 -186q-120 37 -241.5 7t-211.5 -118q61 145 176 275z" />
</svg>
