<?xml version="1.0" standalone="no"?>
<!DOCTYPE svg PUBLIC "-//W3C//DTD SVG 1.1//EN" "http://www.w3.org/Graphics/SVG/1.1/DTD/svg11.dtd" >
<svg xmlns="http://www.w3.org/2000/svg" xmlns:xlink="http://www.w3.org/1999/xlink" version="1.1" viewBox="-10 0 1808 2048">
   <path fill="currentColor"
d="M908 505q29 0 64.5 2t60 4.5t66 7.5t60.5 7q29 0 55 17.5t42 39.5t38.5 51t39.5 44q20 25 35.5 56.5t25 55.5t17.5 65t11 60.5t9 68t8 61.5q7 19 8 39.5t-2 36t-12.5 37.5t-16 34t-19.5 34q-18 18 -30.5 47.5t-19 55t-23 51.5t-41.5 40q-39 31 -38 4q0 -7 17 -71
q8 -29 6 -41q14 -84 -19.5 -165t-103.5 -130q-23 -17 -79 -45.5t-82 -51.5q-49 -25 -106.5 -16t-95.5 48q-39 19 -63 31.5t-55.5 35.5t-52.5 48q-44 48 -60.5 115t-10 130t29.5 127q-38 0 -73 -35t-45 -77q-4 -27 -21 -57.5t-34.5 -53t-30.5 -53.5t-10 -62q6 -186 39 -297
q9 -31 23 -59.5t37 -59t37.5 -48t47 -53t42.5 -46.5q209 -35 325 -33zM1223 534l1 -1zM1454 1112l-1 1zM480 534v2q-8 28 -33.5 56t-54 57.5t-40.5 55.5q-29 43 -46.5 99.5t-23 104.5t-14.5 111t-22 105q-16 12 -30 7t-22.5 -16.5t-17.5 -31.5t-15 -38.5t-15 -36.5t-18 -27
q-9 -20 -29 -37.5t-39.5 -29t-37 -30t-22.5 -41.5q22 -34 54.5 -71t55.5 -59t65 -62q101 -114 305 -118zM1315 534q67 4 110 12q67 9 123.5 48t118.5 103q8 13 24.5 29.5t32.5 29.5t31.5 30t24 32.5t7.5 34.5t-15 37q-106 54 -158 200q-23 65 -54 37q-26 -24 -33 -78
q-2 -16 0 -29q-7 -61 -11.5 -92.5t-15.5 -83t-29.5 -92t-45.5 -75.5q-11 -21 -36.5 -45t-46.5 -47.5t-27 -50.5zM494 721zM571 771q-39 -1 -71 24.5t-40 63.5q-9 29 0 57t29.5 46.5t47 28.5t55.5 5.5t51 -24.5q30 -21 37.5 -57t-4 -68t-40 -55t-65.5 -21zM1250 771
q-39 -1 -70.5 24.5t-39.5 63.5q-9 29 -0.5 57t29.5 46.5t47 28.5t55 5.5t51 -24.5q30 -21 37.5 -57t-4 -68t-40 -55t-65.5 -21zM1371 902l-1 2zM1370 917v11v-11zM1151 952v1v-1zM923 985q24 -1 44.5 12t42 32t38.5 26q75 39 116 117t34 164q-3 14 -5 57.5t-11.5 71.5
t-34.5 43q-193 58 -383 20q-56 0 -94 -31t-34 -86q-26 -82 -3.5 -171t87.5 -147q21 -10 48.5 -31t48 -38t49 -29t57.5 -10z" />
</svg>
