<?xml version="1.0" standalone="no"?>
<!DOCTYPE svg PUBLIC "-//W3C//DTD SVG 1.1//EN" "http://www.w3.org/Graphics/SVG/1.1/DTD/svg11.dtd" >
<svg xmlns="http://www.w3.org/2000/svg" xmlns:xlink="http://www.w3.org/1999/xlink" version="1.1" viewBox="-10 0 1384 2048">
   <path fill="currentColor"
d="M30 124h720q288 0 480 240v10l-10 -10l-10 -10q-84 -84 -210 -100q-65 -11 -170 10q-67 27 -130 90q-40 50 -120 170q-40 58 -78.5 122.5t-89.5 158t-72 129.5q-100 180 -150 280q-140 260 -190 390v-1440q0 -40 30 -40zM977 313q37 -1 113 11q105 35 150 80q5 5 10 15
t10 15q54 95 70 220q30 259 -140 460q-60 75 -150 120q-14 7 -16 16t6 24l270 540q7 13 11.5 20.5t17 19t31.5 20.5q8 23 0 36.5t-30 13.5h-1160q60 -90 70 -110q20 -30 55 -90t55 -90q13 -20 44 -71t52 -84t44 -65q140 -200 220 -300q75 -90 180 -180q25 -20 75 -65t75 -65
l20 -20q29 -43 10 -100q-6 -13 -21 -40.5t-27.5 -52.5t-21.5 -47q0 20 20 60q20 60 20 100q0 30 -10 40q-5 14 -14 21t-16 8t-20 1q-30 -10 -70 -30q-53 -44 -84.5 -84.5t-45.5 -95.5q-30 -106 40 -190q22 -33 90 -50q25 -9 67 -11z" />
</svg>
