<?xml version="1.0" standalone="no"?>
<!DOCTYPE svg PUBLIC "-//W3C//DTD SVG 1.1//EN" "http://www.w3.org/Graphics/SVG/1.1/DTD/svg11.dtd" >
<svg xmlns="http://www.w3.org/2000/svg" xmlns:xlink="http://www.w3.org/1999/xlink" version="1.1" viewBox="-10 0 1808 2048">
   <path fill="currentColor"
d="M894 1532q-146 0 -282.5 -30t-246 -85.5t-192.5 -129t-128 -165t-45 -189.5q0 -163 119.5 -300.5t325.5 -217.5t449 -80t449 80t325.5 217.5t119.5 300.5q0 98 -45 189.5t-128 165t-192.5 129t-246 85.5t-282.5 30zM1031 569q-184 0 -341 54.5t-248 149t-91 205.5
t91 205.5t248 149t341 54.5q193 0 336.5 -42t229.5 -135.5t86 -231.5t-86 -231.5t-229.5 -135.5t-336.5 -42zM1361 1262q55 16 86 32q21 10 43 30q6 6 11 13t7 11l2 5l213 359h-344l-161 -302q-34 -57 -54 -73q-23 -19 -40 -19h-82v395h-305v-1007h613q6 0 16 1t39 6.5
t55.5 15.5t58.5 30.5t55 48t39 71.5t16 98t-14.5 99t-38.5 73.5t-52 50.5t-56.5 33.5t-52.5 18.5t-39 8l-14 2h-1zM1229 925h-185v171h185q3 0 9 -0.5t20.5 -5t26 -13t20.5 -26.5t9 -42q0 -25 -9 -43t-21 -25.5t-24.5 -11.5t-21.5 -4h-9z" />
</svg>
