<?xml version="1.0" standalone="no"?>
<!DOCTYPE svg PUBLIC "-//W3C//DTD SVG 1.1//EN" "http://www.w3.org/Graphics/SVG/1.1/DTD/svg11.dtd" >
<svg xmlns="http://www.w3.org/2000/svg" xmlns:xlink="http://www.w3.org/1999/xlink" version="1.1" viewBox="-10 0 1809 2048">
   <path fill="currentColor"
d="M1386 334v53l8 9h10q13 -5 39.5 -9t40.5 -8q13 -7 22.5 2.5t3.5 23.5q-5 13 -9.5 39.5t-8.5 40.5v9l8 8q0 9 18 9h80q26 0 26 27v18q-3 12 -9.5 24.5t-14.5 26t-10 19.5v9q8 9 8 18h10q13 4 39 8.5t39 9.5q14 0 20 15t-2 29q-7 11 -23 31.5t-21 30.5v18q0 4 2.5 6t7 4.5
t8.5 6.5q13 4 35 13t35 14q15 7 18.5 18.5t-8.5 25.5q-36 35 -62 53v27q9 9 18 9q4 2 25 15.5t37 19.5q13 6 13 21.5t-13 22.5q-14 9 -36 22.5t-36 22.5v8q0 13 1.5 16.5t8.5 10.5q34 35 52 44q13 14 9.5 25t-17.5 19q-51 17 -72 27q-8 0 -8 9q-4 4 -4 8t2 9.5t2 8.5
q6 6 12 13.5t9.5 13t11 17t11.5 18.5q8 6 6 17.5t-14 18.5q-7 0 -9.5 1t-8.5 8q-14 0 -36 4t-36 4h-8q0 4 -4 8.5t-4 9.5q0 1 -1 2q0 8 9 16q4 9 13 31t13 31q6 8 2.5 17.5t-10.5 17.5h-106q-10 9 -10 27q5 13 9.5 35t8.5 36q7 13 -4 24t-32 11q-13 -5 -39 -9.5t-39 -8.5
h-10l-8 9q-9 9 0 9v80q0 26 -28 26h-16q-37 -13 -72 -35h-8q-7 0 -12.5 5.5t-5.5 12.5q0 13 -5 34.5t-5 35.5q0 13 -15 19t-29 -1q-26 -26 -62 -44h-8q-7 0 -12.5 5t-5.5 12q-4 13 -13 35t-13 36q-7 12 -12.5 15t-13.5 3q-4 0 -6.5 -2.5t-2.5 -4.5l-1 -2q-34 -35 -52 -62
h-18q-7 0 -12.5 5.5t-5.5 12.5q-5 9 -18 31t-18 31q-6 13 -21.5 13t-22.5 -13q-8 -14 -21.5 -36t-22.5 -35h-18q-6 0 -8.5 1t-9.5 8l-52 53q-10 9 -36 9q-9 0 -9 -16q1 -1 1 -2l-28 -80q0 -8 -8 -8h-26q-7 6 -14.5 12t-13.5 9.5t-16.5 10.5t-17.5 12l-20 -10l-18 -9
t-12.5 -7t-9 -8.5t-2.5 -9.5q-10 -27 -10 -80q0 -9 -8 -9q-5 0 -9.5 -4.5t-8.5 -4.5q-7 0 -8.5 1t-9.5 8q-8 4 -30 13t-32 14q-13 6 -24.5 0.5t-11.5 -18.5v-97l-8 -9h-10q-13 4 -39 8t-39 9q-14 6 -24 -3.5t-4 -22.5q5 -14 9.5 -40.5t8.5 -39.5v-9l-8 -8h-88q-28 0 -28 -27
v-18q5 -12 11 -25t14 -27t11 -19v-8q0 -9 -8 -9q0 -4 -2.5 -6.5t-4.5 -2.5h-3q-13 0 -39.5 -4.5t-40.5 -4.5q-13 0 -19 -15.5t1 -28.5q28 -28 46 -62v-9q0 -7 -1.5 -9.5t-8.5 -8.5q-9 -9 -18 -9q-8 -5 -30 -13.5t-32 -12.5q-14 -8 -17.5 -19t9.5 -25q15 -5 38.5 -26.5
t31.5 -26.5v-18q0 -18 -8 -18q-10 -5 -31.5 -18t-30.5 -17q-14 -7 -14 -23t14 -22q13 -9 35 -22t35 -22v-18l-8 -8l-54 -53q-6 -7 -6 -18.5t6 -17.5q10 0 10 -9l80 -26v-9q4 -4 4 -8.5t-2 -10t-2 -8.5q-10 -9 -23.5 -26.5t-22.5 -26.5q-7 -14 -1 -29t19 -15q14 -5 40.5 -9.5
t39.5 -8.5h10q0 -5 4 -9t4 -8v-3q0 -7 -8 -15q-5 -9 -14 -31t-14 -31q-6 -14 -0.5 -25t18.5 -11h98q0 -8 8 -8v-9q-18 -54 -18 -80q-6 -14 4 -23.5t24 -2.5q28 0 78 17h10l8 -9q9 -8 0 -8v-80q0 -27 28 -27h16q12 4 25.5 10.5t27 14.5t19.5 11h8q10 0 10 -9q4 0 6 -2.5
t2 -4.5v-2q0 -14 5 -40.5t5 -39.5t15 -18.5t29 1.5q26 26 62 44h8q7 0 8.5 -1t9.5 -8q0 -9 8 -18q5 -9 14 -31t14 -31q4 -9 9.5 -12.5t9.5 -4t15 -0.5l10 9q5 15 25.5 38t26.5 32h10q3 0 8 -2t7 -4l3 -2q4 -9 17 -31t17 -31q13 -13 25.5 -15t18.5 6l10 9q8 13 22 34.5
t22 35.5h26q4 0 6.5 -2t2.5 -4l1 -2q34 -34 44 -54q6 -7 17.5 -7t18.5 7v9q18 57 26 71l8 9h18q41 -14 72 -44q13 -7 28.5 -1.5t15.5 18.5t4 39.5t4 40.5q0 9 8 9h10q6 6 12 6t6 -6q20 -10 70 -27q15 -7 25.5 0t10.5 27v35zM404 573h672q52 0 80 9q84 28 124 80
q44 44 44 106q0 55 -26 106q-29 42 -72 71q-18 18 -26 18q4 4 13 8t13 9q3 2 18.5 15.5t23 24t12.5 22.5q26 40 26 89q0 9 18 26q8 8 21 12t22.5 5t26.5 1q26 0 44 -18q9 -8 13 -17t8 -19.5t7 -16.5v-44q0 -7 1 -8t7 -1h62v-115q-13 -5 -39.5 -18t-40.5 -17q-4 -5 -17 -9.5
t-17 -8.5q-20 -7 -27 -26t-1 -45q40 -96 62 -133v-8q-22 -35 -36 -55t-38.5 -48t-49.5 -48q-131 -118 -318 -159h-8q-46 45 -90 79q-13 13 -35 13t-35 -13l-80 -79h-8q-49 12 -90 26q-137 49 -248 160q-16 17 -16 26zM1404 1388h-266q-26 0 -36 -9q-45 -23 -62 -89
q-1 -5 -5 -19.5t-5 -20.5t-3.5 -17.5t-3.5 -20.5t-1 -19q0 -19 -16 -53q-14 -34 -40 -52.5t-58 -18.5h-160v115h160q6 0 7 1t1 8v177q0 6 -1 7.5t-7 1.5h-532q18 27 54 62h8q71 -18 106 -18q20 -7 38 3.5t24 31.5q5 17 14 57t14 58v9q45 17 72 26.5t66.5 18t73.5 8.5
q65 9 186 -8q46 -10 132 -45v-9q5 -18 14 -58t14 -57q15 -47 60 -35l108 27h8q0 -27 36 -62zM350 768l26 53q0 3 2 8.5t2 10t-4 8.5q0 8 -3.5 14t-12 13t-10.5 8q-64 33 -106 44q-8 0 -8 9v44q0 92 26 195q0 9 8 9h186v-416h-106zM730 892h204q36 0 54 -9q3 -3 8 -6.5
t9 -7.5t9 -12q7 -13 5.5 -31.5t-13.5 -30.5q-28 -27 -62 -27h-222q8 44 8 124zM200 802.5q0 20.5 16 37.5t36.5 17t37 -17t16.5 -37.5t-16.5 -36.5t-37 -16t-36.5 16t-16 36.5zM1324 1547q0 -21 -16.5 -37t-37 -16t-36.5 16t-16 36.5t16 37t36 16.5q22 0 38 -14t16 -39z
M491.5 1494q-20.5 0 -37 16t-16.5 36.5t16.5 37t37 16.5t36.5 -16.5t16 -37t-16 -36.5t-36.5 -16zM934 334q0 -22 -14 -37.5t-38 -15.5q-22 0 -38 14t-16 39q0 21 14.5 37t39.5 16q35 0 52 -53zM1510 865q20 0 36 -16.5t16 -37t-16 -36.5t-36.5 -16t-37 16t-16.5 37t14.5 37
t39.5 16z" />
</svg>
