<?xml version="1.0" standalone="no"?>
<!DOCTYPE svg PUBLIC "-//W3C//DTD SVG 1.1//EN" "http://www.w3.org/Graphics/SVG/1.1/DTD/svg11.dtd" >
<svg xmlns="http://www.w3.org/2000/svg" xmlns:xlink="http://www.w3.org/1999/xlink" version="1.1" viewBox="-10 0 1808 2048">
   <path fill="currentColor"
d="M495 389q74 11 139 45t108 90q18 -8 67 -44t82 -42q5 -2 19 -5.5t19 -4.5t19 -4t19.5 -2t20.5 1q91 -8 166 53q19 7 40 33t37.5 48.5t27.5 22.5q17 -9 35 -14t40.5 -6.5t35.5 -2t41 0t37 0.5q111 13 213 95q93 100 120 195q10 59 4 179q-17 75 -57.5 142t-98.5 117
q-22 17 -48.5 28.5t-65.5 24t-53 17.5h-146q-33 61 -109 112q-74 39 -147 34q-13 5 -27.5 1t-30.5 -10t-29 -10.5t-24 0t-15 20.5l-13 19.5l-14 21t-13.5 19t-16 20.5t-16 16.5t-19 16t-20 11.5t-23.5 10q-97 50 -209 25.5t-181 -108.5q-15 -9 -27.5 -32.5t-22.5 -43
t-21 -21.5q-77 2 -133 -7t-102 -42q-27 -23 -43 -38t-34 -41t-23 -49q7 -26 6 -41t-5 -41t-3 -41q-5 -59 17 -115t66 -97q3 -13 14.5 -24.5t22.5 -19.5t20 -16.5t7 -20.5t-17 -27q-5 -21 -6.5 -47.5t-0.5 -48.5t0 -48q9 -85 58.5 -158.5t127.5 -116.5t163 -40q10 9 22 11z
" />
</svg>
