<?xml version="1.0" standalone="no"?>
<!DOCTYPE svg PUBLIC "-//W3C//DTD SVG 1.1//EN" "http://www.w3.org/Graphics/SVG/1.1/DTD/svg11.dtd" >
<svg xmlns="http://www.w3.org/2000/svg" xmlns:xlink="http://www.w3.org/1999/xlink" version="1.1" viewBox="-10 0 1140 2048">
   <path fill="currentColor"
d="M1120 124v420q-4 4 -7 9.5t-6 8t-7 2.5q-43 43 -110 60q-70 23 -280 70q-180 34 -470 70q-160 20 -240 40v-420q10 -10 40 -10q231 -39 380 -50q28 -4 135.5 -20.5t154.5 -24.5t127 -26t143 -39q3 -1 16.5 -6.5t18 -7.5t17 -7t18 -8.5t16 -9t16.5 -10.5t13.5 -11.5
t13.5 -14t11 -15.5zM1120 684v420l-20 20q-14 11 -29.5 21t-36 19.5t-29.5 13.5t-35.5 14.5t-29.5 11.5q-160 40 -240 50q-50 10 -145 25t-145 25q-44 6 -129 16.5t-152 20.5t-129 23v-420q10 -10 30 -10q85 -10 255 -35t255 -35q230 -33 430 -90q54 -18 88.5 -37t61.5 -53z
M10 1924h-10v-420q10 -10 30 -10q60 -10 175 -25t175 -25q34 -5 115.5 -16.5t124 -18.5t108 -18.5t122 -25.5t110.5 -31q40 -13 61.5 -21.5t50.5 -27t48 -41.5v420q-4 9 -12 16.5t-19.5 17t-18.5 16.5q-73 37 -190 70q-100 25 -370 70q-260 40 -390 50q-30 0 -110 20z" />
</svg>
