<?xml version="1.0" standalone="no"?>
<!DOCTYPE svg PUBLIC "-//W3C//DTD SVG 1.1//EN" "http://www.w3.org/Graphics/SVG/1.1/DTD/svg11.dtd" >
<svg xmlns="http://www.w3.org/2000/svg" xmlns:xlink="http://www.w3.org/1999/xlink" version="1.1" viewBox="-10 0 1808 2048">
   <path fill="currentColor"
d="M0 895v-71q0 -76 27 -142q60 -226 246.5 -377.5t420.5 -165.5h89q76 0 142 27q223 61 372 241t162 417q0 116 -9 169q-28 138 -89 249q0 9 -9 9q9 0 9 9l409 409l18 18v26q0 5 -4.5 14t-4.5 13q-18 36 -35 53l-72 72q-6 4 -18.5 13t-19 13t-18 9.5t-24.5 8.5h-17
q-9 0 -27 -18l-400 -400l-9 -9h-9q-194 130 -445 116q-53 0 -125 -18q-154 -40 -279 -141.5t-192 -241.5q-71 -144 -71 -275q-14 -14 -16 -17t-2 -10zM240 868q0 132 64 244.5t177 179t248 66.5q202 0 346 -142.5t144 -347.5q0 -132 -64.5 -244.5t-177.5 -178.5t-248 -66
q-202 0 -345.5 142t-143.5 347z" />
</svg>
