<?xml version="1.0" standalone="no"?>
<!DOCTYPE svg PUBLIC "-//W3C//DTD SVG 1.1//EN" "http://www.w3.org/Graphics/SVG/1.1/DTD/svg11.dtd" >
<svg xmlns="http://www.w3.org/2000/svg" xmlns:xlink="http://www.w3.org/1999/xlink" version="1.1" viewBox="-10 0 1808 2048">
   <path fill="currentColor"
d="M467 150q82 0 141.5 53.5t66.5 135.5v198q-7 82 -66.5 135.5t-141.5 53.5t-142 -54t-67 -135v-198q7 -81 67 -135t142 -54zM0 408q0 -30 20 -49.5t50 -19.5h129v198h-129q-30 0 -50 -19.5t-20 -49.5v-60zM1718 339q30 0 50 19.5t20 49.5v60q0 30 -20 49.5t-50 19.5h-973
v-198h973zM1321 736q82 0 142 54t67 135v198q-7 81 -67 135t-142 54t-141.5 -53.5t-66.5 -135.5v-198q7 -82 66.5 -135.5t141.5 -53.5zM0 994q0 -30 20 -49.5t50 -19.5h973v198h-973q-30 0 -50 -19.5t-20 -49.5v-60zM1718 925q30 0 50 19.5t20 49.5v60q0 30 -20 49.5
t-50 19.5h-129v-198h129zM795 1322q82 0 141.5 53.5t66.5 135.5v198q-7 82 -66.5 135.5t-141.5 53.5t-142 -54t-67 -135v-198q7 -81 67 -135t142 -54zM1718 1511q30 0 50 19.5t20 49.5v60q0 30 -20 49.5t-50 19.5h-655v-198h655zM0 1580q0 -30 20 -49.5t50 -19.5h456v198
h-456q-30 0 -50 -19.5t-20 -49.5v-60z" />
</svg>
