<?xml version="1.0" standalone="no"?>
<!DOCTYPE svg PUBLIC "-//W3C//DTD SVG 1.1//EN" "http://www.w3.org/Graphics/SVG/1.1/DTD/svg11.dtd" >
<svg xmlns="http://www.w3.org/2000/svg" xmlns:xlink="http://www.w3.org/1999/xlink" version="1.1" viewBox="-11 0 966 2048">
   <path fill="currentColor"
d="M314 354q59 -17 73 -48q5 -24 3.5 -74.5t3.5 -75.5q5 -11 12.5 -18.5t19.5 -10t20 -3.5t23.5 -0.5t20.5 0.5h30t30.5 0.5t27.5 8.5t19 23q5 7 4.5 58.5t-0.5 59.5q1 28 19 45.5t51.5 33t44.5 23.5q69 33 117.5 96.5t74.5 143.5q2 9 9 31t10 36.5t4.5 33t-5.5 33t-23 23.5
q-6 5 -54.5 4.5t-56.5 -0.5q-10 -1 -34 0.5t-41 -1.5t-30 -14q-11 -19 -18 -54.5t-18.5 -64.5t-35.5 -46q-56 -59 -177 -43q-45 0 -79 29.5t-45 74.5q-15 57 8.5 112.5t73.5 87.5q46 26 138.5 60t131.5 54q50 27 89.5 55t78.5 64.5t65.5 81.5t36.5 96q29 172 -44 270
q-40 63 -98.5 109.5t-128.5 70.5q-38 5 -64 30t-20 62q-1 9 0 29t0.5 32t-8 26t-22.5 21q-7 5 -56 4.5t-57 -0.5q-29 6 -51.5 -14.5t-16.5 -50.5q-1 -13 0 -25.5t0.5 -26t-2.5 -25t-9 -22t-20 -17.5q-127 -42 -189 -91q-92 -58 -128 -175q-2 -10 -10 -40t-11 -47t1 -40.5
t19 -38.5q15 -7 33 -8.5t40 0t34 0.5q13 1 35.5 -0.5t41 0t33.5 8.5q20 20 37 73t35 74q30 43 81 63t106 14q50 2 93.5 -22.5t64.5 -68.5q22 -42 18 -87t-28 -85q-23 -41 -63.5 -65.5t-100.5 -46.5q-107 -38 -185.5 -76.5t-141.5 -94.5q-55 -46 -86 -116t-31.5 -141.5
t22.5 -142.5q33 -81 101 -141.5t154 -92.5z" />
</svg>
