<?xml version="1.0" standalone="no"?>
<!DOCTYPE svg PUBLIC "-//W3C//DTD SVG 1.1//EN" "http://www.w3.org/Graphics/SVG/1.1/DTD/svg11.dtd" >
<svg xmlns="http://www.w3.org/2000/svg" xmlns:xlink="http://www.w3.org/1999/xlink" version="1.1" viewBox="-10 0 1004 2048">
   <path fill="currentColor"
d="M484 1325h-172q-45 0 -56.5 -8t-17.5 -49q-38 -185 -123 -345q-39 -67 -82 -181q-49 -133 -25 -278q12 -97 69 -169.5t145 -109.5q279 -127 549 8q121 55 175.5 173t29.5 262q-8 58 -28 118.5t-40 101.5t-55 108q-87 173 -106 303q-12 55 -23.5 64.5t-67.5 9.5
q-66 -8 -172 -8zM476 1924h-197q-27 0 -38 -10t-11 -39q0 -14 -1 -36q-1 -48 8.5 -56t68.5 -7h22h353q29 0 39 11.5t10 38.5q0 67 -11.5 78.5t-78.5 11.5q-49 8 -164 8zM484 1629h-205q-25 0 -33 -8t-8 -33v-23q0 -23 -0.5 -32.5t3 -21t5.5 -14t13 -6t19.5 -3t30.5 0.5h19
h353q49 0 49 49v20v30.5t-3 19t-5 13t-13 5.5t-20 3h-31h-18h-156z" />
</svg>
