<?xml version="1.0" standalone="no"?>
<!DOCTYPE svg PUBLIC "-//W3C//DTD SVG 1.1//EN" "http://www.w3.org/Graphics/SVG/1.1/DTD/svg11.dtd" >
<svg xmlns="http://www.w3.org/2000/svg" xmlns:xlink="http://www.w3.org/1999/xlink" version="1.1" viewBox="-11 0 1799 2048">
   <path fill="currentColor"
d="M1617 240q30 81 52.5 149t44 145.5t34.5 149.5t21.5 148t7.5 154t-11 155q-45 341 -307 574q-136 107 -290 161t-314 47q-386 -16 -634 -307q-248 -292 -218 -663q16 -287 208 -495q193 -260 574 -327q345 -43 644 178q21 17 30 24.5t24 17.5t20 13.5t15.5 5.5t13.5 1.5
t12 -7.5t12 -12.5t12 -21t13.5 -26t15.5 -35.5q3 0 5 -1t4 -3.5t3 -5.5t3.5 -8.5t4.5 -10.5zM1538 814q-67 295 -366 545q-27 23 -55.5 43t-63 38.5t-59.5 31t-68 29.5t-63.5 25.5t-70 26.5t-66.5 24q-20 5 -59.5 19.5t-59.5 19.5q0 20 10 30q59 -3 205.5 -5.5t253.5 -9.5
t205 -25q197 -29 302 -140t143 -315q41 -241 -39 -525q-16 -50 -42 -144.5t-38 -132.5q-15 23 -23 31t-16 8q-63 99 -154.5 170t-212.5 127q-37 17 -76 28.5t-93 19t-79 10.5t-95.5 7t-81.5 5q-220 17 -347 118q-58 44 -99 110t-58.5 137.5t-10.5 145.5t39 132
q37 72 84.5 93.5t123.5 5.5q25 -5 74.5 -19.5t74.5 -19.5q151 -39 275.5 -92t238 -129.5t206 -182.5t161.5 -240zM340 1537q-29 0 -49.5 24t-20.5 55q0 29 24.5 49.5t55.5 20.5q29 0 49 -24.5t20 -55.5q0 -38 -17.5 -53.5t-61.5 -15.5z" />
</svg>
