<?xml version="1.0" standalone="no"?>
<!DOCTYPE svg PUBLIC "-//W3C//DTD SVG 1.1//EN" "http://www.w3.org/Graphics/SVG/1.1/DTD/svg11.dtd" >
<svg xmlns="http://www.w3.org/2000/svg" xmlns:xlink="http://www.w3.org/1999/xlink" version="1.1" viewBox="-10 0 1808 2048">
   <path fill="currentColor"
d="M259 153l-1 4h146l75 266l4 284l70 -40l326 1229l-831 -1220l114 -135l-162 -149zM1384 158v-6h145l259 240l-162 149l114 135l-830 1219l325 -1229l70 41l4 -284zM515 200l239 134q5 156 -4 165l-240 148zM1271 205l4 446l-237 -147q-4 -4 -5 -45t-1 -81l1 -39z
M1275 651v1v-1v0zM782 356v137h225v-137h-225zM889 632q-25 0 -42.5 18t-17.5 43v1q0 25 17.5 42.5t42.5 17.5t42 -17.5t17 -42.5v-1q0 -26 -17 -43.5t-42 -17.5zM889 1006q-25 0 -42.5 18t-17.5 43v1q0 25 17.5 42.5t42.5 17.5t42 -17.5t17 -42.5v-1q0 -26 -17 -43.5
t-42 -17.5zM889 1380q-25 0 -42.5 18t-17.5 43v1q0 25 17.5 42.5t42.5 17.5t42 -17.5t17 -42.5v-1q0 -26 -17 -43.5t-42 -17.5z" />
</svg>
