<?xml version="1.0" standalone="no"?>
<!DOCTYPE svg PUBLIC "-//W3C//DTD SVG 1.1//EN" "http://www.w3.org/Graphics/SVG/1.1/DTD/svg11.dtd" >
<svg xmlns="http://www.w3.org/2000/svg" xmlns:xlink="http://www.w3.org/1999/xlink" version="1.1" viewBox="-10 0 1809 2048">
   <path fill="currentColor"
d="M1786 959q16 234 -80 427q-104 223 -281.5 355.5t-422.5 170.5q-179 28 -397 -40q-96 -24 -208 -99q-140 -89 -258 -258q-108 -177 -139 -407v-109q0 -123 35 -230.5t104 -215.5q127 -199 337 -318q369 -192 764 -40q124 47 218 129q118 103 209 238q87 158 119 348v49z
M1111 1435q60 -28 94 -81t38 -108t-13 -106.5t-50 -81.5l-9 -9q0 -5 -2.5 -7.5t-8 -5.5t-9.5 -7q0 -5 -2.5 -7.5t-4.5 -2.5h-3q0 -5 -2.5 -7.5t-4.5 -2.5h-3q-10 -5 -35 -15t-35 -15q10 -10 40 -10q-30 0 -40 10q-29 -8 -92 -23.5t-96 -26.5q-45 0 -89 -29q-40 -27 -40 -80
q0 -28 12 -45t38 -34q10 0 29.5 -5t29.5 -5q127 -13 258 70q6 0 13.5 1.5t9.5 -0.5t7 -11q10 -20 29.5 -55t29.5 -55q0 -19 -10 -29q-171 -108 -367 -80q-104 16 -172.5 80.5t-75.5 177.5q0 109 50 159q7 9 16 17t16.5 14t19.5 13t19 11t21.5 9.5t20 8t22 7.5t21 6.5t22 6.5
t20.5 6q117 39 179 70q50 25 50 79q-19 56 -70 69q-30 10 -89 10q-159 -16 -268 -99q-7 0 -10 1t-10 9l-59 119q-17 17 10 30q163 99 317 99q53 0 82 -1.5t74 -11t82 -27.5z" />
</svg>
