<?xml version="1.0" standalone="no"?>
<!DOCTYPE svg PUBLIC "-//W3C//DTD SVG 1.1//EN" "http://www.w3.org/Graphics/SVG/1.1/DTD/svg11.dtd" >
<svg xmlns="http://www.w3.org/2000/svg" xmlns:xlink="http://www.w3.org/1999/xlink" version="1.1" viewBox="-11 0 1519 2048">
   <path fill="currentColor"
d="M247 471q41 -26 202.5 -129.5t250.5 -157.5q83 -46 180.5 -56.5t189.5 11t175.5 73.5t140.5 128q100 124 110 290t-78 300q57 105 58 229.5t-56 236t-160 175.5q-300 192 -451 287q-110 64 -241 67t-250.5 -52t-197.5 -154q-107 -124 -119 -294.5t79 -305.5
q-46 -82 -55.5 -178.5t14.5 -185.5t81 -167t139 -124q68 -44 203.5 -130.5t203.5 -129.5q-70 44 -209.5 133t-209.5 134zM1230 472q-48 -74 -131 -111.5t-173.5 -30t-159.5 59.5q-67 42 -199.5 126.5t-198.5 127.5q-57 33 -90.5 85.5t-40.5 110.5t7 119t45.5 111.5t83.5 87
t114 47.5q49 15 100 9.5t96 -24t88 -48.5q8 -5 62 -40.5t85 -48.5q49 -15 91.5 22t32.5 88q-6 27 -24.5 45.5t-52 37t-43.5 27.5l-339 216q-45 29 -79 12t-54.5 -51.5t-22.5 -69.5q-97 -26 -194 -100q-22 47 -24.5 99t12.5 98t42.5 89.5t66 74.5t84.5 53.5t96.5 25.5
t102.5 -9q38 -9 74 -27.5t83 -50t68 -43.5q48 -31 145.5 -93t146.5 -93q70 -42 106 -118.5t28 -160t-56 -148.5q-48 -74 -131 -111.5t-173.5 -30t-159.5 59.5q-6 3 -68 43.5t-97 56.5q-32 9 -55 1t-39.5 -24.5t-21.5 -40.5t-2.5 -46.5t17.5 -43t41 -29.5l396 -252
q24 -18 52.5 -15t52 17t36.5 40t8 55q9 15 53.5 28t58.5 26q41 21 89 57q29 -72 20 -152.5t-55 -143.5z" />
</svg>
