<?xml version="1.0" standalone="no"?>
<!DOCTYPE svg PUBLIC "-//W3C//DTD SVG 1.1//EN" "http://www.w3.org/Graphics/SVG/1.1/DTD/svg11.dtd" >
<svg xmlns="http://www.w3.org/2000/svg" xmlns:xlink="http://www.w3.org/1999/xlink" version="1.1" viewBox="-10 0 1808 2048">
   <path fill="currentColor"
d="M322 671q0 -5 -4.5 -9t-4.5 -9q-9 -13 -31.5 -39.5t-31.5 -40.5q-61 -61 -80 -99q38 38 89 72q9 4 22.5 17t22.5 18q18 14 49 41t49 40q16 16 36 31.5t45 32.5t36 25q93 74 134 99q36 27 107 76t107 76v-9q-108 -126 -170 -188q-72 -90 -107 -125q-14 -18 -44.5 -58
t-44.5 -58q0 -4 -4.5 -9t-4.5 -9l-81 -108q-2 -5 -16.5 -25.5t-19.5 -36.5q23 18 63.5 58t62.5 58q23 22 72 66.5t71 67.5q18 14 53.5 45.5t53.5 44.5l107 80q13 9 35.5 27t36.5 27q153 112 304 214q7 8 12.5 6t5.5 -15q44 -109 44 -277q0 -124 -44 -241q0 -18 -18 -72
q-4 -8 -13.5 -27.5t-15 -31.5t-15.5 -28t-19 -29q-12 -48 -62 -98q0 -5 -4.5 -9t-4.5 -9q38 19 89 53q193 141 331 349q6 12 20.5 40.5t23.5 45.5t19.5 41t16.5 43q63 156 63 286v9q0 80 -9 116q-4 18 -9 53.5t-9 53.5q0 18 9 27q107 132 134 295q9 27 9 90q0 44 -9 71
q0 7 -1 8t-8 1q-4 0 -6 -2.5t-2 -4.5l-1 -2q-61 -122 -170 -134q-84 -21 -196 27q-18 7 -57.5 28t-59.5 26q-187 81 -393 53q-153 -15 -268 -62h-9q-27 -13 -80.5 -35.5t-80.5 -36.5q-261 -143 -438 -402l-9 -9q9 0 18 9q51 34 89 53q12 6 34 19t40 22t34 13q66 40 152 54
q5 5 9 5t8 4q115 35 286 35q187 -14 322 -89q10 -5 12 -7t0 -4t-12 -7q-28 -20 -56.5 -44.5t-64.5 -57t-57 -50.5q-22 -18 -63 -58t-63 -58q-35 -27 -89 -98q-9 -13 -31.5 -35.5t-31.5 -36.5q-18 -18 -53.5 -58t-53.5 -58q-13 -18 -40 -49t-40 -49q0 -18 -27 -45z" />
</svg>
