<?xml version="1.0" standalone="no"?>
<!DOCTYPE svg PUBLIC "-//W3C//DTD SVG 1.1//EN" "http://www.w3.org/Graphics/SVG/1.1/DTD/svg11.dtd" >
<svg xmlns="http://www.w3.org/2000/svg" xmlns:xlink="http://www.w3.org/1999/xlink" version="1.1" viewBox="-10 0 1808 2048">
   <path fill="currentColor"
d="M268 135h626h566q118 0 206.5 72.5t111.5 185.5q10 20 10 60v1132q0 121 -75 212t-193 106q-10 0 -30 5t-30 5h-1122q-149 0 -243.5 -93t-94.5 -235v-1122q0 -126 74 -215.5t194 -112.5zM328 403q-38 0 -54 16.5t-16 53.5q10 179 10 556v566q0 60 70 60h1112q30 0 50 -20
t20 -50v-1112q-8 -38 -25.5 -54t-54.5 -16h-1112zM1292 669q17 -1 28 15t11 37q-4 7 -9.5 16t-8 14.5t-2.5 9.5q-31 40 -62 83t-74.5 105.5t-62.5 89.5q-176 243 -228 308q-38 58 -89.5 54t-89.5 -64q-39 -60 -114 -169.5t-114 -168.5q-20 -20 -20 -30q-8 -30 6 -49.5
t44 -19.5q10 5 24.5 10t24.5 10q35 15 104.5 49.5t104.5 49.5q15 7 19 7t11 -7q47 -34 138 -102.5t161.5 -120t137.5 -95.5q11 -11 28 -18.5t21 -11.5q8 -2 11 -2z" />
</svg>
