<?xml version="1.0" standalone="no"?>
<!DOCTYPE svg PUBLIC "-//W3C//DTD SVG 1.1//EN" "http://www.w3.org/Graphics/SVG/1.1/DTD/svg11.dtd" >
<svg xmlns="http://www.w3.org/2000/svg" xmlns:xlink="http://www.w3.org/1999/xlink" version="1.1" viewBox="-11 0 1810 2048">
   <path fill="currentColor"
d="M113 131h1574q49 4 78 46.5t22 91.5q0 1031 -1 1547q-4 49 -46 78t-91 22h-1536q-33 1 -57.5 -14.5t-36.5 -41t-16.5 -54t-1.5 -58.5q0 -1011 1 -1517q4 -42 36.5 -71.5t74.5 -28.5zM1006 1065v-153h-614v153h219v684h174v-684h221zM1065 1756q92 43 197 48.5t201 -25.5
q73 -23 117 -89t39 -143q3 -47 -14.5 -91t-49.5 -77.5t-72 -59t-84 -39.5q-25 -8 -51 -22.5t-49 -34.5t-35.5 -42t-6.5 -46.5t34 -45.5q19 -12 40.5 -18.5t47 -5.5t44 2.5t48.5 10.5t41 12.5t41 15t31 11.5v-172q-72 -23 -143.5 -31t-148.5 6t-136 53q-64 44 -86 123
t4.5 156.5t92.5 118.5q25 20 63.5 38.5t70 31t64.5 35.5t53 52q18 34 0 70.5t-56 43.5q-28 13 -62 14t-71 -10.5t-62 -21.5t-60.5 -28t-41.5 -21v181z" />
</svg>
