<?xml version="1.0" standalone="no"?>
<!DOCTYPE svg PUBLIC "-//W3C//DTD SVG 1.1//EN" "http://www.w3.org/Graphics/SVG/1.1/DTD/svg11.dtd" >
<svg xmlns="http://www.w3.org/2000/svg" xmlns:xlink="http://www.w3.org/1999/xlink" version="1.1" viewBox="-10 0 1494 2048">
   <path fill="currentColor"
d="M849 738q118 0 226 27q9 4 22.5 8.5t22.5 9.5q51 26 76 67t24.5 83t-19.5 85q-5 15 -13 29.5t-20 28.5t-20 22.5t-24.5 24.5t-21.5 21q-32 28 -68.5 53.5t-92 61t-74.5 48.5q-21 15 -61.5 40.5t-72.5 48t-56 46.5q-9 9 -22.5 27t-22.5 27q-26 39 -9 91q20 41 59 72t86 45
q53 13 90.5 -15.5t44.5 -83.5v-36q0 -37 27 -64q48 -32 100 -45q94 -19 144 -9q18 0 27 9q33 13 42.5 34t2.5 56q-38 152 -162 262q-109 95 -244 109q-109 13 -217 -27q-176 -68 -296.5 -195.5t-181.5 -310.5q-40 -137 -2.5 -254.5t146.5 -205.5q126 -115 352 -163
q72 -18 109 -18q45 -9 99 -9zM966 476q7 -101 53.5 -183t136.5 -133q108 -54 217 -27q60 13 83 47.5t16 96.5q-11 67 -63 136q-35 46 -56.5 73t-58.5 61t-75 55q-57 43 -117 55q-42 7 -73.5 -9t-44.5 -55q-18 -54 -18 -117zM840 323q0 128 -63 216q-12 24 -36 36
q-20 20 -45.5 20t-45.5 -20q-27 -27 -45 -81q-31 -109 -9 -198q14 -48 48.5 -74t87.5 -26q35 0 59 14t31 40q9 9 9 27q0 28 9 46zM470 512q0 30 -1 46.5t-7 40t-19 40.5q-14 34 -40 39t-60 -21q-76 -63 -90 -163v-63q7 -41 37.5 -70t70.5 -29q49 0 73 36q36 48 36 117v27z
M217 774q0 27 -18 63q-13 40 -54 27q-7 0 -9 -1t-9 -8q-52 -20 -89.5 -81t-37.5 -117q0 -32 21.5 -58.5t51.5 -41.5q41 -14 81 27q17 16 28.5 43.5t15 42t10.5 50.5q9 27 9 54z" />
</svg>
