<?xml version="1.0" standalone="no"?>
<!DOCTYPE svg PUBLIC "-//W3C//DTD SVG 1.1//EN" "http://www.w3.org/Graphics/SVG/1.1/DTD/svg11.dtd" >
<svg xmlns="http://www.w3.org/2000/svg" xmlns:xlink="http://www.w3.org/1999/xlink" version="1.1" viewBox="-11 0 1810 2048">
   <path fill="currentColor"
d="M894 1918q-120 0 -235.5 -32.5t-214.5 -91.5t-183 -143.5t-142 -184t-89.5 -219t-29.5 -243.5q3 -118 36 -230.5t90.5 -208.5t139.5 -177t180.5 -137.5t216 -88.5t241.5 -32q120 0 235 33t213 91.5t180.5 143t139.5 184.5t88 219t28 243q-2 118 -35.5 230.5t-92 208.5
t-141 177t-179.5 137.5t-211.5 88.5t-234.5 32zM576 468v1102h10l805 -536q8 -8 8 -9t-8 -1q-467 -312 -815 -536q8 -8 8 -14t-8 -6z" />
</svg>
