<?xml version="1.0" standalone="no"?>
<!DOCTYPE svg PUBLIC "-//W3C//DTD SVG 1.1//EN" "http://www.w3.org/Graphics/SVG/1.1/DTD/svg11.dtd" >
<svg xmlns="http://www.w3.org/2000/svg" xmlns:xlink="http://www.w3.org/1999/xlink" version="1.1" viewBox="-10 0 1808 2048">
   <path fill="currentColor"
d="M0 130h695q0 74 62.5 136.5t136.5 62.5t136.5 -62.5t62.5 -136.5h695v1788h-1788v-1788zM517 1123l149 596h104q14 -48 27 -101t20.5 -88.5t21 -100t20.5 -97.5l90 387h104l149 -596h-119l-90 343l-89 -343h-89l-90 343l-89 -343h-119zM1306 1123l-149 596h134l30 -149
h149l30 149h134l-149 -596h-179zM1411 1243l44 223h-119l45 -223h30z" />
</svg>
