<?xml version="1.0" standalone="no"?>
<!DOCTYPE svg PUBLIC "-//W3C//DTD SVG 1.1//EN" "http://www.w3.org/Graphics/SVG/1.1/DTD/svg11.dtd" >
<svg xmlns="http://www.w3.org/2000/svg" xmlns:xlink="http://www.w3.org/1999/xlink" version="1.1" viewBox="-10 0 1640 2048">
   <path fill="currentColor"
d="M1566 1510l-720 414v-324l450 -252zM1620 1465l-270 -153v-558l270 -153v864zM54 1510l279 -162l450 252v324zM0 1465v-864l270 153v558zM27 547l747 -423v306l-477 261zM1593 547l-270 144l-477 -261v-306zM774 1528l-450 -243v-486l450 261v468zM846 1528v-468
l450 -261v486zM360 736l450 -243l450 243l-450 261z" />
</svg>
