<?xml version="1.0" standalone="no"?>
<!DOCTYPE svg PUBLIC "-//W3C//DTD SVG 1.1//EN" "http://www.w3.org/Graphics/SVG/1.1/DTD/svg11.dtd" >
<svg xmlns="http://www.w3.org/2000/svg" xmlns:xlink="http://www.w3.org/1999/xlink" version="1.1" viewBox="-10 0 1809 2048">
   <path fill="currentColor"
d="M875 158q11 0 18 12q8 11 10 51t2 167v202q-75 74 -218 164q-3 0 -32.5 -38t-42.5 -59q-43 -71 -60 -129q-1 -2 -2 -8.5t-1.5 -8.5t-1.5 -7.5t-1.5 -8t-1 -7t0 -7.5t1 -8t1.5 -9t2 -9.5t3 -11.5q11 -32 36.5 -65.5t52 -58.5t70.5 -56.5t70 -48t72 -44.5q10 -7 15 -10
q4 -2 6 -2h1zM523 498q6 0 15 37q12 54 36.5 96.5t113.5 164.5l9 12q102 140 116.5 168t-1.5 56q-1 2 -2 3q-12 21 -30 21.5t-76 -17.5q-267 -83 -278 -101q-7 -11 -3 -48t15 -77q14 -47 38.5 -145.5t32.5 -135.5q8 -34 14 -34zM1339 548q14 0 16 4q2 7 -30 26
q-47 28 -80 64.5t-122 159.5q-4 6 -13 18q-98 136 -119.5 157.5t-52.5 14.5q-3 0 -4 -1q-24 -5 -30 -21.5t-7 -77.5q-3 -280 10 -297q8 -9 44.5 -17t78.5 -10q53 -1 153.5 -7.5t135.5 -11.5q6 -1 18 -1h2zM1417 563l-1 -1q26 0 55.5 9t52.5 18t58.5 31.5t52 33.5t55.5 42.5
t47 38.5t47 40l3 6q4 13 -5 21q-8 10 -46.5 25.5t-157.5 53.5l-193 62q-91 -48 -222 -156q-1 -3 26.5 -43.5t42.5 -58.5q51 -60 104 -96q2 -1 10.5 -6t11 -6t9 -4.5t10.5 -4.5t10.5 -2.5t13.5 -2t16 -0.5zM27 817q25 0 202 58l192 62q48 96 89 258q-2 3 -47.5 19.5
t-68.5 21.5q-73 19 -141 17q-3 0 -11 -0.5t-10.5 -1t-9.5 -1.5t-9.5 -2t-8.5 -3t-10 -4t-10 -5.5t-12 -8.5q-27 -20 -51.5 -54.5t-40 -67.5t-32 -84.5t-24 -81t-20.5 -82.5q-3 -12 -4 -18q0 -5 1 -7q4 -12 17 -14q3 -1 9 -1zM1381 949v-1h3q12 5 31 37.5t33 71.5
q69 185 108 270q15 31 9 35t-35 -21q-41 -37 -86 -57t-188 -66q-4 -1 -12 -4q-167 -53 -195.5 -67t-32.5 -47v-4q-3 -23 11.5 -34t72.5 -31q244 -82 281 -82zM776 1141l-1 1q9 0 16.5 3.5t10.5 6.5t12 13q16 17 11 34.5t-40 67.5q-162 229 -182 234q-12 3 -46.5 -12
t-68.5 -38q-42 -28 -128 -82.5t-117 -72.5q-30 -16 -28 -23t40 -4q56 5 104.5 -5t190.5 -57q13 -4 36 -12q99 -32 135.5 -43t54.5 -11zM960 1200q12 -1 26 12.5t43 52.5q75 100 121 167.5t45 77.5q-2 13 -26.5 41t-56.5 53q-40 32 -118 96.5t-105 89.5q-25 23 -31 19t9 -39
q22 -51 27.5 -100.5t4.5 -198.5v-17q-1 -172 4 -203t35 -44q2 -1 3 -2q12 -5 19 -5zM1282 1252l-1 -1q6 -1 51 13t67 22q72 29 124 69q1 1 6.5 6t6.5 6t5.5 5t5.5 5.5t5 5.5t5 6.5t4 6.5t4.5 8t3.5 9t4 11q9 27 10.5 58.5t-5 68t-13.5 66.5t-22 71.5t-24 65t-26 64.5l-9 21
q-2 4 -5 5q-9 6 -21 1q-12 -4 -37 -34.5t-101 -134.5l-119 -164q17 -101 80 -260h1zM738 1501v0q78 0 138 4q2 2 3.5 51.5t-0.5 72.5q-7 82 -27 139q-1 3 -4.5 10.5t-4.5 9.5l-4 8t-4.5 8.5t-5.5 7t-7.5 8t-8.5 8t-11 8.5q-28 20 -68.5 32t-76.5 17t-90.5 4.5t-85 -2
t-84.5 -6.5q-12 0 -17 -1q-1 0 -7 -3q-10 -6 -8 -20q0 -13 22.5 -47.5t96.5 -136.5l119 -163q65 -9 135 -9z" />
</svg>
