<?xml version="1.0" standalone="no"?>
<!DOCTYPE svg PUBLIC "-//W3C//DTD SVG 1.1//EN" "http://www.w3.org/Graphics/SVG/1.1/DTD/svg11.dtd" >
<svg xmlns="http://www.w3.org/2000/svg" xmlns:xlink="http://www.w3.org/1999/xlink" version="1.1" viewBox="-10 0 1808 2048">
   <path fill="currentColor"
d="M1788 617q0 9 -9 0v1037q0 9 -4.5 22.5t-4.5 22.5q0 27 -27 27q-9 9 -35 9h-653q-7 0 -8 1t-1 8v152h-80q-63 0 -90 -9q-137 -34 -223 -45q-36 -4 -107.5 -18t-107.5 -18t-111.5 -18t-111.5 -18t-107.5 -17t-107.5 -18v-1422h9q35 0 125 -18q77 -11 197 -26
q75 -19 196 -36q55 -18 179 -36q31 -5 93.5 -18t94.5 -18q9 0 22.5 -4.5t22.5 -4.5h125v161h652q32 0 52 21.5t20 50.5v232zM805 751q0 -8 7 -17t19 -9h-9q-40 8 -116 8q-4 0 -6 2.5t-2 4.5l-1 2q-5 32 -18 99t-17 98q-4 36 -18 107.5t-18 107.5v-9q-30 -149 -81 -385
q-7 -14 -10 -16t-16 -2h-90q-7 0 -8 1t-1 8q-13 53 -35 165t-36 166q0 9 -4.5 27t-4.5 27q-10 -72 -32.5 -200.5t-30.5 -184.5h-107v9q4 14 9 45.5t9 44.5q31 131 89 438q0 7 1 8t8 1q18 0 53.5 4.5t53.5 4.5q7 0 8 -1t1 -8q0 -9 4.5 -31.5t4.5 -31.5l54 -268q0 -9 4.5 -27
t4.5 -27q9 36 22.5 107.5t22.5 107.5q5 27 18 85t17 85q0 7 1 8t8 1h54q6 0 16.5 2t19.5 2t17 -4q9 0 9 -9q8 -30 21.5 -96t23.5 -101zM1725 385q0 -6 -1 -5.5t-8 14.5h-652q-7 0 -8 1t-1 8v134h527q7 0 8 1t1 8v62q0 7 -1 8t-8 1h-518v108h527v80h-509q-7 0 -8 1t-1 8v80
q0 7 1 8t8 1h509v81h-527v89q0 7 1 8t8 1h509q7 0 8 1t1 8v63q0 7 -1 8t-8 1h-518v98h527v80h-518q-7 0 -8 1t-1 8v81q0 7 1 8t8 1h509v80h-527v161h670v-1296z" />
</svg>
