<?xml version="1.0" standalone="no"?>
<!DOCTYPE svg PUBLIC "-//W3C//DTD SVG 1.1//EN" "http://www.w3.org/Graphics/SVG/1.1/DTD/svg11.dtd" >
<svg xmlns="http://www.w3.org/2000/svg" xmlns:xlink="http://www.w3.org/1999/xlink" version="1.1" viewBox="-10 0 1808 2048">
   <path fill="currentColor"
d="M1788 413v1222q0 5 -4.5 14t-4.5 13q-30 45 -72 45h-692v180q-13 -5 -45 -9t-45 -9q-32 -5 -99 -18t-98 -18q-36 -5 -108 -18.5t-108 -17.5q-36 -5 -108 -18.5t-108 -17.5q-31 -5 -98.5 -18t-98.5 -18q-18 -5 -49.5 -9t-49.5 -9v-1321q4 0 18 -4.5t18 -4.5
q78 -56 207 -72q35 -5 95.5 -18.5t83.5 -17.5q126 -21 171 -36q31 -5 98.5 -18t99.5 -18q36 -5 103 -18t103 -18h9v171h701q27 0 50.5 18t30.5 45v18zM1716 404h-710v108h243v153h-243v54h243v152h-243v54h243v153h-243v63h252v153h-252v53h243v153h-243v108h710v-1204z
M773 1437q0 -9 -9 -9q-32 -63 -99.5 -188.5t-98.5 -188.5v-18q86 -172 198 -368v-9h-9q-45 0 -63 9q-54 0 -90 9q-7 0 -8 1t-1 8q-13 27 -36 76t-36 76q-9 23 -27 63.5t-27 62.5q-5 -9 -9 -31.5t-9 -31.5q-14 -31 -41 -98t-40 -99q-7 -13 -10.5 -15.5t-16.5 -2.5
q-18 0 -53.5 4.5t-53.5 4.5h-36v9q4 9 13 31t14 31l134 270v9q-27 54 -85 161.5t-85 161.5q0 5 -4.5 9t-4.5 9h54q18 0 49 4.5t49 4.5q7 0 8 -1t1 -8q57 -114 81 -170q4 -14 18 -41t18 -40q0 -18 9 -27v9q4 8 8.5 24t9.5 21q16 32 32 68t35 81.5t32 74.5q2 2 5 6.5t5 6.5
t6.5 3.5t10.5 1.5q23 0 68 4.5t67 4.5q4 13 9 19t8.5 7t9.5 1zM1599 512v153h-278v-153h278zM1321 1518v-153h278v153h-278zM1321 1096v-153h278v153h-278zM1599 727v153h-278v-153h278zM1599 1159v153h-278v-153h278z" />
</svg>
