<?xml version="1.0" standalone="no"?>
<!DOCTYPE svg PUBLIC "-//W3C//DTD SVG 1.1//EN" "http://www.w3.org/Graphics/SVG/1.1/DTD/svg11.dtd" >
<svg xmlns="http://www.w3.org/2000/svg" xmlns:xlink="http://www.w3.org/1999/xlink" version="1.1" viewBox="-11 0 1706 2048">
   <path fill="currentColor"
d="M440 1753q-26 -13 -40 -40q-7 -8 -9.5 -8t-10.5 8q-5 10 -10 30t-10 30q-22 75 -64 100.5t-117 10.5q-20 0 -60 -20q-60 -30 -30 -91q0 -5 5 -15t5 -15q-53 0 -70 -50q-39 -96 -26 -177t86 -154q3 -5 7.5 -13t7 -12.5t4 -11t1.5 -13.5q0 -109 24 -196.5t87 -164.5
q54 -71 120 -111q15 -7 16.5 -16t-6.5 -24q-54 -68 -70 -160q-3 -9 -1.5 -25t3 -25.5t7.5 -25t10 -25t11 -25.5t10 -25q20 -20 30 -20q18 -5 34.5 -14t38 -25.5t27.5 -20.5q100 -100 251 -100q14 0 22 -6.5t8 -14.5q15 -58 61 -120l30 -30q15 -16 34 -14t26 24
q14 22 26.5 47t25 52.5t18.5 40.5q14 27 30 11q17 -7 24 -10t17 -6t13.5 -3.5t9.5 2.5t7.5 5.5t6 12t6.5 16.5t6 23q77 322 -100 602q-5 10 -20 30t-20 30q-8 14 -6 24.5t16 25.5q68 60 112 140.5t59 170.5q8 52 8 110t-8 111q-7 28 0 33.5t30 -3.5q114 -33 200 -90
q7 -4 33.5 -19.5t36 -20.5t32 -16.5t36.5 -16t34 -10.5t39 -8q11 0 26.5 -2t28 -2t25.5 4q23 7 37 27.5t14 43.5q0 43 -51 60q-133 27 -271 130q-142 99 -331 151q-7 0 -19.5 6t-20.5 14q-14 11 -31 18t-28.5 9.5t-35.5 6.5t-35 6q-220 20 -321 20q-61 0 -101 -10
q-56 -19 -70 -60q-15 -61 30 -91q12 0 24.5 -5t15.5 -5z" />
</svg>
