<?xml version="1.0" standalone="no"?>
<!DOCTYPE svg PUBLIC "-//W3C//DTD SVG 1.1//EN" "http://www.w3.org/Graphics/SVG/1.1/DTD/svg11.dtd" >
<svg xmlns="http://www.w3.org/2000/svg" xmlns:xlink="http://www.w3.org/1999/xlink" version="1.1" viewBox="-10 0 622 2048">
   <path fill="currentColor"
d="M410 1334q-26 0 -60 5t-45 5h-171q19 -204 52.5 -608t52.5 -608q39 0 102.5 -2t111 -2t90.5 4q21 0 42 27.5t15 48.5q-13 98 -31.5 207.5t-45 250.5t-37.5 207q-7 54 -17 119t-17 105.5t-22 126t-20 114.5zM448 1714q6 79 -51.5 140.5t-148.5 68.5q-93 7 -167 -43.5
t-80 -127.5q-7 -86 51 -144t158 -65t165.5 39.5t72.5 131.5z" />
</svg>
