<?xml version="1.0" standalone="no"?>
<!DOCTYPE svg PUBLIC "-//W3C//DTD SVG 1.1//EN" "http://www.w3.org/Graphics/SVG/1.1/DTD/svg11.dtd" >
<svg xmlns="http://www.w3.org/2000/svg" xmlns:xlink="http://www.w3.org/1999/xlink" version="1.1" viewBox="-10 0 1808 2048">
   <path fill="currentColor"
d="M224 1410q-37 -64 -111.5 -192.5t-112.5 -193.5q74 -128 223.5 -385.5t224.5 -386.5h895q41 71 200.5 345.5t244.5 424.5q-41 72 -446 774h-894q-38 -64 -112.5 -192.5t-111.5 -193.5zM925 1272q50 -5 88.5 -42t47 -84.5t-17.5 -95.5q-25 -34 -68.5 -55.5t-93 -41
t-77.5 -43.5q-21 -47 12 -70.5t84 -18.5t78 30q19 15 45 -11q27 -25 16 -47q-6 -14 -30 -17q-49 -34 -114 -38t-120.5 27t-73.5 91q-15 59 23.5 107t99.5 67q53 8 101 49q58 49 26 86q-12 15 -40 26q-41 16 -71 2t-67.5 -30.5t-58.5 -8.5q-28 23 -30 41t24 34.5t50.5 26
t49.5 15.5q61 13 117 1zM318 1196q5 -7 7 -26t7.5 -31t18.5 -11h78.5t79.5 1l39 138q9 -1 20 0t22.5 1h22.5t18.5 -3t11.5 -7.5t1.5 -14.5t-11.5 -24q-34 -106 -152 -470h-112q-10 30 -73 222.5t-93 293.5q10 -3 35 0.5t43 1t22 -19.5zM361 1049q40 -150 62 -224
q2 21 14.5 58t23 65t15.5 60t-8 44q-86 0 -107 -3zM1205 1139q1 -135 -11 -281q55 186 89 271q30 10 48.5 -1.5t21.5 -42.5q22 -60 75 -235q-6 63 -8.5 128.5t-3 160.5t-1.5 128h86v-518q-12 2 -44.5 -1.5t-51 3t-20.5 31.5q-32 104 -73 239q-18 -51 -46.5 -148t-37.5 -124
h-106v518q15 -2 29 -0.5t30 1t24 -5.5v-123z" />
</svg>
