<?xml version="1.0" standalone="no"?>
<!DOCTYPE svg PUBLIC "-//W3C//DTD SVG 1.1//EN" "http://www.w3.org/Graphics/SVG/1.1/DTD/svg11.dtd" >
<svg xmlns="http://www.w3.org/2000/svg" xmlns:xlink="http://www.w3.org/1999/xlink" version="1.1" viewBox="-11 0 1810 2048">
   <path fill="currentColor"
d="M1759 142q17 2 25 15t1 31l-569 1582l-274 -784l258 -741q7 -22 28 -38.5t44 -18.5l477 -46h10zM642 1845l19 51q2 6 4 9q-18 -4 -25.5 -17.5t-0.5 -32.5zM39 142l477 46q23 2 44 18.5t28 38.5l573 1635q4 11 -2 18.5t-17 7.5h-466q-23 0 -45 -14.5t-29 -36.5l-599 -1667
q-8 -22 2.5 -35t33.5 -11z" />
</svg>
