<?xml version="1.0" standalone="no"?>
<!DOCTYPE svg PUBLIC "-//W3C//DTD SVG 1.1//EN" "http://www.w3.org/Graphics/SVG/1.1/DTD/svg11.dtd" >
<svg xmlns="http://www.w3.org/2000/svg" xmlns:xlink="http://www.w3.org/1999/xlink" version="1.1" viewBox="-11 0 1441 2048">
   <path fill="currentColor"
d="M669 268q-42 14 -68 45t-34 73q-2 14 2 59t18 177q10 90 17 154t7 66q-2 2 -56 -36t-132 -96q-76 -56 -137 -99t-69 -47q-20 -10 -52 -12t-56 6q-36 10 -64 38t-38 64q-10 32 -6 62t24 60q18 28 58 50t210 96q86 38 148 67t62 31l-59 27t-143 63q-82 36 -147 65t-73 33
q-20 12 -40 34t-30 42q-6 14 -8 25t-2 31q0 24 2 34t10 28q12 24 29 43t39 31q36 18 70 18t72 -20q10 -4 71 -47t135 -97q98 -72 139 -101t43 -25q0 2 -7 67t-17 153q-18 174 -19 212t11 68q10 18 28 36t40 28q14 8 25 9t37 1t37 -1t25 -9q32 -16 53 -43t27 -65q4 -16 0 -56
t-20 -186q-10 -90 -17 -154t-5 -66l48 35q48 35 116 85q166 120 203 145t67 29q60 12 115 -32t61 -108q2 -26 -4 -47t-20 -45q-20 -30 -59 -51t-211 -95q-86 -38 -148 -65t-64 -29l58 -27q58 -27 140 -65q182 -80 212 -95t50 -33q22 -20 33 -42t13 -50q2 -54 -28 -99
t-80 -59q-24 -6 -56 -4t-52 12q-10 4 -71 47t-137 99t-131 96l-55 40q-2 0 5 -65t17 -157q20 -178 21 -216t-13 -68q-10 -20 -28 -37t-38 -27q-22 -10 -54 -12t-50 4z" />
</svg>
