<?xml version="1.0" standalone="no"?>
<!DOCTYPE svg PUBLIC "-//W3C//DTD SVG 1.1//EN" "http://www.w3.org/Graphics/SVG/1.1/DTD/svg11.dtd" >
<svg xmlns="http://www.w3.org/2000/svg" xmlns:xlink="http://www.w3.org/1999/xlink" version="1.1" viewBox="-10 0 1444 2048">
   <path fill="currentColor"
d="M712 221q-148 0 -277 18t-226 50t-153 75t-56 93q0 12 14 99t33 202t39 232t34 191q4 34 49 72t121 70t183 53t239 21v0q132 0 239 -21t183 -53t121 -70t49 -72q14 -74 34 -191t39 -232t33 -202t14 -99q0 -50 -56 -93t-153 -75t-226 -50t-277 -18zM712 1239
q-94 0 -160 -66t-66 -160t66 -160t160 -66t160 66t66 160t-66 160t-160 66zM712 529q-190 0 -323 -29t-133 -69t134 -68t322 -28q190 0 323 29t133 69t-134 68t-322 28zM1224 1339q-8 0 -14 4l-6 4l-127 70q-127 70 -365 70t-365 -70l-127 -70l-6 -4q-6 -4 -14 -4
q-10 0 -18 7t-8 21q0 2 1 4l1 2q20 110 34 182t16 84q18 80 157 134t329 54v0q190 0 329 -54t157 -134q2 -12 16 -84t34 -182l1 -2q1 -2 1 -4q0 -14 -8 -21t-18 -7zM842 1015q0 50 -36 86t-88 36q-50 0 -86 -36t-36 -86q0 -52 36 -88t86 -36q52 0 88 36t36 88z" />
</svg>
