<?xml version="1.0" standalone="no"?>
<!DOCTYPE svg PUBLIC "-//W3C//DTD SVG 1.1//EN" "http://www.w3.org/Graphics/SVG/1.1/DTD/svg11.dtd" >
<svg xmlns="http://www.w3.org/2000/svg" xmlns:xlink="http://www.w3.org/1999/xlink" version="1.1" viewBox="-10 0 1460 2048">
   <path fill="currentColor"
d="M22 340q-28 28 -20 65t56 107q24 36 49 85t35 83t29 74t35 62q26 38 28 61t-16 93q-10 44 -14 93t2 81q8 58 44 124t66 76q24 8 52 -26t28 -74q0 -34 4 -36t18 22q26 42 86 107t66 59q2 -2 -13 -33t-41 -71q-24 -40 -49 -86t-37 -70q-14 -40 -23 -46t-27 14
q-10 10 -22 37t-16 57q-10 64 -31 71t-41 -49q-18 -54 -18 -138t18 -148q14 -44 11 -66t-25 -56q-16 -20 -35 -62t-31 -82q-14 -38 -38 -87t-48 -79q-52 -74 -52 -103t56 -17q22 4 53 18t53 28q20 16 51 26t53 10q64 0 165 56t183 140q64 64 107 132t113 206q80 166 107 202
t77 54q60 20 153 76t93 74q0 4 -27 11t-65 9q-102 12 -114 36t54 84q30 26 81 63t93 59l102 58l-48 -60q-20 -24 -56 -57t-70 -53q-32 -20 -55 -39t-23 -23q0 -6 21 -14t49 -12q76 -14 103 -23t27 -21q0 -22 -102 -98t-168 -106q-54 -24 -80 -60t-98 -184
q-64 -136 -105 -197t-123 -143q-104 -104 -184 -153t-172 -63q-32 -6 -69 -20t-57 -28q-44 -34 -116 -44t-92 14z" />
</svg>
