<?xml version="1.0" standalone="no"?>
<!DOCTYPE svg PUBLIC "-//W3C//DTD SVG 1.1//EN" "http://www.w3.org/Graphics/SVG/1.1/DTD/svg11.dtd" >
<svg xmlns="http://www.w3.org/2000/svg" xmlns:xlink="http://www.w3.org/1999/xlink" version="1.1" viewBox="-10 0 1256 2048">
   <path fill="currentColor"
d="M618 1744q-128 0 -240 -16t-196 -44t-133 -65t-49 -81v-97v-109q0 -12 7 -25t15 -25q26 32 82 61t134 49t175 32t205 12t205 -12t175 -32t134 -49t82 -61q8 12 15 25t7 25v95v111q0 44 -49 81t-133 65t-196 44t-240 16zM618 1332q-128 0 -240 -16t-196 -44t-133 -65
t-49 -79v-99v-107q0 -8 3 -16t7 -16q2 -6 6 -11t6 -9q26 34 82 62t134 48t175 32t205 12t205 -12t175 -32t134 -48t82 -62q2 4 6 9t6 11q4 8 7 16t3 16v93v113q0 42 -49 79t-133 65t-196 44t-240 16zM618 922q-128 0 -240 -16t-196 -44t-133 -66t-49 -80v-50v-54v-49v-53
q0 -42 49 -80t133 -66t196 -44t240 -16t240 16t196 44t133 66t49 80v50v52v50v54q0 42 -49 80t-133 66t-196 44t-240 16zM618 408q-170 0 -291 30t-121 72t121 72t291 30t291 -30t121 -72t-121 -72t-291 -30z" />
</svg>
