<?xml version="1.0" standalone="no"?>
<!DOCTYPE svg PUBLIC "-//W3C//DTD SVG 1.1//EN" "http://www.w3.org/Graphics/SVG/1.1/DTD/svg11.dtd" >
<svg xmlns="http://www.w3.org/2000/svg" xmlns:xlink="http://www.w3.org/1999/xlink" version="1.1" viewBox="-10 0 1456 2048">
   <path fill="currentColor"
d="M968 1124q20 0 38 10t32 30q16 22 23 47t7 53q0 30 -7 55t-23 45q-14 22 -32 32t-38 10q-22 0 -40 -10t-34 -32q-14 -20 -22 -45t-8 -55q0 -28 8 -53t22 -47q16 -20 34 -30t40 -10zM1322 758q56 62 85 138t29 166q0 58 -6 110t-20 98q-12 46 -29 83t-37 67q-22 28 -46 54
t-54 46q-30 24 -58 39t-52 27q-26 10 -54 17t-60 13t-56 9t-42 5h-33h-37q-4 0 -18 1t-38 1q-24 2 -43 2h-35h-35q-19 0 -43 -2q-24 0 -38 -1t-18 -1h-37h-33q-18 -2 -42 -5t-56 -9q-32 -4 -60 -12t-54 -18q-24 -10 -52 -26t-58 -40q-30 -20 -54 -46t-46 -54
q-20 -30 -37 -67t-29 -83q-14 -46 -20 -98t-6 -110q0 -90 28 -166t86 -138q-6 -2 -6 -34t6 -90q4 -60 17 -115t33 -105q72 8 161 49t195 115q36 -10 86 -15t112 -5q66 0 115 5t81 15q50 -34 96 -60t90 -48q46 -20 78 -31t52 -15l40 -10q22 50 35 105t17 115q6 58 6 90t-6 34
zM722 1562q130 0 227 -16t165 -46q66 -32 99 -96t33 -162q0 -56 -21 -103t-63 -83q-22 -22 -47 -34t-55 -16q-28 -6 -72 -6t-104 6q-60 4 -100 6t-62 2q-30 0 -63 -1t-73 -5q-40 -2 -72 -4t-54 -4q-22 0 -47 3t-51 9t-48 17t-40 27q-40 36 -61 82t-21 104q0 98 33 162t99 96
q66 30 163 46t227 16h8zM472 1124q20 0 37 10t33 30q14 22 22 47t8 53q0 30 -8 55t-22 45q-16 22 -33 32t-37 10q-22 0 -41 -10t-33 -32q-16 -20 -23 -45t-7 -55q0 -28 7 -53t23 -47q14 -20 33 -30t41 -10z" />
</svg>
