<?xml version="1.0" standalone="no"?>
<!DOCTYPE svg PUBLIC "-//W3C//DTD SVG 1.1//EN" "http://www.w3.org/Graphics/SVG/1.1/DTD/svg11.dtd" >
<svg xmlns="http://www.w3.org/2000/svg" xmlns:xlink="http://www.w3.org/1999/xlink" version="1.1" viewBox="-10 0 1456 2048">
   <path fill="currentColor"
d="M718 324q-148 0 -279 55.5t-229 153.5t-154 229t-56 280q0 118 37 226t102 198t155 156t198 102q26 4 37 -9.5t11 -26.5v-50v-82q-150 31 -196 -28l-46 -58q-26 -62 -53 -84l-27 -20q-50 -35 -23 -40l27 -4q54 4 82 38l28 36q48 82 113 77.5t97 -17.5q4 -36 17 -60
t27 -36q-118 -14 -222 -82t-104 -274q0 -59 20 -106.5t54 -85.5q-6 -14 -14 -65t20 -125l48 2q48 1 150 72q44 -12 89 -18t91 -6t91 6t89 18q102 -71 150 -72l48 -2q28 73 20 124.5t-14 65.5q34 37 54 85.5t20 106.5q0 208 -104 275t-224 79q20 18 34 51t14 83v126v70
q0 16 11 28t39 8q106 -36 196 -103.5t155 -156t102 -196.5t37 -226q0 -149 -56 -279.5t-154 -228.5t-229 -154t-279 -56z" />
</svg>
