<?xml version="1.0" standalone="no"?>
<!DOCTYPE svg PUBLIC "-//W3C//DTD SVG 1.1//EN" "http://www.w3.org/Graphics/SVG/1.1/DTD/svg11.dtd" >
<svg xmlns="http://www.w3.org/2000/svg" xmlns:xlink="http://www.w3.org/1999/xlink" version="1.1" viewBox="-10 0 1448 2048">
   <path fill="currentColor"
d="M714 1738q-148 0 -278 -56t-227 -153t-153 -227t-56 -278t56 -278t153 -227t227 -153t278 -56t278 56t227 153t153 227t56 278t-56 278t-153 227t-227 153t-278 56zM714 468q-114 0 -216 44t-177 120t-119 177t-44 215q0 116 44 217t119 176t177 119t216 44t216 -44
t177 -119t119 -176t44 -217q0 -114 -44 -215t-119 -177t-177 -120t-216 -44zM838 1074q10 0 19 5t17 15q6 10 10 23t4 27t-4 27t-10 23q-8 10 -17 15t-19 5t-20 -5t-16 -15q-8 -10 -12 -23t-4 -27q0 -16 4 -28t12 -22q6 -10 16 -15t20 -5zM1014 892q28 32 42 69t14 81
q0 30 -3 56t-9 48t-15 41t-19 33q-10 16 -22 28t-28 22q-14 12 -28 20t-26 12q-12 6 -26 10t-30 6q-16 4 -28 5t-20 1t-17 1t-19 1h-9h-19q-10 0 -20 1t-18 1t-18 -1t-20 -1h-19h-9h-19q-9 0 -17 -2q-8 0 -20 -1t-28 -5q-16 -2 -30 -6t-26 -10q-12 -4 -26 -12t-28 -20
q-16 -10 -28 -23t-22 -27t-19 -33t-15 -41t-10 -48t-4 -56q0 -44 15 -81t43 -69q-2 -2 -2 -17t2 -45t9 -57t17 -51q36 4 80 24t96 56q18 -4 42 -7t56 -3t57 3t41 7q24 -16 47 -29t45 -23t38 -16t26 -8l20 -4q10 24 17 51t9 57t2 45t-2 17zM716 1292q64 0 113 -8t81 -24
q34 -16 50 -47t16 -81q0 -26 -10 -50t-32 -42q-10 -10 -23 -16t-27 -10q-14 -2 -36 -2t-52 2q-30 4 -50 5t-30 1q-16 0 -32 -1t-36 -3t-35 -2t-27 -2q-12 0 -24 1t-24 5q-14 4 -25 9t-19 13q-20 18 -30 41t-10 51q0 48 16 80t48 48t81 24t113 8h4zM592 1074q10 0 18 5t16 15
t12 23t4 27t-4 27t-12 23t-16 15t-18 5q-12 0 -21 -5t-17 -15q-6 -10 -10 -23t-4 -27q0 -16 4 -28t10 -22q8 -10 17 -15t21 -5z" />
</svg>
