<?xml version="1.0" standalone="no"?>
<!DOCTYPE svg PUBLIC "-//W3C//DTD SVG 1.1//EN" "http://www.w3.org/Graphics/SVG/1.1/DTD/svg11.dtd" >
<svg xmlns="http://www.w3.org/2000/svg" xmlns:xlink="http://www.w3.org/1999/xlink" version="1.1" viewBox="-10 0 1466 2048">
   <path fill="currentColor"
d="M0 1025q0 106 30 205t83 183t128 151t167 111l-346 -946q-30 68 -46 142t-16 154zM1212 987q0 -66 -20 -114t-40 -84q-28 -46 -50 -86t-22 -84q0 -50 34 -89t88 -39h5h5q-96 -88 -222 -139t-266 -51q-96 0 -184 23t-165 66t-142 103t-115 134h25h23q56 0 124 -4l68 -4
q30 -2 32 27t-28 33l-25 2q-25 2 -57 4l264 784l158 -476l-114 -308q-28 -2 -52 -4l-24 -2q-28 -2 -26 -32t32 -28l68 4q68 4 122 4q56 0 124 -4l68 -4q30 -2 32 27t-26 33l-25 2q-25 2 -59 4l262 778l72 -242q28 -70 42 -128t14 -106zM736 1087l-218 632q50 14 101 21
t105 7q62 0 122 -10t118 -30q-2 -2 -3 -5t-3 -5zM1358 677q2 18 3 36t1 38q0 56 -12 119t-42 141l-222 638q82 -46 148 -112t113 -147t73 -173t26 -192q0 -96 -23 -183t-65 -165z" />
</svg>
