<?xml version="1.0" standalone="no"?>
<!DOCTYPE svg PUBLIC "-//W3C//DTD SVG 1.1//EN" "http://www.w3.org/Graphics/SVG/1.1/DTD/svg11.dtd" >
<svg xmlns="http://www.w3.org/2000/svg" xmlns:xlink="http://www.w3.org/1999/xlink" version="1.1" viewBox="-10 0 1464 2048">
   <path fill="currentColor"
d="M806 584q-116 118 -203 201t-91 83t-60 -41t-130 -99l-178 -140l-144 74v724l144 72l166 -128q68 -54 123 -96t63 -46q16 -10 62 31t248 241l286 288l176 -72l176 -70v-1164l-134 -54q-56 -22 -108 -43t-70 -27l-42 -18zM1088 1024q0 120 -2 205t-6 85t-62 -45t-125 -99
t-122 -100t-53 -50q0 -4 55 -49t122 -98t124 -96t61 -43t6 85t2 205zM264 920l104 104l-104 104q-44 42 -76 72t-36 30t-6 -60t-2 -146t2 -147t6 -61t36 31t76 73z" />
</svg>
