<?xml version="1.0" standalone="no"?>
<!DOCTYPE svg PUBLIC "-//W3C//DTD SVG 1.1//EN" "http://www.w3.org/Graphics/SVG/1.1/DTD/svg11.dtd" >
<svg xmlns="http://www.w3.org/2000/svg" xmlns:xlink="http://www.w3.org/1999/xlink" version="1.1" viewBox="-10 0 643 2048">
   <path fill="currentColor"
d="M1 1462q-4 48 19 82t69 48q38 10 77 -6t57 -50q6 -10 59 -148t123 -322q118 -312 148 -384t46 -88q10 -12 17 -21t7 -11t-7 -11t-17 -19q-42 -38 -122 -63t-122 -13q-6 0 -8 8t-2 28q0 28 -8 54t-34 96q-8 20 -19 50t-19 52q-8 24 -18 51t-18 43q-8 18 -21 51t-23 63
q-12 30 -31 79t-33 89q-16 40 -30 73t-20 39zM493 492q46 18 66 38t2 28q-18 6 -79 -16t-83 -42q-8 -8 -9 -13t3 -11q8 -8 36 -4t64 20zM393 568q16 18 47 29t67 13q18 0 31 1t13 3l-3 5q-3 5 -7 9q-2 6 -16 38t-28 72q-24 60 -35 81t-27 37q-24 22 -60 42t-64 26
q-12 4 -29 9t-27 11l-21 7q-9 3 -11 3q-4 0 11 -44t59 -156q14 -36 30 -79t26 -65q8 -24 16 -40t10 -16t7 4t11 10zM445 874q0 2 -37 98t-87 228q-82 214 -106 271t-38 69q-8 8 -17 14t-13 6q-6 0 -4 -2t10 -4q6 -4 11 -8t5 -10q0 -4 1 -8t5 -6q2 -2 5 -9t5 -15q0 -8 3 -16
t5 -12q6 -12 21 -51t15 -43q0 -2 3 -9t5 -15q4 -8 14 -33t20 -53q12 -28 23 -57t15 -43q6 -14 11 -25t7 -13q2 -4 4 -9t2 -9t2 -14t6 -18q14 -30 22 -49t14 -41q6 -14 10 -25t6 -17q6 -8 6 -18t-2 -10t-8 3t-12 7q-12 6 -12 5t12 -9q8 -6 20 -16t20 -18q14 -14 24 -19t4 3z
M277 960q0 2 -2 4t-6 2q-10 0 -20 23t-10 43q2 8 0 14t-4 6q-8 0 -20 29t-14 53q-2 20 -1 27t9 11q12 6 15 19t-5 23q-6 10 -21 12t-21 -4q-6 -12 -10 -6t-2 22t1 21t-11 9q-8 4 -14 13t-12 23q-16 44 -30 80t-22 58q-4 12 -9 30t-7 30q-2 18 0 26t12 18l14 18l-20 -14
q-14 -10 -29 -36t-15 -44q0 -4 12 -39t28 -79t27 -78t11 -36q0 -4 13 -19t31 -33t29 -31t7 -13t-12 6t-16 14t-14 11t-6 1q0 -14 30 -85t40 -83q10 -10 39 -31t35 -21v2v4z" />
</svg>
