<?xml version="1.0" standalone="no"?>
<!DOCTYPE svg PUBLIC "-//W3C//DTD SVG 1.1//EN" "http://www.w3.org/Graphics/SVG/1.1/DTD/svg11.dtd" >
<svg xmlns="http://www.w3.org/2000/svg" xmlns:xlink="http://www.w3.org/1999/xlink" version="1.1" viewBox="-10 0 1310 2048">
   <path fill="currentColor"
d="M0 1509v340h1072v-684l-56 8l-58 6l-6 282l-6 284h-844v-578h-102v342zM184 1561v60h662v-122h-662v62zM194 1317l-6 60l656 72l14 -122l-656 -72zM244 1025l-16 60l638 172l32 -120l-638 -172zM380 685l-34 52l560 352l66 -104l-560 -352zM696 369l-52 36l376 544
l102 -70l-376 -544zM1108 211l-60 10l120 650l122 -24l-120 -648z" />
</svg>
