<?xml version="1.0" standalone="no"?>
<!DOCTYPE svg PUBLIC "-//W3C//DTD SVG 1.1//EN" "http://www.w3.org/Graphics/SVG/1.1/DTD/svg11.dtd" >
<svg xmlns="http://www.w3.org/2000/svg" xmlns:xlink="http://www.w3.org/1999/xlink" version="1.1" viewBox="-11 0 1360 2048">
   <path fill="currentColor"
d="M1119 1075q-2 -156 85 -233t93 -81q-74 -106 -168 -134t-134 -28q-96 -10 -181 32t-135 42q-48 0 -120 -36t-150 -36q-106 2 -197 58t-145 150t-64 207t10 225t63 216t95 182q52 74 116 142t144 66q80 -4 128 -36t142 -32q96 0 143 33t129 33q84 -2 142 -65t110 -137
q60 -88 86 -159t28 -77q-2 0 -110 -73t-110 -259zM911 463q44 -52 69 -121t17 -141q-62 2 -130 37t-112 87q-40 46 -69 115t-19 139q70 6 135 -29t109 -87z" />
</svg>
