<?xml version="1.0" standalone="no"?>
<!DOCTYPE svg PUBLIC "-//W3C//DTD SVG 1.1//EN" "http://www.w3.org/Graphics/SVG/1.1/DTD/svg11.dtd" >
<svg xmlns="http://www.w3.org/2000/svg" xmlns:xlink="http://www.w3.org/1999/xlink" version="1.1" viewBox="-10 0 1696 2048">
   <path fill="currentColor"
d="M808 520q0 6 -3 6h-3h-6q-6 0 -8 -4t-6 -8l-3 -4t-3 -10q0 -4 1 -5t5 -1l14 6q4 6 8 11t4 9zM690 456q0 -26 -9 -40t-23 -14l-1 4t-5 4v12h20q0 10 3 17t3 17h12zM920 422q8 0 14 9t12 25h12q-4 -6 -5 -11t-1 -9q0 -6 -1 -11t-5 -9q-6 -6 -11 -10t-9 -4l-4 4t-10 4
q0 4 4 6t4 6zM724 526h-7q-1 0 -1 -6q0 -4 1 -9t7 -11q10 0 14 -3l4 -3q6 0 7 3l1 3q0 6 -5 12t-15 14h-6zM652 520q-20 -10 -27 -25t-7 -39q0 -16 2 -26t12 -20q4 -10 13 -15t19 -5t17 5t17 15q4 14 8 29t4 29v14h6v-8q6 0 7 -9t1 -29q0 -16 -2 -30t-12 -30
q-10 -14 -21 -23t-31 -9q-14 0 -27 9t-19 23q-10 20 -13 37t-3 43q0 18 8 38t28 40q4 -6 9 -7t11 -7zM1468 1440q4 0 5 -2t1 -6q0 -10 -6 -23t-20 -27t-38 -24t-54 -14h-8h-4q-6 0 -7 -1t-7 -1q-4 0 -12 -1t-14 -1q14 -46 20 -86t6 -76q0 -48 -10 -84t-28 -66
q-20 -30 -41 -45t-45 -21q-4 6 -5 7t-1 7q24 10 47 29t37 49q16 34 21 65t5 65q0 28 -6 68t-26 92q-20 8 -38 26t-34 48q0 4 1 6t5 2l5 -4q5 -4 9 -12q10 -10 16 -18t16 -16q16 -8 27 -12t25 -4q26 0 48 3t38 9q20 8 30 14t16 14q4 8 9 15t9 13q0 6 4 9zM866 494
q-4 -4 -5 -13t-1 -19q0 -20 2 -32t12 -28q10 -8 19 -13t19 -5q16 0 26 8t20 18q6 14 10 25t4 27q0 24 -10 39t-30 19l4 3q4 3 10 3q10 0 16 4t16 10q4 -30 8 -52t4 -46q0 -30 -4 -50t-14 -34q-16 -16 -31 -21t-35 -5q-14 0 -29 4t-29 14q-10 16 -15 27t-5 25q0 26 5 46
t15 40q4 0 9 3t9 3zM946 598q-64 44 -114 65t-90 21q-34 0 -67 -14t-63 -38q6 10 11 18t9 14l40 40q18 18 42 28t48 10q34 0 74 -19t90 -53l58 -38q10 -10 18 -21t8 -25q0 -6 -1 -10t-5 -4q-4 -10 -30 -24t-74 -28q-44 -20 -78 -29t-52 -9q-16 0 -40 9t-58 29q-30 20 -48 40
t-18 38l4 5q4 5 8 15q30 24 60 38t58 14q40 0 90 -21t112 -69v12q6 0 7 3zM1096 1918q18 36 51 54t73 18q10 0 19 -1t19 -5q10 0 19 -4t15 -8q4 -2 9 -6t9 -8q10 -4 13 -6t7 -4l112 -96q18 -16 39 -30t45 -26q20 -12 38 -20t28 -12q14 -4 25 -10t21 -14q4 -6 8 -16t4 -20
q0 -16 -8 -26t-18 -18t-20 -14t-20 -8q-8 -4 -19 -12t-25 -22q-10 -12 -19 -30t-15 -40l-6 -38q-4 -14 -6 -24t-8 -14v-3q0 -1 -6 -1q-4 0 -12 5t-14 13q-10 8 -20 17t-18 19q-6 10 -18 19t-22 17q-14 8 -28 13t-24 5q-40 0 -62 -11t-36 -33q-10 -14 -16 -32t-10 -40
q-10 -8 -17 -12t-15 -4q-26 0 -36 25t-10 77v202q0 6 -4 15t-4 25q-4 16 -5 33t-1 37l-12 72v2zM148 1882q46 8 99 22t111 36q60 20 96 31t50 11q34 0 62 -15t52 -43q6 -10 6 -21v-25q0 -46 -28 -104t-82 -130l-46 -58q-6 -10 -15 -24t-19 -34q-10 -18 -19 -33t-17 -25
q-6 -12 -16 -23t-24 -23q-12 -10 -27 -18t-31 -12q-20 4 -34 11t-22 17q-6 8 -10 19t-4 21q-2 10 -5 17t-9 11q-4 2 -12 5t-20 5h-7h-11h-18q-26 0 -43 3t-27 7q-12 16 -18 32t-6 32q0 8 2 21t6 33q4 18 6 32t2 24q0 20 -6 40t-18 40q-14 22 -20 38t-6 26q6 20 38 33t90 21z
M366 1288q0 -32 9 -70t27 -82t35 -74t35 -50q0 -6 -3 -7t-7 -1l-6 -6q-14 16 -31 49t-39 81q-20 46 -31 85t-11 69q0 22 6 41t14 35q12 16 38 40t66 54l70 44q56 48 84 82t28 52q0 12 -5 22t-21 22q-10 12 -22 17t-22 5q-2 0 -2 1v5l5 10q5 10 15 28q20 28 63 42t101 14
q108 0 192 -44t148 -132q0 -24 -1 -40t-7 -22v-24q0 -32 5 -56t15 -40q10 -14 21 -22t25 -8q10 0 20 4t20 10q4 -38 5 -71t1 -61q0 -46 -2 -83t-12 -71q-4 -30 -13 -54t-19 -44q-10 -16 -20 -30t-20 -30q-8 -14 -15 -29t-17 -29q-4 -20 -8 -37t-4 -41q-16 -24 -27 -49
t-27 -49q-8 -24 -18 -48t-20 -44l-58 46q-50 34 -90 50t-74 16q-30 0 -53 -7t-39 -27l-38 -32q0 14 -5 33t-15 39l-42 78q-14 34 -21 55t-9 37q-2 10 -3 18t-3 8l-48 98q-40 74 -60 141t-20 123q0 10 1 22t3 24q-22 -16 -33 -37t-11 -49zM834 1906q-64 0 -113 9t-83 25v-2
q-24 30 -53 45t-67 15q-24 0 -62 -9t-88 -29q-52 -16 -97 -30t-85 -22q-4 -2 -13 -4t-23 -4t-27 -4t-23 -4t-22 -6t-26 -8q-12 -4 -21 -9t-17 -11q-6 -6 -10 -13t-4 -15t2 -16t6 -18q2 -4 5 -9t7 -11t7 -11t5 -9t4 -9t4 -9t4 -9t4 -11q0 -4 1 -9t1 -9q0 -6 -2 -21t-6 -41
t-6 -42t-2 -22q0 -22 5 -39t15 -29q12 -12 22 -18t22 -6h74q4 0 11 -3t19 -9q2 -8 5 -14t5 -12t4 -11t2 -7q2 -2 3 -5t1 -5q2 -4 5 -8t5 -8q-4 -4 -6 -10t-2 -14v-11q0 -5 2 -7q0 -18 8 -43t26 -57l24 -42q14 -26 25 -47t19 -41q8 -18 17 -48t19 -68q6 -36 25 -70t49 -68
l48 -58q26 -30 43 -55t25 -43q10 -20 15 -43t5 -43q0 -10 -3 -39t-7 -77q-6 -50 -8 -98t-2 -92q0 -34 3 -60t9 -52q6 -24 18 -47t28 -43q14 -20 35 -38t49 -28q30 -10 64 -15t74 -5q14 0 29 1t29 7q16 0 35 4t43 14q20 10 39 21t33 25q20 16 36 38t30 48q10 28 19 59t13 71
q6 24 7 50t7 60q0 30 3 50t3 36q4 14 6 34t8 44q4 20 10 39t16 33q8 20 19 39t25 39q16 24 35 50t37 54q44 50 78 103t54 107q24 48 38 110t14 130q0 34 -5 67t-15 65q10 0 16 3t10 11q4 6 9 21t11 39l6 48q4 10 11 20t21 20q10 8 21 15t25 13q10 6 23 13t23 15q10 10 15 20
t5 22q0 16 -5 28t-15 22t-20 17t-26 11q-10 4 -29 14t-49 24q-24 14 -49 32t-49 38l-66 56q-18 18 -37 32t-33 22q-16 10 -35 14t-37 4l-46 -6q-40 -10 -65 -30t-39 -48q-80 -10 -142 -15t-100 -5z" />
</svg>
