<?xml version="1.0" standalone="no"?>
<!DOCTYPE svg PUBLIC "-//W3C//DTD SVG 1.1//EN" "http://www.w3.org/Graphics/SVG/1.1/DTD/svg11.dtd" >
<svg xmlns="http://www.w3.org/2000/svg" xmlns:xlink="http://www.w3.org/1999/xlink" version="1.1" viewBox="-10 0 1468 2048">
   <path fill="currentColor"
d="M594 1001l124 -214q6 -12 3 -26t-15 -20l-88 -50q-12 -8 -25 -4t-21 16l-404 704q-6 12 -3 25t15 21l88 50q12 6 25 3t21 -15zM1418 935h-294q26 50 49 94t39 76q12 22 21 39t11 23q4 6 7 12t3 14h164q12 0 21 -9t9 -21v-196q0 -14 -9 -23t-21 -9zM702 935l-148 258h400
q-22 -44 -51 -106t-69 -152h-132zM368 935h-338q-14 0 -22 9t-8 23v196q0 12 8 21t22 9h192zM240 1541l-88 -50q-12 -6 -22 -2t-12 18l-14 132q-2 14 5 18t19 -4l112 -76q12 -8 12 -18t-12 -18zM1192 1195l-1 -1l-1 -1q-6 -12 -21 -40t-35 -66v0q-2 -4 -3 -7t-3 -5t-3 -5
t-1 -5q-2 -2 -3 -4t-1 -4q-2 -2 -4 -6t-4 -6q0 -2 -1 -3t-1 -3q-2 -2 -4 -6l-4 -8q-2 -2 -2 -3t-2 -3q-46 -86 -98 -182t-88 -152q-62 -98 -132 -223t-94 -113q-16 8 -3 58t39 114t55 129t45 105q18 40 55 124t77 171t75 155t47 74q26 12 40 9t32 -11t39 -30t5 -52z
M1292 1403l-42 -80q-8 -14 -22 -19t-28 3l-50 26q-12 6 -16 20t4 28l52 82q8 14 23 17t29 -5l36 -20q12 -8 16 -23t-2 -29zM1278 1519q-10 8 -22 30t16 62t76 52t56 38l-6 -124q-6 -124 -120 -58z" />
</svg>
