<?xml version="1.0" standalone="no"?>
<!DOCTYPE svg PUBLIC "-//W3C//DTD SVG 1.1//EN" "http://www.w3.org/Graphics/SVG/1.1/DTD/svg11.dtd" >
<svg xmlns="http://www.w3.org/2000/svg" xmlns:xlink="http://www.w3.org/1999/xlink" version="1.1" viewBox="-10 0 2032 2048">
   <path fill="currentColor"
d="M480 840v0q-12 4 -22 4t-20 -4q-38 92 -79 191t-79 177v0q18 -4 34 -3t26 3v0q10 -24 21 -52t23 -56h75h75q12 28 22 55t22 53v0q16 -4 32 -3t28 3v0q-28 -52 -75 -165t-83 -203zM524 1074q-32 2 -65 2t-65 -2q20 -50 37 -96t27 -74q16 42 33 85t33 85v0zM280 1208v0v0z
M368 790v0q-16 4 -31 4t-31 -4q-12 26 -52 91t-70 115q-32 -52 -65 -107t-57 -99q-20 4 -32 5t-30 -5q38 58 88 145t70 123l-4 198l11 -1q11 -1 19 -1q10 0 20 1l10 1l-4 -198q38 -66 90 -155t68 -113zM1196 834q-98 0 -148 55t-50 135q0 88 53 139t145 51q100 0 150 -54
t50 -134q0 -90 -54 -141t-146 -51zM1196 1192q-64 0 -101 -44t-37 -122q0 -90 41 -129t95 -39h1h1q60 0 99 41t39 125q0 86 -39 127t-99 41zM1916 1198q-14 0 -21 10t-7 22q0 14 9 21t23 7q10 0 19 -7t9 -23q0 -14 -9 -22t-23 -8zM1986 796v0h-2h-4q-10 0 -20 7t-10 23
q-6 84 -13 166t-19 162v0v0q6 0 12 1t10 3q14 -80 37 -180t31 -134q2 -6 3 -11t1 -9q0 -12 -7 -19t-19 -9zM1646 812q-96 0 -162 54t-66 158q0 84 53 148t177 64q104 0 167 -55t63 -155q0 -96 -61 -155t-171 -59zM1646 1214q-66 0 -117 -43t-51 -149q0 -108 55 -147t113 -39
q74 0 122 46t48 144q0 106 -54 147t-116 41zM918 840q2 43 4 85q2 43 2 87q-52 2 -104 2t-102 -2q0 -44 1 -87t3 -85q-14 4 -30 4t-32 -4q4 92 4 184t-4 184q16 -4 31 -4t31 4v0q-2 -42 -3 -85t-1 -85q50 -2 102 -2h104q0 44 -2 87q-2 42 -4 85v0q16 -4 32 -4t30 4
q-4 -92 -4 -184t4 -184q-16 4 -31 4t-31 -4z" />
</svg>
