<?xml version="1.0" standalone="no"?>
<!DOCTYPE svg PUBLIC "-//W3C//DTD SVG 1.1//EN" "http://www.w3.org/Graphics/SVG/1.1/DTD/svg11.dtd" >
<svg xmlns="http://www.w3.org/2000/svg" xmlns:xlink="http://www.w3.org/1999/xlink" version="1.1" viewBox="-10 0 2032 2048">
   <path fill="currentColor"
d="M390 983h-170q-4 0 -6 3t-2 5v84q0 4 2 6t6 2h66v102l-13 3t-43 3q-36 0 -76 -28t-40 -138q0 -112 43 -141t93 -29q44 0 65 6t33 10q4 0 7 -2t3 -6l18 -80v-4q0 -2 -2 -2q-6 -4 -38 -15t-106 -11q-84 0 -157 53t-73 227q0 172 81 219t165 47q70 0 109 -20l39 -20
q2 -2 3 -4l1 -2v-260q0 -2 -3 -5t-5 -3zM1248 769h-96q-2 0 -5 3t-3 5v186h-148v-186q0 -2 -2 -5t-6 -3h-96q-4 0 -6 3t-2 5v502q0 2 2 4t6 2h96q4 0 6 -2t2 -4v-214h148v214q0 2 2 4t6 2h96q4 0 6 -2t2 -4v-502q0 -2 -2 -5t-6 -3zM504 781q-26 0 -44 18t-18 44t18 44t44 18
t44 -18t18 -44t-18 -44t-44 -18zM558 941q0 -2 -2 -5t-6 -3h-94q-4 0 -6 3t-2 7v145v185q0 8 4 10t10 2h25h59q8 0 10 -3t2 -9v-52v-48v-121v-111zM1618 935h-94q-4 0 -6 2t-2 6v244l-17 9q-17 9 -41 9q-26 0 -35 -12t-9 -36v-120v-94q0 -4 -2 -6t-6 -2h-96q-4 0 -6 2t-2 6
v77v153q0 74 37 99t95 25q46 0 79 -18l33 -18l2 10q2 10 2 12l2 2q2 2 6 2h60q4 0 6 -3t2 -5v-336q0 -4 -2 -6t-6 -2zM1878 923q-40 0 -65 12l-25 12v-170q0 -2 -3 -5t-5 -3h-96q-4 0 -6 3t-2 5v502q0 2 2 5t6 3h33h33q2 0 4 -2l4 -4q0 -2 2 -12l2 -10l28 18q28 18 84 18
q66 0 102 -41t36 -157t-47 -145t-87 -29zM1840 1205q-24 0 -39 -8l-15 -8v-158l14 -7q14 -7 34 -9q26 -2 47 13t21 75q0 64 -14 84t-48 18zM834 1203q-2 0 -9 1t-17 1q-26 0 -36 -11t-10 -27v-78v-62h72q2 0 5 -2t3 -6v-78q0 -2 -3 -5t-5 -3h-72v-94q0 -2 -2 -4t-4 -2h-98
q-2 0 -4 2t-2 4v98l-25 6q-25 6 -27 6l-4 4q-2 2 -2 4v62q0 4 2 6t6 2h50v42v106q0 82 45 101t85 19q16 0 34 -4t22 -6q2 0 3 -2t1 -4v-68q0 -4 -2 -6t-6 -2z" />
</svg>
