<?xml version="1.0" standalone="no"?>
<!DOCTYPE svg PUBLIC "-//W3C//DTD SVG 1.1//EN" "http://www.w3.org/Graphics/SVG/1.1/DTD/svg11.dtd" >
<svg xmlns="http://www.w3.org/2000/svg" xmlns:xlink="http://www.w3.org/1999/xlink" version="1.1" viewBox="-10 0 1452 2048">
   <path fill="currentColor"
d="M716 1831q-16 0 -32 -5t-30 -13l-198 -116q-22 -12 -17 -18t11 -8q30 -10 44 -16t46 -24q4 -2 8 -2t6 2l152 90q4 2 10 2t8 -2l592 -340q4 -4 7 -8t3 -8v-684q0 -4 -3 -9t-7 -7l-590 -340q-6 -4 -11 -4t-9 4l-590 340q-4 2 -7 7t-3 9v684q0 4 3 8t7 8l162 92q66 34 104 7
t38 -67v-674q0 -6 5 -11t11 -5h76q6 0 11 5t5 11v674q0 88 -45 137t-129 49q-26 0 -53 -5t-83 -33l-156 -88q-28 -18 -45 -47t-17 -61v-684q0 -32 17 -61t45 -47l592 -340q28 -16 62 -16t62 16l592 340q28 18 45 47t17 61v684q0 32 -17 61t-45 47l-592 340q-14 8 -30 13
t-32 5zM898 1361q-194 0 -253 -72t-59 -148q0 -6 5 -11t11 -5h78q6 0 11 4t5 10q8 58 47 88t155 30q94 0 136 -23t42 -73q0 -28 -32 -49t-176 -35q-122 -12 -192 -48t-70 -134q0 -90 71 -140t197 -50q142 0 214 50t82 156q0 4 -1 8t-3 6q-4 2 -7 4t-7 2h-76q-6 0 -11 -4
t-5 -10q-14 -62 -54 -85t-132 -23q-102 0 -127 28t-25 54q0 32 33 47t171 33q136 18 202 54t66 132t-77 150t-219 54z" />
</svg>
