<?xml version="1.0" standalone="no"?>
<!DOCTYPE svg PUBLIC "-//W3C//DTD SVG 1.1//EN" "http://www.w3.org/Graphics/SVG/1.1/DTD/svg11.dtd" >
<svg xmlns="http://www.w3.org/2000/svg" xmlns:xlink="http://www.w3.org/1999/xlink" version="1.1" viewBox="-10 0 2016 2048">
   <path fill="currentColor"
d="M314 1042q0 -4 -3 -8t-5 -6l-142 -82q-2 0 -3 -1t-3 -1h-2t-4 1t-4 1l-140 82q-4 2 -6 6t-2 8v218q0 2 1 4t3 2q2 2 4 2t4 -2l84 -48q4 -2 6 -6t2 -8v-102q0 -4 2 -8t6 -6l36 -20q2 -2 4 -2h4h4q2 0 4 2l36 20q4 2 6 6t2 8v102q0 4 3 8t7 6l82 48q2 2 5 2t5 -2l2 -2
q2 -2 2 -4v-218zM1062 744q-2 -2 -4 -2t-4 2q-2 0 -3 2t-1 4v216q0 2 -1 3l-3 3h-2h-4l-34 -22q-4 -2 -9 -2t-9 2l-140 82q-4 2 -6 6t-2 8v162q0 4 2 8t6 8l140 80q4 2 9 2t9 -2l140 -80q4 -4 6 -8t2 -8v-404q0 -4 -2 -8t-6 -6zM1050 1156l-1 1l-1 1l-48 28q-2 2 -3 2t-3 -2
l-48 -28l-1 -1l-1 -1v-56q0 -2 1 -3l1 -1l48 -28h3h3l48 28l1 1q1 1 1 3v56zM1564 1098q4 -2 6 -6t2 -8v-40q0 -4 -2 -8t-6 -6l-140 -82q-2 -2 -7 -2t-9 2l-140 82q-4 2 -6 6t-2 8v162q0 4 2 8t6 6l140 80q4 2 8 2t8 -2l84 -46q2 -2 3 -4t1 -4t-1 -4t-3 -4l-140 -80l-4 -4
q-2 -2 -2 -4v-50q0 -2 2 -4l4 -4l44 -24q0 -2 3 -2t5 2l44 24q2 2 3 4t1 4v40q0 2 1 4t3 2q2 2 4 2t4 -2zM568 948q4 -2 9 -2t9 2l140 80q4 2 6 6t2 10v162q0 4 -2 8t-6 6l-140 82q-4 2 -9 2t-9 -2l-140 -82q-4 -2 -6 -6t-2 -8v-162q0 -6 2 -10t6 -6zM1836 1304q-2 0 -6 -1
t-8 -3l-44 -26q-4 -4 -3 -5t3 -1q6 -2 9 -4t11 -6h1h1l34 22h3h1l134 -78l1 -1l1 -1v-154l-1 -1q-1 -1 -1 -3l-134 -76h-1h-3l-132 76q0 2 -1 3l-1 1v154l1 1l1 1l36 22q16 8 24 2t8 -16v-150q0 -2 1 -3t3 -1h18l1 1q1 1 1 3v150q0 20 -10 31t-28 11q-6 0 -12 -1t-18 -7
l-36 -20q-6 -4 -10 -11t-4 -13v-154q0 -6 4 -13t10 -11l132 -76q8 -4 15 -4t13 4l132 76q8 4 11 11t3 13v154q0 6 -3 13t-11 11l-132 76q-2 2 -6 3t-8 1zM1878 1198q-44 0 -57 -16t-13 -32q0 -2 1 -3t3 -1h16q2 0 3 1l1 1q2 14 11 21t35 7q20 0 30 -5t10 -17q0 -6 -7 -11
t-41 -9q-26 -2 -42 -10t-16 -30q0 -20 16 -31t44 -11q32 0 48 11t18 35v1v1l-2 2h-2h-16q-2 0 -3 -1l-1 -1q-4 -14 -13 -20t-29 -6q-22 0 -28 7t-6 13t7 10t39 8q30 4 45 12t15 28q0 22 -17 34t-49 12zM1414 1090h2h2l26 16q2 0 2 1v1v32v1q0 1 -2 1l-26 16h-2h-2l-26 -16
q-2 0 -2 -1v-1v-32v-1q0 -1 2 -1z" />
</svg>
