<?xml version="1.0" standalone="no"?>
<!DOCTYPE svg PUBLIC "-//W3C//DTD SVG 1.1//EN" "http://www.w3.org/Graphics/SVG/1.1/DTD/svg11.dtd" >
<svg xmlns="http://www.w3.org/2000/svg" xmlns:xlink="http://www.w3.org/1999/xlink" version="1.1" viewBox="-11 0 2042 2048">
   <path fill="currentColor"
d="M1397 1215l-1 -25t25 -73t44 -38l18 10l11 22q11 22 -15 58t-54 40l-28 4v2zM1129 1259q-30 78 -83 70l-53 -8l-2 -31q-2 -31 22 -109q24 -80 65 -72l41 8l20 32q20 32 -10 110zM1057 823l32 -69q32 -69 42 -11q12 58 -57 181l-69 123q2 -38 27 -131zM197 1213
q2 -74 38 -106t54 -16t11 47t-39 53q-34 22 -49 23l-15 1v-2zM2019 1197q-2 -26 -18 -24l-16 2l-30 19t-62 15q-32 -2 -31 -51l1 -49l2 -45q2 -45 -18 -51q-18 -6 -37 9l-19 15l-22 28q-22 28 -36 70l-4 2l2 -51q2 -51 -4 -69q-4 -8 -29 -6t-29 16q-6 14 -26 92t-22 120
l-45 32q-45 32 -91 40q-48 8 -64 -11l-16 -19l86 -41q86 -41 82 -145q-6 -104 -75 -94t-79 18q-12 8 -56 49t-60 139q0 4 -1 14l-1 10l-38 24q-38 24 -66 32l36 -97q36 -97 -60 -157q-42 -26 -72 6l-30 32l81 -116q81 -116 51 -238q-12 -58 -38 -70t-54 -2q-40 16 -57 34
l-17 18l-36 69q-36 69 -48 183q-12 112 -26 221l-14 109l-21 16q-21 16 -43 18t-19 -44l3 -46l11 -74q11 -74 11 -90q-2 -18 -7 -29t-25 -17q-22 -6 -40 11l-18 17l-41 63q-41 63 -47 77l-4 8l-4 -6l21 -83q21 -83 -19 -85t-65 29l-25 31l-31 53q-31 53 -33 61l-4 -4l12 -64
q12 -64 8 -86t-18 -23l-14 -1l-19 1q-19 1 -27 17q-6 18 -25 102t-23 122l-51 31q-51 31 -95 33q-44 0 -49 -19l-5 -19l100 -55q100 -55 56 -163q-20 -28 -43 -38t-57 -10q-32 0 -68 23t-62 83q-14 28 -19 53t-7 45l-22 2q-22 2 -36 -10q-16 -14 -24 -7l-8 7l-13 23
q-13 23 13 35q26 10 58 14l32 4q2 18 16 46t46 52q46 36 115 15l69 -21l50 -28l6 24t32 30q28 4 48 -18t68 -138q28 -58 34 -66l6 -8h4l-13 80q-13 80 -5 110q8 32 34 35l26 3l15 -7q15 -7 31 -63t39 -106l23 -50h6l-6 83t16 119q20 38 58 28l38 -10l26 -14q26 -14 32 -20
l39 24q39 24 101 18q138 -28 194 -57l56 -29l28 41q28 41 100 47q84 6 129 -28l45 -34l4 25q4 25 34 37q28 12 46 -31l18 -43l66 -180h6l10 61q10 61 58 73q48 14 98 -14l50 -28l10 -10q10 -10 6 -36z" />
</svg>
