<?xml version="1.0" standalone="no"?>
<!DOCTYPE svg PUBLIC "-//W3C//DTD SVG 1.1//EN" "http://www.w3.org/Graphics/SVG/1.1/DTD/svg11.dtd" >
<svg xmlns="http://www.w3.org/2000/svg" xmlns:xlink="http://www.w3.org/1999/xlink" version="1.1" viewBox="-10 0 2049 2048">
   <path fill="currentColor"
d="M514 562v79v189v266l-14 24q-12 26 -38 52t-52 40q-30 16 -53 21t-55 5q-48 0 -84 -15t-70 -49q-44 -44 -60 -99t-2 -113q6 -30 20 -54t40 -50q36 -38 75 -52t93 -12q34 2 58 9t50 23q10 8 17 12t9 2l1 -10t3 -24t4 -26t4 -16q0 -4 -5 -8t-23 -14q-34 -14 -61 -20t-69 -6
q-44 0 -72 6t-66 26q-58 28 -99 80t-59 120q-6 26 -6 73t8 73q20 74 72 128t128 80q26 10 39 11t53 1q36 0 51 -1t33 -7q28 -8 52 -20t48 -30q10 -8 18 -13l8 -5l1 9q1 9 1 21v32l96 2v-744h-48q-20 0 -33 1t-13 3zM1290 636v58h74v-116h-74v58zM822 604q-2 2 -3 6t1 10v12
l128 2h126l2 -8q2 -4 2 -9v-7q-2 -6 -20 -7t-106 -1q-52 -2 -90 -1t-40 3zM1600 604q-4 4 -5 11t3 13q0 4 22 5t106 1h126l4 -8q2 -6 2 -10t-2 -8q-4 -6 -20 -7t-108 -1q-68 0 -97 1t-31 3zM892 718q-44 10 -82 28t-66 46q-34 30 -55 65t-35 81q-6 20 -8 35t-2 43q0 44 7 70
t25 64q12 26 21 39t33 35q30 30 57 47t65 31q26 10 39 11t55 1t55 -1t39 -11q96 -34 152 -110t56 -176q2 -40 -5 -69t-25 -67q-14 -26 -23 -39t-33 -37q-22 -22 -36 -33t-36 -21q-14 -8 -33 -15t-31 -11q-28 -6 -68 -8t-66 2zM1022 804q40 14 74 45t54 71q46 94 2 188
t-148 124q-22 6 -58 6t-58 -6q-58 -18 -101 -63t-57 -105q-20 -86 27 -164t133 -102q22 -6 65 -4t67 10zM1668 718q-86 18 -146 72t-86 138q-8 20 -9 35t-1 55q0 46 4 68t18 54q24 58 75 101t115 65q30 8 76 10t78 -6q132 -32 197 -149t23 -245q-24 -70 -78 -120t-128 -72
q-28 -6 -69 -8t-69 2zM1780 798q44 10 84 42t60 74q14 28 20 50t6 52q0 42 -15 79t-43 69q-22 22 -45 37t-53 27q-20 6 -33 8t-37 2q-46 0 -83 -15t-71 -47q-22 -22 -37 -48t-23 -54q-8 -26 -7 -64t9 -62q18 -56 58 -94t94 -54q22 -6 57 -7t59 5zM1326 732h-36v274
q0 226 -3 266t-21 76q-4 10 -15 24t-21 24t-17 18t-7 10q0 4 23 35t25 31q8 0 40 -46t46 -74q20 -40 22 -76t2 -276v-288z" />
</svg>
