<?xml version="1.0" standalone="no"?>
<!DOCTYPE svg PUBLIC "-//W3C//DTD SVG 1.1//EN" "http://www.w3.org/Graphics/SVG/1.1/DTD/svg11.dtd" >
<svg xmlns="http://www.w3.org/2000/svg" xmlns:xlink="http://www.w3.org/1999/xlink" version="1.1" viewBox="-11 0 2049 2048">
   <path fill="currentColor"
d="M238 755v82h-6q-28 -6 -58 -4t-56 12q-58 18 -89 67t-29 117q2 30 9 53t19 41q20 30 50 47t76 23q32 6 89 3t103 -13l4 -2v-510h-112v84zM230 925l8 2v178l-10 2q-34 2 -56 -3t-36 -21q-12 -12 -17 -29t-5 -37q0 -38 17 -62t47 -30q10 -2 27 -2t25 2zM416 727v56h112v-56
l-2 -56h-54h-56v56zM718 833q-30 2 -59 10t-55 18l-10 6v42v33q0 9 2 9q44 -20 72 -27t58 -5q14 0 18 1t8 3q6 4 8 11t2 19v11v5q-4 0 -23 3t-31 5q-60 10 -93 31t-41 57q-2 10 -2 30t2 30q4 18 13 31t21 21q30 18 82 21t164 -11h10v-128q0 -52 -1 -94t-1 -48
q-4 -36 -22 -55t-56 -25q-10 -2 -32 -3t-34 -1zM768 1079v36l-16 4q-16 2 -36 2t-26 -4q-14 -4 -19 -17t3 -27q4 -6 13 -12t21 -10q8 -2 29 -5t27 -3l4 -2v38zM1066 833q-30 2 -70 8t-72 16h-6v336h112v-132v-132l12 -2q6 -2 14 -3t20 -1q16 0 21 1t11 3q8 4 13 10t9 14
q2 6 3 26t1 98v118h110v-132q-2 -90 -2 -113t-2 -31q-4 -14 -10 -25t-16 -21q-18 -16 -40 -25t-56 -11q-16 -2 -24 -2h-28zM1808 835q-48 8 -82 37t-48 73q-8 22 -10 39t-2 45q0 16 1 26t3 18q10 44 37 74t69 44q34 12 78 10t76 -16q40 -18 65 -54t31 -86q6 -58 -12 -107
t-54 -75q-16 -10 -31 -17t-37 -11q-16 -2 -43 -2t-41 2zM1870 925q14 6 24 18t16 32q2 8 3 16t1 26t-1 25t-3 15q-6 20 -15 32t-23 18q-6 4 -11 4h-15h-14q-4 0 -10 -4q-14 -6 -23 -17t-15 -27q-4 -14 -5 -39t3 -41q4 -18 11 -31t19 -21t28 -10t30 4zM1490 835q-32 4 -58 10
t-48 16q-52 24 -78 67t-26 103q0 58 25 98t71 56q28 10 60 10t58 -8q6 -2 11 -3l5 -1l-2 17q-2 17 -4 25q-6 20 -20 33t-36 19q-12 4 -43 4t-47 -4q-14 -2 -30 -7t-28 -11l-12 -6v102l20 6q24 8 47 12t51 4q62 0 107 -20t71 -58q12 -16 19 -38t11 -50q2 -14 2 -120t-2 -140
v-24h12h14l18 -38q8 -16 13 -27t5 -13q-2 0 -22 -4t-40 -6q-14 -2 -30 -3t-40 -1h-35h-19zM1508 949q0 12 1 38t1 50v62l-6 2q-18 4 -36 4t-30 -4q-22 -8 -33 -27t-13 -49q0 -24 5 -41t17 -31q14 -14 35 -22t49 -8l8 -2zM416 969q0 144 -4 186t-20 72q-8 18 -27 34t-45 30
l-10 5q-2 1 0 3l15 7q15 7 37 17l48 24l10 -6q50 -26 74 -64t30 -102q0 -8 1 -57t1 -119l2 -158h-112v128z" />
</svg>
