<?xml version="1.0" standalone="no"?>
<!DOCTYPE svg PUBLIC "-//W3C//DTD SVG 1.1//EN" "http://www.w3.org/Graphics/SVG/1.1/DTD/svg11.dtd" >
<svg xmlns="http://www.w3.org/2000/svg" xmlns:xlink="http://www.w3.org/1999/xlink" version="1.1" viewBox="-10 0 2020 2048">
   <path fill="currentColor"
d="M872 711l-28 4v476h76v-240l14 -10q6 -6 14 -11t12 -9q14 -6 36 -6t34 8q16 10 20 34t4 118v116h82v-114q0 -94 -4 -126t-20 -54q-24 -38 -76 -44t-94 24q-6 6 -12 10t-8 4l-1 -27t-1 -65q-2 -78 -6 -86t-42 -2zM1872 761q-8 2 -14 4t-8 4q0 2 -3 15t-5 29q-6 38 -9 45
t-13 7q-18 0 -26 6t-14 26q-4 8 -6 16t-2 10l9 1t21 1h32v92q0 38 1 72t3 44q8 42 52 57t92 -7l18 -8l-6 -22q-2 -10 -5 -17t-3 -9q-2 0 -9 1t-15 3q-16 4 -21 3t-13 -5l-10 -10l-2 -96l-2 -98h78v-64h-76l-2 -52q0 -42 -5 -48t-37 0zM0 885v32h202v-66h-202v34zM274 885v32
h66v-66h-66v34zM596 857q-8 2 -20 7t-22 11q-14 8 -21 16t-15 22q-18 36 -12 77t34 63l14 12l-16 14q-16 16 -20 33t4 33q2 8 6 14t8 8q6 4 4 8t-18 20q-18 18 -24 33t-2 39q4 20 19 37t39 27q16 6 30 7t46 1q86 2 132 -30t46 -90q0 -24 -8 -39t-30 -25q-18 -8 -37 -12
t-77 -8q-24 0 -43 -3t-23 -5q-2 -2 -4 -7t-2 -9q0 -16 12 -21t50 -7q48 -2 76 -16t44 -46q6 -10 8 -20t2 -30q0 -16 -1 -29t-1 -17q-2 -8 1 -10t15 -6l20 -2l-2 -26q-2 -26 -9 -28t-35 12q-20 8 -26 10t-12 -4q-20 -12 -60 -17t-70 3zM672 913q18 8 25 19t7 33q2 20 0 26
t-12 18q-12 12 -18 15t-28 3q-26 2 -41 -6t-23 -24q-18 -44 14 -73t76 -11zM720 1203q24 10 18 33t-34 37q-14 8 -25 10t-37 2q-34 0 -50 -7t-22 -23q-6 -14 -2 -30t16 -24q8 -8 18 -9t48 1q24 2 44 4t26 6zM1282 859q-54 14 -83 57t-29 109q0 34 7 59t23 49q42 60 131 62
t133 -58q34 -42 35 -109t-31 -113q-26 -38 -79 -54t-107 -2zM1360 917q26 8 41 35t15 73q0 12 -2 28t-4 26q-18 54 -75 56t-77 -54q-6 -20 -6 -57t6 -57q12 -32 40 -46t62 -4zM1604 859q-38 10 -58 34t-20 60q0 38 20 59t72 37q36 12 50 20t20 20q4 14 -2 25t-20 17
q-14 4 -43 2t-51 -8q-24 -8 -30 -5t-12 23q-6 18 -6 22t6 8q22 16 75 20t85 -8q34 -10 54 -36t20 -60q0 -36 -20 -57t-72 -39q-12 -4 -26 -9t-20 -7q-20 -10 -24 -24t8 -28q12 -10 34 -12t54 6l24 4q12 2 14 0q2 0 5 -7t5 -17q4 -16 4 -20t-6 -8q-16 -12 -63 -16t-77 4z
M0 1021v34h340v-66h-340v32zM0 1157v30h132v-60h-132v30zM206 1157v30h134v-60h-134v30z" />
</svg>
