<?xml version="1.0" standalone="no"?>
<!DOCTYPE svg PUBLIC "-//W3C//DTD SVG 1.1//EN" "http://www.w3.org/Graphics/SVG/1.1/DTD/svg11.dtd" >
<svg xmlns="http://www.w3.org/2000/svg" xmlns:xlink="http://www.w3.org/1999/xlink" version="1.1" viewBox="-10 0 1468 2048">
   <path fill="currentColor"
d="M1128 325q-60 16 -144 36t-144 36l-148 38l-42 76l-42 76h-180l-428 428l428 428h176l44 78q18 32 38 57t30 27q20 6 145 40t309 84q46 12 80 19l34 7q2 -2 16 -52t34 -118q18 -66 41 -152t37 -138l34 -126l-42 -70q-16 -30 -29 -54t-13 -30q0 -4 13 -29t31 -55l42 -72
l-30 -104q-44 -156 -80 -272t-50 -148l-18 -42zM1060 517q-2 4 -38 69t-86 149l-122 210h-256q-106 0 -179 -2t-71 -6q4 -2 51 -52t109 -118q96 -102 135 -134t73 -38q20 -4 78 -18t116 -30q118 -32 157 -38t33 8zM1218 633q6 20 24 83t36 133l46 170l-40 144
q-16 60 -33 125t-27 95q-8 32 -18 51t-14 13q-4 -4 -42 -67t-86 -147q-60 -104 -86 -160t-22 -70q6 -16 43 -83t79 -141t77 -132t39 -60q4 0 11 14t13 32zM876 1201q112 190 151 260t33 74q-2 4 -67 -11t-153 -37l-216 -58l-156 -158q-62 -66 -109 -116t-49 -56t65 -8
t183 -2l254 4z" />
</svg>
