<?xml version="1.0" standalone="no"?>
<!DOCTYPE svg PUBLIC "-//W3C//DTD SVG 1.1//EN" "http://www.w3.org/Graphics/SVG/1.1/DTD/svg11.dtd" >
<svg xmlns="http://www.w3.org/2000/svg" xmlns:xlink="http://www.w3.org/1999/xlink" version="1.1" viewBox="-11 0 1324 2048">
   <path fill="currentColor"
d="M1187 948l-12 -20q0 -114 -44 -169t-104 -89q18 -6 35 -13t21 -29q32 -8 42 -22t12 -30q10 -6 29 -21t15 -43q16 -10 23 -24t3 -34q16 -18 21 -33t-3 -29q20 -26 16 -41t-12 -27q14 -28 1 -51t-53 -17q-18 -26 -45 -26h-33q-6 -8 -17 -13t-35 -1q-16 -16 -34 -15t-38 7
q-22 -18 -38 -10t-34 12q-26 -8 -37 -1t-25 13q-28 -6 -42 4t-28 24h-22q-44 26 -67 71t-31 71q-8 -26 -31 -71t-69 -71h-20q-16 -14 -29 -24t-41 -4q-14 -6 -25 -13t-37 1q-12 -2 -23 -8t-23 -6q-6 2 -13 4t-13 8q-20 -6 -38 -7t-34 15q-24 -4 -35 1t-17 13h-33
q-27 0 -45 26q-40 -6 -53 17t1 51q-8 12 -12 27t16 41q-8 14 -3 29t21 33q-4 20 3 34t23 24q-4 28 15 43t29 21q2 16 12 30t42 22q4 22 21 29t35 13q-60 34 -104 89t-44 169l-12 20q-68 42 -105 157t59 223q6 34 16 61t20 55q14 108 82 162t92 60q36 26 75 51t91 43
q48 50 100 71t104 21h2h2q52 0 104 -21t100 -71q52 -18 91 -43t75 -51q24 -6 92 -60t82 -162q10 -28 20 -55t16 -61q96 -108 59 -223t-105 -157zM1105 922q-2 24 -51 -7t-102 -77t-91 -89t-18 -45q110 -20 187 40t75 178zM763 292q2 10 5 16t5 8q14 -14 26 -28t28 -28
q0 8 -1 16t9 14q8 -12 20 -23t28 -19q-6 14 -3 20t7 10q12 -10 26 -20t36 -20q-6 8 -11 16t5 16q12 -8 27 -15t45 -13q-6 8 -15 15t-1 15q16 -6 34 -10l36 -8q-8 8 -14 16t2 14q16 -6 39 -11t45 1l-20 20q0 2 27 2h49q-8 12 -16 26t-12 34q2 2 12 1t20 -1q-10 24 -26 34
t-20 20q6 4 15 4t19 -4q-8 16 -22 29t-28 27q4 2 10 3t20 -1q-12 14 -27 26t-31 24q2 2 11 3t19 1q-16 16 -35 26t-39 20q10 6 17 7t15 -1q-14 12 -35 19t-43 15q4 6 9 8t15 4q-24 14 -51 13t-37 5q4 6 9 11t13 9q-36 2 -112 -13t-96 -93q38 -42 109 -91t189 -111
q-92 32 -174 74t-150 100q-82 -38 -51 -116t69 -116zM651 662q58 0 115 36t57 76q-2 36 -48 62t-124 26q-76 -2 -123 -32t-47 -66q0 -28 52 -66t118 -36zM261 620q10 -2 14 -4t10 -8q-22 -8 -44 -15t-34 -19q6 2 14 1t18 -7l-40 -20q-20 -10 -36 -26q10 0 20 -1t12 -3
q-18 -12 -32 -24t-28 -26q14 2 21 1t11 -3q-14 -14 -29 -27t-23 -29q10 4 20 4t16 -4q-4 -10 -20 -20t-26 -34q10 0 20 1t12 -1q-4 -20 -12 -33t-18 -25q24 -2 51 -2t25 -2l-18 -20q22 -6 44 -1t40 11q8 -6 2 -14t-14 -16l36 8q18 4 34 10q8 -8 -1 -15t-17 -15q30 6 46 13
t28 15q10 -8 5 -16t-13 -16q24 10 37 20t25 20q4 -4 8 -10t-4 -20q16 8 28 19t22 23q10 -6 9 -14t-1 -16q16 14 28 28t26 28q2 -2 4 -8t4 -16q40 38 71 116t-51 116q-70 -58 -152 -100t-172 -74q116 62 188 111t110 91q-20 78 -96 93t-112 13q6 -4 12 -9t8 -11q-8 -6 -35 -5
t-51 -13zM441 698q20 4 -17 47t-91 89t-102 76t-50 8q-4 -118 74 -178t186 -42zM117 1302q-58 -46 -62 -152t102 -166q30 -8 38 45t-1 117t-31 116t-46 40zM409 1620q-30 18 -97 3t-121 -93q-38 -68 -36 -127t28 -79q38 -24 93 3t101 81q40 48 53 117t-21 95zM327 1232
q-60 -38 -69 -114t37 -144t119 -90t131 16q60 38 69 114t-37 146q-46 68 -119 90t-131 -18zM651 1800q-70 4 -128 -40t-56 -64q-2 -32 65 -52t123 -20q58 -2 118 16t60 46q0 26 -57 71t-125 43zM843 1396q0 72 -55 123t-133 51t-133 -50t-55 -122v-1v-1q0 -72 54 -123
t132 -51t134 50t56 122v1v1zM725 1150q-46 -68 -37 -144t69 -114q58 -40 131 -18t119 90q46 70 37 146t-69 114q-58 38 -131 16t-119 -90zM1107 1534q-62 84 -131 96t-101 -10q-30 -30 -12 -106t62 -128q50 -56 100 -85t86 -1q26 26 32 102t-36 132zM1169 1298
q-26 10 -47 -41t-30 -116t-2 -118t39 -43q104 60 100 166t-60 152z" />
</svg>
