<?xml version="1.0" standalone="no"?>
<!DOCTYPE svg PUBLIC "-//W3C//DTD SVG 1.1//EN" "http://www.w3.org/Graphics/SVG/1.1/DTD/svg11.dtd" >
<svg xmlns="http://www.w3.org/2000/svg" xmlns:xlink="http://www.w3.org/1999/xlink" version="1.1" viewBox="-10 0 1468 2048">
   <path fill="currentColor"
d="M1252 988h-135h-63l54 -248h76h114q92 0 121 36t29 72q0 50 -41 95t-155 45zM1376 1204q0 50 -41 95t-157 45h-134h-62l52 -250h76h114q92 0 122 37t30 73zM792 766h-133h-63l54 -250h75h113q92 0 122 36t30 72q0 52 -41 97t-157 45zM922 1000q0 52 -41 97t-157 45h-133
h-63l54 -250h75h113q92 0 122 36t30 72zM850 1392q0 50 -41 95t-157 45h-135h-63l54 -250h76h114q92 0 122 37t30 73zM266 766h-134h-62l52 -250h76h114q92 0 122 36t30 72q0 52 -41 97t-157 45zM396 1000q0 52 -41 97t-157 45h-135h-63l54 -250h76h114q92 0 122 36t30 72z
" />
</svg>
