<?xml version="1.0" standalone="no"?>
<!DOCTYPE svg PUBLIC "-//W3C//DTD SVG 1.1//EN" "http://www.w3.org/Graphics/SVG/1.1/DTD/svg11.dtd" >
<svg xmlns="http://www.w3.org/2000/svg" xmlns:xlink="http://www.w3.org/1999/xlink" version="1.1" viewBox="-10 0 1233 2048">
   <path fill="currentColor"
d="M570 201q-6 0 -31 3t-53 5q-74 10 -138 31t-110 53q-16 10 -21 11t-17 -5q-16 -8 -51 -9t-57 7q-30 10 -49 31t-25 51q-4 24 1 49t17 43q6 10 28 26t38 22q2 0 0 20t-6 46q-8 42 -9 72t1 92q0 40 3 82t7 60q2 20 6 44t4 40l4 36l-22 4q-24 4 -54 20t-34 28t0 26t18 28
q14 16 27 15t37 -17l20 -12v222q0 168 1 200t9 52q12 28 32 59t42 55l24 24l-24 16q-20 14 -34 34t-14 38q0 6 4 13t14 15q10 12 18 15t22 3q16 0 24 -4t26 -18q10 -10 24 -19t22 -15l20 -10l46 16q56 18 101 25t119 7q92 -2 169 -15t133 -39l20 -8q10 -4 14 -4q2 0 16 12
t30 28q28 30 35 35t23 1q20 -2 34 -16t14 -32q0 -20 -10 -37t-30 -37l-24 -20l22 -32q32 -44 52 -96t34 -124q6 -44 8 -124t-4 -174q0 -24 -1 -41l-1 -17l7 3q7 3 15 9q20 12 34 12t26 -14q10 -10 14 -21t2 -29q-2 -16 -17 -26t-49 -20q-14 -2 -24 -6t-12 -4q0 -2 -2 -59
t-2 -135q-4 -150 -7 -188t-21 -114v-7q0 -3 4 -3q8 0 30 -18t30 -32q18 -30 16 -65t-24 -65t-64 -40t-88 6l-30 10l-24 -16q-26 -18 -66 -34t-78 -24q-32 -6 -110 -10t-104 0zM756 225q120 20 190 80t108 176q22 68 28 133t10 261q2 103 4 197q2 99 6 141q2 40 2 84v64
q-6 72 -21 136t-39 108q-14 30 -39 61t-35 35q-6 0 -15 7t-17 13q-42 40 -129 64t-205 28q-72 2 -122 -4t-108 -24q-30 -10 -42 -17t-28 -21q-18 -20 -34 -30t-30 -10q-18 0 -56 -49t-54 -93q-10 -30 -13 -116t3 -264l6 -206l-10 -90q-24 -180 -2 -317t88 -219
q30 -36 76 -63t110 -45q66 -18 186 -25t182 5zM1092 295q46 24 48 80t-42 86q-10 4 -17 9t-9 5l-4 -9t-10 -21l-10 -30l12 -16q8 -8 10 -14t0 -12q-4 -18 -15 -23t-31 -1q-8 2 -14 -2t-20 -22q-8 -10 -14 -19t-4 -9q0 -2 8 -4t20 -6q24 -6 48 -4t44 12zM174 309q10 2 18 5
t8 5q2 2 -4 11t-14 19q-14 20 -20 23t-18 3q-12 -2 -16 -1t-12 11q-10 12 -10 22t12 22l10 14l-8 28q-4 10 -9 19t-7 9q-6 0 -24 -12t-26 -22q-32 -42 -15 -91t65 -63q22 -6 34 -6t36 4zM1162 1019q24 10 36 23t8 27l-2 12l-18 -10q-6 -4 -12 -6t-6 0q-2 2 0 5t6 3
q12 4 16 11t-2 15t-21 6t-33 -14l-24 -16v-34q0 -22 2 -27t10 -5q4 0 16 3t24 7zM110 1039q0 28 -5 42t-21 24q-22 16 -34 18t-22 -8q-8 -8 -8 -10t6 -6q14 -10 18 -14t0 -6q-2 0 -7 2t-11 6q-8 6 -11 6t-5 -4q-6 -18 7 -32t45 -26q30 -10 39 -8t9 16zM1018 1721
q18 14 32 41t8 41q-4 14 -9 13t-15 -23q-6 -10 -11 -18t-7 -8t0 8t8 20t10 22t2 12t-7 3t-13 1q-10 0 -18 -6t-28 -28q-12 -14 -24 -24t-16 -12q-10 -4 -7 -12t21 -24q20 -18 36 -19t38 13zM266 1725q6 2 15 10t17 18l18 20l-20 8q-8 4 -22 14t-26 20q-24 20 -37 25t-27 -1
q-10 -4 -12 -7t2 -11q2 -6 7 -15t11 -15q4 -6 7 -12t3 -8q-4 -2 -16 13t-18 27q-4 12 -9 12t-7 -12q-6 -20 8 -41t44 -39q22 -12 34 -13t28 7zM746 285q-38 10 -68 34t-44 58q-12 24 -11 59t13 59q12 26 36 49t48 33q30 10 70 9t64 -15q40 -20 59 -50t23 -76q0 -28 -1 -40
t-9 -28q-14 -28 -31 -46t-43 -32q-26 -12 -55 -16t-51 2zM840 303q62 28 82 92t-16 120q-34 54 -105 62t-119 -36q-44 -38 -50 -89t24 -97q30 -44 83 -59t101 7zM664 411q-30 26 -9 59t59 23q16 -4 27 -18t11 -30q0 -32 -32 -45t-56 11zM348 303q-28 10 -55 32t-41 48
q-8 16 -10 28t-2 38t2 39t8 27q36 70 114 85t136 -37q28 -26 39 -50t11 -60q0 -26 -2 -38t-12 -30q-20 -40 -58 -63t-84 -23q-14 0 -27 2t-19 2zM466 325q80 46 76 131t-86 127q-26 12 -63 11t-65 -15q-82 -40 -81 -129t85 -129q16 -8 27 -10t41 -2q28 2 40 5t26 11z
M298 409q-12 4 -24 16t-14 24t4 28t18 24q4 2 13 5t17 3q42 0 50 -40t-30 -56q-14 -6 -18 -6t-16 2zM570 541q-18 4 -30 13t-16 23q0 6 -4 12t-12 8q-22 12 -33 35t-3 43q4 8 18 15t28 7h14l-4 26q-4 24 -2 41t12 27q10 8 22 8t24 -12l14 -10l8 10q8 10 26 10t28 -10
q6 -6 8 -14t0 -36l-2 -40h16q40 0 40 -39t-42 -61q-10 -4 -15 -9t-5 -9q-2 -12 -9 -20t-23 -14q-14 -6 -25 -7t-33 3zM674 605q20 10 29 24t9 30q0 14 -2 18t-14 8q-12 6 -30 4t-46 -14q-18 -6 -26 -5t-32 7q-42 14 -62 8t-22 -30q0 -14 7 -25t21 -21q14 -8 19 -8t17 6
q8 4 20 7t22 5q14 0 23 -2t23 -8q10 -6 16 -10t8 -4l6 3zM594 723q-4 38 -8 50t-16 14q-22 6 -30 -9t-4 -49l4 -34l24 -8q10 -4 18 -6t10 -2t2 13v31zM630 689q18 6 24 16t6 38q0 20 -2 27t-10 13q-12 8 -25 4t-15 -16q-2 -6 -3 -12t-1 -8q-4 -8 0 -38t6 -30t8 2z" />
</svg>
