<?xml version="1.0" standalone="no"?>
<!DOCTYPE svg PUBLIC "-//W3C//DTD SVG 1.1//EN" "http://www.w3.org/Graphics/SVG/1.1/DTD/svg11.dtd" >
<svg xmlns="http://www.w3.org/2000/svg" xmlns:xlink="http://www.w3.org/1999/xlink" version="1.1" viewBox="-10 0 1192 2048">
   <path fill="currentColor"
d="M938 438q-98 0 -166 69t-68 165q0 66 32 119t84 83v32l-29 118t-205 118q-72 0 -130 14t-104 38v-554q52 -30 84 -84t32 -118q0 -98 -68 -167t-166 -69t-166 69t-68 167q0 64 32 118t84 84v768q-52 32 -84 85t-32 117q0 98 68 167t166 69t166 -69t68 -167q0 -46 -17 -86
t-45 -72q26 -32 69 -54t111 -22q174 0 269 -73t140 -161t53 -162l8 -74v-32q52 -30 84 -83t32 -119q0 -96 -68 -165t-166 -69zM234 320q48 0 83 34t35 84q0 48 -35 82t-83 34t-83 -34t-35 -82q0 -50 35 -84t83 -34zM234 1728q-48 0 -83 -34t-35 -84q0 -48 35 -82t83 -34
t83 34t35 82q0 50 -35 84t-83 34zM938 790q-48 0 -83 -35t-35 -83t35 -83t83 -35t83 35t35 83t-35 83t-83 35z" />
</svg>
