<?xml version="1.0" standalone="no"?>
<!DOCTYPE svg PUBLIC "-//W3C//DTD SVG 1.1//EN" "http://www.w3.org/Graphics/SVG/1.1/DTD/svg11.dtd" >
<svg xmlns="http://www.w3.org/2000/svg" xmlns:xlink="http://www.w3.org/1999/xlink" version="1.1" viewBox="-10 0 1332 2048">
   <path fill="currentColor"
d="M218 314q-90 0 -154 64t-64 154q0 60 30 110t80 78v718q-50 28 -80 77t-30 111q0 90 64 154t154 64q92 0 156 -64t64 -154q0 -62 -30 -111t-80 -77v-718q50 -28 80 -78t30 -110q0 -90 -64 -154t-156 -64zM218 1734q-44 0 -76 -32t-32 -76q0 -46 32 -78t76 -32q46 0 78 32
t32 78q0 44 -32 76t-78 32zM218 642q-44 0 -76 -32t-32 -78q0 -44 32 -76t76 -32q46 0 78 32t32 76q0 46 -32 78t-78 32zM1202 1438v-686q0 -124 -51 -191t-112 -97t-113 -35l-52 -5h-108v-220l-328 328l328 328v-218h30h78q72 0 91 55l19 55v686q-48 28 -79 77t-31 111
q0 90 64 154t156 64q90 0 154 -64t64 -154q0 -62 -30 -111t-80 -77zM1094 1734q-46 0 -78 -32t-32 -76q0 -46 32 -78t78 -32q44 0 76 32t32 78q0 44 -32 76t-76 32z" />
</svg>
