<?xml version="1.0" standalone="no"?>
<!DOCTYPE svg PUBLIC "-//W3C//DTD SVG 1.1//EN" "http://www.w3.org/Graphics/SVG/1.1/DTD/svg11.dtd" >
<svg xmlns="http://www.w3.org/2000/svg" xmlns:xlink="http://www.w3.org/1999/xlink" version="1.1" viewBox="-10 0 1424 2048">
   <path fill="currentColor"
d="M1170 908q-66 0 -119 33t-83 85q-8 0 -16 -1t-16 -1q-90 0 -175 -32t-158 -87t-129 -130t-88 -159q38 -32 60 -78t22 -98q0 -98 -68 -166t-166 -68q-96 0 -165 68t-69 166q0 64 33 117t85 85v766q-52 30 -85 83t-33 117q0 98 69 166t165 68q98 0 166 -68t68 -166
q0 -64 -32 -117t-84 -83v-422q56 62 124 112t143 86t155 55t162 19h16h16q30 52 83 85t119 33q96 0 165 -69t69 -165q0 -98 -69 -166t-165 -68zM234 1726q-48 0 -82 -34t-34 -84q0 -48 34 -82t82 -34t83 34t35 82q0 50 -35 84t-83 34zM234 556q-48 0 -82 -34t-34 -82t34 -83
t82 -35t83 35t35 83t-35 82t-83 34zM1170 1258q-48 0 -83 -34t-35 -82q0 -50 35 -84t83 -34t82 34t34 84q0 48 -34 82t-82 34z" />
</svg>
