<?xml version="1.0" standalone="no"?>
<!DOCTYPE svg PUBLIC "-//W3C//DTD SVG 1.1//EN" "http://www.w3.org/Graphics/SVG/1.1/DTD/svg11.dtd" >
<svg xmlns="http://www.w3.org/2000/svg" xmlns:xlink="http://www.w3.org/1999/xlink" version="1.1" viewBox="-10 0 1468 2048">
   <path fill="currentColor"
d="M572 320q-28 6 -79 25t-91 39q-62 28 -97 54t-89 82q-56 56 -82 91t-56 95q-78 162 -78 320t78 322q30 60 55 95t83 91q56 56 90 81t96 55q94 46 157 60t163 14t163 -14t157 -60q62 -30 96 -55t92 -81q56 -58 81 -92t55 -94q36 -80 51 -130t23 -128l8 -64h-204l-14 80
q-24 156 -121 261t-226 148t-269 15t-254 -138q-90 -88 -127 -202t-22 -228t80 -216t177 -168q42 -26 112 -47t108 -21h34v-206h-38q-16 0 -49 5t-63 11zM610 600q-82 22 -148 71t-110 116t-62 146t-4 163q16 90 63 165t116 125t153 71t172 7q90 -16 165 -64t125 -116
t72 -152t8 -172q-18 -98 -71 -176t-128 -128t-166 -66t-185 10z" />
</svg>
