<?xml version="1.0" standalone="no"?>
<!DOCTYPE svg PUBLIC "-//W3C//DTD SVG 1.1//EN" "http://www.w3.org/Graphics/SVG/1.1/DTD/svg11.dtd" >
<svg xmlns="http://www.w3.org/2000/svg" xmlns:xlink="http://www.w3.org/1999/xlink" version="1.1" viewBox="-10 0 1468 2048">
   <path fill="currentColor"
d="M1166 806q6 -2 15 -4t19 -4h104l16 -24h2l40 -58h-1h-1l4 -6h-566l22 88h154l-260 234q-38 -54 -118 -155t-144 -197h194v-66l2 -16h-1h-1v-6h-646v88h192q28 22 87 90t121 143t110 139t52 76q4 26 5 129t-11 115q-20 22 -91 22t-95 2l-10 60q42 2 148 -1t148 -3h199
q115 0 135 2l4 -64q-22 -4 -105 -3t-99 -3q-4 -22 -6 -132t2 -126q8 -22 63 -74t121 -105t124 -95t72 -46zM1260 1292l86 6l102 -390q-14 0 -95 -8t-95 -10zM1244 1354l2 96l44 4l46 2l14 -92l-50 -2z" />
</svg>
