<?xml version="1.0" standalone="no"?>
<!DOCTYPE svg PUBLIC "-//W3C//DTD SVG 1.1//EN" "http://www.w3.org/Graphics/SVG/1.1/DTD/svg11.dtd" >
<svg xmlns="http://www.w3.org/2000/svg" xmlns:xlink="http://www.w3.org/1999/xlink" version="1.1" viewBox="-11 0 1466 2048">
   <path fill="currentColor"
d="M1145 312q18 8 36 23t26 31q4 6 13 45t32 134t60 256t95 411q16 66 27 123t11 69q0 26 -10 47t-32 41q-16 16 -40 24t-110 28l-70 16l18 -34q20 -36 29 -78t9 -90q0 -96 -35 -175t-107 -141q-42 -38 -105 -73t-155 -73q-130 -54 -177 -94t-47 -100q0 -64 50 -96t138 -26
q46 2 93 14t97 32q20 8 37 15t21 9t14 -21t34 -85l28 -77q12 -33 14 -37q2 -6 -53 -30t-103 -38q-56 -16 -65 -19t-1 -5q108 -28 154 -33t74 7zM337 504q-12 18 -24 43t-20 45q-10 30 -13 50t-3 68q0 46 3 66t13 46q38 104 129 182t249 140q70 28 117 55t71 53t33 51t7 63
q-2 36 -18 59t-48 39q-24 12 -41 14t-79 2q-60 0 -83 -3t-65 -15q-26 -8 -58 -18t-50 -18q-16 -8 -32 -14t-20 -6q-6 0 -19 23t-43 85q-22 44 -37 78l-15 34q0 6 53 29t97 35q22 8 41 14t21 6q4 2 -13 8t-47 12q-88 22 -135 12t-71 -58q-6 -12 -41 -155t-87 -373
q-96 -410 -106 -474t12 -100q18 -26 52 -41t118 -35q60 -14 118 -28t62 -14q0 -2 -8 10z" />
</svg>
