<?xml version="1.0" standalone="no"?>
<!DOCTYPE svg PUBLIC "-//W3C//DTD SVG 1.1//EN" "http://www.w3.org/Graphics/SVG/1.1/DTD/svg11.dtd" >
<svg xmlns="http://www.w3.org/2000/svg" xmlns:xlink="http://www.w3.org/1999/xlink" version="1.1" viewBox="-10 0 1467 2048">
   <path fill="currentColor"
d="M1148 719q-10 8 -11 19t3 55q2 26 0 35t-10 9q-14 0 -38 17t-28 31q-2 8 3 23t13 19q2 2 11 5t17 3q12 2 17 4t7 6q4 6 2 40t-8 68q-4 20 -4 30t4 32q2 12 4 25t2 19t1 12t3 8q0 4 2 15t2 25q2 34 7 50t19 28q18 14 29 17t43 5h32h18q28 0 56 -4t30 -10l9 -9l17 -17
q26 -20 35 -35t11 -41q2 -18 -2 -42t-10 -34q-4 -4 -8 -11t-6 -13q-4 -10 -8 -14t-8 -4q-2 0 -6 -2l-8 -4q-4 -6 -6 -6t-12 4q-4 4 -9 8t-7 6t-5 7t-5 9q-4 4 -5 10t-1 10t-2 12t-6 14q-2 8 -5 17t-3 15q-4 12 -10 18t-18 6q-14 0 -18 -4t-4 -20q0 -54 -1 -80t-5 -38
q-6 -26 -2 -69t16 -49q2 -2 20 -3t42 -1q42 0 52 -1t16 -7q6 -4 7 -8t-1 -14q-2 -8 -3 -20t-3 -22q0 -10 -2 -18t-4 -10q0 -2 -13 -3t-43 1q-22 0 -40 2t-20 2q-8 2 -15 -9t-1 -21q0 -4 2 -10t2 -12t1 -11t1 -7q4 -2 4 -14t-4 -18q-4 -2 -5 -6t-1 -8q0 -6 -7 -9t-31 -5
q-58 -6 -69 -6t-19 8zM888 849q-4 0 -11 1t-11 3q-14 0 -52 13t-42 19q-2 2 -4 3l-6 3q-6 2 -34 28t-34 36q-4 6 -8 23t-10 61q0 10 -3 21t-3 15q-8 22 -2 65t18 55q4 2 7 8t5 8q4 6 1 7t-25 1h-30v-42q0 -18 -1 -34t-3 -20t-1 -14t3 -24q4 -30 3 -59t-7 -41q-2 -4 -3 -12
t-1 -12q0 -18 -14 -45t-24 -27q-2 0 -4 -1t-4 -1t-5 -1t-5 -1t-9 -4t-13 -10q-18 -14 -31 -18t-35 0q-28 4 -45 10t-25 14q-4 2 -8 5t-8 3q-6 0 -10 4t-16 18q-6 8 -12 13t-8 5q-6 0 -11 -6t-5 -14q0 -2 -2 -7t-6 -7q-4 -6 -14 -7t-44 -1q-20 0 -39 -1t-25 -3q-24 -4 -35 11
t-7 45q0 10 2 20t4 14q2 6 6 7t24 -1l30 -2l4 10q4 8 3 18t-7 34q-2 14 -2 53t2 57q8 40 9 52t-3 14t-12 4t-20 2q-16 0 -21 1t-9 7q-6 8 -11 30t-5 36q0 8 3 11t13 9q12 6 29 7t55 -3q12 -2 32 0t24 4q4 4 43 4t51 -4q10 -6 16 -14t6 -20q0 -6 -1 -11l-1 -5q-2 0 -3 -8
t-1 -18q0 -20 -5 -27t-23 -9q-10 -2 -13 -4t-3 -6t-1 -7t-3 -3q-4 -2 -4 -3t4 -3q6 -4 7 -20t-3 -56q-4 -36 -4 -45t4 -17q4 -2 6 -9t2 -13t1 -12t3 -8l4 -4q2 -2 2 -4q0 -10 30 -11t48 7q4 4 9 6t7 4q2 0 4 4l4 8q0 2 2 6t4 6q4 4 5 30t-3 38q-4 6 -5 41t3 49q2 16 -6 23
t-28 7q-24 0 -27 11t7 65q4 24 10 28t34 2q28 -4 38 -4t86 4l82 2l8 -12q6 -6 7 -12t1 -18l-2 -20l38 26q36 24 59 30t75 6q30 -2 43 -3t29 -7q8 -2 16 -6t12 -4q2 -2 9 -4t15 -4q20 -6 34 -18t22 -30q2 -8 7 -18t7 -16q4 -6 6 -12t2 -8q0 -6 -10 -17t-16 -11q-2 0 -8 -2
l-12 -4q-10 -6 -18 -6t-16 8q-2 2 -8 4t-12 2q-4 0 -10 3t-10 7q-2 4 -8 7t-12 7q-6 2 -12 6t-8 8q-4 6 -11 9t-19 7q-8 2 -17 2h-13q-8 -4 -25 -15t-17 -13t-5 -7l-11 -11q-10 -12 -12 -16t0 -16q2 -18 7 -22t23 -4q8 0 17 -2t13 -4q14 -6 45 -6t41 6q6 4 16 5t36 1
q34 2 51 -2t29 -12q8 -6 9 -13t1 -39q0 -38 -4 -58t-14 -34q-4 -6 -8 -13t-8 -13q-2 -6 -6 -10l-6 -6q-2 0 -8 -5t-10 -13q-8 -8 -14 -12t-14 -4q-4 -2 -15 -6t-19 -8q-36 -16 -50 -20t-30 2zM910 943q10 6 32 31t22 29q0 6 -8 10t-26 8q-26 6 -55 6t-37 -6q-2 -2 -6 -3
t-6 -1q-4 0 -7 -5t-3 -11l3 -5q3 -5 9 -11q4 -4 10 -12t10 -12q14 -18 31 -23t31 5zM42 1199q-10 6 -20 17t-16 23q-16 40 13 73t71 21q46 -12 51 -61t-37 -69q-14 -8 -32 -8t-30 4z" />
</svg>
