<?xml version="1.0" standalone="no"?>
<!DOCTYPE svg PUBLIC "-//W3C//DTD SVG 1.1//EN" "http://www.w3.org/Graphics/SVG/1.1/DTD/svg11.dtd" >
<svg xmlns="http://www.w3.org/2000/svg" xmlns:xlink="http://www.w3.org/1999/xlink" version="1.1" viewBox="-10 0 1468 2048">
   <path fill="currentColor"
d="M582 310q-88 19 -169 59.5t-149 96t-122 126.5t-86 152q-56 133 -56 280.5t56 281.5q28 70 74 134t104 118t127 94.5t145 65.5q54 18 88 22t130 4q98 0 131 -4.5t89 -21.5q114 -38 207 -106t159 -158t102 -200t36 -228q0 -120 -35 -228t-100 -198t-156 -158t-205 -106
q-52 -18 -86 -23t-120 -7q-52 -2 -100 -0.5t-64 4.5zM806 784q94 163 126 254.5t20 149.5q-20 85 -89 135t-155 43q-42 -5 -84 -28.5t-68 -55.5l-22 -30h36q74 0 122 -60t36 -136q-4 -30 -24 -85.5t-48 -108.5l-20 -40l46 -78q18 -35 34 -57t18 -19q2 1 24 35.5t48 80.5z
M616 872q58 115 70 175.5t-12 104.5q-46 76 -129 59t-105 -107q-4 -12 -1 -31.5t9 -40.5q12 -41 64 -136.5t60 -95.5q4 0 16 21t28 51z" />
</svg>
