<?xml version="1.0" standalone="no"?>
<!DOCTYPE svg PUBLIC "-//W3C//DTD SVG 1.1//EN" "http://www.w3.org/Graphics/SVG/1.1/DTD/svg11.dtd" >
<svg xmlns="http://www.w3.org/2000/svg" xmlns:xlink="http://www.w3.org/1999/xlink" version="1.1" viewBox="-10 0 1468 2048">
   <path fill="currentColor"
d="M720 305q-26 10 -42 28t-24 46q-6 18 -5 83t13 417q2 84 5 172t6 167t4 143t3 98q2 92 5 137t5 57q10 44 42 69t78 25q8 0 93 -14t185 -31t185 -32t93 -17q18 -6 37 -24t29 -40q14 -32 15 -62t-9 -180q-8 -102 -16 -221t-15 -229t-12 -197t-7 -125q-6 -76 -11 -101
t-19 -49q-12 -16 -32 -31t-38 -21q-6 -2 -44 -8t-84 -12q-290 -42 -354 -49t-86 1zM1066 575q128 10 161 13t43 9q16 8 28 21t20 27q6 14 9 34t7 118q4 56 10 152t10 174q8 134 9 165t-1 45q-8 22 -29 41t-49 25q-8 2 -72 9t-139 15t-139 14t-72 4q-30 -2 -52 -19t-30 -47
q-4 -10 -6 -31t-4 -69q0 -34 -4 -140t-8 -220q-8 -192 -9 -238t3 -58q6 -16 17 -30t27 -20q18 -8 59 -7t211 13zM812 581q-20 6 -32 24t-12 44q0 12 7 14t63 6q34 4 51 11t31 23t18 55t12 243q10 208 9 242t-15 52q-2 6 -11 12t-17 10q-14 6 -27 9t-45 7q-22 2 -37 4l-15 2
q-2 2 3 21t11 29q4 6 10 13t10 9q16 12 37 12t87 -6q32 -2 55 -6t25 -4l-5 -121t-13 -289l-18 -408l-70 -6q-60 -4 -79 -5t-33 3zM422 443q-20 6 -31 14t-21 20q-14 24 -15 72t7 452q6 366 9 445t11 95q10 26 32 40t56 18q10 2 101 -9t93 -13t-2 -113t-4 -113l-20 2t-48 4
q-50 6 -70 5t-36 -9q-14 -8 -25 -24t-15 -36q-2 -6 -4 -95t-4 -207q-6 -244 -4 -278t22 -52q16 -14 33 -16t71 0q26 2 47 4t23 2l8 2l-2 -72q0 -30 -2 -59t-2 -39l-2 -28l-88 -8q-74 -8 -87 -8t-31 4zM174 607q-20 4 -33 18t-17 30v75q0 69 2 163q6 276 8 373t6 107
q4 16 18 28t30 18q14 4 25 4t53 -4q24 -4 45 -6t27 -2l14 -2l-2 -80q-2 -32 -3 -56l-1 -24h-14q-14 0 -32 2q-44 4 -61 2t-29 -12q-16 -16 -19 -43t-7 -201l-4 -208l6 -14q4 -8 9 -12t13 -8q10 -6 21 -6t53 2l58 2l-4 -68q0 -26 -1 -47l-1 -21q-2 -2 -43 -5t-81 -7h-21
q-11 0 -15 2zM478 667q-16 8 -24 27t-6 45l4 22l36 2q32 2 48 8t26 22l10 14v394l-10 10q-12 12 -28 18t-42 8l-30 2l-2 18q0 32 10 53t32 29q10 4 20 4t46 -2q20 -2 36 -4t18 -4q4 -2 4 -57t-6 -267q-4 -242 -7 -288t-13 -52q-4 0 -21 -2t-39 -2q-30 -2 -43 -1t-19 3z
M22 801q-2 2 -7 5t-7 7q-6 6 -7 26t-1 122q0 58 1 113t3 75q0 32 2 41t6 15q8 8 23 12t45 2l34 -2l-2 -42v-42h-30q-38 -2 -42 -15t-6 -113q0 -94 3 -110t21 -20q6 -2 15 -2h15l18 2v-72l-10 -2q-10 -2 -39 -2t-35 2zM200 839v36h10q10 0 21 5t15 13q4 6 6 108t-4 110
q-2 8 -13 15t-21 7h-8v28q0 12 1 24t1 16q2 8 5 9t15 1q16 0 29 -5t19 -15q6 -6 6 -30t-4 -148q-2 -110 -4 -142t-4 -40q-8 -12 -18 -18t-30 -8h-22v34z" />
</svg>
