<?xml version="1.0" standalone="no"?>
<!DOCTYPE svg PUBLIC "-//W3C//DTD SVG 1.1//EN" "http://www.w3.org/Graphics/SVG/1.1/DTD/svg11.dtd" >
<svg xmlns="http://www.w3.org/2000/svg" xmlns:xlink="http://www.w3.org/1999/xlink" version="1.1" viewBox="-10 0 1241 2048">
   <path fill="currentColor"
d="M393 1474l-18 20t62 28q98 12 166 9t176 -23l25 15q25 15 65 29q-122 52 -247 56t-207 -17t-100 -56t78 -61zM353 1294l-22 27t60 37q104 10 200 8t240 -30l18 15q18 15 48 27q-146 42 -288 47t-234 -12t-109 -51t87 -68zM685 988q60 68 20 121l-40 53l89 -68t19 -166
q-64 -92 -63 -163t269 -227l-84 27q-84 27 -164 82t-113 140t67 201zM1111 1608l11 23t-63 45q-68 20 -201 33t-276 15t-271 -9t-188 -37q-44 -20 8 -42t78 -26q26 -6 41 -7l15 -1q-24 -16 -89 -4t-116 37t-59 54t84 43q246 40 461 36t362 -30t207 -64t-4 -66zM423 1108
l-125 38t19 58q62 8 172 7t224 -11q92 -8 170 -20l78 -12l-26 12q-26 12 -50 28q-114 30 -264 39t-273 2t-185 -28t0 -53q108 -52 184 -56zM959 1408q232 -122 187 -216t-121 -78q-18 4 -26 6l-8 2l6 -7t20 -13q148 -52 197 90t-261 224l3 -3q3 -3 3 -5zM773 202l44 118
t-206 316q-200 158 -123 262t123 206q-116 -106 -184 -200t-10 -180q42 -62 113 -114t134 -109t99 -127t10 -172zM453 1842q112 6 243 4t245 -19t192 -50t82 -85l-38 31t-206 63q-96 18 -199 26t-202 9t-190 -5t-159 -18l43 17q43 17 189 27z" />
</svg>
