<?xml version="1.0" standalone="no"?>
<!DOCTYPE svg PUBLIC "-//W3C//DTD SVG 1.1//EN" "http://www.w3.org/Graphics/SVG/1.1/DTD/svg11.dtd" >
<svg xmlns="http://www.w3.org/2000/svg" xmlns:xlink="http://www.w3.org/1999/xlink" version="1.1" viewBox="-10 0 1818 2048">
   <path fill="currentColor"
d="M494 1709l296 40q148 20 296 41t296 41l298 40q-50 -84 -101 -168t-101 -167l-100 -166q-50 -83 -100 -167q-98 62 -195 125t-195 126t-197 127t-197 128zM1792 459q-26 38 -52 78l-52 80q-46 66 -91 134l-90 136l-90 136q-45 68 -91 136q-4 8 -8 15t2 19q44 72 87 144
t87 144t87 144t87 144q12 22 27 45t33 45q8 -176 17 -351t18 -349t17 -349t18 -351h-3h-3zM208 1055q4 4 12 6t12 0q84 -42 168 -83t166 -85q26 -14 48 -37t44 -45q76 -70 152 -139t152 -139q4 -6 9 -10t9 -10l53 -106l55 -110l-64 -24q-32 -12 -64 -22q-4 -2 -10 0t-10 4
q-74 42 -148 82t-146 86q-34 22 -65 52t-63 60q-50 46 -101 92t-101 94q-12 12 -24 26t-22 30l-68 100q-34 50 -68 102q18 20 36 39t38 37zM614 965q-20 88 -41 176l-42 176l-42 176q-21 88 -41 178q100 -64 199 -128t197 -127t195 -126t195 -125q-78 -24 -155 -49l-154 -50
q-77 -25 -155 -50t-156 -51zM1724 461l-168 28q-84 14 -167 28l-166 28q-83 14 -167 28q56 138 113 275t113 275q56 -82 111 -165l110 -166l110 -166q55 -83 111 -165zM624 917q152 50 302 99t304 99q-56 -140 -112 -275t-112 -273q-96 88 -191 175t-191 175zM216 1193
q-54 128 -107 254t-105 252q102 -2 202 -5t202 -7q-48 -124 -96 -246t-96 -248zM412 1571q2 -2 3 -2h3q36 -152 73 -303t75 -309q-84 42 -164 84t-162 84q42 108 86 221t86 225zM1642 427q-48 -12 -96 -25t-98 -25q-68 -18 -138 -37t-140 -37q-8 -2 -15 -2t-11 12
q-26 50 -51 100t-49 100q-2 2 -2 4v6q150 -22 300 -45t300 -47v-1v-3zM1268 275q130 36 261 72t265 74q-22 -66 -43 -126t-43 -122q-112 24 -221 48t-219 48v3v3zM458 1747q-50 -4 -100 -2l-98 4q-42 0 -82 1t-82 3q-4 0 -8 1t-8 7q168 14 336 30q166 16 337 32
q169 16 337 31t336 31q0 -2 1 -3t1 -3q-108 -14 -216 -29t-216 -31q-134 -18 -269 -37t-269 -35zM12 1545q44 -100 87 -201t87 -201q4 -10 3 -18t-9 -16q-18 -18 -36 -37t-38 -39q-26 134 -52 264t-54 260h3h1l5 -5q3 -3 3 -7zM1152 239q74 -18 148 -34l148 -32q4 -2 9 -3
t9 -3v-2v-2q-105 14 -209 28q-105 14 -215 28q30 14 56 21t54 -1z" />
</svg>
