<?xml version="1.0" standalone="no"?>
<!DOCTYPE svg PUBLIC "-//W3C//DTD SVG 1.1//EN" "http://www.w3.org/Graphics/SVG/1.1/DTD/svg11.dtd" >
<svg xmlns="http://www.w3.org/2000/svg" xmlns:xlink="http://www.w3.org/1999/xlink" version="1.1" viewBox="-10 0 1468 2048">
   <path fill="currentColor"
d="M724 300q-150 0 -282 57t-230 155t-155 230t-57 282t57 282t155 230t230 155t282 57t282 -57t230 -155t155 -230t57 -282t-57 -282t-155 -230t-230 -155t-282 -57zM886 550q20 -36 59 -46t73 10q36 20 46 59t-10 73t-59 45t-73 -9t-45 -59t9 -73zM724 604q30 0 58 4
t54 12q4 28 21 54t45 42t58 18t58 -10q54 54 87 124t37 150l-136 2q-10 -108 -91 -183t-191 -75q-32 0 -62 7t-56 19l-68 -120q42 -22 89 -33t97 -11zM232 1120q-40 0 -69 -28t-29 -68t29 -68t69 -28t68 28t28 68t-28 68t-68 28zM318 1130q22 -20 36 -47t14 -59t-14 -59
t-36 -47q18 -74 64 -137t110 -107l70 120q-54 38 -87 98t-33 132t33 132t87 100l-70 118q-64 -42 -110 -105t-64 -139zM1018 1534q-34 20 -73 10t-59 -46q-20 -34 -9 -73t45 -59t73 -9t59 45q20 36 10 74t-46 58zM1018 1324q-28 -10 -58 -8t-58 18t-45 41t-21 53
q-26 8 -54 12t-58 4q-50 0 -97 -11t-89 -33l68 -120q26 12 56 19t62 7q110 0 191 -74t91 -182l136 2q-4 80 -37 149t-87 123z" />
</svg>
