<?xml version="1.0" standalone="no"?>
<!DOCTYPE svg PUBLIC "-//W3C//DTD SVG 1.1//EN" "http://www.w3.org/Graphics/SVG/1.1/DTD/svg11.dtd" >
<svg xmlns="http://www.w3.org/2000/svg" xmlns:xlink="http://www.w3.org/1999/xlink" version="1.1" viewBox="-10 0 1472 2048">
   <path fill="currentColor"
d="M158 1736h708l-24 -60t-50 -158t-42 -220t-2 -246q16 -122 67 -212t117 -151t136 -92t126 -37q110 -12 168 31l58 43l32 -48l-37 -33q-37 -33 -102 -71t-152 -66t-185 -20q-100 10 -185 46t-155 91t-126 126t-100 151q-86 160 -139 289t-87 297t-30 254zM16 1380l138 10
l-24 140l-130 -16zM234 1086l38 -104l-122 -46l-40 110zM408 730l72 -86l-94 -60l-74 82zM596 400l64 76l88 -50l-64 -72zM908 312l16 76l110 -2l-10 -68zM1278 394l-2 48l74 40l16 -24zM1262 600v40l72 8v-32zM1034 634l34 64l50 -40l-10 -42zM924 716l54 80l-32 56
l-78 -84zM818 938l-34 68l90 78l22 -88zM780 1180l-4 94l112 48l-6 -88zM812 1510l28 96l140 8l-50 -104h-118z" />
</svg>
