<?xml version="1.0" standalone="no"?>
<!DOCTYPE svg PUBLIC "-//W3C//DTD SVG 1.1//EN" "http://www.w3.org/Graphics/SVG/1.1/DTD/svg11.dtd" >
<svg xmlns="http://www.w3.org/2000/svg" xmlns:xlink="http://www.w3.org/1999/xlink" version="1.1" viewBox="-11 0 1460 2048">
   <path fill="currentColor"
d="M545 998h346q72 0 123 -52t51 -124v-330q0 -72 -52 -121t-122 -59q-44 -8 -90 -12t-90 -4q-46 2 -88 5t-78 11q-110 18 -142 61t-32 119v132h348v44h-478q-76 0 -136 45t-82 131q-22 98 -23 173t23 179q20 78 65 127t121 49h118v-158q0 -86 65 -151t153 -65zM523 536
q-28 0 -47 -20t-19 -46q0 -28 19 -47t47 -19q26 0 45 19t19 47q0 26 -19 46t-45 20zM1411 844q-18 -76 -57 -126t-115 -50h-130v154q0 90 -66 155t-152 65h-346q-72 0 -123 53t-51 123v330q0 72 52 115t122 63q82 24 165 26t181 -26q66 -20 120 -61t54 -117v-132h-346v-44
h520q76 0 111 -48t61 -128q28 -82 27 -165t-27 -187zM913 1504q28 0 47 20t19 46q0 28 -19 48t-47 20q-26 0 -46 -20t-20 -48q0 -26 20 -46t46 -20z" />
</svg>
