<?xml version="1.0" standalone="no"?>
<!DOCTYPE svg PUBLIC "-//W3C//DTD SVG 1.1//EN" "http://www.w3.org/Graphics/SVG/1.1/DTD/svg11.dtd" >
<svg xmlns="http://www.w3.org/2000/svg" xmlns:xlink="http://www.w3.org/1999/xlink" version="1.1" viewBox="-10 0 1468 2048">
   <path fill="currentColor"
d="M364 818h-254l-110 556h130l28 -144h124q86 6 166 -62t80 -192q0 -72 -41 -112t-123 -46zM268 1128h-82l34 -206h88q36 0 60 15t24 47q-6 86 -42 112t-82 32zM824 818h-124l28 -144h-130l-110 556h130l62 -308h102q36 0 41 14t1 40l-48 254h136l48 -282q12 -50 -21 -87
t-115 -43zM1284 818h-254l-110 556h130l28 -144h122q88 6 168 -62t80 -192q0 -72 -41 -112t-123 -46zM1188 1128h-84l36 -206h88q36 0 59 15t23 47q-4 86 -40 112t-82 32z" />
</svg>
