<?xml version="1.0" standalone="no"?>
<!DOCTYPE svg PUBLIC "-//W3C//DTD SVG 1.1//EN" "http://www.w3.org/Graphics/SVG/1.1/DTD/svg11.dtd" >
<svg xmlns="http://www.w3.org/2000/svg" xmlns:xlink="http://www.w3.org/1999/xlink" version="1.1" viewBox="-10 0 1470 2048">
   <path fill="currentColor"
d="M1443 992q-6 -8 -77 -96t-89 -110q-16 -20 -27 -21t-21 1t-99 16t-103 18q-14 2 -21 8t1 20q8 10 68 95t78 109l-438 106l-350 -582q-10 -16 -17 -22t-31 -6q-24 2 -151 12t-139 12q-14 0 -23 10t3 40q8 14 54 115t100 218t99 213t47 104q6 12 23 27t51 7q36 -10 136 -36
t168 -42q36 64 93 166t71 120q18 26 34 26t44 -8q10 -4 82 -30t156 -56l154 -55q70 -25 78 -29q14 -6 21 -12t-3 -20q-8 -10 -72 -96t-108 -146q30 -8 108 -28t90 -24q14 -4 16 -10t-6 -14zM647 1154q-4 2 -129 32t-135 32t-12 1t-2 -5q-2 -2 -47 -96t-100 -208t-102 -209
t-47 -97q-4 -6 -4 -10t4 -4q2 0 118 -10t122 -10t7 1t3 5l50 87t111 192t112 194t53 91q4 8 3 11t-5 3zM1339 1284l3 9q1 3 -7 5q-6 2 -71 25t-143 49t-143 48t-67 22q-6 4 -11 3t-13 -13q-8 -10 -75 -125l-67 -115l428 -112q8 -2 12 -2t8 8q6 8 74 101t72 97zM1367 980
l-88 22l-80 20l-128 -176q-2 -4 -3 -7t5 -5q8 0 83 -14t79 -14q6 -2 10 -2t10 10q6 8 63 80t61 76q2 4 -2 7t-10 3z" />
</svg>
