<?xml version="1.0" standalone="no"?>
<!DOCTYPE svg PUBLIC "-//W3C//DTD SVG 1.1//EN" "http://www.w3.org/Graphics/SVG/1.1/DTD/svg11.dtd" >
<svg xmlns="http://www.w3.org/2000/svg" xmlns:xlink="http://www.w3.org/1999/xlink" version="1.1" viewBox="-10 0 1464 2048">
   <path fill="currentColor"
d="M152 684q-24 82 -4 168t84 152l322 320l142 -142l-322 -322q-34 -34 -34 -83t34 -85q36 -34 85 -34t83 34l12 12l142 -142l-10 -12q-62 -60 -142 -82t-158 -4q-12 -68 -66 -115t-126 -47q-80 0 -136 57t-56 137q0 70 43 122t107 66zM420 872l142 142l322 -322
q34 -34 83 -34t83 34q36 36 36 85t-36 83l-10 12l142 142l12 -12q64 -64 84 -149t-4 -165q72 -10 120 -64t48 -128q0 -80 -56 -137t-136 -57q-74 0 -128 48t-64 120q-82 -24 -167 -4t-151 84l-26 28zM1278 1362q20 -80 -1 -161t-83 -143l-322 -320l-142 142l320 322
q36 34 36 83t-34 83q-36 36 -85 36t-83 -36l-12 -10l-142 142l10 12q66 64 153 84t169 -4q14 66 67 110t123 44q80 0 136 -57t56 -137q0 -72 -48 -126t-118 -64zM1006 1190l-142 -142l-322 322q-34 34 -83 34t-85 -36q-34 -34 -34 -83t34 -83l12 -12l-144 -142l-10 10
q-62 62 -83 145t-1 161q-64 16 -106 68t-42 120q0 80 56 137t136 57q70 0 122 -43t68 -107q78 20 160 -1t144 -83z" />
</svg>
