<?xml version="1.0" standalone="no"?>
<!DOCTYPE svg PUBLIC "-//W3C//DTD SVG 1.1//EN" "http://www.w3.org/Graphics/SVG/1.1/DTD/svg11.dtd" >
<svg xmlns="http://www.w3.org/2000/svg" xmlns:xlink="http://www.w3.org/1999/xlink" version="1.1" viewBox="-10 0 1468 2048">
   <path fill="currentColor"
d="M1084 503q-64 -38 -124 -62t-120 -64q-36 -24 -84 -77t-90 -103q-10 82 -33 122t-51 64q-60 48 -105 70t-97 50q-22 12 -84 55t-128 120t-117 191t-51 268t60 285t161 226t233 149t276 54t274 -51t229 -142t157 -221t58 -288t-50 -274t-113 -195t-122 -122t-79 -55z
M1094 1701q-6 6 -55 33t-113 33t-142 2t-130 -52q-8 -10 -7 -20t7 -14t11 -8t13 -4q6 0 7 1t5 3q24 18 65 32t117 14t129 -17t77 -35q10 -8 15 -4t7 8q0 6 1 12t-7 16zM814 1555q14 -12 34 -28t40 -24t34 -9t32 -1q20 0 39 2t33 12t23 28l15 30q4 12 0 19t-14 13q-8 4 -12 1
t-12 -19t-21 -29t-55 -13t-61 13t-39 29t-30 22t-16 -4q-8 -10 -5 -20t15 -22zM1236 1569q-42 -4 -116 -94t-128 -94q-36 0 -88 30t-113 66t-126 67t-125 31q-72 0 -102 -10t-54 -26q-36 -24 -54 -63t-16 -91q2 -94 78 -168t186 -74q140 -2 240 91t170 91q60 0 156 -78
t152 -78q60 0 81 47t21 85q0 36 -13 94t-41 100q-30 42 -52 59t-56 15z" />
</svg>
