<?xml version="1.0" standalone="no"?>
<!DOCTYPE svg PUBLIC "-//W3C//DTD SVG 1.1//EN" "http://www.w3.org/Graphics/SVG/1.1/DTD/svg11.dtd" >
<svg xmlns="http://www.w3.org/2000/svg" xmlns:xlink="http://www.w3.org/1999/xlink" version="1.1" viewBox="-11 0 1454 2048">
   <path fill="currentColor"
d="M1433 1057q0 -84 -19 -163t-53 -147q10 -26 21 -63t25 -85q40 -154 -39 -239t-223 -71q-86 10 -168 34t-162 62q-6 -2 -12 -2h-14q-118 0 -224 43t-190 117t-141 176t-77 220q98 -150 211 -228l113 -78q-98 108 -182 216t-148 220q0 2 -1 4t-3 4q-54 96 -90 196t-52 208
q-22 148 48 222t222 52q52 -8 129 -44t103 -50q64 34 135 51t147 17q106 0 201 -33t175 -93t139 -142t93 -180h-348q-38 68 -104 109t-146 41q-114 0 -197 -83t-89 -201h914q4 -22 5 -45t1 -45zM279 1705q-82 10 -146 -87t56 -317q40 104 108 189t158 143q-24 14 -78 41
t-98 31zM515 947q14 -112 95 -187t189 -75q110 0 191 75t93 187h-568zM1031 433q204 -100 283 -28t57 182q-4 14 -13 49t-19 69q-54 -92 -133 -162t-175 -110z" />
</svg>
