<?xml version="1.0" standalone="no"?>
<!DOCTYPE svg PUBLIC "-//W3C//DTD SVG 1.1//EN" "http://www.w3.org/Graphics/SVG/1.1/DTD/svg11.dtd" >
<svg xmlns="http://www.w3.org/2000/svg" xmlns:xlink="http://www.w3.org/1999/xlink" version="1.1" viewBox="-10 0 1470 2048">
   <path fill="currentColor"
d="M1208 490l-7 -7l-5 -5l5 5zM34 878l-2 2q-2 2 -4 6v2q0 2 -2 4q2 -4 4 -7t4 -7zM236 550l3 -3l1 -1q46 -46 100 -82t112 -62q62 -26 128 -39t132 -13q64 0 126 12t120 36q36 6 78 18t80 34q-86 -62 -188 -96t-216 -34q-146 0 -274 56t-222 154q4 4 9 10t11 10zM484 1074
q-4 -2 -7 -6t-5 -6q-2 8 -2 16v16q0 16 2 32t8 34q4 16 13 33t23 31q10 12 22 21t26 19l-2 2q28 0 65 -2t59 -8q34 -12 75 -42l41 -30q14 -14 28 -11t28 3t16 -17t-16 -37t-70 -32t-98 20q-48 32 -107 15t-99 -51zM528 682q-4 12 -6 26t-2 28q0 16 3 32t11 34q4 12 10 22
t10 18q4 6 7 10t7 8q6 -6 13 -11t13 -9q14 -8 51 -27t45 -27q6 -6 14 -33t-4 -37q-10 -12 -63 -10t-75 -2q-10 -2 -19 -8t-15 -14zM546 974v0v-2v2zM1424 840q0 18 -11 39t-15 25q2 -2 3 -8t1 -24q0 -24 -1 -81t-33 -127q-30 -68 -67 -102l-37 -34v22q-6 -24 -49 -55
l-43 -31v28q112 104 138 168l26 64q-20 -64 -70 -115t-100 -99q-48 -46 -124 -70l-76 -24q108 62 162 138l54 76q-56 -54 -95 -60l-39 -6q34 24 55 54t51 80q32 48 36 134l4 86q-16 -38 -39 -55l-23 -17l5 51q5 51 9 89t-8 91l-12 53q0 -26 -11 -35l-11 -9v22q0 22 -24 94
q-22 72 -55 99t-39 25t-3 -10l3 -8l-10 -1q-10 -1 -26 23q-12 20 -31 32t-25 14q6 -4 9 -15l3 -11l-22 8q-22 8 -94 20q-72 10 -106 -9l-34 -19q8 -6 29 -3l21 3q0 -6 -29 -15t-65 -15q-28 -2 -44 -14t-22 -22q-14 -10 -25 -19t-21 -21t-18 -24t-14 -26q-12 -26 -17 -52
t-5 -48t3 -41t7 -33q2 -14 5 -22t3 -10l2 2q4 -14 12 -24t16 -14q-2 -2 -5 -4t-7 -4q-14 -6 -30 -9t-32 -1t-32 10t-30 18q-12 10 -23 24t-17 30q-8 16 -11 33t-3 35t3 35t9 35q8 16 17 32t19 30q12 14 25 27t27 25l-28 -24q-14 -12 -26 -26t-23 -29t-17 -33q-8 -16 -13 -34
t-5 -38q-2 -18 1 -37t9 -37q8 -18 18 -34t26 -30l16 -12q8 -6 16 -10t18 -8t20 -6q8 -2 19 -2t21 2q10 0 20 3t18 9q10 4 18 9t16 11l7 7l7 7q2 2 4 3t4 3q0 2 2 4t2 4q8 -22 6 -49t-4 -35q-4 -6 -10 -14t-12 -18q-6 -8 -11 -18l-11 -22q-8 -20 -12 -40t-4 -38q0 -20 3 -38
t9 -32q0 -4 1 -7t3 -7q12 -54 54 -99l42 -45q-84 -12 -136 38l-52 50h-2q-6 6 -21 26t-17 40l2 -27q2 -27 10 -51q-32 -10 -66 -7t-52 7q-20 4 -39 11t-35 17t-30 21t-26 23q-22 22 -35 40l-13 18v0q-42 60 -66 154l-24 94q6 -20 20 -40l14 -20q-24 34 -24 142v108
q0 -24 9 -48l9 -24q4 52 44 191t184 263q144 126 250 154l106 28q-30 -10 -39 -20l-9 -10q94 38 148 40l54 2q-16 -10 -20 -16l-4 -6q100 4 211 -22t143 -48q30 -22 53 -56l23 -34q80 -38 133 -103t69 -105t8 -75l-8 -35l7 -15q7 -15 43 -99q38 -86 19 -180zM180 588
q8 -6 18 -11t22 -9q-44 -36 -49 -73l-5 -37q-42 40 -57 101t-17 103q2 0 2 -1t2 -1q14 -18 35 -37t49 -35z" />
</svg>
