<?xml version="1.0" standalone="no"?>
<!DOCTYPE svg PUBLIC "-//W3C//DTD SVG 1.1//EN" "http://www.w3.org/Graphics/SVG/1.1/DTD/svg11.dtd" >
<svg xmlns="http://www.w3.org/2000/svg" xmlns:xlink="http://www.w3.org/1999/xlink" version="1.1" viewBox="-10 0 1472 2048">
   <path fill="currentColor"
d="M1016 1033v-8v-8q-2 -152 -16 -253t-36 -167q-12 -34 -25 -59t-25 -45q-14 -18 -28 -32t-28 -24q-14 -12 -32 -18t-34 -10q-18 -4 -32 -5t-24 -1h-6h-4h-4h-6q-10 0 -24 1t-32 5q-16 4 -34 10t-32 18q-14 10 -28 24t-28 32q-20 30 -38 73t-32 109q-14 62 -22 146t-10 196
v6v8v8v8q2 148 16 246t36 160q12 34 25 59t27 43q12 18 26 32t28 22q14 12 32 19t34 11q18 2 32 3t24 1h6h4h4h6q10 0 24 -1t32 -3q16 -4 34 -11t32 -19q14 -8 28 -22t26 -32q22 -28 40 -70t32 -106q14 -60 22 -142t10 -190v-7v-7zM942 1447q-12 32 -24 55t-24 39
q-12 18 -25 30t-25 20q-12 10 -27 16t-31 8q-14 4 -28 5t-22 1h-4h-4v0h-2h-1h-1v0v0h-4h-4q-8 0 -22 -1t-28 -5q-16 -2 -31 -8t-27 -16q-12 -8 -25 -20t-25 -30q-18 -26 -36 -66t-32 -102q-14 -60 -22 -143t-8 -197q0 -158 14 -261t36 -167q12 -32 24 -56t24 -42t25 -30
t25 -20q12 -10 27 -16t31 -10q14 -2 28 -3t22 -1h4h4v0h2h1h1v0h4h4q8 0 22 1t28 3q16 4 31 10t27 16q12 8 25 20t25 30q18 26 36 68t32 104t22 148t8 204q0 154 -14 254t-36 162zM1418 771q-48 -162 -131 -264t-179 -160t-197 -78t-185 -20q-86 0 -186 20t-197 78t-179 160
t-130 264q-18 64 -26 128t-8 124q0 62 8 125t26 127q48 162 130 264t179 160t197 79t186 21q84 0 185 -21t197 -79t179 -160t131 -264q18 -64 26 -127t8 -125q0 -60 -8 -124t-26 -128zM884 1633q-36 28 -86 37t-72 9t-72 -9t-86 -37q-50 -40 -101 -158t-51 -452t51 -452
t101 -158q36 -28 86 -36t72 -10q22 2 72 10t86 36q50 40 101 158t51 452t-51 452t-101 158z" />
</svg>
