<?xml version="1.0" standalone="no"?>
<!DOCTYPE svg PUBLIC "-//W3C//DTD SVG 1.1//EN" "http://www.w3.org/Graphics/SVG/1.1/DTD/svg11.dtd" >
<svg xmlns="http://www.w3.org/2000/svg" xmlns:xlink="http://www.w3.org/1999/xlink" version="1.1" viewBox="-10 0 1466 2048">
   <path fill="currentColor"
d="M222 302q-26 4 -56 16t-52 28q-16 10 -33 26t-29 30q-12 18 -25 45t-19 49l-8 24v1006l8 24q6 22 19 50t25 44q24 30 58 55t70 37q30 8 91 10t453 2t452 -2t90 -10q38 -12 72 -37t56 -55q14 -16 27 -44t19 -50l6 -24v-1006l-6 -24q-6 -22 -19 -49t-27 -45
q-10 -14 -27 -30t-33 -26q-16 -12 -40 -23t-44 -15l-24 -8h-494q-204 0 -354 1t-156 1zM898 568q56 10 96 29t66 49q10 14 21 36t17 40q4 14 5 26t1 42q0 34 -1 44t-5 24q-10 38 -35 68t-63 52l-18 12l12 4q16 4 36 15t34 21q30 22 51 58t31 80q4 22 4 60t-4 58
q-18 78 -77 130t-149 70q-36 8 -79 9t-231 1h-244v-934l254 2q170 0 215 1t63 3zM574 832v110l116 -2q82 0 102 -1t34 -5q40 -10 59 -35t19 -69q0 -34 -12 -56t-38 -34q-22 -12 -58 -15t-132 -3h-90v110zM574 1210v128l128 -2q106 0 131 -3t51 -15q32 -14 46 -40t14 -66
q0 -50 -22 -80t-68 -44q-14 -4 -34 -5t-114 -1h-132v128z" />
</svg>
