<?xml version="1.0" standalone="no"?>
<!DOCTYPE svg PUBLIC "-//W3C//DTD SVG 1.1//EN" "http://www.w3.org/Graphics/SVG/1.1/DTD/svg11.dtd" >
<svg xmlns="http://www.w3.org/2000/svg" xmlns:xlink="http://www.w3.org/1999/xlink" version="1.1" viewBox="-10 0 1464 2048">
   <path fill="currentColor"
d="M722 381q-22 0 -44 1t-44 3q-2 -4 -4 -9t-6 -9q12 -12 19 -27t7 -33q0 -36 -28 -61t-68 -25t-68 25t-28 61q0 30 18 53t48 31q0 2 -1 5t-1 5v4q0 2 2 4q-114 32 -210 98t-166 157t-109 203t-39 236q0 150 56 282t154 230t230 155t282 57t282 -57t230 -155t154 -230
t56 -282t-56 -281t-154 -229t-230 -155t-282 -57zM480 307q0 -26 22 -46t52 -20t51 20t21 46q0 14 -4 25t-14 19q-6 -4 -13 -6t-15 -2q-16 0 -29 8t-21 20q-22 -6 -36 -23t-14 -41zM722 1713q-126 0 -237 -48t-194 -131t-131 -194t-48 -237t48 -237t131 -193t194 -130
t237 -48t237 48t194 130t131 193t48 237t-48 237t-131 194t-194 131t-237 48zM1148 1361l38 26q38 -62 59 -134t21 -150q0 -26 -3 -53t-7 -53l-44 10q-4 0 -7 -2t-5 -6q0 -4 2 -7t6 -5l44 -10q-24 -100 -83 -184t-143 -140l-28 44q-2 4 -6 5t-6 -3q-4 -2 -5 -6t1 -6l28 -46
q-62 -38 -135 -60t-153 -22q-26 0 -52 3t-50 7l12 50q0 4 -2 8t-6 4q-4 2 -7 -1t-5 -7l-10 -50q-104 24 -189 83t-141 143l44 28q4 2 5 6t-1 8q-2 2 -6 3t-8 -1l-46 -28q-38 62 -60 135t-22 153q0 28 3 54t7 52l52 -12q4 0 8 2t4 6t-2 8t-6 4l-52 12q24 102 84 187t146 141
l32 -50q2 -2 6 -3t8 1t4 6t-2 6l-32 52q62 36 134 57t150 21q28 0 56 -3t54 -7l-10 -52q-2 -4 0 -8t6 -4t8 2t4 6l12 50q102 -24 185 -84t139 -144l-40 -26q-2 -2 -3 -6t1 -8q2 -2 6 -3t8 1zM504 951l98 36q12 -10 24 -19t26 -17v-200l88 186q6 2 11 2t9 2l-14 14
q-6 -2 -12 -2h-12q-62 0 -106 44t-44 106q0 14 2 26t6 24l-12 18v-1v-1h-198l186 -86q2 -16 7 -31t13 -29zM396 1501l268 -446l376 -352l-268 446l-2 2zM950 1245l-98 -38q-10 12 -22 23t-24 19l2 -2l-4 208l-82 -184q-12 0 -22 -2l-20 -4l14 -14q8 2 14 3t14 1
q62 0 106 -45t44 -107q0 -16 -3 -33t-11 -31l10 -16v0l204 4l-184 82q0 16 -3 31t-9 29zM720 1057q-18 0 -32 15t-12 33q0 20 15 33t33 11q20 0 33 -14t11 -34q0 -18 -14 -32t-34 -12z" />
</svg>
