<?xml version="1.0" standalone="no"?>
<!DOCTYPE svg PUBLIC "-//W3C//DTD SVG 1.1//EN" "http://www.w3.org/Graphics/SVG/1.1/DTD/svg11.dtd" >
<svg xmlns="http://www.w3.org/2000/svg" xmlns:xlink="http://www.w3.org/1999/xlink" version="1.1" viewBox="-10 0 2028 2048">
   <path fill="currentColor"
d="M2006 1335q-6 -44 -28 -78t-56 -60q-38 -32 -84 -46t-94 -16q-40 0 -79 6t-77 18q-12 4 -22 9t-22 9q0 -2 -2 -5t-4 -5q-10 -24 -21 -46t-15 -48q-2 -20 -3 -38t3 -36t9 -35t11 -35q2 -10 0 -15t-10 -9q-4 -2 -7 -3t-7 -1q-20 -4 -41 -2t-41 8q-8 2 -13 6t-5 12
q-2 6 -3 10t-3 8q-6 20 -11 39t-13 35q-22 46 -46 89t-48 87q-4 4 -7 9t-5 9q-10 -18 -18 -35t-10 -37q-4 -22 -5 -44t3 -44q4 -16 9 -32t11 -32q2 -8 1 -12t-9 -8l-8 -4q-4 -2 -6 -2q-22 -4 -44 -2t-42 8q-8 2 -11 7t-5 11l-12 40q-6 20 -14 38l-68 152l-68 152
q-6 16 -14 32t-16 30q-4 4 -6 8t-6 8q-2 -2 -2 -4v-4q0 -10 -1 -20t1 -20l12 -56q6 -28 14 -56q6 -24 12 -47t12 -47q2 -8 2 -15t-6 -13q-10 -12 -27 -14t-27 8q-2 0 -4 1t-4 3q0 -4 1 -7t1 -5q2 -18 2 -36t-4 -34q-6 -22 -22 -34t-38 -12q-10 0 -21 2t-21 6q-40 16 -73 44
t-59 62l-5 5q-3 3 -7 5q-34 20 -69 39t-71 37q-12 8 -25 15t-27 13q-10 -10 -20 -19t-20 -19q-32 -26 -65 -52t-67 -54q-28 -22 -56 -48t-50 -56q-16 -24 -25 -49t-11 -53q-2 -36 8 -70t28 -64q24 -40 56 -72t66 -62q38 -30 78 -56t82 -50q60 -32 121 -60t125 -48
q66 -20 134 -29t138 -1q28 2 54 9t50 21q18 10 33 24t23 34q6 22 6 43t-4 41q-10 42 -32 78t-52 66q-48 52 -106 88t-124 58q-38 14 -77 22t-79 12q-32 2 -64 -1t-64 -15q-20 -8 -38 -19t-32 -29q-2 -2 -5 -4t-9 0q-4 2 -5 7t1 9q2 8 5 15t7 13q10 18 24 31t30 23
q32 20 67 28t73 10q56 2 110 -6t108 -22q76 -22 142 -60t120 -98q44 -50 74 -107t36 -123q4 -34 0 -66t-20 -62q-16 -32 -42 -55t-58 -41q-46 -24 -96 -35t-102 -13h-34h-34q-62 2 -123 15t-119 35q-46 16 -89 34t-85 40q-92 46 -177 103t-155 133q-36 38 -64 81t-46 91
q-4 16 -8 31t-6 29q-2 2 -1 3t-3 3v13v15q4 4 5 10t1 12q10 34 28 65t40 59q34 38 73 71t81 63q34 24 71 50t73 52q6 4 12 9t12 11q-6 2 -11 5t-9 5q-48 24 -94 52t-88 60q-24 20 -48 42t-40 48q-28 44 -36 91t12 97q6 16 16 28t22 22q4 2 9 5t9 5q14 2 27 4t25 6h24h24
q40 -4 77 -18t71 -36q52 -36 86 -84t48 -110q12 -44 12 -89t-14 -89q0 -4 -2 -8t-2 -8l-4 -8q-2 -4 -4 -10q28 -16 55 -32t55 -30h2q-2 6 -4 11t-2 9q-10 36 -16 72t-4 74q4 40 15 77t35 69q18 28 54 28t56 -26q8 -10 15 -20t11 -20q14 -28 27 -56t25 -56q0 -2 1 -3t3 -5
q-2 14 -3 26t-1 24q-2 18 0 36t8 34t16 26t26 12q12 2 22 -3t18 -11q12 -10 23 -23t19 -29q24 -42 47 -84t43 -84q22 -46 42 -94t42 -94q0 -4 1 -6l3 -6q4 20 9 38t11 36q6 22 15 42t19 40q6 10 5 16t-7 14q-28 34 -55 67t-53 65q-6 8 -12 15t-10 15q-2 6 -4 11t-4 11
q-2 10 4 20t18 12t23 3t21 -1q38 -2 71 -15t63 -35q38 -28 52 -67t4 -85q-2 -12 -7 -24t-9 -24q-2 -6 -1 -10t3 -10q32 -44 59 -91t51 -95q0 -2 1 -3l3 -3q8 40 21 80t35 76q-12 10 -22 20l-20 20q-22 24 -40 50t-28 56q-4 14 -6 27t0 27q2 22 18 35t38 7q46 -10 85 -33
t69 -61q20 -26 23 -55t-5 -59q-2 -8 -5 -17t-5 -17q10 -4 22 -8t22 -6q60 -14 119 -11t117 25q34 12 60 34t42 54q20 40 10 77t-48 63l-8 4q-4 2 -8 6q0 2 -1 5t-1 5t3 3t5 1q12 0 23 -5t21 -13q24 -16 40 -39t18 -53q2 -2 1 -2t3 -2v-13v-13q-4 -2 -3 -2t-1 -2h2zM446 1443
q-4 54 -27 98t-63 78q-22 20 -48 34t-56 18q-10 2 -21 2t-21 -4q-16 -8 -21 -20t-5 -26q0 -22 7 -43t17 -39q14 -26 34 -46t42 -38q36 -28 73 -53t75 -47q2 0 3 -1l1 -1q6 22 9 44t1 44zM848 1133q-2 18 -6 35t-8 33q-18 58 -39 113t-45 111q-6 10 -12 19t-10 19l-3 3l-3 3
q-6 6 -12 6t-10 -10t-7 -21t-5 -23q-2 -6 -2 -14v-16q0 -54 16 -103t44 -95q12 -18 25 -35t33 -29q6 -4 12 -7t14 -5q10 -2 15 2t3 14zM1124 1483q24 -28 49 -57t49 -57q4 32 -36 78t-62 36zM1438 1405q-4 4 -10 6t-12 6q-4 2 -6 0t-2 -6v-7q0 -3 2 -5q10 -36 28 -66t46 -54
h1h1q14 36 0 72t-48 54z" />
</svg>
