<?xml version="1.0" standalone="no"?>
<!DOCTYPE svg PUBLIC "-//W3C//DTD SVG 1.1//EN" "http://www.w3.org/Graphics/SVG/1.1/DTD/svg11.dtd" >
<svg xmlns="http://www.w3.org/2000/svg" xmlns:xlink="http://www.w3.org/1999/xlink" version="1.1" viewBox="-10 0 1240 2048">
   <path fill="currentColor"
d="M610 806v0v0v0q30 -2 59 -30l29 -28q-24 14 -46 20t-42 6t-42 -6t-46 -20l29 28q29 28 59 30zM508 1546h-22h-33h-27h-14q-12 0 -19 3t-11 5q-4 6 -5 12t3 14q8 22 23 38t21 20q6 6 16 10t22 4q10 0 19 -4t15 -10q18 -20 29 -38t13 -24q2 -4 2 -10t-4 -12q-4 -4 -11 -6
t-17 -2zM190 810q-2 24 8 43l10 19q0 -18 4 -31t8 -23q2 26 10 55t32 55q16 18 72 40t104 -20q2 6 4 13t4 13q8 26 0 54l-8 28l24 -34q24 -34 20 -70q26 -2 48 -19t20 -43l-37 9q-37 9 -77 -39q-22 -26 -93 -76t-173 -24q10 2 21 5t23 7h-2q-8 4 -14 15t-8 23zM282 804
q46 26 86 59t58 61v0q-14 8 -48 16t-74 -22q-26 -18 -28 -55t6 -59zM808 1546h-14h-27h-33h-20q-10 0 -18 2t-12 6q-4 6 -4 12t2 10q2 6 13 24t29 38q6 6 15 10t19 4q12 0 22 -4t16 -10q6 -4 21 -20t23 -38q4 -8 3 -14t-5 -12q-4 -2 -11 -5t-19 -3zM738 952q-4 36 20 70
l24 34l-8 -28q-8 -28 0 -54q2 -6 4 -13t4 -13q48 42 104 20t72 -40q24 -26 32 -55t10 -55q4 10 8 23t4 31l10 -19q10 -19 8 -43q-2 -12 -8 -23t-14 -15h-1h-1q12 -4 23 -7t21 -5q-102 -26 -173 24t-93 76q-40 48 -77 39l-37 -9q-2 26 20 43t48 19zM794 924v0q18 -28 58 -61
t86 -59q8 22 6 59t-28 55q-40 30 -74 22t-48 -16v0zM1114 1220q-6 44 -28 81t-50 61q-8 -56 -10 -120t-2 -80q0 -36 16 -58t22 -26t13 -8t15 -8q42 -22 86 -54t44 -86q0 -38 -18 -58t-32 -30q-2 -2 -4 -3t-4 -3q-4 -4 -8 -7t-6 -7q-10 -24 -10 -68t6 -52q0 -2 25 -42t13 -84
q-6 -18 -17 -32t-29 -22q-12 -8 -28 -11t-34 -5q0 -4 -1 -9t-3 -9q-2 -6 -3 -13t1 -13q0 -12 1 -21t5 -15q20 -32 57 -44l37 -12l38 -8l-26 -30q0 -2 -39 -29t-109 -27q-18 0 -38 3t-38 9q-60 18 -102 61t-58 65q-6 -2 -14 -5t-16 -5q-10 -38 9 -80l19 -42l-29 2
q-29 2 -79 46q-6 -16 -13 -47t9 -73q-72 26 -97 61t-29 71q-18 -14 -20 -46t-4 -42q-18 2 -55 46t-35 108q-4 2 -9 3t-9 3q-16 -22 -58 -65t-102 -61q-18 -6 -38 -10t-38 -4q-70 0 -109 28t-39 30l-26 30l38 8l37 12q37 12 57 44q4 6 5 15t1 21q2 6 1 13t-3 13q-2 4 -3 9
t-1 9q-18 2 -34 5t-28 11q-18 8 -29 22t-17 32q-12 44 13 84t25 42q6 8 6 52t-10 68q-2 4 -6 7t-8 7q-2 2 -4 3t-4 3q-14 10 -32 30t-18 58q0 54 44 86t86 54q8 4 15 8t13 8t22 26t16 58q0 16 -2 80t-10 120q-28 -24 -50 -61t-28 -81l-44 56q-44 56 -22 172q18 106 95 149
t177 51q34 78 98 138t200 60v0v0v0q136 0 200 -60t98 -138q100 -8 177 -51t95 -149q22 -116 -22 -172zM974 324q14 -4 28 -6t30 -2q26 0 47 5t31 11q-6 2 -14 7t-16 9q-6 0 -14 -1t-16 -1q-26 0 -49 7t-43 21q-30 22 -45 41t-21 31q-6 -2 -11 -5t-13 -7q-2 -2 -6 -4t-8 -2
q14 -22 46 -56t74 -48zM1042 382q-2 2 -4 5t-4 5q-8 14 -10 29t-4 29q0 16 -3 30t-11 24q-10 2 -19 4t-17 4q-6 -6 -14 -15t-20 -19q4 -12 14 -35t30 -39q12 -10 28 -15t34 -7zM140 348q-8 -4 -16 -9t-14 -7q10 -6 31 -11t47 -5q16 0 30 2t28 6q42 14 74 48t46 56q-4 0 -8 2
t-6 4q-8 4 -13 7t-11 5q-6 -14 -21 -32t-45 -40q-20 -14 -43 -21t-49 -7q-8 0 -16 1t-14 1zM284 478q-12 10 -20 19t-14 15q-8 -2 -17 -4t-19 -4l-36 -122q18 2 34 7t28 15zM180 1036q-6 -2 -13 -6t-13 -8q-36 -20 -67 -42t-31 -56q0 -26 9 -38t21 -20l8 -10q-2 18 -4 32
t-4 18l20 -36q20 -36 30 -106q2 -28 -3 -72t-13 -66q0 12 -1 24t-1 22q0 -2 -1 -4t-3 -2q-8 -10 -22 -37t-8 -49q2 -8 7 -14t15 -12q8 -4 20 -6t28 -2q30 0 59 7t47 11q60 20 122 63t82 59h2l18 14l-12 -20l-44 -56q-44 -56 -126 -92q6 -8 21 -20t49 -30q52 -24 111 -37
t127 -13t127 13t111 37q34 18 49 30t21 20q-82 36 -126 92l-44 56l-12 20l18 -14h2q20 -16 82 -59t122 -63q18 -4 47 -11t59 -7q16 0 28 2t20 6q10 6 15 12t7 14q6 22 -8 49t-22 37q-2 0 -3 2t-1 4q0 -10 -1 -22t-1 -24q-8 22 -13 66t-3 72q10 70 30 106l20 36q0 -4 -3 -17
t-5 -31q2 2 4 3t4 3v2q12 8 21 20t9 38q0 34 -31 56t-67 42q-6 4 -13 8t-13 6q-22 12 -41 40t-21 70q-2 36 2 109t10 135q-30 12 -63 16t-65 6q-4 -10 -9 -21t-9 -21q-2 -6 -35 -90t-49 -110q12 94 36 171t40 117q-10 -2 -19 -3t-19 -1h-74h-114v0v0h-114h-74q-10 0 -19 1
t-19 3q16 -40 40 -117t36 -171q-16 26 -49 110t-35 90q-4 10 -9 21t-9 21q-32 -2 -65 -6t-63 -16q6 -62 10 -135t2 -109q-2 -42 -21 -70t-41 -40zM310 1490q-2 0 -3 2l-1 2q-18 18 -21 44t7 58q-54 0 -106 -24t-80 -70q-30 -48 -27 -113t15 -77q26 82 99 112t139 34
q-6 10 -12 18t-10 14zM882 1594q-16 44 -71 125t-201 83q-146 -2 -201 -83t-71 -125q-10 -26 -9 -44t11 -30q8 -8 26 -16t54 -8h50h63h77h77h63h50q36 0 54 8t26 16q10 12 11 30t-9 44zM1114 1502q-28 46 -80 70t-106 24q10 -32 7 -58t-21 -44l-1 -2q-1 -2 -3 -2
q-4 -6 -10 -14t-12 -18q66 -4 139 -34t99 -112q12 12 15 77t-27 113z" />
</svg>
