<?xml version="1.0" standalone="no"?>
<!DOCTYPE svg PUBLIC "-//W3C//DTD SVG 1.1//EN" "http://www.w3.org/Graphics/SVG/1.1/DTD/svg11.dtd" >
<svg xmlns="http://www.w3.org/2000/svg" xmlns:xlink="http://www.w3.org/1999/xlink" version="1.1" viewBox="-10 0 1468 2048">
   <path fill="currentColor"
d="M560 638q-32 0 -54 22t-22 54t22 54t54 22q30 0 53 -22t23 -54t-23 -54t-53 -22zM560 708q-18 0 -31 -8t-13 -20q0 -10 13 -18t31 -8t31 8t13 18q0 12 -13 20t-31 8zM1422 1010q-28 -28 -104 -49t-164 -38t-171 -27t-127 -16l8 -20q4 -10 6 -22q12 -4 25 -9t27 -9
q2 4 8 19t10 23q178 6 215 -91t43 -135q8 -36 19 -77t71 -105q-90 -26 -199 31t-153 157q-16 -6 -33 -10t-33 -8q-12 -46 -81 -142t-227 -96q-104 0 -204 41t-178 115q-42 40 -75 88t-55 102q-26 58 -38 121t-12 131q0 118 35 226t87 189t110 129t104 48q40 0 71 -24t39 -50
q6 18 23 61t23 59q10 20 46 33t56 -9q26 14 67 16t67 -38q50 12 89 -13t39 -61q24 0 36 -28t6 -56q-4 -20 -36 -77t-48 -81q32 26 95 30t73 -30q54 42 119 28t71 -48q64 18 122 -11t46 -75q104 -6 107 -85t-25 -107zM1062 766q-26 -10 -58 -16t-56 -6q-34 0 -59 13t-59 13
q-6 0 -20 -1t-28 -5q10 8 22 13t32 5q12 0 34 -5t42 -11v8v8q-36 8 -70 26t-46 24q-24 -54 -11 -102t33 -72q90 0 156 44t88 64zM1114 760l-18 -16q-14 -14 -29 -25t-29 -23q22 -44 50 -88t64 -74q-40 16 -76 58t-58 92q-12 -8 -23 -14t-23 -12q30 -68 98 -118t150 -54
q-54 50 -57 133t-49 141zM964 822q-6 -12 -11 -31t-3 -31q10 0 25 2t19 4q-2 6 -3 16l-1 10q2 -2 6 -11t8 -13q18 2 41 8t37 14q-16 10 -46 21t-72 11zM804 620q-72 70 -61 150t37 120q-36 62 -104 103t-152 61q94 0 152 -20t90 -44q20 -16 32 -30t18 -22q70 4 154 16
t159 27t130 28t67 21q8 6 15 17t9 25q-104 -16 -256 -29t-202 -15q18 2 82 14t138 26t140 27t88 19q-14 22 -44 34t-76 2q24 34 -15 63t-107 7q14 34 -35 54t-117 -16q0 34 -63 36t-97 -36q0 6 3 13t5 9q-10 98 -79 155t-151 57q-102 0 -193 -38t-160 -106t-109 -161
t-40 -203q0 -114 39 -212t107 -170t159 -112t195 -40q116 0 173 67t69 103z" />
</svg>
