<?xml version="1.0" standalone="no"?>
<!DOCTYPE svg PUBLIC "-//W3C//DTD SVG 1.1//EN" "http://www.w3.org/Graphics/SVG/1.1/DTD/svg11.dtd" >
<svg xmlns="http://www.w3.org/2000/svg" xmlns:xlink="http://www.w3.org/1999/xlink" version="1.1" viewBox="-10 0 1460 2048">
   <path fill="currentColor"
d="M734 1519q-6 0 -13 -2t-15 -4q-2 -2 -3 -2t-3 -2q-8 -2 -14 -4t-14 -4h-1t-3 -2l-12 -4l-12 -4q-2 0 -3 -1t-3 -1q-6 -4 -13 -6t-13 -6q-2 0 -3 -1t-3 -1l-10 -5q-6 -3 -12 -5l-2 -1q-2 -1 -4 -3l-8 -4l-8 -4l-6 -3l-6 -3q-4 -2 -9 -5t-11 -5l-3 -3q-1 -1 -3 -1
q-8 -4 -14 -8t-14 -8q0 -2 -2 -3t-4 -3q-4 -2 -9 -5t-9 -7q-2 -2 -4 -3l-2 -1q-6 -4 -10 -7t-8 -7q-2 0 -4 -2l-4 -4q-4 -2 -8 -5t-8 -7q-2 -2 -4 -3t-4 -3q-4 -4 -9 -8t-11 -8l-1 -1l-1 -1q-6 -4 -11 -9t-9 -11q-2 0 -4 -2l-2 -2l-8 -8l-8 -8l-3 -3l-3 -3l-9 -9
q-5 -5 -9 -11h-2q-4 -6 -9 -11t-9 -11q-2 0 -3 -2t-1 -4q-4 -4 -7 -8t-7 -8l-3 -3l-3 -3q-4 -6 -8 -11t-6 -9q-54 -72 -88 -156t-47 -172t0 -176t55 -170l-100 126q-48 68 -69 146t-21 158t20 160t56 154q2 2 4 6t4 6q0 4 2 6t2 4l1 2q1 2 3 2q0 4 1 6t3 4q2 4 5 8t5 8
q0 2 2 4t2 4q4 4 6 9t6 9q0 2 2 3t2 3l8 12l8 12v0l1 1q1 1 1 3q4 4 8 9t8 9q0 2 2 4t2 4q4 4 7 8t7 8q2 0 3 2t1 4q6 4 10 10t10 10v0v1v1l9 9q5 5 9 11q2 0 4 2t2 4q4 2 8 6l8 8l3 3l3 3q4 4 10 9t10 9v0q2 2 3 2t1 2q4 4 9 8t9 6l4 4l4 4q4 2 8 5t8 7q2 0 4 2l4 4
q4 2 9 5t9 7l3 3q1 1 3 1l1 1l1 1q4 2 8 5t8 5q2 2 4 3t4 3q6 4 13 8t13 8q2 0 4 1t4 3q4 2 9 5t11 7q2 0 5 2t5 2q4 2 7 4t7 4l1 1q1 1 3 1l2 1q2 1 4 1q4 4 10 6l12 4q0 2 2 2h2q6 4 13 7t13 5q2 0 4 1l2 1q8 2 14 5t12 5h1h1q8 2 15 5t13 5q2 0 4 1l2 1q8 2 15 4t15 4
q230 42 384 -11t245 -133t129 -154l38 -74q-56 74 -133 121t-165 70t-183 22t-191 -23zM512 1019q10 16 22 32t26 28l11 11q5 5 9 11q2 0 3 2t3 2l11 11q5 5 11 9v1v1v0q6 4 12 10t14 10q0 2 2 3l2 1q8 6 14 10t12 10h1h1q2 2 5 4t7 4l2 1q2 1 2 3q6 2 10 5t10 7h1h1
q4 4 9 6t9 4l2 1q2 1 4 3q2 0 5 2t7 4h2q6 4 12 6t12 6q2 0 3 1t3 1q4 2 9 4t11 4q2 0 4 1t4 3q4 2 9 3t9 3q2 0 5 1t5 1q6 2 13 5t13 3q178 30 292 -11t180 -103t90 -118l24 -56q-74 108 -208 153t-288 5q-6 -2 -13 -4t-13 -4q-2 0 -4 -1t-4 -1q-6 -2 -10 -4t-10 -2
q-2 -2 -4 -3t-4 -1q-6 -2 -11 -4t-9 -4q-2 0 -3 -1t-3 -1q-6 -4 -12 -7t-12 -5q-4 -2 -7 -3t-7 -3q0 -2 -2 -3t-4 -1l-8 -4q-4 -2 -8 -6h-1q-1 0 -3 -2q-4 -2 -9 -5t-9 -5q-2 -2 -4 -3l-2 -1q-4 -2 -7 -4t-7 -4q-6 -6 -12 -10t-12 -10q-2 0 -4 -2l-2 -2q-68 -54 -119 -125
t-77 -153q-26 -84 -19 -176t53 -168l-74 106q-70 100 -70 223t54 227q8 18 19 35t21 33zM1014 855q4 2 7 3t5 1t3 1t3 1q4 2 8 3t8 3q198 38 269 -52t85 -112q-46 68 -123 86t-173 -4q-8 -2 -16 -5t-16 -5q-8 -4 -18 -8t-18 -8q-18 -8 -34 -18t-32 -22q-86 -66 -127 -177
t15 -213l-40 56q-40 60 -45 131t23 137q30 70 88 123t128 79z" />
</svg>
