<?xml version="1.0" standalone="no"?>
<!DOCTYPE svg PUBLIC "-//W3C//DTD SVG 1.1//EN" "http://www.w3.org/Graphics/SVG/1.1/DTD/svg11.dtd" >
<svg xmlns="http://www.w3.org/2000/svg" xmlns:xlink="http://www.w3.org/1999/xlink" version="1.1" viewBox="-10 0 1461 2048">
   <path fill="currentColor"
d="M759 466q-20 6 -57 23t-71 37q-78 44 -132 54t-84 -12q-20 -16 -22 -23t14 -17q8 -6 32 -10t46 -2q24 2 40 -1t16 -9q2 -20 -74 -20t-96 20q-42 42 -7 79t123 45q52 4 88 -4t114 -44q102 -46 176 -60t112 4q28 16 31 37t-23 31q-34 12 -81 8t-61 -20q-14 -18 -37 -13
t-23 29q0 46 122 50t166 -40q70 -70 -47 -123t-265 -19zM83 566q-92 50 -15 109t279 93q128 20 284 24t302 -7t265 -36t173 -61q34 -22 36 -60t-28 -54q-20 -10 -25 -8t-5 20q0 32 -44 57t-123 43t-192 28t-253 10q-154 0 -273 -11t-198 -31t-116 -49t-27 -65q8 -22 3 -22
t-43 20zM83 794q6 18 14 50t16 58q16 50 11 65t-43 55q-88 90 -80 200t106 184q34 24 105 28t93 -16q8 -10 5 -14t-21 -4q-30 0 -85 -46t-79 -90q-22 -46 -20 -105t28 -91l28 -36l16 38q6 16 36 65t66 101t69 109t43 85q16 44 36 64t76 50q56 26 97 36t127 14q168 8 279 -38
t129 -126q4 -20 35 -74t69 -110q72 -108 111 -187t69 -183q28 -92 20 -104t-76 20q-50 22 -116 39t-150 26t-184 13t-220 0q-246 -8 -367 -30t-241 -84q-4 -2 -5 9t3 29z" />
</svg>
