<?xml version="1.0" standalone="no"?>
<!DOCTYPE svg PUBLIC "-//W3C//DTD SVG 1.1//EN" "http://www.w3.org/Graphics/SVG/1.1/DTD/svg11.dtd" >
<svg xmlns="http://www.w3.org/2000/svg" xmlns:xlink="http://www.w3.org/1999/xlink" version="1.1" viewBox="-11 0 952 2048">
   <path fill="currentColor"
d="M799 534q-54 2 -102 30t-82 70q-40 46 -68 99t-46 109q-34 -28 -67 -59t-87 -47q-42 -12 -85 -6t-85 36q-18 16 -32 36t-20 40q-16 54 6 97t38 61l44 48q8 6 18 24t2 44q-8 28 -38 43t-66 5q-16 -4 -33 -16t-11 -28q2 -6 6 -12t6 -12q4 -4 5 -8t1 -6q6 -22 -2 -45
t-30 -29t-41 1t-27 33q-10 30 11 77t101 71q92 28 161 -12t81 -104q6 -42 -11 -76t-51 -72l-36 -42q-16 -16 -20 -42t12 -46t38 -27t56 3q50 14 79 44t67 58q-16 50 -27 99t-19 95l-8 44q-26 140 -53 221t-79 125q-10 8 -26 17t-40 9q-12 2 -16 -4t-4 -10q0 -8 5 -13l9 -9
q8 -4 16 -12t8 -28q-2 -24 -20 -42t-46 -18q-22 2 -47 22t-25 56q2 38 35 64t87 24q28 -2 87 -22t121 -96q74 -86 103 -179t45 -165l22 -128q10 0 21 1t21 1q92 2 138 -35t48 -71q0 -22 -13 -39t-33 -17q-14 0 -29 10t-19 30t13 37t-9 35q-18 12 -51 18t-81 0l12 -64
q18 -88 48 -177t112 -91q6 0 22 2t16 16q0 6 -2 9t-6 15q-6 8 -9 16t-3 16q2 22 18 36t40 14q34 -2 46 -27t12 -41q-2 -40 -39 -63t-93 -21z" />
</svg>
