<?xml version="1.0" standalone="no"?>
<!DOCTYPE svg PUBLIC "-//W3C//DTD SVG 1.1//EN" "http://www.w3.org/Graphics/SVG/1.1/DTD/svg11.dtd" >
<svg xmlns="http://www.w3.org/2000/svg" xmlns:xlink="http://www.w3.org/1999/xlink" version="1.1" viewBox="-10 0 1620 2048">
   <path fill="currentColor"
d="M350 646v464q0 42 10 55t52 25l-14 78q-22 -4 -43 -8t-41 -12q-36 -14 -46 -44t-10 -64v-198v-198v-26q-18 2 -34 3t-30 3q-18 4 -27 17t-9 35q-2 28 -2 57v57q0 14 -1 27t-3 27q-2 24 -14 44t-32 34v3v1q32 22 41 53t9 65v56v54q0 42 14 57t56 17l10 2v72q-30 0 -58 -4
t-54 -16q-28 -16 -40 -42t-12 -56q-2 -30 -2 -61v-63v-12v-10q-2 -38 -18 -55t-52 -23v-4v-4v-29v-31l2 -2q38 -10 53 -28t15 -58v-49v-51q0 -16 1 -33t5 -35q6 -36 32 -58t70 -28q12 -2 25 -3t25 -1h60h62v0zM512 1082q-6 36 19 65t63 37q38 6 74 1t72 -15q4 16 7 33t5 33
q0 2 -3 6t-7 6q-54 16 -108 19t-108 -17q-34 -14 -58 -37t-36 -57q-22 -52 -21 -106t25 -106q34 -76 110 -96t140 10q40 18 61 51t27 73q4 24 5 49t1 51h-135h-133v0zM686 1012q0 -44 -23 -70t-63 -26q-36 2 -63 30t-25 66h174zM1366 1402v-72l20 -2q30 -2 44 -16t14 -44
v-57v-57q2 -14 2 -27t2 -27q4 -24 16 -43t34 -33q-38 -24 -45 -60t-9 -74v-52v-52q0 -36 -15 -50t-51 -16l-12 -2v-72q30 0 60 4t58 22q24 16 34 40t12 52v68q0 34 2 68v20q0 10 4 18q6 24 22 37t42 13v72q-24 0 -41 12t-23 38q-2 8 -3 18t-1 20q-2 34 -2 67v67
q-2 52 -30 81t-80 35q-14 2 -27 3t-27 1v0zM1382 858l-16 74q-30 -10 -59 -15t-59 -1q-20 4 -31 12t-13 22t5 27t25 21q14 8 29 13t31 13q10 4 19 8t17 8q44 20 60 50t10 78q-2 34 -26 58t-68 34q-50 10 -101 7t-101 -23l14 -74q22 6 43 11t43 9q18 2 36 1t36 -3
q12 -2 21 -8t11 -20t-2 -25t-14 -17q-14 -10 -29 -17t-31 -13l-36 -16q-18 -8 -36 -18q-50 -28 -49 -97t59 -95q16 -8 34 -13t38 -7q34 -6 69 0t71 16zM1076 856l-18 76q-28 -10 -57 -15t-59 -1q-20 4 -31 12t-13 22q-4 16 4 28t26 20q16 8 32 14t32 14q8 2 16 6l16 8
q44 22 60 53t10 81q-6 32 -33 56t-71 32q-44 6 -88 4t-86 -14q-10 -4 -14 -9t-2 -17q4 -14 7 -28t5 -28q22 6 43 11t43 9q18 2 36 1t36 -3q12 -2 21 -9t11 -21q2 -12 -2 -23t-14 -17q-18 -10 -35 -18t-33 -16t-32 -15t-32 -15q-50 -30 -49 -98t59 -96q26 -12 52 -17t54 -3
q26 2 52 7t54 9v0z" />
</svg>
