<?xml version="1.0" standalone="no"?>
<!DOCTYPE svg PUBLIC "-//W3C//DTD SVG 1.1//EN" "http://www.w3.org/Graphics/SVG/1.1/DTD/svg11.dtd" >
<svg xmlns="http://www.w3.org/2000/svg" xmlns:xlink="http://www.w3.org/1999/xlink" version="1.1" viewBox="-10 0 1620 2048">
   <path fill="currentColor"
d="M198 875q14 0 25 2t19 6t13 8t5 10q0 8 -2 15t-6 17q-4 8 -7 15t-5 13q-2 2 -4 2t-4 -2l-1 -2t-1 -4q2 -4 2 -10v-14q0 -10 -2 -17t-6 -13q-6 -6 -12 -8t-14 -2q-10 0 -19 3t-15 9t-10 16t-4 20t3 20t9 18q4 10 10 19t14 17l12 20l12 20q4 10 7 21t3 25q0 22 -9 40
t-27 30t-41 18t-53 6q-20 0 -37 -3t-29 -11q-12 -6 -18 -14t-6 -16q0 -2 1 -5t3 -7q2 -6 4 -10t6 -10q2 -4 6 -9t6 -11l8 -8l8 -8h4q2 0 4 2t2 4t-2 4q-4 2 -6 6l-4 8q-2 4 -3 10t-1 12q0 12 3 21t11 17q8 6 18 10t20 4q18 0 30 -5t22 -13q8 -10 13 -21t5 -23t-3 -23t-9 -21
q-4 -10 -10 -20l-12 -20l-12 -20l-12 -20q-4 -10 -7 -20t-3 -22q0 -16 7 -29t21 -25q14 -10 34 -16t46 -6zM538 881q2 2 3 4t1 4t-3 4t-9 2h-19q-11 0 -23 2q-12 0 -25 1t-27 3q-12 30 -22 59t-18 59q-8 28 -12 52t-4 42q0 20 8 31t24 11t34 -14t38 -42q2 -2 4 -2t2 2
q2 2 3 4t-1 4q-10 18 -23 33t-29 27q-18 14 -33 20t-31 6t-28 -4t-20 -12q-8 -6 -12 -17t-4 -25q0 -18 5 -43t13 -57t19 -64t25 -64q-16 2 -31 4t-29 6l-3 -3q-1 -1 1 -3q2 -4 4 -6l6 -6q4 -2 9 -5t11 -5t11 -3t11 -1h4h6h4h6l16 -36q8 -18 16 -34q10 -18 18 -33t18 -29
q4 -4 9 -8t11 -6q6 -4 13 -7t13 -5t11 -3t9 -1t6 1t0 3q-10 16 -20 34t-20 38q-12 20 -21 41t-19 43q12 0 24 -1t24 -1h23h23zM1290 261q10 0 18 2t12 6q6 6 10 12t8 14q2 8 2 16t-2 18t-5 20t-9 20q-2 2 -3 2t-3 -2q-2 0 -3 -2t-3 -4q2 -8 -1 -14t-9 -10q-6 -6 -16 -8
t-24 -2q-26 0 -51 9t-51 29q-26 18 -51 43t-49 57q-24 30 -47 66t-45 76q-20 40 -38 82t-34 84q-16 44 -28 86t-22 84q-8 44 -13 82t-5 72q0 20 6 29t16 9q8 0 15 -3t13 -9q8 -6 16 -16t18 -22h4h2q2 2 3 4t-1 6q-12 18 -27 33t-31 29q-16 12 -32 18t-28 6t-20 -3t-14 -11
q-4 -6 -6 -15t-2 -19q0 -30 6 -66t18 -80t29 -90t37 -96q22 -48 46 -97t50 -97q28 -48 56 -92t58 -82t59 -70t59 -56t58 -36t54 -12zM188 1787q-10 0 -17 -3t-13 -7t-10 -11t-6 -13q-2 -8 -3 -17t1 -19t5 -20t9 -20q2 -2 3 -2t3 2t4 3t2 3q-2 8 1 14t9 10q6 6 16 8t24 2
q26 0 52 -9t52 -27q24 -20 49 -45t49 -55q26 -32 48 -68t44 -76q20 -40 39 -82t33 -84q16 -42 28 -85t22 -85q8 -42 13 -81t5 -73q0 -18 -5 -28t-17 -10q-6 0 -14 3t-14 9q-8 8 -16 17t-18 21q-2 2 -3 2t-3 -2t-2 -4v-4q12 -20 27 -35t31 -27q18 -12 33 -19t29 -7q12 0 20 4
t12 10q4 8 7 16t3 20q0 28 -6 65t-20 79q-12 44 -28 91t-38 95q-20 48 -44 97t-52 97t-56 92t-58 82q-30 40 -59 71t-59 55t-58 37t-54 13zM1026 1193q-26 0 -39 -14t-13 -42q0 -10 1 -22t5 -24q2 -14 5 -27t7 -27q6 -14 11 -28t11 -30q6 -14 14 -27t16 -27q-6 4 -13 9
t-13 9t-12 9t-10 11h-4q-2 0 -4 -2v-4v-4q10 -12 26 -23t34 -23q20 -12 39 -21t37 -17q2 0 5 1t3 3q2 0 2 2v6q-20 26 -36 54t-28 58t-18 60t-6 58q0 18 5 27t17 9q8 0 18 -5t22 -17q12 -10 24 -24t26 -32q12 -18 25 -38t27 -42t26 -45t24 -47q0 -2 6 -6t14 -8q10 -4 19 -6
t19 -2q8 0 11 3t-1 7q-8 16 -16 31t-14 29l-12 28q-6 14 -10 28t-7 28t-5 28t-3 29t-1 31q0 20 5 30t15 10t22 -9t26 -27q2 -2 3 -2t3 2q2 0 3 2t1 4q-12 16 -23 29t-25 21q-12 8 -24 12t-22 4q-26 0 -39 -15t-13 -45q0 -32 6 -63t16 -63q-24 42 -48 76t-52 60
q-26 26 -48 38t-40 12zM1540 875q14 0 25 2t19 6t12 8t4 10q0 8 -1 15t-5 17q-4 8 -7 15t-7 13q0 2 -2 2t-4 -2q-2 0 -3 -2t-1 -4q2 -4 3 -10t1 -14q0 -10 -2 -17t-6 -13q-6 -6 -12 -8t-14 -2q-10 0 -19 3t-15 9q-8 6 -11 16t-3 20t3 20t7 18q6 10 12 19t12 17q8 10 14 20
t10 20q6 10 9 21t3 25q0 22 -9 40t-27 30t-42 18t-52 6q-22 0 -38 -3t-28 -11q-12 -6 -19 -14t-7 -16q0 -2 1 -5t3 -7q2 -6 5 -10t5 -10q4 -4 7 -9t7 -11l8 -8l8 -8h4q2 0 4 2q0 2 1 4t-1 4q-4 2 -7 6t-5 8t-3 10t-1 12q0 12 4 21t12 17q8 6 17 10t21 4q16 0 29 -5t21 -13
q10 -10 14 -21t4 -23t-2 -23t-8 -21t-11 -20t-11 -20q-8 -10 -13 -20t-11 -20t-8 -20t-2 -22q0 -16 7 -29t19 -25q14 -10 34 -16t48 -6z" />
</svg>
