<?xml version="1.0" standalone="no"?>
<!DOCTYPE svg PUBLIC "-//W3C//DTD SVG 1.1//EN" "http://www.w3.org/Graphics/SVG/1.1/DTD/svg11.dtd" >
<svg xmlns="http://www.w3.org/2000/svg" xmlns:xlink="http://www.w3.org/1999/xlink" version="1.1" viewBox="-10 0 1616 2048">
   <path fill="currentColor"
d="M732 1489v-1064q0 -8 -3 -14t-7 -10q-4 -6 -10 -8t-14 -2h-500q-6 0 -12 2t-12 8q-4 4 -6 10t-2 14v1064q0 8 2 14t6 10q6 4 12 7t12 3h500q8 0 14 -3t10 -7t7 -10t3 -14zM1430 1089v-664q0 -8 -2 -14t-6 -10q-6 -6 -12 -8t-12 -2h-500q-8 0 -14 2t-10 8q-4 4 -7 10
t-3 14v664q0 8 3 14t7 10q4 6 10 8t14 2h500q6 0 12 -2t12 -8q4 -4 6 -10t2 -14zM1596 291v1464q0 14 -5 26t-13 22q-10 10 -22 15t-26 5h-1464q-14 0 -26 -5t-22 -15q-8 -10 -13 -22t-5 -26v-1464q0 -14 5 -25t13 -21q10 -10 22 -15t26 -5h1464q14 0 26 5t22 15q8 10 13 21
t5 25z" />
</svg>
