<?xml version="1.0" standalone="no"?>
<!DOCTYPE svg PUBLIC "-//W3C//DTD SVG 1.1//EN" "http://www.w3.org/Graphics/SVG/1.1/DTD/svg11.dtd" >
<svg xmlns="http://www.w3.org/2000/svg" xmlns:xlink="http://www.w3.org/1999/xlink" version="1.1" viewBox="-11 0 1622 2048">
   <path fill="currentColor"
d="M1561 292q-84 46 -175 81t-186 58t-193 36t-198 13q-102 0 -200 -13t-193 -36t-186 -58t-175 -81l-8 -4q-4 -2 -8 -2q-10 0 -18 4t-14 12q-8 10 -7 26t15 26q84 62 176 111t192 83q102 34 209 52t217 18q108 0 215 -18t209 -52q100 -34 192 -83t176 -111zM1321 648
q-48 18 -97 33t-93 25q-10 2 -17 8t-9 14q-34 90 -110 178t-164 178q-4 2 -9 6t-13 4t-14 -3t-8 -7q-90 -90 -166 -177t-108 -177q-4 -10 -11 -16t-17 -8q-44 -10 -93 -25t-97 -33q-4 -2 -6 -2h-6q-4 0 -9 1t-9 5q-6 4 -9 12t-3 14q8 76 38 150t84 150q50 74 113 141
t125 131q118 120 213 237t103 247q2 12 11 20t19 8h184q6 0 12 -3t10 -7t6 -10t2 -12q-4 -88 -37 -176t-97 -180q-14 -20 -28 -39t-28 -37q-6 -8 -5 -16t7 -12q4 -6 8 -10l10 -10q62 -64 125 -131t113 -141q54 -76 84 -150t38 -148zM611 1386q-2 -4 -7 -7t-13 -3
q-10 0 -17 6t-9 10q-58 86 -88 170t-34 168q0 6 2 12t6 10t10 7t12 3h184q10 0 19 -8t11 -20q2 -40 15 -81t35 -83q8 -14 5 -27t-9 -19q-22 -30 -51 -62t-71 -76zM809 742q42 0 67 -2t35 -2t19 8t9 20q0 4 -1 7t-1 5q-6 14 -33 61t-75 95q-6 4 -11 6t-9 2q-6 0 -11 -2
t-11 -6q-48 -48 -75 -95t-31 -61q-2 -2 -3 -5t-1 -7q0 -12 9 -20t19 -8t35 2t67 2h2z" />
</svg>
