<?xml version="1.0" standalone="no"?>
<!DOCTYPE svg PUBLIC "-//W3C//DTD SVG 1.1//EN" "http://www.w3.org/Graphics/SVG/1.1/DTD/svg11.dtd" >
<svg xmlns="http://www.w3.org/2000/svg" xmlns:xlink="http://www.w3.org/1999/xlink" version="1.1" viewBox="-10 0 1304 2048">
   <path fill="currentColor"
d="M276 278q-46 0 -78 33t-32 79t32 78t78 32t79 -32t33 -78t-33 -79t-79 -33zM1008 278q-46 0 -79 33t-33 79t33 78t79 32t78 -32t32 -78t-32 -79t-78 -33zM642 176q-46 0 -79 33t-33 79t33 78t79 32t79 -32t33 -78t-33 -79t-79 -33zM1236 584q-56 20 -112 37t-108 29
q-12 2 -20 10t-12 16q-38 106 -126 207t-190 205q-4 4 -10 8t-16 4t-16 -4t-10 -8q-102 -104 -190 -205t-126 -205q-4 -10 -12 -17t-18 -11q-54 -12 -110 -29t-112 -39q-4 0 -7 -1t-5 -1q-6 0 -12 2t-10 6q-8 6 -11 14t-3 16q10 88 44 174t96 174q58 84 131 162t147 152
q66 70 130 138t114 136t83 139t37 147q2 14 12 23t24 9h212q6 0 13 -3t11 -7q6 -6 8 -13t2 -13q-4 -102 -43 -204t-111 -208q-16 -24 -32 -45t-34 -43q-6 -10 -5 -19t7 -15l11 -11l11 -11q72 -74 145 -152t131 -162q62 -88 96 -174t44 -172zM414 1438q-4 -4 -9 -8t-15 -4
q-12 0 -19 7t-9 11q-68 100 -103 198t-39 194q0 6 2 13t8 13q4 4 11 7t13 3h212q14 0 24 -9t12 -23q2 -46 17 -93t41 -97q10 -16 6 -31t-10 -21q-26 -34 -60 -72t-82 -88zM642 692q50 0 79 -2t39 -2q14 0 23 9t9 23v7q0 3 -2 5q-6 18 -37 73t-87 109q-6 6 -12 8t-12 2
q-4 0 -11 -2t-13 -8q-56 -54 -87 -109t-37 -73q-2 -2 -2 -5v-7q0 -14 10 -23t22 -9q10 0 39 2t79 2v0z" />
</svg>
