<?xml version="1.0" standalone="no"?>
<!DOCTYPE svg PUBLIC "-//W3C//DTD SVG 1.1//EN" "http://www.w3.org/Graphics/SVG/1.1/DTD/svg11.dtd" >
<svg xmlns="http://www.w3.org/2000/svg" xmlns:xlink="http://www.w3.org/1999/xlink" version="1.1" viewBox="-10 0 1297 2048">
   <path fill="currentColor"
d="M1089 306q-32 -18 -117 -8t-195 46q-96 66 -183 148t-153 186t-107 232t-47 284q-2 8 -16 3t-18 -7q-52 -100 -67 -212t29 -264q8 -14 -9 -26t-23 -8q-8 10 -41 47t-59 83q-66 114 -79 239t21 243t111 218t193 162q114 64 239 77t242 -20t217 -110t164 -191
q74 -132 83 -315t-17 -354t-75 -300t-93 -153z" />
</svg>
