<?xml version="1.0" standalone="no"?>
<!DOCTYPE svg PUBLIC "-//W3C//DTD SVG 1.1//EN" "http://www.w3.org/Graphics/SVG/1.1/DTD/svg11.dtd" >
<svg xmlns="http://www.w3.org/2000/svg" xmlns:xlink="http://www.w3.org/1999/xlink" version="1.1" viewBox="-10 0 1420 2048">
   <path fill="currentColor"
d="M1348 1193q26 -38 39 -81t13 -89q0 -62 -24 -118t-68 -100l-390 -390q-42 -42 -98 -66t-120 -24t-120 24t-98 66l-390 390q-44 44 -68 100t-24 118t24 118t68 100l352 352q10 12 21 23t23 21q44 42 98 64t114 22q62 0 118 -24t100 -66l380 -382l1 -1l1 -1l8 -8
q12 -10 22 -22t18 -26v0v0zM1286 1023q0 30 -9 57t-23 49q-10 14 -20 25t-20 19v2q-46 44 -97 60t-97 16q-24 0 -46 -3t-40 -7q-102 -26 -202 -111t-152 -215q28 12 58 18t62 6q120 0 207 -79t99 -195l222 220q28 28 43 64t15 74zM700 439q80 0 137 56t57 138q0 80 -57 136
t-137 56t-137 -56t-57 -136q0 -82 57 -138t137 -56zM172 1161q-28 -28 -43 -63t-15 -75q0 -38 15 -74t43 -62l150 -152q-30 100 -42 204t-4 206q2 36 7 71t11 67zM428 777q12 96 55 190t107 171t145 133t171 80q30 8 59 11t57 3h2l-186 186q-28 28 -64 43t-74 15
q-28 0 -53 -8t-47 -20v-2q-10 -4 -18 -11t-16 -15h-2l-2 -2l-36 -38q-58 -66 -94 -163t-44 -213q-6 -90 5 -181t35 -179z" />
</svg>
