<?xml version="1.0" standalone="no"?>
<!DOCTYPE svg PUBLIC "-//W3C//DTD SVG 1.1//EN" "http://www.w3.org/Graphics/SVG/1.1/DTD/svg11.dtd" >
<svg xmlns="http://www.w3.org/2000/svg" xmlns:xlink="http://www.w3.org/1999/xlink" version="1.1" viewBox="-11 0 1567 2048">
   <path fill="currentColor"
d="M1062 302q-94 16 -189 37t-183 45t-166 52t-138 56q-136 64 -227 172t-137 258q-14 50 -18 84t-4 102q-2 156 54 282t170 230q96 86 211 130t247 44q100 0 193 -26t173 -75t144 -118t106 -157q36 -78 72 -186t66 -232t54 -256t36 -260q14 -140 18 -182t-4 -48h-6h-10
q-4 0 -69 6t-145 13t-154 16t-94 13zM694 724q2 8 7 53t9 101q4 54 8 94t4 42q2 0 19 -13t39 -35q54 -50 102 -86t56 -32q10 4 -20 47t-88 107l-62 70l110 6q200 10 209 29t-179 33l-136 10l66 76q56 62 85 102t23 46q-6 4 -49 -26t-105 -84l-70 -62l-10 134q-8 104 -18 148
t-20 26q-8 -14 -18 -102t-10 -146q0 -26 -2 -44t-4 -18t-14 9t-24 23q-48 50 -117 101t-69 37q0 -12 33 -55t79 -95l64 -70l-134 -10q-110 -10 -146 -15t-36 -13q0 -12 76 -23t160 -13q30 0 51 -2t21 -4q0 -4 -18 -26t-42 -52q-116 -130 -103 -143t145 103q28 26 51 44
t25 18t3 -19t1 -45q0 -50 8 -128t16 -100q4 -18 12 -17t12 19z" />
</svg>
