<?xml version="1.0" standalone="no"?>
<!DOCTYPE svg PUBLIC "-//W3C//DTD SVG 1.1//EN" "http://www.w3.org/Graphics/SVG/1.1/DTD/svg11.dtd" >
<svg xmlns="http://www.w3.org/2000/svg" xmlns:xlink="http://www.w3.org/1999/xlink" version="1.1" viewBox="-10 0 1493 2048">
   <path fill="currentColor"
d="M476 1454q-66 -16 -102 -67t-36 -131q0 -24 2 -39t8 -31q16 -40 55 -69t93 -39q26 -6 36 -13t10 -21q0 -4 3 -15t7 -23q18 -52 48 -92t66 -56q36 -20 62 -25t70 -5q62 0 101 17t83 63l32 34l28 -10q106 -36 194 16t96 154l4 38l28 10q58 22 85 65t23 109q-4 42 -23 75
t-49 49l-20 12h-440q-252 0 -351 -1t-113 -5v0zM148 1394q-40 -10 -77 -41t-57 -69q-10 -24 -12 -36t-2 -52q0 -38 2 -51t10 -31q18 -40 52 -68t80 -38q8 -2 16 -6t10 -6q0 -2 2 -12t2 -24q2 -78 49 -141t121 -87q38 -12 84 -9t90 21q12 4 18 0t36 -42q16 -22 46 -46t58 -38
q30 -16 62 -23t70 -7q104 0 187 61t117 159q10 32 9 44t-13 12q-6 0 -19 2t-27 6l-34 10l-30 -32q-64 -64 -159 -76t-185 32q-34 16 -63 42t-51 58q-14 24 -30 58t-16 46q0 8 -9 13t-35 13q-82 28 -128 87t-46 139q0 28 7 60t17 52q4 8 6 14t2 8q-4 2 -75 2t-85 -4v0z" />
</svg>
