<?xml version="1.0" standalone="no"?>
<!DOCTYPE svg PUBLIC "-//W3C//DTD SVG 1.1//EN" "http://www.w3.org/Graphics/SVG/1.1/DTD/svg11.dtd" >
<svg xmlns="http://www.w3.org/2000/svg" xmlns:xlink="http://www.w3.org/1999/xlink" version="1.1" viewBox="-11 0 933 2048">
   <path fill="currentColor"
d="M853 16q-2 0 -39 38t-85 90l-120 126l-48 188l-134 2q-188 4 -296 19t-128 39q-4 4 -3 7t7 9q26 20 123 34t222 18t255 -2t218 -24q64 -12 80 -27t-20 -29q-26 -12 -101 -24t-117 -12q-12 0 -16 -1t-4 -7q0 -2 6 -26t14 -54l18 -74l112 -120q46 -48 79 -85t35 -39
q2 -14 -23 -34t-35 -12zM7 570q0 4 8 78t17 161t17 160t8 75q2 2 4 -2l6 -12q26 -76 73 -132t93 -66q22 -6 39 0t35 24q20 18 23 37t-11 27q-8 4 -16 -2t-16 -22q-22 -38 -58 -20t-76 88q-44 72 -54 138t24 66q12 0 37 -20t47 -46q14 -18 21 -31t15 -37q4 -16 10 -28t8 -14
t7 -3t9 -1q8 2 10 5t4 15q0 10 -3 23t-9 31q-8 26 -20 61t-30 97q-4 14 -9 27t-7 15q-6 10 -14 10t-12 -10q-4 -6 -2 -17t10 -39q4 -18 9 -33t7 -19q0 -4 -7 1t-19 17q-30 28 -58 39t-44 1q-6 -2 -7 -1t-1 7q0 24 15 164t17 144q10 12 65 27t119 25q50 8 160 8t160 -8
q42 -6 84 -16t64 -18q32 -12 38 -31t24 -175q8 -76 14 -131l6 -55l-9 6t-19 16q-24 20 -42 29t-36 9q-16 0 -24 -4t-12 -14q-4 -12 3 -26t29 -42q26 -32 33 -42t7 -16q0 -14 -24 -3t-40 31q-6 8 -14 18t-12 18q-10 16 -31 65t-35 87q-10 28 -20 42t-20 14q-6 0 -13 -6
t-7 -10q0 -8 9 -32t27 -62q12 -24 20 -42l8 -18q0 -2 -5 2t-13 10q-16 14 -34 22t-28 8q-12 0 -22 -6t-10 -12t-3 -5t-21 11q-30 16 -45 10t-15 -32v-16l-16 18q-24 22 -50 29t-44 -5q-10 -8 -10 -29t12 -55q20 -60 36 -85t32 -17q8 6 6 17t-16 41q-24 48 -25 71t19 17
t43 -35t39 -71q4 -12 9 -22t9 -14q6 -6 14 -5t12 11q2 6 -1 18t-15 40q-10 24 -15 40t-5 26q0 12 2 15t10 3q10 -2 24 -11t16 -17q10 -30 58 -149t54 -125t10 -7t10 1t9 5t5 7q0 4 -5 19t-13 31q-30 68 -60 147t-30 85t1 9t3 3q8 0 26 -12t38 -30q20 -16 27 -25t11 -21
q12 -36 21 -47t21 -5q6 2 7 6t-1 12v10v4q2 0 8 -5t12 -11q24 -22 44 -27t38 7q8 4 10 9t2 17q0 14 -12 36t-38 52q-10 10 -16 19t-6 11t3 3t7 1q6 0 42 -28t48 -42q4 -4 11 -66t23 -208q12 -110 20 -188l8 -78q0 -2 -7 0t-15 6q-24 8 -72 16t-108 14q-34 4 -100 6t-138 2
t-138 -1t-98 -5q-62 -6 -115 -14t-77 -16l-30 -10v10zM127 1562l8 15q8 15 20 35l28 48l12 160l12 162l12 10q22 20 76 30t138 12q96 2 165 -9t93 -33l14 -10l8 -164l10 -162l26 -44q10 -20 18 -34l8 -14q0 -2 -8 0t-20 6q-40 14 -111 25t-141 15q-78 4 -182 -9t-164 -33
q-10 -4 -16 -5z" />
</svg>
