<?xml version="1.0" standalone="no"?>
<!DOCTYPE svg PUBLIC "-//W3C//DTD SVG 1.1//EN" "http://www.w3.org/Graphics/SVG/1.1/DTD/svg11.dtd" >
<svg xmlns="http://www.w3.org/2000/svg" xmlns:xlink="http://www.w3.org/1999/xlink" version="1.1" viewBox="-11 0 1663 2048">
   <path fill="currentColor"
d="M488 280q-72 16 -108 94t-28 200q2 36 4 47l10 55q2 18 4 32l2 14q-2 0 -12 3t-26 7q-96 22 -167 55t-113 77q-30 30 -43 58t-11 62q0 20 6 41t18 41q10 16 39 46t53 46q50 32 70 39t34 -7q6 -6 8 -10t2 -10q0 -14 -6 -22t-20 -16q-68 -38 -103 -76t-35 -76q0 -14 5 -26
t15 -28q30 -40 99 -74t165 -56q26 -6 33 -6t7 4t16 55t30 87l18 48l-22 42q-10 16 -21 39t-17 37q-94 208 -109 363t53 223q16 16 31 24t37 14q50 14 114 -5t138 -67q26 -18 34 -27t8 -21t-12 -23t-26 -9q-4 0 -16 7t-26 17q-30 20 -62 36t-56 22q-26 8 -51 9t-41 -7
q-48 -20 -58 -100t20 -200q14 -56 42 -131t58 -133l14 -30l10 18q12 28 47 98t53 100q50 84 103 157t106 132t106 102t103 69q70 36 127 32t97 -46q30 -30 45 -77t17 -113q4 -118 -33 -265t-111 -309q-10 -22 -19 -39t-11 -19q-4 -6 -14 -8t-16 -2q-8 2 -16 10t-10 16t2 19
t22 51q52 110 86 221t48 211q4 32 5 88t-3 78t-12 43t-16 35q-14 20 -31 29t-43 9q-76 0 -188 -97t-222 -259q-48 -74 -93 -156t-81 -164l-16 -40l22 -40l48 -76q24 -38 52 -76l28 -40h44q114 0 226 13t211 35t182 54t141 72q26 18 49 41t33 41q6 12 7 19t1 21t-1 21t-7 15
q-14 28 -48 55t-84 47q-24 10 -33 19t-9 21q0 10 5 18t13 12q10 4 16 4t22 -6q70 -30 119 -70t67 -84q28 -80 -31 -157t-199 -137q-60 -26 -133 -48t-156 -37t-173 -24t-182 -11h-26l30 -36q26 -30 74 -78t74 -70q60 -50 113 -82t99 -46q24 -6 48 -6t40 8q20 8 33 28t21 50
q4 20 4 65t-4 73q-6 30 -5 40t9 18q6 6 10 8t14 2q18 0 25 -10t13 -44q2 -16 3 -36t1 -52q0 -40 -1 -54t-5 -30q-12 -50 -43 -84t-73 -44q-48 -12 -109 5t-129 60t-142 111t-148 158q-12 14 -22 26t-12 14q-4 6 -11 7t-35 3q-18 0 -45 3t-49 5q-58 6 -65 6t-9 -16
q-10 -40 -13 -74t-3 -78q0 -50 2 -72t12 -48q8 -28 24 -47t36 -25q10 -4 30 -4t34 4q24 6 56 23t62 41q20 14 28 17t18 -1q12 -2 18 -11t6 -21q0 -8 -2 -12t-12 -12q-12 -14 -42 -34t-54 -30q-42 -22 -79 -29t-69 1zM590 764l-12 18l-28 42q-16 24 -29 45t-17 25l-8 14
l-6 -18q-6 -16 -20 -61t-14 -49t17 -7t85 -9q14 -2 23 -2t9 2zM798 932q-16 6 -29 16t-21 22q-26 36 -15 78t51 62q12 6 19 7t23 1q18 0 25 -1t19 -7q52 -26 51 -87t-55 -85q-14 -8 -34 -9t-34 3z" />
</svg>
