<?xml version="1.0" standalone="no"?>
<!DOCTYPE svg PUBLIC "-//W3C//DTD SVG 1.1//EN" "http://www.w3.org/Graphics/SVG/1.1/DTD/svg11.dtd" >
<svg xmlns="http://www.w3.org/2000/svg" xmlns:xlink="http://www.w3.org/1999/xlink" version="1.1" viewBox="-10 0 1624 2048">
   <path fill="currentColor"
d="M34 1032q-6 0 -12 2t-12 8q-4 4 -7 10t-3 14v76q0 8 3 14t7 10q6 4 12 6t12 2q8 0 14 -2t10 -6q6 -4 8 -10t4 -14v-76q0 -8 -3 -14t-9 -10q-4 -6 -10 -8t-14 -2zM226 936q-6 0 -12 2t-12 8q-4 4 -7 10t-3 14v172q0 8 3 14t9 10q4 4 10 6t12 2q8 0 14 -2t10 -6q6 -4 9 -10
t3 -14v-172q0 -8 -3 -14t-7 -10q-6 -6 -12 -8t-14 -2zM418 804q-6 0 -12 2t-12 8q-4 4 -7 10t-3 14v374q0 8 3 13t7 11q6 4 12 6t12 2t13 -2t11 -6q4 -6 7 -11t5 -13v-374q-2 -8 -4 -14t-8 -10q-4 -6 -10 -8t-14 -2zM610 936q-6 0 -12 2t-12 8q-4 4 -7 10t-3 14v172
q0 8 3 14t7 10q6 4 12 6t12 2q8 0 14 -2t10 -6q6 -4 8 -10t4 -14v-172q0 -8 -3 -14t-9 -10q-4 -6 -10 -8t-14 -2zM802 1032q-6 0 -13 2t-11 8q-4 4 -7 10t-3 14v76q0 8 3 14t7 10q6 4 12 6t12 2t13 -2t11 -6t7 -10t3 -14v-76q0 -8 -2 -14t-8 -10q-4 -6 -11 -8t-13 -2z
M994 936q-6 0 -12 2t-12 8q-4 4 -7 10t-3 14v172q0 8 3 14t7 10q6 4 12 6t12 2t13 -2t11 -6t7 -10t5 -14v-172q-2 -8 -4 -14t-8 -10q-4 -6 -10 -8t-14 -2zM1186 804q-6 0 -13 2t-11 8q-6 4 -8 10t-2 14v374q0 8 3 13t7 11q4 4 11 6t13 2t12 -2t12 -6q4 -6 7 -11t3 -13v-374
q0 -8 -3 -14t-7 -10q-4 -6 -11 -8t-13 -2zM1378 936q-6 0 -13 2t-11 8q-6 4 -8 10t-2 14v172q0 8 3 14t7 10t11 6t13 2t12 -2t12 -6q4 -4 7 -10t3 -14v-172q0 -8 -3 -14t-7 -10q-4 -6 -11 -8t-13 -2zM1594 1042q-6 -6 -12 -8t-12 -2q-8 0 -14 2t-10 8q-6 4 -9 10t-3 14v76
q2 8 4 14t8 10q4 4 10 6t14 2q6 0 12 -2t12 -6q4 -4 7 -10t3 -14v-76q0 -8 -3 -14t-7 -10z" />
</svg>
