<?xml version="1.0" standalone="no"?>
<!DOCTYPE svg PUBLIC "-//W3C//DTD SVG 1.1//EN" "http://www.w3.org/Graphics/SVG/1.1/DTD/svg11.dtd" >
<svg xmlns="http://www.w3.org/2000/svg" xmlns:xlink="http://www.w3.org/1999/xlink" version="1.1" viewBox="-10 0 1164 2048">
   <path fill="currentColor"
d="M68 170q16 84 30 188t24 200t14 174t0 112q-6 46 -32 118t-52 130q-58 114 -51 145t97 77q34 18 42 40t2 78q-4 60 3 76t41 22q32 4 39 16t-1 44q-10 34 0 48t50 28q38 12 53 34t23 72q14 80 65 119t123 23q26 -4 88 -33t122 -63q60 -36 130 -66t106 -36q68 -10 83 -29
t41 -123q48 -190 32 -259t-78 57q-42 84 -134 160t-152 76q-14 0 -5 -11t37 -29q108 -68 169 -171t74 -219t-24 -234t-127 -214q-72 -78 -96 -85t34 67q54 68 83 186t17 214q-12 86 -59 156t-113 106q-26 16 -20 3t46 -59q44 -50 57 -85t13 -103q0 -70 -24 -144t-78 -163
t-140 -199t-212 -250q-102 -114 -83 -41t133 235q86 122 82 129t-98 -91q-78 -82 -177 -204t-179 -236q-20 -28 -22 -26t4 40z" />
</svg>
