<?xml version="1.0" standalone="no"?>
<!DOCTYPE svg PUBLIC "-//W3C//DTD SVG 1.1//EN" "http://www.w3.org/Graphics/SVG/1.1/DTD/svg11.dtd" >
<svg xmlns="http://www.w3.org/2000/svg" xmlns:xlink="http://www.w3.org/1999/xlink" version="1.1" viewBox="-10 0 1252 2048">
   <path fill="currentColor"
d="M642 174q-30 2 -54 6t-46 12q-12 4 -35 12t-33 14q-8 4 -38 20t-52 28q-40 24 -62 48t-32 54q-2 6 -3 8t-3 4q-10 4 -18 12t-14 16q-10 14 -16 34t-10 44v10v8l-2 6l-12 10q-26 22 -52 52t-46 58q-42 62 -70 132t-38 142q-4 26 -5 44t-1 48t1 47t5 43q8 48 22 96t36 92
q24 52 60 100t78 86l14 16l2 20q0 8 1 22t1 26q2 28 4 37t8 15q4 4 11 7l21 9q4 2 19 8t31 14q38 18 56 26t36 12q14 4 21 4t25 2h22l8 26q10 32 18 58t12 40q6 18 12 34t6 18q2 2 12 5t22 5q46 10 111 11t131 -7q22 -2 37 -10t21 -22q2 -2 2 -4t-2 -8v-8v-12l-2 -14l10 -2
q24 -4 36 -10t18 -16q0 -4 1 -7t1 -11q0 -10 -1 -20t-5 -32q-8 -30 -10 -44t0 -24l2 -8l6 -2q12 -4 17 -10t5 -14v-6l6 -2q12 -6 26 -9t34 -3h18l4 4q0 4 2 6l4 4q4 4 6 5t10 3q24 4 49 4t45 -4q14 -4 22 -7t14 -13q16 -14 25 -42t9 -56q0 -12 -2 -20t-6 -26q-8 -24 -16 -47
t-14 -35q-6 -8 -12 -15t-12 -11l-6 -3l-2 -1q0 -2 2 -5t4 -7q6 -10 17 -32t17 -36q18 -46 29 -94t15 -100q2 -16 2 -47t-2 -45q-4 -54 -15 -101t-29 -95q-8 -14 -20 -40t-22 -42q-18 -32 -42 -63t-50 -57l-16 -18l-2 -20q-6 -56 -18 -101t-32 -75q-14 -20 -41 -49t-53 -51
q-32 -26 -72 -41t-92 -21q-10 -2 -43 -3t-41 1zM722 214q30 4 60 14t56 22q20 10 32 19t28 25q12 12 32 38t22 30v2l-4 -2h-23q-9 0 -17 4q-10 6 -16 14t-6 18v3v1h2q2 0 2 -2q8 -4 14 -6t16 -2q8 0 12 1t10 3q12 4 20 9t18 15q14 14 21 37t9 71q2 24 2 61v53q-4 64 -21 122
t-43 104q-6 10 -22 33t-20 29l-16 16q-8 8 -18 14q-28 18 -58 30t-58 18q-12 2 -30 2t-28 -2q-12 -2 -27 -8t-29 -12q-38 -20 -69 -49t-73 -87l-6 -10v6q4 18 14 37t32 43q24 28 43 45t33 25l6 3q2 1 4 3h-1h-3h-8q-6 0 -12 -2q-16 0 -27 3t-15 11l-4 4h-10q-48 -2 -77 -11
t-45 -27q-20 -18 -41 -68t-27 -86q-2 -14 0 -18t10 -14q10 -10 13 -16t1 -14q-2 -2 -3 -2h-3q-6 0 -10 3l-12 9q-4 2 -8 5l-4 3q-8 2 -19 2t-19 -4q-22 -8 -39 -33t-23 -57q-2 -8 -2 -21t2 -19q4 -16 13 -30t23 -20q8 -6 21 -9t23 -1q18 2 29 15t19 43l4 14l10 -2
q16 0 26 -3t16 -9v-4v-12q-2 -4 -4 -13t-4 -17q-8 -36 -8 -54t10 -68q6 -24 8 -36t2 -24t-2 -22t-4 -18q-2 -4 -3 -7t-1 -5t5 -10t11 -18q8 -10 25 -27t29 -27q12 -8 30 -21t32 -21q42 -22 65 -29t63 -7q16 0 24 1t20 3zM508 244q4 2 2 7t-10 7q-2 2 -5 4t-7 4q-2 2 -7 6
t-9 8q-12 10 -19 17t-17 23t-16 24t-10 10q-4 4 -9 5t-15 -1t-17 0t-25 8q-16 4 -22 5t-6 -1l2 -3q2 -3 4 -7q16 -26 44 -49t66 -43q14 -8 24 -12t26 -10q14 -4 19 -5t7 3zM400 384l4 16q2 8 2 20q0 16 -1 28t-5 38q-4 28 -5 37t-1 25q0 14 1 22t5 24q4 12 5 21t-1 13
q0 2 -3 4t-7 2l-4 2v-8q-2 -14 -9 -27t-19 -21q-12 -10 -24 -14t-28 -4q-10 0 -18 1t-18 7q-4 2 -7 3t-3 -1l-1 -18q-1 -18 -1 -36v-23q0 -7 2 -13q4 -22 12 -36t22 -26q16 -14 34 -23t40 -13q10 -2 13 -3t7 -1t5 1zM228 558q2 0 2 2v6q0 2 1 4l1 2v1v3v4v2q-2 0 -2 1v1
q2 2 1 3l-1 1l-2 2v2h-2v1v1l-1 1l-1 1l-1 1l-1 1v1v1q-2 2 -6 13t-4 13v2q-2 0 -2 1v3v6q0 4 -2 10q-2 24 4 53t18 53q14 28 37 47t49 23l6 2v4q2 18 8 37t16 35t14 26t2 16t-9 11t-29 17q-48 28 -80 47t-48 31q-4 2 -13 7t-17 9q-20 12 -28 19t-8 19q-2 8 2 25t14 41
q2 8 6 19t6 17q4 8 8 21t8 23q12 28 16 43t10 41q4 16 8 47t4 37t-18 -14t-36 -46q-42 -54 -69 -116t-41 -128q-4 -16 -6 -31t-2 -17q2 -2 1 -2h-1v-2v-4v-4v-2q-2 0 -2 -2v-4q2 -4 1 -6l-1 -2v-2v-8v-7v-3q-2 0 -2 -5v-17v-18q0 -6 2 -6v-2v-8v-8v-2l1 -1q1 -1 -1 -5v-6
q0 -2 2 -2v-1v-3v-5v-1l1 -1q1 -1 -1 -3v-4q0 -2 2 -2v-1v-3v-3v-1v-1v-1v-3q0 -1 2 -1v-1v-3v-3v-1l1 -1q1 -1 1 -5v-4v-2q2 0 2 -1v-1q-2 -2 -1 -3l1 -1v-1v-3q0 -2 1 -4l1 -2v-2q0 -2 10 -37t12 -37v-2q0 -2 3 -8l3 -6v-1v-3l1 -1l1 -1v-1v-1q0 -2 1 -3l1 -1h1q1 0 1 -2
v-2v-2q2 0 2 -1v-1q0 -2 2 -6l2 -4v0q0 -2 3 -8t5 -8l1 -2q1 -2 3 -4q4 -10 6 -14l2 -4l1 -1l1 -1q0 -2 1 -3l1 -1q0 -2 1 -3l1 -1q0 -2 1 -3l1 -1q0 -2 1 -3t1 -3q2 0 2 -1v-1l1 -1l1 -1v-1v-1h1q1 0 1 -2t1 -2h1v-1v-1l1 -1l1 -1l1 -1l1 -1v-3q0 -1 2 -1v0v-2h2v-1v-1v-1
q0 -1 2 -1v-2h1h1v-1v-1q0 -2 1 -2h1l1 -1l1 -1v-2q2 0 2 -1v-1v-1q0 -1 2 -1l1 -1l1 -1v-1v-1h1q1 0 1 -2v-2h2v-2l1 -1l1 -1h1q1 0 1 -2v-1q0 -1 2 -1v-1v-1l1 -1l1 -1q2 -2 3 -2t1 -2v-1q0 -1 2 -1l1 -1l1 -1v-1q0 -1 2 -3l1 -1l1 -1l1 -1q1 -1 1 -3q2 0 3 -1t1 -3l1 -1
l3 -3q2 0 3 -2l1 -2l2 -2l4 -4l4 -4q2 -2 2 -4l11 -11l11 -11h1q1 0 1 -2t1 -2t3 2zM1052 604q60 70 95 152t45 176q2 16 3 52t-1 54q-4 58 -18 112t-40 106q-4 10 -13 26t-13 24l-2 4l-10 2q-20 2 -47 11t-53 21l-10 5q-2 1 -2 -1l2 -7q2 -7 6 -17q12 -32 24 -69t26 -81
l10 -30q6 -18 8 -30q10 -28 12 -40t2 -22q0 -16 -12 -30t-68 -60l-25 -25q-11 -11 -13 -15q-4 -6 0 -16t14 -28q8 -14 14 -26t10 -28q12 -36 21 -75t13 -79q2 -14 4 -35t2 -29v-12q0 -4 2 -4l4 4zM938 958q4 4 14 13t20 19q12 12 23 22t17 14q12 10 19 17t9 13q4 6 4 8v12
q-2 8 -5 24t-9 42q-8 34 -21 74t-33 90q-14 32 -19 40t-15 12q-10 2 -16 3t-26 1q-20 2 -29 3t-15 3q-4 2 -5 2h-1q0 -2 9 -17l39 -65q24 -38 40 -65t18 -33q2 -4 2 -5t-2 -3l-3 -3q-3 -3 -5 -7q-6 -6 -8 -10t-2 -6t1 -5t1 -9q12 -32 7 -77t-21 -63q-4 -4 -9 -8t-9 -4
q-2 0 -6 -3l-4 -3q0 -2 3 -5l7 -7q6 -2 10 -6t6 -8q2 -2 4 -3l2 -1q2 0 4 1t4 3zM384 990l8 8q6 6 10 14q6 6 12 13t8 9q8 10 29 22t61 32l34 16l2 10q2 16 13 54t17 50q8 16 17 21t23 1l6 -3q2 -1 4 -1t-1 7t-9 17q-10 10 -12 19t2 15q2 4 9 9t17 9l50 25q26 13 42 19
q8 4 15 7l7 3l-4 1q-4 1 -14 1q-66 2 -114 6t-110 12q-18 2 -28 3t-12 1q-2 -2 -3 -8t-3 -12q-2 -12 -1 -41t3 -51q0 -10 1 -21t1 -15q0 -20 -7 -20t-11 20q-2 8 -2 17t4 37q2 18 2 37t-2 27q0 4 -1 8t-1 6q-2 6 -3 7t-3 1q-4 0 -9 -3t-13 -9q-10 -8 -15 -10t-5 0q-2 2 -1 7
t7 11q4 6 5 11t-3 9q0 2 -3 3l-9 3q-10 2 -15 5t-5 9q0 2 1 2h5h12h16q14 -2 23 -1t17 3l4 2l2 8q0 20 6 68t12 94q4 20 6 33t2 15t-17 0t-33 -6q-26 -6 -53 -16t-71 -34q-16 -8 -28 -15t-16 -9l-8 -4v-8q0 -18 -3 -55t-7 -67q-8 -84 -27 -158t-45 -134q-2 -8 -4 -13l-2 -5
q0 -2 6 -7t16 -11q52 -40 91 -65t77 -41q6 -4 12 -6t8 -2t4 1t4 3zM906 1024q8 4 14 22t8 48q2 16 -1 31t-7 21l-2 2h-18q-20 -2 -44 -6l-36 -6l-4 -2v-16v-13v-5l4 -2q4 -2 6 -4q4 0 11 -1t9 -1h3h1l-7 -2q-7 -2 -11 -4h-3h-3h-2h-4q-4 2 -6 1t-4 -7q0 -2 -1 -5l-1 -3
q-2 -4 -2 -5v-1h1h1q2 0 7 -4t13 -10l36 -21q12 -7 20 -7q0 -2 1 -2h1q2 0 10 1t10 1zM826 1024l-1 1l-1 1q-2 2 -8 6t-14 12l-20 14l-6 2q-16 0 -30 -2t-24 -8q-6 -4 -13 -8t-7 -6t3 -2h5q4 2 12 3t14 1q8 0 20 -2t28 -6q12 -2 24 -5t16 -3l1 1zM474 1030q6 2 17 3t27 3
q22 2 26 3t4 3t-1 5t-1 7q-2 2 -3 6t-1 6q0 4 -1 5t-3 1t-14 -3l-20 -5q-22 -8 -34 -18t-10 -16q0 -4 1 -5t5 1q2 0 4 1t4 3zM604 1034h3h1q0 -2 23 6t35 12q16 8 23 12t17 10q4 4 11 7t13 3h1h3v1v3v5q0 1 -4 3t-10 4l-6 2h-4q-4 0 -12 4q-4 0 -5 2t3 0q4 0 21 4t19 8
q2 0 2 3v9l-2 10l-4 4q-2 0 -8 6t-14 12l-16 12q-8 6 -10 8q-16 12 -42 22t-38 10q-4 0 -6 -1t-4 -3q0 -2 -1 -3t-1 -3t-4 -12t-6 -14q-2 -8 -7 -21t-5 -19q-2 0 -2 -2v-4q-2 -8 -3 -28t1 -32v-7v-3l5 -15q3 -9 7 -11q4 -4 8 -5t10 -1h5q3 0 3 2zM780 1080q4 0 6 2t4 8
q4 6 4 14t-4 14q-2 6 -7 9t-15 3t-11 -2t-5 -14q0 -6 -1 -10l-1 -4v-2l-1 -2q-1 -2 -1 -4q0 -6 1 -7t3 -1q10 -6 16 -7t12 3zM804 1146q2 0 6 3t6 5q8 6 15 9t11 3h6v8v7q0 5 -2 11v15q0 11 -2 23q0 26 -2 44t-6 42q-2 10 -4 18t-4 8t-10 -18t-22 -48q-16 -40 -28 -61
t-24 -37q-2 -4 -4 -7t-2 -5l2 -2q2 -2 4 -6l6 -6l4 2q6 0 10 -1t12 -5q10 -4 16 -4t12 2zM902 1164q6 2 13 6t11 8l9 9q5 5 5 7t-19 34t-33 54q-12 22 -27 43t-19 23v-2q0 -2 2 -12q6 -24 11 -56t7 -70q0 -10 1 -19t1 -11v-9q0 -1 2 -1q10 -4 19 -5t17 1zM726 1192
q16 24 30 50t36 78q4 12 7 20t3 10h-3q-3 0 -17 -6q-26 -8 -50 -18t-50 -24q-20 -10 -35 -18l-15 -8v-4q0 -2 2 -4q4 -14 13 -27t23 -23q6 -6 26 -20t22 -14l3 2q3 2 5 6zM1128 1344q8 4 15 12t11 16q6 10 11 29t13 51q4 14 5 19t1 17v15q0 5 -2 11q-4 18 -14 31t-22 19
q-14 6 -42 8t-44 -2q-4 0 -6 -1t-2 -3t10 -5t30 -7q14 -2 22 -4l8 -2q0 -2 -2 -2t-10 -2q-6 -2 -26 -2t-34 2h-16q-10 0 -16 2h-18v-6q0 -2 -1 -14t-3 -24q-4 -36 -8 -60t-8 -40l-2 -6l6 -4q6 -4 22 -11t42 -17q16 -6 26 -10t18 -8q6 -4 10 -5t10 -1q4 0 7 1zM950 1400
q2 0 9 17t9 33q4 16 7 44t3 44v12l-14 4l-12 4q-6 2 -10 2h-6v-4q0 -2 -1 -8t-1 -14q-2 -6 -4 -23t-4 -33q-6 -32 -9 -53t-3 -23t2 -3t8 -1h16q8 0 10 2zM736 1400q18 0 43 3t27 5l2 13q2 13 2 23q2 14 2 26t2 46q2 28 3 39t3 37q2 16 3 38t1 54q2 48 4 74t6 48q0 8 1 12
l1 4q-2 2 -11 4t-17 4q-24 6 -47 8t-51 2q-32 0 -59 -3t-55 -9q-14 -2 -31 -6t-17 -6l-2 -6q-2 -6 -6 -16q-20 -66 -35 -133t-25 -145q-6 -30 -9 -62l-3 -32q2 0 32 -5t50 -9q26 -2 54 -5t52 -3q14 -2 41 -2t39 2zM880 1406q4 16 7 43t7 77q2 16 3 31t1 19q2 4 2 6t-2 2
q0 2 -18 5t-32 5q-6 2 -9 2h-3v-8q0 -6 -2 -14q-2 -36 -3 -62t-3 -58v-33v-13h4q2 0 4 -2q6 -2 16 -2h18h8q2 0 2 2zM878 1620l1 1q1 1 1 5t2 14t4 22q6 28 8 42l4 28v16l-12 4q-6 0 -11 2t-7 2q-4 2 -14 2h-10v-10q0 -10 -2 -24q0 -14 -1 -34t-1 -34l-2 -30h4q2 0 6 -1
t8 -3q4 0 8 -1t6 -1h2h2h1h3zM610 376q-6 0 -15 4t-19 10q-6 6 -17 16t-15 18q-8 12 -12 24t-2 18q0 4 3 8t5 4l2 -3q2 -3 4 -7q6 -14 16 -26t20 -20q4 -4 12 -7t16 -5q4 -2 9 -2h13q6 0 12 1l6 1h3q1 0 1 -4q2 -4 2 -8t-4 -8q-6 -8 -17 -12t-23 -2zM954 490q0 12 3 24
t11 30q2 4 3 9l1 5q0 4 -7 5l-21 3q-14 0 -17 1l-9 3q-4 0 -5 1t-1 3q0 8 5 14t13 8q12 4 31 -2t29 -16q8 -6 8 -9t-6 -11q-4 -8 -13 -25t-17 -39q-4 -4 -5 -8l-1 -4q-2 0 -2 3v5zM682 488q-2 12 5 32t19 42q2 6 4 9t2 5q0 4 -10 7t-20 1q-4 0 -10 -1t-12 -1q-16 -4 -19 -4
t-5 4t-2 7v7q4 8 17 13t33 5q18 0 27 -3t17 -11l6 -6q2 -2 2 -6q2 -4 2 -9t-2 -9l-6 -6q-4 -4 -8 -10q-10 -10 -15 -17t-13 -27q-2 -6 -5 -12t-3 -8l-4 -6v4zM820 508q-2 0 -2 2v8q0 22 12 49t34 57q6 6 21 25t23 27q8 10 11 18t1 16q-2 6 -4 11t-4 5l-8 3q-8 3 -16 9
q-22 10 -32 14t-18 6q-12 2 -20 3t-16 1q-14 0 -19 -5t-9 -21q-2 -6 -3 -10l-1 -4h-2l-3 6q-3 6 -3 12q-2 10 1 20t9 18l4 4h16q32 2 64 -8t68 -34l16 -10l2 -8q2 -2 3 -7t1 -7q2 -4 3 -8t1 -6q2 -8 0 -12t-16 -18q-34 -34 -66 -78t-36 -64q-2 -4 -3 -7t-3 -5t-3 -2h-3z
M294 624q-8 2 -13 9t-9 15q-2 6 -1 6t3 -2q6 -4 8 -6t8 -2q2 0 4 1l2 1l-1 3q-1 3 -1 7q-2 4 -3 9t-1 13q0 14 1 22t5 16q4 10 5 8t1 -22q2 -16 2 -22t2 -10q2 -8 7 -12t13 -2q4 2 7 7l9 15q2 6 5 11t5 7l4 4v-8q2 -22 -9 -42t-31 -26q-6 -2 -11 -2t-11 2zM948 772
q-30 16 -45 22t-33 8q-4 2 -7 3l-3 1v14v18q0 4 1 4h5q4 0 14 -2t18 -6q18 -6 36 -24t30 -42q2 -2 3 -4l1 -2l-6 3zM684 792q6 10 19 21t31 17q20 8 48 12t52 4h10v-16v-11q0 -5 -2 -7v-6h-36q-46 0 -73 -4t-49 -14h-2zM662 824q-4 2 -5 4t3 6q0 2 3 4t5 6q2 2 6 7t8 11
t9 12t9 10q14 16 32 22t48 6q26 0 47 -4t29 -10q2 -2 6 -8t4 -8h-11h-27q-48 0 -72 -3t-44 -13q-14 -6 -23 -15t-15 -21q-2 -4 -3 -5t-3 -1h-2h-4zM798 1184q-4 2 -5 8t3 10q6 6 13 3t7 -13v-3q0 -1 -2 -5q-4 -2 -8 -3t-8 3zM814 1240q-4 2 -6 5t-2 7v4q0 2 2 4q4 2 5 3t5 1
q2 0 4 -1t4 -3l3 -3q1 -1 1 -5t-1 -5l-3 -3q-2 -4 -6 -5t-6 1zM1078 1392q-18 2 -34 10t-24 18l-6 6h6q8 0 19 -4t29 -16q12 -6 19 -10t13 -6q4 -2 -4 -1t-18 3zM1056 1436q-4 0 -10 3l-10 5l-2 2l2 2h21q21 0 41 -2q8 -2 14 -2h8q2 -2 -5 -4t-15 -2q-8 -2 -23 -3t-21 1z
M1048 1480q-6 2 -10 4t-6 2q0 2 13 3t47 1h32q6 0 4 -2q-4 -2 -15 -4t-21 -4t-25 -2t-19 2z" />
</svg>
