<?xml version="1.0" standalone="no"?>
<!DOCTYPE svg PUBLIC "-//W3C//DTD SVG 1.1//EN" "http://www.w3.org/Graphics/SVG/1.1/DTD/svg11.dtd" >
<svg xmlns="http://www.w3.org/2000/svg" xmlns:xlink="http://www.w3.org/1999/xlink" version="1.1" viewBox="-10 0 1460 2048">
   <path fill="currentColor"
d="M720 305q-148 0 -279 56t-229 154t-155 229t-57 279q0 150 57 280t155 228t229 155t279 57t279 -57t229 -155t155 -228t57 -280q0 -148 -57 -279t-155 -229t-229 -154t-279 -56zM720 373q134 0 253 51t207 139t139 207t51 253q0 22 -1 42t-5 42q-12 52 -35 88t-53 60
q-42 38 -98 52t-110 14q-14 0 -29 -1t-29 -3q56 -56 89 -132t33 -162t-32 -161t-88 -131t-131 -88t-161 -32q-44 0 -86 9t-80 25q-6 -4 -10 -7t-10 -5q-22 -12 -64 -26t-100 -14q-40 0 -86 11t-92 41q88 -124 226 -198t302 -74zM606 1259q8 -34 27 -84t39 -94q6 -12 11 -24
t9 -22q32 108 56 177t58 113q4 6 10 12l12 12q-26 8 -53 13t-55 5q-32 0 -61 -5t-57 -17q0 -6 -1 -13t-1 -13q0 -18 2 -33t4 -27zM518 1301q-64 -46 -103 -119t-39 -159t40 -160t106 -120q14 8 27 18t25 20q20 22 43 65t39 83q4 12 8 23t8 19q-60 122 -99 193t-55 137z
M776 1095q-14 -34 -21 -57l-7 -23v0q-24 -94 -54 -176t-82 -142q26 -8 53 -13t55 -5q142 0 243 101t101 243q0 86 -39 158t-103 120q-8 -4 -15 -6t-9 -4q-10 -4 -24 -18t-28 -34q-20 -32 -38 -71t-32 -73zM720 1673q-134 0 -253 -51t-207 -139t-139 -207t-51 -253
q0 -18 1 -35t3 -35q40 -136 126 -192t176 -56q18 0 36 2t36 6q-64 56 -102 137t-38 173q0 86 32 161t88 131t131 89t161 33q50 0 96 -12t88 -32q24 8 53 14t63 10q12 2 26 3t28 1q40 0 85 -6t93 -18q-88 126 -228 201t-304 75z" />
</svg>
