<?xml version="1.0" standalone="no"?>
<!DOCTYPE svg PUBLIC "-//W3C//DTD SVG 1.1//EN" "http://www.w3.org/Graphics/SVG/1.1/DTD/svg11.dtd" >
<svg xmlns="http://www.w3.org/2000/svg" xmlns:xlink="http://www.w3.org/1999/xlink" version="1.1" viewBox="-10 0 1460 2048">
   <path fill="currentColor"
d="M720 304q-150 0 -281 57t-228 154t-154 229t-57 280q0 150 57 281t154 229t228 154t281 56t281 -56t228 -154t154 -229t57 -281q0 -148 -57 -280t-154 -229t-228 -154t-281 -57zM598 1546q-6 12 -27 7t-45 -13q-26 -10 -97 -45t-121 -91q-50 -58 -75 -130t-23 -144
q2 -74 21 -114t53 -86q34 -48 106 -104t100 -74q30 -18 64 -46t54 -52q18 -24 28 -47t8 -57q0 -34 1 -61t1 -39q-2 -10 0 -26t12 -12t12 15t2 23t-2 56t-6 94q-4 48 -35 89t-61 69q-28 30 -94 102t-98 118q-32 44 -47 99t-11 105t20 100t64 102q46 52 80 80t58 40l44 22
q20 10 14 20zM652 1618q-8 10 -18 15t-12 1t7 -8t17 -14q8 -8 9 -20t7 -12q4 -2 2 13t-12 25zM680 1510q-16 20 -66 -30t-84 -90t-62 -112t-30 -136q0 -62 28 -118t54 -92q24 -36 64 -88t54 -80t27 -59t17 -71q4 -38 2 -138l-2 -100l1 -40q1 -40 11 -32q10 6 13 39t3 69v152
q0 116 -10 156q-12 42 -36 86t-50 84q-28 40 -55 112t-25 126q2 52 26 124t48 108q22 36 51 77t21 53zM724 1648q-4 0 -4 -12v-30v-28q0 -12 4 -12t4 12v28v30q0 12 -4 12zM822 1634q-2 2 -13 -2t-19 -14t-10 -25t2 -15q6 0 7 13t9 21q8 10 17 14t7 8zM1126 1406
q-42 50 -95 83t-113 57q-20 8 -35 13t-33 -11q-26 -26 -54 -34t-62 -16q-10 -4 -17 -19t-9 -23q-12 -26 -21 -52t-15 -52q-32 -130 -15 -259t49 -255q14 -54 23 -108t9 -110q0 -30 -3 -59t-7 -57q-2 -14 -3 -32t13 6q6 8 15 3t9 5q2 8 2 17v17q0 22 1 44t5 42q8 52 58 86
t90 58q88 56 187 134t117 194q14 92 -10 174t-86 154z" />
</svg>
