<?xml version="1.0" standalone="no"?>
<!DOCTYPE svg PUBLIC "-//W3C//DTD SVG 1.1//EN" "http://www.w3.org/Graphics/SVG/1.1/DTD/svg11.dtd" >
<svg xmlns="http://www.w3.org/2000/svg" xmlns:xlink="http://www.w3.org/1999/xlink" version="1.1" viewBox="-10 0 1288 2048">
   <path fill="currentColor"
d="M608 1036q-6 10 -11 21t-9 25q-20 42 -38 90t-26 82q-4 12 -5 27t-1 31v13v13q28 10 57 16t59 6q28 0 54 -5t52 -13q-6 -6 -12 -11t-10 -13q-34 -42 -57 -109t-53 -173zM634 390q-8 0 -17 1t-19 1h-1h-3h-7h-7q-2 0 -3 1t-3 1h-7h-5q-2 0 -4 1t-4 1h-7q-3 0 -5 2h-4h-4
q-2 0 -5 1t-7 1q-2 0 -4 1t-4 1t-5 1t-7 1l-2 1q-2 1 -4 1q-4 0 -7 1t-5 1t-4 1t-4 1q-2 2 -5 2t-7 2h-2q-2 0 -4 2q-4 0 -6 1t-6 1q-2 2 -3 2t-3 2q-4 0 -7 1t-5 1q-2 2 -3 2t-3 2q-4 0 -7 1t-5 3q-2 0 -3 1t-3 1q-4 0 -7 2t-5 2q-2 2 -3 2h-1q-4 2 -7 3t-7 3l-1 1l-1 1
q-20 8 -40 19t-38 23h-1q-1 0 -1 2q-4 2 -7 4t-5 4h-3q-1 0 -1 2q-4 2 -6 4t-6 4l-1 1q-1 1 -3 1q-2 2 -5 4t-5 4l-3 3l-1 1q-4 2 -6 4t-6 4q0 2 -1 2t-3 2t-5 4t-5 4q0 2 -1 3t-3 1q-2 2 -5 4t-5 4q0 2 -1 3t-3 1l-5 5l-5 5l-1 1l-3 3l-4 4q-2 2 -4 6q-2 0 -3 1t-1 3
q-2 2 -5 4t-5 4q0 2 -1 3t-3 1q-2 4 -4 6t-4 6l-1 1q-1 1 -3 1q-2 4 -4 6t-4 6l-1 1l-1 1q-4 4 -6 7t-6 7v1v1q-2 2 -4 5t-4 7q44 -28 89 -40t85 -12q54 0 96 14t62 26q6 2 11 5t9 7q38 -16 78 -25t84 -9q84 0 157 31t128 86t86 128t31 157t-32 158t-88 128q14 2 29 3t29 1
q52 0 106 -14t98 -50q26 -22 49 -58t35 -86q2 -20 4 -41t2 -41q0 -130 -50 -246t-136 -202t-201 -136t-247 -50zM926 1408q-34 -4 -62 -9t-52 -13q-40 20 -85 30t-93 10q-84 0 -157 -31t-128 -86t-86 -128t-31 -157q0 -90 37 -169t99 -133q-16 -4 -34 -6t-36 -2
q-88 0 -172 55t-122 187v5q0 3 -2 7v3v1v5v5v4v4q0 2 -1 6t-1 6v3v1v10v8q0 132 50 247t136 201t201 136t247 50v0h11h9h4h4q2 0 6 -1t6 -1h4h4h7h5q2 -2 5 -2h5h5q3 0 5 -2h5h5q2 0 5 -1t5 -1t5 -1t5 -1h5q3 0 5 -2h4q2 0 6 -2h4q2 0 4 -2h6q2 0 4 -2q2 0 5 -1t5 -1t5 -1
t5 -1q2 -2 4 -2h4l6 -3q2 -1 4 -1t4 -1t6 -1q2 -2 4 -3t4 -1t5 -1t5 -1q2 -2 4 -3t6 -1q2 -2 4 -2t4 -2q2 0 4 -1l6 -3q2 0 4 -1t4 -1q2 -2 4 -3t4 -3q2 0 4 -1t4 -1l6 -3q2 -1 4 -3q2 0 4 -1t4 -1q2 -2 4 -3l6 -3q2 0 3 -1l3 -3q2 -2 5 -3t5 -3q2 0 4 -1t4 -1l4 -4
q2 -2 4 -2q2 -2 4 -3t4 -1l4 -4q2 -2 4 -2q2 -2 4 -3l2 -1q4 -2 6 -4l4 -4q2 0 3 -1l3 -3q2 -2 5 -3t5 -3l3 -3q1 -1 3 -1l4 -4q2 -2 6 -4l1 -1l3 -3q2 -2 5 -4t5 -4q2 0 2 -1t2 -1q2 -4 5 -6t5 -4q2 0 2 -1t2 -1q2 -4 5 -6t5 -4l2 -2q2 -2 6 -5t6 -7l3 -3l1 -1l4 -4l4 -4
l3 -3l3 -3q2 -2 3 -4t3 -4q2 0 3 -2t3 -4l3 -3l3 -3q2 -2 3 -4t3 -4l2 -2q2 -2 2 -4l4 -4q2 -2 2 -4q2 0 2 -1t2 -1l8 -12l8 -12v0q-46 12 -90 18t-82 6q-14 0 -28 -1t-26 -3zM806 1286q4 2 10 4t16 4q62 -46 99 -116t39 -154q-2 -138 -100 -236t-236 -98q-28 0 -54 4
t-52 12q52 58 81 138t53 172v0l7 22q7 22 19 56q14 34 31 72t37 68q14 20 27 34t23 18zM442 750q-66 46 -104 118t-40 156q2 84 39 155t101 117q14 -64 53 -134t95 -188q-2 -10 -6 -20l-8 -20q-16 -42 -38 -83t-42 -63l-24 -20q-12 -10 -26 -18z" />
</svg>
