<?xml version="1.0" standalone="no"?>
<!DOCTYPE svg PUBLIC "-//W3C//DTD SVG 1.1//EN" "http://www.w3.org/Graphics/SVG/1.1/DTD/svg11.dtd" >
<svg xmlns="http://www.w3.org/2000/svg" xmlns:xlink="http://www.w3.org/1999/xlink" version="1.1" viewBox="-10 0 1096 2048">
   <path fill="currentColor"
d="M482 490q-44 14 -77 52t-45 92q-4 18 -11 25t-29 9q-52 8 -91 48t-47 96q-4 20 -11 27t-27 11q-38 6 -68 25t-50 49q-16 24 -21 42t-5 58q0 38 5 56t21 42q20 32 50 51t68 25q20 4 27 10t11 28q8 54 47 94t91 48q22 4 29 10t11 26q18 82 86 125t144 19q50 -18 87 -63
t37 -87q0 -16 7 -20t29 -8q50 -8 93 -51t51 -97q4 -22 10 -28t24 -6q36 0 75 -29t61 -71q12 -22 12 -74t-12 -74q-22 -42 -61 -72t-75 -30q-18 0 -24 -5t-10 -29q-8 -54 -51 -97t-93 -49q-22 -4 -29 -9t-7 -19q0 -76 -76 -125t-156 -25zM612 570q24 20 37 55t5 61
q-12 50 -60 77t-96 11q-70 -24 -77 -102t55 -114q28 -16 70 -12t66 24zM426 744q22 16 35 44t13 62q0 24 -6 38t-30 36q-24 24 -37 30t-43 6q-38 0 -65 -16t-43 -50q-42 -80 28 -140t148 -10zM764 732q34 14 52 41t18 63q0 58 -31 91t-85 33t-84 -32t-30 -86q0 -40 17 -67
t51 -43q28 -10 46 -10t46 10zM260 944q20 22 25 36t5 44t-5 44t-25 34q-54 60 -128 32t-74 -110q0 -56 37 -89t95 -27q24 2 38 9t32 27zM604 926q16 10 27 25t19 33q8 26 8 39t-8 39q-34 94 -132 78t-98 -116q0 -36 13 -60t45 -42q30 -18 64 -17t62 21zM954 918
q62 32 62 105t-62 107q-50 24 -99 4t-67 -72q-10 -26 -10 -39t10 -39q18 -52 67 -72t99 6zM438 1124q24 22 30 36t6 38q0 72 -51 107t-117 5q-88 -38 -67 -130t119 -92q30 0 43 6t37 30zM778 1102q26 14 41 42t15 68q0 80 -77 106t-129 -38q-22 -26 -25 -70t15 -72
q24 -36 72 -47t88 11zM604 1288q48 36 52 89t-38 95q-20 18 -33 24t-43 6q-40 0 -63 -12t-43 -40q-52 -78 19 -148t149 -14z" />
</svg>
