<?xml version="1.0" standalone="no"?>
<!DOCTYPE svg PUBLIC "-//W3C//DTD SVG 1.1//EN" "http://www.w3.org/Graphics/SVG/1.1/DTD/svg11.dtd" >
<svg xmlns="http://www.w3.org/2000/svg" xmlns:xlink="http://www.w3.org/1999/xlink" version="1.1" viewBox="-10 0 1316 2048">
   <path fill="currentColor"
d="M1252 728l-26 50l-2 -6q-4 -6 -12 -17t-12 -19q-14 -16 -32 -28t-36 -16q-8 -2 -20 -2t-18 2q-14 4 -26 12t-24 18q-14 14 -26 33t-20 43q-12 28 -17 56t-7 62q-2 36 3 72t17 66q2 8 6 16l4 8v-2t-2 -4q-2 -16 -3 -41t1 -47q0 -22 5 -43t13 -47t19 -45t27 -35
q16 -18 32 -26t36 -8q14 -2 26 2t26 14t28 25t24 35q2 2 3 4l1 2q2 0 26 -47t26 -49q0 -2 -7 -43t-7 -45l-8 15q-8 15 -18 35zM0 684l30 101t72 243l100 340h10l64 -212q26 -86 44 -149l18 -63l19 63q19 63 45 149l64 212h8l88 -294q64 -216 76 -256t16 -44l4 -8h142l-2 6
q0 2 -18 32l-42 70l-56 98v42h22h28q10 0 18 2q34 8 55 29t29 57q4 18 4 41t-2 43q-6 32 -21 57t-33 35q-8 4 -14 5t-16 1h-12q-4 0 -8 -2q-14 -4 -23 -9t-19 -15q-10 -12 -18 -23t-14 -25l-3 -6q-1 -2 -3 -2l-29 12q-29 12 -35 14l-4 2l4 8q14 40 38 70t56 46q14 6 29 10
t31 6q32 2 58 -6t50 -26q6 -4 15 -13l15 -15q20 -26 32 -55t18 -65q0 -14 1 -35t-1 -35q-4 -52 -27 -93t-59 -65l-18 -9l-18 -9q-4 -2 -7 -3l-3 -1l18 -32t44 -76l62 -108v-42h-332l-62 208q-26 86 -44 148l-18 62l-17 -58q-17 -58 -41 -138q-24 -82 -42 -143t-18 -65
l-4 -14h-46h-37q-7 0 -7 2l6 20q6 20 14 48l20 66l-40 142q-18 56 -30 98l-12 42l-18 -62q-18 -62 -44 -148l-62 -208h-88v2zM942 1164q0 2 7 21t9 25q4 10 11 24t13 24q10 16 21 32t23 28q20 20 41 31t45 15q6 2 22 2t22 -2q16 -2 31 -8t29 -16q22 -16 42 -39t34 -49l4 -10
l-6 -32q-2 -14 -4 -24l-2 -10l-3 3t-5 9q-6 12 -14 23t-12 17l-8 8l-10 10q-14 16 -27 25t-25 15q-22 10 -38 13t-34 3q-14 -2 -23 -4t-21 -6q-16 -6 -30 -16t-32 -26q-14 -14 -24 -28t-26 -42q-6 -12 -8 -14z" />
</svg>
