<?xml version="1.0" standalone="no"?>
<!DOCTYPE svg PUBLIC "-//W3C//DTD SVG 1.1//EN" "http://www.w3.org/Graphics/SVG/1.1/DTD/svg11.dtd" >
<svg xmlns="http://www.w3.org/2000/svg" xmlns:xlink="http://www.w3.org/1999/xlink" version="1.1" viewBox="-10 0 1416 2048">
   <path fill="currentColor"
d="M622 463l5 8t11 20q6 10 10 19t2 9l-15 6q-15 6 -35 12q-20 8 -34 13t-14 7l20 2q20 2 48 4l51 6q17 2 19 4l7 11q7 11 15 25l20 34l4 -8q2 -4 6 -14l8 -20l10 -24l54 -6q22 -2 39 -4t19 -2h4q2 0 2 -2l-13 -5q-13 -5 -33 -13q-18 -6 -31 -11l-13 -5l3 -9q3 -9 9 -21
q4 -10 7 -19l3 -9l-13 4q-13 4 -33 10l-44 14l-48 -18q-34 -14 -42 -17t-8 -1zM918 623q-42 18 -73 30l-31 12l28 12t66 26l96 38l10 -4q80 -30 141 -55l61 -25q-2 0 -96 -37t-96 -37l-31 12q-31 12 -75 28zM372 601q-42 4 -74 16t-46 26q-10 10 -12 20t4 20q10 16 38 29
t70 19q20 4 63 3t61 -3q46 -8 73 -22t35 -32q2 -8 2 -10t-2 -10q-6 -16 -34 -30t-70 -22q-20 -4 -54 -5t-54 1zM1390 667q-2 4 -8 9t-14 9q-22 14 -73 38t-225 98q-122 52 -170 74t-90 42q-48 22 -72 30t-48 8q-22 0 -40 -6t-58 -22q-16 -8 -72 -31t-118 -51
q-276 -114 -328 -137t-66 -39l-8 -10v146l8 8q8 6 25 17t25 13q4 0 17 6t29 12q16 8 85 37t149 61q132 56 182 77t96 41q24 10 41 14t39 4q16 -2 25 -3t23 -7q10 -2 24 -8t24 -12q34 -18 96 -45t228 -99q156 -66 199 -86t59 -32q18 -12 20 -22t2 -70v-50v-20l-2 2zM660 761
q-64 10 -111 17t-47 9q-2 0 107 45t115 47q2 2 50 -68t48 -72t-20 1t-142 21zM1392 905q-2 2 -8 7t-12 9q-20 14 -76 40t-248 108q-108 48 -155 68t-79 36q-54 26 -76 33t-50 7q-22 0 -39 -5t-47 -17q-28 -14 -74 -34t-172 -72q-220 -90 -275 -115t-71 -41l-10 -8v142l10 10
q14 14 55 32t275 116q86 34 157 64t85 36q34 16 49 21t29 9q32 6 61 -1t81 -31q34 -16 84 -38l150 -66q188 -82 253 -111t79 -39q6 -2 12 -7t8 -9l8 -8v-72v-50v-20l-1 1q-1 1 -3 5zM1390 1137q-14 16 -65 41t-247 109q-126 54 -181 78t-97 44q-44 22 -65 28t-47 6
q-16 0 -34 -4t-38 -12q-46 -20 -96 -42t-182 -76q-152 -64 -212 -89t-76 -33t-29 -18t-17 -14l-4 -8v72q0 62 2 72t18 20q18 12 70 35t234 99q128 52 183 76t77 34q46 20 66 25t46 5q24 -2 45 -9t61 -25q44 -22 95 -44t189 -82q192 -82 241 -106t63 -40l6 -8v-70v-51v-21
l-2 2q-2 2 -4 6z" />
</svg>
