<?xml version="1.0" standalone="no"?>
<!DOCTYPE svg PUBLIC "-//W3C//DTD SVG 1.1//EN" "http://www.w3.org/Graphics/SVG/1.1/DTD/svg11.dtd" >
<svg xmlns="http://www.w3.org/2000/svg" xmlns:xlink="http://www.w3.org/1999/xlink" version="1.1" viewBox="-10 0 1408 2048">
   <path fill="currentColor"
d="M1382 1176q-12 -14 -30 -13t-32 5q-38 6 -76 10t-74 -12q64 -100 112 -208t76 -224q10 -44 17 -88t5 -90q0 -26 -6 -51t-20 -47q-38 -50 -92 -85t-114 -51q-76 -22 -156 -17t-154 27q-6 2 -12 0t-12 -2q-68 -14 -139 -6t-131 46q-70 -24 -145 -37t-151 -5q-56 4 -108 31
t-84 75q-40 58 -50 130t-2 142q12 94 34 185t52 179q18 56 41 110t55 102q18 24 41 45t53 25q28 2 52 -12t40 -34q28 -34 58 -68t60 -66q20 10 42 16t44 6q-12 16 -24 31t-30 21q-26 10 -55 14t-51 20q-14 10 -14 27t12 29q20 20 50 27t58 9q40 2 79 -10t69 -40q0 64 2 128
t8 128q4 38 20 73t44 61q28 22 63 28t69 0t66 -17t58 -35q28 -24 42 -58t18 -70q10 -64 18 -127t16 -127q70 12 145 -4t127 -68q12 -10 19 -27t-3 -31zM1170 374q44 16 81 43t65 63q14 18 18 39t4 43q0 50 -8 99t-22 97q-24 88 -61 173t-83 165q-6 8 -11 15t-9 15
q-2 -2 -2 -6v-6q4 -16 12 -31t10 -31q12 -46 7 -92t-9 -92q-6 -44 4 -87t8 -85q2 -22 -4 -42t-16 -40q-28 -66 -75 -122t-107 -98q-14 -10 -30 -18t-30 -18q64 -14 131 -11t127 27zM1118 868q4 50 11 104t-17 102q-34 -64 -69 -128t-51 -136q-4 -22 -2 -48t22 -42
q26 -18 58 -18t62 2q-2 40 -10 81t-4 83zM344 1274q-12 14 -28 26t-34 8q-24 -6 -40 -25t-28 -37q-36 -56 -59 -118t-43 -124q-20 -76 -38 -151t-28 -151q-6 -60 0 -120t36 -112q24 -38 62 -63t82 -33q70 -14 141 -3t139 31q-30 32 -53 70t-35 80q-18 58 -26 117t-4 117
q2 42 1 84t-7 82q-8 54 12 106t60 90q-26 30 -55 61t-55 65zM426 1016q-6 -30 -1 -61t5 -61q2 -34 1 -69t-1 -69q32 -22 69 -36t77 -12q20 2 36 15t22 33q18 70 19 146t-33 142q-12 26 -22 53t-18 55q-58 0 -101 -41t-53 -95zM662 1270q-36 48 -98 58t-114 -18
q26 -12 54 -15t52 -19q24 -12 38 -35t36 -37q24 -4 37 22t-5 44zM1068 1194q-12 22 -12 47t-4 49l-16 136q-8 68 -18 136q-6 32 -21 63t-45 47q-32 16 -67 24t-71 4q-32 -6 -54 -33t-30 -57q-8 -26 -10 -52l-4 -52q-2 -64 -3 -127t1 -127q2 -24 -10 -47t-34 -35
q-10 -6 -22 -8t-24 -2q8 -48 30 -90t32 -88q12 -58 8 -116t-18 -116q-6 -28 -26 -50t-48 -30q-44 -10 -88 2t-84 30q6 -64 25 -127t57 -115q30 -38 72 -63t90 -31q80 -10 158 11t142 71q50 40 90 94t62 118q-36 -2 -75 1t-69 29q-26 22 -32 57t0 67q14 78 52 146t72 138
q10 16 21 30t23 30q-14 6 -28 14t-22 22zM1194 1266q-24 4 -49 4t-47 -8q0 -14 1 -28t11 -24q10 -6 21 -10t19 2q42 22 88 18t90 -10q-26 26 -61 39t-73 17zM1026 732q-10 8 -4 17t14 11q18 12 37 0t21 -32q-16 -8 -35 -7t-33 11zM602 776q8 -4 13 -14t-3 -18
q-12 -10 -29 -12t-33 2q-4 2 -8 6t-4 10q4 20 26 29t38 -3z" />
</svg>
