<?xml version="1.0" standalone="no"?>
<!DOCTYPE svg PUBLIC "-//W3C//DTD SVG 1.1//EN" "http://www.w3.org/Graphics/SVG/1.1/DTD/svg11.dtd" >
<svg xmlns="http://www.w3.org/2000/svg" xmlns:xlink="http://www.w3.org/1999/xlink" version="1.1" viewBox="-10 0 1404 2048">
   <path fill="currentColor"
d="M160 335q-12 2 -27 7t-27 11q-34 18 -59 47t-37 65q-8 22 -9 75t-1 483q0 344 1 433t3 97q6 36 24 67t46 53t57 32t63 10q32 0 58 -8t52 -26q10 -6 43 -38t157 -158l188 -186l188 186q124 126 157 158t43 38q26 18 52 26t58 8q16 0 30 -2t26 -6q54 -18 90 -59t44 -95
q2 -8 3 -99t1 -431q0 -430 -1 -483t-9 -75q-14 -44 -47 -76t-77 -48q-14 -4 -29 -6t-31 -2q-18 0 -33 2t-29 6q-50 18 -85 57t-45 95q-2 6 -3 51t-1 233v272l-90 -90q-74 -72 -90 -87t-38 -25q-40 -18 -84 -18t-84 18q-22 10 -38 25t-90 87l-90 90v-272q0 -226 -1 -257
t-9 -53q-16 -52 -58 -88t-94 -44q-12 -2 -34 -2t-34 2zM212 451q20 4 37 20t23 38q8 40 -20 70t-68 24q-20 -2 -35 -14t-23 -28q-22 -44 8 -83t78 -27zM1206 451q34 6 51 37t5 63q-6 18 -19 31t-33 19q-4 2 -9 2h-11h-13q-5 0 -9 -2q-18 -6 -30 -16t-18 -24q-22 -44 8 -83
t78 -27zM712 947q36 10 51 44t-3 68q-6 12 -18 23t-26 15q-10 4 -24 4t-24 -4q-26 -8 -40 -30t-14 -48q2 -26 18 -45t40 -27q6 -2 19 -2t21 2zM220 1447q40 14 50 55t-20 71q-12 12 -25 18t-29 6q-18 0 -31 -5t-25 -17q-22 -22 -22 -54t22 -56q8 -8 18 -13t20 -7q8 -2 20 -2
t22 4zM1214 1447q40 14 50 55t-20 71q-12 14 -25 19t-29 5t-29 -5t-25 -15q-34 -32 -22 -77t56 -55q10 -2 22 -2t22 4z" />
</svg>
