<?xml version="1.0" standalone="no"?>
<!DOCTYPE svg PUBLIC "-//W3C//DTD SVG 1.1//EN" "http://www.w3.org/Graphics/SVG/1.1/DTD/svg11.dtd" >
<svg xmlns="http://www.w3.org/2000/svg" xmlns:xlink="http://www.w3.org/1999/xlink" version="1.1" viewBox="-10 0 1268 2048">
   <path fill="currentColor"
d="M624 274q-130 0 -243 49t-198 134t-134 198t-49 243q0 128 49 242t134 198t198 133t243 49t243 -49t198 -133t134 -198t49 -242q0 -130 -49 -243t-134 -198t-198 -134t-243 -49zM624 1370q-98 0 -184 -37t-150 -101t-102 -150t-38 -184t38 -184t102 -151t150 -102
t184 -37t184 37t150 102t102 151t38 184t-38 184t-102 150t-150 101t-184 37zM624 690q-86 0 -147 61t-61 147t61 147t147 61t147 -61t61 -147t-61 -147t-147 -61zM624 482q-86 0 -162 33t-132 89t-89 132t-33 162t33 161t89 132t132 89t162 32t162 -32t132 -89t89 -132
t33 -161t-33 -162t-89 -132t-132 -89t-162 -33zM624 1162q-110 0 -188 -77t-78 -187t78 -188t188 -78t188 78t78 188t-78 187t-188 77zM1004 1682l-160 -70v46h-320l-64 -64q-4 -4 -9 -4t-9 4q-2 2 -2 7t2 9l50 48h-24l-66 -64q-4 -4 -9 -4t-7 4q-4 2 -4 7t4 9l48 48h-24
l-66 -64q-4 -4 -9 -4t-7 4q-4 2 -4 7t4 9l48 48h-24l-66 -64q-4 -4 -8 -4t-8 4q-4 2 -4 7t4 9l50 48h-54q-10 0 -16 8t-6 16t6 16t16 8h54l-50 48q-4 4 -4 9t4 7q4 4 8 4t8 -4l66 -64h24l-48 48q-4 4 -4 9t4 7q2 4 7 4t9 -4l66 -64h24l-48 48q-4 4 -4 9t4 7q2 4 7 4t9 -4
l66 -64h24l-50 48q-2 4 -2 9t2 7q4 4 9 4t9 -4l64 -64h320v46z" />
</svg>
