<?xml version="1.0" standalone="no"?>
<!DOCTYPE svg PUBLIC "-//W3C//DTD SVG 1.1//EN" "http://www.w3.org/Graphics/SVG/1.1/DTD/svg11.dtd" >
<svg xmlns="http://www.w3.org/2000/svg" xmlns:xlink="http://www.w3.org/1999/xlink" version="1.1" viewBox="-10 0 1344 2048">
   <path fill="currentColor"
d="M1002 1277q-16 4 -29 6t-27 2q-64 0 -138 -96t-137 -226t-105 -264t-42 -208q0 -54 12 -78t30 -40q-78 10 -161 28t-157 44t-132 58t-88 68q-14 18 -21 47t-7 65q0 116 55 288t139 333t183 276t185 115q42 0 94 -32t110 -88t119 -132t117 -166zM894 353q160 0 295 32
t135 124t-26 189t-62 176t-77 130t-71 51q-54 0 -110 -65t-103 -158t-77 -195t-30 -176q0 -68 29 -88t97 -20z" />
</svg>
