<?xml version="1.0" standalone="no"?>
<!DOCTYPE svg PUBLIC "-//W3C//DTD SVG 1.1//EN" "http://www.w3.org/Graphics/SVG/1.1/DTD/svg11.dtd" >
<svg xmlns="http://www.w3.org/2000/svg" xmlns:xlink="http://www.w3.org/1999/xlink" version="1.1" viewBox="-10 0 1612 2048">
   <path fill="currentColor"
d="M796 627l-62 103t-102 171q-8 2 -11 4t-13 10q-20 -24 -40 -11t-28 25q-2 -28 -7 -34t-11 -12q4 -24 8 -60t-24 -64q-54 -36 -110 24t-90 106l-24 42q-78 -2 -143 -1t-139 -1q90 34 125 47t143 53q0 4 7 16t15 22q8 6 15 11t11 7q-6 2 -14 7t-12 9q-14 28 0 40t28 34
q16 28 27 43t47 -1q14 -6 28 -9t22 -5q-34 54 -55 89t-83 127l2 2q240 -96 305 -121t183 -71q172 66 238 93t254 99q-26 -42 -45 -71t-39 -63q8 0 23 -3t29 -11q10 -8 22 -16t24 -22q22 -28 28 -64t-2 -80q-4 -22 -10 -39t-4 -17q102 -40 143 -55t137 -51q-116 2 -157 2
h-147q-2 -22 -15 -32t-45 -8q-12 2 -19 7t-13 21q-18 -32 -39 -28t-31 20q-14 -14 -40 -18t-42 6q-12 -6 -26 -4t-26 16q-8 -8 -14 -12t-26 -10q-44 -76 -82 -138t-74 -124zM796 679q18 28 63 105t61 99q-18 2 -34 11t-28 27q-10 -12 -24 -21t-36 -11q-28 -4 -45 7t-35 31
q-6 -18 -24 -22t-36 4q16 -26 72 -119t66 -111zM494 833q-2 72 -42 122t-76 26q-28 -22 -6 -66t44 -64q-2 14 5 25t-3 25q-22 28 -18 46t12 20q26 8 47 -45t21 -101q0 -30 -19 -29t-53 39q-50 50 -73 97t-5 81q10 18 25 30t39 10q46 -6 73 -51t29 -81h8l2 -2q0 6 7 31t13 47
q10 34 18 91t-108 85q-22 4 -35 8t-35 12q-10 -22 -17 -34t-29 -32q30 -10 38 -12t26 -10q74 -24 100 -48t24 -56l-1 -13q-1 -13 -11 -25q-6 18 -13 30l-7 12q-22 34 -60 51t-76 5q-20 -8 -30 -24t-10 -44q0 -34 60 -110t98 -94q28 -8 33 9t5 39zM926 919q12 0 25 6t23 16
q30 32 30 67t-20 59q-20 30 -62 19t-56 -51q-6 -18 3 -55t29 -53q6 -4 13 -6t15 -2zM786 923q2 0 4 1t4 1q24 2 32 13t14 23q10 32 7 60t-27 52q-36 36 -69 24t-33 -60q0 -36 19 -75t49 -39zM910 925q-20 16 -22 45t16 41q6 8 13 12t27 6q14 2 31 -10t17 -26q0 -6 -3 -16
t-17 -28q-12 -14 -26 -18t-18 -2q-14 8 -5 14t13 12q8 8 10 12t-2 6q-6 6 -14 6t-10 -2q-6 -2 -16 -13t6 -39v0zM1158 927q8 12 13 21t13 43q12 40 27 57t29 9q36 -20 20 -63t-28 -67h9h9q6 22 9 35t19 85q18 84 15 120t-51 74q-22 18 -52 21t-58 1l-42 -6q22 -14 29 -30
t7 -44q64 26 99 12t49 -46q6 -16 5 -39t-9 -59q2 30 1 41t-5 25q-8 30 -25 37t-29 -15q-6 -8 -15 -32t-13 -52t-10 -63t-24 -53l4 -8q2 -4 4 -4v0zM1076 927q12 4 26 11t22 23q12 22 19 40t7 56q-2 42 -14 56t-24 16q-14 2 -34 -11t-34 -95q-6 -26 -14 -49t-16 -31
q4 -6 5 -8t5 -6q4 4 9 15t11 37q10 40 21 52t29 14q28 4 36 -29t-16 -63q-4 -6 -15 -12t-17 -4q0 12 3 13t3 9q0 10 -2 13t-4 9q-8 -4 -12 -7t-12 -13q-6 -16 -2 -27t20 -9v0zM770 931q-12 10 -23 37t3 53q8 10 17 17t27 3q12 -2 28 -16t20 -34q2 -16 -17 -40t-33 -18
q-16 10 -10 17t16 17q8 10 4 15t-10 9q-12 4 -20 0t-10 -14q-4 -10 -1 -20t9 -26v0zM580 937q4 8 7 19t9 21q0 2 5 0t13 -10q4 -4 9 -12t13 -18q6 4 7 8t3 6q4 6 10 7t8 -1q8 -8 12 -13t8 -5q2 10 0 19t-16 25q-8 10 -19 12t-15 0q-6 -2 -11 -5l-15 -9q-12 2 -12 14t4 22
q6 30 22 42t32 4q6 -4 8 -5t12 -5q0 18 -1 28t3 30q-28 16 -48 10t-26 -42q-4 -32 -12 -64t-14 -40l-11 -11l-3 -3l7 -9q7 -9 11 -15zM110 941q36 0 78 1t88 1q-8 16 -10 28t-4 28q-20 -8 -76 -28t-76 -30zM1482 943l-88 33l-88 33q-6 -22 -8 -34t-8 -32h105h87v0z
M1020 1077q6 22 12 32l6 10q10 18 23 28t31 16q6 6 8 9t2 7q2 22 -1 30t-21 20q-10 10 -11 24t11 28q12 10 29 13t61 -9q10 14 22 33t30 47q-60 -22 -154 -59t-272 -105l-46 17q-46 17 -111 43t-138 54t-129 50q46 -72 62 -97t48 -77q12 -4 13 -4t11 -6q22 -12 40 -31
t28 -45q18 42 42 49t66 -5q10 -4 18 -12t10 -22q24 20 66 19t76 -45q30 36 86 36t82 -48v0zM1164 1135l1 4q1 4 3 6q-6 2 -10 2h-4q2 -4 4 -6l6 -6v0z" />
</svg>
