<?xml version="1.0" standalone="no"?>
<!DOCTYPE svg PUBLIC "-//W3C//DTD SVG 1.1//EN" "http://www.w3.org/Graphics/SVG/1.1/DTD/svg11.dtd" >
<svg xmlns="http://www.w3.org/2000/svg" xmlns:xlink="http://www.w3.org/1999/xlink" version="1.1" viewBox="-10 0 1462 2048">
   <path fill="currentColor"
d="M722 871q-4 2 -7 5l-7 7q-4 8 -5 15t-1 45v44h60v-46v-46l-4 -6q-4 -10 -10 -14t-14 -4h-6h-6zM36 875q-12 2 -22 9t-12 15q-2 4 -2 21v105v118q0 14 8 20q2 4 4 6t6 2l6 3q2 1 10 1q6 0 8 -1t8 -3t9 -6t5 -10l4 -4v-90v-90l26 32q10 12 31 38t41 50q36 44 49 58t21 18
q6 4 13 6t15 2q12 0 20 -4t14 -10q4 -8 5 -22t1 -116v-124l-2 -6q-4 -4 -8 -9t-10 -7q-2 0 -5 -1t-9 -1q-8 0 -12 1t-8 5q-6 2 -9 7t-3 9q-2 4 -2 27v67v64v26l-68 -81t-82 -99q-6 -8 -12 -13t-10 -9q-6 -2 -15 -3t-13 -1zM1164 875q-8 2 -13 7t-9 11q0 4 -1 6t-1 8v7
q0 3 2 7q4 10 11 18t41 42q16 18 29 31l13 13l-13 13q-13 13 -29 31q-36 34 -43 43t-9 19q-2 6 -2 14t4 14q8 14 24 16t34 -8l15 -15l31 -31l42 -42l42 42q18 18 32 31t14 15q10 4 18 7t14 3q10 -2 16 -6t10 -12q4 -6 5 -14t-1 -14q-4 -10 -11 -19t-41 -43l-31 -31l-13 -13
l13 -13l31 -31q34 -34 41 -42t9 -18q2 -4 2 -7v-7v-8q0 -2 -2 -6q-6 -10 -16 -15t-22 -3q-2 0 -6 2l-8 4l-8 4l-88 86l-44 -42l-42 -44l-10 -4q-8 -4 -16 -5t-14 -1zM830 877q-8 2 -13 6t-7 10l-2 6v248l2 6q0 2 2 5t4 3q6 6 16 9t22 1q10 -2 19 -6t17 -14q4 -4 27 -31
t53 -63l72 -86v88v90l2 6q4 6 10 10t14 6q10 2 19 -1t15 -7q6 -8 7 -20t1 -110v-109q0 -19 -4 -27q-2 -6 -11 -12t-19 -8q-8 -2 -18 0t-18 8l-8 8q-6 6 -18 20q-44 52 -92 109l-48 57v-26q0 -26 -2 -64v-75v-17q-4 -8 -9 -12t-11 -8h-12h-10zM402 881q-2 4 -38 70t-38 70
l-2 2l42 74l40 76h174l42 -78l42 -78l-32 -2h-99h-59q-8 2 -12 5t-8 7q-12 12 -6 28t26 18q2 2 15 2h35h46l-14 24l-14 22h-96l-26 -46q-10 -20 -18 -34l-8 -14l7 -14q7 -14 17 -32l24 -44h106l14 24l16 26h34h36l-2 -2l-10 -16q-10 -16 -24 -38l-30 -54h-178zM702 1083v57
q0 9 2 15t6 10t10 8q6 2 12 3t10 -3q6 -2 10 -7t6 -9l4 -6v-66v-68h-10q-4 0 -12 -1t-18 -1h-20v68z" />
</svg>
