<?xml version="1.0" standalone="no"?>
<!DOCTYPE svg PUBLIC "-//W3C//DTD SVG 1.1//EN" "http://www.w3.org/Graphics/SVG/1.1/DTD/svg11.dtd" >
<svg xmlns="http://www.w3.org/2000/svg" xmlns:xlink="http://www.w3.org/1999/xlink" version="1.1" viewBox="-10 0 1426 2048">
   <path fill="currentColor"
d="M296 1137q-6 0 -15 4t-15 16q-4 10 -14 12t-16 0q-10 -4 -21 -4t-23 8t-21 3t-7 -21q2 -14 8 -27t20 -21q32 -18 25 -32t11 -34q18 -18 18 -28v-36q-58 -8 -96 -28t-76 -66q-36 -46 -52 -89t-20 -101t1 -100t31 -90q24 -48 54 -76t74 -52q46 -24 90 -31t86 -7t71 5t51 17
q24 14 44 27t34 15q14 0 23 -4t17 -8q2 44 -31 54t-69 12q-36 0 -62 -8t-60 -4q-34 6 -80 25t-72 65t-31 71t-3 63t28 64t44 26q20 0 28 -5t26 -15q16 -12 79 -87t93 -97q28 -24 57 -33t59 -9t45 2t39 12t42 26t38 28q10 -6 17 -14t17 -14q32 -26 56 -33t64 -3q22 2 48 13
t42 27q32 26 57 60t45 62q16 20 35 43t47 31t48 -19t24 -47q2 -12 4 -23t2 -25q0 -12 -2 -27t-6 -29t-10 -27t-12 -23q-12 -18 -29 -36t-37 -28q-10 -4 -32 -12t-38 -8q-20 0 -36 4t-34 6q-22 0 -55 1t-49 -15q-12 -12 -15 -21t-5 -23q6 4 12 7t12 3q14 2 27 -7t23 -15
t22 -14t24 -12q30 -14 66 -15t70 3q26 2 56 13t54 23q22 14 44 34t38 40q20 26 32 51t20 57q10 42 11 97t-11 97q-8 32 -34 74t-52 66q-24 24 -53 37t-63 19q2 8 3 14t1 12q4 6 9 13t13 5q4 -2 7 -2t9 4q4 4 1 18t-17 22q-8 4 -16 5t-20 1h-26q-16 0 -28 -2q-14 -2 -23 -10
t-23 -8q-22 -4 -39 -16t-33 -24q-8 -4 -11 -5t-7 -3q2 6 4 13t4 13q2 8 2 14v10q2 6 3 10t1 8q4 4 6 8t8 4q6 2 14 1t14 -3q6 0 10 -2t8 -2q6 2 10 4t8 6t7 6t7 8q2 8 5 22t3 24t-1 20t-5 18q-2 8 -6 14t-12 14t-21 19t-27 19q2 4 4 7l6 9q4 4 11 8t9 8q4 4 6 8t2 8
q0 6 -1 12t-5 10q-8 14 -20 18t-26 12q2 14 3 26t-1 26q-2 6 -6 17t-10 15q-8 2 -20 2t-22 2q-8 0 -14 2t-14 2q-4 8 -9 14t-7 12t-2 9t2 9l6 12q4 8 6 14q2 8 3 14t-1 14q-2 6 -5 11t-9 11t-15 11t-15 11q-6 4 -10 6t-2 10q2 12 15 26t23 18q8 2 16 2t18 -4q-2 10 -8 16
l-12 12q14 -4 28 -11t22 -17q-2 8 -12 21t-24 27q-16 12 -20 13t-12 7q14 2 27 2t23 -2q-6 2 -15 6t-23 6h-21q-9 0 -21 -4q-12 -2 -23 -11t-25 -15q2 4 4 10t8 12q6 4 14 8t18 8q-12 -2 -25 -3t-23 -3t-16 -4t-12 -6q-8 -2 -13 -6t-11 -8q4 4 5 10t7 10q4 4 11 6t13 6h-12
h-14q-6 -2 -12 -5t-14 -9q-6 -4 -13 -10t-13 -12t-12 -14t-8 -14t0 -10t2 -10q-4 4 -8 6t-8 6l-4 8q-2 4 0 10q0 6 5 14t9 16q-12 -12 -20 -18t-10 -20q-4 -12 2 -22l12 -20q2 -4 6 -8t6 -8l-12 -12l-12 -12q-4 -6 -7 -14t-9 -14q-4 -6 -11 -11t-13 -11q6 12 13 25t9 21
q2 10 -1 15t-7 11q-2 4 -7 6t-9 4q-6 4 -12 4t-8 4q-4 4 -4 10t2 10l16 24q-4 -4 -10 -9t-10 -9t-7 -8t-5 -10v-11q0 -5 4 -11q4 -4 12 -7t12 -7q6 -4 8 -7t2 -9q0 -4 -4 -8l-8 -8q-14 -8 -29 -18t-27 -22q-6 -6 -9 -12l-5 -10q0 -4 1 -9t3 -9q4 -6 12 -13t10 -13
q0 -6 -4 -9t-8 -5q-6 -2 -14 -1t-12 -3q-4 -2 -2 -9t-2 -11q-6 -4 -16 -4t-16 -6q-6 -4 -9 -10t-5 -12q-2 -8 -2 -15t2 -11q0 -4 4 -6t6 -6l4 -4q2 -2 -2 -6t-13 -3t-15 -3q-6 -6 -5 -15t-5 -15q-4 -4 -11 -4t-11 -2q-4 0 -6 2t-6 -8q-2 -8 -3 -29t-5 -31q-2 -10 -8 -7
t-10 -7q-2 -10 -1 -24t-1 -28l-8 -54q-24 16 -42 22t-42 10q-2 62 -3 107t19 111q22 66 62 113t96 105q-74 -56 -113 -105t-61 -107q-22 -56 -23 -107t1 -107zM818 1105q6 0 12 2t10 4t8 5t8 5q10 10 16 21t10 23q2 8 2 18t2 20q-4 -8 -6 -17t-6 -17q-6 -12 -16 -23t-24 -17
q-4 -2 -7 -2h-5q2 2 3 4t1 4t-1 6t-5 6q-8 4 -15 2t-13 -6q-6 -6 -7 -13t1 -15q4 -8 15 -9t17 -1zM724 1089q0 -14 6 -26t20 -20q6 -2 16 -6t18 -6q10 0 28 1t32 7q10 4 18 11t18 11q8 6 15 10t17 10q12 10 21 19t19 15q4 4 10 4t10 2q-4 2 -9 3t-11 -1t-13 -7t-13 -9
q-8 -6 -14 -11t-14 -9q-6 -4 -14 -8t-14 -6q-6 -4 -15 -11t-15 -11t-18 -5t-20 -1q-10 0 -24 2t-24 10q-8 8 -11 16t-1 18q2 -4 5 -8t5 -8q8 -4 16 -5t16 -1q8 2 14 7t8 15l-5 -5q-3 -3 -7 -3q-6 -4 -12 -3t-14 5q-6 4 -7 10t-1 12q0 4 -1 7t-3 5q-2 0 -5 -1t-5 -5v7v7
q0 4 2 8t2 8q-4 -6 -10 -11t-8 -13q-4 -6 -6 -14t-2 -16zM736 949q4 -6 6 -15t4 -15v18q0 10 -4 16q-4 8 -12 9t-14 3q6 -4 11 -7t9 -9zM608 1137q4 -6 16 -4t24 2l-16 4l-16 4v6q0 2 -2 4q-2 4 -5 5t-5 1q0 -6 -1 -12t5 -10zM706 747q6 2 13 6t13 4t8 -3t6 -5q6 18 12 35
t14 33q4 6 7 6t5 6t4 17t4 19q4 10 7 16t5 14q-6 -12 -15 -24t-13 -22t-4 -13t-4 -11q-2 -10 -8 -22l-12 -24q-4 2 -8 2h-8q-2 -2 -3 -4t-3 -4t-6 -3t-8 -3q-4 -4 -5 -9t-1 -11zM662 857q4 -2 11 -1t13 1t10 -1t8 -3q0 -8 -1 -20t-9 -18q-4 -4 -19 -2t-21 2q-12 2 -26 9
t-26 11q12 -8 23 -15t23 -11q10 -2 25 -4t23 0q4 0 6 2t4 6q8 10 10 21t4 23q2 4 4 6t4 6q0 4 1 8t3 8q-2 -2 -3 -6t-7 -6t-14 -1t-16 3q6 4 9 9t3 13q0 10 -7 17t-17 7q-12 2 -19 -2t-13 -14q-2 -4 -1 -10t1 -10q-16 0 -20 2t-16 10q6 10 12 16t16 10q4 4 11 6t13 4
q6 0 16 1t18 1q8 -2 12 -4t10 -8q6 -4 7 -11t3 -13q0 6 -1 12t-3 10q-6 12 -16 17t-22 5t-26 -3t-26 -7q-8 -4 -20 -13t-16 -19q-2 -6 -1 -14t-1 -14q14 -8 20 -9t22 -3q6 0 11 -2t11 -2zM564 781q0 -4 1 -6t1 -4q-12 -2 -18 4t-12 20q-2 6 -2 9t-2 7t-6 4t-8 4q-6 4 -10 9
t-8 9q-8 6 -19 11t-19 9q6 -4 16 -11t14 -15q2 -4 3 -10t5 -8l6 -6q2 -2 6 -4q4 0 4 -4t2 -8q0 -4 3 -8t5 -8q4 -4 8 -9t10 -7t14 -1t12 -1q4 0 4 -3t4 -5q2 -2 8 -2t10 -2q8 -4 12 -10t10 -12q0 14 -1 26t-5 24q-6 16 -14 26t-24 20l-12 4q-6 2 -10 4q2 -4 6 -7t6 -9v-15
v-15zM920 875h-12q-4 0 -10 4q4 6 7 11t7 11q0 -10 1 -15t7 -11zM892 865q10 -6 20 -9t22 -3h12h12q4 -6 8 -11t6 -13q2 -4 1 -20t-3 -20q-6 -16 -13 -21t-17 -13q-6 -8 -7 -17t-3 -21q-2 -4 -3 -9t-3 -9q-12 -2 -24 -3t-26 -1l12 -12q6 -6 8 -16q2 -8 0 -19t-8 -19
q-4 -10 -12 -17t-16 -13q-8 -8 -18 -14t-18 -10l20 -8q10 -4 20 -6q24 -6 46 1t46 21q14 8 26 17t26 25q16 14 32 38t30 40t26 30t24 22q12 10 24 15t24 11l24 26l18 -24l32 4l6 -36l30 -8l-6 -48l22 -14l-16 -30l16 -32l-20 -38l6 -34l-22 -22l-4 -36l-34 -14l-12 -32h-38
l-18 -26l-26 2l-28 -2l-16 -12l-22 16l-28 -16l-56 22l36 -32l38 -6l28 -8l38 14l36 -10l32 20l34 -2l18 32l34 4l20 34l22 12l4 42l20 20l-8 38l22 28l-20 32l22 18l-30 26l30 32l-36 12l24 32l-30 6l20 36h-34l18 28l-36 -6l8 40l-28 -24l-8 48l-20 -34l-10 42l-24 -32
l2 46l-26 -40q4 16 6 34t12 34q36 -4 61 -15t53 -37q24 -24 49 -65t33 -73q8 -34 8 -89t-8 -91t-21 -57t-31 -49q-20 -20 -39 -40t-43 -34q-36 -22 -79 -29t-83 -7q-22 0 -38 4t-28 8q-24 10 -44 25t-44 23q-8 4 -14 4t-12 -4q6 12 14 19t22 11q10 2 32 1t40 -3t32 -5t40 -3
t45 7t29 13q24 14 40 29t30 39q8 12 14 25t10 29q4 14 5 29t1 29q2 14 0 27t-4 25q-8 30 -27 54t-57 20q-22 -4 -49 -35t-39 -45q-22 -32 -46 -64t-52 -58q-18 -14 -41 -25t-45 -13q-44 -4 -65 6t-55 36q8 2 14 4t14 6q14 6 28 15t26 21t18 21t8 27q0 12 -8 21t-16 17
q-6 4 -12 9t-10 9q-6 4 -10 10t2 16q4 2 8 5t8 5q6 4 4 17t-10 17q-12 6 -23 6t-19 -8q10 -2 16 -5t6 -11q0 -6 -5 -10t-11 -6q-16 -8 -29 -10t-29 -14q-14 -10 -18 -19t-8 -27q-8 0 -15 1t-17 5t-21 10t-19 8q-24 4 -33 3t-21 -3q-22 -6 -49 1t-55 17h-22q-16 0 -28 6
q-20 6 -45 21t-41 29q-24 20 -52 76t-46 126q-2 22 -1 37t-13 25q-12 12 -15 32t-7 28q-6 8 -12 9t-16 11q-8 10 -13 14t-5 24q8 -4 19 -10t23 -6q10 0 16 4t30 -20q14 -14 36 -17t38 -9q18 -6 48 -21t62 -49q32 -36 48 -76t22 -94q2 8 2 22t-4 40t-7 56t15 66l16 30
q-8 -10 -19 -23t-15 -25l-12 -34q-20 34 -32 47t-42 37v29q0 15 6 29q4 14 0 29t0 25q4 8 11 8t9 10q2 8 1 24t3 24q4 10 13 8t13 2q6 2 8 6t6 8q2 4 1 11t3 9q6 4 14 3t14 3q6 2 7 8t-1 12q0 6 -5 10t-9 10q-2 8 -2 12t4 10t10 10t14 6q6 4 15 4t17 4t14 11t10 13q4 4 5 9
t1 11t-2 13t-6 13q-2 6 -6 14t8 18q10 12 13 12t9 6q0 -12 -3 -23t1 -19q4 -10 13 -13t15 -9q6 -4 10 -9t10 -11v13v13q-2 10 -2 17t16 9q6 2 12 -2t14 -6q-4 6 -9 12t-5 14q-2 8 0 17t6 17q6 8 14 14t16 10q6 4 11 6t11 4q0 8 -1 16t-1 14q2 8 4 15t6 13t11 10t13 8
q-4 -8 -9 -16t-5 -16q0 -10 3 -16t11 -14q10 -8 26 -15t24 -15q10 -6 14 -12l8 -12q2 -8 2 -18t2 -16q2 8 3 13l3 15q0 10 -5 21t-7 19q12 -6 19 -14t11 -18q2 2 2 6v12q6 -4 10 -7t8 -7l8 -8q4 -4 6 -8q2 -6 2 -12t-2 -12t-7 -13t-9 -13q-4 -8 -2 -15t2 -15q-8 -2 -15 -4
t-15 -2q-8 2 -18 9t-18 7t-14 -6t-14 -8t-15 -3t-15 -1q10 -10 39 -14t55 -8q20 -4 42 -6t44 -2q8 0 20 1t18 -1t7 -6t3 -8q6 -14 4 -27t-4 -27l-40 -4q-20 -2 -40 -2q-20 2 -41 8t-41 8q-18 0 -40 -4t-38 -12q-18 -12 -31 -31t-17 -27q-8 -12 -18 -32l-16 -32l-9 -15
q-3 -5 -7 -9q-6 -4 -12 -6t-14 -4q8 0 15 -1t15 3q8 6 18 24t16 28l9 -33q3 -11 23 -23q-16 16 -19 31l-7 35q12 20 30 46t40 36q8 2 20 4t20 4q28 2 54 -4t54 -12q20 -6 40 -5t44 3q8 0 23 -4t19 -14q2 -4 1 -9t-3 -9q-4 -4 -10 -7t-12 -9q-4 -4 -7 -9t-5 -9q-18 4 -34 5
t-28 3q8 -4 18 -7t20 -7t21 -10t19 -12q8 -4 13 -8t11 -10q6 -8 13 -14t11 -14t6 -16t2 -18t-1 -22t-5 -18q-4 -8 -10 -11t-12 -5q-4 -2 -9 1t-11 3t-12 2t-14 -2t-18 -12t-18 -20q-10 -12 -16 -29t-16 -33q-14 -26 -32 -51t-36 -49q-2 -6 -4 -14t-2 -16q-2 -14 -2 -28
t6 -28q2 -10 8 -20t16 -14q6 -2 11 -3t9 1t7 6t1 8q-2 6 -5 8t-7 4q-4 4 -6 9t-4 11h10h10q6 2 11 6t7 10q-6 -6 -11 -8t-13 -2q-2 0 -7 1t-9 1q0 4 -1 10t-3 10q-4 2 -7 3t-5 5q0 6 -1 12t1 12zM964 855q2 2 4 3l6 3q2 2 6 5t6 7q2 6 2 13v11h-5q-3 0 -5 -2t-3 -6t-5 -6
q-2 0 -5 -1t-5 -1q0 6 1 10t1 8q-2 10 -7 14t-15 6q-2 0 -8 -1t-8 -1q2 4 4 7t4 5q6 0 12 -1t10 -3q2 0 7 -4t9 -6q6 0 10 -1t10 -1l-7 7l-7 7q2 10 5 19t7 17q6 4 13 7t15 9t18 13t22 13q10 4 18 8t20 6t21 8t21 8t29 2h25q10 -2 21 -7t11 -15q-8 2 -19 -2t-17 -20
q-2 -6 -3 -17t-5 -19t-10 -13t-14 -15q-6 -10 -16 -24t-18 -28q-6 -14 -9 -28t-9 -26t-13 -22t-13 -20q-16 -20 -30 -35t-36 -25q-12 -4 -24 -6t-24 -6q-6 2 -11 5t-7 9t0 13t8 11q6 8 15 16t13 20q2 8 3 27t-1 25q-4 6 -8 11t-10 9zM968 933l-4 4q-2 2 -6 4t-8 2t-10 2
q8 10 14 20t12 22q6 10 12 22t12 22v-13v-13l-4 -12q-2 -6 -6 -14q-2 -10 -5 -21t-7 -25zM734 635q-2 10 0 24t4 24q2 12 5 19t13 15q18 12 30 14t26 10q6 4 13 9t9 11q4 6 0 13t-8 9q8 2 15 -6t3 -18q-2 -6 -9 -9t-9 -7t-3 -9t1 -11q2 -8 15 -16t19 -16q10 -10 13 -20
t-1 -24q-8 -20 -32 -35t-42 -23q-8 -4 -13 -5t-11 -3l24 16q12 8 20 24q4 14 2 22t-2 22q0 4 6 8t10 8q2 2 2 5t-2 7q0 -4 -2 -7t-4 -5q-6 -4 -11 -5t-7 -7q-4 -12 -1 -23t-5 -23l-17 -17q-9 -9 -21 -9q-4 0 -9 1t-11 3l-12 -14q-16 -14 -30 -26t-36 -24q-24 -10 -39 -12
t-43 -2q-26 0 -53 6t-57 32t-91 100t-79 86q-20 14 -30 19t-32 5q-24 0 -53 -30t-31 -72t3 -67t33 -77q30 -50 76 -69t86 -25t67 3t55 9q30 0 55 -8t33 -30q-4 2 -11 4t-21 2q-16 -2 -37 -16t-45 -26q-26 -12 -54 -15t-62 -3q-34 -2 -76 4t-86 30q-42 22 -73 50t-55 74
q-26 44 -32 86t-2 96q4 56 22 99t50 83t69 61t97 29l16 -74l-30 44l2 -48l-28 34l-12 -46l-20 36l-12 -50l-30 26l8 -42l-40 4l18 -28h-38l22 -38l-32 -6l26 -34l-40 -12l32 -32l-32 -28l26 -20l-24 -34l26 -30l-10 -40l22 -20l6 -46l26 -12l20 -36l40 -4l20 -32l40 2
l38 -20l38 8l44 -12l34 8l42 6l42 32l-64 -22l-32 16l-26 -16l-18 12l-32 2h-30l-20 24l-42 2l-16 34l-38 14l-4 38l-28 22l10 38l-24 38l18 34l-18 32l24 14l-6 50l34 10l8 36l36 -4l22 26l28 -28q36 -18 58 -33t52 -47q32 -36 58 -69t70 -57q32 -18 61 -24t65 0
q34 6 51 24t41 38q4 -4 5 -6t5 -6q0 6 -2 12t-2 12z" />
</svg>
