<?xml version="1.0" standalone="no"?>
<!DOCTYPE svg PUBLIC "-//W3C//DTD SVG 1.1//EN" "http://www.w3.org/Graphics/SVG/1.1/DTD/svg11.dtd" >
<svg xmlns="http://www.w3.org/2000/svg" xmlns:xlink="http://www.w3.org/1999/xlink" version="1.1" viewBox="-11 0 1396 2048">
   <path fill="currentColor"
d="M867 974l-300 98l-262 116l-74 20q-14 14 -29 27t-31 27q-18 14 -33 28t-29 24q-12 10 -30 28t-28 30q-16 20 -28 40t-16 36q-10 28 -6 57t22 55q24 34 68 67t98 57q26 12 68 26t76 22q58 14 153 28t157 16h25h13q2 0 11 -17t19 -39q38 -78 65 -149t43 -133q8 -38 15 -88
t11 -108q2 -16 2 -59v-63q-2 -30 -5 -56t-7 -50q0 -4 -1 -7t1 -3l6 -2t34 -10zM799 1014q2 0 6 41t6 75v10v4q-2 0 -24 -13t-42 -25q-16 -10 -42 -27t-30 -21q-2 -2 0 -3t16 -5l66 -22q42 -14 44 -14zM645 1066q2 0 6 2t14 8q36 22 77 45t61 31q6 4 5 5t-15 11
q-32 22 -71 43t-85 41q-10 4 -16 7l-6 3l1 -4t3 -10q10 -42 17 -83t7 -77v-19q0 -3 2 -3v0v0zM613 1078q2 0 1 28t-1 38q-4 24 -9 48t-13 50q-2 6 -3 11l-1 5q-2 2 -19 -15l-25 -25q-12 -16 -23 -31t-19 -31q-4 -8 -8 -19l-4 -11q2 -2 63 -26t61 -22zM465 1136v0l1 3
q1 3 3 5q6 16 16 35t22 33q12 16 26 31t26 25l7 7q3 3 5 3q0 2 -4 4t-32 12q-32 12 -68 24t-76 26q-16 4 -27 8l-11 4q-2 0 -1 -1t5 -9q20 -30 47 -84t43 -96q4 -8 6 -15t2 -9l3 -3q1 -1 3 -1q0 -2 2 -2h2zM419 1154q0 2 -7 17t-15 31q-16 32 -35 65t-43 71q-6 8 -9 13l-3 5
q-2 2 -2 1t-4 -7q-6 -10 -10 -24t-6 -28q-4 -14 -3 -34t3 -34q2 -10 3 -12t7 -6q22 -10 73 -34zM811 1170v10q0 38 -3 86t-9 86q-2 6 -3 11l-1 5l-4 -1q-4 -1 -10 -3q-24 -8 -51 -20t-53 -26q-16 -8 -35 -20l-19 -12l7 -3q7 -3 15 -7q34 -18 65 -37t59 -37q10 -6 23 -16
t17 -12zM247 1238v2v8q-2 4 -2 11t-2 13q0 26 4 46t16 46q4 8 6 13l2 5l-82 24q-82 24 -116 34q-12 2 -20 5l-8 3q-2 0 -2 -1v-3q4 -26 22 -56t44 -58q18 -18 35 -31t41 -27q18 -10 39 -22t23 -12v0v0zM603 1302l3 2q3 2 9 4q36 22 83 40t91 28l6 2l-8 4q-22 12 -89 40
t-143 56l-20 8q-10 4 -12 4t-3 1l-1 1l2 -6q2 -6 6 -12q22 -40 42 -85t30 -79l3 -6l1 -2v0zM567 1314l-2 3q-2 3 -2 7q-16 36 -35 76t-45 84q-6 10 -11 18l-5 8l-4 -2q-4 -2 -10 -6q-38 -22 -68 -49t-52 -53l-4 -4l20 -6q56 -16 105 -33t95 -37q8 -2 13 -4l5 -2v0zM791 1392
v0q0 4 -7 32t-13 54q-6 22 -12 41t-16 49q-4 14 -7 23l-3 9h-1h-3q-50 -10 -96 -23t-88 -29q-12 -6 -26 -12l-14 -6l8 -5q8 -5 22 -9q78 -34 149 -69t99 -51l6 -3zM271 1410q2 0 -18 28l-50 70q-10 16 -21 31t-15 21q-6 6 -12 15l-10 15l-10 16l-10 -8q-8 -8 -21 -22
t-21 -22q-14 -18 -24 -37t-14 -37q-2 -8 -2 -12t2 -4q2 -2 40 -11t82 -19q22 -4 46 -10t34 -8t17 -4zM301 1422l8 8q24 26 50 48t56 38l9 6l3 2q0 2 -78 29t-126 45q-28 10 -47 16t-21 6l-1 -1q-1 -1 -3 -1l-4 -4l6 -8q16 -24 40 -54t68 -82zM483 1552q0 -2 7 1t15 7
q22 8 42 14t42 12q30 6 67 13t61 9h6h2q-2 2 -22 9t-38 11q-30 10 -107 33t-149 43q-14 4 -24 7l-10 3q-2 0 -6 -1l-4 -1l3 -5q3 -5 9 -11q24 -30 48 -61t44 -63q6 -8 10 -14zM443 1552l-12 19q-12 19 -32 53q-10 14 -19 28t-13 18q-2 6 -7 14t-7 12l-6 12l-4 -2
q-6 -2 -38 -13t-44 -15l-28 -12q-14 -6 -24 -12q-14 -8 -27 -16t-13 -10l21 -5q21 -5 49 -13q74 -20 119 -33t71 -21q6 -2 10 -3zM725 1618h2q0 2 -20 58t-30 80q-2 6 -3 7t-3 1t-34 -4t-56 -8q-42 -6 -100 -16t-76 -14l-6 -2l34 -8q56 -12 87 -20t57 -16q34 -10 67 -23
t67 -29q6 -2 10 -4l4 -2v0zM557 272q-4 0 -51 17t-87 33q-52 22 -93 42t-65 38q-10 6 -20 16t-12 14v4v4l30 28l72 24l174 30l198 34l2 -16h-2l-26 -4l-6 -10q-20 -36 -40 -76t-34 -70q-10 -22 -19 -47t-15 -45q-2 -10 -3 -13t-3 -3v0zM553 284v0l1 4q1 4 1 10q4 24 9 47
t13 49q6 18 6 20t-6 0q-18 -4 -83 -15t-121 -19q-8 -2 -15 -3l-7 -1l30 -16q30 -16 48 -24q24 -12 72 -32t52 -20zM333 386l10 2q36 14 111 28t125 18q6 0 10 1l4 1l-4 2q-4 2 -10 6q-24 12 -49 25t-43 25q-6 4 -10 6t-6 2h-3q-3 0 -7 -2h-10l-22 -22q-30 -30 -52 -51
t-32 -31zM325 392l32 40q12 18 24 32t14 18q4 2 6 5l2 3q-2 0 -27 -5t-43 -9q-20 -4 -30 -7t-22 -5l-12 -4v-4q0 -12 14 -28t38 -34zM597 448q2 0 3 1t3 7q6 12 19 39t19 33q0 2 -2 2t-26 -4q-58 -10 -80 -14l-22 -4l1 -1q1 -1 3 -1q18 -10 36 -23t34 -25l7 -7q3 -3 5 -3v0z
M231 430l-2 5q-2 5 2 13q2 6 8 13t12 13l53 51q53 51 61 63q42 48 62 99t22 117q0 42 -8 81t-28 83q-36 78 -111 163t-191 181l22 -8q12 -8 29 -18t53 -30q80 -44 172 -85t204 -83q80 -30 181 -62t205 -60t203 -50t173 -32l22 -4l-4 -6q-14 -20 -24 -35t-22 -29
q-32 -40 -72 -73t-90 -61q-66 -38 -153 -67t-197 -51q-20 -4 -60 -11t-78 -13q-78 -12 -134 -21t-112 -19q-20 -2 -46 -7t-46 -9q-10 -2 -28 -7t-32 -9l-28 -12q-14 -6 -18 -20zM289 486l3 1q3 1 7 1q6 2 14 5t18 5q8 2 15 4t15 4q10 4 18 6l8 2l13 41q13 41 19 61q2 8 3 14
l1 6l-1 -2l-3 -6q-20 -36 -51 -70t-67 -62q-4 -4 -8 -7zM401 518q2 -2 5 -1l9 3q28 6 73 14t79 14q6 2 10 3l4 1l-2 1q-2 1 -4 3q-6 2 -24 13t-24 15q-20 12 -36 26t-30 26l-8 8l-4 4l-1 -3q-1 -3 -1 -5q-6 -24 -18 -56t-22 -56q-2 -4 -4 -7l-2 -3v0v0zM599 554q2 0 3 6
t5 20q6 24 9 51t3 53q-2 8 -2 13v7l-2 2l-10 -4q-18 -6 -46 -14t-52 -14q-16 -4 -26 -7t-10 -5l16 -16l24 -24q18 -14 52 -41t36 -27zM615 556l52 9q52 9 84 15q24 6 51 11t29 7q2 0 -2 2l-16 8q-44 20 -80 39t-70 41q-8 6 -14 10l-6 4v-4v-10q-2 -32 -8 -64t-18 -60
q0 -2 -1 -5l-1 -3v0zM857 604q0 2 -2 12t-4 18q-6 26 -21 61t-35 71q-4 6 -7 11l-3 5l-4 -2q-4 -2 -10 -6q-20 -12 -42 -22t-48 -22q-6 -2 -11 -4l-5 -2q-2 -2 39 -29t71 -45q24 -14 52 -30t30 -16zM873 608q2 0 26 6t40 12q40 12 83 27t73 29l16 8l-12 2q-74 16 -138 36
t-124 46q-6 2 -10 3l-4 1l2 -3q2 -3 4 -9q18 -38 29 -77t15 -75v-4v-2v0zM461 702l19 4q19 4 31 8q20 6 50 16l30 10q0 2 -3 5t-9 7q-22 20 -45 40t-49 44l-13 13l-5 5q-2 0 -2 -1v-1q4 -30 4 -65t-6 -73q0 -4 -1 -8zM1127 702q0 2 -9 15t-15 23q-10 16 -28 38t-52 64
q-18 24 -35 46t-25 30q-6 8 -11 15l-5 7l-2 -3q-2 -3 -4 -7q-20 -28 -43 -54t-49 -48q-6 -4 -11 -8t-7 -6q-2 0 -3 -2l-1 -2l23 -10q23 -10 45 -18q38 -16 86 -33t88 -29q20 -8 39 -13zM1145 708l4 1q4 1 8 5q42 24 81 53t71 61q10 8 26 25t16 19h-7h-17q-72 6 -160 21
t-176 35q-6 2 -10 3t-6 1l6 -6l14 -14q52 -50 81 -88t57 -96l7 -14l3 -6h2v0zM637 760q2 0 20 8l36 16q14 8 32 18t20 12l-7 3q-7 3 -17 9q-32 16 -61 32t-57 32q-8 6 -14 9l-6 3q-2 0 -1 -1t7 -11q14 -28 26 -60t20 -64q0 -4 1 -5l1 -1v0zM607 764q0 2 -4 18t-8 26
q-6 22 -17 47t-23 45q-2 6 -6 12t-6 10l-6 10l-12 -14q-12 -10 -22 -17t-20 -13q-6 -2 -9 -4l-3 -2q0 -2 23 -23t47 -41q16 -14 41 -34zM789 840l10 6q20 12 41 28t39 30q8 8 23 21t19 17l2 4l-18 4q-78 22 -143 43t-135 47q-8 4 -14 6l-6 2q-2 0 0 -2l20 -20q46 -40 85 -85
t69 -89zM741 852l-18 25q-18 25 -32 43q-16 22 -42 55t-48 57q-8 10 -14 17l-6 7q-2 0 -2 -2v-6q0 -20 -5 -41t-15 -41q-4 -8 -4 -10v-4q4 -2 42 -24t70 -40q22 -12 48 -25t26 -11zM453 922l4 2l8 4l20 12q10 6 18 14q2 0 -2 3t-10 7q-16 12 -38 28t-36 28t-17 14t-1 0
q10 -18 17 -29t13 -25q6 -10 11 -23t9 -23q0 -6 2 -9zM529 982q2 0 3 2t7 8q10 16 16 34t8 34l2 4l-32 12q-42 16 -79 31t-63 27q-8 4 -19 9t-19 9q-8 6 -14 8l-6 2l4 -3l12 -9q50 -36 94 -76t76 -82l7 -7l3 -3v0v0zM495 990q0 2 -15 19t-29 29q-32 34 -66 62t-74 52
q-6 4 -10 7l-4 3q-2 0 2 -4t22 -24q10 -12 20 -23t18 -23q8 -8 11 -12t13 -10q24 -18 67 -47t45 -29z" />
</svg>
