<?xml version="1.0" standalone="no"?>
<!DOCTYPE svg PUBLIC "-//W3C//DTD SVG 1.1//EN" "http://www.w3.org/Graphics/SVG/1.1/DTD/svg11.dtd" >
<svg xmlns="http://www.w3.org/2000/svg" xmlns:xlink="http://www.w3.org/1999/xlink" version="1.1" viewBox="-11 0 1458 2048">
   <path fill="currentColor"
d="M903 1096l16 -12q8 -6 14 -12q-18 4 -37 4t-37 -2q-22 2 -3 10t47 12zM1019 1036q12 -18 22 -38t12 -42q-2 16 -9 29t-15 27q-42 26 -23 0t23 -42q-44 56 -26 53t16 13zM1077 882q2 -40 -5 -35t-11 19q6 2 9 17t7 -1zM747 152q12 2 23 4t9 6q12 -4 10 -6t-42 -4zM777 162
h2l-12 2zM737 1266q-32 -14 -61 -37t-53 -49l28 36q14 18 32 32q-30 -10 -64 -54t-46 -48q52 94 181 150t211 22q-38 2 -84 -1t-90 -19q-16 -10 -34 -23t-18 -19q0 2 -1 4t-1 6zM739 1254v1v1v-2zM1377 770q0 -22 4 -19t6 -3q-4 -2 -13 -18t-15 -46q4 -6 11 9t13 17
q-4 -24 -9 -43t-5 -37q-18 -40 -16 -21t-12 -1q-20 -62 1 -45t23 -11q30 42 47 98t25 84q-6 -34 -15 -66t-21 -64q10 4 0 -36t16 8q-28 -104 -108 -193t-166 -133q12 8 21 18t5 12q-42 -24 -45 -32t-9 -18q-34 -14 -45 -6t-35 6q-64 -34 -93 -41t-89 -29l4 18
q-44 -16 -63 -6t-65 6q-4 -2 10 -7t28 -7q-42 6 -54 -1t-52 3q10 -8 20 -13l22 -11q-34 2 -69 12t-21 -6q-54 24 -138 60t-138 86l-2 -14q-26 30 -88 81t-68 91l-10 2q-12 22 -22 46l-20 48q-16 28 -24 22t-6 -2q-34 70 -53 127t-33 105q10 14 6 79t-2 127q-8 152 41 298
t137 267t204 208t242 121q38 14 89 16t97 2q-56 -14 -79 -15t-77 -21q-38 -18 -55 -39t-45 -45l16 26q-54 -18 -56 -27t-46 -23l16 -20q-18 -2 -41 -23t-31 -37h-26q-22 -28 -34 -49t-12 -37l-8 16q-6 -12 -53 -74t-5 -40q-8 -6 -18 -13t-20 -27l10 -14q-18 -24 -32 -51
t-14 -39q10 14 18 19t16 7q-50 -122 -66 -85t-54 -79l12 -2q-6 -8 -11 -18t-9 -20l4 -46q-34 -40 -22 -147t16 -181q4 -28 25 -62t41 -84l-16 -4q22 -40 107 -126t135 -80q24 -30 8 -16t-22 6q54 -54 80 -54t62 -10q38 -24 0 -9t-20 -3q66 -18 79 -36t101 -28q8 6 -12 10
t-28 10q56 -28 159 -22t183 42q90 42 174 153t88 229l6 2q-2 48 1 100t-13 102l14 -32q2 36 -7 59t-21 55l-24 12q-16 30 -9 32t-5 26q-24 22 -64 57t-56 39q-12 0 -1 -10t15 -14q-34 22 -43 36t-59 26l-2 -4q-62 30 -132 18t-128 -53t-96 -107t-36 -144q-2 10 -4 11t-6 5
q-6 -82 35 -155t115 -107q72 -36 149 -24t129 60q-28 -36 -82 -68t-122 -30q-64 2 -120 38t-76 80q-34 22 -45 68t-25 56q-20 146 31 224t147 152q8 6 10 9t0 5v0q114 42 228 30t212 -92q24 -20 48 -45t32 -25q-12 18 -6 17t-4 15q26 -40 12 -40t24 -52l18 24q-6 -34 23 -75
t25 -93q10 -16 11 9t-11 63q16 -42 12 -59t0 -51q4 12 9 24t9 24q-12 -40 1 -68t19 -52q-6 -2 -14 3t-10 -41zM531 1136q16 20 29 40t31 36q-14 -26 -25 -43t-31 -53zM581 1114q-6 -8 -12 -18t-10 -20q4 18 13 33t19 31zM1341 1112q22 -40 36 -85t20 -91l-4 12q-6 42 -19 84
t-33 80zM823 130q-20 2 -41 3t-41 3l12 2q14 -6 34 -5t36 -3zM57 544q16 -34 5 -27t-13 -3q2 32 -10 41t18 -11zM17 648q-20 26 -17 36t1 26q8 -20 10 -35t6 -27z" />
</svg>
