<?xml version="1.0" standalone="no"?>
<!DOCTYPE svg PUBLIC "-//W3C//DTD SVG 1.1//EN" "http://www.w3.org/Graphics/SVG/1.1/DTD/svg11.dtd" >
<svg xmlns="http://www.w3.org/2000/svg" xmlns:xlink="http://www.w3.org/1999/xlink" version="1.1" viewBox="-10 0 1712 2048">
   <path fill="currentColor"
d="M500 606h262v840h-100v142h390v-158h-122v-836h278v122h126v-250h-978v250h144v-110zM1642 180h-1590q-20 0 -36 14t-16 34v1590q0 20 16 35t36 15h1590q22 0 36 -15t14 -35v-1590q0 -20 -14 -34t-36 -14zM1416 798h-290v-122h-114v672h122v322h-552v-306h98v-676h-98
v110h-308v-414h1142v414z" />
</svg>
