<?xml version="1.0" standalone="no"?>
<!DOCTYPE svg PUBLIC "-//W3C//DTD SVG 1.1//EN" "http://www.w3.org/Graphics/SVG/1.1/DTD/svg11.dtd" >
<svg xmlns="http://www.w3.org/2000/svg" xmlns:xlink="http://www.w3.org/1999/xlink" version="1.1" viewBox="-10 0 1912 2048">
   <path fill="currentColor"
d="M472 683q2 -2 4 -3t4 -1q-2 0 -4 1t-4 3zM82 1401h8h28h30h22h2h2h3h3v0h2h2v0q114 -6 173 -61t85 -139q22 -66 39 -122t31 -102v0q0 -2 1 -2h1q36 -52 72 -95t70 -77v0q26 78 47 178t51 189t76 151t120 62h12q6 0 12 -2q-6 2 -12 2h-12h158q-8 0 -16 -1t-16 -3
q-4 0 -9 -1t-9 -3q4 2 9 3t9 1q8 2 16 3t16 1q22 0 41 -2t35 -8q-16 6 -35 8t-41 2h156v0h1h3v0v0h58q-6 0 -11 -1t-9 -3v0q4 2 9 2h11q58 0 117 -50t127 -145t147 -231t175 -308h-100v4h-20q-70 126 -122 233t-94 193q42 -86 94 -193t122 -233h-138h-4h-4h-4h-4q-4 0 -7 -1
t-7 1v-1v-1q-112 8 -170 61t-84 137q-46 146 -76 244t-58 158v0v0q-12 12 -25 23t-25 21q-6 6 -13 11t-13 9q6 6 11 12t11 12q10 8 19 16t21 12v0q-12 -4 -21 -12t-19 -16q-6 -6 -11 -12t-11 -12v0q6 -4 13 -9t13 -11q-36 -80 -62 -201t-66 -225q40 104 66 225t62 201
q12 -10 25 -21t25 -23q-26 -78 -47 -179t-51 -191t-76 -152t-120 -62q-12 0 -22 1t-22 3q12 -2 22 -3t22 -1l-80 -2q10 0 19 2t17 2v0q-8 0 -17 -2t-19 -2h-1h-1h1h1h-316h-4h-2q-66 0 -140 57t-145 156t-133 234t-102 291h6h14v0h37h25zM1596 665v0q-38 12 -67 32t-51 48
q22 -28 51 -48t67 -32zM1354 1359l-1 1l-1 1h-1h-1v0h1q1 0 3 -2zM1332 1369h1h1h-1h-1h-2h2v0zM1330 1369v0v0v0zM1314 1375h1h3v-1q0 -1 2 -1h2h2v-1v-1h3h1h2v0h-3h-3v2h-2h-2q-2 0 -2 1v1h-2h-2v0v0zM480 679v0v0q-4 0 -6 1t-4 3h2q-2 0 -4 1t-4 1q-2 2 -3 2h-3z
M510 669v0q-4 0 -6 1t-4 1v0q0 2 -1 2h-1l1 -1l1 -1v0q2 0 4 -1t6 -1v0q0 -2 1 -2h1l-1 1zM514 667v1q0 1 -2 1q2 0 2 -1v-1h1h1h-1h-1zM544 667h-1h-3v0h3h1h1h1h-1h-1zM548 665h-5h-5v1q0 1 2 1q-2 0 -2 -1t-2 -1h1h1v0h-2v0h-3h-3v0l-2 2h-2v0h-2v0h-2h2v0h2v0q2 0 2 -1
t2 -1v0h3h3v0h7h5zM560 669q-4 0 -6 -1t-4 -1v0v0q2 0 4 1t4 1h2v0v0zM622 719v0q-8 -12 -15 -21t-15 -17v2q8 6 16 16t14 20v0zM796 669q10 -2 18 -3t18 -1q-10 0 -18 1t-18 3zM684 777v0v0v0zM832 681l-28 12q-14 6 -28 14q14 -8 28 -14l28 -12q8 -2 18 -5t18 -5
q-8 2 -18 5t-18 5zM878 669v0v0zM1016 1373q6 -2 12 -3t12 -3v0q-6 2 -12 3t-12 3zM1210 1361v0v0v0zM1250 1381q-12 -2 -25 -5t-23 -11q10 8 23 11t25 5q2 0 4 1t4 1q-2 0 -4 -1t-4 -1zM1250 1327v0q8 12 16 23t18 17q-10 -6 -18 -16t-16 -24zM1278 1383h-1h-1v0h1h1h1h1v0
h-1h-1zM1290 1381h-1h-3v0v0q-2 0 -2 1t-2 1v0q2 0 2 -1t2 -1v0h3h1v0v0z" />
</svg>
