<?xml version="1.0" standalone="no"?>
<!DOCTYPE svg PUBLIC "-//W3C//DTD SVG 1.1//EN" "http://www.w3.org/Graphics/SVG/1.1/DTD/svg11.dtd" >
<svg xmlns="http://www.w3.org/2000/svg" xmlns:xlink="http://www.w3.org/1999/xlink" version="1.1" viewBox="-11 0 1673 2048">
   <path fill="currentColor"
d="M1237 781q-4 -2 -7 -3t-5 -3q4 12 6 22t2 18q2 -8 3 -15t1 -15q0 10 -1 19t-3 17v-3v-3q-4 10 -8 21t-10 19q2 0 3 -1t1 -3q-34 58 -111 66t-123 -50q-74 -96 -34 -198t50 -204q14 -128 -54 -243t-166 -189q54 88 6 191t-106 169q-56 62 -120 117t-126 113
q-66 62 -129 128t-117 138t-96 153t-66 167t-27 176t21 180q24 92 74 165t117 130t149 96t170 59q-90 -40 -160 -128t-70 -188q0 -110 60 -200t146 -150q-10 38 -11 74t25 72q22 32 61 47t79 5q92 -20 101 -100t-47 -140q-54 -58 -94 -126t-20 -152q10 -44 35 -82t59 -66
q-26 66 26 127t98 93q84 56 170 106t162 116q80 70 131 163t39 203q-14 120 -97 202t-189 124q112 -26 222 -81t196 -135t140 -185t58 -229q2 -102 -30 -193t-89 -167t-133 -137t-162 -107z" />
</svg>
