<?xml version="1.0" standalone="no"?>
<!DOCTYPE svg PUBLIC "-//W3C//DTD SVG 1.1//EN" "http://www.w3.org/Graphics/SVG/1.1/DTD/svg11.dtd" >
<svg xmlns="http://www.w3.org/2000/svg" xmlns:xlink="http://www.w3.org/1999/xlink" version="1.1" viewBox="-10 0 2024 2048">
   <path fill="currentColor"
d="M0 22v2004h2004v-2004h-2004zM1046 1736q-22 46 -62 75t-90 43q-74 18 -144 9t-122 -41q-36 -22 -64 -55t-48 -71q38 -24 76 -47t76 -47q2 0 5 5t7 13q14 24 29 41t39 29q26 10 69 7t63 -45q12 -22 12 -86v-140v-242v-244h188v259v257q0 80 -1 151t-33 129zM1824 1684
q-26 82 -98 127t-160 53t-175 -17t-141 -81q-24 -26 -39 -44t-29 -48q58 -34 77 -45t75 -43q30 46 63 73t83 37q70 10 125 -17t39 -101q-16 -60 -116 -90t-186 -94q-86 -58 -102 -175t54 -199q24 -28 62 -50t80 -32q14 -2 29 -4t31 -4q84 -2 140 20t96 66q10 10 21 24t27 40
q-46 28 -64 40t-82 54q-14 -30 -36 -49t-46 -27q-38 -10 -78 3t-50 51q-2 14 -1 27t5 33q16 34 60 54t90 40q132 54 186 113t66 127q10 60 3 96t-9 42z" />
</svg>
