<?xml version="1.0" standalone="no"?>
<!DOCTYPE svg PUBLIC "-//W3C//DTD SVG 1.1//EN" "http://www.w3.org/Graphics/SVG/1.1/DTD/svg11.dtd" >
<svg xmlns="http://www.w3.org/2000/svg" xmlns:xlink="http://www.w3.org/1999/xlink" version="1.1" viewBox="-11 0 1898 2048">
   <path fill="currentColor"
d="M1628 20q-86 4 -174 54t-152 130t-92 179t8 199q38 100 68 188t53 176t37 181t20 205q90 -92 174 -187t150 -196t108 -208t48 -221q4 -186 -71 -317t-177 -183zM1026 1120q-24 46 -59 96t-77 104q-48 60 -91 135t-75 166t-45 193t1 214q190 -20 319 -94t207 -171
t114 -200t42 -181q-72 -110 -179 -176t-157 -86zM2 206q-8 86 11 190t74 201t152 177t249 122q128 38 225 66t193 62q142 52 255 123t201 185q-8 -98 -32 -201t-62 -205t-90 -200t-116 -186q-92 -124 -214 -214t-261 -136t-289 -44t-296 60z" />
</svg>
