<?xml version="1.0" standalone="no"?>
<!DOCTYPE svg PUBLIC "-//W3C//DTD SVG 1.1//EN" "http://www.w3.org/Graphics/SVG/1.1/DTD/svg11.dtd" >
<svg xmlns="http://www.w3.org/2000/svg" xmlns:xlink="http://www.w3.org/1999/xlink" version="1.1" viewBox="-10 0 1452 2048">
   <path fill="currentColor"
d="M742 1901q25 -12 42 -28t18 -28q0 -6 48 -53t56 -51q1 0 9.5 2t16.5 6l22 8l-42 26q-17 10 -30.5 18t-15.5 8zM918 1803l38 -20q60 -28 186 -72t186 -56q26 -4 24 -7q-5 -3 -34 1q-14 2 -27.5 4t-14.5 4q-12 4 4 -11t42 -33q13 -10 21 -16t5 -6q-23 0 -156.5 53
t-167.5 77q-14 8 -17 6t-3 -20q0 -16 6 -22t34 -22q24 -12 130 -60t110 -48q1 0 -2 8l-10 20l-16 28l42 -42q18 -16 31 -29t15 -13q0 -2 -9 -1t-23 3q-12 4 -22.5 5t-11.5 -1q-5 -6 2.5 -43t17.5 -55q4 -10 9.5 -31t10.5 -41q12 -74 27 -134t33 -102q36 -86 43.5 -113
t2.5 -53q-2 -10 -3.5 -24t-0.5 -20q1 -8 0 -17t-2 -15q-2 -8 -2 -14t4 -10q1 -4 -1.5 -12t-16.5 -24q-11 -12 -18 -21l-6 -9q1 -2 8 -5t16 -5l20 -10l6 -78q1 -34 2 -57l2 -23l-18 5q-16 5 -38 13q-24 8 -42 13t-22 5q-6 0 -14 -16t-26 -68q-12 -34 -15 -50t-1 -36
q1 -30 -6.5 -87t-21.5 -97q-18 -52 -60 -124t-58 -80q-17 -8 -27.5 -6t-14.5 12q-6 10 -4.5 21t24.5 57l20 48l-36 -28q-60 -46 -114 -75t-86 -33q-23 -4 -27 -2t-9 16q-2 8 -7 13t-9 7q-6 2 -9 7t-3 17q0 16 9 28t51 50l40 40q16 16 14 18q-2 0 -16 -9t-32 -21
q-29 -18 -42 -24t-28 -8q-36 0 -36 21t38 49q12 8 34.5 28t41.5 40l44 46l-40 6q-48 10 -69 17t-25 15q-11 18 0 27t62 25q25 8 48 18t30 14q16 16 49 36t57 26q13 6 23.5 12t12.5 12q4 6 8.5 11t11.5 9q6 2 12 11t12 27q1 12 3 23t3 13q-2 0 -17 5t-35 13l-50 14l42 76
q28 52 37 63t21 9q13 0 13.5 3t-11.5 23l-12 20l12 26q7 12 9 21t1 15q-2 8 -5 6t-13 -20q-11 -26 -36.5 -59t-43.5 -49q-32 -26 -53 -33t-63 -9h-52l-26 -26q-12 -12 -29 -24t-31 -20q-24 -10 -39 -13t-67 -3h-72l-54 30q-53 26 -103.5 76t-84.5 108q-12 20 -21 33t-9 11
q-2 -2 -3.5 -10t-2.5 -18q-5 -18 -3 -22t15 -4q13 -2 17.5 -9t12.5 -45q6 -22 10.5 -41t7.5 -23q1 -8 -6 -12t-44 -14q-29 -6 -39.5 -11t-10.5 -11q0 -14 9 -43t15 -37q4 -4 7 -10t3 -10q1 -6 9.5 -13t20.5 -13q30 -18 40.5 -32t43.5 -74q22 -46 38 -70t42 -50
q16 -18 29 -33t13 -17q0 -8 -13.5 -22t-18.5 -14q-14 0 -0.5 -11t72.5 -49q78 -48 91 -59t7 -17q-6 -4 -38 14t-112 68q-59 38 -102 63l-42 25q-2 0 -6.5 -11t-9.5 -25l-12 -38l40 -38q31 -30 39 -44t1 -24q-5 -4 -15.5 -1t-44.5 19q-23 10 -51.5 22t-48.5 18
q-35 10 -42.5 11t-15.5 -5q-19 -16 -36.5 -1t-63.5 85q-8 14 -16 23t-10 9t-11 -14t-21 -36q-12 -20 -24 -39t-16 -23q-12 -14 -22.5 -13t-11.5 13q-6 18 12 89t48 167q10 30 11 36t-7 10q-6 4 -7.5 8t3.5 16q4 10 8 13t10 1t10.5 5t15.5 29q12 28 13 37t-5 33q-5 14 -8 25
l-2 11l-10 -2q-8 -2 -22 -6q-38 -10 -44 -3t-12 71q-5 32 -6 57t0 29q0 4 6 8t20 6l26 2l-4 36q-2 20 -1 29t7 15q6 8 9 69t5 229v82l22 6q20 8 30.5 17t11.5 21q0 4 6 12t18 16q10 8 43 32t69 50q61 46 73.5 57t8.5 21q-5 10 -3.5 15t13.5 15q10 12 11 15t-5 5
q-5 0 -16.5 -1t-23.5 -5q-30 -6 -101 -9t-71 1q0 2 18.5 13t43.5 23t40.5 18t9.5 2q-5 -4 -15 -13t-19 -15l-22 -20l32 4q48 6 156 36t118 40q6 6 1 7t-31 -3q-80 -6 -126.5 -7t-99.5 5q-35 2 -60 5t-28 5q-6 4 49 8t123 4q54 0 126 11t192 39l42 8l-8 22q-12 24 -27 73
t-11 55zM954 139q60 32 97 62t37 44q0 10 1.5 13t8.5 3q4 0 11 2t11 4q6 4 7.5 3t2.5 -5q0 -8 -9 -35t-25 -65q-14 -32 -14 -46t14 -14q9 0 19.5 13t36.5 57q25 46 42 84t30 76q10 36 14 90t-2 72q-5 10 -4.5 18t6.5 22q13 34 30 77t18 47q0 4 -60 24t-72 20q-2 0 -5 -4
t-5 -10q-11 -32 -19.5 -53t-14.5 -21q-2 0 -7 -5t-9 -11q-8 -16 -19 -22t-41 -12q-17 -4 -37.5 -14t-46.5 -28q-30 -20 -49.5 -28t-40.5 -12q-17 -2 -30 -6t-16 -6q-11 -4 -10.5 -13t10.5 -15q7 -4 69 -10t77 -2q7 0 16.5 -3t21.5 -11q19 -14 17.5 -18t-21.5 6q-20 12 -32 8
t-30 -24q-8 -10 -32 -33t-48 -45q-44 -38 -54.5 -53t2.5 -19q6 -4 25 6t65 40q19 12 43.5 27t38.5 21q24 14 28 15t-4 -9q-23 -28 -70.5 -80t-65.5 -70q-23 -20 -27.5 -35t7.5 -19q10 -4 35.5 12t94.5 68q40 30 53.5 39t0.5 -5q-24 -22 -69 -57t-73 -51q-8 -4 -14 -11
t-6 -13q-2 -16 20 -12t72 32zM430 229q0 8 -11 20t-35 32q-20 16 -34 28l-14 12q0 2 4 2h10q6 -2 10.5 4t11.5 24q10 30 10 42t-14 16q-11 2 -18 -2t-20 -16q-18 -20 -20 -33t12 -25q7 -4 5.5 -4t-15.5 6l-22 10l-16 -20q-8 -8 -12.5 -17t-3.5 -11q0 -4 15 -12t35 -18
q19 -8 42 -19l34 -17q24 -14 34.5 -15t11.5 13zM240 297q4 8 22 27t36 39q34 34 41 48t-5 20q-18 6 -40.5 -2t-49.5 -34q-11 -8 -18 -13l-6 -5q-3 2 -5 8t-3 14v14q0 2 4 -4q2 -4 6 -7t6 -3q7 0 34.5 20t27.5 26t-88.5 58t-103.5 56q-8 2 -39.5 -96t-40.5 -152
q-2 -14 -1 -18t9 -4q10 0 25 22t41 76q12 22 20 37l8 15v-4v-12q-2 -8 7 -26t31 -54q36 -54 49.5 -63t32.5 17zM526 379q0 10 -4.5 18t-19.5 24q-20 22 -50 65t-46 75q-12 24 -34.5 47t-41.5 33q-12 6 -17 13t-7 21q-2 10 -6 18l-6 12q-5 2 -9.5 15t-8.5 27q-5 16 -9.5 28
t-8.5 14q-2 0 -23 -3t-49 -9l-64 -18l4 -20q1 -10 4.5 -22t7.5 -20q6 -12 4.5 -21t-16.5 -39q-11 -22 -15 -35t-1 -17q6 -8 109 -71t111 -63q6 0 13.5 -4t16.5 -10q19 -18 78 -47t72 -29q7 0 10.5 4t5.5 14zM1410 711q-2 22 -4 39t-4 19q-5 4 -138 50t-140 46
q-8 0 -36.5 -49t-23.5 -57q0 -2 49.5 -18t110 -34t114.5 -33t62 -15q10 0 11 6t-1 46zM210 795q60 14 105 27t47 15q4 4 -4 39t-14 47q-2 2 -38 -1t-120 -15q-62 -8 -108.5 -15t-45.5 -9q-2 -2 -1 -21t3 -45q4 -40 7 -51t9 -11t52 12t108 28zM764 781q40 18 62 41t32 51
q7 28 7.5 62t-7.5 40q-5 4 -6 11t2 17q4 34 -18.5 71t-65.5 67q-54 36 -92 47t-154 23q-90 8 -117 16t-43 30q-5 6 -10.5 11t-9.5 5q-8 0 -7 -15t9 -29q13 -24 41.5 -36t104.5 -30q82 -18 122 -31t78 -35q25 -14 39.5 -27t14.5 -25q0 -4 -7.5 -1t-20.5 11q-36 26 -87 41
t-143 25q-53 8 -93.5 19t-64.5 27q-18 12 -29 14t-11 -6q0 -2 10 -19t24 -39q42 -66 106.5 -118t131.5 -74q46 -14 113.5 -15t98.5 13q7 4 14.5 6t5.5 0q-5 -8 -42 -20t-64 -14q-71 -4 -151.5 25t-128.5 77q-14 16 -32 28t-26 12q-6 0 7 -23t41 -67q52 -76 104 -119t112 -57
q55 -14 81 -13t69 23zM1378 821q13 14 17.5 22t2.5 18q0 8 1 15t3 9q1 4 2.5 12t-0.5 18q-2 16 -8 17t-44 -7q-8 -2 -4 2t22 14q24 14 28.5 20t7.5 24q1 16 -12 52t-42 98q-6 14 -10.5 28t-3.5 20q0 6 -2 11t-4 7q-6 2 -15 37t-17 89q-5 30 -10.5 55t-15.5 45q-8 18 -13 39
t-7 41q-2 28 -6.5 37t-11.5 17q-18 12 -114 52t-104 40q-6 -2 -12 -11t-12 -27q-17 -36 -18 -59t10 -45q4 -8 10 -22t8 -24q4 -10 8 -19t8 -9l8 -8q6 -6 12 -14q4 -10 10 -15t8 -5q3 0 7.5 12t6.5 34q3 18 7.5 37t8.5 27q6 14 7 11t1 -35q1 -44 5.5 -67t12.5 -25q6 0 8 6
t4 24q1 12 4.5 27t7.5 23q6 14 7 9t-1 -47q-2 -24 -0.5 -52t4.5 -46q6 -38 15 -41t39 23q12 8 19 14t7 4q0 -8 -22.5 -37t-37.5 -41q-29 -20 -25.5 -27t41.5 -7q18 0 36 2t26 4l20 6l-22 -20q-11 -8 -25.5 -17t-24.5 -13l-26 -8l-12 -56q-12 -48 -13.5 -64t9.5 -42
q6 -18 4.5 -25t-8.5 -19q-11 -18 -10.5 -31t10.5 -29q4 -6 5.5 -14t2.5 -14q-2 -4 1 -8t9 -8q19 -10 97.5 -39t84.5 -29q1 0 10.5 7t19.5 17zM962 857q19 6 32.5 14t31.5 26q11 12 23.5 28t18.5 26l10 22l-12 -2q-6 -2 -18 -7t-24 -11q-18 -10 -34 -13t-52 -5l-58 -4l-2 -36
q0 -20 1 -30t5 -12q10 -6 31 -5t47 9zM198 923q37 6 65.5 11t30.5 9q4 2 8.5 24t11.5 50q7 46 7.5 59t-5.5 19q-12 14 -44 93t-32 97q0 4 7 -6t17 -26t20 -28t16 -14t7 2t-1 22q-5 32 4.5 74t25.5 62q7 10 14 17l6 7v-5v-13q-2 -14 5 -17t17 9q1 4 13 12t25 14
q25 16 31.5 33t2.5 71l-2 44l18 -20q6 -10 13 -19t11 -15t8.5 -7t13.5 1q12 4 42 30t30 34q0 2 -3 10t-7 16q-8 12 -9.5 23t1.5 29q1 22 -0.5 29t-11.5 19q-6 6 -11 12t-5 8t-3 4t-7 2q-12 0 -70.5 -16t-57.5 -20q0 -2 -3 -9t-5 -15q-5 -8 -6.5 -19t-1.5 -19q1 -12 -9 -23
t-63 -51q-32 -24 -64 -46t-46 -32q-26 -18 -41 -38t-13 -36q1 -8 -0.5 -10t-7.5 -2q-6 2 -14 1t-16 -5l-16 -6l4 -40q6 -74 7 -115t-3 -111q-5 -48 -9 -75t-7 -33q-8 -14 -2 -41t16 -27q4 0 32.5 4t65.5 8zM986 949q28 8 65.5 31t46.5 37q13 20 8.5 28t-22.5 -2q-6 -4 -3 2
t15 18q18 20 31 45t17 45q0 8 -2 12t-14 4q-6 0 -26 -4t-40 -10q-30 -10 -59 -26t-65 -46q-5 -4 -6 -4h-2q0 2 12 14t30 28q28 24 43 32t39 14q24 4 73 12t59 8v2q2 2 2 6q0 8 -81 12t-103 -2q-44 -12 -83 -36t-55 -50q-6 -8 -9 -20t-3 -26q0 -28 4.5 -38t15.5 -6q4 0 5 -4
t-1 -18v-25q0 -13 2 -21l4 -20h36q13 0 33 2t33 6zM874 1147q22 32 91 76t97 44q6 0 13.5 4t12.5 8q6 8 7 14t-3 16q-5 14 -4.5 15t6.5 -7q4 -4 7 -12t5 -16q1 -8 5.5 -12t10.5 -4q13 0 14.5 11t-8.5 35q-11 22 -24 34t-26 12q-11 0 -15.5 4t-10.5 14q-14 26 -33.5 44
t-40.5 30q-20 8 -21.5 10t15.5 -2q18 -2 19.5 3t-9.5 37q-26 70 -82 105t-144 41q-35 2 -45.5 0t-32.5 -14q-17 -10 -26.5 -21t-19.5 -27q-14 -24 -55 -65t-73 -61l-20 -19q-10 -11 -14 -21q-8 -14 -14 -19t-18 -7q-18 -4 -32.5 -19t-28 -47t-10.5 -46t27 -28q28 -20 61 -28
t97 -12q60 -6 99 -14t63 -20q10 -4 20.5 -9t19.5 -7q12 -2 13 -1t-5 9q-2 4 -9.5 10t-12.5 12l-14 12l22 -4q22 -6 46 -23t36 -37q6 -8 12 -14t10 -6q1 0 7.5 7t14.5 15zM622 1593q6 12 19.5 25t26.5 23q25 16 23.5 22t-35.5 10q-41 6 -31.5 10t51.5 2q28 -2 40 -2t12 4
q0 2 -2 4t-4 2q-11 0 -57.5 25t-58.5 35q-17 16 -27.5 12t-10.5 -26q0 -8 -2 -19t-6 -17q-5 -10 -3 -16t11 -18q6 -10 10 -21t4 -23q0 -20 6 -39t12 -19q1 0 7.5 8t14.5 18zM982 1621q7 20 8.5 28t-2.5 12q-5 6 -6 14t2 20q1 18 -0.5 23t-11.5 11q-8 4 -15.5 3t-22.5 -7
q-11 -6 -30 -13q-18 -7 -34 -13q-29 -10 -36.5 -16t12.5 -6q6 0 24 4t38 10q18 6 33 9t17 3q7 -10 -22.5 -24t-55.5 -14q-17 0 -13.5 -6t19.5 -12q10 -2 23 -13t25 -23q10 -14 20 -21l10 -7q1 2 6 13t12 25zM846 1713l22 11q10 5 10 7l-12 11q-12 11 -28 23l-42 34l-50 -24
q-20 -10 -40 -18t-26 -10q-11 -2 -12.5 -4t4.5 -4q18 -10 52 -21t56 -13q12 -2 22 -3t10 -3l10 4q10 4 24 10zM718 1255l-16 20l-60 -6q-66 -8 -87 -7t-31 13l-12 12l20 -4q25 -4 89.5 6t74.5 18q12 12 13.5 50t-5.5 48q-8 6 -5 11t21 19q10 10 20 15t14 5q6 -4 30 -35
t20 -31q-2 0 -10.5 7t-15.5 15q-11 10 -19.5 17t-10.5 7q-12 0 -17 -15t-5 -43q0 -18 -3 -33t-9 -25q-8 -16 -7 -21t11 -19t17 -30t3 -16l-6 7q-6 7 -14 15zM754 1259q1 16 11.5 28t30.5 20q6 4 13 10t11 14q1 8 9 13t25 9q40 10 53 11t21 -9q4 -6 8.5 -9t7.5 -3q4 0 7 -3
t3 -7q4 -6 2 -6t-14 8q-17 12 -58.5 12t-49.5 -12q-11 -14 -7.5 -18t23.5 0q16 2 50 -5t42 -15q1 -2 -12 -2h-30q-20 2 -46 0t-42 -4q-29 -6 -36 -10t-14 -22l-10 -22zM514 1325q19 -16 42 -12t46 6q16 -2 32.5 -4t35.5 -2q1 2 5.5 5t6.5 3q-11 2 -22.5 3t-23.5 3l-24 12
q-12 6 -28 4q-5 -2 -10.5 -6t-9.5 -8q-12 -4 -26 -4h-24zM784 1463q13 2 28.5 0t27.5 -10q0 4 1.5 8t6.5 8q-4 0 -8 1t-8 3q-23 -10 -43.5 3t-42.5 13q-8 0 -14 -4t-10 -10h-18q-8 0 -16 4q-12 8 -26 8h-26q3 -4 7.5 -9t10.5 -9h14h14l6 -6l6 -6q12 -2 25 3t21 15
q12 2 22 -3t22 -9zM736 1509q10 0 19 -1t19 -5q13 2 25.5 8t22.5 14q-11 0 -19 -2t-15 -2q-24 -10 -45 1t-41 19q-6 12 -10.5 24t-5.5 26q-2 -4 -6 -7l-4 -5q0 -16 3 -31t17 -25q10 -4 20 -7t20 -7z" />
</svg>
