<?xml version="1.0" standalone="no"?>
<!DOCTYPE svg PUBLIC "-//W3C//DTD SVG 1.1//EN" "http://www.w3.org/Graphics/SVG/1.1/DTD/svg11.dtd" >
<svg xmlns="http://www.w3.org/2000/svg" xmlns:xlink="http://www.w3.org/1999/xlink" version="1.1" viewBox="-10 0 1252 2048">
   <path fill="currentColor"
d="M542 1011q-8 0 -14 6t-6 14t6 14t14 6t14 -6t6 -14t-6 -14t-14 -6zM690 1011q-8 0 -14 6t-6 14t6 14t14 6t14 -6t6 -14t-6 -14t-14 -6zM352 1257l-2 -2l-4 -2l-4 -2q-2 0 -4 -1t-4 -3q-8 -4 -17 -7t-19 -3q-10 -2 -20 -2t-18 2q-10 0 -19 3t-15 7q-4 2 -7 4t-5 4l-4 4
q-2 2 -2 4q-2 2 -2 5v7l1 2q1 2 1 4t1 4t3 4q0 2 2 4t2 4l2 2q0 2 1 2h1l4 4q2 4 6 8l8 8q8 8 17 15t19 15q4 2 9 5t11 7v-2v-4q0 -6 2 -11t4 -9q4 -10 9 -18t9 -16l4 -4l2 -2l4 -4q0 -2 1 -2t1 -2l6 -6q2 -2 4 -3t4 -3l2 -2q2 0 2 -1t2 -1l6 -6l4 -2l1 -1q1 -1 3 -1v-2
q-2 0 -5 -1t-5 -3h-2zM1018 1255q-2 -2 -5 -4t-7 -4q-6 -4 -15 -7t-19 -5h-18q-10 0 -20 2q-10 0 -19 3t-17 7q-2 2 -4 3t-4 1l-4 2l-4 2l-2 2h-2q-2 2 -5 3t-5 1v2q2 0 3 1l1 1l4 2l6 6q2 0 2 1t2 1l2 2q2 2 4 3t4 3l6 6q0 2 1 2t1 2l4 4l2 2l4 4q4 8 9 16t9 18q2 4 4 9
t2 11v4v2q6 -4 11 -7t9 -5q10 -8 19 -15t17 -15l8 -8q4 -4 6 -8l4 -4h1q1 0 1 -2l2 -2q0 -2 2 -4t2 -4q2 -2 3 -4t1 -4t1 -4l1 -2v-7q0 -3 -2 -5q0 -2 -2 -4zM616 365l-616 302v712l616 304l616 -304v-712zM1080 1289l-4 8l-4 8q-2 4 -4 7t-4 7l-5 5q-3 3 -5 7l-2 2l-2 2h-1
h-1l-4 6q-6 4 -11 8t-11 8q-12 8 -23 14t-23 12q-10 4 -21 9t-21 9h-1h-1v2q0 2 -1 2t-1 2l-1 2l-1 2l-2 2l-2 4l-1 1l-3 3q-6 8 -15 14t-19 10t-19 5t-19 1q-2 0 -3 -1l-1 -1h-6h-4l-1 -1q-1 -1 -3 -1h-4h-1h-1l-2 -2h-6l-2 -2h-1h-1l-6 -4h-1h-1v0h-2l-2 -2q-2 -2 -4 -2
h-2q-2 -2 -4 -2t-2 -2l-12 -4q-6 -2 -12 -2q-14 -4 -26 -4h-24q-8 2 -14 4t-10 4q-6 2 -11 5t-9 7q0 2 -1 2t-1 2l-2 2l-2 2l-2 2q0 2 -2 5t-2 7v1v1l-2 4v2v0v4v3v3v4v4q2 2 0 3t-4 3q-2 0 -3 -1l-3 -3q0 -2 -1 -4t-1 -4v-4q0 -2 -2 -4v-4v-2v-2v-4v-1v-3q0 -4 1 -8t3 -8
l2 -2v-2l2 -2l2 -4q0 -2 1 -2t1 -2t2 -3t2 -3l2 -2l2 -2l1 -1l1 -1q4 -4 7 -6t7 -4q6 -4 13 -8t15 -6q16 -4 31 -6t31 0q8 0 16 1t16 3q2 0 4 1l2 1q2 0 4 1t4 1h4l2 2v0v0h2l6 2h2h2h2h2h2h1h1h2h4h1h1q4 0 9 -1t7 -3q4 -2 7 -5t3 -5q2 -2 3 -5t-1 -5q0 -4 -1 -7t-3 -5
q-2 -4 -5 -8t-5 -6q-8 -8 -18 -14l-20 -12l-2 -2l-10 -2q-2 -2 -5 -3t-5 -3l-14 -6l-6 -2h-2l-2 -2l-4 -2q-4 0 -7 -2t-7 -4q-22 -10 -63 -24t-81 -14t-81 14t-63 24q-4 2 -7 4t-7 2l-4 2l-2 2h-2l-6 2l-14 6q-2 2 -5 3t-5 3l-10 2l-2 2l-20 12q-10 6 -18 14q-2 2 -5 6t-5 8
q-2 2 -3 5t-1 7q-2 2 -1 5t3 5q0 2 3 5t7 5q2 2 7 3t9 1h1h1h4h2h1h1h2h2h2h2h2l8 -2v0v0l2 -2h4q2 0 4 -1t4 -1l2 -1q2 -1 4 -1q8 -2 16 -3t16 -1q16 -2 31 0t31 6q8 2 15 6t13 8q4 2 7 4t7 6l1 1l1 1l2 2l2 2q0 2 2 3t2 3t1 2t1 2l2 4l2 2v2l2 2q2 4 3 8t1 8v3v1v4v2v2v4
q-2 2 -2 4v4q0 2 -1 4t-1 4t-2 3t-4 1q-2 -2 -4 -3t0 -3v-4v-4v-3v-3v-4v0v-2l-2 -4v-1v-1q0 -4 -2 -7t-2 -5l-2 -2l-2 -2l-2 -2q0 -2 -1 -2t-1 -2q-4 -4 -9 -7t-11 -5q-4 -2 -10 -4t-14 -4h-24q-12 0 -26 4q-6 0 -12 2l-12 4q0 2 -2 2t-4 2h-2q-2 0 -4 2l-2 2h-2v0h-1h1h-2
l-6 4h-1h-1l-2 2h-6l-2 2h-1h-1h-4q-2 0 -3 1l-1 1h-4h-6l-1 1q-1 1 -3 1q-10 0 -19 -1t-19 -5t-19 -10t-15 -14l-3 -3l-1 -1l-2 -4l-2 -2l-1 -2l-1 -2q0 -2 -1 -2t-1 -2v-2h-1h-1q-10 -4 -21 -9t-21 -9q-12 -6 -23 -12t-23 -14q-6 -4 -11 -8t-11 -8l-4 -6h-1h-1l-2 -2
l-2 -2q-2 -4 -5 -7l-5 -5q-2 -4 -4 -7t-4 -7l-4 -8l-4 -8q-2 -8 -4 -18t0 -20t6 -19t8 -17q6 -6 12 -13t14 -11q12 -10 27 -17t29 -9q2 -2 3 -2h1q-2 -4 -6 -9t-6 -11q-6 -10 -12 -21t-8 -23q-4 -12 -6 -25t0 -25t7 -24t11 -22q4 -6 8 -10l8 -8l4 -4q2 0 3 -1l3 -3l4 -2
l4 -4h4h4v4v4l-4 4l-4 4l-4 4l-2 4q-4 4 -6 9t-4 9q-4 8 -6 18t-2 18q2 10 5 19t7 17t9 16t13 16q2 4 6 7t6 7q2 0 3 1t1 3h1h1v0v0v0v0q2 2 4 3t4 3q8 4 17 7t17 5q8 4 17 4h17q8 0 16 -2l16 -4h2q-2 -2 -3 -2h-3q-6 0 -11 -2t-11 -4q-4 -2 -9 -5t-11 -7l-8 -8l-8 -8
q-4 -4 -7 -9t-5 -9q-2 -6 -3 -11t-3 -9t-2 -9t-2 -9v-18v-16l2 -4v-4v-3v-1v-4l2 -2v-2v0v0v-4v-6q2 -8 3 -14t1 -14q2 -4 2 -7v-7v-6v-8q2 -6 2 -13v-13q0 -4 -1 -7t-1 -7v-6v-6q-2 -8 -3 -14t-3 -12q-2 -8 -4 -13t-6 -11q-2 -6 -6 -11t-10 -9q-2 -2 -5 -3t-5 -3
q-2 0 -3 -1t-3 -1h-1h-1q-2 0 -3 -1l-1 -1q-2 0 -4 -1t-2 -3t2 -4t4 -2h1h3h1h3h4h4q4 2 8 3t8 3q6 4 13 9t11 11q6 6 10 13t8 13q4 8 7 15t5 15q0 4 1 7t3 7q0 4 1 8t3 8q0 6 2 14t2 16q2 6 2 14v16q2 6 2 14v16v6v4v0v2v2v4v1v1v4v2q2 6 2 12t2 12q2 2 2 4t2 6q0 2 1 3
l3 3q2 4 4 6t4 2q4 2 7 2h7h7q5 0 11 -2h1h1q2 0 12 -8t6 -26q-4 -8 -12 -16t-24 -10l-2 -51q-2 -51 14 -126t60 -163t136 -160v0q92 72 136 160t60 163t14 126l-2 51q-14 2 -22 9t-12 15q-6 20 5 28l11 8h1h1q6 2 11 2h7h7q3 0 7 -2q2 0 4 -2t4 -6l3 -3q1 -1 1 -3
q2 -4 2 -6t2 -4q2 -6 2 -12t2 -12v-2v-4v-1v-1v-4v-2v-2v0v-4v-6v-16q0 -8 2 -14v-16q0 -8 2 -14q0 -8 2 -16t2 -14q2 -4 3 -8t1 -8q2 -4 3 -7t1 -7q2 -8 5 -15t7 -15q4 -6 8 -13t10 -13q4 -6 11 -11t13 -9q4 -2 8 -3t8 -3h4h4h3h1h3h1q2 0 4 2t2 4l-3 3q-1 1 -3 1l-1 1
q-1 1 -3 1h-1h-1q-2 0 -3 1t-3 1q-2 2 -5 3t-5 3q-6 4 -10 9t-6 11q-4 6 -6 11t-4 13q-2 6 -3 12t-3 14v6v6q0 4 -1 7t-1 7v13q0 7 2 15v6v6v7q0 3 2 7q0 8 1 14t3 14v6v4v0v0v2l2 2v4v1v3v4l2 4v16v18q-2 4 -2 9t-2 9t-3 9t-3 11q-2 4 -5 9t-7 9l-8 8l-8 8q-6 4 -11 7t-9 5
q-6 2 -11 4t-11 2h-3q-1 0 -3 2h2l16 4q8 2 16 2h17q9 0 17 -4q8 -2 17 -5t17 -7q2 -2 4 -3t4 -3v0v0v0v0h1h1q0 -2 1 -3t3 -1q2 -4 6 -7t6 -7q8 -8 13 -16t9 -16t7 -17t5 -19q0 -8 -2 -18t-6 -18q-2 -4 -4 -9t-6 -9l-2 -4l-4 -4l-4 -4l-4 -4v-4v-4h4h4l4 4l4 2l3 3q1 1 3 1
l4 4l8 8q4 4 8 10q6 10 11 22t7 24t0 25t-6 25q-2 12 -8 23t-12 21q-2 6 -6 11t-6 9h1q1 0 3 2q14 2 29 9t27 17q8 4 14 11t12 13q4 8 8 17t6 19t0 20t-4 18z" />
</svg>
