<?xml version="1.0" standalone="no"?>
<!DOCTYPE svg PUBLIC "-//W3C//DTD SVG 1.1//EN" "http://www.w3.org/Graphics/SVG/1.1/DTD/svg11.dtd" >
<svg xmlns="http://www.w3.org/2000/svg" xmlns:xlink="http://www.w3.org/1999/xlink" version="1.1" viewBox="-11 0 984 2048">
   <path fill="currentColor"
d="M961 1280q-2 -10 -6 -20t-8 -18q-6 -8 -12 -14t-14 -10q-14 -12 -28 -18t-30 -10q-2 0 -3 -1t-3 -1q4 -4 8 -9t6 -11q8 -10 13 -22t9 -24t5 -25t-1 -25q-2 -14 -6 -26t-12 -22q-4 -6 -8 -10l-8 -8l-4 -4q-2 -2 -3 -2t-3 -2l-4 -4l-4 -2q-2 -2 -4 -2t-4 2t-2 4t2 4l4 4
l4 4l2 4l4 4q4 4 6 9t4 9q4 10 6 19t2 19q-2 10 -5 19t-7 17q-4 10 -10 18l-12 16l-7 7l-7 7l-1 1t-3 1v2h-2v0h1q1 0 -1 0v0v0q-2 2 -4 3t-4 3q-8 4 -17 7t-17 7q-10 2 -19 3t-17 -1q-8 0 -16 -2l-16 -4h-2q2 0 3 -1t3 -1q6 0 11 -2t11 -4l10 -5q6 -3 10 -7q6 -4 10 -8
l8 -8q2 -6 5 -11t7 -9q2 -6 3 -11t3 -9t2 -9t2 -9v-19v-17l-2 -4v-4v-3v-1v-4l-2 -2v-2v0v0v-4l-2 -6q0 -8 -1 -15t-1 -13q-2 -4 -2 -8v-6v-8q0 -4 -2 -6v-15v-13q0 -4 1 -7t1 -7v-7v-7q2 -6 3 -13t3 -13t4 -13t6 -11q4 -6 8 -11t8 -9q2 -2 5 -4t7 -4h2q2 0 4 -2h1h1h1h3
q2 0 3 -2t1 -4t-1 -4t-3 -2h-3h-1h-3h-1h-4q-2 0 -4 2q-6 0 -10 1t-6 3q-8 4 -15 10t-11 12q-6 6 -10 13t-8 13q-4 8 -7 15t-5 15q-2 4 -3 8t-3 8q0 4 -1 8t-1 6q-2 8 -3 16t-3 16q0 8 -1 15t-1 15t-1 16t-1 16v10v1v-1v2v2v4v1v1v4v4q0 6 -1 12t-3 10q0 4 -1 6t-3 4
q0 2 -1 4t-3 4q-2 4 -4 6t-4 2q-4 2 -7 2h-7h-8q-4 0 -10 -2h-1h-3l-11 -8q-11 -8 -5 -30q4 -8 12 -15t22 -9l3 -52q3 -52 -13 -129t-62 -167t-140 -166v0q-96 76 -141 166t-61 167t-14 129l2 52q16 2 24 10t12 16q6 20 -4 28t-12 8h-3h-1q-6 2 -10 2h-8h-7q-3 0 -7 -2
q-2 0 -4 -2t-4 -6q-2 -2 -3 -4t-1 -4q-2 -2 -3 -4t-1 -6q-2 -4 -3 -10t-1 -12v-4v-4v-1v-1v-4v-2v-2v1v-1v-4v-6q0 -8 -1 -16t-1 -16t-1 -15t-1 -15q-2 -8 -3 -16t-3 -16q0 -2 -1 -6t-1 -8q-2 -4 -3 -8t-3 -8q-2 -8 -5 -15t-7 -15q-4 -6 -8 -13t-10 -13q-4 -6 -11 -12
t-15 -10q-2 -2 -6 -3t-10 -1q-2 -2 -4 -2h-4h-1h-3h-2h-2q-2 0 -3 2t-1 4t1 4t3 2h3h1h1h1q2 2 4 2h2q4 2 7 4t5 4q4 4 8 9t8 11q4 4 6 11t4 13t3 13t3 13v7v7q0 4 1 7t1 7v13q0 7 -2 15v6v8v6q0 4 -2 8q0 6 -1 13t-3 15v6v4v0v0v2h-2v2v4v1v3v4l-2 4v17v19q2 4 2 9t2 9t3 9
t3 11q4 4 6 9t6 11l8 8q4 4 10 8q4 4 9 7t11 5t11 4t11 2q2 0 3 1t3 1h-2l-16 4q-8 2 -16 2q-10 2 -18 1t-18 -3q-8 -4 -17 -7t-17 -7q-2 -2 -4 -3t-4 -3v0v0q-2 0 -1 0h1v0h-2v-2q-2 0 -3 -1l-1 -1l-7 -7l-7 -7l-12 -16q-6 -8 -10 -18q-4 -8 -7 -17t-5 -19q0 -10 2 -19
t6 -19q2 -4 4 -9t6 -9l4 -4l2 -4l4 -4l4 -4q2 -2 2 -4t-2 -4t-4 -2t-4 2l-4 2l-4 4q-2 2 -3 2t-3 2l-4 4l-8 8q-4 4 -8 10q-8 10 -12 22t-6 26q-2 12 -1 25t5 25t9 24t13 22q2 6 6 11t8 9q-2 0 -3 1t-3 1q-16 4 -30 10t-28 16q-8 6 -14 12t-12 14q-4 8 -8 18t-6 20t-1 20
t5 18q2 4 3 8t3 8q4 4 6 8t4 6q2 4 5 7l5 5l4 4l1 1l1 1l6 4q4 4 10 9t12 9q10 8 22 14l24 12q12 6 23 10t21 8v0l2 4v1q0 1 2 1q0 2 1 3t1 3l2 2l2 2q0 2 1 3l1 1q8 10 17 16t19 10t20 5t20 1h2h2l6 -2h4h2q2 0 2 -2h4h2l4 -2h4l2 -2h1h1l8 -4h2v0l2 -2h2q2 -2 3 -2t3 -2
q2 0 3 -1t3 -1l12 -4l12 -4q14 -2 27 -3t25 1q6 2 12 3t12 5q6 2 11 5t9 7l2 2v2l2 2h2v2l2 2l3 6q1 2 1 6l1 1q1 1 1 3v2v2v1v1v2v4v4v2v4q0 2 1 4t3 2t4 -1t2 -3q2 -2 2 -3v-3q2 -2 2 -4v-4v-4v-2v-2l2 -4q0 -2 -1 -3l-1 -1q0 -4 -1 -9t-1 -9l-2 -2l-2 -2v-2l-2 -4
q0 -2 -1 -3l-1 -1q-2 -2 -3 -4t-3 -2q0 -2 -1 -3l-1 -1q-2 0 -2 -1t-2 -3t-6 -5t-6 -5q-8 -4 -15 -7t-15 -7q-16 -4 -32 -6t-32 0q-8 0 -16 1t-16 3q-2 0 -4 1t-4 1t-4 1t-4 1l-4 2h-2v0v0l-8 2v0h-2l-2 2h-2v0h-4h-1h-1h-2h-4h-1h-1q-4 -2 -9 -3t-9 -3t-6 -5t-4 -5t-2 -5
v-5q0 -4 1 -7t3 -5q2 -4 5 -8t7 -8q8 -6 18 -13t20 -11l4 -2l2 -2l6 -2q2 -2 5 -3t7 -3l20 -8l4 -2l4 -2q4 0 7 -2t7 -4q22 -10 64 -24t84 -14t84 14t64 24q4 2 7 4t7 2l6 4h2l20 8q4 2 7 3t5 3l8 4l4 2q10 4 20 11t18 13q4 4 7 8t5 8q2 2 3 5t1 7v5q0 3 -2 5t-4 5t-6 5
t-9 3t-9 3h-1h-1h-4h-2h-1h-1h-4v0h-2l-2 -2h-2v0l-8 -2v0v0l-6 -2q-2 0 -4 -1t-4 -1t-4 -1t-4 -1q-8 -2 -16 -3t-16 -1q-16 -2 -32 0t-32 6q-8 4 -15 7t-15 7q-2 2 -6 5t-6 5t-2 3t-2 1l-1 1q-1 1 -1 3q-2 0 -3 2t-3 4l-1 1q-1 1 -1 3l-2 4v2l-2 2l-2 2q0 4 -1 9t-1 9l-1 1
q-1 1 -1 3l2 4v2v2v4v4q0 2 2 4v3q0 1 2 3q0 2 2 3t4 1t3 -2t1 -4v-4v-2v-4v-4v-2v-1v-1v-2v-2q0 -2 1 -3l1 -1q0 -4 1 -6l3 -6l2 -2v-2h2l2 -2v-2l2 -2q4 -4 9 -7t11 -5q6 -4 12 -5t12 -3q12 -2 25 -1t27 3l12 4l12 4q2 0 3 1t3 1q2 2 3 2t3 2h2l2 2h2v0l8 4h1h1h2l4 2l4 2
h2h4q0 2 2 2h2h4l6 2h2h2q10 0 20 -1t20 -5t19 -10t17 -16l1 -1q1 -1 1 -3l2 -2l2 -2q0 -2 1 -3t1 -3q2 0 2 -1v-1l2 -4v0q10 -4 21 -8t23 -10l24 -12q12 -6 22 -14q6 -4 12 -9t10 -9l6 -4l1 -1l1 -1l4 -4l5 -5q3 -3 5 -7q2 -2 5 -6t5 -8t3 -8t3 -8q4 -8 5 -18t-1 -20z
M221 1290q0 2 -1 2t-3 2l-2 2l-8 4q0 2 -1 2t-1 2l-4 2l-3 3l-3 3l-6 6q-2 2 -3 2t-1 2l-4 4l-2 2l-4 4q-4 8 -10 16t-10 18q-2 6 -3 11t-1 11l-2 4v1v1q-4 -4 -9 -7t-9 -7q-10 -6 -20 -13t-18 -15q-4 -4 -8 -9t-8 -9l-4 -4v0v-2l-2 -2q-2 -2 -3 -4t-3 -4q0 -2 -1 -4t-1 -4
q-2 -2 -2 -4v-4q-2 -2 -1 -5t1 -5q2 -2 3 -5t3 -5t5 -4t7 -4q8 -4 17 -7t19 -3q10 -2 20 -2t20 2q8 2 18 5t18 5q2 2 4 3t4 3l6 2l2 2h4l2 2q2 0 5 1t5 3h-2zM385 1052q0 -8 6 -14t14 -6q6 0 11 4t7 10q2 2 2 3v3q0 10 -6 16t-14 6q-4 0 -8 -2t-6 -4q-4 -4 -5 -7t-1 -9z
M571 1068q-2 2 -6 4t-8 2q-8 0 -14 -6t-6 -16v-3q0 -1 2 -3q2 -6 7 -10t11 -4q8 0 14 6t6 14q0 6 -1 9t-5 7zM901 1302v4q0 2 -2 4q0 2 -1 4t-1 4q-2 2 -3 4t-3 4l-2 2v2v0l-4 4q-4 4 -8 9t-8 9q-8 8 -18 15t-20 13q-4 4 -9 7t-9 7v-1v-1l-2 -4q0 -6 -2 -12t-2 -10
q-4 -10 -10 -18t-10 -16l-4 -4l-2 -2l-4 -4q0 -2 -1 -2t-3 -2l-6 -6l-3 -3l-3 -3l-4 -2q0 -2 -1 -2t-1 -2l-10 -6q-2 -2 -3 -2t-1 -2h-2q2 -2 5 -3t5 -1l2 -2h4l2 -2l6 -2q2 -2 4 -3t4 -3q8 -4 18 -6t18 -4q10 -2 20 -2t20 2q10 0 19 3t17 7q4 2 7 4t5 4t3 4l3 6q0 2 1 5
t-1 5z" />
</svg>
