<?xml version="1.0" standalone="no"?>
<!DOCTYPE svg PUBLIC "-//W3C//DTD SVG 1.1//EN" "http://www.w3.org/Graphics/SVG/1.1/DTD/svg11.dtd" >
<svg xmlns="http://www.w3.org/2000/svg" xmlns:xlink="http://www.w3.org/1999/xlink" version="1.1" viewBox="-10 0 1660 2048">
   <path fill="currentColor"
d="M566 590q-16 20 -31 41t-19 49l4 6q12 -14 28 -26t32 -20q0 30 16 55t42 39h4q-4 -30 -1 -64t15 -60q18 -16 41 -26t39 -26q-40 -10 -78 -4t-72 20zM784 706q-26 2 -50 6t-48 12q10 10 23 15t23 13l-64 24q-32 12 -60 36l8 4q52 -10 109 -10t111 12l4 -2l-42 -76l64 -14
q-26 -22 -54 -43t-62 -31q4 12 16 26t22 28v0zM1032 782q24 4 51 4t51 -4q-40 -20 -85 -27t-77 -41q6 18 20 41t40 27zM530 972q8 32 -8 67t12 65q22 26 49 48t53 42l-2 -14q-24 -28 -45 -58t-31 -62q28 8 57 20t61 16q-36 -54 -81 -109t-21 -127q2 -12 12 -23t6 -21
q-38 28 -53 69t-9 87v0zM1614 848q-50 -70 -194 -104t-228 -126q14 -46 -8 -84t-52 -66q-46 -34 -103 -27t-105 21q-56 -12 -108 -29t-106 -33q-118 -14 -216 42l-98 56q-86 56 -199 154t-175 166q16 2 32 -6t34 -10l162 -46q-50 44 -135 112t-115 130q38 -14 104 -48
t106 -38q-34 32 -92 84t-80 90q2 2 1 5t-1 5q30 -18 89 -51t91 -35q-32 36 -82 97t-64 107q30 -20 90 -52t92 -44q-8 18 -22 33t-24 33q-14 26 -40 55t-28 59q26 -24 57 -46t63 -40q-14 32 -35 60t-29 66q22 -22 56 -35t62 -21l-6 4q-2 2 -26 21t-44 45q18 -2 16 -3t20 5
l-50 20q28 38 58 69t64 59q-2 -8 -3 -16t-5 -10l126 -70q-32 4 -97 23t-71 15q20 -22 93 -51t91 -67h1q1 0 -9 2l-102 6q-14 -52 20 -87t2 -77q-48 -64 -81 -132t-23 -148q4 10 9 20t13 18q2 -18 4 -37t8 -35q6 24 16 49t36 39l2 -2q-22 -76 -4 -157t92 -127q-20 8 -47 10
t-57 14q6 -8 16 -36t30 -46q16 -10 27 -23t27 -21q34 -26 72 -47t96 -31q54 -8 104 9t100 25q-2 6 -9 11t-11 11q-4 10 -12 19t-4 19l54 -20q54 -14 109 -34t115 -14l40 50q-64 -50 -131 -13t-131 51q-24 6 -48 13t-48 13q26 20 58 25t66 1q4 26 29 58t47 38q-4 -24 -19 -54
t3 -58q20 -12 48 -29t54 3q-16 2 -30 11t-26 15q-10 8 -13 25t-1 21q10 30 64 54t146 24q-8 -14 -40 -46t-28 -48q94 94 232 131t178 77q4 14 -22 38t-18 36q-4 14 14 38t40 52q-18 -110 13 -67t1 123l-56 -12q-140 -10 -217 -55t-187 -117q-40 -28 -82 -62t-70 -56l-82 -30
q82 98 103 120t-21 96l-28 -50l-10 -90q-24 80 -19 160t113 128l82 12q-28 -22 -49 -46t-15 -52q34 64 154 100t186 54q12 4 22 10t18 14q-16 16 -30 18t-36 10q-52 -16 -109 -34t-81 -50q14 18 -120 39t-92 23q-62 -2 -119 -37t-99 -83l-16 -4q2 46 36 83t58 77l62 28
q-22 14 -47 30t-39 40l-12 28q-6 14 0 28q22 -22 48 -34t52 -20l-26 42q4 34 -17 86t-41 88q-22 56 -144 24t-252 -72q104 78 230 109t272 19l-22 -46q34 -68 43 -158t97 -138q60 -32 87 -47t95 -1q38 8 106 26t108 10q36 -22 59 -35t53 -37q38 6 55 1t31 -27q8 -18 23 -62
t31 -78l2 -26q-16 -46 -17 -108t-9 -74zM1026 672q-2 4 -2 7v5q-8 -6 -13 -14t-5 -20q10 0 17 1t15 3q-4 2 -8 7t-4 11zM1062 702q4 -4 7 -8t5 -10v-4v-6q8 6 14 13t10 15q-8 2 -17 2t-19 -2zM1178 1056q2 -6 1 -15t3 -15q6 2 14 4t10 6q-8 2 -14 9t-14 11zM1242 1090l2 -28
q8 -2 12 1t8 5zM1292 1112q2 -4 2 -18t4 -14l16 10q-4 -2 -11 10t-11 12zM1340 1136l4 -14q0 -20 3 -20t17 4q-6 4 -11 16t-13 14zM1400 1152l2 -40l18 6zM1454 1146q-2 -22 1 -23t23 5zM1510 1166q0 -8 2 -17t-2 -17h11q5 0 9 4q0 8 -8 15t-12 15zM1292 1112q4 0 11 -11
t11 -11l-16 -10q-4 0 -4 14t-2 18zM792 1532q6 10 8 23t8 23q14 -28 12 -61t-20 -59q-30 -14 -59 -29t-57 -37q12 38 43 76t65 64v0zM778 1632l38 -32q-28 -20 -70 -49t-68 -55q20 44 33 85t67 51z" />
</svg>
