<?xml version="1.0" standalone="no"?>
<!DOCTYPE svg PUBLIC "-//W3C//DTD SVG 1.1//EN" "http://www.w3.org/Graphics/SVG/1.1/DTD/svg11.dtd" >
<svg xmlns="http://www.w3.org/2000/svg" xmlns:xlink="http://www.w3.org/1999/xlink" version="1.1" viewBox="-10 0 988 2048">
   <path fill="currentColor"
d="M308 428q-136 16 -216 54t-90 92q-2 8 -2 50v92q2 76 4 104t10 40q6 14 6 21t-6 25q-8 18 -9 42t1 98q2 48 5 87t7 47q4 10 4 18t-4 18q-6 14 -7 108t5 134q4 18 10 32t14 24q40 52 145 81t263 33q196 8 334 -26t174 -98q10 -16 11 -38t1 -104q0 -72 -1 -101t-7 -43
t-7 -21t5 -17q4 -8 5 -37t1 -91q-2 -90 -4 -116t-12 -42q-6 -6 -6 -12t6 -18q6 -10 8 -38t2 -108q-2 -56 -4 -99t-4 -51q-12 -38 -63 -70t-125 -50q-92 -22 -222 -28t-232 8zM336 484q-2 2 21 3t57 -1q50 -2 146 4t92 10l-18 3q-18 3 -42 5q-26 2 -47 6t-27 8q-8 4 -9 6t7 8
t7 8t-13 4q-36 8 -60 17t-32 21q-22 28 -5 53t63 35q36 6 141 3t145 -13q42 -10 64 -23t22 -27q0 -18 -29 -32t-95 -28q-36 -8 -20 -8t60 6t76 19t44 27q8 10 10 30t2 100q0 98 -7 116t-51 38q-64 30 -176 43t-294 9q-34 -2 -40 -3t4 -7q10 -4 3 -6t-45 -4q-54 -4 -97 -16
t-65 -30q-28 -20 -44 -56t-18 -82q-2 -42 5 -81t15 -35q4 2 10 -5t12 -19q18 -34 58 -58t106 -42q38 -8 53 -10t11 4zM108 938q0 20 12 30t48 20q64 20 160 28t195 6t184 -13t127 -33q18 -8 22 -14t4 -20q0 -16 5 -19t15 7q8 10 9 22t1 106v102l-18 18q-28 24 -118 43
t-210 25q-148 6 -290 -18t-168 -60q-4 -8 -6 -33t-2 -85q0 -68 2 -89t8 -29q10 -12 15 -10t5 16zM126 1286q40 28 197 44t289 4q72 -6 131 -17t89 -25q20 -8 24 -14t4 -22q0 -14 2 -20t6 -6q16 0 20 22t2 106q0 46 -1 80t-3 38q-4 10 -35 25t-65 23q-54 14 -111 22t-139 10
q-152 4 -279 -16t-167 -56q-8 -10 -10 -27t-2 -95q0 -80 2 -97t12 -27l12 -14l4 26q2 12 6 21t12 15z" />
</svg>
