<?xml version="1.0" standalone="no"?>
<!DOCTYPE svg PUBLIC "-//W3C//DTD SVG 1.1//EN" "http://www.w3.org/Graphics/SVG/1.1/DTD/svg11.dtd" >
<svg xmlns="http://www.w3.org/2000/svg" xmlns:xlink="http://www.w3.org/1999/xlink" version="1.1" viewBox="-11 0 1475 2048">
   <path fill="currentColor"
d="M757 910l14 -56q18 -68 35 -69t87 61q34 32 91 82t103 90q54 48 80 76t20 34q-2 4 -89 54t-189 110t-187 108l-85 48q-2 0 1 -19t7 -43q12 -76 -4 -83t-272 -7l-322 -4v30q0 32 46 66t162 90l134 64l-24 20q-10 8 -25 15t-27 9q-88 18 44 31t370 11l258 -4l108 -52
q70 -34 104 -58t86 -76q66 -68 107 -137t55 -143q6 -24 8 -75t0 -103q-2 -84 -7 -112t-29 -76q-62 -124 -184 -193t-322 -95q-88 -10 -141 -25t-95 -39l-32 -20v28q0 10 4 25t10 25q16 28 13 34t-29 6q-14 0 -37 7t-41 15q-52 22 -101 30t-101 -2q-24 -4 -45 -9t-27 -7
q-6 -4 -10 -2t-4 8q0 14 23 59t41 63l22 24l-34 6q-12 2 -48 18t-72 38q-72 40 -107 51t-69 1q-30 -10 -31 -4t19 42l22 40z" />
</svg>
