<?xml version="1.0" standalone="no"?>
<!DOCTYPE svg PUBLIC "-//W3C//DTD SVG 1.1//EN" "http://www.w3.org/Graphics/SVG/1.1/DTD/svg11.dtd" >
<svg xmlns="http://www.w3.org/2000/svg" xmlns:xlink="http://www.w3.org/1999/xlink" version="1.1" viewBox="-10 0 1596 2048">
   <path fill="currentColor"
d="M490 1092q-10 -20 -28 -29t-38 -9q-32 0 -53 21t-21 59t21 58t53 20q22 0 40 -11t28 -29l-32 -16q-6 14 -14 18t-18 4q-16 0 -25 -13t-9 -31q0 -20 8 -33t26 -13q6 0 15 4t13 18zM570 1088q20 0 28 13t8 31q0 20 -8 33t-28 13q-18 0 -26 -13t-8 -31q0 -20 8 -33t26 -13z
M570 1054q-34 0 -56 21t-22 59t22 58t56 20q36 0 58 -20t22 -58t-22 -59t-58 -21zM660 1208h44v-92q0 -10 5 -18t17 -8q14 0 18 7t4 17v94h44v-92q0 -10 6 -18t16 -8q12 0 17 8t5 22v88h44v-114q0 -26 -17 -33t-29 -7t-25 5t-23 15q-8 -10 -17 -15t-23 -5q-10 0 -22 4
t-20 14v-14h-44v150zM894 1208h44v-92q0 -10 5 -18t19 -8q12 0 16 7t4 17v94h44v-92q0 -10 6 -18t16 -8q14 0 19 8t5 22v88h44v-114q0 -26 -18 -33t-28 -7q-14 0 -26 5t-22 15q-8 -10 -18 -15t-22 -5q-10 0 -23 4t-21 14v-14h-44v150zM1204 1088q18 0 27 13t9 31q0 20 -9 33
t-27 13q-20 0 -28 -13t-8 -31q0 -20 8 -33t28 -13zM1204 1054q-36 0 -58 21t-22 59t22 58t58 20q34 0 57 -20t23 -58t-23 -59t-57 -21zM1294 1208h44v-92q0 -10 5 -18t19 -8q12 0 17 7t5 17v94h44v-110q0 -16 -10 -30t-36 -14q-10 0 -22 4t-22 14v-14h-44v150zM1574 1076
q-16 -10 -33 -16t-33 -6q-24 0 -44 12t-20 42q0 40 44 40t44 18q0 10 -9 12t-13 2q-16 0 -27 -6t-21 -14l-28 22q18 16 34 23t40 7t46 -12t22 -42q0 -42 -45 -41t-45 -19q0 -6 6 -9t14 -3q10 0 22 5t18 11zM490 920q-10 -20 -28 -29t-38 -9q-32 0 -53 21t-21 59t21 58t53 20
q22 0 40 -11t28 -29l-32 -16q-6 14 -14 18t-18 4q-16 0 -25 -13t-9 -31q0 -20 8 -33t26 -13q6 0 15 4t13 18zM502 1036h44v-86q0 -12 8 -17t28 -7h4v-40q-12 2 -23 6t-17 10v-16h-44v150zM736 970q0 -34 -17 -61t-57 -27q-34 0 -54 22t-20 62q0 32 20 53t54 21q26 0 44 -10
t28 -32l-32 -16q-10 14 -17 20t-19 6t-23 -8t-11 -30h104zM632 944q2 -16 11 -23t19 -7t19 7t11 23h-60zM836 974q0 18 -9 26t-21 8q-8 0 -14 -4t-6 -12q0 -10 6 -14t14 -6l30 -8v10zM878 926q0 -26 -18 -35t-48 -9q-16 0 -39 8t-23 40h42q2 -12 7 -16t17 -4q8 0 14 4t6 12
v12l-16 2q-36 6 -56 17t-20 39q0 22 14 33t36 11q10 0 24 -5t20 -15q0 4 1 8t3 8h40q-2 -6 -3 -15t-1 -15v-80zM982 890h-28v-44h-42v44h-22v26h22v80q0 16 7 30t35 14h16q8 0 12 -2v-34h-6h-8q-6 0 -10 -3t-4 -11v-74h28v-26zM998 886v150h44v-150h-44zM1042 870v-34h-44
v34h44zM1100 1036h44l52 -150h-46l-26 106h-2l-26 -106h-46zM1338 970q0 -34 -17 -61t-57 -27q-34 0 -54 22t-20 62q0 32 20 53t54 21q24 0 43 -10t29 -32l-32 -16q-10 14 -17 20t-19 6t-23 -8t-11 -30h104zM1234 944q2 -16 11 -23t19 -7t19 7t11 23h-60zM166 880
q-34 0 -64 12t-52 36q-24 24 -37 54t-13 64q0 32 13 62t37 52q22 24 52 37t64 13q32 0 62 -13t54 -37q24 -22 36 -52t12 -62q0 -34 -12 -64t-36 -54q-24 -22 -54 -35t-62 -13zM166 910q28 0 52 10t44 30q18 18 28 43t10 53q0 26 -10 50t-28 44q-20 18 -45 29t-51 11
q-28 0 -52 -10t-44 -30q-18 -20 -29 -44t-11 -50q0 -28 11 -52t29 -44q20 -20 44 -30t52 -10zM164 1018q-8 -14 -19 -19t-25 -5q-20 0 -34 13t-14 39q0 24 13 37t35 13q14 0 26 -7t18 -19l-20 -10q-4 8 -9 11t-11 3q-12 0 -17 -8t-5 -20q0 -14 5 -22t17 -8q2 0 8 2t10 12z
M258 1018q-6 -14 -18 -19t-26 -5q-20 0 -34 13t-14 39q0 24 14 37t36 13q14 0 25 -7t17 -19l-20 -10q-2 8 -8 11t-12 3q-12 0 -17 -8t-5 -20q0 -14 5 -22t17 -8q4 0 9 2t9 12z" />
</svg>
