<?xml version="1.0" standalone="no"?>
<!DOCTYPE svg PUBLIC "-//W3C//DTD SVG 1.1//EN" "http://www.w3.org/Graphics/SVG/1.1/DTD/svg11.dtd" >
<svg xmlns="http://www.w3.org/2000/svg" xmlns:xlink="http://www.w3.org/1999/xlink" version="1.1" viewBox="-11 0 1100 2048">
   <path fill="currentColor"
d="M411 210v0v0zM411 208v2h1q1 0 -1 -2zM209 1186h-2h2v0zM673 1834v0q-2 0 -3 1l-1 1q-2 0 -3 1l-3 3h3q1 0 3 -2q2 0 4 -1t2 -3h2v-2q-2 0 -3 1zM1077 1304q2 -16 1 -33t-3 -33v-1v-1v-5q0 -3 -2 -5v0v-3v-1q0 -6 -1 -11t-3 -11q0 -4 -1 -8t-1 -8q0 -6 -1 -11t-3 -9v-3
q0 -1 -2 -3v0v-4q0 -2 -2 -2v-1v-1q-2 -10 -5 -20t-7 -18q-2 -8 -5 -15t-5 -13q0 -2 -1 -3l-1 -1v-2q-2 -6 -5 -12t-7 -10v-3v-1q-4 -10 -9 -18t-9 -16l-1 -1q-1 -1 -1 -3l-1 -1l-1 -1v-1q0 -1 -2 -1q-4 -10 -10 -19t-14 -19l-12 -16l-12 -16q-12 -14 -24 -26l-24 -24
q-10 -10 -21 -19t-23 -19q-2 0 -4 -2t-4 -2q0 -2 -1 -3t-3 -1l-1 -1l-1 -1q-2 0 -2 -1t-2 -1v0q-14 -10 -28 -19t-30 -15l-3 -3q-1 -1 -3 -1v0q-2 -2 -3 -2h-1q-2 -2 -4 -3t-4 -1q-14 -8 -29 -15t-29 -15l-10 -5l-10 -5q-2 -2 -4 -3t-6 -1q-36 -18 -72 -37t-72 -37
q-8 -2 -15 -6t-15 -8l-16 -8l-16 -8q-8 -4 -15 -8t-15 -8q-2 0 -5 -1t-5 -3q-10 -6 -21 -11t-19 -13q-4 -2 -9 -5t-9 -7v0v-1q0 -1 -2 -1l-2 -2q-10 -10 -20 -21t-18 -21v-2h-2v-2v-2q-22 -34 -31 -71t-5 -79q2 -26 10 -51t22 -47q12 -20 28 -37t36 -31q2 -2 5 -4t3 -4h3
q1 0 1 -2v0q4 0 6 -1t4 -3q-4 0 -7 1t-5 3l-1 1l-1 1q-2 0 -5 2t-5 4q-20 10 -41 20t-41 20q-40 20 -75 45t-65 57q-34 32 -61 70t-49 82q-24 50 -38 104t-16 110q-2 24 -1 47t5 45q0 6 1 13t3 15q0 4 1 9t3 9v2v4q0 2 2 2v2v2v1v3v0q2 10 5 19t7 19v1v1v1q0 1 2 3v0v0v3
q0 1 2 1q0 6 2 11t4 9q2 8 5 15t7 15l1 1q1 1 1 3v0q0 2 1 2t1 2v0v2l2 2v1q0 1 2 3v1q0 1 2 1v3q0 1 2 1q0 4 2 8t6 8v3q0 1 2 1v1q0 1 2 3v1v1q2 4 5 8t7 8q4 10 11 19t13 19l1 1l1 1v1q0 1 2 1v0q4 8 10 15t12 13h2v2v0q0 2 1 2h1q0 2 1 2h1v1q0 1 2 1v1q0 1 2 1
q4 6 9 11l9 9q10 10 20 19t20 17q2 0 2 1v1q2 0 2 1v1v-2h-2v0h2v2h2v2q2 0 2 1t2 1h1h1v2h2h-1q-1 0 -1 -2q0 2 1 2h1v1q0 1 2 1v0v0v0q0 2 1 2h1l1 1l1 1h1h1q6 4 11 8t11 8l1 1l1 1h1h1v2h2l2 2h1h1q0 2 1 2h3q16 12 33 21t35 17l1 1q1 1 3 1l24 12l24 12q2 2 4 2t2 2
q12 4 22 10t22 10q14 8 27 15t27 13h1h1q0 2 1 2h1h1h1v2h2q8 4 17 9t19 9q8 4 15 8t15 8h1h1h1h1v2h2h2q4 4 10 7t12 5v0h1h1q6 4 13 8t15 8h2h2q6 4 12 7t12 7h2h1h1q6 4 12 7t10 7h2l1 1l1 1q6 2 11 6t11 8q4 4 10 9t10 9q6 6 10 11t10 11q4 6 7 11t7 9v3q0 1 2 1v1
q0 1 2 1v3q0 1 2 1v1v3l1 1l1 1l4 8q2 4 4 6q2 8 5 16t5 14t3 12t3 12v1v1v6q0 2 2 4v0v25v25q-2 14 -5 27t-7 25t-10 24l-12 24q-6 10 -13 19t-15 19q-8 8 -17 15t-19 15q-2 0 -4 2l-4 4h-3q-1 0 -1 2v2q2 -2 3 -2h1q2 -2 5 -3t5 -3q10 -4 19 -9t19 -11v0v0h2h1q1 0 1 -2
q2 0 3 -1t3 -1h2v-2h1h1h1q1 0 1 -2h2l1 -1l1 -1h3q1 0 1 -2h3q1 0 1 -2h1q1 0 3 -2l26 -13q14 -7 26 -15h1q1 0 1 -2h1q1 0 3 -2h1h1v0v-2h2v0q2 0 3 -1l1 -1l1 -1l1 -1l1 -1l1 -1q2 -2 4 -2t4 -2q28 -18 53 -40t47 -48q12 -14 23 -27t19 -29q2 0 2 -1v-3h2v-2q2 0 2 -1v-1
l1 -1l1 -1l1 -1q1 -1 1 -3h1q1 0 1 -2l1 -1q1 -1 1 -3v-1q0 -1 2 -1v-1v-1q4 -4 7 -9t5 -11q6 -10 12 -22t10 -24q2 0 2 -1v-1q4 -10 8 -19t6 -19q4 -8 6 -16t4 -18q2 0 2 -2v-2v-1v-1q4 -10 6 -19t2 -19q2 -2 2 -4v-4v-1v-1q0 -2 1 -2h1q2 -10 3 -20t1 -20q2 -6 2 -12v-12
q2 -4 1 -7t-1 -7z" />
</svg>
