<?xml version="1.0" standalone="no"?>
<!DOCTYPE svg PUBLIC "-//W3C//DTD SVG 1.1//EN" "http://www.w3.org/Graphics/SVG/1.1/DTD/svg11.dtd" >
<svg xmlns="http://www.w3.org/2000/svg" xmlns:xlink="http://www.w3.org/1999/xlink" version="1.1" viewBox="-10 0 1428 2048">
   <path fill="currentColor"
d="M432 1260q-8 0 -14 -1t-12 -3q-8 42 -5 81t35 41h113h111q2 -8 2 -10t-2 0q-32 -14 -69 -46t-9 -80q-10 2 -19 4t-19 2q-26 6 -53 9t-59 3zM1032 1368q-30 -14 -66 -42t-20 -70q-18 12 -39 17t-45 5q-22 0 -43 -5t-43 -11q-6 40 -2 78t34 38h112h112v-10v0zM294 1164
q-12 -16 -22 -32t-16 -30q-8 38 -59 145t-189 143l-8 18l135 -29q135 -29 237 -137q-18 -10 -38 -30t-40 -48zM1050 874l-12 -29q-12 -29 -44 -67q-62 38 -103 102t-47 140q-4 -16 -6 -33t-2 -33q0 -68 27 -128t73 -104q-16 -12 -35 -23t-41 -21q-76 52 -113 138t-21 180
q-6 -14 -12 -30l-12 -32q-20 -78 -2 -152t64 -132q-20 -4 -43 -6t-47 -4q-72 70 -91 170t25 194q-12 -12 -22 -26t-18 -28q-40 -70 -42 -148t30 -146q-34 10 -62 27t-52 37q-32 80 -19 167t71 155q-14 -10 -27 -20t-25 -22q-36 -36 -58 -80t-30 -92q-52 86 -69 163l-17 77
l50 85q50 85 114 85q62 0 108 -11t108 -11t113 20t101 20q48 0 122 -60t66 -322zM1136 892q14 -12 31 -30t29 -42q26 -46 28 -87l2 -41l-44 22q-44 22 -70 68q-16 30 -26 55t-12 45q8 2 10 -2t-10 2q2 72 -5 131t-21 105h2l2 2l40 9q40 9 92 -11q52 -22 113 52t71 100l40 2
l-8 -49q-8 -49 -35 -114t-81 -128t-148 -89zM1200 1018q-12 0 -21 -9t-9 -21t9 -21t21 -9t21 9t9 21t-9 21t-21 9z" />
</svg>
