<?xml version="1.0" standalone="no"?>
<!DOCTYPE svg PUBLIC "-//W3C//DTD SVG 1.1//EN" "http://www.w3.org/Graphics/SVG/1.1/DTD/svg11.dtd" >
<svg xmlns="http://www.w3.org/2000/svg" xmlns:xlink="http://www.w3.org/1999/xlink" version="1.1" viewBox="-10 0 1172 2048">
   <path fill="currentColor"
d="M594 470q2 0 5 2t5 2q26 14 42 25t22 37q8 40 34 65t64 37q28 10 54 7t50 -17q36 -22 57 -18t53 36q30 30 35 54t-15 60q-34 56 -6 126t88 84q48 14 64 64t-12 94q-6 10 -19 17t-25 11q-48 14 -75 46t-31 80q-4 20 2 41t12 41t14 39t-4 41q-44 -40 -87 -81
q-44 -42 -87 -83q46 -62 63 -131t5 -143q-10 -62 -38 -114t-76 -92q-92 -78 -209 -80t-209 72q-86 70 -121 209t67 281q-40 42 -82 84t-82 86q-16 -14 -17 -27t3 -29q2 -6 5 -12t7 -12q26 -46 20 -87t-32 -83q-14 -18 -32 -29t-40 -17q-46 -16 -61 -71t17 -93q8 -8 20 -14
t22 -8q64 -12 94 -82t-2 -122q-24 -42 -19 -68t47 -64q24 -24 44 -26t50 16q36 22 71 20t71 -20q22 -12 38 -29t22 -41q8 -36 27 -58t59 -26q6 0 9 -1t19 1zM994 1580h-209h-209h-209h-207q104 -106 208 -211t208 -209l209 209q105 105 209 211z" />
</svg>
