<?xml version="1.0" standalone="no"?>
<!DOCTYPE svg PUBLIC "-//W3C//DTD SVG 1.1//EN" "http://www.w3.org/Graphics/SVG/1.1/DTD/svg11.dtd" >
<svg xmlns="http://www.w3.org/2000/svg" xmlns:xlink="http://www.w3.org/1999/xlink" version="1.1" viewBox="-10 0 1528 2048">
   <path fill="currentColor"
d="M1414 1160q-12 0 -25 -5t-27 -13q-4 -2 -5 -5t3 -5q2 -2 4 -5t4 -5q4 -4 8 -9t8 -7q6 -2 10 2t10 6q10 2 17 1t11 -7q6 -10 3 -16t-9 -12q-8 -10 -18 -19t-20 -19q-8 -8 -13 -18t-7 -22q0 -24 16 -43t44 -23q22 -2 41 5t35 21q4 4 4 7t-4 7v0q-6 6 -10 12t-10 8
q-6 4 -11 -2t-13 -8q-2 0 -5 -2t-5 -2q-8 -2 -15 0t-11 8q-4 8 -1 13t7 11q10 10 21 18t19 18q16 18 18 40t-10 40q-10 16 -26 23t-38 7zM234 1136q2 0 2 1t2 3q0 12 3 14t15 2h7h7q6 2 11 0t3 -12l1 -1l1 -1h2q0 14 -2 16t-14 2h-15h-15q-6 0 -8 -2t0 -8v-8v-6zM116 1140
q4 12 8 14t18 2h15h15q-4 4 -7 4h-7q-8 0 -16 -1t-14 1q-10 0 -12 -3t0 -11v-2v-4zM0 1152q2 2 5 4t7 0q10 -2 20 1t20 -5v3v3q-12 2 -24 1t-24 1q-4 0 -4 -3v-5zM668 1002q-12 -32 -40 -49t-66 -17q-26 2 -49 12t-41 30q-18 -22 -41 -32t-49 -10q-28 2 -51 12t-43 30
q-24 -38 -64 -41t-64 23q-4 2 -5 2t-3 -2q-18 -18 -38 -22t-42 2q-14 2 -26 4t-24 0q-6 0 -8 3t-2 7q-2 24 -3 48t-3 48q-2 26 -3 51t-3 51q2 4 4 5t6 1h21h21q2 -4 2 -7v-7l4 -60l4 -60q2 -16 11 -25t21 -9q14 2 22 12t6 24q0 30 -2 58l-4 56q2 2 2 5v7q0 2 1 4t5 2h24
q12 0 24 -2v-5v-5q2 -31 4 -61q2 -32 4 -63q2 -12 11 -22t23 -8q12 0 19 9t7 23q-2 28 -3 56t-3 56q2 2 2 5v5q-2 6 0 9t10 3h10h12q12 0 14 -2t6 -14q2 -2 1 -5t1 -7q12 10 24 17t26 9q34 8 63 0t55 -32l4 -4q2 -2 4 2q30 36 83 38t91 -36q26 -24 34 -58t-6 -64zM370 1110
q-24 0 -42 -17t-16 -41q0 -26 21 -46t47 -20q26 2 43 19t17 39q0 28 -21 47t-49 19zM556 1110q-26 0 -43 -17t-17 -41q0 -26 20 -46t48 -20q24 0 42 17t18 41q0 26 -21 46t-47 20zM1172 940q-32 -6 -61 2t-53 30q-4 4 -7 5t-7 -5q-16 -18 -37 -27t-45 -9h-65h-65h-60h-58
q-24 0 -27 4t-5 26q0 16 2 18t18 2q20 0 23 4t1 24q-2 28 -3 54t-3 54q0 16 8 26t22 10q10 2 19 2h17q4 0 6 -2t2 -6q0 -8 1 -16t1 -16q0 -6 -1 -9t-9 -1q-4 0 -7 -3t-3 -9v-8v-8q0 -22 2 -43t4 -43q0 -6 2 -8t8 -2h28h26h7q3 0 3 2q2 2 0 4l-4 4q-16 30 -17 58t17 56
q26 42 79 49t93 -27l8 -8q4 -4 8 -6q6 0 9 6t7 8q50 42 116 21t80 -85q10 -46 -13 -83t-67 -45zM948 1110q-24 0 -42 -17t-18 -41q0 -26 21 -46t49 -20q24 2 42 18t16 40q0 28 -20 47t-48 19zM1134 1110q-24 0 -42 -16t-18 -40q0 -28 20 -47t48 -21q24 0 42 17t18 41
q0 26 -20 46t-48 20zM1324 888h-3q-1 0 -3 2t-1 3t1 3q2 6 5 13t5 13q4 8 1 12t-9 6t-11 1t-7 -9l-4 -12l-4 -12q0 -2 -1 -5t-3 -3q-4 0 -5 2l-3 6q-2 6 -4 13t-4 15q-4 10 -4 21t4 23q6 18 7 35t-1 35t-6 38t-6 38q-2 14 7 24t23 10q10 0 19 -8t9 -20v-23v-23q-2 -32 4 -64
t26 -60q14 -20 3 -43t-35 -31zM1298 1146q-8 0 -12 -4t-4 -10t4 -10t10 -4t10 3t4 9q0 8 -3 11t-9 5z" />
</svg>
