<?xml version="1.0" standalone="no"?>
<!DOCTYPE svg PUBLIC "-//W3C//DTD SVG 1.1//EN" "http://www.w3.org/Graphics/SVG/1.1/DTD/svg11.dtd" >
<svg xmlns="http://www.w3.org/2000/svg" xmlns:xlink="http://www.w3.org/1999/xlink" version="1.1" viewBox="-11 0 1374 2048">
   <path fill="currentColor"
d="M52 1042q6 -20 15 -56t27 -72q42 -86 97.5 -161t120 -137t142.5 -113t166 -89q35 -14 73.5 -20t76.5 -6q47 0 76.5 30t33.5 78q2 24 1 50t-11 50q-42 112 -102 205t-136.5 169t-171.5 135t-208 101q-7 2 -16.5 4t-19.5 2q-76 12 -121 -31t-43 -139zM826 820
q125 -8 246 -17t248 -17q-10 -8 -16 -15t-12 -11l-220 -176q-110 -88 -220 -178q-10 -8 -19 -22t-23 -32q46 0 86.5 -1t77.5 1q46 0 92.5 -1t91.5 7q96 18 146 78t48 158q-1 92 -9 184t-15 184q-10 142 -20.5 282t-21.5 280q-1 24 -4.5 49t-5.5 55q-49 -46 -98.5 -90
t-99.5 -86q-5 -6 -11.5 -13t-12.5 -11q-60 -38 -88.5 -93t-41.5 -123q-18 -88 -41.5 -175t-46.5 -175q-4 -10 -6 -20t-4 -22zM212 1538q29 -4 52.5 -7t47.5 -9q11 -2 20 -11t10 -19q23 -70 43.5 -140t40.5 -142q2 -6 5 -12t7 -16q126 42 254 83t258 81q-67 70 -140.5 128
t-153.5 110q144 10 288 21t288 23v4v4q-31 2 -62.5 4t-61.5 4l-184 12l-182 12l-182 12l-184 12q-30 2 -58.5 4t-57.5 2q-124 -2 -191 -68t-69 -190q-1 -70 4.5 -139t9.5 -139q0 -4 6.5 -9t9.5 -11q6 6 14 11t10 11q38 86 74 172t72 170q2 8 5 15t7 17z" />
</svg>
