<?xml version="1.0" standalone="no"?>
<!DOCTYPE svg PUBLIC "-//W3C//DTD SVG 1.1//EN" "http://www.w3.org/Graphics/SVG/1.1/DTD/svg11.dtd" >
<svg xmlns="http://www.w3.org/2000/svg" xmlns:xlink="http://www.w3.org/1999/xlink" version="1.1" viewBox="-11 0 1472 2048">
   <path fill="currentColor"
d="M1352 902q-82 -74 -175 -130t-199 -88q-146 -46 -295 -66t-303 -24q-66 6 -134 10t-136 10q-10 0 -17 4t-11 14q-32 58 -49 120t-25 128q-18 142 4 281t68 275q4 12 11 16t19 2q48 -10 96 -17t94 -17q80 -16 159 -35t153 -55q42 -18 79 -44t57 -72q2 -4 10 -7t14 -3l24 4
q12 2 24 6q72 22 143 46t143 44q48 16 98 28l100 24q20 4 37 -1t29 -21l28 -40q14 -20 22 -40q36 -90 29 -180t-97 -172zM632 1248q-40 22 -82 36t-86 24l-164 36l-164 36q-10 2 -15 -1t-9 -13q-14 -74 -30 -147t-32 -145q-2 -12 2 -17t14 -7q34 -8 67 -3t63 21q38 20 74 44
t72 46q26 16 53 31t55 27q44 16 85 12t81 -28l24 -16q12 -8 20 -18q16 -16 32 -16t34 6q-16 32 -40 54t-54 38zM1370 1236q-22 38 -49 51t-67 3l-108 -32q-54 -16 -106 -36q-92 -34 -186 -62t-192 -44q-18 -4 -37 -10t-37 -14q-28 -16 -41 -43t-9 -59q8 -44 30 -79t52 -65
q2 -2 4 -5t6 -5v-1v-3q-160 -2 -305 39t-279 131v-15v-15q6 -68 19 -136t41 -132q10 -28 28 -40t46 -14q80 -6 161 -8t161 1t159 11t159 22q138 24 262 82t228 154q18 16 35 34t31 38q10 20 17 42t11 44q4 44 -4 86t-30 80zM1310 980q-76 -76 -162 -135t-186 -95
q-90 -32 -182 -46t-186 -16q-72 -2 -142 2t-140 22q-46 14 -84 38t-62 68q-2 2 -3 5t-3 7h7h5q72 -14 145 -26t145 -24q62 -8 123 -10t121 10q124 26 230 85t196 145q2 0 3 2t3 8l-9 -6q-3 -2 -7 -4q-28 -18 -57 -35t-57 -35q-10 -6 -20 -9t-24 3q-10 4 -23 7t-25 5
q-8 0 -18 -2t-14 -8t-4 -17v-19q2 -4 5 -8t5 -10q-48 -24 -98 -35t-102 -15q-4 0 -7 1t-5 3q-16 12 -27 27t-13 35q-2 38 9 73t41 59q30 22 60 42t62 36q124 58 254 79t264 23q4 0 10 -5t6 -9q24 -58 19 -112t-53 -104z" />
</svg>
