<?xml version="1.0" standalone="no"?>
<!DOCTYPE svg PUBLIC "-//W3C//DTD SVG 1.1//EN" "http://www.w3.org/Graphics/SVG/1.1/DTD/svg11.dtd" >
<svg xmlns="http://www.w3.org/2000/svg" xmlns:xlink="http://www.w3.org/1999/xlink" version="1.1" viewBox="-10 0 1467 2048">
   <path fill="currentColor"
d="M1229 636l-28 -22l-1076 1004l1006 -1066l-28 -24q-96 -52 -212 -47t-218 39q-28 8 -57 20t-57 26q-60 28 -115 65t-105 83q-110 104 -181 238t-105 280q-10 42 -18 84t-14 84q-6 52 -11 105t-9 107q-2 44 3 91t67 43h23h21q156 -4 312 -12t306 -58q98 -32 188 -85
t164 -125q54 -54 100 -120t78 -139t48 -151t10 -156q-6 -70 -25 -140t-67 -124zM1387 302l60 60l-1126 1062z" />
</svg>
