<?xml version="1.0" standalone="no"?>
<!DOCTYPE svg PUBLIC "-//W3C//DTD SVG 1.1//EN" "http://www.w3.org/Graphics/SVG/1.1/DTD/svg11.dtd" >
<svg xmlns="http://www.w3.org/2000/svg" xmlns:xlink="http://www.w3.org/1999/xlink" version="1.1" viewBox="-10 0 1458 2048">
   <path fill="currentColor"
d="M1380 1320q-8 0 -12 4t2 14q22 32 12 61t-20 57q-6 14 -15 13t-15 -13q-12 -28 -22 -56t4 -60q4 -6 4 -11t-6 -7q-20 -4 -41 -6t-37 8q-14 6 -3 17t9 23q0 10 3 20t5 18q6 40 24 70t68 30q-14 18 -27 30t-37 2q-8 -4 -16 -1t-12 11q-6 14 1 20t15 12q8 4 17 3t17 -1
q24 -2 42 -15t30 -33q12 -16 20 -35t16 -37q14 -32 18 -65t14 -63v-4v-4q-14 0 -29 -1t-29 -1zM258 1114q24 16 51 24t53 12q14 4 18 0t4 -16q2 -40 6 -77.5t8 -78.5q2 -12 -5 -21t-13 -19t-15 -19t-11 -23q2 -2 4 -2t6 2q12 2 18 13t20 15q6 -52 14 -103t20 -101
q2 -6 5 -13t15 3q-14 70 -19 141t-9 141q-2 14 3 18t19 2q30 -8 58 -21t56 -31q2 4 3 7t-1 9q-26 22 -55 37t-61 25q-14 4 -19 11t-5 21q-4 104 -3 207t15 207q2 12 -2 17t-16 3q-12 -4 -28 1t-16 -23q-2 -66 -2 -132t6 -132q2 -20 -5 -30t-27 -14q-28 -6 -53 -18t-47 -30
q-4 -8 0 -10t10 -2zM212 676q0 68 -12 80t-78 12q-70 0 -81 -12t-11 -82v-12v-12q0 -40 12 -52t50 -12h31h31q34 0 45 12t13 46v16v16zM258 1114q-2 4 -5 7l-5 5q-34 12 -68 10l-68 -4q-18 0 -25 -14t-7 -32v-41v-41q0 -24 13 -36t33 -12q24 -2 46 -2t44 2q22 0 33 13t11 33
q0 28 -1 56t-1 56zM672 1422q2 14 -1 31t13 31q4 6 2 12t-10 6h-35h-35q-8 0 -11 -5t3 -15q16 -26 12 -55t-4 -57q0 -10 -7 -15t-17 -5q-12 0 -22 5t-10 17q-2 28 -5 56t11 54l3 3q1 1 1 3q2 6 0 9t-6 5q-20 0 -40 1t-40 -3q-6 -2 -5 -8t3 -10q12 -32 14 -65t-18 -63
q-4 -8 -2 -14t8 -6q14 -6 31 -17t33 15q4 4 7 2t7 -2q62 -26 91 -8t29 84v5v9zM566 976q0 -4 -1 -8t-1 -8v-40v-40q0 -20 11 -31t31 -11h39h37h8q4 0 6 2q38 22 30 55t-4 63q2 20 -12 29t-32 9q-28 -4 -58 1t-54 -21zM324 826q-64 -2 -74 -13t-10 -75q0 -38 10 -48t48 -12
q70 0 80 12t12 80q0 30 -14 43t-40 17q-4 2 -7 -1t-5 -3zM722 1420v-23v-23q2 -10 -1 -17t-15 -9q-6 0 -9 -4t-3 -10t4 -9t10 -5q18 -2 26 -14t10 -28q2 -12 8 -18t18 -4q12 0 14 9t2 17q0 16 3 28t27 10q4 0 9 3t5 9q2 8 -3 13t-11 3q-28 -2 -28 13t-2 29q0 12 1 24t-1 24
q0 14 5 25t23 11q8 0 13 2t5 10q0 10 -6 13t-14 3h-2h-4q-70 0 -76 -6t-8 -76zM622 536q0 48 -9 56t-61 8q-46 0 -54 -9t-8 -63q0 -46 9 -53t63 -7q44 0 52 9t8 59zM928 1344q8 -6 16 -13t18 -13q10 -4 19 -3t17 11q8 6 8 15t-4 17q-4 10 -12 12t-18 -2q-12 -4 -20 1t-10 17
q-6 24 -9 48t15 46q8 10 5 16t-13 6q-12 2 -24 2t-24 -2q-14 0 -30 1t4 -35q12 -22 14 -55t-28 -59q-6 -4 -5 -9t5 -11q18 -20 42 -16t34 26zM792 708q44 0 52 9t8 55t-10 55t-56 9q-42 0 -52 -10t-10 -54t10 -54t58 -10zM346 492q38 0 48 9t10 47q0 42 -9 51t-51 9
q-40 0 -48 -9t-8 -53q0 -38 8 -46t50 -8zM216 860q0 40 -7 46t-47 6t-47 -6t-7 -48q0 -38 9 -46t47 -8q36 0 44 8t8 48zM456 710q-8 -2 -12 2l-8 8q-6 -16 -7 -34t-3 -36q-2 -28 13 -35t37 -7t37 6t15 36q0 44 -9 51t-63 9zM718 654q0 32 -7 37t-43 7q-28 2 -35 -11t-7 -37
q2 -34 8 -40t40 -6q32 0 38 7t6 43zM74 908q4 22 -6 29t-30 9q-24 0 -31 -11t-7 -31q0 -22 8 -30t30 -8q24 0 32 10t4 32zM830 940q-18 4 -26 -4t-8 -28q0 -18 6 -26t26 -8t29 8t9 28q-2 18 -10 26t-26 4zM318 888q4 20 -6 25t-26 7q-20 0 -26 -9t-6 -25q0 -20 8 -26t26 -8
q20 0 27 9t3 27zM610 788q-16 2 -25 -4t-9 -24t6 -27t26 -9q18 0 26 8t8 26t-8 25t-24 5zM708 512q2 16 -5 24t-23 8q-14 -2 -22 -5t-8 -21q0 -14 4 -24t22 -8q14 0 24 4t8 22zM364 896h-6h-4q-8 -6 -10 -15t-6 -19q-2 -4 0 -7t6 -1q6 10 10 21t10 21zM346 854l-4 4l-4 4
q-6 -8 -9 -17t-5 -19q2 0 5 1t7 3l4 12l4 12h2zM1218 1484q-16 -14 -14 -31t0 -31q0 -58 -17 -80t-63 -26q-16 -2 -32 0t-32 6q-10 2 -18 6t-12 16q-2 6 0 11t8 7q10 6 20 4t20 -10q8 -8 17 -12t21 2q10 2 16 9t4 17q0 12 -8 10t-14 -2q-20 4 -38 8t-34 14q-28 18 -27 50
t31 48q20 10 40 9t40 -11q4 -2 8 -7t12 3q12 14 29 10t33 -2q8 0 13 -6t-3 -12zM1140 1428q-2 16 -8 31t-28 15q-14 2 -19 -7t-3 -21q0 -20 13 -28t31 -10q12 -2 13 5t1 15zM306 1350q-6 0 -10 -3t-12 -5q8 -4 12 -7t8 -5q8 -10 17 -19t13 -19q10 -28 -6 -50t-46 -28
q-14 -2 -28 -2h-28h-63h-61q-6 0 -11 3t-11 5q4 4 6 8t4 10q4 4 7 10t3 12v99v97q0 6 -3 11t-5 11q-2 4 -5 9t-7 9q6 2 12 5t12 3h77h77q10 0 21 -2t21 -6q26 -8 42 -27t16 -43q0 -26 -13 -45t-39 -31zM174 1256q0 -4 5 -10t9 -8q14 0 29 1t27 5q18 6 20 26t-12 36
q-14 18 -34 26t-46 14v-46q0 -22 2 -44zM262 1460l-3 3l-3 3q-12 6 -30 11t-32 3q-14 -4 -18 -16t-4 -24v-9v-9q0 -34 6 -41t40 -15q18 -6 34 3t24 27t4 36t-18 28z" />
</svg>
