<?xml version="1.0" standalone="no"?>
<!DOCTYPE svg PUBLIC "-//W3C//DTD SVG 1.1//EN" "http://www.w3.org/Graphics/SVG/1.1/DTD/svg11.dtd" >
<svg xmlns="http://www.w3.org/2000/svg" xmlns:xlink="http://www.w3.org/1999/xlink" version="1.1" viewBox="-10 0 1472 2048">
   <path fill="currentColor"
d="M1150 743v-54v-52q0 -26 -12 -38t-38 -12h-240h-239h-239h-240q-26 0 -37 11t-11 37v151v149v10v10h31h33v-152v-152h232h232h232h232v47v45h32h32zM924 1159h-316h-316v63v61h317h315v-63v-61zM782 1431q0 -2 1 -4t3 -2q-30 -16 -42 -42t-12 -56h-110h-110q-2 14 -4 29
t-10 29q-6 12 -18 22t-24 24h165h161zM1452 1391q-10 24 -28 33t-44 9q-88 -2 -175 -1t-175 1q-32 0 -47 -15t-15 -49v-260v-260q0 -32 15 -47t47 -15h177h177q26 -2 43 8t25 36v280v280zM1416 1327v-247v-247h-207h-207v247v247h207h207zM1308 1377q0 -10 -7 -17t-15 -7
q-12 -2 -20 6t-8 18t8 18t18 8t17 -7t7 -19zM1160 1377q0 -10 -7 -18t-19 -6q-8 0 -16 7t-8 17t8 18t18 8q10 -2 17 -9t7 -17zM1210 1353q-10 -2 -17 5t-9 17q0 12 7 19t17 9q12 0 19 -7t7 -17q0 -12 -7 -19t-17 -7zM34 1461q-20 -6 -27 -19t-7 -33v-183v-183q0 -24 10 -34
t36 -12h80h80q22 2 33 12t11 34v185v187q0 18 -9 29t-25 17h-90h-92zM26 1077v154v152h99h99v-154v-152h-99h-99zM1150 743h-32h-32v-45v-47h-232h-232h-232h-232v152v152h-33h-31v-10v-10v-149v-151q0 -26 11 -37t37 -11h240h239h239h240q26 0 38 12t12 38v52v54zM924 1159
v61v63h-315h-317v-61v-63h316h316zM650 1219q0 -12 -9 -20t-21 -6q-12 0 -20 8t-6 20q0 12 8 20t20 8q10 0 19 -9t9 -21zM782 1431h-161h-165q12 -14 24 -24t18 -22q8 -14 10 -29t4 -29h110h110q0 30 12 56t42 42q-2 0 -3 2t-1 4zM138 1419q0 6 -5 10t-11 4t-11 -4t-5 -10
q0 -8 5 -12t11 -4t11 4t5 12z" />
</svg>
