<?xml version="1.0" standalone="no"?>
<!DOCTYPE svg PUBLIC "-//W3C//DTD SVG 1.1//EN" "http://www.w3.org/Graphics/SVG/1.1/DTD/svg11.dtd" >
<svg xmlns="http://www.w3.org/2000/svg" xmlns:xlink="http://www.w3.org/1999/xlink" version="1.1" viewBox="-10 0 1440 2048">
   <path fill="currentColor"
d="M1208 1513l-2 2h-2q-2 4 -6 5t-8 3q-38 18 -77 35t-79 35h-5h-7q-20 -8 -40 -15t-40 -13q-24 -10 -49 -18t-49 -18q-50 -16 -99 -34t-99 -34q-28 -12 -58 -22l-60 -20q-44 -16 -88 -31t-86 -31q-8 -4 -15 -6t-13 -6h-1h-1q-2 -2 -2 -5v-5q-4 -12 -5 -24t-1 -24
q-2 -80 -2 -161v-163v-163v-161q0 -4 1 -6t1 -4v-2h1h1q2 0 4 2l4 4l219 219q109 109 217 218t217 218t219 217l4 4l4 4h1h1zM1208 1509q-2 0 -3 -1l-1 -1q0 -2 -1 -3t-3 -1l-219 -219l-218 -218l-219 -219l-218 -218l-4 -4q-2 -2 -2 -4q2 0 3 -1t3 -1h4h4h317h317
q14 0 29 1t29 5q2 0 5 1t5 3l2 2q4 6 6 13t4 15q22 60 43 119t41 117q14 38 27 76t27 76q22 62 43 124t43 124q4 8 6 16t6 16q2 2 1 6t-1 8q-16 32 -30 65t-28 65l-8 16q-4 8 -6 16q-2 0 -2 2t-2 4zM304 1353q2 0 5 2t7 2q14 6 28 11t28 9q28 10 57 20t59 22q24 8 50 17
t52 17q16 6 33 12t35 12q30 12 60 22t60 22q16 4 32 10l32 12q30 10 61 21t61 23q18 6 34 11t34 13h5q3 0 5 -2l28 -12l28 -12q10 -4 20 -9t20 -9q16 -6 33 -14t33 -14l8 -4l8 -4q-8 24 -16 50t-16 50q-4 16 -9 31t-11 31q-2 10 -5 20t-7 20q-2 4 -3 5t-5 1h-44h-44h-122
h-124h-93h-95q-2 0 -5 -1t-5 -3q-2 -4 -6 -7t-6 -7q-50 -50 -100 -99t-100 -99q-6 -4 -11 -10t-11 -12q-14 -14 -25 -29t-19 -31q-12 -20 -20 -41t-14 -45v-2zM1222 1529q0 -6 3 -10t5 -8q4 -12 9 -23t11 -23l8 -20q4 -10 10 -20q6 -14 12 -27t12 -27q2 -4 4 -9t4 -9
q0 -4 1 -6t-1 -6q-6 -18 -13 -38t-15 -40q-4 -10 -7 -20t-7 -20q-8 -24 -17 -49t-17 -49q-6 -16 -11 -32t-11 -32q-10 -24 -18 -48l-16 -48l-12 -32l-12 -32q-8 -26 -17 -51t-17 -49q-6 -18 -12 -34l-12 -32l-16 -48l-16 -48q-4 -6 -6 -13t-4 -13q10 2 20 5t20 7
q24 10 47 22t43 30q10 6 18 15t18 17q12 12 24 25t24 25l79 79l79 79q2 2 3 5t1 5v176v176v89v91v1v1v5q0 1 -6 3q-8 2 -15 4t-15 6q-40 12 -79 24t-77 26h-3h-1h-1h-1zM1046 615q-6 0 -12 -1t-12 -3q-4 0 -9 -1t-11 -1q-34 -2 -68 -2h-68h-280h-280h-4h-4v0q8 -6 17 -12
t19 -12q24 -16 47 -31t47 -31q50 -34 99 -66t99 -64q24 -18 49 -34t51 -34q4 -2 8 -5t10 -5q10 -4 21 -3t23 3q14 4 27 12t25 18l8 8l8 8l75 75q37 37 75 73q2 4 4 7t4 7q8 22 16 45t16 47v1v1zM296 609q2 2 2 4v4v164v164v164v164v20q0 10 2 20q0 10 1 19t5 19v2v4l-24 -8
q-12 -4 -24 -10q-12 -4 -25 -8t-25 -8q-2 -2 -5 -3t-5 -3q-40 -42 -80 -82l-82 -82q-12 -14 -21 -30t-13 -34q-2 -8 -2 -16t2 -16q2 -4 3 -7t3 -7q14 -20 28 -41t28 -41q54 -82 107 -162t107 -160q4 -8 9 -15t9 -15z" />
</svg>
