<?xml version="1.0" standalone="no"?>
<!DOCTYPE svg PUBLIC "-//W3C//DTD SVG 1.1//EN" "http://www.w3.org/Graphics/SVG/1.1/DTD/svg11.dtd" >
<svg xmlns="http://www.w3.org/2000/svg" xmlns:xlink="http://www.w3.org/1999/xlink" version="1.1" viewBox="-10 0 1729 2048">
   <path fill="currentColor"
d="M992 1688q24 -44 60 -72t86 -38h20h20l36 12q18 6 32 18q16 18 39 40t45 30q44 16 79 -8t63 -52q20 -22 32 -52t0 -60q-10 -26 -33 -43t-39 -39q-32 -48 -27 -105t37 -101q14 -22 34 -38t46 -22q24 -6 48 -3t48 1t48 -19t30 -39q14 -46 12 -108t-54 -88q-52 -24 -108 -18
t-98 -46q-20 -26 -33 -57t-15 -63q-2 -42 20 -69t48 -55q20 -20 31 -49t5 -57q-8 -26 -24 -46t-36 -36q-34 -30 -78 -35t-80 27l-20 20l-20 20q-8 8 -17 14t-21 10q-54 20 -101 5t-89 -51q-2 -4 -6 -9t-8 -11q-10 -18 -15 -38t-5 -42q0 -16 1 -30t-3 -30q-10 -70 -92 -86
t-132 18q-32 22 -38 58t-10 70q-2 38 -14 70t-44 54q-28 18 -63 28t-69 6q-18 -4 -34 -11t-32 -19q-30 -22 -55 -48t-69 -22q-38 2 -72 31t-52 61q-24 48 -7 81t49 69t42 74t-4 86q-16 48 -44 79t-80 39q-28 2 -59 2t-57 12q-34 18 -40 55t-6 71q0 40 11 74t53 44
q46 12 94 14t84 36q46 40 56 99t-22 109q-12 18 -26 35t-26 33q-16 22 -20 41t-6 43q10 12 15 27t15 27q24 32 57 52t73 18t65 -35t55 -53q20 -10 41 -14t43 -2q20 2 40 10l40 16q10 6 19 12t17 12q6 6 11 12t9 12t7 12t7 12q2 6 4 11t2 11q2 8 3 19t1 21v16v16q0 52 30 79
t80 29q50 4 96 -10t56 -72q4 -20 1 -41t-1 -39zM280 594h-2h2v0v0zM852 1400q-154 0 -263 -109t-109 -263t109 -263t263 -109t263 109t109 263t-109 263t-263 109zM1330 1634v0v0v0zM1358 1650v0h1h1h-1h-1z" />
</svg>
