<?xml version="1.0" standalone="no"?>
<!DOCTYPE svg PUBLIC "-//W3C//DTD SVG 1.1//EN" "http://www.w3.org/Graphics/SVG/1.1/DTD/svg11.dtd" >
<svg xmlns="http://www.w3.org/2000/svg" xmlns:xlink="http://www.w3.org/1999/xlink" version="1.1" viewBox="-10 0 1472 2048">
   <path fill="currentColor"
d="M1448 1048q-2 -4 -6 -4t-8 4q-4 2 -7 4t-5 4q0 -26 -4 -40t-18 -20q-20 -10 -38 -5t-36 17v-8q0 -4 -2 -6q0 -6 -3 -9t-7 -3q-6 0 -9 3t-3 9v12v12v20q0 10 -2 20q0 6 -5 10t-11 4q-8 0 -12 -4t-4 -10q-2 -2 -2 -4v-4q-2 -8 -3 -16t-3 -16q-2 -14 -12 -19t-22 3
q-6 2 -11 8t-11 12q-2 2 -3 4t-3 4q-4 -22 -14 -29t-40 11q2 -2 2 -4t2 -4v-9q0 -5 -6 -7t-9 1t-5 9l-4 12l-4 12q-6 12 -12 25t-16 23q-4 4 -9 6t-11 0t-7 -7t-1 -11l4 -24l4 -24q0 -4 -2 -8t-4 -6q-6 -2 -9 1t-5 7q-2 2 -3 5t-1 5q-2 8 -5 16t-7 16q-2 6 -7 11t-13 3
q-8 0 -10 -6t-2 -12q-2 -10 -4 -18t-6 -16q-2 -10 -11 -12t-17 4l-8 8l-8 8q-2 2 -4 5t-6 7q0 -8 2 -14t6 -12q14 -14 25 -31t19 -37q6 -18 9 -35t-1 -35q-4 -14 -14 -17t-20 3q-6 4 -10 9t-6 9l-8 16q-4 8 -6 16q-4 22 -8 46l-8 48q0 2 -1 5t-3 5q-16 18 -34 35t-40 29
q-20 12 -41 16t-45 0q-32 -8 -52 -33t-18 -55q4 -42 36 -78t70 -48q16 -4 31 -2t29 14q4 4 9 6t9 -4q4 -4 2 -9t-6 -9t-9 -8t-11 -6q-12 -6 -25 -6t-27 2q-66 14 -98 67t-34 99q-2 10 -4 21t-6 21q-4 12 -15 15t-21 -3q-10 -4 -12 -16t4 -22q12 -20 24 -41t22 -43
q8 -14 11 -30t1 -34q-2 -8 -6 -14t-12 -8t-15 1t-11 9q-6 8 -11 17t-9 17q-8 28 -12 56t-8 58q-2 16 -10 28t-20 20q-8 8 -15 4t-7 -14q0 -8 1 -16t1 -14q2 -8 3 -15t1 -13q0 -4 -3 -7t-5 -3t-5 1t-5 3l-4 8q-2 4 -2 8q-4 8 -5 15t-5 15q-2 6 -7 12t-9 12q-8 6 -16 3
t-12 -13q-2 -4 -3 -9t-1 -11q0 -10 1 -19t1 -19t-6 -17t-16 -5q-8 0 -16 2t-14 6q-18 12 -29 28t-15 36q-4 12 -2 23t14 19q10 8 21 8t21 -4q8 -4 14 -9t12 -11q6 8 14 13t18 3q10 0 18 -5t16 -11q10 16 19 21t21 1q14 -2 22 -11t16 -19q12 32 43 33t47 -41q26 30 52 42
t64 10q30 -2 54 -15t44 -33q8 -8 14 -15t14 -15q2 6 2 9v7q-2 12 -3 25t-1 25v10q0 4 6 6q6 0 10 -2t6 -8t4 -13t4 -13q4 -12 9 -23t11 -23q0 -2 4 -4l8 -4q2 4 4 7t2 5q2 8 3 15t3 13q4 14 14 18t22 0q4 -2 9 -5t9 -5q2 10 6 18t14 10q10 4 19 1t17 -7q6 10 12 9t12 -11
q2 -4 4 -9t4 -9q6 -10 11 -20t11 -20q4 -6 9 -9t11 -1q6 4 7 10t1 10v3q0 1 -2 1q0 10 -2 19t-2 19q0 2 2 6t4 4q4 0 8 -1t6 -5q2 0 3 -3t1 -7q6 -12 12 -25t12 -25q2 -2 6 -4t8 -2q2 0 4 4l4 8q0 6 1 14t3 16q4 20 12 27t26 5q2 -2 2 -1v1q-2 8 -4 18t-2 18v19q0 9 2 19
q2 8 5 15t7 15q6 6 13 4t11 -10q2 -2 2 -5v-5q2 -12 3 -25t1 -25v-22v-22h2h4q2 0 4 2q32 8 59 1t51 -27q4 -4 5 -8t-3 -8zM962 882q0 -2 2 -5t4 -3q2 -2 5 -3t5 -1t4 4t2 6v11q0 5 -2 11q-4 20 -13 38t-23 34v3v3q-2 0 -3 -1l-1 -1q2 -26 6 -50t14 -46zM622 900q2 -2 3 -5
t5 -7q2 -2 5 -3t5 -1q4 2 6 5t2 7q2 4 1 9t-3 9q-10 20 -19 41t-19 41h-1h-3q4 -24 7 -48t11 -48zM424 1054q-2 6 -7 10t-9 6q-12 6 -21 -1t-9 -21q4 -18 13 -31t25 -23q10 -6 16 -2t6 16l1 1l1 1q-4 10 -8 22t-8 22zM1306 1172q-6 -18 -6 -35t6 -35v35v35zM1382 1068
q-12 4 -22 4t-20 -4q-8 -4 -11 -9t-3 -13q0 -10 4 -17t14 -11q12 -4 23 -6t21 6q14 10 11 27t-17 23zM352 1080q-10 0 -15 -5t-9 -11q-4 -10 -5 -21t1 -21q2 -18 6 -35t8 -35q2 -10 5 -21t3 -21q2 -16 -8 -24t-24 -4q-14 2 -25 9t-19 17q-22 24 -37 51t-29 55q-4 10 -8 18
t-8 18l-2 -2h-2q2 -10 3 -19t1 -19q4 -16 7 -34t5 -36q0 -8 -2 -18t-12 -16q-12 -4 -20 1t-16 11q-12 12 -23 25t-21 27q-10 16 -21 33t-21 35q0 -6 1 -9t1 -5l8 -32q4 -16 6 -32q4 -16 3 -31t-7 -31q-4 -10 -12 -16t-20 -8q-12 0 -22 4t-18 14q-2 2 -3 5t-1 5t1 5t3 5h5
q3 0 5 -2q4 0 7 -3l5 -5q8 -6 16 -4t12 12q2 2 4 6t2 8v20q0 10 -2 20q-4 22 -10 45t-12 45q-2 10 -3 18t-1 18q-2 2 1 5l5 5q2 0 6 -1t6 -3q4 -2 7 -6t5 -8q8 -12 15 -25t15 -25q14 -22 29 -44t31 -42q4 -6 10 -10t10 -8q2 0 3 1l1 1v7v7q-2 12 -3 23t-3 23q-2 16 -4 33
t-2 35q-2 6 1 11t11 7q6 2 13 0t11 -8q4 -4 8 -10t6 -12l19 -38q9 -18 17 -38q10 -16 22 -31t28 -27q4 -2 10 -3t10 -3q0 6 1 11t1 9q-4 18 -9 35t-9 35q-2 16 -3 32t-1 32q2 18 17 30t33 10l8 -4q4 -2 4 -8q0 -4 -3 -6t-7 -2zM1068 976q8 0 15 -6t7 -16q0 -8 -4 -13t-10 -5
q-8 0 -15 7t-7 19q0 6 3 10t11 4zM532 968q10 0 15 -5t5 -15q0 -6 -4 -11t-10 -5q-8 0 -13 6t-5 16q0 6 3 10t9 4z" />
</svg>
