<?xml version="1.0" standalone="no"?>
<!DOCTYPE svg PUBLIC "-//W3C//DTD SVG 1.1//EN" "http://www.w3.org/Graphics/SVG/1.1/DTD/svg11.dtd" >
<svg xmlns="http://www.w3.org/2000/svg" xmlns:xlink="http://www.w3.org/1999/xlink" version="1.1" viewBox="-10 0 1463 2048">
   <path fill="currentColor"
d="M1394 510q-2 0 -5 -1t-5 -3q-142 -56 -283 -111t-283 -113q-44 -18 -84 -19t-86 17q-78 32 -156 63t-157 61l-158 60q-79 30 -157 60q-12 4 -16 11t-4 19q2 48 2 96t2 98q4 62 3 126t3 128q2 84 2 168t4 168v41v41q-2 12 3 19t15 13q84 42 167 83t167 81.5t167 82
t167 81.5q10 6 18 6t18 -6q14 -8 29 -15t29 -15q76 -36 150 -73t149 -73t150 -73t149 -73q10 -6 15 -11t5 -17q4 -104 7 -208.5t7 -207.5q2 -62 2 -125t4 -125q4 -46 4 -91t2 -91q4 -48 2 -51t-48 -21zM674 1640q0 14 -3 17t-17 -3q-132 -66 -264 -131t-264 -131
q-10 -4 -14 -11t-4 -17q0 -90 -2 -180t-2 -180q-2 -88 -4 -169.5t-4 -168.5v-14v-16q54 24 106 46t104 46l176 76l176 76q10 4 14 10t4 18v183q0 91 -1 183t-1 183v183zM710 802q-130 -58 -260 -114t-260 -114q-2 0 -7 -2t-7 -8q138 -52 273 -105t271 -105q6 -2 12 -2t12 4
q128 50 257 99.5t257 100.5q2 2 5 3t3 5q-32 16 -65 30t-65 30q-100 43 -199 88q-99 43 -197 88q-8 2 -15 4t-15 -2zM1344 660q-2 90 -5 181t-5 181q-2 60 -4 123q-2 59 -4 121q-2 28 -3 55t-1 53q0 12 -6 17t-14 9l-228 112q-114 56 -228 110q-18 10 -37 19t-41 21v-33v-29
v-171v-171v-172v-170q0 -16 6 -24t20 -14q132 -59 263 -116q131 -58 263 -118q18 -8 21 -6t3 22z" />
</svg>
