<?xml version="1.0" standalone="no"?>
<!DOCTYPE svg PUBLIC "-//W3C//DTD SVG 1.1//EN" "http://www.w3.org/Graphics/SVG/1.1/DTD/svg11.dtd" >
<svg xmlns="http://www.w3.org/2000/svg" xmlns:xlink="http://www.w3.org/1999/xlink" version="1.1" viewBox="-10 0 1468 2048">
   <path fill="currentColor"
d="M0 299v362v363v362v363h361h363h363h361v-363v-362v-363v-362h-361h-363h-363h-361zM1336 1633h-305h-305h-304h-306v-304v-304v-304v-304h306h304h304h306v304v304v304v304zM216 1011v-143v-143q0 -6 1 -11t11 -5q60 -8 121 -11t121 9q82 18 132 68t68 132q12 52 10 105
t-18 105q-22 80 -75 128t-135 66q-56 10 -113 9t-113 -5q-8 -2 -9 -6t-1 -8v-44v-42v-103v-101zM314 1011v0v50v52v52v50q0 10 3 13t11 3q16 0 30 1t30 -1q72 -4 115 -40t61 -104q12 -42 12 -85t-10 -85q-10 -40 -33 -69t-61 -47q-36 -14 -73 -16t-75 4q-8 2 -9 6t-1 10v103
v103zM970 999q-2 12 -4 26t-6 28q-16 62 -32 125t-32 127q-2 6 -5 7t-9 1h-32h-34q-6 2 -10 -1t-6 -11q-10 -38 -20 -77t-18 -77q-18 -64 -34 -127t-32 -127q0 -4 -1 -8t-3 -10h33h31q24 0 29 4t11 28q14 72 27 145t27 147q0 4 1 7t5 7q4 -18 7 -35t7 -35l32 -128
q16 -64 30 -130q2 -6 6 -9t10 -1h27q13 0 25 -2q8 0 12 4t6 10l36 160q18 80 36 158q0 2 1 4t3 4q2 -6 3 -12t1 -12q16 -74 31 -150t29 -152q2 -8 5 -11t11 -1h38h42q-4 16 -9 33t-9 33q-24 90 -48 179t-48 179q-2 8 -6 12t-12 2h-31h-29q-8 2 -12 -1t-6 -13
q-18 -72 -35 -144t-33 -146q0 -2 -1 -5t-3 -5h-1h-1z" />
</svg>
