<?xml version="1.0" standalone="no"?>
<!DOCTYPE svg PUBLIC "-//W3C//DTD SVG 1.1//EN" "http://www.w3.org/Graphics/SVG/1.1/DTD/svg11.dtd" >
<svg xmlns="http://www.w3.org/2000/svg" xmlns:xlink="http://www.w3.org/1999/xlink" version="1.1" viewBox="-11 0 1464 2048">
   <path fill="currentColor"
d="M117 1044q-4 -128 39 -244t121 -209t184 -156t230 -83q-98 2 -185 23t-162 63t-137 104t-110 146q-52 90 -76 180t-21 180t34 178t87 174q50 76 112 131t134 92t154 55t172 18q-128 -22 -232 -84t-180 -150t-118 -197t-46 -221zM185 820q-6 14 -3 16t17 2h299h299h299
h299h11h11v-1v-3q-2 -2 -3 -6t-1 -6q-36 -108 -104 -193t-162 -147q-106 -70 -224 -92t-242 2q-92 16 -169 53t-138 91t-108 125t-81 159zM173 912q-6 -2 -8 1t-4 9q-2 14 -3 28t-3 28q0 6 2 8t8 2h98h98h6h6h213h213h213h213h6h6h97h99q6 0 8 -3t2 -7q-2 -14 -4 -27t-2 -25
q0 -10 -4 -12t-12 -2h-310h-309h-309h-308h-7h-5zM1433 1060h-99q-49 0 -97 2q-4 -2 -6 -2h-6h-213h-213h-213h-213h-6q-2 0 -6 2q-48 -2 -98 -2h-98q-6 0 -8 2t-2 8q2 14 3 29t3 29q2 4 3 7t7 3q50 -2 101 -2h103h5h7h206h207h206h205h7h7h100h102q4 0 6 -1t2 -5
q2 -16 4 -31t4 -29q0 -6 -2 -8t-8 -2zM367 1108v0h2h-1h-1zM1403 1210h-303h-301h-301h-301q-4 0 -8 -1t-8 3q0 6 2 10t2 8q32 96 100 186t165 153t222 89t271 -6q118 -24 211 -89t165 -159q32 -42 56 -88t40 -96q4 -14 -3 -12t-9 2z" />
</svg>
