<?xml version="1.0" standalone="no"?>
<!DOCTYPE svg PUBLIC "-//W3C//DTD SVG 1.1//EN" "http://www.w3.org/Graphics/SVG/1.1/DTD/svg11.dtd" >
<svg xmlns="http://www.w3.org/2000/svg" xmlns:xlink="http://www.w3.org/1999/xlink" version="1.1" viewBox="-11 0 1493 2048">
   <path fill="currentColor"
d="M1464 1090q-14 -70 -65 -127t-119 -79q-22 -8 -47 -13t-49 -7h-28q-14 0 -28 4q-18 2 -24 -2t-10 -20q-4 -26 -13 -51t-21 -49q-18 -32 -40 -59t-52 -51q-50 -40 -113 -60t-129 -14q-44 4 -84 17t-78 37q-20 14 -39 30t-35 34q-4 4 -6 7t-6 7q-18 20 -30 44t-22 50
q-4 6 -6 14l-4 16q-2 2 -2 6t-2 8q-68 -18 -141 -7t-131 49q-14 12 -29 24t-29 24q-40 44 -62 102t-20 118q2 48 17 97t43 89q10 10 19 21t21 21q50 42 116 69t130 41q20 2 38 4t38 2q128 2 256 2h256h92q46 0 92 -6q62 -4 117 -30t107 -56q30 -16 55 -37t39 -51
q26 -50 33 -107t-5 -111zM894 1178q-14 24 -29 48t-31 46q-16 20 -31 44t-37 38q-4 6 -11 9t-13 3q-20 4 -39 -3t-35 -17q-8 -6 -12 -13t-8 -15q-2 -6 -5 -10t-1 -10q2 -4 6 -7t6 -7q4 -2 7 -5l5 -5q6 -8 13 -14t13 -12q4 -8 9 -17t11 -17q6 -12 12 -27t6 -29q0 -20 -16 -21
t-28 -1q-54 2 -92 -33t-56 -83q-16 -44 -17 -93t15 -95q4 -10 9 -19t11 -17q8 -12 17 -23t21 -19q10 -10 22 -17t24 -13q24 -10 54 -15t56 -5t51 5t49 17q40 22 68 58t36 80q6 24 8 50t0 50q-2 26 -6 51t-12 49zM44 1282v0v0v0zM1464 1166v0v0v0zM798 952q-2 -4 -2 -9v-9
q-2 -14 -5 -27t-9 -27q-4 -14 -12 -26t-22 -16q-12 -4 -24 1t-18 15q-6 12 -8 26t-2 28q0 10 1 20t3 20q4 14 10 30t18 28q18 14 38 11t28 -25q2 -10 3 -20t1 -20z" />
</svg>
