<?xml version="1.0" standalone="no"?>
<!DOCTYPE svg PUBLIC "-//W3C//DTD SVG 1.1//EN" "http://www.w3.org/Graphics/SVG/1.1/DTD/svg11.dtd" >
<svg xmlns="http://www.w3.org/2000/svg" xmlns:xlink="http://www.w3.org/1999/xlink" version="1.1" viewBox="-10 0 1469 2048">
   <path fill="currentColor"
d="M1023 1348q2 0 6 1t6 1q48 0 95 -1t93 1q10 0 14 -4t4 -14q-2 -12 -2 -26v-30q54 40 106 78l104 76q-52 40 -104 78t-106 78v-28v-26q0 -16 -2 -18t-18 -2h-300h-300h-300h-300q-14 0 -16 -3t-2 -17v-63v-63q-2 -10 2 -14t14 -4q80 2 161 2h162h161h162q82 -2 146 -36
t108 -106q78 -128 12 -266t-216 -160q-114 -16 -208 52t-114 186q-2 12 -3 25t-1 27l36 -4q18 -2 38 -6q-30 60 -60 117t-60 113q-46 -46 -90 -92l-88 -92q10 -2 24 -4t30 -4l5 -5q3 -3 3 -5q0 -32 2 -62t8 -60v-3v-3q-30 -4 -57 -15t-53 -27q-60 -42 -88 -113t-14 -141
q16 -78 70 -131t130 -67q48 -10 93 -1t87 35q8 4 13 4t9 -8q4 -4 8 -9t8 -9q6 24 12 47t12 47q2 6 4 14l4 16q2 8 -1 12t-11 4q-26 -2 -51 -4t-51 -4q-6 0 -12 -1t-14 -1q6 -8 12 -15t12 -15q-14 -10 -29 -16t-31 -8q-76 -12 -132 37t-56 125q2 60 45 105t101 51q8 0 11 -3
t7 -9q42 -80 104 -135t148 -85q98 -34 195 -23t177 58t137 125t77 176q18 98 -3 187t-79 169q-2 4 -4 6t-2 4q-2 0 -1 1t1 3z" />
</svg>
