<?xml version="1.0" standalone="no"?>
<!DOCTYPE svg PUBLIC "-//W3C//DTD SVG 1.1//EN" "http://www.w3.org/Graphics/SVG/1.1/DTD/svg11.dtd" >
<svg xmlns="http://www.w3.org/2000/svg" xmlns:xlink="http://www.w3.org/1999/xlink" version="1.1" viewBox="-10 0 1472 2048">
   <path fill="currentColor"
d="M442 768q0 10 -8 18t-18 8t-17 -8t-7 -18t7 -17t17 -7t18 7t8 17zM452 652q-58 0 -101 42t-43 102t43 102t101 42q60 0 103 -42t43 -102t-43 -102t-103 -42zM456 888q-36 0 -61 -26t-25 -62t25 -62t61 -26t62 26t26 62t-26 62t-62 26zM1078 794q10 0 17 -8t7 -18t-7 -17
t-17 -7t-17 7t-7 17t7 18t17 8zM1122 946q60 0 102 -42t42 -102t-42 -102t-102 -42t-102 42t-42 102t42 102t102 42zM1118 714q36 0 61 26t25 62t-25 61t-61 25t-62 -25t-26 -61t26 -62t62 -26zM1452 992q0 -148 -56 -279t-152 -229q-18 -56 -16 -121t24 -99q8 -12 17 -24
t17 -24q-80 -14 -147 8t-113 80q-6 8 -11 12t-11 6q-64 -26 -134 -41t-144 -15t-145 15t-135 41q-6 -2 -11 -6t-11 -12q-46 -58 -113 -80t-147 -8q8 12 17 24t17 24q22 36 24 102t-16 120q-96 98 -151 228t-55 278q0 68 13 134t37 128q6 16 11 33t11 33t10 31t10 31
q12 46 20 92t10 92v27v25q-2 4 -2 9v9l148 -134q20 18 47 35t59 31q-34 22 -54 59t-20 81q0 36 15 69t41 55l-4 -16q-2 -8 -2 -18q0 -50 35 -84t85 -34q48 0 83 34t35 84q0 10 -2 20l-4 20q28 -24 44 -58t16 -72q0 -22 -5 -42t-15 -38q30 2 61 4t63 2q20 0 41 -1t43 -1
q-10 16 -14 35t-4 41q0 36 15 69t39 55q-2 -8 -3 -16t-1 -18q0 -50 35 -84t83 -34q50 0 85 34t35 84q0 10 -2 20t-6 20q28 -24 45 -58t17 -72q0 -40 -17 -74t-45 -58q34 -12 63 -27t51 -33l128 116q-2 -4 -2 -9v-9v-25v-27q2 -46 10 -92t20 -92q4 -16 9 -31t11 -31
q6 -18 11 -35t13 -35q22 -60 34 -124t12 -130zM86 1208l-28 -82l36 34l56 -20zM100 1266l36 34l56 -20l-66 68zM188 1144l34 36l56 -14l-70 62zM160 1490l-26 -82l36 32l56 -18zM250 1374l-26 -82l36 34l56 -20zM312 1170l34 36l58 -16l-70 62zM728 1288q-10 -16 -20 -33
t-18 -33l-19 -38l-19 -38q-18 -34 -42 -71t-32 -77q-38 30 -84 47t-98 17q-118 0 -202 -84t-84 -204q0 -118 84 -202t202 -84q32 0 62 6t56 18q14 6 25 12t23 14q56 38 89 100t33 134v22q0 10 -2 20q10 -4 22 -6t24 -2q14 0 27 3t27 7q-2 -10 -3 -22t-1 -24q0 -18 2 -36
t6 -36l1 -1q1 -1 1 -3q0 -4 2 -8t2 -8q2 -4 3 -7t1 -5q2 -2 2 -3v-1q32 -80 104 -130t162 -50q120 0 204 84t84 204q0 118 -84 202t-204 84q-44 0 -85 -13t-75 -35q-6 -4 -12 -9t-12 -9q-4 20 -14 39t-22 41q-14 28 -29 56t-29 56zM1268 1154l-22 84l-68 -64l56 16z
M1052 1200l58 16l34 -36l-22 82zM1204 1384l-64 -68l56 18l36 -32zM1294 1498l-64 -68l56 20l36 -32zM1330 1358l-66 -68l56 18l36 -32zM1370 1218l-64 -68l56 20l36 -34zM728 836q-56 0 -95 39t-39 95q0 44 24 84t44 78l16 32q8 16 18 32q6 14 14 29t18 29l50 -94
q14 -24 26 -48t26 -48q12 -24 22 -45t10 -49q0 -56 -39 -95t-95 -39z" />
</svg>
