<?xml version="1.0" standalone="no"?>
<!DOCTYPE svg PUBLIC "-//W3C//DTD SVG 1.1//EN" "http://www.w3.org/Graphics/SVG/1.1/DTD/svg11.dtd" >
<svg xmlns="http://www.w3.org/2000/svg" xmlns:xlink="http://www.w3.org/1999/xlink" version="1.1" viewBox="-10 0 897 2048">
   <path fill="currentColor"
d="M872 914q-2 -38 -9 -74t-17 -74q-30 -112 -80 -220t-120 -202q-18 -26 -39 -50t-43 -48l-47 -47q-23 -23 -39 -53q-10 -20 -20 -39t-20 -37v12v12v-12v-12q-2 -6 -3 -11t-5 -11q0 4 -1 6l-1 2q0 32 -16 54t-38 42q-24 22 -47 46t-47 46q0 2 1 3t3 1q-2 0 -3 -1t-1 -3
q-70 92 -129 192t-97 210q-10 34 -18 67t-14 65q-12 72 -18 142t-2 142q4 40 10 79t16 77q38 140 113 257t179 217q20 18 41 35t41 35v-2v0v2q2 10 5 20t7 20q2 16 5 32t5 32t3 33t3 33v20v22q0 2 3 4t5 4v0v0q6 2 11 4t11 4t11 5t13 5q-2 -16 -3 -31t-1 -29v-28v-30
q0 2 -1 2h-1h1q1 0 1 -2l4 -44l4 -44q0 -4 2 -9t4 -11q4 -6 8 -14l8 -16l32 -24q16 -12 30 -26l51 -51q25 -25 49 -53q30 -36 55 -75t47 -81q58 -120 84 -251t16 -265v-1q0 -1 -2 -3z" />
</svg>
