<?xml version="1.0" standalone="no"?>
<!DOCTYPE svg PUBLIC "-//W3C//DTD SVG 1.1//EN" "http://www.w3.org/Graphics/SVG/1.1/DTD/svg11.dtd" >
<svg xmlns="http://www.w3.org/2000/svg" xmlns:xlink="http://www.w3.org/1999/xlink" version="1.1" viewBox="-10 0 1186 2048">
   <path fill="currentColor"
d="M8 464q34 38 193 207t337 358t322 340t146 153q20 12 47 -11t17 -45q-2 -4 -48 -50t-163 -157t-317 -299t-510 -478q-22 -22 -29 -27t5 9zM696 964q240 260 315 338t89 78q22 0 37 -17t11 -35q-2 -8 -117 -118t-295 -278q-84 -78 -159 -147t-132 -120t-90 -82t-35 -31
t27 32t80 88t120 131t149 161zM658 712q274 300 370 399t112 99q14 0 19 -4t7 -18q0 -12 -43 -57t-199 -187q-266 -246 -299 -276t33 44zM468 1182q280 306 334 359t76 53q20 0 28 -4t12 -14q2 -8 3 -17t-1 -15q0 -4 -122 -120t-271 -255t-278 -257t-145 -130q-6 -4 100 113
t264 287zM198 1062q10 10 85 92t171 186q154 166 198 210t58 42q12 0 17 -5t5 -19q0 -12 -35 -49t-143 -135q-74 -68 -155 -143t-123 -113q-40 -38 -63 -58t-15 -8z" />
</svg>
