<?xml version="1.0" standalone="no"?>
<!DOCTYPE svg PUBLIC "-//W3C//DTD SVG 1.1//EN" "http://www.w3.org/Graphics/SVG/1.1/DTD/svg11.dtd" >
<svg xmlns="http://www.w3.org/2000/svg" xmlns:xlink="http://www.w3.org/1999/xlink" version="1.1" viewBox="-10 0 1698 2048">
   <path fill="currentColor"
d="M1018 833q10 14 64 71t114 121t109 115t51 51q6 4 15 -3t5 -15q0 -4 -71 -71t-279 -263q-8 -6 -11 -8t3 2zM1250 1003q82 88 107 114t29 26q8 0 13 -5t3 -13q0 -2 -39 -39t-99 -95q-58 -52 -99 -90t-43 -38l37 41q37 41 91 99zM1238 917q92 102 124 135t38 33q4 0 6 -1
t2 -5q2 -4 -13 -19t-67 -65q-90 -82 -102 -92t12 14zM1172 1077q96 102 114 121t26 19q6 0 9 -2t3 -6q2 -2 2 -5v-5q0 -2 -42 -41t-92 -86t-94 -87t-48 -44q-2 -2 34 38t88 98zM0 1091v126h52l2 -82v-80l34 52q14 20 24 35t12 15l11 -15q11 -15 25 -37l32 -50l2 80v80h54
v-124v-124h-60l-32 50q-12 20 -22 35l-10 15q-2 0 -11 -15t-23 -35l-30 -50h-60v124zM316 1091v126h188v-52h-134v-50h118v-50h-118v-50h134v-48h-188v124zM572 991v26h74v200l56 -2v-98v-100l76 -2v-24v-24h-206v24zM846 1091v126h188v-52h-134v-50h116v-50h-116v-50h134
v-48h-188v124zM1466 1091v124l56 2v-82h42l26 40l28 42h30q16 0 23 -1t7 -3t-8 -15t-20 -29l-20 -30q-8 -12 -8 -14l2 -1q2 -1 4 -1q10 -2 22 -15t18 -25q6 -16 6 -37t-8 -37q-4 -6 -10 -13t-10 -11q-16 -12 -34 -15t-78 -3h-68v124zM1608 1027q6 6 7 11t1 13t-1 13t-7 9
q-6 8 -18 11t-42 3h-26v-70h38l40 2zM1082 1035q2 4 28 32t58 64q52 56 67 71t19 13q6 0 7 -2t1 -6t-12 -16t-48 -46q-24 -24 -52 -49t-42 -37q-14 -14 -22 -20t-4 -4z" />
</svg>
