<?xml version="1.0" standalone="no"?>
<!DOCTYPE svg PUBLIC "-//W3C//DTD SVG 1.1//EN" "http://www.w3.org/Graphics/SVG/1.1/DTD/svg11.dtd" >
<svg xmlns="http://www.w3.org/2000/svg" xmlns:xlink="http://www.w3.org/1999/xlink" version="1.1" viewBox="-10 0 1350 2048">
   <path fill="currentColor"
d="M1322 1008l-56 -34q0 -4 -1 -8t-1 -8l48 -46q4 -4 5 -8t1 -10q-2 -4 -5 -8t-7 -6l-62 -22q-2 -4 -3 -8t-1 -8l38 -54q2 -4 3 -9t-1 -9t-6 -8t-10 -4l-64 -10l-4 -8l-4 -8l28 -58q2 -6 1 -11t-3 -9t-7 -6t-9 -2l-66 2q-2 -2 -5 -6t-5 -6l14 -64q2 -6 0 -10l-4 -8
q-4 -4 -9 -5t-9 -1l-64 16q-4 -2 -7 -5t-7 -5l4 -66q0 -6 -3 -10t-7 -6q-4 -4 -9 -4t-9 2l-60 26q-4 -2 -7 -4t-7 -4l-10 -64q-2 -4 -5 -8t-7 -6q-6 -2 -10 -2t-10 4l-52 38q-4 -2 -8 -3t-8 -1l-22 -62q-2 -4 -6 -8t-10 -4q-4 -2 -9 0t-9 6l-44 48q-4 0 -8 -1t-8 -1l-34 -56
q-4 -4 -8 -7t-10 -3q-4 0 -8 3t-8 7l-34 56q-4 0 -8 1t-8 1l-46 -48q-2 -4 -7 -6t-9 0q-6 0 -10 4t-6 8l-22 62q-4 0 -8 1t-8 3l-54 -38q-4 -4 -9 -4t-9 2t-7 6t-5 8l-10 64q-4 2 -7 4t-7 4l-60 -26q-4 -2 -9 -2t-9 4q-4 2 -7 6t-3 10l4 66q-4 2 -7 5t-7 5l-64 -16
q-4 0 -9 1t-9 5t-5 8t1 10l14 64q-2 2 -5 6t-5 6l-66 -2q-4 0 -9 2t-7 6q-4 4 -4 9t2 11l28 58l-4 8l-4 8l-66 10q-4 0 -8 4t-6 8t-1 9t3 9l38 54q0 4 -2 8t-2 8l-62 22q-4 2 -7 6t-5 8q0 6 1 10t5 8l48 46q0 4 -1 8t-1 8l-56 34q-4 2 -6 7t-2 9q0 6 2 10t6 6l56 36q0 4 1 8
t1 8l-48 44q-4 4 -5 9t-1 9q2 6 5 9t7 5l62 24q0 4 2 8t2 8l-38 52q-2 4 -3 9t1 9q2 6 6 9t8 3l66 12q2 2 4 6l4 8l-28 60q-2 4 -2 9t4 9q2 4 7 6t9 2l66 -2q2 4 5 7l5 5l-14 64q-2 6 -1 11t5 7q4 4 9 6t9 0l64 -16q4 4 7 6t5 6l-2 64q0 6 3 10t7 8q4 2 9 3t9 -1l60 -28
q4 2 7 4t7 4l10 64q2 6 5 10t7 6h9q5 0 9 -4l54 -38q4 2 8 3t8 3l22 60q2 6 6 9t10 3q4 2 9 0t7 -4l46 -48h8h8l34 56q4 4 8 7t8 3q6 0 10 -3t8 -7l34 -56h8h8l44 48q4 2 9 4t9 0q6 0 10 -3t4 -9l24 -60q4 -2 8 -3t8 -3l52 38q6 4 10 4h10q4 -2 7 -6t5 -10l10 -64q4 -2 7 -4
t7 -4l60 28q4 2 9 1t9 -3q4 -4 7 -8t3 -10l-4 -64q4 -4 7 -6t7 -6l64 16q4 2 9 0t9 -6q2 -2 4 -7t0 -11l-14 -64l5 -5q3 -3 5 -7l66 2q4 0 9 -2t7 -6t3 -9t-1 -9l-28 -60l4 -8q2 -4 4 -6l64 -12q6 0 10 -3t6 -9q2 -4 1 -9t-3 -9l-38 -52q0 -4 1 -8t3 -8l62 -24q4 -2 7 -5
t5 -9q0 -4 -1 -9t-5 -9l-48 -44v-8q0 -4 2 -8l56 -36q4 -2 6 -6t2 -10q0 -4 -2 -9t-6 -7zM948 1472q-16 -4 -25 -18t-7 -30q4 -16 18 -25t30 -5t25 17t5 31q-4 16 -17 24t-29 6zM928 1344q-14 -4 -27 4t-15 22l-20 94q-46 20 -97 31t-105 11t-106 -11t-98 -33l-20 -94
q-4 -14 -16 -22t-26 -4l-82 16q-12 -12 -22 -24t-20 -26h398h4q2 0 2 -4v-140q0 -4 -2 -5t-4 -1h-118v-88h126q10 0 38 9t40 57q4 14 11 51t13 53q4 18 25 43t45 25h198h4h2q-10 14 -21 27t-23 27zM378 1470q-16 2 -30 -6t-16 -24q-4 -16 5 -30t25 -18t30 5t16 25
q4 16 -5 30t-25 18zM228 858q6 14 0 30t-20 22q-16 6 -31 0t-21 -20q-8 -16 -2 -31t22 -21q14 -6 29 -1t23 21zM182 968l84 -38q14 -6 19 -20t-1 -28l-16 -40h68v312h-140q-8 -32 -13 -66t-5 -68q0 -14 1 -27t3 -25zM554 938v-92h164q8 0 34 10t26 38q0 24 -23 34t-49 10
h-152zM1152 1020q0 10 -1 19t-1 17h-50q-4 0 -5 2t-1 6v24q0 40 -19 53t-39 15q-18 2 -36 -6t-20 -20q-12 -64 -31 -87t-49 -47q36 -22 68 -57t32 -81q0 -50 -27 -81t-49 -47q-34 -22 -65 -28t-41 -6h-516q52 -60 122 -100t150 -54l62 64q10 10 25 11t25 -11l68 -64
q108 20 195 83t139 153l-46 106q-8 14 -2 28t20 20l90 40q0 12 1 24t1 24zM636 488q12 -12 28 -12t28 12q10 12 10 29t-12 27q-12 12 -28 12t-28 -12t-11 -29t13 -27zM1098 860q6 -16 22 -22t30 2q16 6 21 21t-1 31q-6 14 -21 20t-31 0q-14 -6 -20 -22t0 -30z" />
</svg>
