<?xml version="1.0" standalone="no"?>
<!DOCTYPE svg PUBLIC "-//W3C//DTD SVG 1.1//EN" "http://www.w3.org/Graphics/SVG/1.1/DTD/svg11.dtd" >
<svg xmlns="http://www.w3.org/2000/svg" xmlns:xlink="http://www.w3.org/1999/xlink" version="1.1" viewBox="-10 0 1206 2048">
   <path fill="currentColor"
d="M1066 668q10 -10 15 -24t5 -30q0 -34 -24 -59t-58 -25q-16 0 -30 6t-26 16q-74 -56 -165 -88t-191 -32q-122 0 -230 47t-188 127t-127 188t-47 230t47 230t127 189t188 127t230 46q124 0 231 -46t188 -127t128 -189t47 -230q0 -100 -32 -191t-88 -165zM592 1596
q-118 0 -222 -45t-182 -123t-123 -182t-45 -222t45 -222t123 -182t182 -123t222 -45q98 0 185 30t159 84q-8 10 -12 22t-4 26q0 34 24 59t60 25q12 0 24 -4t24 -12q52 72 83 159t31 183q0 118 -45 222t-123 182t-182 123t-224 45zM834 1024q0 100 -70 171t-172 71
q-100 0 -170 -71t-70 -171t70 -171t170 -71q102 0 172 71t70 171z" />
</svg>
