<?xml version="1.0" standalone="no"?>
<!DOCTYPE svg PUBLIC "-//W3C//DTD SVG 1.1//EN" "http://www.w3.org/Graphics/SVG/1.1/DTD/svg11.dtd" >
<svg xmlns="http://www.w3.org/2000/svg" xmlns:xlink="http://www.w3.org/1999/xlink" version="1.1" viewBox="-10 0 1646 2048">
   <path fill="currentColor"
d="M1118 904q42 -22 71 -39l29 -17l-13 -24t-33 -56q-24 -38 -38 -57t-18 -17q-2 2 -21 14t-43 28q-24 14 -54 34t-50 32l-46 28l10 -262h-186l2 130q2 82 1 104t-9 20q-4 -2 -36 -22t-72 -46q-42 -28 -71 -46t-31 -18q-4 6 -47 79t-43 75t32 22t78 46t79 45t33 21t-33 21
t-79 45t-78 46t-32 22t43 76t47 78q2 0 34 -19t78 -47l108 -68l-2 128l-2 128h186l-4 -128q-4 -80 -3 -103t7 -21q4 4 33 22t67 40q36 24 66 42t36 22t17 -10t41 -64q26 -42 35 -61t5 -21t-38 -22t-78 -44l-106 -60l16 -10q6 -4 39 -23t73 -43zM1622 772q-2 -24 -9 -55
t-13 -49q-6 -20 -20 -49t-26 -49q-28 -50 -78 -101t-92 -73q-18 -10 -31 -16t-15 -6t6 8t22 18q30 22 61 60t47 70l16 28l-16 -20q-6 -8 -25 -29t-41 -43q-28 -28 -52 -45t-56 -33q-28 -14 -60 -25t-64 -17q-38 -8 -74 -11t-90 -5q-82 0 -145 9t-127 31q-22 8 -53 20t-51 20
q-20 10 -54 30t-60 36q-28 18 -63 45t-57 47q-24 20 -54 50t-50 54q-20 22 -44 53t-38 53t-25 36l-11 14q-4 -4 25 -62t57 -96l38 -58l-42 40q-16 16 -43 47t-47 59q-20 26 -44 62t-36 58q-12 24 -28 59t-24 61l-22 64v12q-8 26 -11 46t-3 48q0 32 3 57t11 53v12l18 54
q8 22 20 51t24 47q10 18 31 45t39 47q20 20 47 43t45 37q54 36 112 58t126 34q24 4 64 7t74 5q34 0 79 -3t75 -7q28 -6 72 -15t76 -19q34 -10 77 -25t73 -29l68 -30l44 14q38 12 159 39t123 25t-15 -38t-43 -84l-60 -120l54 -64q22 -26 49 -62t41 -58q16 -24 36 -61t34 -65
t27 -62t19 -56q6 -20 12 -52t10 -58q2 -30 2 -58t-4 -58zM1404 1122q-10 20 -25 47t-27 45t-35 47t-45 51t-37 39t-15 19t16 27t38 59t38 60t16 28t-1 4t-3 2t-31 -11t-69 -27q-40 -14 -73 -25t-41 -11q-6 0 -22 5t-30 11q-50 22 -127 45t-127 29q-26 4 -61 7t-57 3
q-80 -2 -145 -17t-135 -47q-40 -20 -62 -36t-60 -54q-32 -32 -50 -55t-32 -53q-10 -20 -20 -47t-14 -43q-12 -42 -11 -105t13 -111q6 -22 20 -58t28 -64t36 -64t38 -58t46 -54t54 -56q48 -46 105 -86t115 -68q48 -26 111 -47t123 -33q38 -8 73 -11t89 -3q56 0 86 3t60 11
q22 6 51 16t47 18q24 12 46 29t50 45q30 28 46 51t32 57q12 24 23 54t15 50q6 20 8 48t2 50q2 68 -17 141t-53 143z" />
</svg>
