<?xml version="1.0" standalone="no"?>
<!DOCTYPE svg PUBLIC "-//W3C//DTD SVG 1.1//EN" "http://www.w3.org/Graphics/SVG/1.1/DTD/svg11.dtd" >
<svg xmlns="http://www.w3.org/2000/svg" xmlns:xlink="http://www.w3.org/1999/xlink" version="1.1" viewBox="-10 0 1734 2048">
   <path fill="currentColor"
d="M104 1456q88 -28 195 -39t218 -6t219 27t198 58q-66 -36 -160 -74t-205 -55t-230 -1t-235 90zM178 1310q14 -8 27 -16t27 -16l-12 -8q-6 -4 -12 -10q-10 -10 -17 -20t-13 -20v-2q-24 -46 -22 -90l2 -44l-18 73t38 129l2 2q2 2 5 4t5 4q-2 0 -5 -2t-7 -4q-38 -22 -61 -60
t-23 -86q0 -46 23 -85t61 -59q18 -10 38 -16t42 -6q-4 -16 -5 -33t-1 -33v-22q0 -10 2 -18q-20 0 -39 4t-37 10q-78 26 -128 93t-50 153q0 68 33 126t89 94q12 -10 27 -20t29 -22zM374 1010q0 -2 -1 -3t-1 -3q2 2 2 4v2l5 -82t83 -136q76 -56 165 -42l89 14l-95 -37
q-95 -37 -185 27q-2 2 -4 3t-4 3q38 -46 93 -73t121 -27t123 28t95 76h114q-42 -94 -131 -153t-201 -59q-148 0 -255 105t-107 255q0 16 1 32t5 32q24 2 46 11t42 23zM1442 1422q-94 22 -182 12t-180 -40t-193 -71t-223 -79q-160 -48 -287 -2t-199 100q-36 28 -57 48l-21 20
l21 -11t57 -27q76 -32 208 -56t276 28q110 40 207 69t190 44t183 16t182 -15q146 -26 207 -101t75 -113q-12 30 -67 86t-197 92zM1706 1244q4 -10 6 -16l2 -6l-2 6t-6 16zM1286 1398q106 -4 150 -54l44 -50l-40 27t-150 37q-108 10 -203 -28l-95 -38q0 2 95 56t199 50z
M872 794h130v130h-130v-130zM1388 1152h100v100h-100v-100zM1030 674h172v174h-172v-174zM1530 974h174v172h-174v-172zM1218 862h96v96h-96v-96zM1282 1050h96v96h-96v-96zM1080 1060h96v96h-96v-96zM1418 864h96v96h-96v-96z" />
</svg>
