<?xml version="1.0" standalone="no"?>
<!DOCTYPE svg PUBLIC "-//W3C//DTD SVG 1.1//EN" "http://www.w3.org/Graphics/SVG/1.1/DTD/svg11.dtd" >
<svg xmlns="http://www.w3.org/2000/svg" xmlns:xlink="http://www.w3.org/1999/xlink" version="1.1" viewBox="-10 0 1458 2048">
   <path fill="currentColor"
d="M660 850v0q-16 -12 -34 -22t-38 -18q-22 -8 -42 -13t-38 -9q-18 -2 -50 -3t-76 -1h-126v480h130q46 0 82 -3t58 -7q26 -6 45 -12t35 -12q16 -8 30 -17t28 -21q42 -34 62 -77t20 -97q0 -52 -21 -93t-65 -75zM1300 488h-1162q-58 0 -98 44t-40 108v768q0 64 40 108t98 44
h1162q58 0 98 -44t40 -108v-768q0 -64 -40 -108t-98 -44zM1214 886q0 80 -60 136t-146 56h-7h-7q-4 24 -12 48t-20 48q-18 34 -44 66t-58 58q-34 28 -74 49t-84 35q-26 8 -50 14t-46 8h-1h-1q-22 4 -62 5t-98 1l-278 2l-2 -1l-2 -1h-3h-1h-1h-1v0l-2 -2h-1h-1l-1 -1l-3 -3v0
h-1h-1v-1v-1h-1h-1v-1v-1h-1h-1v-1v-1h-1q-1 0 -1 -2v0v-1q0 -1 -2 -1v0v-1v-1v0v-2v-2h-1q-1 0 -1 -2v0v-3v-1v-3v-1v-714q0 -10 7 -18t19 -8h1h3l294 -2q92 0 165 12t129 36q32 12 59 28t51 36q28 -24 65 -38t77 -14q86 0 147 56t61 134v0zM1310 678q0 24 -19 42t-47 18
t-48 -17t-20 -43v0q0 -26 20 -44t48 -18t47 18t19 44v0z" />
</svg>
