<?xml version="1.0" standalone="no"?>
<!DOCTYPE svg PUBLIC "-//W3C//DTD SVG 1.1//EN" "http://www.w3.org/Graphics/SVG/1.1/DTD/svg11.dtd" >
<svg xmlns="http://www.w3.org/2000/svg" xmlns:xlink="http://www.w3.org/1999/xlink" version="1.1" viewBox="-10 0 1968 2048">
   <path fill="currentColor"
d="M960 988q6 0 7 -4t1 -6v-27v-25v-27v-27q0 -4 -1 -7t-5 -3t-5 3t-1 7v52v54v6q0 4 4 4zM1182 988q6 0 7 -4t1 -8v-25v-25v-27v-27q0 -4 -1 -7t-7 -3t-6 3v7v52v54v6q0 4 6 4zM1054 988q4 0 5 -3t1 -7v-53v-55q0 -4 -2 -6t-6 -2t-4 3v5v28v28v25v27v6q0 4 6 4zM1008 988
q4 0 5 -3t1 -7v-53v-53q0 -4 -1 -7t-5 -3q-6 0 -6 3v7v25v27v27v25v8q0 4 6 4zM966 694q0 -2 -1 -5t-5 -3t-4 3v7v26v26v27v25v7q0 3 6 3q4 0 4 -3v-5v-53v-55zM1030 988q4 0 6 -3t2 -7v-53v-53q0 -4 -1 -7t-7 -3t-6 4v6v27v25v27v27v6q0 4 6 4zM978 924v27v27v6q0 4 6 4
q4 0 5 -3t1 -7v-53v-53v-7q0 -3 -6 -3t-6 4v8v25v25zM1200 978v7q0 3 6 3q4 0 5 -3t1 -7v-53v-53q0 -4 -1 -7t-5 -3q-6 0 -6 3v7v25v27v27v27zM786 812q4 2 5 -2t1 -8v-53v-53q0 -4 -1 -7t-5 -3q-6 0 -6 3v7v26v26v28v26v7q0 3 6 3zM872 804q0 4 1 6t5 2q4 2 6 -1t2 -7v-54
v-54q0 -4 -1 -7t-7 -3q-4 0 -5 3t-1 7v27v27v27v27zM786 862q-6 0 -6 4v6v27v27v25v27v6q0 4 6 4q4 0 6 -3t2 -7v-53v-53q0 -4 -2 -7t-6 -3zM808 812q6 2 7 -2t1 -8v-53v-53q0 -4 -1 -7t-5 -3q-6 0 -6 3v7v26v26v28v26v7q0 3 4 3zM850 804v5q0 3 4 3q4 2 6 -1t2 -7v-54v-54
q0 -4 -1 -7t-5 -3q-6 0 -6 3v7v26v26v28v28zM832 812q4 2 6 -1t2 -7v-55v-53q-2 -4 -3 -7t-5 -3q-6 0 -6 3v7v27v25v28v26v7q0 3 6 3zM1002 628v6q0 4 4 4q6 0 7 -3t1 -7v-27v-25v-27v-27q0 -4 -1 -7t-5 -3q-6 0 -6 3v7v53v53zM1082 696q0 -4 -1 -7t-5 -3t-4 3v7v25v25
q0 14 -1 28t1 26v7q0 3 4 3q4 2 5 -2t1 -8v-52v-52zM1138 988q4 0 5 -3t1 -7v-27v-25v-27v-27q0 -4 -1 -7t-5 -3t-6 3t-2 7v53v53q0 4 1 7t7 3zM1054 686q-6 0 -6 3v7v27v25v28v26v7q0 3 6 3q4 2 5 -1t1 -7v-54v-54q0 -4 -1 -7t-5 -3zM984 686q-4 0 -5 3t-1 7v27v25v28v26v7
q0 3 6 3q4 2 6 -1t2 -7v-54v-54q0 -4 -2 -7t-6 -3zM1072 574q0 14 -1 27t1 25v7q0 3 4 3t5 -3t1 -5v-54v-54q0 -2 -1 -5t-5 -3t-4 3v7q-2 12 -1 25t1 27zM1008 686q-6 0 -6 4v8v25v25v27v27v7q0 3 4 3q6 2 7 -2t1 -8v-52v-52q0 -4 -1 -8t-5 -4zM1030 686q-6 0 -6 4v8v25v25
v27v27v7q0 3 6 3q4 2 6 -2t2 -8v-52v-52q0 -4 -1 -8t-7 -4zM1072 978v5q0 3 4 3t5 -3t1 -7v-25v-25v-27v-25q0 -4 -1 -7t-5 -3t-4 3v5v53v53zM962 636q4 0 4 -4v-6v-25v-27v-26v-28v-5q0 -3 -4 -3q-6 0 -6 3v5v54v52v7q0 3 6 3zM978 628v6q0 4 6 4t6 -4v-8v-25v-25
q0 -14 1 -27t-1 -27v-6q0 -4 -6 -4q-6 -2 -6 2v8v52v54zM1154 976v8q0 4 6 4t6 -5v-9v-24v-24v-26v-26v-8q0 -4 -6 -4t-6 4v8v51v51zM1024 574v27v27q0 4 1 7t5 3t6 -3t2 -7v-53v-53q0 -4 -1 -8t-7 -2q-6 0 -6 3v7v25v27zM1048 574v27v27v6q0 4 6 4q4 0 5 -3t1 -7v-53v-53
q0 -4 -1 -7t-5 -3q-6 0 -6 3v7v27v25zM808 862q-4 0 -4 3v7v27v25v27v27v6q0 4 4 4q6 0 7 -3t1 -7v-53v-53q0 -4 -1 -7t-7 -3zM896 800v7q0 3 4 5q6 0 6 -4v-8v-25v-27v-25v-25v-8q0 -4 -6 -4q-4 0 -4 4v6v52v52zM610 988q6 0 7 -3t1 -7v-53v-53q0 -4 -1 -7t-7 -3q-4 0 -4 4
v6v27v25v27v27v6q0 4 4 4zM546 978v5q0 3 6 3q4 0 4 -3v-5v-27v-27v-25v-25v-7q0 -3 -6 -3q-4 0 -4 3v5v53v53zM634 988q6 0 6 -4v-8q2 -26 2 -52v-52q0 -4 -2 -7t-6 -3q-6 0 -6 3v7v27v25v27v27v6q0 4 6 4zM652 976v7q0 3 6 3q4 0 4 -3v-5v-53v-53v-5q0 -3 -4 -3q-6 0 -6 3
v5v27v25v27v25zM522 978q0 2 1 5t5 3t5 -3t1 -5v-27v-25v-27v-25q0 -4 -1 -7t-5 -3t-5 3t-1 5v53v53zM698 976v7q0 3 6 3q4 0 4 -4v-6v-25v-27v-25v-25v-7q0 -3 -4 -3q-6 0 -6 3v7v50v52zM674 924v27v27q0 2 1 5t5 3t5 -3t1 -7v-51v-51q0 -4 -1 -7t-5 -3q-6 0 -6 3v7v25v25z
M1666 1058q6 -22 19 -29t35 -7q74 -2 132 -33t92 -103q4 -6 3 -9t-9 -7q-46 -30 -97 -36t-105 4q-4 2 -9 3t-7 -7q-8 -46 -31 -82t-55 -66q-10 -10 -21 -20t-25 -16q-12 12 -22 24t-16 28q-26 62 -24 122t36 118q4 8 3 11t-7 5q-16 8 -32 14t-32 10q-44 14 -89 15t-91 1
q-8 0 -12 -3t-2 -11q0 -38 -1 -74t1 -74q0 -12 -4 -15t-14 -3q-34 2 -67 2h-67q-20 -2 -22 -3t-2 -21v-156v-156q0 -10 -2 -13t-12 -3h-91h-91q-10 0 -13 3t-3 11q2 36 1 72t1 72q0 12 -4 15t-14 3h-159h-159q-10 0 -13 3t-3 13v73v73q0 8 -2 11t-10 3q-38 -2 -74 -1t-72 -1
q-10 0 -13 3t-3 13v76v76q0 8 -3 10t-11 2h-61h-63q-6 0 -10 2t-4 10q-2 26 -3 53t1 55q2 14 0 16t-18 0q-28 -6 -54 -18t-46 -34q-2 20 -10 31t-26 21q-20 10 -40 15t-40 11q56 0 112 1t112 -1q10 0 13 4t5 12q12 60 36 112t62 98q76 90 174 135t214 55q88 8 176 0t176 -30
q84 -20 159 -53t141 -80t123 -107t103 -134q4 -6 9 -9t13 -3h146h148h8h8l-28 -8l-28 -8q-22 -8 -41 -19t-19 -43q-8 6 -14 12t-12 10q-38 24 -78 30t-82 4q-6 0 -6 -3t2 -7q10 -18 19 -35t15 -35zM1118 858q0 -6 3 -8t9 -2h65h65q6 0 9 2t3 10v65v67q0 6 -3 8t-9 2h-33h-33
h-32h-32q-6 0 -9 -2t-3 -10v-65v-67zM1096 814q0 8 -3 10t-9 2h-65h-65q-8 0 -10 -3t-2 -9v-32v-32v-32v-34q0 -6 2 -9t10 -3h64h64q8 0 11 3t3 11v64v64zM942 574v-32v-30q0 -8 2 -11t10 -3h65h65q8 0 10 3t2 9v64v64q0 8 -2 11t-10 3h-65h-65q-8 0 -10 -3t-2 -11v-32v-32z
M942 860q0 -6 2 -9t10 -3h65h65q8 0 10 3t2 9v64v64q0 8 -3 11t-11 3h-32h-32h-31h-31q-8 0 -11 -2t-3 -10v-64v-66zM780 672h63h63q8 0 11 3t3 11v32v32v32v32q0 6 -3 9t-9 3h-64h-64q-8 0 -10 -2t-2 -10v-64v-64q0 -8 2 -11t10 -3zM920 926v32v32q0 8 -3 10t-9 2h-65h-65
q-6 0 -8 -2t-2 -8v-67v-67q0 -6 2 -8t8 -2h65h65q8 0 10 3t2 9v33v33zM604 672h64h66q6 0 8 3t2 9v66v66q0 6 -2 8t-8 2h-65h-67q-6 0 -8 -3t-2 -9v-32v-32v-33v-33q0 -6 2 -9t10 -3zM606 848h32h32h31h31q8 0 10 3t2 9v65v65q0 8 -3 10t-9 2h-64h-64q-6 0 -9 -3t-3 -11v-64
v-64q0 -8 3 -10t11 -2zM416 860q0 -8 3 -10t11 -2h63h63q8 0 11 3t3 9v65v65q0 8 -3 10t-11 2h-32h-30h-32h-32q-6 0 -10 -2t-4 -10q2 -32 2 -65t-2 -65zM1572 1174q-30 42 -63 82t-71 74q-48 42 -100 76t-110 60q-60 26 -124 44t-130 28q-32 4 -64 7t-64 5q-80 2 -159 -8
t-153 -44q-44 -20 -83 -48t-73 -60l-4 -4q-2 -2 -2 -6q40 2 80 2t80 -2q32 -4 62 -8t60 -12v0q4 -2 8 -3t8 -3q6 -2 10 -6t2 -10q-4 -8 -9 -9t-11 1q-24 8 -50 13t-52 7q-20 2 -41 4t-43 2q-28 0 -58 -1t-60 -3q-4 0 -7 -2t-5 -4q-30 -40 -48 -84t-28 -92q0 -6 2 -8t8 -2
q16 2 32 2h32q4 0 8 -1t8 -1h260h261h261h260q4 0 8 1t8 1h73q37 0 73 -2q10 0 11 3t-3 11zM1602 1120q-2 8 -6 10t-12 0q-16 -6 -32 -11t-30 -15q-6 -4 -9 -3t-7 3q-8 10 -19 16t-23 8q-28 10 -56 13t-58 3q-34 0 -68 -4t-68 -12q-20 -6 -41 -13t-35 -25q-4 -4 -5 -2t-3 4
q-40 34 -87 43t-95 7q-28 0 -55 -7t-53 -19q-10 -6 -18 -15t-18 -11q-8 -2 -17 8t-19 16q-28 10 -57 16t-59 10q-40 4 -79 3t-79 -9q-18 -4 -35 -10t-31 -20q-4 -4 -7 -3t-7 3q-16 10 -36 17t-40 11q-16 4 -32 5t-32 1q-4 0 -6 -2t-4 -6q-2 -24 -2 -47t2 -45q0 -6 3 -8t9 -2
h28h28h10h10h256h256h255h255q44 0 87 -7t83 -25q16 -6 31 -15t29 -19q2 -2 5 -4t-3 -8q-22 -20 -33 -46t-15 -56q-4 -36 0 -73t24 -71q6 -12 10 -13t14 9q34 30 58 67t30 83v14v12v6q0 2 4 2q50 -22 100 -24t100 20q10 4 10 9t-6 13q-24 38 -60 59t-78 27q-22 4 -42 6
t-42 -2q-10 0 -15 3t-9 13q-10 28 -24 57t-30 55zM430 976q0 4 1 7t5 3t4 -3v-7v-51v-51v-7q0 -3 -6 -3q-4 0 -4 3v5v27v25v27v25zM500 976v7q0 3 4 3q6 0 6 -3v-7v-52v-52v-5q0 -3 -4 -3q-6 0 -6 3v7v25v25v27v25zM458 986q4 0 5 -3t1 -5v-27v-27v-25v-27q0 -2 -1 -5t-5 -3
t-4 3v5v53v53v5q0 3 4 3zM832 862q-6 0 -6 4v6v52v52v8q0 4 6 4t7 -4t1 -6v-27v-25v-27v-25q0 -4 -1 -8t-7 -4zM482 986q4 0 4 -3v-5q2 -14 1 -26t-1 -26t1 -27t-1 -27v-5q0 -3 -4 -3t-5 3t-1 5v53v53q0 2 1 5t5 3zM902 864q-6 0 -6 3v7v25v25v27v27v5q0 3 4 3t5 -3t1 -5
v-53v-53v-5q0 -3 -4 -3zM1228 988q6 0 7 -3t1 -7v-53v-55q0 -2 -2 -5t-6 -3t-5 3t-1 7v26v26v27v27v6q0 4 6 4zM726 812q4 0 4 -3v-7v-27v-27v-27v-27v-5q0 -3 -4 -3t-5 3t-1 5v55v53q0 4 1 7t5 3zM886 874q0 -4 -1 -8t-7 -4t-6 4v8v51v51v8q0 4 6 4t7 -4t1 -8v-26v-26v-25
v-25zM720 924v27v25q0 4 1 7t5 3t4 -3v-5v-53v-53v-5q0 -3 -4 -3t-5 3t-1 7v25v25zM698 802v7q0 3 6 3q4 -2 4 -4v-6v-25v-27v-27v-27v-7q0 -3 -4 -3q-6 0 -6 3v7v53v53zM856 862q-6 0 -6 4v8v25v25v27v27v6q0 4 6 4q4 0 5 -3t1 -7v-53v-53q0 -4 -1 -7t-5 -3zM1250 988
q6 0 7 -3t1 -7v-27v-27v-25v-27q0 -4 -1 -7t-5 -3q-6 0 -6 3v7v53v53v6q0 4 4 4zM610 812q4 2 6 -1t2 -7v-54v-54q0 -4 -1 -7t-5 -3q-6 0 -6 3v7v27v25v28v26v7q0 3 4 3zM634 812q4 2 6 -2t2 -8v-53v-53q0 -4 -2 -7t-6 -3t-5 3t-1 7v26v26v28v26v7q0 3 6 3zM674 802q0 4 1 7
t5 3q4 -2 5 -4t1 -6v-27v-27v-26v-26q0 -4 -1 -7t-5 -3t-5 3t-1 7v53v53zM656 810q6 2 6 -2v-6v-27v-27v-25v-27v-7q0 -3 -6 -3q-4 0 -4 3v7v52v52v7q0 3 4 3zM778 1288q-2 -18 -14 -30t-30 -12q-18 2 -30 14t-12 30q0 16 13 29t29 13q20 0 32 -13t12 -31zM736 1320
q-12 0 -21 -9t-11 -21q0 -12 8 -21t20 -9q4 -2 8 -1t2 9t2 12t10 2q10 -4 10 0t2 8q-2 12 -10 21t-20 9z" />
</svg>
