<?xml version="1.0" standalone="no"?>
<!DOCTYPE svg PUBLIC "-//W3C//DTD SVG 1.1//EN" "http://www.w3.org/Graphics/SVG/1.1/DTD/svg11.dtd" >
<svg xmlns="http://www.w3.org/2000/svg" xmlns:xlink="http://www.w3.org/1999/xlink" version="1.1" viewBox="-10 0 1649 2048">
   <path fill="currentColor"
d="M1607 950l-60 -104l-60 -104q-18 -32 -36 -63t-38 -63l-1 -2l-1 -2q-34 -60 -68 -119t-68 -117q-22 -38 -55 -57t-75 -19h-167h-166h-166h-165h-11q-5 0 -11 2q-34 6 -61 24t-45 48q-38 66 -77 133t-77 133q-8 16 -16 30l-16 28v0q-2 4 -4 7t-4 7q-2 0 -3 2t-1 4
q-4 8 -8 15t-8 13q-12 20 -23 39t-23 39q-10 16 -20 34l-20 36q-10 18 -21 35t-19 35q-8 20 -11 39t-1 39q2 14 6 26t10 24q12 20 23 40t23 40q10 20 21 39t23 37q12 22 24 43t24 41q12 18 22 36l20 36q12 20 24 41t24 43q12 20 23 40t23 38q14 24 27 48t27 48q10 16 21 31
t27 27q18 12 37 20t41 8h185h185h15h13h3h3h137h139h10q6 0 12 -2q32 -6 58 -24t44 -48q40 -72 82 -144l84 -144q42 -72 83 -144t83 -144q22 -36 21 -74t-21 -74zM145 1060q-14 2 -25 -9t-11 -27q0 -14 10 -25t26 -11q14 0 25 11t11 23q0 16 -11 27t-25 11zM1149 408
q14 0 25 11t11 25q0 16 -11 27t-25 11q-16 0 -26 -11t-10 -25q0 -16 10 -27t26 -11zM479 408q16 0 26 11t10 27q0 14 -10 25t-26 11q-14 0 -25 -11t-11 -27q0 -14 11 -25t25 -11zM479 1640q-14 0 -25 -10t-11 -26q0 -12 10 -25t26 -11q16 0 27 12t9 24q0 16 -11 26t-25 10z
M1147 1640q-14 0 -24 -11t-10 -25q0 -16 10 -26t26 -10q14 0 25 10t11 26t-11 26t-27 10zM1309 1034q-10 16 -20 33t-20 33q-28 50 -56 98l-56 96q-20 38 -42 75t-44 75q-2 4 -4 7t-2 7h-1h-1h-5h-5h-238h-238h-3h-3q-4 0 -7 -2t-5 -6q-14 -26 -29 -52t-31 -52
q-26 -46 -52 -91t-52 -89q-20 -36 -41 -71t-41 -71v0q2 -2 2 -3t2 -1q16 -30 33 -60t35 -58q0 -2 1 -4t1 -4h1q1 0 1 -2q2 0 3 -2t3 -4q40 -72 81 -143t83 -141q2 -6 6 -8t10 -2h70h70h170h170h5q3 0 5 -2v2v2l3 3q1 1 1 3q32 54 62 107t62 107q28 50 57 100t59 102q4 4 3 9
t-3 9zM1483 1060q-16 0 -26 -10t-10 -26q0 -14 10 -25t26 -11t26 11t10 25q0 16 -11 26t-25 10zM815 806q-90 0 -155 64t-63 154q-2 90 62 154t154 64q92 0 155 -63t63 -155t-64 -155t-152 -63z" />
</svg>
