<?xml version="1.0" standalone="no"?>
<!DOCTYPE svg PUBLIC "-//W3C//DTD SVG 1.1//EN" "http://www.w3.org/Graphics/SVG/1.1/DTD/svg11.dtd" >
<svg xmlns="http://www.w3.org/2000/svg" xmlns:xlink="http://www.w3.org/1999/xlink" version="1.1" viewBox="-10 0 1810 2048">
   <path fill="currentColor"
d="M894 130q-184 0 -347 70t-284 192t-192 284t-71 348t71 348t192 284t284 192t347 70q186 0 349 -70t284 -192t192 -284t71 -348t-71 -348t-192 -284t-284 -192t-349 -70zM658 1104q-8 4 -17 8t-19 6q-8 4 -15 6t-9 4q-6 2 -13 15t-13 27q-6 16 -8 34t0 34q2 14 7 38t9 36
q4 10 16 36t20 38q6 12 6 17t-6 11q-8 10 -24 17t-40 11q-22 4 -39 4t-35 -2q-30 -4 -51 -11t-29 -15q-6 -8 -4 -16t18 -40q14 -30 21 -47t13 -43q2 -14 3 -23t1 -25q0 -24 -3 -37t-11 -29q-10 -20 -19 -27t-31 -13q-28 -8 -63 -31t-69 -57q-16 -18 -32 -42t-26 -50
q-8 -22 -14 -56t-2 -36q2 -2 33 -2h69h70q32 0 34 2q2 0 4 3t2 7q6 12 33 48t43 52q30 30 53 48t61 42q18 12 39 21t43 15q12 4 11 8t-17 14zM982 1256v42q0 10 4 24q4 16 16 53t20 55q6 16 24 53t22 45q8 12 8 17t-6 15q-10 16 -47 29t-89 19q-26 2 -44 2t-42 -2t-42 -6
t-34 -10q-8 -2 -15 -4t-9 -2q-6 -2 -17 -10t-15 -14q-8 -12 -6 -21t26 -57q22 -44 29 -61t17 -53q10 -32 13 -48t5 -34q2 -22 1 -52t-3 -44q-6 -24 -19 -48t-31 -42q-12 -14 -24 -22t-28 -14q-40 -16 -81 -39t-71 -47q-16 -14 -41 -38t-37 -38q-32 -40 -58 -91t-36 -97
q-6 -22 -9 -46t-3 -34v-10h1062v10q2 16 -6 55t-18 63q-2 8 -6 17t-6 17q-2 6 -5 12t-5 8q0 2 -4 9t-8 13q-28 52 -78 103t-108 87q-18 12 -46 25t-44 19q-8 2 -15 6t-9 6q-12 10 -26 25t-20 23q-4 6 -7 10l-3 4q-4 2 -12 23t-12 35q-2 10 -3 22t1 38zM1502 1060
q-24 22 -47 35t-53 23q-20 6 -24 9t-10 9q-8 10 -15 26t-9 26q-2 14 -2 36t4 38q6 32 15 56t25 56q10 20 12 25t0 9q-4 12 -24 21t-50 13q-36 6 -71 2t-59 -16q-10 -4 -17 -12t-7 -12q0 -2 5 -14t13 -26q22 -42 31 -77t11 -67q0 -18 -3 -31t-11 -31q-10 -18 -20 -26t-36 -16
q-10 -2 -17 -6t-25 -14q-10 -6 -7 -9t25 -11q26 -8 57 -26t63 -40q16 -12 47 -43t45 -47q10 -16 23 -34t17 -28q2 -4 5 -8t5 -4q0 -2 48 -2h94h48q20 0 20 2q2 0 3 3t1 11q0 14 -9 47t-15 45q-22 40 -38 60t-48 48z" />
</svg>
