<?xml version="1.0" standalone="no"?>
<!DOCTYPE svg PUBLIC "-//W3C//DTD SVG 1.1//EN" "http://www.w3.org/Graphics/SVG/1.1/DTD/svg11.dtd" >
<svg xmlns="http://www.w3.org/2000/svg" xmlns:xlink="http://www.w3.org/1999/xlink" version="1.1" viewBox="-10 0 1438 2048">
   <path fill="currentColor"
d="M0 523v-17v-17q2 -2 2 -6t2 -6q12 -68 64 -109t116 -41h180h181h181h180h5h7v7v5v169v170v169v168q0 26 -2 50l-4 48q-2 36 -10 71t-20 69q-32 94 -85 173t-129 145q-62 52 -132 89t-150 57q-32 10 -65 15t-67 7q-24 0 -48 1t-48 -1q-54 -6 -95 -42t-55 -90q-2 -8 -4 -17
t-4 -17v-13v-13q2 -4 3 -10t1 -10q12 -66 65 -108t123 -40q20 2 41 0t41 -6q62 -12 113 -43t91 -79q38 -46 58 -99t20 -113v-169v-171q0 -8 -2 -10t-10 -2h-174h-174h-22q-12 0 -24 -4q-54 -10 -89 -41t-53 -85l-4 -16q-2 -8 -4 -18zM1248 307q10 0 18 2t18 4q38 10 65 35
t43 61q10 26 16 52t8 54q0 16 1 33t1 35v230v231v231v232q0 36 -8 72t-26 70q-24 42 -60 65t-84 23q-30 0 -58 -8t-52 -28q-22 -18 -36 -42t-22 -52q-8 -24 -12 -50t-4 -52v-242v-243v-242v-243q0 -40 8 -77t30 -73q20 -34 51 -53t71 -23q2 -2 4 -2h4h12h12zM0 1015
q2 -4 3 -8t1 -8q12 -66 59 -113t113 -57q84 -12 153 38t81 132q14 84 -36 153t-134 83t-153 -36t-83 -132q0 -4 -1 -9t-3 -9v-17v-17z" />
</svg>
