<?xml version="1.0" standalone="no"?>
<!DOCTYPE svg PUBLIC "-//W3C//DTD SVG 1.1//EN" "http://www.w3.org/Graphics/SVG/1.1/DTD/svg11.dtd" >
<svg xmlns="http://www.w3.org/2000/svg" xmlns:xlink="http://www.w3.org/1999/xlink" version="1.1" viewBox="-10 0 1890 2048">
   <path fill="currentColor"
d="M1516 1142h2l-4 -2h1t1 2zM1516 1142h1h1l-4 -2zM1514 1150q-2 4 -3 8t-1 8q0 6 -1 10t-3 8l-4 -2q0 -4 2 -8l4 -8q2 -4 3 -8t3 -8zM1514 1150q-2 4 -3 8t-1 8q0 6 -1 10t-3 8l-4 -2q0 -4 2 -8l4 -8q2 -4 3 -8t3 -8zM1382 1494q-4 -2 -7 -4t-7 -6q-2 0 -3 -2t-3 -4l-2 -4
l-4 -2l-8 -16l-8 -16q-4 -8 -7 -16t-5 -16q-4 -10 -6 -18t-6 -16q-4 -18 -9 -35t-9 -33q-4 -18 -8 -35t-8 -33q-8 -36 -15 -70t-13 -68l-14 -70q-2 -16 -6 -34t-6 -34h4v0q2 16 6 34t6 34l14 70q6 34 13 69t15 69q2 18 6 35t8 33q4 18 9 35t9 33q6 18 11 35t11 33l8 16
q4 8 10 14l2 4l2 4l3 3l3 3q4 2 7 5t7 3h6h3h3q0 -2 2 -2h2q2 -2 3 -2t3 -2l1 -1q1 -1 3 -1l4 -4l1 -1l3 -3l1 -1l3 -3q2 -2 3 -4t3 -4l1 -1l3 -3l2 -4l2 -6q2 0 2 -1t2 -3l4 -10q-2 6 -5 10t-5 8l-3 6q-1 2 -3 4t-3 4t-3 4l-3 3l-1 1q-2 0 -3 1t-1 3q-2 2 -4 3t-4 3
q-2 0 -3 1t-3 1l-2 1l-2 1h-3q-1 0 -3 2h-3h-3zM1382 1494h3q1 0 3 -2h3h3l2 -1l2 -1q2 0 3 -1t3 -1q2 -2 4 -3t4 -3q0 -2 1 -3t3 -1q0 -2 1 -3t3 -1q0 -2 2 -4l4 -4q2 -2 3 -4l3 -6q2 -4 5 -9t5 -9l-4 10q-2 2 -2 3t-2 1l-2 6l-2 4q0 2 -1 3t-3 1q0 2 -2 5t-4 5l-1 1l-3 3
l-1 1l-3 3l-4 2q0 2 -2 2t-2 2q-2 0 -3 1t-3 1l-2 1l-2 1h-3q-1 0 -3 2h-6l-8 -4q-4 -2 -6 -6q-2 0 -4 -2t-2 -4l-4 -4l-2 -2l-8 -16l-8 -16q-8 -16 -13 -33t-11 -33q-6 -18 -10 -35t-8 -33q-4 -18 -8 -35t-8 -35q-8 -34 -15 -68t-13 -70q-4 -16 -7 -34t-7 -34
q-4 -18 -7 -35t-5 -35v0v-2l2 -12l2 12q4 18 7 35t5 35l14 68q6 36 13 70t13 68q4 18 8 35t8 35q4 16 8 33t10 35q2 8 5 16t5 18q2 8 6 16t6 16l8 16q4 8 8 14l4 4l2 4l3 3l3 3q4 4 7 6t7 4zM810 1494h-4l-1 1q-1 1 -3 1q-4 -2 -7 -4t-7 -6l-3 -3l-3 -3l-2 -4l-4 -4
q-4 -6 -8 -14l-8 -16q-4 -10 -7 -18t-5 -16q-4 -8 -6 -17t-6 -17q-2 -8 -4 -17t-4 -17q-4 -8 -6 -17t-4 -17q-4 -18 -8 -35t-8 -35q-8 -34 -15 -69t-13 -69l-14 -70l-6 -36q-2 -8 -4 -17t-4 -17h6l-2 2v2q2 8 3 17t3 17l8 36l12 68q8 36 15 70t13 70q4 16 8 33t8 35t9 35
t9 33q6 18 11 34t13 32q2 8 6 16t10 16q2 4 5 7t5 7l8 4l8 4h-2q4 0 6 -1t4 -3q4 -2 6 -4t2 -4q2 0 3 -1t1 -3q2 0 2 -2t2 -2q0 -2 2 -5t4 -5q4 -10 9 -20t9 -22q0 -2 1 -5t1 -5q2 -2 3 -5t1 -5l6 -22l14 -44q-6 22 -12 42t-14 40q0 6 -2 11t-4 9q-2 6 -5 11t-5 9q0 2 -2 5
t-2 5l-4 4q-2 2 -2 4l-3 3q-1 1 -1 3l-4 4l-1 1q-1 1 -3 1q0 2 -2 2t-2 2zM810 1494q0 -2 2 -2t2 -2q2 0 3 -1l1 -1l4 -4q0 -2 1 -3l3 -3q0 -2 2 -4l4 -4q0 -2 1 -5t3 -5q2 -4 4 -9t4 -11q2 -4 4 -9t4 -11q8 -20 14 -40t12 -42l-12 44l-6 22q-2 2 -2 5t-2 5q0 4 -1 6l-3 6
l-8 20q-4 10 -10 20q0 4 -2 6t-2 4l-3 3q-1 1 -1 3l-1 1l-3 3l-4 4l-4 4q-2 2 -5 3t-7 1v0l-8 -4q-4 -2 -6 -6q-4 -2 -7 -6t-5 -6q-6 -8 -10 -16l-8 -16q-6 -16 -12 -33t-12 -33q-4 -18 -9 -35t-9 -35q-4 -16 -8 -33t-8 -35q-8 -34 -15 -69t-13 -69l-14 -70l-6 -34
q-2 -10 -3 -18t-3 -18v0v-2v-4l4 -10l2 10l12 70l12 70q6 36 13 71t15 69t16 69t18 69q2 8 4 17t6 17q2 8 5 16t7 16q4 10 8 17t8 15l4 4l2 4l3 3l3 3q4 4 7 6t7 4q2 -2 3 -2h1h4zM220 1494q-2 -2 -4 -3l-2 -1q-2 -2 -3 -2t-1 -2l-1 -1l-1 -1q-4 -2 -6 -5t-4 -7q-2 -2 -3 -4
l-1 -2q-2 -2 -3 -4t-1 -4l-4 -8l-2 -6q-2 -4 -3 -8t-3 -8q0 -2 -1 -6t-3 -8q-2 -8 -4 -15t-4 -15t-3 -16t-3 -14l-6 -32q-2 -8 -3 -15t-3 -15t-3 -16t-3 -14l-4 -16l-4 -14l-4 -16q-2 -8 -4 -14q-4 -8 -6 -15t-6 -15q-2 -8 -5 -15t-7 -13l-8 -14q-2 -4 -4 -7t-4 -7
q-2 -2 -4 -5t-4 -7l-5 -5q-3 -3 -5 -7q-4 -2 -6 -5t-6 -5q-2 -2 -5 -4t-7 -6q-2 0 -3 -1l-3 -3l-8 -2q-2 -2 -6 -4t-8 -2h-4v-4q4 2 8 3t8 1l6 4q2 2 4 3t4 1q6 4 13 9t11 11q6 6 11 12t11 12q2 4 4 7t4 7l8 14q4 8 7 15t5 13q4 8 7 15t5 15q2 4 3 8t1 8q2 4 3 7t3 7l4 16
q2 8 2 16q2 8 4 15t4 15t3 16t3 16l4 30l4 16q2 8 2 16q2 8 4 15t4 15q2 4 3 8t1 8q2 2 3 6t3 8l2 8l4 6q0 2 1 4t3 4q0 2 1 3l3 3q2 4 4 7t4 5q0 2 1 2t3 2h1q1 0 1 2q2 0 4 1t2 3q2 0 5 -1t5 -3l4 -4l4 -4q2 -2 3 -4t3 -4l3 -6q1 -2 3 -4q6 -10 10 -21t8 -21l3 -6
q1 -2 1 -6l10 -32l12 -46l4 2q-4 10 -7 21t-7 23q-2 10 -6 21t-8 23q-4 10 -9 20t-9 22q-4 4 -7 9t-7 9l-4 4l-4 4q-2 2 -5 3t-5 1zM220 1494q2 0 5 -1t5 -3l4 -4l4 -4q4 -4 7 -9t5 -11q6 -10 10 -20t8 -22q8 -20 14 -43t12 -45l4 2l-14 44l-10 34q0 2 -1 5t-1 5
q-4 12 -9 22t-11 20q0 4 -2 6t-4 6q0 2 -2 4l-4 4q-2 2 -4 5t-4 3q-4 2 -7 3t-5 1h-2l-2 -1q-2 -1 -4 -3l-1 -1q-1 -1 -3 -1l-1 -1q-1 -1 -1 -3q-4 -2 -6 -5t-4 -7q-2 -2 -2 -4t-2 -2q0 -2 -1 -4t-3 -4l-2 -8l-4 -6q0 -4 -2 -8t-2 -8q-2 -4 -3 -8t-3 -6l-4 -16q-2 -8 -2 -16
q-2 -8 -4 -15t-4 -15l-6 -32q0 -8 -2 -16t-2 -14l-4 -16l-4 -16q-2 -8 -4 -15t-4 -15q0 -4 -1 -8t-3 -8q0 -2 -2 -6t-2 -8q-4 -8 -6 -15t-6 -15q-2 -6 -5 -13t-7 -15l-8 -14q-2 -4 -4 -7t-4 -5q-4 -8 -9 -14t-11 -10q-6 -6 -12 -11t-12 -9q-2 -2 -4 -3t-4 -1l-6 -4
q-4 0 -8 -2t-6 -2l-12 -4h18q4 2 7 3t7 3l8 4q2 0 3 1l3 3q4 2 7 4t5 6q4 2 7 5l5 5q2 4 5 6t5 6t5 7t5 7q2 2 4 5t4 7l6 14q4 8 7 15t7 13q2 8 5 15t5 15t5 15t5 15l4 16l2 14l4 16l4 16q0 6 2 14t2 16l6 30q2 8 3 16t3 16q2 6 4 14l4 16q0 4 1 7t3 7t3 8t1 8l4 6l2 8
q2 2 3 4l1 2q2 2 2 4t2 4t4 6t6 6l1 1l1 1q0 2 1 2t3 2l2 1q2 1 4 3zM1656 1496l31 -33q31 -33 39 -129q14 -136 43 -195t101 -83h-274q-22 4 -38 16t-26 36v2v0v0q-16 28 -26 71t-20 101q-8 58 -22 104t-32 72q-12 18 -24 28t-26 10h274zM1530 1112v-1v-1q-4 6 -7 14t-7 18
v0q0 2 -1 4t-1 4q-2 8 -5 16t-5 18q-6 20 -10 46t-8 54q-8 46 -19 86t-25 68l-7 14q-3 6 -7 12q20 -28 34 -75t24 -103q8 -60 19 -104t25 -70zM1360 552q-2 0 -6 1t-6 3l-5 5l-5 5q-4 6 -7 12t-7 12q-2 6 -5 12t-5 14q-2 6 -5 12t-5 14l-4 12q-2 6 -4 14q-2 6 -3 12t-3 14
q-4 12 -8 26t-6 26q-12 54 -23 108t-21 108l-2 8l-2 -8v-2h4v2v-2q2 18 5 35t7 35l14 68q6 36 13 70t15 68q2 18 6 35t10 35q4 16 8 33t10 35q2 8 5 16t5 16t5 17t7 17t8 15t8 15l4 4l2 2q0 2 2 4t4 2q2 4 6 6l8 4h-2q6 -2 12 -3t10 -5q6 -4 10 -8l8 -8q4 -6 7 -11t5 -9
l3 -6l3 -6l4 -10q2 -4 3 -7t3 -5q0 -2 1 -5t3 -7q2 -6 3 -11t3 -11l4 -12q2 -6 2 -12q2 -6 3 -12t3 -12l6 -24l4 -24l8 -48q2 -6 3 -12t3 -12l6 -24q0 -4 1 -7t1 -5l4 -12q2 -6 3 -12t3 -12l6 -14q2 -2 3 -4t1 -4l4 -8l2 -6v6v2l-2 -2v-2v2l-6 -36q-2 -10 -3 -19t-3 -17
l-14 -74q-6 -36 -13 -72t-15 -72l-8 -36l-8 -36q-4 -18 -9 -36t-9 -36q-2 -8 -5 -17t-7 -17q-2 -10 -5 -18t-7 -18l-8 -16l-8 -16q-2 -2 -3 -4t-3 -4l-1 -1q-1 -1 -1 -3l-4 -2q-4 -4 -7 -6t-9 -4h-10h-3h-3h-2v0l-4 2h10zM1360 552h-10l4 -2v0h2h3h3h10q6 0 10 3t6 7l4 2
q0 2 1 3l1 1q2 2 3 4t3 4q6 8 10 16l8 16q2 8 6 17t6 17q4 10 6 19t6 17q10 36 18 72l16 72q8 36 15 72t15 72l14 72q0 10 2 19t4 19l6 36v0l-2 2l-2 6v-6v-2l2 2l-2 6q-2 2 -3 4t-1 4l-6 16l-4 12q-2 6 -2 12l-4 10q-2 4 -2 7t-2 5l-4 24q-2 6 -3 12t-3 12l-8 48l-4 24
l-6 24q-2 6 -3 12t-3 12q0 6 -2 12l-4 12q-2 6 -3 12t-3 12l-3 6q-1 2 -1 6q-2 2 -3 5t-3 7l-4 10l-3 6l-3 6q-2 6 -5 11t-7 9q-4 6 -9 10t-9 8q-6 4 -12 6t-14 2v0l-8 -4q-4 -2 -8 -6l-3 -3l-3 -3l-2 -4l-4 -4q-4 -8 -8 -15t-8 -17q-4 -8 -7 -16t-5 -16q-4 -8 -6 -17
t-4 -17q-6 -16 -10 -33t-8 -35q-6 -16 -9 -34t-7 -34q-8 -34 -15 -69t-13 -69l-14 -70q-2 -16 -5 -34t-7 -34v-2v0l2 -6l2 6v2h-4q6 -28 11 -55t11 -53q6 -28 12 -55t12 -53q4 -14 7 -27t7 -25q2 -8 4 -14t4 -14l4 -12q2 -6 4 -14l4 -12q2 -6 6 -12q2 -8 5 -14t5 -12
q4 -6 7 -12t7 -12l5 -5l5 -5q2 -2 6 -3t6 -1zM1530 1110v0v0v0v0zM1516 1142q0 2 -1 4t-1 4q0 -2 1 -4t1 -4zM1530 1112l-1 -1l-1 -1q-2 8 -5 15t-7 17q4 -10 7 -18t7 -14v0v1v1zM1442 1438q14 -28 25 -68t19 -86q4 -28 8 -54t10 -46q-6 22 -11 48t-11 56q-6 44 -17 83
t-23 67zM1074 1498q34 -8 65 -114t79 -360q2 -16 5 -33t5 -33v-2v-4v0v-2q30 -152 60 -268t60 -130h-242q-2 -2 -3 -2h-3h-16q-32 8 -63 113t-77 361q-2 6 -3 11t-1 11v1v1v0v2q-20 104 -40 198t-42 156q-12 38 -24 62t-26 30zM1228 954v1v1q0 2 1 3t1 3v-2v-2q0 -2 -2 -4z
M938 1052q-14 80 -29 154t-31 132q-6 20 -11 38t-9 34q20 -62 40 -157t40 -201v0zM1228 954v0q30 -154 61 -271t61 -131q-30 14 -61 131t-61 271zM1230 962q30 -166 64 -288t66 -122h-10q-30 14 -61 131t-61 271q2 2 2 4v2v0v1v1zM938 1050q-12 -64 -25 -129t-27 -129
l-16 -64q-8 -32 -18 -64q-4 -16 -9 -32t-13 -30q-2 -8 -6 -15t-10 -15q-2 -2 -4 -5t-6 -7q-2 -2 -6 -4t-8 -2h2h-8h-6h-3h-1l-2 2h-2h-2q0 2 -1 2h-1q-6 6 -9 11t-7 11t-7 13t-5 13t-5 13t-5 13q-10 26 -17 53t-13 53q-8 28 -14 55t-10 55q-6 28 -12 55t-10 55v-2l6 36l6 34
l14 70q6 36 13 70t13 70q4 16 8 34t8 34q2 10 4 18t6 18l4 16q2 8 4 18q2 8 5 16t7 18q2 8 5 16t7 16l8 16l8 16l2 4l4 2q0 2 2 4t2 4l8 4l8 4h-2h3h1q0 -2 1 -2h3q0 -2 2 -2t4 -2t4 -5t4 -5q4 -6 8 -13t6 -13l7 -14q3 -6 5 -14q2 -6 5 -13t5 -15l8 -28l8 -28l14 -58l12 -58
q2 -6 4 -14t4 -14l6 -30l10 -58l6 -28q2 -8 3 -15t3 -15zM938 1050q0 8 -2 15t-4 15l-4 28l-12 58l-6 30q0 6 -2 14t-4 14l-12 58l-8 30l-6 28l-8 28q-4 14 -8 30q-2 6 -4 13t-6 15q-2 6 -5 13t-5 13l-7 14q-3 6 -7 12q-4 4 -6 7t-4 5t-4 3t-4 1q0 2 -1 2h-3h-1h-3v0
q-4 0 -8 -3t-8 -5q0 -2 -2 -4l-4 -4l-2 -2l-2 -4q-6 -8 -10 -16l-8 -16q-2 -8 -6 -17t-6 -17t-5 -16t-5 -18q-4 -8 -6 -17t-4 -17t-5 -17t-5 -17q-4 -18 -8 -35t-8 -35q-6 -34 -13 -69t-15 -69l-12 -70l-8 -36l-6 -34v-2q6 -26 12 -54t10 -54q6 -28 12 -55t14 -55
q6 -28 14 -55t16 -53q2 -6 5 -13t5 -13q4 -6 7 -12t5 -14q4 -6 8 -11t10 -11l1 -1l1 -1q2 0 2 -1t2 -1l4 -2h1h3h6h8v0l8 4q4 2 6 4l7 7q3 3 5 7q4 6 8 13t8 15q6 16 11 31t11 31q10 32 17 64t15 64q14 66 26 131t24 129zM938 1052v-2v0v0v1v1zM938 1056q-16 78 -31 151
t-29 131q16 -58 31 -132t29 -154v-1v-1v3v3zM494 1496q34 -6 65 -111t77 -359q2 -18 5 -34t7 -32q-2 0 -2 -2v-2q12 -62 24 -119t24 -105q18 -74 37 -123t37 -57h-266q-30 8 -62 113t-80 361q-4 16 -6 31t-6 31h1h1v1v1v0q-20 96 -39 181t-37 139q-14 42 -28 64t-28 22h188
h88zM650 958l-2 -2q12 -62 24 -119t24 -105q-14 48 -26 106t-22 120v2v2v-2v-1q0 -1 2 -1zM348 1092q-12 68 -25 129t-27 113q-6 22 -12 43t-12 39q20 -56 39 -141t37 -183v0zM696 732q20 -80 40 -130t40 -50h-6q-20 8 -38 57t-36 123zM778 552h-2q-20 0 -40 50t-40 130
q-12 48 -24 105t-24 119l2 2q30 -164 63 -285t65 -121zM156 1326l4 22q2 6 3 12t1 10q2 6 3 12t3 12q2 4 3 10t3 12t3 11t3 11l4 10q2 2 3 5t3 5q0 4 2 6t2 4q2 2 2 3t2 3l1 2l1 2l4 4l4 4l3 3q1 1 3 1l1 1l3 3v-2q2 0 5 -1t7 -3l4 -4q2 -2 4 -6q4 -4 7 -10t7 -12
q6 -12 10 -24l8 -24q6 -12 9 -25t7 -25q2 -8 4 -14t2 -12l6 -26l12 -52l6 -26q2 -6 3 -12t3 -12l20 -104v2v-2v-2v-8l2 2l-8 -8q-2 0 -4 -2l-4 -4l-4 -4q-2 -2 -4 -2l-4 -4l-4 -2q-2 0 -5 -1t-5 -1q-2 -2 -5 -2t-5 -2h-5h-5h-96l-172 -2l2 -2q4 2 9 4t9 4q2 2 4 3t4 3l8 6
q2 0 4 2l4 4q2 2 4 3t4 3q2 4 6 8t6 8l6 8q2 2 3 4t3 4q0 2 2 4t2 4l4 10q4 4 6 8l4 8q2 6 4 10t4 10q2 4 3 8t3 10l4 8l2 10q2 6 3 10t3 10l4 18l4 20q2 4 3 9t1 9q2 6 3 11t1 9zM156 1326l-4 -20q0 -4 -1 -9t-3 -9q0 -6 -1 -11t-3 -9l-4 -20l-4 -18q-2 -6 -3 -10t-3 -10
l-4 -8l-2 -10q-2 -4 -4 -9t-4 -9q-2 -6 -4 -10l-4 -8q-2 -6 -4 -10l-4 -8l-4 -10q-2 -2 -3 -4t-3 -4t-3 -4t-3 -4l-6 -8q-2 -4 -5 -7l-7 -7l-4 -4q-2 -2 -4 -2q-2 -2 -3 -4t-3 -4l-8 -4q-2 -2 -5 -3t-5 -3l-8 -4q-4 -2 -10 -4l-6 -2h274h5h5q4 0 6 1t6 1q2 2 5 3t5 1l4 2
l6 4q2 0 4 2l4 4l4 4l4 4l8 8v2l-2 8v-2l2 2h-2l-20 104q-2 6 -3 13t-3 13l-6 26l-18 76q-2 6 -4 13t-4 13q-2 12 -6 25t-10 25q-4 12 -9 25t-9 25q-4 4 -7 10t-7 12l-5 5l-5 5q-2 2 -5 3t-7 1v0q-2 -2 -3 -2t-3 -2l-1 -1q-1 -1 -3 -1l-4 -4q-2 -2 -4 -6l-1 -1l-3 -3
q0 -2 -1 -3l-1 -1l-3 -6l-3 -6q0 -2 -1 -4l-3 -6l-4 -10q-2 -6 -4 -11t-2 -11l-4 -12q-2 -6 -2 -10q-2 -6 -3 -12t-3 -12q0 -4 -2 -10t-2 -12zM348 1092v0v-2v0v2v0zM346 1100v0q-12 64 -25 124t-25 110q14 -52 27 -113t25 -129v0q-2 2 -2 4v4z" />
</svg>
