<?xml version="1.0" standalone="no"?>
<!DOCTYPE svg PUBLIC "-//W3C//DTD SVG 1.1//EN" "http://www.w3.org/Graphics/SVG/1.1/DTD/svg11.dtd" >
<svg xmlns="http://www.w3.org/2000/svg" xmlns:xlink="http://www.w3.org/1999/xlink" version="1.1" viewBox="-10 0 1574 2048">
   <path fill="currentColor"
d="M452 950l-250 92q2 30 7 59t13 59l236 -86q-4 -30 -6 -61t0 -63zM1554 674q-14 -26 -29 -52t-33 -50l-248 90q20 22 39 47t33 53zM1004 604q40 18 74 43t62 53l248 -90q-52 -74 -122 -133t-156 -99q-134 -62 -275 -66t-270 43t-234 141t-169 226q-40 88 -55 178t-9 178
l250 -90q2 -40 13 -80t29 -80q40 -86 109 -147t152 -92t175 -28t178 43zM238 1154l-238 86q18 64 46 125t66 117l248 -92q-48 -48 -79 -109t-43 -127zM1270 1060q-2 40 -13 80t-29 80q-40 86 -109 147t-152 92t-175 28t-178 -43q-40 -18 -74 -42t-62 -54l-248 90
q52 74 122 133t156 99q134 62 275 66t270 -43t234 -141t169 -226q40 -88 55 -178t9 -178zM1332 756l-236 86q32 58 47 125t11 135l248 -90q-6 -68 -23 -132t-47 -124z" />
</svg>
