<?xml version="1.0" standalone="no"?>
<!DOCTYPE svg PUBLIC "-//W3C//DTD SVG 1.1//EN" "http://www.w3.org/Graphics/SVG/1.1/DTD/svg11.dtd" >
<svg xmlns="http://www.w3.org/2000/svg" xmlns:xlink="http://www.w3.org/1999/xlink" version="1.1" viewBox="-10 0 1678 2048">
   <path fill="currentColor"
d="M1652 1667l-774 -1338q-6 -12 -20 -20t-30 -8q-14 0 -27 8t-21 20l-774 1338q-6 14 -6 28t6 28q8 12 22 18t28 6h1546q14 0 28 -6t22 -18q6 -14 6 -28t-6 -28v0zM1160 1559l2 -58l-224 40l-10 -10l4 -78h-6l-48 51q-48 51 -148 51q-76 0 -136 -41t-60 -163t78 -170
t176 -48h136v-66q0 -50 -32 -77t-94 -27q-68 0 -134 8l-66 8l-8 -12v-110l74 -7t164 -7q84 0 164 35t80 157v374l74 -14l-22 -54l186 82zM676 1341q0 56 33 74t71 18q36 0 76 -13t68 -57v-126h-98q-74 0 -112 22t-38 82v0z" />
</svg>
