<?xml version="1.0" standalone="no"?>
<!DOCTYPE svg PUBLIC "-//W3C//DTD SVG 1.1//EN" "http://www.w3.org/Graphics/SVG/1.1/DTD/svg11.dtd" >
<svg xmlns="http://www.w3.org/2000/svg" xmlns:xlink="http://www.w3.org/1999/xlink" version="1.1" viewBox="-10 0 1694 2048">
   <path fill="currentColor"
d="M990 1024q0 62 -45 107t-109 45q-62 0 -107 -45t-45 -107q0 -64 45 -109t107 -45q64 0 109 45t45 109zM836 1586q92 88 178 137t158 49q22 0 44 -5t40 -17q64 -36 87 -126t1 -222q-4 -24 -9 -48t-11 -48q24 -8 47 -15t45 -15q126 -48 192 -112t66 -138t-66 -138
t-192 -112q-22 -8 -45 -16t-47 -14q6 -24 11 -48t9 -46q20 -136 -2 -227t-86 -127q-20 -12 -42 -17t-44 -5q-70 0 -157 49t-177 137q-90 -88 -176 -137t-158 -49q-22 0 -44 5t-40 17q-64 36 -87 126t-1 222q4 24 9 48t11 48q-24 8 -47 15t-45 15q-126 48 -192 112t-66 138
t66 138t192 112q22 8 45 16t47 14q-6 24 -11 48t-9 46q-20 132 2 223t86 127q18 10 40 16t44 6q72 2 158 -47t176 -135v0zM744 1364q24 2 47 2h45h47q23 0 47 -2q-24 30 -47 57t-47 53q-22 -26 -45 -53t-47 -57zM540 1194q14 22 25 42t25 40q-38 -6 -74 -12t-70 -14
q10 -32 23 -67t27 -69q10 20 21 40t23 40zM446 798q34 -8 70 -14t74 -12l-24 40q-12 20 -26 42q-12 20 -23 40t-21 42q-16 -36 -28 -71t-22 -67zM536 1024q16 -34 33 -67t37 -67l40 -64q20 -32 42 -64q36 -4 73 -5t75 -1q40 0 77 1t73 5q24 32 43 64t39 64q20 34 37 67
t33 67l-33 66q-17 34 -37 66l-40 64q-20 32 -42 64q-36 4 -73 5t-77 1q-38 0 -75 -1t-73 -5q-24 -32 -43 -64t-39 -64t-37 -66l-33 -66v0zM1180 934l-46 -82q-12 -22 -23 -41t-25 -39q38 4 74 10t70 14q-10 34 -23 69t-27 69v0zM1180 1112q14 34 27 69t23 67q-34 8 -70 14
t-74 12l24 -40q12 -20 24 -42q12 -18 23 -38t23 -42v0zM1218 1684q-10 6 -22 8t-26 2q-60 0 -133 -45t-147 -119q36 -38 71 -81t69 -91q58 -6 113 -14t107 -22q6 22 10 45t8 45q18 104 5 176t-55 96zM1302 816q140 40 218 96t78 112q0 48 -55 94t-155 84q-20 8 -41 15
t-45 13q-16 -50 -36 -102t-44 -104q24 -54 45 -106t35 -102v0zM1172 352q12 0 24 2t22 10q42 22 56 93t-4 177q-4 22 -9 44t-9 46q-52 -12 -107 -20t-113 -14q-34 -50 -69 -93t-71 -81q74 -72 146 -118t134 -46zM930 682q-24 0 -47 -1t-47 -1q-22 0 -45 1t-47 1
q24 -30 47 -57t45 -53q24 26 47 54t47 56v0zM456 364q10 -8 22 -10t26 -2q60 0 133 45t147 119q-36 38 -71 81t-69 93q-58 4 -113 13t-107 21q-6 -22 -10 -45t-8 -45q-18 -104 -5 -175t55 -95v0zM372 1230q-140 -38 -218 -95t-78 -111q0 -48 55 -95t155 -85q20 -8 41 -15
t45 -13q16 50 36 102t44 106q-24 52 -45 105t-35 101zM406 1412l8 -44q4 -22 10 -46q52 12 107 21t113 15q34 48 69 91t71 81q-74 74 -147 119t-133 45q-14 0 -25 -2t-23 -8q-42 -24 -55 -96t5 -176z" />
</svg>
