<?xml version="1.0" standalone="no"?>
<!DOCTYPE svg PUBLIC "-//W3C//DTD SVG 1.1//EN" "http://www.w3.org/Graphics/SVG/1.1/DTD/svg11.dtd" >
<svg xmlns="http://www.w3.org/2000/svg" xmlns:xlink="http://www.w3.org/1999/xlink" version="1.1" viewBox="-10 0 1642 2048">
   <path fill="currentColor"
d="M990 1483q2 2 5 12t-3 24q-4 6 -8 11t-12 11q-8 8 -24 12t-40 -12q-12 -8 -17 -10t-23 0q-12 2 -17 -8t1 -20q4 -10 20 -15t38 7q10 6 25 14t29 -4q6 -4 10 -8t12 -14h1h1h1h1zM952 511h-4h-13q-7 0 -15 2q-22 2 -42 7t-34 13v1v1v1q0 1 2 1q4 0 8 -1t8 -1q38 -4 66 2
t30 16q0 10 -15 18t-39 14l-1 1q-1 1 -1 3l1 1q1 1 1 3q10 2 22 4t24 2q40 0 68 -12t28 -30t-27 -32t-67 -14zM728 639q-30 0 -52 3t-42 3q-18 0 -32 -10t-20 -18q-6 -6 -20 -8t-22 20q-10 22 2 42t28 22l19 27q19 27 37 7q14 -14 33 -22t89 -12q34 -4 41 -11t7 -15
q-2 -10 -20 -19t-48 -9zM812 307q-168 0 -316 63t-258 173t-174 258t-64 316q0 68 11 133t31 125h56q38 0 72 -8t64 -24q8 -4 16 -6t16 -2q20 0 35 8t25 24t18 25t18 15t22 10t28 4q8 -2 18 -4t14 -10q4 -10 -1 -17t-17 -13q-16 -6 -23 -17t-15 -25q-10 -16 -24 -29t-18 -43
q-2 -28 20 -55t66 -15q32 8 53 38t29 44q4 6 16 11t24 -5q10 -10 21 -10t19 14q8 12 56 63t106 53q60 2 96 -8t62 -10q20 2 30 8t22 8q18 2 33 -8t35 -10q16 2 34 9t38 7q18 0 47 -13t27 -3q0 16 -9 40t-13 36q-2 10 -2 29t-4 37q-6 18 -19 38t-17 26q-14 22 -26 34t-24 36
q-14 26 -32 48t-24 30q-8 10 27 2t53 -24q14 -16 41 -48t69 -40q28 -8 36 -17t4 -19q0 -2 -1 -3t-1 -3q0 -4 2 -7t6 -5q28 -12 66 -19t82 -7q26 0 50 3t48 9q62 -94 96 -206t34 -234q0 -168 -64 -316t-174 -258t-258 -173t-314 -63zM1470 1101q-14 80 -82 133t-169 77
t-225 17t-252 -45q-120 -36 -230 -89t-191 -109t-123 -111t-30 -99q14 -50 87 -70t179 -10q-16 34 -7 72t79 80q86 48 203 83t155 31q16 0 25 -7t-5 -15q-12 -10 -24 -28t-18 -48q-4 -18 -23 -39t-111 -39q-198 -38 -224 -86t-20 -80l12 -57q12 -57 20 -85t43 -70t161 -14
q74 16 116 5t62 -17q54 -14 109 -4t89 44q34 36 76 129t64 175q12 42 11 65t-7 37q-4 10 -9 19t-19 35q-2 4 -1 7t7 1q38 -20 51 -44t19 -44q104 24 160 75t42 125z" />
</svg>
