<?xml version="1.0" standalone="no"?>
<!DOCTYPE svg PUBLIC "-//W3C//DTD SVG 1.1//EN" "http://www.w3.org/Graphics/SVG/1.1/DTD/svg11.dtd" >
<svg xmlns="http://www.w3.org/2000/svg" xmlns:xlink="http://www.w3.org/1999/xlink" version="1.1" viewBox="-11 0 1440 2048">
   <path fill="currentColor"
d="M712 314q-146 -2 -275 53t-226 150t-154 224t-57 275q-2 148 53 278t150 227t224 154t277 59q146 2 275 -53t227 -151t155 -225t57 -275q2 -148 -53 -278t-151 -227t-225 -154t-277 -57zM688 788q-8 10 -16 5t-14 -9q-128 -54 -233 3t-125 195q-6 48 -2 96t22 94
q42 92 136 123t192 -19q8 -4 15 -9t15 -5q12 32 -2 49t-42 25q-136 44 -248 -13t-140 -199q-24 -130 25 -239t155 -153q62 -26 124 -24t124 22l22 6q0 14 2 27t-10 25zM1152 1220q-8 44 -45 80t-89 46q-38 10 -76 9t-76 -11q-48 -12 -58 -26t-8 -66q28 16 57 30t61 18
q32 6 62 4t58 -16q50 -24 58 -79t-34 -93q-24 -22 -52 -36l-56 -28l-40 -20q-20 -10 -38 -22q-40 -26 -59 -64t-15 -86q4 -50 33 -83t75 -53q50 -20 100 -17t100 21q28 8 26 29t0 43q-44 -22 -86 -35t-88 -3q-42 8 -69 31t-33 57q-6 42 8 72t54 52q36 20 73 38t73 38
q54 32 73 71t11 99z" />
</svg>
