<?xml version="1.0" standalone="no"?>
<!DOCTYPE svg PUBLIC "-//W3C//DTD SVG 1.1//EN" "http://www.w3.org/Graphics/SVG/1.1/DTD/svg11.dtd" >
<svg xmlns="http://www.w3.org/2000/svg" xmlns:xlink="http://www.w3.org/1999/xlink" version="1.1" viewBox="-10 0 660 2048">
   <path fill="currentColor"
d="M388 1185q26 6 52 13t60 17q-16 -32 -30 -59t-28 -53q-10 -16 -8 -27t14 -23q22 -24 42 -49t42 -51q-2 -2 -3 -4t-1 -4l-52 12q-26 6 -52 16q-26 8 -44 3t-30 -33q-8 -20 -23 -42t-31 -50q-8 34 -14 62t-8 54q-2 28 -15 44t-41 20q-26 6 -53 16t-61 22q32 14 61 26t59 24
q-18 12 -34 23t-32 21q-4 2 -10 4t-10 0q-30 -14 -60 -27t-56 -31t-21 -44t35 -38q36 -14 72 -26t72 -22q16 -6 24 -15t10 -25q4 -28 10 -56t10 -56q2 -10 5 -19t7 -17q18 -34 43 -36t45 28q16 24 31 47t27 49q10 20 23 25t35 -3q32 -10 64 -19t66 -15q14 -2 29 4t31 8
q-4 16 -6 32t-12 28q-22 30 -47 59t-51 57q-10 12 -12 23t8 25q14 26 29 54t27 56q6 14 6 32t-8 28t-25 16t-31 4q-28 -4 -57 -11t-51 -23q-14 -8 -19 -29t-13 -39q2 -2 5 -3t5 -3z" />
</svg>
