<?xml version="1.0" standalone="no"?>
<!DOCTYPE svg PUBLIC "-//W3C//DTD SVG 1.1//EN" "http://www.w3.org/Graphics/SVG/1.1/DTD/svg11.dtd" >
<svg xmlns="http://www.w3.org/2000/svg" xmlns:xlink="http://www.w3.org/1999/xlink" version="1.1" viewBox="-10 0 398 2048">
   <path fill="currentColor"
d="M88 1122q-4 30 -8 58.5t-8 59.5h-35h-37q4 -46 10 -89t12 -87q2 -22 5 -44t7 -44q10 -66 59 -113t111 -53q94 -10 144 59t14 157q-36 82 -111 109t-163 -13zM298 968q0 -36 -23 -60t-59 -24q-44 0 -76 32t-32 76q0 36 24 59t60 23q42 0 74 -32t32 -74z" />
</svg>
