<?xml version="1.0" standalone="no"?>
<!DOCTYPE svg PUBLIC "-//W3C//DTD SVG 1.1//EN" "http://www.w3.org/Graphics/SVG/1.1/DTD/svg11.dtd" >
<svg xmlns="http://www.w3.org/2000/svg" xmlns:xlink="http://www.w3.org/1999/xlink" version="1.1" viewBox="-10 0 348 2048">
   <path fill="currentColor"
d="M0 1158q20 -10 38 -20t38 -22q6 10 11 18t9 16q16 22 39 24t43 -14t21 -33t-17 -39q-16 -20 -33 -38t-35 -36q-26 -28 -38 -60t4 -68q18 -42 49 -65t75 -27t73 15t51 55q-16 14 -34 27t-34 27q-10 -10 -17 -21t-17 -13q-14 -2 -30 -2t-28 6q-18 12 -12 25t16 25
q18 18 34 36l32 36q30 28 41 61t-1 73q-16 42 -45 69t-75 37q-62 12 -100 -10t-58 -82z" />
</svg>
