<?xml version="1.0" standalone="no"?>
<!DOCTYPE svg PUBLIC "-//W3C//DTD SVG 1.1//EN" "http://www.w3.org/Graphics/SVG/1.1/DTD/svg11.dtd" >
<svg xmlns="http://www.w3.org/2000/svg" xmlns:xlink="http://www.w3.org/1999/xlink" version="1.1" viewBox="-11 0 365 2048">
   <path fill="currentColor"
d="M323 1183h-39h-37q6 -36 11 -72t9 -72q2 -30 -5 -57t-35 -43q-24 -14 -55 -10t-55 24q-24 22 -35 48t-3 58q12 40 50 54t78 -8q8 -4 16 -9t16 -9q0 10 -2 20l-4 20q-4 40 -16 52t-54 14q-88 4 -134 -57t-20 -145q20 -64 77 -103t123 -33q58 4 97 44t37 98q-2 46 -9 92
t-11 94z" />
</svg>
