<?xml version="1.0" standalone="no"?>
<!DOCTYPE svg PUBLIC "-//W3C//DTD SVG 1.1//EN" "http://www.w3.org/Graphics/SVG/1.1/DTD/svg11.dtd" >
<svg xmlns="http://www.w3.org/2000/svg" xmlns:xlink="http://www.w3.org/1999/xlink" version="1.1" viewBox="-10 0 340 2048">
   <path fill="currentColor"
d="M114 995q36 -38 67 -72t63 -68q12 34 12 64t-34 54q-14 12 -27 27t-27 29q38 52 75 104t77 108q-24 0 -46 1t-44 -1q-6 0 -12 -7t-12 -15q-24 -34 -48 -71t-52 -81q-6 38 -12 69t-6 61q-2 28 -13 38t-37 6q-8 0 -17 -1t-21 -1q8 -54 14 -107t14 -107q4 -32 9 -63t7 -63
q2 -22 10 -35t26 -23q14 -6 27 -15t31 -21q-6 48 -12 94t-12 96z" />
</svg>
