<?xml version="1.0" standalone="no"?>
<!DOCTYPE svg PUBLIC "-//W3C//DTD SVG 1.1//EN" "http://www.w3.org/Graphics/SVG/1.1/DTD/svg11.dtd" >
<svg xmlns="http://www.w3.org/2000/svg" xmlns:xlink="http://www.w3.org/1999/xlink" version="1.1" viewBox="-10 0 761 2048">
   <path fill="currentColor"
d="M668 231q-52 -48 -115 -34t-127 72q-10 8 -19 17l-19 19q-54 58 -106 138t-95 169t-75 180t-48 173q12 26 22 55t16 53q2 8 3 13t3 11q2 12 4 19l2 7l-2 -5t-6 -17q0 -2 -1 -4t-1 -6q-2 0 -2 -2v-2q-8 -18 -24 -46t-24 -44q-8 22 -14 42l-12 40q24 46 39 106l15 60l-2 -7
q-2 -7 -8 -23t-27 -53t-27 -49q-12 42 -16 69t0 33q8 14 15 35t15 47q14 58 24 113l10 55v5v11q-2 48 -1 97t5 93q6 60 14 108t20 76l12 -6q-18 -54 -25 -123t-3 -151q4 -124 33 -271t81 -303q44 -118 97 -224t109 -194t115 -157t115 -113q-52 46 -110 137t-111 192t-96 196
t-63 151q-48 126 -81 244t-53 232q34 -106 114 -154l80 -48l48 -61t112 -159q-38 10 -90 23t-74 21q-32 14 -42 19l-10 5l81 -46q81 -46 169 -74q58 -94 115 -202t88 -213t25 -196t-72 -149z" />
</svg>
