<?xml version="1.0" standalone="no"?>
<!DOCTYPE svg PUBLIC "-//W3C//DTD SVG 1.1//EN" "http://www.w3.org/Graphics/SVG/1.1/DTD/svg11.dtd" >
<svg xmlns="http://www.w3.org/2000/svg" xmlns:xlink="http://www.w3.org/1999/xlink" version="1.1" viewBox="-10 0 1704 2048">
   <path fill="currentColor"
d="M958 1244q2 2 6 4t6 2h72q2 0 6 -2t6 -4l18 -20q2 -2 3 -4t1 -4l20 -68q2 -6 1 -10t-5 -8l-14 -12q-2 -2 -6 -1t-6 1h-66l-4 -4q-2 0 -4 -1t-4 1l-24 16q-2 0 -3 4t-3 6l-22 66q-2 4 -1 10t5 10zM968 1598l-4 2h-16l96 -284q2 -6 -1 -13t-9 -9l-6 -2h-162q-6 2 -9 5t-5 9
l-10 34q-2 6 3 12t11 8l4 -2h24l-98 280q-2 8 1 15t11 11l4 4h150q6 0 11 -5t7 -11l10 -32q2 -6 -1 -13t-11 -9v0zM1680 1334l-26 -34q-2 -4 -5 -6t-7 -2h-98q-4 0 -7 3l-5 5l-28 32h-42l-28 -32v-2q-2 -4 -5 -5t-7 -1h-54l270 -272l-302 -300l270 -278v-120l-38 -48h-546
l-46 46v40l-150 -154l-104 100l-32 -32h-540l-44 48v126l40 40h40v350l-186 186l186 188v428l70 40h156l122 -128l288 290l196 -194q0 4 3 5l9 3l4 -2h126q6 0 11 -1t5 -7l10 -26q2 -8 -1 -13t-9 -7h-6h-6l46 -142l30 -32h68l-68 214q-2 6 2 11t10 7l6 -2h122q6 0 10 -2
t6 -6l10 -24q4 -8 1 -14t-9 -8q-2 -2 -4 -1t-4 1h-4l56 -174h82l-70 212q-2 8 2 12t12 6l4 -4h134q6 0 10 -1t6 -7l12 -26q2 -8 -1 -13t-11 -7q0 -2 -2 -1t-4 1h-10l76 -248q2 -4 1 -9t-3 -9v0zM826 232l150 152v62l46 56h22l-388 374v-374h44l36 -58v-118l-2 -4zM24 1024
l162 -162v324zM546 1538l782 -804l286 288l-270 270h-2l-4 4l-4 4l-30 32h-38l-30 -32q-2 -4 -5 -6t-7 -2h-118q-6 0 -11 3t-7 9l-10 34q-2 8 0 13t10 9h20l-86 252l-202 204z" />
</svg>
