<?xml version="1.0" standalone="no"?>
<!DOCTYPE svg PUBLIC "-//W3C//DTD SVG 1.1//EN" "http://www.w3.org/Graphics/SVG/1.1/DTD/svg11.dtd" >
<svg xmlns="http://www.w3.org/2000/svg" xmlns:xlink="http://www.w3.org/1999/xlink" version="1.1" viewBox="-11 0 1436 2048">
   <path fill="currentColor"
d="M1415 450q0 -102 -68 -174t-170.5 -82t-181 54.5t-92 160.5t41 181t150.5 106v136q0 41 -35 62l-355 177l-355 -177q-34 -20 -34 -62v-136q96 -20 150.5 -102.5t41 -178t-85.5 -157t-167.5 -61.5t-167 61.5t-85 157t41 177.5t149.5 103v136q0 55 27.5 102.5t75.5 68.5
l348 184v164q-96 27 -150.5 105.5t-40.5 174.5t85.5 160.5t170.5 64.5t170.5 -64.5t82 -160.5t-44.5 -174.5t-143 -105.5v-164l341 -177q55 -27 82 -75t27 -103v-136q82 -20 133 -88.5t58 -157.5zM132 450q0 -55 37.5 -92.5t92 -37.5t89 37.5t34.5 92.5t-34.5 92.5t-89 37.5
t-92 -37.5t-37.5 -92.5zM835 1604q0 55 -37.5 89t-92 34t-92 -34.5t-37.5 -89t37.5 -92t92 -37.5t92 37.5t37.5 92.5zM1156 580q-55 0 -92.5 -37.5t-37.5 -92.5t37.5 -92.5t92.5 -37.5t92.5 37.5t37.5 92.5t-37.5 92.5t-92.5 37.5z" />
</svg>
