<?xml version="1.0" standalone="no"?>
<!DOCTYPE svg PUBLIC "-//W3C//DTD SVG 1.1//EN" "http://www.w3.org/Graphics/SVG/1.1/DTD/svg11.dtd" >
<svg xmlns="http://www.w3.org/2000/svg" xmlns:xlink="http://www.w3.org/1999/xlink" version="1.1" viewBox="-10 0 1897 2048">
   <path fill="currentColor"
d="M1563 208h-669l-41 20l-853 854v88l662 670h89l286 -288q123 68 266.5 68.5t270 -68t205 -184t91.5 -258.5l7 -70q0 -142 -68 -268.5t-185 -207.5v-288zM1495 502q-96 -35 -191 -34q-27 0 -44.5 16.5t-17.5 44t17 48.5t45 21q102 0 191 40v274l-499 504q-20 8 -34 28
l-252 260l-574 -574l785 -792h574v164zM1624 726q61 68 95.5 147.5t34.5 166.5q-7 35 -7 70q-14 102 -71.5 187t-150 136t-194.5 58.5t-198 -33.5l471 -472l20 -48v-212z" />
</svg>
