<?xml version="1.0" standalone="no"?>
<!DOCTYPE svg PUBLIC "-//W3C//DTD SVG 1.1//EN" "http://www.w3.org/Graphics/SVG/1.1/DTD/svg11.dtd" >
<svg xmlns="http://www.w3.org/2000/svg" xmlns:xlink="http://www.w3.org/1999/xlink" version="1.1" viewBox="-10 0 1937 2048">
   <path fill="currentColor"
d="M1215 7q-212 0 -386 112.5t-259.5 304t-54.5 396t167 354.5l-682 785l95 82l683 -778q184 143 413 150t420 -122.5t266 -348t7 -440.5t-256 -358.5t-413 -136.5zM1215 1284q-157 0 -290 -75.5t-211.5 -208.5t-78.5 -290t78.5 -290t211.5 -208t290 -75t286.5 75t208 208
t78.5 290t-78.5 290t-208 211.5t-286.5 78.5v-6z" />
</svg>
