<?xml version="1.0" standalone="no"?>
<!DOCTYPE svg PUBLIC "-//W3C//DTD SVG 1.1//EN" "http://www.w3.org/Graphics/SVG/1.1/DTD/svg11.dtd" >
<svg xmlns="http://www.w3.org/2000/svg" xmlns:xlink="http://www.w3.org/1999/xlink" version="1.1" viewBox="-10 0 1785 2048">
   <path fill="currentColor"
d="M970 132q150 20 290 85t243 174q164 164 225 375.5t20 430t-184 396.5q-130 164 -317.5 249t-392.5 78t-389 -102q-137 -75 -239 -191t-160 -259.5t-65 -297t37.5 -304t133 -273t218.5 -211.5t276.5 -126.5t303.5 -23.5zM1032 1777q123 -27 235.5 -95.5t194.5 -170.5
q123 -150 160.5 -338t-17.5 -369t-191 -324q-123 -123 -290.5 -181t-341.5 -34t-317 119q-171 116 -259.5 297t-78.5 382.5t116 372t283 266.5q116 61 246 81.5t253 -6.5h7zM813 767h164v-123h-164v123zM977 896v512h-164v-512h164z" />
</svg>
