<?xml version="1.0" standalone="no"?>
<!DOCTYPE svg PUBLIC "-//W3C//DTD SVG 1.1//EN" "http://www.w3.org/Graphics/SVG/1.1/DTD/svg11.dtd" >
<svg xmlns="http://www.w3.org/2000/svg" xmlns:xlink="http://www.w3.org/1999/xlink" version="1.1" viewBox="-10 0 2061 2048">
   <path fill="currentColor"
d="M259 1058l-157 157l-102 -95l266 -267h96l273 273l-103 96l-150 -150q20 212 160.5 372t348.5 204.5t402.5 -44t297.5 -280.5l102 75q-130 225 -365.5 328t-484.5 44.5t-413 -256.5t-171 -457zM1666 997l-157 -157l-103 95l267 273h102l266 -266l-95 -95l-157 150
q-7 -253 -164 -451t-403 -263t-481.5 27.5t-371.5 310.5l102 75q109 -184 307 -266t403 -27.5t338 218.5t147 376z" />
</svg>
