<?xml version="1.0" standalone="no"?>
<!DOCTYPE svg PUBLIC "-//W3C//DTD SVG 1.1//EN" "http://www.w3.org/Graphics/SVG/1.1/DTD/svg11.dtd" >
<svg xmlns="http://www.w3.org/2000/svg" xmlns:xlink="http://www.w3.org/1999/xlink" version="1.1" viewBox="-10 0 1556 2048">
   <path fill="currentColor"
d="M253 1024q0 55 -37.5 92.5t-92 37.5t-89 -37.5t-34.5 -92.5t34.5 -92.5t89 -37.5t92 37.5t37.5 92.5zM895 1024q0 55 -37.5 92.5t-92.5 37.5t-92.5 -37.5t-37.5 -92.5t37.5 -92.5t92.5 -37.5t92.5 37.5t37.5 92.5zM1536 1024q0 55 -37.5 92.5t-92 37.5t-92 -37.5
t-37.5 -92.5t37.5 -92.5t92 -37.5t92 37.5t37.5 92.5z" />
</svg>
