<?xml version="1.0" standalone="no"?>
<!DOCTYPE svg PUBLIC "-//W3C//DTD SVG 1.1//EN" "http://www.w3.org/Graphics/SVG/1.1/DTD/svg11.dtd" >
<svg xmlns="http://www.w3.org/2000/svg" xmlns:xlink="http://www.w3.org/1999/xlink" version="1.1" viewBox="-10 0 1808 2048">
   <path fill="currentColor"
d="M1037 594q-61 41 -129.5 48t-129.5 -24t-99 -89t-44.5 -126t27.5 -129.5t89 -102.5q89 -55 191 -34.5t163.5 106t41 191t-109.5 160.5zM962 280q-27 -20 -61 -23.5t-65 10t-51.5 44t-24 65t14 65t51.5 51.5q41 27 92 13.5t78.5 -54.5t17 -92.5t-51.5 -78.5zM1297 280
q61 -34 129.5 -27.5t116.5 54.5q34 34 47.5 78.5t3 92.5t-41 85.5t-78.5 58t-106 10t-99 -51.5q-61 -68 -54 -156.5t82 -143.5zM1358 485q20 20 47.5 20t44.5 -17t17 -44.5t-17 -48t-44 -20.5t-44 20.5t-17.5 48t13.5 41.5zM280 1597h232v130h-232q-61 0 -109 -44.5
t-48 -112.5v-232q-48 0 -85.5 -41t-37.5 -96v-279q0 -89 64.5 -157.5t160.5 -68.5h232q-48 55 -68 130h-164q-41 0 -71.5 30.5t-30.5 65.5v286h129v362q0 14 7 20.5t21 6.5zM1215 765q-68 -68 -164 -69h-314q-96 0 -160.5 68.5t-64.5 163.5v403q0 55 37.5 96t91.5 41v300
q-7 61 41 109q34 34 82 41h260q55 -14 92 -54.5t37 -95.5v-300q48 0 85.5 -41t37.5 -96v-409q0 -89 -61 -157zM1153 1338h-129v430q0 7 -7 14t-21 7h-204q-14 0 -21 -7t-7 -14v-430h-123v-416q-7 -34 24 -65t72 -31h314q34 0 58 17t34 41t10 38v416zM1508 1727h-232v-130
h232q7 0 17.5 -6.5t10.5 -20.5v-362h129v-286q0 -34 -30.5 -65t-71.5 -31h-164q-20 -75 -68 -130h232q96 0 160.5 68.5t64.5 157.5v279q0 55 -37.5 96t-85.5 41v232q0 68 -48 112.5t-109 44.5zM382 246q-61 0 -109 34t-68.5 88.5t-10 112.5t51 99t98.5 51.5t113 -10
t85.5 -72t30.5 -105.5q0 -82 -54.5 -140t-136.5 -58zM382 505q-27 0 -44 -17t-17 -44.5t17 -48t44 -20.5t44 20.5t17 48t-17 44.5t-44 17z" />
</svg>
