<?xml version="1.0" standalone="no"?>
<!DOCTYPE svg PUBLIC "-//W3C//DTD SVG 1.1//EN" "http://www.w3.org/Graphics/SVG/1.1/DTD/svg11.dtd" >
<svg xmlns="http://www.w3.org/2000/svg" xmlns:xlink="http://www.w3.org/1999/xlink" version="1.1" viewBox="-10 0 1808 2048">
   <path fill="currentColor"
d="M1597 1576q123 -157 167.5 -351.5t3.5 -389t-164 -351.5q-130 -177 -334.5 -273t-426.5 -82.5t-413 126.5t-301 304v-307h-129v450l61 62h451v-123h-280q130 -232 375.5 -331t498 -27.5t409.5 283t150.5 474.5t-174 467.5t-423.5 266t-495 -51t-362 -344.5l-109 61
q102 198 293.5 328t416.5 150.5t436.5 -72t348.5 -269.5zM1167 1453l96 -89l-369 -368v-485h-130v512l21 48z" />
</svg>
