<?xml version="1.0" standalone="no"?>
<!DOCTYPE svg PUBLIC "-//W3C//DTD SVG 1.1//EN" "http://www.w3.org/Graphics/SVG/1.1/DTD/svg11.dtd" >
<svg xmlns="http://www.w3.org/2000/svg" xmlns:xlink="http://www.w3.org/1999/xlink" version="1.1" viewBox="-10 0 1556 2048">
   <path fill="currentColor"
d="M512 382v-129h-13q-61 0 -119.5 23.5t-99.5 68t-61 99.5t-27 109q-7 55 0 109v109q0 41 -14 76q-27 68 -96 102q-34 14 -75 14h-7v122h7q41 0 75 14v7q34 14 55 34v7q27 20 41 54t14 76v109q-7 55 0 109v7q7 48 27 102q20 55 64.5 99.5t99 65t116.5 26.5h13v-129h-13
q-41 0 -75 -14t-58 -41t-38 -61t-14 -75v-171q0 -41 -6.5 -82t-20.5 -75q-34 -75 -95 -123q61 -48 95 -123q14 -34 20.5 -75t6.5 -82v-171q0 -61 31 -105.5t79 -71.5q34 -14 75 -14h13zM1024 1666v123h7q61 0 116 -20.5t99.5 -65t64.5 -99.5q20 -48 27 -109q7 -55 0 -109
v-109q0 -41 14 -76q27 -68 96 -102q34 -14 75 -14h13v-122h-13q-41 0 -75 -14v-7q-34 -14 -55 -34v-7q-27 -20 -41 -54t-14 -76v-109q7 -55 0 -109v-7q-7 -48 -27 -102q-20 -55 -61 -99.5t-99 -68t-120 -17.5h-7v123h7q41 0 75 14t58 41t38 61t14 75v171q0 41 6.5 82
t20.5 75q34 75 95 123q-61 48 -95 123q-14 34 -20.5 75t-6.5 82v171q0 82 -55 136q-20 27 -54.5 41t-75.5 14h-7z" />
</svg>
