<?xml version="1.0" standalone="no"?>
<!DOCTYPE svg PUBLIC "-//W3C//DTD SVG 1.1//EN" "http://www.w3.org/Graphics/SVG/1.1/DTD/svg11.dtd" >
<svg xmlns="http://www.w3.org/2000/svg" xmlns:xlink="http://www.w3.org/1999/xlink" version="1.1" viewBox="-10 0 1808 2048">
   <path fill="currentColor"
d="M792 1482q68 41 136 38t129.5 -30.5t102.5 -82.5q89 -116 82 -266q7 -137 -75 -239q-41 -48 -95.5 -71.5t-116.5 -23.5q-109 0 -191 75v-355h-129v976h129v-41zM874 943q34 -20 75 -13q75 -7 116 54q48 68 47 157q7 102 -54 191q-20 27 -51 48t-72 14q-75 7 -126.5 -51.5
t-44.5 -133.5v-75q-7 -82 48 -150q28 -27 62 -41zM293 807q-61 7 -119 24t-106 51l-14 7v157l55 -48q75 -68 177 -75q48 0 79 41t31 95l-157 28q-96 7 -167.5 68t-71.5 150t64.5 150.5t160.5 61.5q75 0 137 -41l40 -34v61h117v-430q7 -109 -58.5 -187.5t-167.5 -78.5z
M402 1196q0 89 -51 147t-126 58q-41 0 -71.5 -27.5t-30.5 -68.5t27 -68q55 -34 123 -41l129 -21v21zM1467 1496q55 27 123 21q96 7 178 -48l20 -7v-150l-61 41q-61 48 -140 48t-133.5 -68.5t-54.5 -164t61.5 -170.5t150.5 -68q68 0 123 34l54 34v-150l-20 -7
q-68 -34 -143.5 -34t-140 27t-112.5 75q-102 116 -102.5 259.5t95.5 252.5q41 48 102 75z" />
</svg>
