<?xml version="1.0" standalone="no"?>
<!DOCTYPE svg PUBLIC "-//W3C//DTD SVG 1.1//EN" "http://www.w3.org/Graphics/SVG/1.1/DTD/svg11.dtd" >
<svg xmlns="http://www.w3.org/2000/svg" xmlns:xlink="http://www.w3.org/1999/xlink" version="1.1" viewBox="-10 0 1809 2048">
   <path fill="currentColor"
d="M1788 703q7 150 -61 276.5t-184.5 208.5t-266.5 95q0 -68 -20 -129q171 -20 287 -146.5t122 -304.5q-7 -116 -61.5 -218.5t-153.5 -164t-218.5 -64.5t-221.5 48t-167 146.5t-79 211.5q-61 -20 -129 -20q20 -143 102 -259.5t208 -184.5t270 -68q116 0 222 41t187.5 122.5
t122.5 187.5t41 222zM573 765q-157 0 -290 78.5t-208 211.5t-75 290t75 290t208 208t290 75t290 -75t211.5 -208t78.5 -290t-78.5 -290t-211.5 -208.5t-290 -75.5v-6z" />
</svg>
