<?xml version="1.0" standalone="no"?>
<!DOCTYPE svg PUBLIC "-//W3C//DTD SVG 1.1//EN" "http://www.w3.org/Graphics/SVG/1.1/DTD/svg11.dtd" >
<svg xmlns="http://www.w3.org/2000/svg" xmlns:xlink="http://www.w3.org/1999/xlink" version="1.1" viewBox="-11 0 1044 2048">
   <path fill="currentColor"
d="M223 601q116 -82 252.5 -89t259.5 51t201.5 174t85.5 252.5t-54.5 259.5t-174 201.5t-249 85.5t-259.5 -54.5t-198 -174t-85.5 -249t51 -259.5t170.5 -198zM312 1318q82 55 177.5 61.5t181 -34.5t136.5 -119.5t58 -174t-37.5 -181t-119.5 -140.5q-123 -75 -263 -47.5
t-222 147t-54.5 263t143.5 225.5zM701 833h-382v130h382v-130zM701 1085h-382v130h382v-130z" />
</svg>
