<?xml version="1.0" standalone="no"?>
<!DOCTYPE svg PUBLIC "-//W3C//DTD SVG 1.1//EN" "http://www.w3.org/Graphics/SVG/1.1/DTD/svg11.dtd" >
<svg xmlns="http://www.w3.org/2000/svg" xmlns:xlink="http://www.w3.org/1999/xlink" version="1.1" viewBox="-10 0 1562 2048">
   <path fill="currentColor"
d="M348 259q191 -130 423 -129q212 0 386 102.5t276.5 279.5t108.5 382q-7 246 -146.5 444t-365.5 280v-7q61 -61 62 -136v-21q116 -61 194.5 -170.5t109 -239t7 -262.5t-92.5 -243q-116 -171 -300 -242.5t-379 -30.5t-331.5 188t-167 345t58 379t259.5 276v21q0 82 62 136
v7q-205 -75 -341.5 -242.5t-164 -386t65 -416.5t276.5 -314zM942 1516q-14 20 -41 20v321q0 27 -17 44t-45 17h-136h-7q-27 -7 -41 -20.5t-14 -40.5v-321q-27 0 -44 -17t-17 -44v-260q0 -55 37.5 -92.5t92.5 -37.5h122q55 0 92.5 38t37.5 92v260q0 27 -20 41zM1112 894
q0 102 -61 191q41 61 41 130v14q61 -61 98.5 -146.5t41 -181t-34 -181t-98.5 -147.5q-89 -96 -212 -129.5t-242.5 0.5t-208 122.5t-119.5 211.5t6.5 242.5t126.5 208.5v-14q0 -75 41 -136q-61 -89 -58 -195t71.5 -194.5t171 -119.5t205 6.5t167 123t58.5 194.5h6zM901 894
q0 55 -37.5 92.5t-92.5 37.5t-92.5 -37.5t-37.5 -92t37.5 -92t92.5 -37.5t92.5 37t37.5 92z" />
</svg>
