<?xml version="1.0" standalone="no"?>
<!DOCTYPE svg PUBLIC "-//W3C//DTD SVG 1.1//EN" "http://www.w3.org/Graphics/SVG/1.1/DTD/svg11.dtd" >
<svg xmlns="http://www.w3.org/2000/svg" xmlns:xlink="http://www.w3.org/1999/xlink" version="1.1" viewBox="-10 0 1801 2048">
   <path fill="currentColor"
d="M1263 594v-76q0 -150 -109.5 -259t-263 -109t-262.5 109.5t-109 258.5v76h-110l-211 -212l-75 76l204 204l-6 8q-61 176 -62 360v82h-259v110h273h7q27 184 116 328l6 6l-252 254l75 74l239 -238l14 6q82 96 187.5 150t221.5 54t222 -51t188 -147l7 -6l245 246l75 -76
l-252 -258v-8q96 -150 130 -334h279v-110h-266v-82q7 -184 -61 -360l-7 -8l205 -204l-75 -76l-212 212h-102zM621 594v-76q0 -109 78.5 -187t187.5 -78.5t187.5 78t78.5 187.5v76h-532zM1351 704v6q61 150 62 320q0 158 -44.5 291t-119.5 229t-167 147t-191 51t-195 -51
t-171 -147t-116 -229t-41 -291q0 -170 55 -320v-6h928z" />
</svg>
