<?xml version="1.0" standalone="no"?>
<!DOCTYPE svg PUBLIC "-//W3C//DTD SVG 1.1//EN" "http://www.w3.org/Graphics/SVG/1.1/DTD/svg11.dtd" >
<svg xmlns="http://www.w3.org/2000/svg" xmlns:xlink="http://www.w3.org/1999/xlink" version="1.1" viewBox="-10 0 1808 2048">
   <path fill="currentColor"
d="M1727 253h-191v-123h-130v123h-1024v-123h-130v123h-191l-61 68v1536l61 61h1666l61 -61v-1536zM1665 1789h-1536v-1147h1536v1147zM1665 512h-1536v-130h1536v130zM382 1024h-130v130h130v-130zM252 1277h130v129h-130v-129zM382 1536h-130v130h130v-130zM641 1024h123
v130h-123v-130zM764 1277h-123v129h123v-129zM641 1536h123v130h-123v-130zM764 765h-123v129h123v-129zM1024 1024h129v130h-129v-130zM1153 1277h-129v129h129v-129zM1024 1536h129v130h-129v-130zM1153 765h-129v129h129v-129zM1406 1024h130v130h-130v-130zM1536 1277
h-130v129h130v-129zM1406 765h130v129h-130v-129z" />
</svg>
