<?xml version="1.0" standalone="no"?>
<!DOCTYPE svg PUBLIC "-//W3C//DTD SVG 1.1//EN" "http://www.w3.org/Graphics/SVG/1.1/DTD/svg11.dtd" >
<svg xmlns="http://www.w3.org/2000/svg" xmlns:xlink="http://www.w3.org/1999/xlink" version="1.1" viewBox="-10 0 1679 2048">
   <path fill="currentColor"
d="M219 607h-89l-130 -136l89 -89l89 89l177 -184l96 95zM635 416h1024v130h-1024v-130zM635 799h1024v129h-1024v-129zM1659 1188h-1024v123h1024v-123zM635 1570h1024v130h-1024v-130zM130 990h89l232 -226l-96 -88l-177 177l-89 -89l-89 96zM219 1379h-89l-130 -137
l89 -88l89 88l177 -184l96 89zM130 1761h89l232 -225l-96 -89l-177 178l-89 -89l-89 89z" />
</svg>
