<?xml version="1.0" standalone="no"?>
<!DOCTYPE svg PUBLIC "-//W3C//DTD SVG 1.1//EN" "http://www.w3.org/Graphics/SVG/1.1/DTD/svg11.dtd" >
<svg xmlns="http://www.w3.org/2000/svg" xmlns:xlink="http://www.w3.org/1999/xlink" version="1.1" viewBox="-10 0 1808 2048">
   <path fill="currentColor"
d="M1727 130h-1666l-61 61v1666l61 61h1666l61 -61v-1666zM1665 1789h-1153v-253h293q27 55 88.5 92.5t130.5 37.5q102 0 177 -75t75 -181t-75 -181t-181 -75t-181 75t-75 177h-382v383h-253v-1536h253v300q-55 27 -92.5 88.5t-37.5 123.5q0 109 75 184t181 75t181 -75
t75 -184h260q0 109 75 184t181 75t181 -75t75 -181t-75 -181t-185 -75q-68 0 -126 34t-92 96h-328q-34 -61 -92 -95.5t-126 -34.5v-259h1153v1536zM894 1406q0 -55 34 -92t92 -37t95.5 37.5t37.5 95.5t-37.5 92t-95.5 34t-92 -34.5t-34 -95.5zM512 642q55 0 92 34t37 92
t-37.5 92t-95.5 34t-92 -34t-34 -92t34.5 -92t95.5 -34zM1276 642q61 0 95.5 34t34.5 92t-34 92t-92 34t-92.5 -34t-34.5 -92t34 -92t89 -34z" />
</svg>
