<?xml version="1.0" standalone="no"?>
<!DOCTYPE svg PUBLIC "-//W3C//DTD SVG 1.1//EN" "http://www.w3.org/Graphics/SVG/1.1/DTD/svg11.dtd" >
<svg xmlns="http://www.w3.org/2000/svg" xmlns:xlink="http://www.w3.org/1999/xlink" version="1.1" viewBox="-11 0 1808 2048">
   <path fill="currentColor"
d="M1398 702h7q157 7 269.5 116t112.5 269.5t-112.5 273t-269.5 112.5v-130q102 0 174 -75t72 -177.5t-72 -177.5t-174 -82h-116l-14 -109q-14 -102 -92 -177.5t-184 -92.5t-198 38t-133 150l-41 96l-109 -21q-34 -7 -69 -13q-137 0 -225 95q-68 68 -88.5 164t17 184.5
t119.5 143t177 54.5h62v130h-62q-96 0 -184.5 -37.5t-149.5 -112.5q-82 -89 -106 -208.5t13.5 -235.5t129.5 -194.5t209 -98.5q96 -20 191 6q61 -137 191 -211.5t276.5 -54t252.5 126.5t126 249zM729 1364l164 164v-697h130v690l164 -157l88 89l-273 273h-89l-273 -273z" />
</svg>
