<?xml version="1.0" standalone="no"?>
<!DOCTYPE svg PUBLIC "-//W3C//DTD SVG 1.1//EN" "http://www.w3.org/Graphics/SVG/1.1/DTD/svg11.dtd" >
<svg xmlns="http://www.w3.org/2000/svg" xmlns:xlink="http://www.w3.org/1999/xlink" version="1.1" viewBox="-11 0 1811 2048">
   <path fill="currentColor"
d="M1401 702h7q157 7 269.5 116t112.5 269.5t-112.5 273t-269.5 112.5h-253v-130h253q102 0 174 -75t72 -177.5t-72 -177.5t-174 -82h-116l-14 -109q-14 -102 -92 -177.5t-184 -92.5t-198 38t-133 150l-41 96l-109 -21q-34 -7 -69 -13q-137 7 -225 95q-68 68 -88.5 164
t17 184.5t119.5 143t177 54.5h321v130h-321q-96 0 -184.5 -37.5t-149.5 -112.5q-102 -109 -116 -256t61 -270q48 -82 126.5 -140t174 -75t191.5 10q61 -137 191 -211.5t276.5 -54t252.5 126t126 255.5v-6zM1190 1200l-171 -171v697h-123v-690l-164 164l-89 -96l273 -273h89
l273 273z" />
</svg>
