<?xml version="1.0" standalone="no"?>
<!DOCTYPE svg PUBLIC "-//W3C//DTD SVG 1.1//EN" "http://www.w3.org/Graphics/SVG/1.1/DTD/svg11.dtd" >
<svg xmlns="http://www.w3.org/2000/svg" xmlns:xlink="http://www.w3.org/1999/xlink" version="1.1" viewBox="-10 0 1808 2048">
   <path fill="currentColor"
d="M382 1457l130 -129v184l-150 143l-110 -48v-320h-191l-61 -62v-1024l61 -61h1536l68 61v574h-129v-512h-1407v901h192l61 61v232zM1188 1676l238 232l110 -41v-191h191l61 -69v-634l-61 -69h-1024l-62 69v634l62 69h485zM1215 1546h-451v-512h901v512h-198l-61 61v103
l-150 -144z" />
</svg>
