<?xml version="1.0" standalone="no"?>
<!DOCTYPE svg PUBLIC "-//W3C//DTD SVG 1.1//EN" "http://www.w3.org/Graphics/SVG/1.1/DTD/svg11.dtd" >
<svg xmlns="http://www.w3.org/2000/svg" xmlns:xlink="http://www.w3.org/1999/xlink" version="1.1" viewBox="-11 0 1684 2048">
   <path fill="currentColor"
d="M370 331q184 -123 406 -136.5t423.5 85.5t324.5 283.5t136.5 406t-85.5 423t-283 324.5t-406 136.5t-420 -82t-324.5 -283t-140 -409.5t82 -420t286.5 -328zM439 1608q177 123 396 123q191 0 351.5 -95.5t256 -256t95.5 -351.5q0 -171 -75 -314.5t-201.5 -246
t-290.5 -133t-321 10.5t-280 150t-187.5 263t-54.5 314t92 303.5t219 232.5zM1190 577l88 89l-273 280q27 61 10 129.5t-75 109.5t-126 34t-119.5 -55t-58 -119.5t34.5 -129.5t109 -75t136 10zM794 1075q34 20 68 7t34 -51t-24 -55t-51 -13.5t-41 27.5t-10 47.5t24 37.5z
M1347 768l-103 96q34 75 34 164q0 123 -61 225l95 95q82 -130 92.5 -286.5t-57.5 -293.5zM992 611q-75 -34 -157 -34q-123 0 -225.5 61.5t-164 164t-61.5 225t61 225.5l-88 95q-109 -164 -99 -358.5t139.5 -341t321 -187.5t368.5 48z" />
</svg>
