<?xml version="1.0" standalone="no"?>
<!DOCTYPE svg PUBLIC "-//W3C//DTD SVG 1.1//EN" "http://www.w3.org/Graphics/SVG/1.1/DTD/svg11.dtd" >
<svg xmlns="http://www.w3.org/2000/svg" xmlns:xlink="http://www.w3.org/1999/xlink" version="1.1" viewBox="-10 0 1747 2048">
   <path fill="currentColor"
d="M1611 526q-20 -61 -55 -110l171 -177l-75 -75l-178 170q-48 -41 -109 -54q-137 -48 -273 7q-75 27 -130 88l-198 198l553 553l198 -198q61 -55 89 -129q55 -136 7 -273zM1502 758q-20 48 -62 88l-123 123l-396 -396l123 -123q41 -41 89 -61q109 -41 218 0
q48 27 85.5 64.5t65.5 85.5q41 110 0 219zM880 1399l191 -198l-81 -82l-185 198l-239 -239l191 -197l-81 -82l-192 198l-75 -76l-198 198q-61 55 -88.5 126.5t-27.5 143.5t17 130t58 112l-170 171l75 82l177 -171q48 34 109.5 54.5t133 20.5t143.5 -30.5t126 -85.5l198 -198
zM594 1652q-55 27 -109.5 27t-106 -24t-92.5 -61.5t-61 -88.5t-20 -106q0 -116 81 -198l123 -123l396 396l-123 123q-40 35 -88 55z" />
</svg>
