<?xml version="1.0" standalone="no"?>
<!DOCTYPE svg PUBLIC "-//W3C//DTD SVG 1.1//EN" "http://www.w3.org/Graphics/SVG/1.1/DTD/svg11.dtd" >
<svg xmlns="http://www.w3.org/2000/svg" xmlns:xlink="http://www.w3.org/1999/xlink" version="1.1" viewBox="-10 0 2054 2048">
   <path fill="currentColor"
d="M294 1126v-6v6zM915 1182l-260 -260l89 -82l273 272l266 -272l89 88l-259 260l259 260l-89 88l-273 -280l-266 274l-89 -90zM1447 458v82h109l246 -246l89 88l-232 232v8q82 205 82 416l-7 96h300v122h-314q-41 212 -143 382l-7 8l294 292l-89 82l-280 -280l-7 14
q-96 102 -218.5 164t-252.5 62t-252.5 -61.5t-218.5 -170.5l-7 -14l-280 274l-82 -82l287 -288l-7 -6q-102 -172 -136 -376h-7h-314v-122h300v-96q0 -218 75 -410v-6l-238 -240l88 -88l246 246h123v-82q0 -116 54.5 -215t153.5 -157.5t215 -58t215 58.5t157 157t58 215z
M717 458v82h607v-82q0 -131 -88.5 -219.5t-215 -88.5t-215 89t-88.5 219zM1550 670v-8h-1058l-7 8q-61 176 -62 368q0 170 48 323.5t133 266t191 171.5t222 59t222 -59t191.5 -171t136.5 -265.5t51 -324.5q0 -197 -68 -368z" />
</svg>
