<?xml version="1.0" standalone="no"?>
<!DOCTYPE svg PUBLIC "-//W3C//DTD SVG 1.1//EN" "http://www.w3.org/Graphics/SVG/1.1/DTD/svg11.dtd" >
<svg xmlns="http://www.w3.org/2000/svg" xmlns:xlink="http://www.w3.org/1999/xlink" version="1.1" viewBox="-10 0 1817 2048">
   <path fill="currentColor"
d="M1071 130h-354l-69 307l-259 -178l-260 260l178 259l-307 69v354l307 69l-178 259l260 260l259 -178l69 307h266q-68 -55 -123 -129h-41l-62 -301l-95 -41l-260 171l-102 -102l171 -260l-41 -95l-301 -62v-150l301 -62l41 -95l-171 -260l102 -102l260 171l95 -41l62 -301
h150l62 301l95 41l260 -171l102 102l-171 260l41 95l301 62v41q75 55 129 123v-266l-307 -69l178 -259l-260 -260l-259 178zM894 765q82 0 147 47.5t92 122.5q-61 20 -116 62q-7 -48 -44.5 -75.5t-85.5 -24t-82 37.5t-37.5 82t24 85.5t75.5 44.5q-41 55 -62 116
q-89 -34 -133 -112.5t-30.5 -171t85 -153.5t167.5 -55v-6zM1058 1126q96 -82 215 -102t232 20.5t191.5 136.5t95.5 215.5t-27.5 232t-140 187.5t-211.5 92t-225.5 -24t-184.5 -133t-95.5 -208t20.5 -229t130 -188zM1024 1406v130h641v-130h-641z" />
</svg>
