<?xml version="1.0" standalone="no"?>
<!DOCTYPE svg PUBLIC "-//W3C//DTD SVG 1.1//EN" "http://www.w3.org/Graphics/SVG/1.1/DTD/svg11.dtd" >
<svg xmlns="http://www.w3.org/2000/svg" xmlns:xlink="http://www.w3.org/1999/xlink" version="1.1" viewBox="-10 0 1808 2048">
   <path fill="currentColor"
d="M894 256q-287 0 -498 157l102 88q171 -116 396 -116q205 0 382.5 106t283 280t105.5 386h123q0 -246 -119.5 -451t-324 -327.5t-450.5 -122.5zM0 385l205 191q-102 116 -153.5 266.5t-51.5 314.5h129q0 -287 178 -492l280 260q-75 96 -75 232q0 164 109 273t269.5 109
t262.5 -102l383 355l88 -89l-1536 -1406zM676 1013l375 349q-82 48 -157 47q-102 0 -177.5 -75t-75.5 -177q1 -83 35 -144zM1276 1218l-123 -116q-20 -75 -85 -133t-147 -72l-129 -116q41 -14 102 -13q164 0 273 112.5t109 276.5v61z" />
</svg>
