<?xml version="1.0" standalone="no"?>
<!DOCTYPE svg PUBLIC "-//W3C//DTD SVG 1.1//EN" "http://www.w3.org/Graphics/SVG/1.1/DTD/svg11.dtd" >
<svg xmlns="http://www.w3.org/2000/svg" xmlns:xlink="http://www.w3.org/1999/xlink" version="1.1" viewBox="-10 0 1808 2048">
   <path fill="currentColor"
d="M860 385h867l61 69v1276l-61 62h-1666l-61 -62v-1406l61 -68h642l48 20zM1659 1669v-198l6 -703h-812l-109 109l-41 20h-574v772h1530zM826 645h833l6 -130h-832l-48 -20l-109 -110h-547v389h547l109 -109zM1119 1164l-170 -178l95 -89l280 287v89l-293 286l-89 -95
l184 -171h-177q-102 7 -174 78.5t-65 167.5h-130q0 -150 102.5 -259.5t259.5 -115.5h177z" />
</svg>
