<?xml version="1.0" standalone="no"?>
<!DOCTYPE svg PUBLIC "-//W3C//DTD SVG 1.1//EN" "http://www.w3.org/Graphics/SVG/1.1/DTD/svg11.dtd" >
<svg xmlns="http://www.w3.org/2000/svg" xmlns:xlink="http://www.w3.org/1999/xlink" version="1.1" viewBox="-10 0 1685 2048">
   <path fill="currentColor"
d="M1222 143l423 424l20 47v1243l-68 61h-444v-129h383v-1024h-451l-61 -62v-450h-772v512h-123v-574l62 -61h990zM1153 642h383l-383 -389v389zM955 894h-894l-61 69v894l61 61h894l69 -61v-894zM894 1789h-765v-765h765v765zM764 1215v382h-123v-225l-341 335l-89 -89
l335 -341h-225v-123h382z" />
</svg>
