<?xml version="1.0" standalone="no"?>
<!DOCTYPE svg PUBLIC "-//W3C//DTD SVG 1.1//EN" "http://www.w3.org/Graphics/SVG/1.1/DTD/svg11.dtd" >
<svg xmlns="http://www.w3.org/2000/svg" xmlns:xlink="http://www.w3.org/1999/xlink" version="1.1" viewBox="-10 0 1309 2048">
   <path fill="currentColor"
d="M786 1918l-68 -95q61 -75 51 -171t-85 -157q-123 -102 -150 -253q-96 130 -109 246q-20 96 20 185q20 55 89 150l-75 95q-137 -27 -242.5 -109t-164 -208t-51.5 -263v-48q7 -61 28 -123q27 -89 88 -177q68 -102 178 -198l54 -55q61 -68 110 -143q68 -102 88 -184
q27 -116 -13 -198l89 -82q212 150 303.5 392.5t30.5 494.5q41 -48 68 -102l116 -14v7q68 109 110 239q75 253 0 437q-61 137 -188 225.5t-277 108.5zM534 1031l109 48q-7 89 24 174t92 146q89 61 123 157t7 198q82 -27 143.5 -85t95.5 -133q34 -116 20.5 -235.5
t-68.5 -228.5q-41 61 -106 92t-133 17l-41 -89q82 -184 51 -385.5t-167 -351.5q-14 150 -130 328q-61 89 -164 191l-13 13q-157 137 -219 294q-27 82 -27 150q-7 123 47.5 229t157.5 174q-68 -157 -34 -300q41 -191 232 -403z" />
</svg>
