<?xml version="1.0" standalone="no"?>
<!DOCTYPE svg PUBLIC "-//W3C//DTD SVG 1.1//EN" "http://www.w3.org/Graphics/SVG/1.1/DTD/svg11.dtd" >
<svg xmlns="http://www.w3.org/2000/svg" xmlns:xlink="http://www.w3.org/1999/xlink" version="1.1" viewBox="-10 0 1808 2048">
   <path fill="currentColor"
d="M1037 560l-68 -307h-150l-68 307l-89 41l-253 -164l-116 102l164 253l-20 89l-308 68v150l308 68l34 103l-164 252l102 103l253 -164l102 34l55 294h150l68 -308l103 -34l252 164l103 -102l-164 -253l34 -102l300 -55v-150l-307 -68l-41 -103l164 -252l-102 -103
l-253 164zM1071 130l69 307l266 -171l259 260l-184 266l307 55v354l-307 69l184 266l-259 253l-266 -178l-69 307h-354l-69 -307l-266 171l-253 -260l178 -266l-307 -55v-354l307 -69l-171 -266l260 -259l266 184l55 -307h354zM1153 1024q0 102 -78.5 177.5t-180.5 75.5
t-177.5 -75.5t-75.5 -177.5t75.5 -180.5t177.5 -78.5t180.5 78.5t78.5 180.5zM894 1154q55 0 92.5 -37.5t37.5 -92.5t-37.5 -92.5t-92.5 -37.5t-92.5 37.5t-37.5 92.5t37.5 92.5t92.5 37.5z" />
</svg>
