<?xml version="1.0" standalone="no"?>
<!DOCTYPE svg PUBLIC "-//W3C//DTD SVG 1.1//EN" "http://www.w3.org/Graphics/SVG/1.1/DTD/svg11.dtd" >
<svg xmlns="http://www.w3.org/2000/svg" xmlns:xlink="http://www.w3.org/1999/xlink" version="1.1" viewBox="-10 0 1685 2048">
   <path fill="currentColor"
d="M1597 576h-205q14 -55 14 -156q-27 -76 -48 -110q-41 -61 -95 -82l-34 -14q-55 -19 -86 -19.5t-58 3t-48 16.5q-116 35 -204 172q-89 -137 -205 -172q-82 -19 -116 -20q-61 0 -116 34q-48 20 -89 82q-20 20 -48 96l-7 20q0 96 14 150h-205l-61 62v1154l61 62h1536l68 -62
v-1154zM764 1730h-635v-1024h635v1024zM764 576h-382v-26q-14 -35 -14 -104l7 -20q14 -34 34 -40q14 -28 62 -56q14 -13 65 -13t78 13q61 28 103 82q27 35 34 56q14 34 13 68v40zM894 536q0 -34 14 -68q14 -20 41 -56q34 -55 102 -82q20 -13 71.5 -13t79 13.5t61.5 55.5
q7 7 13 26l14 34q0 68 -14 104v12l-13 14h-369v-40zM1536 1730h-642v-1024h642v1024z" />
</svg>
