<?xml version="1.0" standalone="no"?>
<!DOCTYPE svg PUBLIC "-//W3C//DTD SVG 1.1//EN" "http://www.w3.org/Graphics/SVG/1.1/DTD/svg11.dtd" >
<svg xmlns="http://www.w3.org/2000/svg" xmlns:xlink="http://www.w3.org/1999/xlink" version="1.1" viewBox="-11 0 1817 2048">
   <path fill="currentColor"
d="M821 1601l-164 -164l82 -89l273 273v89l-273 273l-89 -96l164 -163h-239q-130 7 -225.5 -89t-95.5 -225v-710q-96 -20 -164 -88.5t-85 -164.5t20.5 -184.5t116 -143t181.5 -54.5q61 0 122 20q123 55 178 178q20 61 20 123q0 116 -71.5 204.5t-180.5 109.5v703
q0 82 54.5 140t136.5 58h239zM220 543q55 34 123 27t116 -55t55 -116t-27.5 -119t-89 -75t-109 -14t-99 54.5t-54.5 99t13.5 109.5t71.5 89zM1538 1348q96 20 164 89q82 82 92 194.5t-51 208.5q-55 82 -144 119.5t-184.5 17t-163.5 -89t-88.5 -164t17 -184t119.5 -143.5
q55 -34 116 -48v-710q0 -82 -58 -136.5t-133 -54.5h-239l164 164l-96 89l-273 -273v-89l273 -273l96 88l-164 164h239q130 0 225.5 92.5t88.5 228.5v710zM1497 1853q48 -7 88.5 -34t64.5 -75t20.5 -95.5t-34 -95.5t-85 -68.5t-112.5 -10t-99 51.5t-51.5 99t13.5 112.5
t79 88.5t116 27z" />
</svg>
