<?xml version="1.0" standalone="no"?>
<!DOCTYPE svg PUBLIC "-//W3C//DTD SVG 1.1//EN" "http://www.w3.org/Graphics/SVG/1.1/DTD/svg11.dtd" >
<svg xmlns="http://www.w3.org/2000/svg" xmlns:xlink="http://www.w3.org/1999/xlink" version="1.1" viewBox="-11 0 1559 2048">
   <path fill="currentColor"
d="M1442 1055q-82 -82 -194.5 -92.5t-208.5 51.5q-82 55 -123 143q-7 27 -13 55q-205 -20 -348.5 -163.5t-163.5 -348.5q27 0 54 -14q89 -41 143.5 -119.5t54.5 -173.5q0 -68 -27 -130q-48 -123 -171 -171q-61 -27 -130 -27q-96 0 -174 54.5t-115.5 143.5t-20.5 184.5
t85 163.5t164 89v648q-61 14 -116 48q-75 55 -112.5 147t-20.5 184t85 160.5t164 89t188 -17t143 -116t51 -181.5q7 -61 -23.5 -129.5t-92 -119.5t-136.5 -65v-307q102 143 252 219q130 68 267 75q27 123 126 194.5t222 61.5t204.5 -102.5t82 -218.5t-95.5 -215zM391 1485
q55 27 88.5 78.5t27 119.5t-54.5 116t-116 54.5t-119.5 -27.5t-75.5 -88.5t-13.5 -109t55 -99t99 -54.5t109.5 10zM315 577q-55 0 -102.5 -34t-71.5 -85.5t-13.5 -109.5t55 -99t99 -51t112.5 14t92 82t20.5 126t-65 112.5t-126.5 44.5zM1353 1417q-34 34 -82 47.5t-95.5 3.5
t-85 -41t-58 -78.5t-7 -105.5t54.5 -99t99 -51.5t106 10t78.5 58t41 82t-3.5 92.5t-48 82z" />
</svg>
