<?xml version="1.0" standalone="no"?>
<!DOCTYPE svg PUBLIC "-//W3C//DTD SVG 1.1//EN" "http://www.w3.org/Graphics/SVG/1.1/DTD/svg11.dtd" >
<svg xmlns="http://www.w3.org/2000/svg" xmlns:xlink="http://www.w3.org/1999/xlink" version="1.1" viewBox="-10 0 1686 2048">
   <path fill="currentColor"
d="M130 1311h328l89 129h-478l-69 -61v-1154l69 -61h1536l61 61v615l-130 -226v-327h-1406v1024zM840 1440l-184 444h286l717 -737l-88 -219h-212l102 -184l-102 -198h-369l-116 75l-293 642l116 177h143zM990 676h369l-239 382h451l-738 744l212 -491h-348zM628 928h-368
v-129h430zM512 1188h-252v-130h314z" />
</svg>
