<?xml version="1.0" standalone="no"?>
<!DOCTYPE svg PUBLIC "-//W3C//DTD SVG 1.1//EN" "http://www.w3.org/Graphics/SVG/1.1/DTD/svg11.dtd" >
<svg xmlns="http://www.w3.org/2000/svg" xmlns:xlink="http://www.w3.org/1999/xlink" version="1.1" viewBox="-11 0 1764 2048">
   <path fill="currentColor"
d="M1627 451q116 137 116 320q0 307 -157 471q-123 116 -341 151q41 68 41 184v314q0 27 -17 44t-41 17t-41 -17t-17 -44v-314q7 -55 -10 -99t-51 -85l34 -96q150 -20 239 -61q116 -48 177 -151q75 -123 75 -320q0 -150 -109 -267l-14 -68q48 -109 7 -232q-116 27 -246 116
l-47 14q-140 -38 -280 -38t-280 38l-48 -14q-177 -109 -253 -109q-41 130 7 239l-20 61q-55 55 -85.5 126.5t-30.5 139.5q0 198 75 314q55 102 177 157q89 41 239 62l34 102q-75 68 -68 171v321q7 27 -13.5 47.5t-44.5 20.5t-44.5 -20.5t-20.5 -47.5v-178q-116 27 -205 0
q-75 -20 -136 -75q-34 -27 -89 -102l-7 -7q-34 -41 -58 -61.5t-44 -27.5q-14 -7 -24 -27.5t-3.5 -40.5t27 -34t41.5 0q48 7 96 41q20 20 68 75l7 14q68 89 122 116q89 48 233 13v-27q-14 -96 34 -184q-218 -41 -335 -157q-171 -164 -170 -458q0 -191 116 -327
q-34 -177 27 -321l41 -28q27 -14 95 -6q109 20 253 109q280 -68 567 0q137 -89 245 -116q75 -14 103 0l41 34q61 171 13 328z" />
</svg>
