<?xml version="1.0" standalone="no"?>
<!DOCTYPE svg PUBLIC "-//W3C//DTD SVG 1.1//EN" "http://www.w3.org/Graphics/SVG/1.1/DTD/svg11.dtd" >
<svg xmlns="http://www.w3.org/2000/svg" xmlns:xlink="http://www.w3.org/1999/xlink" version="1.1" viewBox="-10 0 1685 2048">
   <path fill="currentColor"
d="M832 194q225 0 416.5 113t304 303.5t112.5 416t-112.5 416.5t-303.5 301t-416.5 110t-416.5 -110t-303.5 -300.5t-112.5 -416t112.5 -416.5t303.5 -304t416 -113zM1460 706q-61 -122 -163.5 -211t-225.5 -131q82 158 123 342h266zM1536 1088q7 -34 6 -60
q-7 -102 -27 -192h-300q7 67 7 122q0 131 -28 260h321q14 -61 21 -130zM1085 1088v-6q7 -62 7 -123t-14 -123h-491q-7 61 -7 122q0 130 27 260h458q13 -68 20 -130zM1058 706q-48 -205 -157 -382h-69h-61q-116 176 -157 382h444zM477 706q34 -184 123 -348
q-130 48 -228.5 137t-160.5 211h266zM157 830q-27 96 -27.5 194.5t27.5 193.5h320q-27 -130 -27 -260q0 -55 7 -122h-300v-6zM512 1342h-301q68 150 198 245.5t287 128.5q-123 -170 -184 -368v-6zM832 1682q123 -150 192 -334h-376q61 184 184 334zM1160 1342
q-61 205 -184 374q157 -34 283 -129.5t201 -244.5h-300z" />
</svg>
