<?xml version="1.0" standalone="no"?>
<!DOCTYPE svg PUBLIC "-//W3C//DTD SVG 1.1//EN" "http://www.w3.org/Graphics/SVG/1.1/DTD/svg11.dtd" >
<svg xmlns="http://www.w3.org/2000/svg" xmlns:xlink="http://www.w3.org/1999/xlink" version="1.1" viewBox="-10 0 1810 2048">
   <path fill="currentColor"
d="M1776 596q-14 -61 -44.5 -119t-78.5 -99q-68 -67 -157 -104.5t-181 -37.5t-177.5 37t-153.5 99l-89 88l-89 -88q-68 -62 -153.5 -99t-177.5 -37t-180.5 37t-157.5 105q-89 89 -123 218q-14 62 -13.5 123.5t14 123t44 116t78.5 95.5l758 758l758 -758q48 -40 75 -96
q61 -109 61 -238q1 -62 -13 -124zM1646 802q-20 88 -89 156l-662 662l-669 -662q-34 -34 -58 -75t-34 -81.5t-10 -88.5t10 -92.5t34 -81.5t58 -71q48 -48 116 -76q130 -55 266 0q61 20 110 76l177 170l171 -170q48 -48 116 -76q130 -55 266 0q61 28 109 76q34 34 55 74
q48 76 48 170q0 48 -7 90h-7z" />
</svg>
