<?xml version="1.0" standalone="no"?>
<!DOCTYPE svg PUBLIC "-//W3C//DTD SVG 1.1//EN" "http://www.w3.org/Graphics/SVG/1.1/DTD/svg11.dtd" >
<svg xmlns="http://www.w3.org/2000/svg" xmlns:xlink="http://www.w3.org/1999/xlink" version="1.1" viewBox="-10 0 2000 2048">
   <path fill="currentColor"
d="M676 783l-417 170l-88 -34l-171 -409l116 -48l102 246q55 -130 147 -236t215 -174t259.5 -95.5t276.5 -7t266.5 89t222 170.5t150 232t61.5 266h-123q-27 -246 -198 -423t-416.5 -208t-457 102t-293.5 365l300 -122zM1809 1124l171 416l-116 55l-103 -253
q-55 130 -147 236t-214.5 174t-262.5 95.5t-280 3.5t-263 -92t-218.5 -170.5t-150 -232.5t-68.5 -273h130v-61q0 123 41 239t122.5 211.5t187.5 157t229 82t242.5 0t228.5 -82t187.5 -157t126.5 -212.5l-293 123l-48 -123l416 -170zM860 1022q0 55 37.5 92t92 37t92.5 -37.5
t38 -88.5t-38 -88.5t-92.5 -37.5t-92 37.5t-37.5 85.5z" />
</svg>
