<?xml version="1.0" standalone="no"?>
<!DOCTYPE svg PUBLIC "-//W3C//DTD SVG 1.1//EN" "http://www.w3.org/Graphics/SVG/1.1/DTD/svg11.dtd" >
<svg xmlns="http://www.w3.org/2000/svg" xmlns:xlink="http://www.w3.org/1999/xlink" version="1.1" viewBox="-11 0 1683 2048">
   <path fill="currentColor"
d="M835 193q-253 0 -464.5 140t-307 372t-48 481t228.5 426.5t426.5 225.5t478 -47.5t375.5 -304t137 -460.5q7 -171 -58 -321t-181 -269.5t-269.5 -181t-317.5 -61.5zM835 1729q-218 0 -396 -119.5t-260 -317.5t-37.5 -406.5t194.5 -358.5t358.5 -194.5t406.5 37.5
t317.5 259.5t119.5 396.5q0 137 -55 266.5t-153.5 228t-228 153.5t-266.5 55zM705 1026q0 48 37.5 85t88.5 37t88.5 -37.5t37.5 -88.5t-37.5 -88.5t-88.5 -37.5t-88.5 37.5t-37.5 92.5z" />
</svg>
