<?xml version="1.0" standalone="no"?>
<!DOCTYPE svg PUBLIC "-//W3C//DTD SVG 1.1//EN" "http://www.w3.org/Graphics/SVG/1.1/DTD/svg11.dtd" >
<svg xmlns="http://www.w3.org/2000/svg" xmlns:xlink="http://www.w3.org/1999/xlink" version="1.1" viewBox="-10 0 1806 2048">
   <path fill="currentColor"
d="M1324 138q157 34 276.5 143t160.5 256t14 297q-41 198 -201.5 327t-365.5 129q-89 0 -164 -26l-102 122l-48 20h-130v192l-61 68h-191v192l-69 60h-382l-61 -60v-294l13 -48l642 -634q-27 -89 -27 -186q0 -122 58 -241t157 -198.5t225 -109t256 -9.5zM1495 1058
q123 -96 157 -252q20 -115 -10.5 -224.5t-112.5 -192t-191 -112.5t-226 -11q-150 35 -252.5 157.5t-102.5 280.5q-7 88 28 170l-14 68l-642 650v204h253v-198l61 -62h198v-190l62 -62h157l116 -130l68 -20q82 26 164 28q157 -2 287 -104zM1386 710q20 -26 23.5 -61
t-13.5 -65t-44.5 -51t-65 -24t-68 13.5t-44.5 45.5q-27 48 -17 99t54.5 78t92.5 16.5t82 -51.5z" />
</svg>
