<?xml version="1.0" standalone="no"?>
<!DOCTYPE svg PUBLIC "-//W3C//DTD SVG 1.1//EN" "http://www.w3.org/Graphics/SVG/1.1/DTD/svg11.dtd" >
<svg xmlns="http://www.w3.org/2000/svg" xmlns:xlink="http://www.w3.org/1999/xlink" version="1.1" viewBox="-10 0 1556 2048">
   <path fill="currentColor"
d="M1154 1154q-157 0 -269.5 112.5t-112.5 269.5t112.5 269.5t269.5 112.5t269.5 -112.5t112.5 -269.5t-112.5 -269.5t-269.5 -112.5zM1325 1789l-171 -123l-164 123l62 -192l-151 -109h185l68 -211l68 211h191l-157 109zM1045 1038q-123 20 -222 102t-147 205h-239v280
q0 14 10.5 27.5t30.5 13.5h178q20 68 54 123h-232q-68 7 -119.5 -44.5t-51.5 -119.5v-205q0 -89 -34 -171t-95 -143q-82 -75 -130 -181t-48 -222q0 -157 82 -287q34 -68 89 -119t119.5 -88.5t136.5 -58t154 -20.5q157 0 290 75t211.5 208t78.5 290q0 123 -48 219
q-27 61 -68 116z" />
</svg>
