<?xml version="1.0" standalone="no"?>
<!DOCTYPE svg PUBLIC "-//W3C//DTD SVG 1.1//EN" "http://www.w3.org/Graphics/SVG/1.1/DTD/svg11.dtd" >
<svg xmlns="http://www.w3.org/2000/svg" xmlns:xlink="http://www.w3.org/1999/xlink" version="1.1" viewBox="-10 0 1808 2048">
   <path fill="currentColor"
d="M437 382h389q123 0 222 58t157 160.5t58 218.5v28q0 116 -58 215t-157 160t-222 61h-62v-129h62q130 0 218.5 -92.5t88.5 -214.5v-28q0 -130 -89 -218.5t-218 -88.5h-389q-130 0 -222 88.5t-92 218.5v28q7 109 78.5 194t180.5 106v130q-164 -20 -273 -143.5t-109 -286.5
v-28q0 -116 58 -218.5t157 -160.5t222 -58zM1406 901v-130q164 20 273 143.5t109 286.5v28q0 116 -58 218.5t-157 160.5t-215 58h-396q-123 0 -222 -58t-157 -160.5t-58 -218.5v-28q0 -116 58 -215t157 -157t222 -58h62v123h-62q-130 0 -218.5 92.5t-88.5 214.5v28
q0 130 89 218.5t218 88.5h396q123 0 212 -88.5t95 -218.5v-28q-7 -109 -78.5 -194.5t-180.5 -105.5z" />
</svg>
