<?xml version="1.0" standalone="no"?>
<!DOCTYPE svg PUBLIC "-//W3C//DTD SVG 1.1//EN" "http://www.w3.org/Graphics/SVG/1.1/DTD/svg11.dtd" >
<svg xmlns="http://www.w3.org/2000/svg" xmlns:xlink="http://www.w3.org/1999/xlink" version="1.1" viewBox="-11 0 1913 2048">
   <path fill="currentColor"
d="M1086 130l123 -61l683 546v116l-683 519l-123 -62v-238h-54q-212 0 -314 20q-150 27 -287 116q-143 102 -301 307l-129 -41q-7 -96 20 -191q27 -171 112.5 -321t222 -259t300.5 -167t341 -52h89v-232zM1236 806v239l485 -369l-478 -382v225h-246q-164 -7 -320.5 51.5
t-272.5 174.5q-143 150 -205 348q137 -130 273 -198q123 -55 273 -75q102 -14 293 -14h198zM588 1311q82 -61 181 -68t187.5 37.5t143 126.5t61.5 181t-37.5 191t-126.5 140q-130 82 -276.5 51t-231.5 -153.5t-54.5 -273t153.5 -232.5zM670 1796q48 34 106 41t112.5 -20.5
t85 -78.5t37.5 -109t-20.5 -112.5t-74.5 -82.5q-82 -55 -171 -34t-140 96t-30.5 163.5t95.5 136.5z" />
</svg>
