<?xml version="1.0" standalone="no"?>
<!DOCTYPE svg PUBLIC "-//W3C//DTD SVG 1.1//EN" "http://www.w3.org/Graphics/SVG/1.1/DTD/svg11.dtd" >
<svg xmlns="http://www.w3.org/2000/svg" xmlns:xlink="http://www.w3.org/1999/xlink" version="1.1" viewBox="-10 0 1049 2048">
   <path fill="currentColor"
d="M878 375q-68 -68 -164 -109t-198 -41q-143 0 -259 72t-184.5 188t-72 259t78.5 266l403 813h68l403 -813q82 -123 75 -273q0 -102 -37.5 -194.5t-112.5 -167.5zM509 355h7h14q150 7 259 119.5t116 269.5q0 109 -61 198l-328 662l-328 -662q-61 -89 -61 -198
q7 -157 116 -269.5t266 -119.5zM584 635q-41 -34 -95.5 -24t-82 54.5t-17 95.5t55 82t95.5 20.5t82 -55t20.5 -95.5t-58.5 -78zM373 526q55 -41 126.5 -48t132.5 23.5t99 88.5t41 130t-27.5 133.5t-91.5 95.5q-82 55 -184.5 34t-160.5 -106t-41 -187.5t106 -163.5z" />
</svg>
