<?xml version="1.0" standalone="no"?>
<!DOCTYPE svg PUBLIC "-//W3C//DTD SVG 1.1//EN" "http://www.w3.org/Graphics/SVG/1.1/DTD/svg11.dtd" >
<svg xmlns="http://www.w3.org/2000/svg" xmlns:xlink="http://www.w3.org/1999/xlink" version="1.1" viewBox="-11 0 1278 2048">
   <path fill="currentColor"
d="M977 1577q-177 102 -389 95q-116 7 -228.5 -34t-198 -126t-126.5 -194.5t-34 -232.5q0 -137 47.5 -270t146.5 -231.5t229 -153.5t266 -55q246 0 396 130q171 143 171 382q0 205 -106 338t-263 133q-143 0 -143 -123q-41 61 -99 92t-126 31q-96 0 -154 -64.5t-58 -180.5
t44.5 -215t123 -160.5t167.5 -61.5q61 -7 112 27t72 89l27 -103h116l-102 410q-20 89 -10 123t51 34q96 0 167.5 -106t71.5 -256q0 -198 -126.5 -307t-338.5 -109q-164 0 -290 82t-197.5 221.5t-71.5 303.5q-7 102 23.5 191t99 157.5t160.5 102.5t188 27q191 7 362 -82z
M438 1099q0 157 116 157q75 0 129.5 -61.5t81.5 -177.5q61 -246 -109 -246q-96 0 -157 102.5t-61 225.5z" />
</svg>
