<?xml version="1.0" standalone="no"?>
<!DOCTYPE svg PUBLIC "-//W3C//DTD SVG 1.1//EN" "http://www.w3.org/Graphics/SVG/1.1/DTD/svg11.dtd" >
<svg xmlns="http://www.w3.org/2000/svg" xmlns:xlink="http://www.w3.org/1999/xlink" version="1.1" viewBox="-10 0 1808 2048">
   <path fill="currentColor"
d="M1788 724l-874 -342h-40l-874 342v812h129v-642l294 116q-102 143 -102 321v55l34 48l512 232h54l499 -232l41 -55v-55q0 -171 -103 -314l430 -170v-116zM1338 1324v7l-444 205l-451 -205v-7q7 -150 96 -273l335 130h47l328 -130q89 123 89 273zM894 1058l-703 -273
l703 -273l703 273z" />
</svg>
