<?xml version="1.0" standalone="no"?>
<!DOCTYPE svg PUBLIC "-//W3C//DTD SVG 1.1//EN" "http://www.w3.org/Graphics/SVG/1.1/DTD/svg11.dtd" >
<svg xmlns="http://www.w3.org/2000/svg" xmlns:xlink="http://www.w3.org/1999/xlink" version="1.1" viewBox="-11 0 1814 2048">
   <path fill="currentColor"
d="M175 703q130 -89 287 -58t246 164t58 290t-164 246t-290 58t-246 -164t-58.5 -290t167.5 -246zM517 806q-61 -34 -129.5 -37.5t-130 30.5t-95.5 95.5t-31 129.5t38 130zM257 1242q61 34 129.5 37.5t130 -30.5t95.5 -95.5t31 -129.5t-38 -130zM1670 642v252
q0 27 -20.5 44.5t-47.5 17.5h-526l205 -205l-88 -96l-328 328v75l328 321l88 -89l-205 -205h526q82 0 136.5 -54.5t54.5 -136.5v-252h-123z" />
</svg>
