<?xml version="1.0" standalone="no"?>
<!DOCTYPE svg PUBLIC "-//W3C//DTD SVG 1.1//EN" "http://www.w3.org/Graphics/SVG/1.1/DTD/svg11.dtd" >
<svg xmlns="http://www.w3.org/2000/svg" xmlns:xlink="http://www.w3.org/1999/xlink" version="1.1" viewBox="-10 0 1808 2048">
   <path fill="currentColor"
d="M1645 667q20 -55 27 -123q7 -123 -41 -246h-27q-27 -7 -68 7q-55 7 -116 41q-82 34 -178 95q-123 -34 -348 -34t-348 34q-171 -109 -294 -136q-61 -14 -95 -7q-48 123 -41 246q7 68 27 123q-143 157 -143 375q0 280 116 444q102 143 314 211q177 55 460.5 55t467.5 -55
q212 -68 314 -211q116 -164 116 -444q0 -218 -143 -375zM894 1643q-225 0 -335 -21q-164 -27 -245 -102q-89 -82 -89 -253q0 -130 116 -232q55 -55 157 -68q68 0 219 7q116 7 177 7t184 -7q143 -7 212 -7q102 14 157 68q116 102 116 232q0 164 -89 253q-82 75 -245 102
q-110 21 -335 21zM614 1083q-55 0 -95.5 58t-40.5 140t40.5 140t95.5 58t96 -58t41 -140t-41 -140t-96 -58zM1174 1083q-55 0 -96 58t-41 140t41 140t96 58t95.5 -58t40.5 -140t-40.5 -140t-95.5 -58z" />
</svg>
