<?xml version="1.0" standalone="no"?>
<!DOCTYPE svg PUBLIC "-//W3C//DTD SVG 1.1//EN" "http://www.w3.org/Graphics/SVG/1.1/DTD/svg11.dtd" >
<svg xmlns="http://www.w3.org/2000/svg" xmlns:xlink="http://www.w3.org/1999/xlink" version="1.1" viewBox="-10 0 1808 2048">
   <path fill="currentColor"
d="M123 134h1413l123 122v682q-61 -26 -129 -40v-642h-635v1392l-144 144h-628l-123 -122v-1414zM123 1670h642v-1414h-642v1414zM1454 1028q-82 0 -150 48h-7q-116 67 -146.5 200.5t44.5 249.5l-300 300l88 88l301 -300q61 41 139.5 51.5t150.5 -16.5t123 -81.5t75 -127
t10.5 -147.5t-58 -136t-116.5 -95.5t-154 -33.5zM1482 1540q-68 7 -119.5 -30.5t-75.5 -89t-10 -110t55 -99t95.5 -51t109 10.5t85 65.5t34 95t-17 98.5t-61 75t-95.5 35z" />
</svg>
