<?xml version="1.0" standalone="no"?>
<!DOCTYPE svg PUBLIC "-//W3C//DTD SVG 1.1//EN" "http://www.w3.org/Graphics/SVG/1.1/DTD/svg11.dtd" >
<svg xmlns="http://www.w3.org/2000/svg" xmlns:xlink="http://www.w3.org/1999/xlink" version="1.1" viewBox="-10 0 1631 2048">
   <path fill="currentColor"
d="M1611 1512l-151 -396v-7l-628 -628v-157q0 -41 -13 -75q-27 -75 -103 -103q-41 -14 -75 -13q-82 0 -136.5 54.5t-54.5 136.5v416l-389 383q-61 55 -61 133t61 140l464 464q27 27 62 41q75 27 143 0q34 -14 61 -41l635 -635l-88 287q0 27 3 57.5t23.5 54.5t44.5 38t58 14
t61.5 -14t48 -38t27.5 -51t7 -61zM587 324q-7 -14 -3.5 -27.5t13.5 -24t23.5 -13.5t34 0t34.5 20.5t14 44.5v157l-123 130zM710 1771q-7 14 -24 20.5t-37.5 0t-27.5 -20.5l-464 -464q-20 -14 -20.5 -41t20.5 -48l559 -553v362q-34 27 -34 64.5t20.5 68.5t54.5 41t65 -7
t44.5 -47.5t3.5 -65t-38 -54.5v-362l492 499z" />
</svg>
