<?xml version="1.0" standalone="no"?>
<!DOCTYPE svg PUBLIC "-//W3C//DTD SVG 1.1//EN" "http://www.w3.org/Graphics/SVG/1.1/DTD/svg11.dtd" >
<svg xmlns="http://www.w3.org/2000/svg" xmlns:xlink="http://www.w3.org/1999/xlink" version="1.1" viewBox="-10 0 1644 2048">
   <path fill="currentColor"
d="M880 1516h-129l-103 -274h-423l-96 274h-129l382 -984h116zM607 1140l-157 -422q-7 -20 -13 -70q-7 48 -21 70l-150 422h341zM1017 1516v-984h280q130 0 205 62t75 164q0 83 -48 144t-123 88v6q96 8 157 72.5t61 167.5q0 122 -92 200.5t-228 79.5h-287zM1133 636v320h116
q96 0 150.5 -48t54.5 -130q0 -142 -191 -142h-130zM1133 1058v356h157q102 0 156.5 -48t54.5 -130q0 -178 -238 -178h-130z" />
</svg>
