<?xml version="1.0" standalone="no"?>
<!DOCTYPE svg PUBLIC "-//W3C//DTD SVG 1.1//EN" "http://www.w3.org/Graphics/SVG/1.1/DTD/svg11.dtd" >
<svg xmlns="http://www.w3.org/2000/svg" xmlns:xlink="http://www.w3.org/1999/xlink" version="1.1" viewBox="-10 0 1685 2048">
   <path fill="currentColor"
d="M833 194q-225 0 -416.5 113t-304 303.5t-112.5 416t112.5 416.5t303.5 301t416.5 110t416.5 -110t303.5 -300.5t112.5 -416t-112.5 -416.5t-303.5 -304t-416 -113zM833 1730q-191 0 -355 -95.5t-259.5 -256t-92.5 -352t95.5 -355t256 -259t355 -95t352 96t256 259
t95.5 355t-95.5 352t-256 256t-351.5 94.5zM1031 652q-34 -35 -85.5 -55.5t-109.5 -20.5t-109 21t-85.5 58t-48 82t-20.5 93h157q0 -35 17 -58.5t41 -34.5t44.5 -11t37.5 3.5t30.5 14t20.5 28t7 44t-13.5 58t-34.5 58.5l-95 108q-20 28 -34 59t-7 65v82h150v-62
q0 -26 13.5 -53.5t34.5 -56.5l48 -54q27 -26 47.5 -61t34 -72t13.5 -82t-13.5 -85.5t-40.5 -67.5zM744 1320h143v150h-143v-150z" />
</svg>
