<?xml version="1.0" standalone="no"?>
<!DOCTYPE svg PUBLIC "-//W3C//DTD SVG 1.1//EN" "http://www.w3.org/Graphics/SVG/1.1/DTD/svg11.dtd" >
<svg xmlns="http://www.w3.org/2000/svg" xmlns:xlink="http://www.w3.org/1999/xlink" version="1.1" viewBox="-10 0 1706 2048">
   <path fill="currentColor"
d="M785 451q-239 150 -348.5 324t-109.5 420h55q130 0 225.5 82t95.5 228.5t-89 238.5t-232 92q-184 0 -283 -143t-99 -403q0 -362 160.5 -628t480.5 -450zM1686 451q-246 150 -355 324t-109 420h54q130 0 225.5 82t95.5 228.5t-88.5 238.5t-232.5 92q-184 0 -283 -143
t-99 -403q0 -362 164 -628t478 -450z" />
</svg>
