<?xml version="1.0" standalone="no"?>
<!DOCTYPE svg PUBLIC "-//W3C//DTD SVG 1.1//EN" "http://www.w3.org/Graphics/SVG/1.1/DTD/svg11.dtd" >
<svg xmlns="http://www.w3.org/2000/svg" xmlns:xlink="http://www.w3.org/1999/xlink" version="1.1" viewBox="-10 0 1685 2048">
   <path fill="currentColor"
d="M129 730q0 -142 55 -272.5t157 -225.5l-96 -88q-116 115 -180.5 265.5t-64.5 318t64.5 317t180.5 265.5l96 -88q-102 -96 -157 -225t-55 -267zM266 730q0 110 44.5 216t125.5 188l89 -90q-61 -61 -95 -143t-34 -170.5t34 -171t95 -143.5l-89 -96q-82 83 -126 189t-44 221
zM1249 1140l-96 -96q68 -61 102.5 -143t34.5 -170.5t-34 -171t-103 -143.5l96 -88q75 82 119.5 188t44.5 218t-44.5 217.5t-119.5 188.5zM1420 144l-89 88q96 96 150.5 225t54.5 269t-55 270.5t-150 225.5l89 88q116 -115 180.5 -265.5t64.5 -318t-64.5 -317t-180.5 -265.5z
M1024 710q7 67 -28 122l-34 28l437 990l-116 54l-96 -224h-710l-102 224l-116 -54l437 -990q-34 -40 -48 -95.5t10 -109.5t68.5 -84.5t95.5 -34t95.5 17t75.5 60.5t31 96zM819 662q-14 8 -27.5 21t-17 30.5t3.5 34t24 27t37.5 10t41 -17t20.5 -41t-14 -37.5t-31 -19.5
t-37 -7.5zM853 928h-34l-116 246h259zM1133 1556l-116 -252h-369l-109 252h594z" />
</svg>
