<?xml version="1.0" standalone="no"?>
<!DOCTYPE svg PUBLIC "-//W3C//DTD SVG 1.1//EN" "http://www.w3.org/Graphics/SVG/1.1/DTD/svg11.dtd" >
<svg xmlns="http://www.w3.org/2000/svg" xmlns:xlink="http://www.w3.org/1999/xlink" version="1.1" viewBox="-11 0 1685 2048">
   <path fill="currentColor"
d="M1282 901q0 27 -7 61h130q20 -218 -89 -413t-310.5 -290.5t-420 -54.5t-375.5 198t-198 375.5t54.5 420t290.5 310.5t413 89v-130q-177 20 -334.5 -61.5t-239 -242t-61 -338t140 -310.5t293.5 -177.5t341 20.5t269.5 212t102.5 331zM449 832q55 0 92.5 -37.5t37.5 -88.5
t-37.5 -88.5t-92 -37.5t-92.5 37.5t-38 88.5t37.5 88.5t92.5 37.5zM709 1153q137 0 232 -95l88 88q-61 61 -146.5 99t-177.5 38t-177.5 -37.5t-146.5 -106.5l89 -88q48 48 109.5 75t129.5 27zM961 832q55 0 92.5 -37.5t37.5 -88.5t-37.5 -88.5t-92 -37.5t-92.5 37.5
t-38 88.5t37.5 88.5t92.5 37.5zM1282 1215h130v259h252v130h-252v252h-130v-252h-253v-130h253v-259z" />
</svg>
