<?xml version="1.0" standalone="no"?>
<!DOCTYPE svg PUBLIC "-//W3C//DTD SVG 1.1//EN" "http://www.w3.org/Graphics/SVG/1.1/DTD/svg11.dtd" >
<svg xmlns="http://www.w3.org/2000/svg" xmlns:xlink="http://www.w3.org/1999/xlink" version="1.1" viewBox="-10 0 2020 2048">
   <path fill="currentColor"
d="M68 92h1734l61 62v737q-61 -48 -129 -82v-587h-1598v1202h663q0 218 136 395h-532v-129h396v-137h-731l-68 -61v-1338zM1468 891q-143 0 -266.5 71.5t-195 194.5t-71.5 266.5t71.5 266.5t194.5 194.5t266.5 71.5t266.5 -71.5t194.5 -194.5t71.5 -266.5t-71.5 -266.5
t-194.5 -194.5t-266 -71.5zM1468 1819q-109 0 -201.5 -51t-147 -143t-54.5 -201.5t54.5 -201.5t146.5 -146.5t201.5 -54.5t201.5 54.5t143 146.5t51 201.5t-51 201.5t-143 143t-201 51zM1686 1553l-178 -184l178 -184l61 61l-129 123l129 130zM1235 1383l123 122l-123 130
l55 55l184 -185l-184 -184z" />
</svg>
