<?xml version="1.0" standalone="no"?>
<!DOCTYPE svg PUBLIC "-//W3C//DTD SVG 1.1//EN" "http://www.w3.org/Graphics/SVG/1.1/DTD/svg11.dtd" >
<svg xmlns="http://www.w3.org/2000/svg" xmlns:xlink="http://www.w3.org/1999/xlink" version="1.1" viewBox="-10 0 1679 2048">
   <path fill="currentColor"
d="M1229 341q27 -61 75 -61t75.5 47.5t27.5 129.5t-31 133.5t-78.5 51.5t-68.5 -48l-7 41h-75v-505h75zM1222 485q0 27 14 51t37.5 24t37.5 -27.5t14 -75t-10.5 -71.5t-34 -24t-41 27t-17.5 62v34zM267 983l-267 -273l82 -82l130 130v-198q0 -68 51 -123t127 -55h300v116
h-300q-27 0 -44.5 20.5t-17.5 41.5v198l123 -123l82 82zM936 628h88v-218q0 -157 -122 -157q-27 0 -58 10t-52 24v82q48 -34 99 -34t45 61l-75 7q-96 20 -96 129q0 48 24 79t65 31q55 0 82 -62v48zM942 457v28q0 27 -17 51t-37.5 24t-30.5 -14t-10 -27q0 -48 41 -55l48 -7h6
zM635 1652h-82v-48q-27 61 -82 62q-41 0 -64.5 -31t-23.5 -79q0 -109 95 -129l75 -7q0 -61 -47.5 -61t-95.5 34v-82q20 -14 51 -21t58 -13q116 0 116 157v218zM553 1509v-28l-47 7q-41 7 -41 55q0 14 10 27.5t30.5 13.5t34 -20.5t13.5 -54.5zM929 1666q61 0 95 -21v-95
q-34 27 -75 27t-64.5 -27.5t-23.5 -75t27 -78.5t64.5 -31t65.5 28v-96q-20 -14 -76 -20q-82 0 -129.5 54.5t-47.5 143t44.5 140t119.5 51.5zM0 1154l123 -130h1154l130 130v635l-130 129h-1154l-123 -129v-635zM123 1154v635h1154v-635h-1154zM512 894l123 -129h901l123 129
v642l-123 130v-772h-1024z" />
</svg>
