<?xml version="1.0" standalone="no"?>
<!DOCTYPE svg PUBLIC "-//W3C//DTD SVG 1.1//EN" "http://www.w3.org/Graphics/SVG/1.1/DTD/svg11.dtd" >
<svg xmlns="http://www.w3.org/2000/svg" xmlns:xlink="http://www.w3.org/1999/xlink" version="1.1" viewBox="-10 0 1174 2048">
   <path fill="currentColor"
d="M28 478l293 293l280 -286l-89 -89l-129 130v-205q0 -27 20.5 -47.5t40.5 -20.5h198v-123h-191q-82 0 -136.5 54.5t-54.5 136.5v205l-137 -137zM881 710h7q34 61 105.5 58t116 -64.5t44.5 -164t-37.5 -160.5t-112.5 -58t-116 75l-7 -266h-109v628h109v-48zM881 573v-47
q0 -48 20.5 -75.5t58 -27.5t58 31t20.5 89t-20.5 92t-58 34t-58 -31t-20.5 -65zM772 1632q-48 34 -144 34q-109 0 -174 -68.5t-65 -177.5q-7 -123 68.5 -194.5t191.5 -71.5q82 0 123 20v130q-48 -34 -106 -34t-95.5 37.5t-37.5 102.5t34 102.5t92 37.5t113 -34v116zM130 894
l-130 130v765l130 129h894l130 -129v-765l-130 -130h-894zM130 1024h894v765h-894v-765z" />
</svg>
