<?xml version="1.0" standalone="no"?>
<!DOCTYPE svg PUBLIC "-//W3C//DTD SVG 1.1//EN" "http://www.w3.org/Graphics/SVG/1.1/DTD/svg11.dtd" >
<svg xmlns="http://www.w3.org/2000/svg" xmlns:xlink="http://www.w3.org/1999/xlink" version="1.1" viewBox="-10 0 1890 2048">
   <path fill="currentColor"
d="M0 802v-478l61 -68h642l41 20l116 109h737l68 69v314h144l61 82l-341 901l-62 41h-477q48 -55 81 -123h349l307 -772h-737q-41 -48 -96 -88l20 -21l41 -20h581v-253h-703l-48 -20l-109 -110h-547v335q-68 34 -129 82zM641 1348q0 82 -58 136.5t-136.5 54.5t-136.5 -54.5
t-58 -136.5t58 -136.5t136.5 -54.5t133.5 54.5t55 136.5h6zM894 1348q0 123 -61.5 225.5t-164 160.5t-222 58t-225 -58t-163.5 -160.5t-58 -225.5t58 -225.5t163.5 -164t225 -61.5t222 61.5t164 164t61.5 225.5zM443 1669q137 0 229 -95.5t92 -229t-92 -225.5t-225 -92
t-225.5 92t-92.5 225.5t92 229t222 95.5z" />
</svg>
