<?xml version="1.0" standalone="no"?>
<!DOCTYPE svg PUBLIC "-//W3C//DTD SVG 1.1//EN" "http://www.w3.org/Graphics/SVG/1.1/DTD/svg11.dtd" >
<svg xmlns="http://www.w3.org/2000/svg" xmlns:xlink="http://www.w3.org/1999/xlink" version="1.1" viewBox="-10 0 1808 2048">
   <path fill="currentColor"
d="M860 385h867l61 69v1276l-61 62h-737q48 -55 81 -123h588l6 -901h-812v6q-55 -41 -116 -68l48 -41l41 -20h833l6 -130h-832l-48 -20l-109 -110h-547v335q-68 34 -129 82v-478l61 -68h642l48 20zM641 1348q0 82 -58 136.5t-136.5 54.5t-136.5 -54.5t-58 -136.5t58 -136.5
t136.5 -54.5t133.5 54.5t55 136.5h6zM894 1348q0 123 -61.5 225.5t-164 160.5t-222 58t-225 -58t-163.5 -160.5t-58 -225.5t58 -225.5t163.5 -164t225 -61.5t222 61.5t164 164t61.5 225.5zM443 1669q137 0 229 -95.5t92 -229t-92 -225.5t-225 -92t-225.5 92t-92.5 225.5
t92 229t222 95.5z" />
</svg>
