<?xml version="1.0" standalone="no"?>
<!DOCTYPE svg PUBLIC "-//W3C//DTD SVG 1.1//EN" "http://www.w3.org/Graphics/SVG/1.1/DTD/svg11.dtd" >
<svg xmlns="http://www.w3.org/2000/svg" xmlns:xlink="http://www.w3.org/1999/xlink" version="1.1" viewBox="-10 0 1814 2048">
   <path fill="currentColor"
d="M607 425q-130 130 -160.5 311t44.5 345q55 123 157 204q-14 61 -7 123v21l-61 -41l-485 471l-95 -89l484 -471q-157 -171 -174 -406.5t106 -433.5t345 -283t447 -20.5t365 252.5t140 427q0 48 -7 102q-55 -48 -116 -88v-14q0 -177 -99 -320.5t-259.5 -212t-331 -34.5
t-293.5 157zM996 985q109 -75 249.5 -85.5t263 51t197.5 174.5t85.5 249.5t-51 259t-177.5 201t-252.5 85.5t-259.5 -51t-198 -174t-82 -252.5t51 -259.5t174 -198zM1003 1681q116 116 273 110q123 7 226 -69l-540 -532q-68 96 -68 218q0 164 109 273zM1058 1094l532 540
q75 -102 69 -226q7 -157 -106 -269.5t-277 -112.5q-122 0 -218 68z" />
</svg>
