<?xml version="1.0" standalone="no"?>
<!DOCTYPE svg PUBLIC "-//W3C//DTD SVG 1.1//EN" "http://www.w3.org/Graphics/SVG/1.1/DTD/svg11.dtd" >
<svg xmlns="http://www.w3.org/2000/svg" xmlns:xlink="http://www.w3.org/1999/xlink" version="1.1" viewBox="-10 0 1556 2048">
   <path fill="currentColor"
d="M62 642l-62 -69v-382l62 -61h1406l68 61v382l-68 69h-1406zM1024 253h-129v129h-130v-129h-130v129h-123v-129h-129v129h-130v-129h-130v259h1284v-259h-260v129h-123v-129zM62 1277l-62 -62v-382l62 -68h1406l68 68v382l-68 62h-1406zM512 894h-129v130h-130v-130h-130
v260h1284v-260h-260v130h-123v-130h-129v130h-130v-130h-130v130h-123v-130zM1468 1918l68 -61v-382l-68 -69h-1406l-62 69v382l62 61h1406zM123 1789v-253h130v130h130v-130h129v130h123v-130h130v130h130v-130h129v130h123v-130h260v253h-1284z" />
</svg>
