<?xml version="1.0" standalone="no"?>
<!DOCTYPE svg PUBLIC "-//W3C//DTD SVG 1.1//EN" "http://www.w3.org/Graphics/SVG/1.1/DTD/svg11.dtd" >
<svg xmlns="http://www.w3.org/2000/svg" xmlns:xlink="http://www.w3.org/1999/xlink" version="1.1" viewBox="-10 0 1680 2048">
   <path fill="currentColor"
d="M800 1902q-102 -61 -197.5 -126t-184.5 -140t-164 -160.5t-133 -188t-92 -222t-28 -241.5v-410l62 -61q68 0 122.5 -7t112.5 -17.5t109.5 -31t99.5 -54.5q75 -48 157 -75q123 -34 252 -13q82 7 157 47q41 20 75 41q55 34 106 54.5t109 31t113 17.5t123 7l61 61v410
q0 123 -30.5 242t-88.5 221.5t-136.5 188t-164 160.5t-181 140t-197.5 126h-62zM124 475v349q0 109 27.5 208t78.5 191t123 170.5t154 150t170 126.5l150 102q82 -48 157 -102q89 -61 171 -129.5t153.5 -147t119.5 -170.5t78.5 -191t30.5 -208v-349h-75q-61 -7 -129 -20
q-137 -27 -253 -102l-61 -35q-55 -27 -123 -41q-96 -14 -198 14q-61 20 -119.5 58t-123 65t-129.5 41t-133 20h-69zM903 1028q61 -27 95 -88.5t20.5 -126.5t-68 -109t-123 -44t-119.5 44t-65 109t17 126.5t99 88.5l-54 335h252z" />
</svg>
