<?xml version="1.0" standalone="no"?>
<!DOCTYPE svg PUBLIC "-//W3C//DTD SVG 1.1//EN" "http://www.w3.org/Graphics/SVG/1.1/DTD/svg11.dtd" >
<svg xmlns="http://www.w3.org/2000/svg" xmlns:xlink="http://www.w3.org/1999/xlink" version="1.1" viewBox="-11 0 1820 2048">
   <path fill="currentColor"
d="M398 282q198 -137 440 -154t457 89t351.5 307.5t150.5 440t-95.5 457t-310.5 352t-436.5 147t-451 -89t-352 -307t-150 -440t89 -450.5t307.5 -352zM473 1668q171 109 375.5 126t389 -75t300.5 -263t129.5 -379t-78.5 -392.5t-266 -297t-375.5 -126t-386 78.5
t-300.5 262.5t-129.5 375.5t75.5 386t266 304zM705 896q0 55 -37.5 92.5t-92 37.5t-92.5 -37.5t-38 -92t38 -92t92.5 -37.5t92 37t37.5 92zM1347 896q0 55 -38 92.5t-92.5 37.5t-92 -37.5t-37.5 -92t37.5 -92t92 -37.5t92.5 37t38 92zM896 1408q-109 0 -198 -54.5
t-143 -143.5l-110 62q68 123 194.5 194.5t270 68t263 -78.5t180.5 -205l-109 -54q-48 96 -143.5 153.5t-204.5 57.5z" />
</svg>
