<?xml version="1.0" standalone="no"?>
<!DOCTYPE svg PUBLIC "-//W3C//DTD SVG 1.1//EN" "http://www.w3.org/Graphics/SVG/1.1/DTD/svg11.dtd" >
<svg xmlns="http://www.w3.org/2000/svg" xmlns:xlink="http://www.w3.org/1999/xlink" version="1.1" viewBox="-10 0 1809 2048">
   <path fill="currentColor"
d="M580 310q-7 -7 -14 -6q-14 -61 -65 -102.5t-119 -41.5v171q-150 61 -252.5 180.5t-129.5 276.5v55q34 68 150 109q55 27 123 41h7q-109 14 -178 61q-55 41 -82 96q-20 41 -20 89v41q0 48 37.5 82t88.5 34t99 -21h266q-34 61 -48 130h-41q-116 14 -194.5 106t-78.5 215
q-7 27 7 44t41 17h854q109 7 204.5 -30.5t170.5 -116t106 -177.5t24 -208q-7 -150 -96 -266l-14 -21q-48 -55 -64.5 -92.5t-6.5 -68t31 -44.5l13 -7h21q20 0 41 7q41 27 88 41q68 7 130 -23.5t96 -92.5q14 -41 13 -89q0 -116 -88 -266q-82 -123 -198 -198q-164 -89 -342 -54
q-123 20 -211 116q-68 75 -103 170q-34 -48 -82 -95v-21q0 -75 -51 -129.5t-133 -61.5v150zM1263 1423q14 102 0 164q-20 96 -116 150q-55 20 -116 21h-751q0 -48 34 -85.5t88 -37.5h164v-69q-7 -89 54.5 -157t157.5 -75l-82 -116q-55 20 -75 34h-410q-20 0 -34 7
q-34 14 -51 3.5t-3.5 -48t48 -64.5t81.5 -27h130q27 0 44 -17t24 -38l41 -164q-102 14 -197.5 -17t-164.5 -99q27 -143 140 -238.5t256 -102.5h14q55 0 102 20q68 34 178 178q55 75 95 143l7 7h21v-7q-7 -48 0 -126.5t13 -119.5q27 -82 92 -146.5t161 -78.5q130 -27 239 34
q89 55 147 147t71 174v14q0 48 -17 65t-41 23.5t-51 0t-54 -20.5q-68 -41 -144 -20q-48 14 -78.5 48t-44.5 81q-20 75 4 153.5t78 133.5l14 20q68 82 71.5 184.5t-37.5 191.5q-7 -89 -55 -171zM416 611q-27 0 -47.5 17t-20.5 44t20.5 47.5t44.5 17.5t44.5 -20.5t20.5 -44.5
t-20.5 -44t-48.5 -17h7z" />
</svg>
