<?xml version="1.0" standalone="no"?>
<!DOCTYPE svg PUBLIC "-//W3C//DTD SVG 1.1//EN" "http://www.w3.org/Graphics/SVG/1.1/DTD/svg11.dtd" >
<svg xmlns="http://www.w3.org/2000/svg" xmlns:xlink="http://www.w3.org/1999/xlink" version="1.1" viewBox="-10 0 1815 2048">
   <path fill="currentColor"
d="M894 134q-177 0 -341 67.5t-290.5 194t-194.5 290.5t-68 342v54q7 96 71.5 140t153.5 31t157 -78t163.5 -62t164 71t72 161t-65 164.5t-78.5 167t37.5 167t150.5 78.5h75q239 0 447 -123t327.5 -328t119.5 -447.5t-119.5 -446.5t-327.5 -327.5t-447 -123.5zM894 1798h-68
q-27 -7 -44.5 -20.5t-17.5 -39.5q-14 -83 41 -138q102 -109 102.5 -255.5t-105.5 -255.5t-256 -109t-260 108q-48 56 -116 42q-14 0 -27.5 -14t-13.5 -34v-48q0 -211 106 -385.5t280 -280.5t382.5 -106t386 106.5t279.5 280t102 382.5t-102 386t-279.5 279t-382.5 102h-7z
M1024 516q0 55 -37.5 92.5t-92.5 37.5t-92.5 -38t-37.5 -93t37.5 -92t92.5 -37t92.5 37t37.5 93zM1406 1410q0 55 -37.5 92.5t-92 37.5t-92 -38t-34.5 -89t37.5 -88.5t89 -38t92 37.5t37.5 86zM512 774q55 0 92 -37t34 -91.5t-37.5 -92t-89 -37.5t-92 37t-37.5 91.5t37.5 92
t92.5 37.5zM1406 646q0 55 -37.5 92t-92 36.5t-92 -37.5t-34.5 -91.5t37.5 -92t89 -37.5t92 37t37.5 93zM1536 1028q0 55 -37.5 92.5t-92.5 37.5t-92.5 -38t-37.5 -93t37.5 -92t92.5 -37t92.5 37t37.5 93z" />
</svg>
