<?xml version="1.0" standalone="no"?>
<!DOCTYPE svg PUBLIC "-//W3C//DTD SVG 1.1//EN" "http://www.w3.org/Graphics/SVG/1.1/DTD/svg11.dtd" >
<svg xmlns="http://www.w3.org/2000/svg" xmlns:xlink="http://www.w3.org/1999/xlink" version="1.1" viewBox="-10 0 1809 2048">
   <path fill="currentColor"
d="M1345 575q-171 0 -297.5 109t-146.5 273h-396q-27 -89 -105.5 -143.5t-177.5 -44t-160.5 82t-61.5 170.5t61.5 170.5t160.5 85.5t177.5 -40.5t105.5 -150.5h396q14 116 85.5 208t177 140t222 34.5t212 -78.5t146.5 -167.5t44 -222t-68 -215t-160 -153.5t-215 -58z
M1345 1340q-137 0 -229 -92.5t-92 -225.5t92 -225t225 -92t225.5 92t92.5 225t-92.5 228.5t-221.5 95.5v-6z" />
</svg>
