<?xml version="1.0" standalone="no"?>
<!DOCTYPE svg PUBLIC "-//W3C//DTD SVG 1.1//EN" "http://www.w3.org/Graphics/SVG/1.1/DTD/svg11.dtd" >
<svg xmlns="http://www.w3.org/2000/svg" xmlns:xlink="http://www.w3.org/1999/xlink" version="1.1" viewBox="-10 0 1808 2048">
   <path fill="currentColor"
d="M239 143q68 27 95 89q14 34 14 75t-20.5 78.5t-61.5 65t-96 27.5q-68 0 -119 -51.5t-51 -126.5q0 -48 27 -92t75 -65q69 -27 137 0zM198 369q41 -20 47 -69q0 -20 -17 -40.5t-37.5 -27.5t-41 3.5t-34 27.5t-13.5 41t17 41t38 24t41 0zM696 143l-683 683l89 82l676 -676z
M1345 1154h122v321h321v122h-321v321h-122v-321h-321v-122h321v-321zM607 1222l89 89l-225 225l225 225l-89 89l-225 -225l-225 225l-89 -89l225 -225l-225 -225l89 -89l225 225zM778 683q-20 -48 -61 -79t-96 -31t-99 31t-61.5 75.5t-14 88.5t27.5 78.5t61.5 55t82 23.5
t85.5 -20.5t65 -58t27 -78.5t-17 -85zM682 778q-7 27 -34 34q-41 20 -75 -13q-14 -7 -20.5 -24t-3 -37.5t20.5 -37.5t37.5 -20.5t37.5 3t24 20.5q33 34 13 75zM1665 382h-512v130h512v-130z" />
</svg>
