<?xml version="1.0" standalone="no"?>
<!DOCTYPE svg PUBLIC "-//W3C//DTD SVG 1.1//EN" "http://www.w3.org/Graphics/SVG/1.1/DTD/svg11.dtd" >
<svg xmlns="http://www.w3.org/2000/svg" xmlns:xlink="http://www.w3.org/1999/xlink" version="1.1" viewBox="-10 0 1809 2048">
   <path fill="currentColor"
d="M233 1920q-96 0 -160.5 -64.5t-71.5 -150t47 -153.5q239 -259 676 -683q-34 -96 -34 -198t41 -198q68 -164 212 -253q116 -75 256 -88.5t263 41.5l82 34l-369 382l157 157l382 -369l34 82q41 102 41 211.5t-41 212t-116 177.5q-41 41 -95 75q-109 75 -235.5 89
t-249.5 -34q-464 471 -683 676q-61 54 -136 54zM1243 248q-123 0 -232 75q-41 20 -75 54q-96 96 -119.5 225.5t30.5 252.5l21 41l-28 28q-464 451 -703 703q-20 34 -16.5 71.5t27 61.5t44 30.5t48 6.5t47.5 -20q205 -184 704 -696l34 -28l34 14q102 48 211.5 37.5
t204.5 -71.5q41 -20 75 -55q61 -61 92 -139.5t31 -167.5q0 -41 -7 -82l-334 328l-328 -328l328 -334q-41 -7 -89 -7z" />
</svg>
