<?xml version="1.0" standalone="no"?>
<!DOCTYPE svg PUBLIC "-//W3C//DTD SVG 1.1//EN" "http://www.w3.org/Graphics/SVG/1.1/DTD/svg11.dtd" >
<svg xmlns="http://www.w3.org/2000/svg" xmlns:xlink="http://www.w3.org/1999/xlink" version="1.1" viewBox="-10 0 1611 2048">
   <path fill="currentColor"
d="M1249 130l76 27l266 635l-28 75l-423 177l-75 -27l-20 -54l-458 191l-68 -28l-21 -47l-327 136l-75 -34l-96 -212l34 -75l321 -136l-20 -55l27 -68l457 -198l-20 -55l34 -75zM130 976l41 109l287 -116l-48 -109zM478 703l143 314l383 -164l-137 -307zM935 382l239 526
l294 -130l-225 -525l-314 129h6zM894 1167l390 622h-151l-239 -383v512h-129v-662l-239 533h-144l219 -499z" />
</svg>
