<?xml version="1.0" standalone="no"?>
<!DOCTYPE svg PUBLIC "-//W3C//DTD SVG 1.1//EN" "http://www.w3.org/Graphics/SVG/1.1/DTD/svg11.dtd" >
<svg xmlns="http://www.w3.org/2000/svg" xmlns:xlink="http://www.w3.org/1999/xlink" version="1.1" viewBox="-10 0 1813 2048">
   <path fill="currentColor"
d="M1222 246q55 7 102.5 41t64.5 92t-10 119l-123 280h355q48 -7 89 17t64.5 61.5t27 82t-16.5 85.5q-239 505 -294 662q-20 48 -64.5 82t-99.5 34h-1140q-75 -7 -126 -58t-51 -126v-451q0 -68 51 -119t126 -51h178l744 -704q55 -40 123 -47zM1317 1672q34 0 48 -34
q75 -212 300 -669q7 -27 -6.5 -51t-47.5 -17h-417l-68 -82v-61l137 -314q7 -14 3.5 -31t-17.5 -27.5t-31 -10.5t-30 14l-779 710l-61 20h-171q-20 0 -37 14t-11 34v451q-7 20 10.5 37t37.5 17h1140z" />
</svg>
