<?xml version="1.0" standalone="no"?>
<!DOCTYPE svg PUBLIC "-//W3C//DTD SVG 1.1//EN" "http://www.w3.org/Graphics/SVG/1.1/DTD/svg11.dtd" >
<svg xmlns="http://www.w3.org/2000/svg" xmlns:xlink="http://www.w3.org/1999/xlink" version="1.1" viewBox="-10 0 1815 2048">
   <path fill="currentColor"
d="M1768 444l-102 -21l-267 266l-157 -157l267 -273l-21 -102q-89 -27 -181 -27t-180.5 37.5t-157 105.5t-106 160.5t-37.5 191.5t34 187q-396 396 -785 799q-41 55 -37.5 126.5t57.5 119.5q27 27 58 44t65 17q61 0 110 -47q143 -130 389 -383q232 -225 409 -409
q89 41 184.5 41t184.5 -38t157 -109.5t105.5 -160t37.5 -184t-27 -184.5zM252 1782q-7 7 -20 7h-14q-14 0 -20.5 -3.5t-16.5 -17.5t-17 -34.5t0 -33.5q287 -300 764 -778q20 27 41 51t48 44q-499 512 -765 765zM1672 621q7 157 -102 263t-259.5 106t-252.5 -103
q-82 -82 -102.5 -191t20.5 -211q27 -68 78.5 -123t119.5 -82t137 -27h34l-232 239v88l239 239h88l232 -232v34zM293 853h192l95 96l82 -89l-82 -89l7 -211l-27 -55l-369 -246l-75 14l-102 102l-14 82l239 369zM171 389l293 198v143h-136l-192 -300zM1078 1283l89 -88
l396 409q55 55 55 130t-55 130q-41 41 -92 51t-106 -10q-34 -14 -54 -41l-403 -410l89 -89l396 410q14 14 30.5 20.5t33.5 0t24 -17t10.5 -20.5t3.5 -24t-3.5 -24t-10.5 -17z" />
</svg>
