<?xml version="1.0" standalone="no"?>
<!DOCTYPE svg PUBLIC "-//W3C//DTD SVG 1.1//EN" "http://www.w3.org/Graphics/SVG/1.1/DTD/svg11.dtd" >
<svg xmlns="http://www.w3.org/2000/svg" xmlns:xlink="http://www.w3.org/1999/xlink" version="1.1" viewBox="-10 0 1808 2048">
   <path fill="currentColor"
d="M1788 468q-34 55 -81.5 102.5t-102.5 88.5l7 48q0 109 -24 214.5t-72 208.5q-61 143 -160 259t-222 198t-269.5 123t-300.5 41t-297 -41t-266 -123q143 14 286.5 -23.5t252.5 -133.5q-82 0 -160.5 -41t-126.5 -109q-34 -48 -54 -102l34 6q68 7 130 -13
q-61 -14 -116 -44.5t-96 -85.5q-82 -96 -82 -232q82 41 171 41q-75 -48 -123 -130q-20 -41 -34 -82q-20 -96 6 -184q7 -48 35 -89q68 82 157 150q171 143 382 198q109 27 218 35l-6 -41v-41q0 -82 27 -144q55 -143 198 -198q68 -27 143 -27t143.5 30.5t122.5 85.5
q123 -27 233 -89q-41 130 -164 198q109 -6 211 -54z" />
</svg>
