<?xml version="1.0" standalone="no"?>
<!DOCTYPE svg PUBLIC "-//W3C//DTD SVG 1.1//EN" "http://www.w3.org/Graphics/SVG/1.1/DTD/svg11.dtd" >
<svg xmlns="http://www.w3.org/2000/svg" xmlns:xlink="http://www.w3.org/1999/xlink" version="1.1" viewBox="-10 0 1733 2048">
   <path fill="currentColor"
d="M812 1884h89l218 -218h307l69 -69v-307l218 -218v-96l-218 -218v-314l-62 -62h-314l-218 -218h-89l-212 218h-320l-69 69v307l-211 218v96l211 218v307l69 69h320zM621 1536h-280v-273l-14 -48l-198 -191l192 -191l20 -48v-273h280l41 -20l191 -192l198 192l41 20h273
v273l20 48l198 191l-198 191l-20 48v273h-273l-48 20l-191 192l-191 -192zM805 785q-14 20 -20 41l-7 41h-116v-7q7 -61 27 -109q14 -20 27.5 -41t37.5 -34.5t54.5 -23.5t64.5 -10q55 0 92.5 17t65 44t37.5 65t10 78.5t-13.5 71.5t-30.5 58.5t-38 54.5l-41 48
q-14 20 -27.5 40.5t-13.5 41.5v61h-116v-68q0 -34 14 -61.5t34 -48.5l75 -95q20 -20 30.5 -47.5t10.5 -51.5t-7 -44q-7 -14 -17 -27.5t-24 -20.5q-20 -14 -40.5 -14t-41 13.5t-27.5 27.5zM914 1406h-109v-109h109v109z" />
</svg>
