<?xml version="1.0" standalone="no"?>
<!DOCTYPE svg PUBLIC "-//W3C//DTD SVG 1.1//EN" "http://www.w3.org/Graphics/SVG/1.1/DTD/svg11.dtd" >
<svg xmlns="http://www.w3.org/2000/svg" xmlns:xlink="http://www.w3.org/1999/xlink" version="1.1" viewBox="-10 0 1939 2048">
   <path fill="currentColor"
d="M61 126h1666l61 68v703q-55 -48 -129 -75v-567h-1530v1154h635q0 212 130 382h-512v-129h382v-123h-703l-61 -69v-1276zM1119 986q116 -82 252.5 -89t259.5 51t201.5 174t85.5 252.5t-54.5 259.5t-174 201.5t-249 85.5t-259.5 -54.5t-198 -174t-85.5 -249t51 -259.5
t170.5 -198zM1392 1621l308 -403l-103 -82l-266 355l-164 -130l-82 96l219 177z" />
</svg>
