<?xml version="1.0" standalone="no"?>
<!DOCTYPE svg PUBLIC "-//W3C//DTD SVG 1.1//EN" "http://www.w3.org/Graphics/SVG/1.1/DTD/svg11.dtd" >
<svg xmlns="http://www.w3.org/2000/svg" xmlns:xlink="http://www.w3.org/1999/xlink" version="1.1" viewBox="-10 0 1936 2048">
   <path fill="currentColor"
d="M61 128h1666l61 68v702q-55 -48 -129 -74v-568h-1530v1154h635q0 212 130 382h-512v-128h382v-124h-703l-61 -68v-1276zM1406 898q68 0 133 17t123 51.5t106 82t82 103.5q48 88 61.5 190t-13.5 206q-14 61 -48 119t-82 105.5t-103 81.5q-89 48 -191 62t-205 -14
q-61 -13 -119 -47.5t-106 -82.5t-82 -102q-48 -89 -61.5 -191.5t13.5 -204.5q14 -62 48 -120t82 -106t103 -82q122 -67 259 -68zM1665 1410l-389 -258v512z" />
</svg>
