<?xml version="1.0" standalone="no"?>
<!DOCTYPE svg PUBLIC "-//W3C//DTD SVG 1.1//EN" "http://www.w3.org/Graphics/SVG/1.1/DTD/svg11.dtd" >
<svg xmlns="http://www.w3.org/2000/svg" xmlns:xlink="http://www.w3.org/1999/xlink" version="1.1" viewBox="-10 0 1811 2048">
   <path fill="currentColor"
d="M371 458q-27 -35 -61 -48q-61 -20 -137 -8q-48 8 -88 28l-41 20v136l27 -20q27 -19 64.5 -37t75 -17.5t55 21t23.5 61.5l-122 14q-48 7 -79 23.5t-51.5 40.5t-26.5 52q-20 67 0 128.5t81 89.5q34 13 69 14q75 0 123 -62v48h129v-334q0 -48 -10.5 -86t-30.5 -64zM289 696
v34q0 20 -6 42q-14 40 -48 57t-68 3q-14 -7 -21 -13t-10.5 -16.5t-3.5 -24.5v-28q0 -7 10.5 -17t24 -17t34.5 -6zM931 560q-7 -41 -27.5 -78.5t-58 -61.5t-85 -24t-81.5 28q-20 13 -35 34v-314h-122v792h122v-36q20 35 62 42q14 7 41 6q48 0 85.5 -20.5t61 -61t37.5 -95.5
t14 -109t-14 -102zM822 656q0 48 -7 82t-20.5 54t-27.5 28q-41 19 -75 6l-28 -28q-13 -14 -19.5 -34.5t-6.5 -47.5v-68q7 -26 13.5 -53.5t17 -44.5t27.5 -27.5t37 -4.5q41 -7 68 34q7 14 14 45.5t7 58.5zM180 1284q20 -20 41 -31t48 -11t47.5 6.5t41.5 21.5l47 34v-144
l-13 -6q-55 -35 -116.5 -31.5t-109 24.5t-82 61.5t-51.5 92t-17 109.5t17 106t48 82t75.5 54.5t92 20t82 -10.5t61.5 -24l13 -6v-116l-40 14l-69 26q-41 8 -82 -6q-20 -14 -37 -35t-27.5 -48t-10.5 -64t13.5 -68.5t27.5 -50.5zM1668 778h-512v-122h574l61 60v772l-61 62
h-847l267 266l-96 88l-369 -368v-88l369 -376l96 96l-260 252h778v-642z" />
</svg>
