<?xml version="1.0" standalone="no"?>
<!DOCTYPE svg PUBLIC "-//W3C//DTD SVG 1.1//EN" "http://www.w3.org/Graphics/SVG/1.1/DTD/svg11.dtd" >
<svg xmlns="http://www.w3.org/2000/svg" xmlns:xlink="http://www.w3.org/1999/xlink" version="1.1" viewBox="-10 0 1818 2048">
   <path fill="currentColor"
d="M1416 783q7 137 -37.5 266.5t-126.5 238.5l546 540l-95 95l-540 -546q-191 157 -436.5 164t-440.5 -140t-259.5 -382.5t31 -460.5t310.5 -344.5t457.5 -79t406.5 221.5t184 427zM713 1411q116 0 221.5 -44.5t187.5 -126.5l-7 7q82 -82 130 -187.5t48 -221.5
q0 -157 -78.5 -290.5t-211.5 -212t-290 -78.5t-287 78.5t-208.5 212t-78.5 287t78.5 286.5t208.5 211.5t287 78.5zM1027 899v-130h-253v-252h-130v252h-259v130h259v253h130v-253h253z" />
</svg>
