<?xml version="1.0" standalone="no"?>
<!DOCTYPE svg PUBLIC "-//W3C//DTD SVG 1.1//EN" "http://www.w3.org/Graphics/SVG/1.1/DTD/svg11.dtd" >
<svg xmlns="http://www.w3.org/2000/svg" xmlns:xlink="http://www.w3.org/1999/xlink" version="1.1" viewBox="-10 0 1808 2048">
   <path fill="currentColor"
d="M129 318l-129 128v1154l129 130h1536l123 -130v-1154l-123 -128h-1536zM129 1600v-1154h1536v1154h-1536zM553 1204h88v-218q0 -157 -122 -156q-27 0 -58 10t-52 24v82q48 -35 99 -34.5t51 60.5l-81 8q-96 19 -96 128q0 48 24 79.5t65 30.5q55 0 82 -62v48zM559 1034v28
q0 26 -17 50t-37.5 24t-30.5 -13.5t-10 -26.5q0 -48 41 -56l48 -6h6zM846 1170h-7v42h-75v-506h75l7 212q27 -62 75 -62t75.5 48t27.5 130t-31 133t-79 51t-68 -48zM839 1028v34q0 26 14 50t37.5 24t37.5 -27t14 -75t-10.5 -72t-34 -24t-41 27.5t-17.5 62.5zM1310 1218
q61 0 96 -20v-96q-34 28 -71.5 28t-61.5 -27.5t-24 -75.5t24 -79t65 -30.5t68 28.5v-96q-27 -20 -82 -14q-75 -8 -123 47.5t-48 144t44.5 139.5t112.5 51z" />
</svg>
