<?xml version="1.0" standalone="no"?>
<!DOCTYPE svg PUBLIC "-//W3C//DTD SVG 1.1//EN" "http://www.w3.org/Graphics/SVG/1.1/DTD/svg11.dtd" >
<svg xmlns="http://www.w3.org/2000/svg" xmlns:xlink="http://www.w3.org/1999/xlink" version="1.1" viewBox="-10 0 1809 2048">
   <path fill="currentColor"
d="M1474 1195q-34 -14 -71.5 -17.5t-71.5 13.5t-58 34t-44 45l-41 41l-35 27q-20 20 -47.5 17t-40.5 -24l-280 -266q-75 -75 -150 -157q-27 -34 -48 -61.5t-24.5 -44.5t17.5 -37l27 -35l48 -41q20 -20 41 -44t31 -54.5t10 -71.5q0 -82 -55 -144q-34 -34 -71.5 -75
t-78.5 -78.5t-85.5 -64.5t-98.5 -27q-82 0 -137 54l-95 96q-34 41 -65 85.5t-41 102.5t-10 126q0 102 34 218t92 229t140 222t177.5 204.5t204.5 181t225.5 143.5t229 92t221.5 34q68 0 126 -13.5t102.5 -41t85.5 -61.5l96 -95q55 -55 54 -137q0 -34 -10 -68t-31 -62
l-47 -54l-55 -55l-102 -95q-28 -27 -69 -41zM1426 1782q-48 14 -102 7q-96 0 -198 -31t-198 -79q-212 -123 -389 -300q-89 -89 -164 -184.5t-129.5 -198t-85.5 -205t-31 -204.5q-7 -48 7 -95.5t34.5 -78.5t54.5 -65l75 -68q20 -27 48 -27q14 0 41 20l48 41q68 55 116 116
l41 48q20 27 20 44t-14 38l-75 75q-27 20 -44 44t-30.5 58t-13.5 72t13.5 72t47.5 68l471 471q61 61 143 61q34 0 69 -13q61 -27 102 -75l41 -41q14 -20 34.5 -34t37.5 -14t44 20l48 41l61 55q34 27 55 61l41 55q20 20 20 34q0 27 -27 48l-68 75q-34 27 -68.5 51t-75.5 38z
M1788 218l-594 594h424v130h-642v-642h130v424l594 -594z" />
</svg>
