<?xml version="1.0" standalone="no"?>
<!DOCTYPE svg PUBLIC "-//W3C//DTD SVG 1.1//EN" "http://www.w3.org/Graphics/SVG/1.1/DTD/svg11.dtd" >
<svg xmlns="http://www.w3.org/2000/svg" xmlns:xlink="http://www.w3.org/1999/xlink" version="1.1" viewBox="-10 0 1808 2048">
   <path fill="currentColor"
d="M976 853l594 -600h-417v-123h635v635h-123v-417l-600 594zM1399 1181q82 0 144 55l102 95l55 55l47 54q20 27 30.5 61.5t10.5 68.5q0 82 -54 137l-96 95q-34 34 -82 61.5t-106 41t-126 13.5q-109 0 -225 -34t-229 -95.5t-222 -143.5t-204.5 -177.5t-177.5 -204.5
t-140 -222t-92 -225.5t-34 -221.5q0 -75 10 -129.5t37.5 -99t68.5 -85.5l95 -96q55 -55 137 -54q48 0 95.5 27t92 64.5t78.5 82t68 71.5q55 61 55 144q0 34 -10 64.5t-30.5 58t-41.5 47.5l-48 41l-27 35q-14 20 -14 37t20.5 44.5t48.5 61.5q75 82 150 157l280 266
q14 20 41 24t47 -17l35 -27l41 -41q20 -27 47.5 -44.5t58 -34.5t64.5 -10zM1324 1789q61 0 102 -10.5t75.5 -31t68.5 -54.5l68 -75q27 -20 21 -48q7 -14 -14 -34l-41 -55q-20 -34 -55 -61l-61 -55l-48 -41q-27 -20 -44 -20t-37.5 13.5t-34.5 34.5l-41 41q-20 27 -44 44
t-58 30.5t-69 13.5q-82 0 -143 -61l-471 -471q-34 -27 -47.5 -64.5t-13.5 -78.5t13.5 -72t30.5 -55t41 -44.5t44 -40.5l34 -34q14 -20 14 -37.5t-20 -44.5l-41 -48l-55 -61l-61 -55l-48 -41q-27 -20 -41 -20q-27 0 -48 27l-75 68q-27 27 -51 65t-34.5 82t-16.5 92
q7 96 37.5 201.5t85 208t129.5 198t164 184.5q177 177 389 294q96 55 198 85.5t198 30.5z" />
</svg>
