<?xml version="1.0" standalone="no"?>
<!DOCTYPE svg PUBLIC "-//W3C//DTD SVG 1.1//EN" "http://www.w3.org/Graphics/SVG/1.1/DTD/svg11.dtd" >
<svg xmlns="http://www.w3.org/2000/svg" xmlns:xlink="http://www.w3.org/1999/xlink" version="1.1" viewBox="-10 0 1808 2048">
   <path fill="currentColor"
d="M839 1290q82 34 157 92t123 134q109 157 110 348v54h-110v-54q0 -102 -37.5 -194.5t-109 -161t-163.5 -109t-194.5 -40.5t-195 37.5t-160.5 109t-109 163.5t-41 195v54h-109v-54q0 -191 109 -348t280 -226q-34 -27 -68.5 -61t-55 -78.5t-30.5 -89t-10 -92.5
q0 -82 27 -157q61 -143 212 -204q68 -34 150 -34.5t150 34.5q150 61 212 204q48 123 20 253q-14 41 -37.5 82t-51 78.5t-68.5 64.5zM614 1249q55 0 109 -20q102 -48 151 -150q20 -55 20 -110q0 -116 -82 -198q-41 -41 -92 -61.5t-106 -20.5t-109 21q-102 48 -150 150
q-20 48 -20.5 106t20 109t61.5 92q82 82 198 82zM1788 130v894h-225l-334 335v-335h-110v-109h226v177l177 -177h157v-676h-1120v205l-54 7q-34 7 -62 13v-334h1345z" />
</svg>
