<?xml version="1.0" standalone="no"?>
<!DOCTYPE svg PUBLIC "-//W3C//DTD SVG 1.1//EN" "http://www.w3.org/Graphics/SVG/1.1/DTD/svg11.dtd" >
<svg xmlns="http://www.w3.org/2000/svg" xmlns:xlink="http://www.w3.org/1999/xlink" version="1.1" viewBox="-10 0 1679 2048">
   <path fill="currentColor"
d="M1407 1140q20 130 47 219l82 218l-68 89h-444q0 102 -78.5 177t-180.5 75q-55 0 -102.5 -20.5t-74.5 -54.5q-75 -75 -76 -177h-450l-62 -89l76 -218q27 -102 34 -158q14 -82 13 -150v-286q0 -150 51.5 -256t153.5 -215q89 -89 232 -130q96 -34 205 -34q-27 34 -75 136
q-55 0 -89 28q-96 20 -184 102q-34 27 -71.5 75t-51.5 89q-41 102 -41 205v286q0 75 -14 171q-14 55 -34 171l-54 143h1228l-47 -143q-27 -68 -48 -212l-7 -27q89 0 130 -14zM765 1789q20 0 44 -7t45 -28q41 -41 41 -88h-260q0 48 41 88q20 20 44.5 27.5t44.5 7.5zM1659 512
q0 157 -112.5 269.5t-269.5 112.5t-269.5 -112.5t-112.5 -269.5t112.5 -269.5t269.5 -112.5t269.5 112.5t112.5 269.5z" />
</svg>
