<?xml version="1.0" standalone="no"?>
<!DOCTYPE svg PUBLIC "-//W3C//DTD SVG 1.1//EN" "http://www.w3.org/Graphics/SVG/1.1/DTD/svg11.dtd" >
<svg xmlns="http://www.w3.org/2000/svg" xmlns:xlink="http://www.w3.org/1999/xlink" version="1.1" viewBox="-10 0 1959 2048">
   <path fill="currentColor"
d="M601 62l13 -8h1209l7 8l102 102l7 6v1210l-7 12l-102 104h-7h-628v-14q0 -68 -48 -116h655v-1174h-1174v620q-61 -13 -130 -14v-628v-6zM1413 868l-239 238q-14 -19 -27 -40l-41 -36l191 -190l-307 -314l68 -68l355 348v62zM819 1208l116 -108l89 88l-143 144l13 20v130
h130v122h-130v8q-7 67 -34 128l164 164l-89 90l-143 -144q-48 68 -123 106t-157 38t-157 -38t-123 -106l-143 144l-89 -90l164 -170q-27 -55 -34 -116v-6h-130v-130h130v-130l20 -20l-150 -144l89 -88l116 108q27 -102 112.5 -170.5t194.5 -68t194.5 69t112.5 169.5z
M649 1154q-41 -41 -99 -51.5t-113 10.5t-85.5 68.5t-30.5 108.5h382q1 -82 -54 -136zM689 1782q68 -68 76 -170v-192h-506v192q7 102 79 173.5t174 78.5q102 -8 177 -82z" />
</svg>
