<?xml version="1.0" standalone="no"?>
<!DOCTYPE svg PUBLIC "-//W3C//DTD SVG 1.1//EN" "http://www.w3.org/Graphics/SVG/1.1/DTD/svg11.dtd" >
<svg xmlns="http://www.w3.org/2000/svg" xmlns:xlink="http://www.w3.org/1999/xlink" version="1.1" viewBox="-10 0 2061 2048">
   <path fill="currentColor"
d="M703 466l-102 -89q177 -116 385.5 -126t392.5 85.5t293.5 269.5t116.5 386l157 -150l95 95l-266 266h-102l-267 -273l103 -95l157 157q-7 -164 -96 -307.5t-239 -225.5t-317.5 -78.5t-310.5 85.5zM1283 1606l103 89q-177 96 -375.5 92.5t-369 -102.5t-273 -266.5
t-109.5 -365.5l-157 157l-102 -95l266 -267h96l273 273l-103 96l-150 -150q14 157 96 290t215 211.5t290 88.5t300 -51zM143 370l89 -88l1522 1420l-88 95z" />
</svg>
