<?xml version="1.0" standalone="no"?>
<!DOCTYPE svg PUBLIC "-//W3C//DTD SVG 1.1//EN" "http://www.w3.org/Graphics/SVG/1.1/DTD/svg11.dtd" >
<svg xmlns="http://www.w3.org/2000/svg" xmlns:xlink="http://www.w3.org/1999/xlink" version="1.1" viewBox="-10 0 1808 2048">
   <path fill="currentColor"
d="M61 192h1666l61 68v832h-123v-388h-1536v900h895v124h-963l-61 -62v-1406zM129 580h1536v-260h-1536v260zM764 1474v-142q-34 -8 -61 -28l-116 68l-68 -116l122 -68q-7 -34 0 -68l-122 -68l68 -110l116 68q34 -26 61 -34v-144h130v144q34 8 61 34l123 -68l62 110l-123 68
q7 34 0 68l123 68l-62 116l-123 -74q-27 26 -61 34v142h-130zM737 1154q0 40 27.5 67.5t65 28t68 -27t30.5 -68.5t-30.5 -68.5t-68 -27.5t-68.5 27t-24 69zM1420 1856v-136q-34 -13 -62 -34l-123 68l-61 -108l116 -76q-7 -34 0 -68l-116 -68l61 -110l123 68q27 -19 62 -34
v-142h123v142q34 14 61 34l123 -68l61 110l-116 68q7 34 0 68l116 76l-61 108l-123 -68q-27 20 -61 34v136h-123zM1386 1536q0 40 27 71.5t68 31t68.5 -31.5t27.5 -68t-27.5 -67.5t-68.5 -31t-68 30t-27 65.5z" />
</svg>
