<?xml version="1.0" standalone="no"?>
<!DOCTYPE svg PUBLIC "-//W3C//DTD SVG 1.1//EN" "http://www.w3.org/Graphics/SVG/1.1/DTD/svg11.dtd" >
<svg xmlns="http://www.w3.org/2000/svg" xmlns:xlink="http://www.w3.org/1999/xlink" version="1.1" viewBox="-11 0 1794 2048">
   <path fill="currentColor"
d="M646 764h512v512h-512v-512zM974 129q150 7 290 75t249 177q259 280 260 656q0 294 -205 559q-102 123 -232 201.5t-280 106.5q-328 61 -594 -89q-137 -75 -239 -191t-156.5 -259.5t-65 -300.5t37.5 -300q102 -314 362 -485q123 -82 269.5 -123t303.5 -27zM1042 1781
q259 -61 430 -273q171 -232 157 -485q0 -157 -58 -300.5t-160 -252.5q-198 -198 -457 -218q-130 -7 -260 23.5t-232 105.5q-218 164 -296.5 430.5t34 512t344.5 375.5q109 68 238.5 88.5t259.5 -6.5z" />
</svg>
