<?xml version="1.0" standalone="no"?>
<!DOCTYPE svg PUBLIC "-//W3C//DTD SVG 1.1//EN" "http://www.w3.org/Graphics/SVG/1.1/DTD/svg11.dtd" >
<svg xmlns="http://www.w3.org/2000/svg" xmlns:xlink="http://www.w3.org/1999/xlink" version="1.1" viewBox="-11 0 1808 2048">
   <path fill="currentColor"
d="M1398 828h7q157 7 269.5 116t112.5 269.5t-112.5 273t-269.5 112.5h-956q-96 0 -184.5 -37.5t-149.5 -112.5q-82 -89 -106 -208.5t13.5 -235.5t129.5 -194.5t209 -98.5q96 -20 191 6q61 -137 191 -211.5t276.5 -54t252.5 126.5t126 249zM511 1469h894q109 0 184 -75
t75 -181t-75 -181t-184 -75h-116l-14 -109q-14 -102 -92 -177.5t-184 -92.5t-198 38t-133 150l-41 96l-109 -21q-34 -7 -69 -13q-137 0 -225 95q-68 68 -88.5 164t17 184.5t119.5 143t177 54.5h62z" />
</svg>
