<?xml version="1.0" standalone="no"?>
<!DOCTYPE svg PUBLIC "-//W3C//DTD SVG 1.1//EN" "http://www.w3.org/Graphics/SVG/1.1/DTD/svg11.dtd" >
<svg xmlns="http://www.w3.org/2000/svg" xmlns:xlink="http://www.w3.org/1999/xlink" version="1.1" viewBox="-10 0 1849 2048">
   <path fill="currentColor"
d="M184 478l109 116l-75 75l-218 -211v-82l218 -212l75 82l-102 102h1638v130h-1645zM423 1830v-1168l61 -54h260l61 54v1168l-61 54h-260zM682 1768v-1044h-129v1044h129zM935 1570v-908l61 -54h260l61 54v908l-61 62h-260zM1194 1516v-799h-129v799h129zM1447 662v656
l61 54h260l61 -54v-656l-61 -54h-260zM1706 717v546h-129v-546h129z" />
</svg>
