<?xml version="1.0" standalone="no"?>
<!DOCTYPE svg PUBLIC "-//W3C//DTD SVG 1.1//EN" "http://www.w3.org/Graphics/SVG/1.1/DTD/svg11.dtd" >
<svg xmlns="http://www.w3.org/2000/svg" xmlns:xlink="http://www.w3.org/1999/xlink" version="1.1" viewBox="-10 0 1686 2048">
   <path fill="currentColor"
d="M130 126h894v42q0 74 -30.5 139t-98.5 113v368q61 28 105.5 65t71.5 79q-61 19 -116 54q-61 -67 -143 -96l-41 -12v-526l34 -28q20 -7 34 -20l27 -34q14 -20 21 -42h-621q14 28 20 42q27 34 61 54l41 28v526l-47 12q-75 28 -130 90q-27 26 -51 77.5t-31 92.5h642
q-34 48 -62 102h-68v410l-61 130l-69 -130v-410h-512v-60q0 -68 20.5 -127t48.5 -113q68 -109 191 -164v-368q-61 -48 -95.5 -113t-34.5 -139v-42zM1086 1204q48 -26 95.5 -37t98.5 -14t106 17q96 20 167.5 92t98.5 174q14 48 14 99t-14 107q-27 96 -98.5 167.5t-167.5 98.5
q-55 13 -106 13.5t-99 -13.5q-96 -28 -170.5 -99.5t-102.5 -166.5q-14 -56 -10.5 -107t10.5 -99q34 -109 116 -184q28 -28 62 -48z" />
</svg>
