<?xml version="1.0" standalone="no"?>
<!DOCTYPE svg PUBLIC "-//W3C//DTD SVG 1.1//EN" "http://www.w3.org/Graphics/SVG/1.1/DTD/svg11.dtd" >
<svg xmlns="http://www.w3.org/2000/svg" xmlns:xlink="http://www.w3.org/1999/xlink" version="1.1" viewBox="-10 0 1808 2048">
   <path fill="currentColor"
d="M1099 287q-102 -34 -204.5 -34t-205.5 34q-96 20 -184 75q-171 102 -273 273q-55 89 -82 188t-24 204.5t24 201.5q55 191 198 341q75 68 160.5 119.5t184.5 78.5t204.5 24t201 -27t184.5 -79q171 -102 273 -273q55 -89 75 -184q34 -102 31 -208t-31 -202
q-20 -96 -75 -184q-48 -82 -123 -150q-68 -75 -150 -123q-89 -55 -184 -75zM1665 1475q-116 205 -320 320q-102 61 -215 92t-236 31t-235.5 -30.5t-215 -88.5t-184.5 -140t-140 -184.5t-88.5 -215t-30.5 -235.5t30.5 -235.5t92.5 -215.5q116 -205 320 -320q102 -61 215 -92
t236 -31t239 27q225 68 392.5 235.5t235.5 392.5q27 116 27 239t-31 236t-92 215z" />
</svg>
