<?xml version="1.0" standalone="no"?>
<!DOCTYPE svg PUBLIC "-//W3C//DTD SVG 1.1//EN" "http://www.w3.org/Graphics/SVG/1.1/DTD/svg11.dtd" >
<svg xmlns="http://www.w3.org/2000/svg" xmlns:xlink="http://www.w3.org/1999/xlink" version="1.1" viewBox="-11 0 1941 2048">
   <path fill="currentColor"
d="M589 563q-55 82 -144 123l-54 14v641q130 27 198 137q55 82 54 177q0 68 -20 130q-41 89 -123 143.5t-181 54.5t-177.5 -54.5t-116 -143.5t-20.5 -184.5t85.5 -163.5t163.5 -89v-648q-96 -20 -164 -88.5t-85 -164.5t20.5 -184.5t116 -143t181.5 -54.5q130 -7 228.5 88.5
t91.5 232.5q1 102 -54 177zM493 1573q-27 -48 -71.5 -75t-98.5 -27q-89 0 -147 71.5t-38 160.5q7 55 51.5 96t99 51t109 -10.5t85.5 -68t34 -99t-24 -99.5zM220 543q48 34 102.5 34t99 -27.5t72 -75t24 -102.5t-34.5 -99t-85.5 -68t-112.5 -10.5t-99 54.5t-51 95.5
t13.5 109.5t71.5 89zM1538 829h-123v-191q0 -82 -58 -136.5t-133 -54.5h-239l164 164l-96 89l-273 -273v-89l273 -273l96 88l-164 164h239q96 0 177.5 55t115.5 143q27 61 21 123v191zM1538 1983h-130v-382h-382v-130h382v-382h130v382h382v130h-382v382z" />
</svg>
