<?xml version="1.0" standalone="no"?>
<!DOCTYPE svg PUBLIC "-//W3C//DTD SVG 1.1//EN" "http://www.w3.org/Graphics/SVG/1.1/DTD/svg11.dtd" >
<svg xmlns="http://www.w3.org/2000/svg" xmlns:xlink="http://www.w3.org/1999/xlink" version="1.1" viewBox="-10 0 1911 2048">
   <path fill="currentColor"
d="M915 1409q0 137 -85.5 242.5t-218.5 133t-252.5 -34t-174.5 -184.5l-123 48q68 157 222 242t324.5 61.5t290 -150t143.5 -297t-65 -321t-249 -215t-327.5 -20.5t-269.5 181v-157h-130v341l61 69h301v-130h-164q68 -116 187.5 -164t246 -14t205 136.5t78.5 232.5zM642 180
l95 -54l1154 771v109l-608 403v-150l458 -307l-970 -649v464h-129v-587z" />
</svg>
