<?xml version="1.0" standalone="no"?>
<!DOCTYPE svg PUBLIC "-//W3C//DTD SVG 1.1//EN" "http://www.w3.org/Graphics/SVG/1.1/DTD/svg11.dtd" >
<svg xmlns="http://www.w3.org/2000/svg" xmlns:xlink="http://www.w3.org/1999/xlink" version="1.1" viewBox="-10 0 1665 2048">
   <path fill="currentColor"
d="M908 7h-48h-13l95 -7zM1434 983q20 -55 20 -96l-14 35q14 -55 14 -164v-69h-7q-7 -130 -99 -259.5t-201 -176.5q-89 -41 -208.5 -48t-180.5 20q7 -7 27.5 -10t13.5 -10q-48 7 -75.5 13.5t-47.5 20.5q-41 27 -82 41q-7 7 0 7l41 -7l-21 14h-34q-34 7 -61 17t-62 51
q0 7 14 0l14 -7l-14 20q-55 -7 -157 96q-89 82 -123 143h21q-14 34 -41 82q-34 61 -34 89l-7 82q-14 116 -14 171q0 89 27 123l-6 47l20 48h-7q14 61 27.5 75t30.5 17.5t34 20.5t45 78q-27 -7 -41 -34q0 14 17 44.5t37 64.5l-13 14q14 20 34 34l7 7q-27 -14 -7 27
q14 20 54 75l21 28l14 -14q-7 34 47 96h35q7 20 34 44t47 24l-20 27q34 7 48 21h7q20 20 61 34l-20 -28l40 35q34 41 78.5 58t92.5 23.5t82 20.5h-27q-137 -7 -185 -20q-191 -55 -361.5 -208.5t-266 -372t-82.5 -443.5q-7 -41 0 -123q0 -102 -6 -116v-14q48 -150 95 -246v-7
q14 14 34 -20l21 -34q20 -48 27 -75h14q7 -27 41 -69l75 -75q48 -41 61 -54v20q48 -41 130 -89q48 -20 137 -61l54 -21q-7 7 0 7l103 -13l-48 27q34 -7 61 0h62l-34 7l-14 7q34 7 68 -7q41 -7 82 7l-7 -21l75 27q68 20 137 55q14 0 27 -7q27 -7 62 7v7q7 20 61 48
q7 0 -27 -34q102 55 191 157t123 218q-20 -27 -21 -27v27q7 34 0 34q27 75 41 143v-6q-41 -137 -82 -198q0 14 -20 13q-14 -7 -17.5 3.5t10.5 44.5q7 14 14 7v-7l13 27q7 14 14 55l7 34q-7 0 -14 -13q-14 -20 -14 -14q7 27 17.5 47.5t10.5 27.5q-7 0 -7 20q0 34 7 44.5
t13 3.5h7l-13 28q-20 61 -14 109l-21 -55v48q7 34 -6 75q7 -41 6.5 -71.5t-13.5 -10.5q7 48 -27 116q-27 55 -28 75l-20 -27q-27 48 -24 65t-17 44q7 -14 7 -20q0 -7 6 -21q-7 0 -41 34l-47 48q-109 89 -239 106t-266 -31q0 -7 -14 -20q-123 -96 -164 -171
q-61 -102 -41 -259q14 -7 27 -48q20 -75 55 -96q27 -48 88.5 -88.5t136.5 -44t136.5 30.5t95.5 82q-61 -55 -150 -68.5t-170.5 24t-129.5 123t-41 180.5l7 -7q7 0 6 -13q0 116 72 208t177.5 129.5t201.5 -10.5v7q34 -7 55 -20l61 -55l-7 14q-20 20 -3 16.5t113 -91.5l20 -21
q7 -14 7 -27q-7 -14 7 -34l27 -21zM847 1290zM847 1290q0 7 20 20.5t41 27.5q75 27 198 21q-61 27 -153.5 6.5t-174.5 -75t-123 -123.5q7 0 41 34q55 68 82 76q-27 -20 -68 -76q61 68 137 103v-14zM867 27h-14q41 0 48 3.5t-7 3.5zM1236 860q0 -41 -7 -41t-14 28l14 20
q0 7 7 -7zM1208 949q-14 48 -41 89q0 -7 -13.5 -10.5t-10 -17t30.5 -47.5q0 14 -13 27q-14 27 -14 30.5t27 -10.5l7 -6q20 -28 27 -55zM1031 1106q-34 -7 -54.5 -14t6.5 -13q48 7 82 0zM887 34l-6 7zM614 1126l-6 28l20 27q27 41 48 61zM642 1085q14 27 27 41l7 35l-7 -14
q-20 -41 -27 -62zM1597 922l-6 13q-14 102 -55 191q47 -95 61 -204zM55 437zM55 444h13q7 0 7 3.5t-7 23.5l-27 21v-7q14 -21 14 -41zM14 608q0 27 -14 54v-13q0 -27 20 -55z" />
</svg>
