<?xml version="1.0" standalone="no"?>
<!DOCTYPE svg PUBLIC "-//W3C//DTD SVG 1.1//EN" "http://www.w3.org/Graphics/SVG/1.1/DTD/svg11.dtd" >
<svg xmlns="http://www.w3.org/2000/svg" xmlns:xlink="http://www.w3.org/1999/xlink" version="1.1" viewBox="-10 0 1713 2048">
   <path fill="currentColor"
d="M1529 1427q27 14 44 37.5t24 57.5l14 41q7 27 27 62l21 27q14 14 24 34.5t10 44t-10.5 41t-31 31t-47.5 20.5l-48 27q-41 20 -71.5 44t-65 58.5t-74.5 61.5q-27 14 -51.5 24t-51.5 10q-55 0 -92.5 -20.5t-64.5 -75.5l-20 -20l-28 -7l-198 -7q-48 0 -88 7l-89 14
q-7 0 -14 13l-27 35q-20 14 -47.5 27.5t-65 13.5t-72 -7t-68.5 -28q-61 -27 -123 -41l-170 -27q-20 -7 -37.5 -17t-27.5 -30.5t-10 -48t10 -54.5t10 -62l-7 -88q0 -48 24 -72t72 -37q20 -7 34 -21l34 -27l48 -62l7 -13l-7 -48q0 -68 24 -136.5t58 -133.5t75 -126.5
t82 -115.5q55 -68 85.5 -150t30.5 -178l-7 -75v-82t17 -143.5t54.5 -109t99 -71.5t150.5 -24q96 0 157 41t92 106t41 143.5t10 160.5v88q7 68 28 130q20 27 47 68l96 123q48 61 89 129.5t68 143.5t27 164q0 69 -20 130zM689 389q14 0 24 7t17 14l7 27v27l-7 14l-27 34
q-7 7 -21 14l-41 34q-14 14 -13.5 24t13.5 17q20 14 28 41l27 41q7 20 27.5 37t61.5 17h7q41 0 75 -20l95 -55l75 -54l7 -28q0 -14 -7 -20l-13 -14l-34 -7q-20 -7 -44.5 -20.5t-44.5 -20.5l-7 -6v-14v-48q0 -14 7 -24t17 -17t24 -7q34 0 47.5 24t13.5 41t-6.5 31t-6.5 20.5
t6 13.5h14q20 0 30.5 -10t10.5 -31l-7 -48q-7 -27 -17 -54.5t-30.5 -41t-47.5 -13.5q-55 0 -75.5 24t-27.5 78l7 62l-34 -7q-14 -7 -27 0h-14q-14 0 -14 -7v-41q-7 -20 -13.5 -40.5t-20.5 -37.5t-34 -17t-30.5 10t-20.5 23.5t-10 34.5l-7 34q0 27 13 48l7 34q7 7 14 7
t13.5 -7t6.5 -14h-6q-7 0 -14 -6l-14 -35q-7 -27 7 -47.5t34 -20.5zM471 1946q27 0 47.5 -7t41 -17.5t30.5 -30.5t13.5 -44t-3 -41t-20.5 -31l-89 -123l-68 -109q-14 -27 -27.5 -47.5t-30.5 -34.5t-37.5 -10.5t-41.5 17.5l-68 68q-20 20 -47.5 30.5t-44.5 24t-17 41.5l7 81
q0 27 -7 51.5t-7 48t17 34t45 17.5l109 20l54 7q20 7 55 27zM839 1823q27 0 62 -7q61 -14 123 -41q27 -14 54 -34v-7l14 -55l34 -211q0 -27 10.5 -48t31 -38t40.5 -30v-7q0 -7 7 -21l13 -20q7 -7 21 -14l20 -13l-34 -157l-13 -41q-14 -27 -28 -41l-47 -69q-7 -14 -7 -27
l-7 -27q-14 -48 -34 -96l-21 -48l-20 -34q-14 -20 -31 -20t-51 20l-137 89q-34 14 -64.5 14t-54.5 -17t-44 -45l-35 -41q-20 -20 -27 -20t-7 13v48l-54 89q-20 48 -28 102l7 28q0 14 7 27l-34 48q-41 55 -54.5 119.5t-13.5 126.5v68v27q20 0 41 14l47 27q27 20 55 48l41 54
q27 20 34 48l14 41q0 27 -17 44.5t-38 23.5q14 27 41 48t54.5 34.5t61.5 20.5t68 7zM1242 1966q20 0 44 -7t51.5 -24t47.5 -44q55 -61 123 -96l69 -34l20 -13q7 -14 7 -28v-13l-34 -55l-21 -34l-34 -102q-20 -27 -61 -28q-20 0 -34 7l-69 41q-20 7 -37 7t-34 -10.5
t-24 -23.5l-28 -69l-13 21q-14 14 -21 27q-14 34 -13 68l-14 117q-7 55 -27 109l-7 34l-7 34q0 48 30.5 82t85.5 34z" />
</svg>
