<?xml version="1.0" standalone="no"?>
<!DOCTYPE svg PUBLIC "-//W3C//DTD SVG 1.1//EN" "http://www.w3.org/Graphics/SVG/1.1/DTD/svg11.dtd" >
<svg xmlns="http://www.w3.org/2000/svg" xmlns:xlink="http://www.w3.org/1999/xlink" version="1.1" viewBox="-10 0 1829 2048">
   <path fill="currentColor"
d="M348 1024q0 75 -51 126t-122.5 51t-123 -51t-51.5 -126t51.5 -126t123 -51t122.5 51t51 126zM1345 1877q41 61 109.5 82t133 -16.5t81.5 -109.5t-20.5 -133.5t-105.5 -82t-133 17.5t-82 109.5t17 132.5zM1652 348q20 -41 24 -88.5t-20 -88.5t-65 -65t-89 -24t-89 24
t-68 65q-34 61 -13.5 129.5t82 106t129.5 20t109 -78.5zM1058 526q123 0 236 58t181 163.5t82 228.5h252q-7 -137 -65 -263t-153 -221q-55 20 -109.5 16.5t-102.5 -30.5q-102 -61 -123 -178q-96 -27 -198 -27q-177 0 -334 82l130 218q95 -47 204 -47zM560 1024
q0 -123 54.5 -232t157.5 -178l-130 -218q-116 75 -198 187.5t-116 249.5q48 34 72 85t24 106t-24 106t-72 85q34 137 116 249.5t198 187.5l123 -218q-96 -68 -154 -177.5t-51 -232.5zM1058 1522q-109 0 -211 -47l-130 225q157 75 335 75q102 0 198 -21q20 -116 122 -177
q48 -27 102.5 -34t109.5 13q96 -96 154 -222t65 -262h-253q-20 191 -160.5 320.5t-331.5 129.5z" />
</svg>
