<?xml version="1.0" standalone="no"?>
<!DOCTYPE svg PUBLIC "-//W3C//DTD SVG 1.1//EN" "http://www.w3.org/Graphics/SVG/1.1/DTD/svg11.dtd" >
<svg xmlns="http://www.w3.org/2000/svg" xmlns:xlink="http://www.w3.org/1999/xlink" version="1.1" viewBox="-10 0 1700 2048">
   <path fill="currentColor"
d="M1564 457l-608 -361q-55 -34 -116 -34.5t-116 34.5l-608 361q-55 34 -85.5 89t-30.5 116v724q0 61 31 115.5t85 89.5l608 361q55 34 116 34.5t116 -34.5l608 -361q55 -34 85.5 -89t30.5 -116v-724q0 -61 -30.5 -116t-85.5 -89zM1093 1577v55q0 7 -7 13l-34 21q-7 7 -7 -7
v-55q-34 20 -68 7q-7 0 -7 -7l13 -48q0 -7 7 -13h7q34 7 61 -7q48 -20 48 -64.5t-44.5 -44.5t-64.5 -14t-20 -61q0 -89 68 -144v-54q0 -7 7 -14l34 -20q7 0 7 6v55q27 -14 54 -7q14 0 7 14l-14 41q0 7 -6 13q-34 -7 -68.5 10.5t-34.5 65.5q0 14 13.5 20.5t41.5 6.5
q82 0 82 88.5t-75 143.5zM1413 1495q0 7 -6 7l-151 95h-6v-41q0 -7 6 -13l151 -89zM1516 608l-574 355q-61 34 -91.5 75t-30.5 102v703q0 75 54 96h-34q-48 0 -96 -21l-607 -362q-41 -27 -68.5 -74.5t-27.5 -95.5v-724q0 -48 27.5 -95.5t68.5 -74.5l607 -362
q48 -20 99.5 -20.5t92.5 20.5l607 362q75 48 89 136q-14 -27 -44.5 -34t-71.5 14z" />
</svg>
