<?xml version="1.0" standalone="no"?>
<!DOCTYPE svg PUBLIC "-//W3C//DTD SVG 1.1//EN" "http://www.w3.org/Graphics/SVG/1.1/DTD/svg11.dtd" >
<svg xmlns="http://www.w3.org/2000/svg" xmlns:xlink="http://www.w3.org/1999/xlink" version="1.1" viewBox="-11 0 1298 2048">
   <path fill="currentColor"
d="M1025 1279h-130v259h-253v130h253v252h130v-252h252v-130h-252v-259zM451 282q-27 -20 -61 -23.5t-65 13.5t-48 44t-20.5 61.5t10.5 65t48 51.5q41 27 92 16.5t82 -54.5t20.5 -95.5t-58.5 -78.5zM240 173q61 -41 129.5 -44.5t129.5 27t99 88.5t44.5 126.5t-27.5 130
t-89 95.5q-89 61 -191 37.5t-160 -109t-37.5 -188t102.5 -163.5zM226 705h314q96 0 160.5 65t64.5 160v96h-123v-96q0 -41 -30.5 -68t-71.5 -27h-314q-41 0 -71.5 27t-30.5 68v349h129v430q0 7 7 13.5t21 6.5h102v130h-102q-61 0 -109 -44.5t-42 -105.5v-301
q-61 0 -98.5 -41t-30.5 -95v-342q0 -96 64.5 -160.5t160.5 -64.5z" />
</svg>
