<?xml version="1.0" standalone="no"?>
<!DOCTYPE svg PUBLIC "-//W3C//DTD SVG 1.1//EN" "http://www.w3.org/Graphics/SVG/1.1/DTD/svg11.dtd" >
<svg xmlns="http://www.w3.org/2000/svg" xmlns:xlink="http://www.w3.org/1999/xlink" version="1.1" viewBox="-10 0 1850 2048">
   <path fill="currentColor"
d="M826 68h-68l-758 518v110l758 506h68l786 -506v-110zM151 642l641 -444l663 444l-663 430zM758 1522l-744 -506h225l553 376l574 -376h232l-103 70h-47q-171 0 -304 99t-188 249l-130 88h-68zM936 1618l-144 96l-553 -376h-225l744 504h68l137 -88q-27 -61 -27 -136z
M1065 1598q0 157 109.5 269.5t270 112.5t273 -113t112.5 -273t-112.5 -273t-273 -113t-270 113t-109.5 277z" />
</svg>
