<?xml version="1.0" standalone="no"?>
<!DOCTYPE svg PUBLIC "-//W3C//DTD SVG 1.1//EN" "http://www.w3.org/Graphics/SVG/1.1/DTD/svg11.dtd" >
<svg xmlns="http://www.w3.org/2000/svg" xmlns:xlink="http://www.w3.org/1999/xlink" version="1.1" viewBox="-10 0 1808 2048">
   <path fill="currentColor"
d="M1024 894l259 519l-519 -259l-259 -519zM1078 1208l-123 -245l-245 -123l123 245zM1659 1085q-14 184 -109.5 341.5t-252.5 253t-342 109.5v-123h-122v123q-184 -14 -341.5 -113t-253 -252.5t-109.5 -338.5h123v-129h-123q14 -184 113 -338t252.5 -249.5t338.5 -109.5
v123h122v-123q184 14 341.5 109.5t253 252.5t109.5 342h-123v122h123zM894 1918q246 0 450.5 -119.5t324 -324t119.5 -450.5t-119.5 -450.5t-324 -324t-450.5 -119.5t-450.5 119.5t-324 324t-119.5 450.5t119.5 450.5t324 324t450.5 119.5z" />
</svg>
