<?xml version="1.0" standalone="no"?>
<!DOCTYPE svg PUBLIC "-//W3C//DTD SVG 1.1//EN" "http://www.w3.org/Graphics/SVG/1.1/DTD/svg11.dtd" >
<svg xmlns="http://www.w3.org/2000/svg" xmlns:xlink="http://www.w3.org/1999/xlink" version="1.1" viewBox="-10 0 1938 2048">
   <path fill="currentColor"
d="M1037 1717q-41 7 -82 7v-123h-122v123q-184 -14 -341.5 -113t-253 -252.5t-109.5 -338.5h123v-129h-123q14 -184 113 -338t252.5 -249.5t338.5 -109.5v123h122v-123q184 14 341.5 109.5t253 252.5t109.5 342h-123v122h123l-7 82q61 14 116 41q20 -89 20 -184
q0 -246 -119.5 -450.5t-324 -324t-450.5 -119.5t-450.5 119.5t-324 324t-119.5 450.5t119.5 450.5t324 324t450.5 119.5q96 0 184 -20q-27 -55 -41 -116zM1140 1273l-376 -184l-259 -519l519 259l184 376q-41 27 -68 68zM1078 1143l-123 -245l-245 -123l123 245zM1153 1601
q0 157 109.5 269.5t270 112.5t273 -112.5t112.5 -273t-112.5 -273t-273 -112.5t-270 112.5t-109.5 276.5z" />
</svg>
