<?xml version="1.0" standalone="no"?>
<!DOCTYPE svg PUBLIC "-//W3C//DTD SVG 1.1//EN" "http://www.w3.org/Graphics/SVG/1.1/DTD/svg11.dtd" >
<svg xmlns="http://www.w3.org/2000/svg" xmlns:xlink="http://www.w3.org/1999/xlink" version="1.1" viewBox="-10 0 1685 2048">
   <path fill="currentColor"
d="M1502 1244l122 34q41 -123 41 -256t-41 -256l-122 41q34 102 34 215t-34 222zM1461 705l109 -62q-123 -239 -362 -362l-61 117q205 102 314 307zM1051 357l34 -123q-123 -41 -256 -41t-256 41l41 123q102 -41 215 -41t222 41zM512 398l-62 -117q-239 123 -362 362l117 62
q102 -205 307 -307zM0 1026q0 -137 41 -260l123 41q-41 102 -38 215t38 222l-123 34q-41 -122 -41 -252zM205 1340l-117 61q123 239 362 362l62 -109q-205 -109 -307 -314zM614 1695l-41 122q123 34 256 37.5t256 -37.5l-34 -122q-109 34 -222 34t-215 -34zM1147 1654
l61 109q239 -123 362 -362l-109 -61q-109 205 -314 314zM833 1148q48 0 85 -37.5t37 -88.5t-37.5 -88.5t-88.5 -37.5t-88.5 37.5t-37.5 88.5t37.5 88.5t92.5 37.5z" />
</svg>
