<?xml version="1.0" standalone="no"?>
<!DOCTYPE svg PUBLIC "-//W3C//DTD SVG 1.1//EN" "http://www.w3.org/Graphics/SVG/1.1/DTD/svg11.dtd" >
<svg xmlns="http://www.w3.org/2000/svg" xmlns:xlink="http://www.w3.org/1999/xlink" version="1.1" viewBox="-11 0 1818 2048">
   <path fill="currentColor"
d="M445 686q89 -41 143.5 -119.5t54.5 -180.5q0 -61 -23.5 -123t-68 -106.5t-106 -68t-122.5 -23.5q-102 0 -181 54.5t-116.5 143t-20.5 184.5t85.5 164t163.5 89v648q-96 20 -164 88.5t-85 164t20.5 184.5t116 143.5t181.5 54.5q61 0 122.5 -24t106 -71.5t68 -105.5
t23.5 -127q0 -96 -54.5 -177.5t-143.5 -115.5q-27 -14 -54 -21v-641zM425 1498q41 27 68.5 75t24 99.5t-34.5 99t-85.5 68t-109 10.5t-99 -51t-54.5 -99t13.5 -109.5t71.5 -85.5t102.5 -34t102.5 27zM323 577q-55 0 -103 -34.5t-71.5 -89t-13.5 -109t51 -95.5t99 -54.5
t112.5 10.5t85.5 68t34.5 99t-24 102.5t-71.5 75t-99 27.5zM1797 1662q0 137 -92 229t-225 92t-225.5 -92t-92.5 -225.5t92.5 -229t225.5 -95.5t225 95.5t92 225.5zM1476 1853q82 0 140 -54.5t58 -136.5t-58 -136.5t-136.5 -54.5t-136.5 54.5t-58 136.5t58 136.5t133 54.5z
M1353 925q0 55 37.5 92.5t89 37.5t89 -38t37.5 -89t-37.5 -88.5t-89 -37.5t-89 37.5t-37.5 85.5zM1353 386q0 48 37.5 85t89 37t89 -37.5t37.5 -88.5t-37.5 -88.5t-89 -37.5t-89 37.5t-37.5 92.5z" />
</svg>
