<?xml version="1.0" standalone="no"?>
<!DOCTYPE svg PUBLIC "-//W3C//DTD SVG 1.1//EN" "http://www.w3.org/Graphics/SVG/1.1/DTD/svg11.dtd" >
<svg xmlns="http://www.w3.org/2000/svg" xmlns:xlink="http://www.w3.org/1999/xlink" version="1.1" viewBox="-10 0 1810 2048">
   <path fill="currentColor"
d="M541 223l95 -54l1154 771v109l-737 492v-157l587 -389l-970 -649v464h-129v-587zM520 913q-171 -7 -307.5 81.5t-190.5 259.5q-27 82 -20.5 164t34.5 164q61 150 208 235.5t314 51t283 -163.5q109 -143 109 -301q0 -205 -136 -348v-7q-61 -55 -136.5 -92t-157.5 -44z
M274 1090q96 -68 233 -61q123 14 218 102q48 55 75 123t27 143q7 116 -75 222t-204.5 133.5t-232 -37.5t-164 -177.5t-13.5 -242.5q34 -130 136 -205zM472 1322l-150 -157l-82 82l157 164l-157 157l82 82l150 -157l157 157l82 -82l-157 -157l157 -164l-82 -82z" />
</svg>
