<?xml version="1.0" standalone="no"?>
<!DOCTYPE svg PUBLIC "-//W3C//DTD SVG 1.1//EN" "http://www.w3.org/Graphics/SVG/1.1/DTD/svg11.dtd" >
<svg xmlns="http://www.w3.org/2000/svg" xmlns:xlink="http://www.w3.org/1999/xlink" version="1.1" viewBox="-10 0 1808 2048">
   <path fill="currentColor"
d="M860 385h867l61 69v443h-123v-129h-812l-109 109l-48 20h-573v772h641v123h-703l-61 -62v-1406l61 -68h642l48 20zM826 645h833l6 -130h-832l-48 -20l-109 -110h-547v389h547l109 -109zM894 1027h130v765h-130v-765zM1153 1027h123v765h-123v-765zM1406 1075l123 -48
l259 724l-116 41z" />
</svg>
