<?xml version="1.0" standalone="no"?>
<!DOCTYPE svg PUBLIC "-//W3C//DTD SVG 1.1//EN" "http://www.w3.org/Graphics/SVG/1.1/DTD/svg11.dtd" >
<svg xmlns="http://www.w3.org/2000/svg" xmlns:xlink="http://www.w3.org/1999/xlink" version="1.1" viewBox="-10 0 1679 2048">
   <path fill="currentColor"
d="M512 321h-13q-41 0 -75 14t-58 41t-38 61t-14 75v171q0 41 -6.5 82t-20.5 78.5t-37.5 65t-57.5 54.5q34 27 57.5 54.5t37.5 65t20.5 78.5t6.5 82v171q0 41 14 75t38 61t58 41t75 14h13v123h-13q-61 0 -116 -20.5t-99.5 -65t-64.5 -99.5t-27 -102v-7q-7 -55 0 -109v-109
q0 -41 -14 -76q-14 -34 -41 -54v-7q-20 -20 -55 -34q-34 -20 -75 -21h-7v-122h7q41 0 75 -17.5t58 -41t38 -57.5t14 -76v-109q-7 -55 0 -109q7 -55 27 -109q20 -55 64.5 -99.5t99 -68t116.5 -23.5h13v129zM1523 1024h13v-122h-13q-41 0 -75 -21q-34 -14 -55 -34v-7
q-27 -20 -41 -54t-14 -76v-109q7 -55 0 -109v-7q-7 -48 -27 -102q-20 -55 -64.5 -99.5t-99 -68t-116.5 -23.5h-7v129h7q41 0 75 14t58 41t38 61t14 75v171q0 41 6.5 82t20.5 78.5t37.5 65t57.5 54.5h-6q102 13 191 61zM1065 1154q96 -61 212 -61q157 0 269.5 112.5
t112.5 269.5q0 116 -64.5 211.5t-170.5 140t-222 24t-198 -102.5t-102.5 -198t23.5 -222t140 -174zM1420 1236l-143 150l-143 -150l-96 96l150 143l-150 143l96 96l143 -150l143 150l96 -96l-150 -143l150 -143z" />
</svg>
