<?xml version="1.0" standalone="no"?>
<!DOCTYPE svg PUBLIC "-//W3C//DTD SVG 1.1//EN" "http://www.w3.org/Graphics/SVG/1.1/DTD/svg11.dtd" >
<svg xmlns="http://www.w3.org/2000/svg" xmlns:xlink="http://www.w3.org/1999/xlink" version="1.1" viewBox="-10 0 1724 2048">
   <path fill="currentColor"
d="M248 210q-116 116 -182 272t-66 330t66 330t182 272l120 -120q-92 -92 -146 -216t-54 -264t54 -266t146 -218zM1456 210l-120 120q92 92 146 218t54 266t-54 264t-146 216l120 120q116 -116 182 -272t66 -330t-66 -330t-182 -272zM492 450q-72 72 -112 166t-40 198
t40 196t112 164l120 -120q-100 -100 -100 -242t100 -242zM1212 450l-120 120q100 100 100 242t-100 242l120 120q72 -72 112 -164t40 -196t-40 -198t-112 -166zM852 642q-72 0 -122 50t-50 120t50 120t122 50t122 -50t50 -120t-50 -120t-122 -50zM768 1154v340h-88
q-36 0 -60 26t-24 62h-596v168h596q0 36 24 62t60 26h344q36 0 60 -26t24 -62h596v-168h-596q0 -36 -24 -62t-60 -26h-88v-340h-168z" />
</svg>
