<?xml version="1.0" standalone="no"?>
<!DOCTYPE svg PUBLIC "-//W3C//DTD SVG 1.1//EN" "http://www.w3.org/Graphics/SVG/1.1/DTD/svg11.dtd" >
<svg xmlns="http://www.w3.org/2000/svg" xmlns:xlink="http://www.w3.org/1999/xlink" version="1.1" viewBox="-10 0 1724 2048">
   <path fill="currentColor"
d="M0 172h512v168h680v-168h512v512h-168v680h168v512h-512v-168h-680v168h-512v-512h168v-680h-168v-512zM1192 684v-172h-680v172h-172v680h172v172h680v-172h172v-680h-172zM168 340v172h172v-172h-172zM1364 340v172h172v-172h-172zM168 1536v172h172v-172h-172z
M1364 1536v172h172v-172h-172z" />
</svg>
