<?xml version="1.0" standalone="no"?>
<!DOCTYPE svg PUBLIC "-//W3C//DTD SVG 1.1//EN" "http://www.w3.org/Graphics/SVG/1.1/DTD/svg11.dtd" >
<svg xmlns="http://www.w3.org/2000/svg" xmlns:xlink="http://www.w3.org/1999/xlink" version="1.1" viewBox="-10 0 1388 2048">
   <path fill="currentColor"
d="M600 1964q-72 0 -122 -50t-50 -122v-172h512v172q0 72 -50 122t-122 50h-168zM684 84q88 0 176 24q76 100 120 276t44 384q0 136 -20 288q-20 124 -64 308q0 72 -50 122t-122 50h-168q-72 0 -122 -50t-50 -122q-44 -184 -64 -308q-20 -152 -20 -288q0 -208 44 -384
t120 -276q88 -24 176 -24zM1368 684q0 136 -50 300t-138 292q-92 140 -200 192q60 -112 96 -316q36 -196 36 -384q0 -180 -36 -338t-96 -278q188 92 280 204q108 136 108 328zM0 684q0 -192 108 -328q92 -112 280 -204q-60 120 -96 278t-36 338q0 188 36 384q36 204 96 316
q-108 -52 -200 -192q-88 -128 -138 -292t-50 -300z" />
</svg>
