<?xml version="1.0" standalone="no"?>
<!DOCTYPE svg PUBLIC "-//W3C//DTD SVG 1.1//EN" "http://www.w3.org/Graphics/SVG/1.1/DTD/svg11.dtd" >
<svg xmlns="http://www.w3.org/2000/svg" xmlns:xlink="http://www.w3.org/1999/xlink" version="1.1" viewBox="-10 0 1724 2048">
   <path fill="currentColor"
d="M1192 768q144 0 252 36q88 28 152 84q48 44 76 100q20 44 28 84l4 36v172h-512v-172l-4 -40q-4 -52 -24 -104q-24 -72 -68 -128q-20 -24 -52 -56q76 -12 148 -12zM0 1108q0 -16 4 -36q8 -40 28 -84q28 -56 76 -100q64 -56 152 -84q108 -36 252 -36t248 36q92 28 152 84
q48 44 76 100q24 44 32 84l4 36v172h-1024v-172zM596 1452v168h512v-168l256 256l-256 256v-172h-512v172l-256 -256zM512 84q-108 0 -182 76t-74 182t74 180t180 74t182 -74t76 -180t-76 -182t-180 -76zM1192 84q-104 0 -180 76t-76 182t76 180t182 74t180 -74t74 -180
t-74 -182t-182 -76z" />
</svg>
