<?xml version="1.0" standalone="no"?>
<!DOCTYPE svg PUBLIC "-//W3C//DTD SVG 1.1//EN" "http://www.w3.org/Graphics/SVG/1.1/DTD/svg11.dtd" >
<svg xmlns="http://www.w3.org/2000/svg" xmlns:xlink="http://www.w3.org/1999/xlink" version="1.1" viewBox="-10 0 1555 2048">
   <path fill="currentColor"
d="M308 58q96 -76 193.5 -50t171.5 128t98 249q56 0 104 28q88 -99 70 -195t36 -162t138 -54q100 16 188 136q76 96 52 193.5t-128 171.5t-252 98q0 56 -28 104q104 88 198 70t160 36t54 138q-16 100 -136 192q-96 72 -194 48t-172 -128t-98 -248q-52 0 -104 -32
q-88 104 -70 198t-35.5 160t-137.5 54q-100 -12 -188 -132q-76 -96 -52 -196t128 -172t251 -96q0 -56 28 -108q-103 -84 -197 -66t-160 -35.5t-54 -137.5q16 -100 136 -192zM172 1365h168q72 0 122 50t50 121v512h-172v-172h-168v172h-172v-512q0 -71 50 -121t122 -50z
M172 1536v172h168v-172h-168zM847 1365h176l-252 683h-176zM1279 1365h256v171h-256v340h256v172h-256q-72 0 -122 -50t-50 -122v-340q0 -71 50 -121t122 -50z" />
</svg>
