<?xml version="1.0" standalone="no"?>
<!DOCTYPE svg PUBLIC "-//W3C//DTD SVG 1.1//EN" "http://www.w3.org/Graphics/SVG/1.1/DTD/svg11.dtd" >
<svg xmlns="http://www.w3.org/2000/svg" xmlns:xlink="http://www.w3.org/1999/xlink" version="1.1" viewBox="-10 0 1860 2048">
   <path fill="currentColor"
d="M1156 1196q128 0 280 36q172 44 276 116q128 84 128 188v172h-1368v-172q0 -104 128 -188q104 -72 276 -116q152 -36 280 -36zM1156 1024q-140 0 -240 -100t-100 -242t100 -242t240 -100t240 100t100 242t-100 242t-240 100zM304 820l180 -184l120 120l-180 184l180 180
l-120 120l-180 -180l-184 180l-120 -120l184 -180l-184 -184l120 -120z" />
</svg>
