<?xml version="1.0" standalone="no"?>
<!DOCTYPE svg PUBLIC "-//W3C//DTD SVG 1.1//EN" "http://www.w3.org/Graphics/SVG/1.1/DTD/svg11.dtd" >
<svg xmlns="http://www.w3.org/2000/svg" xmlns:xlink="http://www.w3.org/1999/xlink" version="1.1" viewBox="-10 0 1060 2048">
   <path fill="currentColor"
d="M1040 1464q-60 16 -108 16q-152 0 -204 -228h-4q-128 244 -352 244q-168 0 -270 -126t-102 -318q0 -220 114 -360t310 -140q108 0 190 58t126 166l64 -208h216l-180 456q28 160 62 218t86 58q28 0 52 -12v176zM676 1016q-28 -144 -86 -222t-138 -78q-108 0 -170 92
t-62 232q0 128 54 212t146 84q76 0 140 -72t104 -216z" />
</svg>
