<?xml version="1.0" standalone="no"?>
<!DOCTYPE svg PUBLIC "-//W3C//DTD SVG 1.1//EN" "http://www.w3.org/Graphics/SVG/1.1/DTD/svg11.dtd" >
<svg xmlns="http://www.w3.org/2000/svg" xmlns:xlink="http://www.w3.org/1999/xlink" version="1.1" viewBox="-10 0 1724 2048">
   <path fill="currentColor"
d="M340 940q72 0 122 50t50 118v344h-344q-68 0 -118 -50t-50 -122v-172q0 -68 50 -118t118 -50h172zM168 1108v172h172v-172h-172zM1536 1108v172h168v172h-168q-72 0 -122 -50t-50 -122v-172q0 -68 50 -118t122 -50h168v168h-168zM852 596v344h172q68 0 118 50t50 118v172
q0 72 -50 122t-118 50h-172q-72 0 -122 -50t-50 -122v-684h172zM852 1280h172v-172h-172v172z" />
</svg>
