<?xml version="1.0" standalone="no"?>
<!DOCTYPE svg PUBLIC "-//W3C//DTD SVG 1.1//EN" "http://www.w3.org/Graphics/SVG/1.1/DTD/svg11.dtd" >
<svg xmlns="http://www.w3.org/2000/svg" xmlns:xlink="http://www.w3.org/1999/xlink" version="1.1" viewBox="-10 0 1756 2048">
   <path fill="currentColor"
d="M544 286l-120 -120l-76 60l124 120zM1264 1574q-164 140 -380 140q-164 0 -300 -82t-216 -218t-80 -300q0 -212 136 -380zM108 202l-108 108l116 116l-96 76l120 124l96 -80l68 68q-88 100 -138 230t-50 270q0 208 104 386t280 280t384 102q140 0 270 -48t234 -140
l188 188l108 -108zM1736 494l-392 -328l-108 128l392 332zM884 518q164 0 300 80t216 218t80 298q0 104 -36 208l132 128q76 -160 76 -336q0 -208 -104 -384t-280 -280t-384 -104q-176 0 -336 80l132 128q100 -36 204 -36z" />
</svg>
