<?xml version="1.0" standalone="no"?>
<!DOCTYPE svg PUBLIC "-//W3C//DTD SVG 1.1//EN" "http://www.w3.org/Graphics/SVG/1.1/DTD/svg11.dtd" >
<svg xmlns="http://www.w3.org/2000/svg" xmlns:xlink="http://www.w3.org/1999/xlink" version="1.1" viewBox="-10 0 1922 2048">
   <path fill="currentColor"
d="M1317 877q0 -211 -150.5 -361.5t-361.5 -150.5t-361.5 150.5t-150.5 361.5t150.5 361.5t361.5 150.5t361.5 -150.5t150.5 -361.5zM1902 1828q0 60 -43.5 103.5t-103.5 43.5t-102 -44l-392 -391q-205 142 -456 142q-164 0 -313 -63.5t-257 -171.5t-171.5 -257t-63.5 -313
t63.5 -313t171.5 -256.5t257 -171t313 -63.5t313 63.5t256.5 171t171 256.5t63.5 313q0 251 -142 456l392 392q43 43 43 103z" />
</svg>
