<?xml version="1.0" standalone="no"?>
<!DOCTYPE svg PUBLIC "-//W3C//DTD SVG 1.1//EN" "http://www.w3.org/Graphics/SVG/1.1/DTD/svg11.dtd" >
<svg xmlns="http://www.w3.org/2000/svg" xmlns:xlink="http://www.w3.org/1999/xlink" version="1.1" viewBox="-10 0 1724 2048">
   <path fill="currentColor"
d="M512 898q-36 0 -62 -26t-26 -62v-168q0 -36 26 -62t60 -26t60 26t26 62v168q0 36 -26 62t-58 26zM1280 810v-168q0 -36 -26 -62t-60 -26t-60 26t-26 62v168q0 36 26 62t60 26t60 -26t26 -62zM1704 386v1280q0 68 -50 118t-118 50h-1368q-68 0 -118 -50t-50 -118v-1280
q0 -72 50 -122t118 -50h1368q68 0 118 50t50 122zM168 1666h776q-12 -68 -20 -176l-72 4q-200 0 -364 -96q-88 -56 -128 -108q-24 -24 -20 -60t30 -58t62 -20t60 34t92 68q120 68 268 68l64 -4q-4 -104 0 -228h-156q-40 0 -70 -32t-30 -76q8 -108 24 -224q32 -224 84 -372
h-600v1280zM1536 1666v-1280h-632q-76 192 -116 576h156q40 0 70 30t30 74v4q-4 108 0 220q108 -40 168 -108q24 -28 58 -32t62 20t32 58t-20 62q-28 36 -80 72q-96 72 -216 104q12 120 24 200h464z" />
</svg>
