<?xml version="1.0" standalone="no"?>
<!DOCTYPE svg PUBLIC "-//W3C//DTD SVG 1.1//EN" "http://www.w3.org/Graphics/SVG/1.1/DTD/svg11.dtd" >
<svg xmlns="http://www.w3.org/2000/svg" xmlns:xlink="http://www.w3.org/1999/xlink" version="1.1" viewBox="-10 0 1812 2048">
   <path fill="currentColor"
d="M1236 980q0 -72 -12 -172h288q24 92 24 172q0 44 -8 92q88 12 164 56q12 -76 12 -148q0 -232 -114 -428t-310 -310t-428 -114t-428 114t-310 310t-114 428t114 428t310 310t428 114q72 0 148 -12q-64 -112 -64 -244q0 -28 8 -72q-44 88 -92 156q-112 -164 -164 -340h320
q76 -136 220 -204q8 -76 8 -136zM852 300q112 164 164 340h-328q52 -176 164 -340zM192 1152q-24 -92 -24 -172t24 -172h288q-12 100 -12 172t12 172h-288zM260 1320h252q48 172 120 304q-120 -40 -214 -118t-158 -186zM512 640h-252q64 -108 158 -186t214 -118
q-72 132 -120 304zM1052 1152h-400q-12 -92 -12 -172t12 -172h400q12 100 12 172t-12 172zM1072 336q120 40 214 118t158 186h-252q-44 -164 -120 -304zM1792 1492v172h-256v256h-172v-256h-256v-172h256v-256h172v256h256z" />
</svg>
