<?xml version="1.0" standalone="no"?>
<!DOCTYPE svg PUBLIC "-//W3C//DTD SVG 1.1//EN" "http://www.w3.org/Graphics/SVG/1.1/DTD/svg11.dtd" >
<svg xmlns="http://www.w3.org/2000/svg" xmlns:xlink="http://www.w3.org/1999/xlink" version="1.1" viewBox="-10 0 1408 2048">
   <path fill="currentColor"
d="M1268 1664q-68 100 -112 144q-72 64 -148 68q-56 0 -136 -34t-144 -34q-48 0 -88 12q-24 8 -68 24q-72 32 -124 32q-72 4 -148 -68q-48 -44 -120 -148q-76 -112 -124 -256q-56 -160 -56 -312q4 -168 72 -292q56 -96 150 -154t202 -58q64 0 176 44q76 28 104 28t100 -28
t108 -36q64 -16 120 -12q72 4 136 32q108 40 172 136q-56 36 -100 88q-84 108 -84 236q4 116 60 204q44 64 112 112q36 24 60 32l-4 4q-44 128 -116 236zM780 300q48 -56 118 -92t134 -36q8 72 -16 144t-72 128t-116 90t-136 30q-8 -68 20 -144q24 -68 68 -120z" />
</svg>
