<?xml version="1.0" standalone="no"?>
<!DOCTYPE svg PUBLIC "-//W3C//DTD SVG 1.1//EN" "http://www.w3.org/Graphics/SVG/1.1/DTD/svg11.dtd" >
<svg xmlns="http://www.w3.org/2000/svg" xmlns:xlink="http://www.w3.org/1999/xlink" version="1.1" viewBox="-10 0 1922 2048">
   <path fill="currentColor"
d="M1299 1228l350 -339l-482 -71l-216 -437l-216 437l-482 71l349 339l-83 481l432 -227l431 227zM1902 820q0 25 -30 55l-415 404l98 572q2 16 2 23q0 25 -12 41t-35 16q-22 0 -46 -14l-513 -270l-513 270q-26 14 -46 14q-23 0 -35.5 -16.5t-12.5 -40.5q0 -7 2 -23l99 -572
l-416 -404q-29 -31 -29 -55q0 -42 64 -53l574 -83l257 -520q21 -47 56 -47t56 47l257 520l574 83q64 12 64 53z" />
</svg>
