<?xml version="1.0" standalone="no"?>
<!DOCTYPE svg PUBLIC "-//W3C//DTD SVG 1.1//EN" "http://www.w3.org/Graphics/SVG/1.1/DTD/svg11.dtd" >
<svg xmlns="http://www.w3.org/2000/svg" xmlns:xlink="http://www.w3.org/1999/xlink" version="1.1" viewBox="-10 0 1556 2048">
   <path fill="currentColor"
d="M684 1452q0 36 24 60t60 24t60 -24t24 -60t-24 -62t-60 -26t-60 26t-24 62zM684 256v340h168v-164q144 24 262 106t184 210t66 276q0 164 -80 300t-216 216t-300 80t-300 -80t-216 -216t-80 -300q0 -212 132 -376l464 460l120 -120l-580 -580v4q-144 104 -226 266
t-82 346q0 208 104 384t280 280t384 104t384 -104t280 -280t104 -384t-104 -384t-280 -280t-384 -104h-84zM1280 1024q0 -36 -24 -60t-60 -24t-62 24t-26 60t26 60t62 24t60 -24t24 -60zM256 1024q0 36 24 60t60 24t62 -24t26 -60t-26 -60t-62 -24t-60 24t-24 60z" />
</svg>
