<?xml version="1.0" standalone="no"?>
<!DOCTYPE svg PUBLIC "-//W3C//DTD SVG 1.1//EN" "http://www.w3.org/Graphics/SVG/1.1/DTD/svg11.dtd" >
<svg xmlns="http://www.w3.org/2000/svg" xmlns:xlink="http://www.w3.org/1999/xlink" version="1.1" viewBox="-10 0 1812 2048">
   <path fill="currentColor"
d="M1024 256q-208 0 -384 104t-280 280t-104 384h-256l340 340l344 -340h-256q0 -164 80 -300t216 -216t300 -80t300 80t216 216t80 300t-80 300t-216 216t-300 80q-188 0 -348 -108l-120 120q208 160 468 160q208 0 384 -104t280 -280t104 -384t-104 -384t-280 -280
t-384 -104zM1196 1024q0 -72 -50 -122t-122 -50t-122 50t-50 122t50 122t122 50t122 -50t50 -122z" />
</svg>
