<?xml version="1.0" standalone="no"?>
<!DOCTYPE svg PUBLIC "-//W3C//DTD SVG 1.1//EN" "http://www.w3.org/Graphics/SVG/1.1/DTD/svg11.dtd" >
<svg xmlns="http://www.w3.org/2000/svg" xmlns:xlink="http://www.w3.org/1999/xlink" version="1.1" viewBox="-10 0 1556 2048">
   <path fill="currentColor"
d="M1452 1108q32 0 58 -24t26 -60t-26 -60t-58 -24h-88v-512h88q32 0 58 -26t26 -60t-26 -60t-58 -26h-1368q-32 0 -58 26t-26 60t26 60t58 26h88v512h-88q-32 0 -58 24t-26 60t26 60t58 24h88v512h-88q-32 0 -58 26t-26 60t26 60t58 26h1368q32 0 58 -26t26 -60t-26 -60
t-58 -26h-88v-512h88zM768 1364q-108 0 -182 -74t-74 -178q0 -68 36 -120q24 -44 144 -180l76 -88l84 96q112 128 136 172q36 52 36 120q0 104 -74 178t-182 74z" />
</svg>
