<?xml version="1.0" standalone="no"?>
<!DOCTYPE svg PUBLIC "-//W3C//DTD SVG 1.1//EN" "http://www.w3.org/Graphics/SVG/1.1/DTD/svg11.dtd" >
<svg xmlns="http://www.w3.org/2000/svg" xmlns:xlink="http://www.w3.org/1999/xlink" version="1.1" viewBox="-10 0 1812 2048">
   <path fill="currentColor"
d="M1792 1812l-1684 -1684l-108 108l444 444l-28 68h96l128 128h-564v128h692l288 288q-12 28 -24 60q-108 -44 -208 0q-28 -112 -120 -188t-208 -76q-140 0 -238 100t-98 242t98 242t234 100t232 -90t104 -226q36 -24 76 -28q64 -8 124 32q12 132 106 222t226 90
q76 0 140 -32l184 180zM496 1676q-100 0 -170 -72t-70 -174t70 -172t170 -70t170 70t70 172t-70 174t-170 72zM1360 1676q-100 0 -170 -72t-70 -172q0 -32 8 -64l300 296q-36 12 -68 12zM1780 1004h-580l-128 -128h708v128zM1360 1088q140 0 238 100t98 244q0 28 -4 60
l-96 -92q-8 -84 -68 -142t-140 -70l-92 -92q32 -8 64 -8zM944 748l-380 -384l60 -156q12 -32 44 -48t64 -4l196 64l188 -64q36 -12 68 2t48 46l208 544h-496z" />
</svg>
