<?xml version="1.0" standalone="no"?>
<!DOCTYPE svg PUBLIC "-//W3C//DTD SVG 1.1//EN" "http://www.w3.org/Graphics/SVG/1.1/DTD/svg11.dtd" >
<svg xmlns="http://www.w3.org/2000/svg" xmlns:xlink="http://www.w3.org/1999/xlink" version="1.1" viewBox="-10 0 1483 2048">
   <path fill="currentColor"
d="M1463 1598q0 126 -71.5 215t-172.5 89h-976q-100 0 -171.5 -89t-71.5 -215q0 -67 5 -130.5t17 -129t31 -121.5t48.5 -106t67.5 -85t90.5 -55.5t114.5 -20.5q72 70 163.5 109t193.5 39t194 -39t164 -109q62 0 114.5 20.5t90.5 55.5t67.5 85t48.5 106t31 121.5t17 129
t5 130.5zM1170 585.5q0 89.5 -35 170.5t-93.5 140t-140 93.5t-170.5 34.5t-170 -34.5t-140 -93.5t-93.5 -140t-34.5 -170.5t34.5 -170.5t93.5 -140t140 -94t170 -35t170.5 35t140 94t93.5 140t35 170.5z" />
</svg>
