<?xml version="1.0" standalone="no"?>
<!DOCTYPE svg PUBLIC "-//W3C//DTD SVG 1.1//EN" "http://www.w3.org/Graphics/SVG/1.1/DTD/svg11.dtd" >
<svg xmlns="http://www.w3.org/2000/svg" xmlns:xlink="http://www.w3.org/1999/xlink" version="1.1" viewBox="-10 0 956 2048">
   <path fill="currentColor"
d="M68 1554q-44 -64 -60 -156q-8 -56 -8 -172q140 84 204 132q104 72 152 140l28 48v-196q-116 -68 -180 -116q-92 -68 -136 -130t-60 -154q-8 -56 -8 -172q140 84 204 132q104 72 152 140l28 48v-196q-116 -68 -180 -116q-92 -68 -136 -130t-60 -154q-8 -56 -8 -172
q140 84 204 132q104 72 152 140q12 16 20 40q-24 -88 -24 -156q0 -84 36 -196q20 -64 76 -196q60 124 80 188q40 108 40 192q0 76 -24 164l20 -36q48 -68 152 -140q64 -48 204 -132q0 116 -8 172q-16 92 -60 154t-136 130q-64 48 -180 116v196l28 -48q48 -68 152 -140
q64 -48 204 -132q0 116 -8 172q-16 92 -60 154t-136 130q-64 48 -180 116v196l28 -48q48 -68 152 -140q64 -48 204 -132q0 116 -8 172q-16 92 -60 154t-136 130q-64 48 -180 116v156h-168v-156q-116 -68 -180 -116q-92 -68 -136 -128z" />
</svg>
