<?xml version="1.0" standalone="no"?>
<!DOCTYPE svg PUBLIC "-//W3C//DTD SVG 1.1//EN" "http://www.w3.org/Graphics/SVG/1.1/DTD/svg11.dtd" >
<svg xmlns="http://www.w3.org/2000/svg" xmlns:xlink="http://www.w3.org/1999/xlink" version="1.1" viewBox="-10 0 1900 2048">
   <path fill="currentColor"
d="M384 1834q-48 0 -88 -26t-64 -66l-224 -808l-8 -40q0 -36 26 -60t62 -24h388l396 -560q24 -36 68 -36t72 36l392 560h388q36 0 62 24t26 60l-4 28l-228 820q-24 40 -64 66t-88 26h-1112zM940 446l-256 364h512zM940 1150q-72 0 -122 50t-50 122t50 122t122 50t122 -50
t50 -122t-50 -122t-122 -50z" />
</svg>
