<?xml version="1.0" standalone="no"?>
<!DOCTYPE svg PUBLIC "-//W3C//DTD SVG 1.1//EN" "http://www.w3.org/Graphics/SVG/1.1/DTD/svg11.dtd" >
<svg xmlns="http://www.w3.org/2000/svg" xmlns:xlink="http://www.w3.org/1999/xlink" version="1.1" viewBox="-10 0 2214 2048">
   <path fill="currentColor"
d="M439 1755v-146q0 -30 -21.5 -51.5t-51.5 -21.5h-147q-30 0 -51.5 21.5t-21.5 51.5v146q0 30 21.5 51.5t51.5 21.5h147q30 0 51.5 -21.5t21.5 -51.5zM439 1316v-146q0 -30 -21.5 -51.5t-51.5 -21.5h-147q-30 0 -51.5 21.5t-21.5 51.5v146q0 30 21.5 51.5t51.5 21.5h147
q30 0 51.5 -21.5t21.5 -51.5zM439 877v-146q0 -30 -21.5 -51.5t-51.5 -21.5h-147q-30 0 -51.5 21.5t-21.5 51.5v146q0 30 21.5 52t51.5 22h147q30 0 51.5 -22t21.5 -52zM1609 1755v-585q0 -30 -21.5 -51.5t-51.5 -21.5h-878q-30 0 -51.5 21.5t-21.5 51.5v585q0 30 21.5 51.5
t51.5 21.5h878q30 0 51.5 -21.5t21.5 -51.5zM439 439v-147q0 -30 -21.5 -51.5t-51.5 -21.5h-147q-30 0 -51.5 21.5t-21.5 51.5v147q0 30 21.5 51.5t51.5 21.5h147q30 0 51.5 -21.5t21.5 -51.5zM2048 1755v-146q0 -30 -21.5 -51.5t-51.5 -21.5h-146q-30 0 -52 21.5t-22 51.5
v146q0 30 22 51.5t52 21.5h146q30 0 51.5 -21.5t21.5 -51.5zM1609 877v-585q0 -30 -21.5 -51.5t-51.5 -21.5h-878q-30 0 -51.5 21.5t-21.5 51.5v585q0 30 21.5 52t51.5 22h878q30 0 51.5 -22t21.5 -52zM2048 1316v-146q0 -30 -21.5 -51.5t-51.5 -21.5h-146q-30 0 -52 21.5
t-22 51.5v146q0 30 22 51.5t52 21.5h146q30 0 51.5 -21.5t21.5 -51.5zM2048 877v-146q0 -30 -21.5 -51.5t-51.5 -21.5h-146q-30 0 -52 21.5t-22 51.5v146q0 30 22 52t52 22h146q30 0 51.5 -22t21.5 -52zM2048 439v-147q0 -30 -21.5 -51.5t-51.5 -21.5h-146q-30 0 -52 21.5
t-22 51.5v147q0 30 22 51.5t52 21.5h146q30 0 51.5 -21.5t21.5 -51.5zM2194 256v1536q0 76 -53.5 129.5t-129.5 53.5h-1828q-76 0 -129.5 -53.5t-53.5 -129.5v-1536q0 -76 53.5 -129.5t129.5 -53.5h1828q76 0 129.5 53.5t53.5 129.5z" />
</svg>
