<?xml version="1.0" standalone="no"?>
<!DOCTYPE svg PUBLIC "-//W3C//DTD SVG 1.1//EN" "http://www.w3.org/Graphics/SVG/1.1/DTD/svg11.dtd" >
<svg xmlns="http://www.w3.org/2000/svg" xmlns:xlink="http://www.w3.org/1999/xlink" version="1.1" viewBox="-10 0 1922 2048">
   <path fill="currentColor"
d="M878 1244v438q0 60 -43.5 103t-103.5 43h-585q-60 0 -103 -43t-43 -103v-438q0 -60 43 -103t103 -43h585q60 0 103.5 43t43.5 103zM878 366v438q0 60 -43.5 103t-103.5 43h-585q-60 0 -103 -43t-43 -103v-438q0 -60 43 -103t103 -43h585q60 0 103.5 43t43.5 103z
M1902 1244v438q0 60 -43.5 103t-103.5 43h-585q-60 0 -103 -43t-43 -103v-438q0 -60 43 -103t103 -43h585q60 0 103.5 43t43.5 103zM1902 366v438q0 60 -43.5 103t-103.5 43h-585q-60 0 -103 -43t-43 -103v-438q0 -60 43 -103t103 -43h585q60 0 103.5 43t43.5 103z" />
</svg>
