<?xml version="1.0" standalone="no"?>
<!DOCTYPE svg PUBLIC "-//W3C//DTD SVG 1.1//EN" "http://www.w3.org/Graphics/SVG/1.1/DTD/svg11.dtd" >
<svg xmlns="http://www.w3.org/2000/svg" xmlns:xlink="http://www.w3.org/1999/xlink" version="1.1" viewBox="-10 0 1900 2048">
   <path fill="currentColor"
d="M512 1152q108 0 182 -76t74 -182t-74 -180t-180 -74t-182 74t-76 180t76 182t180 76zM512 808q36 0 62 26t26 60t-26 60t-60 26t-60 -26t-26 -60t26 -60t58 -26zM1536 552h-680v684h-684v-852h-172v1280h172v-256h1536v256h172v-768q0 -144 -100 -244t-244 -100z
M1708 1236h-684v-512h512q72 0 122 50t50 122v340z" />
</svg>
