<?xml version="1.0" standalone="no"?>
<!DOCTYPE svg PUBLIC "-//W3C//DTD SVG 1.1//EN" "http://www.w3.org/Graphics/SVG/1.1/DTD/svg11.dtd" >
<svg xmlns="http://www.w3.org/2000/svg" xmlns:xlink="http://www.w3.org/1999/xlink" version="1.1" viewBox="-10 0 1556 2048">
   <path fill="currentColor"
d="M596 1748h344q0 72 -50 122t-122 50t-122 -50t-50 -122zM1536 1576v88h-1536v-88l172 -168v-512q0 -200 116 -358t308 -214v-28q0 -68 50 -118t122 -50t122 50t50 118v28q192 56 308 214t116 358v512zM1196 896q0 -120 -58 -218t-156 -154t-214 -56t-214 56t-156 154
t-58 218v596h856v-596z" />
</svg>
