<?xml version="1.0" standalone="no"?>
<!DOCTYPE svg PUBLIC "-//W3C//DTD SVG 1.1//EN" "http://www.w3.org/Graphics/SVG/1.1/DTD/svg11.dtd" >
<svg xmlns="http://www.w3.org/2000/svg" xmlns:xlink="http://www.w3.org/1999/xlink" version="1.1" viewBox="-10 0 1900 2048">
   <path fill="currentColor"
d="M1708 1576v88h-1536v-88l172 -168v-512q0 -200 118 -358t306 -214v-28q0 -68 50 -118t122 -50t122 50t50 118v28q188 56 306 214t118 358v512zM1112 1748q0 72 -50 122t-122 50t-122 -50t-50 -122h344zM1600 228l-120 120q108 108 168 250t60 298h172q0 -188 -72 -362
t-208 -306zM0 896h172q0 -156 60 -298t168 -250l-120 -120q-136 132 -208 306t-72 362z" />
</svg>
