<?xml version="1.0" standalone="no"?>
<!DOCTYPE svg PUBLIC "-//W3C//DTD SVG 1.1//EN" "http://www.w3.org/Graphics/SVG/1.1/DTD/svg11.dtd" >
<svg xmlns="http://www.w3.org/2000/svg" xmlns:xlink="http://www.w3.org/1999/xlink" version="1.1" viewBox="-11 0 1900 2048">
   <path fill="currentColor"
d="M987 262q-40 0 -72 22t-36 54t24 56l244 196l-744 4q-48 0 -86 26t-48 66t18 68t76 28l380 -4l-676 520q-52 40 -64 92t18 90t86 38t108 -36l364 -304v24q-4 28 -4 44q0 44 20 108q36 120 126 218t220 156t282 58t288 -60q124 -56 214 -156t126 -220q20 -52 28 -120
q0 -80 -8 -120q-16 -116 -76 -212t-148 -164l-588 -452q-28 -20 -72 -20zM1223 778q152 0 268 96q56 44 90 104t40 134t-20 142t-82 126t-132 90t-162 32t-164 -30t-134 -88t-82 -128t-18 -142t42 -134t90 -106q112 -96 264 -96zM1231 898q-100 0 -174 64t-78 158t68 166
t184 72t186 -72t70 -166t-80 -158t-176 -64z" />
</svg>
