<?xml version="1.0" standalone="no"?>
<!DOCTYPE svg PUBLIC "-//W3C//DTD SVG 1.1//EN" "http://www.w3.org/Graphics/SVG/1.1/DTD/svg11.dtd" >
<svg xmlns="http://www.w3.org/2000/svg" xmlns:xlink="http://www.w3.org/1999/xlink" version="1.1" viewBox="-10 0 1900 2048">
   <path fill="currentColor"
d="M1880 1372q0 36 -4 52q-12 -164 -134 -278t-290 -114q-40 0 -92 12v8q8 36 8 56q0 152 -96 266t-240 146q20 144 130 244t262 108q-20 4 -56 4q-132 0 -246 -60t-182 -164q-68 104 -182 164t-246 60q-36 0 -56 -4q152 -8 260 -108t132 -244q-144 -32 -240 -146t-96 -266
q0 -16 4 -48l4 -16q-52 -12 -92 -12q-168 0 -290 114t-134 278q-4 -16 -4 -52q0 -136 68 -250t180 -184t248 -74q-68 -116 -68 -254t72 -256t188 -182q-80 56 -128 146t-48 194q0 84 34 162t94 138q124 -124 300 -124q88 0 164 32t136 92q60 -60 94 -138t34 -162
q0 -104 -48 -194t-128 -146q116 64 188 182t72 256t-68 254q136 4 250 74t180 184t66 250zM708 864q104 68 232 68t232 -68q-100 -92 -232 -92t-232 92zM940 1236q52 0 90 -38t38 -90t-38 -90t-90 -38t-90 38t-38 90t38 90t90 38zM852 1432q-8 -120 -74 -216t-174 -144
l-4 36q0 116 70 206t182 118zM1276 1072q-104 48 -174 144t-78 216q112 -28 184 -118t72 -206z" />
</svg>
