<?xml version="1.0" standalone="no"?>
<!DOCTYPE svg PUBLIC "-//W3C//DTD SVG 1.1//EN" "http://www.w3.org/Graphics/SVG/1.1/DTD/svg11.dtd" >
<svg xmlns="http://www.w3.org/2000/svg" xmlns:xlink="http://www.w3.org/1999/xlink" version="1.1" viewBox="-10 0 1724 2048">
   <path fill="currentColor"
d="M1280 940h256q68 0 118 50t50 122v256q0 68 -50 118t-118 50h-256q-72 0 -122 -50t-50 -118v-256q0 -72 50 -122t122 -50zM1280 1112v256h256v-256h-256zM0 512h424q72 0 122 50t50 122v172q0 68 -50 118t-122 50q72 0 122 50t50 122v172q0 68 -50 118t-122 50h-424
v-1024zM168 684v256h256v-256h-256zM168 1368h256v-256h-256v256zM768 1024h168v512h-168v-512zM768 684h168v172h-168v-172z" />
</svg>
