<?xml version="1.0" standalone="no"?>
<!DOCTYPE svg PUBLIC "-//W3C//DTD SVG 1.1//EN" "http://www.w3.org/Graphics/SVG/1.1/DTD/svg11.dtd" >
<svg xmlns="http://www.w3.org/2000/svg" xmlns:xlink="http://www.w3.org/1999/xlink" version="1.1" viewBox="-10 0 1900 2048">
   <path fill="currentColor"
d="M856 1672l700 -700q68 -68 152 -68t152 68l20 16v-692q0 -68 -50 -118t-122 -50h-1536q-72 0 -122 50t-50 118v1368q0 68 50 118t122 50h684v-160zM172 296h1536v256h-1536v-256zM1708 1072q-16 0 -36 20l-84 84l180 180l84 -84q12 -16 12 -36t-12 -36l-108 -108
q-20 -20 -36 -20zM1544 1228l-520 512v180h180l520 -520z" />
</svg>
