<?xml version="1.0" standalone="no"?>
<!DOCTYPE svg PUBLIC "-//W3C//DTD SVG 1.1//EN" "http://www.w3.org/Graphics/SVG/1.1/DTD/svg11.dtd" >
<svg xmlns="http://www.w3.org/2000/svg" xmlns:xlink="http://www.w3.org/1999/xlink" version="1.1" viewBox="-10 0 1724 2048">
   <path fill="currentColor"
d="M1024 1108q-36 0 -62 26t-26 62t26 60t62 24t60 -24t24 -60t-24 -62t-60 -26zM1024 1408q-20 0 -32 12t-12 30t12 30t30 12t30 -12t12 -30t-12 -30t-28 -12zM852 1708q-184 0 -342 -92t-250 -250t-92 -342t92 -342t250 -250t342 -92t342 92t250 250t92 342t-92 342
t-250 250t-342 92zM852 172q-168 0 -326 64t-278 184t-184 278t-64 326t64 326t184 278t278 184t326 64t326 -64t278 -184t184 -278t64 -326t-64 -326t-184 -278t-278 -184t-326 -64zM1280 812q-20 0 -32 12t-12 30t12 30t30 12t30 -12t12 -30t-12 -30t-28 -12zM1280 1152
q-20 0 -32 12t-12 30t12 30t30 12t30 -12t12 -30t-12 -30t-28 -12zM1024 640q16 0 28 -12t12 -30t-12 -30t-30 -12t-30 12t-12 30t12 30t32 12zM1024 768q-36 0 -62 24t-26 60t26 62t62 26t60 -26t24 -62t-24 -60t-60 -24zM680 640q20 0 32 -12t12 -30t-12 -30t-30 -12
t-30 12t-12 30t12 30t28 12zM424 1152q-16 0 -28 12t-12 30t12 30t30 12t30 -12t12 -30t-12 -30t-32 -12zM680 1408q-16 0 -28 12t-12 30t12 30t30 12t30 -12t12 -30t-12 -30t-32 -12zM424 812q-16 0 -28 12t-12 30t12 30t30 12t30 -12t12 -30t-12 -30t-32 -12zM680 1108
q-36 0 -60 26t-24 62t24 60t60 24t62 -24t26 -60t-26 -62t-62 -26zM680 768q-36 0 -60 24t-24 60t24 62t60 26t62 -26t26 -62t-26 -60t-62 -24z" />
</svg>
