<?xml version="1.0" standalone="no"?>
<!DOCTYPE svg PUBLIC "-//W3C//DTD SVG 1.1//EN" "http://www.w3.org/Graphics/SVG/1.1/DTD/svg11.dtd" >
<svg xmlns="http://www.w3.org/2000/svg" xmlns:xlink="http://www.w3.org/1999/xlink" version="1.1" viewBox="-10 0 1556 2048">
   <path fill="currentColor"
d="M852 1452q36 0 62 -26t26 -62t-26 -60t-62 -24t-60 24t-24 60t24 62t60 26zM852 1108q36 0 62 -24t26 -60t-26 -60t-62 -24t-60 24t-24 60t24 60t60 24zM852 768q36 0 62 -24t26 -60t-26 -62t-62 -26t-60 26t-24 62t24 60t60 24zM1196 1068q16 0 28 -14t12 -30t-12 -30
t-30 -14t-30 14t-12 30t12 30t32 14zM1196 724q16 0 28 -12t12 -30t-12 -30t-30 -12t-30 12t-12 30t12 30t32 12zM0 256v172h1536v-172h-1536zM1196 1408q16 0 28 -12t12 -30t-12 -30t-30 -12t-30 12t-12 30t12 30t32 12zM512 1452q36 0 60 -26t24 -62t-24 -60t-60 -24
t-60 24t-24 60t24 62t60 26zM172 1152q52 0 90 -38t38 -90t-38 -90t-92 -38t-90 38t-36 90t36 90t92 38zM172 812q52 0 90 -38t38 -92t-38 -90t-92 -36t-90 36t-36 90t36 92t92 38zM0 1792h1536v-172h-1536v172zM512 768q36 0 60 -24t24 -60t-24 -62t-60 -26t-60 26t-24 62
t24 60t60 24zM512 1108q36 0 60 -24t24 -60t-24 -60t-60 -24t-60 24t-24 60t24 60t60 24zM172 1492q52 0 90 -36t38 -90t-38 -92t-92 -38t-90 38t-36 92t36 90t92 36z" />
</svg>
