<?xml version="1.0" standalone="no"?>
<!DOCTYPE svg PUBLIC "-//W3C//DTD SVG 1.1//EN" "http://www.w3.org/Graphics/SVG/1.1/DTD/svg11.dtd" >
<svg xmlns="http://www.w3.org/2000/svg" xmlns:xlink="http://www.w3.org/1999/xlink" version="1.1" viewBox="-10 0 1644 2048">
   <path fill="currentColor"
d="M984 724q-56 0 -92 38t-36 92t36 90t90 36t92 -36t38 -90t-38 -92t-90 -38zM984 1068q-56 0 -92 36t-36 90t36 92t90 38t92 -38t38 -92t-38 -90t-90 -36zM640 1452q-36 0 -60 24t-24 60t24 60t60 24t62 -24t26 -60t-26 -60t-62 -24zM640 724q-52 0 -90 38t-38 92t38 90
t92 36t90 -36t36 -90t-36 -92t-92 -38zM984 1748q-20 0 -32 14t-12 30t12 30t30 14t30 -14t12 -30t-12 -30t-28 -14zM984 1452q-36 0 -62 24t-26 60t26 60t62 24t60 -24t24 -60t-24 -60t-60 -24zM1580 1152q-16 0 -30 12t-14 30t14 30t30 12t30 -12t14 -30t-14 -30t-30 -12z
M1324 428q-36 0 -60 24t-24 60t24 60t60 24t60 -24t24 -60t-24 -60t-60 -24zM1324 768q-36 0 -60 24t-24 60t24 62t60 26t60 -26t24 -62t-24 -60t-60 -24zM1324 1452q-36 0 -60 24t-24 60t24 60t60 24t60 -24t24 -60t-24 -60t-60 -24zM1324 1108q-36 0 -60 26t-24 62t24 60
t60 24t60 -24t24 -60t-24 -62t-60 -26zM640 1068q-52 0 -90 36t-38 90t38 92t92 38t90 -38t36 -92t-36 -90t-92 -36zM640 596q36 0 62 -24t26 -60t-26 -60t-62 -24t-60 24t-24 60t24 60t60 24zM640 300q20 0 32 -14t12 -30t-12 -30t-30 -14t-30 14t-12 30t12 30t28 14z
M640 1748q-16 0 -28 14t-12 30t12 30t30 14t30 -14t12 -30t-12 -30t-32 -14zM44 1152q-16 0 -30 12t-14 30t14 30t30 12t30 -12t14 -30t-14 -30t-30 -12zM984 300q16 0 28 -14t12 -30t-12 -30t-30 -14t-30 14t-12 30t12 30t32 14zM984 596q36 0 60 -24t24 -60t-24 -60
t-60 -24t-62 24t-26 60t26 60t62 24zM1580 896q16 0 30 -12t14 -30t-14 -30t-30 -12t-30 12t-14 30t14 30t30 12zM300 428q-36 0 -60 24t-24 60t24 60t60 24t60 -24t24 -60t-24 -60t-60 -24zM44 812q-16 0 -30 12t-14 30t14 30t30 12t30 -12t14 -30t-14 -30t-30 -12z
M300 768q-36 0 -60 24t-24 60t24 62t60 26t60 -26t24 -62t-24 -60t-60 -24zM300 1452q-36 0 -60 24t-24 60t24 60t60 24t60 -24t24 -60t-24 -60t-60 -24zM300 1108q-36 0 -60 26t-24 62t24 60t60 24t60 -24t24 -60t-24 -62t-60 -26z" />
</svg>
