<?xml version="1.0" standalone="no"?>
<!DOCTYPE svg PUBLIC "-//W3C//DTD SVG 1.1//EN" "http://www.w3.org/Graphics/SVG/1.1/DTD/svg11.dtd" >
<svg xmlns="http://www.w3.org/2000/svg" xmlns:xlink="http://www.w3.org/1999/xlink" version="1.1" viewBox="-10 0 1644 2048">
   <path fill="currentColor"
d="M44 1152q-16 0 -30 12t-14 30t14 30t30 12t30 -12t14 -30t-14 -30t-30 -12zM300 1452q-36 0 -60 24t-24 60t24 60t60 24t60 -24t24 -60t-24 -60t-60 -24zM640 1748q-16 0 -28 14t-12 30t12 30t30 14t30 -14t12 -30t-12 -30t-32 -14zM44 812q-16 0 -30 12t-14 30t14 30
t30 12t30 -12t14 -30t-14 -30t-30 -12zM300 1108q-36 0 -60 26t-24 62t24 60t60 24t60 -24t24 -60t-24 -62t-60 -26zM1580 1152q-16 0 -30 12t-14 30t14 30t30 12t30 -12t14 -30t-14 -30t-30 -12zM640 1452q-36 0 -60 24t-24 60t24 60t60 24t62 -24t26 -60t-26 -60t-62 -24z
M0 448l324 324l-24 -4q-36 0 -60 24t-24 60t24 62t60 26t60 -26t24 -62q0 -8 -4 -24l240 240q-44 8 -76 44t-32 86t38 88t88 38t86 -32t44 -76l240 240q-16 -4 -24 -4q-36 0 -62 24t-26 60t26 60t62 24t60 -24t24 -60q0 -8 -4 -24l320 324l112 -108l-1388 -1388zM984 1748
q-20 0 -32 14t-12 30t12 30t30 14t30 -14t12 -30t-12 -30t-28 -14zM1324 596q36 0 60 -24t24 -60t-24 -60t-60 -24t-60 24t-24 60t24 60t60 24zM1324 940q36 0 60 -26t24 -62t-24 -60t-60 -24t-60 24t-24 60t24 62t60 26zM1324 1280q36 0 60 -24t24 -60t-24 -62t-60 -26
t-60 26t-24 62t24 60t60 24zM640 596q36 0 62 -24t26 -60t-26 -60t-62 -24t-60 24t-24 60t24 60t60 24zM1580 896q16 0 30 -12t14 -30t-14 -30t-30 -12t-30 12t-14 30t14 30t30 12zM640 300q20 0 32 -14t12 -30t-12 -30t-30 -14t-30 14t-12 30t12 30t28 14zM984 300
q16 0 28 -14t12 -30t-12 -30t-30 -14t-30 14t-12 30t12 30t32 14zM964 980h20q52 0 90 -36t38 -90t-38 -92t-92 -38t-90 38t-36 90v20q4 40 36 72t72 36zM984 596q36 0 60 -24t24 -60t-24 -60t-60 -24t-62 24t-26 60t26 60t62 24z" />
</svg>
