<?xml version="1.0" standalone="no"?>
<!DOCTYPE svg PUBLIC "-//W3C//DTD SVG 1.1//EN" "http://www.w3.org/Graphics/SVG/1.1/DTD/svg11.dtd" >
<svg xmlns="http://www.w3.org/2000/svg" xmlns:xlink="http://www.w3.org/1999/xlink" version="1.1" viewBox="-10 0 1556 2048">
   <path fill="currentColor"
d="M1364 1792h172v-172h-172v172zM1024 1792h172v-172h-172v172zM684 1452h168v-172h-168v172zM1364 768h172v-172h-172v172zM1364 428h172v-172h-172v172zM0 1108h1536v-168h-1536v168zM684 1792h168v-172h-168v172zM1364 1452h172v-172h-172v172zM852 256h-168v172h168
v-172zM852 596h-168v172h168v-172zM1196 256h-172v172h172v-172zM512 256h-172v172h172v-172zM172 256h-172v172h172v-172zM340 1792h172v-172h-172v172zM0 1452h172v-172h-172v172zM172 596h-172v172h172v-172zM0 1792h172v-172h-172v172z" />
</svg>
