<?xml version="1.0" standalone="no"?>
<!DOCTYPE svg PUBLIC "-//W3C//DTD SVG 1.1//EN" "http://www.w3.org/Graphics/SVG/1.1/DTD/svg11.dtd" >
<svg xmlns="http://www.w3.org/2000/svg" xmlns:xlink="http://www.w3.org/1999/xlink" version="1.1" viewBox="-10 0 1556 2048">
   <path fill="currentColor"
d="M172 1280h-172v172h172v-172zM0 1792h1536v-172h-1536v172zM172 940h-172v168h172v-168zM1364 768h172v-172h-172v172zM1364 428h172v-172h-172v172zM172 596h-172v172h172v-172zM1364 1452h172v-172h-172v172zM1364 1108h172v-168h-172v168zM1196 256h-172v172h172v-172
zM852 256h-168v172h168v-172zM1196 940h-172v168h172v-168zM852 596h-168v172h168v-172zM172 256h-172v172h172v-172zM852 940h-168v168h168v-168zM512 256h-172v172h172v-172zM852 1280h-168v172h168v-172zM512 940h-172v168h172v-168z" />
</svg>
