<?xml version="1.0" standalone="no"?>
<!DOCTYPE svg PUBLIC "-//W3C//DTD SVG 1.1//EN" "http://www.w3.org/Graphics/SVG/1.1/DTD/svg11.dtd" >
<svg xmlns="http://www.w3.org/2000/svg" xmlns:xlink="http://www.w3.org/1999/xlink" version="1.1" viewBox="-10 0 1724 2048">
   <path fill="currentColor"
d="M852 172q168 0 326 64t278 184t184 278t64 326t-64 326t-184 278t-278 184t-326 64t-326 -64t-278 -184t-184 -278t-64 -326t64 -326t184 -278t278 -184t326 -64zM896 940q-56 0 -92 36t-36 90t36 92t90 38t92 -38t38 -92t-38 -90t-90 -36zM852 428q-72 0 -122 50
t-50 120t50 120t122 50t122 -50t50 -120t-50 -120t-122 -50zM336 724q-36 64 -18 132t78 102t130 16t104 -80t16 -130t-78 -102t-128 -16t-104 78z" />
</svg>
