<?xml version="1.0" standalone="no"?>
<!DOCTYPE svg PUBLIC "-//W3C//DTD SVG 1.1//EN" "http://www.w3.org/Graphics/SVG/1.1/DTD/svg11.dtd" >
<svg xmlns="http://www.w3.org/2000/svg" xmlns:xlink="http://www.w3.org/1999/xlink" version="1.1" viewBox="-10 0 1900 2048">
   <path fill="currentColor"
d="M1228 1178q0 -92 -64 -156t-154 -64t-154 64t-64 156q0 88 64 152t154 64t154 -64t64 -152zM1376 1178q0 148 -108 256t-260 108q-100 0 -186 -54t-134 -142q-48 88 -134 142t-186 54q-152 0 -258 -106t-110 -254v-608q0 -28 22 -48t52 -20t52 20t22 48v312
q96 -76 220 -76q100 0 186 54t134 142q48 -88 134 -142t186 -54q152 0 260 108t108 260zM584 1178q0 -92 -64 -156t-154 -64t-154 64t-64 156q0 88 64 152t154 64t154 -64t64 -152zM1864 1426q16 20 16 44q0 36 -32 56q-20 16 -40 16q-36 0 -56 -28l-164 -216l-160 216
q-24 28 -60 28q-20 0 -46 -18t-26 -58q0 -20 12 -40l188 -248l-188 -252q-12 -20 -12 -44q0 -32 26 -54t56 -18t50 28l160 216l164 -216q16 -24 44 -28t56 16t28 60q0 24 -16 40l-184 252z" />
</svg>
