<?xml version="1.0" standalone="no"?>
<!DOCTYPE svg PUBLIC "-//W3C//DTD SVG 1.1//EN" "http://www.w3.org/Graphics/SVG/1.1/DTD/svg11.dtd" >
<svg xmlns="http://www.w3.org/2000/svg" xmlns:xlink="http://www.w3.org/1999/xlink" version="1.1" viewBox="-10 0 1900 2048">
   <path fill="currentColor"
d="M1708 1792v-340q0 -72 -50 -122t-122 -50h-84v-256q0 -72 -50 -122t-122 -50h-256v-168h-168v168h-256q-72 0 -122 50t-50 122v256h-84q-72 0 -122 50t-50 122v340h-172v172h1880v-172h-172zM940 596q72 0 122 -50t50 -118q0 -52 -28 -88l-144 -256l-148 256
q-24 40 -24 88q0 68 50 118t122 50z" />
</svg>
