<?xml version="1.0" standalone="no"?>
<!DOCTYPE svg PUBLIC "-//W3C//DTD SVG 1.1//EN" "http://www.w3.org/Graphics/SVG/1.1/DTD/svg11.dtd" >
<svg xmlns="http://www.w3.org/2000/svg" xmlns:xlink="http://www.w3.org/1999/xlink" version="1.1" viewBox="-10 0 1388 2048">
   <path fill="currentColor"
d="M856 1024h-344v-172h344v172zM856 1364h-344v-168h344v168zM1368 684h-240q-60 -104 -156 -168l140 -140l-120 -120l-188 184q-60 -12 -120 -12t-120 12l-188 -184l-120 120l140 140q-96 64 -156 168h-240v168h180q-8 52 -8 88v84h-172v172h172v84q0 36 8 84h-180v172
h240q68 116 186 186t258 70t258 -70t186 -186h240v-172h-180q8 -48 8 -84v-84h172v-172h-172v-84q0 -36 -8 -88h180v-168z" />
</svg>
