<?xml version="1.0" standalone="no"?>
<!DOCTYPE svg PUBLIC "-//W3C//DTD SVG 1.1//EN" "http://www.w3.org/Graphics/SVG/1.1/DTD/svg11.dtd" >
<svg xmlns="http://www.w3.org/2000/svg" xmlns:xlink="http://www.w3.org/1999/xlink" version="1.1" viewBox="-10 0 1922 2048">
   <path fill="currentColor"
d="M1170 841v73q0 14 -11 25.5t-25 11.5h-256v256q0 14 -11.5 25t-25.5 11h-73q-14 0 -25.5 -11t-11.5 -25v-256h-256q-14 0 -25 -11.5t-11 -25.5v-73q0 -14 11 -25.5t25 -11.5h256v-256q0 -14 11.5 -25t25.5 -11h73q14 0 25.5 11t11.5 25v256h256q14 0 25 11.5t11 25.5z
M1317 877q0 -211 -150.5 -361.5t-361.5 -150.5t-361.5 150.5t-150.5 361.5t150.5 361.5t361.5 150.5t361.5 -150.5t150.5 -361.5zM1902 1828q0 61 -43 104t-104 43q-60 0 -102 -44l-392 -391q-205 142 -456 142q-164 0 -313 -63.5t-257 -171.5t-171.5 -257t-63.5 -313
t63.5 -313t171.5 -256.5t257 -171t313 -63.5t313 63.5t256.5 171t171 256.5t63.5 313q0 251 -142 456l392 392q43 43 43 103z" />
</svg>
