<?xml version="1.0" standalone="no"?>
<!DOCTYPE svg PUBLIC "-//W3C//DTD SVG 1.1//EN" "http://www.w3.org/Graphics/SVG/1.1/DTD/svg11.dtd" >
<svg xmlns="http://www.w3.org/2000/svg" xmlns:xlink="http://www.w3.org/1999/xlink" version="1.1" viewBox="-10 0 1900 2048">
   <path fill="currentColor"
d="M1708 1452v-768h-1196v768h1196zM1708 256q72 0 122 50t50 122v1024q0 68 -50 118t-122 50h-1196q-68 0 -118 -50t-50 -118v-1024q0 -72 50 -122t118 -50h88v-172h168v172h684v-172h172v172h84zM1412 944l-380 380l-228 -232l92 -88l136 136l288 -288zM172 1792h1196v172
h-1196q-72 0 -122 -50t-50 -122v-1024h172v1024z" />
</svg>
