<?xml version="1.0" standalone="no"?>
<!DOCTYPE svg PUBLIC "-//W3C//DTD SVG 1.1//EN" "http://www.w3.org/Graphics/SVG/1.1/DTD/svg11.dtd" >
<svg xmlns="http://www.w3.org/2000/svg" xmlns:xlink="http://www.w3.org/1999/xlink" version="1.1" viewBox="-10 0 1724 2048">
   <path fill="currentColor"
d="M596 256l-156 172h-272q-68 0 -118 50t-50 118v1024q0 72 50 122t118 50h1368q68 0 118 -50t50 -122v-1024q0 -68 -50 -118t-118 -50h-272l-156 -172h-512zM852 1536q-84 0 -162 -32t-138 -92t-94 -138t-34 -164t34 -164t94 -138t138 -92t162 -32q116 0 214 56t156 154
t58 214t-58 214t-156 156t-214 58zM852 1452l108 -236l232 -108l-232 -104l-108 -236l-108 236l-232 104l232 108z" />
</svg>
