<?xml version="1.0" standalone="no"?>
<!DOCTYPE svg PUBLIC "-//W3C//DTD SVG 1.1//EN" "http://www.w3.org/Graphics/SVG/1.1/DTD/svg11.dtd" >
<svg xmlns="http://www.w3.org/2000/svg" xmlns:xlink="http://www.w3.org/1999/xlink" version="1.1" viewBox="-10 0 1388 2048">
   <path fill="currentColor"
d="M172 0h1024q72 0 122 50t50 122v1704q0 72 -50 122t-122 50h-1024q-72 0 -122 -50t-50 -122v-1704q0 -72 50 -122t122 -50zM684 512q108 0 182 74t74 182t-74 182t-182 74t-182 -74t-74 -182t74 -182t182 -74zM600 84v172h168v-172h-168zM172 340v1068q0 -56 68 -106
t186 -78t258 -28t258 28t186 78t68 106v-1068h-1024zM768 1536h-340v172h340v168l256 -256l-256 -256v172z" />
</svg>
