<?xml version="1.0" standalone="no"?>
<!DOCTYPE svg PUBLIC "-//W3C//DTD SVG 1.1//EN" "http://www.w3.org/Graphics/SVG/1.1/DTD/svg11.dtd" >
<svg xmlns="http://www.w3.org/2000/svg" xmlns:xlink="http://www.w3.org/1999/xlink" version="1.1" viewBox="-10 0 1724 2048">
   <path fill="currentColor"
d="M852 1536q-104 0 -192 -46t-148 -126h340q108 0 182 -74t74 -182q0 -44 -16 -84h180q8 44 8 84q0 116 -58 214t-156 156t-214 58zM852 680q104 0 192 46t148 126h-340q-108 0 -182 74t-74 182q0 40 16 84h-180q-8 -36 -8 -84q0 -116 58 -214t156 -156t214 -58zM1536 424
h-272l-156 -168h-512l-156 168h-272q-68 0 -118 50t-50 122v1024q0 72 50 122t118 50h1368q68 0 118 -50t50 -122v-1024q0 -72 -50 -122t-118 -50z" />
</svg>
