<?xml version="1.0" standalone="no"?>
<!DOCTYPE svg PUBLIC "-//W3C//DTD SVG 1.1//EN" "http://www.w3.org/Graphics/SVG/1.1/DTD/svg11.dtd" >
<svg xmlns="http://www.w3.org/2000/svg" xmlns:xlink="http://www.w3.org/1999/xlink" version="1.1" viewBox="-10 0 1556 2048">
   <path fill="currentColor"
d="M172 1116l128 -384h936l128 384h-1192zM1236 1544q-52 0 -90 -38t-38 -90t38 -90t92 -38t90 38t36 90t-36 90t-92 38zM300 1544q-56 0 -92 -38t-36 -90t36 -90t90 -38t92 38t38 90t-38 90t-90 38zM1360 692q-16 -40 -48 -64t-76 -24h-936q-44 0 -76 24t-48 64l-176 512
v680q0 36 24 62t60 26h88q36 0 60 -26t24 -62v-84h1024v84q0 36 24 62t60 26h88q36 0 60 -26t24 -62v-680zM340 436q56 0 92 -38t36 -92t-64 -146q-32 -48 -64 -84l-32 40q-36 52 -60 92q-36 60 -36 100q0 52 38 90t90 38zM768 436q52 0 90 -38t38 -90q0 -40 -32 -100
q-24 -40 -64 -92l-32 -40l-32 40q-40 52 -64 92q-32 60 -32 100q0 52 38 90t90 38zM1196 436q52 0 90 -38t38 -92t-64 -146q-32 -48 -64 -84l-36 40q-36 52 -60 92q-32 60 -32 100q0 52 36 90t92 38z" />
</svg>
