<?xml version="1.0" standalone="no"?>
<!DOCTYPE svg PUBLIC "-//W3C//DTD SVG 1.1//EN" "http://www.w3.org/Graphics/SVG/1.1/DTD/svg11.dtd" >
<svg xmlns="http://www.w3.org/2000/svg" xmlns:xlink="http://www.w3.org/1999/xlink" version="1.1" viewBox="-10 0 1724 2048">
   <path fill="currentColor"
d="M168 424h256l172 -168h512l172 168h256q68 0 118 50t50 122v1024q0 72 -50 122t-118 50h-1368q-68 0 -118 -50t-50 -122v-1024q0 -72 50 -122t118 -50zM852 680q-116 0 -214 58t-156 156t-58 214t58 214t156 156t214 58t214 -58t156 -156t58 -214t-58 -214t-156 -156
t-214 -58zM852 852q108 0 182 74t74 182t-74 182t-182 74t-182 -74t-74 -182t74 -182t182 -74z" />
</svg>
