<?xml version="1.0" standalone="no"?>
<!DOCTYPE svg PUBLIC "-//W3C//DTD SVG 1.1//EN" "http://www.w3.org/Graphics/SVG/1.1/DTD/svg11.dtd" >
<svg xmlns="http://www.w3.org/2000/svg" xmlns:xlink="http://www.w3.org/1999/xlink" version="1.1" viewBox="-10 0 1775 2048">
   <path fill="currentColor"
d="M1755 1098q0 118 -31.5 232t-88 210t-138 177t-177.5 137.5t-209.5 88t-232.5 31.5t-232.5 -31.5t-210 -88t-177.5 -137.5t-138 -177t-88.5 -210t-31.5 -232q0 -209 92 -392.5t259 -309.5q49 -36 108.5 -27.5t95.5 57.5q37 48 28.5 107.5t-56.5 96.5q-112 83 -173 206
t-61 262q0 118 46.5 226.5t125 187t186.5 124.5t227 46t227 -46t186.5 -124.5t125 -187t46.5 -226.5q0 -139 -61 -262t-173 -206q-48 -37 -57 -96.5t28 -107.5q36 -49 96.5 -57.5t108.5 27.5q167 126 258.5 309.5t91.5 392.5zM1024 220v730q0 61 -43 104.5t-103 43.5
t-103.5 -44t-43.5 -104v-730q0 -60 43.5 -103t103.5 -43t103 43t43 103z" />
</svg>
