<?xml version="1.0" standalone="no"?>
<!DOCTYPE svg PUBLIC "-//W3C//DTD SVG 1.1//EN" "http://www.w3.org/Graphics/SVG/1.1/DTD/svg11.dtd" >
<svg xmlns="http://www.w3.org/2000/svg" xmlns:xlink="http://www.w3.org/1999/xlink" version="1.1" viewBox="-10 0 1716 2048">
   <path fill="currentColor"
d="M848 662l-112 8q-92 -112 -196 -188q-156 -120 -288 -120l-24 44q-28 60 -40 124q-20 92 -8 188q12 116 68 232l-12 20q-36 52 -48 80q-20 40 -24 92l-164 28l20 84l148 -24l12 60l-132 80l40 76l124 -76q72 152 244 236q168 80 392 80t392 -80q172 -84 244 -236l124 76
l40 -76l-132 -80l12 -60l148 24l20 -84l-164 -28q-4 -52 -24 -92q-12 -28 -48 -80l-12 -20q56 -116 68 -232q12 -96 -8 -188q-12 -64 -40 -124l-24 -44q-132 0 -288 120q-104 76 -196 188zM592 918q36 0 60 24t24 60t-24 60t-60 24t-60 -24t-24 -60t24 -60t60 -24zM1104 918
q36 0 60 24t24 60t-24 60t-60 24t-60 -24t-24 -60t24 -60t60 -24zM764 1174h168l-60 116q16 44 48 70t76 26q56 0 92 -38t36 -90h44q0 72 -50 122t-122 50q-44 0 -84 -24t-64 -64q-24 40 -64 64t-84 24q-72 0 -122 -50t-50 -122h44q0 52 36 90t92 38q44 0 76 -26t48 -70z
" />
</svg>
