<?xml version="1.0" standalone="no"?>
<!DOCTYPE svg PUBLIC "-//W3C//DTD SVG 1.1//EN" "http://www.w3.org/Graphics/SVG/1.1/DTD/svg11.dtd" >
<svg xmlns="http://www.w3.org/2000/svg" xmlns:xlink="http://www.w3.org/1999/xlink" version="1.1" viewBox="-10 0 1900 2048">
   <path fill="currentColor"
d="M344 342h1536v1024h-1536v-1024zM1112 598q104 0 180 74t76 182t-76 182t-182 74t-180 -74t-74 -182t74 -182t182 -74zM684 514q0 68 -50 118t-122 50v344q72 0 122 50t50 118h852q0 -68 50 -118t122 -50v-344q-72 0 -122 -50t-50 -118h-852zM0 682h172v856h1364v168
h-1536v-1024z" />
</svg>
