<?xml version="1.0" standalone="no"?>
<!DOCTYPE svg PUBLIC "-//W3C//DTD SVG 1.1//EN" "http://www.w3.org/Graphics/SVG/1.1/DTD/svg11.dtd" >
<svg xmlns="http://www.w3.org/2000/svg" xmlns:xlink="http://www.w3.org/1999/xlink" version="1.1" viewBox="-10 0 1724 2048">
   <path fill="currentColor"
d="M168 214q-68 0 -118 50t-50 122v852q0 72 50 122t118 50h684v424l256 -256l256 256v-424h172q68 0 118 -50t50 -122v-852q0 -72 -50 -122t-118 -50h-1368zM852 386l256 168l256 -168v296l256 128l-256 128v300l-256 -172l-256 172v-300l-256 -128l256 -128v-296zM168 386
h428v168h-428v-168zM168 726h256v172h-256v-172zM168 1066h428v172h-428v-172z" />
</svg>
