<?xml version="1.0" standalone="no"?>
<!DOCTYPE svg PUBLIC "-//W3C//DTD SVG 1.1//EN" "http://www.w3.org/Graphics/SVG/1.1/DTD/svg11.dtd" >
<svg xmlns="http://www.w3.org/2000/svg" xmlns:xlink="http://www.w3.org/1999/xlink" version="1.1" viewBox="-10 0 1775 2048">
   <path fill="currentColor"
d="M1170 1024.5q0 -120.5 -85.5 -206.5t-206.5 -86t-207 86t-86 206.5t86 206t207 85.5t206.5 -85.5t85.5 -206zM1755 900v254q0 13 -9.5 25.5t-22.5 14.5l-211 32q-21 61 -45 104q39 57 123 158q11 13 11 28t-10 26q-30 41 -112.5 123.5t-108.5 82.5q-14 0 -29 -10
l-158 -124q-56 29 -104 44q-17 152 -33 212q-4 14 -15 23t-26 9h-254q-16 0 -27.5 -10t-13.5 -24l-32 -210q-50 -16 -103 -44l-161 124q-11 10 -29 10q-15 0 -28 -14q-47 -42 -69 -62t-60 -59.5t-60 -70.5q-8 -10 -8 -26q0 -14 9 -26q18 -24 58.5 -76t61.5 -80
q-34 -66 -47 -114l-209 -30q-14 -3 -23.5 -15t-9.5 -27v-254q0 -13 9.5 -25.5t21.5 -14.5l212 -32q14 -46 45 -106q-50 -70 -122 -158q-12 -13 -12 -26q0 -12 11 -26q29 -41 111.5 -123.5t108.5 -82.5q15 0 30 12l158 122q56 -29 104 -44q17 -152 33 -212q4 -14 15 -23
t26 -9h254q16 0 27.5 10t13.5 24l32 210q50 16 103 44l162 -124q10 -10 27 -10q15 0 29 12q49 45 69 64t58.5 59.5t60.5 70.5q8 10 8 26q0 14 -9 26q-18 24 -58.5 76t-61.5 80q33 66 47 112l209 32q14 3 23.5 15t9.5 27z" />
</svg>
