<?xml version="1.0" standalone="no"?>
<!DOCTYPE svg PUBLIC "-//W3C//DTD SVG 1.1//EN" "http://www.w3.org/Graphics/SVG/1.1/DTD/svg11.dtd" >
<svg xmlns="http://www.w3.org/2000/svg" xmlns:xlink="http://www.w3.org/1999/xlink" version="1.1" viewBox="-10 0 1864 2048">
   <path fill="currentColor"
d="M838 689q-76 -28 -124 -94t-48 -146q0 -108 74 -182t182 -74t182 74t74 182q0 80 -48 146t-124 94v240q-40 -12 -84 -12t-84 12v-240zM1458 1821q-72 -40 -104 -114t-20 -154l-208 -120q68 -64 88 -148l208 120q60 -52 140 -60t152 32q92 56 120 158t-26 194t-156 118
t-194 -26zM130 1377q68 -40 150 -32t142 60l208 -120q20 88 88 148l-208 120q12 80 -22 154t-102 114q-92 52 -196 26t-156 -118t-24 -196t120 -156zM1094 1217q0 68 -50 118t-122 50t-122 -50t-50 -120t50 -120t122 -50t122 50t50 122zM1350 1217l-4 48l-124 -76
q-8 -64 -42 -122t-86 -98v-144q112 48 184 154t72 238zM1174 1561q-112 80 -254 80t-250 -84l124 -72q60 28 126 28t130 -28zM498 1265l-4 -48q0 -132 72 -238t184 -154v144q-52 40 -86 98t-42 122z" />
</svg>
