<?xml version="1.0" standalone="no"?>
<!DOCTYPE svg PUBLIC "-//W3C//DTD SVG 1.1//EN" "http://www.w3.org/Graphics/SVG/1.1/DTD/svg11.dtd" >
<svg xmlns="http://www.w3.org/2000/svg" xmlns:xlink="http://www.w3.org/1999/xlink" version="1.1" viewBox="-10 0 1116 2048">
   <path fill="currentColor"
d="M868 1324q0 88 -62 150t-150 62t-152 -62t-64 -150v-152q0 -24 20 -44t46 -20t44 20t18 44v152q0 36 26 60t62 24t60 -24t24 -60v-308q-56 -20 -92 -64t-36 -100q0 -68 56 -118t136 -50t136 50t56 118q0 56 -36 100t-92 64v308zM292 684q80 0 136 50t56 118q0 56 -36 100
t-92 64v456q0 116 82 196t196 80t196 -80t82 -196v-300q0 -24 18 -44t44 -20t46 20t20 44v300q0 80 -32 154t-88 132t-132 88t-156 30t-154 -30t-132 -88t-88 -132t-30 -154v-456q-56 -20 -92 -64t-36 -100q0 -68 56 -118t136 -50zM448 524l-40 124q-52 -28 -112 -28
t-110 22t-82 62l-104 -76q84 -108 228 -132v-4q0 -132 94 -226t226 -94t226 94t94 226v4q144 24 228 132l-104 76q-32 -40 -82 -62t-110 -22t-112 28l-40 -124q56 -24 92 -28v-4q0 -80 -56 -136t-136 -56t-136 56t-56 136v4q36 4 92 28zM804 788q-36 0 -60 20t-24 46t24 44
t60 18t60 -18t24 -44t-24 -46t-60 -20zM292 788q-36 0 -60 20t-24 46t24 44t60 18t60 -18t24 -44t-24 -46t-60 -20z" />
</svg>
