<?xml version="1.0" standalone="no"?>
<!DOCTYPE svg PUBLIC "-//W3C//DTD SVG 1.1//EN" "http://www.w3.org/Graphics/SVG/1.1/DTD/svg11.dtd" >
<svg xmlns="http://www.w3.org/2000/svg" xmlns:xlink="http://www.w3.org/1999/xlink" version="1.1" viewBox="-10 0 1724 2048">
   <path fill="currentColor"
d="M852 1708q184 0 342 -92t250 -250t92 -342t-92 -342t-250 -250t-342 -92t-342 92t-250 250t-92 342t92 342t250 250t342 92zM852 172q168 0 326 64t278 184t184 278t64 326t-64 326t-184 278t-278 184t-326 64q-232 0 -428 -114t-310 -310t-114 -428q0 -168 64 -326
t184 -278t278 -184t326 -64zM896 596v448l384 228l-64 108l-448 -272v-512h128z" />
</svg>
