<?xml version="1.0" standalone="no"?>
<!DOCTYPE svg PUBLIC "-//W3C//DTD SVG 1.1//EN" "http://www.w3.org/Graphics/SVG/1.1/DTD/svg11.dtd" >
<svg xmlns="http://www.w3.org/2000/svg" xmlns:xlink="http://www.w3.org/1999/xlink" version="1.1" viewBox="-10 0 1724 2048">
   <path fill="currentColor"
d="M1236 1364h-724q-108 0 -182 -74t-74 -180t74 -182t182 -76h12q28 -112 118 -184t210 -72q140 0 240 100t100 244h44q88 0 150 62t62 150t-62 150t-150 62zM852 172q-168 0 -326 64t-278 184t-184 278t-64 326t64 326t184 278t278 184t326 64t326 -64t278 -184t184 -278
t64 -326t-64 -326t-184 -278t-278 -184t-326 -64z" />
</svg>
