<?xml version="1.0" standalone="no"?>
<!DOCTYPE svg PUBLIC "-//W3C//DTD SVG 1.1//EN" "http://www.w3.org/Graphics/SVG/1.1/DTD/svg11.dtd" >
<svg xmlns="http://www.w3.org/2000/svg" xmlns:xlink="http://www.w3.org/1999/xlink" version="1.1" viewBox="-10 0 1900 2048">
   <path fill="currentColor"
d="M940 1964q-36 0 -60 -26t-24 -62v-256h-344q-68 0 -118 -50t-50 -118v-856q0 -68 50 -118t118 -50h1196q72 0 122 50t50 118v856q0 68 -50 118t-122 50h-348l-316 316q-28 28 -60 28h-44zM1024 1452v260l264 -260h420v-856h-1196v856h512zM172 1280h-172v-1024
q0 -72 50 -122t122 -50h1364v172h-1364v1024z" />
</svg>
