<?xml version="1.0" standalone="no"?>
<!DOCTYPE svg PUBLIC "-//W3C//DTD SVG 1.1//EN" "http://www.w3.org/Graphics/SVG/1.1/DTD/svg11.dtd" >
<svg xmlns="http://www.w3.org/2000/svg" xmlns:xlink="http://www.w3.org/1999/xlink" version="1.1" viewBox="-10 0 1556 2048">
   <path fill="currentColor"
d="M768 256q-208 0 -384 104t-280 280t-104 384t104 384t280 280t384 104t384 -104t280 -280t104 -384q0 -68 -12 -128q-12 -28 -44 -36q-16 -8 -28 -8h-172v-84q0 -52 -44 -76q-20 -8 -40 -8h-172v-88q0 -52 -44 -72q-20 -12 -40 -12h-88v-172q0 -52 -40 -72
q-24 -12 -44 -12zM556 512q52 0 90 38t38 90t-38 90t-92 38t-90 -38t-36 -90t36 -90t92 -38zM300 852q52 0 90 38t38 92t-38 90t-92 36t-90 -36t-36 -90t36 -92t92 -38zM724 940q56 0 92 36t36 90t-36 92t-90 38t-92 -38t-38 -92t38 -90t90 -36zM1152 1108q52 0 90 38t38 92
t-38 90t-90 36t-90 -36t-38 -92q0 -52 38 -90t90 -38zM684 1364q52 0 90 38t38 92t-38 90t-92 36t-90 -36t-36 -90t36 -92t92 -38z" />
</svg>
