<?xml version="1.0" standalone="no"?>
<!DOCTYPE svg PUBLIC "-//W3C//DTD SVG 1.1//EN" "http://www.w3.org/Graphics/SVG/1.1/DTD/svg11.dtd" >
<svg xmlns="http://www.w3.org/2000/svg" xmlns:xlink="http://www.w3.org/1999/xlink" version="1.1" viewBox="-10 0 1922 2048">
   <path fill="currentColor"
d="M1463 1682q0 -30 -21.5 -52t-51.5 -22t-51.5 22t-21.5 52t21.5 52t51.5 22t51.5 -22t21.5 -52zM1755 1682q0 -30 -21.5 -52t-51.5 -22t-51.5 22t-21.5 52t21.5 52t51.5 22t51.5 -22t21.5 -52zM1902 1426v366q0 45 -32 77.5t-78 32.5h-1682q-46 0 -78 -32.5t-32 -77.5
v-366q0 -45 32 -77.5t78 -32.5h531l154 156q66 64 156 64q89 0 155 -64l156 -156h530q46 0 78 32.5t32 77.5zM1530 776q9 19 4.5 41.5t-20.5 38.5l-512 512q-21 22 -51 22q-31 0 -52 -22l-512 -512q-16 -16 -20.5 -38.5t4.5 -41.5q8 -20 27 -32t41 -12h292v-512
q0 -30 22 -52t52 -22h292q30 0 51.5 22t21.5 52v512h293q22 0 40.5 12t26.5 32z" />
</svg>
