<?xml version="1.0" standalone="no"?>
<!DOCTYPE svg PUBLIC "-//W3C//DTD SVG 1.1//EN" "http://www.w3.org/Graphics/SVG/1.1/DTD/svg11.dtd" >
<svg xmlns="http://www.w3.org/2000/svg" xmlns:xlink="http://www.w3.org/1999/xlink" version="1.1" viewBox="-11 0 1718 2048">
   <path fill="currentColor"
d="M720 1494q16 0 30 12t14 30t-14 30t-30 12t-30 -12t-14 -30t14 -30t30 -12zM976 1494q16 0 30 12t14 30t-14 30t-30 12t-30 -12t-14 -30t14 -30t30 -12zM676 898q36 0 62 24t26 60t-26 60t-62 24t-60 -24t-24 -60t24 -60t60 -24zM1020 898q36 0 60 24t24 60t-24 60
t-60 24t-62 -24t-26 -60t26 -60t62 -24zM1360 1494q0 92 -68 170t-186 124t-258 46t-258 -46t-186 -124t-68 -170q0 -112 104 -204q-104 -136 -104 -308l12 -104q-76 20 -148 0t-142 -82t-56 -110t104 -62t166 10q36 8 74 34t58 54l52 -68q-32 -52 -24 -136q8 -96 64 -172
q64 -92 180 -132l-8 12q-28 48 -40 108q-20 92 20 176q96 -40 200 -40t200 40q40 -84 20 -176q-12 -60 -40 -108l-8 -12q116 40 180 132q56 76 64 172q8 84 -24 136l52 68q20 -28 58 -54t74 -34q76 -24 166 -10t104 62t-56 110t-142 82t-148 0l12 104q0 172 -104 308
q104 92 104 204zM848 1322q-140 0 -240 50t-100 122t100 122t240 50t240 -50t100 -122t-100 -122t-240 -50zM848 1154q140 0 260 48q80 -96 80 -220q0 -140 -100 -240t-240 -100t-240 100t-100 240q0 124 80 220q120 -48 260 -48zM1028 226z" />
</svg>
