<?xml version="1.0" standalone="no"?>
<!DOCTYPE svg PUBLIC "-//W3C//DTD SVG 1.1//EN" "http://www.w3.org/Graphics/SVG/1.1/DTD/svg11.dtd" >
<svg xmlns="http://www.w3.org/2000/svg" xmlns:xlink="http://www.w3.org/1999/xlink" version="1.1" viewBox="-10 0 1640 2048">
   <path fill="currentColor"
d="M768 1452h-600q-68 0 -118 -50t-50 -122v-1024q0 -72 50 -122t118 -50h1024v172h-1024v1024h600v-172l340 256l-340 256v-168zM1448 1792v-1196h-936v512h-172v-512q0 -68 50 -118t122 -50h936q72 0 122 50t50 118v1196q0 72 -50 122t-122 50h-936q-72 0 -122 -50
t-50 -122v-172h172v172h936z" />
</svg>
