<?xml version="1.0" standalone="no"?>
<!DOCTYPE svg PUBLIC "-//W3C//DTD SVG 1.1//EN" "http://www.w3.org/Graphics/SVG/1.1/DTD/svg11.dtd" >
<svg xmlns="http://www.w3.org/2000/svg" xmlns:xlink="http://www.w3.org/1999/xlink" version="1.1" viewBox="-10 0 1724 2048">
   <path fill="currentColor"
d="M168 340h1368q68 0 118 50t50 122v1024q0 72 -50 122t-118 50h-1368q-68 0 -118 -50t-50 -122v-1024q0 -72 50 -122t118 -50zM168 512v1024h600v-1024h-600zM1536 1536v-1024h-108q20 40 16 96q-4 60 -60 140l-200 216h284v104l-440 -4l-4 -84l132 -144
q132 -144 140 -156q20 -44 20 -92q-4 -76 -80 -76q-48 0 -72 32q-16 20 -20 52v28h-132l4 -36q8 -40 28 -76h-108v1024h220v-72l84 -4l20 -4q24 -12 36 -28q20 -24 20 -56q4 -56 -32 -76q-20 -8 -48 -8t-48 8q-44 20 -44 64h-128l4 -28q8 -32 24 -60q24 -36 64 -60
q52 -28 128 -28t128 28q40 20 60 60q16 28 20 60v24v32q-8 32 -24 60q-24 40 -68 56l44 32h140zM588 1364h-128v-492l-152 48v-108l268 -96h12v648z" />
</svg>
