<?xml version="1.0" standalone="no"?>
<!DOCTYPE svg PUBLIC "-//W3C//DTD SVG 1.1//EN" "http://www.w3.org/Graphics/SVG/1.1/DTD/svg11.dtd" >
<svg xmlns="http://www.w3.org/2000/svg" xmlns:xlink="http://www.w3.org/1999/xlink" version="1.1" viewBox="-10 0 1900 2048">
   <path fill="currentColor"
d="M1368 596v-340h-856v340h856zM1112 1452q104 0 180 -76t76 -182t-76 -180t-182 -74t-180 74t-74 180t74 182t182 76zM1536 84l344 344v1024q0 68 -50 118t-122 50h-1196q-68 0 -118 -50t-50 -118v-1196q0 -72 50 -122t118 -50h1024zM0 596h172v1196h1196v172h-1196
q-72 0 -122 -50t-50 -122v-1196z" />
</svg>
