<?xml version="1.0" standalone="no"?>
<!DOCTYPE svg PUBLIC "-//W3C//DTD SVG 1.1//EN" "http://www.w3.org/Graphics/SVG/1.1/DTD/svg11.dtd" >
<svg xmlns="http://www.w3.org/2000/svg" xmlns:xlink="http://www.w3.org/1999/xlink" version="1.1" viewBox="-10 0 1724 2048">
   <path fill="currentColor"
d="M852 1708q-140 0 -264 -54t-220 -146l968 -968q92 96 146 220t54 264q0 184 -92 342t-250 250t-342 92zM340 684h172v-172h128v172h168v128h-168v168h-128v-168h-172v-128zM852 172q-168 0 -326 64t-278 184t-184 278t-64 326t64 326t184 278t278 184t326 64t326 -64
t278 -184t184 -278t64 -326t-64 -326t-184 -278t-278 -184t-326 -64zM852 1364h428v-128h-428v128z" />
</svg>
