<?xml version="1.0" standalone="no"?>
<!DOCTYPE svg PUBLIC "-//W3C//DTD SVG 1.1//EN" "http://www.w3.org/Graphics/SVG/1.1/DTD/svg11.dtd" >
<svg xmlns="http://www.w3.org/2000/svg" xmlns:xlink="http://www.w3.org/1999/xlink" version="1.1" viewBox="-10 0 1556 2048">
   <path fill="currentColor"
d="M1308 684h-1080l-36 -344h1152zM768 1620q-108 0 -182 -74t-74 -182q0 -76 68 -192q44 -88 120 -184l68 -84l68 84q76 96 120 184q68 116 68 192q0 108 -74 182t-182 74zM0 172l172 1556q8 64 56 106t112 42h856q64 0 112 -42t56 -106l172 -1556h-1536z" />
</svg>
