<?xml version="1.0" standalone="no"?>
<!DOCTYPE svg PUBLIC "-//W3C//DTD SVG 1.1//EN" "http://www.w3.org/Graphics/SVG/1.1/DTD/svg11.dtd" >
<svg xmlns="http://www.w3.org/2000/svg" xmlns:xlink="http://www.w3.org/1999/xlink" version="1.1" viewBox="-10 0 1128 2048">
   <path fill="currentColor"
d="M944 988q80 -96 80 -218t-72 -212t-184 -122v-180h-172v172h-168v-172h-172v172h-256v168h172v856h-172v168h256v172h172v-172h168v172h172v-172q140 0 240 -100t100 -240q0 -92 -44 -170t-120 -122zM340 596h344q68 0 118 50t50 122t-50 122t-118 50h-344v-344z
M768 1452h-428v-344h428q72 0 122 50t50 122t-50 122t-122 50z" />
</svg>
