<?xml version="1.0" standalone="no"?>
<!DOCTYPE svg PUBLIC "-//W3C//DTD SVG 1.1//EN" "http://www.w3.org/Graphics/SVG/1.1/DTD/svg11.dtd" >
<svg xmlns="http://www.w3.org/2000/svg" xmlns:xlink="http://www.w3.org/1999/xlink" version="1.1" viewBox="-10 0 1640 2048">
   <path fill="currentColor"
d="M1108 1580q-156 0 -288 -82t-204 -218h492l84 -172h-632q-8 -44 -8 -84t8 -84h548l84 -172h-576q72 -136 204 -218t288 -82q204 0 360 136l152 -152q-104 -92 -236 -144t-276 -52q-248 0 -446 142t-278 370h-300l-84 172h344q-4 28 -4 84t4 84h-260l-84 172h384
q80 228 278 370t446 142q144 0 276 -52t236 -144l-152 -152q-156 136 -360 136z" />
</svg>
