<?xml version="1.0" standalone="no"?>
<!DOCTYPE svg PUBLIC "-//W3C//DTD SVG 1.1//EN" "http://www.w3.org/Graphics/SVG/1.1/DTD/svg11.dtd" >
<svg xmlns="http://www.w3.org/2000/svg" xmlns:xlink="http://www.w3.org/1999/xlink" version="1.1" viewBox="-10 0 1900 2048">
   <path fill="currentColor"
d="M940 684q140 0 240 100t100 240t-100 240t-240 100t-240 -100t-100 -240t100 -240t240 -100zM176 1108h-176v-168h176q20 -176 114 -324t242 -242t324 -114v-176h168v176q176 20 324 114t242 242t114 324h176v168h-176q-20 176 -114 324t-242 242t-324 114v176h-168v-176
q-176 -20 -324 -114t-242 -242t-114 -324zM940 428q-164 0 -300 80t-216 216t-80 300t80 300t216 216t300 80t300 -80t216 -216t80 -300t-80 -300t-216 -216t-300 -80z" />
</svg>
