<?xml version="1.0" standalone="no"?>
<!DOCTYPE svg PUBLIC "-//W3C//DTD SVG 1.1//EN" "http://www.w3.org/Graphics/SVG/1.1/DTD/svg11.dtd" >
<svg xmlns="http://www.w3.org/2000/svg" xmlns:xlink="http://www.w3.org/1999/xlink" version="1.1" viewBox="-10 0 1640 2048">
   <path fill="currentColor"
d="M1620 1408l-256 256v-172h-512v-172h512v-168zM512 384q108 0 182 74t74 182v256q0 104 -74 180t-182 76t-182 -76t-74 -180v-256q0 -108 74 -182t182 -74zM512 552q-36 0 -60 26t-24 62v256q0 36 24 60t60 24t60 -24t24 -60v-256q0 -36 -24 -62t-60 -26zM1108 384
q108 0 182 74t74 182v256q0 104 -74 180t-180 76t-182 -76t-76 -180v-256q0 -108 76 -182t180 -74zM1108 552q-36 0 -60 26t-24 62v256q0 36 24 60t60 24t62 -24t26 -60v-256q0 -36 -26 -62t-62 -26zM84 980q36 0 62 24t26 60t-26 62t-62 26t-60 -26t-24 -62t24 -60t60 -24z
" />
</svg>
