<?xml version="1.0" standalone="no"?>
<!DOCTYPE svg PUBLIC "-//W3C//DTD SVG 1.1//EN" "http://www.w3.org/Graphics/SVG/1.1/DTD/svg11.dtd" >
<svg xmlns="http://www.w3.org/2000/svg" xmlns:xlink="http://www.w3.org/1999/xlink" version="1.1" viewBox="-10 0 1644 2048">
   <path fill="currentColor"
d="M1624 1452v168h-684v-168h684zM684 256q184 0 342 46t250 124t92 172t-92 172t-250 124t-342 46t-342 -46t-250 -124t-92 -172t92 -172t250 -124t342 -46zM0 768q0 92 92 170t250 124t342 46t342 -46t250 -124t92 -170v264l-88 -8q-164 0 -294 94t-186 242l-116 4
q-184 0 -342 -46t-250 -124t-92 -170v-256zM0 1196q0 92 92 170t250 124t342 46h84q0 132 64 248l-148 8q-184 0 -342 -46t-250 -124t-92 -170v-256z" />
</svg>
