<?xml version="1.0" standalone="no"?>
<!DOCTYPE svg PUBLIC "-//W3C//DTD SVG 1.1//EN" "http://www.w3.org/Graphics/SVG/1.1/DTD/svg11.dtd" >
<svg xmlns="http://www.w3.org/2000/svg" xmlns:xlink="http://www.w3.org/1999/xlink" version="1.1" viewBox="-10 0 1775 2048">
   <path fill="currentColor"
d="M1169 1098h361q-1 -4 -2.5 -10.5t-2.5 -9.5l-243 -566h-809l-242 566q-1 3 -3 9.5t-3 10.5h361l109 218h366zM1755 1132v550q0 30 -21.5 52t-51.5 22h-1609q-30 0 -51.5 -22t-21.5 -52v-550q0 -31 8.5 -71.5t20.5 -70.5l272 -630q12 -28 41.5 -48t59.5 -20h951
q30 0 60 20t42 48l272 630q12 30 20 70.5t8 71.5z" />
</svg>
