<?xml version="1.0" standalone="no"?>
<!DOCTYPE svg PUBLIC "-//W3C//DTD SVG 1.1//EN" "http://www.w3.org/Graphics/SVG/1.1/DTD/svg11.dtd" >
<svg xmlns="http://www.w3.org/2000/svg" xmlns:xlink="http://www.w3.org/1999/xlink" version="1.1" viewBox="-10 0 876 2048">
   <path fill="currentColor"
d="M0 1620v-168h172v168h-172zM344 1620v-168h168v168h-168zM684 1620v-168h172v168h-172zM0 1280v-172h172v172h-172zM344 1280v-172h168v172h-168zM684 1280v-172h172v172h-172zM0 940v-172h172v172h-172zM344 940v-172h168v172h-168zM684 940v-172h172v172h-172zM0 596
v-168h172v168h-172zM344 596v-168h168v168h-168zM684 596v-168h172v168h-172z" />
</svg>
