<?xml version="1.0" standalone="no"?>
<!DOCTYPE svg PUBLIC "-//W3C//DTD SVG 1.1//EN" "http://www.w3.org/Graphics/SVG/1.1/DTD/svg11.dtd" >
<svg xmlns="http://www.w3.org/2000/svg" xmlns:xlink="http://www.w3.org/1999/xlink" version="1.1" viewBox="-10 0 1556 2048">
   <path fill="currentColor"
d="M0 1280v-172h172v172h-172zM0 940v-172h172v172h-172zM340 1280v-172h172v172h-172zM340 940v-172h172v172h-172zM684 1280v-172h168v172h-168zM684 940v-172h168v172h-168zM1024 1280v-172h172v172h-172zM1024 940v-172h172v172h-172zM1364 1280v-172h172v172h-172z
M1364 940v-172h172v172h-172z" />
</svg>
