<?xml version="1.0" standalone="no"?>
<!DOCTYPE svg PUBLIC "-//W3C//DTD SVG 1.1//EN" "http://www.w3.org/Graphics/SVG/1.1/DTD/svg11.dtd" >
<svg xmlns="http://www.w3.org/2000/svg" xmlns:xlink="http://www.w3.org/1999/xlink" version="1.1" viewBox="-10 0 532 2048">
   <path fill="currentColor"
d="M0 256h172v172h-172v-172zM340 256h172v172h-172v-172zM0 596h172v172h-172v-172zM340 596h172v172h-172v-172zM0 940h172v168h-172v-168zM340 940h172v168h-172v-168zM0 1280h172v172h-172v-172zM340 1280h172v172h-172v-172zM0 1620h172v172h-172v-172zM340 1620h172
v172h-172v-172z" />
</svg>
