<?xml version="1.0" standalone="no"?>
<!DOCTYPE svg PUBLIC "-//W3C//DTD SVG 1.1//EN" "http://www.w3.org/Graphics/SVG/1.1/DTD/svg11.dtd" >
<svg xmlns="http://www.w3.org/2000/svg" xmlns:xlink="http://www.w3.org/1999/xlink" version="1.1" viewBox="-10 0 1556 2048">
   <path fill="currentColor"
d="M340 768q-68 0 -118 -50t-50 -120t50 -120t120 -50t120 50t50 120t-50 120t-122 50zM1452 256h-1368q-36 0 -60 24t-24 60v512q0 36 24 62t60 26h1368q36 0 60 -26t24 -62v-512q0 -36 -24 -60t-60 -24zM340 1620q-68 0 -118 -50t-50 -120t50 -120t120 -50t120 50t50 120
t-50 120t-122 50zM1452 1108h-1368q-36 0 -60 26t-24 62v512q0 36 24 60t60 24h1368q36 0 60 -24t24 -60v-512q0 -36 -24 -62t-60 -26z" />
</svg>
