<?xml version="1.0" standalone="no"?>
<!DOCTYPE svg PUBLIC "-//W3C//DTD SVG 1.1//EN" "http://www.w3.org/Graphics/SVG/1.1/DTD/svg11.dtd" >
<svg xmlns="http://www.w3.org/2000/svg" xmlns:xlink="http://www.w3.org/1999/xlink" version="1.1" viewBox="-10 0 1724 2048">
   <path fill="currentColor"
d="M1364 1280h-172v172h172v-172zM1364 940h-172v168h172v-168zM1536 1620h-684v-168h172v-172h-172v-172h172v-168h-172v-172h684v852zM680 596h-168v-168h168v168zM680 940h-168v-172h168v172zM680 1280h-168v-172h168v172zM680 1620h-168v-168h168v168zM340 596h-172
v-168h172v168zM340 940h-172v-172h172v172zM340 1280h-172v-172h172v172zM340 1620h-172v-168h172v168zM852 596v-340h-852v1536h1704v-1196h-852z" />
</svg>
