<?xml version="1.0" standalone="no"?>
<!DOCTYPE svg PUBLIC "-//W3C//DTD SVG 1.1//EN" "http://www.w3.org/Graphics/SVG/1.1/DTD/svg11.dtd" >
<svg xmlns="http://www.w3.org/2000/svg" xmlns:xlink="http://www.w3.org/1999/xlink" version="1.1" viewBox="-11 0 1729 2048">
   <path fill="currentColor"
d="M759 1316q-96 -104 -112 -232q-40 60 -64 128q-36 116 -10 242t106 228t196 142q136 48 304 -16q140 -52 268 -164l28 -32q64 -68 84 -100q40 -64 -4 -72q-196 104 -424 70t-372 -194zM807 820q48 0 42 -12t-42 -32l-32 -20q-132 -72 -296 -72t-288 68t-168 188
q-48 128 4 292q60 252 258 430t450 210q-132 -80 -206 -222t-74 -298q4 -172 100 -324q100 -164 252 -208zM67 708q128 -96 296 -122t330 22t270 164q72 80 96 180q28 112 -28 192q-68 72 8 120q56 32 180 44q112 8 164 -4q152 -32 240 -152q80 -108 84 -258t-72 -278
q-108 -212 -328 -332q-208 -112 -456 -108q-256 -4 -472 142t-312 390z" />
</svg>
