<?xml version="1.0" standalone="no"?>
<!DOCTYPE svg PUBLIC "-//W3C//DTD SVG 1.1//EN" "http://www.w3.org/Graphics/SVG/1.1/DTD/svg11.dtd" >
<svg xmlns="http://www.w3.org/2000/svg" xmlns:xlink="http://www.w3.org/1999/xlink" version="1.1" viewBox="-10 0 1640 2048">
   <path fill="currentColor"
d="M768 1792q-160 -40 -298 -170t-218 -308t-80 -358v-420l596 -264l596 264v496q84 12 164 52q8 -52 8 -144v-512l-768 -344l-768 344v512q0 232 100 446t274 368t394 210q36 -8 84 -28q-64 -80 -84 -144zM1280 1236q148 0 240 104l100 -104v344h-340l152 -156
q-72 -60 -152 -60q-88 0 -150 62t-62 152t62 152t150 62q100 0 172 -84h144q-40 96 -124 154t-192 58q-140 0 -240 -100t-100 -242t100 -242t240 -100z" />
</svg>
