<?xml version="1.0" standalone="no"?>
<!DOCTYPE svg PUBLIC "-//W3C//DTD SVG 1.1//EN" "http://www.w3.org/Graphics/SVG/1.1/DTD/svg11.dtd" >
<svg xmlns="http://www.w3.org/2000/svg" xmlns:xlink="http://www.w3.org/1999/xlink" version="1.1" viewBox="-10 0 1775 2048">
   <path fill="currentColor"
d="M1755 292v512q0 30 -21.5 52t-51.5 22h-512q-22 0 -40.5 -12.5t-26.5 -33.5q-9 -19 -4.5 -41t20.5 -37l158 -158q-81 -75 -184 -116.5t-215 -41.5q-119 0 -227 47t-186.5 125.5t-125 187t-46.5 227t46.5 227t125 187t186.5 125t227 46.5q136 0 256.5 -60t204.5 -168
q8 -12 27 -14q17 0 28 10l157 158q10 10 10.5 24.5t-8.5 25.5q-125 150 -301.5 233t-373.5 83q-119 0 -232.5 -32t-210 -88.5t-177.5 -137.5t-138 -177t-88.5 -210t-31.5 -232.5t31.5 -232.5t88.5 -210t138 -177.5t177.5 -138t210 -88.5t232.5 -32q168 0 325 64t279 178
l149 -146q15 -17 37.5 -21t42.5 5q20 8 32 26t12 40z" />
</svg>
