<?xml version="1.0" standalone="no"?>
<!DOCTYPE svg PUBLIC "-//W3C//DTD SVG 1.1//EN" "http://www.w3.org/Graphics/SVG/1.1/DTD/svg11.dtd" >
<svg xmlns="http://www.w3.org/2000/svg" xmlns:xlink="http://www.w3.org/1999/xlink" version="1.1" viewBox="-10 0 1724 2048">
   <path fill="currentColor"
d="M1704 448l-128 128q128 204 128 448q0 168 -64 326t-184 278t-278 184t-326 64q-244 0 -448 -128l-128 128l-108 -108l1428 -1428zM1356 1484q84 -92 132 -210t48 -250q0 -172 -84 -324l-360 360q16 24 16 48v256h84q56 0 102 34t62 86zM768 1700v-164q-64 0 -108 -40
l-132 128q112 60 240 76zM1108 392v36q0 68 -50 118t-122 50h-168v172q0 36 -26 60t-62 24h-168v172h184l-176 180l-332 -332q-20 76 -20 152q0 220 128 400l-120 120q-176 -228 -176 -520q0 -168 64 -326t184 -278t278 -184t326 -64q292 0 520 176l-120 120
q-68 -48 -144 -76z" />
</svg>
