<?xml version="1.0" standalone="no"?>
<!DOCTYPE svg PUBLIC "-//W3C//DTD SVG 1.1//EN" "http://www.w3.org/Graphics/SVG/1.1/DTD/svg11.dtd" >
<svg xmlns="http://www.w3.org/2000/svg" xmlns:xlink="http://www.w3.org/1999/xlink" version="1.1" viewBox="-10 0 1557 2048">
   <path fill="currentColor"
d="M1492 1276q0 44 -16 104t-42 106t-50 62t-68 16q-16 0 -52 -28l-60 -60q-52 -52 -76 -72q-44 -36 -74 -38t-78 26q-32 12 -100 56q-100 60 -152 84q-88 44 -152 44q-108 0 -164 -40q-72 -48 -72 -164q0 -100 84 -176t196 -76q76 0 160 40q44 24 128 80q56 40 80 52
q40 20 68 20t76 -28q28 -12 90 -54t90 -58q48 -24 72 -24q56 -12 88 36q24 36 24 92zM1164 476q-48 -28 -134 -70t-130 -66q-64 -44 -192 -192q-20 88 -38 130t-54 70q-116 80 -216 128q-128 68 -224 184q-176 208 -176 488q0 212 112 388q104 168 282 266t380 98t378 -94
t276 -258q108 -176 108 -392q12 -272 -152 -484q-84 -108 -216 -192z" />
</svg>
