<?xml version="1.0" standalone="no"?>
<!DOCTYPE svg PUBLIC "-//W3C//DTD SVG 1.1//EN" "http://www.w3.org/Graphics/SVG/1.1/DTD/svg11.dtd" >
<svg xmlns="http://www.w3.org/2000/svg" xmlns:xlink="http://www.w3.org/1999/xlink" version="1.1" viewBox="-10 0 1653 2048">
   <path fill="currentColor"
d="M744 171q-24 0 -66 28t-98 92q-60 72 -88 144q-41 104 -16 200q-48 8 -96 28q-45 20 -88 72q-53 72 -56 156q-5 68 16 132q-48 12 -88 36h-4q-20 8 -48.5 28t-35.5 32q-44 48 -62 118t-12 146t42 136q43 88 96 140q84 84 232 136q108 36 268 64q336 56 608 -56
q184 -76 292 -208q64 -80 82 -156t6 -160q-8 -64 -24 -96q-36 -72 -100 -104q-44 -28 -88 -40q31 -104 -52 -192q-41 -44 -92 -68q-24 -8 -40 -12q36 -72 20 -144q-20 -80 -92 -124q-53 -32 -156 -48l-4 -4q-140 -24 -184 -84q-24 -36 -40 -136q-5 -32 -8 -40
q-8 -16 -24 -16zM1140 819h12h4q91 12 149.5 88t46.5 174t-84 160t-164 54q-92 -12 -148 -88t-46 -172t77.5 -158t152.5 -58zM512 819q84 4 145.5 68t69.5 158t-51.5 168t-151.5 82t-162.5 -58t-77.5 -162q-8 -100 52 -174t152 -82h24zM512 963h-8q-36 8 -58.5 36t-18 62
t32.5 56t64 18t58 -32t17.5 -62t-28 -56t-59.5 -22zM1136 967q-32 0 -56 24t-26 58t20 60t59.5 28t63.5 -22t28 -58t-21.5 -62t-59.5 -28h-8zM520 1379q16 -4 52 4l16 4q112 24 227.5 24t228.5 -24l16 -4q31 -4 48 -4q24 -4 44 8q28 20 11.5 82t-63.5 110q-116 120 -284 120
t-284 -120q-48 -48 -64.5 -110t12.5 -82q19 -8 40 -8z" />
</svg>
