<?xml version="1.0" standalone="no"?>
<!DOCTYPE svg PUBLIC "-//W3C//DTD SVG 1.1//EN" "http://www.w3.org/Graphics/SVG/1.1/DTD/svg11.dtd" >
<svg xmlns="http://www.w3.org/2000/svg" xmlns:xlink="http://www.w3.org/1999/xlink" version="1.1" viewBox="-10 0 1724 2048">
   <path fill="currentColor"
d="M1448 852q0 84 -104 152q-96 64 -190 64t-166 -64t-72 -152h-128q0 88 -72 152t-166 64t-190 -64q-104 -68 -104 -152h-64q-24 88 -24 172q0 184 92 342t250 250t342 92t342 -92t250 -250t92 -342q0 -84 -24 -172h-64zM852 340q-188 0 -344 94t-248 250h1184
q-92 -156 -248 -250t-344 -94zM1704 1024q0 168 -64 326t-184 278t-278 184t-326 64t-326 -64t-278 -184t-184 -278t-64 -326t64 -326t184 -278t278 -184t326 -64t326 64t278 184t184 278t64 326zM852 1472q-108 0 -204 -42t-152 -114l120 -120q28 44 92 74t144 30t144 -30
t92 -74l120 120q-56 72 -152 114t-204 42z" />
</svg>
