<?xml version="1.0" standalone="no"?>
<!DOCTYPE svg PUBLIC "-//W3C//DTD SVG 1.1//EN" "http://www.w3.org/Graphics/SVG/1.1/DTD/svg11.dtd" >
<svg xmlns="http://www.w3.org/2000/svg" xmlns:xlink="http://www.w3.org/1999/xlink" version="1.1" viewBox="-10 0 1896 2048">
   <path fill="currentColor"
d="M1576 170q88 0 152 62t64 150v44q36 0 60 24t24 60v344q0 36 -24 60t-60 24h-428q-36 0 -60 -24t-24 -60v-344q0 -36 24 -60t60 -24v-44q0 -88 62 -150t150 -62zM852 1110l-684 -428v172l684 424l356 -220q72 52 156 52h340v596q0 72 -50 122t-118 50h-1368
q-68 0 -118 -50t-50 -122v-1024q0 -72 50 -122t118 -50h940v344q0 44 16 84zM1576 254q-52 0 -90 38t-38 90v44h256v-44q0 -52 -36 -90t-92 -38z" />
</svg>
