<?xml version="1.0" standalone="no"?>
<!DOCTYPE svg PUBLIC "-//W3C//DTD SVG 1.1//EN" "http://www.w3.org/Graphics/SVG/1.1/DTD/svg11.dtd" >
<svg xmlns="http://www.w3.org/2000/svg" xmlns:xlink="http://www.w3.org/1999/xlink" version="1.1" viewBox="-10 0 1812 2048">
   <path fill="currentColor"
d="M0 180q112 112 356 184q112 -92 250 -142t290 -50t290 50t250 142q244 -72 356 -184q-4 204 -188 368q144 212 144 476q0 168 -64 326t-184 278t-278 184t-326 64t-326 -64t-278 -184t-184 -278t-64 -326q0 -264 144 -476q-184 -164 -188 -368zM1580 1024
q0 -184 -92 -342t-250 -250t-342 -92t-342 92t-250 250t-92 342t92 342t250 250t342 92t342 -92t250 -250t92 -342zM768 852q0 52 -38 90t-90 38t-90 -38t-38 -90v-128zM1280 852q0 52 -38 90t-90 38t-90 -38t-38 -90l256 -128v128zM896 1472q-108 0 -204 -42t-152 -114
l120 -120q28 44 92 74t144 30t144 -30t92 -74l120 120q-56 72 -152 114t-204 42z" />
</svg>
