<?xml version="1.0" standalone="no"?>
<!DOCTYPE svg PUBLIC "-//W3C//DTD SVG 1.1//EN" "http://www.w3.org/Graphics/SVG/1.1/DTD/svg11.dtd" >
<svg xmlns="http://www.w3.org/2000/svg" xmlns:xlink="http://www.w3.org/1999/xlink" version="1.1" viewBox="-10 0 1484 2048">
   <path fill="currentColor"
d="M996 992q4 -12 8 -28q8 -32 20 -52q24 -28 48 -28q40 0 100 72q32 36 52 72l-100 -16q-108 -20 -128 -20zM1328 400q-20 -36 -110 -72t-154 -36h-204l-24 -32q-32 -36 -72 -60q-60 -28 -128 -28q-96 0 -128 36q-20 24 -16 80v252l-72 72h-328l-24 24q-28 28 -44 60
q-24 52 -24 108q0 100 24 216q28 160 88 264q80 136 204 152q144 24 244 -4q72 -20 108 -64q28 -28 28 -48v-192l32 48q40 52 84 84q60 48 124 48q104 0 166 50t62 118v156l-4 24q-8 32 -24 48q-24 28 -64 28h-180l-28 -32q-28 -40 -28 -80q0 -80 60 -80q32 0 64 4v-132h-44
q-52 8 -92 24q-60 20 -96 60q-40 48 -40 120q0 140 84 208q68 52 168 52h188l32 -8q44 -16 84 -48q56 -44 100 -112q56 -88 84 -208q36 -140 36 -328q0 -380 -48 -576q-24 -108 -76 -176zM348 540h-276l344 -352v280z" />
</svg>
