<?xml version="1.0" standalone="no"?>
<!DOCTYPE svg PUBLIC "-//W3C//DTD SVG 1.1//EN" "http://www.w3.org/Graphics/SVG/1.1/DTD/svg11.dtd" >
<svg xmlns="http://www.w3.org/2000/svg" xmlns:xlink="http://www.w3.org/1999/xlink" version="1.1" viewBox="-10 0 1724 2048">
   <path fill="currentColor"
d="M852 170q-236 0 -432 108t-308 296t-112 424q0 180 70 338t198 274q20 16 20 48l4 152q4 36 34 56t66 4l168 -76q24 -8 44 -4q116 36 248 36q236 0 432 -108t308 -298t112 -424t-112 -422t-308 -296t-432 -108zM1364 806l-252 396q-28 48 -84 58t-100 -26l-200 -148
q-12 -8 -30 -8t-30 8l-268 208q-28 20 -54 -2t-6 -54l252 -396q28 -48 84 -58t100 22l200 152q32 20 60 0l268 -208q28 -20 54 2t6 54z" />
</svg>
