<?xml version="1.0" standalone="no"?>
<!DOCTYPE svg PUBLIC "-//W3C//DTD SVG 1.1//EN" "http://www.w3.org/Graphics/SVG/1.1/DTD/svg11.dtd" >
<svg xmlns="http://www.w3.org/2000/svg" xmlns:xlink="http://www.w3.org/1999/xlink" version="1.1" viewBox="-10 0 1775 2048">
   <path fill="currentColor"
d="M1727 1206q0 6 -1 8q-36 151 -115 278.5t-189 217.5t-251.5 141t-297.5 51q-167 0 -323 -63.5t-278 -178.5l-147 146q-22 22 -52 22t-51.5 -21t-21.5 -51v-512q0 -30 21.5 -52t51.5 -22h512q30 0 51.5 22t21.5 52t-21 50l-157 158q80 75 184 116.5t214 41.5
q153 0 286 -74.5t212 -205.5q10 -15 19 -34t14 -30.5t15 -36.5t13 -33q10 -26 34 -26h219q16 0 26.5 11t10.5 25zM1755 292v512q0 30 -21.5 52t-51.5 22h-512q-30 0 -51.5 -22t-21.5 -52q0 -28 22 -50l158 -158q-82 -76 -185.5 -117t-213.5 -41q-153 0 -286.5 74.5
t-212.5 205.5q-9 15 -18 33.5t-14.5 31.5t-14 35.5t-13.5 33.5q-10 26 -34 26h-228q-15 0 -25.5 -11t-10.5 -25v-8q36 -152 116 -279t190.5 -217.5t252.5 -141t298 -50.5q167 0 324.5 63.5t279.5 178.5l149 -146q22 -22 51 -22q30 0 51.5 21t21.5 51z" />
</svg>
