<?xml version="1.0" standalone="no"?>
<!DOCTYPE svg PUBLIC "-//W3C//DTD SVG 1.1//EN" "http://www.w3.org/Graphics/SVG/1.1/DTD/svg11.dtd" >
<svg xmlns="http://www.w3.org/2000/svg" xmlns:xlink="http://www.w3.org/1999/xlink" version="1.1" viewBox="-11 0 1728 2048">
   <path fill="currentColor"
d="M341 512h1024v336l-512 -164l-512 164v-336zM165 1620h4q100 0 192 -48q80 -44 152 -120q68 76 152 120q92 48 188 48t188 -48q84 -44 152 -120q72 76 152 120q92 48 192 48h4l160 -568q12 -32 -4 -66t-52 -42l-108 -36v-396q0 -72 -50 -122t-122 -50h-256v-256h-512v256
h-256q-72 0 -122 50t-50 122v396l-108 36q-36 8 -52 42t-4 66zM1537 1792q-180 0 -344 -112q-156 108 -340 108t-340 -108q-164 112 -344 112h-168v172h168q176 0 344 -88q160 84 340 84t340 -84q168 88 344 88h168v-172h-168z" />
</svg>
