<?xml version="1.0" standalone="no"?>
<!DOCTYPE svg PUBLIC "-//W3C//DTD SVG 1.1//EN" "http://www.w3.org/Graphics/SVG/1.1/DTD/svg11.dtd" >
<svg xmlns="http://www.w3.org/2000/svg" xmlns:xlink="http://www.w3.org/1999/xlink" version="1.1" viewBox="-10 0 1388 2048">
   <path fill="currentColor"
d="M768 768h472l-472 -468v468zM172 172h684l512 512v1024q0 68 -50 118t-122 50h-1024q-72 0 -122 -50t-50 -118v-1368q0 -68 50 -118t122 -50zM172 1708h768h256v-684l-340 340l-172 -168zM344 768q-72 0 -122 50t-50 120t50 120t120 50t120 -50t50 -120t-50 -120
t-118 -50z" />
</svg>
