<?xml version="1.0" standalone="no"?>
<!DOCTYPE svg PUBLIC "-//W3C//DTD SVG 1.1//EN" "http://www.w3.org/Graphics/SVG/1.1/DTD/svg11.dtd" >
<svg xmlns="http://www.w3.org/2000/svg" xmlns:xlink="http://www.w3.org/1999/xlink" version="1.1" viewBox="-10 0 1728 2048">
   <path fill="currentColor"
d="M852 940q-36 0 -60 24t-24 60t24 60t60 24t60 -24t24 -60t-24 -60t-60 -24zM896 172q136 0 220 48q72 44 92 114t-14 138t-106 104q-108 52 -140 212q64 24 104 76q156 -84 310 -90t250 70t96 224q0 136 -48 220q-44 72 -114 92t-138 -14t-104 -110q-56 -104 -212 -136
q-28 60 -80 104q84 156 90 308t-70 248t-224 96q-136 0 -220 -48q-72 -44 -92 -114t14 -138t110 -104q104 -52 136 -208q-64 -28 -104 -80q-156 84 -308 90t-248 -70t-96 -224q0 -136 48 -220q44 -72 114 -92t136 14t106 110q52 104 212 136q24 -64 76 -104
q-84 -156 -90 -308t70 -248t224 -96z" />
</svg>
