<?xml version="1.0" standalone="no"?>
<!DOCTYPE svg PUBLIC "-//W3C//DTD SVG 1.1//EN" "http://www.w3.org/Graphics/SVG/1.1/DTD/svg11.dtd" >
<svg xmlns="http://www.w3.org/2000/svg" xmlns:xlink="http://www.w3.org/1999/xlink" version="1.1" viewBox="-10 0 1388 2048">
   <path fill="currentColor"
d="M768 768h472l-472 -468v468zM172 172h684l512 512v1024q0 68 -50 118t-122 50h-1024q-72 0 -122 -50t-50 -118v-1368q0 -68 50 -118t122 -50zM1000 1280q-24 -108 -112 -182t-204 -74q-92 0 -168 46t-116 126q-96 12 -162 84t-66 174t74 178t182 76h556q88 0 150 -64
t62 -150t-58 -146t-138 -68z" />
</svg>
