<?xml version="1.0" standalone="no"?>
<!DOCTYPE svg PUBLIC "-//W3C//DTD SVG 1.1//EN" "http://www.w3.org/Graphics/SVG/1.1/DTD/svg11.dtd" >
<svg xmlns="http://www.w3.org/2000/svg" xmlns:xlink="http://www.w3.org/1999/xlink" version="1.1" viewBox="-10 0 1388 2048">
   <path fill="currentColor"
d="M684 896h84v256h-84v-256zM256 980h88v-84h-88v84zM1368 512v1024q0 72 -50 122t-122 50h-1024q-72 0 -122 -50t-50 -122v-1024q0 -72 50 -122t122 -50h1024q72 0 122 50t50 122zM472 896q0 -52 -38 -90t-90 -38h-216v512h128v-172h88q52 0 90 -36t38 -92v-84zM896 896
q0 -52 -36 -90t-92 -38h-212v512h212q56 0 92 -38t36 -90v-256zM1240 768h-256v512h128v-172h128v-128h-128v-84h128v-128z" />
</svg>
