<?xml version="1.0" standalone="no"?>
<!DOCTYPE svg PUBLIC "-//W3C//DTD SVG 1.1//EN" "http://www.w3.org/Graphics/SVG/1.1/DTD/svg11.dtd" >
<svg xmlns="http://www.w3.org/2000/svg" xmlns:xlink="http://www.w3.org/1999/xlink" version="1.1" viewBox="-10 0 1556 2048">
   <path fill="currentColor"
d="M1265 380q-12 0 -20 -4q-124 -64 -236 -92t-240 -28q-256 0 -476 120q-12 8 -30 4t-26 -20t-4 -34t20 -26q236 -128 516 -128q136 0 260 30t256 98q16 8 20 26t-4 30q-12 24 -36 24zM45 828q-16 0 -28 -8t-16 -26t8 -30q128 -184 320 -280q204 -104 442 -104t434 100
t324 280q8 12 6 30t-16 28t-32 8t-30 -14q-112 -164 -288 -252q-184 -96 -402 -96t-398 96q-176 88 -292 252q-12 16 -32 16zM577 1860q-16 0 -28 -12q-60 -60 -96 -106t-76 -122q-92 -160 -92 -368q0 -124 66 -230t176 -168t242 -62t242 62t176 168t66 230q0 16 -14 28
t-30 12t-30 -12t-14 -28q0 -104 -52 -190t-144 -136t-200 -50t-200 50t-144 136t-52 190q0 188 76 328q40 68 76 116q28 36 84 92q12 12 12 28t-14 30t-30 14zM1189 1700q-152 0 -264 -76q-96 -64 -150 -162t-54 -210q0 -20 12 -32t30 -12t30 12t12 32q0 88 44 170t124 134
q88 60 216 60q40 0 88 -8q20 -4 34 6t16 28t-8 32t-26 18q-52 8 -104 8zM1017 1876h-12q-100 -28 -174 -70t-142 -110q-88 -88 -136 -204t-48 -240q0 -104 76 -178t186 -74t186 74t76 178q0 68 52 116t126 48t126 -48t52 -116q0 -160 -84 -294t-226 -212t-310 -78
q-180 0 -336 94t-228 250q-48 104 -48 240q0 156 56 308q4 16 -2 32t-24 22t-34 -2t-20 -24q-64 -164 -64 -336q0 -156 60 -276q84 -180 258 -288t382 -108q192 0 354 90t256 244t94 338q0 100 -76 174t-186 74t-186 -74t-76 -174q0 -72 -52 -120t-126 -48t-126 48t-52 120
q0 108 42 208t118 176q60 60 124 96t156 60q16 4 24 20t4 32t-14 24t-26 8z" />
</svg>
