<?xml version="1.0" standalone="no"?>
<!DOCTYPE svg PUBLIC "-//W3C//DTD SVG 1.1//EN" "http://www.w3.org/Graphics/SVG/1.1/DTD/svg11.dtd" >
<svg xmlns="http://www.w3.org/2000/svg" xmlns:xlink="http://www.w3.org/1999/xlink" version="1.1" viewBox="-10 0 1727 2048">
   <path fill="currentColor"
d="M620 676zM412 576zM1644 732q-28 -64 -78 -128t-94 -88q68 132 88 260v4q-40 -96 -104 -184q-36 -56 -120 -152q-116 -132 -172 -216l-28 -48q-12 -24 -12 -36h-4q-132 72 -208 208q-64 108 -84 220q-88 4 -168 44q-16 8 -12 28q4 8 12 12t16 0q72 -32 152 -40h24
q60 0 124 16l24 8l44 20l36 20q96 60 148 152q-40 -24 -92 -40q-60 -16 -112 -8q108 56 154 168t18 230t-120 190q-104 80 -256 76q-52 -4 -108 -24q-16 -4 -28 -8l-12 -8q-84 -44 -140 -116t-64 -164l12 -24q12 -24 40 -48q36 -32 84 -52q64 -24 148 -24q20 0 60 -38
t44 -54q0 -4 -44 -24q-124 -64 -164 -100l-60 -56l-20 -16q-32 -104 -4 -208q-108 48 -204 156q-24 -28 -28 -112q-4 -52 -4 -100q-4 0 -28 16q-44 28 -84 68q-44 48 -80 96q-88 132 -112 260l-4 4q-8 40 -12 76l-8 68v36q0 232 114 428t310 310t428 114q208 0 388 -92
t300 -254t156 -362l4 -32q28 -232 -56 -432z" />
</svg>
