<?xml version="1.0" standalone="no"?>
<!DOCTYPE svg PUBLIC "-//W3C//DTD SVG 1.1//EN" "http://www.w3.org/Graphics/SVG/1.1/DTD/svg11.dtd" >
<svg xmlns="http://www.w3.org/2000/svg" xmlns:xlink="http://www.w3.org/1999/xlink" version="1.1" viewBox="-10 0 1215 2048">
   <path fill="currentColor"
d="M1081 956q-16 -20 -56 -60l-12 -12q-24 -20 -80 -60q-64 -52 -96 -80q-96 -92 -116 -230t44 -258q-104 24 -216 112q-164 136 -222 348t18 412q8 16 8 28q0 32 -30 44t-54 -12q-8 -4 -12 -12q-72 -92 -84 -212t36 -228q-104 88 -160 224t-48 276q8 84 24 128
q16 68 60 148q68 108 182 182t242 90q144 20 276 -12q140 -32 240 -124q120 -108 156 -262t-24 -302l-12 -20q-16 -40 -64 -108zM809 1492q-44 40 -92 52q-68 24 -140 0q-60 -20 -108 -68q72 -20 118 -68t62 -108q12 -48 -12 -136l-12 -56q-16 -96 16 -176q28 64 52 92
t76 74t72 74q32 40 44 92q4 16 4 36q4 52 -18 106t-62 86z" />
</svg>
