<?xml version="1.0" standalone="no"?>
<!DOCTYPE svg PUBLIC "-//W3C//DTD SVG 1.1//EN" "http://www.w3.org/Graphics/SVG/1.1/DTD/svg11.dtd" >
<svg xmlns="http://www.w3.org/2000/svg" xmlns:xlink="http://www.w3.org/1999/xlink" version="1.1" viewBox="-10 0 1833 2048">
   <path fill="currentColor"
d="M1089 1724l240 -240l-240 -240l120 -120l240 236l244 -236l120 120l-240 240l240 240l-120 120l-244 -240l-240 240zM853 972v672q4 44 -22 70t-62 26t-60 -24l-172 -172q-32 -32 -24 -72v-500h-4l-492 -628q-20 -28 -16 -64t30 -56t54 -20h1196q28 0 54 20t30 56t-16 64
l-492 628h-4z" />
</svg>
