<?xml version="1.0" standalone="no"?>
<!DOCTYPE svg PUBLIC "-//W3C//DTD SVG 1.1//EN" "http://www.w3.org/Graphics/SVG/1.1/DTD/svg11.dtd" >
<svg xmlns="http://www.w3.org/2000/svg" xmlns:xlink="http://www.w3.org/1999/xlink" version="1.1" viewBox="-10 0 1724 2048">
   <path fill="currentColor"
d="M1448 1452h-680v-88q0 -76 128 -128q104 -40 212 -40t212 40q128 52 128 128v88zM1108 768q72 0 122 50t50 120t-50 120t-122 50t-122 -50t-50 -120t50 -120t122 -50zM1536 512h-684l-172 -172h-512q-68 0 -118 50t-50 122v1024q0 72 50 122t118 50h1368q68 0 118 -50
t50 -122v-852q0 -72 -50 -122t-118 -50z" />
</svg>
