<?xml version="1.0" standalone="no"?>
<!DOCTYPE svg PUBLIC "-//W3C//DTD SVG 1.1//EN" "http://www.w3.org/Graphics/SVG/1.1/DTD/svg11.dtd" >
<svg xmlns="http://www.w3.org/2000/svg" xmlns:xlink="http://www.w3.org/1999/xlink" version="1.1" viewBox="-10 0 1556 2048">
   <path fill="currentColor"
d="M172 256q-72 0 -122 50t-50 122v1192q0 72 50 122t122 50h1192q72 0 122 -50t50 -122v-1152l-212 -212h-128v512q0 36 -26 60t-62 24h-680q-36 0 -62 -24t-26 -60v-512h-168zM768 340v428h256v-428h-256zM340 1024h856q36 0 60 24t24 60v512h-1024v-512q0 -36 24 -60
t60 -24z" />
</svg>
