<?xml version="1.0" standalone="no"?>
<!DOCTYPE svg PUBLIC "-//W3C//DTD SVG 1.1//EN" "http://www.w3.org/Graphics/SVG/1.1/DTD/svg11.dtd" >
<svg xmlns="http://www.w3.org/2000/svg" xmlns:xlink="http://www.w3.org/1999/xlink" version="1.1" viewBox="-10 0 1556 2048">
   <path fill="currentColor"
d="M0 1152q0 208 104 386t280 280t384 102q0 -208 -104 -384t-280 -280t-384 -104zM768 512q88 0 150 64t62 152t-62 150t-150 62t-150 -62t-62 -150t62 -152t150 -64zM220 920q0 88 64 150t152 62q64 0 120 -36v16q0 88 62 150t150 62t150 -62t62 -150v-16q56 36 120 36
q88 0 152 -62t64 -150q0 -64 -34 -116t-90 -76q56 -28 90 -80t34 -112q0 -88 -64 -152t-152 -64q-68 0 -120 40v-16q0 -88 -62 -152t-150 -64t-150 64t-62 152v16q-52 -40 -120 -40q-88 0 -152 64t-64 152q0 60 34 112t90 80q-56 24 -90 76t-34 116zM768 1920
q208 0 384 -102t280 -280t104 -386q-208 0 -386 104t-280 280t-102 384z" />
</svg>
