<?xml version="1.0" standalone="no"?>
<!DOCTYPE svg PUBLIC "-//W3C//DTD SVG 1.1//EN" "http://www.w3.org/Graphics/SVG/1.1/DTD/svg11.dtd" >
<svg xmlns="http://www.w3.org/2000/svg" xmlns:xlink="http://www.w3.org/1999/xlink" version="1.1" viewBox="-10 0 1995 2048">
   <path fill="currentColor"
d="M293 292q0 40 -19.5 73.5t-53.5 52.5v1448q0 14 -11.5 25t-25.5 11h-73q-14 0 -25.5 -11t-11.5 -25v-1448q-34 -19 -53.5 -52.5t-19.5 -73.5q0 -60 42.5 -103t103.5 -43t104 43t43 103zM1975 366v872q0 28 -14.5 44t-44.5 32q-113 61 -216 96.5t-206 35.5
q-58 0 -114 -16.5t-103.5 -40t-97 -47.5t-113 -40t-132.5 -16q-220 0 -530 166q-19 10 -38 10q-30 0 -51.5 -21t-21.5 -51v-848q0 -38 35 -64q24 -16 90 -48q270 -138 482 -138q121 0 226.5 33.5t251.5 100.5q44 22 101 22q61 0 134 -24t126 -53.5t100.5 -54t62.5 -24.5
q30 0 51.5 22t21.5 52z" />
</svg>
