<?xml version="1.0" standalone="no"?>
<!DOCTYPE svg PUBLIC "-//W3C//DTD SVG 1.1//EN" "http://www.w3.org/Graphics/SVG/1.1/DTD/svg11.dtd" >
<svg xmlns="http://www.w3.org/2000/svg" xmlns:xlink="http://www.w3.org/1999/xlink" version="1.1" viewBox="-10 0 1556 2048">
   <path fill="currentColor"
d="M1024 1452h172v-172h-172v172zM1024 428h172v-172h-172v172zM172 596h-172v1024q0 72 50 122t122 50h1024v-172h-1024v-1024zM1364 1452q72 0 122 -50t50 -122h-172v172zM1364 768h172v-172h-172v172zM1364 1108h172v-168h-172v168zM512 1452v-172h-172q0 72 50 122
t122 50zM852 256h-168v172h168v-172zM1364 256v172h172q0 -72 -50 -122t-122 -50zM852 1280h-168v172h168v-172zM512 256q-72 0 -122 50t-50 122h172v-172zM512 940h-172v168h172v-168zM512 596h-172v172h172v-172z" />
</svg>
