<?xml version="1.0" standalone="no"?>
<!DOCTYPE svg PUBLIC "-//W3C//DTD SVG 1.1//EN" "http://www.w3.org/Graphics/SVG/1.1/DTD/svg11.dtd" >
<svg xmlns="http://www.w3.org/2000/svg" xmlns:xlink="http://www.w3.org/1999/xlink" version="1.1" viewBox="-10 0 1556 2048">
   <path fill="currentColor"
d="M460 1792l-460 -460q0 160 16 256q20 120 42 144t142 44q92 16 260 16zM1068 844l-480 480l-120 -120l480 -480zM24 1116l652 652q356 -64 564 -272t272 -564l-652 -652q-356 64 -564 270t-272 566zM1076 256l460 460q0 -160 -16 -256q-20 -124 -44 -146t-140 -42
q-104 -16 -260 -16z" />
</svg>
