<?xml version="1.0" standalone="no"?>
<!DOCTYPE svg PUBLIC "-//W3C//DTD SVG 1.1//EN" "http://www.w3.org/Graphics/SVG/1.1/DTD/svg11.dtd" >
<svg xmlns="http://www.w3.org/2000/svg" xmlns:xlink="http://www.w3.org/1999/xlink" version="1.1" viewBox="-10 0 1812 2048">
   <path fill="currentColor"
d="M936 1624h-768q-68 0 -118 -50t-50 -122v-1024q0 -72 50 -122t118 -50h512l172 172h684q68 0 118 50t50 122v260q-112 -92 -256 -92q-108 0 -202 54t-150 142t-56 188v20q-48 40 -76 96t-28 116v240zM1792 1392v300q0 40 -34 70t-78 30h-468q-40 0 -72 -32t-32 -76v-300
q0 -40 32 -72t72 -32v-128q0 -88 72 -150t164 -62t166 62t74 150v128q40 0 72 34t32 78zM1576 1152q0 -48 -36 -78t-90 -30t-92 30t-38 78v128h256v-128z" />
</svg>
