<?xml version="1.0" standalone="no"?>
<!DOCTYPE svg PUBLIC "-//W3C//DTD SVG 1.1//EN" "http://www.w3.org/Graphics/SVG/1.1/DTD/svg11.dtd" >
<svg xmlns="http://www.w3.org/2000/svg" xmlns:xlink="http://www.w3.org/1999/xlink" version="1.1" viewBox="-10 0 1812 2048">
   <path fill="currentColor"
d="M1040 1068v104q-48 40 -76 96t-28 116v240h-768q-68 0 -118 -50t-50 -122v-1024q0 -72 50 -122t118 -50h512l172 172h684q68 0 118 50t50 122v172q-112 -88 -256 -88q-108 0 -202 52t-150 140t-56 192zM1688 1280h-368v-212q0 -48 38 -80t92 -32t90 32t36 80v44h112v-44
q0 -88 -74 -150t-166 -62t-164 62t-72 150v212q-40 0 -72 32t-32 72v300q0 44 32 76t72 32h468q44 0 78 -30t34 -70v-300q0 -44 -32 -78t-72 -34z" />
</svg>
