<?xml version="1.0" standalone="no"?>
<!DOCTYPE svg PUBLIC "-//W3C//DTD SVG 1.1//EN" "http://www.w3.org/Graphics/SVG/1.1/DTD/svg11.dtd" >
<svg xmlns="http://www.w3.org/2000/svg" xmlns:xlink="http://www.w3.org/1999/xlink" version="1.1" viewBox="-10 0 1922 2048">
   <path fill="currentColor"
d="M1902 1086q0 189 -69 358l-23 56l-211 38q-25 95 -103 156.5t-179 61.5v36q0 15 -10.5 25.5t-26.5 10.5h-73q-16 0 -26.5 -10.5t-10.5 -25.5v-658q0 -16 10.5 -26t26.5 -10h73q16 0 26.5 10t10.5 26v36q81 0 148.5 40.5t105.5 109.5l78 -14q33 -106 33 -220
q0 -127 -60 -246.5t-159 -207t-234 -141t-278 -53.5t-278.5 53.5t-234.5 141t-159 207t-60 246.5q0 111 34 220l77 14q38 -68 106 -109t149 -41v-36q0 -16 10.5 -26t26.5 -10h73q16 0 26 10t10 26v658q0 15 -10 25.5t-26 10.5h-73q-16 0 -26.5 -10.5t-10.5 -25.5v-36
q-101 0 -179 -61.5t-103 -156.5l-212 -38l-22 -56q-69 -169 -69 -358q0 -116 35 -227.5t97 -206.5t150.5 -175.5t193 -137t226.5 -88t249 -31.5t249 31.5t226.5 88t193 137t150.5 175.5t97 206.5t35 227.5z" />
</svg>
