<?xml version="1.0" standalone="no"?>
<!DOCTYPE svg PUBLIC "-//W3C//DTD SVG 1.1//EN" "http://www.w3.org/Graphics/SVG/1.1/DTD/svg11.dtd" >
<svg xmlns="http://www.w3.org/2000/svg" xmlns:xlink="http://www.w3.org/1999/xlink" version="1.1" viewBox="-10 0 1556 2048">
   <path fill="currentColor"
d="M1364 1278q-20 28 -44 52q-48 64 -80 120q-44 76 -44 128q0 72 50 122t120 50t120 -50t50 -122q0 -52 -44 -128q-32 -56 -84 -120zM188 1150l408 -408l412 408h-820zM1156 1062l-760 -764l-124 120l204 204l-440 440q-36 36 -36 90t36 90l472 468q36 40 90 40t90 -40
l468 -468q40 -36 40 -90t-40 -90z" />
</svg>
