<?xml version="1.0" standalone="no"?>
<!DOCTYPE svg PUBLIC "-//W3C//DTD SVG 1.1//EN" "http://www.w3.org/Graphics/SVG/1.1/DTD/svg11.dtd" >
<svg xmlns="http://www.w3.org/2000/svg" xmlns:xlink="http://www.w3.org/1999/xlink" version="1.1" viewBox="-10 0 1640 2048">
   <path fill="currentColor"
d="M424 1108v-168h1196v168h-1196zM424 1620v-168h1196v168h-1196zM424 596v-168h1196v168h-1196zM84 684v-256h-84v-88h168v344h-84zM0 1452v-88h256v344h-256v-88h168v-40h-84v-88h84v-40h-168zM192 852q24 0 44 20t20 46t-20 42l-140 148h160v88h-256v-80l168 -176h-168
v-88h192z" />
</svg>
