<?xml version="1.0" standalone="no"?>
<!DOCTYPE svg PUBLIC "-//W3C//DTD SVG 1.1//EN" "http://www.w3.org/Graphics/SVG/1.1/DTD/svg11.dtd" >
<svg xmlns="http://www.w3.org/2000/svg" xmlns:xlink="http://www.w3.org/1999/xlink" version="1.1" viewBox="-10 0 1900 2048">
   <path fill="currentColor"
d="M1880 1030v172h-376q36 76 40 184q4 120 -44 224q-56 124 -176 192q-136 80 -352 80q-316 4 -492 -140q-128 -104 -172 -268q-24 -84 -20 -144l340 4q0 184 144 252q80 36 180 32h12q92 -8 148 -36q104 -48 112 -166t-188 -214h-1036v-172h1880zM1572 678h-340v-40
q-8 -44 -28 -80q-28 -52 -84 -80q-64 -40 -168 -40q-176 0 -240 88q-32 48 -28 120v4q8 44 44 88q68 76 212 112h-536l-24 -60q-28 -76 -36 -148q-8 -104 24 -188q40 -100 140 -168q120 -80 324 -108q136 -20 244 -8q104 8 184 44q76 28 132 76q52 44 88 100q32 48 56 104
q16 44 24 92q8 36 10 66t2 26z" />
</svg>
