<?xml version="1.0" standalone="no"?>
<!DOCTYPE svg PUBLIC "-//W3C//DTD SVG 1.1//EN" "http://www.w3.org/Graphics/SVG/1.1/DTD/svg11.dtd" >
<svg xmlns="http://www.w3.org/2000/svg" xmlns:xlink="http://www.w3.org/1999/xlink" version="1.1" viewBox="-10 0 1212 2048">
   <path fill="currentColor"
d="M340 1792v84h-172v-84q-68 0 -118 -50t-50 -122v-1280q0 -68 50 -118t118 -50h856q68 0 118 50t50 118v1280q0 72 -50 122t-118 50v84h-172v-84h-512zM168 340v428h856v-428h-856zM168 1620h856v-680h-856v680zM256 1024h168v256h-168v-256zM256 512h168v172h-168v-172z
" />
</svg>
