<?xml version="1.0" standalone="no"?>
<!DOCTYPE svg PUBLIC "-//W3C//DTD SVG 1.1//EN" "http://www.w3.org/Graphics/SVG/1.1/DTD/svg11.dtd" >
<svg xmlns="http://www.w3.org/2000/svg" xmlns:xlink="http://www.w3.org/1999/xlink" version="1.1" viewBox="-10 0 1922 2048">
   <path fill="currentColor"
d="M878 402v1244q0 30 -21.5 51t-51.5 21q-31 0 -52 -20l-380 -382h-300q-30 0 -51.5 -21t-21.5 -51v-440q0 -30 21.5 -51t51.5 -21h300l380 -382q21 -20 52 -20q30 0 51.5 21t21.5 51zM1317 1024q0 87 -49 162t-129 106q-11 6 -28 6q-30 0 -51.5 -21t-21.5 -51
q0 -24 13.5 -41t33 -28.5t39 -26t33 -41t13.5 -65t-13.5 -65t-33 -41t-39 -26.5t-33 -29t-13.5 -41q0 -30 21.5 -51t51.5 -21q17 0 28 6q79 31 128.5 106.5t49.5 161.5zM1609 1024.5q0 174.5 -97 322.5t-257 215q-18 6 -29 6q-31 0 -52.5 -21.5t-21.5 -52.5q0 -42 45 -66
q65 -34 86 -50q85 -62 132.5 -155.5t47.5 -198t-47.5 -198.5t-132.5 -156q-21 -16 -86 -50q-45 -24 -45 -66q0 -30 21.5 -52t51.5 -22q15 0 30 6q160 67 257 215.5t97 323zM1902 1024.5q0 173.5 -65.5 333t-186 282t-280.5 190.5q-18 6 -29 6q-30 0 -52 -21.5t-22 -50.5
q0 -41 45 -68q8 -4 25.5 -11.5t25.5 -12.5q49 -26 94 -58q140 -104 219 -259.5t79 -330t-79 -330.5t-219 -260q-40 -29 -94 -58q-8 -4 -25.5 -11.5t-25.5 -12.5q-45 -26 -45 -68q0 -29 22 -50.5t52 -21.5q11 0 29 6q160 68 280.5 191t186 282.5t65.5 333z" />
</svg>
