<?xml version="1.0" standalone="no"?>
<!DOCTYPE svg PUBLIC "-//W3C//DTD SVG 1.1//EN" "http://www.w3.org/Graphics/SVG/1.1/DTD/svg11.dtd" >
<svg xmlns="http://www.w3.org/2000/svg" xmlns:xlink="http://www.w3.org/1999/xlink" version="1.1" viewBox="-10 0 1544 2048">
   <path fill="currentColor"
d="M1024 502l-392 392l392 392l-120 120l-392 -392l-392 392l-120 -120l392 -392l-392 -392l120 -120l392 392l392 -392zM1524 1666h-416v-88l76 -68q96 -80 144 -138t48 -106q4 -36 -22 -60t-68 -24t-78 16l-56 32l-36 -100q36 -28 84 -44q56 -20 108 -20q104 4 154 56
t50 128t-44 136t-108 116l-56 44v4h220v116z" />
</svg>
