<?xml version="1.0" standalone="no"?>
<!DOCTYPE svg PUBLIC "-//W3C//DTD SVG 1.1//EN" "http://www.w3.org/Graphics/SVG/1.1/DTD/svg11.dtd" >
<svg xmlns="http://www.w3.org/2000/svg" xmlns:xlink="http://www.w3.org/1999/xlink" version="1.1" viewBox="-10 0 1629 2048">
   <path fill="currentColor"
d="M439 1390v146h-146v-146h146zM439 512v146h-146v-146h146zM1317 512v146h-147v-146h147zM146 1682h439v-438h-439v438zM146 804h439v-438h-439v438zM1024 804h439v-438h-439v438zM731 1098v730h-731v-730h731zM1317 1682v146h-147v-146h147zM1609 1682v146h-146v-146h146
zM1609 1098v438h-439v-146h-146v438h-146v-730h439v146h146v-146h146zM731 220v730h-731v-730h731zM1609 220v730h-731v-730h731z" />
</svg>
