<?xml version="1.0" standalone="no"?>
<!DOCTYPE svg PUBLIC "-//W3C//DTD SVG 1.1//EN" "http://www.w3.org/Graphics/SVG/1.1/DTD/svg11.dtd" >
<svg xmlns="http://www.w3.org/2000/svg" xmlns:xlink="http://www.w3.org/1999/xlink" version="1.1" viewBox="-10 0 1044 2048">
   <path fill="currentColor"
d="M512 256q140 0 258 70t186 188t68 254q0 192 -122 334t-306 174v176h172v172h-172v168h-168v-168h-172v-172h172v-176q-184 -32 -306 -174t-122 -334q0 -136 68 -254t186 -188t258 -70zM512 428q-140 0 -240 100t-100 242t100 242t240 100t240 -100t100 -242t-100 -242
t-240 -100z" />
</svg>
