<?xml version="1.0" standalone="no"?>
<!DOCTYPE svg PUBLIC "-//W3C//DTD SVG 1.1//EN" "http://www.w3.org/Graphics/SVG/1.1/DTD/svg11.dtd" >
<svg xmlns="http://www.w3.org/2000/svg" xmlns:xlink="http://www.w3.org/1999/xlink" version="1.1" viewBox="-10 0 1724 2048">
   <path fill="currentColor"
d="M852 172q-168 0 -326 64t-278 184t-184 278t-64 326t64 326t184 278t278 184t326 64t326 -64t278 -184t184 -278t64 -326t-64 -326t-184 -278t-278 -184t-326 -64zM852 340q184 0 342 92t250 250t92 342q0 152 -60 284t-172 228q-88 -84 -206 -128t-246 -44
q-256 0 -452 172q-112 -96 -172 -228t-60 -284q0 -184 92 -342t250 -250t342 -92zM1024 504q-24 0 -46 14t-34 42l-116 292q-48 8 -82 38t-54 70q-24 68 4 132t94 90t130 -2t92 -92q16 -44 8 -88t-36 -80l120 -300q16 -32 2 -64t-50 -48q-12 -4 -32 -4zM680 512
q-36 0 -60 24t-24 60t24 62t60 26t62 -26t26 -62t-26 -60t-62 -24zM424 768q-36 0 -60 24t-24 60t24 62t60 26t62 -26t26 -62t-26 -60t-62 -24zM1280 768q-36 0 -62 24t-26 60t26 62t62 26t60 -26t24 -62t-24 -60t-60 -24z" />
</svg>
