<?xml version="1.0" standalone="no"?>
<!DOCTYPE svg PUBLIC "-//W3C//DTD SVG 1.1//EN" "http://www.w3.org/Graphics/SVG/1.1/DTD/svg11.dtd" >
<svg xmlns="http://www.w3.org/2000/svg" xmlns:xlink="http://www.w3.org/1999/xlink" version="1.1" viewBox="-10 0 1684 2048">
   <path fill="currentColor"
d="M1648 948h-780v232h556q-20 228 -192 356q-152 108 -364 108q-164 0 -304 -80t-224 -222t-84 -316t82 -316t222 -224t306 -82t310 84q72 40 112 84l160 -168l-36 -36q-52 -44 -116 -80q-84 -52 -184 -80q-120 -36 -252 -36q-236 0 -436 120q-192 116 -308 314t-116 416
t112 416t304 314q208 124 456 124q228 0 408 -96t282 -274t102 -406q0 -96 -16 -152z" />
</svg>
