<?xml version="1.0" standalone="no"?>
<!DOCTYPE svg PUBLIC "-//W3C//DTD SVG 1.1//EN" "http://www.w3.org/Graphics/SVG/1.1/DTD/svg11.dtd" >
<svg xmlns="http://www.w3.org/2000/svg" xmlns:xlink="http://www.w3.org/1999/xlink" version="1.1" viewBox="-11 0 1412 2048">
   <path fill="currentColor"
d="M1243 172q-124 0 -212 76q-76 68 -106 172t-2 180t100 76t166 -76t154 -180t44 -172q-20 -76 -144 -76zM695 232h-20q-68 12 -100 72q-32 52 -26 124t36 128t68 58t74 -56t52 -136t-4 -134t-80 -56zM347 372q-16 0 -32 8q-76 28 -76 116q0 72 48 142t90 62t58 -92
t-4 -156q-24 -84 -84 -80zM91 584q-20 0 -44 16q-60 40 -44 116q16 68 70 120t90 36t36 -88t-30 -134t-78 -66zM807 748q-144 0 -284 48q-152 48 -256 136q-112 100 -144 228q-32 148 56 316t240 284q168 116 340 116q88 0 178 -48t156 -130t86 -182q8 -52 -40 -76t-118 -16
t-124 36t-46 64q8 60 -20 98t-76 42t-100 -36q-80 -60 -72 -120q4 -52 76 -108q44 -36 164 -108q168 -104 232 -168q108 -104 88 -212q-12 -80 -106 -122t-230 -42z" />
</svg>
