<?xml version="1.0" standalone="no"?>
<!DOCTYPE svg PUBLIC "-//W3C//DTD SVG 1.1//EN" "http://www.w3.org/Graphics/SVG/1.1/DTD/svg11.dtd" >
<svg xmlns="http://www.w3.org/2000/svg" xmlns:xlink="http://www.w3.org/1999/xlink" version="1.1" viewBox="-10 0 1724 2048">
   <path fill="currentColor"
d="M852 192q-168 0 -326 64t-278 184t-184 278t-64 326q0 280 162 502t422 310q28 4 42 -10t14 -34v-144q-148 32 -232 -40q-44 -32 -56 -76q-16 -44 -44 -76q-16 -24 -36 -36l-16 -12q-32 -24 -32 -36t20 -12l20 -4q52 4 96 48q24 20 32 40q52 84 136 92q52 4 116 -20
q8 -76 52 -116q-176 -20 -264 -96q-124 -104 -124 -324q0 -132 88 -228q-16 -36 -16 -80q-8 -72 24 -148h24q32 0 76 16q64 24 136 72q100 -28 212 -28t212 28q104 -68 180 -84q40 -8 56 -4q32 76 24 148q0 44 -16 80q88 96 88 228q0 224 -124 324q-92 76 -264 96
q56 52 56 160v232q0 20 14 34t46 10q256 -88 418 -310t162 -502q0 -168 -64 -326t-184 -278t-278 -184t-326 -64z" />
</svg>
