<?xml version="1.0" standalone="no"?>
<!DOCTYPE svg PUBLIC "-//W3C//DTD SVG 1.1//EN" "http://www.w3.org/Graphics/SVG/1.1/DTD/svg11.dtd" >
<svg xmlns="http://www.w3.org/2000/svg" xmlns:xlink="http://www.w3.org/1999/xlink" version="1.1" viewBox="-10 0 1724 2048">
   <path fill="currentColor"
d="M1464 748q-36 0 -70 -14t-60 -40t-40 -60t-14 -72t14 -72t40 -60t60 -40t72 -14t72 14t60 40t40 60t14 72t-14 72t-40 60t-60 40t-74 14zM1464 484q-32 0 -56 22t-24 56t24 56t58 22t56 -22t22 -56t-22 -56t-58 -22zM1704 880v400q0 52 -20 102t-56 86t-86 56t-102 20
q-32 0 -66 -6t-62 -22q-20 68 -60 122t-94 94t-118 62t-136 22q-80 0 -152 -28t-128 -78t-94 -118t-50 -148h-412q-28 0 -48 -22t-20 -50v-712q0 -28 20 -50t48 -22h612q-24 -52 -24 -104t20 -98t54 -80t78 -54t96 -20t98 20t80 54t54 80t20 96t-20 96t-54 80t-80 54t-98 20
l-24 -4l-28 -4v80h772q36 0 58 22t22 54zM904 340q-28 0 -54 10t-46 30t-30 46t-10 56t10 56t30 44t46 30t56 12t54 -12t44 -30t32 -44t12 -56t-12 -56t-32 -46t-44 -30t-56 -10zM492 868h160v-132h-452v132h160v428h132v-428zM1224 1388v-480h-372v464q0 28 -22 50t-50 22
h-192q12 56 42 104t70 84t92 56t116 20t122 -24t102 -68t68 -102t24 -126zM1600 1280v-372h-268v488q20 20 48 32t60 12t62 -14t50 -34t34 -50t14 -62z" />
</svg>
