<?xml version="1.0" standalone="no"?>
<!DOCTYPE svg PUBLIC "-//W3C//DTD SVG 1.1//EN" "http://www.w3.org/Graphics/SVG/1.1/DTD/svg11.dtd" >
<svg xmlns="http://www.w3.org/2000/svg" xmlns:xlink="http://www.w3.org/1999/xlink" version="1.1" viewBox="-10 0 1724 2048">
   <path fill="currentColor"
d="M1364 1662q-72 0 -122 -50t-50 -120t50 -120t122 -50t122 50t50 120t-50 120t-122 50zM1364 1150q-140 0 -240 100t-100 242t100 242t240 100t240 -100t100 -242t-100 -242t-240 -100zM852 990q-68 0 -116 48t-48 114t48 114t116 48t116 -48t48 -114t-48 -114t-116 -48z
M340 1662q-72 0 -122 -50t-50 -120t50 -120t122 -50t122 50t50 120t-50 120t-122 50zM340 1150q-140 0 -240 100t-100 242t100 242t240 100t240 -100t100 -242t-100 -242t-240 -100zM852 382q72 0 122 50t50 122t-50 122t-122 50t-122 -50t-50 -122t50 -122t122 -50z
M852 894q140 0 240 -100t100 -240t-100 -240t-240 -100t-240 100t-100 240t100 240t240 100z" />
</svg>
