<?xml version="1.0" standalone="no"?>
<!DOCTYPE svg PUBLIC "-//W3C//DTD SVG 1.1//EN" "http://www.w3.org/Graphics/SVG/1.1/DTD/svg11.dtd" >
<svg xmlns="http://www.w3.org/2000/svg" xmlns:xlink="http://www.w3.org/1999/xlink" version="1.1" viewBox="-10 0 1724 2048">
   <path fill="currentColor"
d="M1536 428h-780l-76 -256h-512q-68 0 -118 50t-50 118v1112q0 68 50 118t118 50h600l84 256h684q68 0 118 -50t50 -118v-1112q0 -68 -50 -118t-118 -50zM440 1244q-144 0 -246 -102t-102 -246t102 -246t242 -102t236 92l8 4l-104 100l-8 -4q-52 -52 -132 -52t-140 62
t-60 146t60 146t142 62t130 -44q40 -36 52 -84h-188v-132h336l4 8q4 20 4 52q0 152 -94 246t-242 94zM956 1100q36 72 100 144l-48 44zM1020 1036h-84l-28 -92h340l-8 36q-20 40 -44 84q-32 60 -80 116q-56 -68 -96 -144zM1620 1708q0 36 -24 60t-60 24h-600l172 -172
l-68 -236l76 -76l232 228l60 -64l-232 -228q124 -140 164 -300h108v-88h-308v-88h-92v88h-164l-100 -344h752q36 0 60 24t24 60v1112z" />
</svg>
