<?xml version="1.0" standalone="no"?>
<!DOCTYPE svg PUBLIC "-//W3C//DTD SVG 1.1//EN" "http://www.w3.org/Graphics/SVG/1.1/DTD/svg11.dtd" >
<svg xmlns="http://www.w3.org/2000/svg" xmlns:xlink="http://www.w3.org/1999/xlink" version="1.1" viewBox="-10 0 1556 2048">
   <path fill="currentColor"
d="M360 1536q-44 0 -74 -30t-30 -74v-408q0 -140 68 -258t186 -186t258 -68t258 68t186 186t68 258v408q0 44 -30 74t-74 30h-236v-340h168v-172q0 -140 -100 -240t-240 -100t-240 100t-100 240v172h168v340h-236zM1364 256h-1192q-72 0 -122 50t-50 122v1192q0 72 50 122
t122 50h1192q72 0 122 -50t50 -122v-1192q0 -72 -50 -122t-122 -50z" />
</svg>
