<?xml version="1.0" standalone="no"?>
<!DOCTYPE svg PUBLIC "-//W3C//DTD SVG 1.1//EN" "http://www.w3.org/Graphics/SVG/1.1/DTD/svg11.dtd" >
<svg xmlns="http://www.w3.org/2000/svg" xmlns:xlink="http://www.w3.org/1999/xlink" version="1.1" viewBox="-11 0 1501 2048">
   <path fill="currentColor"
d="M1335 348q-104 -92 -272 -136q-32 -8 -120 -24q-108 -16 -188 -16h-32q-80 0 -196 16q-92 16 -120 24q-160 44 -264 136q-124 112 -140 280q-16 152 52 312q136 332 308 588l44 64q96 140 148 192q92 92 182 92t178 -84q56 -52 148 -184l60 -80q164 -228 308 -588
q64 -160 44 -312q-20 -168 -140 -280zM1267 872q-140 348 -288 552q-8 8 -22 30t-22 30q-48 80 -96 136q-68 88 -100 88q-36 0 -100 -76q-36 -44 -100 -136l-4 -12q-8 -8 -22 -30t-22 -30q-164 -248 -288 -552l-4 -8q-28 -104 -28 -176q-4 -140 80 -220q52 -48 196 -92
q16 0 80 -12q136 -24 196 -24h24q64 0 160 16q76 12 112 20q148 44 196 92q96 84 92 228q-4 92 -40 176z" />
</svg>
