<?xml version="1.0" standalone="no"?>
<!DOCTYPE svg PUBLIC "-//W3C//DTD SVG 1.1//EN" "http://www.w3.org/Graphics/SVG/1.1/DTD/svg11.dtd" >
<svg xmlns="http://www.w3.org/2000/svg" xmlns:xlink="http://www.w3.org/1999/xlink" version="1.1" viewBox="-10 0 1640 2048">
   <path fill="currentColor"
d="M1416 258h204v172h-136l-448 452l-124 -120zM768 770q32 0 60 24l172 172q24 28 24 60l-8 36l-340 680q-28 48 -80 48t-76 -48l-156 -316l-316 -152q-48 -24 -48 -76t48 -80l680 -340q12 -8 40 -8zM540 1010l-56 60l240 240l60 -56zM420 1130l-60 60l244 244l60 -60z" />
</svg>
