<?xml version="1.0" standalone="no"?>
<!DOCTYPE svg PUBLIC "-//W3C//DTD SVG 1.1//EN" "http://www.w3.org/Graphics/SVG/1.1/DTD/svg11.dtd" >
<svg xmlns="http://www.w3.org/2000/svg" xmlns:xlink="http://www.w3.org/1999/xlink" version="1.1" viewBox="-11 0 1501 2048">
   <path fill="currentColor"
d="M1335 348q-104 -92 -272 -136q-32 -8 -120 -24q-108 -16 -188 -16h-32q-80 0 -196 16q-92 16 -120 24q-160 44 -264 136q-124 112 -140 280q-16 152 52 312q136 332 308 588l44 64q96 140 148 192q92 92 182 92t178 -84q56 -52 148 -184l60 -80q164 -228 308 -588
q64 -160 44 -312q-20 -168 -140 -280z" />
</svg>
