<?xml version="1.0" standalone="no"?>
<!DOCTYPE svg PUBLIC "-//W3C//DTD SVG 1.1//EN" "http://www.w3.org/Graphics/SVG/1.1/DTD/svg11.dtd" >
<svg xmlns="http://www.w3.org/2000/svg" xmlns:xlink="http://www.w3.org/1999/xlink" version="1.1" viewBox="-10 0 1556 2048">
   <path fill="currentColor"
d="M1536 1034q-36 -12 -76 -24q-92 -32 -180 -80q-120 -68 -216 -156q-116 -108 -176 -244q-76 -160 -76 -348l76 4q92 16 176 48q124 48 216 132q116 100 180 252q76 176 76 416zM0 1034q0 -240 76 -416q64 -152 180 -252q92 -84 216 -132q84 -32 176 -48l76 -4
q0 304 -188 524q-132 156 -348 260q-108 48 -188 68zM768 566q16 24 28 52q40 68 84 128q68 92 144 160q-8 108 -48 204q-32 80 -88 148q-40 48 -84 88l-36 28l-36 -28q-44 -40 -84 -88q-56 -68 -88 -148q-40 -96 -48 -204q108 -100 192 -228q44 -68 64 -112zM1516 1142
l-24 88q-32 108 -76 200q-60 124 -136 200l-60 -44q-68 -56 -128 -124q-80 -92 -124 -188q72 -128 120 -316q200 156 428 184zM1068 1566q-40 76 -116 156q-56 52 -124 104l-60 40l-60 -40q-68 -52 -124 -104q-76 -80 -116 -156l28 -24q32 -32 60 -72q44 -52 72 -112
q64 80 140 104q76 -24 140 -104q40 84 104 156q32 32 56 52zM20 1142q228 -28 428 -184q48 188 120 316q-64 136 -192 260q-68 64 -120 96q-108 -104 -180 -308q-40 -100 -56 -180z" />
</svg>
