<?xml version="1.0" standalone="no"?>
<!DOCTYPE svg PUBLIC "-//W3C//DTD SVG 1.1//EN" "http://www.w3.org/Graphics/SVG/1.1/DTD/svg11.dtd" >
<svg xmlns="http://www.w3.org/2000/svg" xmlns:xlink="http://www.w3.org/1999/xlink" version="1.1" viewBox="-10 0 1556 2048">
   <path fill="currentColor"
d="M172 256h1192q72 0 122 50t50 122v1192q0 72 -50 122t-122 50h-1192q-72 0 -122 -50t-50 -122v-1192q0 -72 50 -122t122 -50zM768 1452l60 -56l4 -4q200 -180 264 -260q100 -120 100 -232q0 -96 -68 -164t-168 -68q-56 0 -106 24t-86 64q-36 -40 -86 -64t-106 -24
q-100 0 -168 68t-68 164q0 112 100 232q64 80 264 260z" />
</svg>
