<?xml version="1.0" standalone="no"?>
<!DOCTYPE svg PUBLIC "-//W3C//DTD SVG 1.1//EN" "http://www.w3.org/Graphics/SVG/1.1/DTD/svg11.dtd" >
<svg xmlns="http://www.w3.org/2000/svg" xmlns:xlink="http://www.w3.org/1999/xlink" version="1.1" viewBox="-10 0 1724 2048">
   <path fill="currentColor"
d="M852 1806l-124 -112q-276 -248 -384 -360q-172 -176 -252 -312q-92 -156 -92 -312q0 -128 62 -236t170 -170t236 -62q84 0 164 28l304 512l-340 428zM1236 242q128 0 236 62t170 170t62 236q0 156 -92 312q-80 136 -252 312q-108 112 -384 360l-124 112l-84 -596
l384 -428l-228 -432q140 -108 312 -108z" />
</svg>
