<?xml version="1.0" standalone="no"?>
<!DOCTYPE svg PUBLIC "-//W3C//DTD SVG 1.1//EN" "http://www.w3.org/Graphics/SVG/1.1/DTD/svg11.dtd" >
<svg xmlns="http://www.w3.org/2000/svg" xmlns:xlink="http://www.w3.org/1999/xlink" version="1.1" viewBox="-10 0 1039 2048">
   <path fill="currentColor"
d="M340 1620h256v256h-256v-256zM512 172q220 8 364 144q132 128 142 320t-122 360q-36 44 -128 112q-84 68 -112 100q-40 48 -52 116q-8 40 -8 128h-256q0 -140 8 -196q12 -96 52 -152q24 -40 72 -80q28 -20 86 -58t82 -54q100 -96 120 -206t-46 -190t-202 -88
q-108 0 -182 74t-74 182h-256q0 -140 68 -258t186 -186t258 -68z" />
</svg>
