<?xml version="1.0" standalone="no"?>
<!DOCTYPE svg PUBLIC "-//W3C//DTD SVG 1.1//EN" "http://www.w3.org/Graphics/SVG/1.1/DTD/svg11.dtd" >
<svg xmlns="http://www.w3.org/2000/svg" xmlns:xlink="http://www.w3.org/1999/xlink" version="1.1" viewBox="-11 0 1924 2048">
   <path fill="currentColor"
d="M1873 546q46 65 21 148l-315 1036q-21 72 -87 122t-140 50h-1055q-88 0 -169.5 -61t-113.5 -151q-27 -78 -3 -144q1 -8 4.5 -33t3.5 -41q1 -8 -3 -23.5t-3 -22.5q3 -12 10 -24t18.5 -27.5t17.5 -26.5q26 -44 51.5 -105t34.5 -105q3 -11 0 -33.5t0 -32.5q4 -12 19.5 -31.5
t19.5 -26.5q25 -42 49 -106t28 -102q1 -10 -3 -36.5t0 -31.5q5 -16 25.5 -35.5t25.5 -26.5q22 -30 48.5 -96.5t31.5 -109.5q1 -9 -3 -29t-3 -31q3 -9 11 -20.5t20.5 -26t18.5 -23.5q8 -12 16.5 -30.5t15 -35t15.5 -36t18 -34t22.5 -29t29 -20.5t37.5 -8.5t48 7.5l-1 2
q38 -10 59 -10h869q41 0 75 17t56 47q46 63 20 148l-313 1036q-14 48 -25 78t-25.5 56t-29.5 40t-37 24.5t-48 14t-64 3.5h-993q-31 0 -43 16q-7 11 -7 20.5t6 29.5q28 80 164 80h1055q34 0 64.5 -18t39.5 -48l343 -1128q8 -24 6 -64q43 16 67 48zM657 548q-5 16 2.5 27
t22.5 11h695q15 0 29 -11t19 -27l24 -72q6 -16 -1.5 -27t-23.5 -11h-695q-14 0 -28.5 11t-19.5 27zM562 842q-5 15 2 25.5t23 10.5h695q15 0 29 -10.5t19 -25.5l24 -74q6 -15 -1.5 -25.5t-23.5 -10.5h-695q-14 0 -28.5 10.5t-19.5 25.5z" />
</svg>
