<?xml version="1.0" standalone="no"?>
<!DOCTYPE svg PUBLIC "-//W3C//DTD SVG 1.1//EN" "http://www.w3.org/Graphics/SVG/1.1/DTD/svg11.dtd" >
<svg xmlns="http://www.w3.org/2000/svg" xmlns:xlink="http://www.w3.org/1999/xlink" version="1.1" viewBox="-10 0 1724 2048">
   <path fill="currentColor"
d="M860 1570l-8 8l-8 -8q-256 -232 -356 -332q-160 -160 -236 -276q-84 -132 -84 -252q0 -128 86 -212t214 -84q100 0 186 56t118 144h160q32 -88 118 -144t186 -56q128 0 214 84t86 212q0 120 -84 252q-76 116 -236 276q-100 100 -356 332zM1236 242q-112 0 -212 48
t-172 128q-72 -80 -172 -128t-212 -48q-128 0 -236 62t-170 170t-62 236q0 156 92 312q80 136 252 312q108 112 384 360l124 112l124 -112q276 -248 384 -360q172 -176 252 -312q92 -156 92 -312q0 -128 -62 -236t-170 -170t-236 -62z" />
</svg>
