<?xml version="1.0" standalone="no"?>
<!DOCTYPE svg PUBLIC "-//W3C//DTD SVG 1.1//EN" "http://www.w3.org/Graphics/SVG/1.1/DTD/svg11.dtd" >
<svg xmlns="http://www.w3.org/2000/svg" xmlns:xlink="http://www.w3.org/1999/xlink" version="1.1" viewBox="-10 0 1726 2048">
   <path fill="currentColor"
d="M854 598q68 0 132 4q160 8 296 28q184 28 292 76q132 60 132 148v140q0 140 -20 136q-20 -96 -156 -160q-108 -52 -284 -84q-124 -20 -272 -28l-120 -4l-120 4q-148 8 -272 28q-176 32 -284 84q-132 64 -156 160q-20 4 -20 -136q-4 -68 0 -140q0 -116 220 -180
q156 -48 412 -68q124 -8 220 -8zM854 938q192 0 340 20q124 16 216 48q76 24 124 56q36 24 56 48l12 20q-48 136 -92 196q-52 72 -140 98t-260 26q-108 0 -156 -32q-28 -16 -48 -56q-12 -20 -22 -30t-30 -10t-30 10t-22 30q-20 40 -48 56q-48 32 -156 32q-172 0 -260 -26
t-140 -98q-44 -60 -92 -196l12 -20q20 -24 56 -48q48 -32 124 -56q92 -32 216 -48q148 -20 340 -20z" />
</svg>
