<?xml version="1.0" standalone="no"?>
<!DOCTYPE svg PUBLIC "-//W3C//DTD SVG 1.1//EN" "http://www.w3.org/Graphics/SVG/1.1/DTD/svg11.dtd" >
<svg xmlns="http://www.w3.org/2000/svg" xmlns:xlink="http://www.w3.org/1999/xlink" version="1.1" viewBox="-10 0 1716 2048">
   <path fill="currentColor"
d="M308 1684q200 164 456 188v-172q-184 -20 -336 -136zM932 1700v172q256 -24 456 -188l-124 -120q-148 112 -332 136zM1388 1444l120 120q164 -200 188 -456h-172q-20 184 -136 336zM1104 1024q0 -108 -74 -182t-182 -74t-182 74t-74 182t74 182t182 74t182 -74t74 -182z
M172 1108h-172q24 256 188 456l120 -124q-112 -148 -136 -332zM308 604l-120 -120q-164 200 -188 456h172q20 -184 136 -336zM1524 940h172q-24 -256 -188 -456l-120 120q116 152 136 336zM1388 364q-200 -164 -456 -188v172q184 20 336 136zM764 348v-172q-256 24 -456 188
l120 120q152 -116 336 -136z" />
</svg>
