<?xml version="1.0" standalone="no"?>
<!DOCTYPE svg PUBLIC "-//W3C//DTD SVG 1.1//EN" "http://www.w3.org/Graphics/SVG/1.1/DTD/svg11.dtd" >
<svg xmlns="http://www.w3.org/2000/svg" xmlns:xlink="http://www.w3.org/1999/xlink" version="1.1" viewBox="-10 0 1556 2048">
   <path fill="currentColor"
d="M172 1280h-172v340q0 72 50 122t122 50h340v-172h-340v-340zM172 428h340v-172h-340q-72 0 -122 50t-50 122v340h172v-340zM1364 256h-340v172h340v340h172v-340q0 -72 -50 -122t-122 -50zM1364 1620h-340v172h340q72 0 122 -50t50 -122v-340h-172v340zM768 684
q-140 0 -240 100t-100 240t100 240t240 100t240 -100t100 -240t-100 -240t-240 -100zM768 1196q-72 0 -122 -50t-50 -122t50 -122t122 -50t122 50t50 122t-50 122t-122 50z" />
</svg>
