<?xml version="1.0" standalone="no"?>
<!DOCTYPE svg PUBLIC "-//W3C//DTD SVG 1.1//EN" "http://www.w3.org/Graphics/SVG/1.1/DTD/svg11.dtd" >
<svg xmlns="http://www.w3.org/2000/svg" xmlns:xlink="http://www.w3.org/1999/xlink" version="1.1" viewBox="-10 0 1676 2048">
   <path fill="currentColor"
d="M828 1364q-140 0 -240 -100t-100 -240t100 -240t240 -100t240 100t100 240t-100 240t-240 100zM1400 1060q-32 -20 -72 -36q40 -16 72 -36q120 -68 188 -186t68 -254q-116 -68 -254 -70t-258 70q-32 16 -68 44q8 -40 8 -80q0 -140 -70 -258t-186 -186q-116 68 -186 186
t-70 258q0 40 8 80q-36 -28 -68 -44q-120 -72 -258 -70t-254 70q0 132 68 252t188 188q28 16 72 36q-36 12 -72 32q-120 72 -188 190t-68 254q116 68 254 68t258 -68q32 -16 68 -44q-8 40 -8 80q0 140 70 258t186 186q116 -68 186 -186t70 -258q0 -40 -8 -80q32 24 68 44
q120 72 258 70t254 -70q0 -136 -68 -254t-188 -186z" />
</svg>
