<?xml version="1.0" standalone="no"?>
<!DOCTYPE svg PUBLIC "-//W3C//DTD SVG 1.1//EN" "http://www.w3.org/Graphics/SVG/1.1/DTD/svg11.dtd" >
<svg xmlns="http://www.w3.org/2000/svg" xmlns:xlink="http://www.w3.org/1999/xlink" version="1.1" viewBox="-10 0 1922 2048">
   <path fill="currentColor"
d="M439 1756h1024v-294h-1024v294zM439 1024h1024v-438h-183q-46 0 -78 -32.5t-32 -77.5v-184h-731v732zM1755 1098q0 -30 -21.5 -52t-51.5 -22t-51.5 22t-21.5 52t21.5 51t51.5 21t51.5 -21t21.5 -51zM1902 1098v474q0 15 -11.5 26.5t-25.5 11.5h-256v182q0 46 -32 78
t-78 32h-1097q-46 0 -77.5 -32t-31.5 -78v-182h-256q-14 0 -25.5 -11.5t-11.5 -26.5v-474q0 -91 64.5 -155.5t154.5 -64.5h74v-622q0 -45 31.5 -77.5t77.5 -32.5h768q46 0 101 23t87 55l173 174q32 32 55 87t23 101v292h73q90 0 155 65t65 155z" />
</svg>
