<?xml version="1.0" standalone="no"?>
<!DOCTYPE svg PUBLIC "-//W3C//DTD SVG 1.1//EN" "http://www.w3.org/Graphics/SVG/1.1/DTD/svg11.dtd" >
<svg xmlns="http://www.w3.org/2000/svg" xmlns:xlink="http://www.w3.org/1999/xlink" version="1.1" viewBox="-10 0 1750 2048">
   <path fill="currentColor"
d="M962 278l88 4q180 -80 326 -86t226 74q64 64 72 170t-36 242q92 168 92 364l-4 84h-1096q24 148 118 246t214 98q84 0 156 -46t120 -126h452q-84 228 -282 370t-446 142q-160 0 -304 -64q-192 92 -346 102t-238 -74q-100 -104 -64 -302t184 -430q124 -192 304 -372
l72 -64q-196 116 -360 280q36 -172 144 -312t268 -220t340 -80zM962 618q-112 0 -202 84t-122 216h652q-32 -132 -122 -216t-206 -84zM1566 370q-84 -84 -284 -24q196 92 312 264q44 -168 -28 -240zM186 1730q52 52 154 46t234 -66q-120 -72 -206 -180t-134 -240
q-76 148 -90 264t42 176z" />
</svg>
