<?xml version="1.0" standalone="no"?>
<!DOCTYPE svg PUBLIC "-//W3C//DTD SVG 1.1//EN" "http://www.w3.org/Graphics/SVG/1.1/DTD/svg11.dtd" >
<svg xmlns="http://www.w3.org/2000/svg" xmlns:xlink="http://www.w3.org/1999/xlink" version="1.1" viewBox="-10 0 2214 2048">
   <path fill="currentColor"
d="M1097 842q90 0 165.5 43.5t119.5 119.5t44 165.5t-44 165.5t-119.5 120t-165.5 44t-165.5 -44t-119.5 -120t-44 -165.5t44 -165.5t119.5 -119.5t165.5 -43.5zM1902 366q121 0 206.5 86t85.5 206v1024q0 121 -85.5 206.5t-206.5 85.5h-1609q-121 0 -207 -85.5t-86 -206.5
v-1024q0 -120 86 -206t207 -86h256l58 -156q22 -56 80 -96t118 -40h585q60 0 117.5 40t79.5 96l59 156h256zM1097 1682q104 0 198.5 -40.5t163.5 -109t109.5 -163.5t40.5 -198.5t-40.5 -198.5t-109.5 -163.5t-163.5 -109.5t-198.5 -41t-198.5 41t-163.5 109.5t-109.5 163.5
t-40.5 198.5t40.5 198.5t109.5 163.5t163.5 109t198.5 40.5z" />
</svg>
