<?xml version="1.0" standalone="no"?>
<!DOCTYPE svg PUBLIC "-//W3C//DTD SVG 1.1//EN" "http://www.w3.org/Graphics/SVG/1.1/DTD/svg11.dtd" >
<svg xmlns="http://www.w3.org/2000/svg" xmlns:xlink="http://www.w3.org/1999/xlink" version="1.1" viewBox="-10 0 1724 2048">
   <path fill="currentColor"
d="M852 1878l340 -344h-680zM1448 598h-168v-172h168v172zM1448 854h-168v-172h168v172zM1192 598h-168v-172h168v172zM1192 854h-168v-172h168v172zM1192 1194h-680v-172h680v172zM424 598h-168v-172h168v172zM424 854h-168v-172h168v172zM512 682h168v172h-168v-172z
M512 426h168v172h-168v-172zM768 682h168v172h-168v-172zM768 426h168v172h-168v-172zM1536 170h-1368q-68 0 -118 50t-50 122v852q0 72 50 122t118 50h1368q68 0 118 -50t50 -122v-852q0 -72 -50 -122t-118 -50z" />
</svg>
