<?xml version="1.0" standalone="no"?>
<!DOCTYPE svg PUBLIC "-//W3C//DTD SVG 1.1//EN" "http://www.w3.org/Graphics/SVG/1.1/DTD/svg11.dtd" >
<svg xmlns="http://www.w3.org/2000/svg" xmlns:xlink="http://www.w3.org/1999/xlink" version="1.1" viewBox="-10 0 1724 2048">
   <path fill="currentColor"
d="M812 172q0 152 110 260t262 108h152v148q0 152 108 260t260 112v-816q0 -32 -20 -52t-52 -20h-820zM404 580q4 152 112 260t260 112h152v144q4 156 112 264t260 108v-816q0 -32 -20 -52t-52 -20h-824zM0 988q0 156 108 264t260 108h152v148q4 152 112 260t260 108v-816
q0 -28 -20 -50t-52 -22h-820z" />
</svg>
