<?xml version="1.0" standalone="no"?>
<!DOCTYPE svg PUBLIC "-//W3C//DTD SVG 1.1//EN" "http://www.w3.org/Graphics/SVG/1.1/DTD/svg11.dtd" >
<svg xmlns="http://www.w3.org/2000/svg" xmlns:xlink="http://www.w3.org/1999/xlink" version="1.1" viewBox="-10 0 1724 2048">
   <path fill="currentColor"
d="M1704 1536v340h-340v-256h-256v-256h-256l-192 -192q-72 24 -148 24q-104 0 -198 -40t-166 -112t-110 -166t-38 -194q0 -140 68 -258t186 -186t256 -68t256 68t188 186t70 258q0 76 -24 148zM424 428q-68 0 -118 50t-50 120t50 120t120 50t120 -50t50 -120t-50 -120
t-122 -50z" />
</svg>
