<?xml version="1.0" standalone="no"?>
<!DOCTYPE svg PUBLIC "-//W3C//DTD SVG 1.1//EN" "http://www.w3.org/Graphics/SVG/1.1/DTD/svg11.dtd" >
<svg xmlns="http://www.w3.org/2000/svg" xmlns:xlink="http://www.w3.org/1999/xlink" version="1.1" viewBox="-10 0 1720 2048">
   <path fill="currentColor"
d="M1304 1168q0 84 -62 142t-150 58q-68 0 -144 -52q-44 -36 -120 -116l-24 -24l-4 -8q-56 -60 -92 -84q-56 -40 -100 -40q-56 0 -96 36t-40 88t40 90t96 38q44 0 76 -24q20 -8 44 -36l8 -8q12 -12 28 -12t26 10t10 24t-8 26l-8 8q-32 36 -60 52q-52 32 -116 32
q-88 0 -148 -58t-60 -142t62 -142t146 -58q72 0 144 56q44 32 124 116l20 20l4 8q56 60 96 88q52 40 96 40q56 0 96 -38t40 -90t-40 -88t-96 -36q-40 0 -76 20q-20 12 -44 40l-8 4q-8 12 -24 14t-28 -10t-12 -26t12 -26l4 -4q32 -36 64 -56q48 -32 112 -32q88 0 150 58
t62 142zM1700 1268q0 144 -104 248t-248 104h-988q-148 0 -254 -106t-106 -254q0 -88 42 -168t114 -128q-4 -24 -4 -52q0 -104 76 -180t184 -76q64 0 120 28q72 -120 192 -188t260 -68t260 70t190 188t70 258v8q92 44 144 130t52 186zM1628 1268q0 -88 -48 -158t-128 -102
q-24 -12 -24 -36l4 -28q0 -120 -60 -222t-162 -162t-228 -60t-236 70t-166 182q-4 16 -22 22t-34 -6q-48 -40 -112 -40q-76 0 -132 54t-56 130q0 32 10 58t-18 42q-64 40 -102 104t-38 144q0 116 84 200t200 88h984q120 0 202 -82t82 -198z" />
</svg>
