<?xml version="1.0" standalone="no"?>
<!DOCTYPE svg PUBLIC "-//W3C//DTD SVG 1.1//EN" "http://www.w3.org/Graphics/SVG/1.1/DTD/svg11.dtd" >
<svg xmlns="http://www.w3.org/2000/svg" xmlns:xlink="http://www.w3.org/1999/xlink" version="1.1" viewBox="-10 0 1900 2048">
   <path fill="currentColor"
d="M944 84q-28 0 -56 28l-216 216l-40 44q-36 32 -36 80q4 108 4 328v344v24q8 20 18 24t26 -12l644 -648q56 -52 0 -108l-296 -292q-24 -28 -48 -28zM1508 652q-28 0 -52 24l-296 296q-52 52 0 104l296 296q52 56 104 0q172 -168 284 -284l4 -4q24 -24 32 -44v-28
q-8 -16 -28 -36l-292 -300q-24 -24 -52 -24zM324 692q-8 -4 -20 8l-288 288q-16 20 -16 42t16 38l288 288q24 20 32 -8q8 -8 8 -28v-584q0 -16 -4 -20q-4 -20 -16 -24zM948 1216q-28 0 -52 24l-296 300q-52 52 0 104l288 284q28 28 48 36h24q20 -8 48 -32l288 -288
q48 -52 -4 -108l-292 -296q-24 -24 -52 -24z" />
</svg>
