<?xml version="1.0" standalone="no"?>
<!DOCTYPE svg PUBLIC "-//W3C//DTD SVG 1.1//EN" "http://www.w3.org/Graphics/SVG/1.1/DTD/svg11.dtd" >
<svg xmlns="http://www.w3.org/2000/svg" xmlns:xlink="http://www.w3.org/1999/xlink" version="1.1" viewBox="-10 0 1724 2048">
   <path fill="currentColor"
d="M340 1322h1024v172h-1024v-172zM340 1066v172h-340v-172h340zM424 1238v-172h256v172h-256zM768 1238v-172h168v172h-168zM1024 1238v-172h256v172h-256zM1364 1238v-172h340v172h-340zM0 810h256v172h-256v-172zM1448 982v-172h256v172h-256zM1364 982h-172v-172h172
v172zM512 982h-172v-172h172v172zM852 982h-256v-172h256v172zM1108 982h-172v-172h172v172zM0 726v-172h168v172h-168zM256 726v-172h168v172h-168zM512 726v-172h168v172h-168zM768 726v-172h168v172h-168zM1024 726v-172h168v172h-168zM1280 726v-172h424v172h-424z" />
</svg>
