<?xml version="1.0" standalone="no"?>
<!DOCTYPE svg PUBLIC "-//W3C//DTD SVG 1.1//EN" "http://www.w3.org/Graphics/SVG/1.1/DTD/svg11.dtd" >
<svg xmlns="http://www.w3.org/2000/svg" xmlns:xlink="http://www.w3.org/1999/xlink" version="1.1" viewBox="-10 0 1922 2048">
   <path fill="currentColor"
d="M829 567l-195 515q37 0 156 2t184 2q21 0 65 -2q-96 -284 -210 -517zM0 1830l2 -90q26 -8 64 -14.5t65 -12t56.5 -16.5t51 -33.5t35.5 -57.5l271 -704l320 -827h86h60q10 16 13 24l234 548q39 92 122.5 296.5t129.5 311.5q16 37 65.5 164t82.5 194q23 51 40 65
q22 17 100.5 33.5t96.5 23.5q7 51 7 66q0 5 -0.5 14.5t-0.5 14.5q-73 0 -218 -9t-218 -9q-88 0 -251.5 8t-197.5 9q0 -39 5 -89l149 -32q1 0 14 -3t18 -4.5t16.5 -5t17.5 -7t13 -9t10 -12.5t3 -16q0 -18 -36 -111.5t-81.5 -201.5t-48.5 -115l-514 -2q-29 64 -87 222t-58 187
q0 21 13.5 37.5t31.5 26t48 17t50 10t51 6t39 4.5q1 22 1 66q0 11 -2 31q-67 0 -200 -11.5t-199 -11.5q-9 0 -29.5 4t-25.5 5q-89 16 -215 16z" />
</svg>
