<?xml version="1.0" standalone="no"?>
<!DOCTYPE svg PUBLIC "-//W3C//DTD SVG 1.1//EN" "http://www.w3.org/Graphics/SVG/1.1/DTD/svg11.dtd" >
<svg xmlns="http://www.w3.org/2000/svg" xmlns:xlink="http://www.w3.org/1999/xlink" version="1.1" viewBox="-10 0 1724 2048">
   <path fill="currentColor"
d="M680 172q-68 0 -118 50t-50 118v256q0 72 50 122t118 50h88v172h-768v168h340v172h-84q-72 0 -122 50t-50 122v256q0 68 50 118t122 50h340q72 0 122 -50t50 -118v-256q0 -72 -50 -122t-122 -50h-84v-172h680v172h-84q-72 0 -122 50t-50 122v256q0 68 50 118t122 50h340
q72 0 122 -50t50 -118v-256q0 -72 -50 -122t-122 -50h-84v-172h340v-168h-768v-172h88q68 0 118 -50t50 -122v-256q0 -68 -50 -118t-118 -50h-344zM680 340h344v256h-344v-256zM256 1452h340v256h-340v-256zM1108 1452h340v256h-340v-256z" />
</svg>
