<?xml version="1.0" standalone="no"?>
<!DOCTYPE svg PUBLIC "-//W3C//DTD SVG 1.1//EN" "http://www.w3.org/Graphics/SVG/1.1/DTD/svg11.dtd" >
<svg xmlns="http://www.w3.org/2000/svg" xmlns:xlink="http://www.w3.org/1999/xlink" version="1.1" viewBox="-10 0 1724 2048">
   <path fill="currentColor"
d="M768 42v340h168v-340h-168zM1388 238l-260 256l120 120l260 -256zM316 238l-120 120l256 256l120 -120zM852 554q-140 0 -240 100t-100 240v512h-172v172h256v428h172v-428h168v428h172v-428h256v-172h-172v-512q0 -140 -100 -240t-240 -100zM0 810v172h340v-172h-340z
M1364 810v172h340v-172h-340z" />
</svg>
