<?xml version="1.0" standalone="no"?>
<!DOCTYPE svg PUBLIC "-//W3C//DTD SVG 1.1//EN" "http://www.w3.org/Graphics/SVG/1.1/DTD/svg11.dtd" >
<svg xmlns="http://www.w3.org/2000/svg" xmlns:xlink="http://www.w3.org/1999/xlink" version="1.1" viewBox="-10 0 1629 2048">
   <path fill="currentColor"
d="M634 1667q82 36 160 36q430 0 430 -382q0 -131 -47 -206q-31 -50 -70.5 -84.5t-77 -53t-91.5 -28.5t-96 -12.5t-108 -2.5q-81 0 -116 12q0 61 -0.5 181.5t-0.5 180.5q0 9 -1 77t-0.5 110.5t5 95.5t13.5 76zM618 814q47 8 125 8q94 0 163 -15t125.5 -50.5t85.5 -102
t29 -162.5q0 -80 -33 -140t-90 -93.5t-123 -49.5t-142 -16q-63 0 -149 14q0 57 4.5 173t4.5 174q0 30 -0.5 90t-0.5 91q0 53 1 79zM0 1830l2 -107q16 -4 96.5 -17.5t122.5 -31.5q8 -14 14.5 -31t10 -38t5.5 -37.5t3 -42.5t1 -39v-40.5v-34.5q0 -1122 -25 -1172
q-5 -9 -25.5 -16.5t-50 -12t-56.5 -7.5t-55.5 -5.5t-35.5 -3.5l-5 -95q107 -2 385.5 -13t429.5 -11q25 0 77.5 0.5t78.5 0.5q80 0 156 15t146.5 48t123.5 81t84.5 119.5t31.5 157.5q0 50 -11 92t-36 75.5t-49.5 58.5t-67 50t-72.5 40t-80 38q84 19 156 55.5t130 90t91 128.5
t33 162q0 114 -40 205t-106.5 149.5t-157.5 97.5t-187 55.5t-201 16.5q-51 0 -151 -3.5t-151 -3.5q-121 0 -353 12.5t-262 13.5z" />
</svg>
