<?xml version="1.0" standalone="no"?>
<!DOCTYPE svg PUBLIC "-//W3C//DTD SVG 1.1//EN" "http://www.w3.org/Graphics/SVG/1.1/DTD/svg11.dtd" >
<svg xmlns="http://www.w3.org/2000/svg" xmlns:xlink="http://www.w3.org/1999/xlink" version="1.1" viewBox="-10 0 1212 2048">
   <path fill="currentColor"
d="M596 172q164 0 300 80t216 216t80 300q0 148 -68 278t-188 210v196q0 36 -24 60t-60 24h-512q-36 0 -60 -24t-24 -60v-196q-120 -80 -188 -210t-68 -278q0 -164 80 -300t216 -216t300 -80zM340 1792v-84h512v84q0 36 -24 60t-60 24h-344q-36 0 -60 -24t-24 -60zM596 340
q-116 0 -214 58t-156 156t-58 214q0 128 72 234t184 158v204h344v-204q112 -52 184 -158t72 -234q0 -116 -58 -214t-156 -156t-214 -58z" />
</svg>
