<?xml version="1.0" standalone="no"?>
<!DOCTYPE svg PUBLIC "-//W3C//DTD SVG 1.1//EN" "http://www.w3.org/Graphics/SVG/1.1/DTD/svg11.dtd" >
<svg xmlns="http://www.w3.org/2000/svg" xmlns:xlink="http://www.w3.org/1999/xlink" version="1.1" viewBox="-11 0 1728 2048">
   <path fill="currentColor"
d="M1078 711q-20 12 -88 56l-80 48q-48 36 -96 -4q-12 -8 -96 -56l-72 -44q-28 -20 -26 -42t34 -38q204 -84 420 4q32 12 32 34t-28 42zM1694 1331q-120 -272 -328 -480q-64 -68 -92 -160q-8 -28 -20 -88l-12 -56q-20 -112 -48 -168q-92 -200 -328 -208q-236 4 -336 204
q-24 52 -40 112l-40 200q-20 84 -84 144q-204 200 -332 460q-24 48 -28 72q-16 44 10 68t74 16q72 -16 108 -28q28 -8 40 -2t20 34q84 276 360 384q172 64 354 32t318 -146t180 -278q4 -20 12 -24t28 0q32 12 96 24l24 8q32 4 52 -10t24 -42t-12 -68z" />
</svg>
