<?xml version="1.0" standalone="no"?>
<!DOCTYPE svg PUBLIC "-//W3C//DTD SVG 1.1//EN" "http://www.w3.org/Graphics/SVG/1.1/DTD/svg11.dtd" >
<svg xmlns="http://www.w3.org/2000/svg" xmlns:xlink="http://www.w3.org/1999/xlink" version="1.1" viewBox="-10 0 1724 2048">
   <path fill="currentColor"
d="M168 512h-168v1196q0 68 50 118t118 50h1196v-168h-1196v-1196zM1364 596h-256v472q0 88 -62 150t-150 62t-152 -62t-64 -150t64 -152t152 -64q68 0 128 44v-468h340v168zM1536 172h-1024q-72 0 -122 50t-50 118v1024q0 72 50 122t122 50h1024q68 0 118 -50t50 -122
v-1024q0 -68 -50 -118t-118 -50z" />
</svg>
