<?xml version="1.0" standalone="no"?>
<!DOCTYPE svg PUBLIC "-//W3C//DTD SVG 1.1//EN" "http://www.w3.org/Graphics/SVG/1.1/DTD/svg11.dtd" >
<svg xmlns="http://www.w3.org/2000/svg" xmlns:xlink="http://www.w3.org/1999/xlink" version="1.1" viewBox="-10 0 1661 2048">
   <path fill="currentColor"
d="M0 416l108 -108l1428 1428l-108 108l-412 -412l-224 224q-84 80 -194 110q-55 16 -110 16t-110 -16q-110 -30 -190 -109.5t-110 -190t0 -220t110 -194.5l128 -128q-4 108 32 208l-40 40q-76 77 -76 183t76 182t182 75.5t182 -76.5l224 -224l-140 -136q0 32 -24 58t-60 26
t-60 -28q-68 -64 -100 -149.5t-24 -174.5zM912 328q84 -79 194 -110q55 -14 110 -14t110 14q110 30 190 110t110 190t0 220t-110 194l-128 128q4 -108 -32 -208l40 -40q76 -76 76 -182t-76 -182t-182 -76t-182 76l-284 284l-120 -120zM972 752q24 -28 60 -28t60 28
q88 84 116 200t-8 232l-152 -152q-8 -96 -76 -160q-24 -24 -24 -60t24 -60z" />
</svg>
