<?xml version="1.0" standalone="no"?>
<!DOCTYPE svg PUBLIC "-//W3C//DTD SVG 1.1//EN" "http://www.w3.org/Graphics/SVG/1.1/DTD/svg11.dtd" >
<svg xmlns="http://www.w3.org/2000/svg" xmlns:xlink="http://www.w3.org/1999/xlink" version="1.1" viewBox="-10 0 1556 2048">
   <path fill="currentColor"
d="M1364 256q72 0 122 50t50 122v1192q0 72 -50 122t-122 50h-1192q-72 0 -122 -50t-50 -122v-1192q0 -72 50 -122t122 -50h1192zM1324 1580v-452q0 -116 -82 -198t-198 -82q-56 0 -112 32t-84 80v-96h-240v716h240v-424q0 -48 34 -82t84 -34t84 34t34 82v424h240zM332 732
q60 0 102 -42t42 -102t-42 -102t-102 -42t-102 42t-42 102t42 102t102 42zM448 1580v-716h-236v716h236z" />
</svg>
