<?xml version="1.0" standalone="no"?>
<!DOCTYPE svg PUBLIC "-//W3C//DTD SVG 1.1//EN" "http://www.w3.org/Graphics/SVG/1.1/DTD/svg11.dtd" >
<svg xmlns="http://www.w3.org/2000/svg" xmlns:xlink="http://www.w3.org/1999/xlink" version="1.1" viewBox="-10 0 1190 2048">
   <path fill="currentColor"
d="M0 1828l19 -97q25 -8 70.5 -19t82.5 -22t68 -27q32 -41 47 -115q1 -7 71 -330t130 -621.5t59 -338.5v-29q-28 -15 -62.5 -21t-79 -9t-66.5 -6l22 -118q30 1 135.5 7t174.5 8.5t136 2.5q55 0 111.5 -2.5t140.5 -8t111 -7.5q-8 54 -21 102q-33 11 -115 32t-125 38
q-9 22 -16 50t-10.5 44t-9 54t-7.5 47q-32 171 -101 486t-87 399q-2 8 -21 92.5t-31.5 151t-10.5 87.5l1 20q45 10 211 36q-3 48 -18 113q-13 0 -37 1.5t-37 1.5q-33 0 -99.5 -11.5t-98.5 -11.5q-158 -2 -235 -2q-59 0 -164.5 10.5t-137.5 12.5z" />
</svg>
