<?xml version="1.0" standalone="no"?>
<!DOCTYPE svg PUBLIC "-//W3C//DTD SVG 1.1//EN" "http://www.w3.org/Graphics/SVG/1.1/DTD/svg11.dtd" >
<svg xmlns="http://www.w3.org/2000/svg" xmlns:xlink="http://www.w3.org/1999/xlink" version="1.1" viewBox="-10 0 1212 2048">
   <path fill="currentColor"
d="M596 172q-164 0 -300 80t-216 216t-80 300q0 148 68 278t188 210v196q0 36 24 60t60 24h512q36 0 60 -24t24 -60v-196q120 -80 188 -210t68 -278q0 -164 -80 -300t-216 -216t-300 -80zM340 1792q0 36 24 60t60 24h344q36 0 60 -24t24 -60v-84h-512v84z" />
</svg>
