<?xml version="1.0" standalone="no"?>
<!DOCTYPE svg PUBLIC "-//W3C//DTD SVG 1.1//EN" "http://www.w3.org/Graphics/SVG/1.1/DTD/svg11.dtd" >
<svg xmlns="http://www.w3.org/2000/svg" xmlns:xlink="http://www.w3.org/1999/xlink" version="1.1" viewBox="-10 0 1512 2048">
   <path fill="currentColor"
d="M556 278q148 0 276 74t202 202t74 280q0 204 -132 360l24 24h68l424 424l-128 128l-424 -424v-68l-24 -24q-156 132 -360 132q-152 0 -280 -74t-202 -202t-74 -278t74 -278t202 -202t280 -74zM556 450q-160 0 -272 112t-112 272t112 272t272 112t272 -112t112 -272
t-112 -272t-272 -112z" />
</svg>
