<?xml version="1.0" standalone="no"?>
<!DOCTYPE svg PUBLIC "-//W3C//DTD SVG 1.1//EN" "http://www.w3.org/Graphics/SVG/1.1/DTD/svg11.dtd" >
<svg xmlns="http://www.w3.org/2000/svg" xmlns:xlink="http://www.w3.org/1999/xlink" version="1.1" viewBox="-10 0 1724 2048">
   <path fill="currentColor"
d="M852 1708q-184 0 -342 -92t-250 -250t-92 -342t92 -342t250 -250t342 -92t342 92t250 250t92 342t-92 342t-250 250t-342 92zM852 172q-168 0 -326 64t-278 184t-184 278t-64 326t64 326t184 278t278 184t326 64h684q68 0 118 -50t50 -118v-684q0 -168 -64 -326
t-184 -278t-278 -184t-326 -64zM936 596h-168v344h-344v168h344v344h168v-344h344v-168h-344v-344z" />
</svg>
