<?xml version="1.0" standalone="no"?>
<!DOCTYPE svg PUBLIC "-//W3C//DTD SVG 1.1//EN" "http://www.w3.org/Graphics/SVG/1.1/DTD/svg11.dtd" >
<svg xmlns="http://www.w3.org/2000/svg" xmlns:xlink="http://www.w3.org/1999/xlink" version="1.1" viewBox="-10 0 2065 2048">
   <path fill="currentColor"
d="M1993 1538q38 0 48.5 21t-12.5 51l-144 185q-23 30 -56 30t-56 -30l-144 -185q-23 -30 -13 -51t48 -21h91v-1171h-91q-38 0 -48 -21t13 -51l144 -185q23 -30 56 -30t56 30l144 185q23 30 12.5 51t-48.5 21h-91v1171h91zM93 76l61 31q16 6 241 6q51 0 151 -2.5t151 -2.5
q41 0 123 0.5t123 0.5h335q7 0 24.5 0.5t23.5 0t17.5 -3.5t20 -10.5t17.5 -19.5l48 -1q5 0 16 0.5t16 0.5q2 128 2 384q0 91 -6 125q-45 16 -78 20q-29 -50 -61 -146q-3 -10 -12.5 -54.5t-17 -84.5t-8.5 -41q-7 -9 -14 -14t-17.5 -7.5t-15 -3t-20.5 0t-19 0.5
q-21 0 -76 -0.5t-84.5 -0.5t-74 2t-80.5 7q-10 86 -9 156q0 107 2 443.5t2 519.5q0 22 -1.5 65t-2 70t3 63.5t12.5 66.5q46 24 142 49t137 43q5 45 5 57q0 16 -3 33l-39 1q-87 3 -250 -8.5t-236 -11.5q-58 0 -173.5 10t-172.5 10q-3 -57 -3 -59v-10q19 -31 70 -49.5
t113 -33.5t89 -31q21 -47 21 -437q0 -116 -3.5 -347t-3.5 -346v-134q0 -3 0.5 -18t0.5 -28t-0.5 -29t-3 -27t-6.5 -16q-13 -14 -185 -14q-38 0 -106.5 13.5t-91.5 29.5q-22 15 -39 83t-36 127t-48 61q-48 -30 -64 -50v-438z" />
</svg>
