<?xml version="1.0" standalone="no"?>
<!DOCTYPE svg PUBLIC "-//W3C//DTD SVG 1.1//EN" "http://www.w3.org/Graphics/SVG/1.1/DTD/svg11.dtd" >
<svg xmlns="http://www.w3.org/2000/svg" xmlns:xlink="http://www.w3.org/1999/xlink" version="1.1" viewBox="-10 0 1775 2048">
   <path fill="currentColor"
d="M93 76l61 31q16 6 241 6q51 0 151 -2.5t151 -2.5q84 0 283 -1.5t346 -0.5t283 5q38 2 64 -35l48 -1q5 0 16 0.5t16 0.5q2 128 2 384q0 96 -5 125q-45 16 -78 20q-31 -55 -62 -146q-4 -10 -13 -54.5t-16.5 -84.5t-7.5 -41q-10 -13 -31 -21q-9 -3 -76 -3q-35 0 -106.5 -1
t-117.5 -1t-107.5 2t-109.5 8q-10 86 -9 156l1 174v-60q0 62 2 256.5t2 300.5q0 19 -3 81.5t0 104t14 79.5q46 24 142 48.5t137 42.5q6 54 6 57q0 12 -4 34l-39 1q-87 3 -249.5 -9t-235.5 -12q-57 0 -173 10.5t-174 10.5q-3 -57 -3 -60v-10q19 -31 70 -49.5t113 -33
t89 -30.5q8 -18 13 -85t6.5 -165.5t1.5 -178t-0.5 -174t-0.5 -102.5t-2.5 -25t-2.5 -26q0 -8 0.5 -50t1 -83.5t0 -87t-3 -77t-7.5 -36.5q-13 -14 -186 -14q-47 0 -186.5 15.5t-157.5 27.5q-22 14 -38.5 81.5t-36 127t-48.5 62.5q-48 -30 -64 -50v-438zM1497 1541
q14 0 48.5 22.5t65.5 47.5t67.5 55.5t41.5 34.5q30 25 30 56t-30 56q-5 4 -41.5 34.5t-67.5 55.5t-65.5 47.5t-48.5 22.5q-15 0 -24 -12.5t-11 -32.5t-2 -38t1.5 -38t1.5 -22h-1170q0 2 1.5 22.5t1.5 38t-2.5 38t-11.5 32.5t-24 12q-14 0 -48.5 -22.5t-65.5 -47.5
t-67.5 -55.5t-41.5 -34.5q-29 -24 -29 -56t29 -56q5 -4 41.5 -34.5t67.5 -55.5t65.5 -47.5t48.5 -22.5q15 0 24 12t11.5 32.5t2.5 38t-1.5 38t-1.5 22.5h1170q0 -2 -1.5 -22t-1.5 -38t2 -38t11 -32.5t24 -12.5z" />
</svg>
