<?xml version="1.0" standalone="no"?>
<!DOCTYPE svg PUBLIC "-//W3C//DTD SVG 1.1//EN" "http://www.w3.org/Graphics/SVG/1.1/DTD/svg11.dtd" >
<svg xmlns="http://www.w3.org/2000/svg" xmlns:xlink="http://www.w3.org/1999/xlink" version="1.1" viewBox="-10 0 1388 2048">
   <path fill="currentColor"
d="M1368 1696v180l-156 -100l-408 -768q84 -24 152 -84zM940 596q0 108 -74 182t-182 74h-36l-492 924l-156 100v-180l496 -928q-72 -80 -66 -186t82 -174t172 -68v-168q36 0 60 24t24 60v100q80 28 126 94t46 146zM768 596q0 -36 -24 -60t-60 -24t-60 24t-24 60t24 62
t60 26t60 -26t24 -62z" />
</svg>
