<?xml version="1.0" standalone="no"?>
<!DOCTYPE svg PUBLIC "-//W3C//DTD SVG 1.1//EN" "http://www.w3.org/Graphics/SVG/1.1/DTD/svg11.dtd" >
<svg xmlns="http://www.w3.org/2000/svg" xmlns:xlink="http://www.w3.org/1999/xlink" version="1.1" viewBox="-10 0 1428 2048">
   <path fill="currentColor"
d="M1408 320v428l-128 -128l-1112 1108l-168 -168l1108 -1112l-128 -128h428zM1152 1688q-108 0 -182 -76t-74 -180v-172q0 -108 74 -182t180 -74t182 74t76 182v172q0 104 -76 180t-180 76zM1152 1176q-36 0 -62 24t-26 60v172q0 36 26 60t62 24t60 -24t24 -60v-172
q0 -36 -24 -60t-60 -24zM296 1004q-104 0 -180 -74t-76 -182v-172q0 -104 76 -180t182 -76t180 76t74 180v172q0 108 -74 182t-182 74zM296 492q-36 0 -60 24t-24 60v172q0 36 24 60t60 24t62 -24t26 -60v-172q0 -36 -26 -60t-62 -24z" />
</svg>
