<?xml version="1.0" standalone="no"?>
<!DOCTYPE svg PUBLIC "-//W3C//DTD SVG 1.1//EN" "http://www.w3.org/Graphics/SVG/1.1/DTD/svg11.dtd" >
<svg xmlns="http://www.w3.org/2000/svg" xmlns:xlink="http://www.w3.org/1999/xlink" version="1.1" viewBox="-10 0 1556 2048">
   <path fill="currentColor"
d="M940 980q88 0 150 -62t62 -150t-62 -150t-150 -62t-152 62t-64 150t64 150t152 62zM940 172q160 0 298 80t218 216t80 300q0 200 -156 488q-108 204 -288 432q-88 116 -152 188l-96 -108q-112 -140 -204 -276q-132 -196 -204 -360q-96 -208 -96 -368t82 -296t218 -216
t300 -80zM172 768q0 236 212 592q116 188 288 404l12 12l-88 100l-92 -108q-112 -140 -204 -276q-132 -196 -208 -360q-92 -208 -92 -364q0 -200 120 -358t308 -214q-120 108 -188 256t-68 316z" />
</svg>
