<?xml version="1.0" standalone="no"?>
<!DOCTYPE svg PUBLIC "-//W3C//DTD SVG 1.1//EN" "http://www.w3.org/Graphics/SVG/1.1/DTD/svg11.dtd" >
<svg xmlns="http://www.w3.org/2000/svg" xmlns:xlink="http://www.w3.org/1999/xlink" version="1.1" viewBox="-10 0 1556 2048">
   <path fill="currentColor"
d="M1224 1372l-392 -392l-724 -724l-108 108l272 272q-16 64 -16 132q0 152 92 364q76 164 204 360q96 136 208 276l92 108l88 -104q108 -132 200 -264l288 284l108 -108zM852 556q88 0 150 62t62 152t-68 154l308 312q144 -276 144 -468q0 -164 -80 -300t-216 -216
t-300 -80q-124 0 -236 48t-196 132l276 272q64 -68 156 -68z" />
</svg>
