<?xml version="1.0" standalone="no"?>
<!DOCTYPE svg PUBLIC "-//W3C//DTD SVG 1.1//EN" "http://www.w3.org/Graphics/SVG/1.1/DTD/svg11.dtd" >
<svg xmlns="http://www.w3.org/2000/svg" xmlns:xlink="http://www.w3.org/1999/xlink" version="1.1" viewBox="-10 0 1212 2048">
   <path fill="currentColor"
d="M596 214q108 0 182 74t74 182v512q0 104 -74 180t-182 76t-182 -76t-74 -180v-512q0 -108 74 -182t182 -74zM1192 982q0 148 -66 276t-184 210t-262 106v260h-168v-260q-144 -24 -262 -106t-184 -210t-66 -276h168q0 84 34 162t94 138t138 92t162 32q116 0 214 -56
t156 -154t58 -214h168z" />
</svg>
