<?xml version="1.0" standalone="no"?>
<!DOCTYPE svg PUBLIC "-//W3C//DTD SVG 1.1//EN" "http://www.w3.org/Graphics/SVG/1.1/DTD/svg11.dtd" >
<svg xmlns="http://www.w3.org/2000/svg" xmlns:xlink="http://www.w3.org/1999/xlink" version="1.1" viewBox="-10 0 1740 2048">
   <path fill="currentColor"
d="M212 934q52 0 90 -38t38 -92t-38 -90t-90 -36t-90 36t-38 90t38 92t90 38zM1720 778q0 -164 -80 -302t-218 -218t-300 -80t-300 80t-218 218t-80 302q0 220 142 386t358 202v336h-684v-256h84v-344q0 -36 -24 -60t-60 -24h-256q-36 0 -60 24t-24 60v344h84v424h1364v-168
h-256v-332q148 -16 268 -100t190 -214t70 -278z" />
</svg>
