<?xml version="1.0" standalone="no"?>
<!DOCTYPE svg PUBLIC "-//W3C//DTD SVG 1.1//EN" "http://www.w3.org/Graphics/SVG/1.1/DTD/svg11.dtd" >
<svg xmlns="http://www.w3.org/2000/svg" xmlns:xlink="http://www.w3.org/1999/xlink" version="1.1" viewBox="-10 0 1556 2048">
   <path fill="currentColor"
d="M1364 256q72 0 122 50t50 122v1192q0 72 -50 122t-122 50h-1192q-72 0 -122 -50t-50 -122v-1192q0 -72 50 -122t122 -50h1192zM684 1452h168v-280l244 140l84 -148l-240 -140l240 -140l-84 -148l-244 140v-280h-168v280l-244 -140l-84 148l240 140l-240 140l84 148
l244 -140v280z" />
</svg>
