<?xml version="1.0" standalone="no"?>
<!DOCTYPE svg PUBLIC "-//W3C//DTD SVG 1.1//EN" "http://www.w3.org/Graphics/SVG/1.1/DTD/svg11.dtd" >
<svg xmlns="http://www.w3.org/2000/svg" xmlns:xlink="http://www.w3.org/1999/xlink" version="1.1" viewBox="-10 0 1556 2048">
   <path fill="currentColor"
d="M768 156q-36 0 -68 20l-632 364q-32 20 -50 52t-18 64v736q0 32 18 64t50 52l164 92q56 28 92 36q20 4 56 4q88 0 138 -52t50 -144v-724q0 -8 -6 -14t-14 -6h-80q-20 0 -20 20v724q0 48 -42 72t-106 -8l-176 -100q-8 -8 -8 -16v-736q0 -12 8 -16l636 -368q8 -4 16 0
l636 368q8 4 8 16v736q0 8 -8 16l-636 368q-8 4 -20 0l-160 -100q-12 -4 -16 0h-4q-52 32 -92 44q-28 8 4 28l212 124q32 20 68 20t68 -20l632 -364q32 -20 50 -52t18 -64v-736q0 -32 -18 -64t-50 -52l-632 -364q-32 -20 -68 -20zM940 684q-136 0 -214 54t-78 150t76 140
q64 40 206 54t190 38q36 16 36 52q0 56 -46 80t-146 24q-120 0 -168 -32q-40 -28 -48 -96q-4 -16 -20 -16h-84q-16 0 -16 20q0 100 64 156q84 76 272 76q152 0 234 -56t82 -156t-72 -144q-60 -40 -216 -60q-100 -12 -144 -22t-58 -24t-14 -38q0 -40 28 -60q36 -32 134 -32
t140 26t58 90q4 16 20 16h80q8 0 14 -6t6 -14q-12 -112 -88 -166t-228 -54z" />
</svg>
