<?xml version="1.0" standalone="no"?>
<!DOCTYPE svg PUBLIC "-//W3C//DTD SVG 1.1//EN" "http://www.w3.org/Graphics/SVG/1.1/DTD/svg11.dtd" >
<svg xmlns="http://www.w3.org/2000/svg" xmlns:xlink="http://www.w3.org/1999/xlink" version="1.1" viewBox="-10 0 1724 2048">
   <path fill="currentColor"
d="M852 852q72 0 122 50t50 122t-50 122t-122 50t-122 -50t-50 -122t50 -122t122 -50zM168 340h600q68 0 118 50t50 122v256h-168v-256h-600v428h172v-172l256 256l-256 256v-172h-172q-68 0 -118 -50t-50 -118v-428q0 -72 50 -122t118 -50zM1536 1708h-600q-68 0 -118 -50
t-50 -122v-256h168v256h600v-428h-172v172l-256 -256l256 -256v172h172q68 0 118 50t50 118v428q0 72 -50 122t-118 50z" />
</svg>
