<?xml version="1.0" standalone="no"?>
<!DOCTYPE svg PUBLIC "-//W3C//DTD SVG 1.1//EN" "http://www.w3.org/Graphics/SVG/1.1/DTD/svg11.dtd" >
<svg xmlns="http://www.w3.org/2000/svg" xmlns:xlink="http://www.w3.org/1999/xlink" version="1.1" viewBox="-10 0 1556 2048">
   <path fill="currentColor"
d="M768 1536q140 0 258 -68t186 -186t68 -258t-68 -258t-186 -186t-258 -68t-258 68t-186 186t-68 258t68 258t186 186t258 68zM1364 256q72 0 122 50t50 122v1192q0 72 -50 122t-122 50h-1192q-72 0 -122 -50t-50 -122v-1192q0 -72 50 -122t122 -50h1192zM428 1024
q0 -140 100 -240t240 -100t240 100t100 240t-100 240t-240 100t-240 -100t-100 -240z" />
</svg>
