<?xml version="1.0" standalone="no"?>
<!DOCTYPE svg PUBLIC "-//W3C//DTD SVG 1.1//EN" "http://www.w3.org/Graphics/SVG/1.1/DTD/svg11.dtd" >
<svg xmlns="http://www.w3.org/2000/svg" xmlns:xlink="http://www.w3.org/1999/xlink" version="1.1" viewBox="-10 0 1724 2048">
   <path fill="currentColor"
d="M1536 340q68 0 118 50t50 122v1024q0 72 -50 122t-118 50h-1368q-68 0 -118 -50t-50 -122v-1024q0 -72 50 -122t118 -50h1368zM552 1280v-512h-104v300l-216 -300h-104v512h104v-300l220 300h100zM980 876v-108h-340v512h340v-108h-212v-92h212v-108h-212v-96h212z
M1576 1196v-428h-104v384h-96v-300h-108v300h-96v-384h-108v428q0 36 26 60t62 24h340q36 0 60 -24t24 -60z" />
</svg>
