<?xml version="1.0" standalone="no"?>
<!DOCTYPE svg PUBLIC "-//W3C//DTD SVG 1.1//EN" "http://www.w3.org/Graphics/SVG/1.1/DTD/svg11.dtd" >
<svg xmlns="http://www.w3.org/2000/svg" xmlns:xlink="http://www.w3.org/1999/xlink" version="1.1" viewBox="-10 0 1724 2048">
   <path fill="currentColor"
d="M168 1452v-684h-168v-172h340v856h-172zM1704 1280q0 72 -50 122t-118 50h-344v-172h344v-172h-172v-168h172v-172h-344v-172h344q68 0 118 50t50 122v128q0 52 -36 90t-92 38q56 0 92 38t36 90v128zM1024 1280v172h-512v-344q0 -68 50 -118t118 -50h172v-172h-340v-172
h340q72 0 122 50t50 122v172q0 68 -50 118t-122 50h-172v172h344z" />
</svg>
