<?xml version="1.0" standalone="no"?>
<!DOCTYPE svg PUBLIC "-//W3C//DTD SVG 1.1//EN" "http://www.w3.org/Graphics/SVG/1.1/DTD/svg11.dtd" >
<svg xmlns="http://www.w3.org/2000/svg" xmlns:xlink="http://www.w3.org/1999/xlink" version="1.1" viewBox="-10 0 1556 2048">
   <path fill="currentColor"
d="M1536 428v1192q0 72 -50 122t-122 50h-1192q-72 0 -122 -50t-50 -122v-1192q0 -72 50 -122t122 -50h1192q72 0 122 50t50 122zM1364 940h-168v-172h-172v172h-172v168h172v172h172v-172h168v-168zM596 596h-168q-72 0 -122 50t-50 122v172q0 68 50 118t122 50h168v172
h-340v172h340q72 0 122 -50t50 -122v-512q0 -72 -50 -122t-122 -50zM428 768h168v172h-168v-172z" />
</svg>
