<?xml version="1.0" standalone="no"?>
<!DOCTYPE svg PUBLIC "-//W3C//DTD SVG 1.1//EN" "http://www.w3.org/Graphics/SVG/1.1/DTD/svg11.dtd" >
<svg xmlns="http://www.w3.org/2000/svg" xmlns:xlink="http://www.w3.org/1999/xlink" version="1.1" viewBox="-10 0 1724 2048">
   <path fill="currentColor"
d="M1380 880q68 4 128 32t104 76t68 108t24 130t-26 132t-74 110t-110 76t-134 28h-936q-88 0 -164 -34t-134 -92t-92 -136t-34 -166q0 -68 20 -134t60 -120t96 -94t120 -60q32 -12 62 -14t62 -6q36 -56 84 -100t108 -74t124 -48t128 -18q92 0 176 30t152 84t118 128t70 162
zM864 584q-92 0 -178 38t-146 110q32 12 62 24t58 28l336 204l236 -96l40 -12q-20 -64 -60 -120t-94 -94t-118 -60t-136 -22zM168 1336l708 -296l-272 -164q-44 -24 -90 -38t-94 -14q-64 0 -122 26t-100 70t-68 102t-26 122q0 52 18 102t46 90zM1360 1464q40 0 76 -12
t68 -36l-516 -308l-732 308q40 24 82 36t86 12h936zM1572 1332q28 -52 28 -108t-22 -100t-56 -76t-82 -50t-100 -18q-32 0 -62 8t-58 20l-56 24l-52 24z" />
</svg>
