<?xml version="1.0" standalone="no"?>
<!DOCTYPE svg PUBLIC "-//W3C//DTD SVG 1.1//EN" "http://www.w3.org/Graphics/SVG/1.1/DTD/svg11.dtd" >
<svg xmlns="http://www.w3.org/2000/svg" xmlns:xlink="http://www.w3.org/1999/xlink" version="1.1" viewBox="-10 0 1044 2048">
   <path fill="currentColor"
d="M1008 1088q-20 -44 -64 -56q-56 -12 -116 36q-76 60 -204 84q-64 12 -112 12l-56 -4q-64 -8 -124 -24q-84 -28 -140 -72t-112 -32q-44 12 -64 56q-32 60 0 104q24 36 112 92q108 68 304 88l-324 324q-32 28 -32 70t32 70l12 12q28 28 68 28t72 -28l252 -252l256 252
q28 28 70 28t70 -28l12 -12q28 -28 28 -70t-28 -70l-324 -324q188 -16 300 -88q88 -56 112 -92q32 -44 0 -104zM512 388q88 0 150 64t62 152t-62 150t-150 62t-150 -62t-62 -150t62 -152t150 -64zM512 1036q116 0 216 -58t158 -158t58 -218t-58 -216t-158 -156t-216 -58
t-216 58t-158 156t-58 216t58 218t158 158t216 58z" />
</svg>
