<?xml version="1.0" standalone="no"?>
<!DOCTYPE svg PUBLIC "-//W3C//DTD SVG 1.1//EN" "http://www.w3.org/Graphics/SVG/1.1/DTD/svg11.dtd" >
<svg xmlns="http://www.w3.org/2000/svg" xmlns:xlink="http://www.w3.org/1999/xlink" version="1.1" viewBox="-10 0 1388 2048">
   <path fill="currentColor"
d="M684 128q108 0 182 76t74 180v88q36 0 60 24t24 60v92q156 88 250 246t94 344t-92 342t-250 248t-342 92t-342 -92t-250 -248t-92 -342t94 -344t250 -246v-92q0 -36 24 -60t60 -24v-88q0 -104 74 -180t182 -76zM684 300q-36 0 -60 24t-24 60v88h168v-88q0 -36 -24 -60
t-60 -24zM684 728q-112 0 -210 44t-170 124h760q-72 -80 -170 -124t-210 -44zM684 1752q112 0 210 -46t170 -126h-760q72 80 170 126t210 46zM684 1068q-72 0 -122 50t-50 120t50 120t122 50t122 -50t50 -120t-50 -120t-122 -50zM1196 1240q0 -84 -28 -172q-60 12 -102 60
t-42 112t42 110t102 58q28 -84 28 -168zM172 1240q0 84 28 168q60 -12 102 -58t42 -110t-42 -112t-102 -60q-28 88 -28 172z" />
</svg>
