<?xml version="1.0" standalone="no"?>
<!DOCTYPE svg PUBLIC "-//W3C//DTD SVG 1.1//EN" "http://www.w3.org/Graphics/SVG/1.1/DTD/svg11.dtd" >
<svg xmlns="http://www.w3.org/2000/svg" xmlns:xlink="http://www.w3.org/1999/xlink" version="1.1" viewBox="-10 0 1724 2048">
   <path fill="currentColor"
d="M1704 1834h-1024v-168h1024v168zM0 1834v-168h596v168h-596zM1364 1494v-684h340v684h-340zM1364 214h340v512h-340v-512zM0 1494v-1280h1192v1280h-1192zM596 1202q108 0 182 -76t74 -182t-128 -294q-64 -92 -128 -164l-68 80q-76 100 -120 184q-68 120 -68 196
q0 104 74 180t182 76z" />
</svg>
