<?xml version="1.0" standalone="no"?>
<!DOCTYPE svg PUBLIC "-//W3C//DTD SVG 1.1//EN" "http://www.w3.org/Graphics/SVG/1.1/DTD/svg11.dtd" >
<svg xmlns="http://www.w3.org/2000/svg" xmlns:xlink="http://www.w3.org/1999/xlink" version="1.1" viewBox="-10 0 1900 2048">
   <path fill="currentColor"
d="M940 1364q72 112 188 172l-188 188l-188 -188q116 -60 188 -172zM1368 956q-72 0 -122 50t-50 120t50 120t120 50t120 -50t50 -120t-50 -120t-118 -50zM512 956q-68 0 -118 50t-50 120t50 120t120 50t120 -50t50 -120t-50 -120t-122 -50zM1368 744q140 0 240 100t100 240
t-100 240t-242 100t-242 -100t-100 -240t100 -240t244 -100zM512 744q144 0 244 100t100 240t-100 240t-242 100t-242 -100t-100 -240t100 -240t240 -100zM108 84q68 144 72 288q4 116 -36 248q-24 80 -88 236l-8 16q-48 104 -48 212q0 140 70 256t188 186t254 70l56 -4
l372 372l372 -372l56 4q136 0 254 -70t188 -186t70 -256q0 -108 -48 -212l-8 -16q-64 -156 -88 -236q-40 -132 -36 -248q4 -144 72 -288q-176 140 -392 224q-232 92 -440 92t-440 -92q-216 -84 -392 -224z" />
</svg>
