<?xml version="1.0" standalone="no"?>
<!DOCTYPE svg PUBLIC "-//W3C//DTD SVG 1.1//EN" "http://www.w3.org/Graphics/SVG/1.1/DTD/svg11.dtd" >
<svg xmlns="http://www.w3.org/2000/svg" xmlns:xlink="http://www.w3.org/1999/xlink" version="1.1" viewBox="-10 0 1900 2048">
   <path fill="currentColor"
d="M940 256q216 0 404 116q44 -56 104 -86t132 -30q124 0 212 88t88 212q0 92 -54 170t-142 110q24 96 24 188q0 208 -104 384t-280 280t-384 104t-384 -104t-280 -280t-104 -384q0 -92 24 -188q-88 -32 -142 -110t-54 -170q0 -124 88 -212t212 -88q72 0 132 30t104 86
q188 -116 404 -116zM940 428q-164 0 -300 80t-216 216t-80 300t80 300t216 216t300 80t300 -80t216 -216t80 -300t-80 -300t-216 -216t-300 -80zM1296 880q24 84 -2 156t-86 88t-118 -34t-80 -134t4 -156t86 -88t118 32t78 136zM584 880q20 -88 78 -136t118 -32t86 88t4 156
t-80 134t-118 34t-86 -88t-2 -156zM940 1196q76 0 128 40l-84 88q0 24 18 44t44 20t46 -20t20 -44q0 -20 12 -32t30 -12t30 12t12 32q0 60 -44 104t-106 44t-106 -44q-44 44 -106 44t-106 -44t-44 -104q0 -20 12 -32t30 -12t30 12t12 32q0 24 20 44t46 20t44 -20t18 -44
l-84 -88q52 -40 128 -40z" />
</svg>
