<?xml version="1.0" standalone="no"?>
<!DOCTYPE svg PUBLIC "-//W3C//DTD SVG 1.1//EN" "http://www.w3.org/Graphics/SVG/1.1/DTD/svg11.dtd" >
<svg xmlns="http://www.w3.org/2000/svg" xmlns:xlink="http://www.w3.org/1999/xlink" version="1.1" viewBox="-10 0 2214 2048">
   <path fill="currentColor"
d="M731 658.5q0 90.5 -64 155t-155 64.5t-155 -64.5t-64 -155t64 -155.5t155 -65t155 65t64 155.5zM1902 1098v512h-1609v-220l365 -366l183 182l585 -584zM2011 292h-1828q-14 0 -25.5 11.5t-11.5 26.5v1388q0 15 11.5 26.5t25.5 11.5h1828q14 0 25.5 -11.5t11.5 -26.5
v-1388q0 -15 -11.5 -26.5t-25.5 -11.5zM2194 330v1388q0 76 -53.5 130t-129.5 54h-1828q-76 0 -129.5 -54t-53.5 -130v-1388q0 -76 53.5 -130t129.5 -54h1828q76 0 129.5 54t53.5 130z" />
</svg>
