<?xml version="1.0" standalone="no"?>
<!DOCTYPE svg PUBLIC "-//W3C//DTD SVG 1.1//EN" "http://www.w3.org/Graphics/SVG/1.1/DTD/svg11.dtd" >
<svg xmlns="http://www.w3.org/2000/svg" xmlns:xlink="http://www.w3.org/1999/xlink" version="1.1" viewBox="-11 0 1736 2048">
   <path fill="currentColor"
d="M545 257q76 -12 146 60t92 186t-14 202t-110 100t-146 -60t-94 -186t14 -202t112 -100zM1157 257q76 12 112 100t14 202t-92 186t-146 60t-114 -100t-14 -202t94 -186t146 -60zM89 649q72 -32 160 18t138 150t34 194t-88 124t-158 -18t-136 -150t-36 -194t86 -124z
M1625 649q72 32 86 124t-36 194t-136 150t-158 18t-88 -124t34 -194t138 -150t160 -18zM1481 1569q4 60 -34 118t-98 86t-140 12q-48 -8 -152 -40q-68 -24 -104 -32q-60 -16 -106 -16t-102 16q-36 8 -108 32q-100 36 -152 44q-80 12 -142 -18t-100 -102t-30 -144
q4 -56 56 -112q32 -36 108 -92q64 -56 92 -84q40 -36 108 -132q76 -104 120 -144q72 -68 152 -68t156 68q44 44 124 156q64 88 96 120q24 32 88 88q84 72 112 112q56 64 56 132z" />
</svg>
