<?xml version="1.0" standalone="no"?>
<!DOCTYPE svg PUBLIC "-//W3C//DTD SVG 1.1//EN" "http://www.w3.org/Graphics/SVG/1.1/DTD/svg11.dtd" >
<svg xmlns="http://www.w3.org/2000/svg" xmlns:xlink="http://www.w3.org/1999/xlink" version="1.1" viewBox="-10 0 1724 2048">
   <path fill="currentColor"
d="M804 276l48 64l48 -64q36 -48 90 -76t118 -28q108 0 182 74t74 182q0 44 -16 84h188q68 0 118 50t50 122v1024q0 68 -50 118t-118 50h-1368q-68 0 -118 -50t-50 -118v-1024q0 -72 50 -122t118 -50h188q-16 -40 -16 -84q0 -108 74 -182t182 -74q64 0 118 28t90 76z
M168 684v1024h600q0 -36 24 -62t60 -26t60 26t24 62h600v-1024h-436l180 248l-136 100l-256 -348h-72l-256 348l-136 -100l180 -248h-436zM596 340q-36 0 -60 26t-24 62t24 60t60 24t60 -24t24 -60t-24 -62t-60 -26zM1108 340q-36 0 -60 26t-24 62t24 60t60 24t60 -24
t24 -60t-24 -62t-60 -26zM852 1364q36 0 60 26t24 62t-24 60t-60 24t-60 -24t-24 -60t24 -62t60 -26zM852 1108q36 0 60 26t24 62t-24 60t-60 24t-60 -24t-24 -60t24 -62t60 -26zM852 852q36 0 60 26t24 62t-24 60t-60 24t-60 -24t-24 -60t24 -62t60 -26z" />
</svg>
