<?xml version="1.0" standalone="no"?>
<!DOCTYPE svg PUBLIC "-//W3C//DTD SVG 1.1//EN" "http://www.w3.org/Graphics/SVG/1.1/DTD/svg11.dtd" >
<svg xmlns="http://www.w3.org/2000/svg" xmlns:xlink="http://www.w3.org/1999/xlink" version="1.1" viewBox="-10 0 1556 2048">
   <path fill="currentColor"
d="M1452 1410q-160 0 -304 -48q-52 -16 -88 20l-188 188q-180 -92 -326 -238t-238 -326l188 -188q36 -36 20 -88q-48 -144 -48 -304q0 -36 -24 -60t-60 -24h-300q-36 0 -60 24t-24 60q0 288 110 556t314 472t472 314t556 110q36 0 60 -24t24 -60v-300q0 -36 -24 -60t-60 -24
zM1280 702l80 80l-80 80v-160zM1280 334l80 80l-80 80v-160zM1000 898l196 -196v324h40l244 -244l-184 -184l184 -184l-244 -244h-40v324l-196 -196l-60 60l236 240l-236 240z" />
</svg>
