<?xml version="1.0" standalone="no"?>
<!DOCTYPE svg PUBLIC "-//W3C//DTD SVG 1.1//EN" "http://www.w3.org/Graphics/SVG/1.1/DTD/svg11.dtd" >
<svg xmlns="http://www.w3.org/2000/svg" xmlns:xlink="http://www.w3.org/1999/xlink" version="1.1" viewBox="-10 0 1556 2048">
   <path fill="currentColor"
d="M1452 1324q36 0 60 24t24 60v300q0 36 -24 60t-60 24q-288 0 -556 -110t-472 -314t-314 -472t-110 -556q0 -36 24 -60t60 -24h300q36 0 60 24t24 60q0 160 48 304q16 52 -20 88l-188 188q92 180 238 326t326 238l188 -188q36 -36 88 -20q144 48 304 48zM768 256h172v172
h-172v-172zM1024 256h512v172h-512v-172zM768 512h172v172h-172v-172zM1024 512h512v172h-512v-172zM768 768h172v172h-172v-172zM1024 768h512v172h-512v-172z" />
</svg>
