<?xml version="1.0" standalone="no"?>
<!DOCTYPE svg PUBLIC "-//W3C//DTD SVG 1.1//EN" "http://www.w3.org/Graphics/SVG/1.1/DTD/svg11.dtd" >
<svg xmlns="http://www.w3.org/2000/svg" xmlns:xlink="http://www.w3.org/1999/xlink" version="1.1" viewBox="-10 0 1751 2048">
   <path fill="currentColor"
d="M415 1744l104 -104l-269 -270l-104 104v124h147v146h122zM1013 682q0 -11 -7.5 -17.5t-18.5 -6.5t-19 8l-619 620q-8 8 -8 18q0 12 7 19t18 7t19 -8l620 -620q8 -8 8 -20zM951 464l475 474l-951 952h-475v-476zM1731 574q0 60 -42 102l-190 190l-475 -476l190 -188
q41 -44 103 -44q61 0 104 44l268 268q42 43 42 104z" />
</svg>
