<?xml version="1.0" standalone="no"?>
<!DOCTYPE svg PUBLIC "-//W3C//DTD SVG 1.1//EN" "http://www.w3.org/Graphics/SVG/1.1/DTD/svg11.dtd" >
<svg xmlns="http://www.w3.org/2000/svg" xmlns:xlink="http://www.w3.org/1999/xlink" version="1.1" viewBox="-10 0 1620 2048">
   <path fill="currentColor"
d="M588 762q-56 0 -92 38t-36 90t36 90t90 38t92 -38t38 -90t-38 -90t-90 -38zM1012 762q-52 0 -90 38t-38 90t38 90t92 38t90 -38t36 -90t-36 -90t-92 -38zM800 334l60 4q56 -52 128 -90t128 -54q84 -20 190 -16t182 40q88 40 108 104q16 72 -38 156t-158 144
q80 104 124 226t44 254q0 208 -104 386t-280 280t-384 102t-384 -102t-280 -280t-104 -386q0 -132 44 -254t124 -226q-104 -60 -158 -144t-38 -156q20 -64 108 -104q76 -36 182 -40t190 16q56 16 128 54t128 90zM628 1358q36 0 62 26t26 62t-26 60t-62 24t-60 -24t-24 -60
t24 -62t60 -26zM972 1358q36 0 60 26t24 62t-24 60t-60 24t-62 -24t-26 -60t26 -62t62 -26zM800 1102q-112 0 -216 60q-92 48 -152 130t-60 152t58 128t156 94t214 36t214 -36t156 -94t58 -128t-60 -152t-152 -130q-104 -60 -216 -60zM440 358q-24 -4 -152 0l-120 8l100 76
q104 76 124 84q44 8 124 4q96 -4 106 -34t-74 -82q-68 -44 -108 -56zM1160 358q-40 12 -108 56q-84 52 -74 82t106 34q80 4 124 -4q20 -8 124 -84l100 -76l-120 -8q-128 -4 -152 0z" />
</svg>
