<?xml version="1.0" standalone="no"?>
<!DOCTYPE svg PUBLIC "-//W3C//DTD SVG 1.1//EN" "http://www.w3.org/Graphics/SVG/1.1/DTD/svg11.dtd" >
<svg xmlns="http://www.w3.org/2000/svg" xmlns:xlink="http://www.w3.org/1999/xlink" version="1.1" viewBox="-10 0 1724 2048">
   <path fill="currentColor"
d="M852 172q168 0 326 64t278 184t184 278t64 326t-64 326t-184 278t-278 184t-326 64t-326 -64t-278 -184t-184 -278t-64 -326t64 -326t184 -278t278 -184t326 -64zM852 340q-172 0 -320 80t-242 216t-114 304h344q32 -112 122 -184t210 -72t210 72t122 184h344
q-20 -168 -114 -304t-242 -216t-320 -80zM852 1708q172 0 320 -80t242 -216t114 -304h-344q-32 112 -122 184t-210 72t-210 -72t-122 -184h-344q20 168 114 304t242 216t320 80zM852 852q-72 0 -122 50t-50 122t50 122t122 50t122 -50t50 -122t-50 -122t-122 -50z" />
</svg>
