<?xml version="1.0" standalone="no"?>
<!DOCTYPE svg PUBLIC "-//W3C//DTD SVG 1.1//EN" "http://www.w3.org/Graphics/SVG/1.1/DTD/svg11.dtd" >
<svg xmlns="http://www.w3.org/2000/svg" xmlns:xlink="http://www.w3.org/1999/xlink" version="1.1" viewBox="-10 0 1190 2048">
   <path fill="currentColor"
d="M878 731.5q0 -120.5 -86 -207t-207 -86.5t-206.5 86.5t-85.5 207t85.5 206.5t206.5 86t207 -86t86 -206.5zM1170 732q0 127 -37 204l-416 884q-18 38 -54 60t-78 22t-77.5 -22t-52.5 -60l-417 -884q-38 -79 -38 -204q0 -119 46.5 -227.5t124.5 -187t186.5 -125
t227.5 -46.5t227.5 46.5t186.5 125t124.5 187t46.5 227.5z" />
</svg>
