<?xml version="1.0" standalone="no"?>
<!DOCTYPE svg PUBLIC "-//W3C//DTD SVG 1.1//EN" "http://www.w3.org/Graphics/SVG/1.1/DTD/svg11.dtd" >
<svg xmlns="http://www.w3.org/2000/svg" xmlns:xlink="http://www.w3.org/1999/xlink" version="1.1" viewBox="-10 0 1556 2048">
   <path fill="currentColor"
d="M0 428q0 -72 50 -122t122 -50h1192q72 0 122 50t50 122v1192q0 72 -50 122t-122 50h-1192q-72 0 -122 -50t-50 -122v-1192zM340 1536h172l28 -172h344l-32 172h172l28 -172h172l32 -168h-172l60 -344h172l28 -168h-168l28 -172h-168l-32 172h-340l28 -172h-168l-32 172
h-172l-28 168h168l-60 344h-168l-32 168h172zM632 852h340l-60 344h-340z" />
</svg>
