<?xml version="1.0" standalone="no"?>
<!DOCTYPE svg PUBLIC "-//W3C//DTD SVG 1.1//EN" "http://www.w3.org/Graphics/SVG/1.1/DTD/svg11.dtd" >
<svg xmlns="http://www.w3.org/2000/svg" xmlns:xlink="http://www.w3.org/1999/xlink" version="1.1" viewBox="-10 0 1812 2048">
   <path fill="currentColor"
d="M340 556q0 -144 100 -244t242 -100t242 100t100 242t-100 242t-242 100t-242 -100t-100 -240zM608 1556l-24 -64l24 -64q88 -216 296 -344q-108 -16 -224 -16q-184 0 -340 46t-248 124t-92 170v172h620zM1280 1408q-36 0 -62 24t-26 60t26 62t62 26t60 -26t24 -62
t-24 -60t-60 -24zM1792 1492q-64 152 -202 248t-310 96t-312 -96t-200 -248q60 -152 200 -246t312 -94t310 94t202 246zM1492 1492q0 -88 -62 -150t-150 -62t-152 62t-64 150t64 152t152 64t150 -64t62 -152z" />
</svg>
