<?xml version="1.0" standalone="no"?>
<!DOCTYPE svg PUBLIC "-//W3C//DTD SVG 1.1//EN" "http://www.w3.org/Graphics/SVG/1.1/DTD/svg11.dtd" >
<svg xmlns="http://www.w3.org/2000/svg" xmlns:xlink="http://www.w3.org/1999/xlink" version="1.1" viewBox="-10 0 1388 2048">
   <path fill="currentColor"
d="M1072 506l-124 124q116 68 182 184t66 254t-68 256t-186 186t-258 68t-258 -68t-186 -186t-68 -256t66 -254t178 -184l-120 -124q-136 96 -216 242t-80 318q0 184 92 342t250 250t342 92t342 -92t250 -250t92 -342q0 -172 -80 -318t-216 -242zM768 298h-168v852h168v-852
z" />
</svg>
