<?xml version="1.0" standalone="no"?>
<!DOCTYPE svg PUBLIC "-//W3C//DTD SVG 1.1//EN" "http://www.w3.org/Graphics/SVG/1.1/DTD/svg11.dtd" >
<svg xmlns="http://www.w3.org/2000/svg" xmlns:xlink="http://www.w3.org/1999/xlink" version="1.1" viewBox="-10 0 1556 2048">
   <path fill="currentColor"
d="M980 1152h172v-256h-172v256zM1280 1196q0 36 -24 60t-60 24h-64v128h-128v-128h-64q-36 0 -62 -24t-26 -60v-344q0 -36 26 -60t62 -24h256q36 0 60 24t24 60v344zM684 1280h-128v-172h-172v172h-128v-512h128v212h172v-212h128v512zM1364 340h-1192q-72 0 -122 50
t-50 122v1024q0 72 50 122t122 50h1192q72 0 122 -50t50 -122v-1024q0 -72 -50 -122t-122 -50z" />
</svg>
