<?xml version="1.0" standalone="no"?>
<!DOCTYPE svg PUBLIC "-//W3C//DTD SVG 1.1//EN" "http://www.w3.org/Graphics/SVG/1.1/DTD/svg11.dtd" >
<svg xmlns="http://www.w3.org/2000/svg" xmlns:xlink="http://www.w3.org/1999/xlink" version="1.1" viewBox="-10 0 1900 2048">
   <path fill="currentColor"
d="M384 84q160 0 272 112t112 272q0 112 -56 208l8 8h440l8 -8q-56 -96 -56 -208q0 -160 112 -272t272 -112t272 112t112 272t-112 272t-272 112q-112 0 -208 -56l-92 92v272l92 92q96 -56 208 -56q160 0 272 112t112 272t-112 272t-272 112t-272 -112t-112 -272
q0 -112 56 -208l-8 -8h-440l-8 8q56 96 56 208q0 160 -112 272t-272 112t-272 -112t-112 -272t112 -272t272 -112q112 0 208 56l92 -92v-272l-92 -92q-96 56 -208 56q-160 0 -272 -112t-112 -272t112 -272t272 -112zM384 256q-88 0 -150 62t-62 150t62 152t150 64t152 -64
t64 -152t-64 -150t-152 -62zM384 1364q-88 0 -150 64t-62 152t62 150t150 62t152 -62t64 -150t-64 -152t-152 -64zM1496 256q-88 0 -152 62t-64 150t64 152t152 64t150 -64t62 -152t-62 -150t-150 -62zM1496 1364q-88 0 -152 64t-64 152t64 150t152 62t150 -62t62 -150
t-62 -152t-150 -64zM248 1472l100 56q16 -12 40 -12t42 18t18 46v8l96 56l-24 40l-96 -56q-16 16 -40 16t-44 -20t-20 -44l4 -8l-100 -56zM224 532l100 -56l-4 -8q0 -24 20 -44t44 -20t40 16l96 -56l24 40l-96 56v8q0 28 -18 46t-42 18t-40 -12l-100 56zM1360 364l96 56
q16 -16 40 -16t44 20t20 44l-4 8l100 56l-24 44l-100 -56q-16 12 -40 12t-42 -18t-18 -46v-8l-96 -56zM1336 1644l96 -64q0 -28 18 -46t42 -18t40 12l100 -56l24 44l-96 64q0 24 -20 44t-44 20t-40 -16l-96 56z" />
</svg>
