<?xml version="1.0" standalone="no"?>
<!DOCTYPE svg PUBLIC "-//W3C//DTD SVG 1.1//EN" "http://www.w3.org/Graphics/SVG/1.1/DTD/svg11.dtd" >
<svg xmlns="http://www.w3.org/2000/svg" xmlns:xlink="http://www.w3.org/1999/xlink" version="1.1" viewBox="-10 0 1812 2048">
   <path fill="currentColor"
d="M1576 984h-128v-344q0 -68 -50 -118t-118 -50h-344v-128q0 -88 -62 -152t-150 -64t-150 64t-62 152v128h-344q-68 0 -118 50t-50 118v324h128q96 0 162 68t66 164t-66 164t-162 68h-128v324q0 68 50 118t118 50h324v-128q0 -96 68 -162t164 -66t164 66t68 162v128h324
q68 0 118 -50t50 -118v-344h128q88 0 152 -62t64 -150t-64 -150t-152 -62z" />
</svg>
