<?xml version="1.0" standalone="no"?>
<!DOCTYPE svg PUBLIC "-//W3C//DTD SVG 1.1//EN" "http://www.w3.org/Graphics/SVG/1.1/DTD/svg11.dtd" >
<svg xmlns="http://www.w3.org/2000/svg" xmlns:xlink="http://www.w3.org/1999/xlink" version="1.1" viewBox="-10 0 1724 2048">
   <path fill="currentColor"
d="M1536 556q68 0 118 50t50 122v1024q0 68 -50 118t-118 50h-1368q-68 0 -118 -50t-50 -118v-1024q0 -56 30 -100t78 -60l1060 -440l64 156l-652 272h956zM1536 728h-1368v340h1024v-172h172v172h172v-340zM424 1240q-104 0 -180 74t-76 180t76 182t182 76t180 -76t74 -182
t-74 -180t-182 -74z" />
</svg>
