<?xml version="1.0" standalone="no"?>
<!DOCTYPE svg PUBLIC "-//W3C//DTD SVG 1.1//EN" "http://www.w3.org/Graphics/SVG/1.1/DTD/svg11.dtd" >
<svg xmlns="http://www.w3.org/2000/svg" xmlns:xlink="http://www.w3.org/1999/xlink" version="1.1" viewBox="-10 0 1724 2048">
   <path fill="currentColor"
d="M1456 420l-120 120q92 96 146 220t54 264q0 184 -92 342t-250 250t-342 92t-342 -92t-250 -250t-92 -342q0 -172 80 -318t216 -242t304 -116v172q-184 32 -306 174t-122 330q0 140 68 258t186 186t258 68t258 -68t186 -186t68 -258q0 -104 -40 -198t-112 -162l-120 120
q100 100 100 240t-100 240t-240 100t-240 -100t-100 -240q0 -116 72 -208t184 -120v180q-40 24 -64 62t-24 86q0 72 50 122t122 50t122 -50t50 -122q0 -48 -24 -86t-64 -62v-704h-84q-168 0 -326 64t-278 184t-184 278t-64 326t64 326t184 278t278 184t326 64t326 -64
t278 -184t184 -278t64 -328t-66 -326t-182 -276z" />
</svg>
