<?xml version="1.0" standalone="no"?>
<!DOCTYPE svg PUBLIC "-//W3C//DTD SVG 1.1//EN" "http://www.w3.org/Graphics/SVG/1.1/DTD/svg11.dtd" >
<svg xmlns="http://www.w3.org/2000/svg" xmlns:xlink="http://www.w3.org/1999/xlink" version="1.1" viewBox="-10 0 1724 2048">
   <path fill="currentColor"
d="M508 256l-124 188l124 188l-172 264l-148 -76l120 -188l-120 -188l172 -264zM1020 248l-124 188l124 188l-172 264l-148 -76l120 -188l-120 -188l172 -264zM1536 248l-124 188l124 188l-172 264l-148 -76l120 -188l-120 -188l168 -264zM0 1876v-680q0 -72 50 -122
t118 -50h1368q68 0 118 50t50 122v680h-168v-168h-1368v168h-168zM340 1196q-36 0 -60 24t-24 60v172q0 36 24 60t60 24t60 -24t24 -60v-172q0 -36 -24 -60t-60 -24zM680 1196q-36 0 -60 24t-24 60v172q0 36 24 60t60 24t62 -24t26 -60v-172q0 -36 -26 -60t-62 -24z
M1024 1196q-36 0 -62 24t-26 60v172q0 36 26 60t62 24t60 -24t24 -60v-172q0 -36 -24 -60t-60 -24zM1364 1196q-36 0 -60 24t-24 60v172q0 36 24 60t60 24t60 -24t24 -60v-172q0 -36 -24 -60t-60 -24z" />
</svg>
