<?xml version="1.0" standalone="no"?>
<!DOCTYPE svg PUBLIC "-//W3C//DTD SVG 1.1//EN" "http://www.w3.org/Graphics/SVG/1.1/DTD/svg11.dtd" >
<svg xmlns="http://www.w3.org/2000/svg" xmlns:xlink="http://www.w3.org/1999/xlink" version="1.1" viewBox="-10 0 1556 2048">
   <path fill="currentColor"
d="M0 1876l128 -128l128 128l128 -128l128 128l128 -128l128 128l128 -128l128 128l128 -128l128 128l128 -128l128 128v-1704l-128 128l-128 -128l-128 128l-128 -128l-128 128l-128 -128l-128 128l-128 -128l-128 128l-128 -128l-128 128l-128 -128v1704zM1280 768h-1024
v-172h1024v172zM1280 1108h-1024v-168h1024v168zM1280 1452h-1024v-172h1024v172z" />
</svg>
