<?xml version="1.0" standalone="no"?>
<!DOCTYPE svg PUBLIC "-//W3C//DTD SVG 1.1//EN" "http://www.w3.org/Graphics/SVG/1.1/DTD/svg11.dtd" >
<svg xmlns="http://www.w3.org/2000/svg" xmlns:xlink="http://www.w3.org/1999/xlink" version="1.1" viewBox="-10 0 1724 2048">
   <path fill="currentColor"
d="M1064 1316q8 4 8 14t-8 18q-40 40 -116 56q-48 8 -96 8t-96 -8q-76 -16 -112 -56q-8 -8 -8 -18t6 -16t16 -6t18 8q24 24 80 40q44 8 96 8t96 -8q56 -16 84 -40q16 -16 32 0zM744 1112q0 -36 -26 -62t-62 -26t-62 26t-26 62t26 64t62 26t62 -28t26 -62zM1048 1024
q-36 0 -62 28t-26 62t26 62t62 28t62 -28t26 -62t-26 -62t-62 -28zM1704 1024q0 232 -114 428t-310 310t-428 114t-428 -114t-310 -310t-114 -428t114 -428t310 -310t428 -114t428 114t310 310t114 428zM1420 1024q0 -52 -36 -88t-86 -36t-86 36q-136 -100 -336 -108
l60 -268l184 40q0 36 26 62t62 26t62 -28t26 -64t-26 -62t-62 -26q-24 0 -46 14t-34 38l-208 -44q-4 -4 -12 2t-12 14l-60 296q-200 8 -340 108q-36 -36 -88 -36t-88 36t-36 88q0 40 20 70t52 46v36q0 92 66 172t180 128t250 48t250 -48t182 -126t68 -174q0 -20 -4 -36
q32 -16 52 -48t20 -68z" />
</svg>
