<?xml version="1.0" standalone="no"?>
<!DOCTYPE svg PUBLIC "-//W3C//DTD SVG 1.1//EN" "http://www.w3.org/Graphics/SVG/1.1/DTD/svg11.dtd" >
<svg xmlns="http://www.w3.org/2000/svg" xmlns:xlink="http://www.w3.org/1999/xlink" version="1.1" viewBox="-10 0 1724 2048">
   <path fill="currentColor"
d="M1024 1024q0 -72 50 -122t120 -50t120 50t50 122t-50 122t-120 50t-120 -50t-50 -122zM512 1024q0 -72 50 -122t120 -50t120 50t50 122t-50 122t-120 50t-120 -50t-50 -122zM0 1024q0 -72 50 -122t120 -50t120 50t50 122t-50 122t-120 50t-120 -50t-50 -122zM1704 428
h-168v1192h168v-1192z" />
</svg>
