<?xml version="1.0" standalone="no"?>
<!DOCTYPE svg PUBLIC "-//W3C//DTD SVG 1.1//EN" "http://www.w3.org/Graphics/SVG/1.1/DTD/svg11.dtd" >
<svg xmlns="http://www.w3.org/2000/svg" xmlns:xlink="http://www.w3.org/1999/xlink" version="1.1" viewBox="-10 0 2058 2048">
   <path fill="currentColor"
d="M1015 1500l132 -134l-173 -174l-133 134v64h110v110h64zM1517.5 676.5q-7.5 -7.5 -18.5 -7t-19 8.5l-400 400q-8 7 -8 18.5t7.5 19t18.5 7t19 -8.5l400 -400q8 -7 8 -18.5t-7.5 -19zM1609 1356v216q0 90 -44 166t-119.5 120t-165.5 44h-951q-90 0 -165.5 -44t-119.5 -120
t-44 -166v-950q0 -90 44 -166t119.5 -120t165.5 -44h951q72 0 134 28q17 9 20 28t-10 32l-56 56q-17 17 -37 10q-24 -8 -51 -8h-951q-76 0 -129.5 54t-53.5 130v950q0 76 53.5 130t129.5 54h951q76 0 129.5 -54t53.5 -130v-144q0 -14 10 -24l73 -74q18 -17 40 -8
q23 10 23 34zM1499 512l330 328l-768 768h-330v-328zM2007 662l-105 106l-329 -330l105 -104q32 -32 78 -32t77 32l174 174q31 31 31 77t-31 77z" />
</svg>
