<?xml version="1.0" standalone="no"?>
<!DOCTYPE svg PUBLIC "-//W3C//DTD SVG 1.1//EN" "http://www.w3.org/Graphics/SVG/1.1/DTD/svg11.dtd" >
<svg xmlns="http://www.w3.org/2000/svg" xmlns:xlink="http://www.w3.org/1999/xlink" version="1.1" viewBox="-10 0 1922 2048">
   <path fill="currentColor"
d="M1609 1276v296q0 90 -44 166t-119.5 120t-165.5 44h-951q-90 0 -165.5 -44t-119.5 -120t-44 -166v-950q0 -90 44 -166t119.5 -120t165.5 -44h292v0q15 0 25.5 10.5t10.5 25.5q0 14 -8.5 24.5t-21.5 13.5q-84 28 -152 68q-12 4 -18 4h-128q-76 0 -129.5 54t-53.5 130v950
q0 76 53.5 130t129.5 54h951q76 0 129.5 -54t53.5 -130v-244q0 -23 20 -34q32 -14 62 -42q18 -18 40 -8q24 10 24 32zM1880 710l-439 438q-21 22 -51 22q-11 0 -29 -6q-20 -8 -32 -26.5t-12 -41.5v-218h-183q-188 0 -311 36.5t-190 113.5q-70 79 -90 210.5t6 329.5
q1 11 -5.5 22t-17.5 16q-10 2 -14 2q-19 0 -30 -14q-8 -11 -23 -34t-46.5 -79.5t-56 -113.5t-44 -131.5t-19.5 -139.5q0 -55 4 -103t16.5 -102.5t32 -100.5t53 -93.5t78 -84.5t108.5 -70.5t142.5 -55.5t181.5 -35t225 -13h183v-218q0 -23 12 -41.5t32 -26.5q15 -6 29 -6
q30 0 51 22l439 438q22 22 22 52t-22 52z" />
</svg>
