<?xml version="1.0" standalone="no"?>
<!DOCTYPE svg PUBLIC "-//W3C//DTD SVG 1.1//EN" "http://www.w3.org/Graphics/SVG/1.1/DTD/svg11.dtd" >
<svg xmlns="http://www.w3.org/2000/svg" xmlns:xlink="http://www.w3.org/1999/xlink" version="1.1" viewBox="-10 0 1715 2048">
   <path fill="currentColor"
d="M912 1162l80 -76q-4 -84 42 -178t128 -176t176 -126t176 -44t130 50t50 132t-44 176t-128 176t-176 126t-174 44l-76 76q-24 20 -52 24t-56 -12q-60 20 -100 44q-48 32 -72 72t-48 136t-48 136q-64 96 -244 96q-100 0 -160 -20q-92 -32 -152 -116l212 36q40 4 116 -32
t108 -84q24 -40 48 -138t44 -134q28 -44 84 -76q40 -24 112 -48q0 -40 24 -64zM424 210q116 0 214 56t156 154t58 214t-58 214t-156 156t-214 58t-214 -58t-154 -156t-56 -214t56 -214t154 -154t214 -56zM424 378q-104 0 -180 76t-76 182t76 180t182 74t180 -74t74 -180
t-74 -182t-182 -76z" />
</svg>
