<?xml version="1.0" standalone="no"?>
<!DOCTYPE svg PUBLIC "-//W3C//DTD SVG 1.1//EN" "http://www.w3.org/Graphics/SVG/1.1/DTD/svg11.dtd" >
<svg xmlns="http://www.w3.org/2000/svg" xmlns:xlink="http://www.w3.org/1999/xlink" version="1.1" viewBox="-10 0 1380 2048">
   <path fill="currentColor"
d="M760 480v-264l-388 388l388 380v-332q184 32 306 174t122 330t-122 330t-306 174v172q168 -20 304 -116t216 -242t80 -318t-80 -318t-216 -242t-304 -116zM256 1696q148 116 336 136v-172q-116 -20 -212 -88zM172 1240h-172q20 184 136 332l120 -120q-68 -100 -84 -212z
M260 860l-120 -120q-120 148 -140 332h172q16 -116 88 -212z" />
</svg>
