<?xml version="1.0" standalone="no"?>
<!DOCTYPE svg PUBLIC "-//W3C//DTD SVG 1.1//EN" "http://www.w3.org/Graphics/SVG/1.1/DTD/svg11.dtd" >
<svg xmlns="http://www.w3.org/2000/svg" xmlns:xlink="http://www.w3.org/1999/xlink" version="1.1" viewBox="-10 0 1921 2048">
   <path fill="currentColor"
d="M1609 1208v364q0 90 -44 166t-119.5 120t-165.5 44h-951q-90 0 -165.5 -44t-119.5 -120t-44 -166v-950q0 -90 44 -166t119.5 -120t165.5 -44h951q72 0 134 28q17 9 20 28t-10 32l-56 56q-11 12 -26 12q-5 0 -11 -2q-24 -8 -51 -8h-951q-76 0 -129.5 54t-53.5 130v950
q0 76 53.5 130t129.5 54h951q76 0 129.5 -54t53.5 -130v-290q0 -16 10 -26l73 -72q11 -12 27 -12q6 0 13 4q23 9 23 32zM1873 650l-930 930q-28 28 -65 28t-65 -28l-492 -492q-28 -27 -28 -64.5t28 -65.5l126 -126q28 -27 65 -27t65 27l301 302l739 -740q28 -27 65 -27
t65 27l126 126q28 27 28 65t-28 65z" />
</svg>
