<?xml version="1.0" standalone="no"?>
<!DOCTYPE svg PUBLIC "-//W3C//DTD SVG 1.1//EN" "http://www.w3.org/Graphics/SVG/1.1/DTD/svg11.dtd" >
<svg xmlns="http://www.w3.org/2000/svg" xmlns:xlink="http://www.w3.org/1999/xlink" version="1.1" viewBox="-10 0 1348 2048">
   <path fill="currentColor"
d="M188 1316q76 0 130 54t54 130t-54 132t-130 56t-132 -56t-56 -132t56 -130t132 -54zM0 360q364 0 672 180q300 176 476 476q180 308 180 672h-240q0 -296 -146 -546t-396 -396t-546 -146v-240zM0 840q232 0 426 114t308 308t114 426h-244q0 -164 -80 -304t-220 -220
t-304 -80v-244z" />
</svg>
