<?xml version="1.0" standalone="no"?>
<!DOCTYPE svg PUBLIC "-//W3C//DTD SVG 1.1//EN" "http://www.w3.org/Graphics/SVG/1.1/DTD/svg11.dtd" >
<svg xmlns="http://www.w3.org/2000/svg" xmlns:xlink="http://www.w3.org/1999/xlink" version="1.1" viewBox="-10 0 1724 2048">
   <path fill="currentColor"
d="M680 384v-256l344 344l-344 340v-256q-136 0 -254 68t-188 186t-70 258l8 84h-172l-4 -84q0 -184 92 -342t248 -250t340 -92zM1280 216h256q68 0 118 50t50 118v1368q0 68 -50 118t-118 50h-256q-72 0 -122 -50t-50 -118v-1368q0 -68 50 -118t122 -50zM168 1324h768v596
h-768q-68 0 -118 -50t-50 -118v-256q0 -72 50 -122t118 -50z" />
</svg>
