<?xml version="1.0" standalone="no"?>
<!DOCTYPE svg PUBLIC "-//W3C//DTD SVG 1.1//EN" "http://www.w3.org/Graphics/SVG/1.1/DTD/svg11.dtd" >
<svg xmlns="http://www.w3.org/2000/svg" xmlns:xlink="http://www.w3.org/1999/xlink" version="1.1" viewBox="-10 0 1556 2048">
   <path fill="currentColor"
d="M172 256h1192q72 0 122 50t50 122v1192q0 72 -50 122t-122 50h-1192q-72 0 -122 -50t-50 -122v-1192q0 -72 50 -122t122 -50zM384 1280q-52 0 -90 38t-38 90t38 90t90 38t90 -38t38 -90t-38 -90t-90 -38zM256 852v172q140 0 258 68t186 186t68 258h172q0 -184 -92 -342
t-250 -250t-342 -92zM256 512v172q168 0 326 64t278 184t184 278t64 326h172q0 -280 -138 -514t-372 -372t-514 -138z" />
</svg>
