<?xml version="1.0" standalone="no"?>
<!DOCTYPE svg PUBLIC "-//W3C//DTD SVG 1.1//EN" "http://www.w3.org/Graphics/SVG/1.1/DTD/svg11.dtd" >
<svg xmlns="http://www.w3.org/2000/svg" xmlns:xlink="http://www.w3.org/1999/xlink" version="1.1" viewBox="-10 0 1556 2048">
   <path fill="currentColor"
d="M1468 504l68 -68q-88 -88 -198 -134t-228 -46t-228 46t-198 134l68 68q76 -72 168 -108t188 -36t190 36t170 108zM1392 572q-60 -56 -132 -88t-150 -32t-152 32t-130 88l68 68q84 -84 212 -84t216 84zM1364 1108h-168v-340h-172v340h-852q-72 0 -122 50t-50 122v340
q0 72 50 122t122 50h1192q72 0 122 -50t50 -122v-340q0 -72 -50 -122t-122 -50zM428 1536h-172v-172h172v172zM724 1536h-168v-172h168v172zM1024 1536h-172v-172h172v172z" />
</svg>
