<?xml version="1.0" standalone="no"?>
<!DOCTYPE svg PUBLIC "-//W3C//DTD SVG 1.1//EN" "http://www.w3.org/Graphics/SVG/1.1/DTD/svg11.dtd" >
<svg xmlns="http://www.w3.org/2000/svg" xmlns:xlink="http://www.w3.org/1999/xlink" version="1.1" viewBox="-10 0 1860 2048">
   <path fill="currentColor"
d="M1488 244l52 328l300 152l-152 300l152 300l-304 152l-52 328l-332 -52l-236 236l-236 -240l-328 56l-56 -332l-296 -152l152 -300l-152 -296l300 -152l52 -328l332 56l236 -240l236 236zM708 596q-56 0 -92 38t-36 92t36 90t90 36t92 -36t38 -90t-38 -92t-90 -38z
M1132 1196q-52 0 -90 36t-38 90t38 92t92 38t90 -38t36 -92t-36 -90t-92 -36zM612 1452l736 -736l-120 -120l-736 736z" />
</svg>
