<?xml version="1.0" standalone="no"?>
<!DOCTYPE svg PUBLIC "-//W3C//DTD SVG 1.1//EN" "http://www.w3.org/Graphics/SVG/1.1/DTD/svg11.dtd" >
<svg xmlns="http://www.w3.org/2000/svg" xmlns:xlink="http://www.w3.org/1999/xlink" version="1.1" viewBox="-10 0 1556 2048">
   <path fill="currentColor"
d="M172 1536l296 -384l216 256l296 -384l384 512h-1192zM172 1024v-172q116 0 214 -56t154 -154t56 -214h172q0 160 -80 298t-218 218t-298 80zM172 428h256q0 104 -76 180t-180 76v-256zM1364 256h-1192q-72 0 -122 50t-50 122v1192q0 72 50 122t122 50h1192q72 0 122 -50
t50 -122v-1192q0 -72 -50 -122t-122 -50z" />
</svg>
