<?xml version="1.0" standalone="no"?>
<!DOCTYPE svg PUBLIC "-//W3C//DTD SVG 1.1//EN" "http://www.w3.org/Graphics/SVG/1.1/DTD/svg11.dtd" >
<svg xmlns="http://www.w3.org/2000/svg" xmlns:xlink="http://www.w3.org/1999/xlink" version="1.1" viewBox="-10 0 1956 2048">
   <path fill="currentColor"
d="M1348 254q0 -60 44 -102t104 -42t102 42t42 102v44h-292v-44zM1280 810h428q36 0 60 -24t24 -60v-344q0 -36 -24 -60t-60 -24v-44q0 -88 -62 -150t-150 -62t-152 62t-64 150v44q-36 0 -60 24t-24 60v344q0 36 24 60t60 24zM640 1790q-212 -100 -350 -294t-162 -430h-128
q24 260 164 474t366 340t490 126l56 -4l-324 -324zM1900 1130l-220 -216l-120 120l192 188l-484 484l-968 -968l484 -484l180 180l120 -120l-208 -208q-40 -36 -92 -36t-92 36l-540 544q-40 36 -40 90t40 90l1024 1024q40 40 92 40t88 -40l544 -540q36 -40 36 -92t-36 -92z
" />
</svg>
