<?xml version="1.0" standalone="no"?>
<!DOCTYPE svg PUBLIC "-//W3C//DTD SVG 1.1//EN" "http://www.w3.org/Graphics/SVG/1.1/DTD/svg11.dtd" >
<svg xmlns="http://www.w3.org/2000/svg" xmlns:xlink="http://www.w3.org/1999/xlink" version="1.1" viewBox="-10 0 1556 2048">
   <path fill="currentColor"
d="M512 768h512v512h-512v-512zM340 1452h856v-856h-856v856zM1024 428h172v-172h-172v172zM1024 1792h172v-172h-172v172zM1364 1452h172v-172h-172v172zM1364 768h172v-172h-172v172zM1364 1792q72 0 122 -50t50 -122h-172v172zM1364 1108h172v-168h-172v168zM684 1792
h168v-172h-168v172zM512 256h-172v172h172v-172zM0 1452h172v-172h-172v172zM172 1792v-172h-172q0 72 50 122t122 50zM1364 256v172h172q0 -72 -50 -122t-122 -50zM852 256h-168v172h168v-172zM0 768h172v-172h-172v172zM340 1792h172v-172h-172v172zM0 1108h172v-168h-172
v168zM0 428h172v-172q-72 0 -122 50t-50 122z" />
</svg>
