<?xml version="1.0" standalone="no"?>
<!DOCTYPE svg PUBLIC "-//W3C//DTD SVG 1.1//EN" "http://www.w3.org/Graphics/SVG/1.1/DTD/svg11.dtd" >
<svg xmlns="http://www.w3.org/2000/svg" xmlns:xlink="http://www.w3.org/1999/xlink" version="1.1" viewBox="-10 0 1556 2048">
   <path fill="currentColor"
d="M84 256h88v172h-172v-88q0 -36 24 -60t60 -24zM1452 256q36 0 60 24t24 60v88h-172v-172h88zM1024 428v-172h172v172h-172zM684 428v-172h168v172h-168zM340 428v-172h172v172h-172zM1536 1708q0 36 -24 60t-60 24h-88v-172h172v88zM1024 1792v-172h172v172h-172z
M684 1792v-172h168v172h-168zM340 1792v-172h172v172h-172zM84 1792q-36 0 -60 -24t-24 -60v-88h172v172h-88zM0 1280h172v172h-172v-172zM1536 1280v172h-172v-172h172zM0 940h172v168h-172v-168zM1536 940v168h-172v-168h172zM0 596h172v172h-172v-172zM1536 596v172h-172
v-172h172z" />
</svg>
