<?xml version="1.0" standalone="no"?>
<!DOCTYPE svg PUBLIC "-//W3C//DTD SVG 1.1//EN" "http://www.w3.org/Graphics/SVG/1.1/DTD/svg11.dtd" >
<svg xmlns="http://www.w3.org/2000/svg" xmlns:xlink="http://www.w3.org/1999/xlink" version="1.1" viewBox="-10 0 1388 2048">
   <path fill="currentColor"
d="M308 480q-52 -48 -52 -118t50 -120t122 -50t122 50t50 120t-50 120t-122 50t-120 -52zM172 1384v-768h-172v768q0 116 58 214t156 156t214 58h512v-172h-512q-108 0 -182 -74t-74 -182zM1368 1732l-432 -432h-296v-316q96 80 220 132q136 56 252 56v-188q-108 4 -220 -46
t-180 -126l-120 -132q-20 -24 -60 -44t-80 -20h-4q-80 0 -136 56t-56 136v492q0 108 76 182t180 74h432l300 300z" />
</svg>
