<?xml version="1.0" standalone="no"?>
<!DOCTYPE svg PUBLIC "-//W3C//DTD SVG 1.1//EN" "http://www.w3.org/Graphics/SVG/1.1/DTD/svg11.dtd" >
<svg xmlns="http://www.w3.org/2000/svg" xmlns:xlink="http://www.w3.org/1999/xlink" version="1.1" viewBox="-10 0 1724 2048">
   <path fill="currentColor"
d="M936 1534h88q36 0 60 26t24 62h596v168h-596q0 36 -24 62t-60 26h-344q-36 0 -60 -26t-24 -62h-596v-168h596q0 -36 24 -62t60 -26h88v-168h-600q-36 0 -60 -26t-24 -62v-340q0 -36 24 -60t60 -24h1368q36 0 60 24t24 60v340q0 36 -24 62t-60 26h-600v168zM168 170h1368
q36 0 60 24t24 60v344q0 36 -24 60t-60 24h-1368q-36 0 -60 -24t-24 -60v-344q0 -36 24 -60t60 -24zM596 510h84v-168h-84v168zM596 1194h84v-172h-84v172zM256 342v168h168v-168h-168zM256 1022v172h168v-172h-168z" />
</svg>
