<?xml version="1.0" standalone="no"?>
<!DOCTYPE svg PUBLIC "-//W3C//DTD SVG 1.1//EN" "http://www.w3.org/Graphics/SVG/1.1/DTD/svg11.dtd" >
<svg xmlns="http://www.w3.org/2000/svg" xmlns:xlink="http://www.w3.org/1999/xlink" version="1.1" viewBox="-10 0 2068 2048">
   <path fill="currentColor"
d="M1997 162q22 -22 36.5 -16t14.5 36v1684q0 30 -14.5 36t-36.5 -16l-812 -810q-11 -11 -15 -22v812q0 30 -14.5 36t-36.5 -16l-812 -810q-9 -10 -14 -22v774q0 30 -22 52t-52 22h-146q-30 0 -51.5 -22t-21.5 -52v-1608q0 -30 21.5 -52t51.5 -22h146q30 0 52 22t22 52v774
q5 -12 14 -22l812 -810q22 -22 36.5 -16t14.5 36v812q4 -11 15 -22z" />
</svg>
