<?xml version="1.0" standalone="no"?>
<!DOCTYPE svg PUBLIC "-//W3C//DTD SVG 1.1//EN" "http://www.w3.org/Graphics/SVG/1.1/DTD/svg11.dtd" >
<svg xmlns="http://www.w3.org/2000/svg" xmlns:xlink="http://www.w3.org/1999/xlink" version="1.1" viewBox="-10 0 1556 2048">
   <path fill="currentColor"
d="M768 1152q-84 0 -162 -32t-138 -92t-94 -138t-34 -162h172q0 104 74 180t182 76t182 -76t74 -180h172q0 116 -58 214t-156 154t-214 56zM768 300q108 0 182 74t74 182h-512q0 -108 74 -182t182 -74zM1364 556h-168q0 -116 -58 -214t-156 -156t-214 -58t-214 58t-156 156
t-58 214h-168q-72 0 -122 50t-50 122v1024q0 68 50 118t122 50h1192q72 0 122 -50t50 -118v-1024q0 -72 -50 -122t-122 -50z" />
</svg>
