<?xml version="1.0" standalone="no"?>
<!DOCTYPE svg PUBLIC "-//W3C//DTD SVG 1.1//EN" "http://www.w3.org/Graphics/SVG/1.1/DTD/svg11.dtd" >
<svg xmlns="http://www.w3.org/2000/svg" xmlns:xlink="http://www.w3.org/1999/xlink" version="1.1" viewBox="-10 0 1556 2048">
   <path fill="currentColor"
d="M1216 1024q0 28 -4 60l128 96q16 16 4 40l-120 204q-12 24 -36 16l-148 -60q-44 36 -100 56l-24 160q0 12 -8 18t-20 6h-240q-12 0 -20 -6t-8 -18l-24 -160q-52 -20 -100 -56l-148 60q-24 8 -36 -16l-120 -204q-12 -24 4 -40l128 -96q-4 -32 -4 -60t4 -60l-128 -96
q-16 -16 -4 -40l120 -204q12 -24 36 -16l148 60q48 -40 100 -56l24 -160q0 -12 8 -18t20 -6h240q12 0 20 6t8 18l24 160q52 20 100 56l148 -60q24 -8 36 16l120 204q12 24 -4 40l-128 96q4 32 4 60zM1364 256h-1192q-72 0 -122 50t-50 122v1192q0 72 50 122t122 50h1192
q72 0 122 -50t50 -122v-1192q0 -72 -50 -122t-122 -50zM768 852q-72 0 -122 50t-50 122t50 122t122 50t122 -50t50 -122t-50 -122t-122 -50z" />
</svg>
