<?xml version="1.0" standalone="no"?>
<!DOCTYPE svg PUBLIC "-//W3C//DTD SVG 1.1//EN" "http://www.w3.org/Graphics/SVG/1.1/DTD/svg11.dtd" >
<svg xmlns="http://www.w3.org/2000/svg" xmlns:xlink="http://www.w3.org/1999/xlink" version="1.1" viewBox="-11 0 1682 2048">
   <path fill="currentColor"
d="M830 1324q-124 0 -212 -88t-88 -212t88 -212t212 -88t212 88t88 212t-88 212t-212 88zM1466 1108q4 -48 4 -84t-4 -84l180 -140q12 -12 14 -26t-6 -30l-172 -296q-4 -12 -20 -18t-32 2l-212 84q-72 -56 -144 -84l-32 -224q0 -16 -12 -26t-28 -10h-344q-16 0 -28 10
t-12 26l-32 224q-72 28 -144 84l-212 -84q-16 -8 -32 -2t-20 18l-172 296q-8 16 -6 30t14 26l180 140q-4 48 -4 84t4 84l-180 140q-12 12 -14 26t6 30l172 296q4 12 20 18t32 -2l212 -84q72 56 144 84l32 224q0 16 12 26t28 10h344q16 0 28 -10t12 -26l32 -224
q76 -32 144 -84l212 84q16 8 32 2t20 -18l172 -296q8 -16 6 -30t-14 -26z" />
</svg>
