<?xml version="1.0" standalone="no"?>
<!DOCTYPE svg PUBLIC "-//W3C//DTD SVG 1.1//EN" "http://www.w3.org/Graphics/SVG/1.1/DTD/svg11.dtd" >
<svg xmlns="http://www.w3.org/2000/svg" xmlns:xlink="http://www.w3.org/1999/xlink" version="1.1" viewBox="-10 0 1556 2048">
   <path fill="currentColor"
d="M1280 512q132 128 182 300t18 344q56 96 56 210t-58 212t-156 156t-212 58t-210 -56q-172 32 -344 -18t-302 -180t-180 -302t-18 -344q-56 -96 -56 -210t58 -212t156 -156t212 -58t210 56q172 -32 344 18t300 182zM772 1464q176 0 272 -76t96 -200q0 -88 -48 -148
q-60 -76 -188 -104l-168 -36q-64 -16 -92 -32q-48 -24 -48 -68t38 -72t110 -28t120 28q28 16 64 52q20 28 36 36q20 16 44 16q40 0 66 -22t26 -58q0 -84 -110 -144t-234 -60q-144 0 -240 60q-116 72 -116 208q0 84 40 136q52 72 180 100l228 60q88 20 88 92q0 44 -44 80
t-122 36t-126 -32q-32 -20 -68 -68q-24 -32 -36 -40q-24 -20 -58 -20t-58 24t-24 60q0 52 40 102t120 82q88 36 212 36z" />
</svg>
