<?xml version="1.0" standalone="no"?>
<!DOCTYPE svg PUBLIC "-//W3C//DTD SVG 1.1//EN" "http://www.w3.org/Graphics/SVG/1.1/DTD/svg11.dtd" >
<svg xmlns="http://www.w3.org/2000/svg" xmlns:xlink="http://www.w3.org/1999/xlink" version="1.1" viewBox="-11 0 1730 2048">
   <path fill="currentColor"
d="M1703 1412q-12 -28 -56 -60l-40 -20q-124 -68 -188 -160q-20 -32 -32 -56q-4 -16 0 -24t8 -12l80 -48q44 -32 68 -76q32 -60 8 -124q-16 -44 -54 -68t-86 -24q-20 0 -44 4h-8q0 -68 -4 -120q-8 -96 -44 -168q-24 -56 -74 -112t-114 -92q-120 -68 -268 -68t-268 68
q-64 36 -114 92t-74 112q-36 72 -44 168q-4 60 -4 120h-8q-24 -4 -44 -4q-48 0 -86 24t-54 68q-24 64 8 124q24 44 68 76l76 48q4 4 10 12t2 24q-12 24 -32 56q-64 92 -180 156l-20 8q-32 20 -48 32q-24 16 -36 44q-24 64 32 116q20 20 44 32q56 32 104 44q16 4 22 10t12 22
t16 30t32 30t54 24q20 4 60 4h4q80 4 128 20q16 4 56 28l16 12q64 36 108 52q76 28 162 28t158 -28q44 -16 112 -56l12 -8q40 -24 56 -28q48 -16 128 -20q40 0 64 -4q32 -8 54 -22t38 -38l8 -24q8 -16 16 -22t16 -10q52 -12 108 -44q28 -12 48 -36q48 -48 28 -112z
M1583 1476q-40 24 -104 40q-40 8 -56 20t-20 36l-4 20q0 20 -12 28t-64 8q-96 4 -160 24q-28 12 -84 46t-92 46q-60 24 -132 24t-132 -20q-36 -16 -92 -50t-84 -46q-64 -20 -156 -24q-56 0 -68 -8t-16 -40t-20 -44t-56 -20q-60 -16 -98 -36t-32 -32t22 -20q180 -88 260 -224
q32 -52 48 -108v-8q4 -16 2 -26t-16 -22t-90 -64l-36 -24q-60 -40 -44 -84q16 -32 52 -32h20q28 8 76 24l32 12h8q12 0 16 -4l4 -16q-12 -132 -4 -220q4 -48 16 -92q20 -64 76 -132q36 -40 92 -72q96 -56 220 -56q176 0 292 108l20 20q60 68 80 144q8 40 12 80q8 88 -4 220
l4 12q0 8 16 8h8l36 -12q44 -20 72 -24h20q36 0 48 24l4 8q16 44 -44 84l-40 28q-72 48 -86 58t-16 22t2 28v4q24 92 96 176q80 96 212 160q12 4 18 12t2 12q0 12 -24 24z" />
</svg>
