<?xml version="1.0" standalone="no"?>
<!DOCTYPE svg PUBLIC "-//W3C//DTD SVG 1.1//EN" "http://www.w3.org/Graphics/SVG/1.1/DTD/svg11.dtd" >
<svg xmlns="http://www.w3.org/2000/svg" xmlns:xlink="http://www.w3.org/1999/xlink" version="1.1" viewBox="-10 0 1556 2048">
   <path fill="currentColor"
d="M772 1412q-156 0 -252 -68q-76 -56 -76 -128q0 -32 20 -54t50 -22t50 16q16 12 36 40q32 40 56 56q44 28 112 28t108 -30t40 -70q0 -60 -76 -80l-204 -52q-112 -28 -156 -88q-36 -48 -36 -124q0 -120 100 -184q84 -52 212 -52q112 0 210 54t98 126q0 32 -24 52t-60 20
q-24 0 -40 -16q-12 -8 -32 -28q-32 -36 -56 -48q-40 -24 -104 -24t-98 24t-34 62t36 58q24 16 80 28l156 36q208 48 208 224q0 108 -84 176t-240 68zM1280 512q132 128 182 300t18 344q56 96 56 210t-58 212t-156 156t-212 58t-210 -56q-172 32 -344 -18t-302 -180
t-180 -302t-18 -344q-56 -96 -56 -210t58 -212t156 -156t212 -58t210 56q172 -32 344 18t300 182zM428 428q-108 0 -182 74t-74 178t68 176q-48 148 -12 298t148 262t262 148t298 -12q72 68 176 68t178 -74t74 -178t-68 -176q48 -148 12 -298t-148 -262t-262 -148t-298 12
q-72 -68 -172 -68z" />
</svg>
