<?xml version="1.0" standalone="no"?>
<!DOCTYPE svg PUBLIC "-//W3C//DTD SVG 1.1//EN" "http://www.w3.org/Graphics/SVG/1.1/DTD/svg11.dtd" >
<svg xmlns="http://www.w3.org/2000/svg" xmlns:xlink="http://www.w3.org/1999/xlink" version="1.1" viewBox="-10 0 1640 2048">
   <path fill="currentColor"
d="M340 1238q0 72 -50 122t-120 50t-120 -50t-50 -122t50 -122t118 -50h172v172zM424 1238q0 -72 50 -122t122 -50t122 50t50 122v428q0 68 -50 118t-122 50t-122 -50t-50 -118v-428zM596 554q-72 0 -122 -50t-50 -120t50 -120t122 -50t122 50t50 122v168h-172zM596 642
q72 0 122 50t50 120t-50 120t-122 50h-428q-68 0 -118 -50t-50 -120t50 -120t118 -50h428zM1280 810q0 -68 50 -118t120 -50t120 50t50 120t-50 120t-122 50h-168v-172zM1192 810q0 72 -50 122t-120 50t-120 -50t-50 -122v-424q0 -72 50 -122t120 -50t120 50t50 122v424z
M1024 1494q68 0 118 50t50 120t-50 120t-120 50t-120 -50t-50 -118v-172h172zM1024 1410q-72 0 -122 -50t-50 -122t50 -122t122 -50h424q72 0 122 50t50 122t-50 122t-122 50h-424z" />
</svg>
