<?xml version="1.0" standalone="no"?>
<!DOCTYPE svg PUBLIC "-//W3C//DTD SVG 1.1//EN" "http://www.w3.org/Graphics/SVG/1.1/DTD/svg11.dtd" >
<svg xmlns="http://www.w3.org/2000/svg" xmlns:xlink="http://www.w3.org/1999/xlink" version="1.1" viewBox="-10 0 1724 2048">
   <path fill="currentColor"
d="M0 468l596 596h-596v256h852l596 600l108 -108l-1452 -1452zM1576 1064h128v256h-128v-256zM1364 1064h128v256h-128v-256zM1436 372q84 -84 84 -204h-128q0 64 -46 112t-110 48v128q144 0 242 102t98 246v176h128v-176q0 -144 -74 -258t-194 -174zM1064 700h132
q72 0 120 46t48 126v108h128v-136q0 -112 -88 -190t-208 -78h-132q-60 0 -108 -52t-48 -118t46 -108t110 -42v-128q-116 0 -200 84t-84 202t84 202t200 84zM1280 1316v-252h-252z" />
</svg>
