<?xml version="1.0" standalone="no"?>
<!DOCTYPE svg PUBLIC "-//W3C//DTD SVG 1.1//EN" "http://www.w3.org/Graphics/SVG/1.1/DTD/svg11.dtd" >
<svg xmlns="http://www.w3.org/2000/svg" xmlns:xlink="http://www.w3.org/1999/xlink" version="1.1" viewBox="-10 0 1724 2048">
   <path fill="currentColor"
d="M0 1492h1280v256h-1280v-256zM1576 1492h128v256h-128v-256zM1364 1492h128v256h-128v-256zM1436 788q84 -84 84 -202t-82 -202t-202 -84v128q64 0 110 46t46 110t-46 112t-110 48v128q144 0 242 100t98 244v192h128v-192q0 -140 -74 -256t-194 -172zM1196 1000h-132
q-60 0 -108 -54t-48 -118t46 -106t110 -42v-128q-116 0 -200 82t-84 202t84 204t200 84h132q72 0 120 46t48 126v112h128v-140q0 -116 -88 -192t-208 -76z" />
</svg>
