<?xml version="1.0" standalone="no"?>
<!DOCTYPE svg PUBLIC "-//W3C//DTD SVG 1.1//EN" "http://www.w3.org/Graphics/SVG/1.1/DTD/svg11.dtd" >
<svg xmlns="http://www.w3.org/2000/svg" xmlns:xlink="http://www.w3.org/1999/xlink" version="1.1" viewBox="-10 0 1724 2048">
   <path fill="currentColor"
d="M1356 932q-196 -116 -500 -144q-284 -20 -492 44q-28 8 -58 -6t-38 -46t6 -60t46 -36q240 -72 552 -48q340 28 564 160q28 16 38 50t-8 60t-50 32t-60 -6zM1348 1168q-16 24 -42 30t-50 -6q-172 -108 -410 -136t-438 36q-28 8 -52 -4t-30 -38t6 -50t36 -32
q236 -68 500 -38t460 154q20 8 28 36t-8 48zM1244 1404q-12 20 -32 24t-40 -8q-300 -184 -752 -80q-20 4 -38 -8t-24 -32t6 -38t32 -26q496 -108 828 96q20 8 26 30t-6 42zM852 172q-168 0 -326 64t-278 184t-184 278t-64 326t64 326t184 278t278 184t326 64t326 -64
t278 -184t184 -278t64 -326t-64 -326t-184 -278t-278 -184t-326 -64z" />
</svg>
