<?xml version="1.0" standalone="no"?>
<!DOCTYPE svg PUBLIC "-//W3C//DTD SVG 1.1//EN" "http://www.w3.org/Graphics/SVG/1.1/DTD/svg11.dtd" >
<svg xmlns="http://www.w3.org/2000/svg" xmlns:xlink="http://www.w3.org/1999/xlink" version="1.1" viewBox="-10 0 1688 2048">
   <path fill="currentColor"
d="M860 1684h-688v-1196h-172v1196q0 68 50 118t122 50h752q-48 -76 -64 -168zM1364 148h-852q-72 0 -122 50t-50 118v1024q0 72 50 122t122 50h348q16 -92 64 -172h-412v-1024h172v512l212 -192l212 192v-512h256v768q88 0 172 32v-800q0 -68 -50 -118t-122 -50zM1668 1416
l-184 180l184 184l-120 120l-184 -184l-180 184l-120 -120l180 -184l-180 -180l120 -120l180 180l184 -180z" />
</svg>
