<?xml version="1.0" standalone="no"?>
<!DOCTYPE svg PUBLIC "-//W3C//DTD SVG 1.1//EN" "http://www.w3.org/Graphics/SVG/1.1/DTD/svg11.dtd" >
<svg xmlns="http://www.w3.org/2000/svg" xmlns:xlink="http://www.w3.org/1999/xlink" version="1.1" viewBox="-10 0 1556 2048">
   <path fill="currentColor"
d="M256 172q108 0 182 74t74 182q0 80 -46 146t-118 94q12 64 80 152q40 52 160 184q136 144 180 204q44 -60 180 -204q120 -132 160 -184q68 -88 80 -152q-72 -28 -118 -94t-46 -146q0 -108 74 -182t182 -74t182 74t74 182q0 84 -48 150t-128 90q-12 80 -80 172
q-44 60 -180 204q-120 128 -160 184q-68 84 -80 152q72 28 118 94t46 146q0 108 -74 182t-182 74t-182 -74t-74 -182q0 -80 46 -146t118 -94q-12 -68 -80 -152q-40 -56 -160 -184q-136 -144 -180 -204q-68 -92 -80 -172q-80 -24 -128 -90t-48 -150q0 -108 74 -182t182 -74z
M256 340q-36 0 -60 26t-24 62t24 60t60 24t60 -24t24 -60t-24 -62t-60 -26zM1280 340q-36 0 -60 26t-24 62t24 60t60 24t60 -24t24 -60t-24 -62t-60 -26zM768 1536q-36 0 -60 24t-24 60t24 62t60 26t60 -26t24 -62t-24 -60t-60 -24z" />
</svg>
