<?xml version="1.0" standalone="no"?>
<!DOCTYPE svg PUBLIC "-//W3C//DTD SVG 1.1//EN" "http://www.w3.org/Graphics/SVG/1.1/DTD/svg11.dtd" >
<svg xmlns="http://www.w3.org/2000/svg" xmlns:xlink="http://www.w3.org/1999/xlink" version="1.1" viewBox="-10 0 1640 2048">
   <path fill="currentColor"
d="M0 404l108 -108l1512 1512l-108 112l-124 -124q-48 36 -108 36h-856q-68 0 -118 -50t-50 -118v-1004zM852 1492q-108 0 -182 -74t-74 -182q0 -96 64 -172l-120 -120q-116 124 -116 292q0 116 58 214t156 156t214 58q168 0 292 -116l-120 -120q-76 64 -172 64zM1280 1236
q0 -116 -58 -214t-156 -156t-214 -58h-16l-572 -572q20 -48 64 -78t96 -30h856q68 0 118 50t50 118v1128l-168 -172v-16zM852 296q-72 0 -122 50t-50 122t50 122t122 50t122 -50t50 -122t-50 -122t-122 -50z" />
</svg>
