<?xml version="1.0" standalone="no"?>
<!DOCTYPE svg PUBLIC "-//W3C//DTD SVG 1.1//EN" "http://www.w3.org/Graphics/SVG/1.1/DTD/svg11.dtd" >
<svg xmlns="http://www.w3.org/2000/svg" xmlns:xlink="http://www.w3.org/1999/xlink" version="1.1" viewBox="-10 0 1724 2048">
   <path fill="currentColor"
d="M852 172q168 0 326 64t278 184t184 278t64 326t-64 326t-184 278t-278 184t-326 64q-192 0 -362 -80t-290 -220t-172 -320l328 136q16 84 84 138t152 54q100 0 172 -70t72 -170v-12l288 -208h8q132 0 226 -94t94 -226t-94 -226t-226 -94t-228 94t-96 226v4l-200 296h-16
q-72 0 -136 40l-456 -188q16 -216 134 -396t308 -284t410 -104zM536 1464q48 24 100 2t74 -72t0 -102t-70 -72l-112 -44q68 -28 136 0t96 98t0 140t-98 98t-136 0t-94 -88zM1348 804q0 88 -64 152t-152 64t-152 -64t-64 -152t64 -152t152 -64t152 64t64 152zM972 804
q0 68 46 114t114 46t114 -46t46 -114t-46 -114t-114 -46t-114 46t-46 114z" />
</svg>
