<?xml version="1.0" standalone="no"?>
<!DOCTYPE svg PUBLIC "-//W3C//DTD SVG 1.1//EN" "http://www.w3.org/Graphics/SVG/1.1/DTD/svg11.dtd" >
<svg xmlns="http://www.w3.org/2000/svg" xmlns:xlink="http://www.w3.org/1999/xlink" version="1.1" viewBox="-10 0 1724 2048">
   <path fill="currentColor"
d="M0 1528q188 -84 284 -116q156 -56 284 -56q64 0 140 28q48 16 144 58t144 58q76 28 140 28t144 -28q48 -16 142 -58t142 -58q80 -28 140 -28v256q-60 0 -140 28q-48 16 -142 58t-142 58q-80 28 -144 28t-140 -28q-48 -16 -144 -58t-144 -58q-76 -28 -140 -28
q-128 0 -284 56q-96 32 -284 116v-256zM568 1100q-92 0 -200 28l420 -292l-88 -108q-20 -24 -20 -52q0 -48 40 -72l488 -340l96 136l-412 292l448 532q-120 48 -204 48q-64 0 -140 -28q-48 -16 -144 -58t-144 -58q-76 -28 -140 -28zM1364 588q72 0 122 50t50 122t-50 122
t-122 50t-122 -50t-50 -122t50 -122t122 -50z" />
</svg>
