<?xml version="1.0" standalone="no"?>
<!DOCTYPE svg PUBLIC "-//W3C//DTD SVG 1.1//EN" "http://www.w3.org/Graphics/SVG/1.1/DTD/svg11.dtd" >
<svg xmlns="http://www.w3.org/2000/svg" xmlns:xlink="http://www.w3.org/1999/xlink" version="1.1" viewBox="-10 0 1556 2048">
   <path fill="currentColor"
d="M172 684h1192q72 0 122 50t50 118v856q0 68 -50 118t-122 50h-1192q-72 0 -122 -50t-50 -118v-856q0 -68 50 -118t122 -50zM172 1024v256h512v-256h-512zM852 1024v256h512v-256h-512zM172 1452v256h512v-256h-512zM852 1452v256h512v-256h-512zM684 172h852v340h-172
v-172h-512v172h-168v-340z" />
</svg>
