<?xml version="1.0" standalone="no"?>
<!DOCTYPE svg PUBLIC "-//W3C//DTD SVG 1.1//EN" "http://www.w3.org/Graphics/SVG/1.1/DTD/svg11.dtd" >
<svg xmlns="http://www.w3.org/2000/svg" xmlns:xlink="http://www.w3.org/1999/xlink" version="1.1" viewBox="-10 0 1556 2048">
   <path fill="currentColor"
d="M684 1108h168v-512h-168v512zM1536 340h-512v512l192 -188q68 68 108 162t40 198q0 164 -94 296t-246 188v176q224 -56 368 -240t144 -420q0 -140 -54 -264t-146 -216zM684 1452h168v-172h-168v172zM0 1024q0 140 54 264t146 216l-200 204h512v-512l-192 188
q-68 -68 -108 -162t-40 -198q0 -164 94 -296t246 -188v-176q-224 56 -368 240t-144 420z" />
</svg>
