<?xml version="1.0" standalone="no"?>
<!DOCTYPE svg PUBLIC "-//W3C//DTD SVG 1.1//EN" "http://www.w3.org/Graphics/SVG/1.1/DTD/svg11.dtd" >
<svg xmlns="http://www.w3.org/2000/svg" xmlns:xlink="http://www.w3.org/1999/xlink" version="1.1" viewBox="-10 0 1724 2048">
   <path fill="currentColor"
d="M936 1536h88q36 0 60 24t24 60h596v172h-596q0 36 -24 60t-60 24h-344q-36 0 -60 -24t-24 -60h-596v-172h596q0 -36 24 -60t60 -24h88v-172h-256q-36 0 -62 -24t-26 -60v-1024q0 -36 26 -60t62 -24h680q36 0 62 24t26 60v1024q0 36 -26 60t-62 24h-256v172zM936 512h88
v-172h-88v172zM596 340v172h172v-172h-172zM596 684v168h172v-168h-172zM596 1024v172h172v-172h-172z" />
</svg>
