<?xml version="1.0" standalone="no"?>
<!DOCTYPE svg PUBLIC "-//W3C//DTD SVG 1.1//EN" "http://www.w3.org/Graphics/SVG/1.1/DTD/svg11.dtd" >
<svg xmlns="http://www.w3.org/2000/svg" xmlns:xlink="http://www.w3.org/1999/xlink" version="1.1" viewBox="-10 0 1388 2048">
   <path fill="currentColor"
d="M684 1536q-140 0 -258 -68t-186 -186t-68 -258q0 -128 60 -240l-124 -124q-108 168 -108 364q0 184 92 342t250 250t342 92v256l340 -344l-340 -340v256zM684 340v-256l-340 344l340 340v-256q140 0 258 68t186 186t68 258q0 128 -60 240l124 124q108 -168 108 -364
q0 -184 -92 -342t-250 -250t-342 -92z" />
</svg>
