<?xml version="1.0" standalone="no"?>
<!DOCTYPE svg PUBLIC "-//W3C//DTD SVG 1.1//EN" "http://www.w3.org/Graphics/SVG/1.1/DTD/svg11.dtd" >
<svg xmlns="http://www.w3.org/2000/svg" xmlns:xlink="http://www.w3.org/1999/xlink" version="1.1" viewBox="-10 0 1724 2048">
   <path fill="currentColor"
d="M1536 172h-1368q-68 0 -118 50t-50 118v1368q0 68 50 118t118 50h1368q68 0 118 -50t50 -118v-1368q0 -68 -50 -118t-118 -50zM1416 340l-564 564l-564 -564h1128zM972 1024l264 -264l264 264l-264 264zM1072 1364h-440l220 -220zM168 460l564 564l-564 564v-1128z
M816 1708h-528l172 -172h528zM1536 1708h-480l480 -480v480zM1536 820l-180 -180l180 -180v360z" />
</svg>
