<?xml version="1.0" standalone="no"?>
<!DOCTYPE svg PUBLIC "-//W3C//DTD SVG 1.1//EN" "http://www.w3.org/Graphics/SVG/1.1/DTD/svg11.dtd" >
<svg xmlns="http://www.w3.org/2000/svg" xmlns:xlink="http://www.w3.org/1999/xlink" version="1.1" viewBox="-10 0 1712 2048">
   <path fill="currentColor"
d="M1680 1182l-84 84l-176 -176l84 -84q16 -12 34 -12t34 12l108 108q12 16 12 34t-12 34zM852 1658l516 -516l176 176l-516 516h-176v-176zM168 214h1196q72 0 122 50t50 118v356l-328 328h-356v356l-156 156h-528q-68 0 -118 -50t-50 -122v-1024q0 -68 50 -118t118 -50z
M168 554v340h512v-340h-512zM852 554v340h512v-340h-512zM168 1066v340h512v-340h-512z" />
</svg>
