<?xml version="1.0" standalone="no"?>
<!DOCTYPE svg PUBLIC "-//W3C//DTD SVG 1.1//EN" "http://www.w3.org/Graphics/SVG/1.1/DTD/svg11.dtd" >
<svg xmlns="http://www.w3.org/2000/svg" xmlns:xlink="http://www.w3.org/1999/xlink" version="1.1" viewBox="-10 0 1724 2048">
   <path fill="currentColor"
d="M768 172v176q-232 28 -398 194t-194 398h-176v168h176q28 232 194 398t398 194v176h168v-176q232 -28 398 -194t194 -398h176v-168h-176q-28 -232 -194 -398t-398 -194v-176h-168zM768 520v164h168v-164q160 24 278 142t142 278h-164v168h164q-24 160 -142 278t-278 142
v-164h-168v164q-160 -24 -278 -142t-142 -278h164v-168h-164q24 -160 142 -278t278 -142zM852 940q-36 0 -60 24t-24 60t24 60t60 24t60 -24t24 -60t-24 -60t-60 -24z" />
</svg>
