<?xml version="1.0" standalone="no"?>
<!DOCTYPE svg PUBLIC "-//W3C//DTD SVG 1.1//EN" "http://www.w3.org/Graphics/SVG/1.1/DTD/svg11.dtd" >
<svg xmlns="http://www.w3.org/2000/svg" xmlns:xlink="http://www.w3.org/1999/xlink" version="1.1" viewBox="-10 0 1724 2048">
   <path fill="currentColor"
d="M296 768q56 0 92 -38t36 -90t-36 -90t-90 -38t-92 38t-38 90t38 90t90 38zM1312 988q52 52 52 122t-52 118l-424 428q-52 52 -122 52t-122 -52l-596 -596q-48 -52 -48 -120v-428q0 -72 50 -122t118 -50h428q72 0 120 52zM984 488l84 -88l588 588q48 48 48 120t-48 120
l-460 460l-84 -84l488 -496z" />
</svg>
