<?xml version="1.0" standalone="no"?>
<!DOCTYPE svg PUBLIC "-//W3C//DTD SVG 1.1//EN" "http://www.w3.org/Graphics/SVG/1.1/DTD/svg11.dtd" >
<svg xmlns="http://www.w3.org/2000/svg" xmlns:xlink="http://www.w3.org/1999/xlink" version="1.1" viewBox="-10 0 1724 2048">
   <path fill="currentColor"
d="M1704 1238q0 -72 -50 -122t-118 -50h-1368q-68 0 -118 50t-50 122v596h168v-172h344v172h168v-172h344v172h168v-172h344v172h168v-596zM168 1238h344v256h-344v-256zM680 1238h344v256h-344v-256zM1536 1238v256h-344v-256h344zM768 894h168v-256h256v-168h-256v-256
h-168v256h-256v168h256v256z" />
</svg>
