<?xml version="1.0" standalone="no"?>
<!DOCTYPE svg PUBLIC "-//W3C//DTD SVG 1.1//EN" "http://www.w3.org/Graphics/SVG/1.1/DTD/svg11.dtd" >
<svg xmlns="http://www.w3.org/2000/svg" xmlns:xlink="http://www.w3.org/1999/xlink" version="1.1" viewBox="-10 0 1724 2048">
   <path fill="currentColor"
d="M1656 988l-768 -768q-52 -48 -120 -48h-600q-68 0 -118 50t-50 118v600q0 68 48 120l768 768q52 48 122 48t118 -48l600 -600q48 -48 48 -118t-48 -122zM936 1708l-768 -768v-600h600l768 768zM384 428q52 0 90 36t38 90t-38 92t-92 38t-90 -38t-36 -92t36 -90t92 -36z
" />
</svg>
