<?xml version="1.0" standalone="no"?>
<!DOCTYPE svg PUBLIC "-//W3C//DTD SVG 1.1//EN" "http://www.w3.org/Graphics/SVG/1.1/DTD/svg11.dtd" >
<svg xmlns="http://www.w3.org/2000/svg" xmlns:xlink="http://www.w3.org/1999/xlink" version="1.1" viewBox="-10 0 1900 2048">
   <path fill="currentColor"
d="M256 1280h172q72 0 122 50t50 122v168h84v-168q0 -72 50 -122t122 -50h168q72 0 122 50t50 122v168h84v-168q0 -72 50 -122t122 -50h172q68 0 118 50t50 122v168h88v256h-1880v-256h88v-168q0 -72 50 -122t118 -50zM856 596l340 256l-340 256v-512zM256 172h1368
q68 0 118 50t50 118v816q-76 -48 -168 -48v-768h-1368v768q-92 0 -168 48v-816q0 -68 50 -118t118 -50z" />
</svg>
