<?xml version="1.0" standalone="no"?>
<!DOCTYPE svg PUBLIC "-//W3C//DTD SVG 1.1//EN" "http://www.w3.org/Graphics/SVG/1.1/DTD/svg11.dtd" >
<svg xmlns="http://www.w3.org/2000/svg" xmlns:xlink="http://www.w3.org/1999/xlink" version="1.1" viewBox="-10 0 1528 2048">
   <path fill="currentColor"
d="M1152 470q196 0 356 108l-96 248q-112 -100 -260 -100q-160 0 -272 112t-112 272t112 272t272 112q132 0 232 -80l100 244q-152 92 -328 92t-324 -86t-234 -234t-86 -320q0 -128 48 -246t138 -208t208 -138t246 -48zM256 298q108 0 182 74t74 182t-74 182t-182 74
t-182 -74t-74 -182t74 -182t182 -74zM256 470q-36 0 -60 24t-24 60t24 60t60 24t60 -24t24 -60t-24 -60t-60 -24z" />
</svg>
