<?xml version="1.0" standalone="no"?>
<!DOCTYPE svg PUBLIC "-//W3C//DTD SVG 1.1//EN" "http://www.w3.org/Graphics/SVG/1.1/DTD/svg11.dtd" >
<svg xmlns="http://www.w3.org/2000/svg" xmlns:xlink="http://www.w3.org/1999/xlink" version="1.1" viewBox="-10 0 2068 2048">
   <path fill="currentColor"
d="M51 1886q-22 22 -36.5 16t-14.5 -36v-1684q0 -30 14.5 -36t36.5 16l812 810q11 11 15 22v-812q0 -30 14.5 -36t36.5 16l812 810q9 10 14 22v-774q0 -30 22 -52t52 -22h146q30 0 51.5 22t21.5 52v1608q0 30 -21.5 52t-51.5 22h-146q-30 0 -52 -22t-22 -52v-774
q-5 12 -14 22l-812 810q-22 22 -36.5 16t-14.5 -36v-812q-4 11 -15 22z" />
</svg>
