<?xml version="1.0" standalone="no"?>
<!DOCTYPE svg PUBLIC "-//W3C//DTD SVG 1.1//EN" "http://www.w3.org/Graphics/SVG/1.1/DTD/svg11.dtd" >
<svg xmlns="http://www.w3.org/2000/svg" xmlns:xlink="http://www.w3.org/1999/xlink" version="1.1" viewBox="-10 0 1900 2048">
   <path fill="currentColor"
d="M1708 1452v-1024h-1536v1024h1536zM1708 256q72 0 122 50t50 122v1024q0 68 -50 118t-122 50h-428v172h-680v-172h-428q-72 0 -122 -50t-50 -118v-1024q0 -72 50 -122t122 -50h1536zM344 596h512v344h-512v-344zM344 1108h512v172h-512v-172zM1024 596h512v172h-512v-172
zM1024 940h512v340h-512v-340z" />
</svg>
