<?xml version="1.0" standalone="no"?>
<!DOCTYPE svg PUBLIC "-//W3C//DTD SVG 1.1//EN" "http://www.w3.org/Graphics/SVG/1.1/DTD/svg11.dtd" >
<svg xmlns="http://www.w3.org/2000/svg" xmlns:xlink="http://www.w3.org/1999/xlink" version="1.1" viewBox="-10 0 1388 2048">
   <path fill="currentColor"
d="M1348 1568q20 20 20 40t-16 40q-48 68 -124 106t-164 38h-760q-92 0 -168 -38t-124 -106q-12 -16 -12 -38t18 -40t46 -18t48 28q52 64 136 88l248 -308l-108 -332q-20 -68 20 -132l192 -312h-188l-156 248l-136 -84l200 -320h460q52 0 86 30t46 50l40 100q44 96 134 158
t198 62v160q-136 0 -254 -68t-186 -176l-148 228l348 216v484h20q60 0 112 -28t80 -64q20 -28 46 -28t46 16zM884 1300l-280 -176l80 268l-236 280h436v-372zM940 84q-72 0 -122 50t-50 122t50 122t122 50t122 -50t50 -122t-50 -122t-122 -50zM344 1836q-28 0 -46 18t-18 44
t18 46t44 20t46 -20t20 -46t-20 -44t-44 -18zM1024 1836q-24 0 -44 18t-20 44t20 46t46 20t44 -20t18 -46t-18 -44t-46 -18z" />
</svg>
