<?xml version="1.0" standalone="no"?>
<!DOCTYPE svg PUBLIC "-//W3C//DTD SVG 1.1//EN" "http://www.w3.org/Graphics/SVG/1.1/DTD/svg11.dtd" >
<svg xmlns="http://www.w3.org/2000/svg" xmlns:xlink="http://www.w3.org/1999/xlink" version="1.1" viewBox="-10 0 1556 2048">
   <path fill="currentColor"
d="M768 1752q-164 0 -300 -82t-216 -218t-80 -298t80 -300t216 -218t300 -80t300 80t216 218t80 300t-80 298t-216 218t-300 82zM1368 676l120 -124q-60 -68 -120 -120l-120 124q-100 -80 -224 -126t-256 -46q-208 0 -384 104t-280 280t-104 384t104 386t280 280t384 102
t386 -102t280 -278t102 -388q0 -132 -44 -254t-124 -222zM684 1240h168v-512h-168v512zM1024 128h-512v172h512v-172z" />
</svg>
