<?xml version="1.0" standalone="no"?>
<!DOCTYPE svg PUBLIC "-//W3C//DTD SVG 1.1//EN" "http://www.w3.org/Graphics/SVG/1.1/DTD/svg11.dtd" >
<svg xmlns="http://www.w3.org/2000/svg" xmlns:xlink="http://www.w3.org/1999/xlink" version="1.1" viewBox="-10 0 1724 2048">
   <path fill="currentColor"
d="M936 724h-168v-168h168v168zM936 1108h-168v-168h168v168zM936 1492h-168v-168h168v168zM1704 852v-340q0 -72 -50 -122t-118 -50h-1368q-68 0 -118 50t-50 122v340q68 0 118 50t50 122t-50 122t-118 50v340q0 72 50 122t118 50h1368q68 0 118 -50t50 -122v-340
q-68 0 -118 -50t-50 -122t50 -122t118 -50z" />
</svg>
