<?xml version="1.0" standalone="no"?>
<!DOCTYPE svg PUBLIC "-//W3C//DTD SVG 1.1//EN" "http://www.w3.org/Graphics/SVG/1.1/DTD/svg11.dtd" >
<svg xmlns="http://www.w3.org/2000/svg" xmlns:xlink="http://www.w3.org/1999/xlink" version="1.1" viewBox="-10 0 1464 2048">
   <path fill="currentColor"
d="M1424 1228q-16 -36 -54 -64t-88 -46t-114 -34q-32 -4 -72 -16q-32 -16 -48 -26t-24 -24t-8 -32t8 -36t24 -30t40 -20t54 -8t54 10t40 24t26 40t10 38h168q0 -48 -22 -92t-60 -74t-92 -50t-122 -20t-122 18t-88 46t-56 70t-22 88t18 82t52 62t86 46q40 16 108 32
q52 12 82 24t46 24t24 28t8 36q0 40 -34 64t-98 24q-32 0 -58 -6t-46 -20t-34 -38t-18 -56h-160q0 48 22 90t60 76t96 56t132 22t126 -16t92 -44t62 -70t22 -92t-20 -86zM636 1108q-24 -36 -56 -58t-76 -38q40 -20 68 -46t48 -56t28 -58t8 -60q0 -72 -22 -126t-66 -90
t-104 -54t-128 -18q-64 0 -128 20t-108 60t-66 88t-22 108h168q0 -32 10 -58t34 -44t50 -28t62 -10q80 0 116 40t36 112q0 36 -10 64t-32 48t-52 32t-78 12h-100v132h104q40 0 76 10t60 30t36 52t12 72q0 80 -44 122t-124 42q-40 0 -70 -10t-50 -30t-32 -48t-12 -64h-172
q0 68 28 124t78 92t102 52q64 20 128 20q68 0 132 -20t110 -58t70 -94t24 -128q0 -36 -10 -74t-26 -62z" />
</svg>
