<?xml version="1.0" standalone="no"?>
<!DOCTYPE svg PUBLIC "-//W3C//DTD SVG 1.1//EN" "http://www.w3.org/Graphics/SVG/1.1/DTD/svg11.dtd" >
<svg xmlns="http://www.w3.org/2000/svg" xmlns:xlink="http://www.w3.org/1999/xlink" version="1.1" viewBox="-10 0 1900 2048">
   <path fill="currentColor"
d="M1536 1194v-1024h344v1024h-344zM1196 170q72 0 122 50t50 122v852q0 72 -52 120l-560 564l-92 -92q-36 -36 -36 -92v-24l84 -392h-540q-72 0 -122 -50t-50 -118v-172q0 -32 12 -64l260 -600q20 -48 62 -76t94 -28h768zM1196 342h-772l-252 596v172h748l-96 452l372 -372
v-848z" />
</svg>
