<?xml version="1.0" standalone="no"?>
<!DOCTYPE svg PUBLIC "-//W3C//DTD SVG 1.1//EN" "http://www.w3.org/Graphics/SVG/1.1/DTD/svg11.dtd" >
<svg xmlns="http://www.w3.org/2000/svg" xmlns:xlink="http://www.w3.org/1999/xlink" version="1.1" viewBox="-10 0 1724 2048">
   <path fill="currentColor"
d="M1156 1432l-304 -196l-304 196l92 -348l-284 -232l364 -20l132 -336l132 336l364 20l-284 232zM1536 1024q0 -72 50 -122t118 -50v-340q0 -72 -50 -122t-118 -50h-1368q-68 0 -118 50t-50 122v340q68 0 118 50t50 122t-50 122t-118 50v340q0 72 50 122t118 50h1368
q68 0 118 -50t50 -122v-340q-68 0 -118 -50t-50 -122z" />
</svg>
