<?xml version="1.0" standalone="no"?>
<!DOCTYPE svg PUBLIC "-//W3C//DTD SVG 1.1//EN" "http://www.w3.org/Graphics/SVG/1.1/DTD/svg11.dtd" >
<svg xmlns="http://www.w3.org/2000/svg" xmlns:xlink="http://www.w3.org/1999/xlink" version="1.1" viewBox="-10 0 1724 2048">
   <path fill="currentColor"
d="M852 1878l-340 -344h680zM1536 170q68 0 118 50t50 122v852q0 72 -50 122t-118 50h-1368q-68 0 -118 -50t-50 -122v-852q0 -72 50 -122t118 -50h1368zM1364 1194v-172h-468l-172 172h640zM340 1194h212l584 -588q16 -12 16 -30t-16 -30l-148 -148q-12 -16 -30 -16t-30 16
l-588 584v212z" />
</svg>
