<?xml version="1.0" standalone="no"?>
<!DOCTYPE svg PUBLIC "-//W3C//DTD SVG 1.1//EN" "http://www.w3.org/Graphics/SVG/1.1/DTD/svg11.dtd" >
<svg xmlns="http://www.w3.org/2000/svg" xmlns:xlink="http://www.w3.org/1999/xlink" version="1.1" viewBox="-10 0 1724 2048">
   <path fill="currentColor"
d="M1536 172h-1368q-68 0 -118 50t-50 118v1024q0 72 50 122t118 50h344l340 340l340 -340h344q68 0 118 -50t50 -122v-1024q0 -68 -50 -118t-118 -50zM604 1280h-180v-180l528 -528l176 180zM1264 616l-84 84l-176 -172l84 -88q12 -12 32 -12t36 12l108 108q16 12 16 32
t-16 36z" />
</svg>
