<?xml version="1.0" standalone="no"?>
<!DOCTYPE svg PUBLIC "-//W3C//DTD SVG 1.1//EN" "http://www.w3.org/Graphics/SVG/1.1/DTD/svg11.dtd" >
<svg xmlns="http://www.w3.org/2000/svg" xmlns:xlink="http://www.w3.org/1999/xlink" version="1.1" viewBox="-10 0 1724 2048">
   <path fill="currentColor"
d="M424 172q-120 0 -224 76q-92 68 -146 186t-54 250t52 288t116 224q24 20 48 92q16 44 52 156q64 208 104 292q68 140 140 140q108 0 168 -60q48 -52 68 -148q12 -60 20 -180q8 -108 20 -148q20 -60 64 -60t64 60q12 40 20 148q8 120 20 180q20 96 68 148q60 60 168 60
q72 0 140 -140q40 -84 104 -292q36 -112 52 -156q24 -72 48 -92q64 -68 116 -224t52 -288t-54 -250t-146 -186q-104 -76 -224 -76q-96 0 -164 16q-40 8 -100 32q-44 20 -68 24q-44 12 -96 12t-96 -12q-24 -4 -68 -24q-60 -24 -100 -32q-68 -16 -164 -16zM424 340
q60 0 116 16q36 8 100 28t96 28q60 16 116 16t116 -16q32 -8 96 -28t100 -28q56 -16 116 -16q104 0 180 106t76 238q0 112 -48 240t-108 192q-24 24 -60 124q-24 60 -68 200q-40 136 -56 184q-28 76 -44 76t-30 -60t-14 -140q0 -160 -52 -260q-64 -132 -204 -132t-204 132
q-52 100 -52 260q0 80 -14 140t-30 60t-44 -76q-16 -48 -56 -184q-44 -140 -68 -200q-36 -100 -60 -124q-60 -64 -108 -192t-48 -240q0 -132 76 -238t180 -106z" />
</svg>
