<?xml version="1.0" standalone="no"?>
<!DOCTYPE svg PUBLIC "-//W3C//DTD SVG 1.1//EN" "http://www.w3.org/Graphics/SVG/1.1/DTD/svg11.dtd" >
<svg xmlns="http://www.w3.org/2000/svg" xmlns:xlink="http://www.w3.org/1999/xlink" version="1.1" viewBox="-10 0 1388 2048">
   <path fill="currentColor"
d="M684 768q-72 0 -122 -50t-50 -120t50 -120t122 -50t122 50t50 120t-50 120t-122 50zM684 1196q-72 0 -122 -50t-50 -122t50 -122t122 -50t122 50t50 122t-50 122t-122 50zM684 1620q-72 0 -122 -50t-50 -120t50 -120t122 -50t122 50t50 120t-50 120t-122 50zM1368 852
h-256v-96q112 -28 184 -120t72 -208h-256v-88q0 -36 -26 -60t-62 -24h-680q-36 0 -62 24t-26 60v88h-256q0 116 72 208t184 120v96h-256q0 120 72 210t184 122v96h-256q0 116 72 208t184 120v100q0 36 26 60t62 24h680q36 0 62 -24t26 -60v-100q112 -28 184 -120t72 -208
h-256v-96q112 -32 184 -122t72 -210z" />
</svg>
