<?xml version="1.0" standalone="no"?>
<!DOCTYPE svg PUBLIC "-//W3C//DTD SVG 1.1//EN" "http://www.w3.org/Graphics/SVG/1.1/DTD/svg11.dtd" >
<svg xmlns="http://www.w3.org/2000/svg" xmlns:xlink="http://www.w3.org/1999/xlink" version="1.1" viewBox="-10 0 1900 2048">
   <path fill="currentColor"
d="M172 340q-72 0 -122 50t-50 122v940h172q0 104 74 180t182 76t182 -76t74 -180h512q0 104 74 180t182 76t182 -76t74 -180h172v-428l-256 -340h-256v-344h-1196zM768 512l344 340l-344 344v-256h-512v-172h512v-256zM1368 812h212l168 212h-380v-212zM428 1324
q52 0 90 36t38 90t-38 92t-90 38t-90 -38t-38 -92t38 -90t90 -36zM1452 1324q52 0 90 36t38 90t-38 92t-90 38t-90 -38t-38 -92t38 -90t90 -36z" />
</svg>
