<?xml version="1.0" standalone="no"?>
<!DOCTYPE svg PUBLIC "-//W3C//DTD SVG 1.1//EN" "http://www.w3.org/Graphics/SVG/1.1/DTD/svg11.dtd" >
<svg xmlns="http://www.w3.org/2000/svg" xmlns:xlink="http://www.w3.org/1999/xlink" version="1.1" viewBox="-10 0 1724 2048">
   <path fill="currentColor"
d="M1364 1130q140 0 240 100l100 -100v344h-340l152 -152q-64 -64 -152 -64t-150 64t-62 152t62 150t150 62q52 0 96 -22t76 -62h144q-36 96 -122 154t-194 58q-140 0 -240 -100t-100 -242t100 -242t240 -100zM1536 578h-1368v852h684v44q0 60 16 128h-700q-68 0 -118 -50
t-50 -122v-1024q0 -72 50 -122t118 -50h512l172 172h684q68 0 118 50t50 122v424q-80 -48 -168 -68v-356z" />
</svg>
