<?xml version="1.0" standalone="no"?>
<!DOCTYPE svg PUBLIC "-//W3C//DTD SVG 1.1//EN" "http://www.w3.org/Graphics/SVG/1.1/DTD/svg11.dtd" >
<svg xmlns="http://www.w3.org/2000/svg" xmlns:xlink="http://www.w3.org/1999/xlink" version="1.1" viewBox="-10 0 1724 2048">
   <path fill="currentColor"
d="M1704 1024q0 168 -64 326t-184 278t-278 184t-326 64t-326 -64t-278 -184t-184 -278t-64 -326t64 -326t184 -278t278 -184t326 -64t326 64t278 184t184 278t64 326zM1052 660q36 20 78 10t62 -46t10 -78t-48 -64t-78 -10t-62 48t-10 78t48 62zM840 1324q-68 0 -124 -28
l-72 128q100 44 196 44q60 0 120 -16q12 -68 70 -102t126 -10q120 -116 132 -288h-148q-8 112 -94 192t-206 80zM840 724q120 0 206 78t94 194h148q-12 -172 -132 -288q-68 24 -126 -10t-70 -102q-60 -16 -120 -16q-104 0 -196 44l72 128q56 -28 124 -28zM544 1024
q0 -76 34 -140t90 -104l-72 -128q-144 96 -184 260q52 44 52 112t-52 112q20 80 68 146t116 114l72 -128q-56 -40 -90 -104t-34 -140zM1052 1388q-36 20 -48 62t10 78t62 48t78 -10t48 -64t-10 -78t-62 -46t-78 10zM320 920q-44 0 -74 30t-30 74t30 74t74 30t72 -30t28 -74
t-28 -74t-72 -30z" />
</svg>
