<?xml version="1.0" standalone="no"?>
<!DOCTYPE svg PUBLIC "-//W3C//DTD SVG 1.1//EN" "http://www.w3.org/Graphics/SVG/1.1/DTD/svg11.dtd" >
<svg xmlns="http://www.w3.org/2000/svg" xmlns:xlink="http://www.w3.org/1999/xlink" version="1.1" viewBox="-10 0 1804 2048">
   <path fill="currentColor"
d="M1784 470q-96 44 -208 60q116 -72 160 -204q-108 64 -232 88q-108 -116 -272 -116q-148 0 -256 108t-108 260q0 40 12 84q-224 -12 -422 -114t-334 -270q-48 84 -48 182t44 178t116 128q-84 0 -164 -44v4q0 132 84 232t208 128q-44 12 -96 12q-32 0 -68 -8
q36 112 130 182t210 74q-196 156 -452 156q-44 0 -88 -4q256 164 560 164q320 0 568 -164q228 -144 356 -392q120 -236 120 -484l-4 -48q108 -76 184 -192z" />
</svg>
