<?xml version="1.0" standalone="no"?>
<!DOCTYPE svg PUBLIC "-//W3C//DTD SVG 1.1//EN" "http://www.w3.org/Graphics/SVG/1.1/DTD/svg11.dtd" >
<svg xmlns="http://www.w3.org/2000/svg" xmlns:xlink="http://www.w3.org/1999/xlink" version="1.1" viewBox="-10 0 1232 2048">
   <path fill="currentColor"
d="M872 630v344h84v168h-256v-680h172l-256 -344l-256 344h172v680h-256v-176q44 -24 72 -68t28 -96q0 -76 -54 -132t-132 -56t-134 54t-56 134q0 52 28 96t76 68v176q0 72 50 122t122 50h256v260q-48 24 -76 68t-28 100q0 76 56 132t132 56t132 -56t56 -132q0 -56 -28 -100
t-76 -68v-260h256q72 0 122 -50t50 -122v-168h84v-344h-340z" />
</svg>
