<?xml version="1.0" standalone="no"?>
<!DOCTYPE svg PUBLIC "-//W3C//DTD SVG 1.1//EN" "http://www.w3.org/Graphics/SVG/1.1/DTD/svg11.dtd" >
<svg xmlns="http://www.w3.org/2000/svg" xmlns:xlink="http://www.w3.org/1999/xlink" version="1.1" viewBox="-10 0 1775 2048">
   <path fill="currentColor"
d="M1390 1098v-148q0 -30 -21.5 -51t-51.5 -21h-293v-292q0 -30 -21.5 -52t-51.5 -22h-146q-30 0 -52 22t-22 52v292h-292q-30 0 -51.5 21t-21.5 51v148q0 30 21.5 51t51.5 21h292v292q0 30 22 52t52 22h146q30 0 51.5 -21.5t21.5 -52.5v-292h293q30 0 51.5 -21t21.5 -51z
M1755 1024.5q0 119.5 -31.5 233t-88 210t-137.5 177.5t-177 137.5t-210 88t-233 31.5t-233 -31.5t-210.5 -88t-177.5 -137.5t-137.5 -177.5t-88 -210t-31.5 -233t31.5 -233.5t88 -210t137.5 -177t177.5 -137.5t210.5 -88.5t233 -32t233 32t210 88.5t177 137.5t137.5 177
t88 210t31.5 233.5z" />
</svg>
