<?xml version="1.0" standalone="no"?>
<!DOCTYPE svg PUBLIC "-//W3C//DTD SVG 1.1//EN" "http://www.w3.org/Graphics/SVG/1.1/DTD/svg11.dtd" >
<svg xmlns="http://www.w3.org/2000/svg" xmlns:xlink="http://www.w3.org/1999/xlink" version="1.1" viewBox="-10 0 1812 2048">
   <path fill="currentColor"
d="M172 128h172v172h-172v172h-172v-172q0 -72 50 -122t122 -50zM1112 128q68 0 118 50t50 122v172h-168v-172h-172v-172h172zM1624 640q68 0 118 50t50 122v172h-168v-172h-172v-172h172zM1792 1752q0 68 -50 118t-118 50h-172v-168h172v-172h168v172zM1624 1152h168v256
h-168v-256zM1024 812v-172h256v256h-168v-84h-88zM1024 1920v-168h256v168h-256zM684 1920q-72 0 -122 -50t-50 -118v-172h172v172h172v168h-172zM512 1408v-256h172v88h84v168h-256zM512 300v-172h256v172h-256zM172 1408q-72 0 -122 -50t-50 -118v-172h172v172h172v168
h-172zM0 640h172v256h-172v-256zM684 640h172v172h-172v172h-172v-172q0 -72 50 -122t122 -50zM1280 1240q0 68 -50 118t-118 50h-172v-168h172v-172h168v172z" />
</svg>
