<?xml version="1.0" standalone="no"?>
<!DOCTYPE svg PUBLIC "-//W3C//DTD SVG 1.1//EN" "http://www.w3.org/Graphics/SVG/1.1/DTD/svg11.dtd" >
<svg xmlns="http://www.w3.org/2000/svg" xmlns:xlink="http://www.w3.org/1999/xlink" version="1.1" viewBox="-10 0 1724 2048">
   <path fill="currentColor"
d="M1620 256h-1536q-40 0 -62 24t-22 60v512q0 40 22 64t62 24h1536q40 0 62 -24t22 -64v-512q0 -36 -22 -60t-62 -24zM1620 1108h-1536q-40 0 -62 24t-22 64v512q0 36 22 60t62 24h1536q40 0 62 -24t22 -60v-512q0 -40 -22 -64t-62 -24z" />
</svg>
