<?xml version="1.0" standalone="no"?>
<!DOCTYPE svg PUBLIC "-//W3C//DTD SVG 1.1//EN" "http://www.w3.org/Graphics/SVG/1.1/DTD/svg11.dtd" >
<svg xmlns="http://www.w3.org/2000/svg" xmlns:xlink="http://www.w3.org/1999/xlink" version="1.1" viewBox="-10 0 1724 2048">
   <path fill="currentColor"
d="M596 812q36 0 60 24t24 60t-24 60t-60 24t-60 -24t-24 -60t24 -60t60 -24zM1108 812q36 0 60 24t24 60t-24 60t-60 24t-60 -24t-24 -60t24 -60t60 -24zM84 1492l84 -256h-84q-36 0 -60 -24t-24 -60v-512q0 -36 24 -60t60 -24h1536q36 0 60 24t24 60v512q0 36 -24 60
t-60 24h-84l84 256h-172l-84 -256h-1024l-84 256h-172zM936 724v344h600v-344h-600zM168 724v344h600v-344h-600z" />
</svg>
