<?xml version="1.0" standalone="no"?>
<!DOCTYPE svg PUBLIC "-//W3C//DTD SVG 1.1//EN" "http://www.w3.org/Graphics/SVG/1.1/DTD/svg11.dtd" >
<svg xmlns="http://www.w3.org/2000/svg" xmlns:xlink="http://www.w3.org/1999/xlink" version="1.1" viewBox="-10 0 1725 2048">
   <path fill="currentColor"
d="M1704 624q-12 252 -348 684q-344 456 -588 456q-148 0 -252 -280l-140 -504q-76 -276 -164 -276q-16 0 -132 80l-80 -104q84 -72 248 -220v-4q168 -144 252 -152q200 -20 248 272q48 316 68 392q52 260 124 260q56 0 164 -168t116 -256q12 -148 -116 -148q-64 0 -128 28
q128 -412 480 -400q264 8 248 340z" />
</svg>
