<?xml version="1.0" standalone="no"?>
<!DOCTYPE svg PUBLIC "-//W3C//DTD SVG 1.1//EN" "http://www.w3.org/Graphics/SVG/1.1/DTD/svg11.dtd" >
<svg xmlns="http://www.w3.org/2000/svg" xmlns:xlink="http://www.w3.org/1999/xlink" version="1.1" viewBox="-10 0 1640 2048">
   <path fill="currentColor"
d="M936 428h-256q-36 0 -60 24t-24 60v1024q0 36 24 60t60 24h256q36 0 62 -24t26 -60v-1024q0 -36 -26 -60t-62 -24zM1536 428h-256q-36 0 -62 24t-26 60v1024q0 36 26 60t62 24h256q36 0 60 -24t24 -60v-1024q0 -36 -24 -60t-60 -24zM340 428h-256q-36 0 -60 24t-24 60
v1024q0 36 24 60t60 24h256q36 0 60 -24t24 -60v-1024q0 -36 -24 -60t-60 -24z" />
</svg>
