<?xml version="1.0" standalone="no"?>
<!DOCTYPE svg PUBLIC "-//W3C//DTD SVG 1.1//EN" "http://www.w3.org/Graphics/SVG/1.1/DTD/svg11.dtd" >
<svg xmlns="http://www.w3.org/2000/svg" xmlns:xlink="http://www.w3.org/1999/xlink" version="1.1" viewBox="-10 0 1724 2048">
   <path fill="currentColor"
d="M1536 1238h-1368v-512h256v168h172v-168h512v168h172v-168h256v512zM1536 1662h-1368v-168h1368v168zM596 382h512v172h-512v-172zM1536 554h-256v-172q0 -68 -50 -118t-122 -50h-512q-72 0 -122 50t-50 118v172h-256q-68 0 -118 50t-50 122v936q0 72 50 122t118 50h1368
q68 0 118 -50t50 -122v-936q0 -72 -50 -122t-118 -50z" />
</svg>
