<?xml version="1.0" standalone="no"?>
<!DOCTYPE svg PUBLIC "-//W3C//DTD SVG 1.1//EN" "http://www.w3.org/Graphics/SVG/1.1/DTD/svg11.dtd" >
<svg xmlns="http://www.w3.org/2000/svg" xmlns:xlink="http://www.w3.org/1999/xlink" version="1.1" viewBox="-10 0 1724 2048">
   <path fill="currentColor"
d="M852 128q-184 0 -342 92t-250 248t-92 340q0 172 78 318t216 242t306 120v88h-88q-36 0 -60 26t-24 62h-596v168h596q0 36 24 62t60 26h344q36 0 60 -26t24 -62h596v-168h-596q0 -36 -24 -62t-60 -26h-88v-88q168 -24 306 -120t216 -242t78 -318q0 -184 -92 -340
t-250 -248t-342 -92zM852 296q20 36 36 76q44 88 72 180h-216q28 -92 72 -180zM660 336q-48 88 -88 216h-164q96 -156 252 -216zM1044 336q160 60 252 216h-164q-40 -128 -88 -216zM348 724h188q-4 48 -4 84t4 88h-188q-8 -44 -8 -86t8 -86zM708 724h288q4 48 4 84t-4 88
h-288q-4 -52 -4 -88t4 -84zM1168 724h188q8 44 8 86t-8 86h-188q4 -52 4 -88t-4 -84zM408 1064h164q40 132 88 220q-160 -64 -252 -220zM744 1064h216q-28 92 -72 184l-36 72l-36 -72q-44 -92 -72 -184zM1132 1064h164q-96 156 -252 220q48 -92 88 -220z" />
</svg>
