<?xml version="1.0" standalone="no"?>
<!DOCTYPE svg PUBLIC "-//W3C//DTD SVG 1.1//EN" "http://www.w3.org/Graphics/SVG/1.1/DTD/svg11.dtd" >
<svg xmlns="http://www.w3.org/2000/svg" xmlns:xlink="http://www.w3.org/1999/xlink" version="1.1" viewBox="-10 0 1640 2048">
   <path fill="currentColor"
d="M1536 1536v84q0 72 -50 122t-122 50h-1192q-72 0 -122 -50t-50 -122v-1192q0 -72 50 -122t122 -50h1192q72 0 122 50t50 122v84h-768q-72 0 -122 50t-50 122v680q0 72 50 122t122 50h768zM768 1364h852v-680h-852v680zM1108 1152q-52 0 -90 -38t-38 -90t38 -90t92 -38
t90 38t36 90t-36 90t-92 38z" />
</svg>
