<?xml version="1.0" standalone="no"?>
<!DOCTYPE svg PUBLIC "-//W3C//DTD SVG 1.1//EN" "http://www.w3.org/Graphics/SVG/1.1/DTD/svg11.dtd" >
<svg xmlns="http://www.w3.org/2000/svg" xmlns:xlink="http://www.w3.org/1999/xlink" version="1.1" viewBox="-10 0 1900 2048">
   <path fill="currentColor"
d="M684 1037q32 8 50 40t10 64l-112 412q-8 36 -38 52t-64 8t-52 -38t-6 -66l108 -412q8 -32 38 -50t66 -10zM1024 1037q36 8 54 40t6 64l-176 660q-8 36 -38 52t-64 8t-52 -40t-10 -64l176 -660q12 -32 42 -50t62 -10zM1368 1037q32 8 50 40t10 64l-112 412q-8 36 -38 52
t-66 8t-52 -38t-8 -66l112 -412q8 -32 38 -50t66 -10zM1368 865v-84q0 -116 -58 -214t-156 -156t-214 -58q-160 0 -278 102t-142 258q-48 -16 -92 -16q-108 0 -182 74t-74 182q0 68 34 128t94 92q32 16 40 52t-10 66t-50 38t-64 -8q-100 -56 -158 -154t-58 -214t58 -214
t156 -156t214 -58q64 -152 202 -246t310 -94q144 0 268 68t200 186t88 258h40q144 0 244 100t100 240q0 96 -46 174t-126 122q-32 16 -66 8t-52 -40t-8 -66t42 -50q36 -24 60 -62t24 -86q0 -72 -50 -122t-122 -50h-168z" />
</svg>
