<?xml version="1.0" standalone="no"?>
<!DOCTYPE svg PUBLIC "-//W3C//DTD SVG 1.1//EN" "http://www.w3.org/Graphics/SVG/1.1/DTD/svg11.dtd" >
<svg xmlns="http://www.w3.org/2000/svg" xmlns:xlink="http://www.w3.org/1999/xlink" version="1.1" viewBox="-10 0 1900 2048">
   <path fill="currentColor"
d="M428 1620q-116 0 -214 -56t-156 -154t-58 -214t58 -214t156 -156t214 -58q64 -152 202 -246t310 -94q144 0 268 68t200 186t88 258h40q144 0 244 100t100 240t-100 240t-244 100h-1108zM1536 1108h-168v-84q0 -116 -58 -214t-156 -156t-214 -58q-160 0 -278 102t-142 258
q-48 -16 -92 -16q-108 0 -182 74t-74 180t74 182t182 76h1108q72 0 122 -50t50 -122t-50 -122t-122 -50z" />
</svg>
