<?xml version="1.0" standalone="no"?>
<!DOCTYPE svg PUBLIC "-//W3C//DTD SVG 1.1//EN" "http://www.w3.org/Graphics/SVG/1.1/DTD/svg11.dtd" >
<svg xmlns="http://www.w3.org/2000/svg" xmlns:xlink="http://www.w3.org/1999/xlink" version="1.1" viewBox="-10 0 1900 2048">
   <path fill="currentColor"
d="M172 1280h852q36 0 62 24t26 60t-26 62t-62 26h-852q-36 0 -60 -26t-24 -62t24 -60t60 -24zM1280 1280h428q36 0 60 24t24 60t-24 62t-60 26h-428q-36 0 -60 -26t-24 -62t24 -60t60 -24zM0 1024q0 -116 58 -214t156 -156t214 -58q64 -152 202 -246t310 -94q144 0 268 68
t200 186t88 262l40 -4q140 0 240 100t104 240h-172q0 -68 -50 -118t-122 -50h-168v-88q0 -116 -58 -214t-156 -154t-214 -56q-160 0 -278 102t-142 254q-48 -16 -92 -16q-108 0 -182 74t-74 182q0 44 16 84h-180zM172 1620h172q36 0 60 26t24 62t-24 60t-60 24h-172
q-36 0 -60 -24t-24 -60t24 -62t60 -26zM600 1620h1108q36 0 60 26t24 62t-24 60t-60 24h-1108q-36 0 -62 -24t-26 -60t26 -62t62 -26z" />
</svg>
