<?xml version="1.0" standalone="no"?>
<!DOCTYPE svg PUBLIC "-//W3C//DTD SVG 1.1//EN" "http://www.w3.org/Graphics/SVG/1.1/DTD/svg11.dtd" >
<svg xmlns="http://www.w3.org/2000/svg" xmlns:xlink="http://www.w3.org/1999/xlink" version="1.1" viewBox="-10 0 1775 2048">
   <path fill="currentColor"
d="M1024 1572v-218q0 -16 -10.5 -27t-26.5 -11h-219q-16 0 -26.5 11t-10.5 27v218q0 16 10.5 27t26.5 11h219q16 0 26.5 -11t10.5 -27zM1317 804q0 -75 -37.5 -144.5t-96.5 -117t-133.5 -76t-148.5 -28.5q-277 0 -424 244q-7 13 -4.5 26.5t13.5 21.5l151 114q8 8 21 8
q18 0 29 -14q61 -79 98 -106q37 -26 98 -26q55 0 98 29.5t43 66.5q0 43 -23.5 70t-77.5 52q-32 14 -64.5 37.5t-61.5 54.5t-47.5 70.5t-18.5 79.5v40q0 16 10.5 27t26.5 11h219q16 0 26.5 -11t10.5 -27q0 -21 24.5 -56t62.5 -56q26 -15 39.5 -23t39 -25.5t40 -31.5
t33.5 -37.5t29 -47.5t17.5 -56t7.5 -69zM1755 1024.5q0 119.5 -31.5 233t-88 210t-137.5 177.5t-177 137.5t-210 88t-233 31.5t-233 -31.5t-210.5 -88t-177.5 -137.5t-137.5 -177.5t-88 -210t-31.5 -233t31.5 -233.5t88 -210t137.5 -177t177.5 -137.5t210.5 -88.5t233 -32
t233 32t210 88.5t177 137.5t137.5 177t88 210t31.5 233.5z" />
</svg>
