<?xml version="1.0" standalone="no"?>
<!DOCTYPE svg PUBLIC "-//W3C//DTD SVG 1.1//EN" "http://www.w3.org/Graphics/SVG/1.1/DTD/svg11.dtd" >
<svg xmlns="http://www.w3.org/2000/svg" xmlns:xlink="http://www.w3.org/1999/xlink" version="1.1" viewBox="-10 0 1660 2048">
   <path fill="currentColor"
d="M1344 390l-216 168l76 260l-224 -156l-224 156l76 -260l-216 -168l272 -8l92 -256l92 256zM1640 982l-140 104l52 172l-144 -100l-148 100l52 -172l-140 -104l176 -4l60 -168l56 168zM1448 1402q32 -4 66 24.5t44 66t-10 69.5q-44 65 -92 108q-164 164 -384 222.5t-440 0
t-384 -222t-220 -384.5q-28 -110 -28 -219.5t28 -220.5q56 -220 220 -384q52 -52 108 -92q32 -19 72 -7.5t66 43.5t22 68q-16 185 46 364.5t200 317.5t318 202.5t368 43.5zM1308 1574q-184 -7 -358 -83.5t-310 -212.5t-212 -308t-84 -356q-120 132 -158 302t10 338t174 294
t294 174t340 10.5t304 -158.5z" />
</svg>
