<?xml version="1.0" standalone="no"?>
<!DOCTYPE svg PUBLIC "-//W3C//DTD SVG 1.1//EN" "http://www.w3.org/Graphics/SVG/1.1/DTD/svg11.dtd" >
<svg xmlns="http://www.w3.org/2000/svg" xmlns:xlink="http://www.w3.org/1999/xlink" version="1.1" viewBox="-10 0 1724 2048">
   <path fill="currentColor"
d="M1224 1196q12 -100 12 -172t-12 -172h288q24 92 24 172t-24 172h-288zM1072 1668q76 -140 120 -304h252q-64 108 -158 186t-214 118zM1052 1196h-400q-12 -92 -12 -172t12 -172h400q12 100 12 172t-12 172zM852 1704q-112 -164 -164 -340h328q-52 176 -164 340zM512 684
h-252q64 -108 158 -186t214 -118q-72 132 -120 304zM260 1364h252q48 172 120 304q-120 -40 -214 -118t-158 -186zM192 1196q-24 -92 -24 -172t24 -172h288q-12 100 -12 172t12 172h-288zM852 344q112 164 164 340h-328q52 -176 164 -340zM1444 684h-252q-44 -164 -120 -304
q120 40 214 118t158 186zM852 172q-232 0 -428 114t-310 310t-114 428q0 168 64 326t184 278t278 184t326 64t326 -64t278 -184t184 -278t64 -326t-64 -326t-184 -278t-278 -184t-326 -64z" />
</svg>
