<?xml version="1.0" standalone="no"?>
<!DOCTYPE svg PUBLIC "-//W3C//DTD SVG 1.1//EN" "http://www.w3.org/Graphics/SVG/1.1/DTD/svg11.dtd" >
<svg xmlns="http://www.w3.org/2000/svg" xmlns:xlink="http://www.w3.org/1999/xlink" version="1.1" viewBox="-10 0 1900 2048">
   <path fill="currentColor"
d="M428 1159q36 0 60 24t24 60t-24 60t-60 24q-116 0 -214 -56t-156 -154t-58 -214t58 -214t156 -156t214 -58q64 -152 202 -246t310 -94q144 0 268 68t200 186t88 258h40q144 0 244 100t100 240t-100 240t-244 100h-84q-36 0 -60 -24t-24 -60t24 -60t60 -24h84
q72 0 122 -50t50 -122t-50 -122t-122 -50h-168v-84q0 -116 -58 -214t-156 -156t-214 -58q-160 0 -278 102t-142 258q-48 -16 -92 -16q-108 0 -182 74t-74 180t74 182t182 76zM588 1503l188 -48l-140 -136q-24 -24 -24 -60t26 -62t62 -26t60 24l136 140l48 -188
q12 -32 42 -50t64 -10t52 40t10 64l-52 188l188 -52q32 -8 64 10t40 52t-10 64t-50 42l-188 48l140 136q24 24 24 60t-26 62t-62 26t-60 -24l-136 -140l-48 188q-12 32 -42 50t-64 10t-52 -40t-10 -64l52 -188l-188 52q-32 8 -64 -10t-40 -52t10 -64t50 -42z" />
</svg>
