<?xml version="1.0" standalone="no"?>
<!DOCTYPE svg PUBLIC "-//W3C//DTD SVG 1.1//EN" "http://www.w3.org/Graphics/SVG/1.1/DTD/svg11.dtd" >
<svg xmlns="http://www.w3.org/2000/svg" xmlns:xlink="http://www.w3.org/1999/xlink" version="1.1" viewBox="-10 0 1900 2048">
   <path fill="currentColor"
d="M428 1196q36 0 60 26t24 60t-24 60t-60 26q-116 0 -214 -58t-156 -156t-58 -214t58 -214t156 -154t214 -56q64 -156 202 -250t310 -94q144 0 268 70t200 186t88 260l40 -4q144 0 244 100t100 242t-100 242t-244 100h-84q-36 0 -60 -26t-24 -60t24 -60t60 -26h84
q72 0 122 -50t50 -120t-50 -120t-122 -50h-168v-84q0 -116 -58 -214t-156 -156t-214 -58q-160 0 -278 102t-142 254q-44 -16 -92 -16q-108 0 -182 76t-74 182t74 180t182 74zM940 1208q20 28 48 68q124 172 124 260q0 72 -50 122t-122 50t-122 -50t-50 -122q0 -88 124 -260z
M940 940l-44 48l-44 56q-56 68 -100 136q-72 100 -104 172q-48 100 -48 184q0 140 100 240t240 100t240 -100t100 -240q0 -84 -48 -184q-32 -72 -104 -176t-144 -188z" />
</svg>
