<?xml version="1.0" standalone="no"?>
<!DOCTYPE svg PUBLIC "-//W3C//DTD SVG 1.1//EN" "http://www.w3.org/Graphics/SVG/1.1/DTD/svg11.dtd" >
<svg xmlns="http://www.w3.org/2000/svg" xmlns:xlink="http://www.w3.org/1999/xlink" version="1.1" viewBox="-10 0 1388 2048">
   <path fill="currentColor"
d="M684 172q164 0 300 80t216 216t80 300t-80 300t-216 216t-300 80t-300 -80t-216 -216t-80 -300t80 -300t216 -216t300 -80zM684 340q-116 0 -214 58t-156 156t-58 214t58 214t156 156t214 58t214 -58t156 -156t58 -214t-58 -214t-156 -156t-214 -58zM684 512
q108 0 182 74t74 182t-74 182t-182 74t-182 -74t-74 -182t74 -182t182 -74zM172 1876q-72 0 -122 -50t-50 -118q0 -52 28 -88l152 -272q104 88 234 138t270 50t270 -50t234 -138l152 272q28 36 28 88q0 68 -50 118t-122 50h-1024z" />
</svg>
