<?xml version="1.0" standalone="no"?>
<!DOCTYPE svg PUBLIC "-//W3C//DTD SVG 1.1//EN" "http://www.w3.org/Graphics/SVG/1.1/DTD/svg11.dtd" >
<svg xmlns="http://www.w3.org/2000/svg" xmlns:xlink="http://www.w3.org/1999/xlink" version="1.1" viewBox="-10 0 1716 2048">
   <path fill="currentColor"
d="M852 172q-228 0 -424 114t-310 308t-114 422t116 424l-120 436l448 -116q188 104 404 104q228 0 422 -114t308 -308t114 -426q0 -168 -64 -322t-182 -274t-274 -184t-324 -64zM852 312q140 0 268 54t228 154t154 228t54 268q0 192 -96 354t-258 256t-354 94t-356 -100
l-24 -12l-264 68l68 -260l-16 -24q-108 -172 -108 -376q0 -192 96 -352t256 -256t352 -96zM552 624q-32 0 -56 28l-4 4q-72 76 -72 172t84 212l8 16q164 228 356 308q56 28 118 46t138 10q32 -8 80 -38t60 -64t16 -62t-2 -36t-34 -24l-80 -40q-56 -28 -72 -32t-26 -4t-22 16
q-16 24 -64 80q-20 20 -48 8l-12 -8q-92 -36 -156 -96t-120 -148q-12 -24 8 -44t32 -34t20 -30l4 -8q8 -16 -4 -36l-64 -156q-12 -24 -20 -30t-24 -6z" />
</svg>
