<?xml version="1.0" standalone="no"?>
<!DOCTYPE svg PUBLIC "-//W3C//DTD SVG 1.1//EN" "http://www.w3.org/Graphics/SVG/1.1/DTD/svg11.dtd" >
<svg xmlns="http://www.w3.org/2000/svg" xmlns:xlink="http://www.w3.org/1999/xlink" version="1.1" viewBox="-10 0 1388 2048">
   <path fill="currentColor"
d="M1232 956l-352 16l196 -220q32 -48 16 -112q-16 -52 -40 -68l-460 -272q-28 -20 -62 -16t-58 24l-232 212q-32 32 -36 74t24 72t72 32t76 -22l172 -156l160 96l-356 364l-8 12q-4 8 -8 8q-88 32 -120 60l128 128q84 -36 128 -36q120 0 208 88t88 212q0 80 -32 128
l128 128q76 -116 76 -256q0 -164 -92 -284l280 -24l-16 408q-8 44 20 74t72 38h8q40 0 68 -28t36 -64l16 -504q0 -52 -24 -80q-36 -32 -76 -32zM1196 468q72 0 122 -50t50 -120t-50 -120t-122 -50t-122 50t-50 120t50 120t122 50zM728 1844q-116 76 -256 76q-128 0 -236 -64
t-172 -172t-64 -232q0 -144 80 -256l128 128q-36 84 -36 128q0 120 88 208t212 88q80 0 128 -32z" />
</svg>
