<?xml version="1.0" standalone="no"?>
<!DOCTYPE svg PUBLIC "-//W3C//DTD SVG 1.1//EN" "http://www.w3.org/Graphics/SVG/1.1/DTD/svg11.dtd" >
<svg xmlns="http://www.w3.org/2000/svg" xmlns:xlink="http://www.w3.org/1999/xlink" version="1.1" viewBox="-10 0 2052 2048">
   <path fill="currentColor"
d="M880 1364l-60 -168h-272l-60 168h-164l272 -768h172l272 768h-160zM1876 596l-100 540l-128 -540h-136l-128 540l-104 -540h-64q-96 -116 -236 -186t-296 -70q-188 0 -344 92t-248 250t-92 342t92 342t248 250t344 92q196 0 360 -104t248 -276l8 36h152l128 -520l128 520
h148l176 -768h-156zM584 1080h196l-96 -312z" />
</svg>
