<?xml version="1.0" standalone="no"?>
<!DOCTYPE svg PUBLIC "-//W3C//DTD SVG 1.1//EN" "http://www.w3.org/Graphics/SVG/1.1/DTD/svg11.dtd" >
<svg xmlns="http://www.w3.org/2000/svg" xmlns:xlink="http://www.w3.org/1999/xlink" version="1.1" viewBox="-10 0 1724 2048">
   <path fill="currentColor"
d="M1352 1422h-160v-524h160v524zM1364 710q0 40 -28 68t-66 28t-66 -28t-28 -68t28 -68t66 -28t66 28t28 68zM1688 1422h-160v-524h160v524zM1704 710q0 40 -28 68t-66 28t-66 -28t-28 -68t28 -68t66 -28t66 28t28 68zM928 666h172l-192 668q-16 40 -36 64q-36 36 -80 36
q-64 0 -104 -68q-20 -32 -24 -64l-116 -416l-124 448q-16 40 -40 64q-32 36 -76 36q-64 0 -104 -68q-20 -32 -24 -64l-180 -636h168l148 564l120 -460q16 -72 68 -100q24 -12 44 -12l24 4q28 8 48 28q32 32 44 80l116 460z" />
</svg>
