<?xml version="1.0" standalone="no"?>
<!DOCTYPE svg PUBLIC "-//W3C//DTD SVG 1.1//EN" "http://www.w3.org/Graphics/SVG/1.1/DTD/svg11.dtd" >
<svg xmlns="http://www.w3.org/2000/svg" xmlns:xlink="http://www.w3.org/1999/xlink" version="1.1" viewBox="-10 0 1900 2048">
   <path fill="currentColor"
d="M220 1626l120 120l152 -156l-120 -120zM856 1958h168v-252h-168v252zM940 510q-140 0 -258 70t-186 188t-68 256t68 256t186 186t258 68t258 -68t186 -186t68 -256t-68 -256t-186 -188t-258 -70zM1624 1110h256v-172h-256v172zM1388 1590l152 156l120 -120l-152 -156z
M1660 422l-120 -120l-152 152l120 124zM1024 90h-168v252h168v-252zM256 938h-256v172h256v-172zM492 454l-152 -152l-120 120l152 156z" />
</svg>
