<?xml version="1.0" standalone="no"?>
<!DOCTYPE svg PUBLIC "-//W3C//DTD SVG 1.1//EN" "http://www.w3.org/Graphics/SVG/1.1/DTD/svg11.dtd" >
<svg xmlns="http://www.w3.org/2000/svg" xmlns:xlink="http://www.w3.org/1999/xlink" version="1.1" viewBox="-10 0 1775 2048">
   <path fill="currentColor"
d="M1170 1572v-182q0 -16 -10 -26t-26 -10h-110v-586q0 -15 -10.5 -25.5t-26.5 -10.5h-365q-16 0 -26.5 10.5t-10.5 25.5v182q0 16 10.5 27t26.5 11h109v366h-109q-16 0 -26.5 10t-10.5 26v182q0 16 10.5 27t26.5 11h512q16 0 26 -11t10 -27zM1024 548v-182q0 -16 -10.5 -26
t-26.5 -10h-219q-16 0 -26.5 10t-10.5 26v182q0 16 10.5 27t26.5 11h219q16 0 26.5 -11t10.5 -27zM1755 1024.5q0 119.5 -31.5 233t-88 210t-137.5 177.5t-177 137.5t-210 88t-233 31.5t-233 -31.5t-210.5 -88t-177.5 -137.5t-137.5 -177.5t-88 -210t-31.5 -233t31.5 -233.5
t88 -210t137.5 -177t177.5 -137.5t210.5 -88.5t233 -32t233 32t210 88.5t177 137.5t137.5 177t88 210t31.5 233.5z" />
</svg>
