<?xml version="1.0" standalone="no"?>
<!DOCTYPE svg PUBLIC "-//W3C//DTD SVG 1.1//EN" "http://www.w3.org/Graphics/SVG/1.1/DTD/svg11.dtd" >
<svg xmlns="http://www.w3.org/2000/svg" xmlns:xlink="http://www.w3.org/1999/xlink" version="1.1" viewBox="-10 0 1724 2048">
   <path fill="currentColor"
d="M120 1024q0 -152 64 -300l348 960q-184 -92 -298 -268t-114 -392zM1348 988q0 36 -16 88q-8 36 -32 112l-84 280l-264 -784l84 -8q20 -4 26 -20t-2 -30t-28 -14l-68 8q-80 4 -128 4l-192 -12q-20 0 -28 14t-2 30t26 20l76 8l116 308l-160 480l-268 -788l84 -8
q20 -4 26 -20t-4 -30t-26 -14l-72 8q-76 4 -124 4h-48q100 -156 262 -244t350 -88q140 0 268 50t228 142h-12q-52 0 -88 38t-36 90q0 40 20 80q12 28 44 80l8 12q64 104 64 204zM864 1088l228 616l4 12q-116 40 -244 40q-108 0 -208 -28zM1496 672q88 164 88 352
q0 200 -100 368t-264 264l224 -644q56 -140 56 -264zM852 172q168 0 326 64t278 184t184 278t64 326t-64 326t-184 278t-278 184t-326 64t-326 -64t-278 -184t-184 -278t-64 -326t64 -326t184 -278t278 -184t326 -64zM852 1840q220 0 408 -110t298 -298t110 -408t-110 -408
t-298 -298t-408 -110t-408 110t-298 298t-110 408t110 408t298 298t408 110z" />
</svg>
