<?xml version="1.0" standalone="no"?>
<!DOCTYPE svg PUBLIC "-//W3C//DTD SVG 1.1//EN" "http://www.w3.org/Graphics/SVG/1.1/DTD/svg11.dtd" >
<svg xmlns="http://www.w3.org/2000/svg" xmlns:xlink="http://www.w3.org/1999/xlink" version="1.1" viewBox="-10 0 1724 2048">
   <path fill="currentColor"
d="M376 316q12 -8 16 -12q208 -132 460 -132q240 0 440 120l4 4q32 20 44 36q-44 -48 -128 -36q-72 12 -164 60q-64 36 -136 88l-60 44q-200 -152 -328 -188q-48 -12 -92 -4q-32 4 -52 20h-4zM1480 444q-12 -8 -12 -12q-44 -44 -104 -40q-56 16 -124 56q-120 68 -236 176
l60 60q68 72 128 144q84 104 140 192q104 172 140 284q44 144 12 296q104 -120 162 -266t58 -310t-58 -314t-166 -266zM1172 1104q-120 -132 -248 -256l-72 -72l-92 92q-116 120 -196 204q-108 112 -196 236q-136 188 -144 292l-4 -24q-8 -32 -8 -76q0 -60 16 -128
q20 -88 60 -188q52 -128 196 -316q120 -164 212 -248l-60 -56q-72 -64 -140 -108l-4 -4q-96 -52 -168 -56q-36 0 -68 24q-16 8 -28 20q-108 116 -168 266t-60 318t64 326t184 278t278 184t326 64q184 0 348 -74t284 -202l-8 -36q-16 -48 -40 -96q-36 -72 -84 -144
q-48 -64 -180 -220z" />
</svg>
