<?xml version="1.0" standalone="no"?>
<!DOCTYPE svg PUBLIC "-//W3C//DTD SVG 1.1//EN" "http://www.w3.org/Graphics/SVG/1.1/DTD/svg11.dtd" >
<svg xmlns="http://www.w3.org/2000/svg" xmlns:xlink="http://www.w3.org/1999/xlink" version="1.1" viewBox="-10 0 1775 2048">
   <path fill="currentColor"
d="M1368 1170h-125q-30 0 -51.5 -21t-21.5 -51v-148q0 -30 21.5 -51t51.5 -21h125q-37 -124 -128.5 -216t-215.5 -128v124q0 30 -21.5 52t-51.5 22h-146q-30 0 -52 -22t-22 -52v-124q-124 36 -215.5 128t-128.5 216h125q30 0 51.5 21t21.5 51v148q0 30 -21.5 51t-51.5 21
h-125q37 124 128.5 216t215.5 128v-124q0 -30 22 -52t52 -22h146q30 0 51.5 22t21.5 52v124q124 -36 215.5 -128t128.5 -216zM1755 950v148q0 30 -21.5 51t-51.5 21h-163q-42 185 -176.5 319.5t-318.5 176.5v162q0 30 -21.5 52t-51.5 22h-146q-30 0 -52 -22t-22 -52v-162
q-184 -42 -318 -176.5t-176 -319.5h-164q-30 0 -51.5 -21t-21.5 -51v-148q0 -30 21.5 -51t51.5 -21h164q42 -185 176 -319.5t318 -176.5v-162q0 -30 22 -52t52 -22h146q30 0 51.5 22t21.5 52v162q185 42 319 176.5t176 319.5h163q30 0 51.5 21t21.5 51z" />
</svg>
