<?xml version="1.0" standalone="no"?>
<!DOCTYPE svg PUBLIC "-//W3C//DTD SVG 1.1//EN" "http://www.w3.org/Graphics/SVG/1.1/DTD/svg11.dtd" >
<svg xmlns="http://www.w3.org/2000/svg" xmlns:xlink="http://www.w3.org/1999/xlink" version="1.1" viewBox="-10 0 1899 2048">
   <path fill="currentColor"
d="M684 470q140 0 240 100t100 240t-100 240t-240 100t-240 -100t-100 -240t100 -240t240 -100zM684 1322q128 0 280 40q172 40 276 112q128 84 128 188v172h-1368v-172q0 -104 128 -188q104 -72 276 -112q152 -40 280 -40zM1348 498q128 144 128 318t-128 302l-144 -144
q52 -72 52 -164t-52 -168zM1628 214q164 168 222 384t0 430t-222 378l-140 -136q120 -136 160 -300t0 -328t-160 -292z" />
</svg>
