<?xml version="1.0" standalone="no"?>
<!DOCTYPE svg PUBLIC "-//W3C//DTD SVG 1.1//EN" "http://www.w3.org/Graphics/SVG/1.1/DTD/svg11.dtd" >
<svg xmlns="http://www.w3.org/2000/svg" xmlns:xlink="http://www.w3.org/1999/xlink" version="1.1" viewBox="-10 0 1724 2048">
   <path fill="currentColor"
d="M1536 340h-1368q-68 0 -118 50t-50 122v1024q0 72 50 122t118 50h1368q68 0 118 -50t50 -122v-1024q0 -72 -50 -122t-118 -50zM492 1384l-124 124q-96 -100 -148 -226t-52 -258t52 -258t148 -226l120 120q-72 76 -110 170t-38 194t38 194t114 166zM852 1364
q-140 0 -240 -100t-100 -240t100 -240t240 -100t240 100t100 240t-100 240t-240 100zM1336 1508l-120 -120q72 -76 110 -170t38 -194t-38 -194t-114 -166l124 -124q96 100 148 226t52 258t-52 258t-148 226zM852 852q-72 0 -122 50t-50 122t50 122t122 50t122 -50t50 -122
t-50 -122t-122 -50z" />
</svg>
