<?xml version="1.0" standalone="no"?>
<!DOCTYPE svg PUBLIC "-//W3C//DTD SVG 1.1//EN" "http://www.w3.org/Graphics/SVG/1.1/DTD/svg11.dtd" >
<svg xmlns="http://www.w3.org/2000/svg" xmlns:xlink="http://www.w3.org/1999/xlink" version="1.1" viewBox="-10 0 1724 2048">
   <path fill="currentColor"
d="M680 1280l444 -256l-444 -256v512zM1668 612q16 60 24 160t8 180l4 72q0 276 -36 412q-32 116 -148 148q-60 16 -224 24q-160 8 -308 8l-136 4q-532 0 -668 -36q-116 -32 -148 -148q-16 -60 -24 -160t-8 -180l-4 -72q0 -276 36 -412q32 -116 148 -148q60 -16 224 -24
q160 -8 308 -8l136 -4q532 0 668 36q116 32 148 148z" />
</svg>
