<?xml version="1.0" standalone="no"?>
<!DOCTYPE svg PUBLIC "-//W3C//DTD SVG 1.1//EN" "http://www.w3.org/Graphics/SVG/1.1/DTD/svg11.dtd" >
<svg xmlns="http://www.w3.org/2000/svg" xmlns:xlink="http://www.w3.org/1999/xlink" version="1.1" viewBox="-10 0 1556 2048">
   <path fill="currentColor"
d="M0 1364h428v-168h-428v168zM556 1364h424v-168h-424v168zM1108 1364h428v-168h-428v168zM0 1708h172v-172h-172v172zM340 1708h172v-172h-172v172zM684 1708h168v-172h-168v172zM1024 1708h172v-172h-172v172zM1364 1708h172v-172h-172v172zM0 1024h684v-172h-684v172z
M852 1024h684v-172h-684v172zM0 340v344h1536v-344h-1536z" />
</svg>
