<?xml version="1.0" standalone="no"?>
<!DOCTYPE svg PUBLIC "-//W3C//DTD SVG 1.1//EN" "http://www.w3.org/Graphics/SVG/1.1/DTD/svg11.dtd" >
<svg xmlns="http://www.w3.org/2000/svg" xmlns:xlink="http://www.w3.org/1999/xlink" version="1.1" viewBox="-10 0 1644 2048">
   <path fill="currentColor"
d="M684 234q184 0 342 46t250 124t92 172t-92 172t-250 124t-342 46t-342 -46t-250 -124t-92 -172t92 -172t250 -124t342 -46zM0 746q0 92 92 170t250 124t342 46q144 0 268 -24q-128 112 -168 276l-100 4q-184 0 -342 -46t-250 -124t-92 -170v-256zM1368 746v172h-96
q96 -80 96 -172zM0 1174q0 92 92 170t250 124t342 46l84 -4q12 132 84 248l-168 12q-184 0 -342 -46t-250 -124t-92 -170v-256zM1280 1130q144 0 244 100l100 -100v340h-344l152 -148q-60 -64 -150 -64t-152 62t-62 150t62 152t150 64q52 0 96 -24t76 -64h144
q-36 96 -122 156t-194 60q-140 0 -240 -100t-100 -242t100 -242t240 -100z" />
</svg>
