<?xml version="1.0" standalone="no"?>
<!DOCTYPE svg PUBLIC "-//W3C//DTD SVG 1.1//EN" "http://www.w3.org/Graphics/SVG/1.1/DTD/svg11.dtd" >
<svg xmlns="http://www.w3.org/2000/svg" xmlns:xlink="http://www.w3.org/1999/xlink" version="1.1" viewBox="-10 0 1792 2048">
   <path fill="currentColor"
d="M0 380l108 -108l1496 1496l-108 108l-172 -168h-1088q-68 0 -118 -50t-50 -122v-1024q0 -24 8 -52zM492 340l172 -168h512l172 168h256q68 0 118 50t50 122v1024q0 76 -56 128l-428 -428q60 -96 60 -212t-58 -214t-156 -156t-214 -58t-212 60l-316 -316h100zM492 1024
q0 116 58 214t156 156t214 58q68 0 128 -20l-152 -152q-92 -8 -158 -74t-74 -158l-152 -152q-20 60 -20 128zM920 768q108 0 182 74t74 182q0 44 -16 84l-324 -324q40 -16 84 -16z" />
</svg>
