<?xml version="1.0" standalone="no"?>
<!DOCTYPE svg PUBLIC "-//W3C//DTD SVG 1.1//EN" "http://www.w3.org/Graphics/SVG/1.1/DTD/svg11.dtd" >
<svg xmlns="http://www.w3.org/2000/svg" xmlns:xlink="http://www.w3.org/1999/xlink" version="1.1" viewBox="-10 0 1724 2048">
   <path fill="currentColor"
d="M768 1280h168v172h-168v-172zM768 596h168v512h-168v-512zM852 172q-232 0 -428 114t-310 310t-114 428q0 168 64 326t184 278t278 184t326 64t326 -64t278 -184t184 -278t64 -326t-64 -326t-184 -278t-278 -184t-326 -64zM852 1708q-184 0 -342 -92t-250 -250t-92 -342
t92 -342t250 -250t342 -92t342 92t250 250t92 342t-92 342t-250 250t-342 92z" />
</svg>
