<?xml version="1.0" standalone="no"?>
<!DOCTYPE svg PUBLIC "-//W3C//DTD SVG 1.1//EN" "http://www.w3.org/Graphics/SVG/1.1/DTD/svg11.dtd" >
<svg xmlns="http://www.w3.org/2000/svg" xmlns:xlink="http://www.w3.org/1999/xlink" version="1.1" viewBox="-10 0 1556 2048">
   <path fill="currentColor"
d="M1536 1408q0 52 -44 76l-676 376q-20 16 -48 16t-48 -16l-676 -376q-44 -24 -44 -76v-768q0 -52 44 -76l676 -376q20 -16 48 -16t48 16l676 376q44 24 44 76v768zM768 356l-596 336v664l596 336l596 -336v-664zM1020 704q88 0 152 66t64 154v228q0 88 -64 152t-154 64
t-154 -64t-64 -152v-228q0 -88 64 -154t156 -66zM1016 828q-36 0 -62 26t-26 66v236q0 36 26 62t64 26t64 -26t26 -62v-236q0 -40 -26 -66t-66 -26zM720 1260v100h-436v-88l76 -76q84 -92 140 -160q76 -96 76 -136q0 -64 -44 -84q-20 -12 -44 -8l-20 4q-28 8 -44 28
q-24 28 -28 72l-128 8l4 -36q8 -40 24 -72q28 -48 72 -72q52 -36 128 -36q132 0 180 80q28 44 28 110t-68 162q-52 64 -128 140l-68 64h280z" />
</svg>
