<?xml version="1.0" standalone="no"?>
<!DOCTYPE svg PUBLIC "-//W3C//DTD SVG 1.1//EN" "http://www.w3.org/Graphics/SVG/1.1/DTD/svg11.dtd" >
<svg xmlns="http://www.w3.org/2000/svg" xmlns:xlink="http://www.w3.org/1999/xlink" version="1.1" viewBox="-10 0 700 2048">
   <path fill="currentColor"
d="M424 1620q0 36 26 62t62 26h168v168h-212q-40 0 -84 -26t-44 -58q0 32 -44 58t-84 26h-212v-168h168q36 0 62 -26t26 -62v-1192q0 -36 -26 -62t-62 -26h-168v-168h212q40 0 84 26t44 58q0 -32 44 -58t84 -26h212v168h-168q-36 0 -62 26t-26 62v1192z" />
</svg>
