<?xml version="1.0" standalone="no"?>
<!DOCTYPE svg PUBLIC "-//W3C//DTD SVG 1.1//EN" "http://www.w3.org/Graphics/SVG/1.1/DTD/svg11.dtd" >
<svg xmlns="http://www.w3.org/2000/svg" xmlns:xlink="http://www.w3.org/1999/xlink" version="1.1" viewBox="-10 0 1724 2048">
   <path fill="currentColor"
d="M688 929q8 -40 24 -76q40 -72 128 -72q60 0 100 44t40 96h152q0 -60 -22 -110t-62 -86q-60 -56 -148 -70t-172 12t-136 90q-84 108 -84 268t84 268q48 60 132 88t172 14t148 -70q36 -32 62 -82t26 -94h-152q0 20 -12 44t-32 44q-40 32 -92 32t-84 -20t-48 -52
q-44 -88 -24 -268zM852 173q-232 0 -428 114t-310 310t-114 428q12 324 188 544q164 200 420 272q244 68 492 0q256 -72 416 -272q176 -220 188 -544q0 -232 -114 -428t-310 -310t-428 -114zM852 1709q-184 0 -342 -92t-250 -250t-92 -342q12 -260 156 -436
q128 -156 328 -214t400 0t328 214q144 176 156 436q0 184 -92 342t-250 250t-342 92z" />
</svg>
