<?xml version="1.0" standalone="no"?>
<!DOCTYPE svg PUBLIC "-//W3C//DTD SVG 1.1//EN" "http://www.w3.org/Graphics/SVG/1.1/DTD/svg11.dtd" >
<svg xmlns="http://www.w3.org/2000/svg" xmlns:xlink="http://www.w3.org/1999/xlink" version="1.1" viewBox="-10 0 1388 2048">
   <path fill="currentColor"
d="M276 956q112 0 192 80t80 194t-80 192t-194 78t-194 -78t-80 -192t80 -194t196 -80zM924 1364q68 0 118 50t50 122t-50 122t-120 50t-120 -50t-50 -122t50 -122t122 -50zM956 340q112 0 206 56t150 150t56 206t-56 206t-150 148t-206 54t-206 -54t-148 -148t-54 -206
t54 -206t148 -150t206 -56z" />
</svg>
