<?xml version="1.0" standalone="no"?>
<!DOCTYPE svg PUBLIC "-//W3C//DTD SVG 1.1//EN" "http://www.w3.org/Graphics/SVG/1.1/DTD/svg11.dtd" >
<svg xmlns="http://www.w3.org/2000/svg" xmlns:xlink="http://www.w3.org/1999/xlink" version="1.1" viewBox="-10 0 1775 2048">
   <path fill="currentColor"
d="M1499 1024q0 -185 -99 -338l-862 862q155 100 340 100q126 0 241 -49.5t198.5 -133t132.5 -199t49 -242.5zM358 1366l863 -862q-154 -104 -343 -104q-126 0 -241.5 49.5t-198.5 133t-132.5 199t-49.5 242.5q0 185 102 342zM1755 1024q0 119 -31.5 233.5t-88 211
t-137.5 178t-177 138t-210 88t-233 31.5t-233 -31.5t-210.5 -88t-177.5 -138t-137.5 -178t-88 -211t-31.5 -233.5q0 -120 31.5 -234t88 -210.5t137.5 -178t177.5 -138t210.5 -88t233 -31.5t233 31.5t210 88t177 138t137.5 178t88 210.5t31.5 234z" />
</svg>
