<?xml version="1.0" standalone="no"?>
<!DOCTYPE svg PUBLIC "-//W3C//DTD SVG 1.1//EN" "http://www.w3.org/Graphics/SVG/1.1/DTD/svg11.dtd" >
<svg xmlns="http://www.w3.org/2000/svg" xmlns:xlink="http://www.w3.org/1999/xlink" version="1.1" viewBox="-10 0 1201 2048">
   <path fill="currentColor"
d="M1125 512q64 136 54 290t-82 290q-56 96 -192 268q-68 88 -104 132q-80 112 -116 196q-8 16 -24 56l-28 84q-8 24 -16 36t-28 12t-36 -20q-4 -12 -12 -40q-40 -120 -76 -180q-40 -76 -124 -192zM345 720l-284 332q32 68 84 144q32 44 104 132l16 24q32 36 52 64l356 -420
h-4q-92 32 -182 -10t-130 -134q-8 -20 -12 -48q-8 -48 0 -84zM125 396q-100 128 -120 298t40 326l340 -404zM777 200l-272 328l4 -4q84 -28 170 4t130 112q20 40 24 76q8 48 0 88l276 -324q-56 -100 -140 -170t-188 -106zM409 588l332 -396q-76 -20 -152 -20q-124 0 -240 50
t-200 146z" />
</svg>
