<?xml version="1.0" standalone="no"?>
<!DOCTYPE svg PUBLIC "-//W3C//DTD SVG 1.1//EN" "http://www.w3.org/Graphics/SVG/1.1/DTD/svg11.dtd" >
<svg xmlns="http://www.w3.org/2000/svg" xmlns:xlink="http://www.w3.org/1999/xlink" version="1.1" viewBox="-10 0 1836 2048">
   <path fill="currentColor"
d="M1816 840l-244 -244h-40v324l-196 -196l-60 60l236 240l-236 240l60 60l196 -196v324h40l244 -244l-184 -184zM1616 760l80 80l-80 80v-160zM1696 1208l-80 80v-160zM108 256l-108 108l768 768v24q-84 -48 -172 -48q-140 0 -240 100t-100 242t100 242t240 100t240 -100
t100 -240v-148l492 488l108 -108zM936 596h344v-340h-512v444l168 168v-272z" />
</svg>
