<?xml version="1.0" standalone="no"?>
<!DOCTYPE svg PUBLIC "-//W3C//DTD SVG 1.1//EN" "http://www.w3.org/Graphics/SVG/1.1/DTD/svg11.dtd" >
<svg xmlns="http://www.w3.org/2000/svg" xmlns:xlink="http://www.w3.org/1999/xlink" version="1.1" viewBox="-10 0 1724 2048">
   <path fill="currentColor"
d="M852 298l-852 768h256v684h1192v-684h256zM852 698q136 0 230 96t94 228q0 160 -160 376q-84 104 -164 180l-52 -52q-60 -64 -112 -128q-68 -96 -108 -180q-52 -108 -52 -196q0 -132 94 -228t230 -96zM852 894q-52 0 -90 38t-38 92t38 90t90 36t90 -36t38 -90t-38 -92
t-90 -38z" />
</svg>
