<?xml version="1.0" standalone="no"?>
<!DOCTYPE svg PUBLIC "-//W3C//DTD SVG 1.1//EN" "http://www.w3.org/Graphics/SVG/1.1/DTD/svg11.dtd" >
<svg xmlns="http://www.w3.org/2000/svg" xmlns:xlink="http://www.w3.org/1999/xlink" version="1.1" viewBox="-10 0 1556 2048">
   <path fill="currentColor"
d="M1364 1620h172v172h-172v-172zM1364 1452h172v-172h-172v172zM0 1108h172v-168h-172v168zM0 1452h172v-172h-172v172zM0 768h172v-172h-172v172zM0 428h172v-172h-172v172zM340 428h172v-172h-172v172zM1024 1792h172v-172h-172v172zM684 1792h168v-172h-168v172z
M1024 1792h172v-172h-172v172zM340 1792h172v-172h-172v172zM0 1792h172v-172h-172v172zM1536 684q0 -116 -58 -214t-156 -156t-214 -58h-424v172h424q108 0 182 74t74 182v424h172v-424z" />
</svg>
