<?xml version="1.0" standalone="no"?>
<!DOCTYPE svg PUBLIC "-//W3C//DTD SVG 1.1//EN" "http://www.w3.org/Graphics/SVG/1.1/DTD/svg11.dtd" >
<svg xmlns="http://www.w3.org/2000/svg" xmlns:xlink="http://www.w3.org/1999/xlink" version="1.1" viewBox="-10 0 1702 2048">
   <path fill="currentColor"
d="M1682 982v146q0 60 -36.5 103t-96.5 43h-805l335 336q43 41 43 102.5t-43 103.5l-86 86q-42 42 -103 42q-60 0 -104 -42l-744 -744q-42 -42 -42 -104q0 -60 42 -104l744 -742q44 -44 104 -44q59 0 103 44l86 84q43 42 43 103t-43 105l-335 334h805q60 0 96.5 43.5
t36.5 104.5z" />
</svg>
