<?xml version="1.0" standalone="no"?>
<!DOCTYPE svg PUBLIC "-//W3C//DTD SVG 1.1//EN" "http://www.w3.org/Graphics/SVG/1.1/DTD/svg11.dtd" >
<svg xmlns="http://www.w3.org/2000/svg" xmlns:xlink="http://www.w3.org/1999/xlink" version="1.1" viewBox="-10 0 1724 2048">
   <path fill="currentColor"
d="M0 1322l4 -4q140 -60 212 -88q116 -44 208 -64v-696q0 -108 76 -182t180 -74q84 0 150 46t94 122h-244q-36 0 -60 26t-24 62v84h428v-84q0 -108 74 -182t182 -74q80 0 146 46t94 122h-240q-36 0 -62 26t-26 62v848q76 -12 232 -84q92 -40 140 -56q80 -28 140 -28v172
q-60 0 -140 28q-48 16 -142 58t-142 58q-80 28 -144 28t-140 -28q-48 -16 -144 -58t-144 -58q-76 -28 -140 -28q-128 0 -284 52q-96 32 -284 120v-172zM1024 726h-428v168h428v-168zM1024 1066h-428v84q56 8 128 32q40 16 128 52q112 52 172 72v-240zM0 1662
q188 -84 284 -116q156 -52 284 -52q64 0 140 24q48 16 144 60t144 60q76 24 140 24t144 -24q48 -16 142 -60t142 -60q80 -24 140 -24v168q-60 0 -140 28q-48 16 -142 58t-142 58q-80 28 -144 28t-140 -28q-48 -16 -144 -58t-144 -58q-76 -28 -140 -28q-128 0 -284 56
q-96 32 -284 116v-172z" />
</svg>
