<?xml version="1.0" standalone="no"?>
<!DOCTYPE svg PUBLIC "-//W3C//DTD SVG 1.1//EN" "http://www.w3.org/Graphics/SVG/1.1/DTD/svg11.dtd" >
<svg xmlns="http://www.w3.org/2000/svg" xmlns:xlink="http://www.w3.org/1999/xlink" version="1.1" viewBox="-10 0 1724 2048">
   <path fill="currentColor"
d="M640 340q-176 0 -322 70t-232 188t-86 254q0 120 62 224t174 176l-68 200l216 -128q120 40 248 40q-36 -84 -36 -168q0 -140 80 -258t218 -186t298 -68h48q-64 -152 -230 -248t-370 -96zM384 556q36 0 60 24t24 60t-24 60t-60 24t-62 -24t-26 -60t26 -60t62 -24zM808 556
q36 0 62 24t26 60t-26 60t-62 24t-60 -24t-24 -60t24 -60t60 -24zM1192 768q-136 0 -254 58t-188 156t-70 214t70 214t188 154t254 56q88 0 164 -20l180 108l-56 -160q104 -60 164 -154t60 -204t-68 -208t-186 -156t-258 -58zM1024 980q36 0 60 26t24 62t-24 60t-60 24
t-62 -24t-26 -60t26 -62t62 -26zM1364 980q36 0 60 26t24 62t-24 60t-60 24t-60 -24t-24 -60t24 -62t60 -26z" />
</svg>
