<?xml version="1.0" standalone="no"?>
<!DOCTYPE svg PUBLIC "-//W3C//DTD SVG 1.1//EN" "http://www.w3.org/Graphics/SVG/1.1/DTD/svg11.dtd" >
<svg xmlns="http://www.w3.org/2000/svg" xmlns:xlink="http://www.w3.org/1999/xlink" version="1.1" viewBox="-10 0 1556 2048">
   <path fill="currentColor"
d="M1024 598v-344h-852v344h852zM768 1450q108 0 182 -74t74 -182t-74 -182t-182 -74t-182 74t-74 182t74 182t182 74zM1196 86l340 340v1024q0 72 -50 122t-122 50h-1192q-72 0 -122 -50t-50 -122v-1196q0 -68 50 -118t122 -50h1024zM684 1790h168v172h-168v-172zM340 1790
h172v172h-172v-172zM1024 1790h172v172h-172v-172z" />
</svg>
