<?xml version="1.0" standalone="no"?>
<!DOCTYPE svg PUBLIC "-//W3C//DTD SVG 1.1//EN" "http://www.w3.org/Graphics/SVG/1.1/DTD/svg11.dtd" >
<svg xmlns="http://www.w3.org/2000/svg" xmlns:xlink="http://www.w3.org/1999/xlink" version="1.1" viewBox="-10 0 1724 2048">
   <path fill="currentColor"
d="M768 1536h168v-172h-168v172zM852 172q-168 0 -326 64t-278 184t-184 278t-64 326t64 326t184 278t278 184t326 64t326 -64t278 -184t184 -278t64 -326t-64 -326t-184 -278t-278 -184t-326 -64zM852 1708q-184 0 -342 -92t-250 -250t-92 -342t92 -342t250 -250t342 -92
t342 92t250 250t92 342t-92 342t-250 250t-342 92zM852 512q-140 0 -240 100t-100 240h168q0 -68 50 -118t122 -50t122 50t50 118q0 52 -32 92q-20 24 -76 64q-72 56 -100 100q-48 68 -48 172h168q0 -64 40 -116q24 -32 88 -88t88 -92q40 -56 40 -132q0 -140 -100 -240
t-240 -100z" />
</svg>
