<?xml version="1.0" standalone="no"?>
<!DOCTYPE svg PUBLIC "-//W3C//DTD SVG 1.1//EN" "http://www.w3.org/Graphics/SVG/1.1/DTD/svg11.dtd" >
<svg xmlns="http://www.w3.org/2000/svg" xmlns:xlink="http://www.w3.org/1999/xlink" version="1.1" viewBox="-10 0 1695 2048">
   <path fill="currentColor"
d="M708 1632q-60 88 -154 132t-198 36t-190 -68t-130 -156t-34 -200t70 -192q56 -76 136 -120t168 -48l4 124q-56 4 -110 34t-90 82q-64 92 -46 200t106 170t196 40t172 -114q36 -52 44 -120v-88l480 -4l4 -8q36 -60 100 -78t120 16t74 98t-16 124t-98 78t-120 -14t-72 -88
h-348q-16 88 -68 164zM1328 1024q108 12 192 76t124 158t28 198t-76 186t-160 124t-200 30q-96 -12 -172 -62t-124 -126l108 -64q32 52 84 84t112 40q112 12 200 -54t102 -172t-56 -192t-182 -98q-68 -8 -128 16l-72 36l-220 -408h-20q-68 0 -114 -50t-44 -116t52 -112
t116 -42t114 52t44 116q-4 56 -40 96l164 300q80 -28 168 -16zM520 792q-40 -100 -28 -202t72 -186t158 -126t200 -28t186 78t128 160q36 88 30 180t-50 168l-104 -60q28 -52 30 -114t-22 -118q-44 -104 -146 -146t-200 0t-138 144t4 202q36 84 112 132l32 16l-260 428l8 16
q32 56 12 120t-78 96t-122 12t-96 -80t-12 -124t76 -96q52 -28 108 -16l196 -320q-64 -60 -96 -136z" />
</svg>
