<?xml version="1.0" standalone="no"?>
<!DOCTYPE svg PUBLIC "-//W3C//DTD SVG 1.1//EN" "http://www.w3.org/Graphics/SVG/1.1/DTD/svg11.dtd" >
<svg xmlns="http://www.w3.org/2000/svg" xmlns:xlink="http://www.w3.org/1999/xlink" version="1.1" viewBox="-10 0 1472 2048">
   <path fill="currentColor"
d="M256 256q108 0 182 74t74 182q0 80 -46 146t-118 94q28 280 252 416q148 88 356 108q28 -72 94 -120t146 -48q108 0 182 76t74 182t-74 180t-182 74q-84 0 -150 -48t-94 -120q-168 -8 -292 -56q-104 -36 -184 -108q-56 -48 -132 -144v152q76 24 122 90t46 150
q0 108 -74 182t-180 74t-182 -74t-76 -182q0 -84 48 -150t124 -90v-544q-76 -24 -124 -90t-48 -150q0 -108 76 -182t180 -74zM256 428q-36 0 -60 24t-24 60t24 60t60 24t62 -24t26 -60t-26 -60t-62 -24zM256 1452q-36 0 -60 24t-24 60t24 60t60 24t62 -24t26 -60t-26 -60
t-62 -24zM1196 1280q-36 0 -60 24t-24 60t24 62t60 26t60 -26t24 -62t-24 -60t-60 -24z" />
</svg>
