<?xml version="1.0" standalone="no"?>
<!DOCTYPE svg PUBLIC "-//W3C//DTD SVG 1.1//EN" "http://www.w3.org/Graphics/SVG/1.1/DTD/svg11.dtd" >
<svg xmlns="http://www.w3.org/2000/svg" xmlns:xlink="http://www.w3.org/1999/xlink" version="1.1" viewBox="-10 0 1597 2048">
   <path fill="currentColor"
d="M0 251l1440 1348l4 12q8 16 6 32t-18 32q-24 24 -56 20q-16 -4 -28 -12zM428 387l1116 1028l8 12q4 12 2 28t-18 34t-34 20t-34 -6l-12 -8zM128 679l1116 1024l4 12q8 16 6 32t-18 32t-34 18t-34 -2l-12 -8zM788 503l780 720l8 16q4 20 -12 36t-40 12l-16 -8zM224 1011
l780 720l8 16q4 20 -12 36t-36 12q-12 -4 -20 -8v0zM1156 671l356 324l4 8q0 12 -8 22t-24 -2zM404 1367l356 328l4 8q4 8 -6 18t-26 -2z" />
</svg>
