<?xml version="1.0" standalone="no"?>
<!DOCTYPE svg PUBLIC "-//W3C//DTD SVG 1.1//EN" "http://www.w3.org/Graphics/SVG/1.1/DTD/svg11.dtd" >
<svg xmlns="http://www.w3.org/2000/svg" xmlns:xlink="http://www.w3.org/1999/xlink" version="1.1" viewBox="-10 0 1556 2048">
   <path fill="currentColor"
d="M0 256h1280v1280h-1280v-1280zM1364 1620h172v172h-172v-172zM1364 1364h172v172h-172v-172zM1364 1108h172v172h-172v-172zM1364 852h172v172h-172v-172zM1364 596h172v172h-172v-172zM1108 1620h172v172h-172v-172zM852 1620h172v172h-172v-172zM596 1620h172v172h-172
v-172zM340 1620h172v172h-172v-172z" />
</svg>
