<?xml version="1.0" standalone="no"?>
<!DOCTYPE svg PUBLIC "-//W3C//DTD SVG 1.1//EN" "http://www.w3.org/Graphics/SVG/1.1/DTD/svg11.dtd" >
<svg xmlns="http://www.w3.org/2000/svg" xmlns:xlink="http://www.w3.org/1999/xlink" version="1.1" viewBox="-10 0 1724 2048">
   <path fill="currentColor"
d="M1024 256q-188 0 -344 92t-248 248t-92 342t92 342t248 248t342 92t342 -92t248 -248t92 -344h-168q0 140 -70 258t-186 186t-256 68t-258 -68t-186 -186t-68 -256t68 -256t186 -188t258 -70q52 0 108 12l136 -136q-116 -44 -244 -44zM1584 388l-560 564l-204 -204
l-120 120l324 324l680 -680zM248 580q-116 96 -182 236t-66 292q0 184 92 342t248 250t340 92q80 0 160 -20q-224 -52 -400 -212q-124 -68 -198 -190t-74 -262q0 -32 8 -76q-8 -56 -8 -96q0 -184 80 -356z" />
</svg>
