<?xml version="1.0" standalone="no"?>
<!DOCTYPE svg PUBLIC "-//W3C//DTD SVG 1.1//EN" "http://www.w3.org/Graphics/SVG/1.1/DTD/svg11.dtd" >
<svg xmlns="http://www.w3.org/2000/svg" xmlns:xlink="http://www.w3.org/1999/xlink" version="1.1" viewBox="-10 0 1724 2048">
   <path fill="currentColor"
d="M340 172q140 0 240 100t100 240v172h344v-172q0 -140 100 -240t240 -100t240 100t100 240t-100 240t-240 100h-172v344h172q140 0 240 100t100 240t-100 240t-240 100t-240 -100t-100 -240v-172h-344v172q0 140 -100 240t-240 100t-240 -100t-100 -240t100 -240t240 -100
h172v-344h-172q-140 0 -240 -100t-100 -240t100 -240t240 -100zM1192 1536q0 72 50 122t122 50t122 -50t50 -122t-50 -122t-122 -50h-172v172zM1024 852h-344v344h344v-344zM340 1364q-72 0 -122 50t-50 122t50 122t122 50t122 -50t50 -122v-172h-172zM512 512
q0 -72 -50 -122t-122 -50t-122 50t-50 122t50 122t122 50h172v-172zM1364 684q72 0 122 -50t50 -122t-50 -122t-122 -50t-122 50t-50 122v172h172z" />
</svg>
