<?xml version="1.0" standalone="no"?>
<!DOCTYPE svg PUBLIC "-//W3C//DTD SVG 1.1//EN" "http://www.w3.org/Graphics/SVG/1.1/DTD/svg11.dtd" >
<svg xmlns="http://www.w3.org/2000/svg" xmlns:xlink="http://www.w3.org/1999/xlink" version="1.1" viewBox="-10 0 1724 2048">
   <path fill="currentColor"
d="M852 172q-168 0 -326 64t-278 184t-184 278t-64 326t64 326t184 278t278 184t326 64t326 -64t278 -184t184 -278t64 -326t-64 -326t-184 -278t-278 -184t-326 -64zM852 716q212 136 464 136q96 0 192 -20q28 96 28 192q0 184 -92 342t-250 250t-344 92t-346 -96
t-248 -256l148 -160v-88q0 -44 32 -74t76 -30t74 30t30 74v88h236v-480zM1192 1004q-44 0 -74 30t-30 74t30 76t74 32t76 -32t32 -76t-32 -74t-76 -30z" />
</svg>
