<?xml version="1.0" standalone="no"?>
<!DOCTYPE svg PUBLIC "-//W3C//DTD SVG 1.1//EN" "http://www.w3.org/Graphics/SVG/1.1/DTD/svg11.dtd" >
<svg xmlns="http://www.w3.org/2000/svg" xmlns:xlink="http://www.w3.org/1999/xlink" version="1.1" viewBox="-10 0 1556 2048">
   <path fill="currentColor"
d="M508 534l136 232q-168 16 -278 138t-110 290q0 116 56 214t154 154t214 56q132 0 238 -70t154 -186h-220v-168h684v168h-192q-56 204 -212 344h232v168h-1364v-168h228q-108 -96 -168 -230t-60 -282q0 -232 142 -416t366 -244zM788 174l64 112l72 -44l300 520l-296 168
l-300 -516l76 -44l-64 -112z" />
</svg>
