<?xml version="1.0" standalone="no"?>
<!DOCTYPE svg PUBLIC "-//W3C//DTD SVG 1.1//EN" "http://www.w3.org/Graphics/SVG/1.1/DTD/svg11.dtd" >
<svg xmlns="http://www.w3.org/2000/svg" xmlns:xlink="http://www.w3.org/1999/xlink" version="1.1" viewBox="-11 0 1736 2048">
   <path fill="currentColor"
d="M5 301l108 -108l1556 1556l-108 108l-172 -172q-16 12 -36 24q-64 28 -144 12q-48 -8 -152 -40q-68 -24 -104 -32q-60 -16 -106 -16t-102 16q-36 8 -108 32q-100 36 -152 44q-80 12 -142 -18t-100 -102t-30 -144q4 -56 56 -112q32 -36 108 -92q64 -56 92 -84
q40 -36 112 -136q44 -64 68 -92zM545 193q76 -12 146 60t92 184t-10 200l-340 -340q36 -92 112 -104zM1157 193q76 12 112 100t14 202t-92 186t-146 60t-114 -100t-14 -202t94 -186t146 -60zM89 585q72 -32 160 18t138 150t34 194t-88 124t-158 -18t-136 -150t-36 -194
t86 -124zM1625 585q72 32 86 124t-36 194t-136 150t-158 18t-88 -124t34 -194t138 -150t160 -18z" />
</svg>
