<?xml version="1.0" standalone="no"?>
<!DOCTYPE svg PUBLIC "-//W3C//DTD SVG 1.1//EN" "http://www.w3.org/Graphics/SVG/1.1/DTD/svg11.dtd" >
<svg xmlns="http://www.w3.org/2000/svg" xmlns:xlink="http://www.w3.org/1999/xlink" version="1.1" viewBox="-10 0 1724 2048">
   <path fill="currentColor"
d="M1704 2006l-448 -428l56 172h-1100q-88 0 -150 -62t-62 -150v-1280q0 -88 62 -152t150 -64h1280q88 0 150 64t62 152v1748zM852 538q-100 0 -204 24q-72 20 -136 48l-48 28q52 -52 152 -92l88 -32l-16 -16q-88 0 -188 52q-52 24 -84 52q-68 136 -100 284q-28 104 -36 204
l-4 80q76 96 196 132q60 16 104 12l60 -76q-48 -12 -92 -40q-32 -24 -60 -52l-24 -24l52 28q64 32 136 52q100 28 204 28t204 -28q72 -20 136 -52l52 -28l-24 24q-28 28 -60 52q-44 28 -92 40l60 76l52 -4q60 -8 116 -32q76 -36 132 -108l-4 -80q-8 -100 -36 -204
q-32 -148 -100 -284l-40 -28q-48 -28 -100 -48q-68 -28 -132 -28l-16 16l88 32q100 40 152 92l-48 -28q-64 -28 -136 -48q-104 -24 -204 -24zM676 862q40 0 70 32t30 76t-30 76t-70 32t-70 -32t-30 -76t28 -76t72 -32zM1032 862q40 0 70 32t30 76t-30 76t-70 32t-70 -32
t-30 -76t28 -76t72 -32z" />
</svg>
