<?xml version="1.0" standalone="no"?>
<!DOCTYPE svg PUBLIC "-//W3C//DTD SVG 1.1//EN" "http://www.w3.org/Graphics/SVG/1.1/DTD/svg11.dtd" >
<svg xmlns="http://www.w3.org/2000/svg" xmlns:xlink="http://www.w3.org/1999/xlink" version="1.1" viewBox="-10 0 1960 2048">
   <path fill="currentColor"
d="M1940 1886l-1832 -1832l-108 108l376 376l188 396l-116 212q-20 36 -20 80q0 72 50 122t118 50h636l120 116q-32 24 -52 60t-20 80q0 68 50 118t122 50q88 0 136 -72l244 244zM632 1226q-8 0 -14 -6t-6 -14l4 -12l76 -140h200l172 172h-432zM1328 1054q48 0 88 -24
t60 -64l304 -552q12 -20 12 -40q0 -36 -24 -62t-60 -26h-1148zM596 1482q-68 0 -118 50t-50 120t50 120t120 50t120 -50t50 -120t-50 -120t-122 -50z" />
</svg>
