<?xml version="1.0" standalone="no"?>
<!DOCTYPE svg PUBLIC "-//W3C//DTD SVG 1.1//EN" "http://www.w3.org/Graphics/SVG/1.1/DTD/svg11.dtd" >
<svg xmlns="http://www.w3.org/2000/svg" xmlns:xlink="http://www.w3.org/1999/xlink" version="1.1" viewBox="-10 0 1900 2048">
   <path fill="currentColor"
d="M300 1160q32 16 40 52t-10 66t-50 38t-64 -8q-100 -56 -158 -154t-58 -214t58 -214t156 -156t214 -58q64 -152 202 -246t310 -94q144 0 268 68t200 186t88 258h40q144 0 244 100t100 240t-100 240t-244 100q-36 0 -60 -24t-24 -60t24 -60t60 -24q72 0 122 -50t50 -122
t-50 -122t-122 -50h-168v-84q0 -116 -58 -214t-156 -156t-214 -58q-160 0 -278 102t-142 258q-48 -16 -92 -16q-108 0 -182 74t-74 182q0 68 34 128t94 92zM728 940h256l-172 340h172l-320 596l64 -424h-216zM1408 1592q0 84 -56 142t-136 58t-136 -58t-56 -140t96 -230
q48 -72 96 -128l52 64q56 76 92 144q48 92 48 148z" />
</svg>
