<?xml version="1.0" standalone="no"?>
<!DOCTYPE svg PUBLIC "-//W3C//DTD SVG 1.1//EN" "http://www.w3.org/Graphics/SVG/1.1/DTD/svg11.dtd" >
<svg xmlns="http://www.w3.org/2000/svg" xmlns:xlink="http://www.w3.org/1999/xlink" version="1.1" viewBox="-10 0 1388 2048">
   <path fill="currentColor"
d="M856 172h-684q-72 0 -122 50t-50 118v1368q0 68 50 118t122 50h1024q72 0 122 -50t50 -118v-1024zM684 1536q-128 0 -234 -70t-158 -186h148q40 60 104 94t140 34q124 0 212 -88t88 -212t-88 -210t-212 -86q-84 0 -154 44t-110 116l136 136h-340v-340l108 112
q60 -92 154 -144t208 -52t212 56t156 154t58 214t-58 214t-156 156t-214 58z" />
</svg>
