<?xml version="1.0" standalone="no"?>
<!DOCTYPE svg PUBLIC "-//W3C//DTD SVG 1.1//EN" "http://www.w3.org/Graphics/SVG/1.1/DTD/svg11.dtd" >
<svg xmlns="http://www.w3.org/2000/svg" xmlns:xlink="http://www.w3.org/1999/xlink" version="1.1" viewBox="-10 0 1900 2048">
   <path fill="currentColor"
d="M1496 1633q0 84 -56 142t-136 58t-136 -58t-56 -140t96 -230q48 -72 96 -128l48 64q56 76 92 144q52 92 52 148zM256 1521q-8 -32 10 -64t54 -40l192 -52l-140 -140q-28 -28 -28 -64t26 -62t64 -26t62 28l140 140l52 -192q8 -36 40 -54t66 -10t52 40t10 68l-52 192
l192 -48q36 -12 68 6t42 54t-8 66t-54 38l-192 52l140 140q24 28 24 64t-26 62t-62 26t-60 -24l-140 -144l-52 192q-12 36 -42 54t-66 10t-54 -40t-10 -68l52 -192l-192 52q-36 8 -66 -10t-42 -54zM0 981q0 -116 58 -214t156 -156t214 -58q64 -152 202 -246t310 -94
q144 0 268 68t200 186t88 258h40q144 0 244 100t100 240t-100 240t-244 100q-36 0 -60 -24t-24 -60t24 -60t60 -24q72 0 122 -50t50 -122t-50 -122t-122 -50h-168v-84q0 -116 -58 -214t-156 -156t-214 -58q-160 0 -278 102t-142 258q-48 -16 -92 -16q-108 0 -182 74t-74 182
t76 184q24 24 24 58t-24 58t-60 24t-60 -24q-60 -60 -94 -138t-34 -162z" />
</svg>
