<?xml version="1.0" standalone="no"?>
<!DOCTYPE svg PUBLIC "-//W3C//DTD SVG 1.1//EN" "http://www.w3.org/Graphics/SVG/1.1/DTD/svg11.dtd" >
<svg xmlns="http://www.w3.org/2000/svg" xmlns:xlink="http://www.w3.org/1999/xlink" version="1.1" viewBox="-10 0 1734 2048">
   <path fill="currentColor"
d="M1280 676l204 348l-200 348l-56 -92l128 -212q24 -44 0 -84l-128 -216zM1280 560q-4 0 -8 4l-108 192q-8 8 0 20l140 240q4 8 0 20l-140 236q-4 8 0 20l108 188q4 8 8 8t8 -4l256 -440q8 -20 0 -36l-256 -444q0 -4 -8 -4zM1704 996l-396 -692q-20 -28 -52 -28h-800
q-32 0 -48 28l-400 692q-16 28 0 56l400 692q16 28 48 28h800q32 0 52 -28l396 -692q20 -28 0 -56zM460 336h752l-372 660h-412l336 -584q4 -4 0 -10t-8 -6h-220q-8 0 -16 12l-340 588h-100zM364 1064l304 524h-108l-324 -564l324 -564h108l-312 536q-8 28 4 56zM460 1712
l-380 -660h100l340 588q8 12 16 12h220q4 0 8 -6t0 -10l-336 -584h412l376 660h-756zM1268 1684l-376 -660l376 -664l384 664z" />
</svg>
