<?xml version="1.0" standalone="no"?>
<!DOCTYPE svg PUBLIC "-//W3C//DTD SVG 1.1//EN" "http://www.w3.org/Graphics/SVG/1.1/DTD/svg11.dtd" >
<svg xmlns="http://www.w3.org/2000/svg" xmlns:xlink="http://www.w3.org/1999/xlink" version="1.1" viewBox="-10 0 1388 2048">
   <path fill="currentColor"
d="M0 172h172v168q0 92 40 168t122 158t274 206l-156 100q-148 -100 -236 -188q-216 -204 -216 -444v-168zM1196 172h172v168q0 240 -216 444q-80 80 -200 164q-72 52 -220 148t-220 144q-112 76 -180 144q-80 80 -120 156t-40 168v168h-172v-168q0 -240 216 -444
q80 -80 200 -164q72 -52 220 -148t220 -144q112 -76 180 -144q80 -80 120 -156t40 -168v-168zM916 1076q148 100 236 188q216 204 216 444v168h-172v-168q0 -92 -40 -168t-122 -158t-274 -206zM256 256h856v84l-8 44h-840l-8 -44v-84zM316 512h736q-36 52 -76 92l-44 36
h-500l-40 -36q-40 -40 -76 -92zM436 1408h500l40 36q40 40 76 92h-736q36 -52 76 -92zM264 1664h840l8 44v84h-856v-84z" />
</svg>
