<?xml version="1.0" standalone="no"?>
<!DOCTYPE svg PUBLIC "-//W3C//DTD SVG 1.1//EN" "http://www.w3.org/Graphics/SVG/1.1/DTD/svg11.dtd" >
<svg xmlns="http://www.w3.org/2000/svg" xmlns:xlink="http://www.w3.org/1999/xlink" version="1.1" viewBox="-10 0 1556 2048">
   <path fill="currentColor"
d="M256 170v172h-84q-72 0 -122 50t-50 122v1192q0 72 50 122t122 50h1192q72 0 122 -50t50 -122v-1192q0 -72 -50 -122t-122 -50h-84v-172h-172v172h-680v-172h-172zM172 770h1192v936h-1192v-936zM784 854q-112 0 -180 52t-64 148v4h164q0 -40 24 -60t60 -20t60 24t24 66
t-20 70t-52 48q-68 44 -92 78t-24 102h168q0 -40 12 -64t44 -44q60 -32 96 -82t36 -110q0 -96 -68 -154t-188 -58zM684 1450v172h168v-172h-168z" />
</svg>
