<?xml version="1.0" standalone="no"?>
<!DOCTYPE svg PUBLIC "-//W3C//DTD SVG 1.1//EN" "http://www.w3.org/Graphics/SVG/1.1/DTD/svg11.dtd" >
<svg xmlns="http://www.w3.org/2000/svg" xmlns:xlink="http://www.w3.org/1999/xlink" version="1.1" viewBox="-10 0 1724 2048">
   <path fill="currentColor"
d="M1704 768v-172h-168v-168q0 -72 -50 -122t-122 -50h-1196q-68 0 -118 50t-50 122v1192q0 72 50 122t118 50h1196q72 0 122 -50t50 -122v-168h168v-172h-168v-172h168v-168h-168v-172h168zM1364 1620h-1196v-1192h1196v1192zM340 1108h428v344h-428v-344zM852 596h340v256
h-340v-256zM340 596h428v428h-428v-428zM852 940h340v512h-340v-512z" />
</svg>
