<?xml version="1.0" standalone="no"?>
<!DOCTYPE svg PUBLIC "-//W3C//DTD SVG 1.1//EN" "http://www.w3.org/Graphics/SVG/1.1/DTD/svg11.dtd" >
<svg xmlns="http://www.w3.org/2000/svg" xmlns:xlink="http://www.w3.org/1999/xlink" version="1.1" viewBox="-10 0 1724 2048">
   <path fill="currentColor"
d="M852 172q-232 0 -428 114t-310 310t-114 428t114 428t310 310t428 114q168 0 326 -64t278 -184t184 -278t64 -326q0 -232 -114 -428t-310 -310t-428 -114zM852 1708q-184 0 -342 -92t-250 -250t-92 -342t92 -342t250 -250t342 -92t342 92t250 250t92 342t-92 342
t-250 250t-342 92zM936 848l92 92l92 -92l88 92l92 -92l-180 -180zM584 848l92 92l92 -92l-184 -180l-180 180l92 92zM852 1492q148 0 266 -82t170 -214h-872q52 132 170 214t266 82z" />
</svg>
