<?xml version="1.0" standalone="no"?>
<!DOCTYPE svg PUBLIC "-//W3C//DTD SVG 1.1//EN" "http://www.w3.org/Graphics/SVG/1.1/DTD/svg11.dtd" >
<svg xmlns="http://www.w3.org/2000/svg" xmlns:xlink="http://www.w3.org/1999/xlink" version="1.1" viewBox="-10 0 1900 2048">
   <path fill="currentColor"
d="M1196 340q184 0 342 92t250 250t92 342t-92 342t-250 250t-342 92t-342 -92t-250 -250t-92 -342t92 -342t250 -250t342 -92zM1196 1536q140 0 258 -68t186 -186t68 -258t-68 -258t-186 -186t-258 -68t-258 68t-186 186t-68 258t68 258t186 186t258 68zM172 1024
q0 164 96 296t244 188v176q-220 -56 -366 -240t-146 -420t146 -420t366 -240v176q-148 56 -244 188t-96 296z" />
</svg>
