<?xml version="1.0" standalone="no"?>
<!DOCTYPE svg PUBLIC "-//W3C//DTD SVG 1.1//EN" "http://www.w3.org/Graphics/SVG/1.1/DTD/svg11.dtd" >
<svg xmlns="http://www.w3.org/2000/svg" xmlns:xlink="http://www.w3.org/1999/xlink" version="1.1" viewBox="-10 0 940 2048">
   <path fill="currentColor"
d="M772 376q-124 -76 -272 -72q-104 0 -172 46t-68 126t80 132q52 36 204 88q184 60 268 128q108 92 108 232q0 84 -42 156t-110 120q84 80 84 200q0 168 -136 264q-120 80 -300 80q-188 8 -352 -96l56 -128q136 92 300 92q112 0 184 -50t72 -134t-60 -136t-220 -104
q-200 -72 -288 -140q-108 -88 -108 -224q4 -84 50 -156t118 -112q-84 -76 -84 -192q0 -148 120 -236t300 -88q172 0 316 76zM404 1144q140 44 260 112q44 -32 66 -78t22 -98q0 -144 -208 -216q-144 -48 -280 -116q-48 28 -76 78t-28 110t56 112t188 96z" />
</svg>
