<?xml version="1.0" standalone="no"?>
<!DOCTYPE svg PUBLIC "-//W3C//DTD SVG 1.1//EN" "http://www.w3.org/Graphics/SVG/1.1/DTD/svg11.dtd" >
<svg xmlns="http://www.w3.org/2000/svg" xmlns:xlink="http://www.w3.org/1999/xlink" version="1.1" viewBox="-10 0 1724 2048">
   <path fill="currentColor"
d="M1536 172h-1368q-68 0 -118 50t-50 118v1536l340 -340h1196q68 0 118 -50t50 -122v-1024q0 -68 -50 -118t-118 -50zM512 1196h-172v-172h172v172zM512 940h-172v-172h172v172zM512 684h-172v-172h172v172zM1108 1196h-428v-172h428v172zM1364 940h-684v-172h684v172z
M1364 684h-684v-172h684v172z" />
</svg>
