<?xml version="1.0" standalone="no"?>
<!DOCTYPE svg PUBLIC "-//W3C//DTD SVG 1.1//EN" "http://www.w3.org/Graphics/SVG/1.1/DTD/svg11.dtd" >
<svg xmlns="http://www.w3.org/2000/svg" xmlns:xlink="http://www.w3.org/1999/xlink" version="1.1" viewBox="-10 0 1775 2048">
   <path fill="currentColor"
d="M878 146q119 0 233 32t210 88.5t177 137.5t137.5 177t88 210t31.5 233.5t-31.5 233t-88 210t-137.5 177.5t-177 137.5t-210 88t-233 31.5t-233 -31.5t-210.5 -88t-177.5 -137.5t-137.5 -177.5t-88 -210t-31.5 -233t31.5 -233.5t88 -210t137.5 -177t177.5 -137.5
t210.5 -88.5t233 -32zM1024 1572v-218q0 -15 -10.5 -26.5t-24.5 -11.5h-220q-16 0 -27 11.5t-11 26.5v218q0 15 11 26.5t27 11.5h220q14 0 24.5 -11.5t10.5 -26.5zM1022 1178l20 -710q0 -13 -11 -20q-12 -10 -28 -10h-251q-15 0 -27 10q-12 8 -12 20l20 710q0 13 11 20.5
t27 7.5h212q16 0 27 -8t12 -20z" />
</svg>
