<?xml version="1.0" standalone="no"?>
<!DOCTYPE svg PUBLIC "-//W3C//DTD SVG 1.1//EN" "http://www.w3.org/Graphics/SVG/1.1/DTD/svg11.dtd" >
<svg xmlns="http://www.w3.org/2000/svg" xmlns:xlink="http://www.w3.org/1999/xlink" version="1.1" viewBox="-10 0 1826 2048">
   <path fill="currentColor"
d="M556 602l-556 552l556 552l552 -552zM244 1154l312 -312l312 312l-312 312zM1580 622q-108 -112 -250 -170t-294 -58v-276l-360 364l360 360v-276q120 0 228 44t196 132q116 112 156 266t0 308t-156 270q-88 84 -196 130t-230 46t-238 -52l-128 124q172 96 368 96
q152 0 294 -56t250 -168q148 -148 200 -346t0 -396t-200 -342z" />
</svg>
