<?xml version="1.0" standalone="no"?>
<!DOCTYPE svg PUBLIC "-//W3C//DTD SVG 1.1//EN" "http://www.w3.org/Graphics/SVG/1.1/DTD/svg11.dtd" >
<svg xmlns="http://www.w3.org/2000/svg" xmlns:xlink="http://www.w3.org/1999/xlink" version="1.1" viewBox="-10 0 1775 2048">
   <path fill="currentColor"
d="M1061 1586v-64v-535v-219h-366v219v535v64q0 29 20.5 44.5t52.5 15.5h219q32 0 53 -15.5t21 -44.5zM539 622h223l-144 -184q-31 -36 -79 -36q-46 0 -77.5 32t-31.5 78t31.5 78t77.5 32zM1326 512q0 -46 -32 -78t-78 -32q-48 0 -79 36l-143 184h222q46 0 78 -32t32 -78z
M1755 805v365q0 16 -10 26.5t-26 10.5h-110v475q0 46 -32 78t-78 32h-1243q-46 0 -78 -32t-32 -78v-475h-109q-16 0 -26.5 -10.5t-10.5 -26.5v-365q0 -16 10.5 -26.5t26.5 -10.5h502q-107 0 -181.5 -75t-74.5 -181t74.5 -181t181.5 -75q121 0 192 88l147 189l146 -189
q71 -88 192 -88q106 0 181 75t75 181t-75 181t-181 75h503q16 0 26 10.5t10 26.5z" />
</svg>
