<?xml version="1.0" standalone="no"?>
<!DOCTYPE svg PUBLIC "-//W3C//DTD SVG 1.1//EN" "http://www.w3.org/Graphics/SVG/1.1/DTD/svg11.dtd" >
<svg xmlns="http://www.w3.org/2000/svg" xmlns:xlink="http://www.w3.org/1999/xlink" version="1.1" viewBox="-10 0 1544 2048">
   <path fill="currentColor"
d="M1512 1098l-84 84l-176 -176l84 -84q16 -12 34 -12t34 12l108 108q12 16 12 34t-12 34zM684 1574l516 -516l176 176l-516 516h-176v-176zM684 1154q-184 0 -342 46t-250 124t-92 170v172h512v-164l344 -340q-80 -8 -172 -8zM684 298q-140 0 -240 100t-100 242t100 242
t240 100t240 -100t100 -242t-100 -242t-240 -100z" />
</svg>
