<?xml version="1.0" standalone="no"?>
<!DOCTYPE svg PUBLIC "-//W3C//DTD SVG 1.1//EN" "http://www.w3.org/Graphics/SVG/1.1/DTD/svg11.dtd" >
<svg xmlns="http://www.w3.org/2000/svg" xmlns:xlink="http://www.w3.org/1999/xlink" version="1.1" viewBox="-10 0 1388 2048">
   <path fill="currentColor"
d="M88 172h1192q36 0 62 24t26 60v852q0 36 -26 62t-62 26h-1192q-36 0 -62 -26t-26 -62v-852q0 -36 26 -60t62 -24zM172 340v684h1024v-684h-1024zM1368 1452q0 36 -26 60t-62 24h-1192q-36 0 -62 -24t-26 -60v-88h1368v88zM1368 1792q0 36 -26 60t-62 24h-1192
q-36 0 -62 -24t-26 -60v-84h1368v84z" />
</svg>
