<?xml version="1.0" standalone="no"?>
<!DOCTYPE svg PUBLIC "-//W3C//DTD SVG 1.1//EN" "http://www.w3.org/Graphics/SVG/1.1/DTD/svg11.dtd" >
<svg xmlns="http://www.w3.org/2000/svg" xmlns:xlink="http://www.w3.org/1999/xlink" version="1.1" viewBox="-10 0 1724 2048">
   <path fill="currentColor"
d="M1236 414q-96 0 -178 52t-122 136v896q320 -288 436 -428q164 -200 164 -360q0 -128 -86 -212t-214 -84zM1236 242q128 0 236 62t170 170t62 236q0 156 -92 312q-80 136 -252 312q-108 112 -384 360l-124 112l-124 -112q-276 -248 -384 -360q-172 -176 -252 -312
q-92 -156 -92 -312q0 -128 62 -236t170 -170t236 -62q112 0 212 48t172 128q72 -80 172 -128t212 -48z" />
</svg>
