<?xml version="1.0" standalone="no"?>
<!DOCTYPE svg PUBLIC "-//W3C//DTD SVG 1.1//EN" "http://www.w3.org/Graphics/SVG/1.1/DTD/svg11.dtd" >
<svg xmlns="http://www.w3.org/2000/svg" xmlns:xlink="http://www.w3.org/1999/xlink" version="1.1" viewBox="-10 0 1724 2048">
   <path fill="currentColor"
d="M1704 172h-72q-92 8 -188 32q-140 36 -272 100q-168 76 -312 200q-176 140 -320 340q-136 184 -252 388q-92 164 -168 332q-52 120 -92 228l-28 84l164 -84q92 -160 154 -246t154 -182q180 56 324 24q176 -36 312 -192q-116 -36 -244 -36q-84 0 -264 20
q168 -116 300 -150t292 -6l88 -172q-120 -20 -210 -20t-198 24q140 -100 232 -136q116 -44 260 -36l104 -168q-96 -4 -176 4q-68 12 -192 40q104 -92 208 -138t240 -54l52 -84q64 -92 104 -112z" />
</svg>
