<?xml version="1.0" standalone="no"?>
<!DOCTYPE svg PUBLIC "-//W3C//DTD SVG 1.1//EN" "http://www.w3.org/Graphics/SVG/1.1/DTD/svg11.dtd" >
<svg xmlns="http://www.w3.org/2000/svg" xmlns:xlink="http://www.w3.org/1999/xlink" version="1.1" viewBox="-10 0 1727 2048">
   <path fill="currentColor"
d="M1288 1684q-156 88 -354 92t-402 -84q-168 -72 -304 -190t-228 -266q76 64 196 120q212 100 416 98t360 -98q-344 -264 -716 -744q-28 -28 -76 -100l-20 -28q224 164 460 360q84 72 88 66t-68 -102q-148 -216 -272 -408q260 260 560 488q148 112 244 172l32 16
q12 -32 20 -64q52 -180 2 -378t-178 -374q192 116 328 292t188 374t4 378q-4 20 -4 32q56 68 88 144q32 64 44 132q12 56 10 100t-10 64t-16 8q-68 -136 -200 -144q-80 -4 -192 44z" />
</svg>
