<?xml version="1.0" standalone="no"?>
<!DOCTYPE svg PUBLIC "-//W3C//DTD SVG 1.1//EN" "http://www.w3.org/Graphics/SVG/1.1/DTD/svg11.dtd" >
<svg xmlns="http://www.w3.org/2000/svg" xmlns:xlink="http://www.w3.org/1999/xlink" version="1.1" viewBox="-10 0 1128 2048">
   <path fill="currentColor"
d="M1108 512q0 116 -72 208t-184 120v612q0 84 -32 162t-92 138t-138 92t-166 32q-116 0 -214 -56t-154 -154t-56 -214v-428l424 428h-256q0 104 76 180t182 76t180 -76t74 -180v-612q-112 -28 -184 -120t-72 -212q0 -140 100 -238t242 -98t242 100t100 240zM768 684
q68 0 118 -50t50 -122t-50 -122t-120 -50t-120 50t-50 122t50 122t122 50z" />
</svg>
