<?xml version="1.0" standalone="no"?>
<!DOCTYPE svg PUBLIC "-//W3C//DTD SVG 1.1//EN" "http://www.w3.org/Graphics/SVG/1.1/DTD/svg11.dtd" >
<svg xmlns="http://www.w3.org/2000/svg" xmlns:xlink="http://www.w3.org/1999/xlink" version="1.1" viewBox="-10 0 1556 2048">
   <path fill="currentColor"
d="M1536 1408q0 52 -44 76l-676 376q-20 16 -48 16t-48 -16l-676 -376q-44 -24 -44 -76v-768q0 -52 44 -76l676 -376q20 -16 48 -16t48 16l676 376q44 24 44 76v768zM768 596q-116 0 -214 58t-156 156t-58 214t58 214t156 156t214 58t214 -58t156 -156t58 -214t-58 -214
t-156 -156t-214 -58z" />
</svg>
