<?xml version="1.0" standalone="no"?>
<!DOCTYPE svg PUBLIC "-//W3C//DTD SVG 1.1//EN" "http://www.w3.org/Graphics/SVG/1.1/DTD/svg11.dtd" >
<svg xmlns="http://www.w3.org/2000/svg" xmlns:xlink="http://www.w3.org/1999/xlink" version="1.1" viewBox="-10 0 1724 2048">
   <path fill="currentColor"
d="M980 852q0 56 -38 92t-90 36t-90 -36t-38 -90t38 -92t90 -38t90 38t38 90zM1704 340v1024q0 72 -50 122t-118 50h-1196l-340 340v-1536q0 -68 50 -118t118 -50h1368q68 0 118 50t50 118zM1260 964l-92 -68q0 -20 2 -42t-2 -42l92 -72q12 -12 4 -28l-88 -148
q-4 -12 -24 -8l-108 40q-36 -28 -72 -40l-16 -112q0 -16 -20 -16h-168q-20 0 -24 16l-16 112q-36 16 -72 40l-108 -40q-16 -8 -24 8l-84 148q-12 16 4 28l88 72q-4 40 0 84l-88 68q-16 12 -4 28l84 148q8 16 24 12l108 -44q36 28 72 44l16 112q4 16 24 16h168q20 0 24 -16
l16 -116q28 -12 72 -40l104 44q24 0 28 -12l84 -148q8 -16 -4 -28z" />
</svg>
