<?xml version="1.0" standalone="no"?>
<!DOCTYPE svg PUBLIC "-//W3C//DTD SVG 1.1//EN" "http://www.w3.org/Graphics/SVG/1.1/DTD/svg11.dtd" >
<svg xmlns="http://www.w3.org/2000/svg" xmlns:xlink="http://www.w3.org/1999/xlink" version="1.1" viewBox="-10 0 1724 2048">
   <path fill="currentColor"
d="M852 172q168 0 326 64t278 184l-120 120q-100 -96 -224 -148t-260 -52t-262 52t-222 148l-120 -120q120 -120 278 -184t326 -64zM140 556l124 120q-96 164 -96 348t92 342t250 250t342 92t342 -92t250 -250t92 -342t-96 -348l124 -120q140 212 140 468q0 168 -64 326
t-184 278t-278 184t-326 64t-326 -64t-278 -184t-184 -278t-64 -326q0 -256 140 -468zM852 512q140 0 258 68t186 186t68 258q0 100 -40 196t-112 164l-120 -120q-100 100 -240 100t-240 -100l-120 120q-72 -68 -112 -164t-40 -196q0 -140 68 -258t186 -186t258 -68z
M852 684q-36 0 -60 24t-24 60t24 60t60 24t60 -24t24 -60t-24 -60t-60 -24z" />
</svg>
