<?xml version="1.0" standalone="no"?>
<!DOCTYPE svg PUBLIC "-//W3C//DTD SVG 1.1//EN" "http://www.w3.org/Graphics/SVG/1.1/DTD/svg11.dtd" >
<svg xmlns="http://www.w3.org/2000/svg" xmlns:xlink="http://www.w3.org/1999/xlink" version="1.1" viewBox="-10 0 1380 2048">
   <path fill="currentColor"
d="M683 485q136 0 260 52t216 144q132 132 178 308t0 352t-178 304q-108 120 -264 172q-148 48 -304 28l40 -172q112 12 220 -26t192 -118q96 -100 130 -230t0 -264t-130 -234q-72 -68 -168 -106t-192 -38v392l-428 -428l428 -424v288zM195 1645q-164 -164 -190 -394
t90 -430l128 128q-72 140 -46 302t146 278q64 64 156 100l-52 172q-128 -52 -232 -156z" />
</svg>
