<?xml version="1.0" standalone="no"?>
<!DOCTYPE svg PUBLIC "-//W3C//DTD SVG 1.1//EN" "http://www.w3.org/Graphics/SVG/1.1/DTD/svg11.dtd" >
<svg xmlns="http://www.w3.org/2000/svg" xmlns:xlink="http://www.w3.org/1999/xlink" version="1.1" viewBox="-10 0 1512 2048">
   <path fill="currentColor"
d="M1068 1218l424 424l-128 128l-424 -424v-68l-24 -24q-156 132 -360 132q-152 0 -280 -74t-202 -202t-74 -278t74 -278t202 -202t278 -74t278 74t202 202t74 280q0 204 -132 360l24 24h68zM556 406l-48 4q-48 104 -76 208h244q-28 -104 -76 -208q-12 -4 -44 -4zM924 618
q-80 -136 -228 -188q44 96 68 188h160zM184 618h164q24 -92 64 -188q-148 52 -228 188zM128 834q0 64 20 128h184l-12 -128l12 -128h-184q-20 60 -20 128zM960 962q20 -64 20 -130t-20 -126h-180q8 64 8 128t-8 128h180zM416 706l-12 128l12 128h276q12 -64 12 -128
t-12 -128h-276zM556 1258h44q48 -104 76 -212h-244q28 108 76 212h48zM924 1046h-160q-24 96 -68 188q148 -48 228 -188zM184 1046q80 140 228 188q-40 -92 -64 -188h-164z" />
</svg>
