<?xml version="1.0" standalone="no"?>
<!DOCTYPE svg PUBLIC "-//W3C//DTD SVG 1.1//EN" "http://www.w3.org/Graphics/SVG/1.1/DTD/svg11.dtd" >
<svg xmlns="http://www.w3.org/2000/svg" xmlns:xlink="http://www.w3.org/1999/xlink" version="1.1" viewBox="-10 0 1852 2048">
   <path fill="currentColor"
d="M916 864q68 0 114 46t46 112t-48 112t-112 46t-112 -46t-48 -112t46 -112t114 -46zM520 1708q44 24 126 -14t182 -134q-68 -76 -128 -160q-108 -12 -204 -32q-32 136 -24 226t48 114zM580 1216l-24 -44q-20 52 -24 76l76 12zM1140 1152l68 -128l-68 -128l-80 -124
q-44 -4 -144 -4t-144 4l-80 124l-68 128l68 128l80 124q44 4 144 4t144 -4zM916 580q-32 36 -52 60h104q-20 -24 -52 -60zM916 1468q32 -36 52 -60h-104q20 24 52 60zM1312 340q-44 -24 -126 14t-182 134q68 76 128 160q108 12 204 32q32 -136 24 -226t-48 -114zM1252 832
l24 44q20 -52 24 -76l-76 -12zM1376 228q88 52 108 188q20 120 -24 292q172 52 268 128q104 84 104 188t-104 188q-96 76 -268 128q44 172 24 292q-20 136 -110 188t-214 0q-116 -44 -244 -168q-128 124 -244 168q-124 52 -214 0t-110 -188q-20 -120 24 -292
q-172 -52 -268 -128q-104 -84 -104 -188t104 -188q96 -76 268 -128q-44 -172 -24 -292q20 -136 110 -188t214 0q116 44 244 168q128 -124 244 -168q124 -52 216 0zM1348 1024q48 100 76 192q132 -40 206 -92t74 -100t-74 -100t-206 -92q-28 92 -76 192zM484 1024
q-48 -100 -76 -192q-132 40 -206 92t-74 100t74 100t206 92q28 -92 76 -192zM1252 1216l-28 44l76 -12q-4 -24 -24 -76zM1004 1560q100 96 182 134t124 14t50 -114t-24 -226q-96 20 -204 32q-60 84 -128 160zM580 832q4 0 4 -4l24 -40l-76 12q4 24 24 76zM828 488
q-100 -96 -182 -134t-124 -14t-50 114t24 226q96 -20 204 -32q60 -84 128 -160z" />
</svg>
