<?xml version="1.0" standalone="no"?>
<!DOCTYPE svg PUBLIC "-//W3C//DTD SVG 1.1//EN" "http://www.w3.org/Graphics/SVG/1.1/DTD/svg11.dtd" >
<svg xmlns="http://www.w3.org/2000/svg" xmlns:xlink="http://www.w3.org/1999/xlink" version="1.1" viewBox="-10 0 1723 2048">
   <path fill="currentColor"
d="M1095 176l-240 240q-52 48 -52 120t52 120l120 120l-388 392l-240 -244l-124 120q-188 188 -216 376q-24 136 36 256q28 60 64 92l32 28q48 32 100 52q72 28 152 24q100 -4 200 -48q120 -56 240 -176l120 -120l-240 -240l388 -384l120 116q48 52 120 52t120 -52l244 -240
zM1339 896l-120 -116l-244 -244l124 -120l360 360z" />
</svg>
