<?xml version="1.0" standalone="no"?>
<!DOCTYPE svg PUBLIC "-//W3C//DTD SVG 1.1//EN" "http://www.w3.org/Graphics/SVG/1.1/DTD/svg11.dtd" >
<svg xmlns="http://www.w3.org/2000/svg" xmlns:xlink="http://www.w3.org/1999/xlink" version="1.1" viewBox="-10 0 1812 2048">
   <path fill="currentColor"
d="M1540 1628l-120 -120q96 -96 148 -220t52 -264t-52 -264t-148 -220l120 -120q120 120 186 276t66 328t-66 328t-186 276zM1300 1384l-120 -120q100 -100 100 -240t-100 -240l120 -120q72 68 110 162t38 198t-38 198t-110 162zM168 256h684q72 0 122 50t50 122v1192
q0 72 -50 122t-122 50h-684q-68 0 -118 -50t-50 -122v-1192q0 -72 50 -122t118 -50zM512 428q-72 0 -122 50t-50 120t50 120t120 50t120 -50t50 -120t-50 -120t-118 -50zM512 940q-144 0 -244 100t-100 240t100 240t242 100t242 -100t100 -240t-100 -240t-240 -100z
M512 1108q68 0 118 50t50 122t-50 122t-120 50t-120 -50t-50 -122t50 -122t122 -50z" />
</svg>
