<?xml version="1.0" standalone="no"?>
<!DOCTYPE svg PUBLIC "-//W3C//DTD SVG 1.1//EN" "http://www.w3.org/Graphics/SVG/1.1/DTD/svg11.dtd" >
<svg xmlns="http://www.w3.org/2000/svg" xmlns:xlink="http://www.w3.org/1999/xlink" version="1.1" viewBox="-10 0 1724 2048">
   <path fill="currentColor"
d="M768 1664h-768v-512q0 -108 74 -182t182 -74h256v-256h-512v-256h512q104 0 180 74t76 182v256q0 108 -76 182t-180 74h-256v256h512v256zM1704 896h-384v256h128v256h-256v-768h512v-256h-512q-104 0 -180 74t-76 182v768q0 108 76 182t180 74h256q108 0 182 -74
t74 -182v-512z" />
</svg>
