<?xml version="1.0" standalone="no"?>
<!DOCTYPE svg PUBLIC "-//W3C//DTD SVG 1.1//EN" "http://www.w3.org/Graphics/SVG/1.1/DTD/svg11.dtd" >
<svg xmlns="http://www.w3.org/2000/svg" xmlns:xlink="http://www.w3.org/1999/xlink" version="1.1" viewBox="-10 0 1724 2048">
   <path fill="currentColor"
d="M168 340q-68 0 -118 50t-50 122v340q68 0 118 50t50 122t-50 122t-118 50v340q0 72 50 122t118 50h1368q68 0 118 -50t50 -122v-340q-68 0 -118 -50t-50 -122t50 -122t118 -50v-340q0 -72 -50 -122t-118 -50h-1368zM1152 596l128 128l-728 728l-128 -128zM580 600
q64 0 108 44t44 108t-44 108t-108 44t-108 -44t-44 -108t44 -108t108 -44zM1124 1144q64 0 108 44t44 108t-44 108t-108 44t-108 -44t-44 -108t44 -108t108 -44z" />
</svg>
