<?xml version="1.0" standalone="no"?>
<!DOCTYPE svg PUBLIC "-//W3C//DTD SVG 1.1//EN" "http://www.w3.org/Graphics/SVG/1.1/DTD/svg11.dtd" >
<svg xmlns="http://www.w3.org/2000/svg" xmlns:xlink="http://www.w3.org/1999/xlink" version="1.1" viewBox="-11 0 1624 2048">
   <path fill="currentColor"
d="M1573 252q35 40 28.5 103.5t-44.5 135.5t-94 127l-184 184l183 796q5 22 -14 37l-146 110q-8 7 -22 7q-5 0 -8 -1q-16 -3 -24 -19l-319 -580l-296 296l61 222q5 20 -9 35l-110 110q-10 10 -26 10h-3q-16 -1 -27 -15l-216 -288l-288 -216q-13 -9 -15 -26q-1 -16 10 -29
l110 -111q10 -10 26 -10q7 0 9 1l222 61l296 -296l-580 -319q-17 -10 -20 -27q-2 -19 10 -31l147 -147q16 -14 34 -9l760 182l183 -183q56 -55 128 -93.5t135.5 -45t102.5 28.5z" />
</svg>
