<?xml version="1.0" standalone="no"?>
<!DOCTYPE svg PUBLIC "-//W3C//DTD SVG 1.1//EN" "http://www.w3.org/Graphics/SVG/1.1/DTD/svg11.dtd" >
<svg xmlns="http://www.w3.org/2000/svg" xmlns:xlink="http://www.w3.org/1999/xlink" version="1.1" viewBox="-10 0 1724 2048">
   <path fill="currentColor"
d="M264 912h320l-224 -224q-64 0 -110 -46t-46 -110t46 -110t110 -46t110 46t46 110l224 224v-320q-44 -44 -44 -108t46 -110t110 -46t110 46t46 110t-44 108v320l224 -224q0 -68 46 -112t110 -44t110 46t46 110t-46 110t-110 46l-224 224h320q44 -44 108 -44t110 46t46 110
t-46 110t-110 46t-108 -44h-320l224 224q68 0 112 46t44 110t-46 110t-110 46t-110 -44t-46 -112l-224 -224v320q44 44 44 108t-46 110t-110 46t-110 -46t-46 -110t44 -108v-320l-224 224q0 64 -46 110t-110 46t-110 -46t-46 -110t44 -110t112 -46l224 -224h-320
q-44 44 -108 44t-110 -46t-46 -110t46 -110t110 -46t108 44z" />
</svg>
