<?xml version="1.0" standalone="no"?>
<!DOCTYPE svg PUBLIC "-//W3C//DTD SVG 1.1//EN" "http://www.w3.org/Graphics/SVG/1.1/DTD/svg11.dtd" >
<svg xmlns="http://www.w3.org/2000/svg" xmlns:xlink="http://www.w3.org/1999/xlink" version="1.1" viewBox="-10 0 1724 2048">
   <path fill="currentColor"
d="M1656 988l-768 -768q-52 -48 -120 -48h-600q-68 0 -118 50t-50 118v600q0 68 48 120l36 32q116 -68 256 -68t258 68t186 186t68 258t-68 256l32 36q52 48 122 48t118 -48l600 -600q48 -48 48 -118t-48 -122zM296 596q-52 0 -90 -36t-38 -90t38 -92t92 -38t90 38t36 92
t-36 90t-92 36zM520 1840l-180 -184l-180 184l-124 -124l184 -180l-184 -180l124 -120l180 180l180 -180l120 120l-180 180l180 180z" />
</svg>
