<?xml version="1.0" standalone="no"?>
<!DOCTYPE svg PUBLIC "-//W3C//DTD SVG 1.1//EN" "http://www.w3.org/Graphics/SVG/1.1/DTD/svg11.dtd" >
<svg xmlns="http://www.w3.org/2000/svg" xmlns:xlink="http://www.w3.org/1999/xlink" version="1.1" viewBox="-10 0 1556 2048">
   <path fill="currentColor"
d="M1488 1484l-688 392v-304l428 -240zM1536 1440v-816l-252 144v528zM48 1484l688 388v-300l-428 -240zM0 1440v-816l252 144v528zM28 572l708 -400v292l-456 252zM1508 572l-708 -400v292l456 252zM736 1500l-424 -232v-464l424 248v448zM800 1500l424 -232v-464l-424 248
v448zM340 752l428 -236l428 236l-428 244z" />
</svg>
