<?xml version="1.0" standalone="no"?>
<!DOCTYPE svg PUBLIC "-//W3C//DTD SVG 1.1//EN" "http://www.w3.org/Graphics/SVG/1.1/DTD/svg11.dtd" >
<svg xmlns="http://www.w3.org/2000/svg" xmlns:xlink="http://www.w3.org/1999/xlink" version="1.1" viewBox="-10 0 1724 2048">
   <path fill="currentColor"
d="M852 172q232 0 428 114t310 310t114 428t-114 428t-310 310t-428 114t-428 -114t-310 -310t-114 -428t114 -428t310 -310t428 -114zM852 340q-248 0 -420 148l956 956q148 -204 148 -420q0 -184 -92 -342t-250 -250t-342 -92zM1272 1560l-956 -956q-148 172 -148 420
q0 184 92 342t250 250t342 92q248 0 420 -148z" />
</svg>
