<?xml version="1.0" standalone="no"?>
<!DOCTYPE svg PUBLIC "-//W3C//DTD SVG 1.1//EN" "http://www.w3.org/Graphics/SVG/1.1/DTD/svg11.dtd" >
<svg xmlns="http://www.w3.org/2000/svg" xmlns:xlink="http://www.w3.org/1999/xlink" version="1.1" viewBox="-10 0 1922 2048">
   <path fill="currentColor"
d="M146 1901h329v-329h-329v329zM549 1901h365v-329h-365v329zM146 1499h329v-366h-329v366zM549 1499h365v-366h-365v366zM146 1060h329v-329h-329v329zM987 1901h366v-329h-366v329zM549 1060h365v-329h-365v329zM1426 1901h329v-329h-329v329zM987 1499h366v-366h-366
v366zM585 512v-330q0 -14 -11 -25t-25 -11h-74q-14 0 -25 11t-11 25v330q0 14 11 25t25 11h74q14 0 25 -11t11 -25zM1426 1499h329v-366h-329v366zM987 1060h366v-329h-366v329zM1426 1060h329v-329h-329v329zM1463 512v-330q0 -14 -11.5 -25t-25.5 -11h-73q-14 0 -25 11
t-11 25v330q0 14 11 25t25 11h73q14 0 25.5 -11t11.5 -25zM1902 438v1463q0 60 -43.5 103.5t-103.5 43.5h-1609q-60 0 -103 -43.5t-43 -103.5v-1463q0 -60 43 -103t103 -43h147v-110q0 -76 53 -129t129 -53h74q76 0 129 53t53 129v110h439v-110q0 -76 53.5 -129t129.5 -53
h73q76 0 129.5 53t53.5 129v110h146q60 0 103.5 43t43.5 103z" />
</svg>
