<?xml version="1.0" standalone="no"?>
<!DOCTYPE svg PUBLIC "-//W3C//DTD SVG 1.1//EN" "http://www.w3.org/Graphics/SVG/1.1/DTD/svg11.dtd" >
<svg xmlns="http://www.w3.org/2000/svg" xmlns:xlink="http://www.w3.org/1999/xlink" version="1.1" viewBox="-10 0 1212 2048">
   <path fill="currentColor"
d="M424 682q0 -36 26 -60t62 -24t60 24t24 60v380l104 12l420 188q36 16 54 46t18 70v372q0 52 -38 88t-90 40h-552q-52 0 -88 -40l-416 -356l64 -68q24 -24 60 -24h20l272 144v-852zM512 342q140 0 240 100t100 240q0 96 -46 174t-126 122v-104q88 -76 88 -188t-76 -186
t-182 -74t-180 74t-74 186t84 188v104q-80 -44 -126 -122t-46 -174q0 -140 100 -240t244 -100zM512 170q136 0 254 68t188 186t70 258q0 108 -42 202t-118 166l-84 -36q72 -60 114 -146t42 -186q0 -116 -56 -214t-154 -156t-214 -58t-214 58t-156 156t-58 214q0 128 70 234
t186 158v92q-152 -56 -246 -188t-94 -296q0 -140 68 -258t186 -186t258 -68z" />
</svg>
