<?xml version="1.0" standalone="no"?>
<!DOCTYPE svg PUBLIC "-//W3C//DTD SVG 1.1//EN" "http://www.w3.org/Graphics/SVG/1.1/DTD/svg11.dtd" >
<svg xmlns="http://www.w3.org/2000/svg" xmlns:xlink="http://www.w3.org/1999/xlink" version="1.1" viewBox="-10 0 1212 2048">
   <path fill="currentColor"
d="M1192 1292v544q0 52 -38 88t-90 40h-552q-52 0 -88 -40l-416 -356l64 -68q24 -24 60 -24h20l272 144v-852q0 -36 26 -60t62 -24t60 24t24 60v-172q0 -36 24 -60t60 -24t62 24t26 60v428l352 156q32 16 52 46t20 66zM680 256q144 0 244 100t100 240q0 96 -46 174t-126 122
v-104q84 -76 84 -186t-74 -186t-182 -76q-84 0 -152 52t-92 132q-80 24 -130 92t-50 152q0 116 84 192v104q-80 -44 -126 -122t-46 -176t56 -182t144 -128q44 -88 128 -144t184 -56zM680 84q140 0 258 70t186 188t68 254q0 132 -60 244t-164 180l-92 -44q104 -52 168 -154
t64 -222t-58 -218t-156 -154t-214 -56t-218 60t-154 160q-104 56 -164 156t-60 220q0 128 70 234t186 158v92q-152 -56 -246 -188t-94 -296q0 -136 66 -252t178 -184q68 -112 184 -180t252 -68z" />
</svg>
