<?xml version="1.0" standalone="no"?>
<!DOCTYPE svg PUBLIC "-//W3C//DTD SVG 1.1//EN" "http://www.w3.org/Graphics/SVG/1.1/DTD/svg11.dtd" >
<svg xmlns="http://www.w3.org/2000/svg" xmlns:xlink="http://www.w3.org/1999/xlink" version="1.1" viewBox="-10 0 1724 2048">
   <path fill="currentColor"
d="M1272 1548q-84 0 -84 -216q4 -168 56 -468q40 -212 104 -468l52 -216h-248l-56 208q-68 248 -112 472h-212q8 -128 4 -220q-4 -272 -100 -380q-80 -92 -208 -68q-104 20 -196 104q-112 96 -192 258t-80 298h112l16 -52q24 -68 56 -124q40 -76 96 -120q68 -56 152 -56
t80 216q0 168 -56 468q-40 212 -100 468l-56 216h248l36 -112q44 -136 80 -280q48 -200 76 -384h204q-16 148 -12 332q4 268 100 376q80 84 208 56q104 -24 196 -108q112 -96 192 -276q76 -168 76 -276h-116q0 8 -16 56q-20 68 -52 124q-44 72 -100 116q-68 56 -148 56z" />
</svg>
