<?xml version="1.0" standalone="no"?>
<!DOCTYPE svg PUBLIC "-//W3C//DTD SVG 1.1//EN" "http://www.w3.org/Graphics/SVG/1.1/DTD/svg11.dtd" >
<svg xmlns="http://www.w3.org/2000/svg" xmlns:xlink="http://www.w3.org/1999/xlink" version="1.1" viewBox="-11 0 1484 2048">
   <path fill="currentColor"
d="M731 940q36 0 60 24t24 60t-24 60t-60 24t-60 -24t-24 -60t24 -60t60 -24zM67 360q92 -92 272 -58t392 174q212 -140 392 -174t272 58t58 272t-174 392q140 212 174 392t-58 272t-272 58t-392 -174q-212 140 -392 174t-272 -58t-58 -272t174 -392q-140 -212 -174 -392
t58 -272zM1035 720q72 76 144 164q88 -140 114 -248t-20 -154t-154 -20t-248 114q88 72 164 144zM427 1328q-72 -76 -144 -164q-88 140 -114 248t20 154t154 20t248 -114q-88 -72 -164 -144zM187 480q-44 48 -18 156t114 248q72 -88 146 -162t162 -146q-140 -88 -248 -114
t-156 18zM551 1204q84 84 180 164q96 -80 180 -164t164 -180q-80 -96 -164 -180t-180 -164q-96 80 -180 164t-164 180q80 96 164 180zM1275 1568q44 -48 18 -156t-114 -248q-72 88 -146 162t-162 146q140 88 248 114t156 -18z" />
</svg>
