<?xml version="1.0" standalone="no"?>
<!DOCTYPE svg PUBLIC "-//W3C//DTD SVG 1.1//EN" "http://www.w3.org/Graphics/SVG/1.1/DTD/svg11.dtd" >
<svg xmlns="http://www.w3.org/2000/svg" xmlns:xlink="http://www.w3.org/1999/xlink" version="1.1" viewBox="-10 0 1775 2048">
   <path fill="currentColor"
d="M1755 950v148q0 172 -66 321.5t-181.5 255.5t-278.5 166.5t-351 60.5t-351.5 -61t-279 -166.5t-181.5 -255t-66 -321.5v-148q0 -30 21.5 -51t51.5 -21h439q30 0 51.5 21t21.5 51v148q0 42 14 77t35 57.5t51 39t57 25t57 13t47 5.5t32 1t32 -1t47 -5.5t56.5 -13t56.5 -25
t51 -39t35 -57.5t14 -77v-148q0 -30 21.5 -51t51.5 -21h439q30 0 51.5 21t21.5 51zM585 220v438q0 30 -21.5 52t-51.5 22h-439q-30 0 -51.5 -22t-21.5 -52v-438q0 -30 21.5 -52t51.5 -22h439q30 0 51.5 22t21.5 52zM1755 220v438q0 30 -21.5 52t-51.5 22h-439
q-30 0 -51.5 -22t-21.5 -52v-438q0 -30 21.5 -52t51.5 -22h439q30 0 51.5 22t21.5 52z" />
</svg>
