<?xml version="1.0" standalone="no"?>
<!DOCTYPE svg PUBLIC "-//W3C//DTD SVG 1.1//EN" "http://www.w3.org/Graphics/SVG/1.1/DTD/svg11.dtd" >
<svg xmlns="http://www.w3.org/2000/svg" xmlns:xlink="http://www.w3.org/1999/xlink" version="1.1" viewBox="-10 0 1724 2048">
   <path fill="currentColor"
d="M1108 1620q-132 0 -256 -56q-124 56 -256 56q-164 0 -300 -80t-216 -216t-80 -300t80 -300t216 -216t300 -80q132 0 256 56q124 -56 256 -56q164 0 300 80t216 216t80 300t-80 300t-216 216t-300 80zM596 1452l84 -12q-80 -80 -124 -190t-44 -226t44 -226t124 -194
l-84 -8q-116 0 -214 58t-156 156t-58 214t58 214t156 156t214 58zM852 1364q80 -60 126 -150t46 -190t-46 -190t-126 -150q-80 60 -126 150t-46 190t46 190t126 150z" />
</svg>
