<?xml version="1.0" standalone="no"?>
<!DOCTYPE svg PUBLIC "-//W3C//DTD SVG 1.1//EN" "http://www.w3.org/Graphics/SVG/1.1/DTD/svg11.dtd" >
<svg xmlns="http://www.w3.org/2000/svg" xmlns:xlink="http://www.w3.org/1999/xlink" version="1.1" viewBox="-10 0 1724 2048">
   <path fill="currentColor"
d="M596 428q132 0 256 56q124 -56 256 -56q164 0 300 80t216 216t80 300t-80 300t-216 216t-300 80q-132 0 -256 -56q-124 56 -256 56q-164 0 -300 -80t-216 -216t-80 -300t80 -300t216 -216t300 -80zM552 1024q0 116 48 222t128 182l88 -36q-84 -68 -130 -164t-46 -204
t46 -204t130 -164l-88 -36q-80 76 -128 182t-48 222zM1152 1024q0 -116 -48 -222t-128 -182l-88 36q84 68 130 164t46 204t-46 204t-130 164l88 36q80 -76 128 -182t48 -222z" />
</svg>
