<?xml version="1.0" standalone="no"?>
<!DOCTYPE svg PUBLIC "-//W3C//DTD SVG 1.1//EN" "http://www.w3.org/Graphics/SVG/1.1/DTD/svg11.dtd" >
<svg xmlns="http://www.w3.org/2000/svg" xmlns:xlink="http://www.w3.org/1999/xlink" version="1.1" viewBox="-10 0 1640 2048">
   <path fill="currentColor"
d="M1416 256h204v172h-136l-360 360q-48 -72 -120 -120zM768 684q140 0 240 100t100 240q0 116 -70 208t-186 124v8q0 116 -56 214t-154 156t-214 58q-88 0 -166 -32t-138 -92t-92 -138t-32 -164t32 -164t92 -138t138 -92t166 -32h8q32 -116 124 -186t208 -70zM768 896
q-52 0 -90 38t-38 90t38 90t90 38t90 -38t38 -90t-38 -90t-90 -38zM336 1216l-60 60l240 240l60 -60z" />
</svg>
