<?xml version="1.0" standalone="no"?>
<!DOCTYPE svg PUBLIC "-//W3C//DTD SVG 1.1//EN" "http://www.w3.org/Graphics/SVG/1.1/DTD/svg11.dtd" >
<svg xmlns="http://www.w3.org/2000/svg" xmlns:xlink="http://www.w3.org/1999/xlink" version="1.1" viewBox="-10 0 1852 2048">
   <path fill="currentColor"
d="M0 256l108 -108l1684 1684l-108 108l-128 -128h-148v-148l-1132 -1132h-148v-148zM296 108h256v168h-100l-168 -168h12zM1832 276v256h-168v-256h-256v-168h256q68 0 118 50t50 118zM1664 1388h168v268l-168 -168v-100zM128 1644v-256h168v256h256v168h-256
q-68 0 -118 -50t-50 -118zM808 108h344v168h-344v-168zM808 1644h344v168h-344v-168zM1664 788h168v344h-168v-344zM128 788h168v344h-168v-344z" />
</svg>
