<?xml version="1.0" standalone="no"?>
<!DOCTYPE svg PUBLIC "-//W3C//DTD SVG 1.1//EN" "http://www.w3.org/Graphics/SVG/1.1/DTD/svg11.dtd" >
<svg xmlns="http://www.w3.org/2000/svg" xmlns:xlink="http://www.w3.org/1999/xlink" version="1.1" viewBox="-10 0 1900 2048">
   <path fill="currentColor"
d="M172 340q-72 0 -122 50t-50 122v940h172q0 104 74 180t182 76t182 -76t74 -180h512q0 104 74 180t182 76t182 -76t74 -180h172v-256q0 -72 -50 -122t-122 -50h-172v-212h344v-300q0 -72 -50 -122t-122 -50h-1536zM128 468h344v216h-344v-216zM600 468h340v216h-340v-216z
M1068 468h340v216h-340v-216zM1536 468h216v216h-216v-216zM1068 812h340v212h-340v-212zM128 812h344v212h-344v-212zM600 812h340v212h-340v-212zM428 1324q52 0 90 36t38 90t-38 92t-90 38t-90 -38t-38 -92t38 -90t90 -36zM1452 1324q52 0 90 36t38 90t-38 92t-90 38
t-90 -38t-38 -92t38 -90t90 -36z" />
</svg>
