<?xml version="1.0" standalone="no"?>
<!DOCTYPE svg PUBLIC "-//W3C//DTD SVG 1.1//EN" "http://www.w3.org/Graphics/SVG/1.1/DTD/svg11.dtd" >
<svg xmlns="http://www.w3.org/2000/svg" xmlns:xlink="http://www.w3.org/1999/xlink" version="1.1" viewBox="-10 0 1724 2048">
   <path fill="currentColor"
d="M168 340h1368q68 0 118 50t50 122v1024q0 72 -50 122t-118 50h-1368q-68 0 -118 -50t-50 -122v-1024q0 -72 50 -122t118 -50zM168 512v1024h1368v-1024h-1368zM852 640q136 0 240 84t136 216h-136q-24 -76 -90 -124t-150 -48t-150 48t-90 124h-136q32 -132 136 -216
t240 -84zM852 1408q-136 0 -240 -84t-136 -216h136q24 76 90 124t150 48t150 -48t90 -124h136q-32 132 -136 216t-240 84z" />
</svg>
