<?xml version="1.0" standalone="no"?>
<!DOCTYPE svg PUBLIC "-//W3C//DTD SVG 1.1//EN" "http://www.w3.org/Graphics/SVG/1.1/DTD/svg11.dtd" >
<svg xmlns="http://www.w3.org/2000/svg" xmlns:xlink="http://www.w3.org/1999/xlink" version="1.1" viewBox="-10 0 1922 2048">
   <path fill="currentColor"
d="M731 1682q0 60 -43 103t-103 43t-103 -43t-43 -103t43 -103t103 -43t103 43t43 103zM1755 1682q0 60 -43 103t-103 43t-103 -43t-43 -103t43 -103t103 -43t103 43t43 103zM1902 440v584q0 28 -18.5 49t-46.5 25l-1194 138q1 7 4.5 20t5.5 20.5t3.5 19t1.5 20.5
q0 10 -3 20.5t-6 17t-9.5 19t-8.5 17.5h1051q30 0 51.5 21.5t21.5 52t-21.5 51.5t-51.5 21h-1170q-30 0 -51.5 -21t-21.5 -51q0 -13 9 -36t18.5 -41.5t24.5 -46.5t18 -34l-203 -940h-233q-30 0 -51.5 -22t-21.5 -52t21.5 -51t51.5 -21h293q18 0 32.5 7.5t22.5 17t14.5 28
t9 30t6.5 33.5t5 30h1373q30 0 51.5 21.5t21.5 52.5z" />
</svg>
