<?xml version="1.0" standalone="no"?>
<!DOCTYPE svg PUBLIC "-//W3C//DTD SVG 1.1//EN" "http://www.w3.org/Graphics/SVG/1.1/DTD/svg11.dtd" >
<svg xmlns="http://www.w3.org/2000/svg" xmlns:xlink="http://www.w3.org/1999/xlink" version="1.1" viewBox="-10 0 1044 2048">
   <path fill="currentColor"
d="M208 624l-136 -76q68 -108 180 -148q-8 -24 -30 -42t-50 -18v-168q96 0 168 64v104q28 0 50 18t30 42q-68 24 -124 84t-88 140zM172 940q0 -100 48 -180l-112 -64q-48 20 -78 62t-30 94v88q0 392 232 652q148 168 368 256q-188 -148 -300 -352q-128 -248 -128 -556z
M940 708l-108 60l-148 -84l-152 84l-104 -60q-40 20 -64 60t-24 84v88q0 212 72 392q60 148 168 268q88 96 204 168q80 52 168 84l72 24v-1024q0 -44 -24 -84t-60 -60zM404 564l128 76l152 -84l148 84l128 -76q-72 -128 -196 -168q-12 -96 -84 -160t-168 -64v168q28 0 50 18
t30 42q-116 40 -188 164z" />
</svg>
