<?xml version="1.0" standalone="no"?>
<!DOCTYPE svg PUBLIC "-//W3C//DTD SVG 1.1//EN" "http://www.w3.org/Graphics/SVG/1.1/DTD/svg11.dtd" >
<svg xmlns="http://www.w3.org/2000/svg" xmlns:xlink="http://www.w3.org/1999/xlink" version="1.1" viewBox="-10 0 1724 2048">
   <path fill="currentColor"
d="M936 174q216 20 390 138t276 306t102 404q0 180 -72 348l-224 -132q40 -104 40 -216q0 -148 -66 -276t-184 -210t-262 -106v-256zM852 1618q140 0 260 -58t204 -166l224 132q-120 164 -300 256t-388 92q-232 0 -428 -114t-310 -310t-114 -428q0 -216 100 -404t276 -306
t392 -138v256q-144 24 -262 106t-184 210t-66 276q0 164 80 300t216 216t300 80zM852 510q140 0 258 68t186 186t68 258q0 188 -122 332t-306 172v-264q76 -24 124 -90t48 -150q0 -108 -74 -182t-182 -74l-48 4l-132 -228q84 -32 180 -32zM340 1022q0 -116 50 -218t138 -178
l128 228q-60 72 -60 168q0 84 48 150t124 90v264q-184 -28 -306 -172t-122 -332z" />
</svg>
