<?xml version="1.0" standalone="no"?>
<!DOCTYPE svg PUBLIC "-//W3C//DTD SVG 1.1//EN" "http://www.w3.org/Graphics/SVG/1.1/DTD/svg11.dtd" >
<svg xmlns="http://www.w3.org/2000/svg" xmlns:xlink="http://www.w3.org/1999/xlink" version="1.1" viewBox="-10 0 1724 2048">
   <path fill="currentColor"
d="M768 1024h-188q100 64 188 144v-144zM424 940q12 -216 72 -392t152 -276t204 -100t206 102t152 280t70 394q208 -96 424 -96q-152 68 -252 232q-60 100 -140 320q-60 160 -96 232q-60 116 -140 172q-92 68 -220 68t-216 -64q-76 -56 -136 -168q-32 -72 -92 -228
q-56 -148 -92 -220q-56 -120 -124 -200q-84 -96 -196 -144q212 0 424 88zM768 940v-172h-236l-20 172h256zM768 684v-172h-168q-28 72 -52 172h220zM768 428v-148q-68 44 -128 148h128zM852 256v172h84v84h-84v172h172v84h-172v172h256v84h-256v172h172v84h-152
q76 92 122 186t54 174q68 -108 106 -276t38 -364t-48 -368t-126 -274t-166 -102z" />
</svg>
