<?xml version="1.0" standalone="no"?>
<!DOCTYPE svg PUBLIC "-//W3C//DTD SVG 1.1//EN" "http://www.w3.org/Graphics/SVG/1.1/DTD/svg11.dtd" >
<svg xmlns="http://www.w3.org/2000/svg" xmlns:xlink="http://www.w3.org/1999/xlink" version="1.1" viewBox="-10 0 1724 2048">
   <path fill="currentColor"
d="M84 340h340q36 0 62 26t26 62v1192q0 36 -26 62t-62 26h-340q-36 0 -60 -26t-24 -62v-1192q0 -36 24 -62t60 -26zM680 340h344q36 0 60 26t24 62v1192q0 36 -24 62t-60 26h-344q-36 0 -60 -26t-24 -62v-1192q0 -36 24 -62t60 -26zM1280 340h340q36 0 60 26t24 62v1192
q0 36 -24 62t-60 26h-340q-36 0 -62 -26t-26 -62v-1192q0 -36 26 -62t62 -26zM168 1536h172v-428h-172v428zM768 940h168v-428h-168v428zM1364 1536h172v-428h-172v428z" />
</svg>
