<?xml version="1.0" standalone="no"?>
<!DOCTYPE svg PUBLIC "-//W3C//DTD SVG 1.1//EN" "http://www.w3.org/Graphics/SVG/1.1/DTD/svg11.dtd" >
<svg xmlns="http://www.w3.org/2000/svg" xmlns:xlink="http://www.w3.org/1999/xlink" version="1.1" viewBox="-10 0 2167 2048">
   <path fill="currentColor"
d="M2147 1162q0 34 -35 74l-384 454q-49 58 -137.5 98t-164.5 40h-1243q-24 0 -44.5 -4.5t-38 -20t-17.5 -39.5q0 -32 36 -74l384 -454q49 -58 137.5 -98t164.5 -40h1243q24 0 44.5 4.5t37.5 20t17 39.5zM1755 768v182h-950q-108 0 -225.5 54.5t-187.5 137.5l-385 452l-6 8
q0 -5 -0.5 -15t-0.5 -15v-1096q0 -106 75 -181t181 -75h366q106 0 181 75t75 181v36h621q106 0 181 75t75 181z" />
</svg>
