<?xml version="1.0" standalone="no"?>
<!DOCTYPE svg PUBLIC "-//W3C//DTD SVG 1.1//EN" "http://www.w3.org/Graphics/SVG/1.1/DTD/svg11.dtd" >
<svg xmlns="http://www.w3.org/2000/svg" xmlns:xlink="http://www.w3.org/1999/xlink" version="1.1" viewBox="-10 0 1724 2048">
   <path fill="currentColor"
d="M340 172q-72 0 -122 50t-50 118v684q0 72 50 122t122 50h1024q72 0 122 -50t50 -122v-684q0 -68 -50 -118t-122 -50h-1024zM340 340h1024v684h-1024v-684zM168 1280q-68 0 -118 50t-50 122v256q0 68 50 118t118 50h1368q68 0 118 -50t50 -118v-256q0 -72 -50 -122
t-118 -50h-1368zM512 1452h1024v256h-1024v-256zM596 1516v128h340v-128h-340zM1108 1516v128h340v-128h-340z" />
</svg>
