<?xml version="1.0" standalone="no"?>
<!DOCTYPE svg PUBLIC "-//W3C//DTD SVG 1.1//EN" "http://www.w3.org/Graphics/SVG/1.1/DTD/svg11.dtd" >
<svg xmlns="http://www.w3.org/2000/svg" xmlns:xlink="http://www.w3.org/1999/xlink" version="1.1" viewBox="-10 0 1568 2048">
   <path fill="currentColor"
d="M148 588q116 -116 144 -104t16 56q-12 24 -40 72l-16 28q-228 332 -228 512q0 168 116 256q48 36 108 46t118 -8t126 -86q44 -40 132 -148v-4q112 -132 172 -192q104 -100 176 -100q88 0 120 48q20 24 28 92v12q-148 24 -260 112q-96 72 -148 176q-48 92 -48 172
q0 108 80 186t192 78q84 0 160 -44q96 -56 156 -160q72 -128 88 -320h208v-212h-212q-12 -136 -80 -232q-96 -124 -264 -124q-124 0 -256 88q-92 64 -164 152q-32 40 -108 132q-68 80 -88 100l-8 12q-56 60 -86 60t-42 -48t10 -112t78 -168q44 -80 80 -136q60 -88 80 -132
q32 -68 32 -148q0 -124 -80 -192q-60 -52 -134 -52t-150 44q-48 28 -84 64q-56 56 -72 80zM940 1584q-20 0 -42 -18t-22 -46t24 -72q28 -52 76 -92q60 -48 144 -72q-16 156 -76 236q-48 64 -104 64z" />
</svg>
