<?xml version="1.0" standalone="no"?>
<!DOCTYPE svg PUBLIC "-//W3C//DTD SVG 1.1//EN" "http://www.w3.org/Graphics/SVG/1.1/DTD/svg11.dtd" >
<svg xmlns="http://www.w3.org/2000/svg" xmlns:xlink="http://www.w3.org/1999/xlink" version="1.1" viewBox="-10 0 1556 2048">
   <path fill="currentColor"
d="M1196 1742q-36 0 -68 -16q-48 -24 -80 -68t-64 -132t-88 -156q-36 -40 -116 -100q-68 -56 -104 -88q-52 -56 -96 -128q-68 -124 -68 -252q0 -116 56 -214t154 -156t216 -58t216 58t154 156t56 214h172q0 -164 -80 -302t-216 -216t-302 -78t-302 78t-216 216t-80 304
t92 330q52 96 124 168q44 44 120 100q64 52 88 76q40 44 56 100q40 116 94 188t142 116q64 28 140 28q140 0 240 -100t100 -240h-172q0 72 -50 122t-118 50zM396 258l-120 -120q-132 128 -204 300t-72 364t72 364t204 300l120 -120q-108 -108 -166 -248t-58 -296t58 -296
t166 -248zM724 802q0 88 64 150t152 62t150 -62t62 -150t-62 -150t-150 -62t-152 62t-64 150z" />
</svg>
