<?xml version="1.0" standalone="no"?>
<!DOCTYPE svg PUBLIC "-//W3C//DTD SVG 1.1//EN" "http://www.w3.org/Graphics/SVG/1.1/DTD/svg11.dtd" >
<svg xmlns="http://www.w3.org/2000/svg" xmlns:xlink="http://www.w3.org/1999/xlink" version="1.1" viewBox="-10 0 1724 2048">
   <path fill="currentColor"
d="M852 172q168 0 326 64t278 184t184 278t64 326q0 72 -50 122t-118 50h-1368q-68 0 -118 -50t-50 -122q0 -168 64 -326t184 -278t278 -184t326 -64zM852 684q72 0 122 -50t50 -122t-50 -122t-122 -50t-122 50t-50 122t50 122t122 50zM1280 1024q68 0 118 -50t50 -120
t-50 -120t-120 -50t-120 50t-50 120t50 120t122 50zM424 1024q72 0 122 -50t50 -120t-50 -120t-120 -50t-120 50t-50 120t50 120t118 50zM1108 1280l108 380l8 48q0 68 -50 118t-122 50h-400q-72 0 -122 -50t-50 -118l8 -48l108 -380h512z" />
</svg>
