<?xml version="1.0" standalone="no"?>
<!DOCTYPE svg PUBLIC "-//W3C//DTD SVG 1.1//EN" "http://www.w3.org/Graphics/SVG/1.1/DTD/svg11.dtd" >
<svg xmlns="http://www.w3.org/2000/svg" xmlns:xlink="http://www.w3.org/1999/xlink" version="1.1" viewBox="-11 0 1827 2048">
   <path fill="currentColor"
d="M1738 1136h-152v684h-600v-284l240 -240l60 12q76 0 128 -52t52 -126t-52 -128t-128 -54t-128 54t-52 126l8 60l-128 132v-468q44 -24 70 -66t26 -94q0 -72 -52 -124t-128 -52t-128 52t-52 124q0 52 26 94t70 66v468l-128 -132l8 -60q0 -72 -52 -126t-128 -54t-128 54
t-52 128t52 126t128 52l60 -12l240 240v284h-600v-684h-148h-48q-24 -4 -22 -20t74 -88l744 -744l40 -40q24 -16 44 -16t44 16l40 40l344 340v-84h168v256l240 236q68 72 68 86t-16 16t-52 2zM518 1052q32 0 54 22t22 54t-22 54t-54 22t-54 -22t-22 -54t22 -54t54 -22z
M1286 1052q32 0 54 22t22 54t-22 54t-54 22t-54 -22t-22 -54t22 -54t54 -22zM902 616q32 0 54 22t22 54t-22 56t-54 24t-54 -24t-22 -56t22 -54t54 -22z" />
</svg>
