<?xml version="1.0" standalone="no"?>
<!DOCTYPE svg PUBLIC "-//W3C//DTD SVG 1.1//EN" "http://www.w3.org/Graphics/SVG/1.1/DTD/svg11.dtd" >
<svg xmlns="http://www.w3.org/2000/svg" xmlns:xlink="http://www.w3.org/1999/xlink" version="1.1" viewBox="-10 0 1724 2048">
   <path fill="currentColor"
d="M852 172q168 0 326 64t278 184t184 278t64 326t-64 326t-184 278t-278 184t-326 64t-326 -64t-278 -184t-184 -278t-64 -326t64 -326t184 -278t278 -184t326 -64zM852 340q-88 0 -150 64t-62 152t62 150t150 62t150 -62t62 -150t-62 -152t-150 -64zM204 812
q-28 84 12 164t124 106t162 -14t106 -124t-12 -162t-124 -106t-162 12t-106 124zM1500 812q-28 -84 -106 -124t-162 -12t-124 106t-12 162t106 124t162 14t124 -106t12 -164zM452 1576q72 52 160 38t138 -86t36 -158t-84 -138t-158 -38t-140 84t-38 158t86 140zM1252 1576
q72 -52 86 -140t-38 -160t-138 -84t-158 40t-86 138t36 158t138 86t160 -38zM852 896q-52 0 -90 38t-38 90t38 90t90 38t90 -38t38 -90t-38 -90t-90 -38z" />
</svg>
