<?xml version="1.0" standalone="no"?>
<!DOCTYPE svg PUBLIC "-//W3C//DTD SVG 1.1//EN" "http://www.w3.org/Graphics/SVG/1.1/DTD/svg11.dtd" >
<svg xmlns="http://www.w3.org/2000/svg" xmlns:xlink="http://www.w3.org/1999/xlink" version="1.1" viewBox="-10 0 1904 2048">
   <path fill="currentColor"
d="M140 883v-4l20 -24l8 -4h328l4 4l-16 24l-8 4h-336zM4 967l-4 -4l20 -24l12 -4h416l4 8l-8 20l-8 4h-432zM224 1051v-4l12 -24l8 -4h184l4 4v24l-8 4h-200zM1176 867l-152 40q-12 4 -16 2t-12 -10q-20 -24 -44 -36q-80 -40 -164 16q-96 64 -92 172q0 56 34 98t86 50
q92 8 160 -64l24 -32h-176q-28 0 -20 -28l48 -100q8 -16 24 -16h292q20 -56 64 -120q96 -124 256 -152q152 -28 264 48t128 204q24 180 -108 312q-88 88 -220 116l-72 8q-132 -4 -224 -80q-68 -60 -88 -140l-40 60q-100 136 -260 152q-140 24 -246 -56t-118 -204
q-16 -148 80 -274t256 -154q136 -24 240 44q72 48 108 128q4 12 -12 16zM1700 1003l-4 -28q-12 -68 -66 -102t-122 -22q-132 32 -160 160q-12 52 12 102t72 70q76 32 152 -4q108 -56 116 -176z" />
</svg>
