<?xml version="1.0" standalone="no"?>
<!DOCTYPE svg PUBLIC "-//W3C//DTD SVG 1.1//EN" "http://www.w3.org/Graphics/SVG/1.1/DTD/svg11.dtd" >
<svg xmlns="http://www.w3.org/2000/svg" xmlns:xlink="http://www.w3.org/1999/xlink" version="1.1" viewBox="-10 0 1724 2048">
   <path fill="currentColor"
d="M852 368q-232 0 -428 76t-310 208t-114 288q0 136 92 256t252 200t356 104v180h292v-180q108 -12 204 -40l120 220h328l-200 -332q124 -80 192 -186t68 -222q0 -156 -114 -288t-310 -208t-428 -76zM984 588q280 0 444 96q176 100 176 296q0 212 -204 312q-16 -8 -20 -12
q-32 -12 -80 -28l40 -8q44 -12 84 -36q56 -28 88 -80q40 -64 40 -150t-40 -146q-36 -48 -92 -76q-44 -20 -92 -32l-40 -4h-588v612q-164 -48 -264 -142t-100 -204t86 -200t236 -144t326 -54zM996 928h176l20 4q24 4 42 22t18 54q0 52 -40 72q-20 12 -40 12h-176v-164z
M992 1304h80q16 0 36 20q12 8 32 36q-64 12 -148 12v-68z" />
</svg>
