<?xml version="1.0" standalone="no"?>
<!DOCTYPE svg PUBLIC "-//W3C//DTD SVG 1.1//EN" "http://www.w3.org/Graphics/SVG/1.1/DTD/svg11.dtd" >
<svg xmlns="http://www.w3.org/2000/svg" xmlns:xlink="http://www.w3.org/1999/xlink" version="1.1" viewBox="-10 0 1388 2048">
   <path fill="currentColor"
d="M172 172q-72 0 -122 50t-50 118v1368q0 68 50 118t122 50h1024q72 0 122 -50t50 -118v-1368q0 -68 -50 -118t-122 -50h-1024zM684 428q116 0 214 56t156 154t58 214t-58 214t-156 156t-214 58q-84 0 -162 -32t-138 -92t-94 -138t-34 -164t34 -164t94 -138t138 -92
t162 -32zM684 512q-56 88 -80 172h160q-24 -88 -80 -172zM572 532q-124 40 -184 152h124q28 -88 60 -152zM796 532q36 64 60 152h124q-60 -108 -184 -152zM352 768q-8 44 -8 86t8 86h144q-4 -52 -4 -88t4 -84h-144zM584 768q-8 44 -8 84t8 88h200q8 -56 8 -86t-8 -86h-200z
M872 768q4 48 4 84t-4 88h144q8 -44 8 -86t-8 -86h-144zM388 1024q60 108 184 152q-32 -64 -60 -152h-124zM604 1024q24 84 80 172q56 -84 80 -172h-160zM856 1024q-24 84 -60 152q124 -44 184 -152h-124zM256 1452h856v168h-856v-168z" />
</svg>
