<?xml version="1.0" standalone="no"?>
<!DOCTYPE svg PUBLIC "-//W3C//DTD SVG 1.1//EN" "http://www.w3.org/Graphics/SVG/1.1/DTD/svg11.dtd" >
<svg xmlns="http://www.w3.org/2000/svg" xmlns:xlink="http://www.w3.org/1999/xlink" version="1.1" viewBox="-10 0 1388 2048">
   <path fill="currentColor"
d="M684 852l-340 -476l136 -204h408l136 204zM984 580l-104 144q144 60 230 186t86 286q0 136 -68 254t-186 188t-258 70t-258 -70t-186 -188t-68 -254q0 -160 86 -286t230 -186l-104 -144q-172 84 -278 248t-106 368q0 184 92 340t250 248t342 92t342 -92t250 -248t92 -340
q0 -204 -106 -368t-278 -248z" />
</svg>
