<?xml version="1.0" standalone="no"?>
<!DOCTYPE svg PUBLIC "-//W3C//DTD SVG 1.1//EN" "http://www.w3.org/Graphics/SVG/1.1/DTD/svg11.dtd" >
<svg xmlns="http://www.w3.org/2000/svg" xmlns:xlink="http://www.w3.org/1999/xlink" version="1.1" viewBox="-10 0 1724 2048">
   <path fill="currentColor"
d="M852 172q168 0 326 64t278 184t184 278t64 326t-64 326t-184 278t-278 184t-326 64t-326 -64t-278 -184t-184 -278t-64 -326t64 -326t184 -278t278 -184t326 -64zM680 1308q20 64 0 128l-8 24q-16 32 -40 60q-36 36 -82 52t-70 2t-10 -62t54 -90t100 -82zM1388 536
q-20 -76 -100 -116t-196 -42t-232 42q-256 88 -404 232q-88 80 -124 164q-28 64 -20 108q12 80 96 156q44 44 152 120q64 44 84 60v4q-64 32 -124 68q-108 76 -138 142t-10 126q20 48 52 60q84 24 164 -12t128 -108q40 -60 48 -140q4 -72 -20 -120q64 -16 132 -8
q100 12 144 68q36 40 30 82t-46 70q-16 8 -14 14t18 2t40 -24q36 -32 36 -80q4 -72 -62 -132t-174 -60q-92 4 -136 20l-4 -8q-32 -32 -104 -88q-84 -64 -116 -100q-52 -60 -48 -124q8 -176 340 -344q124 -60 244 -80q100 -16 174 4t94 64q24 56 -18 136t-134 140
q-104 64 -236 80q-64 8 -120 -12q-32 -12 -52 -32l-4 -4q-12 -12 -18 -8t2 24q4 20 32 42t64 38q48 16 124 12q100 -8 200 -44q124 -48 204 -166t52 -226z" />
</svg>
