<?xml version="1.0" standalone="no"?>
<!DOCTYPE svg PUBLIC "-//W3C//DTD SVG 1.1//EN" "http://www.w3.org/Graphics/SVG/1.1/DTD/svg11.dtd" >
<svg xmlns="http://www.w3.org/2000/svg" xmlns:xlink="http://www.w3.org/1999/xlink" version="1.1" viewBox="-10 0 1556 2048">
   <path fill="currentColor"
d="M0 596v172h340v172h-168q-72 0 -122 50t-50 118v344h512v-172h-340v-172h168q72 0 122 -50t50 -118v-172q0 -72 -50 -122t-122 -50h-340zM852 1452h-168v-172h168v172zM1196 596q-72 0 -122 50t-50 122v512q0 72 50 122t122 50h168q72 0 122 -50t50 -122v-512
q0 -72 -50 -122t-122 -50h-168zM1196 768h168v512h-168v-512z" />
</svg>
