<?xml version="1.0" standalone="no"?>
<!DOCTYPE svg PUBLIC "-//W3C//DTD SVG 1.1//EN" "http://www.w3.org/Graphics/SVG/1.1/DTD/svg11.dtd" >
<svg xmlns="http://www.w3.org/2000/svg" xmlns:xlink="http://www.w3.org/1999/xlink" version="1.1" viewBox="-10 0 1724 2048">
   <path fill="currentColor"
d="M128 1578q52 0 90 38t38 92t-38 90t-92 36t-90 -36t-36 -90t36 -92t92 -38zM552 1322q88 0 152 64t64 152t-64 150t-152 62t-150 -62t-62 -150t62 -152t150 -64zM1064 1238q-76 0 -142 -30t-114 -86q-44 56 -112 86t-144 30q-124 0 -218 -80t-118 -200q-96 -36 -156 -122
t-60 -194q0 -144 100 -244t240 -100l64 8q104 -92 236 -92q76 0 142 30t114 86q44 -56 112 -86t144 -30q124 0 218 80t118 200q96 36 156 122t60 194q0 144 -100 244t-240 100l-64 -8q-104 92 -236 92zM340 470q-72 0 -122 50t-50 120t50 120t122 50q40 0 80 -16
q-36 44 -36 104q0 68 50 118t124 50t122 -56l128 -144l128 144q56 56 128 56q64 0 112 -40t60 -104q48 60 128 60q72 0 122 -50t50 -120t-50 -120t-122 -50q-40 0 -80 16q36 -44 36 -104q0 -68 -50 -118t-122 -50t-124 56l-132 144l-124 -144q-52 -56 -128 -56
q-64 0 -112 40t-60 104q-48 -60 -128 -60zM552 1450q-36 0 -60 26t-24 62t24 60t60 24t62 -24t26 -60t-26 -62t-62 -26z" />
</svg>
