<?xml version="1.0" standalone="no"?>
<!DOCTYPE svg PUBLIC "-//W3C//DTD SVG 1.1//EN" "http://www.w3.org/Graphics/SVG/1.1/DTD/svg11.dtd" >
<svg xmlns="http://www.w3.org/2000/svg" xmlns:xlink="http://www.w3.org/1999/xlink" version="1.1" viewBox="-10 0 1724 2048">
   <path fill="currentColor"
d="M524 256l-120 120l220 220h-456q-68 0 -118 50t-50 122v852q0 72 50 122t118 50h1368q68 0 118 -50t50 -122v-852q0 -72 -50 -122t-118 -50h-456l220 -220l-120 -120l-328 328zM168 768h1112v852h-1112v-852zM1492 768q36 0 60 24t24 60t-24 62t-60 26t-60 -26t-24 -62
t24 -60t60 -24zM1492 1024q36 0 60 24t24 60t-24 62t-60 26t-60 -26t-24 -62t24 -60t60 -24z" />
</svg>
