<?xml version="1.0" standalone="no"?>
<!DOCTYPE svg PUBLIC "-//W3C//DTD SVG 1.1//EN" "http://www.w3.org/Graphics/SVG/1.1/DTD/svg11.dtd" >
<svg xmlns="http://www.w3.org/2000/svg" xmlns:xlink="http://www.w3.org/1999/xlink" version="1.1" viewBox="-10 0 1725 2048">
   <path fill="currentColor"
d="M505 960q-12 -16 -32 -20t-32 8l-20 20l-416 836q-8 20 -2 40t22 28q8 4 24 4h584q32 0 44 -24q60 -128 60 -292t-62 -324t-170 -276zM813 196q-160 248 -176 538t112 554l280 564q16 24 44 24h584q20 0 34 -14t14 -32t-4 -26l-804 -1608q-8 -16 -26 -22t-34 2t-24 20z
" />
</svg>
