<?xml version="1.0" standalone="no"?>
<!DOCTYPE svg PUBLIC "-//W3C//DTD SVG 1.1//EN" "http://www.w3.org/Graphics/SVG/1.1/DTD/svg11.dtd" >
<svg xmlns="http://www.w3.org/2000/svg" xmlns:xlink="http://www.w3.org/1999/xlink" version="1.1" viewBox="-10 0 1724 2048">
   <path fill="currentColor"
d="M28 1248q76 -28 160 -28q172 0 300 108l-268 268q-136 -152 -192 -348zM1156 836q252 188 544 92q4 36 4 96q0 128 -60 292t-148 264l-540 -540zM576 1420q136 196 56 428q-188 -52 -320 -164zM868 1128l540 540q-280 244 -652 204q28 -84 28 -184q0 -80 -36 -186
t-84 -174zM580 1236q-116 -104 -274 -134t-302 18q-4 -36 -4 -96q0 -128 60 -292t148 -264l568 572zM1156 660q-172 -212 -80 -460q84 20 182 78t166 114zM1676 800q-76 28 -160 28q-140 0 -268 -84l264 -260q112 140 164 316zM868 948l-572 -568q280 -244 652 -204
q-28 84 -28 180t44 214t100 182z" />
</svg>
