<?xml version="1.0" standalone="no"?>
<!DOCTYPE svg PUBLIC "-//W3C//DTD SVG 1.1//EN" "http://www.w3.org/Graphics/SVG/1.1/DTD/svg11.dtd" >
<svg xmlns="http://www.w3.org/2000/svg" xmlns:xlink="http://www.w3.org/1999/xlink" version="1.1" viewBox="-10 0 1775 2048">
   <path fill="currentColor"
d="M1463 698q-65 28 -138 38q78 -46 106 -134q-77 45 -153 58q-69 -74 -175 -74q-100 0 -170 70t-70 170q0 34 6 54q-148 -7 -276.5 -73.5t-219.5 -178.5q-34 57 -34 122q0 62 27.5 114.5t76.5 85.5q-54 -2 -114 -30v2q0 87 57 153t141 83q-32 8 -58 8q-15 0 -45 -4
q24 73 85 119.5t139 48.5q-132 102 -298 102q-21 0 -57 -4q171 108 368 108q128 0 240 -40.5t191.5 -108.5t137.5 -156.5t86 -185t28 -193.5q0 -20 -1 -30q72 -51 120 -124zM1755 476v1096q0 90 -44 166t-119.5 120t-165.5 44h-1097q-90 0 -165.5 -44t-119.5 -120t-44 -166
v-1096q0 -90 44 -166t119.5 -120t165.5 -44h1097q90 0 165.5 44t119.5 120t44 166z" />
</svg>
