<?xml version="1.0" standalone="no"?>
<!DOCTYPE svg PUBLIC "-//W3C//DTD SVG 1.1//EN" "http://www.w3.org/Graphics/SVG/1.1/DTD/svg11.dtd" >
<svg xmlns="http://www.w3.org/2000/svg" xmlns:xlink="http://www.w3.org/1999/xlink" version="1.1" viewBox="-10 0 1724 2048">
   <path fill="currentColor"
d="M852 956q0 -4 4 -4q244 -224 316 -308q108 -128 108 -244q0 -96 -70 -162t-166 -66q-116 0 -192 84q-76 -84 -196 -84q-96 0 -164 68t-68 164q0 112 108 240q72 84 316 308zM784 1024q-4 0 -4 -4q-224 -244 -308 -316q-128 -108 -244 -108q-96 0 -162 70t-66 166
q0 116 84 192q-84 76 -84 196q0 96 68 164t164 68q112 0 240 -108q84 -72 308 -316zM924 1024q156 172 220 236q100 100 172 144q80 48 160 48q96 0 162 -70t66 -166q0 -116 -84 -192q84 -76 84 -196q0 -96 -68 -164t-164 -68q-112 0 -240 108q-84 72 -308 320zM852 1092
q0 4 -4 4q-244 224 -316 308q-108 128 -108 244q0 96 70 162t166 66q116 0 192 -84q76 84 196 84q96 0 164 -68t68 -164q0 -112 -108 -240q-72 -84 -316 -308z" />
</svg>
