<?xml version="1.0" standalone="no"?>
<!DOCTYPE svg PUBLIC "-//W3C//DTD SVG 1.1//EN" "http://www.w3.org/Graphics/SVG/1.1/DTD/svg11.dtd" >
<svg xmlns="http://www.w3.org/2000/svg" xmlns:xlink="http://www.w3.org/1999/xlink" version="1.1" viewBox="-11 0 1730 2048">
   <path fill="currentColor"
d="M1046 900q-16 64 -104 64q-48 0 -132 -24h-8l48 -188l28 8q80 20 116 40q68 40 52 100zM778 1036l-48 204l16 4q96 28 152 28q100 0 118 -70t-66 -114q-48 -28 -148 -48zM1682 1232q-56 224 -214 386t-376 226t-444 8t-388 -214t-226 -376t-8 -444t214 -388t376 -226
t444 -8t388 214t226 376t8 446zM1042 688l40 -156l-96 -20l-36 148l-76 -16l40 -152l-96 -24l-36 156l-188 -48l-28 100l36 8l32 8q48 12 44 56l-104 420q-12 28 -44 24l-68 -20l-44 108l188 48l-40 156l92 24l40 -156l76 20l-40 152l92 24l40 -156q132 28 204 4
q92 -28 124 -128q60 -156 -84 -228q104 -28 120 -140q12 -76 -44 -132q-44 -48 -144 -80z" />
</svg>
