<?xml version="1.0" standalone="no"?>
<!DOCTYPE svg PUBLIC "-//W3C//DTD SVG 1.1//EN" "http://www.w3.org/Graphics/SVG/1.1/DTD/svg11.dtd" >
<svg xmlns="http://www.w3.org/2000/svg" xmlns:xlink="http://www.w3.org/1999/xlink" version="1.1" viewBox="-10 0 1775 2048">
   <path fill="currentColor"
d="M1426 146q90 0 165.5 44t119.5 120t44 166v1096q0 90 -44 166t-119.5 120t-165.5 44h-215v-680h228l34 -266h-262v-168q0 -65 27 -96.5t105 -31.5l139 -2v-236q-80 -10 -203 -10q-155 0 -248.5 91.5t-93.5 258.5v194h-228v266h228v680h-608q-90 0 -165.5 -44t-119.5 -120
t-44 -166v-1096q0 -90 44 -166t119.5 -120t165.5 -44h1097z" />
</svg>
