<?xml version="1.0" standalone="no"?>
<!DOCTYPE svg PUBLIC "-//W3C//DTD SVG 1.1//EN" "http://www.w3.org/Graphics/SVG/1.1/DTD/svg11.dtd" >
<svg xmlns="http://www.w3.org/2000/svg" xmlns:xlink="http://www.w3.org/1999/xlink" version="1.1" viewBox="-10 0 1148 2048">
   <path fill="currentColor"
d="M228 668q-72 0 -84 -12l-36 520q64 40 174 66t314 14t424 -88l-68 -804q-116 112 -332 208q-196 84 -336 96h-56zM220 460q-88 76 -74 104t126 16q140 -12 316 -88q124 -52 210 -112t118 -100t24 -58t-80 -18q-144 0 -360 92q-184 80 -280 164zM1020 192q8 16 8 36
l100 1228q0 220 -152 346t-410 126t-412 -130t-154 -350l60 -892q0 -32 28 -72t52 -64l28 -24q124 -104 300 -180q120 -52 234 -78t204 -16t114 70z" />
</svg>
