<?xml version="1.0" standalone="no"?>
<!DOCTYPE svg PUBLIC "-//W3C//DTD SVG 1.1//EN" "http://www.w3.org/Graphics/SVG/1.1/DTD/svg11.dtd" >
<svg xmlns="http://www.w3.org/2000/svg" xmlns:xlink="http://www.w3.org/1999/xlink" version="1.1" viewBox="-10 0 1556 2048">
   <path fill="currentColor"
d="M1536 534v428h-128v-300h-480l208 208l-92 92l-360 -364l360 -364l92 92l-208 208h608zM496 754q36 -36 20 -84q-48 -152 -48 -308q0 -36 -24 -60t-60 -24h-300q-36 0 -60 24t-24 60q0 288 110 556t314 472t472 314t556 110q36 0 60 -24t24 -60v-300q0 -36 -24 -60
t-60 -24q-160 0 -304 -48q-52 -16 -88 20l-188 188q-180 -96 -324 -240t-236 -324z" />
</svg>
