<?xml version="1.0" standalone="no"?>
<!DOCTYPE svg PUBLIC "-//W3C//DTD SVG 1.1//EN" "http://www.w3.org/Graphics/SVG/1.1/DTD/svg11.dtd" >
<svg xmlns="http://www.w3.org/2000/svg" xmlns:xlink="http://www.w3.org/1999/xlink" version="1.1" viewBox="-10 0 1556 2048">
   <path fill="currentColor"
d="M0 596v-168h172v-88q0 -68 50 -118t118 -50h512v596l216 -128l212 128v-596h84q68 0 120 52t52 116v1368q0 64 -52 116t-120 52h-1024q-64 0 -116 -52t-52 -116v-88h-172v-168h172v-344h-172v-168h172v-344h-172zM340 940h-168v168h168v-168zM340 596v-168h-168v168h168z
M340 1620v-168h-168v168h168z" />
</svg>
