<?xml version="1.0" standalone="no"?>
<!DOCTYPE svg PUBLIC "-//W3C//DTD SVG 1.1//EN" "http://www.w3.org/Graphics/SVG/1.1/DTD/svg11.dtd" >
<svg xmlns="http://www.w3.org/2000/svg" xmlns:xlink="http://www.w3.org/1999/xlink" version="1.1" viewBox="-10 0 1900 2048">
   <path fill="currentColor"
d="M940 454q-164 0 -300 80t-216 216t-80 300h168q0 -116 58 -214t156 -156t214 -58t214 58t156 156t58 214h168q0 -164 -80 -300t-216 -216t-300 -80zM1024 1246q60 -28 94 -80t34 -116q0 -88 -62 -150t-150 -62t-150 62t-62 150q0 64 34 118t94 78v280l-292 292l120 120
l256 -256l256 256l120 -120l-292 -292v-280zM940 110q-256 0 -472 126t-342 342t-126 472h172q0 -208 104 -384t280 -280t384 -104t384 104t280 280t104 384h172q0 -256 -126 -472t-342 -342t-472 -126z" />
</svg>
