<?xml version="1.0" standalone="no"?>
<!DOCTYPE svg PUBLIC "-//W3C//DTD SVG 1.1//EN" "http://www.w3.org/Graphics/SVG/1.1/DTD/svg11.dtd" >
<svg xmlns="http://www.w3.org/2000/svg" xmlns:xlink="http://www.w3.org/1999/xlink" version="1.1" viewBox="-10 0 1724 2048">
   <path fill="currentColor"
d="M168 340q-68 0 -118 50t-50 122v1024q0 72 50 122t118 50h1368q68 0 118 -50t50 -122v-1024q0 -72 -50 -122t-118 -50h-1368zM168 512h600v180q-116 32 -186 124t-70 208t70 208t186 124v180h-600v-172h256v-680h-256v-172zM936 512h600v172h-256v680h256v172h-600v-180
q116 -32 186 -124t70 -208t-70 -208t-186 -124v-180zM168 852h88v344h-88v-344zM1448 852h88v344h-88v-344zM936 876q40 24 64 64t24 84t-24 84t-64 64v-296zM768 876v296q-40 -24 -64 -64t-24 -84t24 -84t64 -64z" />
</svg>
