<?xml version="1.0" standalone="no"?>
<!DOCTYPE svg PUBLIC "-//W3C//DTD SVG 1.1//EN" "http://www.w3.org/Graphics/SVG/1.1/DTD/svg11.dtd" >
<svg xmlns="http://www.w3.org/2000/svg" xmlns:xlink="http://www.w3.org/1999/xlink" version="1.1" viewBox="-10 0 1900 2048">
   <path fill="currentColor"
d="M88 940l172 8q16 -144 88 -266t188 -206l-96 -148q-20 -32 -10 -66t42 -52t64 -8t52 42l80 152q132 -56 272 -56t272 56l80 -152q20 -32 52 -42t64 8t42 52t-10 66l-96 148q116 84 188 206t88 266l172 -8q36 0 62 24t26 60t-26 60t-62 24l-172 -8q-16 144 -88 266
t-188 206l96 148q20 32 10 66t-42 52t-64 8t-52 -42l-80 -152q-132 56 -272 56t-272 -56l-80 152q-20 32 -52 42t-64 -8t-42 -52t10 -66l96 -148q-116 -84 -188 -206t-88 -266l-172 8q-36 0 -62 -24t-26 -60t26 -60t62 -24zM688 968q20 -76 80 -132l-140 -216
q-80 60 -130 148t-66 188zM940 768q40 0 76 12l120 -228q-96 -40 -196 -40t-196 40l120 228q36 -12 76 -12zM1192 968l256 -12q-16 -100 -66 -188t-130 -148l-140 216q60 56 80 132zM1192 1080q-20 76 -80 132l140 216q80 -60 130 -148t66 -188zM940 1280q-40 0 -76 -12
l-120 228q96 40 196 40t196 -40l-120 -228q-36 12 -76 12zM688 1080l-256 12q16 100 66 188t130 148l140 -216q-60 -56 -80 -132z" />
</svg>
