<?xml version="1.0" standalone="no"?>
<!DOCTYPE svg PUBLIC "-//W3C//DTD SVG 1.1//EN" "http://www.w3.org/Graphics/SVG/1.1/DTD/svg11.dtd" >
<svg xmlns="http://www.w3.org/2000/svg" xmlns:xlink="http://www.w3.org/1999/xlink" version="1.1" viewBox="-10 0 1900 2048">
   <path fill="currentColor"
d="M344 172q0 -36 -26 -62t-62 -26t-60 26t-24 62v340h-172v512h512v-512h-168v-340zM684 1364q0 84 48 150t124 90v360h168v-360q76 -24 124 -90t48 -150v-168h-512v168zM0 1364q0 84 48 150t124 90v360h172v-360q76 -24 122 -90t46 -150v-168h-512v168zM1708 512v-340
q0 -36 -24 -62t-60 -26t-62 26t-26 62v340h-168v512h512v-512h-172zM1024 172q0 -36 -24 -62t-60 -26t-60 26t-24 62v340h-172v512h512v-512h-172v-340zM1368 1364q0 84 46 150t122 90v360h172v-360q76 -24 124 -90t48 -150v-168h-512v168z" />
</svg>
