<?xml version="1.0" standalone="no"?>
<!DOCTYPE svg PUBLIC "-//W3C//DTD SVG 1.1//EN" "http://www.w3.org/Graphics/SVG/1.1/DTD/svg11.dtd" >
<svg xmlns="http://www.w3.org/2000/svg" xmlns:xlink="http://www.w3.org/1999/xlink" version="1.1" viewBox="-10 0 1943 2048">
   <path fill="currentColor"
d="M951 553.5q0 -90.5 -64.5 -155t-155.5 -64.5t-155 64.5t-64 155.5q0 47 22 94q-47 -22 -95 -22q-91 0 -155.5 64.5t-64.5 155t64.5 155.5t155.5 65t155 -65t64 -155q0 -50 -21 -96q47 22 94 22q91 0 155.5 -64t64.5 -154.5zM1923 1358q0 19 -56 75.5t-75 56.5
q-10 0 -32.5 -18.5t-42 -38.5t-43.5 -45.5t-28 -29.5l-110 110l251 250q32 32 32 78q0 48 -44.5 93t-92.5 45q-45 0 -77 -32l-767 -768q-94 70 -201 110t-216 40q-187 0 -304 -116.5t-117 -303.5q0 -91 29.5 -185t81 -176t124 -154t154.5 -123.5t175.5 -81.5t185.5 -30
q186 0 303 117t117 303q0 110 -39.5 217.5t-109.5 200.5l405 406l110 -110q-3 -3 -29.5 -27.5t-46 -44t-37.5 -42t-18 -32.5q0 -20 55.5 -76t75.5 -56q15 0 26 12q7 6 52.5 50.5t93.5 91.5t99 98t83.5 88.5t32.5 47.5z" />
</svg>
