<?xml version="1.0" standalone="no"?>
<!DOCTYPE svg PUBLIC "-//W3C//DTD SVG 1.1//EN" "http://www.w3.org/Graphics/SVG/1.1/DTD/svg11.dtd" >
<svg xmlns="http://www.w3.org/2000/svg" xmlns:xlink="http://www.w3.org/1999/xlink" version="1.1" viewBox="-10 0 1900 2048">
   <path fill="currentColor"
d="M600 980q0 -52 -38 -90t-92 -38t-90 38t-36 92t36 90t90 36t92 -36t38 -92zM1196 556q0 -56 -38 -92t-90 -36h-256q-52 0 -90 36t-38 90t38 92t90 38h256q52 0 90 -38t38 -90zM640 1280q-52 0 -90 38t-38 90t38 90t92 38t90 -38t36 -90t-36 -90t-92 -38zM940 84
q-256 0 -472 126t-342 342t-126 472t126 472t342 342t472 126t472 -126t342 -342t126 -472t-126 -472t-342 -342t-472 -126zM940 1792q-208 0 -384 -104t-280 -280t-104 -384t104 -384t280 -280t384 -104t384 104t280 280t104 384t-104 384t-280 280t-384 104zM1408 852
q-52 0 -90 38t-38 92t38 90t92 36t90 -36t36 -90t-36 -92t-92 -38zM1240 1280q-56 0 -92 38t-36 90t36 90t90 38t92 -38t38 -90t-38 -90t-90 -38z" />
</svg>
