<?xml version="1.0" standalone="no"?>
<!DOCTYPE svg PUBLIC "-//W3C//DTD SVG 1.1//EN" "http://www.w3.org/Graphics/SVG/1.1/DTD/svg11.dtd" >
<svg xmlns="http://www.w3.org/2000/svg" xmlns:xlink="http://www.w3.org/1999/xlink" version="1.1" viewBox="-10 0 1724 2048">
   <path fill="currentColor"
d="M1536 170q-32 0 -60 24l-812 812l-220 300l-276 280l-24 -28q-28 -24 -62 -24t-58 24t-24 60t24 60l172 172q24 28 58 28t60 -24t26 -60t-24 -64l-28 -24l276 -276l304 -220l812 -812q24 -24 24 -60t-24 -60l-84 -84q-28 -24 -60 -24zM1408 1106q-88 0 -152 64t-64 152
t64 150t152 62t150 -62t62 -150t-62 -152t-150 -64z" />
</svg>
