<?xml version="1.0" standalone="no"?>
<!DOCTYPE svg PUBLIC "-//W3C//DTD SVG 1.1//EN" "http://www.w3.org/Graphics/SVG/1.1/DTD/svg11.dtd" >
<svg xmlns="http://www.w3.org/2000/svg" xmlns:xlink="http://www.w3.org/1999/xlink" version="1.1" viewBox="-10 0 1727 2048">
   <path fill="currentColor"
d="M876 171q-60 0 -102 46t-42 106q4 32 16 60l24 56q4 8 0 16t-14 12t-22 -8l-36 -48q-44 -60 -116 -60q-64 0 -108 42t-46 100t34 102l36 44q12 20 -2 30t-26 2l-48 -36q-44 -36 -102 -34t-100 46t-42 108q0 72 60 116l48 36q8 8 8 16t-10 16t-22 4l-52 -24
q-32 -12 -60 -16q-60 0 -106 42t-46 106q0 44 24 84t64 56l972 432l392 -392l-432 -972q-16 -40 -56 -66t-88 -22zM948 519q28 0 50 14t34 38l260 584l-340 -336l-76 -180q-20 -40 4 -80t68 -40zM668 755q36 0 60 24l412 412q24 24 26 58t-24 60t-62 26t-60 -24l-412 -412
q-24 -24 -24 -60t24 -60t60 -24zM436 1039q16 0 32 8l180 80l336 336l-584 -260q-40 -20 -48 -60t16 -74t68 -30zM1560 1367l-364 364l72 72q48 48 114 66t132 0t116 -68t68 -116t0 -132t-66 -114z" />
</svg>
