<?xml version="1.0" standalone="no"?>
<!DOCTYPE svg PUBLIC "-//W3C//DTD SVG 1.1//EN" "http://www.w3.org/Graphics/SVG/1.1/DTD/svg11.dtd" >
<svg xmlns="http://www.w3.org/2000/svg" xmlns:xlink="http://www.w3.org/1999/xlink" version="1.1" viewBox="-10 0 1556 2048">
   <path fill="currentColor"
d="M172 256q-72 0 -122 50t-50 122v1192q0 72 50 122t122 50h1192q72 0 122 -50t50 -122v-1192q0 -72 -50 -122t-122 -50h-1192zM340 768h256q40 0 64 26t24 58v428h-128v-128h-172v128h-128v-428q0 -32 24 -58t60 -26zM852 768h300q56 0 92 36t36 92v84q0 40 -22 72t-54 48
l76 180h-128l-72 -172h-100v172h-128v-512zM384 896v128h172v-128h-172zM980 896v84h172v-84h-172z" />
</svg>
