<?xml version="1.0" standalone="no"?>
<!DOCTYPE svg PUBLIC "-//W3C//DTD SVG 1.1//EN" "http://www.w3.org/Graphics/SVG/1.1/DTD/svg11.dtd" >
<svg xmlns="http://www.w3.org/2000/svg" xmlns:xlink="http://www.w3.org/1999/xlink" version="1.1" viewBox="-10 0 1724 2048">
   <path fill="currentColor"
d="M852 172q-156 0 -298 52t-258 152q56 44 112 116l92 -56l88 152l-88 48q76 144 92 304h88v168h-88q-16 160 -92 304l88 48l-88 152l-92 -56q-56 72 -112 116q116 100 258 152t298 52t298 -52t258 -152q-52 -40 -112 -116l-92 56l-88 -152l88 -48q-76 -144 -92 -304h-88
v-168h88q16 -160 92 -304l-88 -48l88 -152l92 56q60 -76 112 -116q-116 -100 -258 -152t-298 -52zM180 500q-88 112 -134 246t-46 278t46 278t134 246q36 -28 80 -80l-52 -28l84 -148l60 36q52 -104 68 -220h-80v-168h80q-16 -116 -68 -220l-60 36l-84 -148l52 -28
q-44 -52 -80 -80zM1524 500q-36 28 -80 80l52 28l-84 148l-60 -36q-52 104 -68 220h80v168h-80q16 116 68 220l60 -36l84 148l-52 28q44 52 80 80q88 -112 134 -246t46 -278t-46 -278t-134 -246z" />
</svg>
