<?xml version="1.0" standalone="no"?>
<!DOCTYPE svg PUBLIC "-//W3C//DTD SVG 1.1//EN" "http://www.w3.org/Graphics/SVG/1.1/DTD/svg11.dtd" >
<svg xmlns="http://www.w3.org/2000/svg" xmlns:xlink="http://www.w3.org/1999/xlink" version="1.1" viewBox="-10 0 2214 2048">
   <path fill="currentColor"
d="M1024 1024q0 -121 -86 -207t-207 -86t-206.5 86t-85.5 207t85.5 206.5t206.5 85.5t207 -85.5t86 -206.5zM1902 1609q0 -60 -43.5 -103.5t-103.5 -43.5t-103 43.5t-43 103.5q0 61 43 103.5t103 42.5q61 0 104 -43t43 -103zM1902 438q0 -60 -43.5 -103t-103.5 -43t-103 43
t-43 103q0 61 43 104t103 43q61 0 104 -43.5t43 -103.5zM1463 920v211q0 12 -7.5 22.5t-18.5 11.5l-178 28q-12 41 -36 87q41 59 103 131q8 11 8 23q0 14 -8 22q-26 35 -94 102.5t-90 67.5q-13 0 -24 -8l-132 -103q-42 22 -88 35q-14 132 -26 178q-8 27 -34 27h-213
q-12 0 -22.5 -8.5t-11.5 -20.5l-26 -174q-39 -12 -86 -36l-135 102q-8 8 -23 8q-13 0 -24 -9q-164 -148 -164 -183q0 -11 8 -22q4 -5 42 -54t58 -76q-27 -52 -40 -94l-174 -27q-12 -1 -19.5 -11t-7.5 -22v-212q0 -12 7.5 -22.5t18.5 -11.5l177 -28q10 -34 37 -86
q-45 -64 -103 -132q-8 -11 -8 -23q0 -14 8 -23q26 -34 94 -101.5t90 -67.5q13 0 24 8l132 103q39 -20 88 -36q14 -130 26 -176q9 -28 34 -28h213q12 0 22.5 8.5t11.5 20.5l26 175q44 13 86 35l135 -102q9 -8 23 -8t24 9q26 24 57.5 54t69 72.5t37.5 56.5q0 11 -8 22
q-15 20 -48.5 63t-50.5 67q27 56 39 94l173 26q12 2 20 12.5t8 22.5zM2194 1529v160q0 11 -63.5 21t-106.5 14q-14 34 -34 60q58 133 58 157q0 5 -5 8q-2 1 -39 23t-68 40t-34 18q-10 0 -54 -54.5t-58 -76.5q-22 2 -35 2q-12 0 -34 -2q-14 22 -58 76.5t-54 54.5
q-3 0 -34 -17.5t-69 -40.5t-39 -23q-4 -3 -4 -8q0 -24 58 -157q-20 -26 -34 -60q-43 -4 -106.5 -14t-63.5 -21v-160q0 -11 64.5 -21.5t105.5 -14.5q15 -34 34 -59q-58 -133 -58 -158q0 -5 4 -8q5 -3 40 -23t67 -38.5t35 -18.5q10 0 54 54t58 76q22 -2 34 -2q13 0 35 2
q57 -80 105 -128l7 -2q1 0 141 80q5 3 5 8q0 25 -58 158q19 25 34 59q41 4 105.5 14.5t64.5 21.5zM2194 358v160q0 11 -64.5 21.5t-105.5 14.5q-13 32 -34 59q58 133 58 158q0 5 -5 8q-2 1 -39 23t-68 40t-34 18q-10 0 -54 -54.5t-58 -76.5q-22 2 -35 2q-12 0 -34 -2
q-14 22 -58 76.5t-54 54.5q-3 0 -34 -17.5t-69 -40.5t-39 -23q-4 -3 -4 -8q0 -25 58 -158q-21 -27 -34 -59q-41 -4 -105.5 -14.5t-64.5 -21.5v-160q0 -11 63.5 -21t106.5 -14q15 -34 34 -59q-58 -133 -58 -158q0 -5 4 -8q5 -3 40 -23t67 -38.5t35 -18.5q10 0 54 54t58 76
q22 -2 34 -2q13 0 35 2q57 -80 105 -128l7 -2q1 0 141 80q5 3 5 8q0 25 -58 158q19 25 34 59q43 4 106.5 14t63.5 21z" />
</svg>
