<?xml version="1.0" standalone="no"?>
<!DOCTYPE svg PUBLIC "-//W3C//DTD SVG 1.1//EN" "http://www.w3.org/Graphics/SVG/1.1/DTD/svg11.dtd" >
<svg xmlns="http://www.w3.org/2000/svg" xmlns:xlink="http://www.w3.org/1999/xlink" version="1.1" viewBox="-10 0 1900 2048">
   <path fill="currentColor"
d="M940 576q-108 0 -182 74t-74 182t74 182t182 74t182 -74t74 -182t-74 -182t-182 -74zM940 1260q-116 0 -214 -58t-156 -156t-58 -214t58 -214t156 -156t214 -58t214 58t156 156t58 214t-58 214t-156 156t-214 58zM940 192q-312 0 -568 176t-372 464q100 256 312 422
t478 206t518 -60q196 -76 344 -224t228 -344q-116 -288 -372 -464t-568 -176zM512 1684h172v172h-172v-172zM856 1684h168v172h-168v-172zM1196 1684h172v172h-172v-172z" />
</svg>
