<?xml version="1.0" standalone="no"?>
<!DOCTYPE svg PUBLIC "-//W3C//DTD SVG 1.1//EN" "http://www.w3.org/Graphics/SVG/1.1/DTD/svg11.dtd" >
<svg xmlns="http://www.w3.org/2000/svg" xmlns:xlink="http://www.w3.org/1999/xlink" version="1.1" viewBox="-10 0 1044 2048">
   <path fill="currentColor"
d="M684 1280q0 72 -50 122t-122 50t-122 -50t-50 -122t50 -122t122 -50t122 50t50 122zM1024 340v1368q0 68 -50 118t-122 50h-680q-72 0 -122 -50t-50 -118v-1368q0 -68 50 -118t122 -50h680q72 0 122 50t50 118zM384 596q0 56 38 92t90 36t90 -36t38 -90t-38 -92t-90 -38
t-90 38t-38 90zM852 852h-680v856h680v-856z" />
</svg>
