<?xml version="1.0" standalone="no"?>
<!DOCTYPE svg PUBLIC "-//W3C//DTD SVG 1.1//EN" "http://www.w3.org/Graphics/SVG/1.1/DTD/svg11.dtd" >
<svg xmlns="http://www.w3.org/2000/svg" xmlns:xlink="http://www.w3.org/1999/xlink" version="1.1" viewBox="-10 0 1724 2048">
   <path fill="currentColor"
d="M1688 876v-4q-52 -36 -140 -36q-32 0 -72 8q-8 -76 -64 -136q-28 -28 -56 -44l-24 -16l-16 24q-36 48 -44 100q-24 104 28 188q-28 16 -72 24q-32 8 -52 8h-1124q-24 0 -38 16t-14 36q0 156 48 288q56 152 172 224q128 80 376 80q104 0 208 -20q144 -24 272 -96
q104 -64 184 -156q104 -116 180 -312h16q120 0 192 -72q32 -28 52 -72l4 -20zM156 960h152q12 0 12 -16v-132q0 -16 -12 -16h-152q-12 0 -12 16v132q0 16 12 16zM364 960h152q12 0 12 -16v-132q0 -16 -12 -16h-152q-12 0 -12 16v132q0 16 12 16zM576 960h148q16 0 16 -16
v-132q0 -16 -16 -16h-148q-16 0 -16 16v132q0 16 16 16zM784 960h148q16 0 16 -16v-132q0 -16 -16 -16h-148q-12 0 -12 16v132q0 16 12 16zM364 768h152q4 0 8 -4t4 -12v-132q0 -16 -12 -16h-152q-12 0 -12 16v132q0 16 12 16zM576 768h148q16 0 16 -16v-132q0 -16 -16 -16
h-148q-16 0 -16 16v132q0 16 16 16zM784 768h148q16 0 16 -16v-132q0 -16 -16 -16h-148q-12 0 -12 16v132q0 16 12 16zM784 572h148q16 0 16 -12v-132q0 -16 -16 -16h-148q-12 0 -12 16v132q0 12 12 12zM992 960h152q12 0 12 -16v-132q0 -16 -12 -16h-152q-12 0 -12 16v132
q0 16 12 16z" />
</svg>
