<?xml version="1.0" standalone="no"?>
<!DOCTYPE svg PUBLIC "-//W3C//DTD SVG 1.1//EN" "http://www.w3.org/Graphics/SVG/1.1/DTD/svg11.dtd" >
<svg xmlns="http://www.w3.org/2000/svg" xmlns:xlink="http://www.w3.org/1999/xlink" version="1.1" viewBox="-10 0 1592 2048">
   <path fill="currentColor"
d="M1256 992q-76 -76 -174 -100t-198 2t-174 100t-100 172t0 196t102 174q96 92 228 108t248 -56l264 264l120 -120l-264 -264q72 -116 56 -248t-108 -228zM1132 1412q-60 64 -148 64t-152 -62t-64 -150t64 -152t152 -64t150 64t62 152t-64 148zM592 1656q-88 -88 -128 -200
q-204 -32 -334 -122t-130 -198v256q0 92 92 170t250 124t342 46q-52 -36 -92 -76zM0 708v256q0 108 118 194t310 122v-16q0 -120 48 -232q-208 -32 -342 -122t-134 -202zM684 196q-184 0 -342 46t-250 124t-92 170q0 84 78 158t212 122t294 64h8q76 -84 178 -128t216 -44
t222 48q64 -32 108 -90t52 -130q0 -92 -92 -170t-250 -124t-342 -46z" />
</svg>
