<?xml version="1.0" standalone="no"?>
<!DOCTYPE svg PUBLIC "-//W3C//DTD SVG 1.1//EN" "http://www.w3.org/Graphics/SVG/1.1/DTD/svg11.dtd" >
<svg xmlns="http://www.w3.org/2000/svg" xmlns:xlink="http://www.w3.org/1999/xlink" version="1.1" viewBox="-10 0 1724 2048">
   <path fill="currentColor"
d="M852 172q168 0 326 64t278 184t184 278t64 326t-64 326t-184 278t-278 184t-326 64t-326 -64t-278 -184t-184 -278t-64 -326t64 -326t184 -278t278 -184t326 -64zM852 340q-184 0 -342 92t-250 250t-92 342q0 152 60 284t172 228q88 -84 206 -128t246 -44q256 0 452 172
q112 -96 172 -228t60 -284q0 -184 -92 -342t-250 -250t-342 -92zM1024 512q36 0 60 24t24 60t-24 62t-60 26t-62 -26t-26 -62t26 -60t62 -24zM680 512q36 0 62 24t26 60t-26 62t-62 26t-60 -26t-24 -62t24 -60t60 -24zM416 764q12 0 32 4l300 124q36 -28 82 -36t86 12
q64 24 92 90t2 130t-92 92t-130 0q-44 -16 -72 -52t-36 -80l-296 -120q-32 -12 -46 -46t-2 -66q12 -24 34 -38t46 -14zM1280 768q36 0 60 24t24 60t-24 62t-60 26t-62 -26t-26 -62t26 -60t62 -24z" />
</svg>
