<?xml version="1.0" standalone="no"?>
<!DOCTYPE svg PUBLIC "-//W3C//DTD SVG 1.1//EN" "http://www.w3.org/Graphics/SVG/1.1/DTD/svg11.dtd" >
<svg xmlns="http://www.w3.org/2000/svg" xmlns:xlink="http://www.w3.org/1999/xlink" version="1.1" viewBox="-10 0 1564 2048">
   <path fill="currentColor"
d="M772 460l-36 -8l-476 820q32 28 40 68h944q8 -40 40 -68l-476 -820zM312 1412l364 216q40 -40 96 -40t96 40l364 -216h-920zM772 1876q-60 0 -102 -42t-42 -102l8 -44l-368 -220q-40 52 -104 52t-106 -42t-42 -102q0 -52 32 -90t76 -50v-436q-52 -8 -88 -48t-36 -98
t42 -100t102 -42q68 0 112 56l376 -216l-4 -36q0 -60 42 -102t102 -42t102 42t42 102l-4 36l376 216q44 -56 112 -56q60 0 102 42t42 100t-36 98t-88 48v436q44 12 76 50t32 90q0 60 -42 102t-106 42t-104 -52l-368 220l8 44q0 60 -42 102t-102 42zM668 416l-384 220l4 20
q0 44 -26 80t-66 52l4 448zM876 416l468 820l4 -448q-40 -16 -66 -52t-26 -80l4 -20z" />
</svg>
