<?xml version="1.0" standalone="no"?>
<!DOCTYPE svg PUBLIC "-//W3C//DTD SVG 1.1//EN" "http://www.w3.org/Graphics/SVG/1.1/DTD/svg11.dtd" >
<svg xmlns="http://www.w3.org/2000/svg" xmlns:xlink="http://www.w3.org/1999/xlink" version="1.1" viewBox="-10 0 1775 2048">
   <path fill="currentColor"
d="M293 1609.5q0 -29.5 -22 -51.5t-52 -22t-51.5 21.5t-21.5 52t21.5 51.5t51.5 21t52 -21.5t22 -51zM1609 950q0 -58 -44 -102t-102 -44h-402q0 -44 17 -94t37.5 -88t37.5 -88t17 -96q0 -55 -7 -91.5t-25.5 -67t-56 -45t-94.5 -14.5q-20 20 -32 54t-19 73t-16 79.5
t-28.5 83.5t-50.5 76q-14 14 -28 30.5t-33.5 40.5t-26.5 33q-3 3 -26 33.5t-36.5 47.5t-39.5 48t-46 50t-44 40t-45.5 31t-40.5 10h-36v732h36q15 0 36 4t37.5 7.5t44 12.5t39 13t41.5 14.5t33 12.5q117 39 208.5 60.5t182.5 21.5h138q103 0 161.5 -45.5t58.5 -144.5
q0 -22 -6 -64q34 -19 54 -60.5t20 -83.5q0 -45 -20 -80q60 -56 60 -136q0 -28 -11.5 -62.5t-28.5 -53.5q25 -1 46 -29.5t30.5 -61.5t9.5 -57zM1755 950q0 102 -56 186q11 39 11 78q0 90 -44 166q4 32 4 48q0 116 -69 204q1 159 -97 250.5t-259 91.5h-42h-106
q-110 0 -218 -25.5t-246 -74.5q-4 -1 -33 -11t-47.5 -16t-42.5 -12.5t-35 -6.5h-329q-61 0 -103.5 -42.5t-42.5 -103.5v-732q0 -60 42.5 -103t103.5 -43h313q47 -31 157 -176q67 -86 122 -146q19 -20 30.5 -55t18.5 -74.5t16.5 -80.5t29.5 -83t52 -73q44 -42 102 -42
q96 0 173 37t117 115q24 49 32 97.5t8 114.5q0 106 -55 220h201q119 0 205.5 86.5t86.5 205.5z" />
</svg>
