<?xml version="1.0" standalone="no"?>
<!DOCTYPE svg PUBLIC "-//W3C//DTD SVG 1.1//EN" "http://www.w3.org/Graphics/SVG/1.1/DTD/svg11.dtd" >
<svg xmlns="http://www.w3.org/2000/svg" xmlns:xlink="http://www.w3.org/1999/xlink" version="1.1" viewBox="-10 0 1724 2048">
   <path fill="currentColor"
d="M84 1194v-852q0 -72 50 -122t122 -50h512l168 172h512q72 0 122 50t50 118v684q0 72 -50 122t-122 50h-512v168h88q36 0 60 26t24 62h596v168h-596q0 36 -24 62t-60 26h-344q-36 0 -60 -26t-24 -62h-596v-168h596q0 -36 24 -62t60 -26h88v-168h-512q-72 0 -122 -50
t-50 -122z" />
</svg>
