<?xml version="1.0" standalone="no"?>
<!DOCTYPE svg PUBLIC "-//W3C//DTD SVG 1.1//EN" "http://www.w3.org/Graphics/SVG/1.1/DTD/svg11.dtd" >
<svg xmlns="http://www.w3.org/2000/svg" xmlns:xlink="http://www.w3.org/1999/xlink" version="1.1" viewBox="-11 0 1782 2048">
   <path fill="currentColor"
d="M1721 879q-88 76 -200 94t-220 -20t-182 -126t-92 -202t20 -220t126 -178l44 -32q-108 116 -114 278t98 286t264 146t296 -62zM1569 1227q-132 112 -300 142t-328 -28t-272 -192t-140 -300t28 -328t188 -274l80 -56q-100 116 -138 264t-6 300t134 272t244 178t296 48
t282 -90zM1473 1643q-188 160 -422 200t-460 -42t-382 -268t-196 -422t40 -460t268 -380l96 -68q-148 160 -204 370t-12 424t188 386t348 254t420 64t400 -138z" />
</svg>
