<?xml version="1.0" standalone="no"?>
<!DOCTYPE svg PUBLIC "-//W3C//DTD SVG 1.1//EN" "http://www.w3.org/Graphics/SVG/1.1/DTD/svg11.dtd" >
<svg xmlns="http://www.w3.org/2000/svg" xmlns:xlink="http://www.w3.org/1999/xlink" version="1.1" viewBox="-10 0 1724 2048">
   <path fill="currentColor"
d="M852 172q-168 0 -326 64t-278 184t-184 278t-64 326t64 326t184 278t278 184t326 64t326 -64t278 -184t184 -278t64 -326t-64 -326t-184 -278t-278 -184t-326 -64zM852 340q184 0 342 92t250 250t92 342q0 152 -60 284t-172 228q-88 -84 -206 -128t-246 -44
q-256 0 -452 172q-112 -96 -172 -228t-60 -284q0 -184 92 -342t250 -250t342 -92zM680 512q-36 0 -60 24t-24 60t24 62t60 26t62 -26t26 -62t-26 -60t-62 -24zM1024 512q-36 0 -62 24t-26 60t26 62t62 26t60 -26t24 -62t-24 -60t-60 -24zM1288 764q-12 0 -32 4l-300 124
q-36 -28 -82 -36t-86 12q-64 24 -92 90t-2 130t92 92t130 0q44 -16 72 -52t36 -80l296 -120q32 -12 46 -46t2 -66q-12 -24 -34 -38t-46 -14zM424 768q-36 0 -60 24t-24 60t24 62t60 26t62 -26t26 -62t-26 -60t-62 -24z" />
</svg>
