<?xml version="1.0" standalone="no"?>
<!DOCTYPE svg PUBLIC "-//W3C//DTD SVG 1.1//EN" "http://www.w3.org/Graphics/SVG/1.1/DTD/svg11.dtd" >
<svg xmlns="http://www.w3.org/2000/svg" xmlns:xlink="http://www.w3.org/1999/xlink" version="1.1" viewBox="-10 0 1556 2048">
   <path fill="currentColor"
d="M172 256h1192q72 0 122 50t50 122v1192q0 72 -50 122t-122 50h-1192q-72 0 -122 -50t-50 -122v-1192q0 -72 50 -122t122 -50zM448 1280h128l84 -292v292h128v-512h-192l-84 292l-84 -292h-192v512h128v-292zM896 768v512h128v-172h100l72 172h128l-80 -180q36 -16 58 -48
t22 -72v-84q0 -56 -38 -92t-90 -36h-300zM1024 896h172v84h-172v-84z" />
</svg>
