<?xml version="1.0" standalone="no"?>
<!DOCTYPE svg PUBLIC "-//W3C//DTD SVG 1.1//EN" "http://www.w3.org/Graphics/SVG/1.1/DTD/svg11.dtd" >
<svg xmlns="http://www.w3.org/2000/svg" xmlns:xlink="http://www.w3.org/1999/xlink" version="1.1" viewBox="-10 0 1903 2048">
   <path fill="currentColor"
d="M1484 544q-56 0 -160 32l-4 4q-44 -80 -122 -126t-170 -46q-68 0 -130 28t-110 72q-52 -64 -128 -104t-160 -40q-100 0 -184 48t-136 132t-52 180q0 48 32 148l4 8q-72 40 -118 112t-46 160q0 128 92 222t220 94q48 0 68 -8q24 100 112 162t200 62t196 -58t116 -150
q84 36 128 36q84 0 156 -42t112 -110q24 4 76 4q108 0 202 -54t148 -148t56 -206t-50 -208t-144 -150t-204 -54z" />
</svg>
