<?xml version="1.0" standalone="no"?>
<!DOCTYPE svg PUBLIC "-//W3C//DTD SVG 1.1//EN" "http://www.w3.org/Graphics/SVG/1.1/DTD/svg11.dtd" >
<svg xmlns="http://www.w3.org/2000/svg" xmlns:xlink="http://www.w3.org/1999/xlink" version="1.1" viewBox="-10 0 1556 2048">
   <path fill="currentColor"
d="M384 256h768q160 0 272 112t112 272v768q0 160 -112 272t-272 112h-768q-160 0 -272 -112t-112 -272v-768q0 -160 112 -272t272 -112zM256 1152v256q0 52 38 90t90 38h128v-640l512 640h128q52 0 90 -38t38 -90v-256q0 -52 38 -90t90 -38q-52 0 -90 -38t-38 -90v-256
q0 -52 -38 -90t-90 -38h-128v640l-512 -640h-128q-52 0 -90 38t-38 90v256q0 52 -38 90t-90 38q52 0 90 38t38 90z" />
</svg>
