<?xml version="1.0" standalone="no"?>
<!DOCTYPE svg PUBLIC "-//W3C//DTD SVG 1.1//EN" "http://www.w3.org/Graphics/SVG/1.1/DTD/svg11.dtd" >
<svg xmlns="http://www.w3.org/2000/svg" xmlns:xlink="http://www.w3.org/1999/xlink" version="1.1" viewBox="-10 0 1775 2048">
   <path fill="currentColor"
d="M293 439q0 -30 -22 -52t-52 -22t-51.5 22t-21.5 52t21.5 51.5t51.5 21.5t52 -21.5t22 -51.5zM1609 1097q0 -40 -25 -92.5t-61 -53.5q17 -20 28.5 -54.5t11.5 -63.5q0 -79 -60 -136q20 -34 20 -79q0 -42 -20 -83.5t-54 -60.5q6 -42 6 -64q0 -97 -56.5 -144t-155.5 -47
h-146q-91 0 -181.5 21.5t-209.5 62.5q-175 62 -231 62h-36v732h36q19 0 40.5 10t45.5 31t44.5 40.5t46 50.5t39.5 48.5t36 47t26 34.5q75 91 88 104q37 39 59 95.5t28.5 103t20.5 94.5t38 72q110 0 146.5 -53.5t36.5 -165.5q0 -56 -27 -119.5t-54.5 -127t-27.5 -119.5h402
q58 0 102 -44t44 -102zM1755 1098q0 118 -86.5 204.5t-205.5 86.5h-201q55 115 55 220q0 133 -40 212t-117 116.5t-173 37.5q-57 0 -102 -43q-39 -38 -61.5 -94t-29.5 -103.5t-20.5 -96.5t-35.5 -73q-54 -58 -122 -145q-110 -146 -157 -177h-313q-61 0 -103.5 -42.5
t-42.5 -103.5v-732q0 -61 42.5 -103.5t103.5 -42.5h329q11 0 35 -6t42.5 -12.5t47.5 -16.5t33 -11q146 -50 254.5 -75t229.5 -25h128q159 0 258 90t98 247v6q69 87 69 203q0 17 -4 49q44 76 44 165q0 40 -11 79q56 83 56 186z" />
</svg>
