<?xml version="1.0" standalone="no"?>
<!DOCTYPE svg PUBLIC "-//W3C//DTD SVG 1.1//EN" "http://www.w3.org/Graphics/SVG/1.1/DTD/svg11.dtd" >
<svg xmlns="http://www.w3.org/2000/svg" xmlns:xlink="http://www.w3.org/1999/xlink" version="1.1" viewBox="-10 0 1556 2048">
   <path fill="currentColor"
d="M768 84l-768 344v512q0 232 100 448t276 368t392 208q216 -56 392 -208t276 -368t100 -448v-512zM768 428q108 0 182 74t74 180t-74 182t-182 76t-182 -76t-74 -182t74 -180t182 -74zM1204 1452q-76 116 -188 202t-248 130q-136 -44 -248 -130t-188 -202
q-48 -68 -76 -132q0 -68 70 -128t186 -94t256 -34t256 34t186 92t70 130q-28 64 -76 132z" />
</svg>
