<?xml version="1.0" standalone="no"?>
<!DOCTYPE svg PUBLIC "-//W3C//DTD SVG 1.1//EN" "http://www.w3.org/Graphics/SVG/1.1/DTD/svg11.dtd" >
<svg xmlns="http://www.w3.org/2000/svg" xmlns:xlink="http://www.w3.org/1999/xlink" version="1.1" viewBox="-10 0 1768 2048">
   <path fill="currentColor"
d="M1580 1452q68 0 118 -50t50 -122v-940q0 -68 -50 -118t-118 -50h-900q44 80 44 168h856v940h-768v172h768zM1152 596v172h-512v1108h-172v-512h-168v512h-172v-680h-128v-428q0 -72 50 -122t122 -50h980zM556 340q0 72 -50 122t-122 50t-122 -50t-50 -120t50 -120
t122 -50t122 50t50 118z" />
</svg>
