<?xml version="1.0" standalone="no"?>
<!DOCTYPE svg PUBLIC "-//W3C//DTD SVG 1.1//EN" "http://www.w3.org/Graphics/SVG/1.1/DTD/svg11.dtd" >
<svg xmlns="http://www.w3.org/2000/svg" xmlns:xlink="http://www.w3.org/1999/xlink" version="1.1" viewBox="-10 0 1556 2048">
   <path fill="currentColor"
d="M172 256q-72 0 -122 50t-50 122v1192q0 72 50 122t122 50h1192q72 0 122 -50t50 -122v-1192q0 -72 -50 -122t-122 -50h-1192zM768 428q200 0 356 120l-184 184q-80 -48 -172 -48q-140 0 -240 100t-100 240t100 240l-184 184q-80 -84 -126 -194t-46 -230q0 -164 80 -300
t216 -216t300 -80zM1244 668q120 156 120 356q0 120 -46 230t-126 194l-184 -184q100 -100 100 -240q0 -92 -48 -172z" />
</svg>
