<?xml version="1.0" standalone="no"?>
<!DOCTYPE svg PUBLIC "-//W3C//DTD SVG 1.1//EN" "http://www.w3.org/Graphics/SVG/1.1/DTD/svg11.dtd" >
<svg xmlns="http://www.w3.org/2000/svg" xmlns:xlink="http://www.w3.org/1999/xlink" version="1.1" viewBox="-10 0 1724 2048">
   <path fill="currentColor"
d="M1280 170q68 0 118 50t50 122v852q0 72 -50 122t-118 50h-344v168h88q36 0 60 26t24 62h596v168h-596q0 36 -24 62t-60 26h-344q-36 0 -60 -26t-24 -62h-596v-168h596q0 -36 24 -62t60 -26h88v-168h-344q-68 0 -118 -50t-50 -122v-852q0 -72 50 -122t118 -50h856z
M424 510l344 344l-344 340h244l280 -280q24 -24 24 -60t-24 -60l-280 -284h-244zM1280 1022h-256v172h256v-172z" />
</svg>
