<?xml version="1.0" standalone="no"?>
<!DOCTYPE svg PUBLIC "-//W3C//DTD SVG 1.1//EN" "http://www.w3.org/Graphics/SVG/1.1/DTD/svg11.dtd" >
<svg xmlns="http://www.w3.org/2000/svg" xmlns:xlink="http://www.w3.org/1999/xlink" version="1.1" viewBox="-10 0 1628 2048">
   <path fill="currentColor"
d="M1364 342h-84v-172h-172v172h-680v-172h-172v172h-84q-72 0 -122 50t-50 122v1192q0 72 50 122t122 50h424v-172h-424v-936h1192v84h172v-340q0 -72 -50 -122t-122 -50zM1596 1226l-84 84l-176 -172l84 -84q12 -12 32 -12t36 12l108 108q12 16 12 34t-12 30zM768 1702
l516 -516l176 168l-516 524h-176v-176z" />
</svg>
