<?xml version="1.0" standalone="no"?>
<!DOCTYPE svg PUBLIC "-//W3C//DTD SVG 1.1//EN" "http://www.w3.org/Graphics/SVG/1.1/DTD/svg11.dtd" >
<svg xmlns="http://www.w3.org/2000/svg" xmlns:xlink="http://www.w3.org/1999/xlink" version="1.1" viewBox="-10 0 1724 2048">
   <path fill="currentColor"
d="M0 384v172h168v-172h-168zM1536 384v172h168v-172h-168zM0 640v172h168v-172h-168zM256 640v172h168v-172h-168zM1024 640v172h168v-172h-168zM1280 640v172h168v-172h-168zM1536 640v172h168v-172h-168zM0 896v172h168v-172h-168zM256 896v172h168v-172h-168zM512 896
v172h168v-172h-168zM768 896v172h168v-172h-168zM1024 896v172h168v-172h-168zM1280 896v172h168v-172h-168zM1536 896v172h168v-172h-168zM0 1152v172h168v-172h-168zM256 1152v172h168v-172h-168zM512 1152v172h168v-172h-168zM768 1152v172h168v-172h-168zM1024 1152v172
h168v-172h-168zM1280 1152v172h168v-172h-168zM1536 1152v172h168v-172h-168zM256 1496v168h168v-168h-168zM512 1496v168h168v-168h-168zM768 1496v168h168v-168h-168zM1024 1496v168h168v-168h-168zM1280 1496v168h168v-168h-168z" />
</svg>
