<?xml version="1.0" standalone="no"?>
<!DOCTYPE svg PUBLIC "-//W3C//DTD SVG 1.1//EN" "http://www.w3.org/Graphics/SVG/1.1/DTD/svg11.dtd" >
<svg xmlns="http://www.w3.org/2000/svg" xmlns:xlink="http://www.w3.org/1999/xlink" version="1.1" viewBox="-10 0 1556 2048">
   <path fill="currentColor"
d="M1364 684v-256h-1192v256h340q0 104 74 180t182 76t182 -76t74 -180h340zM1364 256q72 0 122 50t50 122v596q0 72 -50 122t-122 50h-1192q-72 0 -122 -50t-50 -122v-596q0 -72 50 -122t122 -50h1192zM0 1280h512q0 108 74 182t182 74t182 -74t74 -182h512v340
q0 72 -50 122t-122 50h-1192q-72 0 -122 -50t-50 -122v-340z" />
</svg>
