<?xml version="1.0" standalone="no"?>
<!DOCTYPE svg PUBLIC "-//W3C//DTD SVG 1.1//EN" "http://www.w3.org/Graphics/SVG/1.1/DTD/svg11.dtd" >
<svg xmlns="http://www.w3.org/2000/svg" xmlns:xlink="http://www.w3.org/1999/xlink" version="1.1" viewBox="-10 0 1724 2048">
   <path fill="currentColor"
d="M724 428q-144 0 -278 54t-236 156t-156 236t-54 278t54 278t156 236t236 156t278 54t278 -54t236 -156t156 -236t54 -278t-54 -278t-156 -236t-236 -156t-278 -54zM980 1108q-88 0 -150 -62t-62 -150t62 -150t150 -62t150 62t62 150t-62 150t-150 62zM1492 172
q-88 0 -150 62t-62 150t62 150t150 62t150 -62t62 -150t-62 -150t-150 -62z" />
</svg>
