<?xml version="1.0" standalone="no"?>
<!DOCTYPE svg PUBLIC "-//W3C//DTD SVG 1.1//EN" "http://www.w3.org/Graphics/SVG/1.1/DTD/svg11.dtd" >
<svg xmlns="http://www.w3.org/2000/svg" xmlns:xlink="http://www.w3.org/1999/xlink" version="1.1" viewBox="-11 0 1682 2048">
   <path fill="currentColor"
d="M830 684q140 0 240 100t100 240t-100 240t-240 100t-240 -100t-100 -240t100 -240t240 -100zM830 852q-72 0 -122 50t-50 122t50 122t122 50t122 -50t50 -122t-50 -122t-122 -50zM658 1876q-16 0 -28 -10t-12 -26l-32 -224q-72 -28 -144 -84l-212 84q-16 8 -32 2t-20 -18
l-172 -296q-8 -16 -6 -30t14 -26l180 -140l-4 -84l4 -84l-180 -140q-12 -12 -14 -26t6 -30l172 -296q4 -12 20 -18t32 2l212 84q72 -56 144 -84l32 -224q0 -16 12 -26t28 -10h344q16 0 28 10t12 26l32 224q72 28 144 84l212 -84q16 -8 32 -2t20 18l172 296q8 16 6 30t-14 26
l-180 140l4 84l-4 84l180 140q12 12 14 26t-6 30l-172 296q-4 12 -20 18t-32 -2l-212 -84q-72 56 -144 84l-32 224q0 16 -12 26t-28 10h-344zM766 340l-32 224q-156 32 -260 152l-204 -88l-64 112l180 132q-52 152 0 304l-180 136l64 108l208 -88q104 120 256 152l32 224
h128l32 -224q152 -32 256 -152l208 88l64 -108l-180 -132q52 -156 0 -308l180 -132l-64 -112l-204 88q-104 -120 -260 -152l-32 -224h-128z" />
</svg>
