<?xml version="1.0" standalone="no"?>
<!DOCTYPE svg PUBLIC "-//W3C//DTD SVG 1.1//EN" "http://www.w3.org/Graphics/SVG/1.1/DTD/svg11.dtd" >
<svg xmlns="http://www.w3.org/2000/svg" xmlns:xlink="http://www.w3.org/1999/xlink" version="1.1" viewBox="-10 0 1812 2048">
   <path fill="currentColor"
d="M731 1646q0 4 1 22.5t0.5 30.5t-3 26.5t-11.5 22.5t-23 8h-366q-90 0 -165.5 -44t-119.5 -120t-44 -166v-804q0 -90 44 -166t119.5 -120t165.5 -44h366q14 0 25 11.5t11 26.5q0 4 1 22.5t0.5 30t-3 26t-11.5 22t-23 7.5h-366q-76 0 -129.5 54t-53.5 130v804
q0 76 53.5 130t129.5 54h329q2 0 12.5 -0.5t15 0t13.5 1t13 3t9.5 6.5t7.5 10.5t2 15.5zM1792 1024q0 30 -22 52l-621 622q-21 20 -52 20q-30 0 -51.5 -21t-21.5 -51v-330h-512q-30 0 -51.5 -21t-21.5 -51v-440q0 -30 21.5 -51t51.5 -21h512v-330q0 -30 21.5 -51t51.5 -21
q31 0 52 20l621 622q22 22 22 52z" />
</svg>
