<?xml version="1.0" standalone="no"?>
<!DOCTYPE svg PUBLIC "-//W3C//DTD SVG 1.1//EN" "http://www.w3.org/Graphics/SVG/1.1/DTD/svg11.dtd" >
<svg xmlns="http://www.w3.org/2000/svg" xmlns:xlink="http://www.w3.org/1999/xlink" version="1.1" viewBox="-10 0 1044 2048">
   <path fill="currentColor"
d="M512 172q-140 0 -258 68t-186 186t-68 258v680q0 140 68 258t186 186t258 68t258 -68t186 -186t68 -258v-680q0 -140 -68 -258t-186 -186t-258 -68zM172 512h168v172h-168v-172zM428 512h168v172h-168v-172zM684 512h168v172h-168v-172zM172 768h168v172h-168v-172z
M428 768h168v172h-168v-172zM684 768h168v172h-168v-172zM172 1024h168v172h-168v-172zM428 1024h168v172h-168v-172zM684 1024h168v172h-168v-172zM512 1364q72 0 122 50t50 122t-50 122t-122 50t-122 -50t-50 -122t50 -122t122 -50z" />
</svg>
