<?xml version="1.0" standalone="no"?>
<!DOCTYPE svg PUBLIC "-//W3C//DTD SVG 1.1//EN" "http://www.w3.org/Graphics/SVG/1.1/DTD/svg11.dtd" >
<svg xmlns="http://www.w3.org/2000/svg" xmlns:xlink="http://www.w3.org/1999/xlink" version="1.1" viewBox="-10 0 1900 2048">
   <path fill="currentColor"
d="M344 428h168v168h-168v-168zM0 84h856v856h-856v-856zM172 256v512h512v-512h-512zM344 1452h168v168h-168v-168zM0 1108h856v856h-856v-856zM172 1280v512h512v-512h-512zM1024 1108h344v172h168v-172h344v172h-344v172h344v512h-344v-172h-340v172h-172v-172h172v-172
h-172v-512zM1708 1792v-172h-172v172h172zM1536 1452h-168v-172h-172v340h340v-168zM1852 284l-84 88l-176 -172l88 -84q12 -16 30 -16t34 16l108 104q16 12 16 32t-16 32zM1024 764l520 -520l176 176l-520 520h-176v-176z" />
</svg>
