<?xml version="1.0" standalone="no"?>
<!DOCTYPE svg PUBLIC "-//W3C//DTD SVG 1.1//EN" "http://www.w3.org/Graphics/SVG/1.1/DTD/svg11.dtd" >
<svg xmlns="http://www.w3.org/2000/svg" xmlns:xlink="http://www.w3.org/1999/xlink" version="1.1" viewBox="-10 0 1724 2048">
   <path fill="currentColor"
d="M424 172q-120 0 -224 76q-92 68 -146 186t-54 250t52 288t116 224q24 20 48 92q16 44 52 156q64 208 104 292q68 140 140 140q108 0 168 -60q48 -52 68 -148q12 -60 20 -180q8 -108 20 -148q20 -60 64 -60t64 60q12 40 20 148q8 120 20 180q20 96 68 148q60 60 168 60
q72 0 140 -140q40 -84 104 -292q36 -112 52 -156q24 -72 48 -92q64 -68 116 -224t52 -288t-54 -250t-146 -186q-104 -76 -224 -76q-96 0 -164 16q-40 8 -100 32q-44 20 -68 24q-44 12 -96 12t-96 -12q-24 -4 -68 -24q-60 -24 -100 -32q-68 -16 -164 -16z" />
</svg>
