<?xml version="1.0" standalone="no"?>
<!DOCTYPE svg PUBLIC "-//W3C//DTD SVG 1.1//EN" "http://www.w3.org/Graphics/SVG/1.1/DTD/svg11.dtd" >
<svg xmlns="http://www.w3.org/2000/svg" xmlns:xlink="http://www.w3.org/1999/xlink" version="1.1" viewBox="-10 0 1775 2048">
   <path fill="currentColor"
d="M271 1616h264v-794h-264v794zM552 578q-1 -59 -41 -97.5t-106 -38.5q-67 0 -108.5 38.5t-41.5 97.5q0 58 40.5 98t105.5 40h1q68 0 109 -39.5t41 -98.5zM1221 1616h264v-454q0 -176 -83.5 -267t-220.5 -91q-50 0 -91.5 12.5t-69.5 35t-45 42t-33 44.5h2v-116h-264
q3 77 0 794h264v-444q0 -44 8 -64q16 -40 50.5 -68t85.5 -28q68 0 100.5 48t32.5 132v424zM1755 476v1096q0 90 -44 166t-119.5 120t-165.5 44h-1097q-90 0 -165.5 -44t-119.5 -120t-44 -166v-1096q0 -90 44 -166t119.5 -120t165.5 -44h1097q90 0 165.5 44t119.5 120t44 166
z" />
</svg>
