<?xml version="1.0" standalone="no"?>
<!DOCTYPE svg PUBLIC "-//W3C//DTD SVG 1.1//EN" "http://www.w3.org/Graphics/SVG/1.1/DTD/svg11.dtd" >
<svg xmlns="http://www.w3.org/2000/svg" xmlns:xlink="http://www.w3.org/1999/xlink" version="1.1" viewBox="-10 0 1724 2048">
   <path fill="currentColor"
d="M852 172q-168 0 -326 64t-278 184t-184 278t-64 326t64 326t184 278t278 184t326 64t326 -64t278 -184t184 -278t64 -326q0 -148 -52 -288l-136 136q20 76 20 152q0 184 -92 342t-250 250t-342 92t-342 -92t-250 -250t-92 -342t92 -342t250 -250t342 -92q76 0 152 20
l140 -140q-144 -48 -292 -48zM1448 172l-340 340v128l-216 216q-16 -4 -40 -4q-72 0 -122 50t-50 122t50 122t122 50t122 -50t50 -122q0 -24 -4 -40l216 -216h128l340 -340h-256v-256zM852 512q-140 0 -258 68t-186 186t-68 258t68 258t186 186t258 68t258 -68t186 -186
t68 -258h-172q0 140 -100 240t-240 100t-240 -100t-100 -240t100 -240t240 -100v-172z" />
</svg>
