<?xml version="1.0" standalone="no"?>
<!DOCTYPE svg PUBLIC "-//W3C//DTD SVG 1.1//EN" "http://www.w3.org/Graphics/SVG/1.1/DTD/svg11.dtd" >
<svg xmlns="http://www.w3.org/2000/svg" xmlns:xlink="http://www.w3.org/1999/xlink" version="1.1" viewBox="-10 0 1724 2048">
   <path fill="currentColor"
d="M168 428h256l172 -172h512l172 172h256q68 0 118 50t50 118v1024q0 72 -50 122t-118 50h-1368q-68 0 -118 -50t-50 -122v-1024q0 -68 50 -118t118 -50zM1192 1452v-88q0 -76 -128 -128q-104 -40 -212 -40t-212 40q-128 52 -128 128v88h680zM852 768q-72 0 -122 50
t-50 120t50 120t122 50t122 -50t50 -120t-50 -120t-122 -50z" />
</svg>
