<?xml version="1.0" standalone="no"?>
<!DOCTYPE svg PUBLIC "-//W3C//DTD SVG 1.1//EN" "http://www.w3.org/Graphics/SVG/1.1/DTD/svg11.dtd" >
<svg xmlns="http://www.w3.org/2000/svg" xmlns:xlink="http://www.w3.org/1999/xlink" version="1.1" viewBox="-10 0 1900 2048">
   <path fill="currentColor"
d="M1324 340v364l244 144l-64 104l-308 -184v-428h128zM1280 1108q176 0 302 -124t126 -300t-126 -302t-302 -126t-300 126t-124 302t124 300t300 124zM1068 1620q56 0 92 -38t36 -90t-36 -90t-92 -38t-92 38t-36 90t36 90t92 38zM172 1108h692q-180 -172 -180 -424h-512
v424zM300 1620q56 0 92 -38t36 -90t-36 -90t-92 -38t-92 38t-36 90t36 90t92 38zM1280 84q252 0 426 174t174 426q0 224 -148 390t-364 198v264q0 108 -88 188v152q0 32 -24 60t-60 28h-84q-36 0 -62 -26t-26 -62v-84h-680v84q0 36 -26 62t-62 26h-84q-36 0 -60 -28t-24 -60
v-152q-88 -80 -88 -188v-852q0 -204 174 -274t510 -70h52l52 4q180 -260 492 -260z" />
</svg>
