<?xml version="1.0" standalone="no"?>
<!DOCTYPE svg PUBLIC "-//W3C//DTD SVG 1.1//EN" "http://www.w3.org/Graphics/SVG/1.1/DTD/svg11.dtd" >
<svg xmlns="http://www.w3.org/2000/svg" xmlns:xlink="http://www.w3.org/1999/xlink" version="1.1" viewBox="-10 0 1724 2048">
   <path fill="currentColor"
d="M852 172q-16 40 -44 112q-96 232 -164 376q112 112 220 192q-156 -64 -244 -140q-176 364 -620 1164q212 -120 364 -188q168 -72 312 -100q-16 -60 -16 -116v-8q4 -132 64 -218t140 -80t134 104t50 226q0 52 -8 92q136 28 304 100q152 68 360 188l-144 -264l-36 -32
q-132 -108 -260 -172q144 36 236 92q-280 -524 -408 -788q-84 -176 -196 -436z" />
</svg>
