<?xml version="1.0" standalone="no"?>
<!DOCTYPE svg PUBLIC "-//W3C//DTD SVG 1.1//EN" "http://www.w3.org/Graphics/SVG/1.1/DTD/svg11.dtd" >
<svg xmlns="http://www.w3.org/2000/svg" xmlns:xlink="http://www.w3.org/1999/xlink" version="1.1" viewBox="-11 0 1764 2048">
   <path fill="currentColor"
d="M1159 1532q88 0 148 -62t60 -148t-60 -148t-148 -62t-148 62t-60 148t60 148t148 62zM1603 1380l128 100q20 16 4 36l-116 208q-16 20 -40 12l-148 -60q-44 36 -100 60l-24 156q0 12 -8 20t-20 8h-240q-24 0 -28 -28l-24 -156q-52 -24 -100 -60l-148 60q-12 4 -22 0
t-14 -12l-120 -208q-12 -20 8 -36l124 -100l-4 -60l4 -56l-124 -100q-20 -16 -8 -40l120 -204q4 -12 14 -16t22 0l148 64q52 -40 100 -60l24 -160q4 -24 28 -24h240q12 0 20 8t8 16l24 160q52 20 100 60l148 -64q24 -8 40 16l116 204q16 24 -4 40l-128 100l4 56zM375 644
q56 0 94 -38t38 -94t-38 -96t-94 -40t-96 40t-40 96t40 94t96 38zM659 548l84 64q8 12 0 24l-76 132q-8 16 -24 8l-96 -36l-60 36l-16 104q-4 16 -20 16h-152q-20 0 -20 -16l-16 -104l-64 -36l-96 36q-16 8 -24 -8l-76 -132q-8 -12 4 -24l80 -64v-36v-40l-80 -64
q-12 -8 -4 -24l76 -132q8 -16 24 -8l96 36l64 -36l16 -100q0 -16 20 -16h152q16 0 20 16l16 100l60 36l96 -36q16 -8 24 8l76 132q8 16 0 24l-84 64l4 40z" />
</svg>
