<?xml version="1.0" standalone="no"?>
<!DOCTYPE svg PUBLIC "-//W3C//DTD SVG 1.1//EN" "http://www.w3.org/Graphics/SVG/1.1/DTD/svg11.dtd" >
<svg xmlns="http://www.w3.org/2000/svg" xmlns:xlink="http://www.w3.org/1999/xlink" version="1.1" viewBox="-10 0 1448 2048">
   <path fill="currentColor"
d="M1264 894l-20 32q16 -44 16 -140v-60l-8 -4q-4 -112 -88 -228q-80 -108 -176 -152q-76 -36 -180 -42t-160 22q4 -4 24 -10t16 -10q-48 4 -72 12l-40 20q-32 20 -68 32q-8 8 0 8l36 -8l-16 12q-12 4 -38 6t-42 6q-28 16 -64 52q4 4 20 -4l8 -4l-12 16q-48 -4 -136 80
q-76 76 -108 128l16 4q-12 28 -38 76t-26 72l-8 64q-12 104 -12 152q0 80 24 112l-4 44l20 40h-12q16 52 28 66t28 14t24 12q20 20 40 72q-20 -8 -32 -28q-4 12 10 40t34 52l-8 12q8 20 28 36l8 8q-28 -16 -4 24q12 24 52 72l12 16l8 -16q-4 28 44 88h28q8 16 32 36t40 24
l-16 20q28 8 46 22t54 26l-16 -24l32 32q36 36 72 50t78 22t74 16q-136 0 -184 -20q-168 -44 -316 -180t-232 -320q-88 -196 -76 -396q-4 -32 0 -108q0 -84 -4 -96v-8q40 -136 84 -224v0q12 12 32 -20l12 -28q16 -48 28 -68h12q4 -24 36 -64q24 -20 72 -64q36 -32 48 -44v12
q60 -56 232 -128l48 -20q-8 12 0 12l32 -8q36 -8 56 -8l-44 24q28 -8 54 -2t54 2q-44 4 -40 12q28 4 62 -4t66 4l-4 -16l64 20q64 16 120 48q12 0 24 -4q28 -8 56 4l4 8q4 16 48 44q8 -4 -16 -28l-4 -4q88 48 164 136q80 92 108 192q-16 -28 -18 -24t2 28t0 24q24 68 36 128
l-4 -4q-32 -124 -72 -176q0 12 -14 10t-16 6t6 40q8 12 12 4t6 -6t14 22q0 16 8 52l4 28q-4 0 -12 -16t-12 -8q12 52 28 64h-6q-6 0 -6 20q4 32 8 38t12 2h8l-12 28q-20 52 -12 92l-16 -48v40q4 32 -12 68q12 -36 12 -62t-12 -10q4 40 -28 104q-24 44 -20 68l-20 -28
q-24 40 -22 54t-10 38q4 -8 2 -14t6 -18q-4 0 -34 30t-46 42q-96 76 -210 92t-230 -28q0 -8 -12 -16q-108 -84 -148 -152q-48 -88 -32 -224q8 -8 24 -44q24 -64 48 -80q24 -48 80 -82t118 -36t122 30q48 24 84 68q-56 -48 -134 -60t-150 22t-112 108t-36 154l4 -4q4 0 8 -12
q-4 104 60 184t156 112t176 -8v4q44 -12 72 -36q16 -16 32 -28l-8 12q-16 16 -2 14t98 -78l20 -16q4 -16 2 -28t10 -32l24 -12l12 -28q20 -48 20 -88z" />
</svg>
