<?xml version="1.0" standalone="no"?>
<!DOCTYPE svg PUBLIC "-//W3C//DTD SVG 1.1//EN" "http://www.w3.org/Graphics/SVG/1.1/DTD/svg11.dtd" >
<svg xmlns="http://www.w3.org/2000/svg" xmlns:xlink="http://www.w3.org/1999/xlink" version="1.1" viewBox="-10 0 1812 2048">
   <path fill="currentColor"
d="M768 1452v-856h-600v856h600zM768 256q68 0 118 50t50 122v1192q0 72 -50 122t-118 50h-600q-68 0 -118 -50t-50 -122v-1192q0 -72 50 -122t118 -50h600zM1236 256h428q52 0 90 38t38 90v256q0 52 -38 90t-90 38h-300l-256 256v-640q0 -52 38 -90t90 -38z" />
</svg>
