<?xml version="1.0" standalone="no"?>
<!DOCTYPE svg PUBLIC "-//W3C//DTD SVG 1.1//EN" "http://www.w3.org/Graphics/SVG/1.1/DTD/svg11.dtd" >
<svg xmlns="http://www.w3.org/2000/svg" xmlns:xlink="http://www.w3.org/1999/xlink" version="1.1" viewBox="-10 0 1716 2048">
   <path fill="currentColor"
d="M0 1108h1696q-8 88 -32 172h-644v172h256v168h-172v172h-212v84h-44q-216 0 -404 -102t-306 -276t-138 -390zM1696 940h-1696q20 -216 138 -390t306 -276t404 -102q204 0 384 92v164h172v168h128v172h132q24 84 32 172zM848 576q0 -88 -62 -150t-150 -62t-152 62t-64 150
t64 150t152 62t150 -62t62 -150z" />
</svg>
