<?xml version="1.0" standalone="no"?>
<!DOCTYPE svg PUBLIC "-//W3C//DTD SVG 1.1//EN" "http://www.w3.org/Graphics/SVG/1.1/DTD/svg11.dtd" >
<svg xmlns="http://www.w3.org/2000/svg" xmlns:xlink="http://www.w3.org/1999/xlink" version="1.1" viewBox="-10 0 1337 2048">
   <path fill="currentColor"
d="M549 914v-512q0 -16 -10.5 -26.5t-26.5 -10.5t-26.5 10.5t-10.5 26.5v512q0 16 10.5 26.5t26.5 10.5t26.5 -10.5t10.5 -26.5zM1317 1316q0 30 -22 51.5t-52 21.5h-490l-58 552q-2 14 -12.5 24t-23.5 10h-1q-13 0 -23.5 -8.5t-12.5 -22.5l-87 -555h-462q-30 0 -51.5 -21.5
t-21.5 -51.5q0 -140 90 -252.5t203 -112.5v-586q-60 0 -103.5 -43t-43.5 -103t43.5 -103t103.5 -43h731q60 0 103 43t43 103t-43 103t-103 43v586q113 0 203 112.5t90 252.5z" />
</svg>
