<?xml version="1.0" standalone="no"?>
<!DOCTYPE svg PUBLIC "-//W3C//DTD SVG 1.1//EN" "http://www.w3.org/Graphics/SVG/1.1/DTD/svg11.dtd" >
<svg xmlns="http://www.w3.org/2000/svg" xmlns:xlink="http://www.w3.org/1999/xlink" version="1.1" viewBox="-10 0 1556 2048">
   <path fill="currentColor"
d="M0 256h684v172h-684v-172zM852 256h684v172h-684v-172zM0 596h684v172h-684v-172zM852 596h684v172h-684v-172zM0 940h684v168h-684v-168zM852 940h684v168h-684v-168zM0 1280h684v172h-684v-172zM852 1280h684v172h-684v-172zM0 1620h684v172h-684v-172zM852 1620h684
v172h-684v-172z" />
</svg>
