<?xml version="1.0" standalone="no"?>
<!DOCTYPE svg PUBLIC "-//W3C//DTD SVG 1.1//EN" "http://www.w3.org/Graphics/SVG/1.1/DTD/svg11.dtd" >
<svg xmlns="http://www.w3.org/2000/svg" xmlns:xlink="http://www.w3.org/1999/xlink" version="1.1" viewBox="-10 0 1653 2048">
   <path fill="currentColor"
d="M668 171q-48 0 -88 8q-148 24 -276 116q-112 76 -186 184t-84 202t66 178q36 40 104 80q40 28 128 68l64 36q-164 136 -248 224q-68 72 -108 142t-40 122v8q0 96 28 148v4q48 92 144 146t232 34q188 -24 448 -172q220 -128 436 -304q116 -96 208 -192q84 -88 112 -136
q20 -40 24 -100t-12 -108q-20 -80 -136 -208t-272 -244q-168 -124 -316 -192q-104 -44 -228 -44zM760 419q32 0 56 8q84 20 168 92q92 84 80 156q-12 104 -92 150t-192 30q-48 -8 -104 -40q-60 -36 -96 -88q-44 -64 -40 -140q8 -88 80 -132q60 -36 140 -36zM756 567
q-36 0 -48 20q-52 76 16 132q4 -16 42 -14t76 16t38 30q56 -44 44 -86t-66 -70t-102 -28z" />
</svg>
