<?xml version="1.0" standalone="no"?>
<!DOCTYPE svg PUBLIC "-//W3C//DTD SVG 1.1//EN" "http://www.w3.org/Graphics/SVG/1.1/DTD/svg11.dtd" >
<svg xmlns="http://www.w3.org/2000/svg" xmlns:xlink="http://www.w3.org/1999/xlink" version="1.1" viewBox="-10 0 1724 2048">
   <path fill="currentColor"
d="M0 340q128 260 170 472t0 424t-170 472h168q132 -260 174 -472t2 -424t-168 -472h-176zM340 340q132 260 172 472t0 424t-172 472h256q308 0 588 -184q252 -160 520 -500q-268 -340 -520 -500q-280 -184 -588 -184h-256zM596 512q236 0 456 132q204 124 424 380
q-228 260 -428 380q-216 132 -452 132q192 -512 0 -1024z" />
</svg>
