<?xml version="1.0" standalone="no"?>
<!DOCTYPE svg PUBLIC "-//W3C//DTD SVG 1.1//EN" "http://www.w3.org/Graphics/SVG/1.1/DTD/svg11.dtd" >
<svg xmlns="http://www.w3.org/2000/svg" xmlns:xlink="http://www.w3.org/1999/xlink" version="1.1" viewBox="-10 0 1724 2048">
   <path fill="currentColor"
d="M852 172q168 0 326 64t278 184t184 278t64 326t-64 326t-184 278t-278 184t-326 64t-326 -64t-278 -184t-184 -278t-64 -326t64 -326t184 -278t278 -184t326 -64zM1552 1024q0 -244 -150 -432t-378 -244v164h-344v-164q-228 56 -378 244t-150 432q0 140 54 268t152 226
t226 152t268 54t268 -54t226 -152t152 -226t54 -268zM424 908q48 0 82 34t34 82t-34 82t-82 34t-82 -34t-34 -82t34 -82t82 -34zM1280 908q48 0 82 34t34 82t-34 82t-82 34t-82 -34t-34 -82t34 -82t82 -34zM540 1216q48 0 84 36t36 84t-36 82t-84 34t-82 -34t-34 -82t34 -84
t82 -36zM1164 1216q48 0 82 36t34 84t-34 82t-82 34t-84 -34t-36 -82t36 -84t84 -36zM852 1336q48 0 82 34t34 82t-34 82t-82 34t-82 -34t-34 -82t34 -82t82 -34z" />
</svg>
