<?xml version="1.0" standalone="no"?>
<!DOCTYPE svg PUBLIC "-//W3C//DTD SVG 1.1//EN" "http://www.w3.org/Graphics/SVG/1.1/DTD/svg11.dtd" >
<svg xmlns="http://www.w3.org/2000/svg" xmlns:xlink="http://www.w3.org/1999/xlink" version="1.1" viewBox="-10 0 1724 2048">
   <path fill="currentColor"
d="M384 690q-60 0 -100 -40t-40 -98t40 -98t98 -40t98 40t40 100q0 56 -40 96t-96 40zM384 170q-160 0 -272 112t-112 272q0 180 192 464q96 140 192 248l60 -72q72 -88 132 -176q84 -124 132 -232q60 -136 60 -232q0 -160 -112 -272t-272 -112zM1320 690q-56 0 -96 -40
t-40 -98t40 -98t98 -40t98 40t40 98t-40 98t-100 40zM1320 170q-160 0 -272 112t-112 272q0 180 192 464q96 140 192 248l60 -72q72 -88 132 -176q84 -124 132 -232q60 -136 60 -232q0 -160 -112 -272t-272 -112zM1320 1362q-80 0 -146 48t-94 124h-456q-36 -100 -132 -146
t-196 -10t-146 132t-10 196t132 144t196 12q52 -20 94 -62t62 -94h456q36 100 132 146t196 10t146 -132t10 -196q-28 -76 -94 -124t-150 -48zM1320 1746q-52 0 -90 -36t-38 -90t38 -92t92 -38t90 38t36 92t-36 90t-92 36z" />
</svg>
