<?xml version="1.0" standalone="no"?>
<!DOCTYPE svg PUBLIC "-//W3C//DTD SVG 1.1//EN" "http://www.w3.org/Graphics/SVG/1.1/DTD/svg11.dtd" >
<svg xmlns="http://www.w3.org/2000/svg" xmlns:xlink="http://www.w3.org/1999/xlink" version="1.1" viewBox="-10 0 1775 2048">
   <path fill="currentColor"
d="M1353 1024q0 30 -22 52l-621 622q-21 20 -52 20q-30 0 -51.5 -21t-21.5 -51v-330h-512q-30 0 -51.5 -21t-21.5 -51v-440q0 -30 21.5 -51t51.5 -21h512v-330q0 -30 21.5 -51t51.5 -21q31 0 52 20l621 622q22 22 22 52zM1755 622v804q0 90 -44 166t-119.5 120t-165.5 44
h-365q-14 0 -25.5 -11.5t-11.5 -26.5q0 -4 -1 -22.5t-0.5 -30t3.5 -26t12 -22t23 -7.5h365q76 0 129.5 -54t53.5 -130v-804q0 -76 -53.5 -130t-129.5 -54h-329q-2 0 -12.5 0.5t-15 0t-13.5 -1t-13 -3t-9.5 -6.5t-7.5 -10.5t-2 -15.5q0 -4 -1 -22.5t-0.5 -30t3.5 -26.5
t12 -23t23 -8h365q90 0 165.5 44t119.5 120t44 166z" />
</svg>
