<?xml version="1.0" standalone="no"?>
<!DOCTYPE svg PUBLIC "-//W3C//DTD SVG 1.1//EN" "http://www.w3.org/Graphics/SVG/1.1/DTD/svg11.dtd" >
<svg xmlns="http://www.w3.org/2000/svg" xmlns:xlink="http://www.w3.org/1999/xlink" version="1.1" viewBox="-10 0 1724 2048">
   <path fill="currentColor"
d="M188 172q-80 0 -134 54t-54 134v1328q0 76 56 132t132 56h1328q80 0 134 -54t54 -134v-1328q0 -76 -56 -132t-132 -56h-1328zM852 340q184 0 342 92t250 250t92 342t-92 342t-250 250t-342 92t-342 -92t-250 -250t-92 -342t92 -342t250 -250t342 -92zM532 644l-168 296
l148 84l168 -296zM1172 644l-148 84l168 296l148 -84zM768 1196v340h168v-340h-168z" />
</svg>
