<?xml version="1.0" standalone="no"?>
<!DOCTYPE svg PUBLIC "-//W3C//DTD SVG 1.1//EN" "http://www.w3.org/Graphics/SVG/1.1/DTD/svg11.dtd" >
<svg xmlns="http://www.w3.org/2000/svg" xmlns:xlink="http://www.w3.org/1999/xlink" version="1.1" viewBox="-10 0 1556 2048">
   <path fill="currentColor"
d="M172 256q-72 0 -122 50t-50 122v168h172v-168h1192v168h172v-168q0 -72 -50 -122t-122 -50h-1192zM428 596v172h680v-172h-680zM0 768v256q0 208 104 384t280 280t384 104t384 -104t280 -280t104 -384v-256h-172v256q0 164 -80 300t-216 216t-300 80t-300 -80t-216 -216
t-80 -300v-256h-172zM768 1024q-88 0 -150 62t-62 150t62 152t150 64t150 -64t62 -152t-62 -150t-150 -62z" />
</svg>
