<?xml version="1.0" standalone="no"?>
<!DOCTYPE svg PUBLIC "-//W3C//DTD SVG 1.1//EN" "http://www.w3.org/Graphics/SVG/1.1/DTD/svg11.dtd" >
<svg xmlns="http://www.w3.org/2000/svg" xmlns:xlink="http://www.w3.org/1999/xlink" version="1.1" viewBox="-10 0 1557 2048">
   <path fill="currentColor"
d="M1284 1792l-232 -404q0 -108 -58 -176t-146 -68q-56 0 -104 30t-72 78q44 -24 96 -24q84 0 142 58t58 142t-58 144t-142 60h280v160h-724q-36 0 -58 -24t-22 -58t24 -58l40 -40q-32 -16 -76 -52q-16 32 -46 52t-66 20q-48 0 -84 -36t-36 -86t36 -86t84 -36l40 8v-168
q0 -112 54 -204t148 -148t202 -56h4q56 4 152 16t124 8q44 -12 44 -64t12 -88q12 -28 36 -64q-100 -48 -208 -48q-36 0 -58 -24t-22 -54t16 -52t40 -30l-56 -4q-36 0 -60 -22t-24 -56t24 -58t60 -24h80q132 0 244 66t176 178h24q88 0 164 52l36 32q116 100 152 196
q16 52 12 84q0 80 -58 138t-142 58l-44 -4v8q0 140 -104 240l284 488h-188zM1292 660q-32 0 -56 24t-24 58t24 56t58 22t58 -22t24 -56t-24 -58t-60 -24z" />
</svg>
