<?xml version="1.0" standalone="no"?>
<!DOCTYPE svg PUBLIC "-//W3C//DTD SVG 1.1//EN" "http://www.w3.org/Graphics/SVG/1.1/DTD/svg11.dtd" >
<svg xmlns="http://www.w3.org/2000/svg" xmlns:xlink="http://www.w3.org/1999/xlink" version="1.1" viewBox="-11 0 1557 2048">
   <path fill="currentColor"
d="M852 255h-168v852h168v-852zM1264 439l-120 124q104 84 162 204t58 256q0 164 -80 300t-216 216t-300 80t-300 -80t-216 -216t-80 -300q0 -132 58 -254t162 -210l-120 -120q-160 136 -228 330t-32 394t170 360t328 226t396 32t358 -170q132 -112 202 -266t70 -322
t-70 -322t-202 -262z" />
</svg>
