<?xml version="1.0" standalone="no"?>
<!DOCTYPE svg PUBLIC "-//W3C//DTD SVG 1.1//EN" "http://www.w3.org/Graphics/SVG/1.1/DTD/svg11.dtd" >
<svg xmlns="http://www.w3.org/2000/svg" xmlns:xlink="http://www.w3.org/1999/xlink" version="1.1" viewBox="-10 0 1922 2048">
   <path fill="currentColor"
d="M523 1010q-84 -184 -84 -424h-293v108q0 43 28 90.5t76 91.5t120 80.5t153 53.5zM1755 694v-108h-292q0 238 -85 424q81 -17 153 -53.5t120 -80.5t76 -91.5t28 -90.5zM1902 548v146q0 81 -47.5 163.5t-128 149.5t-197.5 111.5t-247 51.5q-52 64 -108 108q-43 39 -60 82.5
t-17 101.5q0 63 35 105.5t111 42.5q86 0 153 51.5t67 130.5v74q0 15 -10.5 25.5t-26.5 10.5h-951q-16 0 -26 -10.5t-10 -25.5v-74q0 -79 66.5 -130.5t152.5 -51.5q76 0 111.5 -42.5t35.5 -105.5q0 -58 -17 -101.5t-60 -82.5q-59 -45 -109 -108q-130 -7 -247 -51.5
t-197.5 -111.5t-127.5 -149t-47 -164v-146q0 -45 32 -77.5t78 -32.5h329v-108q0 -76 53.5 -130t129.5 -54h658q76 0 129.5 54t53.5 130v108h329q46 0 78 32.5t32 77.5z" />
</svg>
