<?xml version="1.0" standalone="no"?>
<!DOCTYPE svg PUBLIC "-//W3C//DTD SVG 1.1//EN" "http://www.w3.org/Graphics/SVG/1.1/DTD/svg11.dtd" >
<svg xmlns="http://www.w3.org/2000/svg" xmlns:xlink="http://www.w3.org/1999/xlink" version="1.1" viewBox="-10 0 1724 2048">
   <path fill="currentColor"
d="M1108 172q164 0 300 80t216 216t80 304t-88 310t-232 218q-88 168 -256 256q-76 144 -218 232t-310 88t-304 -80t-216 -216t-80 -304t88 -310t232 -218q88 -168 256 -256q76 -144 218 -232t314 -88zM852 1620q-164 0 -300 -80t-216 -216t-80 -300q-88 112 -88 256
q0 116 58 214t156 156t214 58q144 0 256 -88zM1108 1364q-164 0 -300 -80t-216 -216t-80 -300q-88 112 -88 256q0 116 58 214t156 156t214 58q144 0 256 -88zM1108 340q-144 0 -256 88q164 0 300 80t216 216t80 300q88 -112 88 -256q0 -116 -58 -214t-156 -156t-214 -58z
M680 768q0 116 58 214t156 156t214 58q76 0 144 -28q28 -68 28 -144q0 -116 -58 -214t-156 -156t-214 -58q-76 0 -144 28q-28 68 -28 144z" />
</svg>
