<?xml version="1.0" standalone="no"?>
<!DOCTYPE svg PUBLIC "-//W3C//DTD SVG 1.1//EN" "http://www.w3.org/Graphics/SVG/1.1/DTD/svg11.dtd" >
<svg xmlns="http://www.w3.org/2000/svg" xmlns:xlink="http://www.w3.org/1999/xlink" version="1.1" viewBox="-10 0 1556 2048">
   <path fill="currentColor"
d="M1196 896l340 -340v936l-340 -340v300q0 36 -26 60t-62 24h-1024q-36 0 -60 -24t-24 -60v-856q0 -36 24 -60t60 -24h1024q36 0 62 24t26 60v300zM940 1364v-84q0 -76 -128 -128q-108 -44 -214 -44t-214 44q-128 52 -128 128v84h684zM596 684q-68 0 -118 50t-50 120
t50 120t120 50t120 -50t50 -120t-50 -120t-122 -50z" />
</svg>
