<?xml version="1.0" standalone="no"?>
<!DOCTYPE svg PUBLIC "-//W3C//DTD SVG 1.1//EN" "http://www.w3.org/Graphics/SVG/1.1/DTD/svg11.dtd" >
<svg xmlns="http://www.w3.org/2000/svg" xmlns:xlink="http://www.w3.org/1999/xlink" version="1.1" viewBox="-10 0 1775 2048">
   <path fill="currentColor"
d="M593 1372q5 -8 -3 -16q-10 -8 -16 -2q-5 8 3 16q10 8 16 2zM561 1324q-5 -7 -14 -4q-6 4 0 14q8 9 14 5.5t0 -15.5zM514 1278q3 -5 -5 -8t-10 2q-4 6 5 10q8 1 10 -4zM538 1306q2 -2 1.5 -6t-3.5 -6q-2 -4 -6 -4.5t-5 0.5q-4 4 1 12q8 8 12 4zM637 1390q2 -8 -11 -12
q-12 -3 -15 4q-2 10 11 14q12 3 15 -6zM685 1395q0 -9 -14 -9q-12 0 -12 9t13 9t13 -9zM729 1386q-2 -7 -15 -6q-12 2 -10 10q2 9 14 8q11 -2 11 -12zM1463 1024q0 -118 -46.5 -226.5t-124.5 -187.5t-186.5 -125.5t-227.5 -46.5t-227.5 46.5t-186.5 125.5t-124.5 187.5
t-46.5 226.5q0 192 112 344t288 212q20 4 30 -5.5t10 -24.5q0 -9 -2 -108q-3 1 -9 2t-23.5 2.5t-34 1.5t-38 -4t-38 -11.5t-31.5 -23t-22 -37.5q-3 -7 -8.5 -18.5t-22.5 -34.5t-34 -31q-2 -1 -5.5 -3.5t-9.5 -9t-7.5 -11.5t4.5 -8.5t22 -3.5q2 0 6 0.5t15.5 4.5t22.5 10
t23.5 18t21.5 27q18 32 43 48t50 16.5t43.5 -3.5t34.5 -11q9 -54 37 -80q-44 -5 -78.5 -14t-71 -29.5t-61 -50.5t-40.5 -80t-16 -114q0 -92 61 -158q-28 -70 5 -154q22 -7 62 8t70 33l29 19q64 -20 147 -20q82 0 146 20q13 -9 32.5 -21t63 -29t65.5 -10q34 85 6 154
q60 65 60 158q0 65 -16 114.5t-40 79.5t-61 50.5t-71.5 29.5t-78.5 14q40 35 40 108q0 47 -0.5 102.5t-0.5 57.5q0 15 10 24.5t30 5.5q176 -60 288 -212t112 -344zM1755 476v1096q0 90 -44 166t-119.5 120t-165.5 44h-1097q-90 0 -165.5 -44t-119.5 -120t-44 -166v-1096
q0 -90 44 -166t119.5 -120t165.5 -44h1097q90 0 165.5 44t119.5 120t44 166z" />
</svg>
