<?xml version="1.0" standalone="no"?>
<!DOCTYPE svg PUBLIC "-//W3C//DTD SVG 1.1//EN" "http://www.w3.org/Graphics/SVG/1.1/DTD/svg11.dtd" >
<svg xmlns="http://www.w3.org/2000/svg" xmlns:xlink="http://www.w3.org/1999/xlink" version="1.1" viewBox="-10 0 2004 2048">
   <path fill="currentColor"
d="M1588 810q84 0 164 36l232 -292q-212 -164 -468 -252t-524 -88t-524 88t-468 252q240 300 684 856l308 384l84 -108v-260q0 -60 28 -116t76 -96v-20q0 -100 56 -188t150 -142t202 -54zM992 642q-304 0 -580 156l-164 -204q344 -208 742 -208t746 208l-168 208
q-116 -68 -244 -108q-164 -52 -332 -52zM1828 1322v-128q0 -88 -74 -150t-166 -62t-164 62t-72 150v128q-40 0 -72 32t-32 72v300q0 44 32 76t72 32h468q44 0 78 -30t34 -70v-300q0 -44 -32 -78t-72 -34zM1716 1322h-256v-128q0 -48 38 -78t92 -30t90 30t36 78v128z" />
</svg>
