<?xml version="1.0" standalone="no"?>
<!DOCTYPE svg PUBLIC "-//W3C//DTD SVG 1.1//EN" "http://www.w3.org/Graphics/SVG/1.1/DTD/svg11.dtd" >
<svg xmlns="http://www.w3.org/2000/svg" xmlns:xlink="http://www.w3.org/1999/xlink" version="1.1" viewBox="-10 0 1900 2048">
   <path fill="currentColor"
d="M172 84q-72 0 -122 50t-50 122v1196q0 68 50 118t122 50h940v-168h-172v-344h400q108 -84 240 -84q64 0 128 24v-792q0 -72 -50 -122t-122 -50h-1364zM172 256h1364v684h-1364v-684zM172 1108h596v344h-596v-344zM1580 1196q-88 0 -150 62t-62 150v44q-36 0 -62 24
t-26 60v340q0 36 26 62t62 26h424q36 0 62 -26t26 -62v-340q0 -36 -26 -60t-62 -24v-44q0 -88 -62 -150t-150 -62zM1580 1280q52 0 90 38t38 90v44h-256v-44q0 -52 38 -90t90 -38z" />
</svg>
