<?xml version="1.0" standalone="no"?>
<!DOCTYPE svg PUBLIC "-//W3C//DTD SVG 1.1//EN" "http://www.w3.org/Graphics/SVG/1.1/DTD/svg11.dtd" >
<svg xmlns="http://www.w3.org/2000/svg" xmlns:xlink="http://www.w3.org/1999/xlink" version="1.1" viewBox="-10 0 1724 2048">
   <path fill="currentColor"
d="M168 512h-168v1196q0 68 50 118t118 50h1196v-168h-1196v-1196zM1536 172q68 0 118 50t50 118v1024q0 72 -50 122t-118 50h-1024q-72 0 -122 -50t-50 -122v-1024q0 -68 50 -118t122 -50h1024zM1280 596q0 -104 -76 -180t-182 -76t-180 76t-74 182t74 180t180 74t182 -74
t76 -182zM512 1280v84h1024v-84q0 -80 -96 -144q-80 -56 -208 -88q-116 -32 -210 -32t-206 32q-132 32 -212 88q-92 64 -92 144z" />
</svg>
