<?xml version="1.0" standalone="no"?>
<!DOCTYPE svg PUBLIC "-//W3C//DTD SVG 1.1//EN" "http://www.w3.org/Graphics/SVG/1.1/DTD/svg11.dtd" >
<svg xmlns="http://www.w3.org/2000/svg" xmlns:xlink="http://www.w3.org/1999/xlink" version="1.1" viewBox="-10 0 1760 2048">
   <path fill="currentColor"
d="M680 964q-48 84 -68 168q-108 8 -220 40q-96 32 -164 70t-68 66v92h452q20 84 68 164h-680v-256q0 -108 124 -192q108 -68 280 -112q152 -40 276 -40zM680 196q144 0 244 100t100 244q0 112 -72 208q-108 40 -192 124l-80 8q-140 0 -240 -100t-100 -242t100 -242
t240 -100zM680 360q-72 0 -124 52t-52 126t52 126t126 52t126 -52t52 -126t-52 -126t-128 -52zM1152 880q160 0 272 112t112 272q0 112 -60 204l264 264l-120 120l-268 -264q-92 60 -200 60q-160 0 -272 -112t-112 -272t112 -272t272 -112zM1152 1052q-88 0 -152 62t-64 150
t64 150t152 62t150 -62t62 -150t-62 -150t-150 -62z" />
</svg>
