<?xml version="1.0" standalone="no"?>
<!DOCTYPE svg PUBLIC "-//W3C//DTD SVG 1.1//EN" "http://www.w3.org/Graphics/SVG/1.1/DTD/svg11.dtd" >
<svg xmlns="http://www.w3.org/2000/svg" xmlns:xlink="http://www.w3.org/1999/xlink" version="1.1" viewBox="-10 0 1922 2048">
   <path fill="currentColor"
d="M1463 1719q0 -30 -21.5 -51.5t-51.5 -21.5t-51.5 21.5t-21.5 51.5t21.5 51.5t51.5 21.5t51.5 -21.5t21.5 -51.5zM1755 1719q0 -30 -21.5 -51.5t-51.5 -21.5t-51.5 21.5t-21.5 51.5t21.5 51.5t51.5 21.5t51.5 -21.5t21.5 -51.5zM1902 1463v366q0 46 -32 77.5t-78 31.5
h-1682q-46 0 -78 -31.5t-32 -77.5v-366q0 -46 32 -78t78 -32h488q24 65 80.5 105.5t126.5 40.5h292q70 0 126.5 -40.5t80.5 -105.5h488q46 0 78 32t32 78zM1530 722q-19 46 -67 46h-293v512q0 30 -21.5 51.5t-51.5 21.5h-292q-30 0 -52 -21.5t-22 -51.5v-512h-292
q-22 0 -41 -13t-27 -33q-19 -45 16 -79l512 -512q20 -21 52 -21q31 0 51 21l512 512q35 34 16 79z" />
</svg>
