<?xml version="1.0" standalone="no"?>
<!DOCTYPE svg PUBLIC "-//W3C//DTD SVG 1.1//EN" "http://www.w3.org/Graphics/SVG/1.1/DTD/svg11.dtd" >
<svg xmlns="http://www.w3.org/2000/svg" xmlns:xlink="http://www.w3.org/1999/xlink" version="1.1" viewBox="-10 0 1468 2048">
   <path fill="currentColor"
d="M1280 84h-856q-68 0 -118 50t-50 122v256h168v-172h856v1368h-856v-172h-168v256q0 72 50 122t118 50h856q68 0 118 -50t50 -122v-1536q0 -72 -50 -122t-118 -50zM580 940v-128q0 -88 -74 -152t-166 -64t-166 64t-74 152v128q-36 0 -68 32t-32 68v300q0 44 30 78t70 34
h472q44 0 76 -32t32 -72v-300q0 -44 -30 -76t-70 -32zM468 940h-256v-128q0 -52 38 -82t90 -30t90 30t38 82v128z" />
</svg>
