<?xml version="1.0" standalone="no"?>
<!DOCTYPE svg PUBLIC "-//W3C//DTD SVG 1.1//EN" "http://www.w3.org/Graphics/SVG/1.1/DTD/svg11.dtd" >
<svg xmlns="http://www.w3.org/2000/svg" xmlns:xlink="http://www.w3.org/1999/xlink" version="1.1" viewBox="-10 0 1044 2048">
   <path fill="currentColor"
d="M256 172v168h-144q-44 0 -78 34t-34 82v1308q0 48 34 80t78 32h800q44 0 78 -32t34 -80v-1308q0 -48 -34 -82t-78 -34h-144v-168h-512zM496 684h44l244 240l-184 184l184 184l-244 244h-44v-324l-192 196l-64 -60l240 -240l-240 -236l64 -60l192 196v-324zM584 844v164
l80 -84zM584 1212v160l80 -80z" />
</svg>
