<?xml version="1.0" standalone="no"?>
<!DOCTYPE svg PUBLIC "-//W3C//DTD SVG 1.1//EN" "http://www.w3.org/Graphics/SVG/1.1/DTD/svg11.dtd" >
<svg xmlns="http://www.w3.org/2000/svg" xmlns:xlink="http://www.w3.org/1999/xlink" version="1.1" viewBox="-10 0 1384 2048">
   <path fill="currentColor"
d="M340 84q-68 0 -118 50t-50 122v340h168v-256h856v1368h-856v-256h-168v340q0 72 50 122t118 50h856q68 0 118 -50t50 -122v-1536q0 -72 -50 -122t-118 -50h-856zM256 768q-108 0 -182 74t-74 182t74 182t182 74q84 0 148 -46t92 -126h188v172h168v-172h172v-168h-528
q-28 -80 -92 -126t-148 -46zM256 940q40 0 62 22t22 62t-22 62t-62 22t-62 -22t-22 -62t22 -62t62 -22z" />
</svg>
