<?xml version="1.0" standalone="no"?>
<!DOCTYPE svg PUBLIC "-//W3C//DTD SVG 1.1//EN" "http://www.w3.org/Graphics/SVG/1.1/DTD/svg11.dtd" >
<svg xmlns="http://www.w3.org/2000/svg" xmlns:xlink="http://www.w3.org/1999/xlink" version="1.1" viewBox="-10 0 1724 2048">
   <path fill="currentColor"
d="M768 172v84q-220 24 -392 164l-68 -64l-120 120l68 64q-144 176 -172 400h-84v168h84q28 220 172 392l-68 64l120 120l64 -64q176 144 396 172v84h168v-84q220 -28 392 -172l68 64l120 -120l-68 -64q144 -168 172 -392h84v-168h-84q-28 -224 -172 -396l68 -68l-120 -120
l-64 64q-172 -136 -396 -164v-84h-168zM768 428v256l-88 40l-184 -184q124 -92 272 -112zM936 428q152 24 276 112l-188 184l-88 -40v-256zM376 664l176 188l-40 88h-256q20 -144 116 -280zM1328 664q96 120 120 276h-256l-40 -88l180 -188h-4zM852 852q72 0 122 50t50 122
t-50 122t-122 50t-122 -50t-50 -122t50 -122t122 -50zM256 1108h256l48 88l-188 184q-92 -120 -116 -272zM1192 1108h256q-24 152 -116 272l-180 -184zM680 1324l88 40v256q-152 -24 -276 -120zM1024 1324l184 176q-136 104 -272 120v-256z" />
</svg>
