<?xml version="1.0" standalone="no"?>
<!DOCTYPE svg PUBLIC "-//W3C//DTD SVG 1.1//EN" "http://www.w3.org/Graphics/SVG/1.1/DTD/svg11.dtd" >
<svg xmlns="http://www.w3.org/2000/svg" xmlns:xlink="http://www.w3.org/1999/xlink" version="1.1" viewBox="-10 0 1774 2048">
   <path fill="currentColor"
d="M1608 944q0 -49 -8.5 -128.5t-20.5 -111.5q-19 -48 -26.5 -76.5t-7.5 -71.5q0 -26 6 -77.5t6 -76.5q0 -42 -12 -64h-15q-22 0 -66 5t-67 5q-68 0 -201 -28t-201 -28q-49 0 -107.5 13.5t-97 27t-102.5 39.5q-156 61 -231 118q-83 63 -145.5 154t-97.5 194.5t-51.5 208
t-16.5 213.5q0 46 14.5 137t14.5 137q0 27 -12.5 77t-12.5 75t13.5 41.5t38.5 16.5q28 0 83 -13t84 -13q65 0 194 18t194 18q206 0 324 -40q147 -52 269 -175t190 -280.5t68 -314.5zM1754 942q0 141 -47.5 284.5t-129.5 265t-198.5 217t-249.5 143.5q-141 50 -372 50
q-65 0 -194.5 -17t-193.5 -17q-27 0 -82.5 17t-84.5 17q-83 0 -141 -63.5t-58 -146.5q0 -28 13 -78t13 -76q0 -47 -14.5 -138.5t-14.5 -139.5q0 -126 20 -247.5t62.5 -239.5t115.5 -222t171 -179q92 -69 265 -136q107 -44 191 -67t170 -23q68 0 200 28t199 28q21 0 65 -6
t67 -6q92 0 134.5 57.5t42.5 154.5q0 25 -6 77t-6 77q0 12 1 21.5t3.5 19.5t4.5 15.5t7.5 18.5t7.5 19q18 46 28.5 136t10.5 156z" />
</svg>
