<?xml version="1.0" standalone="no"?>
<!DOCTYPE svg PUBLIC "-//W3C//DTD SVG 1.1//EN" "http://www.w3.org/Graphics/SVG/1.1/DTD/svg11.dtd" >
<svg xmlns="http://www.w3.org/2000/svg" xmlns:xlink="http://www.w3.org/1999/xlink" version="1.1" viewBox="-10 0 1629 2048">
   <path fill="currentColor"
d="M1609 1490q0 31 -11 81t-24 79q-9 19 -23.5 37t-38 34.5t-37 25t-41.5 23.5q-105 58 -212 58q-30 0 -60 -4t-65.5 -14t-55.5 -16.5t-63 -23t-56 -20.5q-110 -40 -200 -96q-146 -90 -302 -246t-246 -302q-56 -90 -95 -200q-5 -12 -21 -55.5t-22.5 -63.5t-17 -55t-14.5 -65
t-4 -61q0 -106 58 -212q16 -27 24.5 -41t25 -37t34 -38t37.5 -24q29 -12 79 -23t80 -11q16 0 24 2q23 8 61 88q12 21 50 90t60 106q4 6 20 28.5t24 39.5t8 32q0 24 -32.5 57.5t-71 62.5t-71 61t-32.5 53q0 8 3 18.5t9 22.5t10 19.5t12.5 21t10.5 16.5q86 157 198.5 269
t268.5 199q4 2 17 10t21 12.5t20 10.5t22 8.5t19 2.5q21 0 53 -32t60.5 -71t62.5 -71t57 -32q16 0 32.5 7.5t39.5 24t29 20.5q37 21 105.5 59t90.5 51q79 37 87 60q3 8 3 24z" />
</svg>
