<?xml version="1.0" standalone="no"?>
<!DOCTYPE svg PUBLIC "-//W3C//DTD SVG 1.1//EN" "http://www.w3.org/Graphics/SVG/1.1/DTD/svg11.dtd" >
<svg xmlns="http://www.w3.org/2000/svg" xmlns:xlink="http://www.w3.org/1999/xlink" version="1.1" viewBox="-10 0 1728 2048">
   <path fill="currentColor"
d="M1236 1792q-120 0 -212 -108q-76 -92 -140 -272q-40 -112 -112 -364q-84 -292 -132 -416q-88 -204 -172 -204q-128 0 -208 152q-52 112 -76 288q-16 96 -16 156h-168q0 -96 16 -212q36 -224 124 -364q120 -192 328 -192q120 0 212 108q76 92 144 276q40 112 112 360v8
q80 284 128 404q88 208 172 208q132 0 208 -152q56 -112 80 -288q12 -92 12 -156h172q0 96 -20 212q-36 224 -124 364q-120 192 -328 192z" />
</svg>
