<?xml version="1.0" standalone="no"?>
<!DOCTYPE svg PUBLIC "-//W3C//DTD SVG 1.1//EN" "http://www.w3.org/Graphics/SVG/1.1/DTD/svg11.dtd" >
<svg xmlns="http://www.w3.org/2000/svg" xmlns:xlink="http://www.w3.org/1999/xlink" version="1.1" viewBox="-10 0 1896 2048">
   <path fill="currentColor"
d="M1876 1060zM1876 1068q0 24 -56 80q-64 68 -156 128q-112 72 -232 108q-172 60 -360 52q-208 -8 -332 -96q-148 -100 -148 -292q0 -140 100 -242t244 -102t244 102t100 246q0 68 -26 132t-74 112q84 0 176 -28q156 -44 280 -148q32 -28 40 -48l4 -4v-8q0 -20 -40 -76
q-52 -68 -128 -132q-96 -84 -212 -140q-144 -72 -304 -104q196 8 372 68q152 52 276 132q104 68 172 144q60 68 60 108v8zM936 852q-80 0 -138 58t-58 140t58 138t138 56t138 -56t58 -138t-58 -140t-138 -58zM196 1052v8q4 36 52 92q68 76 180 144q152 88 360 144
q-244 -20 -440 -100q-156 -68 -260 -160q-84 -76 -88 -120v-8q0 -28 60 -92q68 -72 172 -140q124 -84 264 -136q172 -60 348 -72q-140 32 -272 100q-112 60 -204 140q-76 64 -128 128q-44 56 -44 72z" />
</svg>
