<?xml version="1.0" standalone="no"?>
<!DOCTYPE svg PUBLIC "-//W3C//DTD SVG 1.1//EN" "http://www.w3.org/Graphics/SVG/1.1/DTD/svg11.dtd" >
<svg xmlns="http://www.w3.org/2000/svg" xmlns:xlink="http://www.w3.org/1999/xlink" version="1.1" viewBox="-10 0 1724 2048">
   <path fill="currentColor"
d="M1552 1840h-280l20 -236h-136l-20 236h-568l-20 -236h-136l20 236h-280l-152 -1008l388 -624h928l388 624zM1240 520h-248l16 116h-312l16 -116h-248l-156 312l80 620h928l80 -620zM1104 1244q-16 0 -28 -42t-12 -102t12 -102t28 -42t28 42t12 102t-12 102t-28 42z
M616 1256q-16 0 -28 -42t-12 -102t12 -102t28 -42t26 42t10 102t-10 102t-26 42z" />
</svg>
