<?xml version="1.0" standalone="no"?>
<!DOCTYPE svg PUBLIC "-//W3C//DTD SVG 1.1//EN" "http://www.w3.org/Graphics/SVG/1.1/DTD/svg11.dtd" >
<svg xmlns="http://www.w3.org/2000/svg" xmlns:xlink="http://www.w3.org/1999/xlink" version="1.1" viewBox="-10 0 1213 2048">
   <path fill="currentColor"
d="M496 172l-140 212l96 64l-272 404h-12q-68 0 -118 50t-50 122q0 60 38 106t94 62l348 516h-312v168h856v-168h-344l-380 -576q40 -48 40 -108q0 -40 -16 -76l272 -404q-16 108 42 216t166 180l380 -568q-108 -72 -230 -84t-218 44zM1136 596l-140 216q44 28 96 18t80 -54
t18 -96t-54 -84z" />
</svg>
