<?xml version="1.0" standalone="no"?>
<!DOCTYPE svg PUBLIC "-//W3C//DTD SVG 1.1//EN" "http://www.w3.org/Graphics/SVG/1.1/DTD/svg11.dtd" >
<svg xmlns="http://www.w3.org/2000/svg" xmlns:xlink="http://www.w3.org/1999/xlink" version="1.1" viewBox="-11 0 1556 2048">
   <path fill="currentColor"
d="M751 1068l4 -4v-40l-4 -44l96 -68q8 -8 4 -28l-88 -148q-8 -12 -28 -8l-108 44q-32 -28 -76 -44l-16 -112q0 -20 -20 -20h-172q-24 0 -24 20l-20 112q-24 12 -72 40l-108 -44q-20 -4 -28 12l-88 148q-8 16 4 28l96 68q-4 24 -4 44l4 44l-96 68q-12 8 -4 28l88 148
q4 12 28 12l108 -44q36 24 76 40l16 112q0 20 24 20h172q20 0 24 -20l16 -112q28 -12 72 -40l112 44q16 4 24 -12l92 -148q4 -16 -8 -28zM427 1172q-64 0 -108 -42t-44 -106t44 -106t108 -42t108 42t44 106t-44 106t-108 42zM1367 84h-856q-68 0 -118 50t-50 122v256h168
v-172h856v1368h-856v-172h-168v256q0 72 50 122t118 50h856q68 0 118 -50t50 -122v-1536q0 -72 -50 -122t-118 -50z" />
</svg>
