<?xml version="1.0" standalone="no"?>
<!DOCTYPE svg PUBLIC "-//W3C//DTD SVG 1.1//EN" "http://www.w3.org/Graphics/SVG/1.1/DTD/svg11.dtd" >
<svg xmlns="http://www.w3.org/2000/svg" xmlns:xlink="http://www.w3.org/1999/xlink" version="1.1" viewBox="-10 0 1724 2048">
   <path fill="currentColor"
d="M468 172q-128 0 -236 62t-170 170t-62 236v44h168v-44q0 -124 88 -212t212 -88q96 0 170 54t110 138q-52 -20 -108 -20q-88 0 -162 46t-110 126l148 84q16 -36 48 -60t76 -24q52 0 90 36t38 92v128h168v-128q0 -56 38 -92t90 -36q44 0 76 24t48 60l148 -84
q-36 -80 -110 -126t-162 -46q-56 0 -108 20q36 -84 110 -138t170 -54q124 0 212 88t88 212v44h168v-44q0 -92 -36 -178t-102 -152t-152 -102t-178 -36q-116 0 -218 54t-166 146q-64 -92 -166 -146t-218 -54zM340 1024v172h120q32 72 90 128t130 88v208h-680l120 180
q24 36 60 56t80 20h1184q44 0 80 -20t60 -56l120 -180h-680v-208q72 -32 130 -88t90 -128h120v-172h-1024z" />
</svg>
