<?xml version="1.0" standalone="no"?>
<!DOCTYPE svg PUBLIC "-//W3C//DTD SVG 1.1//EN" "http://www.w3.org/Graphics/SVG/1.1/DTD/svg11.dtd" >
<svg xmlns="http://www.w3.org/2000/svg" xmlns:xlink="http://www.w3.org/1999/xlink" version="1.1" viewBox="-10 0 1642 2048">
   <path fill="currentColor"
d="M1064 172l-128 128l128 128l128 -128zM724 256q-32 184 48 304q68 108 204 142t278 -16t238 -174l-172 -128q-36 52 -104 92q-80 48 -164 52q-96 4 -176 -56q-92 -68 -152 -216zM552 596q-108 0 -256 64q-76 32 -128 64l128 216q64 -64 170 -92t168 4t58 74t-56 76
t-124 44t-132 -22v300q120 -60 224 -44q88 20 124 84t-4 128q-92 136 -216 140q-108 4 -224 -92q-100 -84 -172 -208t-72 -224q-80 240 0 428q68 160 228 256q140 84 284 84q208 0 292 -136q96 -160 8 -460h128q-48 140 4 272q44 128 152 192t220 20q128 -48 220 -228
q36 -68 44 -184q8 -128 -24 -244q-36 -132 -116 -208q-96 -88 -244 -88q-112 0 -188 68q-44 40 -104 144q-40 68 -60 92q-36 44 -84 56t-120 -20q140 -140 156 -276q16 -120 -68 -200t-216 -80zM1404 1024q72 72 64 176q-8 88 -70 170t-142 116t-132 -10q-60 -52 -60 -196
q0 -88 52 -172t124 -112q84 -32 164 28z" />
</svg>
