<?xml version="1.0" standalone="no"?>
<!DOCTYPE svg PUBLIC "-//W3C//DTD SVG 1.1//EN" "http://www.w3.org/Graphics/SVG/1.1/DTD/svg11.dtd" >
<svg xmlns="http://www.w3.org/2000/svg" xmlns:xlink="http://www.w3.org/1999/xlink" version="1.1" viewBox="-10 0 1724 2048">
   <path fill="currentColor"
d="M168 428q-68 0 -118 50t-50 118v856q0 68 50 118t118 50h1368q68 0 118 -50t50 -118v-856q0 -68 -50 -118t-118 -50h-1368zM168 596h1368v856h-1368v-856zM256 684v168h168v-168h-168zM512 684v168h168v-168h-168zM768 684v168h168v-168h-168zM1024 684v168h168v-168
h-168zM1280 684v168h168v-168h-168zM256 940v168h168v-168h-168zM512 940v168h168v-168h-168zM768 940v168h168v-168h-168zM1024 940v168h168v-168h-168zM1280 940v168h168v-168h-168zM512 1196v168h680v-168h-680z" />
</svg>
