<?xml version="1.0" standalone="no"?>
<!DOCTYPE svg PUBLIC "-//W3C//DTD SVG 1.1//EN" "http://www.w3.org/Graphics/SVG/1.1/DTD/svg11.dtd" >
<svg xmlns="http://www.w3.org/2000/svg" xmlns:xlink="http://www.w3.org/1999/xlink" version="1.1" viewBox="-10 0 1724 2048">
   <path fill="currentColor"
d="M876 172h-24q-168 0 -326 64t-278 184t-184 278t-64 326t64 326t184 278t278 184t332 64t310 -56q108 -48 240 -156q-228 64 -444 -16q-200 -72 -326 -242t-126 -382t126 -382t326 -242q216 -80 444 -16q-108 -104 -244 -160t-288 -52zM1260 528l-128 300l-316 24
l248 216l-76 296l272 -168l276 168l-88 -296l256 -216l-316 -24z" />
</svg>
