<?xml version="1.0" standalone="no"?>
<!DOCTYPE svg PUBLIC "-//W3C//DTD SVG 1.1//EN" "http://www.w3.org/Graphics/SVG/1.1/DTD/svg11.dtd" >
<svg xmlns="http://www.w3.org/2000/svg" xmlns:xlink="http://www.w3.org/1999/xlink" version="1.1" viewBox="-10 0 1756 2048">
   <path fill="currentColor"
d="M512 512q-140 0 -258 68t-186 186t-68 258v408q0 44 30 74t70 30h240v-340h-172v-172q0 -140 100 -240t242 -100t242 100t100 240v172h-172v340h240q44 0 74 -30t30 -74v-408q0 -140 -70 -258t-188 -186t-254 -68zM1448 596v324l-196 -196l-60 60l240 240l-240 240l60 60
l196 -196v324h44l244 -244l-184 -184l184 -184l-244 -244h-44zM1536 760l80 80l-80 80v-160zM1536 1128l80 80l-80 80v-160z" />
</svg>
