<?xml version="1.0" standalone="no"?>
<!DOCTYPE svg PUBLIC "-//W3C//DTD SVG 1.1//EN" "http://www.w3.org/Graphics/SVG/1.1/DTD/svg11.dtd" >
<svg xmlns="http://www.w3.org/2000/svg" xmlns:xlink="http://www.w3.org/1999/xlink" version="1.1" viewBox="-10 0 1508 2048">
   <path fill="currentColor"
d="M744 172l-248 424h-496l256 428l-256 428h496l248 424l248 -424h496l-256 -428l256 -428h-496zM744 428l104 168h-208zM420 724l-96 172l-100 -172h196zM572 724h344l168 300l-168 300h-344l-168 -300zM1256 724l-104 172l-92 -172h196zM324 1152l96 172h-188zM1164 1152
l100 172h-196zM856 1452l-112 168l-104 -168h216z" />
</svg>
