<?xml version="1.0" standalone="no"?>
<!DOCTYPE svg PUBLIC "-//W3C//DTD SVG 1.1//EN" "http://www.w3.org/Graphics/SVG/1.1/DTD/svg11.dtd" >
<svg xmlns="http://www.w3.org/2000/svg" xmlns:xlink="http://www.w3.org/1999/xlink" version="1.1" viewBox="-10 0 1760 2048">
   <path fill="currentColor"
d="M1152 172q160 0 272 112t112 272q0 112 -60 204l264 264l-120 120l-268 -264q-92 60 -200 60q-160 0 -272 -112t-112 -272t112 -272t272 -112zM1152 340q-88 0 -152 64t-64 152t64 150t152 62t150 -62t62 -150t-62 -152t-150 -64zM468 1236l-300 384h1196l-384 -512
l-300 384zM1536 1708q0 68 -50 118t-122 50h-1196q-68 0 -118 -50t-50 -118v-1196q0 -72 50 -122t118 -50h472q-44 104 -44 216q0 148 74 276t202 202t280 74q84 0 164 -24l220 216v408z" />
</svg>
