<?xml version="1.0" standalone="no"?>
<!DOCTYPE svg PUBLIC "-//W3C//DTD SVG 1.1//EN" "http://www.w3.org/Graphics/SVG/1.1/DTD/svg11.dtd" >
<svg xmlns="http://www.w3.org/2000/svg" xmlns:xlink="http://www.w3.org/1999/xlink" version="1.1" viewBox="-10 0 1728 2048">
   <path fill="currentColor"
d="M1024 1536v172h684v-172h-684zM868 1736l-356 -124l-456 176q-4 4 -12 4q-20 0 -32 -12t-12 -32v-1288q0 -32 32 -40l480 -164l512 180l456 -180h12q20 0 32 12t12 32v840q-84 -32 -172 -32q-196 0 -340 132v-636l-512 -176v1016l344 120q-4 20 -4 56q0 56 16 116z" />
</svg>
