<?xml version="1.0" standalone="no"?>
<!DOCTYPE svg PUBLIC "-//W3C//DTD SVG 1.1//EN" "http://www.w3.org/Graphics/SVG/1.1/DTD/svg11.dtd" >
<svg xmlns="http://www.w3.org/2000/svg" xmlns:xlink="http://www.w3.org/1999/xlink" version="1.1" viewBox="-10 0 1556 2048">
   <path fill="currentColor"
d="M1492 256l-12 4l-456 176l-512 -180l-480 164q-32 8 -32 40v1288q0 20 12 32t32 12l12 -4l456 -176l512 180l480 -164q32 -8 32 -40v-1288q0 -20 -12 -32t-32 -12zM596 468l344 120v992l-344 -120v-992zM172 552l256 -88v1000l-256 100v-1012zM1364 1496l-256 88v-1000
l256 -96v1008z" />
</svg>
