<?xml version="1.0" standalone="no"?>
<!DOCTYPE svg PUBLIC "-//W3C//DTD SVG 1.1//EN" "http://www.w3.org/Graphics/SVG/1.1/DTD/svg11.dtd" >
<svg xmlns="http://www.w3.org/2000/svg" xmlns:xlink="http://www.w3.org/1999/xlink" version="1.1" viewBox="-10 0 1928 2048">
   <path fill="currentColor"
d="M1624 594h40l244 244l-184 184l184 184l-244 244h-40v-324l-196 196l-60 -60l236 -240l-236 -240l60 -60l196 196v-324zM1708 758v160l80 -80zM1708 1126v160l80 -80zM1196 766v84h-512v-676q144 20 260 104t184 212t68 276zM0 850v-84q0 -148 68 -276t186 -212t258 -104
v676h-512zM1196 1278q0 164 -80 300t-218 216t-300 80t-298 -80t-218 -216t-82 -300v-256h1196v256z" />
</svg>
