<?xml version="1.0" standalone="no"?>
<!DOCTYPE svg PUBLIC "-//W3C//DTD SVG 1.1//EN" "http://www.w3.org/Graphics/SVG/1.1/DTD/svg11.dtd" >
<svg xmlns="http://www.w3.org/2000/svg" xmlns:xlink="http://www.w3.org/1999/xlink" version="1.1" viewBox="-10 0 1775 2048">
   <path fill="currentColor"
d="M1463 1364q0 -12 -2 -18t-20.5 -19t-46.5 -29t-54 -30.5t-52.5 -28.5t-32.5 -17q-4 -3 -21 -14.5t-29 -17.5t-24 -6q-17 0 -41.5 23.5t-45.5 51.5t-44.5 51.5t-38.5 23.5q-10 0 -22 -5t-29.5 -15.5t-20.5 -11.5q-113 -64 -194 -145t-145 -195q-2 -3 -12.5 -20.5t-15 -29
t-4.5 -22.5q0 -14 23.5 -37.5t51.5 -44.5t51.5 -45.5t23.5 -40.5q0 -12 -6 -24.5t-17.5 -29.5t-14.5 -22q-3 -6 -17 -32t-28.5 -52t-30 -54t-28.5 -46.5t-19 -19.5q-9 -4 -19 -4q-21 0 -57 9t-58 17q-53 24 -91.5 108t-38.5 150q0 22 2.5 43t10.5 48t12 38.5t17 46.5t15 40
q45 124 142.5 249t222.5 223t248 142q9 4 35 13.5t37 13.5t34 11.5t38 10.5t35 6t39 3q65 0 149 -39.5t108 -92.5q9 -21 17 -57t8 -57zM1755 476v1096q0 90 -44 166t-119.5 120t-165.5 44h-1097q-90 0 -165.5 -44t-119.5 -120t-44 -166v-1096q0 -90 44 -166t119.5 -120
t165.5 -44h1097q90 0 165.5 44t119.5 120t44 166z" />
</svg>
