<?xml version="1.0" standalone="no"?>
<!DOCTYPE svg PUBLIC "-//W3C//DTD SVG 1.1//EN" "http://www.w3.org/Graphics/SVG/1.1/DTD/svg11.dtd" >
<svg xmlns="http://www.w3.org/2000/svg" xmlns:xlink="http://www.w3.org/1999/xlink" version="1.1" viewBox="-10 0 1760 2048">
   <path fill="currentColor"
d="M1152 964q160 0 272 112t112 272q0 112 -60 204l264 264l-120 120l-268 -264q-92 60 -200 60q-160 0 -272 -112t-112 -272t112 -272t272 -112zM1152 1136q-88 0 -152 62t-64 150t64 150t152 62t150 -62t62 -150t-62 -150t-150 -62zM1024 460l-512 -180v1016l84 28v24
q0 80 24 156l-108 -36l-456 176l-16 4q-16 0 -28 -14t-12 -30v-1292q0 -28 28 -40l484 -160l512 176l456 -176h12q16 0 30 12t14 28v796q-76 -72 -176 -114t-208 -42q-64 0 -128 16v-348z" />
</svg>
