<?xml version="1.0" standalone="no"?>
<!DOCTYPE svg PUBLIC "-//W3C//DTD SVG 1.1//EN" "http://www.w3.org/Graphics/SVG/1.1/DTD/svg11.dtd" >
<svg xmlns="http://www.w3.org/2000/svg" xmlns:xlink="http://www.w3.org/1999/xlink" version="1.1" viewBox="-10 0 1821 2048">
   <path fill="currentColor"
d="M1801 466q-76 111 -185 192q1 16 1 48q0 105 -22 211.5t-67.5 209.5t-109.5 196.5t-153 172.5t-193 136.5t-233.5 90.5t-271.5 33q-309 0 -567 -166q50 4 89 4q127 0 244.5 -41t214.5 -117q-120 -2 -214.5 -73.5t-130.5 -182.5q46 6 69 6q47 0 97 -12
q-128 -26 -212 -127.5t-84 -234.5v-6q80 45 167 48q-76 -51 -120 -132t-44 -176q0 -100 50 -186q138 171 336 273t425 113q-9 -40 -9 -84q0 -100 49 -185t134 -135t186 -50q78 0 148.5 31.5t121.5 86.5q124 -24 234 -90q-41 131 -162 204q109 -12 212 -58z" />
</svg>
