<?xml version="1.0" standalone="no"?>
<!DOCTYPE svg PUBLIC "-//W3C//DTD SVG 1.1//EN" "http://www.w3.org/Graphics/SVG/1.1/DTD/svg11.dtd" >
<svg xmlns="http://www.w3.org/2000/svg" xmlns:xlink="http://www.w3.org/1999/xlink" version="1.1" viewBox="-10 0 1812 2048">
   <path fill="currentColor"
d="M1324 1598v280h-856v-280q0 -88 126 -150t302 -62t302 62t126 150zM896 510q152 0 278 76t202 202t76 282t-84 288l-132 -116q44 -84 44 -176q0 -160 -112 -272t-272 -112t-272 112t-112 272q0 92 44 176l-132 116q-84 -132 -84 -288t76 -282t202 -202t278 -76zM896 170
q244 0 450 120t326 326t120 450q0 288 -168 520l-128 -112q124 -184 124 -408q0 -144 -54 -278t-156 -236t-236 -156t-278 -54t-278 54t-236 156t-156 236t-54 278q0 224 124 408l-128 112q-168 -232 -168 -520q0 -244 120 -450t326 -326t450 -120zM896 854q88 0 150 62
t62 150t-62 150t-150 62t-150 -62t-62 -150t62 -150t150 -62z" />
</svg>
