<?xml version="1.0" standalone="no"?>
<!DOCTYPE svg PUBLIC "-//W3C//DTD SVG 1.1//EN" "http://www.w3.org/Graphics/SVG/1.1/DTD/svg11.dtd" >
<svg xmlns="http://www.w3.org/2000/svg" xmlns:xlink="http://www.w3.org/1999/xlink" version="1.1" viewBox="-10 0 1556 2048">
   <path fill="currentColor"
d="M768 84l-768 344v512q0 232 100 448t276 368t392 208q216 -56 392 -208t276 -368t100 -448v-512zM768 596q92 0 166 64t74 152v128q40 0 70 32t30 76v300q0 40 -32 72t-76 32h-472q-40 0 -70 -34t-30 -78v-300q0 -36 32 -68t68 -32v-128q0 -88 74 -152t166 -64zM768 700
q-52 0 -90 30t-38 82v128h256v-128q0 -52 -38 -82t-90 -30z" />
</svg>
