<?xml version="1.0" standalone="no"?>
<!DOCTYPE svg PUBLIC "-//W3C//DTD SVG 1.1//EN" "http://www.w3.org/Graphics/SVG/1.1/DTD/svg11.dtd" >
<svg xmlns="http://www.w3.org/2000/svg" xmlns:xlink="http://www.w3.org/1999/xlink" version="1.1" viewBox="-10 0 1212 2048">
   <path fill="currentColor"
d="M0 256v1536h512v-300h168v300h512v-1536h-1192zM168 428h172v168h-172v-168zM512 428h168v168h-168v-168zM852 428h172v168h-172v-168zM168 768h172v172h-172v-172zM512 768h168v172h-168v-172zM852 768h172v172h-172v-172zM168 1108h172v172h-172v-172zM512 1108h168
v172h-168v-172zM852 1108h172v172h-172v-172zM168 1452h172v168h-172v-168zM852 1452h172v168h-172v-168z" />
</svg>
