<?xml version="1.0" standalone="no"?>
<!DOCTYPE svg PUBLIC "-//W3C//DTD SVG 1.1//EN" "http://www.w3.org/Graphics/SVG/1.1/DTD/svg11.dtd" >
<svg xmlns="http://www.w3.org/2000/svg" xmlns:xlink="http://www.w3.org/1999/xlink" version="1.1" viewBox="-10 0 1556 2048">
   <path fill="currentColor"
d="M1452 1708q36 0 60 24t24 60t-24 60t-60 24t-62 -24t-26 -60t26 -60t62 -24zM1108 1708q36 0 62 24t26 60t-26 60t-62 24t-60 -24t-24 -60t24 -60t60 -24zM768 1708q36 0 60 24t24 60t-24 60t-60 24t-60 -24t-24 -60t24 -60t60 -24zM428 1708q36 0 60 24t24 60t-24 60
t-60 24t-62 -24t-26 -60t26 -60t62 -24zM84 1708q36 0 62 24t26 60t-26 60t-62 24t-60 -24t-24 -60t24 -60t60 -24zM256 1452q36 0 60 24t24 60t-24 60t-60 24t-60 -24t-24 -60t24 -60t60 -24zM596 1452q36 0 62 24t26 60t-26 60t-62 24t-60 -24t-24 -60t24 -60t60 -24z
M940 1452q36 0 60 24t24 60t-24 60t-60 24t-62 -24t-26 -60t26 -60t62 -24zM1280 1452q36 0 60 24t24 60t-24 60t-60 24t-60 -24t-24 -60t24 -60t60 -24zM428 1196q36 0 60 24t24 60t-24 60t-60 24t-62 -24t-26 -60t26 -60t62 -24zM768 1196q36 0 60 24t24 60t-24 60t-60 24
t-60 -24t-24 -60t24 -60t60 -24zM1108 1196q36 0 62 24t26 60t-26 60t-62 24t-60 -24t-24 -60t24 -60t60 -24zM1364 1024h-1192v-172h1192v172zM1272 768h-1008q24 -160 142 -276t278 -144v-176h168v176q160 28 278 144t142 276z" />
</svg>
