<?xml version="1.0" standalone="no"?>
<!DOCTYPE svg PUBLIC "-//W3C//DTD SVG 1.1//EN" "http://www.w3.org/Graphics/SVG/1.1/DTD/svg11.dtd" >
<svg xmlns="http://www.w3.org/2000/svg" xmlns:xlink="http://www.w3.org/1999/xlink" version="1.1" viewBox="-10 0 1724 2048">
   <path fill="currentColor"
d="M596 470v84h512v-84h-512zM1704 1578q0 68 -50 120t-118 52h-1368q-68 0 -118 -52t-50 -120v-340h424v84h172v-84h512v84h172v-84h424v340zM212 658q44 -104 156 -104h56v-84q0 -72 50 -122t122 -50h512q72 0 122 50t50 122v84h56q112 0 156 104l176 408h-388v-84h-172
v84h-512v-84h-172v84h-388z" />
</svg>
