<?xml version="1.0" standalone="no"?>
<!DOCTYPE svg PUBLIC "-//W3C//DTD SVG 1.1//EN" "http://www.w3.org/Graphics/SVG/1.1/DTD/svg11.dtd" >
<svg xmlns="http://www.w3.org/2000/svg" xmlns:xlink="http://www.w3.org/1999/xlink" version="1.1" viewBox="-10 0 1984 2048">
   <path fill="currentColor"
d="M172 256h1452q68 0 118 50t50 122v172h-340v-172h-1108v1024h768v172h-940q-72 0 -122 -50t-50 -122v-1024q0 -72 50 -122t122 -50zM1368 768h512q36 0 60 26t24 62v852q0 36 -24 60t-60 24h-512q-36 0 -62 -24t-26 -60v-852q0 -36 26 -62t62 -26zM1452 940v596h340v-596
h-340z" />
</svg>
