<?xml version="1.0" standalone="no"?>
<!DOCTYPE svg PUBLIC "-//W3C//DTD SVG 1.1//EN" "http://www.w3.org/Graphics/SVG/1.1/DTD/svg11.dtd" >
<svg xmlns="http://www.w3.org/2000/svg" xmlns:xlink="http://www.w3.org/1999/xlink" version="1.1" viewBox="-10 0 1724 2048">
   <path fill="currentColor"
d="M0 172v168h424v344h-424v168h424q72 0 122 -50t50 -118v-88h428v856h-428v-88q0 -68 -50 -118t-122 -50h-424v168h424v344h-424v168h424q72 0 122 -50t50 -118v-88h428q68 0 118 -50t50 -118v-344h512v-168h-512v-344q0 -68 -50 -118t-118 -50h-428v-88q0 -68 -50 -118
t-122 -50h-424z" />
</svg>
