<?xml version="1.0" standalone="no"?>
<!DOCTYPE svg PUBLIC "-//W3C//DTD SVG 1.1//EN" "http://www.w3.org/Graphics/SVG/1.1/DTD/svg11.dtd" >
<svg xmlns="http://www.w3.org/2000/svg" xmlns:xlink="http://www.w3.org/1999/xlink" version="1.1" viewBox="-10 0 1724 2048">
   <path fill="currentColor"
d="M0 1024q0 168 64 326t184 278t278 184t326 64t326 -64t278 -184t184 -278t64 -326t-64 -326t-184 -278t-278 -184t-326 -64t-326 64t-278 184t-184 278t-64 326zM276 1600q-116 -116 -178 -264t-62 -312t62 -312t178 -264t264 -178t312 -62t312 62t264 178t178 264
t62 312t-62 312t-178 264t-264 178t-312 62t-312 -62t-264 -178zM368 812q-56 64 -92 136q-28 56 -40 116q-8 40 -8 76l4 28l16 -32q24 -44 52 -84q40 -60 92 -112q72 -72 124 -72q20 0 32 12t12 28v396q0 48 -48 48q-20 0 -40 -8q72 104 244 160q84 28 152 32l124 -128h4
l112 96q92 -52 168 -144q56 -64 100 -140l36 -60q-112 120 -184 116q-32 0 -44 -16l-4 -256q0 -244 4 -244q24 -40 88 -124l60 -76q-92 20 -176 64q-64 36 -112 76l-36 40q-24 -16 -68 -24h-36q24 16 44 48t20 64v424l-44 28q-48 32 -84 32t-60 -32l-12 -16v-524
q-12 12 -30 10t-28 -22t-10 -62t28 -82q20 -28 52 -56l28 -20q-112 32 -208 92q-108 72 -232 212z" />
</svg>
