<?xml version="1.0" standalone="no"?>
<!DOCTYPE svg PUBLIC "-//W3C//DTD SVG 1.1//EN" "http://www.w3.org/Graphics/SVG/1.1/DTD/svg11.dtd" >
<svg xmlns="http://www.w3.org/2000/svg" xmlns:xlink="http://www.w3.org/1999/xlink" version="1.1" viewBox="-10 0 1775 2048">
   <path fill="currentColor"
d="M878 168q119 0 233 31.5t210 88t177 137.5t137.5 177.5t88 210t31.5 233.5q0 190 -77 360t-213 292t-310 181q-31 5 -45.5 -8.5t-14.5 -34.5q0 -4 0.5 -87.5t0.5 -153.5q0 -112 -59 -162q46 -5 84 -13t80.5 -23.5t75.5 -37t64 -55t51.5 -75.5t33 -100.5t12.5 -128.5
q0 -135 -91 -236q5 -14 9 -31t7.5 -48t-2.5 -71.5t-23 -82.5q-16 -5 -36.5 -2.5t-43.5 10.5t-45.5 18t-43.5 21.5t-37 21t-25 16.5l-10 6q-111 -30 -219 -30q-109 0 -220 30q-7 -5 -18.5 -12.5t-44.5 -26t-62 -31t-62.5 -20.5t-53.5 -1q-17 42 -23 82.5t-2.5 71.5t7.5 48
t9 31q-90 99 -90 236q0 70 12 128.5t32.5 100.5t51.5 75.5t64.5 54.5t75.5 37t80.5 24t83.5 13q-45 41 -56 118q-19 8 -39 14t-50 8.5t-57.5 -4.5t-57 -30t-51.5 -61q-13 -23 -32 -41t-36.5 -27t-33 -15t-24.5 -7l-9 -1q-24 0 -33.5 5t-6 13t11 16t14.5 14l8 6
q25 11 49.5 43t35.5 59l12 26q14 44 50 71t76.5 33.5t79.5 7.5t64 -4l26 -4q0 43 1 100.5t1 62.5q0 20 -15 34t-46 9q-174 -59 -310 -181t-213 -292t-77 -360q0 -120 31.5 -233.5t88 -210t137.5 -177.5t177.5 -137.5t210.5 -88t233 -31.5zM333 1428q3 -8 -8 -13
q-11 -3 -15 2q-4 9 8 14q12 6 15 -3zM368 1467q9 -6 -2 -18q-11 -11 -19 -3q-8 5 3 18q10 10 18 3zM402 1519q10 -9 0 -22q-9 -15 -19 -7q-5 2 -5 8.5t5 12.5q10 13 19 8zM450 1567q9 -9 -4 -22q-14 -14 -23 -3q-10 8 4 21q14 14 23 4zM515.5 1595q1.5 -5 -3 -10.5
t-11.5 -7.5t-14 0.5t-8.5 7.5t3.5 10t12 7t13.5 0t8 -7zM587 1601q0 -6 -5.5 -10t-13.5 -3q-7 0 -12.5 4t-5.5 9q0 6 5.5 10t13.5 3q7 0 12.5 -4t5.5 -9zM654 1590q-1 -5 -7 -8.5t-14 -2.5q-18 3 -16 17q1 5 7.5 8t13.5 1.5t12 -6t4 -9.5z" />
</svg>
