<?xml version="1.0" standalone="no"?>
<!DOCTYPE svg PUBLIC "-//W3C//DTD SVG 1.1//EN" "http://www.w3.org/Graphics/SVG/1.1/DTD/svg11.dtd" >
<svg xmlns="http://www.w3.org/2000/svg" xmlns:xlink="http://www.w3.org/1999/xlink" version="1.1" viewBox="-10 0 1556 2048">
   <path fill="currentColor"
d="M852 812h428v-172h-428v172zM852 1408h428v-172h-428v172zM1364 1792h-1192q-72 0 -122 -50t-50 -122v-1192q0 -72 50 -122t122 -50h1192q72 0 122 50t50 122v1192q0 72 -50 122t-122 50zM256 940h428v-428h-428v428zM340 596h256v256h-256v-256zM256 1536h428v-428h-428
v428zM340 1196h256v256h-256v-256z" />
</svg>
