<?xml version="1.0" standalone="no"?>
<!DOCTYPE svg PUBLIC "-//W3C//DTD SVG 1.1//EN" "http://www.w3.org/Graphics/SVG/1.1/DTD/svg11.dtd" >
<svg xmlns="http://www.w3.org/2000/svg" xmlns:xlink="http://www.w3.org/1999/xlink" version="1.1" viewBox="-10 0 1724 2048">
   <path fill="currentColor"
d="M168 428q-68 0 -118 50t-50 118v856q0 68 50 118t118 50h1368q68 0 118 -50t50 -118v-856q0 -68 -50 -118t-118 -50h-1368zM512 768q140 0 240 100t100 242t-100 242t-242 100t-242 -100t-100 -242t100 -242t244 -100zM936 768h600v684h-600v-684zM512 940q-72 0 -122 50
t-50 120t50 120t120 50t120 -50t50 -120t-50 -120t-118 -50z" />
</svg>
