<?xml version="1.0" standalone="no"?>
<!DOCTYPE svg PUBLIC "-//W3C//DTD SVG 1.1//EN" "http://www.w3.org/Graphics/SVG/1.1/DTD/svg11.dtd" >
<svg xmlns="http://www.w3.org/2000/svg" xmlns:xlink="http://www.w3.org/1999/xlink" version="1.1" viewBox="-10 0 1556 2048">
   <path fill="currentColor"
d="M852 640h428v172h-428v-172zM852 1236h428v172h-428v-172zM1364 256q72 0 122 50t50 122v1192q0 72 -50 122t-122 50h-1192q-72 0 -122 -50t-50 -122v-1192q0 -72 50 -122t122 -50h1192zM1364 1620v-1192h-1192v1192h1192zM684 512v428h-428v-428h428zM596 852v-256h-256
v256h256zM684 1108v428h-428v-428h428zM596 1452v-256h-256v256h256z" />
</svg>
