<?xml version="1.0" standalone="no"?>
<!DOCTYPE svg PUBLIC "-//W3C//DTD SVG 1.1//EN" "http://www.w3.org/Graphics/SVG/1.1/DTD/svg11.dtd" >
<svg xmlns="http://www.w3.org/2000/svg" xmlns:xlink="http://www.w3.org/1999/xlink" version="1.1" viewBox="-10 0 1922 2048">
   <path fill="currentColor"
d="M1902 732v292q0 30 -21.5 52t-51.5 22h-74q-30 0 -51.5 -22t-21.5 -52v-292q0 -121 -85.5 -207.5t-206.5 -86.5t-207 86.5t-86 207.5v218h110q46 0 78 32.5t32 77.5v658q0 46 -32 78t-78 32h-1097q-46 0 -78 -32t-32 -78v-658q0 -45 32 -77.5t78 -32.5h768v-218
q0 -104 40.5 -199t109.5 -163.5t163.5 -109t198.5 -40.5t198.5 40.5t163.5 109t109.5 163.5t40.5 199z" />
</svg>
