<?xml version="1.0" standalone="no"?>
<!DOCTYPE svg PUBLIC "-//W3C//DTD SVG 1.1//EN" "http://www.w3.org/Graphics/SVG/1.1/DTD/svg11.dtd" >
<svg xmlns="http://www.w3.org/2000/svg" xmlns:xlink="http://www.w3.org/1999/xlink" version="1.1" viewBox="-10 0 1556 2048">
   <path fill="currentColor"
d="M1364 1708v-940h-1192v940h1192zM1108 172h172v168h84q72 0 122 50t50 122v1196q0 68 -50 118t-122 50h-1192q-72 0 -122 -50t-50 -118v-1196q0 -72 50 -122t122 -50h84v-168h172v168h680v-168zM768 1552l-48 -48h-4q-160 -144 -208 -208q-80 -96 -80 -180t54 -138
t134 -54q92 0 152 72q60 -72 152 -72q80 0 134 54t54 138t-80 180q-48 64 -208 208z" />
</svg>
