<?xml version="1.0" standalone="no"?>
<!DOCTYPE svg PUBLIC "-//W3C//DTD SVG 1.1//EN" "http://www.w3.org/Graphics/SVG/1.1/DTD/svg11.dtd" >
<svg xmlns="http://www.w3.org/2000/svg" xmlns:xlink="http://www.w3.org/1999/xlink" version="1.1" viewBox="-11 0 1767 2048">
   <path fill="currentColor"
d="M1681 1142q4 100 -38 190t-122 150l64 124q32 64 6 126t-90 86l-68 20q-20 8 -48 8q-68 0 -112 -56l-180 -212q-116 -20 -208 -92q-64 16 -128 16q-116 0 -212 -64q-68 20 -140 16q-100 4 -194 -38t-150 -124t-60 -182q-8 -96 32 -180q-40 -100 -8 -200q48 -124 168 -192
q36 -108 130 -172t210 -56q104 -96 244 -106t252 74q56 -16 112 -16q88 0 166 36t134 104q128 36 214 140t90 240q8 148 -72 268q8 48 8 92zM1253 1022q40 4 64 30t24 62t-24 60t-60 24h-56q-40 120 -136 196l64 20q268 -4 352 -132q44 -68 36 -144v-4q-4 -88 -72 -152
t-160 -60q-32 0 -58 -24t-26 -60t26 -60t58 -24q164 4 288 108q4 -36 4 -76q-4 -88 -52 -140q-60 -60 -192 -76q-36 -84 -104 -120q-56 -32 -124 -20q-60 12 -104 44t-44 64q0 12 8 36t12 28q36 0 62 24t26 60t-26 62t-62 26q-68 -4 -120 -48q-60 40 -136 48q-36 0 -64 -22
t-30 -56t20 -62t58 -32q24 -4 44 -12q36 -20 36 -52q0 -88 56 -156q-128 -32 -248 112q-120 -20 -176 10t-92 154q-68 32 -92 60q-36 32 -48 92q140 -28 272 20q32 12 48 44t4 66t-44 48t-68 2q-96 -40 -196 -4q-16 16 -24 48v64q0 44 22 86t62 66q68 36 144 36
q-16 -32 -30 -68t2 -70t50 -46t68 4t46 52q24 72 84 120t140 56q88 -4 160 -54t112 -130q12 -80 76 -108q44 -20 140 -20zM1425 1662l-52 -112l-60 12l84 108zM1029 926q0 -32 -22 -58t-58 -30q-92 -4 -164 56q-76 80 -72 188q0 36 26 60t62 24t60 -24t24 -60t20 -64
q16 -12 36 -12q36 0 62 -22t26 -58z" />
</svg>
