<?xml version="1.0" standalone="no"?>
<!DOCTYPE svg PUBLIC "-//W3C//DTD SVG 1.1//EN" "http://www.w3.org/Graphics/SVG/1.1/DTD/svg11.dtd" >
<svg xmlns="http://www.w3.org/2000/svg" xmlns:xlink="http://www.w3.org/1999/xlink" version="1.1" viewBox="-10 0 1556 2048">
   <path fill="currentColor"
d="M1364 1708h-1192v-940h1192v940zM1108 172v168h-680v-168h-172v168h-84q-72 0 -122 50t-50 122v1196q0 68 50 118t122 50h1192q72 0 122 -50t50 -118v-1196q0 -72 -50 -122t-122 -50h-84v-168h-172zM672 1108h-308l248 180l-92 296l248 -180l248 180l-96 -292l252 -184
h-308l-96 -292z" />
</svg>
