<?xml version="1.0" standalone="no"?>
<!DOCTYPE svg PUBLIC "-//W3C//DTD SVG 1.1//EN" "http://www.w3.org/Graphics/SVG/1.1/DTD/svg11.dtd" >
<svg xmlns="http://www.w3.org/2000/svg" xmlns:xlink="http://www.w3.org/1999/xlink" version="1.1" viewBox="-10 0 1630 2048">
   <path fill="currentColor"
d="M439 1609.5q0 90.5 -64.5 154.5t-155.5 64t-155 -64t-64 -154.5t64 -155t155 -64.5t155.5 64.5t64.5 155zM1024 1750q2 32 -19 54q-21 24 -54 24h-154q-29 0 -49.5 -18.5t-22.5 -47.5q-12 -129 -68 -245t-142.5 -203t-203 -142.5t-245.5 -67.5q-28 -3 -47 -23.5
t-19 -48.5v-154q0 -34 24 -54q19 -20 49 -20h6q182 15 349 92t297 208q130 129 207.5 296t91.5 350zM1609 1752q2 32 -20 54q-21 22 -53 22h-163q-29 0 -51 -19.5t-23 -48.5q-9 -164 -58 -319t-130 -287.5t-192.5 -244.5t-243.5 -192.5t-287 -130t-319 -58.5q-29 -2 -49 -23
t-20 -49v-164q0 -31 23 -52q20 -20 50 -20h4q300 15 573.5 137t485.5 335q213 212 335 485.5t138 574.5z" />
</svg>
