<?xml version="1.0" standalone="no"?>
<!DOCTYPE svg PUBLIC "-//W3C//DTD SVG 1.1//EN" "http://www.w3.org/Graphics/SVG/1.1/DTD/svg11.dtd" >
<svg xmlns="http://www.w3.org/2000/svg" xmlns:xlink="http://www.w3.org/1999/xlink" version="1.1" viewBox="-10 0 1724 2048">
   <path fill="currentColor"
d="M340 172h1024q140 0 240 100t100 240v512h-168v-512q0 -72 -50 -122t-122 -50h-1024q-72 0 -122 50t-50 122v1024q0 72 50 122t122 50h512v168h-512q-140 0 -240 -100t-100 -240v-1024q0 -140 100 -240t240 -100zM852 684q140 0 240 100t100 240t-100 240t-240 100
t-240 -100t-100 -240t100 -240t240 -100zM1364 1364q72 0 122 50t50 122t-50 122t-122 50t-122 -50t-50 -122t50 -122t122 -50z" />
</svg>
