<?xml version="1.0" standalone="no"?>
<!DOCTYPE svg PUBLIC "-//W3C//DTD SVG 1.1//EN" "http://www.w3.org/Graphics/SVG/1.1/DTD/svg11.dtd" >
<svg xmlns="http://www.w3.org/2000/svg" xmlns:xlink="http://www.w3.org/1999/xlink" version="1.1" viewBox="-10 0 1724 2048">
   <path fill="currentColor"
d="M424 1662h172v172h-172v-172zM768 1662h168v172h-168v-172zM1108 1662h172v172h-172v-172zM168 214q-68 0 -118 50t-50 118v856q0 68 50 118t118 50h1368q68 0 118 -50t50 -118v-856q0 -68 -50 -118t-118 -50h-1368zM168 382h1368v856h-1368v-856zM256 470v168h168v-168
h-168zM512 470v168h168v-168h-168zM768 470v168h168v-168h-168zM1024 470v168h168v-168h-168zM1280 470v168h168v-168h-168zM256 726v168h168v-168h-168zM512 726v168h168v-168h-168zM768 726v168h168v-168h-168zM1024 726v168h168v-168h-168zM1280 726v168h168v-168h-168z
M512 982v168h680v-168h-680z" />
</svg>
