<?xml version="1.0" standalone="no"?>
<!DOCTYPE svg PUBLIC "-//W3C//DTD SVG 1.1//EN" "http://www.w3.org/Graphics/SVG/1.1/DTD/svg11.dtd" >
<svg xmlns="http://www.w3.org/2000/svg" xmlns:xlink="http://www.w3.org/1999/xlink" version="1.1" viewBox="-10 0 1736 2048">
   <path fill="currentColor"
d="M852 478l-100 76l-120 -124l220 -168l768 596l-316 248l-124 -124l160 -124zM1620 1290l-76 60l-120 -124l56 -44zM120 162l1596 1600l-120 120l-320 -324l-424 328l-768 -596l140 -108l628 492l300 -236l-120 -120l-180 136l-768 -596l276 -212l-360 -364zM852 1238
l56 -44l-428 -428l-116 92z" />
</svg>
