<?xml version="1.0" standalone="no"?>
<!DOCTYPE svg PUBLIC "-//W3C//DTD SVG 1.1//EN" "http://www.w3.org/Graphics/SVG/1.1/DTD/svg11.dtd" >
<svg xmlns="http://www.w3.org/2000/svg" xmlns:xlink="http://www.w3.org/1999/xlink" version="1.1" viewBox="-10 0 1724 2048">
   <path fill="currentColor"
d="M0 280l108 -108l1596 1596l-108 108l-244 -244l-244 244l-256 -256l-256 256l-256 -256l-256 256v-936q0 -240 136 -440zM852 172q208 0 384 102t280 280t104 386v528l-452 -456q48 -16 80 -60t32 -100q0 -68 -50 -118t-122 -50q-56 0 -98 30t-62 78l-504 -504
q184 -116 408 -116zM424 852q0 72 50 122t118 50t112 -40l-240 -240q-40 48 -40 108z" />
</svg>
