<?xml version="1.0" standalone="no"?>
<!DOCTYPE svg PUBLIC "-//W3C//DTD SVG 1.1//EN" "http://www.w3.org/Graphics/SVG/1.1/DTD/svg11.dtd" >
<svg xmlns="http://www.w3.org/2000/svg" xmlns:xlink="http://www.w3.org/1999/xlink" version="1.1" viewBox="-10 0 1556 2048">
   <path fill="currentColor"
d="M0 1108q0 208 104 386t280 280t384 102q0 -208 -104 -384t-280 -280t-384 -104zM208 1316q124 48 216 140t136 212q-124 -44 -216 -136t-136 -216zM768 1876q208 0 384 -102t280 -280t104 -386q-208 0 -384 104t-280 280t-104 384zM976 1668q44 -120 136 -214t216 -138
q-44 124 -138 216t-214 136zM768 1196q100 0 196 -40t168 -112t110 -166t38 -194v-428q-100 0 -184 32q-72 32 -124 88l-204 -204l-204 204q-52 -56 -124 -88q-84 -32 -184 -32v428q0 100 38 194t110 166t168 112t196 40zM428 480l132 140l208 -208l208 208l132 -140v204
q0 140 -100 240t-240 100t-240 -100t-100 -240v-204z" />
</svg>
