<?xml version="1.0" standalone="no"?>
<!DOCTYPE svg PUBLIC "-//W3C//DTD SVG 1.1//EN" "http://www.w3.org/Graphics/SVG/1.1/DTD/svg11.dtd" >
<svg xmlns="http://www.w3.org/2000/svg" xmlns:xlink="http://www.w3.org/1999/xlink" version="1.1" viewBox="-10 0 1556 2048">
   <path fill="currentColor"
d="M484 1160q-112 0 -192 -78t-80 -190q0 -92 60 -164q-60 -76 -60 -168q0 -108 80 -186t192 -78h36q32 -76 98 -122t150 -46t150 46t98 122h36q112 0 192 78t80 186q0 92 -60 168q60 76 60 164q0 108 -80 188t-192 80l-36 -4q-32 76 -98 122t-150 46t-150 -46t-98 -122z
M768 1152q40 0 68 -26t28 -66l-8 -92q-44 16 -88 16t-84 -16l-12 92q0 40 28 66t68 26zM1052 988q40 0 70 -28t30 -68q0 -28 -16 -52t-40 -36l-76 -36q-16 92 -92 156l72 48q24 16 52 16zM996 480l-68 48q76 64 92 156l72 -36q28 -12 44 -36t16 -52q0 -40 -30 -68t-70 -28
q-28 0 -56 16zM768 300q-40 0 -68 28t-28 64l12 96q40 -16 84 -16t88 16l8 -96q0 -36 -28 -64t-68 -28zM484 464q-40 0 -70 28t-30 68q0 28 16 52t40 36l76 36q16 -92 92 -156l-72 -48q-24 -16 -52 -16zM440 804q-24 12 -40 36t-16 52q0 40 30 68t70 28q32 0 56 -16l68 -48
q-76 -60 -92 -156zM768 1920q-208 0 -384 -102t-280 -280t-104 -386q208 0 384 104t280 280t104 384q0 -208 104 -384t280 -280t384 -104q0 208 -104 386t-280 280t-384 102zM976 1712q120 -44 214 -136t138 -216q-120 48 -214 140t-138 212zM208 1360q44 124 138 216
t214 136q-44 -120 -136 -212t-216 -140z" />
</svg>
