<?xml version="1.0" standalone="no"?>
<!DOCTYPE svg PUBLIC "-//W3C//DTD SVG 1.1//EN" "http://www.w3.org/Graphics/SVG/1.1/DTD/svg11.dtd" >
<svg xmlns="http://www.w3.org/2000/svg" xmlns:xlink="http://www.w3.org/1999/xlink" version="1.1" viewBox="-10 0 1775 2048">
   <path fill="currentColor"
d="M1189 1389.5q0 37.5 -27.5 65t-64.5 27.5t-64 -27.5t-27 -65t27 -64.5t64.5 -27t64.5 27t27 64.5zM1481 1389.5q0 37.5 -27 65t-64.5 27.5t-64.5 -27.5t-27 -65t27 -64.5t65 -27t64.5 27t26.5 64.5zM1609 1572v-366q0 -14 -11 -25t-25 -11h-1390q-14 0 -25.5 11t-11.5 25
v366q0 15 11.5 26.5t25.5 11.5h1390q14 0 25 -11.5t11 -26.5zM203 1024h1349l-179 -550q-5 -15 -18.5 -25.5t-29.5 -10.5h-894q-16 0 -29.5 10.5t-18.5 25.5zM1755 1206v366q0 76 -53 130t-129 54h-1390q-76 0 -129.5 -54t-53.5 -130v-366q0 -26 18 -84l225 -694
q20 -60 72 -98t116 -38h894q64 0 115.5 38t71.5 98l225 694q18 58 18 84z" />
</svg>
