<?xml version="1.0" standalone="no"?>
<!DOCTYPE svg PUBLIC "-//W3C//DTD SVG 1.1//EN" "http://www.w3.org/Graphics/SVG/1.1/DTD/svg11.dtd" >
<svg xmlns="http://www.w3.org/2000/svg" xmlns:xlink="http://www.w3.org/1999/xlink" version="1.1" viewBox="-10 0 1556 2048">
   <path fill="currentColor"
d="M172 256q-72 0 -122 50t-50 122v1192q0 72 50 122t122 50h1192q72 0 122 -50t50 -122v-1192q0 -72 -50 -122t-122 -50h-1192zM768 428q196 0 356 118t216 306h-232q-36 0 -60 26t-24 62v168q0 36 24 62t60 26h232q-56 188 -216 306t-356 118q-164 0 -300 -80t-216 -216
t-80 -300t80 -300t216 -216t300 -80zM768 852q-72 0 -122 50t-50 122t50 122t122 50t122 -50t50 -122t-50 -122t-122 -50z" />
</svg>
