<?xml version="1.0" standalone="no"?>
<!DOCTYPE svg PUBLIC "-//W3C//DTD SVG 1.1//EN" "http://www.w3.org/Graphics/SVG/1.1/DTD/svg11.dtd" >
<svg xmlns="http://www.w3.org/2000/svg" xmlns:xlink="http://www.w3.org/1999/xlink" version="1.1" viewBox="-10 0 1900 2048">
   <path fill="currentColor"
d="M616 1027q-20 12 -30 36t-6 40q0 44 36 74t76 30t72 -30t32 -74q-76 -48 -180 -76zM1792 935l88 -344l-56 -4q-68 -12 -148 -44q-112 -44 -224 -120q-96 -68 -208 -188q-80 -84 -124 -112q-72 -44 -180 -44t-180 44q-44 28 -124 112q-112 120 -208 188q-112 76 -224 120
q-80 32 -148 44l-56 4l88 344h8q-8 24 -8 84q0 220 104 410t280 306l-44 76q152 100 316 136q140 32 280 16q112 -12 224 -48q80 -28 148 -68l56 -36l-44 -76q176 -116 280 -306t104 -410v-84zM880 379l-120 -120l60 -60l120 120l120 -120l60 60l-120 120l120 120l-60 60
l-120 -120l-120 120l-60 -60zM708 719q144 -40 232 -40q116 0 328 72q116 40 316 124l20 8q12 24 12 76zM1076 1623q-100 60 -188 72q-32 -28 -32 -70t30 -70t78 -32t80 24q16 8 24 30t8 46zM1624 1139q-32 132 -112 248t-188 196l-128 -224h-512l-128 224
q-136 -92 -218 -240t-82 -324q0 -44 20 -128l152 -68l604 160v208q0 32 26 58t62 26h168q36 0 62 -24t26 -60v-120z" />
</svg>
