<?xml version="1.0" standalone="no"?>
<!DOCTYPE svg PUBLIC "-//W3C//DTD SVG 1.1//EN" "http://www.w3.org/Graphics/SVG/1.1/DTD/svg11.dtd" >
<svg xmlns="http://www.w3.org/2000/svg" xmlns:xlink="http://www.w3.org/1999/xlink" version="1.1" viewBox="-11 0 1727 2048">
   <path fill="currentColor"
d="M1282 1410v-772l-512 388zM18 790q-16 -20 -18 -48t18 -48l104 -96q12 -12 40 -14t48 14l292 224l676 -620q24 -24 58 -28t70 16l340 164q60 36 60 100v1152q0 24 -14 48t-34 36l-376 180q-20 8 -52 2t-44 -22l-688 -620l-288 220q-24 16 -50 14t-38 -14l-104 -92
q-20 -24 -18 -54t22 -50l256 -228z" />
</svg>
