<?xml version="1.0" standalone="no"?>
<!DOCTYPE svg PUBLIC "-//W3C//DTD SVG 1.1//EN" "http://www.w3.org/Graphics/SVG/1.1/DTD/svg11.dtd" >
<svg xmlns="http://www.w3.org/2000/svg" xmlns:xlink="http://www.w3.org/1999/xlink" version="1.1" viewBox="-10 0 1900 2048">
   <path fill="currentColor"
d="M1368 512h-856q-136 0 -254 68t-188 186t-70 258t70 258t188 186t254 68h856q136 0 254 -68t188 -186t70 -258t-70 -258t-188 -186t-254 -68zM1368 1364h-856q-140 0 -240 -100t-100 -240t100 -240t240 -100h856q140 0 240 100t100 240t-100 240t-240 100zM1368 768
q-108 0 -182 74t-74 182t74 182t180 74t182 -74t76 -182t-76 -182t-180 -74z" />
</svg>
