<?xml version="1.0" standalone="no"?>
<!DOCTYPE svg PUBLIC "-//W3C//DTD SVG 1.1//EN" "http://www.w3.org/Graphics/SVG/1.1/DTD/svg11.dtd" >
<svg xmlns="http://www.w3.org/2000/svg" xmlns:xlink="http://www.w3.org/1999/xlink" version="1.1" viewBox="-10 0 1724 2048">
   <path fill="currentColor"
d="M1536 340q68 0 118 50t50 122v1024q0 72 -50 122t-118 50h-1368q-68 0 -118 -50t-50 -122v-1024q0 -72 50 -122t118 -50h1368zM1536 1536v-1024h-1368v1024h1368zM340 852h172v172h-172v-172zM340 1196h684v168h-684v-168zM1192 1196h172v168h-172v-168zM680 852h684v172
h-684v-172z" />
</svg>
