<?xml version="1.0" standalone="no"?>
<!DOCTYPE svg PUBLIC "-//W3C//DTD SVG 1.1//EN" "http://www.w3.org/Graphics/SVG/1.1/DTD/svg11.dtd" >
<svg xmlns="http://www.w3.org/2000/svg" xmlns:xlink="http://www.w3.org/1999/xlink" version="1.1" viewBox="-10 0 1732 2048">
   <path fill="currentColor"
d="M60 452v52l-60 24v-52zM60 960v52l-60 24v-48zM60 1472v56l-60 24v-52zM52 624v44l-48 24v-48zM52 792v44l-48 24v-44zM52 1136v44l-48 24v-48zM52 1308v48l-48 20v-44zM216 480v64l-84 32v-64zM216 996v60l-84 32v-60zM216 1512v60l-84 32v-60zM212 660v56l-68 24v-56z
M212 832v52l-68 28v-60zM212 1172v56l-68 24v-56zM212 1344v56l-68 28v-56zM372 520v72l-108 44v-72zM372 1032v72l-108 44v-72zM372 1544v72l-108 44v-76zM364 700v64l-88 32v-60zM364 868v64l-88 36v-64zM364 1212v64l-88 36v-64zM364 1376v68l-88 32v-64zM540 516v96
l-136 52v-96zM540 1028v96l-136 52v-92zM540 1540v96l-136 52v-96zM532 692v88l-112 48v-88zM532 864v88l-112 44v-88zM532 1208v88l-112 44v-88zM532 1372v88l-112 44v-84zM716 500v124l-148 60v-124zM716 1012v124l-148 60v-124zM716 1524v124l-148 60v-124zM708 688v104
l-128 52v-108zM708 852v104l-128 48v-104zM708 1200v108l-128 48v-104zM708 1364v108l-128 52v-108zM896 436v172l-160 64v-160q88 -48 160 -76zM896 624v148l-160 68v-148zM896 792v152l-160 64v-148zM896 960v148l-160 68v-152zM896 1128v152l-160 68v-152zM896 1296v152
l-160 68v-152zM896 1464v160q-92 36 -160 68v-160zM1712 444v1196q-152 -100 -380 -100q-188 0 -420 76v-160q124 -48 272 -68v-392q-124 16 -272 88v-112q124 -56 272 -80v-380q-120 20 -272 84v-168q204 -88 404 -88q216 0 396 104zM1552 548q-92 -52 -232 -52l-32 4v384
h32q124 0 232 36v-372zM1552 1032q-104 -44 -232 -44h-32v392h32q132 0 232 32v-380z" />
</svg>
