<?xml version="1.0" standalone="no"?>
<!DOCTYPE svg PUBLIC "-//W3C//DTD SVG 1.1//EN" "http://www.w3.org/Graphics/SVG/1.1/DTD/svg11.dtd" >
<svg xmlns="http://www.w3.org/2000/svg" xmlns:xlink="http://www.w3.org/1999/xlink" version="1.1" viewBox="-10 0 1428 2048">
   <path fill="currentColor"
d="M972 172q-176 16 -448 120q-76 56 -176 112v8q4 0 16 -4h4q12 -4 12 8l8 -8h8v8q0 4 -120 92l8 12l-20 -4q0 4 -16 8v4l12 16q-8 0 -16 -4q-40 4 -80 56l8 12q32 -32 40 -32v16l-16 8l12 20q40 -40 88 -72q28 4 28 12h12q128 -96 256 -140l4 12q-28 36 -36 36q4 12 12 20
q0 24 -120 296q-272 636 -452 936q0 4 8 16q48 -12 56 -20h8v8h12l12 -8q0 8 12 8v8q0 20 -20 52q-16 20 -36 88v4h8q80 -88 112 -160q220 -64 328 -124q112 -8 172 -56l-4 -8l-28 8h-4v-4q84 -12 112 -40q176 -132 244 -176q256 -188 244 -360q-4 -20 -112 -140
q-4 -24 76 -68l148 -132q48 -60 60 -204l-4 -24q-8 -100 -144 -160q-80 -52 -288 -56zM1152 244q164 8 168 60l-4 12zM1044 336q116 0 120 64h8v-28l12 -4q44 20 48 60q0 24 -24 56q-12 4 -16 -16h-12v36q-72 112 -108 116q-32 40 -40 40q-24 32 -128 96q-40 4 -256 100
q-8 -4 -24 -4v-8q-4 -32 28 -84q12 -88 36 -104l124 -276q0 -28 80 -40l20 -4v20q80 -16 98 -18t34 -2zM1300 368h4q16 0 32 52v8q-8 4 -32 -52zM604 544h4l4 16q-12 0 -24 24v-12q16 -20 16 -28zM248 552l4 4q-4 0 -12 4l-4 4h-8l-4 -8zM552 660l4 24h-8v-24h4zM540 700
q-4 24 -16 28h-8q12 -20 12 -28h12zM516 756v8l-12 16h-8l-4 -4q16 0 16 -20h8zM492 812l-4 24h-8v-24h12zM1092 828l24 16q4 12 -8 12q-16 -8 -24 -8v-16zM620 892v12h-20l-4 -8zM1004 932q24 12 24 20v4q-24 4 -44 -24h20zM1188 948q16 8 20 16l4 44q-8 20 -20 20z
M888 956q92 -4 136 40l4 24q-36 112 -88 136l-152 120q-164 108 -176 108q-264 144 -332 152h-8q12 -32 240 -484q100 -8 316 -92zM672 988v8h-24v-4zM300 1348q-12 60 -24 60v-4q-4 -32 24 -56zM804 1372v12q4 4 -48 44q-148 72 -176 96q-160 56 -160 72q-144 56 -184 80
q-12 4 -32 -8q-4 -28 24 -48q32 0 48 8q40 -16 92 -28v-12l-36 4q8 -8 104 -48l16 -4l4 8q-48 4 -52 28q0 8 12 8l4 -4l28 -20q60 -12 356 -188zM264 1424l4 4q0 12 -12 16v-8q-4 -8 8 -12zM532 1492q12 -4 12 8q-24 4 -80 36h-4l-4 -12q44 -4 76 -32zM272 1580v4
q-4 0 -16 8h-12q0 -8 12 -12h16zM136 1648l12 4q-8 48 -32 56q-16 -12 -36 -12v-16q0 -8 10 -10t14 14q28 -36 32 -36z" />
</svg>
