<?xml version="1.0" standalone="no"?>
<!DOCTYPE svg PUBLIC "-//W3C//DTD SVG 1.1//EN" "http://www.w3.org/Graphics/SVG/1.1/DTD/svg11.dtd" >
<svg xmlns="http://www.w3.org/2000/svg" xmlns:xlink="http://www.w3.org/1999/xlink" version="1.1" viewBox="-10 0 1724 2048">
   <path fill="currentColor"
d="M1280 1196h168v256h256v168h-256v256h-168v-256h-256v-168h256v-256zM680 172h344q68 0 118 50t50 118v172h344q68 0 118 50t50 122v472q-144 -132 -340 -132q-140 0 -258 68t-186 186t-68 258t68 256h-752q-68 0 -118 -50t-50 -122v-936q0 -72 50 -122t118 -50h344v-172
q0 -68 50 -118t118 -50zM1024 512v-172h-344v172h344z" />
</svg>
