<?xml version="1.0" standalone="no"?>
<!DOCTYPE svg PUBLIC "-//W3C//DTD SVG 1.1//EN" "http://www.w3.org/Graphics/SVG/1.1/DTD/svg11.dtd" >
<svg xmlns="http://www.w3.org/2000/svg" xmlns:xlink="http://www.w3.org/1999/xlink" version="1.1" viewBox="-10 0 1724 2048">
   <path fill="currentColor"
d="M1060 1374l124 -124l180 184l180 -184l124 124l-184 180l184 180l-124 124l-180 -184l-180 184l-124 -124l184 -180zM680 190h344q68 0 118 50t50 118v172h344q68 0 118 50t50 122v472q-144 -132 -340 -132q-140 0 -258 68t-186 186t-68 258t68 256h-752q-68 0 -118 -50
t-50 -122v-936q0 -72 50 -122t118 -50h344v-172q0 -68 50 -118t118 -50zM1024 530v-172h-344v172h344z" />
</svg>
