<?xml version="1.0" standalone="no"?>
<!DOCTYPE svg PUBLIC "-//W3C//DTD SVG 1.1//EN" "http://www.w3.org/Graphics/SVG/1.1/DTD/svg11.dtd" >
<svg xmlns="http://www.w3.org/2000/svg" xmlns:xlink="http://www.w3.org/1999/xlink" version="1.1" viewBox="-11 0 1778 2048">
   <path fill="currentColor"
d="M1573 1024l157 154q35 33 23 80q-6 22 -21.5 37.5t-37.5 20.5l-215 55l60 213q14 48 -21 80q-32 34 -80 21l-213 -60l-55 215q-5 22 -20.5 37.5t-37.5 21.5q-14 2 -22 2q-34 0 -58 -25l-154 -158l-155 158q-32 35 -80 23q-46 -12 -58 -59l-55 -215l-212 60
q-47 13 -80 -21q-34 -33 -22 -80l61 -213l-215 -55q-21 -5 -37.5 -20.5t-22.5 -37.5q-11 -47 23 -80l158 -154l-158 -155q-34 -33 -23 -80q6 -21 22.5 -36.5t37.5 -21.5l215 -55l-61 -212q-12 -46 22 -80q34 -35 80 -22l212 60l55 -214q6 -22 21.5 -38t36.5 -21
q47 -13 80 22l155 159l154 -159q33 -34 80 -22q22 5 37.5 21t20.5 38l55 214l213 -60q47 -13 80 22q35 33 21 80l-60 212l215 55q22 6 37.5 21t21.5 37q12 47 -23 80z" />
</svg>
