<?xml version="1.0" standalone="no"?>
<!DOCTYPE svg PUBLIC "-//W3C//DTD SVG 1.1//EN" "http://www.w3.org/Graphics/SVG/1.1/DTD/svg11.dtd" >
<svg xmlns="http://www.w3.org/2000/svg" xmlns:xlink="http://www.w3.org/1999/xlink" version="1.1" viewBox="-10 0 1556 2048">
   <path fill="currentColor"
d="M1364 768v-172q0 -68 -50 -118t-118 -50h-88v-256h-168v256h-88q-68 0 -118 50t-50 118v172q-72 0 -122 50t-50 122v84h-340q-72 0 -122 50t-50 122v680h256v-168h172v168h340v-168h172v168h168v-168h172v168h256v-936q0 -72 -50 -122t-122 -50zM428 1536h-172v-172h172
v172zM940 1536h-172v-172h172v172zM940 1196h-172v-172h172v172zM852 768v-172h344v172h-344zM1280 1536h-172v-172h172v172zM1280 1196h-172v-172h172v172z" />
</svg>
