<?xml version="1.0" standalone="no"?>
<!DOCTYPE svg PUBLIC "-//W3C//DTD SVG 1.1//EN" "http://www.w3.org/Graphics/SVG/1.1/DTD/svg11.dtd" >
<svg xmlns="http://www.w3.org/2000/svg" xmlns:xlink="http://www.w3.org/1999/xlink" version="1.1" viewBox="-10 0 1556 2048">
   <path fill="currentColor"
d="M1364 1706v-936h-1192v936h1192zM1108 170h172v172h84q72 0 122 50t50 122v1192q0 72 -50 122t-122 50h-1192q-72 0 -122 -50t-50 -122v-1192q0 -72 50 -122t122 -50h84v-172h172v172h680v-172zM340 938h172v172h-172v-172zM1024 938h172v172h-172v-172zM684 1282h168
v168h-168v-168zM1024 1282h172v168h-172v-168z" />
</svg>
