<?xml version="1.0" standalone="no"?>
<!DOCTYPE svg PUBLIC "-//W3C//DTD SVG 1.1//EN" "http://www.w3.org/Graphics/SVG/1.1/DTD/svg11.dtd" >
<svg xmlns="http://www.w3.org/2000/svg" xmlns:xlink="http://www.w3.org/1999/xlink" version="1.1" viewBox="-10 0 1900 2048">
   <path fill="currentColor"
d="M1196 1964h-172v-172h172v172zM1536 1792h-168v172h168v-172zM1196 1452h-172v168h172v-168zM512 1792h-168v172h168v-172zM512 1452h-168v168h168v-168zM1536 1452h-168v168h168v-168zM1196 1108h-172v172h172v-172zM1536 1108h-168v172h168v-172zM1708 768q72 0 122 50
t50 122v1024h-172v-1024h-852v1024h-172v-684h-512v684h-172v-684q0 -72 50 -122t122 -50h512v-168q0 -72 50 -122t122 -50v-172q0 -68 50 -118t118 -50h172v-344h172v344h168q72 0 122 50t50 118v172zM1536 768v-172h-512v172h512z" />
</svg>
