<?xml version="1.0" standalone="no"?>
<!DOCTYPE svg PUBLIC "-//W3C//DTD SVG 1.1//EN" "http://www.w3.org/Graphics/SVG/1.1/DTD/svg11.dtd" >
<svg xmlns="http://www.w3.org/2000/svg" xmlns:xlink="http://www.w3.org/1999/xlink" version="1.1" viewBox="-10 0 1900 2048">
   <path fill="currentColor"
d="M1452 340q-176 0 -284 52q-108 -52 -228 -52t-228 52q-108 -52 -284 -52q-116 0 -224 184q-88 148 -148 372q-56 196 -56 300q0 52 76 96t192 64q44 144 218 242t410 110v-368q-128 -80 -128 -144q0 -56 88 -76q40 -12 84 -12l44 4q52 8 84 24q44 20 44 60q0 64 -128 144
v368q236 -12 410 -110t218 -242q116 -20 192 -64t76 -96q0 -104 -56 -300q-60 -224 -148 -372q-108 -184 -224 -184zM272 1184q-56 -12 -100 -32q12 -112 60 -264q48 -136 106 -248t94 -128q44 0 108 8h4q-116 132 -196 348q-52 148 -76 316zM684 1024q-36 0 -60 -24
t-24 -60t24 -62t60 -26t60 26t24 62t-24 60t-60 24zM1196 1024q-36 0 -60 -24t-24 -60t24 -62t60 -26t60 26t24 62t-24 60t-60 24zM1608 1184q-24 -168 -76 -316q-80 -216 -196 -348h4q64 -8 108 -8q36 16 94 128t106 248q48 152 60 264q-40 20 -100 32z" />
</svg>
