<?xml version="1.0" standalone="no"?>
<!DOCTYPE svg PUBLIC "-//W3C//DTD SVG 1.1//EN" "http://www.w3.org/Graphics/SVG/1.1/DTD/svg11.dtd" >
<svg xmlns="http://www.w3.org/2000/svg" xmlns:xlink="http://www.w3.org/1999/xlink" version="1.1" viewBox="-10 0 1728 2048">
   <path fill="currentColor"
d="M0 398l112 -108l1512 1512l-108 108l-500 -496q-52 44 -76 72q-36 40 -52 92q-40 116 -94 188t-142 116q-64 28 -140 28q-140 0 -240 -100t-100 -240h172q0 72 50 122t118 50q36 0 68 -16q48 -24 80 -68t64 -132q24 -80 76 -140q36 -44 96 -92l-548 -552q-4 20 -4 60
h-172q0 -104 32 -200zM1128 1054q68 -124 68 -252q0 -116 -56 -214t-154 -156t-218 -58q-148 0 -264 92l-124 -124q168 -136 388 -136q168 0 304 78t216 216t80 304t-92 330l-40 64l-124 -124zM1312 258l120 -120q132 128 204 300t72 364q0 176 -64 338t-176 290l-120 -120
q88 -104 138 -234t50 -274q0 -156 -58 -296t-166 -248zM984 802q0 60 -32 112l-296 -292q52 -32 112 -32q88 0 152 62t64 150z" />
</svg>
