<?xml version="1.0" standalone="no"?>
<!DOCTYPE svg PUBLIC "-//W3C//DTD SVG 1.1//EN" "http://www.w3.org/Graphics/SVG/1.1/DTD/svg11.dtd" >
<svg xmlns="http://www.w3.org/2000/svg" xmlns:xlink="http://www.w3.org/1999/xlink" version="1.1" viewBox="-10 0 1724 2048">
   <path fill="currentColor"
d="M1652 1072h-728q-56 0 -108 24t-84 64q-32 44 -80 70t-108 26q-92 0 -160 -68t-68 -164t68 -162t160 -66q60 0 108 24t80 72v-4q32 44 84 68t108 24h720q20 0 36 -12q24 -16 24 -56q-28 -180 -150 -326t-304 -230t-394 -84q-192 0 -364 72t-292 196q-32 48 24 52h468
q56 0 108 -24t84 -64q32 -44 82 -70t106 -26q96 0 164 68t68 164t-68 164t-164 68q-56 0 -106 -26t-82 -74v4q-32 -40 -84 -66t-108 -26h-512h4l-24 4q-24 4 -48 16q-32 16 -52 44q-28 40 -44 120t-16 156q0 160 60 280q24 40 76 56q24 4 48 4h-4h512q56 0 108 -24t84 -64
q32 -44 82 -70t106 -26q96 0 164 66t68 162t-68 164t-164 68q-56 0 -106 -26t-82 -70v4q-32 -44 -84 -68t-108 -24h-468q-52 8 -28 48q120 128 292 200t368 72q212 0 396 -84t304 -230t148 -326q0 -32 -16 -48t-36 -16z" />
</svg>
