<?xml version="1.0" standalone="no"?>
<!DOCTYPE svg PUBLIC "-//W3C//DTD SVG 1.1//EN" "http://www.w3.org/Graphics/SVG/1.1/DTD/svg11.dtd" >
<svg xmlns="http://www.w3.org/2000/svg" xmlns:xlink="http://www.w3.org/1999/xlink" version="1.1" viewBox="-10 0 1760 2048">
   <path fill="currentColor"
d="M1536 1708q0 68 -50 118t-122 50h-1196q-68 0 -118 -50t-50 -118v-1196q0 -72 50 -122t118 -50h472q-44 116 -44 216q0 148 74 276t202 202t280 74q108 0 176 -32l208 204v428zM1476 760q60 -104 60 -204q0 -160 -112 -272t-272 -112t-272 112t-112 272t112 272t272 112
q100 0 204 -60l264 264l120 -120zM1152 768q-92 0 -154 -62t-62 -152t62 -152t152 -62t152 62t62 152t-62 152t-150 62z" />
</svg>
