<?xml version="1.0" standalone="no"?>
<!DOCTYPE svg PUBLIC "-//W3C//DTD SVG 1.1//EN" "http://www.w3.org/Graphics/SVG/1.1/DTD/svg11.dtd" >
<svg xmlns="http://www.w3.org/2000/svg" xmlns:xlink="http://www.w3.org/1999/xlink" version="1.1" viewBox="-10 0 1344 2048">
   <path fill="currentColor"
d="M300 172q72 0 122 50t50 120t-50 120t-122 50t-122 -50t-50 -120t50 -120t122 -50zM172 596h256q72 0 122 50t50 122v468h-128v640h-344v-640h-128v-468q0 -72 50 -122t122 -50zM896 1024q0 -72 50 -122t122 -50t122 50t50 122t-50 122t-122 50t-122 -50t-50 -122z
M940 1280h256l128 340h-128v256h-256v-256h-128z" />
</svg>
