<?xml version="1.0" standalone="no"?>
<!DOCTYPE svg PUBLIC "-//W3C//DTD SVG 1.1//EN" "http://www.w3.org/Graphics/SVG/1.1/DTD/svg11.dtd" >
<svg xmlns="http://www.w3.org/2000/svg" xmlns:xlink="http://www.w3.org/1999/xlink" version="1.1" viewBox="-10 0 1556 2048">
   <path fill="currentColor"
d="M384 172q72 0 122 50t50 120t-50 120t-122 50t-122 -50t-50 -120t50 -120t122 -50zM256 1876v-512h-256l220 -648q20 -52 64 -86t100 -34t102 34t62 86l220 648l220 -648q20 -52 64 -86t100 -34t102 34t62 86l220 648h-256v512h-256v-512h-512v512h-256zM1152 172
q72 0 122 50t50 120t-50 120t-122 50t-122 -50t-50 -120t50 -120t122 -50z" />
</svg>
