<?xml version="1.0" standalone="no"?>
<!DOCTYPE svg PUBLIC "-//W3C//DTD SVG 1.1//EN" "http://www.w3.org/Graphics/SVG/1.1/DTD/svg11.dtd" >
<svg xmlns="http://www.w3.org/2000/svg" xmlns:xlink="http://www.w3.org/1999/xlink" version="1.1" viewBox="-10 0 1724 2048">
   <path fill="currentColor"
d="M1448 340h88v-256h-344v256l44 104q52 124 84 252q44 176 44 328q0 268 -128 428q-136 168 -384 168t-384 -168q-128 -160 -128 -428q0 -152 44 -328q32 -128 84 -252l44 -104v-256h-344v256h88l-40 64q-48 80 -88 172q-56 132 -88 268q-40 176 -40 352q0 204 124 388
q120 172 318 276t410 104t410 -104t318 -276q124 -184 124 -388q0 -320 -128 -620q-64 -148 -128 -236zM168 1108q-36 0 -60 -22t-24 -62t24 -62t62 -22t62 22t24 62t-24 62t-64 22zM340 1620q-40 0 -62 -22t-22 -62t22 -62t62 -22t62 22t22 62t-22 62t-62 22zM852 1876
q-40 0 -62 -22t-22 -62t22 -62t62 -22t62 22t22 62t-22 62t-62 22zM1364 1620q-40 0 -62 -22t-22 -62t22 -62t62 -22t62 22t22 62t-22 62t-62 22zM1536 1108q-40 0 -64 -22t-24 -62t24 -62t62 -22t62 22t24 62t-24 62t-60 22z" />
</svg>
