<?xml version="1.0" standalone="no"?>
<!DOCTYPE svg PUBLIC "-//W3C//DTD SVG 1.1//EN" "http://www.w3.org/Graphics/SVG/1.1/DTD/svg11.dtd" >
<svg xmlns="http://www.w3.org/2000/svg" xmlns:xlink="http://www.w3.org/1999/xlink" version="1.1" viewBox="-10 0 1980 2048">
   <path fill="currentColor"
d="M980 1804l-128 112q-340 -304 -472 -436q-200 -196 -284 -340q-96 -160 -96 -316q0 -144 84 -272v48q0 192 108 380q96 164 304 376q136 136 484 448zM1116 1456q16 -16 52 -48q236 -216 328 -308q148 -148 220 -260q80 -128 84 -240q0 -128 -86 -212t-214 -84
q-100 0 -188 56t-120 148h-160q-40 -92 -126 -148t-182 -56q-128 0 -214 84t-86 212q0 120 84 252q76 116 236 272q100 104 356 332l8 8zM1492 132q132 0 238 62t168 170t62 236q0 152 -96 312q-84 140 -284 340q-128 128 -472 440q-340 -300 -472 -432q-200 -200 -284 -344
q-96 -160 -96 -316q0 -128 62 -236t168 -170t238 -62q108 0 210 48t174 132q72 -84 174 -132t210 -48z" />
</svg>
