<?xml version="1.0" standalone="no"?>
<!DOCTYPE svg PUBLIC "-//W3C//DTD SVG 1.1//EN" "http://www.w3.org/Graphics/SVG/1.1/DTD/svg11.dtd" >
<svg xmlns="http://www.w3.org/2000/svg" xmlns:xlink="http://www.w3.org/1999/xlink" version="1.1" viewBox="-10 0 1775 2048">
   <path fill="currentColor"
d="M1463 1828q0 -30 -21.5 -51.5t-51.5 -21.5t-51.5 21.5t-21.5 51.5t21.5 51.5t51.5 21.5t51.5 -21.5t21.5 -51.5zM1609 955q0 -216 -191 -216q-22 0 -64 6q-19 -34 -60.5 -54.5t-83.5 -20.5q-43 0 -79 21q-58 -61 -136 -61q-29 0 -63 11.5t-54 28.5v-378q0 -59 -44 -102.5
t-103 -43.5q-58 0 -102 44t-44 102v658q-28 0 -71 -27t-100.5 -54.5t-120.5 -27.5q-77 0 -112 51t-35 132q0 9 13 21t36 25.5t42 23t42.5 20.5t25.5 12q50 28 74 43q73 45 166 128q88 77 115 108q71 82 71 167v37h732v-37q0 -66 23 -149.5t50 -151t50 -155t23 -161.5z
M1755 949q0 152 -78 368q-68 190 -68 255v329q0 61 -42.5 104t-103.5 43h-732q-61 0 -103.5 -43t-42.5 -104v-329q0 -10 -4.5 -22t-11 -22.5t-18 -24t-20 -22.5t-23 -22.5t-22 -20t-21.5 -18.5t-16 -14q-88 -77 -147 -114q-24 -15 -71 -37.5t-82 -42t-72 -46.5t-57 -63
t-20 -79q0 -143 77 -236.5t216 -93.5q74 0 146 26v-428q0 -119 86.5 -205.5t204.5 -86.5q120 0 207 86t87 206v193q68 4 136 43q32 -4 49 -4q117 0 204 69q159 -1 250.5 97t91.5 259z" />
</svg>
