<?xml version="1.0" standalone="no"?>
<!DOCTYPE svg PUBLIC "-//W3C//DTD SVG 1.1//EN" "http://www.w3.org/Graphics/SVG/1.1/DTD/svg11.dtd" >
<svg xmlns="http://www.w3.org/2000/svg" xmlns:xlink="http://www.w3.org/1999/xlink" version="1.1" viewBox="-10 0 1640 2048">
   <path fill="currentColor"
d="M940 1368h256v-256h168v256h256v168h-256v256h-168v-256h-256v-168zM768 1368v168h-256v-168h256zM340 1368v168h-340v-340h172v172h168zM0 1024v-256h172v256h-172zM0 600v-344h340v172h-168v172h-172zM512 256h256v172h-256v-172zM1024 256h340v344h-168v-172h-172
v-172zM1364 768v172h-168v-172h168z" />
</svg>
