<?xml version="1.0" standalone="no"?>
<!DOCTYPE svg PUBLIC "-//W3C//DTD SVG 1.1//EN" "http://www.w3.org/Graphics/SVG/1.1/DTD/svg11.dtd" >
<svg xmlns="http://www.w3.org/2000/svg" xmlns:xlink="http://www.w3.org/1999/xlink" version="1.1" viewBox="-10 0 1724 2048">
   <path fill="currentColor"
d="M1108 682h-172v-172h172v172zM1704 1622v168h-596q0 36 -24 62t-60 26h-344q-36 0 -60 -26t-24 -62h-596v-168h596q0 -36 24 -62t60 -26h88v-168h-344q-68 0 -118 -50t-50 -122v-852q0 -72 50 -122t118 -50h856q68 0 118 50t50 122v852q0 72 -50 122t-118 50h-344v168h88
q36 0 60 26t24 62h596zM596 342h-172v852h172v-852zM768 1194h168v-340h172q72 0 122 -50t50 -122v-172q0 -68 -50 -118t-122 -50h-340v852z" />
</svg>
