<?xml version="1.0" standalone="no"?>
<!DOCTYPE svg PUBLIC "-//W3C//DTD SVG 1.1//EN" "http://www.w3.org/Graphics/SVG/1.1/DTD/svg11.dtd" >
<svg xmlns="http://www.w3.org/2000/svg" xmlns:xlink="http://www.w3.org/1999/xlink" version="1.1" viewBox="-10 0 1556 2048">
   <path fill="currentColor"
d="M680 1280h344v-344h168v344h344v168h-344v344h-168v-344h-344v-168zM512 1280v168h-172v-168h172zM168 1280v168h-168v-168h168zM1192 596v172h-168v-172h168zM1192 256v168h-168v-168h168zM852 256v168h-172v-168h172zM512 256v168h-172v-168h172zM168 256v168h-168
v-168h168zM168 936v172h-168v-172h168zM168 596v172h-168v-172h168z" />
</svg>
