<?xml version="1.0" standalone="no"?>
<!DOCTYPE svg PUBLIC "-//W3C//DTD SVG 1.1//EN" "http://www.w3.org/Graphics/SVG/1.1/DTD/svg11.dtd" >
<svg xmlns="http://www.w3.org/2000/svg" xmlns:xlink="http://www.w3.org/1999/xlink" version="1.1" viewBox="-10 0 1775 2048">
   <path fill="currentColor"
d="M1609 1097q0 -76 -23 -165t-50 -156.5t-50 -151t-23 -149.5v-37h-732v37q0 18 -3.5 36t-7 31.5t-14.5 32t-16 28t-21.5 28.5t-21.5 25t-26 25.5t-24 23t-27 24t-25 21.5q-93 83 -166 128q-25 16 -77 44q-4 2 -25.5 12.5t-41 21t-41.5 23t-35 24.5t-13 21q0 81 35 131.5
t112 50.5q49 0 96.5 -17t77.5 -37.5t62.5 -37.5t55.5 -17v658q0 58 44 102t102 44q59 0 103 -43.5t44 -102.5v-378q52 40 117 40q78 0 136 -61q36 21 79 21q42 0 83.5 -20.5t60.5 -54.5q35 5 64 5q98 0 144.5 -55.5t46.5 -154.5zM1463 219q0 -30 -21.5 -51.5t-51.5 -21.5
t-51.5 21.5t-21.5 51.5t21.5 51.5t51.5 21.5t51.5 -21.5t21.5 -51.5zM1755 1092q0 162 -89 262.5t-248 99.5l-5 -1q-87 70 -204 70q-25 0 -49 -3q-59 33 -136 42v193q0 120 -87 206.5t-207 86.5q-118 0 -204.5 -87t-86.5 -206v-427q-62 25 -146 25q-139 0 -216 -93t-77 -236
q0 -43 20 -79.5t57 -63.5t72 -46t82 -42t71 -38q59 -37 147 -114q2 -2 16 -14t21.5 -18.5t22 -20t23 -22.5t20 -22.5t18 -24t11 -22.5t4.5 -22v-329q0 -61 42.5 -103.5t103.5 -42.5h732q61 0 103.5 42.5t42.5 103.5v329q0 65 68 255q78 217 78 362z" />
</svg>
