<?xml version="1.0" standalone="no"?>
<!DOCTYPE svg PUBLIC "-//W3C//DTD SVG 1.1//EN" "http://www.w3.org/Graphics/SVG/1.1/DTD/svg11.dtd" >
<svg xmlns="http://www.w3.org/2000/svg" xmlns:xlink="http://www.w3.org/1999/xlink" version="1.1" viewBox="-10 0 1732 2048">
   <path fill="currentColor"
d="M1712 940h-172v-604h-600v-168h-168v168h-604v604h-168v168h168v600h604v172h168v-172h600v-600h172v-168zM1368 1536h-428v-168h-168v168h-432v-428h172v-168h-172v-432h432v172h168v-172h428v432h-168v168h168v428zM940 1024q0 36 -24 60t-60 24t-60 -24t-24 -60
t24 -60t60 -24t60 24t24 60z" />
</svg>
