<?xml version="1.0" standalone="no"?>
<!DOCTYPE svg PUBLIC "-//W3C//DTD SVG 1.1//EN" "http://www.w3.org/Graphics/SVG/1.1/DTD/svg11.dtd" >
<svg xmlns="http://www.w3.org/2000/svg" xmlns:xlink="http://www.w3.org/1999/xlink" version="1.1" viewBox="-10 0 1812 2048">
   <path fill="currentColor"
d="M1364 1154h172v256h256v168h-256v256h-172v-256h-256v-168h256v-256zM168 214h1196q72 0 122 50t50 122v604q-100 -16 -194 4t-174 72h-316v344h92q-12 84 0 168h-776q-68 0 -118 -50t-50 -118v-1024q0 -72 50 -122t118 -50zM168 554v344h512v-344h-512zM852 554v344h512
v-344h-512zM168 1066v344h512v-344h-512z" />
</svg>
