<?xml version="1.0" standalone="no"?>
<!DOCTYPE svg PUBLIC "-//W3C//DTD SVG 1.1//EN" "http://www.w3.org/Graphics/SVG/1.1/DTD/svg11.dtd" >
<svg xmlns="http://www.w3.org/2000/svg" xmlns:xlink="http://www.w3.org/1999/xlink" version="1.1" viewBox="-10 0 1724 2048">
   <path fill="currentColor"
d="M1192 172q-140 0 -256 68q-40 24 -84 64q-44 -40 -84 -64q-116 -68 -256 -68t-258 68t-186 186t-68 258q0 100 38 194t110 166t166 112t198 40v-172q-144 0 -244 -100t-100 -242t100 -242t240 -100t236 96l24 20v1420h168v-1420l24 -20q100 -100 242 -96t240 108t94 244
t-106 236t-238 96v172q104 0 198 -40t166 -112t110 -166t38 -194q0 -140 -68 -258t-186 -186t-258 -68z" />
</svg>
