<?xml version="1.0" standalone="no"?>
<!DOCTYPE svg PUBLIC "-//W3C//DTD SVG 1.1//EN" "http://www.w3.org/Graphics/SVG/1.1/DTD/svg11.dtd" >
<svg xmlns="http://www.w3.org/2000/svg" xmlns:xlink="http://www.w3.org/1999/xlink" version="1.1" viewBox="-10 0 1724 2048">
   <path fill="currentColor"
d="M852 340q-232 0 -428 92t-310 250t-114 342q0 136 92 234t228 106h20q140 0 240 -100t100 -240t-100 -240t-240 -100h-20q108 -104 246 -156t286 -52q228 0 428 120l104 -104q-244 -156 -532 -152zM340 852q72 0 122 50t50 122t-52 122t-120 50t-116 -44t-56 -112v-32
q8 -68 56 -112t116 -44zM1384 684h-20q-140 0 -240 100t-100 240t100 240t240 100h20q-108 104 -246 156t-286 52q-228 0 -428 -120l-104 104q240 152 532 152q232 0 428 -92t310 -250t114 -342q0 -136 -92 -234t-228 -106zM1364 1196q-72 0 -122 -50t-50 -122t52 -122
t120 -50t116 44t56 112v32q-8 68 -56 112t-116 44z" />
</svg>
