<?xml version="1.0" standalone="no"?>
<!DOCTYPE svg PUBLIC "-//W3C//DTD SVG 1.1//EN" "http://www.w3.org/Graphics/SVG/1.1/DTD/svg11.dtd" >
<svg xmlns="http://www.w3.org/2000/svg" xmlns:xlink="http://www.w3.org/1999/xlink" version="1.1" viewBox="-10 0 1556 2048">
   <path fill="currentColor"
d="M1324 1590q80 -76 112 -224q16 -84 16 -212q0 -144 -100 -244t-244 -100q-88 0 -168 48v-388q0 -108 -76 -182t-180 -74q-96 0 -172 68q-72 -68 -170 -68t-170 68q-76 -68 -172 -68v172q36 0 60 24t24 60v852h172v-852q0 -36 24 -60t60 -24t62 24t26 60v852h168v-852
q0 -36 26 -60t62 -24t60 24t24 60v684q0 128 16 212q28 148 112 224q-104 56 -212 76v168q120 0 424 -160q304 160 428 160v-168q-112 -20 -212 -76zM1108 982q72 0 122 50t50 122q0 184 -38 262t-132 78t-132 -78t-38 -262q0 -72 50 -122t118 -50z" />
</svg>
