<?xml version="1.0" standalone="no"?>
<!DOCTYPE svg PUBLIC "-//W3C//DTD SVG 1.1//EN" "http://www.w3.org/Graphics/SVG/1.1/DTD/svg11.dtd" >
<svg xmlns="http://www.w3.org/2000/svg" xmlns:xlink="http://www.w3.org/1999/xlink" version="1.1" viewBox="-10 0 1352 2048">
   <path fill="currentColor"
d="M0 1404q0 -112 66 -218t258 -234q-100 -120 -144 -212q-44 -76 -44 -172q0 -188 112 -300q56 -56 130 -78t178 -22q164 0 278 100t114 248q0 100 -52 188t-180 180l-120 92l368 444q76 -152 76 -332h188q0 300 -136 488l240 280h-256l-112 -128q-88 76 -196 112
q-128 40 -232 40q-236 0 -392 -128q-144 -144 -144 -348zM536 1704q168 0 308 -128l-400 -488l-36 24q-188 140 -188 292q0 140 88 212q100 88 228 88zM348 568q0 112 136 272l140 -92q76 -52 102 -104t26 -120q0 -80 -60 -128q-52 -52 -148 -52t-146 62t-50 162z" />
</svg>
