<?xml version="1.0" standalone="no"?>
<!DOCTYPE svg PUBLIC "-//W3C//DTD SVG 1.1//EN" "http://www.w3.org/Graphics/SVG/1.1/DTD/svg11.dtd" >
<svg xmlns="http://www.w3.org/2000/svg" xmlns:xlink="http://www.w3.org/1999/xlink" version="1.1" viewBox="-10 0 1132 2048">
   <path fill="currentColor"
d="M556 172q108 0 182 74t74 180t-74 182t-182 76t-182 -76t-74 -182t74 -180t182 -74zM556 768q208 0 382 90t174 218v492q0 144 -224 240v-188q0 -120 -220 -172q-72 -16 -112 -16q-112 0 -210 44t-118 112q172 68 328 68l84 -8v224l-84 4q-172 0 -332 -68
q-224 -96 -224 -240v-492q0 -128 174 -218t382 -90zM556 940q-72 0 -122 50t-50 120t50 120t122 50t122 -50t50 -120t-50 -120t-122 -50z" />
</svg>
