<?xml version="1.0" standalone="no"?>
<!DOCTYPE svg PUBLIC "-//W3C//DTD SVG 1.1//EN" "http://www.w3.org/Graphics/SVG/1.1/DTD/svg11.dtd" >
<svg xmlns="http://www.w3.org/2000/svg" xmlns:xlink="http://www.w3.org/1999/xlink" version="1.1" viewBox="-10 0 1812 2048">
   <path fill="currentColor"
d="M708 360q-32 52 -48 100l128 132q52 -140 140 -268q112 164 164 340h-232l172 168h96q8 48 12 108l168 168q4 -68 4 -104q0 -72 -12 -172h288q24 92 24 172t-24 172h-216l280 280q128 -208 128 -452q0 -232 -114 -428t-310 -310t-428 -114q-244 0 -452 128l128 128
q44 -28 104 -48zM1520 664h-252q-44 -164 -120 -304q120 40 214 118t158 186zM108 128l-108 108l252 252q-84 108 -130 240t-46 276q0 232 114 428t310 310t428 114q288 0 516 -172l240 236l108 -108zM372 608l52 56h-88q16 -24 36 -56zM268 1176q-24 -92 -24 -172t24 -172
h288q-12 100 -12 172t12 172h-288zM336 1344h252q48 172 120 304q-120 -40 -214 -118t-158 -186zM716 1004v-48l220 220h-208q-12 -92 -12 -172zM928 1684q-112 -164 -164 -340h328q-52 176 -164 340zM1148 1648q44 -80 80 -184l96 96q-84 56 -176 88z" />
</svg>
