<?xml version="1.0" standalone="no"?>
<!DOCTYPE svg PUBLIC "-//W3C//DTD SVG 1.1//EN" "http://www.w3.org/Graphics/SVG/1.1/DTD/svg11.dtd" >
<svg xmlns="http://www.w3.org/2000/svg" xmlns:xlink="http://www.w3.org/1999/xlink" version="1.1" viewBox="-10 0 1724 2048">
   <path fill="currentColor"
d="M852 172q-232 0 -428 114t-310 310t-114 428q0 168 64 326t184 278t278 184t326 64t326 -64t278 -184t184 -278t64 -326t-64 -326t-184 -278t-278 -184t-326 -64zM1160 712q68 0 116 48t48 116t-48 116t-116 48t-116 -48t-50 -116t48 -116t118 -48zM648 576q84 0 142 60
t58 142t-58 142t-142 60t-144 -60t-60 -142t60 -142t144 -60zM648 1356v320q-156 -48 -270 -160t-170 -264q60 -64 208 -108q124 -36 232 -36q72 0 160 20q-92 48 -132 120q-28 52 -28 108zM852 1708q-48 0 -68 -4v-348q0 -80 140 -136q120 -44 236 -44q76 0 168 24
q104 28 160 72q-76 192 -250 314t-386 122z" />
</svg>
