<?xml version="1.0" standalone="no"?>
<!DOCTYPE svg PUBLIC "-//W3C//DTD SVG 1.1//EN" "http://www.w3.org/Graphics/SVG/1.1/DTD/svg11.dtd" >
<svg xmlns="http://www.w3.org/2000/svg" xmlns:xlink="http://www.w3.org/1999/xlink" version="1.1" viewBox="-10 0 1724 2048">
   <path fill="currentColor"
d="M1236 1024q88 0 150 -62t62 -150t-62 -152t-150 -64t-150 64t-62 152t62 150t150 62zM596 940q108 0 182 -76t74 -182t-74 -180t-182 -74t-182 74t-74 180t74 182t182 76zM1236 1196q-88 0 -192 24q-116 32 -192 80q-84 56 -84 128v192h936v-192q0 -72 -84 -128
q-76 -48 -192 -80q-104 -24 -192 -24zM596 1108q-112 0 -244 36q-148 36 -244 100q-108 72 -108 164v212h596v-192q0 -72 36 -136q52 -96 168 -160q-116 -24 -204 -24z" />
</svg>
