<?xml version="1.0" standalone="no"?>
<!DOCTYPE svg PUBLIC "-//W3C//DTD SVG 1.1//EN" "http://www.w3.org/Graphics/SVG/1.1/DTD/svg11.dtd" >
<svg xmlns="http://www.w3.org/2000/svg" xmlns:xlink="http://www.w3.org/1999/xlink" version="1.1" viewBox="-10 0 1728 2048">
   <path fill="currentColor"
d="M860 1664h-688v-1196h-172v1196q0 68 50 118t122 50h752q-48 -76 -64 -168zM1364 128h-424v424l-172 -128l-172 128v-424h-84q-72 0 -122 50t-50 118v1024q0 72 50 122t122 50h348q20 -112 84 -206t162 -150t210 -68t220 28v-800q0 -68 -50 -118t-122 -50zM1452 1236v256
h256v172h-256v256h-172v-256h-256v-172h256v-256h172z" />
</svg>
