<?xml version="1.0" standalone="no"?>
<!DOCTYPE svg PUBLIC "-//W3C//DTD SVG 1.1//EN" "http://www.w3.org/Graphics/SVG/1.1/DTD/svg11.dtd" >
<svg xmlns="http://www.w3.org/2000/svg" xmlns:xlink="http://www.w3.org/1999/xlink" version="1.1" viewBox="-10 0 1556 2048">
   <path fill="currentColor"
d="M1364 256h-1192q-72 0 -122 50t-50 122v1192q0 72 50 122t122 50h1192q72 0 122 -50t50 -122v-1192q0 -72 -50 -122t-122 -50zM852 604l96 -92l120 120l120 -120l92 92l-120 120l120 120l-92 96l-120 -120l-120 120l-96 -96l120 -120zM272 656h428v128h-428v-128z
M724 1364h-168v172h-128v-172h-172v-128h172v-168h128v168h168v128zM1280 1468h-428v-128h428v128zM1280 1264h-428v-128h428v128z" />
</svg>
