<?xml version="1.0" standalone="no"?>
<!DOCTYPE svg PUBLIC "-//W3C//DTD SVG 1.1//EN" "http://www.w3.org/Graphics/SVG/1.1/DTD/svg11.dtd" >
<svg xmlns="http://www.w3.org/2000/svg" xmlns:xlink="http://www.w3.org/1999/xlink" version="1.1" viewBox="-10 0 1728 2048">
   <path fill="currentColor"
d="M860 1708h-688v-1196h-172v1196q0 68 50 118t122 50h752q-48 -76 -64 -168zM1364 172h-424v424l-172 -128l-172 128v-424h-84q-72 0 -122 50t-50 118v1024q0 72 50 122t122 50h348q24 -136 112 -242t214 -154t266 -24q40 8 84 24v-800q0 -68 -50 -118t-122 -50z
M1708 1536v172h-684v-172h684z" />
</svg>
