<?xml version="1.0" standalone="no"?>
<!DOCTYPE svg PUBLIC "-//W3C//DTD SVG 1.1//EN" "http://www.w3.org/Graphics/SVG/1.1/DTD/svg11.dtd" >
<svg xmlns="http://www.w3.org/2000/svg" xmlns:xlink="http://www.w3.org/1999/xlink" version="1.1" viewBox="-10 0 1775 2048">
   <path fill="currentColor"
d="M1469 1024q0 -30 -21 -52l-104 -104l-414 -414q-20 -20 -51 -20q-32 0 -52 20l-104 104q-20 20 -20 52t20 52l216 216h-573q-30 0 -51.5 21t-21.5 51v148q0 30 21.5 51t51.5 21h573l-216 216q-21 22 -21 52t21 52l104 104q20 20 52 20q31 0 51 -20l414 -414l104 -104
q21 -22 21 -52zM1755 1024.5q0 119.5 -31.5 233t-88 210t-137.5 177.5t-177 137.5t-210 88t-233 31.5t-233 -31.5t-210.5 -88t-177.5 -137.5t-137.5 -177.5t-88 -210t-31.5 -233t31.5 -233.5t88 -210t137.5 -177t177.5 -137.5t210.5 -88.5t233 -32t233 32t210 88.5
t177 137.5t137.5 177t88 210t31.5 233.5z" />
</svg>
