<?xml version="1.0" standalone="no"?>
<!DOCTYPE svg PUBLIC "-//W3C//DTD SVG 1.1//EN" "http://www.w3.org/Graphics/SVG/1.1/DTD/svg11.dtd" >
<svg xmlns="http://www.w3.org/2000/svg" xmlns:xlink="http://www.w3.org/1999/xlink" version="1.1" viewBox="-10 0 1900 2048">
   <path fill="currentColor"
d="M1280 84q164 0 300 82t218 218t82 300q0 148 -68 276t-186 210t-258 106v260q0 108 -92 188v152q0 36 -22 62t-58 26h-84q-40 0 -66 -26t-26 -62v-84h-672v84q0 36 -26 62t-66 26h-84q-36 0 -58 -26t-22 -62v-152q-92 -80 -92 -188v-852q0 -204 176 -274t508 -70l104 4
q84 -120 214 -190t278 -70zM1280 256q-116 0 -214 58t-154 156t-56 214t56 214t154 154t214 56t214 -56t156 -154t58 -214t-58 -214t-156 -156t-214 -58zM1196 852h172v172h-172v-172zM1196 340h172v428h-172v-428zM172 1108h692q-84 -84 -132 -194t-48 -230h-512v424z
M300 1364q-52 0 -90 38t-38 92t38 90t92 36t90 -36t36 -90t-38 -92t-90 -38zM1068 1364q-56 0 -92 38t-36 92t38 90t90 36t90 -36t38 -90t-38 -92t-90 -38z" />
</svg>
