<?xml version="1.0" standalone="no"?>
<!DOCTYPE svg PUBLIC "-//W3C//DTD SVG 1.1//EN" "http://www.w3.org/Graphics/SVG/1.1/DTD/svg11.dtd" >
<svg xmlns="http://www.w3.org/2000/svg" xmlns:xlink="http://www.w3.org/1999/xlink" version="1.1" viewBox="-10 0 1724 2048">
   <path fill="currentColor"
d="M852 172q232 0 428 114t310 310t114 428t-114 428t-310 310t-428 114t-428 -114t-310 -310t-114 -428t114 -428t310 -310t428 -114zM852 340q-184 0 -342 92t-250 250t-92 342t92 342t250 250t342 92t342 -92t250 -250t92 -342t-92 -342t-250 -250t-342 -92zM852 428
q164 0 300 80t216 216t80 300t-80 300t-216 216t-300 80t-300 -80t-216 -216t-80 -300h596v-596z" />
</svg>
