<?xml version="1.0" standalone="no"?>
<!DOCTYPE svg PUBLIC "-//W3C//DTD SVG 1.1//EN" "http://www.w3.org/Graphics/SVG/1.1/DTD/svg11.dtd" >
<svg xmlns="http://www.w3.org/2000/svg" xmlns:xlink="http://www.w3.org/1999/xlink" version="1.1" viewBox="-10 0 1728 2048">
   <path fill="currentColor"
d="M684 170q184 0 340 46t248 124t92 172t-92 172t-248 124t-342 46t-342 -46t-248 -124t-92 -172t92 -172t248 -124t344 -46zM1364 942q-120 12 -210 92t-118 196q-164 48 -352 48t-344 -46t-248 -124t-92 -170v-256q0 92 92 170t248 124t342 46t342 -46t248 -124t92 -170
v260zM940 1426v256q-124 24 -256 24q-188 0 -344 -46t-248 -124t-92 -170v-256q0 92 92 170t248 124t344 46q132 0 256 -24zM1408 1110q88 0 150 62t62 150v44q36 0 62 24t26 60v340q0 36 -26 62t-62 26h-424q-36 0 -62 -26t-26 -62v-340q0 -36 26 -60t62 -24v-44
q0 -88 62 -150t150 -62zM1408 1194q-52 0 -90 38t-38 90v44h256v-44q0 -52 -38 -90t-90 -38z" />
</svg>
