<?xml version="1.0" standalone="no"?>
<!DOCTYPE svg PUBLIC "-//W3C//DTD SVG 1.1//EN" "http://www.w3.org/Graphics/SVG/1.1/DTD/svg11.dtd" >
<svg xmlns="http://www.w3.org/2000/svg" xmlns:xlink="http://www.w3.org/1999/xlink" version="1.1" viewBox="-10 0 1724 2048">
   <path fill="currentColor"
d="M1024 714l256 256v852h-172v-512h-596l-172 256v256h-172v-512l88 -84v-256l-256 -256l84 -88l172 172h168v256q0 36 26 60t62 24h340q36 0 60 -24t24 -60v-256zM1448 458v-172l-340 340l256 256l84 -84l88 84l168 -168zM808 842l-596 -600q-16 -16 -42 -16t-42 16
q-20 20 -20 44t20 44l596 596q16 16 42 16t42 -16q20 -16 20 -42t-20 -42z" />
</svg>
