<?xml version="1.0" standalone="no"?>
<!DOCTYPE svg PUBLIC "-//W3C//DTD SVG 1.1//EN" "http://www.w3.org/Graphics/SVG/1.1/DTD/svg11.dtd" >
<svg xmlns="http://www.w3.org/2000/svg" xmlns:xlink="http://www.w3.org/1999/xlink" version="1.1" viewBox="-10 0 1620 2048">
   <path fill="currentColor"
d="M684 252q184 0 342 46t250 124t92 172t-92 172t-250 124t-342 46t-342 -46t-250 -124t-92 -172t92 -172t250 -124t342 -46zM0 764q0 92 92 170t250 124t342 46t342 -46t250 -124t92 -170v264l-88 -8q-164 0 -294 94t-186 242l-116 4q-184 0 -342 -46t-250 -124t-92 -170
v-256zM0 1192q0 92 92 170t250 124t342 46h84q0 132 64 248l-148 8q-184 0 -342 -46t-250 -124t-92 -170v-256zM1196 1796l-236 -256l100 -100l136 136l308 -308l96 120z" />
</svg>
