<?xml version="1.0" standalone="no"?>
<!DOCTYPE svg PUBLIC "-//W3C//DTD SVG 1.1//EN" "http://www.w3.org/Graphics/SVG/1.1/DTD/svg11.dtd" >
<svg xmlns="http://www.w3.org/2000/svg" xmlns:xlink="http://www.w3.org/1999/xlink" version="1.1" viewBox="-10 0 1900 2048">
   <path fill="currentColor"
d="M1792 1536h-424q-36 0 -62 -24t-26 -60v-856q0 -36 26 -60t62 -24h424q36 0 62 24t26 60v856q0 36 -26 60t-62 24zM1792 684h-424v84h424v-84zM1792 852h-424v88h424v-88zM684 1280v172h84v84h-424v-84h84v-172h-340q-36 0 -62 -24t-26 -60v-600q0 -36 26 -60t62 -24h936
q36 0 62 24t26 60v600q0 36 -26 60t-62 24h-340zM940 684h-768v424h768v-424z" />
</svg>
