<?xml version="1.0" standalone="no"?>
<!DOCTYPE svg PUBLIC "-//W3C//DTD SVG 1.1//EN" "http://www.w3.org/Graphics/SVG/1.1/DTD/svg11.dtd" >
<svg xmlns="http://www.w3.org/2000/svg" xmlns:xlink="http://www.w3.org/1999/xlink" version="1.1" viewBox="-10 0 1812 2048">
   <path fill="currentColor"
d="M1024 768q0 -36 26 -60t62 -24t60 24t24 60v380l104 12l420 188q36 16 54 46t18 70v372q0 52 -38 88t-90 40h-552q-52 0 -88 -40l-416 -356l64 -68q24 -24 60 -24h20l272 144v-852zM1112 428q88 0 168 46t124 122q72 124 36 260t-160 208v-104q88 -76 88 -192
q0 -108 -76 -182t-182 -74t-180 74t-74 182q0 116 84 192v104q-80 -48 -126 -126t-46 -170q0 -140 100 -240t244 -100zM256 768l256 256h-168v256h-172v-256h-172zM256 596l-256 -256h172v-256h172v256h168zM684 1196q92 0 172 44v104q-76 -64 -178 -64t-176 74t-74 182
q0 64 28 118t76 90l180 132h-28q-140 0 -240 -100t-100 -240t100 -240t240 -100z" />
</svg>
