<?xml version="1.0" standalone="no"?>
<!DOCTYPE svg PUBLIC "-//W3C//DTD SVG 1.1//EN" "http://www.w3.org/Graphics/SVG/1.1/DTD/svg11.dtd" >
<svg xmlns="http://www.w3.org/2000/svg" xmlns:xlink="http://www.w3.org/1999/xlink" version="1.1" viewBox="-10 0 1775 2048">
   <path fill="currentColor"
d="M1467 1026q0 -32 -20 -52l-104 -104q-20 -20 -52 -20q-31 0 -51 20l-216 216v-574q0 -30 -21.5 -52t-51.5 -22h-146q-30 0 -52 22t-22 52v574l-216 -216q-21 -22 -51 -22t-51 22l-104 104q-21 20 -21 52q0 30 21 50l413 414l104 104q20 20 52 20q31 0 51 -20l104 -104
l414 -414q20 -20 20 -50zM1755 1024.5q0 119.5 -31.5 233t-88 210t-137.5 177.5t-177 137.5t-210 88t-233 31.5t-233 -31.5t-210.5 -88t-177.5 -137.5t-137.5 -177.5t-88 -210t-31.5 -233t31.5 -233.5t88 -210t137.5 -177t177.5 -137.5t210.5 -88.5t233 -32t233 32t210 88.5
t177 137.5t137.5 177t88 210t31.5 233.5z" />
</svg>
