<?xml version="1.0" standalone="no"?>
<!DOCTYPE svg PUBLIC "-//W3C//DTD SVG 1.1//EN" "http://www.w3.org/Graphics/SVG/1.1/DTD/svg11.dtd" >
<svg xmlns="http://www.w3.org/2000/svg" xmlns:xlink="http://www.w3.org/1999/xlink" version="1.1" viewBox="-10 0 1900 2048">
   <path fill="currentColor"
d="M172 212q-72 0 -122 50t-50 122v1024q0 72 50 122t122 50h620q84 120 214 188t274 68q164 0 300 -82t218 -218t82 -300q0 -116 -44 -224t-128 -192v-264q0 -72 -50 -122t-122 -50h-680l-172 -172h-512zM1280 812q116 0 214 56t156 154t58 214t-58 214t-156 156t-214 58
t-214 -58t-154 -156t-56 -214t56 -214t154 -154t214 -56zM1196 896v428l308 184l64 -104l-244 -144v-364h-128z" />
</svg>
