<?xml version="1.0" standalone="no"?>
<!DOCTYPE svg PUBLIC "-//W3C//DTD SVG 1.1//EN" "http://www.w3.org/Graphics/SVG/1.1/DTD/svg11.dtd" >
<svg xmlns="http://www.w3.org/2000/svg" xmlns:xlink="http://www.w3.org/1999/xlink" version="1.1" viewBox="-10 0 1812 2048">
   <path fill="currentColor"
d="M1792 686l-112 -132q-28 20 -68 40q-56 28 -98 28t-194 -40l-8 -4q-172 -44 -238 -44t-142 32q-20 -124 -114 -206t-222 -82q-184 0 -324 96q-132 88 -202 242t-70 342t92 328q88 132 244 202t344 70q272 0 456 -136l-28 332l172 16l84 -1000q96 20 152 20q88 0 184 -48
q56 -28 92 -56zM596 450q72 0 122 50t50 120t-50 120t-122 50h-408q40 -156 140 -244q108 -96 268 -96zM680 1390q-220 0 -360 -108q-152 -116 -152 -320h428q100 0 178 -48t122 -132q28 -20 72 -44q64 -32 104 -32t124 20l-32 396q-52 128 -182 198t-302 70z" />
</svg>
