<?xml version="1.0" standalone="no"?>
<!DOCTYPE svg PUBLIC "-//W3C//DTD SVG 1.1//EN" "http://www.w3.org/Graphics/SVG/1.1/DTD/svg11.dtd" >
<svg xmlns="http://www.w3.org/2000/svg" xmlns:xlink="http://www.w3.org/1999/xlink" version="1.1" viewBox="-10 0 1775 2048">
   <path fill="currentColor"
d="M878 146q119 0 233 32t210 88.5t177 137.5t137.5 177t88 210t31.5 233.5t-31.5 233t-88 210t-137.5 177.5t-177 137.5t-210 88t-233 31.5t-233 -31.5t-210.5 -88t-177.5 -137.5t-137.5 -177.5t-88 -210t-31.5 -233t31.5 -233.5t88 -210t137.5 -177t177.5 -137.5
t210.5 -88.5t233 -32zM1191 742q-2 1 -11 10.5t-15 11.5q3 -1 5.5 -6t5 -12t3.5 -8q4 -5 26 -18q20 -8 59 -14q38 -10 58 12q-2 -1 11.5 -13.5t16.5 -14.5t16.5 -5t17.5 -9l2 -24q-13 1 -19.5 -8.5t-7.5 -23.5q0 2 -7 8q0 -7 -5 -8.5t-13 0.5t-11 2q-12 -4 -17 -9.5
t-8 -18.5t-5 -16q-3 -6 -11 -13t-11 -11q-2 -3 -4.5 -9t-5.5 -10t-7 -5q-3 0 -8 6t-9 12t-5 6q-4 -3 -7 -2.5t-5 1.5t-5.5 3.5t-5.5 3.5q-4 3 -10 3.5t-9 2.5q17 -6 -3 -14q-10 -4 -17 -2q11 -6 9 -14t-10 -16h6q-1 -4 -9.5 -9t-20.5 -10t-15 -7q-8 -6 -38 -11t-38 -1
q-6 7 -5.5 12.5t4.5 16t4 13.5q1 8 -6.5 16.5t-7.5 13.5q0 7 9 12.5t16 11.5t3 18q-3 8 -18 17t-19 15q-5 9 -1 20.5t12 19.5q2 2 1.5 4t-4 5t-6.5 5t-7 4l-4 2q-13 7 -23.5 -6.5t-15.5 -29.5q0 -2 -1 -7t-1.5 -7t-2 -6t-3 -6t-4.5 -4.5t-6 -3.5q-27 -8 -33 0q-1 -3 -3.5 -6
t-6 -6t-6.5 -4.5t-8.5 -4t-7.5 -3.5t-8 -3t-7 -3q-26 -9 -66 -4q7 0 0 -17q-9 -18 -22 -13q4 -7 5 -21.5l1 -14.5q3 -15 13 -26q1 -2 8 -10.5t11.5 -15t0.5 -6.5q40 4 57 -14q5 -5 12.5 -18.5t12.5 -19.5q5 -5 12 -5.5t12 2t12.5 5.5t12.5 4q16 0 18 -13.5t-9 -22.5
q13 1 5 -17q-5 -11 -10 -13q-13 -3 -30 6q-11 5 1 10q-1 -1 -5 4t-9.5 12t-11 12.5t-12 5.5t-10.5 -8q-1 -2 -6 -16.5t-11 -15.5q-10 0 -18 18q4 -9 -12.5 -17t-27.5 -9q8 -6 8 -12t-5 -11t-12 -9q-8 -5 -23.5 -6t-22.5 6q-5 8 -6 13t5 9t12 6t13 4.5t10 3.5q16 11 9 16
q-1 1 -9.5 4t-13.5 5.5t-6 4.5q-3 5 -0.5 16.5t-2.5 15.5q-5 -5 -10 -19.5t-8 -18.5q8 10 -28 6l-12 -2q-4 0 -18 3t-23.5 1.5t-15.5 -8.5q-5 -12 0 -24q1 -4 4 -2q-5 -3 -12.5 -10.5t-11.5 -9.5q-52 17 -107 46q7 2 14 0q2 -1 26 -14q37 -17 48 -8l6 -6q13 14 23 28
q-7 -3 -35 0q-23 5 -25 12q8 16 6 22q-5 -4 -13.5 -12t-16.5 -13t-17 -5h-25q-168 94 -269 254q8 8 14 10q4 1 5.5 10t3.5 12.5t13 -2.5q10 8 3 20q1 -1 50 32q1 1 8 6.5t11 9t5 8.5t-2.5 11.5t-8.5 8.5q-1 -2 -10.5 -10t-10.5 -4q-3 5 0.5 20t12.5 14q-8 1 -10.5 19
t-2.5 40.5t-2 26.5l2 2q-3 14 6.5 39.5t24.5 22.5q-14 2 20 46q9 11 12 12q4 3 14.5 9t17 11.5t11.5 11.5q4 6 11 26t16 28q-2 6 11 22.5t12 25.5q-1 1 -3 1.5t-3 0.5q3 9 17.5 16.5t18.5 15.5q2 3 2.5 11.5t2.5 13t9 1.5q2 -24 -27 -70q-7 -11 -19 -34q-3 -5 -6.5 -17.5
t-5.5 -16.5q2 0 5 1t7.5 3t8 3.5t6 3.5t1.5 3q-3 6 0 14.5t10 18t13.5 17t15 16.5t10.5 12q6 6 15.5 21t0.5 15q10 0 22.5 12t19.5 24q6 9 9 29t6 27q2 9 9.5 16t14 10.5t18 9.5t15.5 8q5 2 21 11.5t25 12.5q11 5 18 5t16.5 -3t15.5 -4q13 -2 21.5 5.5t17.5 19.5t18 17
q42 22 63 12q-2 1 1 8.5t9 18t10 16.5l6 9q5 8 20.5 18.5t20.5 17.5q7 -5 8 -12q-4 10 8 23.5t21 12.5q8 -2 12 -14.5t4 -23.5q-35 17 -56 -20q0 -1 -2.5 -6t-4.5 -10t-3.5 -10t-0.5 -8.5t6 -3.5q6 0 9 -1.5t3 -5t-1.5 -7.5t-3.5 -9.5t-2 -8.5q-1 -10 -12.5 -23.5
t-13.5 -16.5q-6 9 -18.5 8t-18.5 -10q0 2 -1.5 6.5t-1.5 7.5q-14 0 -17 -2q1 -3 2.5 -20t3.5 -26q1 -4 6.5 -13.5t8.5 -16.5t4.5 -14t-4.5 -10.5t-20 -3.5q-21 2 -30 24q-2 3 -4 11.5t-5 13t-10 7.5q-8 4 -27.5 3t-27.5 -5q-16 -10 -26.5 -34t-10.5 -42q0 -12 3 -30.5
t3.5 -28.5t-6.5 -29q3 -2 10.5 -10t11.5 -12q2 -1 9 -1.5t9 -8.5l-3 -3t-4 -3.5l-2 -1.5q8 4 32.5 -1t31.5 1q17 14 25 -2l-3 -10t0 -16q2 15 11 17.5t22 -7.5q4 4 18 6.5t20 5.5q3 3 7.5 6.5t6.5 5t6 0t9 -7.5l5 7.5l4 6t2.5 4.5t2.5 8q10 45 22 52q15 9 17.5 -9t-1.5 -31
l-1 -9.5t-1.5 -19l-0.5 -9.5q-17 -4 -21 -14t2 -21t17 -21q1 -1 9 -4.5t17.5 -8.5t14.5 -9q24 -21 17 -40q10 0 13 -10q-1 0 -5.5 -3t-8.5 -5.5t-5 -1.5q11 -7 2 -20q5 -3 8 -12t9 -12q10 14 23 4q11 -9 2 -20q6 -8 24 -11t21 -11q7 3 8.5 -1.5t1 -13.5t3.5 -15
q5 -5 17 -9.5t15 -6.5l20 -12q4 -4 0 -4q19 2 34 -13q13 -13 -6 -23q3 -7 -3.5 -11t-16.5 -7q3 0 13 0.5t12 -2.5q18 -11 -8 -18q-18 -5 -49 14zM1005 1744q116 -19 218.5 -75t182.5 -141q-4 -3 -14.5 -5t-14.5 -5l-27 -8q1 -9 -3.5 -15.5t-9 -10t-14 -9t-12.5 -8t-8.5 -7
t-8 -6t-8.5 -4.5t-9.5 -2.5t-11.5 0.5q0 1 -3 2l-6 2t-6.5 3t-4.5 3.5t0 3.5q-21 -19 -42 -26q-5 -1 -12.5 -6l-12 -8t-11.5 -2t-13 8q-5 6 -6 17.5t-3 14.5q-8 -5 -0.5 -19.5t2.5 -20.5q-4 -5 -9.5 -5.5t-11 2.5t-10.5 6t-10.5 7.5t-7.5 5.5q-2 2 -9 6.5t-10 9.5
q-3 4 -7 13t-6 13q-2 -5 -13 -7.5t-11 -6.5q2 13 5 41t6 43q3 13 -0.5 29t-13.5 25l-4.5 4.5l-5 5t-5 4.5t-4.5 5t-4 5t-4 5l-2.5 5t-2.5 6t-1 6q-4 26 13 30q0 8 -9 23t-8 25z" />
</svg>
