<?xml version="1.0" standalone="no"?>
<!DOCTYPE svg PUBLIC "-//W3C//DTD SVG 1.1//EN" "http://www.w3.org/Graphics/SVG/1.1/DTD/svg11.dtd" >
<svg xmlns="http://www.w3.org/2000/svg" xmlns:xlink="http://www.w3.org/1999/xlink" version="1.1" viewBox="-10 0 1724 2048">
   <path fill="currentColor"
d="M1516 1450q12 0 24 -4q32 -8 56 -28q32 -24 52 -60q24 -48 24 -112t-28 -112q-24 -40 -64 -64q-28 -20 -60 -32l-28 -4h-324v612h160v-144l148 144h228zM1448 1330h-128v-136h128l20 16q16 20 16 52q4 24 -4 40t-20 24zM1644 726v16q-324 -92 -552 36q-204 112 -300 364
q-88 228 -60 480h-536q24 -188 136 -400q128 -240 308 -400q208 -188 444 -224q276 -40 560 128zM1576 614q-120 -52 -176 -68l8 -112l176 68zM1408 770q88 0 176 24l-8 104l-152 -20zM1016 522l-36 -104l180 -16l32 112zM1124 838q80 -40 172 -60l32 100l-152 60zM836 582
q-104 48 -156 84l-68 -112l156 -84zM1048 886l68 104l-92 112l-96 -88q36 -72 120 -128zM816 1306q12 -88 52 -196l104 84l-28 164zM504 818q-52 52 -120 140l-112 -96l128 -136zM236 1194q-24 48 -60 144l-24 52l-152 -60l76 -196zM808 1418l156 52l24 168l-172 -40v-28
q-8 -80 -8 -152z" />
</svg>
