<?xml version="1.0" standalone="no"?>
<!DOCTYPE svg PUBLIC "-//W3C//DTD SVG 1.1//EN" "http://www.w3.org/Graphics/SVG/1.1/DTD/svg11.dtd" >
<svg xmlns="http://www.w3.org/2000/svg" xmlns:xlink="http://www.w3.org/1999/xlink" version="1.1" viewBox="-11 0 1725 2048">
   <path fill="currentColor"
d="M664 1184q72 0 120 48t48 118t-48 118t-118 48t-118 -48t-48 -118t48 -118t116 -48zM1064 284h60q156 0 290 78t212 212t78 290l-4 72l-100 -32v-40q0 -128 -64 -238t-174 -174t-238 -64h-32zM1136 532q132 4 226 100t94 228l-104 -32q-12 -72 -64 -124t-124 -64zM0 1316
q-4 -76 32 -168q60 -152 220 -296q100 -92 184 -152q72 -48 132 -76q40 -16 72 -20h64q48 4 76 24q44 28 44 84q4 72 -52 180h4q100 -104 304 -124q120 -12 152 72q28 60 4 160q124 60 192 146t68 182q0 120 -100 220t-272 158t-376 58h-24q-220 0 -400 -72t-264 -192
q-60 -80 -60 -172v-12zM664 1016q-132 0 -248 46t-182 122t-66 166t66 166t182 122t250 46t250 -46t182 -122t66 -166t-66 -166t-182 -122t-252 -46z" />
</svg>
