<?xml version="1.0" standalone="no"?>
<!DOCTYPE svg PUBLIC "-//W3C//DTD SVG 1.1//EN" "http://www.w3.org/Graphics/SVG/1.1/DTD/svg11.dtd" >
<svg xmlns="http://www.w3.org/2000/svg" xmlns:xlink="http://www.w3.org/1999/xlink" version="1.1" viewBox="-10 0 1604 2048">
   <path fill="currentColor"
d="M1404 1620l176 180l-120 120l-176 -180l-184 184l-120 -124l180 -180l-180 -180l120 -120l180 180l180 -180l124 124zM768 84l768 344v512q0 112 -24 224q-108 -56 -232 -56q-140 0 -258 70t-186 188t-68 254q0 176 104 312l-104 32q-216 -56 -392 -208t-276 -368
t-100 -448v-512z" />
</svg>
