<?xml version="1.0" standalone="no"?>
<!DOCTYPE svg PUBLIC "-//W3C//DTD SVG 1.1//EN" "http://www.w3.org/Graphics/SVG/1.1/DTD/svg11.dtd" >
<svg xmlns="http://www.w3.org/2000/svg" xmlns:xlink="http://www.w3.org/1999/xlink" version="1.1" viewBox="-10 0 1895 2048">
   <path fill="currentColor"
d="M415 1621q0 -30 -21.5 -51.5t-51.5 -21.5t-51.5 21.5t-21.5 51.5t21.5 51.5t51.5 21.5t51.5 -21.5t21.5 -51.5zM1151 1141l-780 779q-43 43 -102 43t-104 -43l-122 -123q-43 -41 -43 -103q0 -61 43 -104l779 -778q44 113 130 199t199 130zM1875 644q0 47 -26 121
q-54 153 -188 248.5t-295 95.5q-104 0 -198.5 -40.5t-163.5 -109.5t-109.5 -163.5t-40.5 -198.5t40.5 -198.5t109.5 -163.5t163.5 -109.5t198.5 -40.5q65 0 138 19t123 53q19 14 19 32q0 19 -19 32l-334 193v256l220 122q4 -2 90 -55t156 -93t80 -40q17 0 26.5 11t9.5 29z
" />
</svg>
