<?xml version="1.0" standalone="no"?>
<!DOCTYPE svg PUBLIC "-//W3C//DTD SVG 1.1//EN" "http://www.w3.org/Graphics/SVG/1.1/DTD/svg11.dtd" >
<svg xmlns="http://www.w3.org/2000/svg" xmlns:xlink="http://www.w3.org/1999/xlink" version="1.1" viewBox="-10 0 1612 2048">
   <path fill="currentColor"
d="M1560 1195q-20 92 -144 176t-280 100h-4q-220 28 -338 22t-242 -26l-96 -20v52q16 128 124 172q64 28 220 36q96 0 204 -20q52 -8 88 -20l8 140l-36 16q-48 16 -104 32q-76 16 -164 20q-188 12 -396 -40q-228 -64 -320 -304q-72 -180 -80 -508v-292q0 -128 36 -232
q32 -84 84 -148q40 -44 84 -76l36 -24q92 -40 240 -60q144 -20 312 -20h8q168 0 312 20q148 20 240 60l36 24q44 32 84 76q52 64 84 148q36 104 36 232l-4 160q-8 184 -28 304zM1308 759q0 -132 -72 -216t-192 -84q-136 0 -204 104l-44 76l-44 -76q-72 -104 -208 -104
q-116 0 -188 84t-72 216v448h180v-436q0 -136 116 -136q128 0 128 164v236h176v-236q0 -164 128 -164q116 0 116 136v436h180v-448z" />
</svg>
