<?xml version="1.0" standalone="no"?>
<!DOCTYPE svg PUBLIC "-//W3C//DTD SVG 1.1//EN" "http://www.w3.org/Graphics/SVG/1.1/DTD/svg11.dtd" >
<svg xmlns="http://www.w3.org/2000/svg" xmlns:xlink="http://www.w3.org/1999/xlink" version="1.1" viewBox="-10 0 1724 2048">
   <path fill="currentColor"
d="M108 172l-108 108l236 236l72 116l-120 188l148 76l108 -172l300 300h-576q-68 0 -118 50t-50 122v680h168v-168h1260l108 108v60h168v-108zM424 1452q0 36 -24 60t-60 24t-60 -24t-24 -60v-172q0 -36 24 -60t60 -24t60 24t24 60v172zM768 1452q0 36 -26 60t-62 24
t-60 -24t-24 -60v-172q0 -36 24 -60t60 -24t62 24t26 60v172zM1108 1452q0 36 -24 60t-60 24t-62 -24t-26 -60v-172q0 -24 16 -48l156 156v64zM1216 812l120 -188l-120 -188l168 -264l152 76l-124 188l124 188l-172 264zM1704 1196v356l-256 -256v-16q0 -36 -24 -60t-60 -24
h-12l-176 -172h360q68 0 118 50t50 122zM820 624l-120 -188l172 -264l148 76l-124 188l124 188l-96 144l-120 -116zM468 316l-120 -120l12 -16l148 76z" />
</svg>
