<?xml version="1.0" standalone="no"?>
<!DOCTYPE svg PUBLIC "-//W3C//DTD SVG 1.1//EN" "http://www.w3.org/Graphics/SVG/1.1/DTD/svg11.dtd" >
<svg xmlns="http://www.w3.org/2000/svg" xmlns:xlink="http://www.w3.org/1999/xlink" version="1.1" viewBox="-10 0 1900 2048">
   <path fill="currentColor"
d="M940 1024q0 -124 64 -232t172 -172t234 -64t234 64t172 172t64 232h-940zM940 1024q0 124 -64 232t-172 172t-234 64t-234 -64t-172 -172t-64 -232h940zM940 1024q-124 0 -232 -64t-172 -172t-64 -234t64 -234t172 -172t232 -64v940zM940 1024q124 0 232 64t172 172
t64 234t-64 234t-172 172t-232 64v-940z" />
</svg>
