<?xml version="1.0" standalone="no"?>
<!DOCTYPE svg PUBLIC "-//W3C//DTD SVG 1.1//EN" "http://www.w3.org/Graphics/SVG/1.1/DTD/svg11.dtd" >
<svg xmlns="http://www.w3.org/2000/svg" xmlns:xlink="http://www.w3.org/1999/xlink" version="1.1" viewBox="-10 0 1724 2048">
   <path fill="currentColor"
d="M852 172q-168 0 -326 64t-278 184t-184 278t-64 326t64 326t184 278t278 184t326 64t326 -64t278 -184t184 -278t64 -326t-64 -326t-184 -278t-278 -184t-326 -64zM1224 488q68 -4 112 24t44 72q4 24 -14 50t-50 28t-50 -14t-18 -44q-4 -8 12 -40l8 -24q0 -16 -16 -20
t-28 -4q-84 4 -132 108q-28 64 -56 212l-12 72q96 16 152 -20q16 -12 16 -22t-12 -30t-8 -32q4 -24 20 -36t38 -12t36 20t14 44q0 48 -56 84q-60 44 -160 44q-20 0 -48 -4q-48 236 -76 328q-48 136 -124 228q-112 132 -248 140q-64 0 -104 -28t-40 -72t28 -70t58 -26t52 20
t24 52t-26 44l-4 4q-16 12 -16 20t6 14t22 6q32 0 72 -28h4q56 -48 92 -148q28 -80 62 -264t62 -280q-16 -12 -50 -42t-54 -42q-32 -24 -68 -32q-72 -20 -108 24q-20 28 -16 58t24 50q76 84 100 128t16 92q-12 84 -96 128t-188 12q-84 -28 -120 -84q-28 -48 -12 -92
q8 -28 30 -38t48 -2t36 34t2 54l-20 44q-12 32 52 52q40 12 76 -4t44 -52q16 -44 -24 -80q-64 -72 -88 -124q-32 -60 -14 -118t62 -90q92 -68 200 -36q44 12 80 40q24 16 60 52l40 32q52 -148 136 -244q96 -112 216 -116z" />
</svg>
