<?xml version="1.0" standalone="no"?>
<!DOCTYPE svg PUBLIC "-//W3C//DTD SVG 1.1//EN" "http://www.w3.org/Graphics/SVG/1.1/DTD/svg11.dtd" >
<svg xmlns="http://www.w3.org/2000/svg" xmlns:xlink="http://www.w3.org/1999/xlink" version="1.1" viewBox="-10 0 1775 2048">
   <path fill="currentColor"
d="M1466 618l-405 406l405 406l165 -164q15 -17 37.5 -21t42.5 5q20 8 32 26t12 40v512q0 30 -21.5 52t-51.5 22h-512q-22 0 -40.5 -12.5t-26.5 -33.5q-9 -19 -4.5 -41t20.5 -37l164 -166l-405 -406l-406 406l165 166q16 15 20.5 37t-4.5 41q-8 21 -27 33.5t-41 12.5h-512
q-30 0 -51.5 -22t-21.5 -52v-512q0 -22 12.5 -40t33.5 -26q19 -9 41.5 -5t37.5 21l164 164l406 -406l-406 -406l-164 164q-22 22 -52 22q-11 0 -27 -6q-21 -8 -33.5 -26t-12.5 -40v-512q0 -30 21.5 -52t51.5 -22h512q22 0 41 13t27 33q9 20 4.5 41.5t-20.5 36.5l-165 166
l406 406l405 -406l-164 -166q-16 -15 -20.5 -36.5t4.5 -41.5q8 -20 26.5 -33t40.5 -13h512q30 0 51.5 22t21.5 52v512q0 22 -12 40t-32 26q-18 6 -29 6q-29 0 -51 -22z" />
</svg>
