<?xml version="1.0" standalone="no"?>
<!DOCTYPE svg PUBLIC "-//W3C//DTD SVG 1.1//EN" "http://www.w3.org/Graphics/SVG/1.1/DTD/svg11.dtd" >
<svg xmlns="http://www.w3.org/2000/svg" xmlns:xlink="http://www.w3.org/1999/xlink" version="1.1" viewBox="-10 0 1724 2048">
   <path fill="currentColor"
d="M168 384q-36 0 -60 26t-24 62v424q-28 0 -52 18t-32 50v272h24q24 -40 62 -62t82 -22h768q48 0 86 22t62 62h112l-4 -252q0 -36 -24 -62t-60 -26h-172v-168q0 -36 -24 -62t-60 -26t-60 26t-24 62v168h-172v-424q0 -36 -24 -62t-60 -26h-344zM256 556h168v428h-168v-428z
M1280 984v680h424v-84l-256 -84l-84 -512h-84zM168 1324q-68 0 -118 50t-50 120t50 120t118 50h768q72 0 122 -50t50 -120t-50 -120t-122 -50h-768z" />
</svg>
