<?xml version="1.0" standalone="no"?>
<!DOCTYPE svg PUBLIC "-//W3C//DTD SVG 1.1//EN" "http://www.w3.org/Graphics/SVG/1.1/DTD/svg11.dtd" >
<svg xmlns="http://www.w3.org/2000/svg" xmlns:xlink="http://www.w3.org/1999/xlink" version="1.1" viewBox="-10 0 1279 2048">
   <path fill="currentColor"
d="M1014 519q-44 12 -88 28q-100 36 -168 84q-96 68 -120 144q-24 100 72 212q36 40 32 88q-4 32 -28 64l-24 28l48 -36q56 -40 76 -84q28 -64 -12 -124l-12 -16q-52 -72 -60 -108q-8 -52 48 -112q64 -68 236 -168zM634 619q96 -76 148 -152q44 -64 60 -124q8 -48 0 -92
q-8 -32 -24 -60l-16 -20q20 88 -4 160q-24 64 -84 124q-36 36 -120 100q-60 52 -88 76q-48 44 -76 80q-52 84 12 188q44 76 188 208q-16 -32 -60 -96q-48 -76 -64 -112q-24 -68 0 -128q28 -72 128 -152zM406 1491q-96 24 -82 60t108 60t214 20q136 -8 252 -60
q-48 -20 -92 -44q-176 40 -352 12q-72 -8 -68 -28q4 -12 20 -20zM858 1347q-224 48 -456 20q-68 -4 -60 -36q4 -16 24 -28q-104 36 -92 70t114 54t242 12q156 -8 300 -48q-36 -16 -72 -44zM1150 1627q4 8 10 18t-4 26t-58 28q-96 28 -300 42t-388 6q-204 -12 -284 -44
q-40 -20 8 -44q36 -20 80 -28q28 -8 60 -8q-32 -20 -132 6t-134 68t78 58q196 32 392 40q172 4 328 -12q144 -16 242 -44t126 -58t-24 -54zM918 1215q32 -24 80 -44l-84 12q-96 16 -176 24q-204 20 -412 4q-88 -12 -60 -40q20 -16 100 -40l72 -24q-140 0 -268 64
q-64 32 -6 54t196 30t282 0q164 -12 276 -40zM994 1419q-4 8 -8 8q152 -36 220 -108q60 -56 52 -118t-70 -92t-134 -6q-20 8 -28 20q20 -4 36 -8q40 -8 78 16t46 70t-32 98q-48 64 -160 120zM1006 1815q-384 64 -780 12l20 8q24 8 68 16q64 12 152 20q168 12 340 0
q192 -12 308 -48q140 -40 144 -108q4 0 -16 18t-68 34q-64 28 -168 48z" />
</svg>
