<?xml version="1.0" standalone="no"?>
<!DOCTYPE svg PUBLIC "-//W3C//DTD SVG 1.1//EN" "http://www.w3.org/Graphics/SVG/1.1/DTD/svg11.dtd" >
<svg xmlns="http://www.w3.org/2000/svg" xmlns:xlink="http://www.w3.org/1999/xlink" version="1.1" viewBox="-10 0 1640 2048">
   <path fill="currentColor"
d="M1024 256l-172 -172h-684q-68 0 -118 50t-50 122v1024q0 72 50 122t118 50h600v168l340 -256l-340 -256v172h-600v-1024h856zM1620 852v940q0 72 -50 122t-122 50h-936q-72 0 -122 -50t-50 -122v-172h172v172h936v-768h-424v-428h-512v512h-172v-512q0 -68 50 -118
t122 -50h680z" />
</svg>
