<?xml version="1.0" standalone="no"?>
<!DOCTYPE svg PUBLIC "-//W3C//DTD SVG 1.1//EN" "http://www.w3.org/Graphics/SVG/1.1/DTD/svg11.dtd" >
<svg xmlns="http://www.w3.org/2000/svg" xmlns:xlink="http://www.w3.org/1999/xlink" version="1.1" viewBox="-10 0 1728 2048">
   <path fill="currentColor"
d="M1708 1210l-104 72q-132 80 -244 128q-164 72 -272 72q-152 4 -204 -76q-24 -40 -16 -80l92 -36q112 -52 208 -112q140 -88 232 -184q116 -124 152 -256q40 -160 -28 -332q-80 -112 -180 -158t-240 -42q-156 0 -288 96q-160 116 -264 344q-44 104 -72 228q-16 72 -32 192
l-44 4q-56 4 -100 -4q-64 -8 -104 -40q-52 -44 -96 -28q-24 8 -36 28l-32 48q-32 60 -36 104q0 64 68 88q88 36 240 64l132 16q20 100 72 192q68 128 188 216q92 72 236 84q112 12 256 -12q100 -20 204 -56l84 -32zM824 1050q4 -148 52 -272q40 -108 108 -180
q60 -64 124 -82t104 18q48 44 50 120t-42 156t-128 138t-152 82q-48 20 -88 24z" />
</svg>
