<?xml version="1.0" standalone="no"?>
<!DOCTYPE svg PUBLIC "-//W3C//DTD SVG 1.1//EN" "http://www.w3.org/Graphics/SVG/1.1/DTD/svg11.dtd" >
<svg xmlns="http://www.w3.org/2000/svg" xmlns:xlink="http://www.w3.org/1999/xlink" version="1.1" viewBox="-10 0 1640 2048">
   <path fill="currentColor"
d="M1024 1024h468l-468 -468v468zM512 428h596l512 512v852q0 72 -50 122t-122 50h-936q-72 0 -122 -50t-50 -122v-256h428v172l340 -256l-340 -256v168h-428v-768q0 -68 50 -118t122 -50zM980 256h-812v1108h172v172h-172q-68 0 -118 -50t-50 -122v-1108q0 -72 50 -122
t118 -50h640z" />
</svg>
