<?xml version="1.0" standalone="no"?>
<!DOCTYPE svg PUBLIC "-//W3C//DTD SVG 1.1//EN" "http://www.w3.org/Graphics/SVG/1.1/DTD/svg11.dtd" >
<svg xmlns="http://www.w3.org/2000/svg" xmlns:xlink="http://www.w3.org/1999/xlink" version="1.1" viewBox="-10 0 1728 2048">
   <path fill="currentColor"
d="M1404 384l-208 208v16l208 204h304v172h-376l-136 -136v220h-84q-72 0 -122 -50t-50 -122v-212h-268q-8 48 -36 88l492 892h412q68 0 118 50t50 122v84h-1704v-84q0 -72 50 -122t118 -50h564l-400 -724q-112 0 -204 -72t-120 -184q-36 -136 36 -258t210 -158t260 36
t154 208h268v-212q0 -72 50 -122t122 -50h84v224l136 -136h376v168h-304zM344 428q-72 0 -122 50t-50 120t50 120t122 50t122 -50t50 -120t-50 -120t-122 -50z" />
</svg>
