<?xml version="1.0" standalone="no"?>
<!DOCTYPE svg PUBLIC "-//W3C//DTD SVG 1.1//EN" "http://www.w3.org/Graphics/SVG/1.1/DTD/svg11.dtd" >
<svg xmlns="http://www.w3.org/2000/svg" xmlns:xlink="http://www.w3.org/1999/xlink" version="1.1" viewBox="-10 0 1708 2048">
   <path fill="currentColor"
d="M1688 760l-144 84l-340 -588l144 -84zM656 676l256 440l520 -296l-256 -444zM792 1084l-168 -300l-368 216l168 296zM0 1244l84 148l224 -128l-88 -148zM852 1196l-24 -36l-368 212l24 36q28 40 68 68l-136 400h172l120 -364h8l128 364h172l-164 -476q32 -44 32 -100
t-32 -104z" />
</svg>
