<?xml version="1.0" standalone="no"?>
<!DOCTYPE svg PUBLIC "-//W3C//DTD SVG 1.1//EN" "http://www.w3.org/Graphics/SVG/1.1/DTD/svg11.dtd" >
<svg xmlns="http://www.w3.org/2000/svg" xmlns:xlink="http://www.w3.org/1999/xlink" version="1.1" viewBox="-10 0 532 2048">
   <path fill="currentColor"
d="M172 1108h168v172h-168v-172zM172 768h168v172h-168v-172zM172 1452h168q72 0 122 -50t50 -122v-128q0 -52 -38 -90t-90 -38q52 0 90 -38t38 -90v-128q0 -72 -50 -122t-122 -50h-168q-72 0 -122 50t-50 122v128q0 52 38 90t90 38q-52 0 -90 38t-38 90v128q0 72 50 122
t122 50z" />
</svg>
