<?xml version="1.0" standalone="no"?>
<!DOCTYPE svg PUBLIC "-//W3C//DTD SVG 1.1//EN" "http://www.w3.org/Graphics/SVG/1.1/DTD/svg11.dtd" >
<svg xmlns="http://www.w3.org/2000/svg" xmlns:xlink="http://www.w3.org/1999/xlink" version="1.1" viewBox="-10 0 1900 2048">
   <path fill="currentColor"
d="M552 1012l120 -120l184 184l180 -184l120 120l-180 184l180 180l-120 120l-180 -180l-184 180l-120 -120l184 -180zM172 256h1536q72 0 122 50t50 122v1192q0 72 -50 122t-122 50h-1536q-72 0 -122 -50t-50 -122v-1192q0 -72 50 -122t122 -50zM172 428v1192h1536v-852
h-684v-340h-852z" />
</svg>
