<?xml version="1.0" standalone="no"?>
<!DOCTYPE svg PUBLIC "-//W3C//DTD SVG 1.1//EN" "http://www.w3.org/Graphics/SVG/1.1/DTD/svg11.dtd" >
<svg xmlns="http://www.w3.org/2000/svg" xmlns:xlink="http://www.w3.org/1999/xlink" version="1.1" viewBox="-10 0 1812 2048">
   <path fill="currentColor"
d="M1684 1920l-684 -680l-56 56l-472 -200q8 -60 48 -100l120 -120l-640 -640l108 -108l1684 1684zM1220 1020l-364 -360l448 -448q52 -52 122 -52t118 52l124 120q48 52 48 122t-48 118zM1364 512q24 28 60 28t62 -26t26 -62t-26 -60t-62 -24t-60 24t-24 60t24 60z
M332 1344v492l496 -444l-428 -172z" />
</svg>
