<?xml version="1.0" standalone="no"?>
<!DOCTYPE svg PUBLIC "-//W3C//DTD SVG 1.1//EN" "http://www.w3.org/Graphics/SVG/1.1/DTD/svg11.dtd" >
<svg xmlns="http://www.w3.org/2000/svg" xmlns:xlink="http://www.w3.org/1999/xlink" version="1.1" viewBox="-10 0 1900 2048">
   <path fill="currentColor"
d="M1664 1236v128h-128v-128h128zM1496 812h-128v-44q0 -108 74 -182t180 -74t182 74t76 182q0 60 -30 116t-82 88l-24 16q-80 56 -80 148v16h-128v-16q0 -76 36 -144t100 -108l24 -16q56 -36 56 -100q0 -52 -38 -90t-92 -38t-90 38t-36 90v44zM684 1108q128 0 280 40
q172 44 276 112q128 84 128 192v256h-1368v-256q0 -108 128 -192q104 -68 276 -112q152 -40 280 -40zM684 340q140 0 240 100t100 242t-100 242t-240 100t-240 -100t-100 -242t100 -242t240 -100zM684 1272q-120 0 -248 32q-112 32 -192 76t-80 72v92h1040v-92
q0 -28 -80 -72t-192 -76q-128 -32 -248 -32zM684 504q-76 0 -128 52t-52 126t52 126t128 52t128 -52t52 -126t-52 -126t-128 -52z" />
</svg>
