<?xml version="1.0" standalone="no"?>
<!DOCTYPE svg PUBLIC "-//W3C//DTD SVG 1.1//EN" "http://www.w3.org/Graphics/SVG/1.1/DTD/svg11.dtd" >
<svg xmlns="http://www.w3.org/2000/svg" xmlns:xlink="http://www.w3.org/1999/xlink" version="1.1" viewBox="-10 0 1940 2048">
   <path fill="currentColor"
d="M0 588q32 -8 60 -12q76 -12 152 -12q108 0 204 24q116 24 204 84l16 84q24 92 64 152q56 84 132 84v-148l16 20q16 28 40 40q36 24 72 24t72 -24q24 -12 40 -40l16 -20v148q76 0 132 -84q40 -60 64 -152l16 -84q160 -108 408 -108q120 0 212 24q-76 36 -124 136
q-36 72 -56 168l-12 80q-152 0 -240 72q-64 48 -88 132q-12 40 -12 72q-192 -36 -300 24q-80 44 -112 132q-16 44 -16 80l-8 -52q-12 -56 -44 -100q-48 -60 -128 -84q-100 -28 -248 0l-4 -44q-12 -52 -36 -96q-40 -60 -104 -96q-80 -40 -196 -40l-12 -80q-20 -96 -56 -168
q-48 -100 -124 -136z" />
</svg>
