<?xml version="1.0" standalone="no"?>
<!DOCTYPE svg PUBLIC "-//W3C//DTD SVG 1.1//EN" "http://www.w3.org/Graphics/SVG/1.1/DTD/svg11.dtd" >
<svg xmlns="http://www.w3.org/2000/svg" xmlns:xlink="http://www.w3.org/1999/xlink" version="1.1" viewBox="-10 0 1556 2048">
   <path fill="currentColor"
d="M848 74q-56 132 -76 196q-36 112 -36 196q0 68 24 156q-8 -24 -20 -40q-48 -68 -152 -140q-64 -48 -204 -132q0 136 16 204l536 540v-172q116 -68 180 -116q92 -68 136 -130t60 -154q8 -56 8 -172q-140 84 -204 132q-104 72 -152 140l-20 36q24 -88 24 -164
q0 -84 -40 -192q-20 -64 -80 -188zM108 438l-108 108l396 396q12 84 56 144t136 128q64 48 180 116v196l-28 -48q-48 -68 -152 -140q-64 -48 -204 -132q0 116 8 172q16 92 60 154t136 130q64 48 180 116v156h168v-156q112 -64 176 -116l316 312l108 -108zM1320 758
q-140 84 -204 132q-104 72 -152 140l-16 32l160 160q100 -76 144 -138t60 -154q8 -56 8 -172zM1320 1206q-80 48 -140 88l124 124q16 -68 16 -212z" />
</svg>
