<?xml version="1.0" standalone="no"?>
<!DOCTYPE svg PUBLIC "-//W3C//DTD SVG 1.1//EN" "http://www.w3.org/Graphics/SVG/1.1/DTD/svg11.dtd" >
<svg xmlns="http://www.w3.org/2000/svg" xmlns:xlink="http://www.w3.org/1999/xlink" version="1.1" viewBox="-10 0 1724 2048">
   <path fill="currentColor"
d="M852 172q-168 0 -326 64t-278 184t-184 278t-64 326t64 326t184 278t278 184t326 64t326 -64t278 -184t184 -278t64 -326t-64 -326t-184 -278t-278 -184t-326 -64zM432 1560q28 -56 162 -104t258 -48t258 48t162 104q-184 148 -420 148t-420 -148zM1396 1436
q-84 -100 -272 -156q-148 -44 -272 -44t-272 44q-188 56 -272 156q-140 -184 -140 -412q0 -184 92 -342t250 -250t342 -92t342 92t250 250t92 342q0 228 -140 412zM852 512q-124 0 -212 88t-88 212t88 210t212 86t212 -86t88 -210t-88 -212t-212 -88zM852 940q-52 0 -90 -38
t-38 -92t38 -90t90 -36t90 36t38 90t-38 92t-90 38z" />
</svg>
