<?xml version="1.0" standalone="no"?>
<!DOCTYPE svg PUBLIC "-//W3C//DTD SVG 1.1//EN" "http://www.w3.org/Graphics/SVG/1.1/DTD/svg11.dtd" >
<svg xmlns="http://www.w3.org/2000/svg" xmlns:xlink="http://www.w3.org/1999/xlink" version="1.1" viewBox="-10 0 1984 2048">
   <path fill="currentColor"
d="M1280 1026h128v240l208 120l-64 112l-272 -160v-312zM1368 854q-116 0 -214 58t-156 156t-58 214t58 214t156 154t214 56t214 -56t154 -154t56 -214t-56 -214t-154 -156t-214 -58zM1368 682q160 0 298 82t218 218t80 298t-80 300t-218 218t-298 80q-176 0 -322 -94
t-218 -246h-828v-256q0 -108 128 -192q104 -68 276 -112q152 -40 280 -40q80 0 180 20q80 -128 214 -202t290 -74zM768 1282q0 -92 28 -172q-52 -8 -112 -8q-120 0 -248 32q-112 32 -192 76t-80 72v92h612q-8 -44 -8 -92zM684 170q140 0 240 100t100 242t-100 242t-240 100
t-240 -100t-100 -242t100 -242t240 -100zM684 334q-76 0 -128 52t-52 126t52 126t128 52t128 -52t52 -126t-52 -126t-128 -52z" />
</svg>
