<?xml version="1.0" standalone="no"?>
<!DOCTYPE svg PUBLIC "-//W3C//DTD SVG 1.1//EN" "http://www.w3.org/Graphics/SVG/1.1/DTD/svg11.dtd" >
<svg xmlns="http://www.w3.org/2000/svg" xmlns:xlink="http://www.w3.org/1999/xlink" version="1.1" viewBox="-10 0 1724 2048">
   <path fill="currentColor"
d="M680 940q144 0 244 -100t100 -242t-100 -242t-242 -100t-242 100t-100 242t100 242t240 100zM680 428q72 0 122 50t50 120t-50 120t-120 50t-120 -50t-50 -120t50 -120t118 -50zM960 1064q-152 -40 -278 -40t-278 40q-172 44 -280 112q-124 84 -124 192v256h944l-4 -36
q-4 -16 -4 -52t8 -76q16 -112 80 -208q28 -40 56 -68t64 -56q-84 -40 -184 -64zM772 1460h-612v-92q0 -28 80 -72t192 -76q132 -32 248 -32q68 0 172 16q-64 116 -80 256zM1704 1452v172h-340v168l-256 -256l256 -256v172h340z" />
</svg>
