<?xml version="1.0" standalone="no"?>
<!DOCTYPE svg PUBLIC "-//W3C//DTD SVG 1.1//EN" "http://www.w3.org/Graphics/SVG/1.1/DTD/svg11.dtd" >
<svg xmlns="http://www.w3.org/2000/svg" xmlns:xlink="http://www.w3.org/1999/xlink" version="1.1" viewBox="-10 0 1556 2048">
   <path fill="currentColor"
d="M1360 172q-16 -40 -48 -64t-76 -24h-936q-44 0 -76 24t-48 64l-176 512v680q0 36 26 62t58 26h88q32 0 58 -26t26 -62v-84h1024v84q0 36 26 62t58 26h88q32 0 58 -26t26 -62v-680zM300 1024q-56 0 -92 -38t-36 -90t36 -90t90 -38t92 38t38 90t-38 90t-90 38zM1236 1024
q-52 0 -90 -38t-38 -90t38 -90t92 -38t90 38t36 90t-36 90t-92 38zM172 596l128 -384h936l128 384h-1192zM340 1708h344v-172l512 256h-344v172z" />
</svg>
