<?xml version="1.0" standalone="no"?>
<!DOCTYPE svg PUBLIC "-//W3C//DTD SVG 1.1//EN" "http://www.w3.org/Graphics/SVG/1.1/DTD/svg11.dtd" >
<svg xmlns="http://www.w3.org/2000/svg" xmlns:xlink="http://www.w3.org/1999/xlink" version="1.1" viewBox="-10 0 1515 2048">
   <path fill="currentColor"
d="M1459 1325l-492 -852q-52 -92 -154 -120t-194 28q-60 32 -92 92l-492 852q-52 92 -26 192t118 152q56 36 128 36h984q108 0 182 -74t74 -182q0 -68 -36 -124zM187 1409l488 -852q16 -28 50 -38t66 6q20 12 32 32l488 852q20 32 10 64t-42 52q-16 12 -40 12h-984
q-32 0 -58 -26t-26 -62q0 -24 12 -40h4zM747 1069q-68 0 -118 -50t-50 -120t50 -120t120 -50t120 50t50 120t-50 120t-122 50zM535 1453q-72 0 -122 -50t-50 -122t50 -120t120 -48t120 48t50 120t-50 122t-118 50zM959 1453q-68 -4 -118 -52t-50 -118t50 -120t120 -50
t120 48t50 120t-50 122t-122 50z" />
</svg>
