<?xml version="1.0" standalone="no"?>
<!DOCTYPE svg PUBLIC "-//W3C//DTD SVG 1.1//EN" "http://www.w3.org/Graphics/SVG/1.1/DTD/svg11.dtd" >
<svg xmlns="http://www.w3.org/2000/svg" xmlns:xlink="http://www.w3.org/1999/xlink" version="1.1" viewBox="-10 0 1900 2048">
   <path fill="currentColor"
d="M428 596h1024q116 0 214 58t156 156t58 214t-58 214t-156 156t-214 58q-104 0 -192 -46t-148 -126h-344q-60 80 -148 126t-192 46q-116 0 -214 -58t-156 -156t-58 -214t58 -214t156 -156t214 -58zM1600 812q-44 0 -74 30t-30 74t30 76t74 32t76 -32t32 -76t-32 -74
t-76 -30zM1388 1024q-44 0 -76 32t-32 76t32 74t76 30t76 -30t32 -74t-32 -76t-76 -32zM344 768v172h-172v168h172v172h168v-172h172v-168h-172v-172h-168z" />
</svg>
