<?xml version="1.0" standalone="no"?>
<!DOCTYPE svg PUBLIC "-//W3C//DTD SVG 1.1//EN" "http://www.w3.org/Graphics/SVG/1.1/DTD/svg11.dtd" >
<svg xmlns="http://www.w3.org/2000/svg" xmlns:xlink="http://www.w3.org/1999/xlink" version="1.1" viewBox="-10 0 1812 2048">
   <path fill="currentColor"
d="M0 256l112 -108l1660 1660l-108 112l-236 -240q-220 152 -488 152q-168 0 -326 -64t-278 -184t-184 -278t-64 -326q0 -268 152 -488zM512 1408l204 -436l-352 -356q-108 172 -108 360t92 346t250 250t346 92t360 -108l-356 -352zM1368 552l-204 432l-228 -228zM940 128
q168 0 326 64t278 184t184 278t64 326q0 268 -148 484l-124 -124q104 -164 104 -360q0 -184 -92 -342t-250 -250t-342 -92q-196 0 -360 104l-124 -124q216 -148 484 -148z" />
</svg>
