<?xml version="1.0" standalone="no"?>
<!DOCTYPE svg PUBLIC "-//W3C//DTD SVG 1.1//EN" "http://www.w3.org/Graphics/SVG/1.1/DTD/svg11.dtd" >
<svg xmlns="http://www.w3.org/2000/svg" xmlns:xlink="http://www.w3.org/1999/xlink" version="1.1" viewBox="-10 0 1900 2048">
   <path fill="currentColor"
d="M1408 554q128 0 236 64t172 172t64 236q0 92 -36 178t-102 152t-152 102t-182 36q-108 0 -202 -46t-158 -126h-216q-64 80 -158 126t-202 46q-96 0 -182 -36t-152 -102t-102 -152t-36 -180t36 -180t102 -152t152 -102t182 -36h936zM472 726q-124 0 -212 88t-88 212
t88 210t212 86q88 0 160 -46t108 -122h400q36 76 108 122t160 46q124 0 212 -86t88 -210t-88 -212t-212 -88h-936zM408 834h128v128h128v128h-128v128h-128v-128h-128v-128h128v-128zM1344 1026q36 0 62 24t26 60t-26 60t-62 24t-60 -24t-24 -60t24 -60t60 -24zM1516 854
q36 0 60 24t24 60t-24 62t-60 26t-60 -26t-24 -62t24 -60t60 -24z" />
</svg>
