<?xml version="1.0" standalone="no"?>
<!DOCTYPE svg PUBLIC "-//W3C//DTD SVG 1.1//EN" "http://www.w3.org/Graphics/SVG/1.1/DTD/svg11.dtd" >
<svg xmlns="http://www.w3.org/2000/svg" xmlns:xlink="http://www.w3.org/1999/xlink" version="1.1" viewBox="-10 0 1812 2048">
   <path fill="currentColor"
d="M0 256l112 -108l1660 1660l-108 112l-236 -240q-220 152 -488 152q-168 0 -326 -64t-278 -184t-184 -278t-64 -326q0 -268 152 -488zM428 1492l552 -256l-296 -296zM1452 468l-548 256l-448 -448q216 -148 484 -148q168 0 326 64t278 184t184 278t64 326q0 268 -148 484
l-448 -448z" />
</svg>
