<?xml version="1.0" standalone="no"?>
<!DOCTYPE svg PUBLIC "-//W3C//DTD SVG 1.1//EN" "http://www.w3.org/Graphics/SVG/1.1/DTD/svg11.dtd" >
<svg xmlns="http://www.w3.org/2000/svg" xmlns:xlink="http://www.w3.org/1999/xlink" version="1.1" viewBox="-10 0 1724 2048">
   <path fill="currentColor"
d="M1436 638h-224l-488 -256l-556 292v820q-68 0 -118 -50t-50 -122v-668q0 -84 68 -116l656 -324l644 324q60 36 68 100zM424 726h1112q68 0 118 50t50 118v768q0 72 -50 122t-118 50h-1112q-68 0 -118 -50t-50 -122v-768q0 -68 50 -118t118 -50zM1536 1038v-144l-556 284
l-556 -284v144l556 284z" />
</svg>
