<?xml version="1.0" standalone="no"?>
<!DOCTYPE svg PUBLIC "-//W3C//DTD SVG 1.1//EN" "http://www.w3.org/Graphics/SVG/1.1/DTD/svg11.dtd" >
<svg xmlns="http://www.w3.org/2000/svg" xmlns:xlink="http://www.w3.org/1999/xlink" version="1.1" viewBox="-10 0 1604 2048">
   <path fill="currentColor"
d="M1464 1900l-184 -184l-180 184l-120 -120l180 -184l-180 -180l120 -120l180 180l184 -180l120 120l-184 180l184 184zM856 148h-684q-72 0 -122 50t-50 118v1368q0 68 50 118t122 50h668q-72 -116 -72 -254t70 -256t188 -188t254 -70q40 0 88 8v-432zM768 744v-468
l472 468h-472z" />
</svg>
