<?xml version="1.0" standalone="no"?>
<!DOCTYPE svg PUBLIC "-//W3C//DTD SVG 1.1//EN" "http://www.w3.org/Graphics/SVG/1.1/DTD/svg11.dtd" >
<svg xmlns="http://www.w3.org/2000/svg" xmlns:xlink="http://www.w3.org/1999/xlink" version="1.1" viewBox="-10 0 1724 2048">
   <path fill="currentColor"
d="M804 928l124 -120l180 180l180 -180l124 120l-184 180l184 184l-124 120l-180 -184l-180 184l-124 -120l184 -184zM1704 684v852q0 72 -50 122t-118 50h-1368q-68 0 -118 -50t-50 -122v-1024q0 -72 50 -122t118 -50h512l172 172h684q68 0 118 50t50 122zM1536 684h-1368
v852h1368v-852z" />
</svg>
