<?xml version="1.0" standalone="no"?>
<!DOCTYPE svg PUBLIC "-//W3C//DTD SVG 1.1//EN" "http://www.w3.org/Graphics/SVG/1.1/DTD/svg11.dtd" >
<svg xmlns="http://www.w3.org/2000/svg" xmlns:xlink="http://www.w3.org/1999/xlink" version="1.1" viewBox="-10 0 1724 2048">
   <path fill="currentColor"
d="M852 1876q-168 0 -326 -64t-278 -184t-184 -278t-64 -326t64 -326t184 -278t278 -184t326 -64t326 64t278 184t184 278t64 326t-64 326t-184 278t-278 184t-326 64zM852 1708q184 0 342 -92t250 -250t92 -342t-92 -342t-250 -250t-342 -92t-342 92t-250 250t-92 342
t92 342t250 250t342 92zM852 940q36 0 60 24t24 60t-24 60t-60 24t-60 -24t-24 -60t24 -60t60 -24zM852 684q168 0 308 92t204 248q-56 140 -174 228t-266 108t-284 -36q-104 -44 -180 -122t-120 -178q64 -156 204 -248t308 -92zM852 812q-88 0 -150 62t-62 150t62 150
t150 62t150 -62t62 -150t-62 -150t-150 -62z" />
</svg>
