<?xml version="1.0" standalone="no"?>
<!DOCTYPE svg PUBLIC "-//W3C//DTD SVG 1.1//EN" "http://www.w3.org/Graphics/SVG/1.1/DTD/svg11.dtd" >
<svg xmlns="http://www.w3.org/2000/svg" xmlns:xlink="http://www.w3.org/1999/xlink" version="1.1" viewBox="-10 0 1724 2048">
   <path fill="currentColor"
d="M704 1108q0 44 -32 76t-76 32t-76 -32t-32 -76t32 -74t76 -30t76 30t32 74zM1108 1004q-44 0 -76 30t-32 74t32 76t76 32t76 -32t32 -76t-32 -74t-76 -30zM1704 1024q0 168 -64 326t-184 278t-278 184t-326 64t-326 -64t-278 -184t-184 -278t-64 -326t64 -326t184 -278
t278 -184t326 -64t326 64t278 184t184 278t64 326zM736 352q92 152 248 242t336 90q52 0 116 -12q-92 -152 -246 -242t-338 -90q-52 0 -116 12zM204 808q112 -64 192 -162t120 -218q-108 64 -190 162t-122 218zM1536 1024q0 -96 -28 -192q-96 20 -188 20q-196 0 -368 -84
t-292 -228q-68 164 -196 286t-296 186v12q0 184 92 342t250 250t342 92t342 -92t250 -250t92 -342z" />
</svg>
