<?xml version="1.0" standalone="no"?>
<!DOCTYPE svg PUBLIC "-//W3C//DTD SVG 1.1//EN" "http://www.w3.org/Graphics/SVG/1.1/DTD/svg11.dtd" >
<svg xmlns="http://www.w3.org/2000/svg" xmlns:xlink="http://www.w3.org/1999/xlink" version="1.1" viewBox="-10 0 1724 2048">
   <path fill="currentColor"
d="M168 256h1368q68 0 118 50t50 122v1192q0 72 -50 122t-118 50h-1368q-68 0 -118 -50t-50 -122v-1192q0 -72 50 -122t118 -50zM720 472q-32 0 -54 24t-22 56v264q0 32 22 54t54 22h264q32 0 54 -22t22 -54v-264q0 -32 -22 -56t-54 -24h-264zM772 576h160q8 0 16 8t8 20
v156q0 12 -8 20t-16 8h-160q-8 0 -16 -8t-8 -20v-156q0 -12 8 -20t16 -8zM248 472q-32 0 -56 24t-24 56v264q0 32 24 54t56 22h184v-104h-132q-12 0 -18 -8t-6 -20v-156q0 -12 6 -20t18 -8h156q12 0 20 8t8 20v316q0 8 -8 16t-20 8h-288v108h344q32 0 54 -24t22 -56v-420
q0 -32 -22 -56t-54 -24h-264zM1192 472q-32 0 -54 24t-22 56v264q0 32 22 54t54 22h184v-104h-128q-12 0 -20 -8t-8 -20v-156q0 -12 8 -20t20 -8h156q12 0 18 8t6 20v316q0 8 -6 16t-18 8h-288v108h340q32 0 56 -24t24 -56v-420q0 -32 -24 -56t-56 -24h-264zM668 1156
q-32 0 -56 22t-24 54v264q0 32 24 56t56 24h264q32 0 54 -24t22 -56v-264q0 -32 -22 -54t-54 -22h-264zM720 1260h160q12 0 18 8t6 20v156q0 12 -8 20t-16 8h-160q-12 0 -18 -8t-6 -20v-156q0 -12 6 -20t18 -8zM248 1156q-32 0 -56 22t-24 54v264q0 32 24 56t56 24h288v-104
h-236q-12 0 -18 -8t-6 -20v-156q0 -12 6 -20t18 -8h236v-104h-288zM1140 1156q-32 0 -56 22t-24 54v344h108v-288q0 -12 8 -20t16 -8h56v316h104v-316h76v316h108v-420h-396z" />
</svg>
