<?xml version="1.0" standalone="no"?>
<!DOCTYPE svg PUBLIC "-//W3C//DTD SVG 1.1//EN" "http://www.w3.org/Graphics/SVG/1.1/DTD/svg11.dtd" >
<svg xmlns="http://www.w3.org/2000/svg" xmlns:xlink="http://www.w3.org/1999/xlink" version="1.1" viewBox="-10 0 1724 2048">
   <path fill="currentColor"
d="M680 1620q-36 0 -60 -22t-24 -62v-84q0 -36 24 -62t60 -26t62 24t26 64v84q0 40 -24 62t-64 22zM1108 1536v-84q0 -36 -24 -62t-60 -26t-62 24t-26 64v84q0 32 24 58t64 26q36 0 60 -22t24 -62zM1704 1024q0 164 -92 306t-248 242v136q0 68 -50 118t-122 50h-680
q-72 0 -122 -50t-50 -118v-136q-156 -100 -248 -242t-92 -308t64 -324t184 -278t278 -184t326 -64t326 64t278 184t184 278t64 326zM424 852q0 -68 -34 -128t-94 -92q-128 164 -128 392q0 60 8 84q104 -4 176 -78t72 -178zM596 768q0 108 74 182t182 74t182 -74t74 -182
t-74 -182t-182 -74t-182 74t-74 182zM1192 1708v-384q-168 -44 -340 -44t-340 44v384h680zM1528 1108q8 -24 8 -84q0 -228 -128 -392q-60 32 -94 92t-34 128q0 104 72 178t176 78z" />
</svg>
