<?xml version="1.0" standalone="no"?>
<!DOCTYPE svg PUBLIC "-//W3C//DTD SVG 1.1//EN" "http://www.w3.org/Graphics/SVG/1.1/DTD/svg11.dtd" >
<svg xmlns="http://www.w3.org/2000/svg" xmlns:xlink="http://www.w3.org/1999/xlink" version="1.1" viewBox="-10 0 1728 2048">
   <path fill="currentColor"
d="M1147 1849h-16q-20 -4 -24 -20l-188 -496q-8 -16 0 -32t20 -20q96 -36 136 -128t4 -186t-126 -134t-184 -4t-134 128t-2 188t138 132q16 4 22 20t2 32l-196 496q-4 16 -20 22t-32 -2q-216 -80 -358 -258t-178 -402t48 -440t260 -358t402 -178t442 44q156 64 280 180
t192 272t72 324t-56 328q-64 172 -192 300t-300 192h-12zM855 281q-208 -8 -388 92t-288 274t-112 382q-4 236 124 436t348 292l164 -420q-116 -64 -156 -190t24 -244t192 -156t244 26t156 190t-24 246q-48 84 -132 128l164 424q136 -64 242 -176t162 -252q76 -196 46 -398
t-156 -362t-318 -240q-140 -56 -292 -52z" />
</svg>
