<?xml version="1.0" standalone="no"?>
<!DOCTYPE svg PUBLIC "-//W3C//DTD SVG 1.1//EN" "http://www.w3.org/Graphics/SVG/1.1/DTD/svg11.dtd" >
<svg xmlns="http://www.w3.org/2000/svg" xmlns:xlink="http://www.w3.org/1999/xlink" version="1.1" viewBox="-10 0 1556 2048">
   <path fill="currentColor"
d="M1364 256q72 0 122 50t50 122v596q0 72 -50 122t-122 50h-1192q-72 0 -122 -50t-50 -122v-596q0 -72 50 -122t122 -50h1192zM172 852v172h376q-84 -72 -112 -172h-264zM1364 1024v-172h-264q-28 100 -112 172h376zM1364 684v-256h-1192v256h424v84q0 68 52 120t120 52
t120 -52t52 -120v-84h424zM1536 1620q0 72 -50 122t-122 50h-1192q-72 0 -122 -50t-50 -122v-340h596v84q0 68 52 120t120 52t120 -52t52 -120v-84h596v340zM172 1452v168h376q-84 -72 -112 -168h-264zM1364 1620v-168h-264q-28 96 -112 168h376z" />
</svg>
