<?xml version="1.0" standalone="no"?>
<!DOCTYPE svg PUBLIC "-//W3C//DTD SVG 1.1//EN" "http://www.w3.org/Graphics/SVG/1.1/DTD/svg11.dtd" >
<svg xmlns="http://www.w3.org/2000/svg" xmlns:xlink="http://www.w3.org/1999/xlink" version="1.1" viewBox="-10 0 1730 2048">
   <path fill="currentColor"
d="M1703 1119l-88 -276l-184 -560q-8 -20 -26 -34t-42 -14t-42 14t-26 34l-168 528h-540l-172 -528q-8 -20 -26 -34t-42 -14t-42 14t-26 34l-272 836q-12 32 -2 62t38 50l788 572q24 20 48 0l788 -572q28 -20 38 -50t-2 -62zM527 891l220 676l-528 -676h308zM963 1567
l212 -648l8 -28h308l-476 612zM1363 335l156 476h-308zM1099 891l-152 468l-92 280l-244 -748h488zM347 335l152 476h-308zM91 1167q-12 -12 -8 -24l68 -208l496 636zM1619 1167l-556 404l496 -636l68 208q4 12 -8 24z" />
</svg>
