<?xml version="1.0" standalone="no"?>
<!DOCTYPE svg PUBLIC "-//W3C//DTD SVG 1.1//EN" "http://www.w3.org/Graphics/SVG/1.1/DTD/svg11.dtd" >
<svg xmlns="http://www.w3.org/2000/svg" xmlns:xlink="http://www.w3.org/1999/xlink" version="1.1" viewBox="-10 0 1896 2048">
   <path fill="currentColor"
d="M168 1792h1280q72 0 122 -50t50 -122v-512h-340v172l-344 -256l344 -256v172h340v-512q0 -72 -50 -122t-122 -50h-1280q-68 0 -118 50t-50 122v1192q0 72 50 122t118 50zM168 1280h344v172h-344v-172zM168 940h600v168h-600v-168zM168 596h600v172h-600v-172zM1620 940
h256v168h-256v-168z" />
</svg>
