<?xml version="1.0" standalone="no"?>
<!DOCTYPE svg PUBLIC "-//W3C//DTD SVG 1.1//EN" "http://www.w3.org/Graphics/SVG/1.1/DTD/svg11.dtd" >
<svg xmlns="http://www.w3.org/2000/svg" xmlns:xlink="http://www.w3.org/1999/xlink" version="1.1" viewBox="-10 0 1852 2048">
   <path fill="currentColor"
d="M1056 1134l140 196q4 -76 24 -142t64 -126zM1408 1622q-4 -176 56 -354t164 -318l-172 56q-108 68 -154 208t-2 256zM1536 1794q-64 60 -140 104l-28 -40q-200 -108 -452 -108t-452 108l-28 40q-76 -44 -140 -104l24 -28q44 -220 -38 -470t-246 -402l-36 -12
q20 -88 52 -164l36 12q220 -24 434 -178t310 -358v-40l84 -4l84 4v36q92 208 306 362t434 182l40 -16q32 76 52 164l-44 16q-164 148 -244 396t-36 464zM832 974v-248q-48 60 -104 100q-68 48 -132 72zM832 362q-100 148 -254 260t-330 160l168 56q64 4 132 -16t128 -64
q120 -88 156 -212v-184zM1000 974l236 -76q-68 -28 -128 -70t-108 -102v248zM1580 782q-168 -48 -322 -160t-258 -260v176q32 132 154 220t254 80zM776 1134l-232 -76q40 60 64 132t24 144zM196 946q108 140 168 322t56 362l100 -144q52 -124 6 -268t-154 -216zM916 1234
l-140 196q68 -20 140 -20t140 20zM560 1726q168 -60 356 -60t356 60l-112 -152q-96 -80 -244 -80t-244 80z" />
</svg>
