<?xml version="1.0" standalone="no"?>
<!DOCTYPE svg PUBLIC "-//W3C//DTD SVG 1.1//EN" "http://www.w3.org/Graphics/SVG/1.1/DTD/svg11.dtd" >
<svg xmlns="http://www.w3.org/2000/svg" xmlns:xlink="http://www.w3.org/1999/xlink" version="1.1" viewBox="-10 0 1900 2048">
   <path fill="currentColor"
d="M512 512h-168v-172h168v172zM1368 512h168v-172h-168v172zM1880 1024v512h-172v-340h-172v340h-168v-172h-856v172h-168v-340h-172v340h-172v-512h172v-172h172v-168h168v-172h172v172h512v-172h172v172h168v168h172v172h172zM1196 852v172h172v-172h-172zM512 1024h172
v-172h-172v172zM856 1536h-344v172h344v-172zM1368 1536h-344v172h344v-172z" />
</svg>
