<?xml version="1.0" standalone="no"?>
<!DOCTYPE svg PUBLIC "-//W3C//DTD SVG 1.1//EN" "http://www.w3.org/Graphics/SVG/1.1/DTD/svg11.dtd" >
<svg xmlns="http://www.w3.org/2000/svg" xmlns:xlink="http://www.w3.org/1999/xlink" version="1.1" viewBox="-10 0 1724 2048">
   <path fill="currentColor"
d="M852 340h-596q-108 0 -182 76t-74 180v684q0 108 74 182t182 74l-88 84v88h88l168 -176l172 4v-428h-428v-596h768v172h172v-88q0 -104 -74 -180t-182 -76zM256 1196q36 0 60 24t24 60t-24 60t-60 24t-62 -24t-26 -60t26 -60t62 -24zM1584 824q-8 -24 -32 -40t-52 -16
h-612q-32 0 -54 16t-30 40l-124 352v468q0 24 18 44t42 20h52q24 0 42 -20t18 -48v-104h684v104q0 28 16 48t40 20h52q24 0 42 -20t18 -44v-468zM888 852h612l88 256h-788zM852 1364q-36 0 -60 -24t-24 -60t24 -60t60 -24t60 24t24 60t-24 60t-60 24zM1536 1364
q-36 0 -62 -24t-26 -60t26 -60t62 -24t60 24t24 60t-24 60t-60 24z" />
</svg>
