<?xml version="1.0" standalone="no"?>
<!DOCTYPE svg PUBLIC "-//W3C//DTD SVG 1.1//EN" "http://www.w3.org/Graphics/SVG/1.1/DTD/svg11.dtd" >
<svg xmlns="http://www.w3.org/2000/svg" xmlns:xlink="http://www.w3.org/1999/xlink" version="1.1" viewBox="-10 0 1668 2048">
   <path fill="currentColor"
d="M772 172q-232 0 -428 120q-144 88 -248 228q-56 72 -80 124l68 48l-24 48q-24 64 -40 132q-20 96 -20 188q0 208 106 398t290 302q196 116 432 116q224 0 412 -110t298 -298t110 -408q0 -280 -132 -492q-120 -192 -328 -300q-196 -96 -416 -96zM780 316q200 0 368 98
t266 264t98 362t-92 360q-88 152 -242 242t-334 90q-132 0 -248 -62t-186 -172t-70 -242q0 -116 56 -204q44 -80 124 -128l12 16q-24 20 -56 92q-40 84 -40 164q0 160 110 264t274 104q132 0 236 -68t162 -184t58 -252q0 -156 -84 -290t-224 -214t-308 -80q-124 0 -248 48
q-104 40 -184 100l-12 -12q88 -140 236 -218t328 -78zM652 616q164 0 302 98t178 246l-20 8q-76 -100 -184 -160q-116 -68 -244 -68q-160 0 -280 88q-108 80 -162 210t-42 258l-20 8l-16 -52q-20 -64 -20 -124q0 -140 68 -256t186 -186t254 -70zM796 968q76 0 130 52t54 128
q0 48 -28 92q-12 24 -24 36l60 44l-20 24q-28 28 -60 44q-48 24 -104 24q-92 0 -158 -64t-66 -160t68 -158t148 -62z" />
</svg>
