<?xml version="1.0" standalone="no"?>
<!DOCTYPE svg PUBLIC "-//W3C//DTD SVG 1.1//EN" "http://www.w3.org/Graphics/SVG/1.1/DTD/svg11.dtd" >
<svg xmlns="http://www.w3.org/2000/svg" xmlns:xlink="http://www.w3.org/1999/xlink" version="1.1" viewBox="-11 0 1730 2048">
   <path fill="currentColor"
d="M1583 564q88 124 116 272q28 164 -26 318t-170 262q-88 84 -196 136q28 68 -2 134t-98 94q-32 12 -64 12q-72 0 -122 -50t-54 -122h-264q-4 76 -62 122t-128 40t-116 -56t-46 -118q0 -28 8 -48q-208 -72 -340 -244q-24 -28 -18 -64t34 -56t56 -20q44 0 66 -14t34 -38
q32 -96 32 -192q4 -64 16 -136q24 -108 84 -204t148 -164q216 -172 496 -172q184 0 348 84t268 224zM1259 1476q112 -52 198 -142t130 -206q68 -204 -8 -392q-72 -172 -242 -282t-370 -110q-52 0 -92 8q-196 24 -348 144q-164 132 -200 316q-8 36 -12 120q-8 108 -20 156
q-20 84 -60 124q-52 52 -144 52q128 160 320 220q56 -52 128 -46t124 58q16 16 20 36h304q32 -68 104 -90t136 14q12 4 28 20h4zM767 880q-36 0 -64 -24t-30 -62t22 -66t62 -30t66 24t30 64t-22 64t-60 30h-4zM1167 880q-36 0 -64 -24t-30 -62t22 -66t62 -30t66 24t30 64
t-24 64t-62 30zM659 1028q-4 -16 6 -32t28 -20t34 8t20 28q24 72 86 114t134 34q72 4 134 -36t86 -112q8 -16 26 -22t34 6q24 12 24 40q-24 92 -104 148q-92 64 -200 64h-8q-104 4 -190 -56t-110 -164z" />
</svg>
