<?xml version="1.0" standalone="no"?>
<!DOCTYPE svg PUBLIC "-//W3C//DTD SVG 1.1//EN" "http://www.w3.org/Graphics/SVG/1.1/DTD/svg11.dtd" >
<svg xmlns="http://www.w3.org/2000/svg" xmlns:xlink="http://www.w3.org/1999/xlink" version="1.1" viewBox="-10 0 1984 2048">
   <path fill="currentColor"
d="M256 172v512h-168v-512h168zM88 1876h168v-512h-168v512zM344 1024q0 -72 -50 -122t-122 -50t-122 50t-50 122t50 122t122 50t122 -50t50 -122zM1964 512v1024q0 72 -50 122t-122 50h-1024q-68 0 -118 -50t-50 -122v-340l-172 -172l172 -172v-340q0 -72 50 -122t118 -50
h1024q72 0 122 50t50 122zM1536 1108h-680v172h680v-172zM1708 768h-852v172h852v-172z" />
</svg>
