<?xml version="1.0" standalone="no"?>
<!DOCTYPE svg PUBLIC "-//W3C//DTD SVG 1.1//EN" "http://www.w3.org/Graphics/SVG/1.1/DTD/svg11.dtd" >
<svg xmlns="http://www.w3.org/2000/svg" xmlns:xlink="http://www.w3.org/1999/xlink" version="1.1" viewBox="-10 0 1684 2048">
   <path fill="currentColor"
d="M1544 1048l120 120l-556 560l-296 -296l120 -120l176 176zM684 320q140 0 240 100t100 242t-100 242t-242 100t-242 -100t-100 -242t100 -242t244 -100zM684 492q-72 0 -122 50t-50 120t50 120t120 50t120 -50t50 -120t-50 -120t-118 -50zM684 1088q84 0 204 24l-144 144
l-60 -4q-120 0 -248 32q-112 32 -192 76t-80 72v92h528l160 164h-852v-256q0 -108 128 -192q104 -68 276 -112q152 -40 280 -40z" />
</svg>
