<?xml version="1.0" standalone="no"?>
<!DOCTYPE svg PUBLIC "-//W3C//DTD SVG 1.1//EN" "http://www.w3.org/Graphics/SVG/1.1/DTD/svg11.dtd" >
<svg xmlns="http://www.w3.org/2000/svg" xmlns:xlink="http://www.w3.org/1999/xlink" version="1.1" viewBox="-11 0 1892 2048">
   <path fill="currentColor"
d="M1843 1619l-772 -776q60 -152 28 -314t-152 -282q-148 -144 -352 -160t-368 104l328 328l-120 120l-328 -324q-120 164 -106 368t162 348q116 120 276 152t312 -24l776 776q24 28 60 28t60 -28l196 -196q28 -24 28 -58t-28 -62zM1587 1755l-804 -808q-80 60 -170 72
t-178 -14t-150 -90t-90 -140t-24 -156l264 264l360 -364l-264 -264q172 -8 296 112q68 68 94 158t10 180t-72 170l804 804z" />
</svg>
