<?xml version="1.0" standalone="no"?>
<!DOCTYPE svg PUBLIC "-//W3C//DTD SVG 1.1//EN" "http://www.w3.org/Graphics/SVG/1.1/DTD/svg11.dtd" >
<svg xmlns="http://www.w3.org/2000/svg" xmlns:xlink="http://www.w3.org/1999/xlink" version="1.1" viewBox="-10 0 1724 2048">
   <path fill="currentColor"
d="M852 766q124 0 212 -86t88 -210t-88 -212t-212 -88t-212 88t-88 212t88 210t212 86zM852 342q52 0 90 36t38 90t-38 92t-90 38t-90 -38t-38 -92t38 -90t90 -36zM1108 1622q0 -36 -24 -62t-60 -26h-88v-168h512v-128q0 -84 -80 -152t-216 -108t-300 -40t-300 40t-216 108
t-80 152v128h512v168h-88q-36 0 -60 26t-24 62h-596v168h596q0 36 24 62t60 26h344q36 0 60 -26t24 -62h596v-168h-596zM476 1194q60 -36 148 -56q104 -28 228 -28t228 28q88 20 148 56h-752z" />
</svg>
