<?xml version="1.0" standalone="no"?>
<!DOCTYPE svg PUBLIC "-//W3C//DTD SVG 1.1//EN" "http://www.w3.org/Graphics/SVG/1.1/DTD/svg11.dtd" >
<svg xmlns="http://www.w3.org/2000/svg" xmlns:xlink="http://www.w3.org/1999/xlink" version="1.1" viewBox="-10 0 1900 2048">
   <path fill="currentColor"
d="M344 1280l-52 -44l-40 -36q-136 -128 -180 -184q-72 -92 -72 -170t56 -134t132 -56q48 0 88 18t68 50q24 -32 66 -50t86 -18q80 0 134 54t54 134t-68 172q-48 56 -184 184l-40 36zM1196 340q-140 0 -240 100t-100 242t100 242t240 100t240 -100t100 -242t-100 -242
t-240 -100zM1196 860q-76 0 -128 -52t-52 -126t52 -126t128 -52t128 52t52 126t-52 126t-128 52zM1196 1108q-128 0 -280 40q-172 44 -276 112q-128 84 -128 192v256h1368v-256q0 -108 -128 -192q-104 -68 -276 -112q-152 -40 -280 -40zM1716 1544h-1040v-92q0 -28 80 -72
t192 -76q128 -32 248 -32t248 32q112 32 192 76t80 72v92z" />
</svg>
