<?xml version="1.0" standalone="no"?>
<!DOCTYPE svg PUBLIC "-//W3C//DTD SVG 1.1//EN" "http://www.w3.org/Graphics/SVG/1.1/DTD/svg11.dtd" >
<svg xmlns="http://www.w3.org/2000/svg" xmlns:xlink="http://www.w3.org/1999/xlink" version="1.1" viewBox="-10 0 1812 2048">
   <path fill="currentColor"
d="M1180 1012q100 -100 100 -242t-100 -242l120 -120q72 72 112 166t40 198t-40 196t-112 164zM1112 772q0 -72 -50 -122t-124 -50t-126 60l240 240q60 -52 60 -128zM1424 1252l120 120q116 -116 182 -272t66 -330t-66 -330t-182 -272l-120 120q92 92 146 218t54 266
t-54 264t-146 216zM1792 1640v-100h-100zM1644 1708l64 64l-108 108l-172 -172h-232q0 36 -24 62t-60 26h-344q-36 0 -60 -26t-24 -62h-596v-168h596q0 -36 24 -62t60 -26h88v-316l-228 -228q28 64 72 104l-120 120q-72 -72 -112 -164t-40 -196q0 -40 4 -60l-144 -144
q-32 104 -32 204q0 140 54 264t146 216l-120 120q-116 -116 -182 -272t-66 -330t68 -334l-156 -156l112 -108l1536 1536h-4zM1260 1540l-236 -236v148h88q36 0 60 26t24 62h64z" />
</svg>
