<?xml version="1.0" standalone="no"?>
<!DOCTYPE svg PUBLIC "-//W3C//DTD SVG 1.1//EN" "http://www.w3.org/Graphics/SVG/1.1/DTD/svg11.dtd" >
<svg xmlns="http://www.w3.org/2000/svg" xmlns:xlink="http://www.w3.org/1999/xlink" version="1.1" viewBox="-10 0 1900 2048">
   <path fill="currentColor"
d="M1196 340q140 0 240 100t100 242t-100 242t-240 100t-240 -100t-100 -242t100 -242t240 -100zM1196 504q-76 0 -128 52t-52 126t52 126t128 52t128 -52t52 -126t-52 -126t-128 -52zM1196 1108q128 0 280 40q172 44 276 112q128 84 128 192v256h-1368v-256
q0 -108 128 -192q104 -68 276 -112q152 -40 280 -40zM1196 1272q-120 0 -248 32q-112 32 -192 76t-80 72v92h1040v-92q0 -28 -80 -72t-192 -76q-128 -32 -248 -32zM344 1132l-216 128l60 -240l-188 -160l248 -20l96 -228l92 228l248 20l-188 160l56 240z" />
</svg>
