<?xml version="1.0" standalone="no"?>
<!DOCTYPE svg PUBLIC "-//W3C//DTD SVG 1.1//EN" "http://www.w3.org/Graphics/SVG/1.1/DTD/svg11.dtd" >
<svg xmlns="http://www.w3.org/2000/svg" xmlns:xlink="http://www.w3.org/1999/xlink" version="1.1" viewBox="-10 0 1492 2048">
   <path fill="currentColor"
d="M0 468l108 -104l788 788l576 572l-108 112l-256 -256h-1004v-256q0 -112 140 -200q116 -72 296 -112zM1472 1324v184l-164 -160v-24q0 -20 -30 -42t-82 -46l-236 -240q200 36 340 112q172 92 172 216zM268 1324v92h676l-264 -264q-104 12 -204 44q-92 32 -150 68t-58 60z
M788 212q140 0 240 100t100 244q0 124 -78 218t-198 118l-400 -400q24 -120 118 -200t218 -80zM788 384q-72 0 -122 50t-50 120t50 120t122 50t122 -50t50 -120t-50 -120t-122 -50z" />
</svg>
