<?xml version="1.0" standalone="no"?>
<!DOCTYPE svg PUBLIC "-//W3C//DTD SVG 1.1//EN" "http://www.w3.org/Graphics/SVG/1.1/DTD/svg11.dtd" >
<svg xmlns="http://www.w3.org/2000/svg" xmlns:xlink="http://www.w3.org/1999/xlink" version="1.1" viewBox="-10 0 1556 2048">
   <path fill="currentColor"
d="M684 596h340v172h-340v512h168v-340h172v340q0 72 -50 122t-122 50h-168q-72 0 -122 -50t-50 -122v-512q0 -72 50 -122t122 -50zM0 428q0 -72 50 -122t122 -50h1192q72 0 122 50t50 122v1192q0 72 -50 122t-122 50h-1192q-72 0 -122 -50t-50 -122v-1192zM172 428v1192
h1192v-1192h-1192z" />
</svg>
