<?xml version="1.0" standalone="no"?>
<!DOCTYPE svg PUBLIC "-//W3C//DTD SVG 1.1//EN" "http://www.w3.org/Graphics/SVG/1.1/DTD/svg11.dtd" >
<svg xmlns="http://www.w3.org/2000/svg" xmlns:xlink="http://www.w3.org/1999/xlink" version="1.1" viewBox="-10 0 2214 2048">
   <path fill="currentColor"
d="M678 1024q-89 2 -167 40t-136 106h-153q-60 0 -108.5 -18.5t-81 -60.5t-32.5 -103v-6q0 -397 142 -397q7 0 35.5 15t64 33.5t90 33.5t107.5 15q77 0 152 -26q-6 50 -6 75q0 157 93 293zM1902 1752q0 137 -83 216.5t-222 79.5h-999q-139 0 -222 -79.5t-83 -216.5
q0 -60 4 -117.5t15.5 -124.5t30 -124.5t49.5 -111.5t71 -92.5t98 -61.5t127 -23q10 0 35 16.5t61 39.5t80.5 46.5t106.5 40t126 16.5t126 -16.5t106.5 -40t80.5 -46.5t61 -39.5t35 -16.5q69 0 127 23t98 61.5t71 92.5t49.5 111.5t30.5 124t16 124.5t4 118zM731 292
q0 121 -85.5 207t-206.5 86t-207 -86t-86 -207t86 -206.5t207 -85.5t206.5 85.5t85.5 206.5zM1536 731q0 89 -35 170.5t-93.5 140t-140 93.5t-170.5 35t-170.5 -35t-140 -93.5t-93.5 -140t-35 -170.5t35 -170.5t93.5 -140t140 -93.5t170.5 -35t170.5 35t140 93.5t93.5 140
t35 170.5zM2194 988q0 61 -32 103t-80.5 60.5t-108.5 18.5h-154q-58 -68 -135.5 -106t-166.5 -40q92 -134 92 -293q0 -25 -6 -75q75 26 152 26q53 0 108 -15t90.5 -33.5t64 -33.5t35.5 -15q26 0 47 12t35 36t25 50t17 63t10 64.5t5 66.5t1.5 57t0.5 47v7zM2048 292
q0 121 -86 207t-207 86t-206.5 -86t-85.5 -207t85.5 -206.5t206.5 -85.5t207 85.5t86 206.5z" />
</svg>
