<?xml version="1.0" standalone="no"?>
<!DOCTYPE svg PUBLIC "-//W3C//DTD SVG 1.1//EN" "http://www.w3.org/Graphics/SVG/1.1/DTD/svg11.dtd" >
<svg xmlns="http://www.w3.org/2000/svg" xmlns:xlink="http://www.w3.org/1999/xlink" version="1.1" viewBox="-10 0 1885 2048">
   <path fill="currentColor"
d="M1646 1463q0 -45 -32 -77l-238 -238q-32 -32 -77 -32q-49 0 -83 36q5 4 22.5 21t24 24.5t17.5 22t15 29t4 31.5q0 45 -32 77.5t-78 32.5q-17 0 -31 -4t-29 -15.5t-22 -17t-25 -24t-21 -21.5q-38 36 -38 82t32 78l236 238q30 30 77 30q46 0 78 -30l168 -166q32 -32 32 -77
zM843 658q0 -46 -32 -78l-236 -238q-32 -32 -78 -32q-43 0 -77 32l-168 166q-32 32 -32 77t32 77l237 238q31 32 78 32t82 -36q-3 -4 -22 -22t-24.5 -24.5t-16.5 -21.5t-15 -29.5t-4 -30.5q0 -46 32 -78t78 -32q17 0 31 4t29 15.5t22 17t25 24t21 21.5q38 -36 38 -82z
M1865 1462q0 66 -25.5 126.5t-71.5 105.5l-168 168q-95 94 -232 94q-138 0 -233 -96l-235 -238q-95 -94 -95 -232q0 -67 26 -129t74 -109l-100 -100q-47 48 -109 74t-129 26q-66 0 -126.5 -25t-106.5 -71l-238 -238q-96 -96 -96 -232q0 -66 25.5 -126.5t71.5 -105.5
l168 -168q95 -94 232 -94q66 0 127 25t107 71l235 238q95 94 95 232q0 67 -26.5 128.5t-74.5 109.5l101 100q48 -48 109.5 -74t128.5 -26q66 0 126.5 24.5t106.5 71.5l237 238q96 96 96 232z" />
</svg>
