<?xml version="1.0" standalone="no"?>
<!DOCTYPE svg PUBLIC "-//W3C//DTD SVG 1.1//EN" "http://www.w3.org/Graphics/SVG/1.1/DTD/svg11.dtd" >
<svg xmlns="http://www.w3.org/2000/svg" xmlns:xlink="http://www.w3.org/1999/xlink" version="1.1" viewBox="-10 0 2214 2048">
   <path fill="currentColor"
d="M2194 1390q0 89 -35 170t-93.5 140t-140 93.5t-170.5 34.5h-1243q-104 0 -198.5 -40.5t-163.5 -109t-109.5 -163.5t-40.5 -199q0 -151 81 -276t214 -186q-2 -32 -2 -50q0 -118 46.5 -226.5t124.5 -187t186.5 -124.5t227.5 -46q181 0 327.5 100t213.5 262q79 -70 190 -70
q121 0 207 86t86 206q0 86 -47 158q147 35 243 154t96 274z" />
</svg>
