<?xml version="1.0" standalone="no"?>
<!DOCTYPE svg PUBLIC "-//W3C//DTD SVG 1.1//EN" "http://www.w3.org/Graphics/SVG/1.1/DTD/svg11.dtd" >
<svg xmlns="http://www.w3.org/2000/svg" xmlns:xlink="http://www.w3.org/1999/xlink" version="1.1" viewBox="-10 0 1728 2048">
   <path fill="currentColor"
d="M1364 938v128q144 0 244 100t100 240q0 104 -60 188l-92 -92q24 -44 24 -96q0 -88 -64 -150t-152 -62v128l-192 -192zM1364 1878v-128q-140 0 -240 -100t-100 -244q0 -100 56 -188l96 92q-24 48 -24 96q0 88 62 152t150 64v-128l192 192zM596 1366h-256v-256h256v256z
M596 510v256h-256v-256h256zM172 1706q-72 0 -122 -50t-50 -122v-1192q0 -72 50 -122t122 -50h1192q72 0 122 50t50 122v524q-64 -12 -128 -12q-152 0 -278 74t-202 202t-76 276q0 164 88 300h-768zM852 726h428v-172h-428v172zM684 1022h-428v428h428v-428zM684 426h-428
v428h428v-428z" />
</svg>
