<?xml version="1.0" standalone="no"?>
<!DOCTYPE svg PUBLIC "-//W3C//DTD SVG 1.1//EN" "http://www.w3.org/Graphics/SVG/1.1/DTD/svg11.dtd" >
<svg xmlns="http://www.w3.org/2000/svg" xmlns:xlink="http://www.w3.org/1999/xlink" version="1.1" viewBox="-10 0 1800 2048">
   <path fill="currentColor"
d="M1624 1036q16 0 32 12l108 112q16 12 16 32t-16 32l-84 84l-176 -172l88 -88q12 -12 32 -12zM1456 1184l176 176l-520 516h-176v-176zM680 172h344q68 0 118 50t50 118v172h344q68 0 118 50t50 122l-168 168v-168h-1368v936h600v172h-600q-68 0 -118 -50t-50 -122v-936
q0 -72 50 -122t118 -50h344v-172q0 -68 50 -118t118 -50zM1024 512v-172h-344v172h344z" />
</svg>
