<?xml version="1.0" standalone="no"?>
<!DOCTYPE svg PUBLIC "-//W3C//DTD SVG 1.1//EN" "http://www.w3.org/Graphics/SVG/1.1/DTD/svg11.dtd" >
<svg xmlns="http://www.w3.org/2000/svg" xmlns:xlink="http://www.w3.org/1999/xlink" version="1.1" viewBox="-10 0 1900 2048">
   <path fill="currentColor"
d="M1708 128h-1536q-72 0 -122 50t-50 118v1024q0 72 50 122t122 50h304l124 428l168 -172l172 172l172 -172l168 172l124 -428h304q72 0 122 -50t50 -122v-1024q0 -68 -50 -118t-122 -50zM1708 1320h-256v-168h-84v-428q0 -72 -50 -122t-122 -50h-512q-72 0 -122 50
t-50 122v428h-84v168h-256v-1024h1536v1024zM684 1152v-428h512v428h-512z" />
</svg>
