<?xml version="1.0" standalone="no"?>
<!DOCTYPE svg PUBLIC "-//W3C//DTD SVG 1.1//EN" "http://www.w3.org/Graphics/SVG/1.1/DTD/svg11.dtd" >
<svg xmlns="http://www.w3.org/2000/svg" xmlns:xlink="http://www.w3.org/1999/xlink" version="1.1" viewBox="-10 0 1900 2048">
   <path fill="currentColor"
d="M1708 128h-1536q-72 0 -122 50t-50 118v1024q0 72 50 122t122 50h172v-340h1192v340h172q72 0 122 -50t50 -122v-1024q0 -68 -50 -118t-122 -50zM1368 980h-172v-256h-512v256h-172v-256q0 -72 50 -122t122 -50h512q72 0 122 50t50 122v256zM512 1320v300l88 300
l168 -172l172 172l172 -172l168 172l88 -300v-300h-856z" />
</svg>
