<?xml version="1.0" standalone="no"?>
<!DOCTYPE svg PUBLIC "-//W3C//DTD SVG 1.1//EN" "http://www.w3.org/Graphics/SVG/1.1/DTD/svg11.dtd" >
<svg xmlns="http://www.w3.org/2000/svg" xmlns:xlink="http://www.w3.org/1999/xlink" version="1.1" viewBox="-10 0 1724 2048">
   <path fill="currentColor"
d="M936 408q-120 0 -192 192q-64 176 -64 424t64 424q72 192 192 192q180 0 352 -76q184 -76 296 -212q120 -144 120 -328t-120 -328q-112 -136 -296 -212q-172 -76 -352 -76zM944 1468q-32 -32 -56 -140q-36 -132 -36 -304t36 -304q24 -108 56 -140q132 4 264 56
q144 56 228 148q100 108 100 240t-100 240q-84 92 -228 148q-132 52 -264 56zM340 684v256h172v168h-172v256h204q36 120 52 172h-256v256h-172v-256h-168v-172h168v-256h-168v-168h168v-256h-168v-172h168v-256h172v256h256l-4 12q-4 12 -4 24q-36 84 -44 136h-204z" />
</svg>
