<?xml version="1.0" standalone="no"?>
<!DOCTYPE svg PUBLIC "-//W3C//DTD SVG 1.1//EN" "http://www.w3.org/Graphics/SVG/1.1/DTD/svg11.dtd" >
<svg xmlns="http://www.w3.org/2000/svg" xmlns:xlink="http://www.w3.org/1999/xlink" version="1.1" viewBox="-10 0 1724 2048">
   <path fill="currentColor"
d="M852 810l428 428h-256v340h-344v-340h-256zM680 214h344q68 0 118 50t50 118v172h344q68 0 118 50t50 122v936q0 72 -50 122t-118 50h-1368q-68 0 -118 -50t-50 -122v-936q0 -72 50 -122t118 -50h344v-172q0 -68 50 -118t118 -50zM1024 554v-172h-344v172h344zM168 726
v936h1368v-936h-1368z" />
</svg>
