<?xml version="1.0" standalone="no"?>
<!DOCTYPE svg PUBLIC "-//W3C//DTD SVG 1.1//EN" "http://www.w3.org/Graphics/SVG/1.1/DTD/svg11.dtd" >
<svg xmlns="http://www.w3.org/2000/svg" xmlns:xlink="http://www.w3.org/1999/xlink" version="1.1" viewBox="-10 0 1844 2048">
   <path fill="currentColor"
d="M680 112h344q68 0 118 50t50 118v172h344q68 0 118 50t50 122v428q-60 -100 -168 -172v-256h-1368v936h556q40 96 112 172h-668q-68 0 -118 -50t-50 -122v-936q0 -72 50 -122t118 -50h344v-172q0 -68 50 -118t118 -50zM1024 452v-172h-344v172h344zM1560 1552l264 264
l-120 120l-264 -264q-96 60 -204 60q-160 0 -272 -112t-112 -272t112 -272t272 -112t272 112t112 272q0 112 -60 204zM1236 1560q88 0 150 -62t62 -150t-62 -150t-150 -62t-150 62t-62 150t62 150t150 62z" />
</svg>
