<?xml version="1.0" standalone="no"?>
<!DOCTYPE svg PUBLIC "-//W3C//DTD SVG 1.1//EN" "http://www.w3.org/Graphics/SVG/1.1/DTD/svg11.dtd" >
<svg xmlns="http://www.w3.org/2000/svg" xmlns:xlink="http://www.w3.org/1999/xlink" version="1.1" viewBox="-11 0 1723 2048">
   <path fill="currentColor"
d="M915 338q128 -92 296 -92q96 0 204 50t172 118q132 164 112 382t-144 338l-648 648q-24 24 -60 24t-60 -24t-24 -60t24 -60l392 -392q32 -28 0 -60t-60 0l-392 392q-24 24 -60 24t-60 -24t-24 -60t24 -60l392 -392q36 -32 4 -64t-64 0l-392 396q-24 24 -60 24t-62 -24
t-26 -60t28 -64l392 -392q32 -32 0 -60t-60 0l-396 392q-28 28 -62 28t-58 -26t-24 -62t24 -60q348 -348 484 -480l304 300q52 48 120 48q88 0 140 -72q36 -52 26 -116t-54 -108zM1091 878l-364 -364l-604 604q-108 -108 -122 -334t122 -390q152 -152 364 -152t360 152
l364 364q24 24 24 60t-24 60t-60 24t-60 -24z" />
</svg>
