<?xml version="1.0" standalone="no"?>
<!DOCTYPE svg PUBLIC "-//W3C//DTD SVG 1.1//EN" "http://www.w3.org/Graphics/SVG/1.1/DTD/svg11.dtd" >
<svg xmlns="http://www.w3.org/2000/svg" xmlns:xlink="http://www.w3.org/1999/xlink" version="1.1" viewBox="-11 0 2070 2048">
   <path fill="currentColor"
d="M1097 952q30 0 51.5 21t21.5 51t-21.5 52t-51.5 22t-51.5 -22t-21.5 -52t21.5 -51t51.5 -21zM1440 1024l579 456q33 23 29 64q-5 40 -40 58l-146 72q-13 8 -33 8q-21 0 -36 -8l-788 -442l-126 74q-1 1 -6 3.5t-8 2.5q16 57 12 112q-7 87 -63.5 167.5t-151.5 140.5
q-150 96 -317 96q-156 0 -254 -88q-49 -46 -72.5 -108t-17.5 -128q8 -88 64 -169t150 -141q150 -96 318 -96q96 0 172 34q10 -14 25 -24l140 -84l-140 -84q-15 -10 -25 -24q-78 36 -172 36q-168 0 -318 -96q-94 -61 -150 -142t-64 -168q-6 -67 18 -129.5t72 -106.5
q98 -90 254 -90q167 0 317 96q95 59 151.5 140t63.5 170q4 54 -12 110q3 1 14 6l126 76l788 -442q17 -10 36 -10q20 0 33 8l146 74q35 17 40 58q4 40 -29 64zM662 728q53 -49 24.5 -124.5t-121.5 -133.5q-104 -68 -220 -68q-83 0 -129 42q-52 48 -23.5 123t120.5 133
q106 68 220 68q84 0 129 -40zM565 1578q93 -58 121.5 -133t-24.5 -123q-45 -42 -129 -42q-116 0 -220 68q-92 58 -120.5 133t23.5 123q46 42 129 42q116 0 220 -68zM768 878l110 66v-12q0 -42 37 -64l16 -10l-90 -54l-30 30q-3 4 -11.5 13t-13.5 13q-1 2 -4 4.5t-4 3.5z
M1024 1134l110 36l841 -658l-146 -72l-878 492v128l-183 110l10 10q2 2 8 6q5 5 13 14t12 14l30 30zM1829 1610l146 -74l-594 -466l-203 158q-2 3 -15 8z" />
</svg>
