<?xml version="1.0" standalone="no"?>
<!DOCTYPE svg PUBLIC "-//W3C//DTD SVG 1.1//EN" "http://www.w3.org/Graphics/SVG/1.1/DTD/svg11.dtd" >
<svg xmlns="http://www.w3.org/2000/svg" xmlns:xlink="http://www.w3.org/1999/xlink" version="1.1" viewBox="-10 0 1724 2048">
   <path fill="currentColor"
d="M1536 172h-1024q-72 0 -122 50t-50 118v1024q0 72 50 122t122 50h1024q68 0 118 -50t50 -122v-1024q0 -68 -50 -118t-118 -50zM1536 1364h-1024v-1024h1024v1024zM1192 1708v168h-1024q-68 0 -118 -50t-50 -118v-1112h168v1112h1024zM1408 688l-88 -92l-416 416
l-184 -180l-88 92l272 272z" />
</svg>
