<?xml version="1.0" standalone="no"?>
<!DOCTYPE svg PUBLIC "-//W3C//DTD SVG 1.1//EN" "http://www.w3.org/Graphics/SVG/1.1/DTD/svg11.dtd" >
<svg xmlns="http://www.w3.org/2000/svg" xmlns:xlink="http://www.w3.org/1999/xlink" version="1.1" viewBox="-10 0 1640 2048">
   <path fill="currentColor"
d="M1364 298q72 0 122 50t50 122v712q-80 -32 -172 -32q-136 0 -254 70t-188 188t-70 254q0 92 32 172h-712q-72 0 -122 -50t-50 -122v-1192q0 -72 50 -122t122 -50h356q44 -116 156 -152q96 -36 192 8t132 144h356zM768 298q-36 0 -60 24t-24 60t24 62t60 26t60 -26t24 -62
t-24 -60t-60 -24zM684 1494v-172h-344v172h344zM852 1150v-168h-512v168h512zM1196 810v-172h-856v172h856zM1196 1406l424 256l-424 256v-512z" />
</svg>
