<?xml version="1.0" standalone="no"?>
<!DOCTYPE svg PUBLIC "-//W3C//DTD SVG 1.1//EN" "http://www.w3.org/Graphics/SVG/1.1/DTD/svg11.dtd" >
<svg xmlns="http://www.w3.org/2000/svg" xmlns:xlink="http://www.w3.org/1999/xlink" version="1.1" viewBox="-10 0 1724 2048">
   <path fill="currentColor"
d="M1536 172h-1024q-72 0 -122 50t-50 118v1024q0 72 50 122t122 50h1024q68 0 118 -50t50 -122v-1024q0 -68 -50 -118t-118 -50zM1536 1364h-1024v-1024h1024v1024zM168 512v1196h1196v168h-1196q-68 0 -118 -50t-50 -118v-1196h168zM660 1096l244 -244l-244 -240l120 -120
l244 240l240 -240l120 120l-240 240l240 244l-120 120l-240 -244l-244 244z" />
</svg>
