<?xml version="1.0" standalone="no"?>
<!DOCTYPE svg PUBLIC "-//W3C//DTD SVG 1.1//EN" "http://www.w3.org/Graphics/SVG/1.1/DTD/svg11.dtd" >
<svg xmlns="http://www.w3.org/2000/svg" xmlns:xlink="http://www.w3.org/1999/xlink" version="1.1" viewBox="-10 0 1724 2048">
   <path fill="currentColor"
d="M852 172q-232 0 -428 114t-310 310t-114 428q0 168 64 326t184 278t278 184t326 64t326 -64t278 -184t184 -278t64 -326t-64 -326t-184 -278t-278 -184t-326 -64zM1152 684q52 0 90 36t38 90t-38 92t-92 38t-90 -38t-36 -92t36 -90t92 -36zM552 684q56 0 92 36t36 90
t-36 92t-90 38t-92 -38t-38 -92t38 -90t90 -36zM852 1492q-148 0 -266 -82t-170 -214h872q-52 132 -170 214t-266 82z" />
</svg>
