<?xml version="1.0" standalone="no"?>
<!DOCTYPE svg PUBLIC "-//W3C//DTD SVG 1.1//EN" "http://www.w3.org/Graphics/SVG/1.1/DTD/svg11.dtd" >
<svg xmlns="http://www.w3.org/2000/svg" xmlns:xlink="http://www.w3.org/1999/xlink" version="1.1" viewBox="-10 0 1724 2048">
   <path fill="currentColor"
d="M472 1708q-84 0 -144 -62t-60 -146q0 -64 64 -184q52 -104 140 -224q92 120 144 224q64 120 64 184q0 84 -60 146t-148 62zM852 172q-168 0 -326 64t-278 184t-184 278t-64 326q0 220 104 412q20 -96 92 -228q-28 -88 -28 -184q0 -184 92 -342t250 -250t342 -92t342 92
t250 250t92 342t-92 342t-250 250t-342 92q-40 0 -60 -4q-60 96 -168 140q112 32 228 32q168 0 326 -64t278 -184t184 -278t64 -326t-64 -326t-184 -278t-278 -184t-326 -64zM852 1196q-52 0 -100 8q48 88 72 160h28q80 0 144 30t92 78l120 -124q-56 -68 -150 -110t-206 -42
zM1152 684q-52 0 -90 38t-38 88t38 90t88 40t90 -40t40 -90t-40 -88t-88 -38zM680 812q0 -52 -38 -90t-88 -38t-90 38t-40 88t40 90t90 40t88 -40t38 -88z" />
</svg>
