<?xml version="1.0" standalone="no"?>
<!DOCTYPE svg PUBLIC "-//W3C//DTD SVG 1.1//EN" "http://www.w3.org/Graphics/SVG/1.1/DTD/svg11.dtd" >
<svg xmlns="http://www.w3.org/2000/svg" xmlns:xlink="http://www.w3.org/1999/xlink" version="1.1" viewBox="-10 0 1620 2048">
   <path fill="currentColor"
d="M1600 1582q0 134 -91 225t-224 91q-75 0 -144.5 -30.5t-123.5 -85.5l-888 -886q-61 -61 -95 -142.5t-34 -167.5q0 -119 57.5 -219t157 -158.5t218.5 -58.5q87 0 168 34.5t144 95.5l691 692q12 12 12 26q0 18 -35 53t-53 35q-16 0 -27 -12l-692 -694q-42 -41 -96 -64.5
t-111 -23.5q-121 0 -204.5 86t-83.5 208q0 120 87 206l887 888q33 34 76.5 53t88.5 19q73 0 121 -48.5t48 -121.5q0 -92 -72 -164l-664 -664q-30 -28 -68 -28q-33 0 -55 21.5t-22 54.5q0 37 29 68l468 468q12 12 12 26q0 18 -35.5 53t-53.5 35q-14 0 -25 -10l-469 -470
q-72 -70 -72 -170q0 -94 64.5 -159t159.5 -65q100 0 170 72l664 664q55 54 85 124t30 144z" />
</svg>
