<?xml version="1.0" standalone="no"?>
<!DOCTYPE svg PUBLIC "-//W3C//DTD SVG 1.1//EN" "http://www.w3.org/Graphics/SVG/1.1/DTD/svg11.dtd" >
<svg xmlns="http://www.w3.org/2000/svg" xmlns:xlink="http://www.w3.org/1999/xlink" version="1.1" viewBox="-10 0 1724 2048">
   <path fill="currentColor"
d="M1108 1622q0 -36 -24 -62t-60 -26h-88v-168h344q68 0 118 -50t50 -122v-852q0 -72 -50 -122t-118 -50h-856q-68 0 -118 50t-50 122v852q0 72 50 122t118 50h344v168h-88q-36 0 -60 26t-24 62h-596v168h596q0 36 24 62t60 26h344q36 0 60 -26t24 -62h596v-168h-596z
M424 1194v-852h856v852h-856zM512 502l304 304l-304 304h216l248 -252q20 -20 20 -52t-20 -56l-252 -248h-212zM1192 958h-228v152h228v-152z" />
</svg>
