<?xml version="1.0" standalone="no"?>
<!DOCTYPE svg PUBLIC "-//W3C//DTD SVG 1.1//EN" "http://www.w3.org/Graphics/SVG/1.1/DTD/svg11.dtd" >
<svg xmlns="http://www.w3.org/2000/svg" xmlns:xlink="http://www.w3.org/1999/xlink" version="1.1" viewBox="-10 0 1724 2048">
   <path fill="currentColor"
d="M268 1500q0 -64 64 -184q52 -104 140 -224q92 120 144 224q64 120 64 184q0 84 -60 146t-146 62t-146 -62t-60 -146zM1704 1024q0 168 -64 326t-184 278t-278 184t-326 64q-112 0 -228 -32q104 -44 166 -136t62 -208q0 -56 -28 -136h28q80 0 144 30t92 78l120 -124
q-56 -68 -150 -110t-206 -42q-52 0 -100 8q-60 -104 -140 -212l-40 -52q44 -8 76 -46t32 -86t-38 -86t-88 -38t-90 38t-40 90q0 20 12 44l-100 136q-196 268 -232 444q-104 -192 -104 -412q0 -168 64 -326t184 -278t278 -184t326 -64t326 64t278 184t184 278t64 326z
M1280 812q0 -52 -40 -90t-90 -38t-88 38t-38 88t38 90t88 40t90 -40t40 -88z" />
</svg>
