<?xml version="1.0" standalone="no"?>
<!DOCTYPE svg PUBLIC "-//W3C//DTD SVG 1.1//EN" "http://www.w3.org/Graphics/SVG/1.1/DTD/svg11.dtd" >
<svg xmlns="http://www.w3.org/2000/svg" xmlns:xlink="http://www.w3.org/1999/xlink" version="1.1" viewBox="-10 0 1836 2048">
   <path fill="currentColor"
d="M1528 1616l-252 -252q-32 -36 -32 -80t32 -78t78 -34t78 36l96 96l96 -100q32 -32 78 -32t80 34t34 80t-32 78zM1404 1676q-112 96 -254 148t-294 52q-172 0 -328 -64t-276 -184t-186 -278t-66 -326t66 -326t186 -278t276 -184t326 -64t328 64t278 184t184 278t64 326
q0 16 -4 20q-96 0 -168 72l-8 4l-4 -4q-68 -72 -168 -72t-170 70t-70 170t68 168zM1024 812q0 48 40 88t90 40t88 -40t38 -90t-38 -88t-88 -38t-90 38t-40 90zM684 812q0 -52 -38 -90t-90 -38t-90 38t-38 88t38 90t90 40t90 -40t38 -88zM1020 1296l92 -92l-184 -180l-88 92
l88 88l-88 92l88 88l-88 92l88 92l184 -184z" />
</svg>
