<?xml version="1.0" standalone="no"?>
<!DOCTYPE svg PUBLIC "-//W3C//DTD SVG 1.1//EN" "http://www.w3.org/Graphics/SVG/1.1/DTD/svg11.dtd" >
<svg xmlns="http://www.w3.org/2000/svg" xmlns:xlink="http://www.w3.org/1999/xlink" version="1.1" viewBox="-10 0 1653 2048">
   <path fill="currentColor"
d="M1604 1184q-36 -72 -100 -104q-44 -28 -88 -40q31 -104 -52 -192q-41 -44 -92 -68q-24 -8 -40 -12q36 -72 20 -144q-20 -80 -92 -124q-53 -32 -156 -48l-4 -4q-140 -24 -184 -84q-24 -36 -40 -136q-5 -32 -8 -40q-8 -16 -24 -16q-24 0 -66 28t-98 92q-60 72 -88 144
q-41 104 -16 200q-48 8 -96 28q-45 20 -88 72q-53 72 -56 156q-5 44 8 112v24q-44 12 -80 32h-4q-20 8 -48.5 28t-35.5 32q-44 48 -62 118t-12 146t42 136q43 88 96 140q84 84 232 136q108 36 268 64q108 16 212 16q216 0 397.5 -74t290.5 -206q64 -80 82 -156t6 -160
q-8 -64 -24 -96zM1144 968q36 0 60 28t22 62t-28 58t-64 22t-60.5 -28t-20.5 -60t26.5 -58t56.5 -24h8zM1500 1412h-4q-12 52 -56 104q-84 104 -240 168t-348 64q-96 0 -192 -16q-317 -48 -432 -164q-36 -40 -72 -108q-20 -40 -26 -90t6 -102q12 -36 36 -64q12 -12 32 -24
l20 -8q12 -8 36 -16q28 80 98 132t150 52h20q112 -8 182 -98t62 -200t-82 -186t-178 -80l-28 4q-32 0 -72 16l16 -16q31 -12 68 -20l132 -24l-28 -132q-12 -56 12 -124q16 -44 68 -108q12 40 36 68q72 104 260 136h4q84 16 116 36q24 12 29.5 40t-5.5 56l-48 76
q-80 20 -138.5 88t-65.5 156q-12 116 54 206t178 106h28q96 0 168 -64q52 -44 80 -112h12q19 4 48 24l8 8q28 8 44 40q7 20 12 64q7 60 0 112zM428 1064q-5 -36 17.5 -64t58.5 -36h8q36 0 60 22t28 56t-18.5 62t-58 32t-64 -18t-31.5 -54zM520 1380q16 -4 52 4l16 4
q112 24 227.5 24t228.5 -24l16 -4q31 -4 48 -4q24 -4 44 8q28 20 11.5 82t-63.5 110q-116 120 -284 120t-284 -120q-48 -48 -64.5 -110t12.5 -82q20 -8 40 -8z" />
</svg>
