<?xml version="1.0" standalone="no"?>
<!DOCTYPE svg PUBLIC "-//W3C//DTD SVG 1.1//EN" "http://www.w3.org/Graphics/SVG/1.1/DTD/svg11.dtd" >
<svg xmlns="http://www.w3.org/2000/svg" xmlns:xlink="http://www.w3.org/1999/xlink" version="1.1" viewBox="-10 0 1724 2048">
   <path fill="currentColor"
d="M852 172q-168 0 -326 64t-278 184t-184 278t-64 326t64 326t184 278t278 184t326 64t326 -64t278 -184t184 -278t64 -326t-64 -326t-184 -278t-278 -184t-326 -64zM852 1708q-184 0 -342 -92t-250 -250t-92 -342t92 -342t250 -250t342 -92t342 92t250 250t92 342t-92 342
t-250 250t-342 92zM596 852q-48 0 -86 24t-62 64q-24 -40 -24 -88q0 -68 50 -118t122 -50t122 50t50 118q0 48 -24 88q-24 -40 -62 -64t-86 -24zM1280 852q0 48 -24 88q-24 -40 -62 -64t-86 -24t-86 24t-62 64q-24 -40 -24 -88q0 -68 50 -118t122 -50t122 50t50 118z
M1192 1108v172h-84q0 124 -48 190t-122 66t-122 -66t-48 -190h-256v-172h680z" />
</svg>
