<?xml version="1.0" standalone="no"?>
<!DOCTYPE svg PUBLIC "-//W3C//DTD SVG 1.1//EN" "http://www.w3.org/Graphics/SVG/1.1/DTD/svg11.dtd" >
<svg xmlns="http://www.w3.org/2000/svg" xmlns:xlink="http://www.w3.org/1999/xlink" version="1.1" viewBox="-10 0 1724 2048">
   <path fill="currentColor"
d="M852 172q-168 0 -326 64t-278 184t-184 278t-64 326t64 326t184 278t278 184t326 64t326 -64t278 -184t184 -278t64 -326t-64 -326t-184 -278t-278 -184t-326 -64zM424 812q0 -52 40 -90t90 -38t88 38t38 88t-38 90t-88 40t-90 -40t-40 -88zM1088 1472q-28 -48 -92 -78
t-144 -30t-144 30t-92 78l-120 -124q56 -68 150 -110t206 -42t206 42t150 110zM1152 940q-52 0 -90 -40t-38 -90t38 -88t88 -38t90 38t40 88t-40 90t-88 40z" />
</svg>
