<?xml version="1.0" standalone="no"?>
<!DOCTYPE svg PUBLIC "-//W3C//DTD SVG 1.1//EN" "http://www.w3.org/Graphics/SVG/1.1/DTD/svg11.dtd" >
<svg xmlns="http://www.w3.org/2000/svg" xmlns:xlink="http://www.w3.org/1999/xlink" version="1.1" viewBox="-10 0 1900 2048">
   <path fill="currentColor"
d="M684 812q0 48 -38 88t-90 40t-90 -40t-38 -90t38 -88t90 -38t90 38t38 90zM1280 812q0 48 -38 88t-88 40t-90 -40t-40 -90t40 -88t90 -38t88 38t38 90zM1112 1204l-184 -180l-88 92l88 88l-88 92l88 88l-88 92l88 92l184 -184l-92 -88zM1352 1108q-72 0 -122 52t-50 124
t52 124l296 300l300 -300q52 -52 52 -124t-52 -124t-124 -52t-124 52l-52 52l-52 -52q-48 -52 -124 -52zM1196 1616q-160 92 -344 92t-340 -92t-248 -250t-92 -342t92 -342t248 -250t338 -92t334 86t246 232t106 322q80 -40 168 -40q-20 -216 -140 -390t-306 -276t-402 -102
q-172 0 -328 64t-276 184t-186 278t-66 326t66 326t186 278t276 184t328 64q252 0 464 -136z" />
</svg>
