<?xml version="1.0" standalone="no"?>
<!DOCTYPE svg PUBLIC "-//W3C//DTD SVG 1.1//EN" "http://www.w3.org/Graphics/SVG/1.1/DTD/svg11.dtd" >
<svg xmlns="http://www.w3.org/2000/svg" xmlns:xlink="http://www.w3.org/1999/xlink" version="1.1" viewBox="-10 0 1775 2048">
   <path fill="currentColor"
d="M439 1756h878v-440h-878v440zM1463 1756h146v-1024q0 -17 -11.5 -44.5t-22.5 -39.5l-321 -322q-12 -11 -39.5 -22.5t-44.5 -11.5v476q0 46 -31.5 78t-77.5 32h-659q-46 0 -77.5 -32t-31.5 -78v-476h-147v1464h147v-476q0 -45 31.5 -77.5t77.5 -32.5h951q46 0 78 32.5
t32 77.5v476zM1024 694v-364q0 -15 -11.5 -26.5t-25.5 -11.5h-219q-14 0 -25.5 11.5t-11.5 26.5v364q0 15 11.5 26.5t25.5 11.5h219q14 0 25.5 -11.5t11.5 -26.5zM1755 732v1060q0 46 -31.5 78t-77.5 32h-1536q-46 0 -78 -32t-32 -78v-1536q0 -45 32 -77.5t78 -32.5h1060
q46 0 101 23t87 55l320 320q32 33 54.5 87.5t22.5 100.5z" />
</svg>
