<?xml version="1.0" standalone="no"?>
<!DOCTYPE svg PUBLIC "-//W3C//DTD SVG 1.1//EN" "http://www.w3.org/Graphics/SVG/1.1/DTD/svg11.dtd" >
<svg xmlns="http://www.w3.org/2000/svg" xmlns:xlink="http://www.w3.org/1999/xlink" version="1.1" viewBox="-11 0 1468 2048">
   <path fill="currentColor"
d="M1407 832q-60 -100 -160 -158t-216 -62t-224 52v-428h-168v428q-108 -56 -224 -52t-216 62t-160 158q-60 92 -28 268q28 156 116 340q80 172 178 294t164 122t110 -16q28 -12 64 -36q24 -16 40 -24t40 -8t40 8t40 24q36 24 64 36q44 16 110 16t164 -122t178 -294
q88 -184 116 -340q32 -176 -28 -268zM1255 1120q-80 320 -300 568q-28 0 -52 -24q-80 -64 -180 -64t-180 64q-24 24 -52 24q-224 -248 -300 -564q-36 -100 -8 -196q36 -64 100 -104t140 -40t140 32l76 36h168l76 -36q64 -32 140 -32t140 40t100 104q28 96 -8 192zM639 408
q-136 72 -248 88q-92 16 -168 -12q-60 -24 -104 -68q-32 -36 -56 -76l-12 -36l24 -32q36 -32 76 -52q60 -28 124 -28q80 0 164 48q96 52 200 168z" />
</svg>
