<?xml version="1.0" standalone="no"?>
<!DOCTYPE svg PUBLIC "-//W3C//DTD SVG 1.1//EN" "http://www.w3.org/Graphics/SVG/1.1/DTD/svg11.dtd" >
<svg xmlns="http://www.w3.org/2000/svg" xmlns:xlink="http://www.w3.org/1999/xlink" version="1.1" viewBox="-10 0 1724 2048">
   <path fill="currentColor"
d="M596 598q-108 0 -182 72t-74 182t74 184t182 74q84 0 148 -48t92 -124h188v172h168v-172h172v-172h-528q-28 -76 -92 -122t-148 -46zM596 938q-40 0 -62 -24t-22 -62t22 -62t62 -24t62 24t22 62t-22 62t-62 24zM1108 1622q0 -36 -24 -62t-60 -26h-88v-168h512
q72 0 122 -50t50 -122v-684q0 -68 -50 -118t-122 -50h-512l-168 -172h-512q-72 0 -122 50t-50 122v852q0 72 50 122t122 50h512v168h-88q-36 0 -60 26t-24 62h-596v168h596q0 36 24 62t60 26h344q36 0 60 -26t24 -62h596v-168h-596zM256 1194v-684h1192v684h-1192z" />
</svg>
