<?xml version="1.0" standalone="no"?>
<!DOCTYPE svg PUBLIC "-//W3C//DTD SVG 1.1//EN" "http://www.w3.org/Graphics/SVG/1.1/DTD/svg11.dtd" >
<svg xmlns="http://www.w3.org/2000/svg" xmlns:xlink="http://www.w3.org/1999/xlink" version="1.1" viewBox="-10 0 1900 2048">
   <path fill="currentColor"
d="M1880 1280h-172v172h172v-172zM1880 940h-172v168h172v-168zM1880 1620h-172v172q64 0 118 -54t54 -118zM1196 256h-172v172h172v-172zM1880 596h-172v172h172v-172zM1708 256v172h172q0 -64 -54 -118t-118 -54zM172 1792h684v-512h-856v340q0 72 50 122t122 50zM172 596
h-172v172h172v-172zM1196 1620h-172v172h172v-172zM1536 256h-168v172h168v-172zM1536 1620h-168v172h168v-172zM172 256q-64 0 -118 54t-54 118h172v-172zM172 940h-172v168h172v-168zM856 256h-172v172h172v-172zM512 256h-168v172h168v-172z" />
</svg>
