<?xml version="1.0" standalone="no"?>
<!DOCTYPE svg PUBLIC "-//W3C//DTD SVG 1.1//EN" "http://www.w3.org/Graphics/SVG/1.1/DTD/svg11.dtd" >
<svg xmlns="http://www.w3.org/2000/svg" xmlns:xlink="http://www.w3.org/1999/xlink" version="1.1" viewBox="-10 0 1724 2048">
   <path fill="currentColor"
d="M1108 1622q0 -36 -26 -62t-58 -26h-88v-168h512q72 0 122 -50t50 -122v-684q0 -68 -50 -118t-122 -50h-512l-168 -172h-512q-72 0 -122 50t-50 122v852q0 72 50 122t122 50h512v168h-88q-32 0 -58 26t-26 62h-596v168h596q0 36 26 62t58 26h344q32 0 58 -26t26 -62h596
v-168h-596zM256 1194v-684h1192v684h-1192z" />
</svg>
