<?xml version="1.0" standalone="no"?>
<!DOCTYPE svg PUBLIC "-//W3C//DTD SVG 1.1//EN" "http://www.w3.org/Graphics/SVG/1.1/DTD/svg11.dtd" >
<svg xmlns="http://www.w3.org/2000/svg" xmlns:xlink="http://www.w3.org/1999/xlink" version="1.1" viewBox="-10 0 1212 2048">
   <path fill="currentColor"
d="M168 172q-68 0 -118 50t-50 118v1368q0 68 50 118t118 50h856q68 0 118 -50t50 -118v-1368q0 -68 -50 -118t-118 -50h-856zM168 340h856v512h-856v-512zM596 1024q140 0 240 100t100 242t-100 242t-240 100t-240 -100t-100 -242t100 -242t240 -100zM596 1196
q-72 0 -122 50t-50 120t50 120t122 50t122 -50t50 -120t-50 -120t-122 -50z" />
</svg>
