<?xml version="1.0" standalone="no"?>
<!DOCTYPE svg PUBLIC "-//W3C//DTD SVG 1.1//EN" "http://www.w3.org/Graphics/SVG/1.1/DTD/svg11.dtd" >
<svg xmlns="http://www.w3.org/2000/svg" xmlns:xlink="http://www.w3.org/1999/xlink" version="1.1" viewBox="-10 0 1775 2048">
   <path fill="currentColor"
d="M1755 1536v146q0 30 -21.5 52t-51.5 22h-1609q-30 0 -51.5 -22t-21.5 -52v-146q0 -30 21.5 -52t51.5 -22h1609q30 0 51.5 22t21.5 52zM1755 950v148q0 30 -21.5 51t-51.5 21h-1609q-30 0 -51.5 -21t-21.5 -51v-148q0 -30 21.5 -51t51.5 -21h1609q30 0 51.5 21t21.5 51z
M1755 366v146q0 30 -21.5 52t-51.5 22h-1609q-30 0 -51.5 -22t-21.5 -52v-146q0 -30 21.5 -52t51.5 -22h1609q30 0 51.5 22t21.5 52z" />
</svg>
