<?xml version="1.0" standalone="no"?>
<!DOCTYPE svg PUBLIC "-//W3C//DTD SVG 1.1//EN" "http://www.w3.org/Graphics/SVG/1.1/DTD/svg11.dtd" >
<svg xmlns="http://www.w3.org/2000/svg" xmlns:xlink="http://www.w3.org/1999/xlink" version="1.1" viewBox="-10 0 1724 2048">
   <path fill="currentColor"
d="M168 428q-68 0 -118 50t-50 118v856q0 68 50 118t118 50h1368q68 0 118 -50t50 -118v-856q0 -68 -50 -118t-118 -50h-1368zM168 596h1024v856h-1024v-856zM1448 596q36 0 62 26t26 62t-26 60t-62 24t-60 -24t-24 -60t24 -62t60 -26zM936 768v512h172v-512h-172zM1448 940
q36 0 62 24t26 60t-26 60t-62 24t-60 -24t-24 -60t24 -60t60 -24z" />
</svg>
