<?xml version="1.0" standalone="no"?>
<!DOCTYPE svg PUBLIC "-//W3C//DTD SVG 1.1//EN" "http://www.w3.org/Graphics/SVG/1.1/DTD/svg11.dtd" >
<svg xmlns="http://www.w3.org/2000/svg" xmlns:xlink="http://www.w3.org/1999/xlink" version="1.1" viewBox="-10 0 1724 2048">
   <path fill="currentColor"
d="M168 596q-68 0 -118 50t-50 122v512q0 72 50 122t118 50h172q72 0 122 -50t50 -122v-84h-172v84h-172v-512h172v84h172v-84q0 -72 -50 -122t-122 -50h-172zM768 596q-72 0 -122 50t-50 122v512q0 72 50 122t122 50h168q72 0 122 -50t50 -122v-512q0 -72 -50 -122
t-122 -50h-168zM768 768h168v512h-168v-512zM1364 596q-72 0 -122 50t-50 122v172q0 68 50 118t122 50h172v172h-344v172h344q68 0 118 -50t50 -122v-172q0 -68 -50 -118t-118 -50h-172v-172h340v-172h-340z" />
</svg>
