<?xml version="1.0" standalone="no"?>
<!DOCTYPE svg PUBLIC "-//W3C//DTD SVG 1.1//EN" "http://www.w3.org/Graphics/SVG/1.1/DTD/svg11.dtd" >
<svg xmlns="http://www.w3.org/2000/svg" xmlns:xlink="http://www.w3.org/1999/xlink" version="1.1" viewBox="-10 0 2051 2048">
   <path fill="currentColor"
d="M418 1846q0 91 -62 144t-155 53q-120 0 -196 -76l65 -100q55 51 121 51q33 0 57.5 -16.5t24.5 -48.5q0 -72 -120 -64l-29 -64q10 -13 29.5 -39.5t32 -42.5t31 -37t35.5 -37v-1q-18 0 -55 1.5t-56 1.5v60h-121v-174h380v101l-108 131q58 14 92 56t34 101zM421 1129v182
h-414q-7 -49 -7 -62q0 -59 26.5 -106.5t64.5 -77t76 -54.5t64.5 -50t26.5 -51q0 -59 -61 -59q-54 0 -93 66l-97 -68q28 -59 82 -91t120 -32q83 0 140.5 47t57.5 129q0 40 -18.5 74.5t-46 57.5t-60 46t-60 39.5t-46.5 37t-20 41.5h145v-69h120zM2031 1494v219
q0 14 -11.5 25.5t-25.5 11.5h-1389q-15 0 -26 -11t-11 -26v-219q0 -16 10.5 -26.5t26.5 -10.5h1389q15 0 26 11t11 26zM422 467v113h-383v-113h122q0 -47 0.5 -139t0.5 -139v-14h-2q-12 23 -57 62l-81 -87l155 -145h121v462h124zM2031 909v219q0 14 -11.5 25.5t-25.5 11.5
h-1389q-15 0 -26 -11t-11 -26v-219q0 -16 10.5 -26.5t26.5 -10.5h1389q15 0 26 11t11 26zM2031 324v219q0 14 -11.5 25.5t-25.5 11.5h-1389q-15 0 -26 -11t-11 -26v-219q0 -15 11 -26t26 -11h1389q14 0 25.5 11.5t11.5 25.5z" />
</svg>
