<?xml version="1.0" standalone="no"?>
<!DOCTYPE svg PUBLIC "-//W3C//DTD SVG 1.1//EN" "http://www.w3.org/Graphics/SVG/1.1/DTD/svg11.dtd" >
<svg xmlns="http://www.w3.org/2000/svg" xmlns:xlink="http://www.w3.org/1999/xlink" version="1.1" viewBox="-10 0 1640 2048">
   <path fill="currentColor"
d="M1024 426v172h-1024v-172h1024zM1024 766v172h-1024v-172h1024zM0 1278v-168h684v168h-684zM1196 426h424v172h-256v768q0 104 -74 180t-180 76t-182 -76t-76 -182t76 -180t180 -74q44 0 88 16v-700zM1108 1278q-36 0 -60 26t-24 62t24 60t60 24t62 -24t26 -60t-26 -62
t-62 -26z" />
</svg>
