<?xml version="1.0" standalone="no"?>
<!DOCTYPE svg PUBLIC "-//W3C//DTD SVG 1.1//EN" "http://www.w3.org/Graphics/SVG/1.1/DTD/svg11.dtd" >
<svg xmlns="http://www.w3.org/2000/svg" xmlns:xlink="http://www.w3.org/1999/xlink" version="1.1" viewBox="-10 0 1728 2048">
   <path fill="currentColor"
d="M1708 1306v300q0 40 -34 70t-78 30h-468q-40 0 -72 -32t-32 -76v-300q0 -40 32 -72t72 -32v-212q0 -88 72 -150t164 -62t166 62t74 150v44h-112v-44q0 -48 -36 -80t-90 -32t-92 32t-38 80v212h368q40 0 72 34t32 78zM0 938v-168h1024v168h-1024zM0 342h1536v172h-1536
v-172zM0 1366v-172h512v172h-512z" />
</svg>
