<?xml version="1.0" standalone="no"?>
<!DOCTYPE svg PUBLIC "-//W3C//DTD SVG 1.1//EN" "http://www.w3.org/Graphics/SVG/1.1/DTD/svg11.dtd" >
<svg xmlns="http://www.w3.org/2000/svg" xmlns:xlink="http://www.w3.org/1999/xlink" version="1.1" viewBox="-10 0 1492 2048">
   <path fill="currentColor"
d="M732 172q72 0 122 50t50 120t-50 120t-122 50t-122 -50t-50 -120t50 -120t122 -50zM764 1264q196 0 364 20q4 -176 -10 -316t-46 -200q-12 -32 -40 -60l-688 592q224 -36 420 -36zM344 1452q20 244 68 424h180q-36 -100 -56 -256l56 -8q76 -8 148 -8q100 0 188 16
q-20 156 -56 256h180q52 -184 68 -444q-176 -20 -356 -20q-212 0 -420 40zM732 596q-36 4 -68 8q-84 12 -148 44q-88 44 -124 120q-44 88 -56 336l560 -476q-84 -32 -164 -32zM1292 484l-96 -112l-300 256q84 28 136 80zM1472 1352q-128 -44 -344 -68q0 64 -8 148
q172 24 300 60h4zM336 1104l-336 292l76 124l72 -24q92 -28 196 -44q-12 -184 -8 -348z" />
</svg>
