<?xml version="1.0" standalone="no"?>
<!DOCTYPE svg PUBLIC "-//W3C//DTD SVG 1.1//EN" "http://www.w3.org/Graphics/SVG/1.1/DTD/svg11.dtd" >
<svg xmlns="http://www.w3.org/2000/svg" xmlns:xlink="http://www.w3.org/1999/xlink" version="1.1" viewBox="-10 0 1556 2048">
   <path fill="currentColor"
d="M0 428v1364h512v-128h-172v-128h172v-128h-340v-128h340v-128h-172v-128h172v-128h-340v-128h340v-340h128v340h128v-172h128v172h128v-340h128v340h128v-172h128v172h128v-512h-1364q-72 0 -122 50t-50 122zM256 596q-36 0 -60 -24t-24 -60t24 -60t60 -24t60 24t24 60
t-24 60t-60 24z" />
</svg>
