<?xml version="1.0" standalone="no"?>
<!DOCTYPE svg PUBLIC "-//W3C//DTD SVG 1.1//EN" "http://www.w3.org/Graphics/SVG/1.1/DTD/svg11.dtd" >
<svg xmlns="http://www.w3.org/2000/svg" xmlns:xlink="http://www.w3.org/1999/xlink" version="1.1" viewBox="-10 0 1724 2048">
   <path fill="currentColor"
d="M1536 724q0 88 -64 152t-152 64q-68 0 -122 -40t-78 -100q-60 52 -140 52q-72 0 -128 -40q-56 40 -128 40q-80 0 -140 -52q-24 60 -78 100t-122 40q-88 0 -152 -64t-64 -152q0 -76 52 -136t128 -72q-8 -24 -8 -48q0 -52 38 -90t90 -38q24 0 48 12q12 -44 46 -70t78 -26
q32 0 56 16q20 -44 62 -72t94 -28t94 28t62 72q24 -16 56 -16q44 0 78 26t46 70q24 -12 48 -12q52 0 90 38t38 90q0 24 -8 48q76 12 128 72t52 136zM680 1024q-36 0 -60 24t-24 60t24 62t60 26t62 -26t26 -62t-26 -60t-62 -24zM1024 1024q-36 0 -62 24t-26 60t26 62t62 26
t60 -26t24 -62t-24 -60t-60 -24zM1556 908q-44 56 -104 86t-132 30q-52 0 -108 -24q0 192 -32 340q-40 184 -120 276q-64 76 -164 88v-168h-88v168q-100 -12 -164 -88q-84 -92 -120 -276q-32 -148 -32 -340q-56 24 -108 24q-72 0 -132 -30t-104 -86q-76 76 -148 116l28 44
q36 52 84 84q68 44 144 44q36 0 72 -8q28 296 132 468q136 220 392 220t392 -220q104 -172 132 -468q36 8 72 8q76 0 144 -44q48 -32 84 -84l28 -44l-44 -28q-60 -40 -104 -88z" />
</svg>
