<?xml version="1.0" standalone="no"?>
<!DOCTYPE svg PUBLIC "-//W3C//DTD SVG 1.1//EN" "http://www.w3.org/Graphics/SVG/1.1/DTD/svg11.dtd" >
<svg xmlns="http://www.w3.org/2000/svg" xmlns:xlink="http://www.w3.org/1999/xlink" version="1.1" viewBox="-10 0 1388 2048">
   <path fill="currentColor"
d="M172 172h1024q72 0 122 50t50 118v1368q0 68 -50 118t-122 50h-1024q-72 0 -122 -50t-50 -118v-1368q0 -68 50 -118t122 -50zM748 1152q156 0 240 -100q56 -64 76 -164q56 -20 94 -70t38 -114q0 -80 -56 -136t-136 -56t-136 56t-56 136q0 60 32 108t88 68q-20 60 -68 96
q-68 48 -180 48q-160 0 -256 72v-340q56 -20 92 -70t36 -110q0 -80 -56 -136t-136 -56t-136 56t-56 136q0 60 36 110t92 70v536q-56 20 -92 70t-36 110q0 80 56 136t136 56t136 -56t56 -136q0 -60 -32 -108t-84 -68q24 -60 80 -96q84 -48 228 -48zM364 1408q28 0 46 18
t18 46t-18 46t-46 18t-46 -18t-18 -46t18 -46t46 -18zM364 512q28 0 46 18t18 46t-18 46t-46 18t-46 -18t-18 -46t18 -46t46 -18zM1004 640q28 0 46 18t18 46t-18 46t-46 18t-46 -18t-18 -46t18 -46t46 -18z" />
</svg>
