<?xml version="1.0" standalone="no"?>
<!DOCTYPE svg PUBLIC "-//W3C//DTD SVG 1.1//EN" "http://www.w3.org/Graphics/SVG/1.1/DTD/svg11.dtd" >
<svg xmlns="http://www.w3.org/2000/svg" xmlns:xlink="http://www.w3.org/1999/xlink" version="1.1" viewBox="-10 0 1775 2048">
   <path fill="currentColor"
d="M55 254q-43 -2 -52 -4l-3 -100q15 -2 46 -2q53 0 128 6q143 8 189 8q66 0 192 -4q134 -5 167 -6q48 0 99 -2l-2 16l3 72v12q-66 10 -142 10q-67 0 -90 28q-15 17 -15 150q0 15 0.5 37.5t0.5 30.5l1 260l16 320q8 142 58 232q39 67 110 104q101 54 202 54q122 0 219 -32
q65 -21 113 -58q54 -40 74 -72q43 -67 61 -132q24 -83 24 -260q0 -91 -4 -147.5t-13 -140t-15 -182.5l-5 -66q-5 -78 -27 -102q-39 -40 -88 -38l-115 2l-16 -4l3 -98h96l234 12q93 3 224 -12l21 2q6 35 6 58q0 8 -4 36q-53 14 -96 16q-83 12 -90 18q-18 18 -18 48
q0 7 1.5 29t2.5 37q9 21 25 452q8 218 -17 348q-16 84 -47 140q-45 75 -128 140q-88 65 -208 102q-126 38 -291 38q-189 0 -325 -54q-135 -52 -205 -138q-68 -85 -94 -224q-19 -92 -19 -270v-382q0 -216 -19 -242q-29 -43 -168 -46zM1755 1866v-74q0 -15 -10 -25.5
t-26 -10.5h-1682q-16 0 -26.5 10.5t-10.5 25.5v74q0 15 10.5 25.5t26.5 10.5h1682q16 0 26 -10.5t10 -25.5z" />
</svg>
