<?xml version="1.0" standalone="no"?>
<!DOCTYPE svg PUBLIC "-//W3C//DTD SVG 1.1//EN" "http://www.w3.org/Graphics/SVG/1.1/DTD/svg11.dtd" >
<svg xmlns="http://www.w3.org/2000/svg" xmlns:xlink="http://www.w3.org/1999/xlink" version="1.1" viewBox="-10 0 1724 2048">
   <path fill="currentColor"
d="M1152 820q-168 92 -300 228q-132 -136 -300 -228q16 -180 94 -348t210 -300q136 132 210 300t86 348zM852 1320q140 -216 366 -342t486 -126q0 384 -208 644q-152 192 -396 300q-136 60 -248 80q-108 -16 -248 -80q-244 -108 -396 -300q-208 -260 -208 -644
q260 0 486 126t366 342zM856 444q-84 132 -116 288l112 84l116 -84q-32 -156 -112 -288zM852 1704q28 -8 56 -12q68 -20 132 -52q96 -48 176 -112q100 -84 172 -192q84 -128 124 -292q-216 68 -388 220q-124 108 -208 248q-44 68 -64 116l-48 -80q-60 -100 -132 -188
q-100 -120 -208 -196q-132 -96 -272 -116q64 252 236 424q124 124 284 188q84 36 140 44z" />
</svg>
