<?xml version="1.0" standalone="no"?>
<!DOCTYPE svg PUBLIC "-//W3C//DTD SVG 1.1//EN" "http://www.w3.org/Graphics/SVG/1.1/DTD/svg11.dtd" >
<svg xmlns="http://www.w3.org/2000/svg" xmlns:xlink="http://www.w3.org/1999/xlink" version="1.1" viewBox="-10 0 1900 2048">
   <path fill="currentColor"
d="M172 340h1196v344h256l256 340v428h-172q0 104 -74 180t-182 76t-182 -76t-74 -180h-512q0 104 -74 180t-182 76t-182 -76t-74 -180h-172v-940q0 -72 50 -122t122 -50zM1368 812v212h380l-168 -212h-212zM428 1324q-52 0 -90 36t-38 90t38 92t90 38t90 -38t38 -92
t-38 -90t-90 -36zM1452 1324q-52 0 -90 36t-38 90t38 92t90 38t90 -38t38 -92t-38 -90t-90 -36zM600 1196l512 -512l-120 -124l-392 392l-180 -176l-120 120z" />
</svg>
