<?xml version="1.0" standalone="no"?>
<!DOCTYPE svg PUBLIC "-//W3C//DTD SVG 1.1//EN" "http://www.w3.org/Graphics/SVG/1.1/DTD/svg11.dtd" >
<svg xmlns="http://www.w3.org/2000/svg" xmlns:xlink="http://www.w3.org/1999/xlink" version="1.1" viewBox="-10 0 1724 2048">
   <path fill="currentColor"
d="M552 536q60 -36 128 -56v-112q0 -68 50 -118t122 -50t122 50t50 118v112q72 20 128 56l-136 180h-328zM1448 1052q0 60 -12 120l-216 -68l-100 -312l136 -180q56 52 96 116q108 -8 192 32q64 36 108 96t52 136l-256 28v32zM256 1052v-28l-256 -32q8 -76 52 -136t108 -96
q92 -44 188 -28q44 -68 96 -116l140 176l-100 312l-216 68q-12 -60 -12 -120zM700 844h304l92 288l-244 176l-244 -176zM520 1228l268 192v224q-72 -4 -140 -32l-104 236q-68 -28 -114 -88t-58 -132q-20 -96 28 -188q-60 -68 -96 -148zM1184 1228l216 64q-36 80 -96 148
q48 92 28 188q-12 72 -58 132t-114 88l-104 -236q-84 32 -140 36v-228z" />
</svg>
