<?xml version="1.0" standalone="no"?>
<!DOCTYPE svg PUBLIC "-//W3C//DTD SVG 1.1//EN" "http://www.w3.org/Graphics/SVG/1.1/DTD/svg11.dtd" >
<svg xmlns="http://www.w3.org/2000/svg" xmlns:xlink="http://www.w3.org/1999/xlink" version="1.1" viewBox="-10 0 1724 2048">
   <path fill="currentColor"
d="M1152 820q-12 -180 -86 -348t-210 -300q-132 132 -210 300t-94 348q168 92 300 228q132 -136 300 -228zM852 1320q-140 -216 -366 -342t-486 -126q0 384 208 644q152 192 396 300q140 64 248 80q112 -20 248 -80q244 -108 396 -300q208 -260 208 -644q-260 0 -486 126
t-366 342z" />
</svg>
