<?xml version="1.0" standalone="no"?>
<!DOCTYPE svg PUBLIC "-//W3C//DTD SVG 1.1//EN" "http://www.w3.org/Graphics/SVG/1.1/DTD/svg11.dtd" >
<svg xmlns="http://www.w3.org/2000/svg" xmlns:xlink="http://www.w3.org/1999/xlink" version="1.1" viewBox="-10 0 1724 2048">
   <path fill="currentColor"
d="M1620 596q-36 0 -60 -20q-16 -16 -24 -40v-24v-84h-172v168h-172v-84q0 -88 -40 -176q-56 -108 -156 -172q-128 -80 -314 -80t-314 80q-104 64 -156 172q-44 88 -44 176v1108q0 56 -24 96q-40 76 -144 76v172q116 0 200 -60q68 -48 108 -132q32 -76 32 -152v-1108
q0 -32 12 -72q28 -72 92 -120q88 -64 236 -64t236 60q64 44 92 120q16 40 16 76v84h-172v-168h-172v84v24q-8 24 -24 40q-24 20 -60 20q-52 0 -76 44q-8 20 -8 44v1024l4 24q16 32 48 60q48 36 128 60q100 24 244 24h344q144 0 244 -24q80 -24 128 -60q32 -28 48 -60l4 -24
v-1024v-24q-8 -24 -24 -40q-24 -24 -60 -24zM1108 1656q-108 0 -182 -76t-74 -180q0 -76 68 -196q44 -84 120 -184l68 -80l68 80q76 100 120 184q68 120 68 196q0 104 -74 180t-182 76z" />
</svg>
