<?xml version="1.0" standalone="no"?>
<!DOCTYPE svg PUBLIC "-//W3C//DTD SVG 1.1//EN" "http://www.w3.org/Graphics/SVG/1.1/DTD/svg11.dtd" >
<svg xmlns="http://www.w3.org/2000/svg" xmlns:xlink="http://www.w3.org/1999/xlink" version="1.1" viewBox="-10 0 1724 2048">
   <path fill="currentColor"
d="M1704 596l-40 -40h-4q-132 128 -196 180q-104 88 -192 132q-76 40 -152 52q-48 12 -152 16l-32 4l4 -32q4 -104 16 -152q12 -76 52 -152q44 -88 132 -192q52 -64 180 -196v-4l-40 -40q-216 156 -428 156t-428 -156l-40 40v4q128 132 180 196q88 104 132 192q40 76 52 152
q12 48 16 152l4 32l-32 -4q-104 -4 -152 -16q-76 -12 -152 -52q-88 -44 -196 -132q-64 -56 -196 -180l-40 40q156 216 156 428t-156 428l40 40h4q132 -128 196 -180q104 -88 192 -132q76 -40 152 -52q48 -12 152 -16l32 -4l-4 32q-4 104 -16 152q-12 76 -52 152
q-44 88 -132 192q-52 64 -180 196v4l40 40q216 -156 428 -156t428 156l40 -40v-4q-128 -132 -180 -196q-88 -104 -132 -192q-40 -76 -52 -152q-12 -48 -16 -152l-4 -32l32 4q104 4 152 16q76 12 152 52q88 44 192 132q64 52 196 180h4l40 -40q-156 -216 -156 -428t156 -428z
" />
</svg>
