<?xml version="1.0" standalone="no"?>
<!DOCTYPE svg PUBLIC "-//W3C//DTD SVG 1.1//EN" "http://www.w3.org/Graphics/SVG/1.1/DTD/svg11.dtd" >
<svg xmlns="http://www.w3.org/2000/svg" xmlns:xlink="http://www.w3.org/1999/xlink" version="1.1" viewBox="-10 0 1556 2048">
   <path fill="currentColor"
d="M0 256v172q72 0 122 50t50 118v1024q0 72 50 122t118 50h856q68 0 118 -50t50 -122v-1024q0 -68 50 -118t122 -50v-172h-1536zM340 768h256v84h-256v-84zM340 940h256v84h-256v-84zM596 1364h-256v-84h256v84zM768 1196h-428v-88h428v88zM768 684h-428v-88h428v88z" />
</svg>
