<?xml version="1.0" standalone="no"?>
<!DOCTYPE svg PUBLIC "-//W3C//DTD SVG 1.1//EN" "http://www.w3.org/Graphics/SVG/1.1/DTD/svg11.dtd" >
<svg xmlns="http://www.w3.org/2000/svg" xmlns:xlink="http://www.w3.org/1999/xlink" version="1.1" viewBox="-10 0 1922 2048">
   <path fill="currentColor"
d="M585 1646v-220q0 -15 -10 -25.5t-26 -10.5h-366q-16 0 -26.5 10.5t-10.5 25.5v220q0 15 10.5 25.5t26.5 10.5h366q16 0 26 -10.5t10 -25.5zM585 1206v-218q0 -16 -10 -27t-26 -11h-366q-16 0 -26.5 11t-10.5 27v218q0 16 10.5 27t26.5 11h366q16 0 26 -11t10 -27z
M1170 1646v-220q0 -15 -10 -25.5t-26 -10.5h-366q-16 0 -26.5 10.5t-10.5 25.5v220q0 15 10.5 25.5t26.5 10.5h366q16 0 26 -10.5t10 -25.5zM585 768v-220q0 -15 -10 -25.5t-26 -10.5h-366q-16 0 -26.5 10.5t-10.5 25.5v220q0 15 10.5 25.5t26.5 10.5h366q16 0 26 -10.5
t10 -25.5zM1170 1206v-218q0 -16 -10 -27t-26 -11h-366q-16 0 -26.5 11t-10.5 27v218q0 16 10.5 27t26.5 11h366q16 0 26 -11t10 -27zM1755 1646v-220q0 -15 -10 -25.5t-26 -10.5h-366q-16 0 -26 10.5t-10 25.5v220q0 15 10 25.5t26 10.5h366q16 0 26 -10.5t10 -25.5z
M1170 768v-220q0 -15 -10 -25.5t-26 -10.5h-366q-16 0 -26.5 10.5t-10.5 25.5v220q0 15 10.5 25.5t26.5 10.5h366q16 0 26 -10.5t10 -25.5zM1755 1206v-218q0 -16 -10 -27t-26 -11h-366q-16 0 -26 11t-10 27v218q0 16 10 27t26 11h366q16 0 26 -11t10 -27zM1755 768v-220
q0 -15 -10 -25.5t-26 -10.5h-366q-16 0 -26 10.5t-10 25.5v220q0 15 10 25.5t26 10.5h366q16 0 26 -10.5t10 -25.5zM1902 402v1244q0 75 -53.5 128.5t-129.5 53.5h-1536q-76 0 -129.5 -53.5t-53.5 -128.5v-1244q0 -75 53.5 -128.5t129.5 -53.5h1536q76 0 129.5 53.5
t53.5 128.5z" />
</svg>
