<?xml version="1.0" standalone="no"?>
<!DOCTYPE svg PUBLIC "-//W3C//DTD SVG 1.1//EN" "http://www.w3.org/Graphics/SVG/1.1/DTD/svg11.dtd" >
<svg xmlns="http://www.w3.org/2000/svg" xmlns:xlink="http://www.w3.org/1999/xlink" version="1.1" viewBox="-10 0 1644 2048">
   <path fill="currentColor"
d="M1280 938v128q144 0 244 100t100 240q0 104 -60 188l-92 -92q24 -44 24 -96q0 -88 -64 -150t-152 -62v128l-192 -192zM1280 1878v-128q-140 0 -240 -100t-100 -244q0 -100 56 -188l96 92q-24 48 -24 96q0 88 62 152t150 64v-128l192 192zM684 170q184 0 342 46t250 124
t92 172t-92 172t-250 124t-342 46t-342 -46t-250 -124t-92 -172t92 -172t250 -124t342 -46zM0 682q0 92 92 170t250 124t342 46q140 0 268 -24q-128 112 -168 276l-100 4q-184 0 -342 -46t-250 -124t-92 -170v-256zM1368 682v172h-96q96 -80 96 -172zM0 1110q0 92 92 170
t250 124t342 46l84 -4q12 132 84 248l-168 12q-184 0 -342 -46t-250 -124t-92 -170v-256z" />
</svg>
