<?xml version="1.0" standalone="no"?>
<!DOCTYPE svg PUBLIC "-//W3C//DTD SVG 1.1//EN" "http://www.w3.org/Graphics/SVG/1.1/DTD/svg11.dtd" >
<svg xmlns="http://www.w3.org/2000/svg" xmlns:xlink="http://www.w3.org/1999/xlink" version="1.1" viewBox="-10 0 1724 2048">
   <path fill="currentColor"
d="M1536 554q72 0 120 52t48 120v936q0 68 -48 120t-120 52h-1368q-72 0 -120 -52t-48 -120v-936q0 -68 48 -120t120 -52h344v-172q0 -72 48 -120t120 -48h344q72 0 120 48t48 120v172h344zM168 726v936h1368v-936h-1368zM1024 554v-172h-344v172h344zM852 810q80 0 136 56
t56 136t-56 136t-136 56t-136 -56t-56 -136t56 -136t136 -56zM1236 1578h-768v-96q0 -80 112 -136t272 -56t272 56t112 136v96z" />
</svg>
