<?xml version="1.0" standalone="no"?>
<!DOCTYPE svg PUBLIC "-//W3C//DTD SVG 1.1//EN" "http://www.w3.org/Graphics/SVG/1.1/DTD/svg11.dtd" >
<svg xmlns="http://www.w3.org/2000/svg" xmlns:xlink="http://www.w3.org/1999/xlink" version="1.1" viewBox="-10 0 1384 2048">
   <path fill="currentColor"
d="M1180 684q-36 -136 -134 -234t-234 -134v-144h-256v144q-136 36 -234 134t-134 234h-188v256h188q36 132 134 232t234 132v572h256v-572q136 -32 234 -132t134 -232h184v-256h-184zM688 812l208 128h108q-24 64 -74 114t-118 78v-108l-124 -208l-4 -4l-4 4l-124 208v108
q-136 -56 -192 -192h108l212 -128h-4l-208 -128h-108q24 -68 74 -118t118 -78v108l124 208l4 8l4 -8l124 -208v-108q68 28 118 78t74 118h-108l-208 128h-4h4z" />
</svg>
