<?xml version="1.0" standalone="no"?>
<!DOCTYPE svg PUBLIC "-//W3C//DTD SVG 1.1//EN" "http://www.w3.org/Graphics/SVG/1.1/DTD/svg11.dtd" >
<svg xmlns="http://www.w3.org/2000/svg" xmlns:xlink="http://www.w3.org/1999/xlink" version="1.1" viewBox="-10 0 1724 2048">
   <path fill="currentColor"
d="M1536 554h-344v-172q0 -68 -50 -118t-118 -50h-344q-68 0 -118 50t-50 118v172h-344q-68 0 -118 50t-50 122v936q0 72 50 122t118 50h1368q68 0 118 -50t50 -122v-936q0 -72 -50 -122t-118 -50zM680 382h344v172h-344v-172zM852 810q88 0 150 62t62 150t-62 152t-150 64
t-150 -64t-62 -152t62 -150t150 -62zM1280 1662h-856v-104q0 -88 126 -152t302 -64t302 64t126 152v104z" />
</svg>
