<?xml version="1.0" standalone="no"?>
<!DOCTYPE svg PUBLIC "-//W3C//DTD SVG 1.1//EN" "http://www.w3.org/Graphics/SVG/1.1/DTD/svg11.dtd" >
<svg xmlns="http://www.w3.org/2000/svg" xmlns:xlink="http://www.w3.org/1999/xlink" version="1.1" viewBox="-10 0 1724 2048">
   <path fill="currentColor"
d="M1128 1108h172l-44 172h-168zM1704 684v852q0 72 -50 122t-118 50h-1368q-68 0 -118 -50t-50 -122v-1024q0 -72 50 -122t118 -50h512l172 172h684q68 0 118 50t50 122zM1536 1024h-128l40 -172h-84l-44 172h-168l40 -172h-84l-44 172h-128v84h108l-44 172h-148v84h128
l-44 172h88l40 -172h172l-44 172h88l40 -172h128v-84h-104l40 -172h152v-84z" />
</svg>
