<?xml version="1.0" standalone="no"?>
<!DOCTYPE svg PUBLIC "-//W3C//DTD SVG 1.1//EN" "http://www.w3.org/Graphics/SVG/1.1/DTD/svg11.dtd" >
<svg xmlns="http://www.w3.org/2000/svg" xmlns:xlink="http://www.w3.org/1999/xlink" version="1.1" viewBox="-10 0 1640 2048">
   <path fill="currentColor"
d="M340 1108h-168q-72 0 -122 50t-50 122v512h172v-172h168v172h172v-512q0 -72 -50 -122t-122 -50zM340 1452h-168v-172h168v172zM512 256v172l-284 340h284v172h-512v-172l284 -340h-284v-172h512zM768 428h852v168h-852v-168zM768 1620v-168h852v168h-852zM768 940h852
v168h-852v-168z" />
</svg>
