<?xml version="1.0" standalone="no"?>
<!DOCTYPE svg PUBLIC "-//W3C//DTD SVG 1.1//EN" "http://www.w3.org/Graphics/SVG/1.1/DTD/svg11.dtd" >
<svg xmlns="http://www.w3.org/2000/svg" xmlns:xlink="http://www.w3.org/1999/xlink" version="1.1" viewBox="-10 0 1388 2048">
   <path fill="currentColor"
d="M256 1748h172v172h-172v-172zM600 1748h168v172h-168v-172zM940 1748h172v172h-172v-172zM684 128q184 0 342 46t250 124t92 172t-92 172t-250 124t-342 46t-342 -46t-250 -124t-92 -172t92 -172t250 -124t342 -46zM0 640q0 92 92 170t250 124t342 46t342 -46t250 -124
t92 -170v256q0 92 -92 170t-250 124t-342 46t-342 -46t-250 -124t-92 -170v-256zM0 1068q0 92 92 170t250 124t342 46t342 -46t250 -124t92 -170v256q0 72 -62 140t-170 116h-904q-108 -48 -170 -116t-62 -140v-256z" />
</svg>
