<?xml version="1.0" standalone="no"?>
<!DOCTYPE svg PUBLIC "-//W3C//DTD SVG 1.1//EN" "http://www.w3.org/Graphics/SVG/1.1/DTD/svg11.dtd" >
<svg xmlns="http://www.w3.org/2000/svg" xmlns:xlink="http://www.w3.org/1999/xlink" version="1.1" viewBox="-10 0 1724 2048">
   <path fill="currentColor"
d="M1536 1536h-1368v-852h1368v852zM1536 512h-684l-172 -172h-512q-68 0 -118 50t-50 122v1024q0 72 50 122t118 50h1368q68 0 118 -50t50 -122v-852q0 -72 -50 -122t-118 -50zM1448 1024v-84h-128l44 -172h-84l-44 172h-172l44 -172h-84l-44 172h-128v84h108l-44 172h-148
v84h128l-44 172h84l44 -172h172l-44 172h84l44 -172h128v-84h-108l44 -172h148zM1172 1196h-172l44 -172h172z" />
</svg>
