<?xml version="1.0" standalone="no"?>
<!DOCTYPE svg PUBLIC "-//W3C//DTD SVG 1.1//EN" "http://www.w3.org/Graphics/SVG/1.1/DTD/svg11.dtd" >
<svg xmlns="http://www.w3.org/2000/svg" xmlns:xlink="http://www.w3.org/1999/xlink" version="1.1" viewBox="-10 0 1891 2048">
   <path fill="currentColor"
d="M1329 753l335 -335l-122 -123l-335 335zM1840 418q0 30 -21 51l-1469 1470q-20 20 -52 20q-31 0 -51 -20l-227 -226q-20 -20 -20 -52q0 -31 20 -51l1470 -1470q21 -21 52 -21q30 0 51 21l226 226q21 21 21 52zM296 201l112 34l-112 34l-34 112l-35 -112l-112 -34l112 -34
l35 -112zM696 386l224 68l-224 69l-69 224l-68 -224l-224 -69l224 -68l68 -224zM1759 932l112 34l-112 35l-35 112l-34 -112l-112 -35l112 -34l34 -112zM1027 201l112 34l-112 34l-34 112l-34 -112l-112 -34l112 -34l34 -112z" />
</svg>
