<?xml version="1.0" standalone="no"?>
<!DOCTYPE svg PUBLIC "-//W3C//DTD SVG 1.1//EN" "http://www.w3.org/Graphics/SVG/1.1/DTD/svg11.dtd" >
<svg xmlns="http://www.w3.org/2000/svg" xmlns:xlink="http://www.w3.org/1999/xlink" version="1.1" viewBox="-10 0 1812 2048">
   <path fill="currentColor"
d="M680 212l172 172h684q68 0 118 50t50 122v296q-80 -32 -168 -40v-256h-1368v852h768q12 92 44 172h-812q-68 0 -118 -50t-50 -122v-1024q0 -72 50 -122t118 -50h512zM1448 896v128q144 0 244 100t100 240q0 104 -60 188l-92 -92q24 -44 24 -96q0 -88 -64 -150t-152 -62
v128l-192 -196q20 -16 192 -188zM1448 1836v-128q-140 0 -240 -100t-100 -244q0 -100 56 -188l96 92q-24 48 -24 96q0 88 62 152t150 64v-128l196 192q-20 16 -196 192z" />
</svg>
