<?xml version="1.0" standalone="no"?>
<!DOCTYPE svg PUBLIC "-//W3C//DTD SVG 1.1//EN" "http://www.w3.org/Graphics/SVG/1.1/DTD/svg11.dtd" >
<svg xmlns="http://www.w3.org/2000/svg" xmlns:xlink="http://www.w3.org/1999/xlink" version="1.1" viewBox="-10 0 1726 2048">
   <path fill="currentColor"
d="M521 1660q-140 -52 -242 -168t-134 -268l-140 -664q-16 -72 22 -130t106 -74l836 -176q72 -16 130 22t70 106l32 144l372 80q68 16 106 74t22 126l-140 668q-32 160 -140 276t-258 166t-310 18q-200 -44 -332 -200zM1537 700l-836 -180l-140 672q-24 112 12 218t120 182
t196 100t220 -12t184 -118t100 -198zM1193 1408q-40 68 -114 102t-154 16t-136 -78t-64 -140zM553 440l-384 84l144 668q20 88 72 164q-12 -104 8 -204l36 -172q-60 -8 -88 -56q4 -40 34 -72t74 -40h20l68 -328q4 -24 16 -44zM1113 1044q20 -36 60 -52t84 -6t74 40t34 70
q-20 36 -60 52t-84 6t-74 -40t-34 -70zM697 956q20 -36 58 -52t82 -6t74 40t38 70q-24 36 -62 52t-82 6t-74 -40t-34 -70zM849 380l168 32l-12 -68z" />
</svg>
