<?xml version="1.0" standalone="no"?>
<!DOCTYPE svg PUBLIC "-//W3C//DTD SVG 1.1//EN" "http://www.w3.org/Graphics/SVG/1.1/DTD/svg11.dtd" >
<svg xmlns="http://www.w3.org/2000/svg" xmlns:xlink="http://www.w3.org/1999/xlink" version="1.1" viewBox="-10 0 1724 2048">
   <path fill="currentColor"
d="M468 410q36 0 52 8l204 348l-316 392q-120 -140 -172 -236q-68 -112 -68 -216q0 -128 86 -212t214 -84zM468 238q-132 0 -238 62t-168 170t-62 236q0 156 92 312q80 140 252 312q116 120 388 360l120 108l-256 -596l340 -428l-304 -512q-80 -24 -164 -24zM1236 410
q128 0 214 84t86 212q0 156 -156 344q-112 144 -408 408l-28 -196l412 -452l-196 -384q24 -16 76 -16zM1236 238q-80 0 -162 30t-146 82l224 436l-384 424l84 600l120 -112q276 -252 388 -364q172 -176 252 -312q92 -156 92 -308q0 -132 -62 -242t-168 -172t-238 -62z" />
</svg>
