<?xml version="1.0" standalone="no"?>
<!DOCTYPE svg PUBLIC "-//W3C//DTD SVG 1.1//EN" "http://www.w3.org/Graphics/SVG/1.1/DTD/svg11.dtd" >
<svg xmlns="http://www.w3.org/2000/svg" xmlns:xlink="http://www.w3.org/1999/xlink" version="1.1" viewBox="-10 0 1556 2048">
   <path fill="currentColor"
d="M1364 256h-1192q-72 0 -122 50t-50 122v1192q0 72 50 122t122 50h1192q72 0 122 -50t50 -122v-1192q0 -72 -50 -122t-122 -50zM932 1264l-188 188q-80 84 -200 84t-204 -84t-84 -202t84 -202l116 -116v48q0 68 20 124l4 12l-36 36q-40 40 -40 96t40 98t98 42t98 -40
l188 -188q40 -44 40 -98t-40 -98q-24 -20 -24 -52t22 -54t54 -22t52 24q84 84 84 202t-84 202zM1196 1000l-116 116v-48q0 -68 -20 -124l-4 -12l36 -36q40 -40 40 -96t-40 -98t-98 -40t-98 38l-188 188q-40 44 -40 98t40 98q24 20 24 52t-22 54t-54 22t-52 -24
q-84 -84 -84 -202t84 -202l188 -188q84 -84 202 -84t202 84t84 202t-84 202z" />
</svg>
