<?xml version="1.0" standalone="no"?>
<!DOCTYPE svg PUBLIC "-//W3C//DTD SVG 1.1//EN" "http://www.w3.org/Graphics/SVG/1.1/DTD/svg11.dtd" >
<svg xmlns="http://www.w3.org/2000/svg" xmlns:xlink="http://www.w3.org/1999/xlink" version="1.1" viewBox="-10 0 1995 2048">
   <path fill="currentColor"
d="M658 1536q0 -60 -43 -103t-103 -43t-103 43t-43 103t43 103t103 43t103 -43t43 -103zM220 952h438v-294h-180q-4 0 -13.5 4t-11.5 6l-223 224q-2 2 -6 11.5t-4 12.5v36zM1682 1536q0 -60 -43 -103t-103 -43t-103 43t-43 103t43 103t103 43t103 -43t43 -103zM1975 292
v1172q0 15 -4.5 27t-10 20t-17 13t-20 8t-23.5 4t-23.5 1t-25 -0.5t-22.5 -0.5q0 121 -86 206.5t-207 85.5t-206.5 -85.5t-85.5 -206.5h-439q0 121 -86 206.5t-207 85.5t-206.5 -85.5t-85.5 -206.5h-74q-6 0 -22.5 0.5t-25 0.5t-23.5 -1t-23.5 -4t-20 -8t-17 -13t-10 -20
t-4.5 -27q0 -31 21.5 -52.5t51.5 -21.5v-366q0 -7 -0.5 -39.5t0 -44.5t3 -39t8 -42t16 -34.5t25.5 -34.5l226 -226q22 -22 58 -37t67 -15h182v-220q0 -29 22 -50.5t52 -21.5h1170q30 0 51.5 21t21.5 51z" />
</svg>
