<?xml version="1.0" standalone="no"?>
<!DOCTYPE svg PUBLIC "-//W3C//DTD SVG 1.1//EN" "http://www.w3.org/Graphics/SVG/1.1/DTD/svg11.dtd" >
<svg xmlns="http://www.w3.org/2000/svg" xmlns:xlink="http://www.w3.org/1999/xlink" version="1.1" viewBox="-10 0 1392 2048">
   <path fill="currentColor"
d="M686 172q108 0 182 74t74 180t-74 182t-182 76t-182 -76t-74 -182t74 -180t182 -74zM1370 1536l-172 -464q-28 -80 -52 -120q-40 -56 -120 -100q-92 -44 -166 -64t-174 -20t-174 20t-166 64q-80 44 -120 100q-24 40 -52 120l-172 464q-16 72 104 152q68 44 232 112l16 8
v-188q0 -120 220 -172l36 -8q-44 -64 -64 -136l148 -52v4q16 40 40 80q48 80 108 120q28 8 52 20q100 44 120 112q-172 68 -328 68l-84 -8v224l84 4q172 0 332 -68q152 -64 240 -124q124 -84 112 -148zM986 1452q-56 0 -92 -38t-36 -92t36 -90t90 -36t92 36t38 90t-38 92
t-90 38z" />
</svg>
