<?xml version="1.0" standalone="no"?>
<!DOCTYPE svg PUBLIC "-//W3C//DTD SVG 1.1//EN" "http://www.w3.org/Graphics/SVG/1.1/DTD/svg11.dtd" >
<svg xmlns="http://www.w3.org/2000/svg" xmlns:xlink="http://www.w3.org/1999/xlink" version="1.1" viewBox="-10 0 1775 2048">
   <path fill="currentColor"
d="M1755 1024.5q0 119.5 -31.5 233t-88 210t-137.5 177.5t-177 137.5t-210 88t-233 31.5q-129 0 -249 -36q68 -109 89 -188q10 -40 61 -242q23 46 84 78t130 32q139 0 247.5 -78t167.5 -215t59 -309q0 -97 -40 -187.5t-111 -160.5t-177 -112t-228 -42q-120 0 -224 33
t-176.5 88t-124.5 126t-76.5 147.5t-24.5 153.5q0 118 45.5 208.5t133.5 127.5q14 6 26.5 -0.5t16.5 -23.5q3 -7 10 -34t9 -34q4 -18 1.5 -26.5t-14.5 -23.5q-58 -69 -58 -172q0 -84 30.5 -160t85 -134t137 -93t179.5 -35q172 0 269 94.5t97 243.5q0 127 -34.5 233
t-99 169.5t-145.5 63.5q-70 0 -112.5 -49.5t-26.5 -118.5q9 -41 30.5 -107.5t34.5 -117.5t13 -87q0 -57 -31 -94.5t-88 -37.5q-71 0 -120 65.5t-49 162.5q0 83 29 138l-113 478q-19 79 -15 202q-155 -68 -273.5 -187.5t-185.5 -279.5t-67 -337q0 -119 31.5 -233t88 -210
t137.5 -177t177.5 -137.5t210.5 -88.5t233 -32t233 32t210 88.5t177 137.5t137.5 177t88 210t31.5 233.5z" />
</svg>
