<?xml version="1.0" standalone="no"?>
<!DOCTYPE svg PUBLIC "-//W3C//DTD SVG 1.1//EN" "http://www.w3.org/Graphics/SVG/1.1/DTD/svg11.dtd" >
<svg xmlns="http://www.w3.org/2000/svg" xmlns:xlink="http://www.w3.org/1999/xlink" version="1.1" viewBox="-10 0 1725 2048">
   <path fill="currentColor"
d="M1432 176q152 28 220 124q56 84 52 216v-4l-96 1276l-1260 84q-136 -4 -212 -48q-132 -80 -136 -292l116 -212l236 548l200 -648h-4h4l656 208l-168 -664l628 -40l-496 -404zM0 1528v4v-4zM364 532q128 -128 268 -212t258 -104t178 42t44 176t-96 250t-208 262t-268 212
t-256 108t-178 -40t-46 -178t96 -254t208 -262z" />
</svg>
