<?xml version="1.0" standalone="no"?>
<!DOCTYPE svg PUBLIC "-//W3C//DTD SVG 1.1//EN" "http://www.w3.org/Graphics/SVG/1.1/DTD/svg11.dtd" >
<svg xmlns="http://www.w3.org/2000/svg" xmlns:xlink="http://www.w3.org/1999/xlink" version="1.1" viewBox="-10 0 1640 2048">
   <path fill="currentColor"
d="M1280 1298q108 0 182 74t74 182t-74 182t-182 74q-84 0 -150 -48t-90 -124h-100v-168h100q24 -76 90 -124t150 -48zM1280 1470q-36 0 -60 24t-24 60t24 60t60 24t60 -24t24 -60t-24 -60t-60 -24zM1280 702q52 0 88 -36t36 -86t-36 -86t-88 -36t-88 36t-36 86t36 86t88 36
zM1280 238q140 0 240 100t100 240q0 160 -168 412q-88 128 -172 224l-88 -108q-100 -132 -164 -248q-88 -164 -88 -280q0 -140 100 -240t240 -100zM496 1470h100v168h-100q-24 76 -90 124t-150 48q-108 0 -182 -74t-74 -182q0 -84 48 -150t124 -90v-100h168v100q56 16 98 58
t58 98zM256 1470q-36 0 -60 24t-24 60t24 60t60 24t60 -24t24 -60t-24 -60t-60 -24zM256 274q108 0 182 74t74 182q0 84 -48 150t-124 90v100h-168v-100q-76 -24 -124 -90t-48 -150q0 -108 74 -182t182 -74zM256 446q-36 0 -60 24t-24 60t24 60t60 24t60 -24t24 -60t-24 -60
t-60 -24zM684 1638v-168h168v168h-168zM340 1126h-168v-168h168v168z" />
</svg>
