<?xml version="1.0" standalone="no"?>
<!DOCTYPE svg PUBLIC "-//W3C//DTD SVG 1.1//EN" "http://www.w3.org/Graphics/SVG/1.1/DTD/svg11.dtd" >
<svg xmlns="http://www.w3.org/2000/svg" xmlns:xlink="http://www.w3.org/1999/xlink" version="1.1" viewBox="-11 0 1677 2048">
   <path fill="currentColor"
d="M1492 1606q28 -32 36 -64v-28h128v20q-4 28 -10 58t-26 82q-8 36 -56 88l-44 40q-60 48 -136 64q-36 8 -60 4l-36 4q-44 0 -80 -8q-56 -12 -100 -36q-56 -40 -120 -120l-48 -68l-64 12q-80 8 -160 8q-116 -8 -216 -40q-128 -40 -228 -128q-176 -148 -240 -356
q-36 -104 -32 -212v-4q0 -92 36 -212q60 -212 196 -344q188 -180 500 -192q280 -12 480 136q160 120 240 308q60 144 60 272q0 92 -20 172q-4 52 -24 110t-44 94l-4 8q-60 96 -96 136t-92 92l-12 12l48 52q56 56 88 64l16 4q88 16 120 -28zM896 1478q8 -8 -32 -60l-72 -100
q-32 -56 -108 -72h-60q-32 0 -64 8l-16 4q0 -8 -8 -24l-16 -20q-8 -16 -8 -44q0 -8 40 -28t96 -32q72 -16 136 -16q80 0 152 40q48 24 88 64q16 12 38 42t38 42h4q4 4 4 8q16 12 34 -60t28 -182t6 -202q-4 -156 -20 -224q-16 -84 -62 -150t-134 -110t-174 -44t-162 24
q-124 36 -180 128q-64 108 -80 304q-12 100 -4 176l-4 76q4 92 28 168q28 108 92 172q84 84 188 112q56 12 144 8h28z" />
</svg>
