<?xml version="1.0" standalone="no"?>
<!DOCTYPE svg PUBLIC "-//W3C//DTD SVG 1.1//EN" "http://www.w3.org/Graphics/SVG/1.1/DTD/svg11.dtd" >
<svg xmlns="http://www.w3.org/2000/svg" xmlns:xlink="http://www.w3.org/1999/xlink" version="1.1" viewBox="-10 0 1724 2048">
   <path fill="currentColor"
d="M560 1028q0 32 -8 60t-24 52t-42 38t-62 14t-60 -14t-40 -38t-24 -54t-8 -62t8 -62t24 -54t42 -38t62 -14t62 14t40 40t22 56t8 62zM1704 1024v668q0 32 -22 56t-58 24h-1120q-32 0 -56 -24t-24 -56v-240h-356q-28 0 -48 -22t-20 -50v-712q0 -28 20 -50t48 -22h464v-244
q0 -32 22 -54t54 -22h916q32 0 54 22t22 54v592l88 48q8 8 12 16t4 16zM1280 436v216h212v-216h-212zM1280 756v216h212v-216h-212zM1280 1076v132l216 -132h-216zM904 436v216h268v-216h-268zM904 756v216h268v-216h-268zM904 1076v144l172 108l96 -56v-196h-268zM640 436
v160h148q8 0 12 4v-164h-160zM424 1308q64 0 114 -22t84 -60t52 -92t18 -114t-18 -110t-50 -88t-82 -60t-112 -22t-114 22t-86 60t-52 92t-18 116t18 112t52 86t84 58t110 22zM532 1664h880l-560 -348v64q0 28 -22 50t-50 22h-248v212zM1600 1656v-516l-420 252z" />
</svg>
