<?xml version="1.0" standalone="no"?>
<!DOCTYPE svg PUBLIC "-//W3C//DTD SVG 1.1//EN" "http://www.w3.org/Graphics/SVG/1.1/DTD/svg11.dtd" >
<svg xmlns="http://www.w3.org/2000/svg" xmlns:xlink="http://www.w3.org/1999/xlink" version="1.1" viewBox="-10 0 1724 2048">
   <path fill="currentColor"
d="M1532 900q-16 -56 -62 -94t-106 -38h-216q44 -76 44 -172q0 -140 -100 -240t-240 -100t-240 100t-100 240q0 96 44 172h-216q-60 0 -106 38t-62 94l-152 612q-20 96 -20 108q0 72 50 122t118 50h1368q68 0 118 -50t50 -122q0 -12 -20 -108zM852 428q72 0 122 50t50 120
t-50 120t-122 50t-122 -50t-50 -120t50 -120t122 -50zM1108 1108h-340v344h168v-256h172v424h-340q-72 0 -122 -50t-50 -118v-344q0 -68 50 -118t122 -50h340v168z" />
</svg>
