<?xml version="1.0" standalone="no"?>
<!DOCTYPE svg PUBLIC "-//W3C//DTD SVG 1.1//EN" "http://www.w3.org/Graphics/SVG/1.1/DTD/svg11.dtd" >
<svg xmlns="http://www.w3.org/2000/svg" xmlns:xlink="http://www.w3.org/1999/xlink" version="1.1" viewBox="-10 0 1724 2048">
   <path fill="currentColor"
d="M1364 940h-272q-28 -76 -94 -124t-146 -48t-146 48t-94 124h-272q-52 0 -96 -24q-76 -44 -76 -148v-84q0 -100 72 -144q44 -28 100 -28h868q28 76 94 124t146 48q108 0 182 -76t74 -182t-74 -180t-182 -74q-80 0 -146 46t-94 122h-868q-76 0 -148 36q-88 36 -136 108
q-56 80 -56 200v84q0 116 56 200q48 72 136 108q72 32 148 32h272q28 76 94 124t146 48t146 -48t94 -124h272q52 0 96 24q76 44 76 148v84q0 100 -72 144q-44 28 -100 28h-868q-28 -76 -94 -124t-146 -48q-108 0 -182 76t-74 182t74 180t182 74q80 0 146 -46t94 -122h868
q76 0 148 -36q84 -36 136 -108q56 -84 56 -200v-84q0 -116 -56 -200q-52 -72 -136 -108q-72 -32 -148 -32zM1448 340q36 0 62 26t26 62t-26 60t-62 24t-60 -24t-24 -60t24 -62t60 -26zM256 1708q-36 0 -62 -26t-26 -62t26 -60t62 -24t60 24t24 60t-24 62t-60 26z" />
</svg>
