<?xml version="1.0" standalone="no"?>
<!DOCTYPE svg PUBLIC "-//W3C//DTD SVG 1.1//EN" "http://www.w3.org/Graphics/SVG/1.1/DTD/svg11.dtd" >
<svg xmlns="http://www.w3.org/2000/svg" xmlns:xlink="http://www.w3.org/1999/xlink" version="1.1" viewBox="-10 0 532 2048">
   <path fill="currentColor"
d="M512 1024q0 -80 -48 -146t-124 -94v-204q76 -24 124 -90t48 -150q0 -104 -74 -180t-182 -76t-182 76t-74 180q0 84 48 150t124 90v204q-76 28 -124 94t-48 146t48 146t124 94v204q-76 24 -124 90t-48 150q0 104 74 180t182 76t182 -76t74 -180q0 -84 -48 -150t-124 -90
v-204q76 -28 124 -94t48 -146zM256 256q36 0 60 24t24 60t-24 62t-60 26t-60 -26t-24 -62t24 -60t60 -24zM256 1792q-36 0 -60 -24t-24 -60t24 -62t60 -26t60 26t24 62t-24 60t-60 24z" />
</svg>
