<?xml version="1.0" standalone="no"?>
<!DOCTYPE svg PUBLIC "-//W3C//DTD SVG 1.1//EN" "http://www.w3.org/Graphics/SVG/1.1/DTD/svg11.dtd" >
<svg xmlns="http://www.w3.org/2000/svg" xmlns:xlink="http://www.w3.org/1999/xlink" version="1.1" viewBox="-10 0 1775 2048">
   <path fill="currentColor"
d="M1426 146q90 0 165.5 44t119.5 120t44 166v1096q0 90 -44 166t-119.5 120t-165.5 44h-828q97 -138 123 -240q11 -40 61 -240q24 46 84 78t128 32q137 0 244.5 -77.5t166 -213t58.5 -305.5q0 -96 -40 -186t-110.5 -159t-174.5 -111t-225 -42q-120 0 -223 33t-174.5 87.5
t-122.5 125t-75.5 146.5t-24.5 152q0 116 45 205.5t133 126.5q14 6 26.5 0t16.5 -22q9 -44 17 -70q5 -17 2.5 -26t-14.5 -22q-57 -71 -57 -172q0 -82 30 -157t84 -132t135.5 -91t177.5 -34q170 0 265.5 92.5t95.5 239.5q0 126 -34 230.5t-97.5 168t-143.5 63.5
q-69 0 -111 -50t-26 -118q9 -40 30 -106t33.5 -116.5t12.5 -85.5q0 -56 -29.5 -93t-86.5 -37q-70 0 -118.5 64.5t-48.5 159.5q0 83 27 138l-112 474q-27 115 -8 290h-209q-90 0 -165.5 -44t-119.5 -120t-44 -166v-1096q0 -90 44 -166t119.5 -120t165.5 -44h1097z" />
</svg>
