<?xml version="1.0" standalone="no"?>
<!DOCTYPE svg PUBLIC "-//W3C//DTD SVG 1.1//EN" "http://www.w3.org/Graphics/SVG/1.1/DTD/svg11.dtd" >
<svg xmlns="http://www.w3.org/2000/svg" xmlns:xlink="http://www.w3.org/1999/xlink" version="1.1" viewBox="-10 0 1556 2048">
   <path fill="currentColor"
d="M768 84l-768 344v512q0 232 100 448t276 368t392 208q216 -56 392 -208t276 -368t100 -448v-512zM964 1200l-172 172q-80 80 -188 80t-186 -78t-78 -186t80 -188l104 -104v48q0 60 20 112l4 12l-32 32q-40 36 -40 88t38 88t90 36t88 -36l172 -172q40 -36 40 -88t-36 -88
q-24 -24 -24 -50t20 -46t50 -20t50 20q76 76 76 184t-76 184zM1204 960l-108 108v-48q0 -60 -16 -112l-4 -12l28 -32q40 -36 40 -88t-36 -90t-90 -38t-90 40l-172 168q-36 40 -36 92t36 88q20 20 20 48t-20 48t-48 20t-48 -20q-80 -76 -80 -186t80 -186l172 -172
q76 -76 186 -76t186 78t76 186t-76 184z" />
</svg>
