<?xml version="1.0" standalone="no"?>
<!DOCTYPE svg PUBLIC "-//W3C//DTD SVG 1.1//EN" "http://www.w3.org/Graphics/SVG/1.1/DTD/svg11.dtd" >
<svg xmlns="http://www.w3.org/2000/svg" xmlns:xlink="http://www.w3.org/1999/xlink" version="1.1" viewBox="-10 0 1556 2048">
   <path fill="currentColor"
d="M1536 940q0 232 -100 448t-276 368t-392 208q-216 -56 -392 -208t-276 -368t-100 -448v-512l768 -344l768 344v512zM768 1792q156 -44 294 -172t220 -304t82 -360v-420l-596 -264l-596 264v420q0 184 82 360t220 304t294 172zM964 832q76 76 76 184t-76 184l-172 172
q-80 80 -188 80t-186 -78t-78 -186t80 -188l104 -104v48q0 60 20 112l4 12l-32 32q-40 36 -40 88t38 88t90 36t88 -36l172 -172q40 -36 40 -88t-40 -88q-20 -24 -20 -50t20 -46t50 -20t50 20zM1280 776q0 108 -76 184l-108 108v-48q0 -60 -16 -112l-4 -12l28 -32
q40 -36 40 -88t-36 -90t-90 -38t-90 36l-172 172q-36 36 -36 90t36 90q20 20 20 48t-20 48t-48 20t-48 -20q-80 -76 -80 -186t80 -186l172 -172q76 -76 186 -76t186 78t76 186z" />
</svg>
