<?xml version="1.0" standalone="no"?>
<!DOCTYPE svg PUBLIC "-//W3C//DTD SVG 1.1//EN" "http://www.w3.org/Graphics/SVG/1.1/DTD/svg11.dtd" >
<svg xmlns="http://www.w3.org/2000/svg" xmlns:xlink="http://www.w3.org/1999/xlink" version="1.1" viewBox="-10 0 1724 2048">
   <path fill="currentColor"
d="M1448 1564v144q0 68 -50 118t-118 50h-856q-68 0 -118 -50t-50 -118v-316q-68 -28 -172 -28q-36 0 -60 -24t-24 -60t24 -60t60 -24q96 0 172 16v-164q-68 -24 -172 -24q-36 0 -60 -24t-24 -60t24 -62t60 -26q96 0 172 20v-164q-68 -24 -172 -24q-36 0 -60 -26t-24 -62
t24 -60t60 -24q96 0 172 16v-188q0 -68 50 -118t118 -50h856q68 0 118 50t50 118v184q160 28 232 100q24 24 24 60t-24 60t-56 24t-64 -24l-32 -16q-40 -20 -92 -28q-72 -16 -156 -16q-72 0 -140 20q-44 16 -120 56h-8q-88 48 -144 64q-88 28 -188 28q-56 0 -84 -4v-168
q24 4 84 4q72 0 140 -24q44 -16 120 -52q92 -48 148 -64q92 -32 192 -32v-172h-856v1368h856v-172q80 0 132 12q28 8 36 16zM1280 852q-100 0 -192 32q-56 20 -148 64q-76 40 -120 52q-68 24 -140 24q-60 0 -84 -4v172q28 4 84 4q100 0 188 -32q56 -16 144 -60l8 -4
q80 -40 120 -52q68 -24 140 -24q84 0 156 16q52 12 92 28l32 16q32 24 64 24t56 -24t24 -60t-24 -60q-32 -36 -104 -64q-120 -48 -296 -48zM1280 1196q-100 0 -192 28q-56 20 -148 64q-76 40 -120 56q-68 20 -140 20q-60 0 -84 -4v172q28 4 84 4q100 0 188 -28
q56 -20 144 -64l8 -4q80 -40 120 -52q68 -24 140 -24q120 0 212 32q44 16 68 28q32 28 64 28t56 -26t24 -60t-24 -62q-32 -32 -104 -60q-120 -48 -296 -48z" />
</svg>
