<?xml version="1.0" standalone="no"?>
<!DOCTYPE svg PUBLIC "-//W3C//DTD SVG 1.1//EN" "http://www.w3.org/Graphics/SVG/1.1/DTD/svg11.dtd" >
<svg xmlns="http://www.w3.org/2000/svg" xmlns:xlink="http://www.w3.org/1999/xlink" version="1.1" viewBox="-10 0 1556 2048">
   <path fill="currentColor"
d="M684 684q140 0 240 100t100 242t-100 242t-242 100t-242 -100t-100 -242t100 -242t244 -100zM684 856q-72 0 -122 50t-50 120t50 120t120 50t120 -50t50 -120t-50 -120t-118 -50zM340 256h600q140 0 240 100t100 244v84h-172v-84q0 -72 -50 -122t-118 -50h-600
q-68 0 -118 50t-50 122v1024h936v-172h172v340h-1280v-1192q0 -144 100 -244t240 -100zM1108 856q72 0 128 -28q32 -16 86 -58t86 -58q56 -28 128 -28v172q-72 0 -128 24q-32 16 -86 60t-86 60q-56 24 -128 24v-168zM1108 1196q72 0 128 -28q32 -16 86 -58t86 -58
q56 -28 128 -28v172q-72 0 -128 28q-32 16 -86 58t-86 58q-56 28 -128 28v-172z" />
</svg>
