<?xml version="1.0" standalone="no"?>
<!DOCTYPE svg PUBLIC "-//W3C//DTD SVG 1.1//EN" "http://www.w3.org/Graphics/SVG/1.1/DTD/svg11.dtd" >
<svg xmlns="http://www.w3.org/2000/svg" xmlns:xlink="http://www.w3.org/1999/xlink" version="1.1" viewBox="-10 0 1775 2048">
   <path fill="currentColor"
d="M1048 1034q0 -21 -7 -72h-414v150h248q-3 22 -12.5 45t-29 49t-46.5 46.5t-68.5 34t-91.5 13.5q-113 0 -193 -80.5t-80 -195t80 -195.5t193 -81q106 0 175 66l119 -114q-124 -114 -294 -114q-119 0 -220 58.5t-159.5 159.5t-58.5 220.5t58.5 220t159.5 159t220 58.5
q125 0 221 -54.5t148 -151.5t52 -222zM1442 1086h125v-124h-125v-126h-125v126h-126v124h126v126h125v-126zM1755 476v1096q0 90 -44 166t-119.5 120t-165.5 44h-1097q-90 0 -165.5 -44t-119.5 -120t-44 -166v-1096q0 -90 44 -166t119.5 -120t165.5 -44h1097q90 0 165.5 44
t119.5 120t44 166z" />
</svg>
