<?xml version="1.0" standalone="no"?>
<!DOCTYPE svg PUBLIC "-//W3C//DTD SVG 1.1//EN" "http://www.w3.org/Graphics/SVG/1.1/DTD/svg11.dtd" >
<svg xmlns="http://www.w3.org/2000/svg" xmlns:xlink="http://www.w3.org/1999/xlink" version="1.1" viewBox="-10 0 1556 2048">
   <path fill="currentColor"
d="M172 256h1192q72 0 122 50t50 122v1192q0 72 -50 122t-122 50h-1192q-72 0 -122 -50t-50 -122v-1192q0 -72 50 -122t122 -50zM340 596v172h172v-172h-172zM684 596v172h168v-172h-168zM1024 596v172h172v-172h-172zM340 940v168h172v-168h-172zM684 940v168h168v-168
h-168zM1024 940v168h172v-168h-172zM340 1280v172h172v-172h-172zM684 1280v172h168v-172h-168zM1024 1280v172h172v-172h-172z" />
</svg>
