<?xml version="1.0" standalone="no"?>
<!DOCTYPE svg PUBLIC "-//W3C//DTD SVG 1.1//EN" "http://www.w3.org/Graphics/SVG/1.1/DTD/svg11.dtd" >
<svg xmlns="http://www.w3.org/2000/svg" xmlns:xlink="http://www.w3.org/1999/xlink" version="1.1" viewBox="-10 0 1724 2048">
   <path fill="currentColor"
d="M512 768v128h192v384h128v-384h192v-128h-512zM340 768h-256q-36 0 -60 24t-24 60v428h128v-128h168v128h128v-428q0 -36 -24 -60t-60 -24zM296 1024h-168v-128h168v128zM1620 768h-384q-36 0 -60 24t-24 60v428h128v-384h84v300h128v-300h84v384h128v-428q0 -36 -24 -60
t-60 -24z" />
</svg>
