<?xml version="1.0" standalone="no"?>
<!DOCTYPE svg PUBLIC "-//W3C//DTD SVG 1.1//EN" "http://www.w3.org/Graphics/SVG/1.1/DTD/svg11.dtd" >
<svg xmlns="http://www.w3.org/2000/svg" xmlns:xlink="http://www.w3.org/1999/xlink" version="1.1" viewBox="-10 0 1724 2048">
   <path fill="currentColor"
d="M1280 1364h-856v-84l88 -84v-224q0 -140 66 -244t190 -132v-40q0 -36 24 -62t60 -26t60 26t24 62v40q124 28 190 132t66 244v224l88 84v84zM980 1452q0 52 -38 90t-90 38t-90 -38t-38 -90h256zM852 172q168 0 326 64t278 184t184 278t64 326t-64 326t-184 278t-278 184
t-326 64t-326 -64t-278 -184t-184 -278t-64 -326t64 -326t184 -278t278 -184t326 -64zM852 340q-184 0 -342 92t-250 250t-92 342t92 342t250 250t342 92t342 -92t250 -250t92 -342t-92 -342t-250 -250t-342 -92z" />
</svg>
