<?xml version="1.0" standalone="no"?>
<!DOCTYPE svg PUBLIC "-//W3C//DTD SVG 1.1//EN" "http://www.w3.org/Graphics/SVG/1.1/DTD/svg11.dtd" >
<svg xmlns="http://www.w3.org/2000/svg" xmlns:xlink="http://www.w3.org/1999/xlink" version="1.1" viewBox="-10 0 1724 2048">
   <path fill="currentColor"
d="M1536 424h-272l-156 -168h-512l-156 168h-272q-68 0 -118 50t-50 122v1024q0 72 50 122t118 50h1368q68 0 118 -50t50 -122v-1024q0 -72 -50 -122t-118 -50zM1536 1620h-1368v-1024h348l156 -172h360l156 172h348v1024zM852 680q-116 0 -214 58t-156 156t-58 214t58 214
t156 156t214 58t214 -58t156 -156t58 -214t-58 -214t-156 -156t-214 -58zM852 1364q-108 0 -182 -74t-74 -182t74 -182t182 -74t182 74t74 182t-74 182t-182 74z" />
</svg>
