<?xml version="1.0" standalone="no"?>
<!DOCTYPE svg PUBLIC "-//W3C//DTD SVG 1.1//EN" "http://www.w3.org/Graphics/SVG/1.1/DTD/svg11.dtd" >
<svg xmlns="http://www.w3.org/2000/svg" xmlns:xlink="http://www.w3.org/1999/xlink" version="1.1" viewBox="-10 0 1740 2048">
   <path fill="currentColor"
d="M1120 752l-180 -180l-180 180l-124 -120l184 -180l-180 -184l120 -120l180 184l180 -184l124 120l-184 184l180 180zM512 1560q72 0 122 50t50 120t-50 120t-120 50t-120 -50t-50 -120t50 -120t118 -50zM1368 1560q68 0 118 50t50 120t-50 120t-120 50t-120 -50t-50 -120
t50 -120t122 -50zM528 1284q0 8 6 14t14 6h988v172h-1024q-68 0 -118 -50t-50 -122q0 -44 20 -80l116 -212l-308 -648h-172v-168h280l364 768h600l328 -600l148 84l-328 596q-20 40 -60 64t-88 24h-636l-76 140z" />
</svg>
