<?xml version="1.0" standalone="no"?>
<!DOCTYPE svg PUBLIC "-//W3C//DTD SVG 1.1//EN" "http://www.w3.org/Graphics/SVG/1.1/DTD/svg11.dtd" >
<svg xmlns="http://www.w3.org/2000/svg" xmlns:xlink="http://www.w3.org/1999/xlink" version="1.1" viewBox="-10 0 1561 2048">
   <path fill="currentColor"
d="M1180 1961q-56 -24 -68 -88q0 -16 6 -34t30 -62q196 -352 188 -756q8 -388 -180 -732q-32 -64 -48 -112q8 -52 48 -80q28 -12 60 -10t60 18q40 52 60 100q140 268 188 560q28 232 8 468q-40 300 -176 572q-44 84 -70 120t-50 36h-56zM808 1773q-36 -12 -56 -44t-12 -72
q0 -4 28 -64l20 -40q156 -296 128 -628q-20 -236 -132 -448q-40 -80 -46 -108t20 -60t68 -36t78 24q92 132 144 292q84 244 72 498t-120 490q-52 120 -96 164t-96 24v8zM424 1581q-48 -20 -60 -72q0 -40 36 -108q96 -172 96 -370t-96 -370q-40 -80 -42 -110t28 -62t70 -28
t68 30t64 94q112 204 114 438t-114 442q-32 64 -56 88t-56 28t-52 -4v4zM64 1401q-44 -24 -60 -68q-8 -24 0 -46t36 -66q64 -88 56 -200q12 -112 -56 -204q-16 -24 -36 -68q-8 -40 16 -74t68 -42q36 -4 64 12t60 64q92 144 92 312t-92 308q-64 96 -144 72h-4z" />
</svg>
