<?xml version="1.0" standalone="no"?>
<!DOCTYPE svg PUBLIC "-//W3C//DTD SVG 1.1//EN" "http://www.w3.org/Graphics/SVG/1.1/DTD/svg11.dtd" >
<svg xmlns="http://www.w3.org/2000/svg" xmlns:xlink="http://www.w3.org/1999/xlink" version="1.1" viewBox="-10 0 1388 2048">
   <path fill="currentColor"
d="M1196 898h-1024q-72 0 -122 49.5t-50 118.5v684q0 72 50 121.5t122 50.5h1024q72 0 122 -50t50 -122v-684q0 -68 -50 -118t-122 -50zM1196 1750h-1024v-340h1024v340zM1196 1238h-1024v-172h1024v172zM80 378l120 120q132 -132 308 -178q88 -24 176 -24t176 24
q176 46 308 178l120 -120q-164 -164 -384 -222.5t-440 0t-384 222.5zM324 618l120 120q100 -101 240 -100.5t240 100.5l120 -120q-96 -96 -228 -130.5t-264 0t-228 130.5z" />
</svg>
