<?xml version="1.0" standalone="no"?>
<!DOCTYPE svg PUBLIC "-//W3C//DTD SVG 1.1//EN" "http://www.w3.org/Graphics/SVG/1.1/DTD/svg11.dtd" >
<svg xmlns="http://www.w3.org/2000/svg" xmlns:xlink="http://www.w3.org/1999/xlink" version="1.1" viewBox="-10 0 1724 2048">
   <path fill="currentColor"
d="M680 1474q0 116 -84 248q-48 64 -108 128h-4q-24 28 -58 28t-70 -36q-20 -24 -18 -60t26 -60q44 -36 92 -100q56 -84 56 -148q0 -28 -20 -68q-8 -20 -36 -72l-12 -20q-104 -136 -104 -258t56 -210q36 -52 72 -72q28 -12 64 -4t48 32q20 32 12 66t-40 54l-8 12
q-16 16 -24 44q-8 32 -8 76t20 88q12 28 48 76q100 140 100 256zM852 1058q0 -48 12 -80q8 -28 20 -44l12 -12q32 -20 38 -54t-14 -66t-54 -38t-68 12t-66 70q-60 88 -60 210t104 258l12 20q28 52 40 72q16 40 16 68q0 64 -56 148q-44 64 -88 100q-28 24 -28 60t22 62t54 26
q48 12 80 -20q64 -64 108 -128q88 -132 88 -248t-104 -256l-12 -20q-28 -48 -40 -72q-16 -40 -16 -68zM1536 170h-1368q-68 0 -118 50t-50 122v936q0 72 50 122t118 50h88v-172h-88v-936h1368v936h-88v172h88q68 0 118 -50t50 -122v-936q0 -72 -50 -122t-118 -50zM1212 1066
q0 -64 20 -108q12 -20 20 -28q28 -20 36 -54t-10 -64t-54 -38t-68 10t-68 70q-56 88 -56 212q0 64 28 132q20 40 64 108l24 40q28 48 36 72q16 36 16 68q0 60 -56 144q-44 68 -88 100q-24 28 -28 62t20 60t60 26q12 0 52 -12l24 -8h4q60 -60 104 -128q88 -132 88 -244
q0 -64 -28 -132q-20 -40 -64 -108l-24 -40q-28 -48 -36 -72q-16 -40 -16 -68z" />
</svg>
