<?xml version="1.0" standalone="no"?>
<!DOCTYPE svg PUBLIC "-//W3C//DTD SVG 1.1//EN" "http://www.w3.org/Graphics/SVG/1.1/DTD/svg11.dtd" >
<svg xmlns="http://www.w3.org/2000/svg" xmlns:xlink="http://www.w3.org/1999/xlink" version="1.1" viewBox="-10 0 1900 2048">
   <path fill="currentColor"
d="M1196 1878q-36 0 -60 -26t-20 -60t28 -62q44 -32 88 -100q56 -84 56 -144q0 -32 -16 -68q-8 -24 -36 -72l-24 -40q-44 -68 -64 -108q-28 -68 -28 -132q0 -124 56 -212q36 -52 68 -70t68 -10t54 38t10 64t-36 54l-8 12q-16 16 -24 44q-8 36 -8 80q0 28 16 68q8 24 36 72
l24 40q44 68 64 108q28 68 28 132q0 112 -88 244q-44 68 -104 128h-4l-24 8q-40 12 -52 12zM916 1850q64 -64 108 -128q88 -132 88 -248t-104 -256l-12 -20q-28 -48 -40 -72q-16 -40 -16 -68q0 -48 12 -80q8 -28 20 -44l12 -12q32 -20 38 -54t-14 -66t-54 -38t-68 12t-66 70
q-60 88 -60 210t104 258l12 20q28 52 40 72q16 40 16 68q0 64 -56 148q-44 64 -88 100q-28 24 -28 60t22 62t54 26q48 12 80 -20zM572 1850h4q60 -64 108 -128q84 -132 84 -248t-100 -256q-36 -48 -48 -76q-20 -44 -20 -88t8 -76q8 -28 24 -44l8 -12q32 -20 40 -54t-12 -66
q-12 -24 -48 -32t-64 4q-36 20 -72 72q-56 88 -56 210t104 258l12 20q28 52 36 72q20 40 20 68q0 64 -56 148q-48 64 -92 100q-24 24 -26 60t18 60q36 36 70 36t58 -28zM940 170q-176 0 -340 20q-256 28 -404 92q-196 88 -196 226t60 466q44 256 96 476h188v-172h-52
q-120 -576 -120 -768q0 -40 110 -80t288 -64t370 -24t370 24t288 64t110 80q0 192 -120 768h-52v172h188q52 -220 96 -476q60 -328 60 -466t-196 -226q-148 -64 -404 -92q-164 -20 -340 -20z" />
</svg>
