<?xml version="1.0" standalone="no"?>
<!DOCTYPE svg PUBLIC "-//W3C//DTD SVG 1.1//EN" "http://www.w3.org/Graphics/SVG/1.1/DTD/svg11.dtd" >
<svg xmlns="http://www.w3.org/2000/svg" xmlns:xlink="http://www.w3.org/1999/xlink" version="1.1" viewBox="-10 0 1724 2048">
   <path fill="currentColor"
d="M640 940h84q20 0 32 -12t12 -32v-128h680v128q0 20 12 32t32 12h84q20 0 32 -12t12 -32v-384l-120 -368q-4 -24 -28 -42t-48 -18h-624q-24 0 -46 18t-30 42l-128 368v384q0 20 12 32t32 12zM792 172h624l76 256h-776zM852 1964h-172q0 -44 -84 -92q-52 -28 -180 -80
l-36 -12q-184 -72 -256 -120q-124 -88 -124 -210t108 -198q64 -40 224 -92l24 -8q120 -28 176 -56q64 -32 64 -72h172q0 124 -108 196q-64 44 -228 96l-24 8q-120 28 -172 52q-68 32 -68 74t88 90q52 28 180 80l36 16q184 68 256 120q124 84 124 208zM1704 1964h-168
q0 -44 -88 -92q-52 -28 -180 -80l-36 -12q-184 -72 -256 -120q-124 -88 -124 -210t108 -198q64 -40 228 -92l60 -20q108 -32 144 -52q56 -28 56 -64h172q0 124 -108 196q-64 44 -228 96l-24 8q-116 28 -168 52q-68 32 -68 74t84 90q52 28 180 80l36 16q184 68 256 120
q124 84 124 208z" />
</svg>
