<?xml version="1.0" standalone="no"?>
<!DOCTYPE svg PUBLIC "-//W3C//DTD SVG 1.1//EN" "http://www.w3.org/Graphics/SVG/1.1/DTD/svg11.dtd" >
<svg xmlns="http://www.w3.org/2000/svg" xmlns:xlink="http://www.w3.org/1999/xlink" version="1.1" viewBox="-10 0 1724 2048">
   <path fill="currentColor"
d="M844 884l-116 60q-16 -40 -44 -56t-48 -16q-116 0 -116 152q0 68 28 110t88 42q72 0 104 -76l104 56q-32 60 -92 96t-132 36q-116 0 -186 -70t-70 -192t72 -194t180 -72q160 0 228 124zM1336 884l-112 60q-20 -36 -46 -54t-54 -18q-112 0 -112 152q0 64 30 108t82 44
q76 0 108 -76l108 56q-36 60 -96 96t-132 36q-116 0 -184 -70t-68 -192t70 -194t178 -72q160 0 228 124zM852 300q144 0 278 54t236 156t156 236t54 278t-54 278t-156 236t-236 156t-278 54t-278 -54t-236 -156t-156 -236t-54 -278t54 -278t156 -236t236 -156t278 -54z
M852 172q-168 0 -326 64t-278 184t-184 278t-64 326t64 326t184 278t278 184t326 64t326 -64t278 -184t184 -278t64 -326t-64 -326t-184 -278t-278 -184t-326 -64z" />
</svg>
