<?xml version="1.0" standalone="no"?>
<!DOCTYPE svg PUBLIC "-//W3C//DTD SVG 1.1//EN" "http://www.w3.org/Graphics/SVG/1.1/DTD/svg11.dtd" >
<svg xmlns="http://www.w3.org/2000/svg" xmlns:xlink="http://www.w3.org/1999/xlink" version="1.1" viewBox="-10 0 1916 2048">
   <path fill="currentColor"
d="M1016 1544h340l-168 -168h-172v168zM844 1204v-172h-168v172h168zM844 1544v-168h-168v168h168zM504 864v-172h-172v172h172zM504 1204v-172h-172v172h172zM504 1544v-168h-172v168h172zM104 76l1792 1784l-112 112l-256 -256h-1364v-1364l-164 -164zM1356 864h172v168
h-172v-168zM676 352v76l-248 -248h588v340h852v1104l-168 -172v-760h-684v76l-248 -248h76v-168h-168z" />
</svg>
