<?xml version="1.0" standalone="no"?>
<!DOCTYPE svg PUBLIC "-//W3C//DTD SVG 1.1//EN" "http://www.w3.org/Graphics/SVG/1.1/DTD/svg11.dtd" >
<svg xmlns="http://www.w3.org/2000/svg" xmlns:xlink="http://www.w3.org/1999/xlink" version="1.1" viewBox="-10 0 2214 2048">
   <path fill="currentColor"
d="M878 1316h439v-110h-147v-512h-130l-169 158l88 90q5 -4 18 -15t17.5 -15.5t13 -14t14.5 -19.5h2v328h-146v110zM1463 1024.5q0 63.5 -14.5 129t-45.5 128t-73.5 111t-103 78t-129.5 29.5t-129.5 -29.5t-103 -78t-73.5 -111t-45.5 -128t-14.5 -129t14.5 -129.5t45.5 -128
t73.5 -110.5t103 -78.5t129.5 -30t129.5 30t103 78.5t73.5 110.5t45.5 128t14.5 129.5zM2048 1316v-584q-121 0 -207 -86.5t-86 -207.5h-1316q0 121 -86 207.5t-207 86.5v584q121 0 207 86.5t86 207.5h1316q0 -121 86 -207.5t207 -86.5zM2194 366v1316q0 30 -21.5 52
t-51.5 22h-2048q-30 0 -51.5 -22t-21.5 -52v-1316q0 -30 21.5 -52t51.5 -22h2048q30 0 51.5 22t21.5 52z" />
</svg>
