<?xml version="1.0" standalone="no"?>
<!DOCTYPE svg PUBLIC "-//W3C//DTD SVG 1.1//EN" "http://www.w3.org/Graphics/SVG/1.1/DTD/svg11.dtd" >
<svg xmlns="http://www.w3.org/2000/svg" xmlns:xlink="http://www.w3.org/1999/xlink" version="1.1" viewBox="-10 0 1728 2048">
   <path fill="currentColor"
d="M1056 1516l120 -120l364 360l-124 120zM1412 172q124 0 210 86t86 210t-86 212t-210 88t-212 -88t-88 -212t88 -210t212 -86zM24 608l240 -244q24 -24 60 -24t64 24l720 724q28 28 28 62t-28 62l-240 240q-24 24 -60 24t-60 -24l-724 -724q-24 -24 -24 -60t24 -60z" />
</svg>
