<?xml version="1.0" standalone="no"?>
<!DOCTYPE svg PUBLIC "-//W3C//DTD SVG 1.1//EN" "http://www.w3.org/Graphics/SVG/1.1/DTD/svg11.dtd" >
<svg xmlns="http://www.w3.org/2000/svg" xmlns:xlink="http://www.w3.org/1999/xlink" version="1.1" viewBox="-10 0 1896 2048">
   <path fill="currentColor"
d="M1876 468q0 -124 -86 -210t-210 -86t-212 86t-88 210v44q0 108 -74 182t-182 74q-52 0 -104 -32q-32 -20 -96 -76q-84 -72 -136 -100q-84 -48 -176 -48q-140 0 -240 100t-100 240v88h168v-88q0 -68 50 -118t122 -50q52 0 96 28q36 20 100 76q64 68 146 106t170 46
q116 0 214 -58t156 -156t58 -214v-44q0 -52 36 -90t90 -38t92 38t38 90q-20 112 -72 208q-84 164 -100 348q12 180 104 332q52 84 68 180q0 72 -50 122t-122 50t-122 -50t-50 -122q0 -132 -94 -226t-226 -94t-226 94t-94 226v44q0 52 -36 90t-92 38q-104 0 -180 -76
t-76 -180v-172h172v-172h-512v172h172v172q0 116 56 214t154 154t218 56t208 -86t88 -210v-44q0 -60 44 -104t106 -44t106 44t44 104q0 140 100 240t240 100t240 -100t100 -240q0 -60 -28 -132q-16 -40 -60 -132q-40 -80 -56 -124q-24 -68 -24 -124t24 -136q16 -44 60 -140
t60 -144q24 -76 24 -136z" />
</svg>
