<?xml version="1.0" standalone="no"?>
<!DOCTYPE svg PUBLIC "-//W3C//DTD SVG 1.1//EN" "http://www.w3.org/Graphics/SVG/1.1/DTD/svg11.dtd" >
<svg xmlns="http://www.w3.org/2000/svg" xmlns:xlink="http://www.w3.org/1999/xlink" version="1.1" viewBox="-10 0 1388 2048">
   <path fill="currentColor"
d="M512 1024q-68 0 -118 50t-50 120t50 120t120 50t120 -50t50 -120t-50 -120t-122 -50zM172 684q-72 0 -122 50t-50 120t50 120t122 50t122 -50t50 -120t-50 -120t-122 -50zM172 1364q-72 0 -122 50t-50 122t50 122t122 50t122 -50t50 -122t-50 -122t-122 -50zM1196 684
q72 0 122 -50t50 -122t-50 -122t-122 -50t-122 50t-50 122t50 122t122 50zM856 1364q-72 0 -122 50t-50 122t50 122t120 50t120 -50t50 -122t-50 -122t-118 -50zM1196 1024q-72 0 -122 50t-50 120t50 120t122 50t122 -50t50 -120t-50 -120t-122 -50zM856 684q-72 0 -122 50
t-50 120t50 120t120 50t120 -50t50 -120t-50 -120t-118 -50zM512 340q-68 0 -118 50t-50 122t50 122t120 50t120 -50t50 -122t-50 -122t-122 -50z" />
</svg>
