<?xml version="1.0" standalone="no"?>
<!DOCTYPE svg PUBLIC "-//W3C//DTD SVG 1.1//EN" "http://www.w3.org/Graphics/SVG/1.1/DTD/svg11.dtd" >
<svg xmlns="http://www.w3.org/2000/svg" xmlns:xlink="http://www.w3.org/1999/xlink" version="1.1" viewBox="-10 0 1900 2048">
   <path fill="currentColor"
d="M1112 1110v-512h340v172h-172v340h-168zM1452 342h-852q-116 0 -214 58t-156 156t-58 214v768h-172v168h1708q72 0 122 -50t50 -118v-768q0 -116 -58 -214t-156 -156t-214 -58zM856 1538h-512v-768q0 -108 74 -182t180 -74t182 74t76 182v768zM1708 1538h-684v-768
q0 -144 -84 -256h512q108 0 182 74t74 182v768z" />
</svg>
