<?xml version="1.0" standalone="no"?>
<!DOCTYPE svg PUBLIC "-//W3C//DTD SVG 1.1//EN" "http://www.w3.org/Graphics/SVG/1.1/DTD/svg11.dtd" >
<svg xmlns="http://www.w3.org/2000/svg" xmlns:xlink="http://www.w3.org/1999/xlink" version="1.1" viewBox="-10 0 2060 2048">
   <path fill="currentColor"
d="M948 978q128 128 308 128l8 180q-244 0 -436 -180l-60 -60l-196 204l188 180v512h-172v-444l-108 -100v188l-360 364l-120 -120l308 -304l-104 -300q-20 -68 52 -128l284 -280q44 -60 116 -60q56 0 96 24zM2040 1090h-172v-292l-152 -60l76 376l84 444l80 376h-180
l-156 -684l-176 172v512h-172v-640l180 -172l-52 -256q-92 96 -180 140q-124 -16 -212 -104q196 -36 288 -196l88 -136q36 -64 94 -82t126 14l436 188v400zM964 450q72 0 122 50t50 120t-50 120t-120 50t-120 -50t-50 -120t50 -120t118 -50zM1400 98q72 0 122 50t50 122
t-50 122t-122 50t-122 -50t-50 -122t50 -122t122 -50z" />
</svg>
