<?xml version="1.0" standalone="no"?>
<!DOCTYPE svg PUBLIC "-//W3C//DTD SVG 1.1//EN" "http://www.w3.org/Graphics/SVG/1.1/DTD/svg11.dtd" >
<svg xmlns="http://www.w3.org/2000/svg" xmlns:xlink="http://www.w3.org/1999/xlink" version="1.1" viewBox="-10 0 1900 2048">
   <path fill="currentColor"
d="M600 1216l-280 -276h192q12 -236 72 -432t154 -310t202 -114q128 0 232 152t156 400q248 52 400 156t152 232q0 116 -126 214t-338 154l28 -176q124 -36 194 -86t70 -106q0 -68 -96 -124t-256 -88q12 108 12 212q0 256 -58 472t-156 342t-214 126t-214 -126t-154 -338
l176 28q36 124 86 194t106 70q68 0 128 -104t94 -280t34 -384q0 -128 -12 -244q-116 -12 -244 -12l-160 4l28 -172l132 -4q104 0 212 12q-32 -160 -88 -256t-122 -96t-122 90t-92 246t-44 348h192zM1132 1364l-276 280v-192q-236 -12 -432 -72t-310 -154t-114 -206t126 -210
t338 -154l-28 176q-124 36 -194 86t-70 110t90 116t246 92t348 44v-192z" />
</svg>
