<?xml version="1.0" standalone="no"?>
<!DOCTYPE svg PUBLIC "-//W3C//DTD SVG 1.1//EN" "http://www.w3.org/Graphics/SVG/1.1/DTD/svg11.dtd" >
<svg xmlns="http://www.w3.org/2000/svg" xmlns:xlink="http://www.w3.org/1999/xlink" version="1.1" viewBox="-10 0 1556 2048">
   <path fill="currentColor"
d="M1324 1364q88 0 150 62t62 152t-62 152t-152 62t-152 -62t-62 -152t62 -152t154 -62zM640 84q-236 0 -368 44t-192 136q-56 84 -68 236q-12 96 -12 336q0 136 84 292q76 136 194 250t234 166v420h256v-420q116 -52 234 -166t194 -250q84 -156 84 -292q0 -244 -8 -340
q-16 -152 -72 -232q-60 -96 -192 -138t-368 -42zM1060 360q16 20 24 64q8 28 16 88h-76v-188q12 8 28 24zM1108 836v16h-84v-256h84v240zM940 1196h-256v-256h256v256zM340 1196v-256h256v256h-256zM172 836v-24v-216h84v256h-84v-16zM340 596h256v256h-256v-256zM684 256
q104 0 236 24h20v232h-256v-256zM596 512h-256v-220q104 -36 256 -36v256zM684 852v-256h256v256h-256zM256 324v188h-76q8 -60 16 -88q8 -44 24 -64zM188 940h68v144l-20 -40q-36 -68 -48 -104zM428 1280h168v112l-16 -8q-52 -20 -152 -104zM700 1392h-16v-112h168
q-100 84 -152 112zM1024 1084v-144h68q-16 40 -68 144z" />
</svg>
