<?xml version="1.0" standalone="no"?>
<!DOCTYPE svg PUBLIC "-//W3C//DTD SVG 1.1//EN" "http://www.w3.org/Graphics/SVG/1.1/DTD/svg11.dtd" >
<svg xmlns="http://www.w3.org/2000/svg" xmlns:xlink="http://www.w3.org/1999/xlink" version="1.1" viewBox="-10 0 1719 2048">
   <path fill="currentColor"
d="M3 957q-24 296 172 528q184 224 500 224h856q68 0 118 -52t50 -120v-68q0 -40 -8 -144l-8 -44h-700q-120 0 -214 -94t-94 -214q0 -204 188 -280l412 -180q-224 -160 -512 -172q-272 -24 -512 164q-116 88 -176 198t-72 254zM847 973q0 52 42 94t94 42h668
q-80 -288 -240 -460l-480 196q-84 24 -84 128z" />
</svg>
