<?xml version="1.0" standalone="no"?>
<!DOCTYPE svg PUBLIC "-//W3C//DTD SVG 1.1//EN" "http://www.w3.org/Graphics/SVG/1.1/DTD/svg11.dtd" >
<svg xmlns="http://www.w3.org/2000/svg" xmlns:xlink="http://www.w3.org/1999/xlink" version="1.1" viewBox="-10 0 1556 2048">
   <path fill="currentColor"
d="M0 1620h1368v172h-1368v-172zM1368 684v-256h-172v256h172zM1368 256q68 0 118 52t50 120v256q0 68 -50 118t-118 50h-172v256q0 136 -102 240t-238 104h-512q-136 0 -240 -104t-104 -240v-852h428v204l-152 120q-20 16 -20 36v364q0 20 12 32t32 12h340q20 0 32 -12
t12 -32v-364q0 -20 -16 -36l-156 -120v-204h856z" />
</svg>
