<?xml version="1.0" standalone="no"?>
<!DOCTYPE svg PUBLIC "-//W3C//DTD SVG 1.1//EN" "http://www.w3.org/Graphics/SVG/1.1/DTD/svg11.dtd" >
<svg xmlns="http://www.w3.org/2000/svg" xmlns:xlink="http://www.w3.org/1999/xlink" version="1.1" viewBox="-10 0 1556 2048">
   <path fill="currentColor"
d="M1452 428q-40 0 -64 26t-24 66v844q0 40 24 64t62 28t62 -24t24 -68v-844q0 -40 -24 -66t-60 -26zM1144 172h-1008q-56 0 -96 38t-40 98v1176q0 60 40 98t96 38h120v172q0 40 24 62t60 22h512q40 0 64 -22t24 -62v-172h204q56 0 96 -38t40 -98v-1176q0 -60 -40 -98
t-96 -38zM172 684h256v168h-256v-168zM768 940v168h-256v-168h256zM512 852v-168h256v168h-256zM768 1196v168h-256v-168h256zM172 940h256v168h-256v-168zM172 1364v-168h256v168h-256zM428 1792h-88v-172h88v172zM852 1792h-256v-172h256v172zM1108 1364h-256v-168h256
v168zM1108 1108h-256v-168h256v168zM1108 852h-256v-168h256v168zM1108 512h-936v-172h936v172z" />
</svg>
