<?xml version="1.0" standalone="no"?>
<!DOCTYPE svg PUBLIC "-//W3C//DTD SVG 1.1//EN" "http://www.w3.org/Graphics/SVG/1.1/DTD/svg11.dtd" >
<svg xmlns="http://www.w3.org/2000/svg" xmlns:xlink="http://www.w3.org/1999/xlink" version="1.1" viewBox="-10 0 1556 2048">
   <path fill="currentColor"
d="M768 768q108 0 182 74t74 182t-74 182t-182 74t-182 -74t-74 -182t74 -182t182 -74zM1268 1648q-208 244 -500 316q-328 -80 -548 -374t-220 -650v-512l768 -344l768 344v512q0 304 -164 568l-248 -248q72 -108 72 -236q0 -116 -58 -214t-156 -156t-214 -58t-214 58
t-156 156t-58 214t58 214t156 156t214 58q128 0 236 -72z" />
</svg>
