<?xml version="1.0" standalone="no"?>
<!DOCTYPE svg PUBLIC "-//W3C//DTD SVG 1.1//EN" "http://www.w3.org/Graphics/SVG/1.1/DTD/svg11.dtd" >
<svg xmlns="http://www.w3.org/2000/svg" xmlns:xlink="http://www.w3.org/1999/xlink" version="1.1" viewBox="-10 0 1642 2048">
   <path fill="currentColor"
d="M1171 1384q260 -260 276 -684q-140 308 -396 564t-564 396q420 -12 684 -276zM451 664q-260 260 -276 684q56 -120 176 -296q108 -156 220 -268q256 -256 564 -396q-420 12 -684 276zM1535 300q68 72 84 274t-62 476t-262 458q-164 168 -396 246t-456 78q-272 0 -356 -84
q-68 -72 -84 -274t62 -476t262 -458q164 -168 396 -246t456 -78q272 0 356 84z" />
</svg>
