<?xml version="1.0" standalone="no"?>
<!DOCTYPE svg PUBLIC "-//W3C//DTD SVG 1.1//EN" "http://www.w3.org/Graphics/SVG/1.1/DTD/svg11.dtd" >
<svg xmlns="http://www.w3.org/2000/svg" xmlns:xlink="http://www.w3.org/1999/xlink" version="1.1" viewBox="-10 0 1812 2048">
   <path fill="currentColor"
d="M1684 1962l-360 -356q-108 76 -234 106t-250 14l40 -172q176 12 316 -76l-1196 -1196l112 -112l1680 1684zM932 538q100 0 194 40t166 112q112 116 140 268t-32 296l128 128q112 -192 80 -418t-200 -390q-92 -100 -218 -154t-258 -54v-280l-348 340l348 352v-240z
M472 830l-128 -128q-116 200 -90 432t190 404q112 96 232 144l44 -172q-80 -36 -156 -100q-112 -116 -138 -278t46 -302z" />
</svg>
