<?xml version="1.0" standalone="no"?>
<!DOCTYPE svg PUBLIC "-//W3C//DTD SVG 1.1//EN" "http://www.w3.org/Graphics/SVG/1.1/DTD/svg11.dtd" >
<svg xmlns="http://www.w3.org/2000/svg" xmlns:xlink="http://www.w3.org/1999/xlink" version="1.1" viewBox="-10 0 1212 2048">
   <path fill="currentColor"
d="M1024 256h-256v172h256v1364h-856v-1364h256v-172h-256q-68 0 -118 50t-50 122v1364q0 72 50 122t118 50h856q68 0 118 -50t50 -122v-1364q0 -72 -50 -122t-118 -50zM596 596q72 0 122 50t50 122t-50 122t-122 50t-122 -50t-50 -122t50 -122t122 -50zM936 1280h-680v-84
q0 -76 128 -128q104 -44 212 -44t212 44q128 52 128 128v84zM936 1536h-680v-84h680v84zM596 1708h-340v-88h340v88zM680 428h-168v-344h168v344z" />
</svg>
