<?xml version="1.0" standalone="no"?>
<!DOCTYPE svg PUBLIC "-//W3C//DTD SVG 1.1//EN" "http://www.w3.org/Graphics/SVG/1.1/DTD/svg11.dtd" >
<svg xmlns="http://www.w3.org/2000/svg" xmlns:xlink="http://www.w3.org/1999/xlink" version="1.1" viewBox="-10 0 1556 2048">
   <path fill="currentColor"
d="M1024 256h-256v172h256v1364h-852v-1364h256v-172h-256q-72 0 -122 50t-50 122v1364q0 72 50 122t122 50h852q72 0 122 -50t50 -122v-1364q0 -72 -50 -122t-122 -50zM596 596q72 0 122 50t50 122t-50 122t-120 50t-120 -50t-50 -122t50 -122t118 -50zM940 1280h-684v-84
q0 -76 128 -128q108 -44 214 -44t214 44q128 52 128 128v84zM940 1536h-684v-84h684v84zM596 1708h-340v-88h340v88zM684 428h-172v-344h172v344zM1364 1108v-512h172v512h-172zM1364 1452v-172h172v172h-172z" />
</svg>
