<?xml version="1.0" standalone="no"?>
<!DOCTYPE svg PUBLIC "-//W3C//DTD SVG 1.1//EN" "http://www.w3.org/Graphics/SVG/1.1/DTD/svg11.dtd" >
<svg xmlns="http://www.w3.org/2000/svg" xmlns:xlink="http://www.w3.org/1999/xlink" version="1.1" viewBox="-10 0 1732 2048">
   <path fill="currentColor"
d="M1344 1022l340 -336q24 -28 24 -64t-24 -60l-368 -368q-24 -24 -60 -24t-64 24l-336 340l-340 -340q-28 -24 -62 -24t-58 24l-372 368q-24 24 -24 60t24 64l340 336l-340 340q-24 28 -24 62t24 58l372 372q24 24 58 24t62 -24l340 -340l336 340q28 24 62 24t62 -24
l368 -372q28 -24 28 -58t-28 -62zM856 766q36 0 60 24t24 60t-24 62t-60 26t-60 -26t-24 -62t24 -60t60 -24zM456 934l-312 -308l312 -312l308 308zM684 1106q-36 0 -60 -24t-24 -60t24 -60t60 -24t62 24t26 60t-26 60t-62 24zM856 1278q-36 0 -60 -24t-24 -60t24 -62
t60 -26t60 26t24 62t-24 60t-60 24zM1028 938q36 0 60 24t24 60t-24 60t-60 24t-62 -24t-26 -60t26 -60t62 -24zM1252 1734l-308 -308l308 -312l312 308z" />
</svg>
