<?xml version="1.0" standalone="no"?>
<!DOCTYPE svg PUBLIC "-//W3C//DTD SVG 1.1//EN" "http://www.w3.org/Graphics/SVG/1.1/DTD/svg11.dtd" >
<svg xmlns="http://www.w3.org/2000/svg" xmlns:xlink="http://www.w3.org/1999/xlink" version="1.1" viewBox="-10 0 1724 2048">
   <path fill="currentColor"
d="M936 556q0 -36 12 -76q20 -68 56 -112l-152 -120l-152 128q36 40 56 104q12 40 12 76q-188 12 -348 80q-128 56 -240 148q-76 64 -136 136l-44 64l596 596l20 -32q24 -36 56 -64q44 -40 96 -56v176q-40 20 -64 60t-24 88q0 68 50 118t122 50t122 -50t50 -118
q0 -48 -24 -88t-64 -60v-176q52 16 96 56q32 28 56 64l20 32l596 -596l-44 -64q-60 -72 -136 -136q-112 -88 -240 -144q-160 -68 -348 -84zM768 1248q-112 28 -180 84l-360 -356q220 -220 540 -240v512zM1116 1332q-96 -64 -180 -84v-512q188 16 336 92q116 60 204 148z
M1364 156l-60 160q-44 -20 -108 -20t-112 20l-60 -160q76 -28 170 -28t170 28zM1620 556h-172v-32q-8 -36 -20 -72q-16 -44 -48 -76l128 -112q72 76 100 188q12 56 12 104zM188 264l128 112q-40 44 -52 116q-8 36 -8 64h-172q0 -48 12 -104q28 -112 92 -188zM680 156
l-60 160q-44 -20 -106 -20t-114 20l-60 -160q76 -28 170 -28t170 28z" />
</svg>
