<?xml version="1.0" standalone="no"?>
<!DOCTYPE svg PUBLIC "-//W3C//DTD SVG 1.1//EN" "http://www.w3.org/Graphics/SVG/1.1/DTD/svg11.dtd" >
<svg xmlns="http://www.w3.org/2000/svg" xmlns:xlink="http://www.w3.org/1999/xlink" version="1.1" viewBox="-10 0 1724 2048">
   <path fill="currentColor"
d="M980 1452h-812v-512h880q68 -80 160 -126t200 -46q160 0 296 112v-452q0 -72 -50 -122t-118 -50h-1368q-68 0 -118 50t-50 122v1024q0 72 50 122t118 50h904q-56 -88 -92 -172zM168 428h1368v172h-1368v-172zM1408 940q-124 0 -212 88t-88 212q0 96 76 240
q56 104 144 220l80 92l76 -92q88 -116 144 -220q76 -144 76 -240q0 -124 -88 -212t-208 -88zM1408 1348q-44 0 -74 -30t-30 -72t32 -72t70 -30t70 32t36 70t-28 70t-76 32z" />
</svg>
