<?xml version="1.0" standalone="no"?>
<!DOCTYPE svg PUBLIC "-//W3C//DTD SVG 1.1//EN" "http://www.w3.org/Graphics/SVG/1.1/DTD/svg11.dtd" >
<svg xmlns="http://www.w3.org/2000/svg" xmlns:xlink="http://www.w3.org/1999/xlink" version="1.1" viewBox="-10 0 1724 2048">
   <path fill="currentColor"
d="M1536 768v940h-1368v-1024h348l156 -172h436v-172h-512l-156 172h-272q-68 0 -118 50t-50 122v1024q0 68 50 118t118 50h1368q68 0 118 -50t50 -118v-940h-168zM1592 684h112q0 -140 -68 -258t-186 -186t-258 -68v112q108 0 200 54t146 144t54 202zM1364 684h112
q0 -120 -82 -202t-202 -82v112q72 0 122 50t50 122zM424 1196q0 84 34 162t94 138t138 92t162 32q116 0 214 -56t156 -154t58 -214t-58 -214t-156 -156t-214 -58t-214 58t-156 156t-58 214zM1108 1196q0 104 -74 180t-182 76t-182 -76t-74 -182t74 -180t182 -74t182 74
t74 182z" />
</svg>
