<?xml version="1.0" standalone="no"?>
<!DOCTYPE svg PUBLIC "-//W3C//DTD SVG 1.1//EN" "http://www.w3.org/Graphics/SVG/1.1/DTD/svg11.dtd" >
<svg xmlns="http://www.w3.org/2000/svg" xmlns:xlink="http://www.w3.org/1999/xlink" version="1.1" viewBox="-10 0 1688 2048">
   <path fill="currentColor"
d="M1060 1400l124 -124l180 184l180 -184l124 124l-184 180l184 180l-124 124l-180 -184l-180 184l-124 -124l184 -180zM808 128l812 428v172h-1620v-172zM1192 896h256v180l-84 -8q-88 0 -172 28v-200zM0 1920v-256h860q24 144 124 256h-984zM680 896h256v400
q-60 92 -76 200h-180v-600zM168 896h256v600h-256v-600z" />
</svg>
