<?xml version="1.0" standalone="no"?>
<!DOCTYPE svg PUBLIC "-//W3C//DTD SVG 1.1//EN" "http://www.w3.org/Graphics/SVG/1.1/DTD/svg11.dtd" >
<svg xmlns="http://www.w3.org/2000/svg" xmlns:xlink="http://www.w3.org/1999/xlink" version="1.1" viewBox="-10 0 1044 2048">
   <path fill="currentColor"
d="M684 1322v428h-344v-256h-84q-108 0 -182 -74t-74 -182v-256q0 -36 24 -60t60 -24t62 24t26 60v256q0 36 24 60t60 24h84v-852q0 -72 50 -122t122 -50t122 50t50 122v684h84q36 0 60 -26t24 -62v-168q0 -36 26 -62t62 -26t60 26t24 62v168q0 108 -74 182t-182 74h-84z
" />
</svg>
