<?xml version="1.0" standalone="no"?>
<!DOCTYPE svg PUBLIC "-//W3C//DTD SVG 1.1//EN" "http://www.w3.org/Graphics/SVG/1.1/DTD/svg11.dtd" >
<svg xmlns="http://www.w3.org/2000/svg" xmlns:xlink="http://www.w3.org/1999/xlink" version="1.1" viewBox="-10 0 1556 2048">
   <path fill="currentColor"
d="M684 1238q84 0 150 48t90 124h272q140 0 240 100t100 240v84h-168v-84q0 -72 -50 -122t-122 -50h-272q-24 76 -90 124t-150 48q-108 0 -182 -74t-74 -182t74 -182t182 -74zM684 1410q-36 0 -60 24t-24 60t24 60t60 24t60 -24t24 -60t-24 -60t-60 -24zM1196 214
q72 0 122 50t50 122v424q0 72 -50 122t-122 50h-268q-28 0 -50 14t-30 38q-28 84 -112 112q-64 20 -128 -12t-88 -100q-8 -24 -30 -38t-50 -14h-268q-72 0 -122 -50t-50 -122v-424q0 -72 50 -122t122 -50h1024zM1196 810v-424h-1024v424h396q16 -32 48 -56t68 -28
q36 4 68 28t48 56h396z" />
</svg>
