<?xml version="1.0" standalone="no"?>
<!DOCTYPE svg PUBLIC "-//W3C//DTD SVG 1.1//EN" "http://www.w3.org/Graphics/SVG/1.1/DTD/svg11.dtd" >
<svg xmlns="http://www.w3.org/2000/svg" xmlns:xlink="http://www.w3.org/1999/xlink" version="1.1" viewBox="-10 0 1388 2048">
   <path fill="currentColor"
d="M768 768h472l-472 -468v468zM172 172h684l512 512v1024q0 68 -50 118t-122 50h-1024q-72 0 -122 -50t-50 -118v-1368q0 -68 50 -118t122 -50zM556 940q-160 0 -272 112t-112 272t112 272t272 112t272 -112t112 -272t-112 -272t-272 -112zM556 1068q108 0 182 74t74 182
q0 72 -36 128l-348 -348q56 -36 128 -36zM300 1324q0 -72 36 -128l348 348q-56 36 -128 36q-108 0 -182 -76t-74 -180z" />
</svg>
