<?xml version="1.0" standalone="no"?>
<!DOCTYPE svg PUBLIC "-//W3C//DTD SVG 1.1//EN" "http://www.w3.org/Graphics/SVG/1.1/DTD/svg11.dtd" >
<svg xmlns="http://www.w3.org/2000/svg" xmlns:xlink="http://www.w3.org/1999/xlink" version="1.1" viewBox="-10 0 1388 2048">
   <path fill="currentColor"
d="M856 172l512 512v1024q0 68 -50 118t-122 50h-1024q-72 0 -122 -50t-50 -118v-1368q0 -68 50 -118t122 -50h684zM1196 1708v-940h-428v-428h-596v1368h1024zM640 852q160 0 272 112t112 272t-112 272t-272 112t-272 -112t-112 -272t112 -272t272 -112zM640 980
q-72 0 -128 36l348 348q36 -56 36 -128q0 -104 -74 -180t-182 -76zM384 1236q0 108 76 182t180 74q72 0 128 -36l-348 -348q-36 56 -36 128z" />
</svg>
