<?xml version="1.0" standalone="no"?>
<!DOCTYPE svg PUBLIC "-//W3C//DTD SVG 1.1//EN" "http://www.w3.org/Graphics/SVG/1.1/DTD/svg11.dtd" >
<svg xmlns="http://www.w3.org/2000/svg" xmlns:xlink="http://www.w3.org/1999/xlink" version="1.1" viewBox="-10 0 1724 2048">
   <path fill="currentColor"
d="M1620 470h84v-172h-84v-84h-256v84h-1024v-84h-256v84h-84v172h84v1196h-84v168h424v-168h-84v-1196h428v84h40v312q-32 8 -50 36t-18 60q0 60 52 88v104h52q24 0 40 14t16 36t-16 38t-42 16t-42 -24q-12 -20 -32 -26t-40 4t-26 32t6 42q20 36 58 56t78 20q68 0 112 -46
t44 -114q0 -48 -28 -88t-76 -56v-8q40 -20 52 -60t-8 -76q-16 -28 -44 -44v-316h40v-84h428v1196h-84v168h424v-168h-84v-1196zM256 1262v120l-88 88v-120zM168 1666v-68l88 -84v120l-32 32h-56zM168 582l88 -88v120l-88 88v-120zM168 838l88 -88v120l-88 88v-120zM168 1094
l88 -88v120l-88 88v-128v8zM1536 1262v120l-88 88v-120zM1448 1666v-68l88 -84v120l-32 32h-56zM1448 582l88 -88v120l-88 88v-120zM1448 838l88 -88v120l-88 88v-120zM1448 1094l88 -88v120l-88 88v-128v8z" />
</svg>
