<?xml version="1.0" standalone="no"?>
<!DOCTYPE svg PUBLIC "-//W3C//DTD SVG 1.1//EN" "http://www.w3.org/Graphics/SVG/1.1/DTD/svg11.dtd" >
<svg xmlns="http://www.w3.org/2000/svg" xmlns:xlink="http://www.w3.org/1999/xlink" version="1.1" viewBox="-10 0 1556 2048">
   <path fill="currentColor"
d="M256 256h-256v256q108 0 182 -74t74 -182zM940 256h-172q0 208 -104 384t-280 280t-384 104v172q256 0 472 -128t342 -342t126 -470zM596 256h-168q0 116 -58 214t-156 156t-214 58v168q164 0 300 -80t216 -216t80 -300zM596 1792h172q0 -208 104 -384t280 -280t384 -104
v-172q-256 0 -472 126t-342 342t-126 472zM1280 1792h256v-256q-108 0 -182 74t-74 182zM940 1792h168q0 -116 58 -214t156 -156t214 -58v-168q-164 0 -300 80t-216 216t-80 300z" />
</svg>
