<?xml version="1.0" standalone="no"?>
<!DOCTYPE svg PUBLIC "-//W3C//DTD SVG 1.1//EN" "http://www.w3.org/Graphics/SVG/1.1/DTD/svg11.dtd" >
<svg xmlns="http://www.w3.org/2000/svg" xmlns:xlink="http://www.w3.org/1999/xlink" version="1.1" viewBox="-10 0 1164 2048">
   <path fill="currentColor"
d="M32 488q-32 -8 -32 -104q0 -48 12 -112l4 -4q96 -44 208 -72q212 -48 392 -4q244 64 396 300t128 432q-16 152 -136 276q-68 72 -208 156l-20 16q-88 56 -108 168q-12 60 0 152l4 24q0 32 -28 46t-36 -22q-20 -100 -12 -196q12 -176 124 -252q244 -160 298 -334t-70 -410
q-68 -132 -240 -196q-140 -48 -312 -44q-148 8 -212 40q-56 28 -100 100q-16 24 -26 34t-26 6zM380 1076l-20 -40q4 -56 -14 -84t-40 -18t-34 64t0 138q8 32 -4 42t-30 4t-18 -10q-36 -144 -8 -220t100 -60q44 8 64 40q16 20 20 52v24l36 -36q40 -36 72 -48q44 -20 60 8
q56 80 4 188q-28 56 -88 120l-12 16q-12 12 -20 16t-20 -8t-12 -22t12 -26q108 -160 100 -204q-4 -32 -68 4t-80 60zM140 1308l24 36q28 40 68 72q52 44 108 56q72 16 148 -16q24 -8 36 0t16 16q8 28 -28 40q-116 40 -224 12q-84 -20 -156 -76q-52 -40 -68 -72
q-28 -52 12 -76q20 -16 64 8zM96 1492q12 16 28 28q32 28 76 52q60 32 128 48q84 16 176 0q32 -4 40 32t-26 48t-106 8q-104 -4 -192 -40q-124 -48 -200 -156q-4 -8 8 -20t22 -12t30 6t16 6zM92 1656q64 84 160 124q84 36 168 34t128 -34q12 -8 22 6t2 22q-76 76 -204 68
q-104 -4 -216 -60q-96 -48 -120 -80q-8 -20 -8 -42t12 -34t30 -10t26 6z" />
</svg>
