<?xml version="1.0" standalone="no"?>
<!DOCTYPE svg PUBLIC "-//W3C//DTD SVG 1.1//EN" "http://www.w3.org/Graphics/SVG/1.1/DTD/svg11.dtd" >
<svg xmlns="http://www.w3.org/2000/svg" xmlns:xlink="http://www.w3.org/1999/xlink" version="1.1" viewBox="-10 0 1728 2048">
   <path fill="currentColor"
d="M768 786l344 -344l324 324l-344 344l-116 -120l220 -232l-76 -76l-224 220zM1684 390l-196 -196q-28 -24 -62 -24t-58 24l-156 156l324 324l148 -164q24 -16 24 -54t-24 -66zM1536 1766l-108 112l-556 -556l-376 384h-324v-324l384 -384l-556 -548l112 -108zM752 1202
l-76 -76l-332 332v76h76z" />
</svg>
