<?xml version="1.0" standalone="no"?>
<!DOCTYPE svg PUBLIC "-//W3C//DTD SVG 1.1//EN" "http://www.w3.org/Graphics/SVG/1.1/DTD/svg11.dtd" >
<svg xmlns="http://www.w3.org/2000/svg" xmlns:xlink="http://www.w3.org/1999/xlink" version="1.1" viewBox="-10 0 1724 2048">
   <path fill="currentColor"
d="M1536 1022q-320 -161 -788 -232l-92 -288q-16 -44 -60 -62t-86 0t-58 62l-88 264q-152 24 -258 145.5t-106 282.5q0 115 56 213t154 154t214 57l104 -4q128 -8 260 -28q188 -29 356 -76q216 -60 392 -148l44 -24q48 -32 80 -64q44 -44 44 -82t-44 -82q-32 -33 -80 -64z
M256 1194q-40 0 -64 -24t-24 -62t24 -62t62 -24t62 24t24 60t-24 61.5t-60 26.5zM424 1450q-36 0 -60 -24t-24 -62t24 -62t62 -24t62 24t24 60t-24 61.5t-64 26.5zM596 1194q-40 0 -62 -24t-22 -62t22 -62t62 -24t62 24t22 60t-24 61.5t-60 26.5zM768 1450q-40 0 -64 -24
t-24 -62t24 -62t62 -24t62 24t24 60t-24 61.5t-60 26.5zM1192 1194q-36 0 -60 -24t-24 -62t24 -62t62 -24t62 24t24 60t-24 61.5t-64 26.5zM1448 1278q-36 0 -60 -24t-24 -62t24 -62t62 -24t62 24t24 60t-24 61.5t-64 26.5z" />
</svg>
