<?xml version="1.0" standalone="no"?>
<!DOCTYPE svg PUBLIC "-//W3C//DTD SVG 1.1//EN" "http://www.w3.org/Graphics/SVG/1.1/DTD/svg11.dtd" >
<svg xmlns="http://www.w3.org/2000/svg" xmlns:xlink="http://www.w3.org/1999/xlink" version="1.1" viewBox="-10 0 1771 2048">
   <path fill="currentColor"
d="M1680 638q-8 12 -28 32q-32 36 -32 56t36 64l16 20l16 16q36 36 48 52q16 28 14 54t-30 62q-16 20 -56 64l-352 348l-120 -108l360 -360l-84 -84l-120 120l-324 -328l340 -324q24 -24 58 -24t62 24l196 196q24 28 24 66t-24 54zM168 1510l820 -820l316 324l-812 820h-324
v-324zM512 470v-44q0 -88 -62 -150t-152 -62t-152 62t-62 150v44q-40 0 -62 22t-22 62v340q0 40 22 64t62 24h428q36 0 60 -24t24 -64v-340q0 -40 -24 -62t-60 -22zM424 470h-256v-44q0 -52 40 -90t90 -38t88 38t38 90v44z" />
</svg>
