<?xml version="1.0" standalone="no"?>
<!DOCTYPE svg PUBLIC "-//W3C//DTD SVG 1.1//EN" "http://www.w3.org/Graphics/SVG/1.1/DTD/svg11.dtd" >
<svg xmlns="http://www.w3.org/2000/svg" xmlns:xlink="http://www.w3.org/1999/xlink" version="1.1" viewBox="-10 0 1724 2048">
   <path fill="currentColor"
d="M1704 1748h-1704v-168h1704v168zM356 1348l-120 -120l120 -120l-60 -60l-120 120l-116 -120l-60 60l120 120l-120 120l60 60l116 -120l120 120zM1536 300h-856q-68 0 -118 50t-50 118v768q0 72 50 122t118 50h856q68 0 118 -50t50 -122v-768q0 -68 -50 -118t-118 -50z
M680 1236l224 -280l152 188l204 -284l276 376h-856z" />
</svg>
