<?xml version="1.0" standalone="no"?>
<!DOCTYPE svg PUBLIC "-//W3C//DTD SVG 1.1//EN" "http://www.w3.org/Graphics/SVG/1.1/DTD/svg11.dtd" >
<svg xmlns="http://www.w3.org/2000/svg" xmlns:xlink="http://www.w3.org/1999/xlink" version="1.1" viewBox="-11 0 1392 2048">
   <path fill="currentColor"
d="M577 1000q32 88 20 152q-20 76 -104 104q-152 56 -240 -36q-48 -48 -64 -120l-4 -4zM149 932l368 -92q-8 -56 0 -168q8 -76 8 -116q0 -80 -36 -172q-40 -104 -100 -160q-76 -68 -156 -48q-140 32 -196 172q-44 104 -36 220q8 92 136 340zM1185 1692q-8 32 -28 68
q-32 68 -92 96q-76 40 -188 0q-84 -32 -100 -108q-16 -64 16 -152zM1369 1164q8 -116 -36 -216q-56 -140 -192 -176q-84 -20 -156 44q-64 60 -104 164q-36 92 -36 172q0 40 8 120q12 112 4 164l364 92l8 -16q132 -252 140 -348z" />
</svg>
