<?xml version="1.0" standalone="no"?>
<!DOCTYPE svg PUBLIC "-//W3C//DTD SVG 1.1//EN" "http://www.w3.org/Graphics/SVG/1.1/DTD/svg11.dtd" >
<svg xmlns="http://www.w3.org/2000/svg" xmlns:xlink="http://www.w3.org/1999/xlink" version="1.1" viewBox="-10 0 876 2048">
   <path fill="currentColor"
d="M556 1452v168l-128 256l-128 -256zM640 536l-84 60v-84h-256v256l-84 60v84l424 -280v-96zM640 880l-84 60v-172l-256 172v168l-84 60v88l424 -284v-92zM640 1220l-84 60v-172l-256 172v172l-84 60v84l424 -280v-96zM88 172h-24q-24 8 -40 24q-24 24 -24 60l256 172h344
l256 -172l-4 -24q-8 -24 -24 -40q-20 -20 -60 -20h-680z" />
</svg>
