<?xml version="1.0" standalone="no"?>
<!DOCTYPE svg PUBLIC "-//W3C//DTD SVG 1.1//EN" "http://www.w3.org/Graphics/SVG/1.1/DTD/svg11.dtd" >
<svg xmlns="http://www.w3.org/2000/svg" xmlns:xlink="http://www.w3.org/1999/xlink" version="1.1" viewBox="-10 0 1188 2048">
   <path fill="currentColor"
d="M36 168q244 0 378 134t146 370q28 -164 120 -248q64 -64 156 -76q48 -8 80 -4q8 152 -100 248q-100 92 -256 100q-24 -52 -124 -156q-72 -72 -172 -164l-88 -80l16 20q108 100 176 176q120 136 112 204q-176 -20 -296 -144q-136 -140 -148 -380zM72 1116l332 -332
q72 -72 180 -72t180 72l328 332q76 72 76 178t-76 182l-328 328q-72 76 -180 76t-180 -76l-332 -328q-72 -76 -72 -182t72 -178zM356 1668q0 -92 56 -156q60 -80 176 -80q52 0 160 48q68 28 100 36q56 16 100 12q-96 -4 -164 -68t-68 -168q0 -36 12 -76q8 -24 32 -76t32 -80
q16 -52 16 -96q-4 76 -56 136q-68 72 -172 72q-40 0 -84 -16q-24 -8 -80 -32t-84 -32q-56 -20 -104 -20q68 4 136 52q88 68 88 180q0 48 -12 88q-8 24 -32 74t-36 86q-16 52 -16 116z" />
</svg>
