<?xml version="1.0" standalone="no"?>
<!DOCTYPE svg PUBLIC "-//W3C//DTD SVG 1.1//EN" "http://www.w3.org/Graphics/SVG/1.1/DTD/svg11.dtd" >
<svg xmlns="http://www.w3.org/2000/svg" xmlns:xlink="http://www.w3.org/1999/xlink" version="1.1" viewBox="-10 0 876 2048">
   <path fill="currentColor"
d="M640 624l-84 60v-88h-256v256l-84 60v88l424 -284v-92zM640 964l-84 60v-172l-256 172v172l-84 60v84l424 -280v-96zM640 1304l-84 60v-168l-256 168v172l-84 60v84l424 -280v-96zM0 512h856l-20 -40q-28 -48 -68 -88q-56 -56 -128 -88q-96 -40 -212 -40t-212 40
q-72 32 -128 88q-40 40 -68 88zM556 1536v256h-256v-84z" />
</svg>
