<?xml version="1.0" standalone="no"?>
<!DOCTYPE svg PUBLIC "-//W3C//DTD SVG 1.1//EN" "http://www.w3.org/Graphics/SVG/1.1/DTD/svg11.dtd" >
<svg xmlns="http://www.w3.org/2000/svg" xmlns:xlink="http://www.w3.org/1999/xlink" version="1.1" viewBox="-11 0 1642 2048">
   <path fill="currentColor"
d="M1365 939v-256h-168v256h-256v168h256v256h168v-256h256v-168h-256zM685 1107v-680q0 -108 -76 -182t-182 -74t-180 74t-74 182v680q-96 72 -140 176t-30 216t84 206t174 138t216 30t206 -82t138 -174t30 -218t-82 -204q-36 -52 -84 -88zM429 339q32 0 58 26t26 62v256
h-172v-256q0 -36 26 -62t62 -26z" />
</svg>
