<?xml version="1.0" standalone="no"?>
<!DOCTYPE svg PUBLIC "-//W3C//DTD SVG 1.1//EN" "http://www.w3.org/Graphics/SVG/1.1/DTD/svg11.dtd" >
<svg xmlns="http://www.w3.org/2000/svg" xmlns:xlink="http://www.w3.org/1999/xlink" version="1.1" viewBox="-10 0 1215 2048">
   <path fill="currentColor"
d="M1027 1107v-512h168v512h-168zM1027 1451v-172h168v172h-168zM683 1107v-680q0 -112 -72 -184t-182 -72t-184 72t-74 184v680q-92 72 -136 178t-32 218t84 204t176 136t216 32t206 -84t138 -176t30 -216t-82 -204q-36 -52 -88 -88zM427 339q40 0 64 24t24 64v256h-172
v-256q0 -40 24 -64t60 -24z" />
</svg>
