<?xml version="1.0" standalone="no"?>
<!DOCTYPE svg PUBLIC "-//W3C//DTD SVG 1.1//EN" "http://www.w3.org/Graphics/SVG/1.1/DTD/svg11.dtd" >
<svg xmlns="http://www.w3.org/2000/svg" xmlns:xlink="http://www.w3.org/1999/xlink" version="1.1" viewBox="-10 0 1724 2048">
   <path fill="currentColor"
d="M852 1876q-168 0 -326 -64t-278 -184t-184 -278t-64 -326t64 -326t184 -278t278 -184t326 -64q232 0 428 102t310 278t114 388q0 136 -68 254t-186 188t-258 70h-152q-20 0 -32 12t-12 28q0 4 4 14t4 14q52 64 52 144q8 88 -52 150t-152 62zM852 340q-184 0 -342 92
t-250 250t-92 342t92 342t250 250t342 92q20 0 32 -12t12 -32q0 -8 -8 -24v-12q-52 -64 -52 -136q0 -88 62 -150t150 -62h144q144 0 244 -100t100 -240q0 -164 -92 -302t-250 -218t-342 -80zM384 852q48 0 88 40t40 90t-40 88t-90 38t-88 -38t-38 -88t38 -90t90 -40z
M640 512q48 0 88 38t40 90t-40 90t-90 38t-88 -38t-38 -90t38 -90t90 -38zM1064 512q52 0 90 38t38 90t-38 90t-88 38t-90 -38t-40 -90t40 -90t88 -38zM1320 852q52 0 90 40t38 90t-38 88t-88 38t-90 -38t-40 -88t40 -90t88 -40z" />
</svg>
