<?xml version="1.0" standalone="no"?>
<!DOCTYPE svg PUBLIC "-//W3C//DTD SVG 1.1//EN" "http://www.w3.org/Graphics/SVG/1.1/DTD/svg11.dtd" >
<svg xmlns="http://www.w3.org/2000/svg" xmlns:xlink="http://www.w3.org/1999/xlink" version="1.1" viewBox="-10 0 1556 2048">
   <path fill="currentColor"
d="M512 938v172h-172v-172h172zM852 938v172h-168v-172h168zM1196 938v172h-172v-172h172zM1364 342q72 0 122 50t50 122v1192q0 72 -50 122t-122 50h-1192q-72 0 -122 -50t-50 -122v-1192q0 -72 50 -122t122 -50h84v-172h172v172h680v-172h172v172h84zM1364 1706v-936
h-1192v936h1192zM512 1282v168h-172v-168h172zM852 1282v168h-168v-168h168zM1196 1282v168h-172v-168h172z" />
</svg>
