<?xml version="1.0" standalone="no"?>
<!DOCTYPE svg PUBLIC "-//W3C//DTD SVG 1.1//EN" "http://www.w3.org/Graphics/SVG/1.1/DTD/svg11.dtd" >
<svg xmlns="http://www.w3.org/2000/svg" xmlns:xlink="http://www.w3.org/1999/xlink" version="1.1" viewBox="-10 0 1900 2048">
   <path fill="currentColor"
d="M1708 256h-1536q-72 0 -122 50t-50 122v256h172v-256h1536v1192h-596v172h596q72 0 122 -50t50 -122v-1192q0 -72 -50 -122t-122 -50zM0 1536v256h256q0 -108 -74 -182t-182 -74zM0 1196v168q116 0 214 58t156 156t58 214h172q0 -120 -46 -230t-130 -194t-194 -128
t-230 -44zM0 852v172q208 0 386 104t280 280t102 384h172q0 -256 -126 -472t-342 -342t-472 -126zM856 948v168l296 164l300 -164v-168l-300 160zM1152 512l-468 256l468 256l472 -256z" />
</svg>
