<?xml version="1.0" standalone="no"?>
<!DOCTYPE svg PUBLIC "-//W3C//DTD SVG 1.1//EN" "http://www.w3.org/Graphics/SVG/1.1/DTD/svg11.dtd" >
<svg xmlns="http://www.w3.org/2000/svg" xmlns:xlink="http://www.w3.org/1999/xlink" version="1.1" viewBox="-10 0 1556 2048">
   <path fill="currentColor"
d="M340 1024h172v172h-172v-172zM1536 512v1196q0 68 -50 118t-122 50h-1192q-72 0 -122 -50t-50 -118v-1196q0 -72 50 -122t122 -50h84v-168h172v168h680v-168h172v168h84q72 0 122 50t50 122zM172 684h1192v-172h-1192v172zM1364 1708v-856h-1192v856h1192zM1024 1196
v-172h172v172h-172zM684 1196v-172h168v172h-168zM340 1364h172v172h-172v-172zM1024 1536v-172h172v172h-172zM684 1536v-172h168v172h-168z" />
</svg>
