<?xml version="1.0" standalone="no"?>
<!DOCTYPE svg PUBLIC "-//W3C//DTD SVG 1.1//EN" "http://www.w3.org/Graphics/SVG/1.1/DTD/svg11.dtd" >
<svg xmlns="http://www.w3.org/2000/svg" xmlns:xlink="http://www.w3.org/1999/xlink" version="1.1" viewBox="-10 0 1775 2048">
   <path fill="currentColor"
d="M1755 1024.5q0 118.5 -31.5 232.5t-88 210t-138 177t-177.5 137.5t-209.5 88.5t-232.5 32q-197 0 -374 -83t-302 -233q-8 -12 -7.5 -26t10.5 -24l156 -158q11 -10 29 -10q18 2 26 14q84 108 205 168t257 60q119 0 227 -46.5t186.5 -125t125 -187t46.5 -227t-46.5 -227
t-125 -187t-186.5 -125.5t-227 -47q-112 0 -215 41.5t-183 116.5l157 158q16 15 20.5 37t-4.5 41q-8 21 -27 33.5t-41 12.5h-512q-30 0 -51.5 -22t-21.5 -52v-512q0 -22 12.5 -40t33.5 -26q19 -9 41.5 -5t37.5 21l148 146q122 -114 279.5 -178t325.5 -64q119 0 232.5 32
t209.5 88.5t177.5 138t138 177.5t88 210t31.5 232.5z" />
</svg>
