<?xml version="1.0" standalone="no"?>
<!DOCTYPE svg PUBLIC "-//W3C//DTD SVG 1.1//EN" "http://www.w3.org/Graphics/SVG/1.1/DTD/svg11.dtd" >
<svg xmlns="http://www.w3.org/2000/svg" xmlns:xlink="http://www.w3.org/1999/xlink" version="1.1" viewBox="-10 0 1724 2048">
   <path fill="currentColor"
d="M168 684h344v-344q0 -68 50 -118t118 -50h344q68 0 118 50t50 118v344h344q68 0 118 50t50 118v344q0 68 -50 118t-118 50h-344v344q0 68 -50 118t-118 50h-344q-68 0 -118 -50t-50 -118v-344h-344q-68 0 -118 -50t-50 -118v-344q0 -68 50 -118t118 -50zM168 852v344h344
v-344h-344z" />
</svg>
