<?xml version="1.0" standalone="no"?>
<!DOCTYPE svg PUBLIC "-//W3C//DTD SVG 1.1//EN" "http://www.w3.org/Graphics/SVG/1.1/DTD/svg11.dtd" >
<svg xmlns="http://www.w3.org/2000/svg" xmlns:xlink="http://www.w3.org/1999/xlink" version="1.1" viewBox="-10 0 1998 2048">
   <path fill="currentColor"
d="M1978 1744q0 62 -42 104l-123 122q-45 44 -104 44t-102 -44l-415 -416q-44 -42 -44 -102t49 -110l-292 -292l-144 144q-16 16 -39 16t-39 -16q2 2 14 13.5t14.5 14.5t11.5 13t11.5 15.5t7 15t6 19t1.5 21.5q0 44 -32 78q-2 2 -22.5 24t-27.5 28t-24.5 20t-33 19t-33.5 5
q-46 0 -78 -32l-466 -466q-32 -32 -32 -78q0 -15 5 -30t10.5 -25.5t18 -25t19 -21t23 -21.5t20.5 -19q34 -32 77 -32q11 0 20.5 1t19 6t15.5 7.5t16 11t13 11.5l14.5 14.5t13.5 14.5q-16 -16 -16 -38q0 -24 16 -40l398 -398q16 -16 39 -16t39 16q-2 -2 -14 -13.5
t-14.5 -14.5t-11.5 -13t-11.5 -15.5t-7 -15t-6 -19t-1.5 -21.5q0 -44 32 -78q2 -2 22.5 -24t27.5 -28t24.5 -20t33 -19t33.5 -5q46 0 78 32l466 468q32 32 32 76q0 15 -5 30t-10.5 25.5t-18 25t-19 21t-23 21.5t-20.5 19q-34 32 -77 32q-11 0 -20.5 -1t-19 -6t-15.5 -7.5
t-16 -11t-13 -11.5l-14.5 -14.5t-13.5 -14.5q16 16 16 40q0 22 -16 38l-144 144l292 292q49 -48 110 -48q60 0 104 42l415 414q42 44 42 104z" />
</svg>
