<?xml version="1.0" standalone="no"?>
<!DOCTYPE svg PUBLIC "-//W3C//DTD SVG 1.1//EN" "http://www.w3.org/Graphics/SVG/1.1/DTD/svg11.dtd" >
<svg xmlns="http://www.w3.org/2000/svg" xmlns:xlink="http://www.w3.org/1999/xlink" version="1.1" viewBox="-10 0 1300 2048">
   <path fill="currentColor"
d="M260 172q-24 148 76 252q64 64 40 172h84q16 -68 4 -122t-80 -130q-60 -72 -40 -172h-84zM472 172q-24 148 76 252q64 64 40 172h84q16 -72 4 -124t-80 -128q-60 -72 -40 -172h-84zM688 172q-24 148 76 252q64 64 36 172h88q16 -64 4 -118t-80 -134q-60 -72 -40 -172h-84
zM0 684q0 180 96 326t256 218l-340 516q-12 16 -12 48q0 52 36 72q16 12 48 12q52 0 72 -36l84 -136h544q28 76 92 124t148 48q104 0 180 -76t76 -180t-76 -180t-180 -76q-88 0 -150 48t-90 124h-432l168 -260q12 4 76 4t76 -4l84 132q52 -72 136 -104l-48 -76
q144 -64 246 -226t102 -318h-1192zM1024 1536q36 0 60 24t24 60t-24 62t-60 26t-62 -26t-26 -62t26 -60t62 -24z" />
</svg>
