<?xml version="1.0" standalone="no"?>
<!DOCTYPE svg PUBLIC "-//W3C//DTD SVG 1.1//EN" "http://www.w3.org/Graphics/SVG/1.1/DTD/svg11.dtd" >
<svg xmlns="http://www.w3.org/2000/svg" xmlns:xlink="http://www.w3.org/1999/xlink" version="1.1" viewBox="-10 0 1556 2048">
   <path fill="currentColor"
d="M1508 1748l-204 -200l-840 -840l-124 -120l-232 -236l-108 108l236 236q-108 132 -138 298t18 330t168 284q100 100 226 150t258 50q244 0 428 -152l232 232l108 -108zM768 1640q-104 0 -196 -38t-166 -112t-112 -166t-38 -196q0 -176 104 -308l408 408v412zM768 404v392
l620 616q88 -188 52 -400t-188 -368l-484 -484l-316 316l120 120z" />
</svg>
