<?xml version="1.0" standalone="no"?>
<!DOCTYPE svg PUBLIC "-//W3C//DTD SVG 1.1//EN" "http://www.w3.org/Graphics/SVG/1.1/DTD/svg11.dtd" >
<svg xmlns="http://www.w3.org/2000/svg" xmlns:xlink="http://www.w3.org/1999/xlink" version="1.1" viewBox="-10 0 1556 2048">
   <path fill="currentColor"
d="M852 172q-140 0 -262 60t-206 168l120 120q60 -80 152 -130t196 -50q116 0 214 58t156 156t58 214q0 104 -50 196t-130 152l120 120q108 -84 168 -206t60 -262q0 -164 -80 -300t-216 -216t-300 -80zM108 340l-108 108l260 260q-4 20 -4 60q0 148 68 278t188 210v196
q0 36 24 60t60 24h488l344 340l108 -108zM444 896l472 468h-236v-204q-84 -40 -146 -108t-90 -156zM596 1708v84q0 36 24 60t60 24h344q36 0 60 -24t24 -60v-84h-512z" />
</svg>
