<?xml version="1.0" standalone="no"?>
<!DOCTYPE svg PUBLIC "-//W3C//DTD SVG 1.1//EN" "http://www.w3.org/Graphics/SVG/1.1/DTD/svg11.dtd" >
<svg xmlns="http://www.w3.org/2000/svg" xmlns:xlink="http://www.w3.org/1999/xlink" version="1.1" viewBox="-10 0 1812 2048">
   <path fill="currentColor"
d="M1792 1844l-1684 -1684l-108 108l328 328q-84 76 -84 184t76 182t180 74l428 852l232 -460l524 524zM928 1508l-264 -532l16 -12l36 20l316 316zM516 348q60 -112 170 -182t242 -70q184 0 318 126t150 306q92 16 154 86t62 166q0 108 -76 182t-180 74l-52 104z" />
</svg>
