<?xml version="1.0" standalone="no"?>
<!DOCTYPE svg PUBLIC "-//W3C//DTD SVG 1.1//EN" "http://www.w3.org/Graphics/SVG/1.1/DTD/svg11.dtd" >
<svg xmlns="http://www.w3.org/2000/svg" xmlns:xlink="http://www.w3.org/1999/xlink" version="1.1" viewBox="-10 0 1555 2048">
   <path fill="currentColor"
d="M1510 280q-44 -4 -84 -12q-104 -12 -216 -12q-308 0 -548 96q-336 132 -504 432q-204 376 -144 992q188 16 276 16q272 0 488 -64q196 -60 344 -172q132 -100 224 -240q80 -124 124 -280q40 -128 56 -276q12 -120 8 -244q-4 -88 -16 -168zM338 1452q4 -44 8 -92
q12 -108 48 -208q48 -144 128 -256q104 -136 256 -208q176 -92 416 -92l-56 24q-72 32 -148 80q-104 68 -204 156q-120 108 -228 244q-124 160 -220 352z" />
</svg>
