<?xml version="1.0" standalone="no"?>
<!DOCTYPE svg PUBLIC "-//W3C//DTD SVG 1.1//EN" "http://www.w3.org/Graphics/SVG/1.1/DTD/svg11.dtd" >
<svg xmlns="http://www.w3.org/2000/svg" xmlns:xlink="http://www.w3.org/1999/xlink" version="1.1" viewBox="-10 0 1555 2048">
   <path fill="currentColor"
d="M1210 428q104 0 144 8q20 212 -12 400q-48 280 -200 460q-260 324 -852 324h-112q-28 -604 240 -896q144 -164 384 -240q184 -56 408 -56zM1210 256q-308 0 -548 96q-336 132 -504 432q-204 376 -144 992q188 16 276 16q272 0 488 -64q196 -60 344 -172
q132 -100 224 -240q80 -124 124 -280q40 -128 56 -276q12 -120 8 -244q-4 -88 -16 -168l-8 -68l-84 -12q-104 -12 -216 -12zM1194 596q-240 0 -416 92q-152 72 -256 208q-80 112 -128 256q-36 100 -48 208l-8 92q96 -192 220 -352q108 -136 228 -244q100 -88 204 -156
q76 -48 148 -80z" />
</svg>
