<?xml version="1.0" standalone="no"?>
<!DOCTYPE svg PUBLIC "-//W3C//DTD SVG 1.1//EN" "http://www.w3.org/Graphics/SVG/1.1/DTD/svg11.dtd" >
<svg xmlns="http://www.w3.org/2000/svg" xmlns:xlink="http://www.w3.org/1999/xlink" version="1.1" viewBox="-10 0 1724 2048">
   <path fill="currentColor"
d="M0 1794v-168l124 -44q160 -52 316 -84q224 -44 412 -44t412 44q156 32 316 84l124 44v168h-1704zM792 694q-36 -112 -140 -180q-84 -52 -208 -72q-92 -16 -192 -12l-84 8l8 68q8 84 32 160q28 108 76 180q64 96 148 136q104 48 240 20q-20 -156 -92 -252q-36 -48 -68 -64
q80 0 140 44q48 36 76 100q20 48 32 100l8 48v392h168v-360l4 -52q8 -68 28 -124q28 -84 76 -140q60 -72 148 -100l-44 72q-48 88 -80 168q-44 108 -44 184q164 16 292 -56q104 -60 176 -184q56 -100 88 -236q24 -96 36 -196l4 -88l-80 -4q-96 0 -192 8q-132 16 -236 56
q-128 48 -208 132q-92 100 -112 244z" />
</svg>
