<?xml version="1.0" standalone="no"?>
<!DOCTYPE svg PUBLIC "-//W3C//DTD SVG 1.1//EN" "http://www.w3.org/Graphics/SVG/1.1/DTD/svg11.dtd" >
<svg xmlns="http://www.w3.org/2000/svg" xmlns:xlink="http://www.w3.org/1999/xlink" version="1.1" viewBox="-10 0 1724 2048">
   <path fill="currentColor"
d="M1536 1280q-8 8 -16 20q-16 20 -20 44q0 28 24 56q32 32 104 52l-240 236h-236l-24 4q-28 4 -46 20t-18 52q4 44 44 112h-340l-172 -168l-20 -16q-20 -16 -44 -20q-28 0 -56 24q-32 32 -52 104l-236 -240v-236l-4 -24q-4 -28 -20 -46t-52 -18q-44 4 -112 44v-340
l168 -172l16 -20q16 -20 18 -46t-26 -50q-32 -28 -108 -48l236 -244h248l24 -4q28 -4 46 -20t18 -52q-4 -44 -44 -112h340l172 168l20 16q20 16 44 16q28 4 56 -24q32 -32 52 -108l236 236v248l4 24q4 28 20 46t52 18q44 -4 112 -44v340zM1024 1024q0 -72 -50 -122t-122 -50
t-122 50t-50 122t50 122t122 50t122 -50t50 -122z" />
</svg>
