<?xml version="1.0" standalone="no"?>
<!DOCTYPE svg PUBLIC "-//W3C//DTD SVG 1.1//EN" "http://www.w3.org/Graphics/SVG/1.1/DTD/svg11.dtd" >
<svg xmlns="http://www.w3.org/2000/svg" xmlns:xlink="http://www.w3.org/1999/xlink" version="1.1" viewBox="-10 0 1820 2048">
   <path fill="currentColor"
d="M1800 348v-152l-168 -20q-68 -4 -132 -4q-260 0 -450 72t-302 208q-180 -112 -444 -112q-52 0 -104 4l-40 4l-160 28l8 144q4 156 56 308q60 188 176 300q144 136 348 136h16v288q-204 28 -420 92q-108 36 -176 64v168h1704v-168l-80 -32q-108 -36 -216 -64
q-156 -40 -300 -60v-272q248 -4 416 -176q136 -140 208 -376q60 -188 60 -380zM860 1536h-84v-476l-8 -48q-12 -52 -32 -100q-28 -64 -76 -100q-60 -44 -140 -44l20 16q24 20 48 48q32 44 52 96q28 72 40 156q-32 8 -92 8q-136 0 -232 -88q-76 -72 -120 -196
q-36 -92 -48 -200l-12 -88l36 -4q44 -4 92 -4q168 0 284 44q168 68 220 220q28 -252 284 -360q168 -76 408 -76q76 0 128 8l-4 80q-8 100 -32 192q-28 128 -80 228q-64 124 -160 188q-112 80 -260 80h-60q0 -104 84 -276q44 -84 84 -148q-160 52 -224 240q-32 96 -32 176
v428h-84z" />
</svg>
