<?xml version="1.0" standalone="no"?>
<!DOCTYPE svg PUBLIC "-//W3C//DTD SVG 1.1//EN" "http://www.w3.org/Graphics/SVG/1.1/DTD/svg11.dtd" >
<svg xmlns="http://www.w3.org/2000/svg" xmlns:xlink="http://www.w3.org/1999/xlink" version="1.1" viewBox="-10 0 1724 2048">
   <path fill="currentColor"
d="M1396 224q104 0 180 76t76 182t-76 180t-182 74t-180 -74t-74 -182q0 -36 12 -72q-144 -68 -300 -68q-184 0 -342 92t-250 250t-92 342l4 72l-168 16l-4 -88q0 -168 64 -326t184 -278t278 -184t326 -64q212 0 400 96q64 -44 144 -44zM1396 396q-36 0 -62 24t-26 60t26 62
t62 26t60 -26t24 -62t-24 -60t-60 -24zM308 1312q108 0 182 74t74 182q0 36 -12 72q144 68 300 68q184 0 342 -92t250 -250t92 -342l-4 -72l168 -16l4 88q0 168 -64 326t-184 278t-278 184t-326 64q-212 0 -400 -96q-64 44 -144 44q-104 0 -180 -76t-76 -182t76 -180
t180 -74zM308 1480q-36 0 -60 26t-24 62t24 60t60 24t62 -24t26 -60t-26 -62t-62 -26zM852 684q140 0 240 100t100 240t-100 240t-240 100t-240 -100t-100 -240t100 -240t240 -100z" />
</svg>
