<?xml version="1.0" standalone="no"?>
<!DOCTYPE svg PUBLIC "-//W3C//DTD SVG 1.1//EN" "http://www.w3.org/Graphics/SVG/1.1/DTD/svg11.dtd" >
<svg xmlns="http://www.w3.org/2000/svg" xmlns:xlink="http://www.w3.org/1999/xlink" version="1.1" viewBox="-11 0 1045 2048">
   <path fill="currentColor"
d="M1011 573q21 23 8 51l-617 1322q-15 29 -48 29q-3 0 -8.5 -1.5t-7.5 -1.5q-19 -6 -29 -22t-5 -34l225 -923l-464 115q-5 1 -14 1q-22 0 -35 -12q-20 -16 -15 -45l230 -943q4 -16 18 -26t32 -10h375q21 0 36 14t15 34q0 8 -5 20l-196 530l453 -112q1 0 6 -1.5t8 -1.5
q21 0 38 17z" />
</svg>
