<?xml version="1.0" standalone="no"?>
<!DOCTYPE svg PUBLIC "-//W3C//DTD SVG 1.1//EN" "http://www.w3.org/Graphics/SVG/1.1/DTD/svg11.dtd" >
<svg xmlns="http://www.w3.org/2000/svg" xmlns:xlink="http://www.w3.org/1999/xlink" version="1.1" viewBox="-10 0 1900 2048">
   <path fill="currentColor"
d="M1152 788q44 0 76 32t32 76t-32 76t-76 32t-74 -32t-30 -76t30 -76t74 -32zM728 788q44 0 74 32t30 76t-30 76t-74 32t-76 -32t-32 -76t32 -76t76 -32zM556 1196h768q-48 112 -152 184t-232 72t-232 -72t-152 -184zM0 1024q0 -116 70 -206t174 -122q96 -196 282 -318
t414 -122t414 122t282 318q108 32 176 122t68 206t-68 206t-176 122q-96 196 -282 318t-414 122t-414 -122t-282 -318q-104 -32 -174 -122t-70 -206zM940 428q-200 0 -358 120t-214 304h-24q-72 0 -122 50t-50 122t50 122t122 50h24q56 184 214 304t358 120t358 -120
t214 -304h24q72 0 122 -50t50 -122t-50 -122t-122 -50h-24q-56 -184 -214 -304t-358 -120z" />
</svg>
