<?xml version="1.0" standalone="no"?>
<!DOCTYPE svg PUBLIC "-//W3C//DTD SVG 1.1//EN" "http://www.w3.org/Graphics/SVG/1.1/DTD/svg11.dtd" >
<svg xmlns="http://www.w3.org/2000/svg" xmlns:xlink="http://www.w3.org/1999/xlink" version="1.1" viewBox="-10 0 1724 2048">
   <path fill="currentColor"
d="M1536 512h-1008q-68 -80 -174 -84t-188 68t-82 188v768q-36 0 -60 24t-24 60v84h680v-84q0 -36 -24 -60t-60 -24v-600h940q68 0 118 -50t50 -120t-50 -120t-118 -50zM468 1452h-256v-548q60 36 128 36t128 -36v548zM340 812q-52 0 -90 -38t-38 -92t38 -90t90 -36t90 36
t38 90t-38 92t-90 38zM724 768l-128 -172h128l128 172h-128zM1064 768l-128 -172h128l128 172h-128zM1408 768l-128 -172h128l128 172h-128z" />
</svg>
