<?xml version="1.0" standalone="no"?>
<!DOCTYPE svg PUBLIC "-//W3C//DTD SVG 1.1//EN" "http://www.w3.org/Graphics/SVG/1.1/DTD/svg11.dtd" >
<svg xmlns="http://www.w3.org/2000/svg" xmlns:xlink="http://www.w3.org/1999/xlink" version="1.1" viewBox="-10 0 1922 2048">
   <path fill="currentColor"
d="M1024 983v663q0 119 -87 205.5t-206 86.5t-205.5 -86.5t-86.5 -205.5q0 -30 21.5 -51.5t51.5 -21.5t51.5 21.5t21.5 51.5q0 58 44 102t102 44t102.5 -44t44.5 -102v-663q39 -13 73 -13t73 13zM1902 1014q0 14 -11.5 25t-25.5 11q-13 0 -26 -11q-56 -53 -106.5 -79
t-116.5 -26q-78 0 -146 42t-118 111q-8 10 -19.5 30.5t-17.5 28.5q-12 20 -32 20q-21 0 -33 -20q-6 -8 -17 -28.5t-19 -30.5q-50 -69 -117.5 -111t-145.5 -42t-145.5 42t-117.5 111q-8 10 -19.5 30.5t-17.5 28.5q-12 20 -33 20q-20 0 -32 -20q-6 -8 -17 -28.5t-19 -30.5
q-50 -69 -118 -111t-146 -42q-66 0 -116.5 26t-106.5 79q-13 11 -26 11q-14 0 -25.5 -11t-11.5 -25q0 -6 1 -8q38 -158 132 -287.5t222.5 -214t281.5 -130t314 -45.5q160 0 313.5 46t282 130t222.5 213.5t132 287.5q1 2 1 8zM1024 183v112q-48 -2 -73 -2t-73 2v-112
q0 -30 21.5 -51.5t51.5 -21.5t51.5 21.5t21.5 51.5z" />
</svg>
