<?xml version="1.0" standalone="no"?>
<!DOCTYPE svg PUBLIC "-//W3C//DTD SVG 1.1//EN" "http://www.w3.org/Graphics/SVG/1.1/DTD/svg11.dtd" >
<svg xmlns="http://www.w3.org/2000/svg" xmlns:xlink="http://www.w3.org/1999/xlink" version="1.1" viewBox="-10 0 1724 2048">
   <path fill="currentColor"
d="M768 1452h168v168h-168v-168zM1024 1452h168v168h-168v-168zM596 340h172v940q0 140 -100 240t-244 100h-168q-108 0 -182 -74t-74 -182v-340h168v340q0 36 26 62t62 26h168q72 0 122 -50t50 -122v-940zM852 340h172v768h256v-424h168v424q0 72 -50 122t-118 50h-256
q-72 0 -122 -50t-50 -122v-768zM1536 852h168v600q0 104 -74 180t-182 76h-168v-172h168q36 0 62 -24t26 -60v-600z" />
</svg>
