<?xml version="1.0" standalone="no"?>
<!DOCTYPE svg PUBLIC "-//W3C//DTD SVG 1.1//EN" "http://www.w3.org/Graphics/SVG/1.1/DTD/svg11.dtd" >
<svg xmlns="http://www.w3.org/2000/svg" xmlns:xlink="http://www.w3.org/1999/xlink" version="1.1" viewBox="-10 0 1724 2048">
   <path fill="currentColor"
d="M0 172h168v1536h1536v168h-1704v-1704zM596 852q108 0 182 76t74 182t-74 180t-182 74t-182 -74t-74 -180t74 -182t182 -76zM936 172q108 0 182 74t74 180t-74 182t-180 76t-182 -76t-76 -182t76 -180t180 -74zM1364 1024q108 0 182 74t74 182t-74 182t-182 74t-182 -74
t-74 -182t74 -182t182 -74z" />
</svg>
