<?xml version="1.0" standalone="no"?>
<!DOCTYPE svg PUBLIC "-//W3C//DTD SVG 1.1//EN" "http://www.w3.org/Graphics/SVG/1.1/DTD/svg11.dtd" >
<svg xmlns="http://www.w3.org/2000/svg" xmlns:xlink="http://www.w3.org/1999/xlink" version="1.1" viewBox="-10 0 1692 2048">
   <path fill="currentColor"
d="M836 1620q56 0 98 32t62 80q72 -16 136 -44l-152 -356q-68 32 -144 32t-144 -32l-152 356q64 28 136 44q20 -48 62 -80t98 -32zM1368 1516q-36 -52 -36 -108q0 -68 50 -120t122 -52l24 4q32 -104 32 -216t-32 -212h-24q-72 0 -122 -50t-50 -122q0 -60 36 -108
q-156 -168 -372 -216q-20 48 -62 80t-98 32t-98 -32t-62 -80q-216 48 -372 216q36 48 36 108q0 72 -50 122t-118 50h-28q-32 100 -32 210t32 218l28 -4q68 0 118 52t50 118t-36 110q36 40 88 84l164 -384q-60 -84 -60 -192q0 -140 100 -240t240 -100t240 100t100 240
q0 108 -60 192l164 384q44 -36 88 -84zM836 1964q-64 0 -112 -42t-60 -106q-76 -16 -156 -52l-84 200h-184l120 -284q-72 -52 -124 -112q-28 12 -64 12q-72 0 -122 -50t-50 -122q0 -80 64 -132q-40 -124 -40 -252t40 -248q-64 -52 -64 -136q0 -72 50 -122t122 -50
q28 0 60 16q176 -200 432 -252q12 -64 60 -106t112 -42t112 42t60 106q252 52 432 248q28 -12 64 -12q68 0 118 50t50 122q0 84 -64 132q40 124 40 252t-40 252q64 52 64 132q0 72 -50 122t-118 50q-36 0 -68 -12q-52 60 -124 112l120 284h-184l-84 -200q-80 36 -156 52
q-12 64 -60 106t-112 42z" />
</svg>
