<?xml version="1.0" standalone="no"?>
<!DOCTYPE svg PUBLIC "-//W3C//DTD SVG 1.1//EN" "http://www.w3.org/Graphics/SVG/1.1/DTD/svg11.dtd" >
<svg xmlns="http://www.w3.org/2000/svg" xmlns:xlink="http://www.w3.org/1999/xlink" version="1.1" viewBox="-10 0 1620 2048">
   <path fill="currentColor"
d="M1196 1792l-236 -256l100 -100l136 136l304 -304l100 120zM836 1792h-664q-72 0 -122 -50t-50 -122v-1192q0 -72 50 -122t122 -50h1192q72 0 122 50t50 122v664q-80 -48 -172 -60v-604h-1192v1192h604q12 92 60 172zM768 1452h-428v-172h428v172zM996 1108h-656v-168h856
v92q-108 16 -200 76zM1196 768h-856v-172h856v172z" />
</svg>
