<?xml version="1.0" standalone="no"?>
<!DOCTYPE svg PUBLIC "-//W3C//DTD SVG 1.1//EN" "http://www.w3.org/Graphics/SVG/1.1/DTD/svg11.dtd" >
<svg xmlns="http://www.w3.org/2000/svg" xmlns:xlink="http://www.w3.org/1999/xlink" version="1.1" viewBox="-10 0 1604 2048">
   <path fill="currentColor"
d="M976 1332l124 -124l180 184l180 -184l124 124l-184 180l184 180l-124 124l-180 -184l-180 184l-124 -124l184 -180zM768 1428v-172h-428v172h428zM1196 916h-856v168h656q-104 72 -166 184t-62 248t68 252h-664q-72 0 -122 -50t-50 -122v-1192q0 -72 50 -122t122 -50
h1192q72 0 122 50t50 122v664q-116 -68 -256 -68l-84 8v-92zM1196 744v-172h-856v172h856z" />
</svg>
