<?xml version="1.0" standalone="no"?>
<!DOCTYPE svg PUBLIC "-//W3C//DTD SVG 1.1//EN" "http://www.w3.org/Graphics/SVG/1.1/DTD/svg11.dtd" >
<svg xmlns="http://www.w3.org/2000/svg" xmlns:xlink="http://www.w3.org/1999/xlink" version="1.1" viewBox="-10 0 1640 2048">
   <path fill="currentColor"
d="M1620 1452v168h-680v-168h680zM768 1452v-172h-428v172h428zM1196 940h-856v168h656q-104 72 -166 184t-62 248t68 252h-664q-72 0 -122 -50t-50 -122v-1192q0 -72 50 -122t122 -50h1192q72 0 122 50t50 122v664q-116 -68 -256 -68l-84 8v-92zM1196 768v-172h-856v172
h856z" />
</svg>
