<?xml version="1.0" standalone="no"?>
<!DOCTYPE svg PUBLIC "-//W3C//DTD SVG 1.1//EN" "http://www.w3.org/Graphics/SVG/1.1/DTD/svg11.dtd" >
<svg xmlns="http://www.w3.org/2000/svg" xmlns:xlink="http://www.w3.org/1999/xlink" version="1.1" viewBox="-10 0 1900 2048">
   <path fill="currentColor"
d="M1708 512h-1536q-72 0 -122 50t-50 122v680q0 72 50 122t122 50h1536q72 0 122 -50t50 -122v-680q0 -72 -50 -122t-122 -50zM856 1108h-256v256h-172v-256h-256v-168h256v-256h172v256h256v168zM1240 1280q-56 0 -92 -38t-36 -90t36 -90t90 -38t92 38t38 90t-38 90
t-90 38zM1580 1024q-52 0 -90 -38t-38 -90t38 -90t90 -38t90 38t38 90t-38 90t-90 38z" />
</svg>
