<?xml version="1.0" standalone="no"?>
<!DOCTYPE svg PUBLIC "-//W3C//DTD SVG 1.1//EN" "http://www.w3.org/Graphics/SVG/1.1/DTD/svg11.dtd" >
<svg xmlns="http://www.w3.org/2000/svg" xmlns:xlink="http://www.w3.org/1999/xlink" version="1.1" viewBox="-10 0 1728 2048">
   <path fill="currentColor"
d="M1300 1834l-232 -256l96 -100l136 136l308 -308l100 124zM1492 214q20 0 32 12t12 32v840q-84 -32 -172 -32q-96 0 -184 36t-156 100v-640l-512 -176v1016l344 116q-4 24 -4 60q0 56 16 116l-356 -124l-456 176q-4 4 -12 4q-20 0 -32 -12t-12 -32v-1288q0 -32 28 -40
l484 -164l512 180l456 -180h12z" />
</svg>
