<?xml version="1.0" standalone="no"?>
<!DOCTYPE svg PUBLIC "-//W3C//DTD SVG 1.1//EN" "http://www.w3.org/Graphics/SVG/1.1/DTD/svg11.dtd" >
<svg xmlns="http://www.w3.org/2000/svg" xmlns:xlink="http://www.w3.org/1999/xlink" version="1.1" viewBox="-10 0 1556 2048">
   <path fill="currentColor"
d="M1196 340v512l-172 -168l-172 168v-512h-340v1368h852v-1368h-168zM0 596v-168h172v-88q0 -68 50 -118t118 -50h1024q68 0 120 52t52 116v1368q0 64 -52 116t-120 52h-1024q-64 0 -116 -52t-52 -116v-88h-172v-168h172v-344h-172v-168h172v-344h-172zM172 428v168h168
v-168h-168zM172 1620h168v-168h-168v168zM172 1108h168v-168h-168v168z" />
</svg>
