<?xml version="1.0" standalone="no"?>
<!DOCTYPE svg PUBLIC "-//W3C//DTD SVG 1.1//EN" "http://www.w3.org/Graphics/SVG/1.1/DTD/svg11.dtd" >
<svg xmlns="http://www.w3.org/2000/svg" xmlns:xlink="http://www.w3.org/1999/xlink" version="1.1" viewBox="-10 0 1900 2048">
   <path fill="currentColor"
d="M1708 512h-1536q-72 0 -122 50t-50 122v680q0 72 50 122t122 50h1536q72 0 122 -50t50 -122v-680q0 -72 -50 -122t-122 -50zM1708 1364h-1536v-680h1536v680zM428 1280h172v-172h168v-168h-168v-172h-172v172h-172v168h172v172zM1152 1024q56 0 92 38t36 90t-36 90
t-90 38t-92 -38t-38 -90t38 -90t90 -38zM1496 768q52 0 90 38t38 90t-38 90t-92 38t-90 -38t-36 -90t36 -90t92 -38z" />
</svg>
