<?xml version="1.0" standalone="no"?>
<!DOCTYPE svg PUBLIC "-//W3C//DTD SVG 1.1//EN" "http://www.w3.org/Graphics/SVG/1.1/DTD/svg11.dtd" >
<svg xmlns="http://www.w3.org/2000/svg" xmlns:xlink="http://www.w3.org/1999/xlink" version="1.1" viewBox="-10 0 1388 2048">
   <path fill="currentColor"
d="M856 172l512 512v1024q0 68 -50 118t-122 50h-1024q-72 0 -122 -50t-50 -118v-1368q0 -68 50 -118t122 -50h684zM1196 1708v-940h-428v-428h-596v1368h1024zM1112 1108v512h-856l428 -424l172 168zM512 896q0 52 -36 90t-90 38t-92 -38t-38 -90t38 -90t92 -38t90 38
t36 90z" />
</svg>
