<?xml version="1.0" standalone="no"?>
<!DOCTYPE svg PUBLIC "-//W3C//DTD SVG 1.1//EN" "http://www.w3.org/Graphics/SVG/1.1/DTD/svg11.dtd" >
<svg xmlns="http://www.w3.org/2000/svg" xmlns:xlink="http://www.w3.org/1999/xlink" version="1.1" viewBox="-10 0 1190 2048">
   <path fill="currentColor"
d="M841 658q0 15 -11 25.5t-25 10.5t-25.5 -10.5t-11.5 -25.5q0 -27 -19.5 -49.5t-49.5 -35t-59.5 -19t-54.5 -6.5q-14 0 -25 -10.5t-11 -25t11 -25.5t25 -11q42 0 85 11t82 32t64 57.5t25 81.5zM1024 658q0 -66 -25.5 -125t-69.5 -102.5t-100 -75t-119 -47.5t-125 -16
t-125 16t-119 47.5t-100 75t-69.5 102.5t-25.5 125q0 55 21 109.5t57 96.5q11 13 35 38t35 38q147 175 161 340h260q14 -163 162 -340q11 -13 34.5 -38t34.5 -38q36 -42 57 -96.5t21 -109.5zM1170 658q0 178 -117 306q-37 41 -63.5 73.5t-57.5 78t-49.5 91.5t-21.5 89
q25 15 39 40t14 54q0 43 -28 72q28 30 28 74q0 59 -51 92q15 27 15 54q0 53 -36 81.5t-89 28.5q-23 50 -68.5 80t-99.5 30t-99.5 -30t-68.5 -80q-53 0 -88.5 -28.5t-35.5 -81.5q0 -29 14 -54q-51 -33 -51 -92q0 -43 29 -74q-29 -30 -29 -72q0 -29 14.5 -54t39.5 -40
q-3 -43 -21.5 -89t-49.5 -91.5t-57.5 -78t-63.5 -73.5q-118 -129 -118 -306q0 -90 33 -171.5t90 -142.5t131 -106t159 -68.5t172 -23.5t172 23.5t159 68.5t131 106t90 142.5t33 171.5z" />
</svg>
