<?xml version="1.0" standalone="no"?>
<!DOCTYPE svg PUBLIC "-//W3C//DTD SVG 1.1//EN" "http://www.w3.org/Graphics/SVG/1.1/DTD/svg11.dtd" >
<svg xmlns="http://www.w3.org/2000/svg" xmlns:xlink="http://www.w3.org/1999/xlink" version="1.1" viewBox="-10 0 1724 2048">
   <path fill="currentColor"
d="M1336 616v120q0 44 -30 74t-76 30t-76 -30t-30 -74v-120q0 -44 30 -76t76 -32t76 32t30 76zM960 712v620q0 44 -32 76t-76 32t-76 -32t-32 -76v-620q0 -44 32 -74t76 -30t76 30t32 74zM1704 964v120q0 44 -30 74t-74 30t-76 -30t-32 -74v-120q0 -44 32 -74t76 -30t74 30
t30 74zM212 964v120q0 44 -32 74t-76 30t-74 -30t-30 -74v-120q0 -44 30 -74t74 -30t76 30t32 74zM580 1312v120q0 44 -30 74t-76 30t-76 -30t-30 -74v-120q0 -44 30 -76t76 -32t76 32t30 76zM960 1652v120q0 44 -32 74t-76 30t-76 -30t-32 -74v-120q0 -44 32 -76t76 -32
t76 32t32 76zM960 276v120q0 44 -32 76t-76 32t-76 -32t-32 -76v-120q0 -44 32 -74t76 -30t76 30t32 74zM1336 1052v380q0 44 -30 74t-76 30t-76 -30t-30 -74v-380q0 -44 30 -74t76 -30t76 30t30 74zM580 616v380q0 44 -30 74t-76 30t-76 -30t-30 -74v-380q0 -44 30 -76
t76 -32t76 32t30 76z" />
</svg>
