<?xml version="1.0" standalone="no"?>
<!DOCTYPE svg PUBLIC "-//W3C//DTD SVG 1.1//EN" "http://www.w3.org/Graphics/SVG/1.1/DTD/svg11.dtd" >
<svg xmlns="http://www.w3.org/2000/svg" xmlns:xlink="http://www.w3.org/1999/xlink" version="1.1" viewBox="-10 0 1683 2048">
   <path fill="currentColor"
d="M0 386l108 -108l1512 1512l-108 108l-216 -220q-140 -4 -244 -76q-96 -64 -150 -162t-54 -206l-100 -100q-32 40 -32 96q0 108 42 208t118 176q60 60 124 96t156 60q16 4 24 20t4 32t-14 24t-26 8h-12q-100 -28 -174 -70t-142 -110q-88 -88 -136 -204t-48 -240
q0 -88 56 -156l-92 -92q-96 108 -96 248q0 188 76 328q40 68 76 116q28 36 84 92q12 12 12 28t-14 30t-30 14t-28 -12q-60 -60 -96 -106t-76 -122q-92 -160 -92 -368q0 -88 34 -168t90 -140l-92 -92q-72 68 -116 160q-48 104 -48 240q0 156 56 308q4 16 -2 32t-24 22t-34 -2
t-20 -24q-64 -164 -64 -336q0 -156 60 -276q52 -108 132 -184l-88 -88q-48 48 -92 108q-12 16 -32 16l-28 -8q-12 -8 -16 -26t8 -30q48 -68 100 -120zM1392 358l-20 -4q-124 -64 -236 -92t-240 -28q-256 0 -476 120l-12 4l-48 -48q0 -20 20 -32q236 -128 516 -128
q136 0 260 30t256 98q16 8 20 26t-4 30q-12 24 -36 24zM1336 462q192 96 320 276q8 12 6 30t-16 28t-32 8t-30 -14q-112 -164 -284 -252t-370 -96t-374 64l-64 -64q196 -88 424 -84t420 104zM896 770q132 0 242 62t176 168t66 230q0 16 -14 28t-30 12l-20 -4l-16 -16l-8 -20
q0 -152 -114 -262t-274 -114l-80 -80zM1100 1534q40 28 92 44l-244 -244q40 124 152 200zM1512 1230q0 -160 -84 -294t-226 -212t-310 -78q-88 0 -172 24l-68 -68q120 -44 240 -44q192 0 354 90t256 244t94 338q0 60 -30 114t-82 90l-60 -60q40 -24 64 -62t24 -82z" />
</svg>
