<?xml version="1.0" standalone="no"?>
<!DOCTYPE svg PUBLIC "-//W3C//DTD SVG 1.1//EN" "http://www.w3.org/Graphics/SVG/1.1/DTD/svg11.dtd" >
<svg xmlns="http://www.w3.org/2000/svg" xmlns:xlink="http://www.w3.org/1999/xlink" version="1.1" viewBox="-10 0 1520 2048">
   <path fill="currentColor"
d="M340 1552q-140 0 -240 -100t-100 -242t100 -242t242 -100t242 100t100 242t-100 242t-244 100zM340 1040q-68 0 -118 50t-50 120t50 120t120 50t120 -50t50 -120t-50 -120t-122 -50zM684 868q-144 0 -244 -100t-100 -240t100 -240t242 -100t242 100t100 240t-100 240
t-240 100zM684 356q-72 0 -122 50t-50 122t50 122t120 50t120 -50t50 -122t-50 -122t-118 -50zM1160 1860q-140 0 -240 -100t-100 -242t100 -242t240 -100t240 100t100 242t-100 242t-240 100zM1160 1348q-72 0 -122 50t-50 120t52 120t122 50t120 -50t50 -120t-50 -120
t-122 -50z" />
</svg>
