<?xml version="1.0" standalone="no"?>
<!DOCTYPE svg PUBLIC "-//W3C//DTD SVG 1.1//EN" "http://www.w3.org/Graphics/SVG/1.1/DTD/svg11.dtd" >
<svg xmlns="http://www.w3.org/2000/svg" xmlns:xlink="http://www.w3.org/1999/xlink" version="1.1" viewBox="-10 0 1352 2048">
   <path fill="currentColor"
d="M256 958q108 0 182 74t74 180t-74 182t-180 76t-182 -76t-76 -182t76 -180t180 -74zM600 274q104 0 180 74t76 182t-76 182t-182 74t-180 -74t-74 -182t74 -182t182 -74zM1076 1262q108 0 182 76t74 182t-74 180t-180 74t-182 -74t-76 -180t76 -182t180 -76z" />
</svg>
