<?xml version="1.0" standalone="no"?>
<!DOCTYPE svg PUBLIC "-//W3C//DTD SVG 1.1//EN" "http://www.w3.org/Graphics/SVG/1.1/DTD/svg11.dtd" >
<svg xmlns="http://www.w3.org/2000/svg" xmlns:xlink="http://www.w3.org/1999/xlink" version="1.1" viewBox="-10 0 1824 2048">
   <path fill="currentColor"
d="M656 172h-172v176q-84 20 -144 72l-220 -224l-120 120l248 252q-20 64 -20 116h-168v168h172q8 92 32 184l-232 76l52 164l232 -76q36 80 68 128l-204 136l96 144l216 -144q72 72 168 128l-80 160l152 80l84 -172l-12 -8q128 44 280 52v172h168v-176q136 -16 236 -64
l132 132l120 -120l-112 -116q52 -72 52 -168q0 -52 -12 -112l136 -64l-76 -156l-116 60q-64 -96 -164 -128l56 -168l-160 -56l-64 196q-148 -16 -224 -104l152 -72l-80 -156l-132 68q-8 -96 -60 -172l132 -196l-140 -96l-120 180q-68 -32 -152 -40v-176zM1168 1536
q-380 0 -572 -208q-136 -148 -180 -396q-24 -124 -16 -232v-16q0 -72 32 -116q44 -56 140 -56q144 0 208 68q44 40 48 104q0 92 48 184q56 108 164 168q124 72 300 72q52 0 96 40q72 64 72 216q0 72 -88 116q-60 32 -164 48q-56 8 -88 8zM612 684q-52 0 -90 36t-38 90t38 92
t92 38t90 -38t36 -92t-36 -90t-92 -36zM828 1024q-36 0 -62 24t-26 60t26 62t62 26t60 -26t24 -62t-24 -60t-60 -24zM1212 1196q-56 0 -92 36t-36 90t36 92t90 38t92 -38t38 -92t-38 -90t-90 -36z" />
</svg>
