<?xml version="1.0" standalone="no"?>
<!DOCTYPE svg PUBLIC "-//W3C//DTD SVG 1.1//EN" "http://www.w3.org/Graphics/SVG/1.1/DTD/svg11.dtd" >
<svg xmlns="http://www.w3.org/2000/svg" xmlns:xlink="http://www.w3.org/1999/xlink" version="1.1" viewBox="-10 0 1824 2048">
   <path fill="currentColor"
d="M1680 1364q0 -52 -12 -112l136 -64l-76 -156l-116 60q-64 -96 -164 -128l56 -168l-160 -56l-64 196q-148 -16 -224 -104l152 -72l-80 -156l-132 68q-8 -96 -60 -172l132 -196l-140 -96l-120 180q-68 -32 -152 -40v-176h-172v176q-84 20 -144 72l-220 -224l-120 120
l248 252q-20 64 -20 116h-168v168h172q8 92 32 184l-232 76l52 164l232 -76q36 80 68 128l-204 136l96 144l216 -144q72 72 168 128l-80 160l152 80l84 -172l-12 -8q128 44 280 52v172h168v-176q136 -16 236 -64l132 132l120 -120l-112 -116q52 -72 52 -168zM612 940
q-52 0 -90 -38t-38 -92t38 -90t92 -36t90 36t36 90t-36 92t-92 38zM828 1196q-36 0 -62 -26t-26 -62t26 -60t62 -24t60 24t24 60t-24 62t-60 26zM1212 1452q-56 0 -92 -38t-36 -92t36 -90t90 -36t92 36t38 90t-38 92t-90 38z" />
</svg>
