<?xml version="1.0" standalone="no"?>
<!DOCTYPE svg PUBLIC "-//W3C//DTD SVG 1.1//EN" "http://www.w3.org/Graphics/SVG/1.1/DTD/svg11.dtd" >
<svg xmlns="http://www.w3.org/2000/svg" xmlns:xlink="http://www.w3.org/1999/xlink" version="1.1" viewBox="-10 0 1708 2048">
   <path fill="currentColor"
d="M1176 1580l512 136l-32 160l-804 -212l-800 212l-44 -160l512 -136l-520 -136l40 -164l804 212l804 -212l40 164zM1192 676q-20 -28 -48 -52q-20 -16 -56 -44q-48 -36 -68 -56q-68 -68 -82 -168t30 -184q-76 20 -152 80q-120 96 -160 250t16 298l4 20q0 20 -20 30t-40 -6
q-4 -4 -8 -12q-52 -64 -60 -150t28 -166q-76 64 -116 162t-32 202q0 48 16 88q12 60 44 108q48 80 128 134t168 66q104 12 196 -8q104 -28 172 -92q84 -76 110 -188t-18 -220l-8 -16q-16 -40 -48 -76h4zM1000 1064q-28 28 -68 36q-44 20 -92 2t-80 -50q48 -12 82 -48t46 -80
q4 -36 -12 -96l-8 -40q-12 -72 12 -128q20 44 36 66t54 54t54 52q24 28 28 64l4 28q0 40 -14 78t-42 62z" />
</svg>
