<?xml version="1.0" standalone="no"?>
<!DOCTYPE svg PUBLIC "-//W3C//DTD SVG 1.1//EN" "http://www.w3.org/Graphics/SVG/1.1/DTD/svg11.dtd" >
<svg xmlns="http://www.w3.org/2000/svg" xmlns:xlink="http://www.w3.org/1999/xlink" version="1.1" viewBox="-10 0 1556 2048">
   <path fill="currentColor"
d="M768 852q84 0 138 58t54 136t-58 136t-136 56t-134 -56t-56 -136t56 -138t136 -56zM1152 1620h-768v-96q0 -80 112 -136t272 -56t272 56t112 136v96zM1364 1708h-1192v-940h1192v940zM1108 172v168h-680v-168h-172v168h-84q-72 0 -122 50t-50 122v1196q0 68 50 118
t122 50h1192q72 0 122 -50t50 -118v-1196q0 -72 -50 -122t-122 -50h-84v-168h-172z" />
</svg>
