<?xml version="1.0" standalone="no"?>
<!DOCTYPE svg PUBLIC "-//W3C//DTD SVG 1.1//EN" "http://www.w3.org/Graphics/SVG/1.1/DTD/svg11.dtd" >
<svg xmlns="http://www.w3.org/2000/svg" xmlns:xlink="http://www.w3.org/1999/xlink" version="1.1" viewBox="-10 0 2214 2048">
   <path fill="currentColor"
d="M1463 1134q0 -16 -10.5 -26t-26.5 -10h-256v-404q0 -14 -11 -25t-25 -11h-220q-14 0 -25 11t-11 25v404h-256q-16 0 -26.5 10.5t-10.5 25.5q0 16 10 26l403 402q10 10 26 10t26 -10l401 -400q12 -14 12 -28zM2194 1390q0 89 -35 170t-93.5 140t-140 93.5t-170.5 34.5
h-1243q-104 0 -198.5 -40.5t-163.5 -109t-109.5 -163.5t-40.5 -199q0 -149 80.5 -274.5t214.5 -187.5q-2 -34 -2 -50q0 -118 46.5 -226.5t124.5 -187t186.5 -124.5t227.5 -46q178 0 325.5 99t215.5 263q82 -70 190 -70q121 0 207 86t86 206q0 87 -47 158q149 36 244 155.5
t95 272.5z" />
</svg>
