<?xml version="1.0" standalone="no"?>
<!DOCTYPE svg PUBLIC "-//W3C//DTD SVG 1.1//EN" "http://www.w3.org/Graphics/SVG/1.1/DTD/svg11.dtd" >
<svg xmlns="http://www.w3.org/2000/svg" xmlns:xlink="http://www.w3.org/1999/xlink" version="1.1" viewBox="-10 0 2214 2048">
   <path fill="currentColor"
d="M1463 1060q0 -16 -10 -26l-403 -402q-10 -10 -26 -10t-26 10l-401 402q-12 13 -12 26q0 16 10.5 27t26.5 11h256v402q0 14 11 25t25 11h220q14 0 25 -11t11 -25v-402h256q15 0 26 -11.5t11 -26.5zM2194 1390q0 89 -35 170t-93.5 140t-140 93.5t-170.5 34.5h-1243
q-104 0 -198.5 -40.5t-163.5 -109t-109.5 -163.5t-40.5 -199q0 -149 80.5 -274.5t214.5 -187.5q-2 -34 -2 -50q0 -118 46.5 -226.5t124.5 -187t186.5 -124.5t227.5 -46q178 0 325.5 99t215.5 263q82 -70 190 -70q121 0 207 86t86 206q0 87 -47 158q149 36 244 155.5
t95 272.5z" />
</svg>
