<?xml version="1.0" standalone="no"?>
<!DOCTYPE svg PUBLIC "-//W3C//DTD SVG 1.1//EN" "http://www.w3.org/Graphics/SVG/1.1/DTD/svg11.dtd" >
<svg xmlns="http://www.w3.org/2000/svg" xmlns:xlink="http://www.w3.org/1999/xlink" version="1.1" viewBox="-10 0 1556 2048">
   <path fill="currentColor"
d="M172 256q-72 0 -122 50t-50 122v1192q0 72 50 122t122 50h1192q72 0 122 -50t50 -122v-1192q0 -72 -50 -122t-122 -50h-1192zM704 448h128v96q52 0 90 38t38 90v212l-12 12l92 160q48 -80 48 -172h128q0 164 -108 292l172 296v128l-112 -64l-156 -276q-112 72 -244 72
t-244 -72l-156 276l-112 64v-128l332 -576l-12 -12v-212q0 -52 38 -90t90 -38v-96zM768 672q-36 0 -58 24t-22 56t24 58t56 24t56 -24t24 -56t-24 -58t-56 -24zM684 988l-96 164q84 56 180 56t180 -56l-96 -164q-36 36 -84 36t-84 -36z" />
</svg>
