<?xml version="1.0" standalone="no"?>
<!DOCTYPE svg PUBLIC "-//W3C//DTD SVG 1.1//EN" "http://www.w3.org/Graphics/SVG/1.1/DTD/svg11.dtd" >
<svg xmlns="http://www.w3.org/2000/svg" xmlns:xlink="http://www.w3.org/1999/xlink" version="1.1" viewBox="-10 0 1596 2048">
   <path fill="currentColor"
d="M296 172q76 0 124 50t50 120t-50 122t-122 50t-120 -50t-50 -120t50 -122t118 -50zM168 596h256q72 0 122 50t50 122v468h-128v640h-340v-640h-128v-468q0 -72 50 -122t118 -50zM1320 684h172l-256 -344l-256 344h172v680h-172l256 344l256 -344h-172v-680zM1576 172
h-680v168h680v-168zM1576 1708h-680v168h680v-168z" />
</svg>
