<?xml version="1.0" standalone="no"?>
<!DOCTYPE svg PUBLIC "-//W3C//DTD SVG 1.1//EN" "http://www.w3.org/Graphics/SVG/1.1/DTD/svg11.dtd" >
<svg xmlns="http://www.w3.org/2000/svg" xmlns:xlink="http://www.w3.org/1999/xlink" version="1.1" viewBox="-10 0 1724 2048">
   <path fill="currentColor"
d="M1460 428h160v-172h-1536v172h160q-116 116 -180 270t-64 326q0 252 132 458t348 310h744q216 -104 348 -310t132 -458q0 -172 -64 -326t-180 -270zM960 1452q-140 0 -252 -72q-36 48 -120 60q-48 12 -164 12q68 0 98 -60t30 -156t-30 -154t-98 -58q116 0 164 8
q84 16 124 68q100 -76 248 -76q132 0 226 62t94 150t-94 152t-226 64zM1192 596q-156 112 -340 112t-340 -112q-124 88 -260 108q44 -88 116 -156l116 -120h736l116 120q72 68 116 156q-136 -20 -260 -108z" />
</svg>
