<?xml version="1.0" standalone="no"?>
<!DOCTYPE svg PUBLIC "-//W3C//DTD SVG 1.1//EN" "http://www.w3.org/Graphics/SVG/1.1/DTD/svg11.dtd" >
<svg xmlns="http://www.w3.org/2000/svg" xmlns:xlink="http://www.w3.org/1999/xlink" version="1.1" viewBox="-10 0 1724 2048">
   <path fill="currentColor"
d="M1420 1620q-60 0 -108 16q-28 12 -68 36l-48 24q-28 12 -58 12t-58 -12l-48 -24q-44 -24 -72 -36q-48 -16 -108 -16t-108 16q-28 12 -68 36l-48 24q-28 12 -60 12t-60 -12l-48 -24q-40 -24 -68 -36q-48 -16 -108 -16t-108 16q-28 12 -68 36l-48 24q-28 12 -60 12v168
q60 0 108 -16q28 -8 68 -32q32 -20 48 -24q28 -12 60 -12t60 12q16 4 48 24q40 24 68 32q48 16 108 16t108 -16q28 -8 68 -32q32 -20 48 -24q28 -12 60 -12t60 12q16 4 48 24q40 24 68 32q48 16 108 16t108 -16q28 -8 68 -32q32 -20 52 -24q24 -12 56 -12t60 12q16 4 48 24
q40 24 68 32q48 16 108 16v-168q-32 0 -56 -12q-20 -8 -48 -24q-44 -24 -72 -36q-44 -16 -108 -16zM568 1492q64 0 108 -16q28 -8 68 -32q32 -20 48 -24q28 -12 60 -12t60 12q16 4 48 24q40 24 68 32q48 16 110 16t106 -16q28 -8 72 -32q28 -20 44 -24q28 -12 60 -12t60 12
q16 4 48 24q40 24 68 32q48 16 108 16v-168q-28 0 -56 -12l-48 -24l-24 -12l-168 -644l176 72l64 -156l-984 -376l-664 820l132 104l120 -152l80 296q-16 -4 -48 -4q-64 0 -108 16q-28 12 -72 36q-28 16 -48 24q-24 12 -56 12v168q60 0 108 -16q28 -8 72 -32q28 -20 48 -24
q28 -12 58 -12t58 12q16 4 48 24q40 24 68 32q48 16 108 16zM1028 868l120 456q-36 0 -68 -12q-16 -4 -52 -24q-40 -24 -68 -36q-48 -16 -108 -16q-40 0 -80 8l-76 -288z" />
</svg>
