<?xml version="1.0" standalone="no"?>
<!DOCTYPE svg PUBLIC "-//W3C//DTD SVG 1.1//EN" "http://www.w3.org/Graphics/SVG/1.1/DTD/svg11.dtd" >
<svg xmlns="http://www.w3.org/2000/svg" xmlns:xlink="http://www.w3.org/1999/xlink" version="1.1" viewBox="-10 0 1512 2048">
   <path fill="currentColor"
d="M296 172q76 0 124 50t50 120t-50 122t-122 50t-120 -50t-50 -120t50 -122t118 -50zM168 596h256q72 0 122 50t50 122v468h-128v640h-340v-640h-128v-468q0 -72 50 -122t118 -50zM1492 684h-512v168h512v-168zM1492 940h-256v168h256v-168zM1492 172h-512v168h512v-168z
M1492 428h-256v168h256v-168zM1492 1196h-512v168h512v-168zM1492 1708h-512v168h512v-168zM1492 1452h-256v168h256v-168z" />
</svg>
