<?xml version="1.0" standalone="no"?>
<!DOCTYPE svg PUBLIC "-//W3C//DTD SVG 1.1//EN" "http://www.w3.org/Graphics/SVG/1.1/DTD/svg11.dtd" >
<svg xmlns="http://www.w3.org/2000/svg" xmlns:xlink="http://www.w3.org/1999/xlink" version="1.1" viewBox="-10 0 1724 2048">
   <path fill="currentColor"
d="M1536 172h-1368q-68 0 -118 50t-50 118v1368q0 68 50 118t118 50h1368q68 0 118 -50t50 -118v-1368q0 -68 -50 -118t-118 -50zM852 340l256 256h-172v172h-168v-172h-172zM424 1280l-256 -256l256 -256v172h172v168h-172v172zM852 1708l-256 -256h172v-172h168v172h172z
M1280 1280v-172h-172v-168h172v-172l256 256z" />
</svg>
