<?xml version="1.0" standalone="no"?>
<!DOCTYPE svg PUBLIC "-//W3C//DTD SVG 1.1//EN" "http://www.w3.org/Graphics/SVG/1.1/DTD/svg11.dtd" >
<svg xmlns="http://www.w3.org/2000/svg" xmlns:xlink="http://www.w3.org/1999/xlink" version="1.1" viewBox="-10 0 1796 2048">
   <path fill="currentColor"
d="M596 172q-160 0 -298 80t-218 218t-80 294t92 368q76 164 204 360q96 136 208 276l92 108l92 -108q112 -140 208 -276q128 -196 204 -360q92 -208 92 -368t-80 -296t-216 -216t-300 -80zM596 556q88 0 150 62t62 150t-62 150t-150 62t-150 -62t-62 -150t62 -150t150 -62z
M1244 1208l-120 120l204 208l-204 204l120 120l204 -204l208 204l120 -120l-208 -204l208 -208l-120 -120l-208 208z" />
</svg>
