<?xml version="1.0" standalone="no"?>
<!DOCTYPE svg PUBLIC "-//W3C//DTD SVG 1.1//EN" "http://www.w3.org/Graphics/SVG/1.1/DTD/svg11.dtd" >
<svg xmlns="http://www.w3.org/2000/svg" xmlns:xlink="http://www.w3.org/1999/xlink" version="1.1" viewBox="-10 0 1388 2048">
   <path fill="currentColor"
d="M684 64q-184 0 -342 92t-250 250t-92 342q0 212 156 508q112 212 292 448q96 128 172 212l64 68l64 -68q76 -84 172 -212q180 -236 292 -448q156 -296 156 -508q0 -184 -92 -342t-250 -250t-342 -92zM684 1728q-188 -228 -324 -460q-188 -320 -188 -520q0 -140 68 -258
t186 -186t258 -68t258 68t186 186t68 258q0 212 -200 544q-128 212 -312 436zM608 1176h152v148h-152v-148zM684 408q-124 0 -212 86t-88 210h152q0 -60 44 -104t104 -44t104 44t44 104q0 44 -28 80q-16 20 -64 60q-64 48 -88 84q-44 60 -44 152h152q0 -56 32 -100
q20 -28 76 -78t80 -82q36 -52 36 -116q0 -124 -88 -210t-212 -86z" />
</svg>
