<?xml version="1.0" standalone="no"?>
<!DOCTYPE svg PUBLIC "-//W3C//DTD SVG 1.1//EN" "http://www.w3.org/Graphics/SVG/1.1/DTD/svg11.dtd" >
<svg xmlns="http://www.w3.org/2000/svg" xmlns:xlink="http://www.w3.org/1999/xlink" version="1.1" viewBox="-10 0 1629 2048">
   <path fill="currentColor"
d="M439 1536q0 30 -21.5 52t-51.5 22t-51.5 -22t-21.5 -52t21.5 -52t51.5 -22t51.5 22t21.5 52zM1609 1606q0 137 -83 216.5t-222 79.5h-999q-139 0 -222 -79.5t-83 -216.5q0 -54 3 -105t12.5 -112t24 -114.5t39.5 -106.5t57 -93.5t79 -71t103 -43.5q-25 60 -25 138v232
q-66 23 -106.5 80t-40.5 126q0 91 64.5 155.5t155.5 64.5t155 -64.5t64 -155.5q0 -69 -40.5 -126t-105.5 -80v-232q0 -73 28 -108q73 57 160 88.5t177.5 31.5t177.5 -31.5t160 -88.5q28 35 28 108v72q-121 0 -206.5 86t-85.5 206v102q-37 34 -37 82q0 45 32 77.5t78 32.5
t78 -32.5t32 -77.5q0 -48 -37 -82v-102q0 -60 43 -103t103 -43t103.5 43.5t43.5 102.5v102q-37 34 -37 82q0 45 32 77.5t78 32.5t77.5 -32.5t31.5 -77.5q0 -49 -36 -82v-102q0 -78 -39.5 -145.5t-106.5 -106.5q0 -7 0.5 -47.5t0 -55.5t-3 -46t-8.5 -54.5t-15 -46.5
q56 13 103 43.5t79 71t57 93.5t39.5 106.5t24 114.5t12.5 112t3 105zM1243 585.5q0 89.5 -34.5 170.5t-93.5 140t-140 93.5t-170 34.5t-170.5 -34.5t-140 -93.5t-93.5 -140t-35 -170.5t35 -170.5t93.5 -140t140 -94t170.5 -35t170 35t140 94t93.5 140t34.5 170.5z" />
</svg>
