<?xml version="1.0" standalone="no"?>
<!DOCTYPE svg PUBLIC "-//W3C//DTD SVG 1.1//EN" "http://www.w3.org/Graphics/SVG/1.1/DTD/svg11.dtd" >
<svg xmlns="http://www.w3.org/2000/svg" xmlns:xlink="http://www.w3.org/1999/xlink" version="1.1" viewBox="-10 0 1212 2048">
   <path fill="currentColor"
d="M596 172q164 0 300 80t216 216t80 300q0 200 -152 488q-112 204 -288 432q-88 116 -156 188l-92 -108q-112 -140 -208 -276q-128 -196 -204 -360q-92 -208 -92 -368t80 -296t216 -216t300 -80zM596 340q-116 0 -214 58t-156 156t-58 214q0 68 16 124q28 108 112 256
q104 188 300 448q196 -260 300 -448q84 -148 112 -256q16 -56 16 -124q0 -116 -58 -214t-156 -156t-214 -58zM512 512h168v428h-168v-428zM512 1108h168v172h-168v-172z" />
</svg>
