<?xml version="1.0" standalone="no"?>
<!DOCTYPE svg PUBLIC "-//W3C//DTD SVG 1.1//EN" "http://www.w3.org/Graphics/SVG/1.1/DTD/svg11.dtd" >
<svg xmlns="http://www.w3.org/2000/svg" xmlns:xlink="http://www.w3.org/1999/xlink" version="1.1" viewBox="-10 0 1724 2048">
   <path fill="currentColor"
d="M1536 172h-1024q-72 0 -122 50t-50 118v1024q0 72 50 122t122 50h1024q68 0 118 -50t50 -122v-1024q0 -68 -50 -118t-118 -50zM1536 1364h-1024v-1024h1024v1024zM896 1280q88 0 150 -62t62 -150v-472h256v-168h-340v468q-60 -44 -128 -44q-88 0 -152 64t-64 152t64 150
t152 62zM168 512h-168v1196q0 68 50 118t118 50h1196v-168h-1196v-1196z" />
</svg>
