<?xml version="1.0" standalone="no"?>
<!DOCTYPE svg PUBLIC "-//W3C//DTD SVG 1.1//EN" "http://www.w3.org/Graphics/SVG/1.1/DTD/svg11.dtd" >
<svg xmlns="http://www.w3.org/2000/svg" xmlns:xlink="http://www.w3.org/1999/xlink" version="1.1" viewBox="-10 0 1212 2048">
   <path fill="currentColor"
d="M596 172q-160 0 -298 80t-218 218t-80 294t92 368q76 164 204 360q96 136 208 276l92 108l92 -108q112 -140 208 -276q128 -196 204 -360q92 -208 92 -366t-80 -296t-218 -218t-298 -80zM392 440l204 208l204 -208l124 120l-208 208l208 204l-124 124l-204 -208l-204 208
l-124 -124l208 -204l-208 -208z" />
</svg>
