<?xml version="1.0" standalone="no"?>
<!DOCTYPE svg PUBLIC "-//W3C//DTD SVG 1.1//EN" "http://www.w3.org/Graphics/SVG/1.1/DTD/svg11.dtd" >
<svg xmlns="http://www.w3.org/2000/svg" xmlns:xlink="http://www.w3.org/1999/xlink" version="1.1" viewBox="-10 0 1724 2048">
   <path fill="currentColor"
d="M852 130q232 0 428 80t310 216t114 300q0 136 -82 256t-228 204t-330 120v-24q0 -76 -24 -144q216 -40 356 -154t140 -258q0 -116 -92 -214t-250 -156t-342 -58t-342 58t-250 156t-92 214q0 152 156 268q-60 68 -88 144q-112 -80 -174 -186t-62 -226q0 -164 114 -300
t310 -216t428 -80zM640 982q124 0 210 88t86 210t-84 210t-204 88q-44 76 20 144q36 40 100 28q44 -4 144 -40q92 -32 144 -48q92 -20 172 -24q172 0 308 24l24 4q24 12 40 28q20 24 16 60t-28 56q-16 12 -40 20l-20 4l-32 -4q-160 -28 -284 -20q-72 0 -140 20
q-40 12 -104 40q-48 16 -68 24q-216 68 -364 -56q-72 -60 -76 -164q0 -68 24 -136q-68 -44 -106 -112t-38 -144q0 -124 88 -212t212 -88zM640 1154q-56 0 -92 36t-36 90t36 92t90 38t92 -38t38 -92t-38 -90t-90 -36z" />
</svg>
