<?xml version="1.0" standalone="no"?>
<!DOCTYPE svg PUBLIC "-//W3C//DTD SVG 1.1//EN" "http://www.w3.org/Graphics/SVG/1.1/DTD/svg11.dtd" >
<svg xmlns="http://www.w3.org/2000/svg" xmlns:xlink="http://www.w3.org/1999/xlink" version="1.1" viewBox="-10 0 1470 2048">
   <path fill="currentColor"
d="M725 340q160 0 286 74t198 206t72 300q-268 104 -556 104t-556 -104q0 -168 72 -300t198 -206t286 -74zM725 172q-200 0 -366 94t-262 262q-96 176 -96 404q4 48 34 90t74 62l148 44v196q0 16 -14 28t-30 12t-30 -12t-14 -28q4 -40 -22 -66t-62 -22q-36 -4 -62 22t-22 66
q-4 84 56 148t148 64h8q92 4 154 -60t58 -152v-156h88v488q0 28 -22 38t-44 0t-22 -38q4 -36 -22 -64t-62 -20q-36 -8 -62 20t-22 64q-8 88 52 154t152 66h8q92 4 154 -58t58 -154v-468h88v468q-4 92 58 154t154 58h8q88 0 148 -62t56 -150q0 -52 -42 -74t-84 0t-42 74
q0 28 -22 38t-44 0t-22 -38v-488h88v156q0 88 62 148t150 56h8q88 0 148 -64t56 -148q0 -56 -42 -76t-84 0t-42 76q0 24 -22 36t-44 0t-22 -36v-196l148 -44q44 -24 74 -64t34 -88q0 -228 -96 -404q-96 -168 -262 -262t-366 -94zM725 528q-96 28 -174 84t-134 140
q-16 20 -40 16t-34 -26t6 -42q64 -96 156 -162t204 -94q16 -4 32 6t20 26q12 36 -36 52z" />
</svg>
