<?xml version="1.0" standalone="no"?>
<!DOCTYPE svg PUBLIC "-//W3C//DTD SVG 1.1//EN" "http://www.w3.org/Graphics/SVG/1.1/DTD/svg11.dtd" >
<svg xmlns="http://www.w3.org/2000/svg" xmlns:xlink="http://www.w3.org/1999/xlink" version="1.1" viewBox="-10 0 1470 2048">
   <path fill="currentColor"
d="M1365 1234q-36 -4 -62 22t-22 66q0 24 -22 36t-44 0t-22 -36v-196l148 -44q44 -24 74 -64t34 -88q0 -228 -96 -404q-96 -168 -262 -262t-366 -94t-366 94t-262 262q-96 176 -96 404q4 48 34 90t74 62l148 44v196q0 16 -14 28t-30 12t-30 -12t-14 -28q4 -40 -22 -66
t-62 -22q-36 -4 -62 22t-22 66q-4 88 58 152t154 64t154 -64t58 -152v-156h88v488q0 28 -22 38t-44 0t-22 -38q4 -36 -22 -64t-62 -20q-36 -8 -62 20t-22 64q-8 92 56 158t156 66t154 -62t58 -154v-468h88v468q-4 92 58 154t154 62t154 -62t58 -154q0 -52 -42 -74t-84 0
t-42 74q0 28 -22 38t-44 0t-22 -38v-488h88v156q0 88 62 148t152 60t152 -64t58 -152q4 -40 -22 -66t-62 -22zM605 398q-96 24 -176 80t-132 144q-8 12 -26 16t-32 -8t-16 -30t6 -30q64 -96 156 -162t204 -94q16 0 30 8t20 26t-4 32t-30 18z" />
</svg>
