<?xml version="1.0" standalone="no"?>
<!DOCTYPE svg PUBLIC "-//W3C//DTD SVG 1.1//EN" "http://www.w3.org/Graphics/SVG/1.1/DTD/svg11.dtd" >
<svg xmlns="http://www.w3.org/2000/svg" xmlns:xlink="http://www.w3.org/1999/xlink" version="1.1" viewBox="-10 0 1724 2048">
   <path fill="currentColor"
d="M1280 1154h168v256h256v168h-256v256h-168v-256h-256v-168h256v-256zM1536 898v-256h-1368v256h1368zM936 1066v144q-84 128 -84 284q0 140 68 256h-752q-68 0 -118 -50t-50 -122v-1364l140 144l144 -144l140 144l144 -144l140 144l144 -144l144 144l140 -144l144 144
l140 -144l144 144l140 -144v896q-148 -128 -340 -128q-156 0 -284 84h-144zM768 1578v-512h-600v512h600z" />
</svg>
