<?xml version="1.0" standalone="no"?>
<!DOCTYPE svg PUBLIC "-//W3C//DTD SVG 1.1//EN" "http://www.w3.org/Graphics/SVG/1.1/DTD/svg11.dtd" >
<svg xmlns="http://www.w3.org/2000/svg" xmlns:xlink="http://www.w3.org/1999/xlink" version="1.1" viewBox="-10 0 1629 2048">
   <path fill="currentColor"
d="M1463 804q0 -30 -21.5 -51t-51.5 -21t-51.5 21t-21.5 51t21.5 52t51.5 22t51.5 -22t21.5 -52zM1609 804q0 72 -40.5 128t-105.5 80v450q0 90 -40.5 171t-109.5 140t-163.5 94t-198.5 35t-198.5 -35t-163.5 -94t-109.5 -140t-40.5 -171v-150q-123 -15 -223 -76
t-158 -155.5t-58 -202.5v-586q0 -30 21.5 -51t51.5 -21q6 0 18 2q19 -35 53 -55.5t75 -20.5q61 0 104 43t43 103.5t-43 103t-104 42.5q-39 0 -73 -20v460q0 79 49 146.5t133.5 106.5t183.5 39t183.5 -39t133.5 -106.5t49 -146.5v-460q-34 20 -73 20q-61 0 -104 -42.5
t-43 -103t43 -103.5t104 -43q41 0 75 20.5t53 55.5q12 -2 18 -2q30 0 51.5 21t21.5 51v586q0 108 -58 202.5t-158 155.5t-223 76v150q0 80 49 147.5t133.5 107t183.5 39.5t183.5 -39.5t133.5 -107t49 -147.5v-450q-66 -24 -106.5 -80.5t-40.5 -127.5q0 -90 64.5 -154
t155.5 -64t155 64t64 154z" />
</svg>
