<?xml version="1.0" standalone="no"?>
<!DOCTYPE svg PUBLIC "-//W3C//DTD SVG 1.1//EN" "http://www.w3.org/Graphics/SVG/1.1/DTD/svg11.dtd" >
<svg xmlns="http://www.w3.org/2000/svg" xmlns:xlink="http://www.w3.org/1999/xlink" version="1.1" viewBox="-10 0 1724 2048">
   <path fill="currentColor"
d="M852 256l204 292q-100 -36 -204 -36t-204 36zM112 680l356 -28q-80 68 -132 156t-72 196zM1592 680l-152 324q-20 -104 -72 -196t-132 -156zM1024 1364q0 -36 -26 -60t-62 -24h-852q-36 0 -60 24t-24 60t24 60t60 24h852q36 0 62 -24t26 -60zM1704 1364q0 -36 -24 -60
t-60 -24h-340q-36 0 -62 24t-26 60t26 60t62 24h340q36 0 60 -24t24 -60zM680 1704q0 36 26 62t62 26h768q36 0 60 -26t24 -62t-24 -60t-60 -24h-768q-36 0 -62 24t-26 60zM84 1704q0 36 24 62t60 26h256q36 0 62 -26t26 -62t-26 -60t-62 -24h-256q-36 0 -60 24t-24 60z
M852 852q108 0 182 74t74 182h172q0 -116 -58 -214t-156 -156t-214 -58t-214 58t-156 156t-58 214h172q0 -108 74 -182t182 -74z" />
</svg>
