<?xml version="1.0" standalone="no"?>
<!DOCTYPE svg PUBLIC "-//W3C//DTD SVG 1.1//EN" "http://www.w3.org/Graphics/SVG/1.1/DTD/svg11.dtd" >
<svg xmlns="http://www.w3.org/2000/svg" xmlns:xlink="http://www.w3.org/1999/xlink" version="1.1" viewBox="-10 0 1900 2048">
   <path fill="currentColor"
d="M256 1397q-8 -36 10 -66t54 -42l192 -52l-140 -140q-28 -24 -28 -60t26 -62t64 -26t62 24l140 140l52 -192q8 -36 40 -54t66 -8t52 42t10 68l-52 192l192 -52q36 -8 68 10t42 52t-8 66t-54 40l-192 52l140 140q24 24 24 62t-26 64t-62 26t-60 -28l-140 -140l-52 192
q-12 36 -42 54t-66 8t-54 -40t-10 -66l52 -192l-192 52q-36 8 -66 -10t-42 -54zM0 853q0 -84 34 -162t94 -138t138 -92t162 -32q64 -156 202 -250t310 -94q144 0 268 70t200 186t88 260l40 -4q144 0 244 100t100 242t-100 242t-244 100q-36 0 -60 -24t-24 -60t24 -62t60 -26
q72 0 122 -50t50 -120t-50 -120t-122 -50h-168v-84q0 -116 -58 -214t-156 -156t-214 -58q-160 0 -278 102t-142 254q-48 -16 -92 -16q-108 0 -182 76t-74 182t76 182q24 28 24 62t-24 58t-60 24t-60 -24q-60 -60 -94 -138t-34 -166zM1112 1745q8 24 30 36t46 8l136 -40
l-36 136q-8 28 4 48t38 28t48 -6t26 -38l36 -132l100 96q16 20 42 20t44 -18t18 -44t-16 -42l-100 -100l132 -36q28 -8 40 -30t6 -46t-28 -36t-46 -8l-136 40l36 -136q8 -28 -6 -48t-38 -28t-46 6t-30 38l-32 132l-100 -96q-20 -20 -46 -20t-44 18t-18 44t20 42l100 100
l-136 36q-24 8 -36 30t-8 46z" />
</svg>
