<?xml version="1.0" standalone="no"?>
<!DOCTYPE svg PUBLIC "-//W3C//DTD SVG 1.1//EN" "http://www.w3.org/Graphics/SVG/1.1/DTD/svg11.dtd" >
<svg xmlns="http://www.w3.org/2000/svg" xmlns:xlink="http://www.w3.org/1999/xlink" version="1.1" viewBox="-10 0 1720 2048">
   <path fill="currentColor"
d="M788 238l-44 40q-84 -48 -182 -56t-190 20l-8 -4q-60 -64 -150 -64t-152 62t-62 152t64 150l4 8q-28 92 -20 190t56 182l-40 44q-40 36 -40 88t40 92l120 120q36 36 90 36t90 -36l32 -32l604 604q36 40 88 40t92 -40l480 -480q40 -40 40 -92t-40 -92l-604 -600l32 -32
q36 -36 36 -90t-36 -90l-120 -120q-36 -40 -90 -40t-90 40zM188 598q8 -40 32 -84l-68 -68q-12 -12 -20 -32t-2 -44t24 -42t42 -24t44 2t32 20l68 68q44 -24 84 -32q116 -36 224 12l-448 448q-48 -108 -12 -224zM1572 1262l-484 484l-604 -604l484 -484zM1000 446l-728 728
l-120 -124l724 -724zM1088 990l-272 272l-92 -88l276 -276zM1268 1174l-268 268l-92 -88l272 -272z" />
</svg>
