<?xml version="1.0" standalone="no"?>
<!DOCTYPE svg PUBLIC "-//W3C//DTD SVG 1.1//EN" "http://www.w3.org/Graphics/SVG/1.1/DTD/svg11.dtd" >
<svg xmlns="http://www.w3.org/2000/svg" xmlns:xlink="http://www.w3.org/1999/xlink" version="1.1" viewBox="-10 0 1804 2048">
   <path fill="currentColor"
d="M1528 1246q-44 0 -84 16v-16q0 -112 -48 -214t-128 -174q28 -156 -48 -300t-224 -212q-116 -52 -240 -38t-226 88t-154 190q-56 124 -36 256t104 232h-24q-140 0 -240 100t-100 242t100 242t240 100h84l24 -4q24 -4 40 -20q24 -24 24 -62t-24 -58q-16 -16 -40 -24l-24 -4
h-84q-72 0 -122 -50t-50 -120t50 -120t122 -50h172q0 -140 100 -240t240 -100t240 100t100 240v172h256q36 0 62 24t26 60t-26 60t-62 24h-168l-24 4q-24 8 -40 24q-24 20 -24 58t24 62q16 16 40 20l24 4h168q108 0 182 -74t74 -182t-74 -182t-182 -74zM932 734
q-116 0 -218 48t-174 132q-32 -56 -34 -126t26 -134q48 -112 164 -156t232 4q76 36 124 106t52 154q-84 -28 -172 -28zM1064 190q-72 -28 -144 -44l216 -112l76 248q-68 -52 -148 -92zM428 258q-64 44 -112 104l12 -240l252 56q-80 28 -152 80zM1444 710q-12 -80 -36 -148
l204 128l-176 192q16 -80 8 -172zM168 846q8 72 32 144l-200 -128l172 -188q-12 88 -4 172zM916 1246h208l-140 280h140l-260 488l52 -348h-176z" />
</svg>
