<?xml version="1.0" standalone="no"?>
<!DOCTYPE svg PUBLIC "-//W3C//DTD SVG 1.1//EN" "http://www.w3.org/Graphics/SVG/1.1/DTD/svg11.dtd" >
<svg xmlns="http://www.w3.org/2000/svg" xmlns:xlink="http://www.w3.org/1999/xlink" version="1.1" viewBox="-10 0 1812 2048">
   <path fill="currentColor"
d="M1704 920q-32 4 -60 4q-128 0 -246 -48t-214 -140q-104 -104 -152 -242t-32 -278q0 -32 -28 -60t-60 -28q-16 0 -32 12q-48 36 -84 68q-144 148 -178 348t50 380q-100 44 -170 124t-98 184l-60 -4q-140 0 -240 100t-100 240t100 240t240 100h1108q108 0 182 -74t74 -180
t-74 -182t-182 -76q-72 0 -132 40l4 -80q0 -40 -4 -60q232 -20 396 -184q28 -28 68 -84q24 -32 -4 -76t-68 -44h-4zM1448 1580q36 0 62 24t26 60t-26 62t-62 26h-1108q-72 0 -122 -50t-50 -122t50 -122t122 -50h212v-40q0 -100 58 -178t150 -106q24 -8 44 -12q32 -4 52 -4
t52 4q8 4 20 8q20 4 32 8l20 12q16 4 28 16l20 12l40 36l36 44l24 48q24 52 24 112v212h296zM1264 1140q-60 -108 -170 -176t-242 -68h-12q-60 -108 -60 -232t60 -232q48 248 226 424t422 224q-100 60 -224 60z" />
</svg>
