<?xml version="1.0" standalone="no"?>
<!DOCTYPE svg PUBLIC "-//W3C//DTD SVG 1.1//EN" "http://www.w3.org/Graphics/SVG/1.1/DTD/svg11.dtd" >
<svg xmlns="http://www.w3.org/2000/svg" xmlns:xlink="http://www.w3.org/1999/xlink" version="1.1" viewBox="-11 0 1711 2048">
   <path fill="currentColor"
d="M778 233l-44 40q-84 -48 -182 -56t-190 20l-8 -4q-64 -56 -148 -54t-144 62t-62 144t54 148l4 8q-28 92 -20 190t56 182l-40 44q-40 36 -40 88t40 92l120 120q36 40 90 40t90 -40l32 -32l604 604q36 40 88 40t92 -40l480 -480q40 -40 40 -92t-40 -88l-604 -604l32 -32
q40 -36 40 -90t-40 -90l-120 -120q-40 -40 -92 -40t-88 40zM990 441l-728 728l-120 -124l724 -724zM1078 985l-272 272l-92 -88l276 -276zM1258 1169l-268 268l-92 -88l272 -272z" />
</svg>
