<?xml version="1.0" standalone="no"?>
<!DOCTYPE svg PUBLIC "-//W3C//DTD SVG 1.1//EN" "http://www.w3.org/Graphics/SVG/1.1/DTD/svg11.dtd" >
<svg xmlns="http://www.w3.org/2000/svg" xmlns:xlink="http://www.w3.org/1999/xlink" version="1.1" viewBox="-10 0 1804 2048">
   <path fill="currentColor"
d="M996 346q148 68 224 212t48 300q80 72 128 174t48 214v16q40 -16 84 -16q108 0 182 74t74 182t-74 182t-182 74h-168l-24 -4q-24 -4 -40 -20q-24 -24 -24 -60q0 -56 44 -76q20 -12 44 -12h168q36 0 62 -24t26 -60t-26 -60t-62 -24h-256v-172q0 -140 -100 -240t-240 -100
t-240 100t-100 240h-172q-72 0 -122 50t-50 120t50 120t122 50h84l24 4q24 8 40 24q24 20 24 58t-24 62q-16 16 -40 20l-24 4h-84q-140 0 -240 -100t-100 -242t100 -242t240 -100h24q-84 -100 -104 -232t36 -256q52 -116 154 -190t226 -88t240 38zM928 502q-116 -48 -232 -4
t-164 156q-28 64 -26 134t34 126q72 -84 174 -132t218 -48q88 0 172 28q-4 -84 -52 -154t-124 -106zM1064 190q-72 -28 -144 -44l216 -112l76 248q-68 -52 -148 -92zM428 258q-64 44 -112 104l12 -240l252 56q-80 28 -152 80zM1444 710q-12 -80 -36 -148l204 128l-176 192
q16 -80 8 -172zM168 846q8 72 32 144l-200 -128l172 -188q-12 88 -4 172zM932 1578q84 132 84 180q0 36 -24 60t-60 24t-60 -24t-24 -60q0 -48 84 -180zM932 1298q-32 40 -68 84q-76 96 -120 180q-68 120 -68 196q0 108 74 182t182 74t182 -74t74 -182q0 -76 -68 -196
q-44 -84 -120 -180z" />
</svg>
