<?xml version="1.0" standalone="no"?>
<!DOCTYPE svg PUBLIC "-//W3C//DTD SVG 1.1//EN" "http://www.w3.org/Graphics/SVG/1.1/DTD/svg11.dtd" >
<svg xmlns="http://www.w3.org/2000/svg" xmlns:xlink="http://www.w3.org/1999/xlink" version="1.1" viewBox="-10 0 1804 2048">
   <path fill="currentColor"
d="M1064 191q-64 -28 -144 -44l216 -112l76 248q-68 -56 -148 -92zM428 259q-64 44 -112 100l12 -240l252 60q-80 24 -152 80zM1444 707q-12 -80 -36 -144l204 128l-176 192q16 -84 8 -176zM168 843q8 72 32 148l-200 -128l172 -192q-12 88 -4 172zM1332 1859q0 64 -44 108
t-104 44t-104 -44t-44 -108t76 -176q36 -52 72 -96l40 48q40 56 68 108q40 72 40 116zM424 1795q-8 -28 4 -48t40 -28l132 -36l-100 -100q-16 -16 -16 -42t18 -44t44 -18t46 20l96 96l36 -132q4 -28 26 -40t48 -6t38 28t4 50l-36 132l136 -36q28 -4 48 8t28 36t-6 46t-38 30
l-136 36l100 96q20 20 20 46t-18 44t-44 18t-46 -20l-96 -100l-36 136q-8 24 -30 38t-46 6t-38 -30t-6 -46l36 -132l-136 32q-24 8 -46 -4t-26 -36zM1528 1247q-44 0 -84 12v-12q0 -116 -48 -216t-128 -172q28 -160 -48 -304t-224 -208q-116 -52 -240 -38t-226 86t-154 188
q-56 124 -36 256t104 236h-24q-140 0 -240 100t-100 240q0 72 28 136t80 112l16 16q24 12 44 12q32 0 60 -28q36 -36 24 -84q-8 -20 -24 -36q-60 -52 -60 -124t50 -122t122 -50h172q0 -144 100 -244t240 -100t240 100t100 244v168h256q36 0 62 26t26 60t-26 60t-62 26h-84
l-24 4q-24 4 -40 20q-20 24 -20 60q0 56 40 76q24 12 44 12h84q108 0 182 -76t74 -182t-74 -180t-182 -74zM932 735q-116 0 -218 48t-174 132q-32 -60 -34 -128t26 -132q48 -116 164 -160t232 8q76 36 124 106t52 154q-84 -28 -172 -28z" />
</svg>
