<?xml version="1.0" standalone="no"?>
<!DOCTYPE svg PUBLIC "-//W3C//DTD SVG 1.1//EN" "http://www.w3.org/Graphics/SVG/1.1/DTD/svg11.dtd" >
<svg xmlns="http://www.w3.org/2000/svg" xmlns:xlink="http://www.w3.org/1999/xlink" version="1.1" viewBox="-10 0 1724 2048">
   <path fill="currentColor"
d="M680 386q-332 0 -480 56q-200 80 -200 284v852q0 116 84 192v152q0 32 26 58t58 26h88q32 0 58 -26t26 -58v-88h684v88q0 32 24 58t60 26h84q36 0 62 -26t26 -58v-152q84 -76 84 -192v-852q0 -204 -200 -284q-152 -56 -484 -56zM296 1666q-52 0 -90 -38t-38 -92t38 -90
t92 -36t90 36t36 90t-36 92t-92 38zM1064 1666q-52 0 -90 -38t-38 -92t38 -90t92 -36t90 36t36 90t-36 92t-92 38zM1192 1154h-1024v-428h1024v428zM1704 386v852q0 112 -84 188v152q0 36 -26 62t-58 26h-12q12 -48 12 -88v-852q0 -232 -164 -360q-128 -100 -356 -132
q-128 -20 -336 -20q-188 0 -300 16q64 -112 244 -152q140 -36 400 -36q332 0 480 60q200 76 200 284z" />
</svg>
