<?xml version="1.0" standalone="no"?>
<!DOCTYPE svg PUBLIC "-//W3C//DTD SVG 1.1//EN" "http://www.w3.org/Graphics/SVG/1.1/DTD/svg11.dtd" >
<svg xmlns="http://www.w3.org/2000/svg" xmlns:xlink="http://www.w3.org/1999/xlink" version="1.1" viewBox="-11 0 1553 2048">
   <path fill="currentColor"
d="M172 1877q-76 0 -124 -108q-32 -80 -44 -172q-16 -120 28 -232q16 -52 60 -88t100 -48q40 -8 88 4q28 4 84 28t88 32q56 16 100 -22t32 -98q-24 -92 -180 -128q-88 -20 -232 -20q0 -108 100 -148q80 -32 194 -20t222 48q12 4 40 20q64 32 96 28q52 -4 66 -46t-10 -86
q-80 -136 -412 -136q0 -120 92 -164q76 -36 200 -16q108 24 212 68l28 12q36 20 56 24q32 12 60 4q56 -20 48 -64q-4 -36 -44 -80q-32 -40 -64 -56q-60 -32 -124 -52l-28 -4q-32 -8 -42 -18t10 -38q100 -88 232 -108q156 -36 260 -12q140 36 164 172q20 164 -72 304
q-240 412 -584 736q-180 188 -392 340l-4 4q-92 64 -144 92q-88 48 -160 48z" />
</svg>
