<?xml version="1.0" standalone="no"?>
<!DOCTYPE svg PUBLIC "-//W3C//DTD SVG 1.1//EN" "http://www.w3.org/Graphics/SVG/1.1/DTD/svg11.dtd" >
<svg xmlns="http://www.w3.org/2000/svg" xmlns:xlink="http://www.w3.org/1999/xlink" version="1.1" viewBox="-10 0 1804 2048">
   <path fill="currentColor"
d="M420 1587q-72 0 -122 -50t-50 -120t50 -120t122 -50h172q0 -144 100 -244t240 -100t240 100t100 244v168h256q36 0 62 26t26 60t-26 60t-62 26h-168l-24 4q-24 4 -40 20q-24 24 -24 60q0 56 44 76q20 12 44 12h168q108 0 182 -76t74 -182t-74 -180t-182 -74q-44 0 -84 12
v-12q0 -116 -48 -216t-128 -172q28 -160 -48 -304t-224 -208q-116 -52 -240 -38t-226 86t-154 188q-56 124 -36 256t104 236h-24q-140 0 -240 100t-100 242t100 242t240 100l24 -4q24 -8 40 -24q20 -20 20 -58t-20 -62q-16 -16 -40 -20zM932 735q-116 0 -218 48t-174 132
q-32 -60 -34 -128t26 -132q48 -116 164 -160t232 8q76 36 124 106t52 154q-84 -28 -172 -28zM1064 191q-64 -28 -144 -44l216 -112l76 248q-68 -56 -148 -92zM428 259q-64 44 -112 100l12 -240l252 60q-80 24 -152 80zM1444 707q-12 -80 -36 -144l204 128l-176 192
q16 -84 8 -176zM168 843q8 72 32 148l-200 -128l172 -192q-12 88 -4 172zM592 1795q8 24 30 36t46 4l136 -32l-36 132q-8 24 4 46t38 30t48 -6t26 -38l36 -136l100 100q16 20 42 20t44 -18t18 -44t-16 -46l-100 -100l136 -32q24 -8 36 -30t6 -46t-28 -36t-46 -8l-136 36
l36 -132q8 -28 -6 -50t-38 -28t-46 6t-30 40l-32 132l-100 -100q-16 -16 -44 -16t-44 18t-16 44t16 42l100 100l-136 36q-24 8 -36 28t-8 48z" />
</svg>
