<?xml version="1.0" standalone="no"?>
<!DOCTYPE svg PUBLIC "-//W3C//DTD SVG 1.1//EN" "http://www.w3.org/Graphics/SVG/1.1/DTD/svg11.dtd" >
<svg xmlns="http://www.w3.org/2000/svg" xmlns:xlink="http://www.w3.org/1999/xlink" version="1.1" viewBox="-10 0 1900 2048">
   <path fill="currentColor"
d="M1704 940q-20 -176 -114 -324t-242 -242t-324 -114v-176h-168v176q-148 16 -272 84l128 128q112 -44 228 -44q164 0 300 80t216 216t80 300q0 116 -40 228l128 128q64 -124 80 -272h176v-168h-176zM172 364l176 176q-148 176 -172 400h-176v168h176q20 176 114 324
t242 242t324 114v176h168v-176q224 -28 400 -172l176 176l108 -108l-1428 -1428zM1304 1496q-160 124 -364 124q-164 0 -300 -80t-216 -216t-80 -300q0 -204 124 -364z" />
</svg>
