<?xml version="1.0" standalone="no"?>
<!DOCTYPE svg PUBLIC "-//W3C//DTD SVG 1.1//EN" "http://www.w3.org/Graphics/SVG/1.1/DTD/svg11.dtd" >
<svg xmlns="http://www.w3.org/2000/svg" xmlns:xlink="http://www.w3.org/1999/xlink" version="1.1" viewBox="-10 0 1724 2048">
   <path fill="currentColor"
d="M168 256q-68 0 -118 50t-50 122v256h1704v-256q0 -72 -50 -122t-118 -50h-1368zM680 428h344v84h-344v-84zM0 768v428h1704v-428h-1704zM680 940h344v84h-344v-84zM0 1280v256q0 72 50 122t118 50v84h172v-84h1024v84h172v-84q68 0 118 -50t50 -122v-256h-1704zM680 1452
h344v84h-344v-84z" />
</svg>
