<?xml version="1.0" standalone="no"?>
<!DOCTYPE svg PUBLIC "-//W3C//DTD SVG 1.1//EN" "http://www.w3.org/Graphics/SVG/1.1/DTD/svg11.dtd" >
<svg xmlns="http://www.w3.org/2000/svg" xmlns:xlink="http://www.w3.org/1999/xlink" version="1.1" viewBox="-10 0 1556 2048">
   <path fill="currentColor"
d="M1364 1620h-340v172h340q72 0 122 -50t50 -122v-340h-172v340zM1364 256h-340v172h340v340h172v-340q0 -72 -50 -122t-122 -50zM172 428h340v-172h-340q-72 0 -122 50t-50 122v340h172v-340zM172 1280h-172v340q0 72 50 122t122 50h340v-172h-340v-340zM340 940h172v168
h-172v-168zM684 940h168v168h-168v-168zM1024 940h172v168h-172v-168zM340 596h172v172h-172v-172zM684 596h168v172h-168v-172zM1024 596h172v172h-172v-172zM340 1280h172v172h-172v-172zM684 1280h168v172h-168v-172zM1024 1280h172v172h-172v-172z" />
</svg>
