<?xml version="1.0" standalone="no"?>
<!DOCTYPE svg PUBLIC "-//W3C//DTD SVG 1.1//EN" "http://www.w3.org/Graphics/SVG/1.1/DTD/svg11.dtd" >
<svg xmlns="http://www.w3.org/2000/svg" xmlns:xlink="http://www.w3.org/1999/xlink" version="1.1" viewBox="-10 0 1900 2048">
   <path fill="currentColor"
d="M0 596h172v1196h1196v172h-1196q-72 0 -122 -50t-50 -122v-1196zM1536 84h-1024q-68 0 -118 50t-50 122v1196q0 68 50 118t118 50h1196q72 0 122 -50t50 -118v-1024zM1708 1452h-1196v-1196h956l240 240v956zM1112 852q-108 0 -182 76t-74 182t74 180t180 74t182 -74
t76 -180t-76 -182t-180 -76zM600 340h768v344h-768v-344z" />
</svg>
