<?xml version="1.0" standalone="no"?>
<!DOCTYPE svg PUBLIC "-//W3C//DTD SVG 1.1//EN" "http://www.w3.org/Graphics/SVG/1.1/DTD/svg11.dtd" >
<svg xmlns="http://www.w3.org/2000/svg" xmlns:xlink="http://www.w3.org/1999/xlink" version="1.1" viewBox="-10 0 1642 2048">
   <path fill="currentColor"
d="M662 1780q104 -44 108 -148q0 -92 -68 -180q-48 -72 -132 -140q-52 -44 -152 -112q-120 -76 -200 -176l-4 -4q-28 -36 -36 -52q-12 -28 16 -36q40 -8 152 44l32 16q124 52 224 112l88 -144q-108 -68 -224 -116q-128 -56 -240 -72q-76 -12 -132 8q-64 28 -84 96
q-36 104 64 236q48 60 116 120l132 96q132 92 188 148v4q64 60 80 100q12 28 8 34t-36 6q-68 0 -168 -48q-60 -28 -156 -92l-84 148q144 88 244 124q160 64 264 28zM1610 448q12 -16 12 -34t-12 -34l-112 -112q-16 -12 -34 -12t-34 12l-88 88l180 180zM770 932v176h176
l524 -524l-176 -176z" />
</svg>
