<?xml version="1.0" standalone="no"?>
<!DOCTYPE svg PUBLIC "-//W3C//DTD SVG 1.1//EN" "http://www.w3.org/Graphics/SVG/1.1/DTD/svg11.dtd" >
<svg xmlns="http://www.w3.org/2000/svg" xmlns:xlink="http://www.w3.org/1999/xlink" version="1.1" viewBox="-10 0 1212 2048">
   <path fill="currentColor"
d="M168 172q-68 0 -118 50t-50 118v1280q0 72 50 122t118 50v84h172v-84h512v84h172v-84q68 0 118 -50t50 -122v-1280q0 -68 -50 -118t-118 -50h-856zM168 340h856v256h-856v-256zM168 768h856v256h-856v-256zM168 1196h344v424h-344v-424zM680 1196h344v424h-344v-424z
M256 1280v256h168v-256h-168zM768 1280v256h168v-256h-168z" />
</svg>
