<?xml version="1.0" standalone="no"?>
<!DOCTYPE svg PUBLIC "-//W3C//DTD SVG 1.1//EN" "http://www.w3.org/Graphics/SVG/1.1/DTD/svg11.dtd" >
<svg xmlns="http://www.w3.org/2000/svg" xmlns:xlink="http://www.w3.org/1999/xlink" version="1.1" viewBox="-10 0 1900 2048">
   <path fill="currentColor"
d="M1024 768h-852v-340h852v340zM768 1620q-108 0 -182 -72t-74 -182t74 -184t184 -74t182 74t72 184t-72 182t-184 72zM1196 256h-1024q-72 0 -122 50t-50 122v1192q0 72 50 122t122 50h1196q68 0 118 -50t50 -122v-1024zM1880 1108h-172v-512h172v512zM1880 1452h-172
v-172h172v172z" />
</svg>
