<?xml version="1.0" standalone="no"?>
<!DOCTYPE svg PUBLIC "-//W3C//DTD SVG 1.1//EN" "http://www.w3.org/Graphics/SVG/1.1/DTD/svg11.dtd" >
<svg xmlns="http://www.w3.org/2000/svg" xmlns:xlink="http://www.w3.org/1999/xlink" version="1.1" viewBox="-10 0 1724 2048">
   <path fill="currentColor"
d="M1448 642q72 0 122 50t50 118v580q84 76 84 186t-74 184t-180 74t-182 -74t-76 -184t88 -186v-580q0 -68 50 -118t118 -50zM1448 726q-32 0 -58 26t-26 58v88h172v-88q0 -32 -26 -58t-62 -26zM256 1666v-684h-256l852 -768l376 336q-56 48 -88 116t-32 144v512
q-84 112 -84 256l8 88h-776z" />
</svg>
