<?xml version="1.0" standalone="no"?>
<!DOCTYPE svg PUBLIC "-//W3C//DTD SVG 1.1//EN" "http://www.w3.org/Graphics/SVG/1.1/DTD/svg11.dtd" >
<svg xmlns="http://www.w3.org/2000/svg" xmlns:xlink="http://www.w3.org/1999/xlink" version="1.1" viewBox="-10 0 1629 2048">
   <path fill="currentColor"
d="M731 73v731q0 70 -40.5 127t-105.5 80v890q0 60 -43 103.5t-103 43.5h-146q-60 0 -103.5 -43.5t-43.5 -103.5v-890q-65 -23 -105.5 -80t-40.5 -127v-731q0 -30 21.5 -51.5t51.5 -21.5t51.5 21.5t21.5 51.5v475q0 30 21.5 51.5t51.5 21.5t52 -21.5t22 -51.5v-475
q0 -30 21.5 -51.5t51.5 -21.5t51.5 21.5t21.5 51.5v475q0 30 21.5 51.5t51.5 21.5t51.5 -21.5t21.5 -51.5v-475q0 -30 21.5 -51.5t51.5 -21.5t51.5 21.5t21.5 51.5zM1609 73v1828q0 60 -43 103.5t-103 43.5h-146q-60 0 -103.5 -43.5t-43.5 -103.5v-585h-256q-14 0 -25 -11
t-11 -25v-915q0 -151 107 -258t258 -107h293q30 0 51.5 21.5t21.5 51.5z" />
</svg>
