<?xml version="1.0" standalone="no"?>
<!DOCTYPE svg PUBLIC "-//W3C//DTD SVG 1.1//EN" "http://www.w3.org/Graphics/SVG/1.1/DTD/svg11.dtd" >
<svg xmlns="http://www.w3.org/2000/svg" xmlns:xlink="http://www.w3.org/1999/xlink" version="1.1" viewBox="-10 0 1900 2048">
   <path fill="currentColor"
d="M768 1708v-172h-596q-72 0 -122 -50t-50 -122v-1024q0 -68 50 -118t122 -50h1536q72 0 122 50t50 118v344h-172v-344h-1536v1024h768v512h-340v-168h168zM1496 1280q-88 0 -152 62t-64 150t64 152t152 64t150 -64t62 -152t-62 -150t-150 -62zM1880 852v940q0 36 -26 60
t-62 24h-596q-36 0 -60 -24t-24 -60v-940q0 -32 24 -58t60 -26h596q36 0 62 26t26 58zM1368 980q0 56 36 92t90 36t92 -36t38 -90t-38 -92t-92 -38t-90 38t-36 90zM1792 1492q0 -124 -86 -210t-210 -86t-212 86t-88 210t88 212t212 88t210 -88t86 -212z" />
</svg>
