<?xml version="1.0" standalone="no"?>
<!DOCTYPE svg PUBLIC "-//W3C//DTD SVG 1.1//EN" "http://www.w3.org/Graphics/SVG/1.1/DTD/svg11.dtd" >
<svg xmlns="http://www.w3.org/2000/svg" xmlns:xlink="http://www.w3.org/1999/xlink" version="1.1" viewBox="-10 0 1300 2048">
   <path fill="currentColor"
d="M1152 426q52 0 90 36t38 90t-38 92t-92 38t-90 -38t-36 -92t36 -90t92 -36zM1152 938q52 0 90 36t38 90t-38 92t-92 38t-90 -38t-36 -92t36 -90t92 -36zM424 338q-116 0 -214 58t-154 156t-56 214v84q0 72 48 120t116 50t120 -44t56 -116t-42 -122t-114 -56
q28 -76 94 -124t146 -48q144 0 244 100t100 240q0 232 -146 402t-454 298l68 160q352 -152 526 -364t174 -496q0 -136 -68 -254t-186 -188t-258 -70z" />
</svg>
