<?xml version="1.0" standalone="no"?>
<!DOCTYPE svg PUBLIC "-//W3C//DTD SVG 1.1//EN" "http://www.w3.org/Graphics/SVG/1.1/DTD/svg11.dtd" >
<svg xmlns="http://www.w3.org/2000/svg" xmlns:xlink="http://www.w3.org/1999/xlink" version="1.1" viewBox="-10 0 1775 2048">
   <path fill="currentColor"
d="M1678 434q32 32 54.5 86.5t22.5 100.5v1317q0 46 -31.5 78t-77.5 32h-1536q-46 0 -78 -32t-32 -78v-1829q0 -46 32 -77.5t78 -31.5h1024q46 0 100.5 22.5t86.5 54.5zM1170 155v430h430q-13 -35 -25 -47l-358 -358q-12 -12 -47 -25zM1609 1901v-1170h-475q-46 0 -78 -32
t-32 -78v-475h-878v1755h1463zM439 914q0 -16 10 -26.5t26 -10.5h805q16 0 26.5 10.5t10.5 26.5v73q0 16 -10.5 26.5t-26.5 10.5h-805q-16 0 -26 -10.5t-10 -26.5v-73zM1280 1170q16 0 26.5 10t10.5 26v74q0 16 -10.5 26t-26.5 10h-805q-16 0 -26 -10t-10 -26v-74
q0 -16 10 -26t26 -10h805zM1280 1462q16 0 26.5 10.5t10.5 26.5v73q0 16 -10.5 26.5t-26.5 10.5h-805q-16 0 -26 -10.5t-10 -26.5v-73q0 -16 10 -26.5t26 -10.5h805z" />
</svg>
