<?xml version="1.0" standalone="no"?>
<!DOCTYPE svg PUBLIC "-//W3C//DTD SVG 1.1//EN" "http://www.w3.org/Graphics/SVG/1.1/DTD/svg11.dtd" >
<svg xmlns="http://www.w3.org/2000/svg" xmlns:xlink="http://www.w3.org/1999/xlink" version="1.1" viewBox="-10 0 1724 2048">
   <path fill="currentColor"
d="M852 1708q-208 0 -380 -116t-250 -308t-38 -394t186 -348t348 -186t394 38t308 250t116 380q0 184 -92 342t-250 250t-342 92zM852 172q-232 0 -428 114t-310 310t-114 428t114 428t310 310t428 114t428 -114t310 -310t114 -428q0 -168 -64 -326t-184 -278t-278 -184
t-326 -64z" />
</svg>
