<?xml version="1.0" standalone="no"?>
<!DOCTYPE svg PUBLIC "-//W3C//DTD SVG 1.1//EN" "http://www.w3.org/Graphics/SVG/1.1/DTD/svg11.dtd" >
<svg xmlns="http://www.w3.org/2000/svg" xmlns:xlink="http://www.w3.org/1999/xlink" version="1.1" viewBox="-10 0 875 2048">
   <path fill="currentColor"
d="M683 256q-104 124 -260 160q8 -40 -6 -78t-48 -60t-76 -20t-74 26t-44 64t2 78t48 62t74 24h20q164 0 300 -92l-116 356q-100 116 -252 152q12 -40 -4 -78t-50 -60t-76 -20t-74 26t-42 64t2 78t46 62t74 24h20q164 0 300 -92l-276 860h172l512 -1536h-172z" />
</svg>
