<?xml version="1.0" standalone="no"?>
<!DOCTYPE svg PUBLIC "-//W3C//DTD SVG 1.1//EN" "http://www.w3.org/Graphics/SVG/1.1/DTD/svg11.dtd" >
<svg xmlns="http://www.w3.org/2000/svg" xmlns:xlink="http://www.w3.org/1999/xlink" version="1.1" viewBox="-10 0 1629 2048">
   <path fill="currentColor"
d="M439 1499v73q0 14 -11.5 25.5t-25.5 11.5h-73q-14 0 -25 -11.5t-11 -25.5v-73q0 -14 11 -25.5t25 -11.5h73q14 0 25.5 11.5t11.5 25.5zM439 1206v74q0 14 -11.5 25t-25.5 11h-73q-14 0 -25 -11t-11 -25v-74q0 -14 11 -25t25 -11h73q14 0 25.5 11t11.5 25zM731 1206v74
q0 14 -11 25t-25 11h-73q-14 0 -25.5 -11t-11.5 -25v-74q0 -14 11.5 -25t25.5 -11h73q14 0 25 11t11 25zM439 914v73q0 14 -11.5 25.5t-25.5 11.5h-73q-14 0 -25 -11.5t-11 -25.5v-73q0 -14 11 -25.5t25 -11.5h73q14 0 25.5 11.5t11.5 25.5zM1317 1499v73q0 14 -11.5 25.5
t-25.5 11.5h-73q-14 0 -25.5 -11.5t-11.5 -25.5v-73q0 -14 11.5 -25.5t25.5 -11.5h73q14 0 25.5 11.5t11.5 25.5zM1024 1206v74q0 14 -11.5 25t-25.5 11h-73q-14 0 -25 -11t-11 -25v-74q0 -14 11 -25t25 -11h73q14 0 25.5 11t11.5 25zM731 914v73q0 14 -11 25.5t-25 11.5
h-73q-14 0 -25.5 -11.5t-11.5 -25.5v-73q0 -14 11.5 -25.5t25.5 -11.5h73q14 0 25 11.5t11 25.5zM439 621v73q0 14 -11.5 25.5t-25.5 11.5h-73q-14 0 -25 -11.5t-11 -25.5v-73q0 -14 11 -25t25 -11h73q14 0 25.5 11t11.5 25zM1317 1206v74q0 14 -11.5 25t-25.5 11h-73
q-14 0 -25.5 -11t-11.5 -25v-74q0 -14 11.5 -25t25.5 -11h73q14 0 25.5 11t11.5 25zM1024 914v73q0 14 -11.5 25.5t-25.5 11.5h-73q-14 0 -25 -11.5t-11 -25.5v-73q0 -14 11 -25.5t25 -11.5h73q14 0 25.5 11.5t11.5 25.5zM731 621v73q0 14 -11 25.5t-25 11.5h-73
q-14 0 -25.5 -11.5t-11.5 -25.5v-73q0 -14 11.5 -25t25.5 -11h73q14 0 25 11t11 25zM439 329v73q0 14 -11.5 25t-25.5 11h-73q-14 0 -25 -11t-11 -25v-73q0 -14 11 -25.5t25 -11.5h73q14 0 25.5 11.5t11.5 25.5zM1317 914v73q0 14 -11.5 25.5t-25.5 11.5h-73
q-14 0 -25.5 -11.5t-11.5 -25.5v-73q0 -14 11.5 -25.5t25.5 -11.5h73q14 0 25.5 11.5t11.5 25.5zM1024 621v73q0 14 -11.5 25.5t-25.5 11.5h-73q-14 0 -25 -11.5t-11 -25.5v-73q0 -14 11 -25t25 -11h73q14 0 25.5 11t11.5 25zM731 329v73q0 14 -11 25t-25 11h-73
q-14 0 -25.5 -11t-11.5 -25v-73q0 -14 11.5 -25.5t25.5 -11.5h73q14 0 25 11.5t11 25.5zM1317 621v73q0 14 -11.5 25.5t-25.5 11.5h-73q-14 0 -25.5 -11.5t-11.5 -25.5v-73q0 -14 11.5 -25t25.5 -11h73q14 0 25.5 11t11.5 25zM1024 329v73q0 14 -11.5 25t-25.5 11h-73
q-14 0 -25 -11t-11 -25v-73q0 -14 11 -25.5t25 -11.5h73q14 0 25.5 11.5t11.5 25.5zM1317 329v73q0 14 -11.5 25t-25.5 11h-73q-14 0 -25.5 -11t-11.5 -25v-73q0 -14 11.5 -25.5t25.5 -11.5h73q14 0 25.5 11.5t11.5 25.5zM1024 1901h439v-1755h-1317v1755h439v-256
q0 -14 11.5 -25t25.5 -11h365q14 0 25.5 11t11.5 25v256zM1609 73v1901q0 30 -21.5 52t-51.5 22h-1463q-30 0 -51.5 -22t-21.5 -52v-1901q0 -30 21.5 -51.5t51.5 -21.5h1463q30 0 51.5 21.5t21.5 51.5z" />
</svg>
