<?xml version="1.0" standalone="no"?>
<!DOCTYPE svg PUBLIC "-//W3C//DTD SVG 1.1//EN" "http://www.w3.org/Graphics/SVG/1.1/DTD/svg11.dtd" >
<svg xmlns="http://www.w3.org/2000/svg" xmlns:xlink="http://www.w3.org/1999/xlink" version="1.1" viewBox="-10 0 1730 2048">
   <path fill="currentColor"
d="M1451 255q-60 0 -114 28t-90 76q-120 -24 -244 -20l12 172q92 -4 180 12q4 104 82 176t182 68t178 -80t72 -180t-76 -178t-182 -74zM1451 595q-36 0 -60 -24t-24 -60t24 -60t60 -24t62 24t26 60t-26 60t-62 24zM587 671l-100 -140q152 -112 332 -160l44 168
q-152 36 -276 132zM1623 1535q0 84 -50 152t-130 94t-160 -2t-128 -100t-44 -156t60 -148q-124 -120 -282 -178t-326 -50q-24 0 -56 8q-16 96 -92 156t-172 54t-166 -74t-76 -164t52 -174t154 -94q56 -112 140 -204l124 116q-48 56 -84 116q60 36 96 100q12 -4 44 -8l28 -4
q216 -8 416 72t348 236q24 -4 48 -4q108 0 182 74t74 182z" />
</svg>
