<?xml version="1.0" standalone="no"?>
<!DOCTYPE svg PUBLIC "-//W3C//DTD SVG 1.1//EN" "http://www.w3.org/Graphics/SVG/1.1/DTD/svg11.dtd" >
<svg xmlns="http://www.w3.org/2000/svg" xmlns:xlink="http://www.w3.org/1999/xlink" version="1.1" viewBox="-10 0 1724 2048">
   <path fill="currentColor"
d="M852 214l-244 912q-24 68 -8 138t68 126q76 72 182 72t182 -72q48 -52 66 -118t2 -134zM1072 382l56 200q180 80 294 250t114 374q0 140 -54 264t-146 220q-28 24 -28 60t26 60t62 24t60 -24q116 -116 182 -272t66 -332q0 -192 -80 -362t-224 -290t-328 -172zM632 386
q-184 48 -326 168t-224 290t-82 362q0 176 66 332t182 272q24 24 60 24t60 -24t24 -60t-24 -60q-92 -96 -146 -220t-54 -264q0 -212 112 -380t300 -244z" />
</svg>
