<?xml version="1.0" standalone="no"?>
<!DOCTYPE svg PUBLIC "-//W3C//DTD SVG 1.1//EN" "http://www.w3.org/Graphics/SVG/1.1/DTD/svg11.dtd" >
<svg xmlns="http://www.w3.org/2000/svg" xmlns:xlink="http://www.w3.org/1999/xlink" version="1.1" viewBox="-10 0 1896 2048">
   <path fill="currentColor"
d="M256 128v256h-256v172h256v256h172v-256h256v-172h-256v-256h-172zM768 384v256h-256v256h-256v852q0 72 50 122t122 50h1192q72 0 122 -50t50 -122v-84h-768q-72 0 -122 -50t-50 -122v-680q0 -72 50 -122t122 -50h768v-84q0 -72 -50 -122t-122 -50h-852zM1024 812v680
h852v-680h-852zM1364 1024q56 0 92 38t36 90t-36 90t-90 38t-92 -38t-38 -90t38 -90t90 -38z" />
</svg>
