<?xml version="1.0" standalone="no"?>
<!DOCTYPE svg PUBLIC "-//W3C//DTD SVG 1.1//EN" "http://www.w3.org/Graphics/SVG/1.1/DTD/svg11.dtd" >
<svg xmlns="http://www.w3.org/2000/svg" xmlns:xlink="http://www.w3.org/1999/xlink" version="1.1" viewBox="-10 0 1724 2048">
   <path fill="currentColor"
d="M880 1666h-200v-256h180q16 -92 60 -172h-240v-256h344v132q72 -68 168 -104v-28h344v28q96 36 168 104v-728q0 -72 -50 -122t-118 -50h-1368q-68 0 -118 50t-50 122v1280q0 68 50 118t118 50h816q-68 -72 -104 -168zM1192 554h344v256h-344v-256zM680 554h344v256h-344
v-256zM512 1666h-344v-256h344v256zM512 1238h-344v-256h344v256zM512 810h-344v-256h344v256zM1060 1314l124 -124l180 184l180 -184l124 124l-184 180l184 180l-124 124l-180 -184l-180 184l-124 -124l184 -180z" />
</svg>
