<?xml version="1.0" standalone="no"?>
<!DOCTYPE svg PUBLIC "-//W3C//DTD SVG 1.1//EN" "http://www.w3.org/Graphics/SVG/1.1/DTD/svg11.dtd" >
<svg xmlns="http://www.w3.org/2000/svg" xmlns:xlink="http://www.w3.org/1999/xlink" version="1.1" viewBox="-10 0 1724 2048">
   <path fill="currentColor"
d="M852 1392q108 0 182 -74t74 -182q0 -68 -34 -128t-94 -92l-828 -480l472 816q32 64 94 102t134 38zM852 284q-224 0 -424 112l180 104q116 -44 244 -44q184 0 342 92t250 248t92 340q0 140 -54 264t-146 220q-28 24 -28 60t26 60t62 24t60 -24q116 -116 182 -272t66 -332
q0 -228 -114 -424t-310 -312t-428 -116zM0 1136q0 176 66 332t182 272q24 24 60 24t60 -24t24 -60t-24 -60q-92 -96 -146 -220t-54 -264q0 -128 48 -248l-104 -176q-112 204 -112 424z" />
</svg>
