<?xml version="1.0" standalone="no"?>
<!DOCTYPE svg PUBLIC "-//W3C//DTD SVG 1.1//EN" "http://www.w3.org/Graphics/SVG/1.1/DTD/svg11.dtd" >
<svg xmlns="http://www.w3.org/2000/svg" xmlns:xlink="http://www.w3.org/1999/xlink" version="1.1" viewBox="-10 0 1676 2048">
   <path fill="currentColor"
d="M1364 496h-168q0 -116 -58 -214t-156 -156t-214 -58t-214 58t-156 156t-58 214h-168q-72 0 -122 50t-50 122v1024q0 68 50 118t122 50h600q-120 -76 -190 -200t-70 -268q0 -180 108 -324q-128 -48 -204 -158t-76 -242h172q0 104 74 180t182 76h4q80 -52 172 -72
q80 -76 80 -184h172q0 92 -40 176q116 20 216 88t164 168v-432q0 -72 -50 -122t-122 -50zM512 496q0 -108 74 -182t182 -74t182 74t74 182h-512zM1392 1596q76 -124 52 -268t-138 -236t-260 -84t-250 112t-112 250t82 260t234 140t268 -54l268 264l120 -120zM1068 1604
q-88 0 -152 -62t-64 -150t64 -150t152 -62t150 62t62 150t-62 150t-150 62z" />
</svg>
