<?xml version="1.0" standalone="no"?>
<!DOCTYPE svg PUBLIC "-//W3C//DTD SVG 1.1//EN" "http://www.w3.org/Graphics/SVG/1.1/DTD/svg11.dtd" >
<svg xmlns="http://www.w3.org/2000/svg" xmlns:xlink="http://www.w3.org/1999/xlink" version="1.1" viewBox="-10 0 1556 2048">
   <path fill="currentColor"
d="M508 1144h-204q-28 -120 0 -240h204q-8 60 -8 120t8 120zM356 784h172q32 -108 84 -212q-168 60 -256 212zM1180 784q-88 -152 -256 -212q52 100 80 212h176zM768 1500q76 -108 116 -236h-232q40 128 116 236zM768 548q-76 108 -116 236h232q-40 -128 -116 -236z
M356 1264q88 152 256 212q-52 -104 -84 -212h-172zM1536 428v1192q0 72 -50 122t-122 50h-1192q-72 0 -122 -50t-50 -122v-1192q0 -72 50 -122t122 -50h1192q72 0 122 50t50 122zM1364 1024q0 -180 -100 -332t-268 -220t-346 -34t-306 162t-162 306t34 346t220 268t332 100
q164 0 300 -80t216 -216t80 -300zM1036 1024q0 60 -8 120h204q28 -120 0 -240h-204q8 60 8 120zM924 1476q168 -60 256 -212h-176q-28 112 -80 212zM628 904q-20 120 0 240h280q8 -60 8 -120t-8 -120h-280z" />
</svg>
