<?xml version="1.0" standalone="no"?>
<!DOCTYPE svg PUBLIC "-//W3C//DTD SVG 1.1//EN" "http://www.w3.org/Graphics/SVG/1.1/DTD/svg11.dtd" >
<svg xmlns="http://www.w3.org/2000/svg" xmlns:xlink="http://www.w3.org/1999/xlink" version="1.1" viewBox="-10 0 1556 2048">
   <path fill="currentColor"
d="M1364 256h-1192q-72 0 -122 50t-50 122v1192q0 72 50 122t122 50h1192q72 0 122 -50t50 -122v-1192q0 -72 -50 -122t-122 -50zM536 700q64 0 120 16q32 12 88 36l44 20q52 28 84 40q52 16 110 16t122 -36q52 -28 92 -68l68 112q-52 56 -124 96q-84 40 -168 40
q-64 0 -124 -20q-36 -12 -88 -40l-16 -8q-56 -28 -92 -40q-60 -20 -120 -20t-124 36q-52 28 -92 68l-60 -112q48 -56 120 -92q84 -44 160 -44zM988 1348q-60 0 -116 -16q-32 -12 -88 -36l-32 -16q-56 -28 -92 -40q-60 -20 -120 -20t-124 36q-52 28 -92 68l-68 -120
q48 -56 120 -96q84 -40 160 -40q64 0 120 16q32 12 88 36l44 20q52 28 84 36q56 20 116 20t124 -36q52 -28 92 -68l68 112q-40 60 -118 102t-166 42z" />
</svg>
