<?xml version="1.0" standalone="no"?>
<!DOCTYPE svg PUBLIC "-//W3C//DTD SVG 1.1//EN" "http://www.w3.org/Graphics/SVG/1.1/DTD/svg11.dtd" >
<svg xmlns="http://www.w3.org/2000/svg" xmlns:xlink="http://www.w3.org/1999/xlink" version="1.1" viewBox="-10 0 1812 2048">
   <path fill="currentColor"
d="M392 192q44 -40 108 -40h172q72 0 122 50t50 118v88h680q72 0 122 50t50 118v344q36 0 60 24t24 60t-24 60t-60 24h-340q-36 0 -62 -24t-26 -60t26 -60t62 -24v-172h-412zM1684 1920l108 -108l-1684 -1684l-108 108l216 216q-40 36 -50 88t8 100t62 78t96 30v768h-88
q-68 0 -118 50t-50 122v168h1024v-168q0 -72 -50 -122t-122 -50h-84v-436z" />
</svg>
