<?xml version="1.0" standalone="no"?>
<!DOCTYPE svg PUBLIC "-//W3C//DTD SVG 1.1//EN" "http://www.w3.org/Graphics/SVG/1.1/DTD/svg11.dtd" >
<svg xmlns="http://www.w3.org/2000/svg" xmlns:xlink="http://www.w3.org/1999/xlink" version="1.1" viewBox="-10 0 2141 2048">
   <path fill="currentColor"
d="M658 1609.5q0 -60.5 -42.5 -104t-103.5 -43.5t-103.5 43.5t-42.5 104t42.5 103.5t103.5 43t103.5 -43t42.5 -103.5zM220 1024h438v-292h-180q-16 2 -25 10l-223 222q-9 18 -10 26v34zM1682 1609.5q0 -60.5 -42.5 -104t-103.5 -43.5t-103.5 43.5t-42.5 104t42.5 103.5
t103.5 43t103.5 -43t42.5 -103.5zM1829 842v-220q0 -16 -10.5 -26t-26.5 -10h-256v-256q0 -16 -10 -27t-26 -11h-220q-16 0 -26 11t-10 27v256h-256q-16 0 -26.5 10t-10.5 26v220q0 15 10.5 25.5t26.5 10.5h256v256q0 15 10 25.5t26 10.5h220q16 0 26 -10.5t10 -25.5v-256
h256q16 0 26.5 -10.5t10.5 -25.5zM2121 220v1316q0 30 -21.5 52t-51.5 22h-219q0 120 -86 206t-207 86t-206.5 -86t-85.5 -206h-439q0 120 -86 206t-207 86t-206.5 -86t-85.5 -206h-147q-30 0 -51.5 -22t-21.5 -52t21.5 -52t51.5 -22v-474q0 -31 15 -67.5t37 -58.5l226 -226
q22 -21 58.5 -35.5t66.5 -14.5h182v-366q0 -30 22 -52t52 -22h1316q30 0 51.5 22t21.5 52z" />
</svg>
