<?xml version="1.0" standalone="no"?>
<!DOCTYPE svg PUBLIC "-//W3C//DTD SVG 1.1//EN" "http://www.w3.org/Graphics/SVG/1.1/DTD/svg11.dtd" >
<svg xmlns="http://www.w3.org/2000/svg" xmlns:xlink="http://www.w3.org/1999/xlink" version="1.1" viewBox="-10 0 1212 2048">
   <path fill="currentColor"
d="M1184 818q-56 64 -140 108q-96 48 -192 48q-80 0 -152 -24q-40 -12 -108 -48l-60 -24q-56 -24 -88 -36q-56 -16 -112 -16q-72 0 -144 36q-60 32 -104 76l-84 -128q68 -68 144 -108q96 -52 188 -52q64 0 128 16q36 12 96 40l104 44q52 24 84 36q52 16 108 16q68 0 144 -40
q56 -32 104 -80zM1192 1238q-68 68 -144 108q-96 52 -188 52q-80 0 -152 -20q-40 -16 -108 -48l-68 -32q-52 -24 -84 -36q-52 -16 -108 -16q-68 0 -144 40q-56 32 -104 80l-84 -136q68 -68 144 -112q96 -52 188 -52q80 0 152 24q40 12 108 48l60 24q56 24 88 32
q56 16 112 16q68 0 144 -40q56 -32 104 -76z" />
</svg>
