<?xml version="1.0" standalone="no"?>
<!DOCTYPE svg PUBLIC "-//W3C//DTD SVG 1.1//EN" "http://www.w3.org/Graphics/SVG/1.1/DTD/svg11.dtd" >
<svg xmlns="http://www.w3.org/2000/svg" xmlns:xlink="http://www.w3.org/1999/xlink" version="1.1" viewBox="-10 0 1984 2048">
   <path fill="currentColor"
d="M256 172v512h-168v-512h168zM88 1876v-512h168v512h-168zM344 1024q0 72 -50 122t-122 50t-122 -50t-50 -122t50 -122t122 -50t122 50t50 122zM1964 512v1024q0 72 -50 122t-122 50h-1024q-68 0 -118 -50t-50 -122v-340l-172 -172l172 -172v-340q0 -72 50 -122t118 -50
h1024q72 0 122 50t50 122zM1324 1324h-128v128h128v-128zM1152 896v-44q0 -52 38 -90t92 -38t90 38t36 90q0 64 -52 100l-24 16q-64 44 -100 110t-36 142v16h128v-16q0 -92 76 -144l28 -16q52 -36 80 -90t28 -118q0 -104 -74 -180t-180 -76t-182 76t-76 180v44h128z" />
</svg>
