<?xml version="1.0" standalone="no"?>
<!DOCTYPE svg PUBLIC "-//W3C//DTD SVG 1.1//EN" "http://www.w3.org/Graphics/SVG/1.1/DTD/svg11.dtd" >
<svg xmlns="http://www.w3.org/2000/svg" xmlns:xlink="http://www.w3.org/1999/xlink" version="1.1" viewBox="-10 0 1648 2048">
   <path fill="currentColor"
d="M1604 872l-120 32l-104 -60v-144l104 -60l120 36l24 -96l-92 -24l24 -96l-92 -24l-36 120l-104 60l-128 -80v-108l88 -88l-68 -68l-68 68l-68 -68l-68 68l84 88v108l-128 80l-104 -60l-24 -120l-96 24l28 96l-96 16l28 92l120 -32l100 60v144l-100 60l-120 -36l-28 112
l96 28l-28 84l96 24l32 -120l104 -56l128 76v108l-84 88l68 68l68 -68l68 68l68 -68l-84 -88v-108l128 -76l100 56l36 120l92 -24l-32 -96l92 -24zM1024 700l128 -76l128 76v144l-128 76l-128 -76v-144zM256 1536q-36 -96 -68 -188q-76 -228 -124 -420q-64 -264 -64 -416
q0 -116 24 -196q24 -64 60 -104q28 -24 60 -36l24 -4h88h20q28 8 40 24q24 24 24 60q0 24 -8 40t-24 40q-24 36 -36 64q-16 44 -16 112q0 52 32 116q20 40 76 120q72 108 100 168q48 100 48 190t-40 178q-32 68 -88 136q-40 44 -88 84zM1108 1452q72 0 122 50t50 118v88
q0 68 -50 118t-122 50h-512q-108 0 -192 -76q-44 -36 -64 -76q-16 -16 -16 -36t16 -32l68 -56q84 -64 148 -104q88 -52 124 -52h428v8z" />
</svg>
