<?xml version="1.0" standalone="no"?>
<!DOCTYPE svg PUBLIC "-//W3C//DTD SVG 1.1//EN" "http://www.w3.org/Graphics/SVG/1.1/DTD/svg11.dtd" >
<svg xmlns="http://www.w3.org/2000/svg" xmlns:xlink="http://www.w3.org/1999/xlink" version="1.1" viewBox="-10 0 1208 2048">
   <path fill="currentColor"
d="M1052 764q-48 -148 -204 -212v-128h-84v120h-36q-136 0 -240 100l-32 36l-120 -44q-52 -16 -84 -16q-84 0 -148 52q-60 40 -92 116q-24 88 0 172q40 96 92 128q-52 196 88 332q100 104 236 104q72 0 96 -8q84 108 204 108q60 0 84 -8q64 -20 118 -94t54 -138t-8 -92
l-44 -136l52 -32q108 -108 96 -268h108v-92h-136zM224 960q-76 -36 -50 -112t102 -48l272 100q-196 100 -324 60zM764 1440q-76 24 -112 -52q-40 -128 60 -324l100 264q28 84 -48 112zM864 984l-52 -136v-8l-24 -24h-8l-136 -52q56 -44 112 -44q68 0 118 52t50 112l-20 36
q-24 44 -40 64z" />
</svg>
