<?xml version="1.0" standalone="no"?>
<!DOCTYPE svg PUBLIC "-//W3C//DTD SVG 1.1//EN" "http://www.w3.org/Graphics/SVG/1.1/DTD/svg11.dtd" >
<svg xmlns="http://www.w3.org/2000/svg" xmlns:xlink="http://www.w3.org/1999/xlink" version="1.1" viewBox="-10 0 1860 2048">
   <path fill="currentColor"
d="M1024 1512q0 -32 8 -84h-860v-512h1364v84q88 0 172 32v-628q0 -72 -50 -122t-122 -50h-1364q-72 0 -122 50t-50 122v1024q0 72 50 122t122 50h860q-8 -52 -8 -88zM172 404h1364v172h-1364v-172zM1840 1332l-184 180l184 184l-120 120l-184 -184l-180 184l-120 -120
l180 -184l-180 -180l120 -120l180 180l184 -180z" />
</svg>
