<?xml version="1.0" standalone="no"?>
<!DOCTYPE svg PUBLIC "-//W3C//DTD SVG 1.1//EN" "http://www.w3.org/Graphics/SVG/1.1/DTD/svg11.dtd" >
<svg xmlns="http://www.w3.org/2000/svg" xmlns:xlink="http://www.w3.org/1999/xlink" version="1.1" viewBox="-10 0 1720 2048">
   <path fill="currentColor"
d="M812 1090v-8l-24 -24h-8l-136 -52q56 -44 112 -44q68 0 118 52t50 116t-40 108zM652 1630q-40 -128 60 -324l100 264q28 72 -48 110t-112 -50zM172 1098q28 -76 104 -48l272 100q-196 100 -324 60q-76 -36 -52 -112zM848 674h-84v120h-36q-136 0 -240 100l-32 52
l-120 -68q-24 -8 -84 -8q-84 0 -148 52q-72 56 -92 120q-24 84 0 168q40 96 92 128q-52 196 88 332q100 104 236 104q72 0 96 -8q84 112 204 112q60 0 84 -12q64 -20 118 -94t54 -138t-8 -92l-52 -116l52 -36q108 -108 92 -264h120v-84h-136q-52 -156 -204 -208v-160z
M1300 562q-24 -24 -24 -58t24 -60t60 -26t60 24q24 12 24 60q0 36 -24 60q-12 12 -24 14t-36 2t-36 -2t-24 -14zM1592 330h-96l-24 -76q-24 -84 -112 -84q-100 0 -112 84l-24 76h-96q-72 0 -108 80q-28 76 48 128l80 40l-36 104q-20 44 8 104q40 48 94 48t78 -24l68 -52
l68 60q36 16 76 16q56 0 96 -48q28 -60 8 -104l-36 -104l68 -40q80 -52 52 -128q-12 -44 -36 -62t-64 -18z" />
</svg>
