<?xml version="1.0" standalone="no"?>
<!DOCTYPE svg PUBLIC "-//W3C//DTD SVG 1.1//EN" "http://www.w3.org/Graphics/SVG/1.1/DTD/svg11.dtd" >
<svg xmlns="http://www.w3.org/2000/svg" xmlns:xlink="http://www.w3.org/1999/xlink" version="1.1" viewBox="-10 0 1724 2048">
   <path fill="currentColor"
d="M256 1536q-36 -96 -68 -188q-76 -228 -124 -420q-64 -264 -64 -416q0 -116 24 -196q24 -64 60 -104q28 -24 60 -36l24 -4h88h20q28 8 40 24q24 24 24 60q0 24 -8 40t-24 40q-24 36 -36 64q-16 44 -16 112q0 52 32 116q20 40 76 120q72 108 100 168q48 100 48 190t-40 178
q-32 68 -88 136q-40 44 -88 84zM1108 1452q72 0 122 50t50 118v88q0 68 -50 118t-122 50h-512q-108 0 -192 -76q-44 -36 -64 -76q-16 -16 -16 -36t16 -32l68 -56q84 -64 148 -104q88 -52 124 -52h428v8zM996 292l-120 288l120 292l-168 408l-148 -120l120 -288l-120 -292
l172 -408zM1356 292l-120 288l120 292l-172 408l-144 -120l120 -288l-120 -292l172 -408zM1704 292l-120 288l120 292l-168 408l-148 -120l120 -288l-120 -292l172 -408z" />
</svg>
