<?xml version="1.0" standalone="no"?>
<!DOCTYPE svg PUBLIC "-//W3C//DTD SVG 1.1//EN" "http://www.w3.org/Graphics/SVG/1.1/DTD/svg11.dtd" >
<svg xmlns="http://www.w3.org/2000/svg" xmlns:xlink="http://www.w3.org/1999/xlink" version="1.1" viewBox="-10 0 1724 2048">
   <path fill="currentColor"
d="M1516 172h-1328q-76 0 -132 56t-56 132v1328q0 76 56 132t132 56h1328q76 0 132 -56t56 -132v-1328q0 -76 -56 -132t-132 -56zM1536 1108l-296 296q-48 48 -108 48h-560q-60 0 -108 -48l-296 -296q-32 -32 -32 -84t32 -84l296 -296q48 -48 108 -48h560q60 0 108 48
l296 296q32 32 32 84t-32 84zM724 1196q0 -56 38 -92t90 -36t90 36t38 90t-38 92t-90 38t-90 -38t-38 -90zM1152 1024q0 -52 36 -90t90 -38t92 38t38 90t-38 90t-92 38t-90 -38t-36 -90zM296 1024q0 -52 38 -90t92 -38t90 38t36 90t-36 90t-90 38t-92 -38t-38 -90z" />
</svg>
