<?xml version="1.0" standalone="no"?>
<!DOCTYPE svg PUBLIC "-//W3C//DTD SVG 1.1//EN" "http://www.w3.org/Graphics/SVG/1.1/DTD/svg11.dtd" >
<svg xmlns="http://www.w3.org/2000/svg" xmlns:xlink="http://www.w3.org/1999/xlink" version="1.1" viewBox="-10 0 1900 2048">
   <path fill="currentColor"
d="M172 512h1536v-172h-1536q-72 0 -122 50t-50 122v1024q0 72 50 122t122 50h340v-172h-340v-1024zM1024 1024h-340v152q-84 76 -84 188t84 192v152h340v-152q88 -80 88 -192t-88 -188v-152zM856 1492q-56 0 -92 -36t-36 -90t36 -92t90 -38t92 38t38 92t-38 90t-90 36z
M1792 684h-512q-32 0 -58 26t-26 58v852q0 32 26 60t58 28h512q32 0 60 -28t28 -60v-852q0 -32 -28 -58t-60 -26zM1708 1536h-340v-684h340v684z" />
</svg>
