<?xml version="1.0" standalone="no"?>
<!DOCTYPE svg PUBLIC "-//W3C//DTD SVG 1.1//EN" "http://www.w3.org/Graphics/SVG/1.1/DTD/svg11.dtd" >
<svg xmlns="http://www.w3.org/2000/svg" xmlns:xlink="http://www.w3.org/1999/xlink" version="1.1" viewBox="-10 0 1724 2048">
   <path fill="currentColor"
d="M852 198l-320 200h-276v172l-176 108q-36 24 -58 62t-22 86v852q0 72 50 122t118 50h1368q68 0 118 -50t50 -122v-852q0 -48 -22 -86t-58 -62l-176 -108v-172h-276zM424 570h856v416l-428 264l-428 -264v-416zM512 654v128h680v-128h-680zM256 770v108l-88 -52zM1448 770
l88 56l-88 52v-108zM512 866v128h680v-128h-680z" />
</svg>
