<?xml version="1.0" standalone="no"?>
<!DOCTYPE svg PUBLIC "-//W3C//DTD SVG 1.1//EN" "http://www.w3.org/Graphics/SVG/1.1/DTD/svg11.dtd" >
<svg xmlns="http://www.w3.org/2000/svg" xmlns:xlink="http://www.w3.org/1999/xlink" version="1.1" viewBox="-10 0 1556 2048">
   <path fill="currentColor"
d="M1364 852v768h-1192v-1192h768v-172h-768q-72 0 -122 50t-50 122v1192q0 72 50 122t122 50h1192q72 0 122 -50t50 -122v-768h-172zM1196 852l80 -176l176 -80l-176 -80l-80 -176l-80 176l-176 80l176 80zM876 916l-108 -232l-108 232l-232 108l232 108l108 232l108 -232
l232 -108z" />
</svg>
