<?xml version="1.0" standalone="no"?>
<!DOCTYPE svg PUBLIC "-//W3C//DTD SVG 1.1//EN" "http://www.w3.org/Graphics/SVG/1.1/DTD/svg11.dtd" >
<svg xmlns="http://www.w3.org/2000/svg" xmlns:xlink="http://www.w3.org/1999/xlink" version="1.1" viewBox="-10 0 1812 2048">
   <path fill="currentColor"
d="M1364 128q-116 0 -214 58t-156 156t-58 214v172h-768q-68 0 -118 50t-50 118v856q0 68 50 118t118 50h1024q72 0 122 -50t50 -118v-856q0 -68 -50 -118t-122 -50h-84v-172q0 -108 74 -182t182 -74t182 74t74 182v172h172v-172q0 -116 -58 -214t-156 -156t-214 -58z
M680 1152q72 0 122 50t50 122t-50 122t-120 50t-120 -50t-50 -122t50 -122t118 -50z" />
</svg>
