<?xml version="1.0" standalone="no"?>
<!DOCTYPE svg PUBLIC "-//W3C//DTD SVG 1.1//EN" "http://www.w3.org/Graphics/SVG/1.1/DTD/svg11.dtd" >
<svg xmlns="http://www.w3.org/2000/svg" xmlns:xlink="http://www.w3.org/1999/xlink" version="1.1" viewBox="-10 0 1763 2048">
   <path fill="currentColor"
d="M1647 180l-336 64l232 304l168 -36zM1059 296l-168 32l236 300l164 -32zM639 376l-168 36l236 300l168 -32zM223 460l-84 16q-68 16 -108 74t-28 130l36 164l416 -80zM1575 1016v684h-1368v-684h1368zM1743 844h-1704v856q0 68 50 118t118 50h1368q68 0 118 -50t50 -118
v-856z" />
</svg>
