<?xml version="1.0" standalone="no"?>
<!DOCTYPE svg PUBLIC "-//W3C//DTD SVG 1.1//EN" "http://www.w3.org/Graphics/SVG/1.1/DTD/svg11.dtd" >
<svg xmlns="http://www.w3.org/2000/svg" xmlns:xlink="http://www.w3.org/1999/xlink" version="1.1" viewBox="-10 0 1775 2048">
   <path fill="currentColor"
d="M1463 1536v-1024q0 -30 -21.5 -52t-51.5 -22h-147q-30 0 -51.5 22t-21.5 52v366h-585v-366q0 -30 -21.5 -52t-51.5 -22h-146q-30 0 -51.5 22t-21.5 52v1024q0 30 21.5 52t51.5 22h146q30 0 51.5 -22t21.5 -52v-366h585v366q0 30 21.5 52t51.5 22h147q30 0 51.5 -22
t21.5 -52zM1755 476v1096q0 90 -44 166t-119.5 120t-165.5 44h-1097q-90 0 -165.5 -44t-119.5 -120t-44 -166v-1096q0 -90 44 -166t119.5 -120t165.5 -44h1097q90 0 165.5 44t119.5 120t44 166z" />
</svg>
