<?xml version="1.0" standalone="no"?>
<!DOCTYPE svg PUBLIC "-//W3C//DTD SVG 1.1//EN" "http://www.w3.org/Graphics/SVG/1.1/DTD/svg11.dtd" >
<svg xmlns="http://www.w3.org/2000/svg" xmlns:xlink="http://www.w3.org/1999/xlink" version="1.1" viewBox="-10 0 1556 2048">
   <path fill="currentColor"
d="M84 256h88v172h-172v-88q0 -32 26 -58t58 -26zM1452 256q32 0 58 26t26 58v88h-172v-172h88zM1024 428v-172h172v172h-172zM684 428v-172h168v172h-168zM340 428v-172h172v172h-172zM1536 1024q0 32 -26 58t-58 26h-88v-168h172v84zM1024 1108v-168h172v168h-172z
M684 1108v-168h168v168h-168zM340 1108v-168h172v168h-172zM84 1108q-32 0 -58 -26t-26 -58v-84h172v168h-88zM0 596h172v172h-172v-172zM1536 596v172h-172v-172h172zM340 1364l428 428l428 -428h-856z" />
</svg>
