<?xml version="1.0" standalone="no"?>
<!DOCTYPE svg PUBLIC "-//W3C//DTD SVG 1.1//EN" "http://www.w3.org/Graphics/SVG/1.1/DTD/svg11.dtd" >
<svg xmlns="http://www.w3.org/2000/svg" xmlns:xlink="http://www.w3.org/1999/xlink" version="1.1" viewBox="-10 0 1724 2048">
   <path fill="currentColor"
d="M1536 852v-256q0 -68 -50 -118t-122 -50h-1024q-72 0 -122 50t-50 118v256q-68 0 -118 50t-50 122v428h112l56 168h88l56 -168h1080l56 168h88l56 -168h112v-428q0 -72 -50 -122t-118 -50zM936 596h428v256h-428v-256zM340 596h428v256h-428v-256zM1536 1280h-1368v-256
h1368v256z" />
</svg>
