<?xml version="1.0" standalone="no"?>
<!DOCTYPE svg PUBLIC "-//W3C//DTD SVG 1.1//EN" "http://www.w3.org/Graphics/SVG/1.1/DTD/svg11.dtd" >
<svg xmlns="http://www.w3.org/2000/svg" xmlns:xlink="http://www.w3.org/1999/xlink" version="1.1" viewBox="-11 0 1018 2048">
   <path fill="currentColor"
d="M981 468q-16 -40 -68 -80q-28 -24 -38 -38t-22 -46q-24 -64 -60 -90t-104 -30q-36 0 -52 -4t-48 -28q-52 -36 -96 -36t-100 36q-28 24 -46 30t-54 6q-68 0 -102 26t-58 90q-12 32 -22 46t-38 38q-52 40 -66 82t6 102q12 36 12 54t-12 52t-12 50q-4 28 4 56q16 44 68 84
q28 20 38 34t22 50q24 64 60 90t104 26q36 0 52 4t48 28q52 40 96 40t100 -40q28 -20 46 -26t54 -6q68 -4 102 -28t58 -88q12 -36 22 -50t38 -34q52 -40 66 -82t-6 -106q-12 -36 -12 -54t12 -50t12 -52q4 -28 -4 -56zM493 968q-140 0 -240 -100t-100 -242t100 -242t240 -100
t240 100t100 242t-100 242t-240 100zM665 628q0 52 -30 94t-78 62t-98 10t-86 -46t-46 -88t10 -100t62 -76t94 -28q72 0 122 50t50 122zM637 1272l-52 308l-64 352l-220 -212l-284 124l116 -640q76 36 160 36q52 40 116 56q40 12 84 12q76 0 144 -36zM997 1548l-220 -80
l44 -252q40 -12 72 -36l12 -8z" />
</svg>
