<?xml version="1.0" standalone="no"?>
<!DOCTYPE svg PUBLIC "-//W3C//DTD SVG 1.1//EN" "http://www.w3.org/Graphics/SVG/1.1/DTD/svg11.dtd" >
<svg xmlns="http://www.w3.org/2000/svg" xmlns:xlink="http://www.w3.org/1999/xlink" version="1.1" viewBox="-10 0 1812 2048">
   <path fill="currentColor"
d="M172 128q-72 0 -122 50t-50 122v940q0 68 50 118t122 50h940q68 0 118 -50t50 -118v-256h-168v256h-940v-940h940v172h168v-172q0 -72 -50 -122t-118 -50h-940zM684 640q-72 0 -122 50t-50 122v256h172v-256h940v940h-940v-172h-172v172q0 68 50 118t122 50h940
q68 0 118 -50t50 -118v-940q0 -72 -50 -122t-118 -50h-940z" />
</svg>
