<?xml version="1.0" standalone="no"?>
<!DOCTYPE svg PUBLIC "-//W3C//DTD SVG 1.1//EN" "http://www.w3.org/Graphics/SVG/1.1/DTD/svg11.dtd" >
<svg xmlns="http://www.w3.org/2000/svg" xmlns:xlink="http://www.w3.org/1999/xlink" version="1.1" viewBox="-10 0 1724 2048">
   <path fill="currentColor"
d="M1024 768h168v512h-168v-512zM1704 1024q0 232 -114 428t-310 310t-428 114t-428 -114t-310 -310t-114 -428t114 -428t310 -310t428 -114t428 114t310 310t114 428zM680 596h-340v172h172v684h168v-856zM1364 768q0 -72 -50 -122t-122 -50h-168q-72 0 -122 50t-50 122
v512q0 72 50 122t122 50h168q72 0 122 -50t50 -122v-512z" />
</svg>
