<?xml version="1.0" standalone="no"?>
<!DOCTYPE svg PUBLIC "-//W3C//DTD SVG 1.1//EN" "http://www.w3.org/Graphics/SVG/1.1/DTD/svg11.dtd" >
<svg xmlns="http://www.w3.org/2000/svg" xmlns:xlink="http://www.w3.org/1999/xlink" version="1.1" viewBox="-10 0 1775 2048">
   <path fill="currentColor"
d="M1463 1098v-148q0 -30 -21.5 -51t-51.5 -21h-366v-366q0 -30 -21.5 -52t-51.5 -22h-146q-30 0 -52 22t-22 52v366h-365q-30 0 -51.5 21t-21.5 51v148q0 30 21.5 51t51.5 21h365v366q0 30 22 52t52 22h146q30 0 51.5 -22t21.5 -52v-366h366q30 0 51.5 -21t21.5 -51z
M1755 476v1096q0 90 -44 166t-119.5 120t-165.5 44h-1097q-90 0 -165.5 -44t-119.5 -120t-44 -166v-1096q0 -90 44 -166t119.5 -120t165.5 -44h1097q90 0 165.5 44t119.5 120t44 166z" />
</svg>
