<?xml version="1.0" standalone="no"?>
<!DOCTYPE svg PUBLIC "-//W3C//DTD SVG 1.1//EN" "http://www.w3.org/Graphics/SVG/1.1/DTD/svg11.dtd" >
<svg xmlns="http://www.w3.org/2000/svg" xmlns:xlink="http://www.w3.org/1999/xlink" version="1.1" viewBox="-10 0 1724 2048">
   <path fill="currentColor"
d="M852 172q232 0 428 114t310 310t114 428t-114 428t-310 310t-428 114t-428 -114t-310 -310t-114 -428t114 -428t310 -310t428 -114zM852 340q-184 0 -342 92t-250 250t-92 342t92 342t250 250t342 92t342 -92t250 -250t92 -342t-92 -342t-250 -250t-342 -92zM680 596
h-340v172h172v684h168v-856zM1192 596h-168q-72 0 -122 50t-50 122v512q0 72 50 122t122 50h168q72 0 122 -50t50 -122v-512q0 -72 -50 -122t-122 -50zM1192 1280h-168v-512h168v512z" />
</svg>
