<?xml version="1.0" standalone="no"?>
<!DOCTYPE svg PUBLIC "-//W3C//DTD SVG 1.1//EN" "http://www.w3.org/Graphics/SVG/1.1/DTD/svg11.dtd" >
<svg xmlns="http://www.w3.org/2000/svg" xmlns:xlink="http://www.w3.org/1999/xlink" version="1.1" viewBox="-10 0 1812 2048">
   <path fill="currentColor"
d="M1792 1832l-108 108l-272 -268q-40 80 -108 140q-100 96 -230 132t-266 4q-144 -28 -254 -128t-156 -240t-14 -290t140 -266q24 -24 24 -56t-24 -52q-84 -104 -104 -240l-420 -420l108 -108zM1208 1668q52 -56 76 -124l-208 -208q-24 28 -60 28t-62 -24t-26 -62t32 -62
l-240 -240q-4 100 -74 172t-92 172t8 198t106 170t176 94t198 -8t166 -106zM1100 1452q-52 0 -74 42t0 84t74 42t72 -42t0 -84t-72 -42zM492 316l132 132q32 -68 92 -116q92 -76 212 -76h76q72 16 136 68q112 88 128 228t-72 252q-56 68 -60 156l332 332q-32 -148 -136 -264
q-24 -20 -26 -54t18 -58l28 -44q36 -56 56 -116q32 -84 32 -160q0 -92 -56 -208q-68 -128 -172 -208q-128 -96 -284 -96q-116 0 -212 36q-76 28 -132 80q-44 36 -72 80zM928 1452q0 -52 -42 -74t-86 0t-44 74t44 72t86 0t42 -72zM1012 428q-52 0 -72 42t0 84t72 42t74 -42
t0 -84t-74 -42z" />
</svg>
