<?xml version="1.0" standalone="no"?>
<!DOCTYPE svg PUBLIC "-//W3C//DTD SVG 1.1//EN" "http://www.w3.org/Graphics/SVG/1.1/DTD/svg11.dtd" >
<svg xmlns="http://www.w3.org/2000/svg" xmlns:xlink="http://www.w3.org/1999/xlink" version="1.1" viewBox="-10 0 1812 2048">
   <path fill="currentColor"
d="M1260 844q68 -88 88 -196t-18 -212t-120 -178t-190 -98q-44 -8 -92 -8q-116 0 -214 56t-154 156l740 740q-12 -16 -28 -36q-44 -44 -48 -108t36 -116zM1012 576q-36 0 -60 -24t-24 -60t24 -60t60 -24t62 24t26 60t-26 60t-62 24zM500 524l-392 -396l-108 108l568 572l4 4
q16 24 24 32q40 48 36 112t-44 108q-88 92 -118 216t8 246t132 208t218 114q48 8 100 8q136 4 252 -70t176 -198l328 332l108 -108zM844 1516q-36 0 -62 -24t-26 -60t26 -62t62 -26t60 26t24 62t-24 60t-60 24zM1100 1600q-36 0 -62 -24t-26 -60t26 -60t62 -24t60 24t24 60
t-24 60t-60 24zM1012 1344q-36 0 -60 -24t-24 -62t28 -62l124 120q-28 28 -68 28z" />
</svg>
