<?xml version="1.0" standalone="no"?>
<!DOCTYPE svg PUBLIC "-//W3C//DTD SVG 1.1//EN" "http://www.w3.org/Graphics/SVG/1.1/DTD/svg11.dtd" >
<svg xmlns="http://www.w3.org/2000/svg" xmlns:xlink="http://www.w3.org/1999/xlink" version="1.1" viewBox="-10 0 2060 2048">
   <path fill="currentColor"
d="M844 428h256v-172h-256v-84q0 -40 -22 -64t-62 -24t-62 24t-22 64v1132q-40 20 -64 60t-24 88q0 68 50 118t122 50t122 -50t50 -118q0 -48 -24 -88t-64 -60v-196h256v-168h-256v-172h256v-172h-256v-168zM1868 1492q24 28 44 56q52 60 84 116q44 80 44 128q0 72 -50 122
t-120 50t-120 -50t-50 -122q0 -48 44 -128q32 -56 80 -116zM1948 1324q-20 28 -54 38t-66 -6l-180 -100l-308 536q-20 40 -62 62t-90 22h-768q-72 0 -122 -50t-50 -118v-256q0 -72 50 -122t122 -50v428h768l176 -308l-264 152v-204l532 -308l280 164q32 16 40 50t-4 70z
M292 1188l-148 144q-24 24 -58 24t-60 -26t-26 -60t28 -58l144 -144q24 -28 58 -28t60 26t26 60t-24 62z" />
</svg>
