<?xml version="1.0" standalone="no"?>
<!DOCTYPE svg PUBLIC "-//W3C//DTD SVG 1.1//EN" "http://www.w3.org/Graphics/SVG/1.1/DTD/svg11.dtd" >
<svg xmlns="http://www.w3.org/2000/svg" xmlns:xlink="http://www.w3.org/1999/xlink" version="1.1" viewBox="-11 0 1132 2048">
   <path fill="currentColor"
d="M557 1965q-60 0 -120 -16q-144 -28 -254 -128t-156 -240t-14 -290t140 -266q24 -24 24 -56t-24 -52q-88 -108 -108 -244t28 -264t158 -214t244 -106t262 28t216 156q112 140 112 320t-112 324q-20 24 -18 58t26 54q100 112 134 256t-8 286t-154 242q-76 72 -174 112
t-202 40zM557 257q-120 0 -212 76q-64 48 -96 118t-32 146q0 120 72 216q64 72 60 168t-74 168t-92 172t8 198t106 170t176 94t198 -8t166 -106q104 -108 104 -260t-104 -264q-68 -68 -72 -166t60 -174q88 -112 72 -252t-128 -228q-64 -52 -136 -68h-76zM557 513q0 36 26 60
t60 24t60 -24t26 -60t-26 -60t-60 -24t-60 24t-26 60zM729 1621q32 0 58 -24t26 -60t-26 -60t-60 -24t-60 24t-26 60t26 60t62 24zM641 1365q36 0 62 -24t26 -60t-26 -60t-60 -24t-60 24t-26 60t26 60t58 24zM473 1537q32 0 58 -26t26 -60t-26 -60t-60 -26t-60 26t-26 60
t26 60t62 26z" />
</svg>
