<?xml version="1.0" standalone="no"?>
<!DOCTYPE svg PUBLIC "-//W3C//DTD SVG 1.1//EN" "http://www.w3.org/Graphics/SVG/1.1/DTD/svg11.dtd" >
<svg xmlns="http://www.w3.org/2000/svg" xmlns:xlink="http://www.w3.org/1999/xlink" version="1.1" viewBox="-10 0 1724 2048">
   <path fill="currentColor"
d="M1520 682l-192 -192q8 -56 24 -100q12 -24 12 -48q0 -56 -38 -92t-90 -36q-104 0 -192 46t-148 122h-428q-128 0 -236 64t-170 172t-62 236q0 160 104 588q56 212 108 392h468v-172h172v172h468l144 -476l240 -80v-596h-184zM1192 982q-32 0 -58 -26t-26 -60t26 -60
t60 -26t60 26t26 60t-26 60t-62 26z" />
</svg>
