<?xml version="1.0" standalone="no"?>
<!DOCTYPE svg PUBLIC "-//W3C//DTD SVG 1.1//EN" "http://www.w3.org/Graphics/SVG/1.1/DTD/svg11.dtd" >
<svg xmlns="http://www.w3.org/2000/svg" xmlns:xlink="http://www.w3.org/1999/xlink" version="1.1" viewBox="-10 0 1084 2048">
   <path fill="currentColor"
d="M836 1108q-88 0 -152 56l-112 -64q12 -36 12 -76t-8 -80l104 -64q64 60 156 60t160 -68t68 -162t-68 -162t-162 -68t-162 68t-68 164q0 20 4 44l-108 64q-56 -60 -140 -80v-120q72 -24 116 -84t44 -136q0 -96 -66 -162t-162 -66t-162 66t-66 162q0 76 42 136t114 84v120
q-96 24 -158 102t-62 180t62 180t158 102v124q-72 24 -114 84t-42 136q0 96 66 162t162 66t162 -66t66 -162q0 -76 -44 -136t-116 -84v-124q84 -20 140 -80l108 64q-4 24 -4 48q0 96 68 164t162 68t162 -68t68 -164t-68 -162t-160 -66zM836 596q44 0 78 34t34 80t-34 80
t-80 34t-80 -34t-34 -80t34 -80t82 -34zM176 400q0 -48 34 -82t82 -34t80 34t32 82t-32 82t-80 34t-82 -34t-34 -82zM404 1648q0 48 -32 80t-80 32t-82 -32t-34 -80t34 -82t82 -34t80 34t32 82zM292 1184q-68 0 -116 -48t-48 -116t48 -116t116 -48t116 48t48 116t-48 116
t-116 48zM836 1452q-48 0 -82 -34t-34 -82t34 -80t80 -32t80 32t34 80t-34 82t-78 34z" />
</svg>
