<?xml version="1.0" standalone="no"?>
<!DOCTYPE svg PUBLIC "-//W3C//DTD SVG 1.1//EN" "http://www.w3.org/Graphics/SVG/1.1/DTD/svg11.dtd" >
<svg xmlns="http://www.w3.org/2000/svg" xmlns:xlink="http://www.w3.org/1999/xlink" version="1.1" viewBox="-10 0 1388 2048">
   <path fill="currentColor"
d="M600 1964q-72 0 -122 -50t-50 -122v-172h512v172q0 72 -50 122t-122 50h-168zM684 256q48 0 68 4q44 84 72 204q32 140 32 304q0 112 -44 364q-20 128 -44 232h-168l-44 -232q-44 -252 -44 -364q0 -164 32 -304q28 -120 72 -204q20 -4 68 -4zM684 84q-88 0 -176 24
q-76 100 -120 276t-44 384q0 136 20 288q20 124 64 308q0 72 50 122t122 50h168q72 0 122 -50t50 -122q44 -184 64 -308q20 -152 20 -288q0 -208 -44 -384t-120 -276q-88 -24 -176 -24zM0 684q0 136 50 300t138 292q92 140 200 192q-64 -116 -100 -360q-52 -96 -84 -210
t-32 -214q0 -88 30 -154t94 -122q36 -144 92 -256q-188 92 -280 204q-108 136 -108 328zM980 152q56 112 92 256q64 56 94 122t30 154q0 100 -32 214t-84 210q-36 244 -100 360q108 -52 200 -192q88 -128 138 -292t50 -300q0 -192 -108 -328q-92 -112 -280 -204z" />
</svg>
