<?xml version="1.0" standalone="no"?>
<!DOCTYPE svg PUBLIC "-//W3C//DTD SVG 1.1//EN" "http://www.w3.org/Graphics/SVG/1.1/DTD/svg11.dtd" >
<svg xmlns="http://www.w3.org/2000/svg" xmlns:xlink="http://www.w3.org/1999/xlink" version="1.1" viewBox="-10 0 1724 2048">
   <path fill="currentColor"
d="M168 512h-168v1196q0 68 50 118t118 50h1196v-168h-1196v-1196zM1408 1216q0 -60 -72 -108q-60 -40 -156 -64q-88 -20 -158 -20t-154 20q-100 24 -160 64q-68 48 -68 108v64h768v-64zM1024 876q80 0 136 -56t56 -136t-56 -136t-136 -56t-136 56t-56 136t56 136t136 56z
M1536 172h-1024q-72 0 -122 50t-50 118v1024q0 72 50 122t122 50h1024q68 0 118 -50t50 -122v-1024q0 -68 -50 -118t-118 -50zM1536 1364h-1024v-1024h1024v1024z" />
</svg>
