<?xml version="1.0" standalone="no"?>
<!DOCTYPE svg PUBLIC "-//W3C//DTD SVG 1.1//EN" "http://www.w3.org/Graphics/SVG/1.1/DTD/svg11.dtd" >
<svg xmlns="http://www.w3.org/2000/svg" xmlns:xlink="http://www.w3.org/1999/xlink" version="1.1" viewBox="-10 0 1724 2048">
   <path fill="currentColor"
d="M1536 428v1192h-1368v-1192h1368zM1536 256h-1368q-68 0 -118 50t-50 122v1192q0 72 50 122t118 50h1368q68 0 118 -50t50 -122v-1192q0 -72 -50 -122t-118 -50zM1364 1280h-1024v172h1024v-172zM680 596h-340v512h340v-512zM852 768h512v-172h-512v172zM1364 940h-512
v168h512v-168z" />
</svg>
