<?xml version="1.0" standalone="no"?>
<!DOCTYPE svg PUBLIC "-//W3C//DTD SVG 1.1//EN" "http://www.w3.org/Graphics/SVG/1.1/DTD/svg11.dtd" >
<svg xmlns="http://www.w3.org/2000/svg" xmlns:xlink="http://www.w3.org/1999/xlink" version="1.1" viewBox="-10 0 1724 2048">
   <path fill="currentColor"
d="M1704 1108v172h-312q56 -124 56 -256q0 -160 -80 -298t-218 -218t-298 -80h-852v-172h852q208 0 384 104t280 280t104 384q0 28 -4 84h88zM852 1620q-160 0 -298 -80t-218 -218t-80 -298q0 -136 56 -256h-312v172h88q-4 56 -4 84q0 208 104 384t280 280t384 104h852v-172
h-852zM1268 1040q-56 44 -132 32q-52 -8 -112 -44v-4q148 -92 148 -228q0 -72 -32 -124l-20 -32q-28 -36 -42 -36t-4 68t-38 128q-36 44 -96 80l-4 -4q0 -96 -40 -160q-32 -52 -84 -84q-36 -20 -84 -32l-36 -4l-40 4q-44 4 -52 18t60 38q108 44 112 220h-4q-84 -44 -160 -44
q-60 0 -116 32q-36 20 -68 56l-20 28l-20 40q-16 36 -10 50t62 -30t132 -32q52 8 112 44v4q-80 48 -116 116q-32 52 -32 116q0 40 16 84l16 36l20 36q28 32 42 32t6 -68q-20 -116 132 -208l4 4q4 176 124 244q60 36 120 36l40 -4q44 -4 52 -18t-60 -38q-108 -44 -112 -220h4
q84 44 160 44q60 0 116 -32q36 -20 68 -56l20 -28l20 -36q16 -40 10 -54t-62 30z" />
</svg>
