<?xml version="1.0" standalone="no"?>
<!DOCTYPE svg PUBLIC "-//W3C//DTD SVG 1.1//EN" "http://www.w3.org/Graphics/SVG/1.1/DTD/svg11.dtd" >
<svg xmlns="http://www.w3.org/2000/svg" xmlns:xlink="http://www.w3.org/1999/xlink" version="1.1" viewBox="-11 0 1844 2048">
   <path fill="currentColor"
d="M1819 1360l-208 -824q-8 -32 -34 -50t-58 -14q-104 12 -276 20q-208 12 -332 12t-332 -12q-172 -8 -276 -20q-32 -4 -58 14t-34 50l-208 824q-12 52 18 100t82 56q404 60 808 60t808 -60q52 -8 82 -56t18 -100zM911 1400q-368 4 -732 -40l176 -712q104 12 268 20
q176 8 288 8t288 -8q164 -8 268 -20l176 712q-364 44 -732 40z" />
</svg>
