<?xml version="1.0" standalone="no"?>
<!DOCTYPE svg PUBLIC "-//W3C//DTD SVG 1.1//EN" "http://www.w3.org/Graphics/SVG/1.1/DTD/svg11.dtd" >
<svg xmlns="http://www.w3.org/2000/svg" xmlns:xlink="http://www.w3.org/1999/xlink" version="1.1" viewBox="-10 0 1124 2048">
   <path fill="currentColor"
d="M665 1061q0 15 -11 26l-533 533q-11 11 -26 11q-16 0 -27 -11l-57 -58q-11 -11 -11 -26t11 -26l449 -449l-449 -449q-11 -11 -11 -27q0 -15 11 -26l57 -57q12 -12 27 -12q14 0 26 12l533 532q11 11 11 27zM1104 1061q0 14 -12 26l-532 533q-11 11 -26 11q-16 0 -27 -11
l-57 -58q-11 -11 -11 -26t11 -26l449 -449l-449 -449q-11 -11 -11 -27q0 -15 11 -26l57 -57q12 -12 27 -12q14 0 26 12l532 532q12 12 12 27z" />
</svg>
