<?xml version="1.0" standalone="no"?>
<!DOCTYPE svg PUBLIC "-//W3C//DTD SVG 1.1//EN" "http://www.w3.org/Graphics/SVG/1.1/DTD/svg11.dtd" >
<svg xmlns="http://www.w3.org/2000/svg" xmlns:xlink="http://www.w3.org/1999/xlink" version="1.1" viewBox="-10 0 1724 2048">
   <path fill="currentColor"
d="M0 940v168q208 0 384 104t280 280t104 384h168q0 -256 -126 -470t-340 -340t-470 -126zM1536 172h-856q-68 0 -118 50t-50 118v556q104 52 228 164q60 -96 158 -152t212 -56t212 58t156 156t58 214t-58 214t-156 156t-214 58h-16v20q16 96 16 148h428q68 0 118 -50
t50 -118v-1368q0 -68 -50 -118t-118 -50zM1108 684q-72 0 -122 -50t-50 -122t50 -122t122 -50t122 50t50 122t-50 122t-122 50zM1108 1536q-44 0 -60 -8q-60 -184 -180 -340q28 -76 94 -124t146 -48q108 0 182 74t74 182t-74 186t-182 78zM0 1280v172q116 0 214 56t154 154
t56 214h172q0 -164 -80 -300t-216 -216t-300 -80zM0 1620v256h256q0 -108 -74 -182t-182 -74z" />
</svg>
