<?xml version="1.0" standalone="no"?>
<!DOCTYPE svg PUBLIC "-//W3C//DTD SVG 1.1//EN" "http://www.w3.org/Graphics/SVG/1.1/DTD/svg11.dtd" >
<svg xmlns="http://www.w3.org/2000/svg" xmlns:xlink="http://www.w3.org/1999/xlink" version="1.1" viewBox="-10 0 1556 2048">
   <path fill="currentColor"
d="M1096 880q-76 -4 -132 36t-72 108q0 24 72 46t148 22q52 0 100 -16q44 -16 74 -38t30 -34t-26 -40t-70 -52q-56 -28 -124 -32zM444 880q-72 4 -128 32q-44 20 -70 48t-26 42t32 36t80 38t92 16q72 0 146 -22t74 -46q-16 -68 -76 -110t-124 -34zM1192 1408q-56 0 -116 -28
q-36 -20 -102 -68t-98 -64q-56 -32 -108 -32t-108 32q-36 16 -104 64t-100 68q-60 28 -112 28q-152 0 -248 -134t-96 -374q0 -104 26 -158t92 -78t198 -24q100 0 188 24q48 12 124 44q44 20 68 28q36 12 72 12t72 -12q24 -8 72 -28q76 -32 128 -44q84 -24 180 -24
q184 0 250 58t66 202q0 240 -96 374t-248 134z" />
</svg>
