<?xml version="1.0" standalone="no"?>
<!DOCTYPE svg PUBLIC "-//W3C//DTD SVG 1.1//EN" "http://www.w3.org/Graphics/SVG/1.1/DTD/svg11.dtd" >
<svg xmlns="http://www.w3.org/2000/svg" xmlns:xlink="http://www.w3.org/1999/xlink" version="1.1" viewBox="-10 0 1900 2048">
   <path fill="currentColor"
d="M940 384q-312 0 -568 176t-372 464q116 288 372 464t568 176h92q-8 -44 -8 -84q4 -76 20 -148l-104 20q-128 0 -236 -72t-158 -192t-24 -248t116 -218t218 -116t248 24t192 158t72 236q0 40 -8 76q84 -36 176 -32q156 -4 284 84q36 -60 60 -128q-116 -288 -372 -464
t-568 -176zM940 768q-108 0 -182 74t-74 182t74 182t182 74t182 -74t76 -182t-74 -184t-184 -72zM1196 1492v172h684v-172h-684z" />
</svg>
