<?xml version="1.0" standalone="no"?>
<!DOCTYPE svg PUBLIC "-//W3C//DTD SVG 1.1//EN" "http://www.w3.org/Graphics/SVG/1.1/DTD/svg11.dtd" >
<svg xmlns="http://www.w3.org/2000/svg" xmlns:xlink="http://www.w3.org/1999/xlink" version="1.1" viewBox="-10 0 1612 2048">
   <path fill="currentColor"
d="M796 1876q-108 0 -198 -90t-150 -254q-8 -16 -2 -28t20 -16t26 2t16 18q52 144 128 224t160 80q60 0 118 -42t106 -122q8 -12 20 -16t24 4t16 22t-4 22q-56 96 -128 146t-152 50zM1128 1512h-8q-28 -12 -20 -44q56 -176 56 -400q0 -248 -72 -446t-188 -270
q-36 56 -100 56q-48 0 -84 -34t-36 -84t36 -84t84 -34t84 34t36 82q136 72 222 288t86 492q0 228 -64 420q-4 24 -32 24zM796 236q-20 0 -36 16t-16 38t16 36t38 14t38 -14t16 -36t-16 -38t-40 -16zM120 1584q-48 0 -84 -36t-36 -84q0 -64 56 -100q-8 -156 138 -340
t390 -324q208 -116 408 -160q12 -4 24 4t16 22t-4 26t-20 12q-196 44 -392 156q-220 124 -358 288t-138 296q52 0 86 36t34 84t-36 84t-84 36zM120 1412q-20 0 -36 14t-16 36t16 38t38 16t36 -16t14 -38t-14 -36t-38 -14zM1352 1148q-12 0 -22 -8t-10 -22t8 -26
q100 -116 132 -220t-12 -176q-60 -108 -256 -112q-16 0 -24 -10t-8 -22t10 -22t22 -10q112 0 194 38t118 102q56 92 22 216t-150 260q-8 12 -24 12zM1180 1612q-132 0 -288 -46t-308 -134q-200 -116 -344 -268q-8 -12 -8 -26t10 -22t24 -8t22 12q136 144 328 252
q212 124 420 162t328 -22q-12 -28 -12 -48q0 -48 36 -84t84 -36t84 36t36 84t-36 84t-84 36q-36 0 -64 -20q-88 48 -228 48zM1436 1504q20 12 40 12t34 -16t14 -38t-14 -36t-38 -14t-38 14t-14 34t12 36q4 4 4 8zM152 1024q-16 0 -28 -16q-56 -100 -66 -190t30 -158
q52 -92 178 -126t302 -2q12 4 20 16t6 24t-14 20t-24 4q-152 -24 -262 0t-150 96q-28 56 -20 128t56 152q8 12 4 26t-14 20t-18 6zM812 1144q-32 4 -58 -12t-34 -48t10 -60t50 -34t60 12t34 50t-12 58t-50 34z" />
</svg>
