<?xml version="1.0" standalone="no"?>
<!DOCTYPE svg PUBLIC "-//W3C//DTD SVG 1.1//EN" "http://www.w3.org/Graphics/SVG/1.1/DTD/svg11.dtd" >
<svg xmlns="http://www.w3.org/2000/svg" xmlns:xlink="http://www.w3.org/1999/xlink" version="1.1" viewBox="-10 0 1161 2048">
   <path fill="currentColor"
d="M1141 951q0 14 -12 26l-532 533q-11 11 -27 11q-15 0 -26 -11l-533 -533q-11 -11 -11 -26t11 -26l58 -57q12 -12 26 -12t26 12l449 449l449 -449q12 -12 27 -12q14 0 26 12l57 57q12 12 12 26zM1141 512q0 14 -12 26l-532 533q-11 11 -27 11q-15 0 -26 -11l-533 -533
q-11 -11 -11 -26t11 -26l58 -57q12 -12 26 -12t26 12l449 449l449 -449q12 -12 27 -12q14 0 26 12l57 57q12 12 12 26z" />
</svg>
