<?xml version="1.0" standalone="no"?>
<!DOCTYPE svg PUBLIC "-//W3C//DTD SVG 1.1//EN" "http://www.w3.org/Graphics/SVG/1.1/DTD/svg11.dtd" >
<svg xmlns="http://www.w3.org/2000/svg" xmlns:xlink="http://www.w3.org/1999/xlink" version="1.1" viewBox="-10 0 1388 2048">
   <path fill="currentColor"
d="M856 172h-684q-72 0 -122 50t-50 118v1368q0 68 50 118t122 50h1024q72 0 122 -50t50 -118v-1024zM1196 1708h-1024v-1368h596v428h428v940zM512 980q0 56 -36 92t-90 36t-92 -36t-38 -90t38 -92t92 -38t90 38t36 90zM1024 1492q0 56 -36 92t-90 36t-92 -36t-38 -90
t38 -92t92 -38t90 38t36 90zM1024 968l-648 652l-120 -112l656 -656z" />
</svg>
