<?xml version="1.0" standalone="no"?>
<!DOCTYPE svg PUBLIC "-//W3C//DTD SVG 1.1//EN" "http://www.w3.org/Graphics/SVG/1.1/DTD/svg11.dtd" >
<svg xmlns="http://www.w3.org/2000/svg" xmlns:xlink="http://www.w3.org/1999/xlink" version="1.1" viewBox="-10 0 1388 2048">
   <path fill="currentColor"
d="M856 172h-684q-72 0 -122 50t-50 118v1368q0 68 50 118t122 50h1024q72 0 122 -50t50 -118v-1024zM1196 1708h-1024v-1368h596v428h428v940zM940 1108q0 56 -32 100q-20 28 -68 70t-64 66q-28 40 -28 88h-128q0 -80 36 -132q24 -32 76 -72q40 -32 56 -52q24 -28 24 -68
q0 -52 -38 -90t-90 -38t-90 38t-38 90h-128q0 -104 74 -180t182 -76t182 76t74 180zM748 1492v128h-128v-128h128z" />
</svg>
