<?xml version="1.0" standalone="no"?>
<!DOCTYPE svg PUBLIC "-//W3C//DTD SVG 1.1//EN" "http://www.w3.org/Graphics/SVG/1.1/DTD/svg11.dtd" >
<svg xmlns="http://www.w3.org/2000/svg" xmlns:xlink="http://www.w3.org/1999/xlink" version="1.1" viewBox="-10 0 1604 2048">
   <path fill="currentColor"
d="M840 1852h-668q-72 0 -122 -50t-50 -118v-1368q0 -68 50 -118t122 -50h684l512 512v432q-52 -8 -86 -8t-86 8v-348h-428v-428h-596v1368h604q16 88 64 168zM1584 1780l-184 -184l184 -180l-120 -120l-184 180l-180 -180l-120 120l180 180l-180 184l120 120l180 -184
l184 184z" />
</svg>
