<?xml version="1.0" standalone="no"?>
<!DOCTYPE svg PUBLIC "-//W3C//DTD SVG 1.1//EN" "http://www.w3.org/Graphics/SVG/1.1/DTD/svg11.dtd" >
<svg xmlns="http://www.w3.org/2000/svg" xmlns:xlink="http://www.w3.org/1999/xlink" version="1.1" viewBox="-10 0 1388 2048">
   <path fill="currentColor"
d="M856 172h-684q-72 0 -122 50t-50 118v1368q0 68 50 118t122 50h1024q72 0 122 -50t50 -118v-1024zM1196 1708h-1024v-1368h596v428h428v940zM956 920q-32 -32 -78 -50t-126 -18h-324v768h136v-280h188q80 0 122 -14t82 -46q68 -56 68 -180q0 -60 -14 -100t-54 -80z
M848 1196q-24 20 -46 30t-58 10h-180v-272h172q68 0 112 44q32 32 32 92t-32 96z" />
</svg>
