<?xml version="1.0" standalone="no"?>
<!DOCTYPE svg PUBLIC "-//W3C//DTD SVG 1.1//EN" "http://www.w3.org/Graphics/SVG/1.1/DTD/svg11.dtd" >
<svg xmlns="http://www.w3.org/2000/svg" xmlns:xlink="http://www.w3.org/1999/xlink" version="1.1" viewBox="-10 0 1724 2048">
   <path fill="currentColor"
d="M1492 1452q-24 0 -32 4l-140 -280q64 -64 64 -152t-62 -150t-150 -62q-20 0 -32 4l-140 -280q64 -60 64 -150t-62 -152t-150 -62t-150 62t-62 152t64 150l-140 280q-12 -4 -32 -4q-88 0 -150 62t-62 150t64 152l-140 280q-8 -4 -32 -4q-88 0 -150 62t-62 150t62 150
t150 62t150 -62t62 -152t-64 -150l140 -280q12 4 32 4t32 -4l140 280q-64 64 -64 152t62 150t150 62t150 -62t62 -150t-62 -150t-150 -62q-24 0 -32 4l-140 -280q64 -60 64 -152t-64 -152l140 -280q8 4 32 4t32 -4l140 280q-64 64 -64 152t62 150t150 62q20 0 32 -4l140 280
q-64 64 -64 152t62 150t150 62t150 -62t62 -150t-62 -150t-150 -62z" />
</svg>
