<?xml version="1.0" standalone="no"?>
<!DOCTYPE svg PUBLIC "-//W3C//DTD SVG 1.1//EN" "http://www.w3.org/Graphics/SVG/1.1/DTD/svg11.dtd" >
<svg xmlns="http://www.w3.org/2000/svg" xmlns:xlink="http://www.w3.org/1999/xlink" version="1.1" viewBox="-10 0 1604 2048">
   <path fill="currentColor"
d="M900 744q-36 0 -60 24t-24 60t24 62t60 26t60 -26t24 -62t-24 -60t-60 -24zM900 744q-36 0 -60 24t-24 60t24 62t60 26t60 -26t24 -62t-24 -60t-60 -24zM1412 148h-1024q-72 0 -122 50t-50 118v776q44 -8 88 -8q88 0 168 32q-76 -112 -86 -246t46 -256t168 -202t244 -92
t256 40t206 160t98 242t-32 258t-156 208l-164 -204q-16 -32 -50 -42t-66 10l-72 44q-32 16 -42 50t10 66l76 188q-92 0 -180 -32q84 124 88 272t-72 272h668q72 0 122 -50t50 -118v-1368q0 -68 -50 -118t-122 -50zM1120 1648l-212 -540l72 -44l360 456zM900 916
q36 0 60 -26t24 -62t-24 -60t-60 -24t-60 24t-24 60t24 62t60 26zM484 1900l-180 -184l-184 184l-120 -120l184 -184l-184 -180l120 -120l184 180l180 -180l120 120l-180 180l180 184z" />
</svg>
