<?xml version="1.0" standalone="no"?>
<!DOCTYPE svg PUBLIC "-//W3C//DTD SVG 1.1//EN" "http://www.w3.org/Graphics/SVG/1.1/DTD/svg11.dtd" >
<svg xmlns="http://www.w3.org/2000/svg" xmlns:xlink="http://www.w3.org/1999/xlink" version="1.1" viewBox="-10 0 1724 2048">
   <path fill="currentColor"
d="M1704 724q0 88 -62 152t-150 64t-150 -64t-62 -152q0 88 -64 152t-152 64t-150 -64t-62 -152q0 88 -62 152t-150 64t-152 -64t-64 -152q0 88 -62 152t-150 64t-150 -64t-62 -152l116 -460l12 -24q12 -28 32 -44q32 -24 68 -24h1248q36 0 68 24q20 16 32 44l12 24z
M1620 1040v668q0 68 -50 118t-122 50h-1192q-72 0 -122 -50t-50 -118v-668q60 28 128 28q120 0 212 -76q96 76 216 76t212 -76q96 76 214 76t214 -76q92 76 212 76q68 0 128 -28zM1448 1480q0 -36 -4 -56v-12h-256v100h156q-12 36 -28 52q-44 44 -108 44t-110 -46t-46 -112
t44 -110t108 -44t108 40l12 12l72 -72l-12 -12q-76 -68 -176 -68h-4q-104 0 -182 76t-78 180t76 176q80 80 188 80h4q104 0 172 -68q28 -32 46 -76t18 -84z" />
</svg>
