<?xml version="1.0" standalone="no"?>
<!DOCTYPE svg PUBLIC "-//W3C//DTD SVG 1.1//EN" "http://www.w3.org/Graphics/SVG/1.1/DTD/svg11.dtd" >
<svg xmlns="http://www.w3.org/2000/svg" xmlns:xlink="http://www.w3.org/1999/xlink" version="1.1" viewBox="-10 0 1212 2048">
   <path fill="currentColor"
d="M800 656q76 -48 180 -64q72 -12 148 -4l64 8q-104 -136 -240 -168q-100 -24 -220 16v-16q44 -64 116 -96q52 -24 112 -32h56q-160 -140 -336 -44q-40 -104 -84 -172q-36 60 -84 180q-72 -48 -148 -48q-104 0 -196 84l56 4q64 12 120 36q72 40 116 104q-120 -40 -220 -16
q-136 32 -240 168l64 -8q76 -8 148 4q104 16 180 64q-136 80 -222 248t-86 376q0 184 70 342t186 250t256 92t256 -92t186 -250t70 -342q0 -208 -86 -376t-222 -248zM920 1432q-16 68 -32 104l-120 -172l-128 172l136 180l-68 52l-112 -148l-112 148q-44 -16 -68 -52
l136 -180l-128 -172l-128 164q-4 -16 -16 -50t-16 -54l120 -144l-112 -152q16 -68 32 -104l120 172l128 -172l-136 -180l68 -52l112 148l112 -148q44 16 68 52l-136 180l128 172l128 -164q4 16 16 50t16 54l-120 144zM596 1108l128 172l-128 172l-128 -172z" />
</svg>
