<?xml version="1.0" standalone="no"?>
<!DOCTYPE svg PUBLIC "-//W3C//DTD SVG 1.1//EN" "http://www.w3.org/Graphics/SVG/1.1/DTD/svg11.dtd" >
<svg xmlns="http://www.w3.org/2000/svg" xmlns:xlink="http://www.w3.org/1999/xlink" version="1.1" viewBox="-11 0 1732 2048">
   <path fill="currentColor"
d="M599 1357q-136 -12 -246 -62t-182 -134q-52 0 -96 -30t-64 -80t-4 -98t64 -80q4 -196 166 -374t422 -268t504 -46t376 192q52 0 96 30t64 80t4 98t-64 80q0 104 -52 208q-172 -104 -348 -104q-164 0 -306 78t-232 212t-102 298zM1707 1409q0 124 -64 232t-172 172
t-232 64t-232 -64t-172 -172t-64 -232t64 -232t172 -172t232 -64t232 64t172 172t64 232zM967 1537l196 -128l-196 -128q-28 64 -28 128t28 128zM1195 1485l-176 120q60 72 176 104v-224zM1195 1117q-52 8 -100 34t-76 70l176 120v-224zM1283 1333l176 -120
q-60 -72 -176 -104v224zM1459 1605l-176 -120v216q52 -8 100 -32t76 -64zM1539 1409q0 -64 -28 -128l-196 128l196 128q28 -64 28 -128z" />
</svg>
