<?xml version="1.0" standalone="no"?>
<!DOCTYPE svg PUBLIC "-//W3C//DTD SVG 1.1//EN" "http://www.w3.org/Graphics/SVG/1.1/DTD/svg11.dtd" >
<svg xmlns="http://www.w3.org/2000/svg" xmlns:xlink="http://www.w3.org/1999/xlink" version="1.1" viewBox="-10 0 1724 2048">
   <path fill="currentColor"
d="M1536 1714q-180 0 -344 -116q-156 112 -340 112t-340 -112q-164 116 -344 116h-168v168h168q176 0 344 -84q160 84 340 84t340 -84q168 84 344 84h168v-168h-168zM1600 1626h-64q-156 0 -292 -96l-52 -36l-48 36q-136 92 -294 92t-290 -92l-48 -36l-48 36
q-140 96 -296 96h-64q48 -132 184 -216q200 -124 564 -124q108 0 192 12l64 8q64 -128 92 -276q40 -220 -8 -444l92 64q32 144 36 264q8 212 -60 428q152 48 244 136q68 68 96 148zM1704 654q-52 -72 -126 -118t-166 -58q12 16 32 40q76 120 64 262t-104 246q40 -96 32 -200
t-64 -192l-16 -20q-48 -72 -132 -120q-128 44 -212 156t-84 252q0 64 16 128q-80 -112 -80 -252q0 -104 48 -194t128 -150q-144 -8 -260 64q-56 36 -100 84q52 -124 172 -200q136 -88 288 -60q-36 -56 -88 -94t-116 -62q140 4 248 88q52 36 96 96h16q144 0 256 86t152 218z
" />
</svg>
