<?xml version="1.0" standalone="no"?>
<!DOCTYPE svg PUBLIC "-//W3C//DTD SVG 1.1//EN" "http://www.w3.org/Graphics/SVG/1.1/DTD/svg11.dtd" >
<svg xmlns="http://www.w3.org/2000/svg" xmlns:xlink="http://www.w3.org/1999/xlink" version="1.1" viewBox="-10 0 1212 2048">
   <path fill="currentColor"
d="M768 1068q0 72 -50 122t-122 50t-122 -50t-50 -122t50 -122t122 -50t122 50t50 122zM168 896q-68 0 -118 50t-50 122t50 122t120 50t120 -50t50 -122t-50 -122t-122 -50zM1024 896q-72 0 -122 50t-50 122t50 122t120 50t120 -50t50 -122t-50 -122t-118 -50zM808 556
q-68 0 -118 50t-50 120t50 120t120 50t120 -50t50 -120t-50 -120t-122 -50zM384 556q-72 0 -122 50t-50 120t50 120t120 50t120 -50t50 -120t-50 -120t-118 -50zM808 1240q-68 0 -118 50t-50 120t50 120t120 50t120 -50t50 -120t-50 -120t-122 -50zM384 1240q-72 0 -122 50
t-50 120t50 120t120 50t120 -50t50 -120t-50 -120t-118 -50zM596 1580q-72 0 -122 50t-50 120t50 120t122 50t122 -50t50 -120t-50 -120t-122 -50zM800 232l-68 -104q-120 56 -172 232q-32 108 -32 196h128v-4q36 -280 144 -320z" />
</svg>
