<?xml version="1.0" standalone="no"?>
<!DOCTYPE svg PUBLIC "-//W3C//DTD SVG 1.1//EN" "http://www.w3.org/Graphics/SVG/1.1/DTD/svg11.dtd" >
<svg xmlns="http://www.w3.org/2000/svg" xmlns:xlink="http://www.w3.org/1999/xlink" version="1.1" viewBox="-10 0 1212 2048">
   <path fill="currentColor"
d="M1192 1024q0 -88 -52 -156t-136 -88q20 -48 20 -96q0 -108 -76 -182t-180 -74q-52 0 -104 20q40 -224 136 -260l-68 -104q-96 44 -148 172q-40 84 -52 196q-52 -24 -108 -24q-104 0 -180 74t-76 182q0 48 20 96q-84 20 -136 88t-52 156t52 156t136 88q-20 48 -20 96
q0 88 54 156t138 92q-20 48 -20 96q0 104 74 180t182 76t182 -76t74 -180q0 -48 -20 -96q84 -24 138 -92t54 -156q0 -48 -20 -96q84 -20 136 -88t52 -156zM964 844zM768 556q52 0 90 36t38 90t-38 92t-92 38t-90 -38t-36 -92t36 -90t92 -36zM724 1024q0 52 -38 90t-90 38
t-90 -38t-38 -90t38 -90t90 -38t90 38t38 90zM424 556q56 0 92 36t36 90t-36 92t-90 38t-92 -38t-38 -92t38 -90t90 -36zM128 1024q0 -52 36 -90t90 -38t92 38t38 90t-38 90t-92 38t-90 -38t-36 -90zM296 1364q0 -52 38 -90t92 -38t90 38t36 92t-36 90t-90 36t-92 -36
t-38 -92zM596 1836q-52 0 -90 -38t-38 -92t38 -90t90 -36t90 36t38 90t-38 92t-90 38zM768 1492q-56 0 -92 -36t-36 -90t36 -92t90 -38t92 38t38 92t-38 90t-90 36zM936 1152q-52 0 -90 -38t-38 -90t38 -90t92 -38t90 38t36 90t-36 90t-92 38z" />
</svg>
