<?xml version="1.0" standalone="no"?>
<!DOCTYPE svg PUBLIC "-//W3C//DTD SVG 1.1//EN" "http://www.w3.org/Graphics/SVG/1.1/DTD/svg11.dtd" >
<svg xmlns="http://www.w3.org/2000/svg" xmlns:xlink="http://www.w3.org/1999/xlink" version="1.1" viewBox="-10 0 1388 2048">
   <path fill="currentColor"
d="M1024 1154h-40q-40 -72 -80 -188q-24 -68 -68 -212l80 76q144 112 304 140q80 16 128 8l8 -56q4 -64 -4 -128q-12 -92 -48 -164q-44 -92 -124 -148q-128 -100 -268 -136q-96 -20 -160 -8l-8 -64q-4 -48 -8 -64l-120 8q0 176 -124 508q-76 200 -184 428q-128 16 -218 112
t-90 234t100 238t240 100t232 -92q-60 -136 -60 -250t60 -246q-40 -44 -128 -76q152 -328 232 -580q24 148 74 310t114 294q-80 48 -130 126t-50 174q0 140 100 240t242 100t242 -100t100 -242t-100 -242t-244 -100zM344 1370q-52 0 -90 38t-38 90h-88q0 -92 62 -154
t154 -62v88zM1024 1370q-48 0 -88 38t-40 90h-84q0 -92 62 -154t150 -62v88z" />
</svg>
