<?xml version="1.0" standalone="no"?>
<!DOCTYPE svg PUBLIC "-//W3C//DTD SVG 1.1//EN" "http://www.w3.org/Graphics/SVG/1.1/DTD/svg11.dtd" >
<svg xmlns="http://www.w3.org/2000/svg" xmlns:xlink="http://www.w3.org/1999/xlink" version="1.1" viewBox="-10 0 1468 2048">
   <path fill="currentColor"
d="M724 768q60 288 16 576q-32 204 -112 392q-40 92 -76 140h256q108 -320 100 -628q-4 -184 -56 -396zM1036 612q28 32 40 56q108 172 92 372t-144 348q52 -136 42 -282t-90 -274l-20 -28q-76 -104 -184 -168q-188 56 -306 216t-118 360q0 96 24 180q-112 -156 -112 -352
q0 -148 66 -276t182 -212q-204 -16 -372 88q-80 52 -136 120q72 -180 236 -284q192 -120 416 -88q-56 -76 -130 -132t-158 -84q196 4 348 120q76 56 132 140h24q204 0 364 120t216 308q-72 -100 -178 -166t-234 -82z" />
</svg>
