<?xml version="1.0" standalone="no"?>
<!DOCTYPE svg PUBLIC "-//W3C//DTD SVG 1.1//EN" "http://www.w3.org/Graphics/SVG/1.1/DTD/svg11.dtd" >
<svg xmlns="http://www.w3.org/2000/svg" xmlns:xlink="http://www.w3.org/1999/xlink" version="1.1" viewBox="-11 0 1703 2048">
   <path fill="currentColor"
d="M1086 1408v-256h256v-172l340 300l-340 296v-168h-256zM1258 1492v256h-256v172l-344 -300l344 -300v172h256zM830 640q-140 0 -240 100t-100 240q0 120 76 216t196 120l408 -348q-4 -136 -102 -232t-238 -96zM830 1152q-72 0 -122 -50t-50 -122t50 -122t122 -50t122 50
t50 122t-50 122t-122 50zM1654 700l-172 -296q-4 -12 -20 -18t-32 2l-212 84q-64 -52 -144 -84l-32 -224q0 -16 -12 -26t-28 -10h-344q-16 0 -28 10t-12 26l-32 224q-76 32 -144 84l-208 -84q-16 -8 -32 -2t-20 18l-172 296q-8 16 -6 30t14 26l176 140l-4 84l4 84l-180 140
q-12 8 -14 24t6 32l172 296q4 16 20 22t36 -2l212 -84q32 24 64 44l140 -120q-100 -40 -168 -120l-208 84l-64 -112l176 -136q-52 -152 0 -304l-180 -132l64 -112l204 84q104 -120 256 -152l36 -220h128l32 224q152 32 256 152l204 -84l64 108l-176 132q12 32 16 68h172
l180 -140q12 -8 16 -24t-4 -32zM830 640q-140 0 -240 100t-100 240q0 120 76 216t196 120l408 -348q-4 -136 -102 -232t-238 -96zM830 1152q-72 0 -122 -50t-50 -122t50 -122t122 -50t122 50t50 122t-50 122t-122 50zM830 640q-140 0 -240 100t-100 240q0 120 76 216
t196 120l408 -348q-4 -136 -102 -232t-238 -96zM830 1152q-72 0 -122 -50t-50 -122t50 -122t122 -50t122 50t50 122t-50 122t-122 50z" />
</svg>
