<?xml version="1.0" standalone="no"?>
<!DOCTYPE svg PUBLIC "-//W3C//DTD SVG 1.1//EN" "http://www.w3.org/Graphics/SVG/1.1/DTD/svg11.dtd" >
<svg xmlns="http://www.w3.org/2000/svg" xmlns:xlink="http://www.w3.org/1999/xlink" version="1.1" viewBox="-10 0 2056 2048">
   <path fill="currentColor"
d="M672 1452q-124 0 -232 112l-12 12q-28 28 -46 38t-52 10t-52 -10t-46 -38l-12 -12q-72 -76 -148 -100v192l28 28q108 108 230 108t230 -108l12 -16q28 -28 46 -36t52 -8t52 8t46 36l12 16q96 92 188 104q16 4 44 4q120 0 232 -108l12 -16q28 -28 46 -36t52 -8t52 8t46 36
l12 16q108 108 230 108t230 -108l28 -28v-192q-76 24 -148 100l-12 12q-28 28 -46 38t-52 10t-52 -10t-46 -38l-12 -12q-108 -112 -230 -112t-230 112l-16 12q-28 28 -44 38t-52 10q-24 0 -44 -8t-60 -48l-8 -4q-108 -112 -228 -112zM1864 812q24 28 44 52q52 64 84 120
q44 76 44 128q0 68 -50 118t-120 50t-120 -50t-50 -120t84 -190q44 -60 84 -108zM1908 524l-280 -160l-552 320q-24 -40 -64 -62t-84 -22h-172v-172h84q36 0 62 -26t26 -60t-26 -60t-62 -26h-340q-36 0 -60 26t-24 60t24 60t60 26h84v172h-168q-72 0 -122 50t-50 118v256
q0 72 50 122t122 50h768q44 0 84 -24t64 -64l312 -540l180 104q32 16 64 8t50 -40t10 -66t-40 -50zM1184 1024h-768v-256h568l80 124l296 -172zM288 508l-148 144q-24 20 -58 20t-58 -24t-24 -58t20 -58l148 -148q24 -24 58 -24t60 26t26 60t-24 62z" />
</svg>
