<?xml version="1.0" standalone="no"?>
<!DOCTYPE svg PUBLIC "-//W3C//DTD SVG 1.1//EN" "http://www.w3.org/Graphics/SVG/1.1/DTD/svg11.dtd" >
<svg xmlns="http://www.w3.org/2000/svg" xmlns:xlink="http://www.w3.org/1999/xlink" version="1.1" viewBox="-10 0 1724 2048">
   <path fill="currentColor"
d="M80 256l-80 332l1480 372l80 -332zM348 588l-164 -40l40 -168l164 40zM676 672l-164 -44l40 -164l164 40zM1004 752l-164 -40l40 -168l164 44zM1336 836l-168 -40l44 -168l164 40zM224 1088l-80 332l1480 372l80 -332zM492 1420l-164 -40l40 -168l168 40zM824 1504
l-164 -44l40 -164l164 40zM1152 1584l-164 -40l40 -168l164 44zM1480 1668l-164 -40l40 -168l164 40zM360 1032l408 -160l576 144l-408 160z" />
</svg>
