<?xml version="1.0" standalone="no"?>
<!DOCTYPE svg PUBLIC "-//W3C//DTD SVG 1.1//EN" "http://www.w3.org/Graphics/SVG/1.1/DTD/svg11.dtd" >
<svg xmlns="http://www.w3.org/2000/svg" xmlns:xlink="http://www.w3.org/1999/xlink" version="1.1" viewBox="-10 0 1724 2048">
   <path fill="currentColor"
d="M740 1068q0 16 -66 38t-126 22t-122 -32t-62 -46t24 -40t64 -46q48 -20 108 -26t114 30t66 100zM1144 940q-68 -8 -118 28t-62 100q0 20 64 40t128 20t124 -30t60 -44t-24 -40t-64 -46q-48 -24 -108 -28zM1704 1024q0 232 -114 428t-310 310t-428 114t-428 -114
t-310 -310t-114 -428t114 -428t310 -310t428 -114t428 114t310 310t114 428zM1536 956q0 -132 -60 -182t-224 -50q-84 0 -160 20q-44 12 -112 40q-84 36 -128 36t-124 -36q-68 -28 -112 -40q-76 -20 -164 -20q-120 0 -178 20t-82 70t-24 142q0 212 86 332t222 120
q48 0 96 -28q32 -16 92 -58t92 -58q52 -28 96 -28t96 28q28 16 86 58t90 58q56 28 104 28q136 0 222 -120t86 -332z" />
</svg>
