<?xml version="1.0" standalone="no"?>
<!DOCTYPE svg PUBLIC "-//W3C//DTD SVG 1.1//EN" "http://www.w3.org/Graphics/SVG/1.1/DTD/svg11.dtd" >
<svg xmlns="http://www.w3.org/2000/svg" xmlns:xlink="http://www.w3.org/1999/xlink" version="1.1" viewBox="-10 0 1724 2048">
   <path fill="currentColor"
d="M808 1364q112 0 204 -60l208 208l120 -120l-208 -208q60 -92 60 -204q0 -160 -112 -272t-272 -112t-272 112t-112 272t112 272t272 112zM808 768q88 0 152 62t64 150t-64 152t-152 64t-150 -64t-62 -152t62 -150t150 -62zM1536 340h-1368q-68 0 -118 50t-50 122v1024
q0 72 50 122t118 50h1368q68 0 118 -50t50 -122v-1024q0 -72 -50 -122t-118 -50zM1536 1536h-1368v-1024h1368v1024z" />
</svg>
