<?xml version="1.0" standalone="no"?>
<!DOCTYPE svg PUBLIC "-//W3C//DTD SVG 1.1//EN" "http://www.w3.org/Graphics/SVG/1.1/DTD/svg11.dtd" >
<svg xmlns="http://www.w3.org/2000/svg" xmlns:xlink="http://www.w3.org/1999/xlink" version="1.1" viewBox="-10 0 1724 2048">
   <path fill="currentColor"
d="M808 768q-88 0 -150 62t-62 150t62 152t150 64t152 -64t64 -152t-64 -150t-152 -62zM1536 340h-1368q-68 0 -118 50t-50 122v1024q0 72 50 122t118 50h1368q68 0 118 -50t50 -122v-1024q0 -72 -50 -122t-118 -50zM1260 1552l-248 -248q-92 60 -204 60q-160 0 -272 -112
t-112 -272t112 -272t272 -112t272 112t112 272q0 112 -60 204l248 248z" />
</svg>
