<?xml version="1.0" standalone="no"?>
<!DOCTYPE svg PUBLIC "-//W3C//DTD SVG 1.1//EN" "http://www.w3.org/Graphics/SVG/1.1/DTD/svg11.dtd" >
<svg xmlns="http://www.w3.org/2000/svg" xmlns:xlink="http://www.w3.org/1999/xlink" version="1.1" viewBox="-10 0 1716 2048">
   <path fill="currentColor"
d="M172 86q-72 0 -122 50t-50 118v1368q0 68 50 118t122 50h512v-168h-512v-1368h596v428h428v256h172v-340l-512 -512h-684zM1196 1110q-20 0 -24 16l-16 112l-72 40l-104 -40q-20 0 -28 8l-84 148q-8 16 4 28l92 72q-4 20 -4 42t4 42l-92 68q-12 12 -4 28l84 148
q4 12 28 12l104 -44q40 28 72 40l16 116q4 16 24 16h172q16 0 20 -16l16 -116q32 -12 72 -40l104 44q24 0 28 -12l84 -148q8 -16 -4 -28l-92 -68l4 -44q0 -20 -4 -40l92 -72q12 -12 4 -28l-84 -148q-4 -8 -28 -8l-104 40q-44 -28 -72 -40l-16 -112q-4 -16 -20 -16h-172z
M1280 1406q56 0 92 38t36 92t-36 90t-90 36t-92 -36t-38 -90t38 -92t90 -38z" />
</svg>
