<?xml version="1.0" standalone="no"?>
<!DOCTYPE svg PUBLIC "-//W3C//DTD SVG 1.1//EN" "http://www.w3.org/Graphics/SVG/1.1/DTD/svg11.dtd" >
<svg xmlns="http://www.w3.org/2000/svg" xmlns:xlink="http://www.w3.org/1999/xlink" version="1.1" viewBox="-10 0 1724 2048">
   <path fill="currentColor"
d="M852 172q-232 0 -428 114t-310 310t-114 428v852h1704v-852q0 -232 -114 -428t-310 -310t-428 -114zM852 340q184 0 338 90t246 242q-64 12 -116 12q-180 0 -336 -90t-248 -242q64 -12 116 -12zM516 428q-40 120 -120 218t-192 162q40 -120 122 -218t190 -162zM168 1012
q168 -64 296 -186t196 -286q120 144 292 228t368 84q92 0 188 -20q28 96 28 192q0 184 -92 342t-250 250t-342 92t-342 -92t-250 -250t-92 -342v-12zM168 1708v-172q76 96 172 172h-172zM1536 1708h-172q96 -76 172 -172v172zM1000 1108q0 -44 32 -74t76 -30t76 30t32 74
t-32 76t-76 32t-76 -32t-32 -76zM488 1108q0 -44 32 -74t76 -30t76 30t32 74t-32 76t-76 32t-76 -32t-32 -76z" />
</svg>
