<?xml version="1.0" standalone="no"?>
<!DOCTYPE svg PUBLIC "-//W3C//DTD SVG 1.1//EN" "http://www.w3.org/Graphics/SVG/1.1/DTD/svg11.dtd" >
<svg xmlns="http://www.w3.org/2000/svg" xmlns:xlink="http://www.w3.org/1999/xlink" version="1.1" viewBox="-10 0 2214 2048">
   <path fill="currentColor"
d="M2048 1206v-950q0 -15 -11.5 -25.5t-25.5 -10.5h-1828q-14 0 -25.5 10.5t-11.5 25.5v950q0 15 11.5 26.5t25.5 11.5h1828q14 0 25.5 -11.5t11.5 -26.5zM2194 256v1244q0 75 -53.5 128.5t-129.5 53.5h-621q0 43 18 89t36.5 80.5t18.5 50.5q0 30 -21.5 51t-51.5 21h-585
q-30 0 -52 -21.5t-22 -50.5q0 -16 18.5 -50.5t37 -80.5t18.5 -89h-622q-76 0 -129.5 -53.5t-53.5 -128.5v-1244q0 -76 53.5 -129t129.5 -53h1828q76 0 129.5 53t53.5 129z" />
</svg>
