<?xml version="1.0" standalone="no"?>
<!DOCTYPE svg PUBLIC "-//W3C//DTD SVG 1.1//EN" "http://www.w3.org/Graphics/SVG/1.1/DTD/svg11.dtd" >
<svg xmlns="http://www.w3.org/2000/svg" xmlns:xlink="http://www.w3.org/1999/xlink" version="1.1" viewBox="-10 0 1196 2048">
   <path fill="currentColor"
d="M168 1616v-168h856v168h-172q-68 0 -120 52t-52 120v84h-168v-84q0 -68 -52 -120t-120 -52h-172zM512 508q0 -36 24 -60t60 -24t60 24t24 60t-24 60t-60 24t-60 -24t-24 -60zM680 680q0 -36 26 -62t60 -26t60 26t26 60t-26 60t-60 26t-60 -26t-26 -58zM340 680
q0 -36 26 -62t60 -26t60 26t26 60t-26 60t-60 26t-60 -26t-26 -58zM1016 344q-172 -168 -420 -168t-420 168q-84 88 -130 194t-46 226q0 248 170 418t418 170t418 -170t170 -418q0 -268 -160 -420zM896 1064q-128 128 -300 128q-84 0 -164 -34t-136 -94q-128 -144 -128 -300
q0 -184 128 -300q144 -128 300 -128q184 0 300 128q128 144 128 300q0 184 -128 300z" />
</svg>
