<?xml version="1.0" standalone="no"?>
<!DOCTYPE svg PUBLIC "-//W3C//DTD SVG 1.1//EN" "http://www.w3.org/Graphics/SVG/1.1/DTD/svg11.dtd" >
<svg xmlns="http://www.w3.org/2000/svg" xmlns:xlink="http://www.w3.org/1999/xlink" version="1.1" viewBox="-10 0 1724 2048">
   <path fill="currentColor"
d="M512 410v168h-512v172h848q-28 72 -90 156t-150 156q-124 -108 -200 -228h-196q80 172 268 340l-416 332l104 132l444 -352l440 352l104 -132l-412 -332q244 -224 284 -424h164v-172h-512v-168h-168zM1492 494q-88 0 -150 62t-62 150t62 152t150 64t150 -64t62 -152
t-62 -150t-150 -62zM1488 1090q-88 0 -150 64t-62 152t62 150t150 62t152 -62t64 -150t-64 -152t-152 -64z" />
</svg>
