<?xml version="1.0" standalone="no"?>
<!DOCTYPE svg PUBLIC "-//W3C//DTD SVG 1.1//EN" "http://www.w3.org/Graphics/SVG/1.1/DTD/svg11.dtd" >
<svg xmlns="http://www.w3.org/2000/svg" xmlns:xlink="http://www.w3.org/1999/xlink" version="1.1" viewBox="-10 0 1884 2048">
   <path fill="currentColor"
d="M168 170q-68 0 -118 50t-50 122v1024q0 72 50 122t118 50h684v-172h-684v-852h1368v340h168v-340q0 -72 -50 -122t-118 -50h-684l-172 -172h-512zM1364 1026q-20 0 -24 16l-16 112l-72 40l-104 -40q-20 0 -28 8l-84 148q-8 16 4 28l92 72q-4 20 -4 42t4 42l-92 68
q-12 12 -4 28l84 148q4 12 28 12l104 -44q40 28 72 40l16 116q4 16 24 16h172q16 0 20 -16l16 -116q32 -12 72 -40l104 44q24 0 28 -12l84 -148q8 -16 -4 -28l-92 -68l4 -44q0 -20 -4 -40l92 -72q12 -12 4 -28l-84 -148q-4 -8 -28 -8l-104 40q-44 -28 -72 -40l-16 -112
q-4 -16 -20 -16h-172zM1448 1322q56 0 92 38t36 92t-36 90t-90 36t-92 -36t-38 -90t38 -92t90 -38z" />
</svg>
