<?xml version="1.0" standalone="no"?>
<!DOCTYPE svg PUBLIC "-//W3C//DTD SVG 1.1//EN" "http://www.w3.org/Graphics/SVG/1.1/DTD/svg11.dtd" >
<svg xmlns="http://www.w3.org/2000/svg" xmlns:xlink="http://www.w3.org/1999/xlink" version="1.1" viewBox="-10 0 1724 2048">
   <path fill="currentColor"
d="M1364 596q-72 0 -122 50t-50 122v512q0 72 50 122t122 50h172q68 0 118 -50t50 -122v-340h-168v340h-172v-512h340v-172h-340zM0 596v856h512v-172h-344v-684h-168zM768 596q-72 0 -122 50t-50 122v512q0 72 50 122t122 50h168q72 0 122 -50t50 -122v-512q0 -72 -50 -122
t-122 -50h-168zM768 768h168v512h-168v-512z" />
</svg>
