<?xml version="1.0" standalone="no"?>
<!DOCTYPE svg PUBLIC "-//W3C//DTD SVG 1.1//EN" "http://www.w3.org/Graphics/SVG/1.1/DTD/svg11.dtd" >
<svg xmlns="http://www.w3.org/2000/svg" xmlns:xlink="http://www.w3.org/1999/xlink" version="1.1" viewBox="-10 0 1728 2048">
   <path fill="currentColor"
d="M172 1536q36 96 92 160q76 84 204 128q152 52 388 52q200 0 312 -24q176 -36 284 -144q68 -68 104 -124q68 -100 104 -236q48 -176 48 -408q0 -348 -104 -492q-80 -108 -236 -108q-124 0 -184 24q-100 36 -156 148v4q-24 40 -68 62t-92 14q-64 -8 -84 -32
q-12 -16 -12 -48v-340h-172v340q-4 108 72 184t184 72q56 0 76 88q8 52 8 168q0 128 -36 208q-40 88 -132 132q-152 76 -282 64t-178 -108q-24 -68 -92 -84t-122 34t-80 120t-14 146v340h168v-340z" />
</svg>
