<?xml version="1.0" standalone="no"?>
<!DOCTYPE svg PUBLIC "-//W3C//DTD SVG 1.1//EN" "http://www.w3.org/Graphics/SVG/1.1/DTD/svg11.dtd" >
<svg xmlns="http://www.w3.org/2000/svg" xmlns:xlink="http://www.w3.org/1999/xlink" version="1.1" viewBox="-10 0 1556 2048">
   <path fill="currentColor"
d="M340 596h-168q-72 0 -122 50t-50 122v684h172v-344h168v344h172v-684q0 -72 -50 -122t-122 -50zM340 940h-168v-172h168v172zM940 596h-344v856h172v-344h172q68 0 118 -50t50 -118v-172q0 -72 -50 -122t-118 -50zM940 940h-172v-172h172v172zM1452 768v512h84v172h-340
v-172h84v-512h-84v-172h340v172h-84z" />
</svg>
