<?xml version="1.0" standalone="no"?>
<!DOCTYPE svg PUBLIC "-//W3C//DTD SVG 1.1//EN" "http://www.w3.org/Graphics/SVG/1.1/DTD/svg11.dtd" >
<svg xmlns="http://www.w3.org/2000/svg" xmlns:xlink="http://www.w3.org/1999/xlink" version="1.1" viewBox="-10 0 1812 2048">
   <path fill="currentColor"
d="M1280 1402q36 0 60 24t24 60t-24 62t-60 26t-62 -26t-26 -60t26 -60t62 -26zM1280 1146q172 0 310 94t202 246q-64 152 -202 248t-310 96t-312 -96t-200 -248q60 -152 200 -246t312 -94zM1280 1274q-88 0 -152 62t-64 152t64 152t152 62t150 -62t62 -152t-62 -152
t-150 -62zM1364 218h-1196q-68 0 -118 50t-50 122v1024q0 68 50 118t118 50h464q-20 -36 -36 -84q16 -48 36 -84h-464v-344h512v256q72 -108 172 -188v-68h100q152 -84 328 -84q132 0 256 52v-648q0 -72 -50 -122t-122 -50zM680 902h-512v-344h512v344zM1364 902h-512v-344
h512v344z" />
</svg>
