<?xml version="1.0" standalone="no"?>
<!DOCTYPE svg PUBLIC "-//W3C//DTD SVG 1.1//EN" "http://www.w3.org/Graphics/SVG/1.1/DTD/svg11.dtd" >
<svg xmlns="http://www.w3.org/2000/svg" xmlns:xlink="http://www.w3.org/1999/xlink" version="1.1" viewBox="-10 0 1640 2048">
   <path fill="currentColor"
d="M512 384q-108 0 -182 74t-74 182v256q0 104 74 180t182 76t182 -76t74 -180v-256q0 -108 -74 -182t-182 -74zM596 896q0 36 -24 60t-60 24t-60 -24t-24 -60v-256q0 -36 24 -62t60 -26t60 26t24 62v256zM1108 1152q108 0 182 -76t74 -180v-256q0 -108 -74 -182t-180 -74
t-182 74t-76 182v256q0 104 76 180t180 76zM1024 640q0 -36 24 -62t60 -26t62 26t26 62v256q0 36 -26 60t-62 24t-60 -24t-24 -60v-256zM1364 1664v-172h-512v-172h512v-168l256 256zM172 1064v256h-88l-84 -256q0 -36 24 -60t60 -24t62 24t26 60z" />
</svg>
