<?xml version="1.0" standalone="no"?>
<!DOCTYPE svg PUBLIC "-//W3C//DTD SVG 1.1//EN" "http://www.w3.org/Graphics/SVG/1.1/DTD/svg11.dtd" >
<svg xmlns="http://www.w3.org/2000/svg" xmlns:xlink="http://www.w3.org/1999/xlink" version="1.1" viewBox="-10 0 1812 2048">
   <path fill="currentColor"
d="M852 510v-340h-852v1536h968q-32 -84 -32 -172h-84v-168h116q20 -60 56 -112v-60h-172v-172h172v-168h-172v-172h684v348q88 16 168 64v-584h-852zM340 1534h-172v-168h172v168zM340 1194h-172v-172h172v172zM340 854h-172v-172h172v172zM340 510h-172v-168h172v168z
M680 1534h-168v-168h168v168zM680 1194h-168v-172h168v172zM680 854h-168v-172h168v172zM680 510h-168v-168h168v168zM1192 1022h172v-168h-172v168zM1192 854v168h172v-168h-172zM1192 854v168h172v-168h-172zM1536 1194v256h256v172h-256v256h-172v-256h-256v-172h256
v-256h172z" />
</svg>
