<?xml version="1.0" standalone="no"?>
<!DOCTYPE svg PUBLIC "-//W3C//DTD SVG 1.1//EN" "http://www.w3.org/Graphics/SVG/1.1/DTD/svg11.dtd" >
<svg xmlns="http://www.w3.org/2000/svg" xmlns:xlink="http://www.w3.org/1999/xlink" version="1.1" viewBox="-10 0 1388 2048">
   <path fill="currentColor"
d="M512 554q108 0 182 76t74 180v256q0 108 -74 182t-180 74t-182 -74t-76 -182v-256q0 -104 76 -180t180 -76zM512 726q-36 0 -60 24t-24 60v256q0 36 24 62t60 26t62 -26t26 -62v-256q0 -36 -26 -60t-62 -24zM1112 554q104 0 180 76t76 180v256q0 108 -76 182t-182 74
t-180 -74t-74 -182v-256q0 -104 74 -180t182 -76zM1112 726q-36 0 -62 24t-26 60v256q0 36 26 62t62 26t60 -26t24 -62v-256q0 -36 -24 -60t-60 -24zM88 1154q-36 0 -62 24t-26 60l88 256h84v-256q0 -36 -24 -60t-60 -24z" />
</svg>
