<?xml version="1.0" standalone="no"?>
<!DOCTYPE svg PUBLIC "-//W3C//DTD SVG 1.1//EN" "http://www.w3.org/Graphics/SVG/1.1/DTD/svg11.dtd" >
<svg xmlns="http://www.w3.org/2000/svg" xmlns:xlink="http://www.w3.org/1999/xlink" version="1.1" viewBox="-10 0 1772 2048">
   <path fill="currentColor"
d="M852 530v-340h-852v1536h968q-32 -84 -32 -172h-84v-168h116q20 -60 56 -112v-60h-172v-172h172v-168h-172v-172h684v348q88 16 168 64v-584h-852zM340 1554h-172v-168h172v168zM340 1214h-172v-172h172v172zM340 874h-172v-172h172v172zM340 530h-172v-168h172v168z
M680 1554h-168v-168h168v168zM680 1214h-168v-172h168v172zM680 874h-168v-172h168v172zM680 530h-168v-168h168v168zM1192 1042h172v-168h-172v168zM1192 874v168h172v-168h-172zM1192 874v168h172v-168h-172zM1752 1374l-184 180l184 184l-120 120l-184 -184l-180 184
l-120 -120l180 -184l-180 -180l120 -120l180 180l184 -180z" />
</svg>
