<?xml version="1.0" standalone="no"?>
<!DOCTYPE svg PUBLIC "-//W3C//DTD SVG 1.1//EN" "http://www.w3.org/Graphics/SVG/1.1/DTD/svg11.dtd" >
<svg xmlns="http://www.w3.org/2000/svg" xmlns:xlink="http://www.w3.org/1999/xlink" version="1.1" viewBox="-10 0 1900 2048">
   <path fill="currentColor"
d="M1708 340q-4 -68 -52 -118t-120 -50h-1192q-72 0 -120 50t-52 118v1196h1536v-1196zM620 1364h-108v-852h108q64 0 120 80q44 64 68 172q24 96 24 174t-24 174q-24 108 -68 176q-56 76 -120 76zM1152 1152q-88 0 -150 -62t-62 -150t62 -152t150 -64t152 64t64 152
t-64 150t-152 62zM1880 1792v84h-1880v-84q0 -72 50 -122t122 -50h1536q72 0 122 50t50 122z" />
</svg>
