<?xml version="1.0" standalone="no"?>
<!DOCTYPE svg PUBLIC "-//W3C//DTD SVG 1.1//EN" "http://www.w3.org/Graphics/SVG/1.1/DTD/svg11.dtd" >
<svg xmlns="http://www.w3.org/2000/svg" xmlns:xlink="http://www.w3.org/1999/xlink" version="1.1" viewBox="-10 0 1900 2048">
   <path fill="currentColor"
d="M1708 820v-264q0 -72 -50 -122t-122 -50h-680l-172 -172h-512q-72 0 -122 50t-50 122v1024q0 72 50 122t122 50h616q76 116 208 186t284 70q164 0 302 -80t218 -218t80 -302q0 -116 -46 -224t-126 -192zM708 1408h-536v-852h1364v144q-108 -60 -256 -60q-164 0 -300 80
t-216 216t-80 300q0 96 24 172zM1280 1664q-116 0 -214 -56t-154 -154t-56 -216t56 -216t154 -154t216 -56t216 56t154 154t56 216t-56 216t-154 154t-218 56zM1368 1068h-172v-172h172v172zM1368 1580h-172v-428h172v428z" />
</svg>
