<?xml version="1.0" standalone="no"?>
<!DOCTYPE svg PUBLIC "-//W3C//DTD SVG 1.1//EN" "http://www.w3.org/Graphics/SVG/1.1/DTD/svg11.dtd" >
<svg xmlns="http://www.w3.org/2000/svg" xmlns:xlink="http://www.w3.org/1999/xlink" version="1.1" viewBox="-10 0 1724 2048">
   <path fill="currentColor"
d="M708 932q64 104 56 214t-86 158t-180 8t-168 -144t-56 -214t88 -158t180 -8t166 144zM852 1516q76 0 132 -16q40 -12 64 -32l16 -16l-16 44q-24 48 -64 80q-56 44 -132 44t-132 -44q-40 -28 -64 -80q-16 -36 -16 -44l16 16q24 20 64 32q56 16 132 16zM1344 796
q76 48 86 158t-56 214t-168 144t-180 -8t-86 -158t56 -214t166 -144t182 8zM852 1708q108 0 272 -126t280 -298q132 -192 132 -350t-92 -294t-250 -218t-342 -82t-342 82t-250 218t-92 294t132 350q116 172 280 298t272 126zM852 172q232 0 428 102t310 280t114 386
q0 172 -138 396t-330 376q-208 164 -384 164t-384 -164q-192 -152 -330 -376t-138 -396q0 -208 114 -386t310 -280t428 -102z" />
</svg>
