<?xml version="1.0" standalone="no"?>
<!DOCTYPE svg PUBLIC "-//W3C//DTD SVG 1.1//EN" "http://www.w3.org/Graphics/SVG/1.1/DTD/svg11.dtd" >
<svg xmlns="http://www.w3.org/2000/svg" xmlns:xlink="http://www.w3.org/1999/xlink" version="1.1" viewBox="-10 0 1212 2048">
   <path fill="currentColor"
d="M596 1446q-72 0 -122 -50t-50 -122t50 -122t122 -50t122 50t50 122t-50 122t-122 50zM596 846q112 0 244 36q152 36 244 96q108 76 108 168v436q0 104 -140 188v-636q0 -24 -70 -62t-170 -62q-112 -32 -216 -32t-216 32q-100 24 -170 62t-70 62v460q0 16 38 42t102 50
q40 -48 148 -80q88 -28 168 -28q108 0 212 44q128 48 128 128v68q-84 32 -176 48t-164 16t-164 -16t-176 -48q-116 -40 -180 -96q-76 -64 -76 -140v-436q0 -92 108 -168q92 -60 244 -96q132 -36 244 -36zM596 314q-64 0 -106 44t-42 106t42 106t106 44t106 -44t42 -106
t-42 -106t-106 -44zM596 762q-124 0 -212 -88t-88 -212t88 -210t212 -86t212 86t88 210t-88 212t-212 88z" />
</svg>
