<?xml version="1.0" standalone="no"?>
<!DOCTYPE svg PUBLIC "-//W3C//DTD SVG 1.1//EN" "http://www.w3.org/Graphics/SVG/1.1/DTD/svg11.dtd" >
<svg xmlns="http://www.w3.org/2000/svg" xmlns:xlink="http://www.w3.org/1999/xlink" version="1.1" viewBox="-10 0 1388 2048">
   <path fill="currentColor"
d="M1056 1088q136 48 216 112q96 76 96 164v428h-1368v-428q0 -88 96 -164q80 -64 216 -112l72 148q-92 32 -156 68t-64 60v264h360l76 -432l-80 -160q88 -8 164 -8t164 8l-80 160l76 432h360v-264q0 -24 -64 -60t-156 -68l20 -40zM684 428q-72 0 -122 50t-50 120t50 120
t122 50t122 -50t50 -120t-50 -120t-122 -50zM684 940q-140 0 -240 -100t-100 -242t100 -242t240 -100t240 100t100 242t-100 242t-240 100z" />
</svg>
