<?xml version="1.0" standalone="no"?>
<!DOCTYPE svg PUBLIC "-//W3C//DTD SVG 1.1//EN" "http://www.w3.org/Graphics/SVG/1.1/DTD/svg11.dtd" >
<svg xmlns="http://www.w3.org/2000/svg" xmlns:xlink="http://www.w3.org/1999/xlink" version="1.1" viewBox="-10 0 1724 2048">
   <path fill="currentColor"
d="M1280 942q-12 -132 -70 -240t-152 -170t-206 -62t-206 62t-152 170t-70 240q-196 44 -310 122t-114 172t114 172t310 124t428 46t428 -46t310 -124t114 -172t-114 -172t-310 -122zM1104 1054q-252 24 -504 0q-4 -44 -4 -72q0 -144 76 -244t180 -100t180 100t76 244
q0 48 -4 72z" />
</svg>
