<?xml version="1.0" standalone="no"?>
<!DOCTYPE svg PUBLIC "-//W3C//DTD SVG 1.1//EN" "http://www.w3.org/Graphics/SVG/1.1/DTD/svg11.dtd" >
<svg xmlns="http://www.w3.org/2000/svg" xmlns:xlink="http://www.w3.org/1999/xlink" version="1.1" viewBox="-10 0 1724 2048">
   <path fill="currentColor"
d="M936 1324h344v-256l424 384l-424 384v-256h-344v-256zM1536 212h-1368q-68 0 -118 50t-50 122v1024q0 72 50 122t118 50h628q-28 -84 -28 -172q0 -168 100 -304t262 -186t322 8t252 198v-740q0 -72 -50 -122t-118 -50zM1536 556l-684 424l-684 -424v-172l684 428
l684 -428v172z" />
</svg>
