<?xml version="1.0" standalone="no"?>
<!DOCTYPE svg PUBLIC "-//W3C//DTD SVG 1.1//EN" "http://www.w3.org/Graphics/SVG/1.1/DTD/svg11.dtd" >
<svg xmlns="http://www.w3.org/2000/svg" xmlns:xlink="http://www.w3.org/1999/xlink" version="1.1" viewBox="-10 0 1556 2048">
   <path fill="currentColor"
d="M1364 342h-356q-28 -76 -94 -124t-146 -48t-146 48t-94 124h-356q-72 0 -122 50t-50 122v1192q0 72 50 122t122 50h1192q72 0 122 -50t50 -122v-1192q0 -72 -50 -122t-122 -50zM340 770h172v340h-84v-256h-88v-84zM596 1538v84h-256v-80l172 -176h-172v-84h192
q28 0 46 18t18 44t-16 46l-144 148h160zM684 426q0 -32 24 -58t60 -26t60 26t24 60t-24 60t-60 26t-60 -26t-24 -62zM1196 1538h-428v-172h428v172zM1196 1026h-428v-172h428v172z" />
</svg>
