<?xml version="1.0" standalone="no"?>
<!DOCTYPE svg PUBLIC "-//W3C//DTD SVG 1.1//EN" "http://www.w3.org/Graphics/SVG/1.1/DTD/svg11.dtd" >
<svg xmlns="http://www.w3.org/2000/svg" xmlns:xlink="http://www.w3.org/1999/xlink" version="1.1" viewBox="-10 0 1724 2048">
   <path fill="currentColor"
d="M1364 768h172v-428h168v428q0 72 -50 122t-118 50h-172v168l-256 -256l256 -256v172zM1024 852q0 -68 -50 -118t-122 -50t-122 50t-50 120t50 120t122 50t122 -50t50 -122zM0 940v424h168v-424h172v168l256 -256l-256 -256v172h-172q-68 0 -118 50t-50 122zM1108 1364
l-256 -256l-256 256h172v172q0 72 50 122t118 50h428v-172h-428v-172h172z" />
</svg>
