<?xml version="1.0" standalone="no"?>
<!DOCTYPE svg PUBLIC "-//W3C//DTD SVG 1.1//EN" "http://www.w3.org/Graphics/SVG/1.1/DTD/svg11.dtd" >
<svg xmlns="http://www.w3.org/2000/svg" xmlns:xlink="http://www.w3.org/1999/xlink" version="1.1" viewBox="-10 0 1556 2048">
   <path fill="currentColor"
d="M1364 256h-1192q-72 0 -122 50t-50 122v1192q0 72 50 122t122 50h1192q72 0 122 -50t50 -122v-1192q0 -72 -50 -122t-122 -50zM684 684h-172v168q0 72 -50 122t-122 50q72 0 122 50t50 122v168h172v172h-172q-72 0 -122 -50t-50 -122v-84q0 -72 -50 -122t-118 -50v-168
q68 0 118 -50t50 -122v-84q0 -72 50 -122t122 -50h172v172zM1364 1108q-68 0 -118 50t-50 122v84q0 72 -50 122t-122 50h-172v-172h172v-168q0 -72 50 -122t122 -50q-72 0 -122 -50t-50 -122v-168h-172v-172h172q72 0 122 50t50 122v84q0 72 50 122t118 50v168z" />
</svg>
