<?xml version="1.0" standalone="no"?>
<!DOCTYPE svg PUBLIC "-//W3C//DTD SVG 1.1//EN" "http://www.w3.org/Graphics/SVG/1.1/DTD/svg11.dtd" >
<svg xmlns="http://www.w3.org/2000/svg" xmlns:xlink="http://www.w3.org/1999/xlink" version="1.1" viewBox="-10 0 1922 2048">
   <path fill="currentColor"
d="M878 1170v440q0 90 -64.5 154t-155.5 64h-439q-91 0 -155 -64t-64 -154v-806q0 -118 46.5 -226.5t125 -187t186.5 -124.5t227 -46h73q30 0 51.5 21t21.5 51v146q0 30 -21.5 52t-51.5 22h-73q-121 0 -206.5 86t-85.5 206v38q0 45 31.5 76.5t77.5 31.5h256q91 0 155.5 65
t64.5 155zM1902 1170v440q0 90 -64.5 154t-155.5 64h-439q-91 0 -155 -64t-64 -154v-806q0 -118 46.5 -226.5t125 -187t186.5 -124.5t227 -46h73q30 0 51.5 21t21.5 51v146q0 30 -21.5 52t-51.5 22h-73q-121 0 -206.5 86t-85.5 206v38q0 45 31.5 76.5t77.5 31.5h256
q91 0 155.5 65t64.5 155z" />
</svg>
