<?xml version="1.0" standalone="no"?>
<!DOCTYPE svg PUBLIC "-//W3C//DTD SVG 1.1//EN" "http://www.w3.org/Graphics/SVG/1.1/DTD/svg11.dtd" >
<svg xmlns="http://www.w3.org/2000/svg" xmlns:xlink="http://www.w3.org/1999/xlink" version="1.1" viewBox="-10 0 1556 2048">
   <path fill="currentColor"
d="M1364 256h-1192q-72 0 -122 50t-50 122v1192q0 72 50 122t122 50h1192q72 0 122 -50t50 -122v-1192q0 -72 -50 -122t-122 -50zM596 1476l-136 60q-96 -96 -150 -230t-54 -282t54 -282t150 -230l136 60q-80 76 -124 196t-44 256t44 256t124 196zM1076 1536l-136 -60
q80 -84 124 -200t44 -252t-44 -256t-124 -196l136 -60q96 96 150 230t54 282t-54 282t-150 230z" />
</svg>
