<?xml version="1.0" standalone="no"?>
<!DOCTYPE svg PUBLIC "-//W3C//DTD SVG 1.1//EN" "http://www.w3.org/Graphics/SVG/1.1/DTD/svg11.dtd" >
<svg xmlns="http://www.w3.org/2000/svg" xmlns:xlink="http://www.w3.org/1999/xlink" version="1.1" viewBox="-10 0 1900 2048">
   <path fill="currentColor"
d="M172 1280v172h172v-172h-172zM1196 1620v172h172v-172h-172zM1536 256h-1192q-72 0 -122 50t-50 122v340h172v-340h1192v340h172v-340q0 -72 -50 -122t-122 -50zM1708 1620h-172v172q72 0 122 -50t50 -122zM0 940v168h1880v-168h-1880zM512 1620v172h172v-172h-172z
M1536 1280v172h172v-172h-172zM856 1620v172h168v-172h-168zM172 1620q0 72 50 122t122 50v-172h-172z" />
</svg>
