<?xml version="1.0" standalone="no"?>
<!DOCTYPE svg PUBLIC "-//W3C//DTD SVG 1.1//EN" "http://www.w3.org/Graphics/SVG/1.1/DTD/svg11.dtd" >
<svg xmlns="http://www.w3.org/2000/svg" xmlns:xlink="http://www.w3.org/1999/xlink" version="1.1" viewBox="-10 0 1044 2048">
   <path fill="currentColor"
d="M492 1620q72 0 114 -60t42 -168q0 -168 -24 -312l400 -652h-232l-220 408l-12 -40q-60 -168 -120 -252q-88 -116 -212 -116q-84 0 -144 44q-84 72 -84 252h76q8 -48 28 -84q32 -56 88 -56q100 0 172 160q40 96 96 316q-120 288 -120 388q0 68 40 120t112 52z" />
</svg>
