<?xml version="1.0" standalone="no"?>
<!DOCTYPE svg PUBLIC "-//W3C//DTD SVG 1.1//EN" "http://www.w3.org/Graphics/SVG/1.1/DTD/svg11.dtd" >
<svg xmlns="http://www.w3.org/2000/svg" xmlns:xlink="http://www.w3.org/1999/xlink" version="1.1" viewBox="-10 0 1556 2048">
   <path fill="currentColor"
d="M1024 1792h172v-172h-172v172zM1364 768h172v-172h-172v172zM0 428v1192q0 72 50 122t122 50h340v-172h-340v-1192h340v-172h-340q-72 0 -122 50t-50 122zM1364 256v172h172q0 -72 -50 -122t-122 -50zM684 1964h168v-1880h-168v1880zM1364 1452h172v-172h-172v172z
M1024 428h172v-172h-172v172zM1364 1108h172v-168h-172v168zM1364 1792q72 0 122 -50t50 -122h-172v172z" />
</svg>
