<?xml version="1.0" standalone="no"?>
<!DOCTYPE svg PUBLIC "-//W3C//DTD SVG 1.1//EN" "http://www.w3.org/Graphics/SVG/1.1/DTD/svg11.dtd" >
<svg xmlns="http://www.w3.org/2000/svg" xmlns:xlink="http://www.w3.org/1999/xlink" version="1.1" viewBox="-10 0 1922 2048">
   <path fill="currentColor"
d="M878 438v806q0 118 -46.5 226.5t-125 187t-186.5 124.5t-227 46h-74q-30 0 -51.5 -21t-21.5 -51v-146q0 -31 21.5 -52.5t51.5 -21.5h74q121 0 206.5 -86t85.5 -206v-38q0 -45 -32 -76.5t-78 -31.5h-256q-91 0 -155 -65t-64 -155v-440q0 -90 64 -154t155 -64h439
q91 0 155.5 64t64.5 154zM1902 438v806q0 118 -46.5 226.5t-125 187t-186.5 124.5t-227 46h-74q-30 0 -51.5 -21t-21.5 -51v-146q0 -31 21.5 -52.5t51.5 -21.5h74q121 0 206.5 -86t85.5 -206v-38q0 -45 -32 -76.5t-78 -31.5h-256q-91 0 -155 -65t-64 -155v-440
q0 -90 64 -154t155 -64h439q91 0 155.5 64t64.5 154z" />
</svg>
