<?xml version="1.0" standalone="no"?>
<!DOCTYPE svg PUBLIC "-//W3C//DTD SVG 1.1//EN" "http://www.w3.org/Graphics/SVG/1.1/DTD/svg11.dtd" >
<svg xmlns="http://www.w3.org/2000/svg" xmlns:xlink="http://www.w3.org/1999/xlink" version="1.1" viewBox="-10 0 1780 2048">
   <path fill="currentColor"
d="M1048 1153h-20q-12 8 -16 20t0 24l72 180q112 -72 152 -192zM752 1177q-8 -24 -32 -24l-196 32q44 120 152 188l72 -176q4 -4 4 -20zM908 1245q-8 -8 -20 -12t-24 0v4q-8 4 -12 8l-96 168q104 36 208 12q20 -4 40 -12zM1204 857l-144 124v4q-12 8 -12 22t8 22t16 12
l188 52q8 -132 -56 -236zM936 869q0 16 10 24t22 8t20 -4l156 -112q-88 -88 -216 -104zM772 897q12 8 24 6t18 -12t10 -18l8 -192l-36 4q-108 24 -184 100zM688 1041q12 -4 18 -16t4 -22t-10 -18l-144 -132q-68 116 -52 240zM828 1097l52 28l52 -28l12 -56l-36 -44h-56
l-40 44zM1756 1209l-152 -652q-12 -56 -60 -80l-612 -296q-52 -20 -104 0l-612 296q-48 24 -60 80l-152 652q-8 28 0 52l4 16q4 12 12 20l428 540q4 0 4 4l24 20q16 8 36 12q8 4 28 4h692h12l40 -16q12 -8 28 -24l420 -528q12 -16 20 -32l4 -16q8 -24 0 -52zM1124 1465
q0 12 4 16q-4 12 -4 20q20 40 36 60l20 28l4 12q4 12 2 26t-16 22t-28 4t-22 -16l-8 -16l-12 -40q-16 -36 -24 -56q-8 -8 -20 -12l-4 -12q-172 64 -340 0l-8 12q-12 4 -16 8q-16 28 -28 68l-12 32l-4 8q-4 16 -18 22t-28 2t-22 -18t0 -30v-4q4 -4 4 -12l20 -28
q20 -28 36 -60q0 -12 -4 -20l8 -16q-156 -92 -212 -264l-16 4q-12 -8 -20 -8q-24 4 -68 16q-12 8 -32 16h-8q-16 4 -30 -2t-18 -20t2 -28t22 -18l16 -4q12 -4 36 -4t68 -12q8 -4 16 -16l16 -4q-28 -176 72 -328l-12 -12q0 -12 -8 -20q-24 -24 -52 -40l-32 -16l-8 -8
q-12 -8 -16 -24t8 -30t28 -12t28 10l28 32q28 28 52 44q8 4 20 4l16 8q96 -104 236 -136q32 -8 68 -12v-16q8 -4 12 -16q0 -32 -4 -68q-4 -16 -4 -36v-8q0 -16 8 -28t24 -14t28 8t12 26v16q0 20 -4 36q-4 36 -4 68q0 12 12 16v16q180 16 304 148l12 -12q12 4 24 0
q28 -20 48 -44l24 -28l8 -4q12 -12 28 -12t26 12t10 26t-12 26l-4 4l-8 8q-12 8 -32 16q-32 20 -52 40q-8 8 -8 20l-12 12q100 148 72 328l16 4q8 12 16 16q28 8 68 12h36q0 4 8 4q16 4 26 16t6 26t-14 24t-26 6l-20 -4q-16 -4 -28 -12q-36 -12 -68 -16q-12 0 -20 4h-16
q-24 80 -80 150t-128 114z" />
</svg>
