<?xml version="1.0" standalone="no"?>
<!DOCTYPE svg PUBLIC "-//W3C//DTD SVG 1.1//EN" "http://www.w3.org/Graphics/SVG/1.1/DTD/svg11.dtd" >
<svg xmlns="http://www.w3.org/2000/svg" xmlns:xlink="http://www.w3.org/1999/xlink" version="1.1" viewBox="-10 0 1900 2048">
   <path fill="currentColor"
d="M1708 172h-1536q-72 0 -122 50t-50 118v1368q0 68 50 118t122 50h1536q72 0 122 -50t50 -118v-1368q0 -68 -50 -118t-122 -50zM856 940h-172v128q0 68 -50 118t-122 50q72 0 122 50t50 122v128h172v172h-172q-72 0 -122 -50t-50 -122v-44q0 -68 -50 -118t-118 -50v-172
q68 0 118 -50t50 -122v-40q0 -72 50 -122t122 -50h172v172zM1536 1324q-68 0 -118 50t-50 118v44q0 72 -50 122t-122 50h-172v-172h172v-128q0 -72 50 -122t122 -50q-72 0 -122 -50t-50 -118v-128h-172v-172h172q72 0 122 50t50 122v40q0 72 50 122t118 50v172zM1708 596
h-1536v-256h1536v256z" />
</svg>
