<?xml version="1.0" standalone="no"?>
<!DOCTYPE svg PUBLIC "-//W3C//DTD SVG 1.1//EN" "http://www.w3.org/Graphics/SVG/1.1/DTD/svg11.dtd" >
<svg xmlns="http://www.w3.org/2000/svg" xmlns:xlink="http://www.w3.org/1999/xlink" version="1.1" viewBox="-10 0 1724 2048">
   <path fill="currentColor"
d="M1192 1708q244 -132 376 -304q136 -176 136 -380q0 -168 -90 -320t-258 -276h-8q160 180 160 424q0 180 -100 332q-84 124 -256 252l-216 136v-92l172 -116l-12 -36q-12 -44 -24 -96q132 -56 212 -170t80 -250t-78 -250t-206 -174l28 -132l-256 -172l-256 172l28 132
q-128 60 -206 174t-78 250t80 250t212 170q-20 84 -36 132l172 116v92l-216 -136q-172 -128 -256 -252q-100 -152 -100 -332q0 -244 160 -424h-4q-168 124 -260 276t-92 320q0 204 136 380q132 172 376 304l84 -128l164 104l-304 192l56 88l256 -168v168h168v-168l256 168
l56 -88l-304 -192l164 -104zM1256 812q0 100 -56 182t-152 130q-24 -148 -24 -272q0 -140 36 -352q88 48 142 130t54 182zM448 812q0 -100 54 -182t146 -130q32 216 32 352q0 124 -24 272q-96 -48 -152 -130t-56 -182z" />
</svg>
