<?xml version="1.0" standalone="no"?>
<!DOCTYPE svg PUBLIC "-//W3C//DTD SVG 1.1//EN" "http://www.w3.org/Graphics/SVG/1.1/DTD/svg11.dtd" >
<svg xmlns="http://www.w3.org/2000/svg" xmlns:xlink="http://www.w3.org/1999/xlink" version="1.1" viewBox="-10 0 1725 2048">
   <path fill="currentColor"
d="M681 1002q304 -60 600 -148v-600l-156 -44q-180 -48 -332 -80q-212 -44 -324 -44q-176 0 -308 116t-156 292t76 322t272 190l72 528h88q4 64 36 116t90 86t92 94t38 132h84q0 -88 -44 -168t-120 -128q-48 -40 -68 -60q-24 -32 -24 -72h84v-532zM169 554q0 -124 88 -212
t212 -88q328 32 640 128v344q-312 96 -640 128q-124 0 -212 -88t-88 -212zM1705 682q-100 4 -188 -48q-72 -40 -152 -36v-88q100 0 188 48q72 40 152 40v84zM1705 426q-80 4 -152 -40q-88 -48 -188 -44v84q80 -4 152 40q88 48 188 44v-84zM1705 766q-80 4 -152 -36
q-88 -52 -188 -48v84q80 0 152 40q88 48 188 48v-88zM597 554q0 52 -38 90t-90 38t-90 -38t-38 -90t38 -90t90 -38t90 38t38 90z" />
</svg>
