<?xml version="1.0" standalone="no"?>
<!DOCTYPE svg PUBLIC "-//W3C//DTD SVG 1.1//EN" "http://www.w3.org/Graphics/SVG/1.1/DTD/svg11.dtd" >
<svg xmlns="http://www.w3.org/2000/svg" xmlns:xlink="http://www.w3.org/1999/xlink" version="1.1" viewBox="-10 0 1900 2048">
   <path fill="currentColor"
d="M1708 172h-1536q-72 0 -122 50t-50 118v1368q0 68 50 118t122 50h1536q72 0 122 -50t50 -118v-1368q0 -68 -50 -118t-122 -50zM1708 1708h-1536v-1196h1536v1196zM684 684q-72 0 -122 50t-50 120t-50 120t-118 50v172q68 0 118 50t50 120t50 120t122 50h172v-172h-172
v-84q0 -72 -50 -122t-122 -50q72 0 122 -50t50 -118v-88h172v-168h-172zM1196 684q72 0 122 50t50 120t50 120t118 50v172q-68 0 -118 50t-50 120t-50 120t-122 50h-172v-172h172v-84q0 -72 50 -122t122 -50q-72 0 -122 -50t-50 -118v-88h-172v-168h172z" />
</svg>
