<?xml version="1.0" standalone="no"?>
<!DOCTYPE svg PUBLIC "-//W3C//DTD SVG 1.1//EN" "http://www.w3.org/Graphics/SVG/1.1/DTD/svg11.dtd" >
<svg xmlns="http://www.w3.org/2000/svg" xmlns:xlink="http://www.w3.org/1999/xlink" version="1.1" viewBox="-10 0 1900 2048">
   <path fill="currentColor"
d="M1708 172h-1536q-72 0 -122 50t-50 118v1368q0 68 50 118t122 50h1536q72 0 122 -50t50 -118v-1368q0 -68 -50 -118t-122 -50zM1708 1708h-1536v-1196h1536v1196zM1248 684q96 84 150 194t54 230t-54 232t-150 196l-136 -52q80 -60 124 -162t44 -212t-44 -212t-124 -166z
M632 684l136 48q-80 64 -124 166t-44 212t44 212t124 162l-136 52q-96 -84 -150 -196t-54 -232t54 -230t150 -194z" />
</svg>
