<?xml version="1.0" standalone="no"?>
<!DOCTYPE svg PUBLIC "-//W3C//DTD SVG 1.1//EN" "http://www.w3.org/Graphics/SVG/1.1/DTD/svg11.dtd" >
<svg xmlns="http://www.w3.org/2000/svg" xmlns:xlink="http://www.w3.org/1999/xlink" version="1.1" viewBox="-10 0 1900 2048">
   <path fill="currentColor"
d="M1708 172h-1536q-72 0 -122 50t-50 118v1368q0 68 50 118t122 50h1536q72 0 122 -50t50 -118v-1368q0 -68 -50 -118t-122 -50zM548 1708q-96 -92 -150 -214t-54 -256t54 -256t150 -214l136 52q-80 68 -126 180t-46 236t44 234t128 186zM1000 1536l-68 -172l-120 172h-128
l196 -264l-112 -248h112l68 172l120 -172h128l-188 256l112 256h-120zM1332 1708l-136 -52q84 -76 128 -186t44 -232t-44 -232t-128 -186l136 -52q96 92 150 214t54 256t-54 256t-150 214zM1708 596h-1536v-256h1536v256z" />
</svg>
