<?xml version="1.0" standalone="no"?>
<!DOCTYPE svg PUBLIC "-//W3C//DTD SVG 1.1//EN" "http://www.w3.org/Graphics/SVG/1.1/DTD/svg11.dtd" >
<svg xmlns="http://www.w3.org/2000/svg" xmlns:xlink="http://www.w3.org/1999/xlink" version="1.1" viewBox="-10 0 1900 2048">
   <path fill="currentColor"
d="M1708 1364h-1536v-1024h1536v1024zM1708 172h-1536q-72 0 -122 50t-50 118v1024q0 72 50 122t122 50h596v172h-168v168h680v-168h-168v-172h596q72 0 122 -50t50 -122v-1024q0 -68 -50 -118t-122 -50zM1196 468l-52 120l-120 52l120 52l52 120l52 -120l120 -52l-120 -52z
M812 640l-92 204l-208 96l208 92l92 204l92 -204l208 -92l-208 -96z" />
</svg>
