<?xml version="1.0" standalone="no"?>
<!DOCTYPE svg PUBLIC "-//W3C//DTD SVG 1.1//EN" "http://www.w3.org/Graphics/SVG/1.1/DTD/svg11.dtd" >
<svg xmlns="http://www.w3.org/2000/svg" xmlns:xlink="http://www.w3.org/1999/xlink" version="1.1" viewBox="-10 0 1728 2048">
   <path fill="currentColor"
d="M1692 1524l-492 -880l-8 -8q-36 -44 -80 -44t-80 52l-64 104l-172 -308q-8 -16 -24 -32q-28 -24 -60 -24q-52 0 -80 56l-616 1080q-28 56 -6 100t94 44h1508q64 0 86 -46t-6 -94zM524 1520l-12 44h-404l608 -1068l196 352zM616 1564l352 -612l356 612h-708zM1432 1564
l-16 -44l-388 -672l88 -148l488 864h-172z" />
</svg>
