<?xml version="1.0" standalone="no"?>
<!DOCTYPE svg PUBLIC "-//W3C//DTD SVG 1.1//EN" "http://www.w3.org/Graphics/SVG/1.1/DTD/svg11.dtd" >
<svg xmlns="http://www.w3.org/2000/svg" xmlns:xlink="http://www.w3.org/1999/xlink" version="1.1" viewBox="-10 0 1557 2048">
   <path fill="currentColor"
d="M1184 382l184 180l-472 376l-84 -84zM1184 214q-80 0 -132 60l-472 592l304 300l592 -468q56 -52 60 -126t-52 -130l-180 -180q-48 -48 -120 -48zM520 926l-60 60q-24 24 -24 60t24 64l180 176q24 28 60 28t64 -28l56 -56zM256 1322q-36 0 -60 26t-24 60t24 60t60 26
t60 -26t24 -60t-24 -60t-60 -26zM512 1406q-36 0 -60 26t-24 60t24 60t60 26t60 -26t24 -60t-24 -60t-60 -26zM84 1578q-32 0 -58 26t-26 60t26 60t60 26t60 -26t26 -60t-26 -60t-62 -26zM340 1662q-32 0 -58 26t-26 60t26 60t60 26t60 -26t26 -60t-26 -60t-62 -26z" />
</svg>
