<?xml version="1.0" standalone="no"?>
<!DOCTYPE svg PUBLIC "-//W3C//DTD SVG 1.1//EN" "http://www.w3.org/Graphics/SVG/1.1/DTD/svg11.dtd" >
<svg xmlns="http://www.w3.org/2000/svg" xmlns:xlink="http://www.w3.org/1999/xlink" version="1.1" viewBox="-10 0 1922 2048">
   <path fill="currentColor"
d="M528 1630q0 60 -42.5 103t-103.5 43q-60 0 -103 -43t-43 -103q0 -61 43 -104t103 -43q61 0 103.5 43t42.5 104zM1097 1865q0 61 -42.5 103.5t-103.5 42.5t-103.5 -42.5t-42.5 -103.5t42.5 -103.5t103.5 -42.5t103.5 42.5t42.5 103.5zM293 1061q0 61 -43 103.5t-104 42.5
t-103.5 -42.5t-42.5 -103.5t42.5 -104t103.5 -43t104 43t43 104zM1666 1630q0 60 -43 103t-103 43q-61 0 -103.5 -43t-42.5 -103q0 -61 42.5 -104t103.5 -43q60 0 103 43t43 104zM565 491q0 76 -53.5 129.5t-129.5 53.5t-129.5 -53.5t-53.5 -129.5t53.5 -129t129.5 -53
t129.5 53t53.5 129zM1902 1061q0 61 -42.5 103.5t-103.5 42.5t-104 -42.5t-43 -103.5t43 -104t104 -43t103.5 43t42.5 104zM1170 256q0 91 -64 155t-155 64t-155 -64t-64 -155t64 -155t155 -64t155 64t64 155zM1776 491q0 106 -75 181t-181 75t-181 -74.5t-75 -181.5
q0 -106 75 -181t181 -75t181 75t75 181z" />
</svg>
