<?xml version="1.0" standalone="no"?>
<!DOCTYPE svg PUBLIC "-//W3C//DTD SVG 1.1//EN" "http://www.w3.org/Graphics/SVG/1.1/DTD/svg11.dtd" >
<svg xmlns="http://www.w3.org/2000/svg" xmlns:xlink="http://www.w3.org/1999/xlink" version="1.1" viewBox="-10 0 1724 2048">
   <path fill="currentColor"
d="M672 744l-416 724l-96 -164l112 -196h-224l-48 -84l48 -84h316l112 -196h196zM700 1324h828l-96 160h-220l108 196l-48 88h-96l-152 -284h-232zM1184 1008l-416 -728h188l108 196l112 -196h96l48 88l-160 272l120 196zM1004 724h-836l96 -160h220l-108 -196l48 -88h96
l160 276h232zM1032 1304l416 -724l96 164l-112 196h224l48 84l-48 84h-316l-112 196h-196zM520 1040l416 716h-188l-108 -196l-96 196h-112l-48 -84l160 -272l-120 -188z" />
</svg>
