<?xml version="1.0" standalone="no"?>
<!DOCTYPE svg PUBLIC "-//W3C//DTD SVG 1.1//EN" "http://www.w3.org/Graphics/SVG/1.1/DTD/svg11.dtd" >
<svg xmlns="http://www.w3.org/2000/svg" xmlns:xlink="http://www.w3.org/1999/xlink" version="1.1" viewBox="-10 0 1750 2048">
   <path fill="currentColor"
d="M670 1069q20 24 18 56t-24 54t-54 26t-60 -16q-60 -60 -94 -138t-34 -162t34 -162t94 -138l300 -304q84 -84 194 -112t220 0t192 110t110 192t0 220t-112 194l-128 128q4 -104 -32 -204l44 -44q68 -76 68 -182t-68 -186q-80 -68 -186 -68t-182 68l-300 308
q-76 76 -76 182t76 178zM1730 1461v172h-256v256h-172v-256h-256v-172h256v-256h172v256h256zM1150 1093q20 -104 -12 -206t-108 -178q-28 -20 -60 -16t-54 26t-24 54t18 56q76 72 76 178t-76 182l-300 308q-76 68 -182 68t-186 -68q-68 -80 -68 -186t68 -182l44 -36
q-36 -104 -32 -212l-128 128q-84 84 -112 194t0 220t110 192t192 110t220 0t194 -112l152 -152q20 -116 90 -214t178 -154z" />
</svg>
