<?xml version="1.0" standalone="no"?>
<!DOCTYPE svg PUBLIC "-//W3C//DTD SVG 1.1//EN" "http://www.w3.org/Graphics/SVG/1.1/DTD/svg11.dtd" >
<svg xmlns="http://www.w3.org/2000/svg" xmlns:xlink="http://www.w3.org/1999/xlink" version="1.1" viewBox="-10 0 1812 2048">
   <path fill="currentColor"
d="M0 1024q0 208 102 386t278 280t388 102q152 0 294 -56t250 -164l-128 -128q-164 176 -416 176q-192 0 -344 -104q-140 -100 -208 -262t-40 -330q32 -184 172 -318t320 -166q172 -32 332 36t260 208q104 148 104 340h-256l340 340h8l336 -340h-256q0 -208 -104 -386
t-280 -280t-386 -102t-386 102t-278 280t-102 386zM680 1280h172v172h-172v-172zM680 596h172v512h-172v-512z" />
</svg>
