<?xml version="1.0" standalone="no"?>
<!DOCTYPE svg PUBLIC "-//W3C//DTD SVG 1.1//EN" "http://www.w3.org/Graphics/SVG/1.1/DTD/svg11.dtd" >
<svg xmlns="http://www.w3.org/2000/svg" xmlns:xlink="http://www.w3.org/1999/xlink" version="1.1" viewBox="-10 0 1724 2048">
   <path fill="currentColor"
d="M1136 1124q112 0 180 -28q96 -40 96 -132q0 -12 -4 -28l-64 -292q-12 -52 -36 -76q-28 -32 -104 -70t-180 -78q-116 -40 -156 -40q-24 0 -60 32t-68 32t-84 -24t-76 -24q-76 0 -116 112l-88 244v16q0 48 100 128q112 92 268 152q192 76 392 76zM1428 1020q16 72 16 88
q0 96 -90 148t-234 52q-200 0 -392 -72q-172 -64 -284 -160t-112 -176q0 -36 12 -68q-148 8 -228 44q-116 48 -116 164q0 136 192 288q184 144 460 240q288 100 544 100q276 0 408 -108q100 -84 100 -220q0 -88 -72 -176t-204 -144z" />
</svg>
