<?xml version="1.0" standalone="no"?>
<!DOCTYPE svg PUBLIC "-//W3C//DTD SVG 1.1//EN" "http://www.w3.org/Graphics/SVG/1.1/DTD/svg11.dtd" >
<svg xmlns="http://www.w3.org/2000/svg" xmlns:xlink="http://www.w3.org/1999/xlink" version="1.1" viewBox="-10 0 1556 2048">
   <path fill="currentColor"
d="M1364 342h-356q-28 -76 -94 -124t-146 -48t-146 48t-94 124h-356q-72 0 -122 50t-50 122v1192q0 72 50 122t122 50h1192q72 0 122 -50t50 -122v-1192q0 -72 -50 -122t-122 -50zM768 342q36 0 60 26t24 60t-24 60t-60 26t-60 -26t-24 -60t24 -60t60 -26zM340 682h856v-168
h168v1192h-1192v-1192h168v168zM596 1450h-168v-424h-172l256 -256l256 256h-172v424zM940 938h168v428h172l-256 256l-256 -256h172v-428z" />
</svg>
