<?xml version="1.0" standalone="no"?>
<!DOCTYPE svg PUBLIC "-//W3C//DTD SVG 1.1//EN" "http://www.w3.org/Graphics/SVG/1.1/DTD/svg11.dtd" >
<svg xmlns="http://www.w3.org/2000/svg" xmlns:xlink="http://www.w3.org/1999/xlink" version="1.1" viewBox="-10 0 1724 2048">
   <path fill="currentColor"
d="M1456 1276l248 -252l-248 -252v-352h-352l-252 -248l-252 248h-352v352l-248 252l248 252v352h352l252 248l252 -248h352v-352zM1656 1024l-200 200v-160h-460l-40 -40l40 -40h460v-160zM1420 1260l-116 112l-272 -272h388v160zM892 1116l-40 -36l-40 36v-52h-52l36 -40
l-36 -40h52v-52l40 36l40 -36v52h52l-36 40l36 40h-52v52zM1032 948l272 -272l116 112v160h-388zM1420 456v284l-116 -116l-324 324h-52v-52l324 -324l-116 -116h284zM928 844v-388h160l112 116zM852 220l200 200h-160v460l-40 40l-40 -40v-460h-160zM776 844l-272 -272
l112 -116h160v388zM284 456h284l-116 116l324 324v52h-52l-324 -324l-116 116v-284zM284 788l116 -112l272 272h-388v-160zM48 1024l200 -200v160h460l40 40l-40 40h-460v160zM672 1100l-272 272l-116 -112v-160h388zM284 1592v-284l116 116l324 -324h52v52l-324 324
l116 116h-284zM776 1204v388h-160l-112 -116zM852 1828l-200 -200h160v-460l40 -40l40 40v460h160zM928 1204l272 272l-112 116h-160v-388zM1136 1592l116 -116l-324 -324v-52h52l324 324l116 -116v284h-284z" />
</svg>
