<?xml version="1.0" standalone="no"?>
<!DOCTYPE svg PUBLIC "-//W3C//DTD SVG 1.1//EN" "http://www.w3.org/Graphics/SVG/1.1/DTD/svg11.dtd" >
<svg xmlns="http://www.w3.org/2000/svg" xmlns:xlink="http://www.w3.org/1999/xlink" version="1.1" viewBox="-10 0 1724 2048">
   <path fill="currentColor"
d="M1236 1324q104 0 214 38t126 70v60h-680v-60q16 -32 126 -70t214 -38zM1236 1196q-88 0 -192 24q-116 32 -192 80q-84 56 -84 128v192h936v-192q0 -72 -84 -128q-76 -48 -192 -80q-104 -24 -192 -24zM596 1108q-112 0 -244 36q-148 36 -244 100q-108 72 -108 164v212h596
v-128h-468v-84q0 -28 76 -72t188 -72q136 -32 272 -28q56 -64 136 -104q-100 -20 -204 -24zM596 556q52 0 90 36t38 90t-38 92t-90 38t-90 -38t-38 -92t38 -90t90 -36zM596 428q-108 0 -182 74t-74 180t74 182t182 76t182 -76t74 -182t-74 -180t-182 -74zM1236 724
q36 0 60 26t24 62t-24 60t-60 24t-60 -24t-24 -60t24 -62t60 -26zM1236 596q-88 0 -150 64t-62 152t62 150t150 62t150 -62t62 -150t-62 -152t-150 -64z" />
</svg>
