<?xml version="1.0" standalone="no"?>
<!DOCTYPE svg PUBLIC "-//W3C//DTD SVG 1.1//EN" "http://www.w3.org/Graphics/SVG/1.1/DTD/svg11.dtd" >
<svg xmlns="http://www.w3.org/2000/svg" xmlns:xlink="http://www.w3.org/1999/xlink" version="1.1" viewBox="-10 0 1700 2048">
   <path fill="currentColor"
d="M1328 150l-424 420l184 180l88 -88l-88 -92l240 -240l92 88l92 -88zM1632 330l-500 496l-180 64l-892 888l124 120l480 -484l364 364l360 -364l-360 -360l12 -16l184 -60l408 -408q48 -48 48 -120t-48 -120zM364 390l-364 360l424 424l360 -360zM1360 1566l-184 180
l120 120l184 -180z" />
</svg>
