<?xml version="1.0" standalone="no"?>
<!DOCTYPE svg PUBLIC "-//W3C//DTD SVG 1.1//EN" "http://www.w3.org/Graphics/SVG/1.1/DTD/svg11.dtd" >
<svg xmlns="http://www.w3.org/2000/svg" xmlns:xlink="http://www.w3.org/1999/xlink" version="1.1" viewBox="-10 0 1899 2048">
   <path fill="currentColor"
d="M1248 649q-24 0 -38 14t-14 34v768q0 20 14 36t34 16t32 -12l128 -104l112 240q12 32 44 32q16 0 24 -8l180 -84q20 -8 28 -28t-4 -40l-108 -244l160 -28q16 -4 28 -18t10 -36t-18 -38l-580 -492q-16 -8 -32 -8zM984 541q20 -8 92 88l120 -92q-16 -24 -44 -64
q-20 -28 -52 -52q-52 -40 -104 -46t-100 26q-64 40 -76 128q-8 56 8 108q12 36 44 104q24 44 44 104q32 80 40 128t-4 82t-34 30t-54 -52l-60 -88q-44 -72 -64 -108q-40 -68 -100 -120q-84 -80 -176 -92q-116 -16 -196 68q-60 60 -80 156l-188 -24v152l168 24
q-12 200 72 312q64 88 160 104q80 8 144 -40t76 -128q8 -56 -16 -128q-28 -80 -92 -140q-68 -72 -172 -104v-8q12 -48 28 -64q28 -32 92 -20q48 4 116 88q36 44 104 152q52 88 76 124q44 52 84 70t82 18t82 -20q88 -52 106 -176t-110 -384l-12 -24q-40 -84 -4 -92zM472 1225
q-4 20 -22 30t-34 10q-40 -8 -64 -56q-36 -60 -36 -176q84 36 124 104q32 48 32 88z" />
</svg>
