<?xml version="1.0" standalone="no"?>
<!DOCTYPE svg PUBLIC "-//W3C//DTD SVG 1.1//EN" "http://www.w3.org/Graphics/SVG/1.1/DTD/svg11.dtd" >
<svg xmlns="http://www.w3.org/2000/svg" xmlns:xlink="http://www.w3.org/1999/xlink" version="1.1" viewBox="-10 0 1724 2048">
   <path fill="currentColor"
d="M1364 340l172 256h-256l-172 -256h-172l172 256h-256l-172 -256h-168l168 256h-256l-168 -256h-88q-68 0 -118 50t-50 122v1024q0 72 50 122t118 50h1368q68 0 118 -50t50 -122v-1196h-340zM788 1300l-108 236l-104 -236l-236 -104l236 -108l104 -236l108 236l236 108z
M1272 1020l-80 176l-80 -176l-176 -80l176 -80l80 -176l80 176l176 80z" />
</svg>
