<?xml version="1.0" standalone="no"?>
<!DOCTYPE svg PUBLIC "-//W3C//DTD SVG 1.1//EN" "http://www.w3.org/Graphics/SVG/1.1/DTD/svg11.dtd" >
<svg xmlns="http://www.w3.org/2000/svg" xmlns:xlink="http://www.w3.org/1999/xlink" version="1.1" viewBox="-10 0 1922 2048">
   <path fill="currentColor"
d="M731 1316.5q0 33.5 -8.5 70t-25.5 71t-46 56.5t-66 22t-66 -22t-46 -56.5t-25.5 -71t-8.5 -70t8.5 -69.5t25.5 -70.5t46 -56.5t66 -22t66 22t46 56.5t25.5 70.5t8.5 69.5zM1463 1316.5q0 33.5 -8.5 70t-25.5 71t-46 56.5t-66 22t-66.5 -22t-46 -56.5t-25.5 -71t-9 -70
t9 -70t25.5 -70.5t46 -56t66.5 -22t66 22t46 56.5t25.5 70.5t8.5 69.5zM1646 1316q0 -88 -33.5 -162t-101.5 -120t-158 -46q-26 0 -57.5 2.5t-52.5 5t-58.5 8t-54.5 8.5q-85 12 -179 12q-95 0 -180 -12q-16 -3 -53.5 -8.5t-58.5 -8t-52.5 -5t-57.5 -2.5q-90 0 -158 46
t-101.5 120t-33.5 162q0 73 19 132.5t50.5 101t78.5 72.5t97.5 49.5t113 30t119 15t121.5 3.5h192q65 0 121.5 -3.5t119 -15t113 -30t97.5 -49.5t78.5 -72.5t50.5 -101t19 -132.5zM1902 1116q0 234 -70 378q-31 63 -80 114t-104.5 85.5t-126 60t-135 39.5t-143.5 22.5
t-140 10.5t-134 2q-75 0 -137 -2t-144.5 -10t-150 -22t-141.5 -39t-131.5 -59.5t-109 -86t-84.5 -115.5q-71 -141 -71 -378q0 -272 155 -452q-30 -90 -30 -196q0 -132 58 -248q66 0 123 12.5t111.5 41t96.5 56.5t102 76q170 -40 353 -40q166 0 320 36q59 -45 101.5 -73.5
t96.5 -56t110.5 -40t121.5 -12.5q58 116 58 248q0 101 -31 192q156 183 156 456z" />
</svg>
