<?xml version="1.0" standalone="no"?>
<!DOCTYPE svg PUBLIC "-//W3C//DTD SVG 1.1//EN" "http://www.w3.org/Graphics/SVG/1.1/DTD/svg11.dtd" >
<svg xmlns="http://www.w3.org/2000/svg" xmlns:xlink="http://www.w3.org/1999/xlink" version="1.1" viewBox="-10 0 1724 2048">
   <path fill="currentColor"
d="M0 340q0 -68 50 -118t118 -50h344v168h-344v344h-168v-344zM1704 1708q0 68 -50 118t-118 50h-344v-168h344v-344h168v344zM168 1876q-68 0 -118 -50t-50 -118v-344h168v344h344v168h-344zM1536 172q68 0 118 50t50 118v344h-168v-344h-344v-168h344zM596 596v172h172
v684h168v-684h172v-172h-512z" />
</svg>
