<?xml version="1.0" standalone="no"?>
<!DOCTYPE svg PUBLIC "-//W3C//DTD SVG 1.1//EN" "http://www.w3.org/Graphics/SVG/1.1/DTD/svg11.dtd" >
<svg xmlns="http://www.w3.org/2000/svg" xmlns:xlink="http://www.w3.org/1999/xlink" version="1.1" viewBox="-10 0 1388 2048">
   <path fill="currentColor"
d="M88 1280v-84h-88v-172h88v-84h168v340h-168zM1280 1024v-84h-168v340h168v-84h88v-172h-88zM1196 512h-184q-20 -88 -86 -154t-158 -90v-96h-168v96q-92 24 -158 90t-86 154h-184v172h1024v-172zM1196 1876h-1024q0 -68 50 -118t122 -50v-940h680v940q72 0 122 50t50 118
zM512 1108q0 72 50 122t122 50t122 -50t50 -120t-50 -120t-122 -50t-122 50t-50 118z" />
</svg>
