<?xml version="1.0" standalone="no"?>
<!DOCTYPE svg PUBLIC "-//W3C//DTD SVG 1.1//EN" "http://www.w3.org/Graphics/SVG/1.1/DTD/svg11.dtd" >
<svg xmlns="http://www.w3.org/2000/svg" xmlns:xlink="http://www.w3.org/1999/xlink" version="1.1" viewBox="-10 0 1900 2048">
   <path fill="currentColor"
d="M176 1108h-176v-168h176q20 -176 114 -324t242 -242t324 -114v-176h168v176q176 20 324 114t242 242t114 324h176v168h-176q-20 176 -114 324t-242 242t-324 114v176h-168v-176q-176 -20 -324 -114t-242 -242t-114 -324zM940 428q-164 0 -300 80t-216 216t-80 300t80 300
t216 216t300 80t300 -80t216 -216t80 -300t-80 -300t-216 -216t-300 -80zM864 1472h152v-148h-152v148zM940 576q-124 0 -212 88t-88 212h152q0 -64 42 -108t106 -44t106 44t42 108q0 44 -28 76q-16 24 -64 60q-64 48 -88 84q-44 64 -44 152h152q0 -56 32 -100
q20 -28 76 -78t80 -78q36 -52 36 -116q0 -124 -88 -212t-212 -88z" />
</svg>
