<?xml version="1.0" standalone="no"?>
<!DOCTYPE svg PUBLIC "-//W3C//DTD SVG 1.1//EN" "http://www.w3.org/Graphics/SVG/1.1/DTD/svg11.dtd" >
<svg xmlns="http://www.w3.org/2000/svg" xmlns:xlink="http://www.w3.org/1999/xlink" version="1.1" viewBox="-10 0 1812 2048">
   <path fill="currentColor"
d="M0 428v1192h1024v-168h-172q-72 0 -122 -50t-50 -122v-512q0 -72 50 -122t122 -50h172v-168h-1024zM1024 596v172h168v-172h-168zM1024 768h-172v512h172v-512zM1024 1280v172h168v-172h-168zM256 596h168q72 0 122 50t50 122v512q0 72 -50 122t-122 50h-168
q-72 0 -122 -50t-50 -122v-512q0 -72 50 -122t122 -50zM1280 596v856h168v-344h88v88h84v256h172v-256h-88v-172h88v-340h-88v-88h-424zM256 768v512h168v-512h-168zM1448 768h172v172h-172v-172z" />
</svg>
