<?xml version="1.0" standalone="no"?>
<!DOCTYPE svg PUBLIC "-//W3C//DTD SVG 1.1//EN" "http://www.w3.org/Graphics/SVG/1.1/DTD/svg11.dtd" >
<svg xmlns="http://www.w3.org/2000/svg" xmlns:xlink="http://www.w3.org/1999/xlink" version="1.1" viewBox="-10 0 1726 2048">
   <path fill="currentColor"
d="M1556 534q-116 -116 -276 -142t-308 42l-80 -80q-24 -24 -60 -24t-60 24l-8 8q-8 -64 -56 -106t-116 -42t-118 50t-50 122q0 16 4 20q-40 24 -64 64t-24 84q0 56 36 104q-36 28 -36 68v116q-152 52 -246 184t-94 296q0 140 68 258t186 186t256 68t256 -68t188 -186
t70 -258q0 -164 -96 -296t-248 -184v-116q0 -40 -36 -68q36 -48 36 -104v-20q12 -8 36 -32h4q60 32 96 92t36 132v8l32 20q28 -60 68 -100q100 -100 242 -100t242 100t100 242t-100 242t-248 100q4 28 4 84q0 36 -4 88q104 0 198 -38t170 -114q96 -96 132 -228t0 -264
t-132 -232zM596 298q36 0 60 26t24 64t-36 66q-48 -68 -132 -68q0 -36 24 -62t60 -26zM460 486q52 68 136 68q0 36 -26 62t-60 26t-60 -26t-26 -64t36 -66zM852 1322q0 144 -100 244t-242 100t-242 -100t-100 -242t100 -242t242 -100t242 100t100 240z" />
</svg>
