<?xml version="1.0" standalone="no"?>
<!DOCTYPE svg PUBLIC "-//W3C//DTD SVG 1.1//EN" "http://www.w3.org/Graphics/SVG/1.1/DTD/svg11.dtd" >
<svg xmlns="http://www.w3.org/2000/svg" xmlns:xlink="http://www.w3.org/1999/xlink" version="1.1" viewBox="-10 0 1724 2048">
   <path fill="currentColor"
d="M168 512h-168v1196q0 68 50 118t118 50h1196v-168h-1196v-1196zM1424 628l-84 84l-176 -176l84 -84q16 -12 34 -12t34 12l108 108q12 16 12 34t-12 34zM596 1104l516 -516l176 176l-516 516h-176v-176zM1536 340v1024h-1024v-1024h1024zM1536 172h-1024q-72 0 -122 50
t-50 118v1024q0 72 50 122t122 50h1024q68 0 118 -50t50 -122v-1024q0 -68 -50 -118t-118 -50z" />
</svg>
