<?xml version="1.0" standalone="no"?>
<!DOCTYPE svg PUBLIC "-//W3C//DTD SVG 1.1//EN" "http://www.w3.org/Graphics/SVG/1.1/DTD/svg11.dtd" >
<svg xmlns="http://www.w3.org/2000/svg" xmlns:xlink="http://www.w3.org/1999/xlink" version="1.1" viewBox="-10 0 1724 2048">
   <path fill="currentColor"
d="M1552 172h-1060q-64 0 -108 44t-44 108v1060q0 64 44 108t108 44h1060q64 0 108 -44t44 -108v-1060q0 -64 -44 -108t-108 -44zM772 1280h-176v-176l516 -516l176 176zM1424 628l-84 84l-176 -176l84 -84q16 -12 34 -12t34 12l108 108q12 16 12 34t-12 34zM168 512h-168
v1196q0 68 50 118t118 50h1196v-168h-1196v-1196z" />
</svg>
