<?xml version="1.0" standalone="no"?>
<!DOCTYPE svg PUBLIC "-//W3C//DTD SVG 1.1//EN" "http://www.w3.org/Graphics/SVG/1.1/DTD/svg11.dtd" >
<svg xmlns="http://www.w3.org/2000/svg" xmlns:xlink="http://www.w3.org/1999/xlink" version="1.1" viewBox="-10 0 1852 2048">
   <path fill="currentColor"
d="M1364 554h-1024v-340h1024v340zM340 1750v-340h-340v-512q0 -108 74 -182t182 -74h1192q108 0 182 74t74 182v240q-116 -72 -256 -72q-152 0 -280 88h-656v424h424q0 88 32 172h-628zM1364 898q0 32 26 58t60 26t60 -26t26 -60t-26 -60t-60 -26t-60 26t-26 62zM1832 1410
l-128 -128l-296 296l-172 -168l-128 128l300 296z" />
</svg>
