<?xml version="1.0" standalone="no"?>
<!DOCTYPE svg PUBLIC "-//W3C//DTD SVG 1.1//EN" "http://www.w3.org/Graphics/SVG/1.1/DTD/svg11.dtd" >
<svg xmlns="http://www.w3.org/2000/svg" xmlns:xlink="http://www.w3.org/1999/xlink" version="1.1" viewBox="-10 0 1388 2048">
   <path fill="currentColor"
d="M1264 940v-128q0 -88 -74 -152t-166 -64t-164 64t-72 152v128q-40 0 -72 32t-32 68v300q0 44 32 78t72 34h468q44 0 78 -32t34 -72v-300q0 -44 -32 -76t-72 -32zM1152 940h-256v-128q0 -52 38 -82t92 -30t90 30t36 82v128zM428 512h256l-340 -340l-344 340h256v1024h-256
l344 340l340 -340h-256v-1024z" />
</svg>
