<?xml version="1.0" standalone="no"?>
<!DOCTYPE svg PUBLIC "-//W3C//DTD SVG 1.1//EN" "http://www.w3.org/Graphics/SVG/1.1/DTD/svg11.dtd" >
<svg xmlns="http://www.w3.org/2000/svg" xmlns:xlink="http://www.w3.org/1999/xlink" version="1.1" viewBox="-10 0 1640 2048">
   <path fill="currentColor"
d="M512 256q-140 0 -254 68t-184 186t-74 258v1024h768v-644q148 132 340 132q140 0 258 -68t186 -186t68 -258t-68 -258t-186 -186t-258 -68h-596zM512 428h216q-132 144 -132 340v256h-84v84h84v512h-424v-512h84v-84h-84v-256q0 -140 100 -240t240 -100zM1108 428
q144 0 244 100t100 240t-100 240t-242 100t-242 -100t-100 -240t100 -240t240 -100zM1108 620q-60 0 -104 42t-44 106t44 106t106 42t106 -42t44 -106t-44 -106t-108 -42zM340 1024v84h88v-84h-88z" />
</svg>
