<?xml version="1.0" standalone="no"?>
<!DOCTYPE svg PUBLIC "-//W3C//DTD SVG 1.1//EN" "http://www.w3.org/Graphics/SVG/1.1/DTD/svg11.dtd" >
<svg xmlns="http://www.w3.org/2000/svg" xmlns:xlink="http://www.w3.org/1999/xlink" version="1.1" viewBox="-10 0 1724 2048">
   <path fill="currentColor"
d="M340 556q0 -144 100 -244t242 -100t242 100t100 242t-100 242t-242 100t-242 -100t-100 -240zM852 1424q0 -60 28 -114t76 -94v-20q0 -48 12 -96q-136 -32 -288 -32q-184 0 -340 46t-248 124t-92 170v172h852v-156zM1704 1432v300q0 40 -32 72t-76 32h-472q-40 0 -70 -34
t-30 -78v-300q0 -36 32 -68t68 -32v-128q0 -88 74 -152t166 -64t166 64t74 152v128q40 0 70 32t30 76zM1492 1196q0 -52 -38 -82t-90 -30t-90 30t-38 82v128h256v-128z" />
</svg>
