<?xml version="1.0" standalone="no"?>
<!DOCTYPE svg PUBLIC "-//W3C//DTD SVG 1.1//EN" "http://www.w3.org/Graphics/SVG/1.1/DTD/svg11.dtd" >
<svg xmlns="http://www.w3.org/2000/svg" xmlns:xlink="http://www.w3.org/1999/xlink" version="1.1" viewBox="-10 0 1724 2048">
   <path fill="currentColor"
d="M680 896q144 0 244 -100t100 -242t-100 -242t-242 -100t-242 100t-100 242t100 242t240 100zM680 384q72 0 122 50t50 120t-50 120t-120 50t-120 -50t-50 -120t50 -120t118 -50zM852 1580h-852v-256q0 -108 124 -192q108 -68 280 -112q152 -40 276 -40q148 0 316 48
q-40 76 -40 156q-144 -40 -276 -40q-116 0 -248 32q-112 32 -192 76t-80 72v92h692v164zM1604 1324v-128q0 -88 -74 -152t-166 -64t-166 64t-74 152v128q-36 0 -68 32t-32 68v300q0 44 30 78t70 34h472q44 0 76 -32t32 -72v-300q0 -44 -30 -76t-70 -32zM1492 1324h-256v-128
q0 -52 38 -82t90 -30t90 30t38 82v128z" />
</svg>
