<?xml version="1.0" standalone="no"?>
<!DOCTYPE svg PUBLIC "-//W3C//DTD SVG 1.1//EN" "http://www.w3.org/Graphics/SVG/1.1/DTD/svg11.dtd" >
<svg xmlns="http://www.w3.org/2000/svg" xmlns:xlink="http://www.w3.org/1999/xlink" version="1.1" viewBox="-10 0 1556 2048">
   <path fill="currentColor"
d="M1492 564l-676 -376q-20 -16 -48 -16t-48 16l-676 376q-44 24 -44 76v768q0 52 44 76l676 376q20 16 48 16t48 -16l676 -376q44 -24 44 -76v-768q0 -52 -44 -76zM720 1360h-436v-88l76 -76q84 -92 140 -160q76 -96 76 -136q0 -64 -44 -84q-20 -12 -44 -8l-20 4
q-28 8 -44 28q-24 28 -28 72l-128 8l4 -36q8 -40 24 -72q28 -48 72 -72q52 -36 128 -36q132 0 180 80q28 44 28 110t-68 162q-52 64 -128 140l-68 64h280v100zM1236 1152q0 88 -64 152t-154 64t-154 -64t-64 -152v-228q0 -92 64 -156t154 -64t154 64t64 156v228zM1108 920
v236q0 36 -26 62t-64 26t-64 -26t-26 -62v-236q0 -40 26 -66t64 -26t64 26t26 66z" />
</svg>
