<?xml version="1.0" standalone="no"?>
<!DOCTYPE svg PUBLIC "-//W3C//DTD SVG 1.1//EN" "http://www.w3.org/Graphics/SVG/1.1/DTD/svg11.dtd" >
<svg xmlns="http://www.w3.org/2000/svg" xmlns:xlink="http://www.w3.org/1999/xlink" version="1.1" viewBox="-10 0 1724 2048">
   <path fill="currentColor"
d="M852 428q-72 0 -122 50t-50 120t50 120t122 50t122 -50t50 -120t-50 -120t-122 -50zM1704 84v428h-168v-172h-1368v172h-168v-428h168v172h1368v-172h168zM1108 960v1004h-172v-428h-168v428h-172v-1004q-136 -72 -218 -202t-82 -290v-40h172v40q0 160 112 272t272 112
t272 -112t112 -272v-40h172v40q0 160 -82 290t-218 202z" />
</svg>
