<?xml version="1.0" standalone="no"?>
<!DOCTYPE svg PUBLIC "-//W3C//DTD SVG 1.1//EN" "http://www.w3.org/Graphics/SVG/1.1/DTD/svg11.dtd" >
<svg xmlns="http://www.w3.org/2000/svg" xmlns:xlink="http://www.w3.org/1999/xlink" version="1.1" viewBox="-10 0 2202 2048">
   <path fill="currentColor"
d="M2035 1138q0 -22 -18 -31t-42 -9h-1244q-46 0 -98 24t-81 60l-336 414q-21 30 -21 46q0 22 18.5 31t42.5 9h1243q46 0 98.5 -25t81.5 -61l336 -414q20 -26 20 -44zM731 950h878v-182q0 -46 -32 -78t-78 -32h-658q-46 0 -78 -32t-32 -78v-72q0 -46 -31.5 -78t-77.5 -32
h-366q-46 0 -78 32t-32 78v974l293 -360q50 -60 132 -100t160 -40zM2182 1138q0 70 -53 136l-337 416q-49 59 -132.5 98.5t-160.5 39.5h-1243q-106 0 -181 -75t-75 -181v-1096q0 -106 75 -181t181 -75h366q106 0 181 75t75 181v36h621q106 0 181 75t75 181v182h220
q61 0 113 28.5t77 81.5q17 37 17 78z" />
</svg>
