<?xml version="1.0" standalone="no"?>
<!DOCTYPE svg PUBLIC "-//W3C//DTD SVG 1.1//EN" "http://www.w3.org/Graphics/SVG/1.1/DTD/svg11.dtd" >
<svg xmlns="http://www.w3.org/2000/svg" xmlns:xlink="http://www.w3.org/1999/xlink" version="1.1" viewBox="-10 0 1812 2048">
   <path fill="currentColor"
d="M0 170v596l768 172l-768 172v596l620 -264q52 192 212 314t360 122q164 0 300 -82t218 -218t82 -298t-82 -300t-218 -218t-300 -80zM168 430l752 320q-32 16 -60 36l-692 -156v-200zM1192 854q116 0 214 56t156 154t58 214t-58 214t-156 156t-214 58t-214 -58t-154 -156
t-56 -214t56 -214t154 -154t214 -56zM1108 982v340l256 172l64 -108l-192 -128v-276h-128zM612 1146q-16 60 -16 116l-428 184v-200z" />
</svg>
