<?xml version="1.0" standalone="no"?>
<!DOCTYPE svg PUBLIC "-//W3C//DTD SVG 1.1//EN" "http://www.w3.org/Graphics/SVG/1.1/DTD/svg11.dtd" >
<svg xmlns="http://www.w3.org/2000/svg" xmlns:xlink="http://www.w3.org/1999/xlink" version="1.1" viewBox="-10 0 1896 2048">
   <path fill="currentColor"
d="M1792 1408v-44q0 -88 -64 -150t-152 -62t-150 62t-62 150v44q-36 0 -60 26t-24 58v344q0 32 24 58t60 26h428q32 0 58 -26t26 -58v-344q0 -32 -26 -58t-58 -26zM1704 1408h-256v-44q0 -52 38 -90t92 -38t90 38t36 90v44zM168 388l640 272l-640 -84v-188zM808 1132
l-640 272v-188zM0 128v596l1280 172l-1280 172v596l1792 -768z" />
</svg>
