<?xml version="1.0" standalone="no"?>
<!DOCTYPE svg PUBLIC "-//W3C//DTD SVG 1.1//EN" "http://www.w3.org/Graphics/SVG/1.1/DTD/svg11.dtd" >
<svg xmlns="http://www.w3.org/2000/svg" xmlns:xlink="http://www.w3.org/1999/xlink" version="1.1" viewBox="-10 0 1724 2048">
   <path fill="currentColor"
d="M1704 340l-168 -168q-156 84 -342 84t-342 -84q-156 84 -342 84t-342 -84l-168 168l44 52q48 64 80 128q44 88 44 164q0 56 -24 152q-16 60 -60 188t-60 188q-24 96 -24 152q0 120 132 224q108 88 292 160q136 56 296 96l132 32l132 -32q160 -40 296 -96
q184 -72 292 -160q132 -104 132 -224q0 -56 -24 -152q-16 -60 -60 -188t-60 -188q-24 -96 -24 -152q0 -76 44 -164q32 -64 80 -128zM1112 1404l-264 -160l-260 160l68 -300l-232 -200l308 -24l116 -284l120 284l308 24l-232 200z" />
</svg>
