<?xml version="1.0" standalone="no"?>
<!DOCTYPE svg PUBLIC "-//W3C//DTD SVG 1.1//EN" "http://www.w3.org/Graphics/SVG/1.1/DTD/svg11.dtd" >
<svg xmlns="http://www.w3.org/2000/svg" xmlns:xlink="http://www.w3.org/1999/xlink" version="1.1" viewBox="-10 0 1724 2048">
   <path fill="currentColor"
d="M852 360q164 68 340 68q136 0 264 -40q-92 152 -92 296q0 72 28 180q16 64 64 204v8q80 232 80 288q0 44 -94 110t-242 126q-164 64 -348 104q-184 -40 -348 -104q-148 -60 -242 -126t-94 -110q0 -56 80 -288v-8q48 -140 64 -204q28 -108 28 -180q0 -144 -92 -296
q128 40 264 40q176 0 340 -68zM1536 172q-156 84 -342 84t-342 -84q-156 84 -342 84t-342 -84l-168 168l44 52q48 64 80 128q44 88 44 164q0 56 -24 152q-16 60 -60 188t-60 188q-24 96 -24 152q0 120 132 224q108 88 292 160q136 56 296 96l132 32l132 -32q160 -40 296 -96
q184 -72 292 -160q132 -104 132 -224q0 -56 -24 -152q-16 -60 -60 -188t-60 -188q-24 -96 -24 -152q0 -76 44 -164q32 -64 80 -128l44 -52zM1112 1404l-264 -160l-260 160l68 -300l-232 -200l308 -24l116 -284l120 284l308 24l-232 200z" />
</svg>
