<?xml version="1.0" standalone="no"?>
<!DOCTYPE svg PUBLIC "-//W3C//DTD SVG 1.1//EN" "http://www.w3.org/Graphics/SVG/1.1/DTD/svg11.dtd" >
<svg xmlns="http://www.w3.org/2000/svg" xmlns:xlink="http://www.w3.org/1999/xlink" version="1.1" viewBox="-10 0 1896 2048">
   <path fill="currentColor"
d="M1792 342v-44q0 -88 -64 -150t-152 -62t-150 62t-62 150v44q-36 0 -60 26t-24 58v344q0 32 24 58t60 26h428q32 0 58 -26t26 -58v-344q0 -32 -26 -58t-58 -26zM1704 342h-256v-44q0 -52 38 -90t92 -38t90 38t36 90v44zM340 1026h768v168h-768v-168zM340 682h768v172h-768
v-172zM1704 1026v424q0 72 -50 122t-118 50h-1196l-340 340v-1536q0 -68 50 -118t118 -50h940v168h-940v1124l100 -100h1268v-424h168z" />
</svg>
