<?xml version="1.0" standalone="no"?>
<!DOCTYPE svg PUBLIC "-//W3C//DTD SVG 1.1//EN" "http://www.w3.org/Graphics/SVG/1.1/DTD/svg11.dtd" >
<svg xmlns="http://www.w3.org/2000/svg" xmlns:xlink="http://www.w3.org/1999/xlink" version="1.1" viewBox="-10 0 1724 2048">
   <path fill="currentColor"
d="M1536 172h-1368q-68 0 -118 50t-50 118v1536l340 -340h1196q68 0 118 -50t50 -122v-1024q0 -68 -50 -118t-118 -50zM1536 1364h-1264l-104 104v-1128h1368v1024zM1260 964l-92 -68v-84l92 -68q12 -12 12 -28l-88 -144q-16 -16 -24 -8l-112 32l-16 -12q-36 -24 -60 -28
l-16 -112q0 -8 -6 -12t-14 -4h-168q-8 0 -14 4t-6 12l-16 112q-12 8 -38 20t-38 20l-104 -40q-16 0 -24 8l-84 144q-12 8 8 24l92 72v84l-92 68q-8 8 -8 24l84 148q16 16 24 8l104 -28l20 16q32 24 48 28l16 112q0 16 28 16h168q8 0 14 -6t6 -10l16 -112q36 -12 68 -44
l104 44q16 0 24 -8l84 -144q24 -24 8 -36zM852 980q-52 0 -90 -38t-38 -88t38 -90t90 -40t90 40t38 90t-38 88t-90 38z" />
</svg>
