<?xml version="1.0" standalone="no"?>
<!DOCTYPE svg PUBLIC "-//W3C//DTD SVG 1.1//EN" "http://www.w3.org/Graphics/SVG/1.1/DTD/svg11.dtd" >
<svg xmlns="http://www.w3.org/2000/svg" xmlns:xlink="http://www.w3.org/1999/xlink" version="1.1" viewBox="-10 0 1556 2048">
   <path fill="currentColor"
d="M1364 1620h-1192v-1192h1192v1192zM1364 256h-1192q-72 0 -122 50t-50 122v1192q0 72 50 122t122 50h1192q72 0 122 -50t50 -122v-1192q0 -72 -50 -122t-122 -50zM340 768h200l24 -256h172l-28 256h172l28 -256h168l-24 256h144v172h-164l-16 168h180v172h-200l-24 256
h-172l28 -256h-172l-28 256h-168l24 -256h-144v-172h164l16 -168h-180v-172zM692 940l-16 168h168l16 -168h-168z" />
</svg>
