<?xml version="1.0" standalone="no"?>
<!DOCTYPE svg PUBLIC "-//W3C//DTD SVG 1.1//EN" "http://www.w3.org/Graphics/SVG/1.1/DTD/svg11.dtd" >
<svg xmlns="http://www.w3.org/2000/svg" xmlns:xlink="http://www.w3.org/1999/xlink" version="1.1" viewBox="-10 0 1212 2048">
   <path fill="currentColor"
d="M768 1064v-168l-172 84l-172 -84v168l-168 88l168 84v172l172 -88l172 88v-172l168 -84zM768 128h-600q-68 0 -118 50t-50 118v1196q0 72 50 122t118 50h88v-172h-88v-1196h512v344h344v852h-88v172h88q68 0 118 -50t50 -122v-940zM768 1064v-168l-172 84l-172 -84v168
l-168 88l168 84v172l172 -88l172 88v-172l168 -84zM424 1920l172 -88l172 88v-428h-344v428zM768 1064v-168l-172 84l-172 -84v168l-168 88l168 84v172l172 -88l172 88v-172l168 -84z" />
</svg>
