<?xml version="1.0" standalone="no"?>
<!DOCTYPE svg PUBLIC "-//W3C//DTD SVG 1.1//EN" "http://www.w3.org/Graphics/SVG/1.1/DTD/svg11.dtd" >
<svg xmlns="http://www.w3.org/2000/svg" xmlns:xlink="http://www.w3.org/1999/xlink" version="1.1" viewBox="-10 0 1726 2048">
   <path fill="currentColor"
d="M1194 872h-128q-64 -8 -110 -56t-46 -114t46 -110t110 -40v-124q-116 0 -200 84t-84 202t84 202t200 84h128q72 -4 124 46t48 122v112h128v-140q-4 -120 -92 -198t-208 -70zM1434 660q64 -60 82 -146t-14 -166t-104 -128t-160 -48v128q64 0 110 46t46 110t-46 112
t-110 48v128q144 0 244 102t96 242v192h128v-192q0 -136 -72 -252t-196 -176h-4zM1366 1364v512h128v-512h-128zM1578 1364v512h128v-512h-128zM854 1364v108q40 24 62 64t22 86t-22 86t-62 60v108h428v-512h-428zM74 1440q-52 56 -68 132t14 148t94 114t144 42h424v-108
q-40 -20 -62 -60t-22 -86t22 -86t62 -64v-108h-424q-108 0 -184 76zM854 1620q0 28 -14 50t-38 32t-50 4t-44 -24t-24 -44t4 -50t32 -38t50 -14q36 0 60 24t24 60z" />
</svg>
