<?xml version="1.0" standalone="no"?>
<!DOCTYPE svg PUBLIC "-//W3C//DTD SVG 1.1//EN" "http://www.w3.org/Graphics/SVG/1.1/DTD/svg11.dtd" >
<svg xmlns="http://www.w3.org/2000/svg" xmlns:xlink="http://www.w3.org/1999/xlink" version="1.1" viewBox="-10 0 1388 2048">
   <path fill="currentColor"
d="M856 172h-684q-72 0 -122 50t-50 118v1368q0 68 50 118t122 50h1024q72 0 122 -50t50 -118v-1024zM1196 1708h-1024v-1368h596v428h428v940zM756 1280q-32 -88 -112 -136t-172 -32t-154 88t-62 166t62 164t154 86t172 -30t112 -134h100v168h168v-168h88v-172h-356z
M512 1452q-36 0 -60 -26t-24 -62t24 -60t60 -24t62 24t26 60t-26 62t-62 26z" />
</svg>
