<?xml version="1.0" standalone="no"?>
<!DOCTYPE svg PUBLIC "-//W3C//DTD SVG 1.1//EN" "http://www.w3.org/Graphics/SVG/1.1/DTD/svg11.dtd" >
<svg xmlns="http://www.w3.org/2000/svg" xmlns:xlink="http://www.w3.org/1999/xlink" version="1.1" viewBox="-10 0 1300 2048">
   <path fill="currentColor"
d="M1024 1876q96 0 170 -64t84 -162t-46 -178t-152 -102t-180 26t-116 140h-432l168 -260q76 8 152 0l84 132q60 -72 140 -104l-52 -76q160 -76 254 -222t94 -322h-1192q0 176 94 322t258 222l-340 516q-16 32 -8 64t36 50t62 12t54 -30l84 -132h544q24 76 90 122t150 46z
M1024 1536q36 0 60 24t24 60t-26 62t-60 26t-60 -26t-26 -62t26 -60t62 -24zM204 852h784q-52 116 -158 186t-234 70t-234 -70t-158 -186zM376 596h84v-4q12 -80 4 -116q-16 -56 -80 -132l-4 -4q-28 -36 -36 -60q-12 -40 0 -108h-84q-16 68 4 136t72 116l4 4q28 28 36 52
q16 48 0 116zM588 596h84v-4q12 -80 4 -116q-16 -56 -80 -132h-4q-28 -40 -36 -64q-12 -36 0 -108h-84q-16 68 4 136t72 116l4 4q28 28 36 52q16 48 0 116zM800 596h88v-4q12 -80 0 -116q-12 -56 -80 -132l-4 -4q-28 -36 -36 -60q-8 -40 4 -108h-84q-16 68 4 136t72 116l4 4
q24 28 36 52q16 48 -4 116z" />
</svg>
