<?xml version="1.0" standalone="no"?>
<!DOCTYPE svg PUBLIC "-//W3C//DTD SVG 1.1//EN" "http://www.w3.org/Graphics/SVG/1.1/DTD/svg11.dtd" >
<svg xmlns="http://www.w3.org/2000/svg" xmlns:xlink="http://www.w3.org/1999/xlink" version="1.1" viewBox="-10 0 1212 2048">
   <path fill="currentColor"
d="M0 768h196l28 -256h168l-24 256h168l28 -256h172l-28 256h144v172h-164l-16 168h180v172h-196l-28 256h-172l28 -256h-172l-24 256h-172l28 -256h-144v-172h160l16 -168h-176v-172zM348 940l-16 168h172l16 -168h-172zM1192 512h-168v684h168v-684zM1192 1364h-168v172
h168v-172z" />
</svg>
