<?xml version="1.0" standalone="no"?>
<!DOCTYPE svg PUBLIC "-//W3C//DTD SVG 1.1//EN" "http://www.w3.org/Graphics/SVG/1.1/DTD/svg11.dtd" >
<svg xmlns="http://www.w3.org/2000/svg" xmlns:xlink="http://www.w3.org/1999/xlink" version="1.1" viewBox="-10 0 1388 2048">
   <path fill="currentColor"
d="M600 1364q0 40 -24 64t-62 24t-62 -24t-24 -62t24 -62t62 -24t62 24t24 60zM1368 684v1024q0 68 -50 118t-122 50h-1024q-72 0 -122 -50t-50 -118v-1368q0 -68 50 -118t122 -50h684zM1196 1280h-444q-40 -104 -134 -148t-194 -6t-144 134t-6 192t134 144t192 8
q108 -36 152 -152h104v168h168v-168h172v-172zM1240 768l-472 -468v468h472z" />
</svg>
