<?xml version="1.0" standalone="no"?>
<!DOCTYPE svg PUBLIC "-//W3C//DTD SVG 1.1//EN" "http://www.w3.org/Graphics/SVG/1.1/DTD/svg11.dtd" >
<svg xmlns="http://www.w3.org/2000/svg" xmlns:xlink="http://www.w3.org/1999/xlink" version="1.1" viewBox="-10 0 1775 2048">
   <path fill="currentColor"
d="M1296 1404q10 29 -4 56t-43 36.5t-55.5 -4.5t-36.5 -44q-28 -91 -105.5 -147.5t-173.5 -56.5t-173.5 56.5t-105.5 147.5q-10 30 -37 44t-55 4q-29 -9 -43.5 -35.5t-4.5 -56.5q43 -137 158.5 -221.5t260.5 -84.5t260 84.5t158 221.5zM731 731.5q0 60.5 -42.5 103.5
t-103.5 43t-103.5 -43t-42.5 -103.5t42.5 -103t103.5 -42.5t103.5 42.5t42.5 103zM1317 731.5q0 60.5 -43 103.5t-104 43t-103.5 -43t-42.5 -103.5t42.5 -103t103.5 -42.5t104 42.5t43 103zM1609 1024.5q0 -148.5 -58 -284t-156 -233.5t-233.5 -156.5t-283.5 -58.5
t-283.5 58.5t-234 156.5t-156.5 233.5t-58 284t58 284t156.5 233.5t234 156t283.5 58t283.5 -58t233.5 -156t156 -233.5t58 -284zM1755 1024.5q0 119.5 -31.5 233t-88 210t-137.5 177.5t-177 137.5t-210 88t-233 31.5t-233 -31.5t-210.5 -88t-177.5 -137.5t-137.5 -177.5
t-88 -210t-31.5 -233t31.5 -233.5t88 -210t137.5 -177t177.5 -137.5t210.5 -88.5t233 -32t233 32t210 88.5t177 137.5t137.5 177t88 210t31.5 233.5z" />
</svg>
