<?xml version="1.0" standalone="no"?>
<!DOCTYPE svg PUBLIC "-//W3C//DTD SVG 1.1//EN" "http://www.w3.org/Graphics/SVG/1.1/DTD/svg11.dtd" >
<svg xmlns="http://www.w3.org/2000/svg" xmlns:xlink="http://www.w3.org/1999/xlink" version="1.1" viewBox="-10 0 1556 2048">
   <path fill="currentColor"
d="M384 214q-160 0 -272 112t-112 272t112 272t272 112q128 0 224 -70t136 -186h280v256h256v-256h256v-256h-792q-40 -116 -136 -186t-224 -70zM384 470q52 0 90 38t38 90t-38 90t-90 38t-90 -38t-38 -90t38 -90t90 -38zM596 1154q-76 0 -148 32q-84 40 -132 108
q-60 84 -60 200t60 200q48 68 132 108q72 32 148 32h88v-168h-88q-52 0 -92 -24q-76 -44 -76 -146t68 -146q44 -28 100 -28h88v-168h-88zM852 1154v168h88q52 0 92 24q76 44 76 146t-68 146q-44 28 -100 28h-88v168h88q76 0 148 -32q84 -40 132 -108q60 -84 60 -200
t-60 -200q-48 -68 -132 -108q-72 -32 -148 -32h-88zM512 1410v168h512v-168h-512z" />
</svg>
