<?xml version="1.0" standalone="no"?>
<!DOCTYPE svg PUBLIC "-//W3C//DTD SVG 1.1//EN" "http://www.w3.org/Graphics/SVG/1.1/DTD/svg11.dtd" >
<svg xmlns="http://www.w3.org/2000/svg" xmlns:xlink="http://www.w3.org/1999/xlink" version="1.1" viewBox="-10 0 1812 2048">
   <path fill="currentColor"
d="M1792 1812l-1684 -1684l-108 108l332 332v180h180l84 84h-264v768q0 72 50 122t118 50v84h172v-84h512v84h172v-84q72 0 124 -56l204 204zM756 1260h-168v-256h168v256zM1524 1328l-492 -496h492v496zM604 408l-212 -216q48 -40 108 -40h856q68 0 118 50t50 118v428h-580
l-188 -188v-152h-152z" />
</svg>
