<?xml version="1.0" standalone="no"?>
<!DOCTYPE svg PUBLIC "-//W3C//DTD SVG 1.1//EN" "http://www.w3.org/Graphics/SVG/1.1/DTD/svg11.dtd" >
<svg xmlns="http://www.w3.org/2000/svg" xmlns:xlink="http://www.w3.org/1999/xlink" version="1.1" viewBox="-10 0 2214 2048">
   <path fill="currentColor"
d="M951 1097v-146q0 -16 -10.5 -26.5t-26.5 -10.5h-219v-219q0 -16 -10.5 -26.5t-26.5 -10.5h-146q-16 0 -26.5 10.5t-10.5 26.5v219h-219q-16 0 -26.5 10.5t-10.5 26.5v146q0 16 10.5 26.5t26.5 10.5h219v219q0 16 10.5 26.5t26.5 10.5h146q16 0 26.5 -10.5t10.5 -26.5
v-219h219q16 0 26.5 -10.5t10.5 -26.5zM1609 1170q0 -61 -42.5 -103.5t-103.5 -42.5t-103.5 42.5t-42.5 103.5t42.5 103.5t103.5 42.5t103.5 -42.5t42.5 -103.5zM1902 878q0 -61 -43 -104t-104 -43t-103.5 43t-42.5 104t42.5 103.5t103.5 42.5t104 -42.5t43 -103.5z
M2194 1024q0 159 -78.5 293.5t-213 213t-293.5 78.5q-219 0 -386 -146h-252q-167 146 -386 146q-159 0 -293.5 -78.5t-213 -213t-78.5 -293.5t78.5 -293.5t213 -213t293.5 -78.5h1024q159 0 293.5 78.5t213 213t78.5 293.5z" />
</svg>
