<?xml version="1.0" standalone="no"?>
<!DOCTYPE svg PUBLIC "-//W3C//DTD SVG 1.1//EN" "http://www.w3.org/Graphics/SVG/1.1/DTD/svg11.dtd" >
<svg xmlns="http://www.w3.org/2000/svg" xmlns:xlink="http://www.w3.org/1999/xlink" version="1.1" viewBox="-10 0 1724 2048">
   <path fill="currentColor"
d="M168 172h1024q72 0 122 50t50 118v1368q0 68 -50 118t-122 50h-1024q-68 0 -118 -50t-50 -118v-1368q0 -68 50 -118t118 -50zM256 340q-36 0 -62 26t-26 60t26 60t60 26t60 -26t26 -60t-26 -60t-58 -26zM512 340q-36 0 -62 26t-26 60t26 60t60 26t60 -26t26 -60t-26 -60
t-58 -26zM680 684q-136 0 -254 68t-188 186t-70 256t70 256t188 188t256 70t256 -70t186 -188t68 -256t-68 -256t-186 -186t-258 -68zM348 896h164q-16 84 -4 140t52 100q144 140 112 356h-160q12 -84 0 -140t-52 -96q-144 -140 -112 -360zM692 896h160q-16 84 -2 140
t50 100q148 140 112 356h-160q16 -84 2 -140t-50 -96q-144 -140 -112 -360zM1536 1280h168v172h-168v-172zM1536 596h168v512h-168v-512z" />
</svg>
