<?xml version="1.0" standalone="no"?>
<!DOCTYPE svg PUBLIC "-//W3C//DTD SVG 1.1//EN" "http://www.w3.org/Graphics/SVG/1.1/DTD/svg11.dtd" >
<svg xmlns="http://www.w3.org/2000/svg" xmlns:xlink="http://www.w3.org/1999/xlink" version="1.1" viewBox="-10 0 1556 2048">
   <path fill="currentColor"
d="M172 172h852q72 0 122 50t50 118v428h-1196v-428q0 -68 50 -118t122 -50zM1196 1620q0 72 -50 122t-122 50v84h-172v-84h-512v84h-168v-84q-72 0 -122 -50t-50 -122v-768h1196v768zM256 428v168h172v-168h-172zM256 1024v256h172v-256h-172zM1364 1280h172v172h-172v-172
zM1364 596h172v512h-172v-512z" />
</svg>
