<?xml version="1.0" standalone="no"?>
<!DOCTYPE svg PUBLIC "-//W3C//DTD SVG 1.1//EN" "http://www.w3.org/Graphics/SVG/1.1/DTD/svg11.dtd" >
<svg xmlns="http://www.w3.org/2000/svg" xmlns:xlink="http://www.w3.org/1999/xlink" version="1.1" viewBox="-10 0 2214 2048">
   <path fill="currentColor"
d="M439 1262v110q0 7 -5.5 12.5t-12.5 5.5h-110q-7 0 -12.5 -5.5t-5.5 -12.5v-110q0 -8 5.5 -13t12.5 -5h110q7 0 12.5 5t5.5 13zM585 970v110q0 7 -5.5 12.5t-12.5 5.5h-256q-7 0 -12.5 -5.5t-5.5 -12.5v-110q0 -8 5.5 -13t12.5 -5h256q7 0 12.5 5t5.5 13zM439 676v110
q0 8 -5.5 13t-12.5 5h-110q-7 0 -12.5 -5t-5.5 -13v-110q0 -7 5.5 -12.5t12.5 -5.5h110q7 0 12.5 5.5t5.5 12.5zM1609 1262v110q0 7 -5.5 12.5t-12.5 5.5h-988q-7 0 -12.5 -5.5t-5.5 -12.5v-110q0 -8 5.5 -13t12.5 -5h988q7 0 12.5 5t5.5 13zM878 970v110q0 7 -5.5 12.5
t-13.5 5.5h-109q-8 0 -13.5 -5.5t-5.5 -12.5v-110q0 -8 5.5 -13t13.5 -5h109q8 0 13.5 5t5.5 13zM731 676v110q0 8 -5.5 13t-12.5 5h-110q-7 0 -12.5 -5t-5.5 -13v-110q0 -7 5.5 -12.5t12.5 -5.5h110q7 0 12.5 5.5t5.5 12.5zM1170 970v110q0 7 -5 12.5t-13 5.5h-110
q-8 0 -13 -5.5t-5 -12.5v-110q0 -8 5 -13t13 -5h110q8 0 13 5t5 13zM1024 676v110q0 8 -5 13t-13 5h-110q-8 0 -13 -5t-5 -13v-110q0 -7 5 -12.5t13 -5.5h110q8 0 13 5.5t5 12.5zM1463 970v110q0 7 -5.5 12.5t-12.5 5.5h-110q-7 0 -12.5 -5.5t-5.5 -12.5v-110q0 -8 5.5 -13
t12.5 -5h110q7 0 12.5 5t5.5 13zM1902 1262v110q0 7 -5.5 12.5t-13.5 5.5h-109q-8 0 -13.5 -5.5t-5.5 -12.5v-110q0 -8 5.5 -13t13.5 -5h109q8 0 13.5 5t5.5 13zM1317 676v110q0 8 -5.5 13t-13.5 5h-109q-8 0 -13.5 -5t-5.5 -13v-110q0 -7 5.5 -12.5t13.5 -5.5h109
q8 0 13.5 5.5t5.5 12.5zM1609 676v110q0 8 -5.5 13t-12.5 5h-110q-7 0 -12.5 -5t-5.5 -13v-110q0 -7 5.5 -12.5t12.5 -5.5h110q7 0 12.5 5.5t5.5 12.5zM1902 676v404q0 7 -5.5 12.5t-13.5 5.5h-256q-7 0 -12.5 -5.5t-5.5 -12.5v-110q0 -8 5.5 -13t12.5 -5h128v-276
q0 -7 5.5 -12.5t13.5 -5.5h109q8 0 13.5 5.5t5.5 12.5zM2048 1536v-1024h-1902v1024h1902zM2194 512v1024q0 61 -42.5 103.5t-103.5 42.5h-1902q-61 0 -103.5 -42.5t-42.5 -103.5v-1024q0 -60 42.5 -103t103.5 -43h1902q61 0 103.5 43t42.5 103z" />
</svg>
