<?xml version="1.0" standalone="no"?>
<!DOCTYPE svg PUBLIC "-//W3C//DTD SVG 1.1//EN" "http://www.w3.org/Graphics/SVG/1.1/DTD/svg11.dtd" >
<svg xmlns="http://www.w3.org/2000/svg" xmlns:xlink="http://www.w3.org/1999/xlink" version="1.1" viewBox="-10 0 1812 2048">
   <path fill="currentColor"
d="M1024 256q-208 0 -384 104t-280 280t-104 384h-256l340 340l344 -340h-256q0 -164 80 -300t216 -216t300 -80t300 80t216 216t80 300t-80 300t-216 216t-300 80q-188 0 -348 -108l-120 120q208 160 468 160q208 0 384 -104t280 -280t104 -384t-104 -384t-280 -280
t-384 -104zM1392 1124l-88 -60q4 -20 4 -40t-4 -40l88 -60q8 -12 4 -28l-80 -128q-4 -16 -24 -12l-96 36q-28 -20 -68 -36l-12 -100q-4 -16 -20 -16h-148q-16 0 -20 16l-16 100q-40 20 -64 36l-96 -36q-16 -8 -24 8l-76 132q-8 16 4 24l84 64q-4 40 0 80l-84 60
q-12 12 -4 28l76 128q8 16 24 12l96 -40q28 24 64 40l16 100q0 8 6 12t14 0h152q20 0 20 -16l16 -100q32 -16 64 -36l96 40q20 0 24 -12l76 -132q8 -16 -4 -24zM1024 1152q-52 0 -90 -38t-38 -90t38 -90t90 -38t90 38t38 90t-38 90t-90 38z" />
</svg>
