<?xml version="1.0" standalone="no"?>
<!DOCTYPE svg PUBLIC "-//W3C//DTD SVG 1.1//EN" "http://www.w3.org/Graphics/SVG/1.1/DTD/svg11.dtd" >
<svg xmlns="http://www.w3.org/2000/svg" xmlns:xlink="http://www.w3.org/1999/xlink" version="1.1" viewBox="-10 0 1556 2048">
   <path fill="currentColor"
d="M1364 556h-168q0 -116 -58 -214t-156 -156t-214 -58t-214 58t-156 156t-58 214h-168q-72 0 -122 50t-50 122v1024q0 68 50 118t122 50h1192q72 0 122 -50t50 -118v-1024q0 -72 -50 -122t-122 -50zM768 300q108 0 182 74t74 182h-512q0 -108 74 -182t182 -74zM1364 1752
h-1192v-1024h1192v1024zM768 1068q-108 0 -182 -74t-74 -182h-172q0 116 58 214t156 156t214 58t214 -58t156 -156t58 -214h-172q0 108 -74 182t-182 74z" />
</svg>
