<?xml version="1.0" standalone="no"?>
<!DOCTYPE svg PUBLIC "-//W3C//DTD SVG 1.1//EN" "http://www.w3.org/Graphics/SVG/1.1/DTD/svg11.dtd" >
<svg xmlns="http://www.w3.org/2000/svg" xmlns:xlink="http://www.w3.org/1999/xlink" version="1.1" viewBox="-10 0 1900 2048">
   <path fill="currentColor"
d="M1624 684h168v-172l-168 -172h-1452q-72 0 -122 50t-50 122v768q0 72 50 122t122 50h84q0 104 76 180t182 76t180 -76t74 -180h428q0 104 74 180t182 76t182 -76t74 -180h172v-428zM512 1580q-52 0 -90 -38t-38 -92t38 -90t92 -36t90 36t36 90t-36 92t-92 38zM684 1024
h-512v-256h512v256zM1112 1280h-256v-512h256v512zM1452 1580q-52 0 -90 -38t-38 -92t38 -90t90 -36t90 36t38 90t-38 90t-90 40zM1368 1024v-212h212l172 212h-384z" />
</svg>
