<?xml version="1.0" standalone="no"?>
<!DOCTYPE svg PUBLIC "-//W3C//DTD SVG 1.1//EN" "http://www.w3.org/Graphics/SVG/1.1/DTD/svg11.dtd" >
<svg xmlns="http://www.w3.org/2000/svg" xmlns:xlink="http://www.w3.org/1999/xlink" version="1.1" viewBox="-10 0 1724 2048">
   <path fill="currentColor"
d="M1620 1108h-1536q-36 0 -60 26t-24 62v512q0 36 24 60t60 24h1536q36 0 60 -24t24 -60v-512q0 -36 -24 -62t-60 -26zM1536 1620h-1368v-340h1368v340zM1620 256h-1536q-36 0 -60 24t-24 60v512q0 36 24 62t60 26h1536q36 0 60 -26t24 -62v-512q0 -36 -24 -60t-60 -24z
M1536 768h-1368v-340h1368v340z" />
</svg>
