<?xml version="1.0" standalone="no"?>
<!DOCTYPE svg PUBLIC "-//W3C//DTD SVG 1.1//EN" "http://www.w3.org/Graphics/SVG/1.1/DTD/svg11.dtd" >
<svg xmlns="http://www.w3.org/2000/svg" xmlns:xlink="http://www.w3.org/1999/xlink" version="1.1" viewBox="-10 0 1844 2048">
   <path fill="currentColor"
d="M768 1564h-600q-68 0 -118 -50t-50 -122v-1024q0 -72 50 -122t118 -50h88l168 344h256l-168 -344h168l172 344h256l-172 -344h172l172 344h256l-172 -344h340v772q-72 -116 -198 -188t-274 -72t-274 76t-202 202t-76 278q0 164 88 300zM1824 1732l-120 120l-264 -264
q-96 60 -204 60q-160 0 -272 -112t-112 -272t112 -272t272 -112t272 112t112 272q0 112 -60 204zM1448 1264q0 -88 -62 -150t-150 -62t-150 62t-62 150t62 150t150 62t150 -62t62 -150z" />
</svg>
