<?xml version="1.0" standalone="no"?>
<!DOCTYPE svg PUBLIC "-//W3C//DTD SVG 1.1//EN" "http://www.w3.org/Graphics/SVG/1.1/DTD/svg11.dtd" >
<svg xmlns="http://www.w3.org/2000/svg" xmlns:xlink="http://www.w3.org/1999/xlink" version="1.1" viewBox="-10 0 1812 2048">
   <path fill="currentColor"
d="M768 256q-208 0 -384 104t-280 280t-104 384t104 384t280 280t384 104q260 0 468 -160l-120 -120q-160 108 -348 108q-164 0 -300 -80t-216 -216t-80 -300t80 -300t216 -216t300 -80t300 80t216 216t80 300h-256l344 340l340 -340h-256q0 -208 -104 -384t-280 -280
t-384 -104zM400 1124q-12 8 -4 24l76 132q4 12 24 12l96 -40q32 20 64 36l16 100q4 16 20 16h152q8 4 14 0t6 -12l16 -100q36 -16 64 -40l96 40q16 4 24 -12l76 -128q8 -16 -4 -28l-84 -60q4 -40 0 -80l84 -64q12 -8 4 -24l-76 -132q-8 -16 -24 -8l-96 36q-24 -16 -64 -36
l-16 -100q-4 -16 -20 -16h-148q-16 0 -20 16l-12 100q-40 16 -68 36l-96 -36q-20 -4 -24 12l-80 128q-4 16 4 28l88 60q-4 20 -4 40t4 40zM768 1152q-52 0 -90 -38t-38 -90t38 -90t90 -38t90 38t38 90t-38 90t-90 38z" />
</svg>
