<?xml version="1.0" standalone="no"?>
<!DOCTYPE svg PUBLIC "-//W3C//DTD SVG 1.1//EN" "http://www.w3.org/Graphics/SVG/1.1/DTD/svg11.dtd" >
<svg xmlns="http://www.w3.org/2000/svg" xmlns:xlink="http://www.w3.org/1999/xlink" version="1.1" viewBox="-10 0 1724 2048">
   <path fill="currentColor"
d="M1236 182q52 0 90 38t38 90t-38 90t-90 38t-90 -38t-38 -90t38 -90t90 -38zM1536 1526q68 0 118 50t50 120t-50 120t-118 50q-48 0 -88 -22t-60 -62h-816q-20 40 -60 62t-88 22q-68 0 -118 -50t-50 -120t50 -120t118 -50q48 0 88 24t60 60h364v-468l-276 -192l-256 236
q-24 24 -60 22t-60 -30l-260 -280q-24 -24 -24 -60t26 -60t62 -22t60 26l204 220l612 -568q24 -24 60 -22t60 30l192 232h260q32 0 58 24t26 60t-26 60t-58 24h-300q-44 0 -72 -36l-128 -152l-216 200l252 176q36 24 36 68v512h52q28 -120 122 -202t218 -94l-68 -384h128
l92 540q-56 -28 -116 -28q-84 0 -150 46t-94 122h96q20 -36 60 -60t88 -24z" />
</svg>
