<?xml version="1.0" standalone="no"?>
<!DOCTYPE svg PUBLIC "-//W3C//DTD SVG 1.1//EN" "http://www.w3.org/Graphics/SVG/1.1/DTD/svg11.dtd" >
<svg xmlns="http://www.w3.org/2000/svg" xmlns:xlink="http://www.w3.org/1999/xlink" version="1.1" viewBox="-10 0 1995 2048">
   <path fill="currentColor"
d="M878 1142v-218q-101 9 -218.5 46t-220.5 88v210q106 -49 221.5 -83.5t217.5 -42.5zM878 666v-226q-101 5 -217.5 45.5t-221.5 98.5v216q245 -126 439 -134zM1829 1194v-210q-271 133 -439 82v-256q-30 -10 -45 -18q-5 -2 -42 -21t-44 -22t-39.5 -18.5t-44 -19t-41 -14.5
t-47.5 -14.5t-45.5 -9t-53.5 -7.5t-54 -2t-56 4v254h22q117 0 220 33t225 93q15 8 45 18v214q45 20 104 20q139 0 335 -106zM1829 706v-216q-193 104 -350 104q-52 0 -89 -8v224q169 47 439 -104zM293 292q0 40 -20 73.5t-53 52.5v1448q0 15 -10.5 25.5t-26.5 10.5h-73
q-16 0 -26.5 -10.5t-10.5 -25.5v-1448q-33 -19 -53 -52.5t-20 -73.5q0 -60 42.5 -103t103.5 -43t104 43t43 103zM1975 366v872q0 20 -11 37.5t-29 26.5q-4 2 -19 12q-43 23 -75 38t-94 40.5t-126.5 39.5t-126.5 14q-99 0 -181 -40l-32 -16q-56 -29 -85.5 -42.5t-76 -31
t-90.5 -24t-95 -6.5q-117 0 -269 50.5t-261 115.5q-16 10 -38 10q-20 0 -37 -8q-36 -22 -36 -64v-848q0 -41 35 -64q41 -24 90 -48.5t130 -59t174.5 -56.5t177.5 -22q68 0 134 11.5t129.5 33t108 41t105.5 48.5q44 22 102 22q138 0 354 -128q27 -14 36 -20q37 -17 71 2
q35 23 35 64z" />
</svg>
