<?xml version="1.0" standalone="no"?>
<!DOCTYPE svg PUBLIC "-//W3C//DTD SVG 1.1//EN" "http://www.w3.org/Graphics/SVG/1.1/DTD/svg11.dtd" >
<svg xmlns="http://www.w3.org/2000/svg" xmlns:xlink="http://www.w3.org/1999/xlink" version="1.1" viewBox="-10 0 1852 2048">
   <path fill="currentColor"
d="M1428 1884l-236 -256l100 -100l136 136l308 -308l96 120zM936 1100v-512h-168v512h168zM936 1444v-172h-168v172h168zM852 164q232 0 428 114t310 310t114 428l-8 112q-76 -28 -160 -28q-140 0 -258 70t-186 188t-68 254q0 120 52 228q-108 28 -224 28q-232 0 -428 -114
t-310 -310t-114 -428t114 -428t310 -310t428 -114z" />
</svg>
