<?xml version="1.0" standalone="no"?>
<!DOCTYPE svg PUBLIC "-//W3C//DTD SVG 1.1//EN" "http://www.w3.org/Graphics/SVG/1.1/DTD/svg11.dtd" >
<svg xmlns="http://www.w3.org/2000/svg" xmlns:xlink="http://www.w3.org/1999/xlink" version="1.1" viewBox="-11 0 1730 2048">
   <path fill="currentColor"
d="M342 940v128h128v128h128v-256h-256zM898 512h-128v256h256v-128h-128v-128zM666 1452q132 52 272 26t242 -128t128 -242t-26 -272zM370 540q148 -144 352 -184t396 40q8 -88 56 -164q-240 -96 -490 -44t-432 234t-234 432t44 486q76 -48 164 -56q-80 -188 -40 -392
t184 -352zM1338 1508q-148 144 -352 184t-396 -40q-8 88 -56 164q240 96 490 44t432 -234t234 -432t-44 -486q-76 48 -164 56q80 188 40 392t-184 352zM342 940v128h128v128h128v-256h-256zM666 1452q132 52 272 26t242 -128t128 -242t-26 -272zM898 512h-128v256h256v-128
h-128v-128zM342 940v128h128v128h128v-256h-256zM898 512h-128v256h256v-128h-128v-128zM666 1452q132 52 272 26t242 -128t128 -242t-26 -272zM250 1792q-68 0 -118 -50t-50 -120t50 -120t118 -50h172v168q0 72 -50 126t-122 50v-4zM1458 252q68 0 118 50t50 120t-50 120
t-118 50h-172v-172q0 -68 50 -118t122 -50z" />
</svg>
