<?xml version="1.0" standalone="no"?>
<!DOCTYPE svg PUBLIC "-//W3C//DTD SVG 1.1//EN" "http://www.w3.org/Graphics/SVG/1.1/DTD/svg11.dtd" >
<svg xmlns="http://www.w3.org/2000/svg" xmlns:xlink="http://www.w3.org/1999/xlink" version="1.1" viewBox="-10 0 2110 2048">
   <path fill="currentColor"
d="M653 1525l-57 58q-11 11 -26.5 11t-26.5 -11l-532 -533q-11 -11 -11 -26.5t11 -26.5l532 -532q11 -11 26.5 -11t26.5 11l57 57q11 11 11 26.5t-11 26.5l-449 449l449 449q11 11 11 26t-11 26zM1329 306l-427 1475q-4 15 -17 22.5t-27 3.5l-71 -20q-14 -4 -21.5 -18
t-3.5 -28l426 -1475q5 -14 18.5 -21.5t26.5 -3.5l70 19q15 5 23 18.5t3 27.5zM2079 1050l-532 533q-11 11 -26 11t-27 -11l-57 -58q-11 -11 -11 -26t11 -26l449 -449l-449 -449q-11 -11 -11 -26.5t11 -26.5l57 -57q12 -11 27 -11t26 11l532 532q11 11 11 26.5t-11 26.5z" />
</svg>
