<?xml version="1.0" standalone="no"?>
<!DOCTYPE svg PUBLIC "-//W3C//DTD SVG 1.1//EN" "http://www.w3.org/Graphics/SVG/1.1/DTD/svg11.dtd" >
<svg xmlns="http://www.w3.org/2000/svg" xmlns:xlink="http://www.w3.org/1999/xlink" version="1.1" viewBox="-10 0 1556 2048">
   <path fill="currentColor"
d="M684 172q-332 0 -484 56q-200 80 -200 284v852q0 116 88 192v152q0 36 24 60t60 24h84q36 0 62 -24t26 -60v-88h512q-80 -140 -88 -296q4 -116 58 -218t146 -166h-800v-428h1024v340h44q64 0 128 20v-360q0 -204 -200 -284q-152 -56 -484 -56zM300 1196q52 0 90 36t38 90
t-38 92t-90 38t-90 -38t-38 -92t38 -90t90 -36zM1240 1024q-124 0 -212 88t-88 212q0 96 76 240q56 104 144 220l80 92l76 -92q88 -116 144 -220q76 -144 76 -240q0 -124 -88 -212t-208 -88zM1240 1432q-44 0 -74 -30t-30 -72t30 -72t72 -28t72 30t32 72t-30 74t-72 26z" />
</svg>
