<?xml version="1.0" standalone="no"?>
<!DOCTYPE svg PUBLIC "-//W3C//DTD SVG 1.1//EN" "http://www.w3.org/Graphics/SVG/1.1/DTD/svg11.dtd" >
<svg xmlns="http://www.w3.org/2000/svg" xmlns:xlink="http://www.w3.org/1999/xlink" version="1.1" viewBox="-10 0 1684 2048">
   <path fill="currentColor"
d="M1260 1798l-236 -256l100 -96l136 136l304 -308l100 120zM0 250h1536v172q-72 0 -122 50t-50 118v428q-136 0 -254 68t-188 186t-70 258t68 256h-580q-68 0 -118 -50t-50 -122v-1024q0 -68 -50 -118t-122 -50v-172zM340 762v84h256v-84h-256zM340 934v84h256v-84h-256z
M596 1358v-84h-256v84h256zM768 1190v-88h-428v88h428zM768 678v-88h-428v88h428z" />
</svg>
