<?xml version="1.0" standalone="no"?>
<!DOCTYPE svg PUBLIC "-//W3C//DTD SVG 1.1//EN" "http://www.w3.org/Graphics/SVG/1.1/DTD/svg11.dtd" >
<svg xmlns="http://www.w3.org/2000/svg" xmlns:xlink="http://www.w3.org/1999/xlink" version="1.1" viewBox="-10 0 1804 2048">
   <path fill="currentColor"
d="M1392 684l392 -388l-120 -124l-1624 1624l124 120l388 -392l264 264q52 48 122 48t118 -48l600 -600q48 -48 48 -118t-48 -122zM308 1276l840 -832l-260 -264q-52 -48 -120 -48h-600q-68 0 -118 50t-50 118v600q0 68 48 120zM296 300q56 0 92 38t36 92t-36 90t-90 36
t-92 -36t-38 -90t38 -92t90 -38z" />
</svg>
