<?xml version="1.0" standalone="no"?>
<!DOCTYPE svg PUBLIC "-//W3C//DTD SVG 1.1//EN" "http://www.w3.org/Graphics/SVG/1.1/DTD/svg11.dtd" >
<svg xmlns="http://www.w3.org/2000/svg" xmlns:xlink="http://www.w3.org/1999/xlink" version="1.1" viewBox="-10 0 1768 2048">
   <path fill="currentColor"
d="M1628 1260l-180 176l-176 -176l-120 120l176 176l-176 180l120 120l176 -180l180 180l120 -120l-180 -180l180 -176zM1192 364v392l-460 460h-128l-172 -512h80v-512h-512v512h256l168 512h-84v512h512v-392l460 -460h392v-512h-512zM340 532h-172v-168h172v168z
M680 1556h-168v-168h168v168zM1536 704h-172v-172h172v172z" />
</svg>
