<?xml version="1.0" standalone="no"?>
<!DOCTYPE svg PUBLIC "-//W3C//DTD SVG 1.1//EN" "http://www.w3.org/Graphics/SVG/1.1/DTD/svg11.dtd" >
<svg xmlns="http://www.w3.org/2000/svg" xmlns:xlink="http://www.w3.org/1999/xlink" version="1.1" viewBox="-10 0 2068 2048">
   <path fill="currentColor"
d="M731 1273v80q0 23 -12.5 41.5t-31.5 26.5q-15 5 -29 5q-32 0 -51 -21l-585 -586q-22 -21 -22 -50.5t22 -51.5l585 -586q15 -16 37.5 -20t42.5 4q19 9 31.5 27.5t12.5 40.5v79l-453 455q-22 22 -22 51.5t22 50.5zM2048 1317q0 67 -19.5 153.5t-44 157t-55 142.5t-46 103.5
t-22.5 45.5q-9 19 -32 19q-8 0 -11 -1q-13 -4 -20 -15t-6 -24q24 -233 -5.5 -391t-115.5 -254q-73 -81 -195 -126.5t-306 -60.5v287q0 23 -12.5 41.5t-31.5 26.5q-15 5 -29 5q-32 0 -51 -21l-585 -586q-22 -21 -22 -50.5t22 -51.5l585 -586q15 -16 37.5 -20t42.5 4
q19 9 31.5 27.5t12.5 40.5v299q469 33 685 253q49 51 86 113.5t57 120t31.5 124.5t15 117t3.5 107z" />
</svg>
