<?xml version="1.0" standalone="no"?>
<!DOCTYPE svg PUBLIC "-//W3C//DTD SVG 1.1//EN" "http://www.w3.org/Graphics/SVG/1.1/DTD/svg11.dtd" >
<svg xmlns="http://www.w3.org/2000/svg" xmlns:xlink="http://www.w3.org/1999/xlink" version="1.1" viewBox="-10 0 1724 2048">
   <path fill="currentColor"
d="M340 1024h-340q0 -232 114 -428t310 -310t428 -114t428 114t310 310t114 428t-114 428t-310 310t-428 114v-340h-340v-340h340v340q140 0 258 -68t186 -186t68 -258t-68 -258t-186 -186t-258 -68t-258 68t-186 186t-68 258zM512 1536v256h-256v-256h256zM84 1364h172v172
h-172v-172z" />
</svg>
