<?xml version="1.0" standalone="no"?>
<!DOCTYPE svg PUBLIC "-//W3C//DTD SVG 1.1//EN" "http://www.w3.org/Graphics/SVG/1.1/DTD/svg11.dtd" >
<svg xmlns="http://www.w3.org/2000/svg" xmlns:xlink="http://www.w3.org/1999/xlink" version="1.1" viewBox="-11 0 1923 2048">
   <path fill="currentColor"
d="M1355 1174l294 -285l-407 -60l-75 -11l-34 -69l-182 -368v1101l67 35l364 192l-69 -406l-14 -75zM1872 875l-415 404l98 572q6 37 -6.5 58.5t-38.5 21.5q-20 0 -46 -14l-513 -270l-513 270q-27 14 -46 14q-27 0 -39.5 -21.5t-6.5 -58.5l99 -572l-416 -404
q-37 -37 -27 -69t62 -39l574 -83l257 -520q22 -47 56 -47q31 0 56 47l257 520l574 83q51 7 61 39t-27 69z" />
</svg>
