<?xml version="1.0" standalone="no"?>
<!DOCTYPE svg PUBLIC "-//W3C//DTD SVG 1.1//EN" "http://www.w3.org/Graphics/SVG/1.1/DTD/svg11.dtd" >
<svg xmlns="http://www.w3.org/2000/svg" xmlns:xlink="http://www.w3.org/1999/xlink" version="1.1" viewBox="-10 0 1212 2048">
   <path fill="currentColor"
d="M1192 1280q0 164 -80 300t-216 216t-300 80t-300 -80t-216 -216t-80 -300q0 -176 94 -322t246 -218v-312q0 -36 26 -62t58 -26h44l-84 -168h424l-84 168h44q32 0 58 26t26 62v312q152 72 246 218t94 322zM512 512v348q-148 32 -246 150t-98 270l8 76l164 -168l348 348
l328 -328q-20 -132 -114 -226t-222 -122v-348h-168zM688 1024q36 0 60 26t24 60t-24 60t-60 26t-62 -26t-26 -62t26 -60t62 -24z" />
</svg>
