<?xml version="1.0" standalone="no"?>
<!DOCTYPE svg PUBLIC "-//W3C//DTD SVG 1.1//EN" "http://www.w3.org/Graphics/SVG/1.1/DTD/svg11.dtd" >
<svg xmlns="http://www.w3.org/2000/svg" xmlns:xlink="http://www.w3.org/1999/xlink" version="1.1" viewBox="-10 0 1388 2048">
   <path fill="currentColor"
d="M428 1640h512v172h-512q-116 0 -214 -58t-156 -156t-58 -214v-768h172v768q0 108 74 182t182 74zM548 480q52 -48 52 -118t-50 -120t-122 -50t-122 50t-50 120t50 120t122 50t120 -52zM640 788q0 -72 -50 -122t-118 -50h-44q-72 0 -122 50t-50 122v512q0 108 76 182
t180 74h432l300 300l124 -124l-432 -432h-296v-512z" />
</svg>
