<?xml version="1.0" standalone="no"?>
<!DOCTYPE svg PUBLIC "-//W3C//DTD SVG 1.1//EN" "http://www.w3.org/Graphics/SVG/1.1/DTD/svg11.dtd" >
<svg xmlns="http://www.w3.org/2000/svg" xmlns:xlink="http://www.w3.org/1999/xlink" version="1.1" viewBox="-10 0 1584 2048">
   <path fill="currentColor"
d="M1456 456q-44 0 -74 30t-30 74v392h-72v-604q0 -43 -32 -75t-76 -32.5t-74 31.5t-30 76v604h-72v-676q0 -60 -54 -90t-108 0t-54 90v676h-68v-496q0 -43 -32 -75t-76 -32.5t-76 31.5t-32 76v848l-304 -172q-20 -12 -44 -12q-32 0 -56 20l-92 88l556 564q84 84 204 84h520
q116 0 200 -82t84 -202v-1032q0 -43 -32 -73.5t-76 -30.5zM712 1280q-36 0 -62 -24t-26 -60t26 -61.5t62 -26t60 25.5t24 62t-24 60t-60 24zM880 1536q-36 0 -60 -24t-24 -60t24 -61.5t60 -26t62 25.5t26 62t-26 60t-62 24zM1308 1364q-36 0 -60 -24t-24 -60t24 -60t60 -24
t60 24t24 60t-24 60t-60 24zM1224 1620q-36 0 -62 -24t-26 -60t26 -60t62 -24t60 24t24 60t-24 60t-60 24zM1052 1280q-36 0 -60 -24t-24 -60t24 -61.5t60 -26t60 25.5t24 62t-24 60t-60 24z" />
</svg>
