<?xml version="1.0" standalone="no"?>
<!DOCTYPE svg PUBLIC "-//W3C//DTD SVG 1.1//EN" "http://www.w3.org/Graphics/SVG/1.1/DTD/svg11.dtd" >
<svg xmlns="http://www.w3.org/2000/svg" xmlns:xlink="http://www.w3.org/1999/xlink" version="1.1" viewBox="-11 0 1726 2048">
   <path fill="currentColor"
d="M424 1577q0 44 16 88h-100q-36 0 -60 -26t-24 -62v-84h168v84zM680 1577q0 36 26 62t62 26h168q36 0 62 -26t26 -62v-84h-344v84zM168 1321q0 36 26 62t62 26h168v-184q-80 -80 -124 -188t-44 -228q-4 -132 56 -256q-112 12 -196 84t-108 182t20 212t140 158v132z
M1280 1577q0 44 -16 88h100q36 0 60 -26t24 -62v-84h-168v84zM1280 809q0 104 -46 194t-126 150v168q0 36 -24 62t-60 26h-344q-36 0 -60 -26t-24 -62v-168q-120 -92 -158 -238t26 -282t198 -204t280 -36t242 150t96 266zM1108 809q0 -96 -64 -170t-162 -84t-178 46
t-102 152t26 180t140 116v188h168v-188q76 -24 124 -90t48 -150zM1392 553q60 124 56 256q0 120 -44 228t-124 188v184h168q36 0 62 -26t26 -62v-132q96 -56 140 -158t20 -212t-108 -182t-196 -84z" />
</svg>
