<?xml version="1.0" standalone="no"?>
<!DOCTYPE svg PUBLIC "-//W3C//DTD SVG 1.1//EN" "http://www.w3.org/Graphics/SVG/1.1/DTD/svg11.dtd" >
<svg xmlns="http://www.w3.org/2000/svg" xmlns:xlink="http://www.w3.org/1999/xlink" version="1.1" viewBox="-10 0 1724 2048">
   <path fill="currentColor"
d="M256 1750v-684h-256l852 -768l852 768h-256v684h-1192zM852 526l-428 384v668h856v-668zM768 1494v-88h168v88h-168zM768 1322q-20 0 -32 -12t-12 -32v-76q-60 -32 -94 -92t-34 -128q0 -108 74 -182t182 -74t182 74t74 182q0 68 -34 128t-94 92v76q0 20 -12 32t-32 12
h-168z" />
</svg>
