<?xml version="1.0" standalone="no"?>
<!DOCTYPE svg PUBLIC "-//W3C//DTD SVG 1.1//EN" "http://www.w3.org/Graphics/SVG/1.1/DTD/svg11.dtd" >
<svg xmlns="http://www.w3.org/2000/svg" xmlns:xlink="http://www.w3.org/1999/xlink" version="1.1" viewBox="-10 0 1724 2048">
   <path fill="currentColor"
d="M168 596v1196h1196v172h-1196q-68 0 -118 -50t-50 -122v-1196h168zM1536 256q68 0 118 50t50 122v1024q0 68 -50 118t-118 50h-1024q-72 0 -122 -50t-50 -118v-1024q0 -72 50 -122t122 -50h272q24 -76 90 -124t148 -48t148 48t90 124h276zM1024 256q-40 0 -64 26t-24 60
t24 60t62 26t62 -24t24 -62t-24 -62t-60 -24zM680 596v-168h-168v1024h1024v-1024h-172v168h-684zM852 1280v-512l428 256z" />
</svg>
