<?xml version="1.0" standalone="no"?>
<!DOCTYPE svg PUBLIC "-//W3C//DTD SVG 1.1//EN" "http://www.w3.org/Graphics/SVG/1.1/DTD/svg11.dtd" >
<svg xmlns="http://www.w3.org/2000/svg" xmlns:xlink="http://www.w3.org/1999/xlink" version="1.1" viewBox="-10 0 1724 2048">
   <path fill="currentColor"
d="M1536 256h-276q-24 -76 -90 -124t-148 -48t-148 48t-90 124h-272q-72 0 -122 50t-50 122v1024q0 68 50 118t122 50h1024q68 0 118 -50t50 -118v-1024q0 -72 -50 -122t-118 -50zM1024 256q36 0 60 26t24 58t-26 60t-58 28t-60 -28t-28 -60t24 -58t64 -26zM1192 1196h-596
v-172h596v172zM1448 852h-852v-168h852v168zM168 1792h1196v172h-1196q-68 0 -118 -50t-50 -122v-1196h168v1196z" />
</svg>
