<?xml version="1.0" standalone="no"?>
<!DOCTYPE svg PUBLIC "-//W3C//DTD SVG 1.1//EN" "http://www.w3.org/Graphics/SVG/1.1/DTD/svg11.dtd" >
<svg xmlns="http://www.w3.org/2000/svg" xmlns:xlink="http://www.w3.org/1999/xlink" version="1.1" viewBox="-10 0 1728 2048">
   <path fill="currentColor"
d="M1364 256q72 0 122 50t50 122v356l-100 -100h-412q-140 0 -240 100t-100 240v768h-512q-72 0 -122 -50t-50 -122v-1192q0 -72 50 -122t122 -50h356q28 -76 94 -124t146 -48t146 48t94 124h356zM768 256q-36 0 -60 26t-24 60t24 60t60 26t60 -26t24 -60t-24 -60t-60 -26z
M1024 1964q-72 0 -122 -50t-50 -122v-768q0 -72 50 -122t122 -50h340l344 344v596q0 72 -50 122t-122 50h-512zM1536 1264l-240 -240h-16v256h256v-16z" />
</svg>
