<?xml version="1.0" standalone="no"?>
<!DOCTYPE svg PUBLIC "-//W3C//DTD SVG 1.1//EN" "http://www.w3.org/Graphics/SVG/1.1/DTD/svg11.dtd" >
<svg xmlns="http://www.w3.org/2000/svg" xmlns:xlink="http://www.w3.org/1999/xlink" version="1.1" viewBox="-10 0 1190 2048">
   <path fill="currentColor"
d="M329 1682.5q0 -45.5 -32 -78t-78 -32.5t-77.5 32.5t-31.5 78t31.5 77.5t77.5 32t78 -32t32 -77.5zM329 365.5q0 -45.5 -32 -77.5t-78 -32t-77.5 32t-31.5 77.5t31.5 78t77.5 32.5t78 -32.5t32 -78zM1061 512.5q0 -45.5 -32 -78t-78 -32.5t-78 32.5t-32 78t32 77.5t78 32
t78 -32t32 -77.5zM1170 512q0 60 -29.5 110t-79.5 80q-1 85 -19 157t-43.5 122.5t-70.5 95t-80.5 70.5t-94 52.5t-90 37.5t-89.5 29q-3 1 -4 2q-51 15 -81.5 26t-61 24.5t-46.5 26t-29.5 30.5t-18 38.5t-4.5 48.5v30q50 30 80 80.5t30 109.5q0 91 -64.5 155.5t-155.5 64.5
t-155 -64.5t-64 -155.5q0 -59 30 -109.5t80 -80.5v-936q-50 -30 -80 -80.5t-30 -109.5q0 -91 64 -155.5t155 -64.5t155.5 64.5t64.5 155.5q0 59 -30 109.5t-80 80.5v568q59 -30 176 -66q41 -12 68 -21.5t59.5 -22.5t54 -25t45.5 -28.5t38.5 -34t29.5 -41t23 -50.5t13 -60.5
t5 -72.5q-50 -30 -80 -80t-30 -110q0 -90 64.5 -155t155.5 -65t155 65t64 155z" />
</svg>
