<?xml version="1.0" standalone="no"?>
<!DOCTYPE svg PUBLIC "-//W3C//DTD SVG 1.1//EN" "http://www.w3.org/Graphics/SVG/1.1/DTD/svg11.dtd" >
<svg xmlns="http://www.w3.org/2000/svg" xmlns:xlink="http://www.w3.org/1999/xlink" version="1.1" viewBox="-10 0 1724 2048">
   <path fill="currentColor"
d="M680 256l172 172h684q68 0 118 50t50 122v284q-128 -116 -296 -116q-128 0 -236 66t-172 176t-64 230q0 164 128 384h-896q-68 0 -118 -50t-50 -122v-1024q0 -72 50 -122t118 -50h512zM1408 940q120 0 208 88t88 212q0 136 -148 360q-76 112 -148 192l-80 -92
q-88 -116 -144 -220q-76 -144 -76 -240q0 -124 88 -212t212 -88zM1408 1348q44 0 76 -32t28 -70t-36 -70t-70 -32t-70 30t-32 72t30 72t74 30z" />
</svg>
