<?xml version="1.0" standalone="no"?>
<!DOCTYPE svg PUBLIC "-//W3C//DTD SVG 1.1//EN" "http://www.w3.org/Graphics/SVG/1.1/DTD/svg11.dtd" >
<svg xmlns="http://www.w3.org/2000/svg" xmlns:xlink="http://www.w3.org/1999/xlink" version="1.1" viewBox="-10 0 1556 2048">
   <path fill="currentColor"
d="M1364 256q72 0 122 50t50 122v1192q0 72 -50 122t-122 50h-1192q-72 0 -122 -50t-50 -122v-1192q0 -72 50 -122t122 -50h1192zM172 1620h376q-80 -68 -112 -168h-264v168zM1364 1620v-168h-264q-32 100 -112 168h376zM1364 1280v-852h-1192v852h424v84q0 84 52 128
t120 44t120 -44t52 -128v-84h424zM340 596h856v172h-856v-172zM1196 940v168h-856v-168h856z" />
</svg>
