<?xml version="1.0" standalone="no"?>
<!DOCTYPE svg PUBLIC "-//W3C//DTD SVG 1.1//EN" "http://www.w3.org/Graphics/SVG/1.1/DTD/svg11.dtd" >
<svg xmlns="http://www.w3.org/2000/svg" xmlns:xlink="http://www.w3.org/1999/xlink" version="1.1" viewBox="-10 0 1922 2048">
   <path fill="currentColor"
d="M502 1526l-293 292q-11 10 -26 10t-26 -10q-11 -11 -11 -26t11 -26l292 -292q11 -11 26.5 -11t26.5 11q10 11 10 25.5t-10 26.5zM695 1572v366q0 16 -10.5 26t-26.5 10t-26 -10t-10 -26v-366q0 -15 10 -25.5t26 -10.5t26.5 10.5t10.5 25.5zM439 1316.5q0 15.5 -10.5 26.5
t-26.5 11h-365q-16 0 -26.5 -11t-10.5 -26.5t10.5 -26t26.5 -10.5h365q16 0 26.5 10.5t10.5 26zM1883 1462q0 137 -97 232l-168 168q-95 94 -232 94q-138 0 -233 -96l-382 -384q-23 -23 -48 -64l274 -20l312 314q31 30 77.5 30.5t77.5 -30.5l168 -166q32 -32 32 -77t-32 -77
l-313 -316l20 -272q41 24 64 48l384 384q96 97 96 232zM1178 636l-273 20l-312 -314q-32 -32 -78 -32q-43 0 -77 32l-168 166q-32 32 -32 77t32 77l313 314l-21 274q-41 -24 -64 -48l-384 -384q-96 -97 -96 -232q0 -137 97 -232l168 -168q95 -94 232 -94q66 0 127 25t107 71
l381 384q23 23 48 64zM1902 731.5q0 15.5 -10.5 26t-26.5 10.5h-366q-16 0 -26 -10.5t-10 -26t10 -26.5t26 -11h366q16 0 26.5 11t10.5 26.5zM1280 110v366q0 15 -10.5 25.5t-26.5 10.5t-26 -10.5t-10 -25.5v-366q0 -16 10 -26t26 -10t26.5 10t10.5 26zM1745 282l-292 292
q-13 12 -27 12q-13 0 -26 -12q-10 -11 -10 -25.5t10 -26.5l293 -292q11 -11 26 -11t26 11t11 26t-11 26z" />
</svg>
