<?xml version="1.0" standalone="no"?>
<!DOCTYPE svg PUBLIC "-//W3C//DTD SVG 1.1//EN" "http://www.w3.org/Graphics/SVG/1.1/DTD/svg11.dtd" >
<svg xmlns="http://www.w3.org/2000/svg" xmlns:xlink="http://www.w3.org/1999/xlink" version="1.1" viewBox="-10 0 1468 2048">
   <path fill="currentColor"
d="M1280 300l168 168l-1280 1280l-168 -168zM296 340q108 0 182 76t74 182t-74 180t-180 74t-182 -74t-76 -180t76 -182t180 -76zM1152 1196q104 0 180 74t76 180t-76 182t-182 76t-180 -76t-74 -182t74 -180t182 -74zM296 512q-32 0 -58 26t-26 60t26 60t60 26t60 -26
t26 -60t-26 -60t-62 -26zM1152 1364q-36 0 -62 26t-26 60t26 60t60 26t60 -26t26 -60t-26 -60t-58 -26z" />
</svg>
