<?xml version="1.0" standalone="no"?>
<!DOCTYPE svg PUBLIC "-//W3C//DTD SVG 1.1//EN" "http://www.w3.org/Graphics/SVG/1.1/DTD/svg11.dtd" >
<svg xmlns="http://www.w3.org/2000/svg" xmlns:xlink="http://www.w3.org/1999/xlink" version="1.1" viewBox="-10 0 1724 2048">
   <path fill="currentColor"
d="M1536 128q68 0 118 50t50 118v1368q0 68 -50 118t-118 50h-88v88h-340v-88h-512v88h-340v-88h-88q-68 0 -118 -50t-50 -118v-1368q0 -68 50 -118t118 -50h1368zM1280 980q0 -128 -68 -240l128 -128l-120 -120l-128 128q-112 -68 -240 -68t-240 68l-120 -128l-128 128
l128 128q-68 96 -68 228t68 244l-128 128l128 120l128 -128q96 68 228 68t244 -68l128 128l120 -120l-128 -128q68 -112 68 -240zM852 724q108 0 182 74t74 182t-74 182t-182 74t-182 -74t-74 -182t74 -182t182 -74zM852 1152q72 0 122 -50t50 -122t-50 -122t-122 -50
t-122 50t-50 122t50 122t122 50z" />
</svg>
