<?xml version="1.0" standalone="no"?>
<!DOCTYPE svg PUBLIC "-//W3C//DTD SVG 1.1//EN" "http://www.w3.org/Graphics/SVG/1.1/DTD/svg11.dtd" >
<svg xmlns="http://www.w3.org/2000/svg" xmlns:xlink="http://www.w3.org/1999/xlink" version="1.1" viewBox="-10 0 1812 2048">
   <path fill="currentColor"
d="M680 896q144 0 244 -100t100 -242t-100 -242t-242 -100t-242 100t-100 242t100 242t240 100zM680 384q72 0 122 50t50 120t-50 120t-120 50t-120 -50t-50 -120t50 -120t118 -50zM620 1580h-620v-256q0 -108 124 -192q108 -68 280 -112q152 -40 276 -40q152 0 332 52
q-112 44 -204 120q-68 -8 -128 -8q-116 0 -248 32q-112 32 -192 76t-80 72v92h456l-8 12l-24 64zM1280 1408q36 0 60 24t24 60t-24 62t-60 26t-62 -26t-26 -62t26 -60t62 -24zM1280 1152q-172 0 -312 94t-200 246q60 152 200 248t312 96t310 -96t202 -248
q-64 -152 -202 -246t-310 -94zM1280 1708q-88 0 -152 -64t-64 -152t64 -150t152 -62t150 62t62 150t-62 152t-150 64z" />
</svg>
