<?xml version="1.0" standalone="no"?>
<!DOCTYPE svg PUBLIC "-//W3C//DTD SVG 1.1//EN" "http://www.w3.org/Graphics/SVG/1.1/DTD/svg11.dtd" >
<svg xmlns="http://www.w3.org/2000/svg" xmlns:xlink="http://www.w3.org/1999/xlink" version="1.1" viewBox="-10 0 1556 2048">
   <path fill="currentColor"
d="M724 768q0 -88 64 -150t152 -62q68 0 124 40t76 104q12 36 12 68q0 88 -62 150t-150 62q-72 0 -126 -38t-78 -102q-12 -36 -12 -72zM172 768q0 236 212 592q116 188 288 404l12 12l-88 100l-92 -108q-112 -140 -204 -276q-132 -196 -208 -360q-92 -208 -92 -364
q0 -200 120 -358t308 -214q-120 108 -188 256t-68 316zM940 172q160 0 298 80t218 216t80 300q0 200 -156 488q-108 204 -288 432q-88 116 -152 188l-96 -108q-112 -140 -204 -276q-132 -196 -204 -360q-96 -208 -96 -368t82 -296t218 -216t300 -80zM940 340q-116 0 -214 58
t-156 156t-58 214q0 68 16 124q28 108 112 256q104 188 300 448q192 -260 300 -448q80 -148 108 -256q16 -56 16 -124q0 -116 -56 -214t-154 -156t-214 -58z" />
</svg>
