<?xml version="1.0" standalone="no"?>
<!DOCTYPE svg PUBLIC "-//W3C//DTD SVG 1.1//EN" "http://www.w3.org/Graphics/SVG/1.1/DTD/svg11.dtd" >
<svg xmlns="http://www.w3.org/2000/svg" xmlns:xlink="http://www.w3.org/1999/xlink" version="1.1" viewBox="-10 0 1556 2048">
   <path fill="currentColor"
d="M1364 256h-1192q-72 0 -122 50t-50 122v1192q0 72 50 122t122 50h1192q72 0 122 -50t50 -122v-1192q0 -72 -50 -122t-122 -50zM172 1620v-168h264q32 100 112 168h-376zM1364 1620h-376q80 -68 112 -168h264v168zM1364 1280h-424v84q0 72 -50 122t-122 50t-122 -50
t-50 -122v-84h-424v-852h1192v852zM428 940h168v256h344v-256h168l-340 -344z" />
</svg>
