<?xml version="1.0" standalone="no"?>
<!DOCTYPE svg PUBLIC "-//W3C//DTD SVG 1.1//EN" "http://www.w3.org/Graphics/SVG/1.1/DTD/svg11.dtd" >
<svg xmlns="http://www.w3.org/2000/svg" xmlns:xlink="http://www.w3.org/1999/xlink" version="1.1" viewBox="-10 0 1076 2048">
   <path fill="currentColor"
d="M695 1436v274q0 18 -13.5 32t-32.5 14h-274q-19 0 -32.5 -14t-13.5 -32v-274q0 -19 13.5 -32.5t32.5 -13.5h274q19 0 32.5 13.5t13.5 32.5zM1056 750q0 45 -9 85t-22 70t-36 59t-41.5 47t-49.5 39.5t-48.5 32t-49.5 27.5q-46 27 -78 75t-32 77q0 19 -13.5 36.5
t-32.5 17.5h-274q-17 0 -29 -21t-12 -43v-50q0 -50 23 -99t59 -88t76 -68.5t80 -48.5q68 -30 96 -63.5t28 -86.5q0 -48 -53 -85t-123 -37q-74 0 -123 34q-44 31 -123 130q-15 20 -35 20q-15 0 -29 -10l-187 -142q-14 -12 -17 -29t6 -33q183 -304 530 -304q73 0 148 22.5
t141 64t118 96.5t82 126.5t30 148.5z" />
</svg>
