<?xml version="1.0" standalone="no"?>
<!DOCTYPE svg PUBLIC "-//W3C//DTD SVG 1.1//EN" "http://www.w3.org/Graphics/SVG/1.1/DTD/svg11.dtd" >
<svg xmlns="http://www.w3.org/2000/svg" xmlns:xlink="http://www.w3.org/1999/xlink" version="1.1" viewBox="-10 0 1556 2048">
   <path fill="currentColor"
d="M768 428v-172h340v172h-340zM340 684h172v340h-172v-340zM340 428q0 -72 50 -122t122 -50h84v172h-84v84h-172v-84zM512 1452q-72 0 -122 -50t-50 -122v-84h172v84h84v172h-84zM1364 256q72 0 122 50t50 122v84h-172v-84h-84v-172h84zM1108 1280v172h-340v-172h340z
M1536 1024h-172v-340h172v340zM1536 1280q0 72 -50 122t-122 50h-84v-172h84v-84h172v84zM84 600h84v1024h1024v84q0 36 -24 60t-56 24h-1028q-36 0 -60 -24t-24 -60v-1024q0 -36 24 -60t60 -24z" />
</svg>
