<?xml version="1.0" standalone="no"?>
<!DOCTYPE svg PUBLIC "-//W3C//DTD SVG 1.1//EN" "http://www.w3.org/Graphics/SVG/1.1/DTD/svg11.dtd" >
<svg xmlns="http://www.w3.org/2000/svg" xmlns:xlink="http://www.w3.org/1999/xlink" version="1.1" viewBox="-10 0 1728 2048">
   <path fill="currentColor"
d="M1364 426v-84q0 -72 -50 -122t-118 -50h-172q-72 0 -122 50t-50 122v84h-168v-84q0 -72 -50 -122t-122 -50h-172q-68 0 -118 50t-50 122v84h-172v1196h860q-8 -44 -8 -88q0 -124 58 -234t160 -182t226 -90t240 26v-628h-172zM1452 1194v256h256v172h-256v256h-172v-256
h-256v-172h256v-256h172z" />
</svg>
