<?xml version="1.0" standalone="no"?>
<!DOCTYPE svg PUBLIC "-//W3C//DTD SVG 1.1//EN" "http://www.w3.org/Graphics/SVG/1.1/DTD/svg11.dtd" >
<svg xmlns="http://www.w3.org/2000/svg" xmlns:xlink="http://www.w3.org/1999/xlink" version="1.1" viewBox="-10 0 1728 2048">
   <path fill="currentColor"
d="M1708 1750h-684v-172h684v172zM852 1662q0 -136 70 -254t188 -188t254 -70q88 0 172 32v-628h-172v-84q0 -72 -50 -122t-118 -50h-172q-72 0 -122 50t-50 122v84h-168v-84q0 -72 -50 -122t-122 -50h-172q-68 0 -118 50t-50 122v84h-172v1196h860q-8 -52 -8 -88z" />
</svg>
