<?xml version="1.0" standalone="no"?>
<!DOCTYPE svg PUBLIC "-//W3C//DTD SVG 1.1//EN" "http://www.w3.org/Graphics/SVG/1.1/DTD/svg11.dtd" >
<svg xmlns="http://www.w3.org/2000/svg" xmlns:xlink="http://www.w3.org/1999/xlink" version="1.1" viewBox="-10 0 1724 2048">
   <path fill="currentColor"
d="M168 512v1196h1196v168h-1280q-40 0 -62 -22t-22 -62v-1280h168zM512 172h1024q68 0 118 50t50 118v1024q0 72 -50 122t-118 50h-1024q-72 0 -122 -50t-50 -122v-1024q0 -68 50 -118t122 -50zM1220 1136l-36 -224l164 -160l-224 -36l-100 -204l-104 204l-220 36l160 152
l-44 224l208 -104z" />
</svg>
