<?xml version="1.0" standalone="no"?>
<!DOCTYPE svg PUBLIC "-//W3C//DTD SVG 1.1//EN" "http://www.w3.org/Graphics/SVG/1.1/DTD/svg11.dtd" >
<svg xmlns="http://www.w3.org/2000/svg" xmlns:xlink="http://www.w3.org/1999/xlink" version="1.1" viewBox="-10 0 1900 2048">
   <path fill="currentColor"
d="M600 1108q104 0 180 76t76 182t-76 180t-182 74t-180 -74t-74 -180t74 -182t182 -76zM600 1280q-36 0 -62 26t-26 60t26 60t60 26t60 -26t26 -60t-26 -60t-58 -26zM748 368l64 64l324 -320q24 -28 60 -28t60 28l604 604q20 20 20 56t-32 60l-316 320l64 64l-576 572
q-80 84 -190 130t-230 46q-164 0 -302 -80t-218 -218t-80 -302q0 -120 46 -230t130 -190zM900 1668l452 -452l-604 -604l-452 452q-60 60 -92 138t-32 162q0 116 58 214t156 156t214 58q84 0 162 -32t138 -92zM1200 400l124 120l-124 120l-120 -120zM1444 640l120 124
l-120 120l-120 -120zM1672 768l-476 -476l-260 264l472 476z" />
</svg>
