<?xml version="1.0" standalone="no"?>
<!DOCTYPE svg PUBLIC "-//W3C//DTD SVG 1.1//EN" "http://www.w3.org/Graphics/SVG/1.1/DTD/svg11.dtd" >
<svg xmlns="http://www.w3.org/2000/svg" xmlns:xlink="http://www.w3.org/1999/xlink" version="1.1" viewBox="-10 0 751 2048">
   <path fill="currentColor"
d="M731 1610v146q0 30 -21.5 51t-51.5 21h-585q-30 0 -51.5 -21t-21.5 -51v-146q0 -31 21.5 -52.5t51.5 -21.5h73v-438h-73q-30 0 -51.5 -22t-21.5 -52v-146q0 -30 21.5 -52t51.5 -22h439q30 0 51.5 22t21.5 52v658h73q30 0 51.5 21.5t21.5 52.5zM585 292v220q0 30 -21.5 52
t-51.5 22h-293q-30 0 -51.5 -22t-21.5 -52v-220q0 -30 21.5 -51t51.5 -21h293q30 0 51.5 21t21.5 51z" />
</svg>
