<?xml version="1.0" standalone="no"?>
<!DOCTYPE svg PUBLIC "-//W3C//DTD SVG 1.1//EN" "http://www.w3.org/Graphics/SVG/1.1/DTD/svg11.dtd" >
<svg xmlns="http://www.w3.org/2000/svg" xmlns:xlink="http://www.w3.org/1999/xlink" version="1.1" viewBox="-10 0 1900 2048">
   <path fill="currentColor"
d="M1452 1580q52 0 90 -38t38 -92t-38 -90t-90 -36t-90 36t-38 90t38 92t90 38zM1580 812h-212v212h380zM428 1580q52 0 90 -38t38 -92t-38 -90t-90 -36t-90 36t-38 90t38 92t90 38zM1624 684l256 340v428h-172q0 104 -74 180t-182 76t-182 -76t-74 -180h-512q0 104 -74 180
t-182 76t-182 -76t-74 -180h-172v-940q0 -72 50 -122t122 -50h1196v344h256zM172 512v768h64q76 -84 192 -84t192 84h576v-768h-1024z" />
</svg>
