<?xml version="1.0" standalone="no"?>
<!DOCTYPE svg PUBLIC "-//W3C//DTD SVG 1.1//EN" "http://www.w3.org/Graphics/SVG/1.1/DTD/svg11.dtd" >
<svg xmlns="http://www.w3.org/2000/svg" xmlns:xlink="http://www.w3.org/1999/xlink" version="1.1" viewBox="-10 0 1212 2048">
   <path fill="currentColor"
d="M168 596q-68 0 -118 50t-50 122v512q0 72 50 122t118 50h172q72 0 122 -50t50 -122v-512q0 -72 -50 -122t-122 -50h-172zM168 768h172v512h-172v-512zM1072 1452l-176 -180l-180 180l-120 -120l180 -180l-180 -180l120 -120l180 180l176 -180l120 120l-176 180l176 180z
" />
</svg>
