<?xml version="1.0" standalone="no"?>
<!DOCTYPE svg PUBLIC "-//W3C//DTD SVG 1.1//EN" "http://www.w3.org/Graphics/SVG/1.1/DTD/svg11.dtd" >
<svg xmlns="http://www.w3.org/2000/svg" xmlns:xlink="http://www.w3.org/1999/xlink" version="1.1" viewBox="-10 0 1724 2048">
   <path fill="currentColor"
d="M1536 1364h168v172h-168q-172 0 -344 -84q-160 80 -340 80t-340 -80q-172 84 -344 84h-168v-172h168q176 0 344 -108q152 108 340 108t340 -108q168 108 344 108zM936 904q100 -48 172 -60v28q32 104 16 244q-120 72 -256 72q68 -140 68 -284zM928 308q-180 52 -308 180
q-48 -128 -48 -256q140 -64 292 -60t296 76q52 16 68 32q-156 -12 -300 28zM408 1136q-76 36 -152 52q-88 -160 -88 -352q68 136 172 240q12 8 34 30t34 30zM1448 1188q-64 -12 -144 -44q24 -144 -16 -308q148 12 256 84q-12 124 -76 240zM460 956q-144 -132 -188 -368
l-8 -76q60 -100 144 -172q12 180 120 324q96 156 240 232q0 92 -44 204q-140 -36 -264 -144zM980 468q96 -24 200 -20t200 40l68 32q36 60 68 196q-156 -68 -332 -58t-332 94q-72 -32 -144 -120l8 -8q136 -124 264 -156zM1192 1596q168 112 344 112h168v168h-168
q-172 0 -344 -84q-160 84 -340 84t-340 -84q-172 84 -344 84h-168v-168h168q176 0 344 -112q152 108 340 108t340 -108z" />
</svg>
