<?xml version="1.0" standalone="no"?>
<!DOCTYPE svg PUBLIC "-//W3C//DTD SVG 1.1//EN" "http://www.w3.org/Graphics/SVG/1.1/DTD/svg11.dtd" >
<svg xmlns="http://www.w3.org/2000/svg" xmlns:xlink="http://www.w3.org/1999/xlink" version="1.1" viewBox="-10 0 1812 2048">
   <path fill="currentColor"
d="M852 1708h-684v-1196h684v1196zM908 340h-140v-168h-512v168h-144q-48 0 -80 34t-32 82v1308q0 48 32 80t80 32h796q48 0 82 -32t34 -80v-1308q0 -48 -34 -82t-82 -34zM768 1364h-512v256h512v-256zM768 980h-512v256h512v-256zM1792 852h-256v-596l-428 852h256v684z
" />
</svg>
