<?xml version="1.0" standalone="no"?>
<!DOCTYPE svg PUBLIC "-//W3C//DTD SVG 1.1//EN" "http://www.w3.org/Graphics/SVG/1.1/DTD/svg11.dtd" >
<svg xmlns="http://www.w3.org/2000/svg" xmlns:xlink="http://www.w3.org/1999/xlink" version="1.1" viewBox="-11 0 529 2048">
   <path fill="currentColor"
d="M473 1500v256q0 30 -21.5 51t-51.5 21h-293q-30 0 -51.5 -21t-21.5 -51v-256q0 -30 21.5 -52t51.5 -22h293q30 0 51.5 22t21.5 52zM507 292l-32 878q-1 30 -23 52t-52 22h-293q-30 0 -52 -22t-23 -52l-32 -878q-1 -30 20 -51t51 -21h366q30 0 50.5 21t19.5 51z" />
</svg>
