<?xml version="1.0" standalone="no"?>
<!DOCTYPE svg PUBLIC "-//W3C//DTD SVG 1.1//EN" "http://www.w3.org/Graphics/SVG/1.1/DTD/svg11.dtd" >
<svg xmlns="http://www.w3.org/2000/svg" xmlns:xlink="http://www.w3.org/1999/xlink" version="1.1" viewBox="-10 0 1900 2048">
   <path fill="currentColor"
d="M0 596h512v172h-340v172h340v168h-340v172h340v172h-512v-856zM856 596h340v172h-340v172h168q72 0 122 50t50 118v172q0 72 -50 122t-122 50h-340v-172h340v-172h-168q-72 0 -122 -50t-50 -118v-172q0 -72 50 -122t122 -50zM1536 596h172q72 0 122 50t50 122v84h-172
v-84h-172v512h172v-84h172v84q0 72 -50 122t-122 50h-172q-68 0 -118 -50t-50 -122v-512q0 -72 50 -122t118 -50z" />
</svg>
