<?xml version="1.0" standalone="no"?>
<!DOCTYPE svg PUBLIC "-//W3C//DTD SVG 1.1//EN" "http://www.w3.org/Graphics/SVG/1.1/DTD/svg11.dtd" >
<svg xmlns="http://www.w3.org/2000/svg" xmlns:xlink="http://www.w3.org/1999/xlink" version="1.1" viewBox="-10 0 1212 2048">
   <path fill="currentColor"
d="M0 596h512v172h-344v172h256v168h-256v344h-168v-856zM852 1108v172h172v-172h-172zM852 768v172h172v-172h-172zM852 1452q-72 0 -122 -50t-50 -122v-128q0 -52 38 -90t90 -38q-52 0 -90 -38t-38 -90v-128q0 -72 50 -122t122 -50h172q68 0 118 50t50 122v128
q0 52 -36 90t-92 38q56 0 92 38t36 90v128q0 72 -50 122t-118 50h-172z" />
</svg>
