<?xml version="1.0" standalone="no"?>
<!DOCTYPE svg PUBLIC "-//W3C//DTD SVG 1.1//EN" "http://www.w3.org/Graphics/SVG/1.1/DTD/svg11.dtd" >
<svg xmlns="http://www.w3.org/2000/svg" xmlns:xlink="http://www.w3.org/1999/xlink" version="1.1" viewBox="-11 0 1898 2048">
   <path fill="currentColor"
d="M1110 896v-152q128 -8 232 -24l36 148q-64 92 -36 204l24 84l352 352q140 -36 156 -228q12 -136 -36 -328q-12 -52 -46 -96t-82 -72l-36 -144q64 -20 116 -44v-188q-140 76 -344 120q-236 52 -508 52q-56 0 -156 -4zM1682 1388q-76 20 -156 -160q-36 -92 -60 -184l-4 -32
q0 -40 20 -68q24 -40 80 -56q76 -16 124 36q20 28 28 60l20 96q16 112 12 188q-8 104 -64 120zM1190 1200l-124 -124l-336 -332h4l-616 -616l-108 108l236 240q-96 -36 -160 -68v188q52 24 116 44l-36 144q-48 28 -82 72t-46 96q-48 196 -36 328q16 196 160 232
q96 24 180 -48q120 -104 192 -392q28 -112 -36 -204l28 -116l200 200q-44 64 -44 136q0 200 44 328q64 184 212 184q64 0 116 -40q68 -52 104 -172l536 532l108 -108zM410 1044q-16 48 -28 96q-36 108 -76 172q-56 88 -112 76q-76 -20 -64 -216q8 -96 32 -188l12 -32
q20 -36 48 -52q40 -24 92 -12q80 20 96 88q8 36 0 68zM938 1472q-56 0 -92 -100q-20 -68 -32 -184l-4 -100v-12q4 -16 8 -28l232 228q-32 196 -112 196z" />
</svg>
