<?xml version="1.0" standalone="no"?>
<!DOCTYPE svg PUBLIC "-//W3C//DTD SVG 1.1//EN" "http://www.w3.org/Graphics/SVG/1.1/DTD/svg11.dtd" >
<svg xmlns="http://www.w3.org/2000/svg" xmlns:xlink="http://www.w3.org/1999/xlink" version="1.1" viewBox="-10 0 1724 2048">
   <path fill="currentColor"
d="M1536 852v-256l-256 -256h-856l-256 256v256q-68 0 -118 50t-50 122t50 122t118 50v340q0 72 50 122t122 50h1024q72 0 122 -50t50 -122v-340q68 0 118 -50t50 -122t-50 -122t-118 -50zM852 1364q-140 0 -240 -100t-100 -240t100 -240t240 -100t240 100t100 240t-100 240
t-240 100zM1024 1024q0 72 -50 122t-122 50t-122 -50t-50 -122t50 -122t122 -50t122 50t50 122z" />
</svg>
