<?xml version="1.0" standalone="no"?>
<!DOCTYPE svg PUBLIC "-//W3C//DTD SVG 1.1//EN" "http://www.w3.org/Graphics/SVG/1.1/DTD/svg11.dtd" >
<svg xmlns="http://www.w3.org/2000/svg" xmlns:xlink="http://www.w3.org/1999/xlink" version="1.1" viewBox="-11 0 1898 2048">
   <path fill="currentColor"
d="M1838 972q-12 -52 -46 -96t-82 -72l-36 -144q64 -20 116 -44v-188q-140 76 -344 120q-236 52 -508 52t-508 -52q-204 -44 -344 -120v188q52 24 116 44l-36 144q-48 28 -82 72t-46 96q-48 196 -36 328q16 196 160 232q96 24 180 -48q120 -104 192 -392q28 -112 -36 -204
l36 -148q104 16 232 24v152q-40 36 -62 88t-22 104q0 200 44 328q64 184 212 184q100 0 164 -88q92 -128 92 -424q0 -52 -22 -104t-62 -88v-152q128 -8 232 -24l36 148q-64 92 -36 204q72 288 192 392q84 72 180 48q140 -36 160 -232q12 -132 -36 -328zM410 1064
q-16 48 -28 96q-36 108 -76 172q-56 88 -112 76q-76 -20 -64 -216q8 -96 32 -188l12 -32q20 -36 48 -52q40 -24 92 -12q80 20 96 88q8 36 0 68zM938 1492q-56 0 -92 -100q-20 -68 -32 -184l-4 -100l4 -32q12 -36 32 -60q36 -36 92 -36t92 36q20 24 32 60l4 32l-4 100
q-12 116 -32 184q-36 100 -92 100zM1682 1408q-76 20 -156 -160q-36 -92 -60 -184l-4 -32q0 -40 20 -68q24 -40 80 -56q76 -16 124 36q20 28 28 60l20 96q16 112 12 188q-8 104 -64 120z" />
</svg>
