<?xml version="1.0" standalone="no"?>
<!DOCTYPE svg PUBLIC "-//W3C//DTD SVG 1.1//EN" "http://www.w3.org/Graphics/SVG/1.1/DTD/svg11.dtd" >
<svg xmlns="http://www.w3.org/2000/svg" xmlns:xlink="http://www.w3.org/1999/xlink" version="1.1" viewBox="-10 0 1812 2048">
   <path fill="currentColor"
d="M1684 1920l-236 -232h-108q16 -44 16 -88v-8l-192 -192q-28 32 -64 32h-344q-32 0 -58 -26t-26 -62v-168q-100 -76 -142 -192t-18 -236l-140 -136q-40 112 -40 226t44 222t124 188v184h-168q-36 0 -62 -26t-26 -62v-132q-72 -40 -116 -112t-52 -156q-12 -128 66 -230
t206 -130l-348 -348l108 -108l1684 1684zM1184 492q-112 -84 -250 -84t-250 80l592 592q64 -92 76 -204t-32 -214t-136 -170zM1592 1396q20 -24 20 -52v-132q120 -72 158 -208t-34 -256q-44 -72 -114 -118t-154 -54q56 124 56 256q0 208 -128 368zM756 1600q0 36 26 62
t62 26h168q36 0 62 -26t26 -62v-84h-344v84zM500 1516h-168v84q0 36 24 62t60 26h100q-16 -44 -16 -88v-84z" />
</svg>
