<?xml version="1.0" standalone="no"?>
<!DOCTYPE svg PUBLIC "-//W3C//DTD SVG 1.1//EN" "http://www.w3.org/Graphics/SVG/1.1/DTD/svg11.dtd" >
<svg xmlns="http://www.w3.org/2000/svg" xmlns:xlink="http://www.w3.org/1999/xlink" version="1.1" viewBox="-10 0 1769 2048">
   <path fill="currentColor"
d="M1019 1200v190h-283l-182 -288l-27 -48q-10 -11 -13 -24h-3q-1 5 -5.5 13t-5.5 11q-11 23 -28 50l-177 286h-295v-190h146l225 -332l-211 -312h-157v-192h316l158 260q10 16 27 48q8 10 12 24h4q3 -12 12 -24l29 -48l160 -260h294v192h-143l-211 306l234 338h124z
M1749 1448v236h-587l-5 -32q-3 -51 -3 -52q0 -74 29.5 -134.5t74 -98.5t96.5 -74t96.5 -62.5t74 -61.5t29.5 -73q0 -44 -33.5 -72t-80.5 -28q-58 0 -111 44q-12 10 -41 44l-120 -104q32 -45 72 -76q91 -74 215 -74q125 0 203 67.5t78 180.5q0 56 -21 103t-55 80t-75 61.5
t-82.5 53t-76.5 48t-59 53t-27 63.5h265v-92h144z" />
</svg>
