<?xml version="1.0" standalone="no"?>
<!DOCTYPE svg PUBLIC "-//W3C//DTD SVG 1.1//EN" "http://www.w3.org/Graphics/SVG/1.1/DTD/svg11.dtd" >
<svg xmlns="http://www.w3.org/2000/svg" xmlns:xlink="http://www.w3.org/1999/xlink" version="1.1" viewBox="-10 0 1724 2048">
   <path fill="currentColor"
d="M512 1480q0 76 -50 130t-122 54t-122 -54t-50 -130t88 -212q40 -64 84 -116l44 56q52 72 84 132q44 84 44 140zM1232 980v-124l172 -96l200 52l44 -164l-152 -40l40 -152l-168 -44l-52 200l-168 96l-212 -124v-192l148 -144l-120 -120l-112 108l-112 -108l-120 120
l148 144v192l-216 124l-168 -96l-52 -200l-164 44l40 152l-148 40l44 164l196 -52l172 96v124h-472v84h1704v-84h-472zM640 980v-124l212 -124l212 124v124h-424zM1536 1480q0 76 -50 130t-122 54t-122 -54t-50 -130t88 -212q40 -64 84 -116l44 56q52 72 84 132
q44 84 44 140zM1024 1736q0 76 -50 130t-122 54t-122 -54t-50 -130t88 -212q40 -64 84 -116l44 56q52 72 84 132q44 84 44 140z" />
</svg>
