<?xml version="1.0" standalone="no"?>
<!DOCTYPE svg PUBLIC "-//W3C//DTD SVG 1.1//EN" "http://www.w3.org/Graphics/SVG/1.1/DTD/svg11.dtd" >
<svg xmlns="http://www.w3.org/2000/svg" xmlns:xlink="http://www.w3.org/1999/xlink" version="1.1" viewBox="-10 0 1900 2048">
   <path fill="currentColor"
d="M1708 172h-1536q-72 0 -122 50t-50 118v1024q0 72 50 122t122 50h596v172h-168v168h680v-168h-168v-172h596q72 0 122 -50t50 -122v-1024q0 -68 -50 -118t-122 -50zM1708 1364h-1536v-1024h1536v1024zM1268 700l-88 84l-176 -172l88 -88q12 -12 32 -12t32 12l112 108
q12 12 12 32t-12 36zM600 1016l356 -356l176 176l-356 360h-176v-180z" />
</svg>
