<?xml version="1.0" standalone="no"?>
<!DOCTYPE svg PUBLIC "-//W3C//DTD SVG 1.1//EN" "http://www.w3.org/Graphics/SVG/1.1/DTD/svg11.dtd" >
<svg xmlns="http://www.w3.org/2000/svg" xmlns:xlink="http://www.w3.org/1999/xlink" version="1.1" viewBox="-10 0 1812 2048">
   <path fill="currentColor"
d="M1792 1812l-1684 -1684l-108 108l348 348q-128 28 -206 130t-66 230q8 84 52 156t116 112v132q0 36 26 62t62 26h168v-184q-80 -80 -124 -188t-44 -222t40 -226l140 136q-24 120 18 236t142 192v168q0 36 26 62t58 26h344q36 0 64 -32l192 192v8q0 44 -16 88h108l236 232
zM692 928l140 140q-100 -40 -140 -140zM1012 1260h-168v-180l168 172v8zM804 608l-120 -120q112 -80 250 -80t250 84q80 60 126 150t46 190q0 136 -80 248l-124 -124q32 -60 32 -124q0 -104 -74 -180t-182 -76q-64 0 -124 32zM1396 1200q128 -160 128 -368q0 -132 -56 -256
q84 8 154 54t114 118q72 120 34 256t-158 208v132q0 28 -20 52zM756 1516h344v84q0 36 -26 62t-62 26h-168q-36 0 -62 -26t-26 -62v-84zM500 1600q0 44 16 88h-100q-36 0 -60 -26t-24 -62v-84h168v84z" />
</svg>
