<?xml version="1.0" standalone="no"?>
<!DOCTYPE svg PUBLIC "-//W3C//DTD SVG 1.1//EN" "http://www.w3.org/Graphics/SVG/1.1/DTD/svg11.dtd" >
<svg xmlns="http://www.w3.org/2000/svg" xmlns:xlink="http://www.w3.org/1999/xlink" version="1.1" viewBox="-10 0 1812 2048">
   <path fill="currentColor"
d="M1792 1812l-1684 -1684l-108 108l256 260q-28 132 28 256q44 100 132 168v168q0 36 26 62t58 26h28q-28 -84 -28 -172q0 -112 44 -220l136 136q-8 52 -8 84q0 100 46 190t126 150v172q0 36 24 60t60 24h340q40 0 64 -28l352 348zM864 1100l140 140q-100 -40 -140 -140z
M1184 1432h-172v-180l172 168v12zM732 536l-304 -304q36 -28 72 -44q108 -48 222 -34t206 80t136 174q-188 12 -332 128zM852 656q112 -80 248 -80q100 0 190 46t150 126q84 112 84 250t-80 250l-120 -124l16 -36q36 -100 -10 -196t-150 -132t-204 20zM560 1260
q40 84 112 160v12h-84q-36 0 -62 -26t-26 -62v-84h60zM928 1688h340v84q0 36 -24 60t-60 24h-172q-32 0 -58 -24t-26 -60v-84z" />
</svg>
