<?xml version="1.0" standalone="no"?>
<!DOCTYPE svg PUBLIC "-//W3C//DTD SVG 1.1//EN" "http://www.w3.org/Graphics/SVG/1.1/DTD/svg11.dtd" >
<svg xmlns="http://www.w3.org/2000/svg" xmlns:xlink="http://www.w3.org/1999/xlink" version="1.1" viewBox="-10 0 1812 2048">
   <path fill="currentColor"
d="M1196 980q-88 0 -150 -62t-62 -150t62 -150t150 -62t150 62t62 150t-62 150t-150 62zM600 768q0 152 92 364q76 164 204 360q96 136 208 276l92 108l92 -108q112 -140 208 -276q128 -196 204 -360q92 -212 92 -370t-80 -294t-216 -216t-300 -80t-300 80t-216 216t-80 300
zM428 596l-428 428l428 428v-856z" />
</svg>
