<?xml version="1.0" standalone="no"?>
<!DOCTYPE svg PUBLIC "-//W3C//DTD SVG 1.1//EN" "http://www.w3.org/Graphics/SVG/1.1/DTD/svg11.dtd" >
<svg xmlns="http://www.w3.org/2000/svg" xmlns:xlink="http://www.w3.org/1999/xlink" version="1.1" viewBox="-10 0 1812 2048">
   <path fill="currentColor"
d="M1684 1920l-488 -488q-272 256 -608 256q-44 0 -116 -28l-80 196l-164 -56l24 -52q108 -272 184 -408q124 -228 292 -376l-76 -76q-304 208 -428 564l-40 -44q-44 -56 -72 -116q-36 -84 -36 -160q0 -112 76 -244q88 -156 240 -260l-392 -392l108 -108l1684 1684z
M1356 664q-204 44 -368 128l408 408q180 -264 300 -640q60 -188 84 -324q-40 80 -256 136q-132 32 -464 80q-244 36 -356 56l236 236q144 -52 292 -72q76 -8 124 -8z" />
</svg>
