<?xml version="1.0" standalone="no"?>
<!DOCTYPE svg PUBLIC "-//W3C//DTD SVG 1.1//EN" "http://www.w3.org/Graphics/SVG/1.1/DTD/svg11.dtd" >
<svg xmlns="http://www.w3.org/2000/svg" xmlns:xlink="http://www.w3.org/1999/xlink" version="1.1" viewBox="-10 0 1922 2048">
   <path fill="currentColor"
d="M1902 1380q0 93 -51 154.5t-141 61.5q-38 0 -72 -13t-59 -31.5t-49.5 -37t-55.5 -31.5t-66 -13q-126 0 -126 141q0 44 18.5 131.5t17.5 131.5v6q-25 0 -38 1q-40 4 -111.5 13t-131 15t-112.5 6q-70 0 -118 -30t-48 -95q0 -42 20 -81t43.5 -65t43.5 -68t20 -88
q0 -90 -61.5 -141t-154.5 -51q-96 0 -163.5 52.5t-67.5 145.5q0 49 17.5 94.5t38 73.5t38 60t17.5 58q0 51 -53 102q-42 40 -134 40q-113 0 -280 -27q-11 -1 -31.5 -4t-30.5 -5l-15 -3q-1 0 -3 -1q-3 0 -3 -1v-1170q2 1 20 4t39 5.5t24 3.5q174 28 280 28q92 0 134 -40
q53 -51 53 -102q0 -26 -17.5 -58t-38 -60.5t-38 -74t-17.5 -94.5q0 -93 67.5 -145t164.5 -52q92 0 153.5 51t61.5 141q0 46 -20 87.5t-43.5 67.5t-43.5 65t-20 81q0 65 48.5 95.5t117.5 30.5q72 0 205.5 -17t186.5 -20v3q-1 2 -4 20t-6 39t-4 24q-28 174 -28 280
q0 92 40 134q50 52 102 52q26 0 58 -17t60.5 -38t74 -38t94.5 -17q94 0 146 67t52 163z" />
</svg>
