<?xml version="1.0" standalone="no"?>
<!DOCTYPE svg PUBLIC "-//W3C//DTD SVG 1.1//EN" "http://www.w3.org/Graphics/SVG/1.1/DTD/svg11.dtd" >
<svg xmlns="http://www.w3.org/2000/svg" xmlns:xlink="http://www.w3.org/1999/xlink" version="1.1" viewBox="-10 0 1812 2048">
   <path fill="currentColor"
d="M168 128q-68 0 -118 50t-50 118v1368q0 68 50 118t118 50h720q140 88 304 88t300 -82t218 -218t82 -300q0 -196 -120 -354t-308 -218v-108l-512 -512h-684zM768 256l468 468h-468v-468zM1192 896q116 0 214 56t156 154t58 214t-58 214t-156 156t-214 58t-214 -58
t-154 -156t-56 -214t56 -214t154 -154t214 -56zM1108 980v428l308 184l64 -104l-244 -144v-364h-128z" />
</svg>
