<?xml version="1.0" standalone="no"?>
<!DOCTYPE svg PUBLIC "-//W3C//DTD SVG 1.1//EN" "http://www.w3.org/Graphics/SVG/1.1/DTD/svg11.dtd" >
<svg xmlns="http://www.w3.org/2000/svg" xmlns:xlink="http://www.w3.org/1999/xlink" version="1.1" viewBox="-10 0 1724 2048">
   <path fill="currentColor"
d="M680 256q-140 0 -240 100t-100 242t100 242t242 100t242 -100t100 -242t-100 -242t-244 -100zM680 428q72 0 122 50t50 120t-50 120t-120 50t-120 -50t-50 -120t50 -120t118 -50zM680 1024q-124 0 -276 40q-172 44 -280 112q-124 84 -124 192v256h808q-32 -80 -40 -164
h-608v-92q0 -28 80 -72t192 -76q132 -32 248 -32q60 0 128 12q36 -84 92 -148q-124 -28 -220 -28zM1320 1024q-160 0 -272 112t-112 272t112 272t272 112t272 -112t112 -272t-112 -272t-272 -112zM1320 1152q108 0 182 76t74 180q0 72 -36 128l-348 -348q56 -36 128 -36z
M1100 1280l348 348q-56 36 -128 36q-104 0 -180 -74t-76 -182q0 -72 36 -128z" />
</svg>
