<?xml version="1.0" standalone="no"?>
<!DOCTYPE svg PUBLIC "-//W3C//DTD SVG 1.1//EN" "http://www.w3.org/Graphics/SVG/1.1/DTD/svg11.dtd" >
<svg xmlns="http://www.w3.org/2000/svg" xmlns:xlink="http://www.w3.org/1999/xlink" version="1.1" viewBox="-10 0 1728 2048">
   <path fill="currentColor"
d="M1288 280q-56 0 -102 32t-62 88l-68 216q-48 0 -92 20l-156 -168l-112 -124q-52 44 -56 116t44 124l156 168q-12 20 -18 42t-10 46l-392 88q16 68 76 106t128 22l224 -48q24 40 64 68l-120 380q68 20 130 -12t82 -100l72 -216q48 0 92 -20l268 292q52 -48 54 -118
t-46 -122l-152 -168q12 -20 18 -42t10 -46l388 -88q-16 -68 -74 -106t-130 -22l-220 48q-28 -40 -64 -68l120 -380q-24 -8 -52 -8zM1072 744q16 0 32 4q52 16 76 64t8 98t-64 74t-98 10t-74 -62t-8 -100q12 -40 48 -64t76 -24h4zM512 1144q-164 112 -344 112h-168v172h168
q176 0 344 -88q92 52 204 72l52 -168q-136 -16 -256 -100zM1572 1256q8 96 -44 172h176v-172h-132zM512 1484q-164 112 -344 112h-168v172h168q176 0 344 -84q160 80 340 80t340 -80q168 84 344 84h168v-172h-168q-180 0 -344 -112q-156 108 -340 108t-340 -108z" />
</svg>
