<?xml version="1.0" standalone="no"?>
<!DOCTYPE svg PUBLIC "-//W3C//DTD SVG 1.1//EN" "http://www.w3.org/Graphics/SVG/1.1/DTD/svg11.dtd" >
<svg xmlns="http://www.w3.org/2000/svg" xmlns:xlink="http://www.w3.org/1999/xlink" version="1.1" viewBox="-10 0 1556 2048">
   <path fill="currentColor"
d="M1240 982q-124 0 -212 88t-88 212q0 96 76 240q56 104 144 220l80 92l76 -92q88 -116 144 -220q76 -144 76 -240q0 -124 -88 -212t-208 -88zM1240 1390q-44 0 -74 -30t-30 -72t32 -72t70 -30t70 32t36 70t-28 70t-76 32zM0 982v-256q0 92 92 170t250 124t342 46
q72 0 144 -8q-60 108 -60 224q0 24 4 36q-28 4 -88 4q-184 0 -342 -46t-250 -124t-92 -170zM0 554q0 -92 92 -170t250 -124t342 -46t342 46t250 124t92 172t-92 172t-250 124t-342 46t-342 -46t-250 -124t-92 -174zM940 1726q-120 24 -256 24q-184 0 -342 -46t-250 -124
t-92 -170v-256q0 92 92 170t250 124t342 46q56 0 128 -4q48 116 128 236z" />
</svg>
