<?xml version="1.0" standalone="no"?>
<!DOCTYPE svg PUBLIC "-//W3C//DTD SVG 1.1//EN" "http://www.w3.org/Graphics/SVG/1.1/DTD/svg11.dtd" >
<svg xmlns="http://www.w3.org/2000/svg" xmlns:xlink="http://www.w3.org/1999/xlink" version="1.1" viewBox="-10 0 1556 2048">
   <path fill="currentColor"
d="M1536 380v512q0 44 -30 82t-74 46v452q0 68 -24 132q-36 84 -100 132q-80 60 -200 60h-128q64 -64 88 -128h40q116 0 164 -84q24 -48 24 -104v-460q-44 -8 -72 -42t-28 -86v-512q0 -52 38 -90t90 -38h84q52 0 90 38t38 90zM1008 1548q0 100 -70 170t-170 70h-340
q-120 0 -200 -60q-64 -48 -100 -132q-24 -64 -24 -132v-444q-44 -8 -74 -46t-30 -82v-512q0 -52 38 -90t90 -38h84q52 0 90 38t38 90v512q0 44 -28 82t-72 46v452q0 60 24 108q48 80 164 80h136q-28 -52 -28 -104v-852q0 -96 70 -168t172 -72t166 68t64 172v844zM872 696
q0 -40 -30 -72t-74 -32t-74 32t-30 72v852q0 44 32 74t72 30t72 -32t32 -72v-852z" />
</svg>
