<?xml version="1.0" standalone="no"?>
<!DOCTYPE svg PUBLIC "-//W3C//DTD SVG 1.1//EN" "http://www.w3.org/Graphics/SVG/1.1/DTD/svg11.dtd" >
<svg xmlns="http://www.w3.org/2000/svg" xmlns:xlink="http://www.w3.org/1999/xlink" version="1.1" viewBox="-10 0 1388 2048">
   <path fill="currentColor"
d="M684 296q140 0 240 100t100 244q0 124 -108 328q-92 168 -232 344q-144 -188 -232 -348q-108 -204 -108 -324q0 -144 100 -244t240 -100zM684 128q-140 0 -256 68t-186 186t-70 258q0 240 256 612q128 188 256 324l80 -92q96 -116 176 -236q112 -164 176 -304
q80 -176 80 -304q0 -140 -70 -258t-186 -186t-256 -68zM684 468q-72 0 -122 50t-50 120t50 120t122 50t122 -50t50 -120t-50 -120t-122 -50zM1368 1576q0 92 -92 172t-250 126t-342 46t-342 -46t-250 -126t-92 -172q0 -80 70 -150t194 -122l52 76q-144 72 -144 156
q0 56 68 106t186 78t258 28t258 -28t186 -78t68 -106q0 -84 -152 -156l48 -76q132 52 204 122t72 150z" />
</svg>
