<?xml version="1.0" standalone="no"?>
<!DOCTYPE svg PUBLIC "-//W3C//DTD SVG 1.1//EN" "http://www.w3.org/Graphics/SVG/1.1/DTD/svg11.dtd" >
<svg xmlns="http://www.w3.org/2000/svg" xmlns:xlink="http://www.w3.org/1999/xlink" version="1.1" viewBox="-10 0 1792 2048">
   <path fill="currentColor"
d="M1244 1212l-120 120l204 204l-204 204l120 120l204 -204l208 204l116 -120l-204 -204l204 -204l-116 -120l-208 204zM596 556q88 0 150 62t62 150t-62 150t-150 62t-150 -62t-62 -150t62 -150t150 -62zM596 172q164 0 300 80t216 216t80 300q0 196 -152 484
q-112 208 -288 436q-88 116 -156 188l-92 -108q-112 -140 -208 -280q-128 -192 -204 -360q-92 -208 -92 -360q0 -164 80 -300t216 -216t300 -80zM596 340q-116 0 -214 58t-156 156t-58 214q0 68 16 124q28 108 112 252q104 192 300 452q196 -260 300 -452q84 -144 112 -252
q16 -56 16 -124q0 -116 -58 -214t-156 -156t-214 -58z" />
</svg>
