<?xml version="1.0" standalone="no"?>
<!DOCTYPE svg PUBLIC "-//W3C//DTD SVG 1.1//EN" "http://www.w3.org/Graphics/SVG/1.1/DTD/svg11.dtd" >
<svg xmlns="http://www.w3.org/2000/svg" xmlns:xlink="http://www.w3.org/1999/xlink" version="1.1" viewBox="-10 0 1718 2048">
   <path fill="currentColor"
d="M1690 1763q-16 -24 -40 -28q-32 -8 -56 12q-48 40 -102 56t-122 4l-92 -24l-92 -528l-276 -224l148 -244q76 116 202 188t270 72v-172q-120 0 -214 -64t-134 -168l-48 -104q-16 -24 -50 -56t-90 -32h-484l-216 340l148 92l160 -264h200l-212 340q-40 56 -24 132l72 292
l-300 200l-40 -8q-60 -12 -108 -50t-68 -90q-16 -32 -46 -38t-50 10t-24 38t0 42q40 80 108 136t160 76l1076 232q96 20 180 -4t152 -84q16 -12 20 -32q0 -36 -8 -48zM570 1635l260 -172l-40 -284l244 172l64 396zM1358 279q0 72 -50 122t-120 50t-120 -50t-50 -122t50 -122
t120 -50t120 50t50 122z" />
</svg>
