<?xml version="1.0" standalone="no"?>
<!DOCTYPE svg PUBLIC "-//W3C//DTD SVG 1.1//EN" "http://www.w3.org/Graphics/SVG/1.1/DTD/svg11.dtd" >
<svg xmlns="http://www.w3.org/2000/svg" xmlns:xlink="http://www.w3.org/1999/xlink" version="1.1" viewBox="-10 0 1556 2048">
   <path fill="currentColor"
d="M768 172q-20 12 -40 28q-48 40 -88 88q-56 64 -88 136q-40 84 -40 168t24 172q12 56 52 160q48 128 64 200q32 120 32 240h-88v-48q-8 -64 -24 -128q-24 -88 -60 -164q-60 -120 -152 -168q-80 -40 -164 -14t-140 100t-56 164t28 150q20 48 56 76q28 20 60 28l28 4
q0 -88 44 -140t104 -52t104 52t44 140h-128v172h300l-128 172l24 16q32 20 64 20q44 0 84 -36l84 168l84 -168q40 36 84 36q32 0 64 -20l24 -16l-128 -172h300v-172h-128q0 -88 44 -140t104 -52t104 52t44 140l28 -4q32 -8 60 -28q36 -28 56 -76q28 -60 28 -150t-56 -164
t-140 -100t-164 14q-92 48 -152 168q-52 108 -76 236q-8 64 -8 104h-88q0 -120 32 -240q16 -72 64 -200q40 -104 52 -160q24 -88 24 -168q0 -160 -128 -308q-64 -76 -128 -116z" />
</svg>
