<?xml version="1.0" standalone="no"?>
<!DOCTYPE svg PUBLIC "-//W3C//DTD SVG 1.1//EN" "http://www.w3.org/Graphics/SVG/1.1/DTD/svg11.dtd" >
<svg xmlns="http://www.w3.org/2000/svg" xmlns:xlink="http://www.w3.org/1999/xlink" version="1.1" viewBox="-10 0 1899 2048">
   <path fill="currentColor"
d="M704 524l-148 -144q60 -28 128 -28q140 0 240 100t100 244q0 64 -24 128l-144 -148q-8 -60 -52 -102t-100 -50zM1628 1292q164 -164 222 -378t0 -430t-222 -388l-140 140q116 128 158 290t0 328t-158 298zM1344 1004q132 -128 132 -304t-132 -316l-144 144q56 76 56 166
t-56 166zM120 160l-108 108l344 344q-12 48 -12 84q0 140 100 240t240 100q36 0 84 -12l244 248l-28 64q92 28 164 68l56 60v264h-360l-76 -432l80 -160q-88 -12 -164 -12t-164 12l80 160l-76 432h-360v-264q0 -28 64 -64t156 -64l-72 -148q-136 44 -216 108q-96 76 -96 168
v424h1368v-264l328 328l108 -108z" />
</svg>
