<?xml version="1.0" standalone="no"?>
<!DOCTYPE svg PUBLIC "-//W3C//DTD SVG 1.1//EN" "http://www.w3.org/Graphics/SVG/1.1/DTD/svg11.dtd" >
<svg xmlns="http://www.w3.org/2000/svg" xmlns:xlink="http://www.w3.org/1999/xlink" version="1.1" viewBox="-10 0 1899 2048">
   <path fill="currentColor"
d="M1344 416q132 140 132 316t-132 304l-144 -144q56 -76 56 -166t-56 -166zM1628 128q164 172 222 388t0 430t-222 378l-140 -140q116 -132 158 -298t0 -328t-158 -290zM1056 1220q136 44 216 108q96 76 96 168v424h-1368v-424q0 -92 96 -168q80 -64 216 -108l72 148
q-92 28 -156 64t-64 64v264h360l76 -432l-80 -160q88 -12 164 -12t164 12l-80 160l76 432h360v-264q0 -28 -64 -64t-156 -64l20 -44zM684 556q-72 0 -122 50t-50 120t50 120t122 50t122 -50t50 -120t-50 -120t-122 -50zM684 1068q-140 0 -240 -100t-100 -242t100 -242
t240 -100t240 100t100 242t-100 242t-240 100z" />
</svg>
