<?xml version="1.0" standalone="no"?>
<!DOCTYPE svg PUBLIC "-//W3C//DTD SVG 1.1//EN" "http://www.w3.org/Graphics/SVG/1.1/DTD/svg11.dtd" >
<svg xmlns="http://www.w3.org/2000/svg" xmlns:xlink="http://www.w3.org/1999/xlink" version="1.1" viewBox="-10 0 1724 2048">
   <path fill="currentColor"
d="M1356 1180q-16 0 -62 -14t-62 -22l-176 552l-264 -96l188 -492l-260 -296l216 -124q56 140 180 242t280 126l96 -292l-124 -40l-44 136q-84 -36 -148 -106t-92 -162l-28 -92q-16 -52 -58 -82t-94 -34t-96 20l-296 172q-48 28 -70 74t-18 102q4 44 48 92l304 316l-144 380
l-592 -212l-40 120l1196 436q100 36 212 36q80 0 156 -20t140 -56l-96 -92q-96 40 -200 40q-84 0 -168 -28l-64 -24zM1448 300q0 72 -50 122t-120 50t-120 -50t-50 -122t50 -122t120 -50t120 50t50 122z" />
</svg>
