<?xml version="1.0" standalone="no"?>
<!DOCTYPE svg PUBLIC "-//W3C//DTD SVG 1.1//EN" "http://www.w3.org/Graphics/SVG/1.1/DTD/svg11.dtd" >
<svg xmlns="http://www.w3.org/2000/svg" xmlns:xlink="http://www.w3.org/1999/xlink" version="1.1" viewBox="-10 0 1337 2048">
   <path fill="currentColor"
d="M1317 878v146q0 124 -45.5 238.5t-124 201t-186.5 143.5t-230 71v150h293q30 0 51.5 22t21.5 52t-21.5 51t-51.5 21h-731q-30 0 -52 -21.5t-22 -51t22 -51.5t52 -22h292v-150q-122 -14 -230 -71t-186 -143.5t-123.5 -201t-45.5 -238.5v-146q0 -30 21.5 -52t51.5 -22
t51.5 22t21.5 52v146q0 103 40.5 198t109.5 163.5t163.5 109.5t198.5 41t198.5 -41t163.5 -109.5t109.5 -163.5t40.5 -198v-146q0 -30 21.5 -52t51.5 -22t52 22t22 52zM1024 438v586q0 98 -49 182.5t-133.5 134t-183.5 49.5t-183 -49.5t-133 -134t-49 -182.5v-586
q0 -98 49 -182.5t133 -133t183 -48.5t183.5 48.5t133.5 133t49 182.5z" />
</svg>
