<?xml version="1.0" standalone="no"?>
<!DOCTYPE svg PUBLIC "-//W3C//DTD SVG 1.1//EN" "http://www.w3.org/Graphics/SVG/1.1/DTD/svg11.dtd" >
<svg xmlns="http://www.w3.org/2000/svg" xmlns:xlink="http://www.w3.org/1999/xlink" version="1.1" viewBox="-10 0 1556 2048">
   <path fill="currentColor"
d="M744 512q-40 -116 -140 -186t-220 -70q-160 0 -272 112t-112 272t112 272t272 112q128 0 224 -70t136 -186h280v256h256v-256h256v-256h-792zM384 768q-52 0 -90 -38t-38 -90t38 -90t90 -38t90 38t38 90t-38 90t-90 38zM852 1792v-172h-424v-168h424v-172l256 256z" />
</svg>
