<?xml version="1.0" standalone="no"?>
<!DOCTYPE svg PUBLIC "-//W3C//DTD SVG 1.1//EN" "http://www.w3.org/Graphics/SVG/1.1/DTD/svg11.dtd" >
<svg xmlns="http://www.w3.org/2000/svg" xmlns:xlink="http://www.w3.org/1999/xlink" version="1.1" viewBox="-10 0 1600 2048">
   <path fill="currentColor"
d="M295 1154l-116 114q-48 -116 -48 -244v-146q0 -30 21.5 -52t51.5 -22t52 22t22 52v146q0 60 17 130zM1568 466l-413 412v146q0 98 -49 182.5t-133 134t-183 49.5q-63 0 -125 -22l-110 110q110 58 235 58q104 0 199 -41t163.5 -109.5t109 -163.5t40.5 -198v-146
q0 -30 21.5 -52t51.5 -22t51.5 22t21.5 52v146q0 124 -45.5 238.5t-123.5 201t-186 143.5t-230 71v150h292q30 0 51.5 22t21.5 52t-21.5 51t-51.5 21h-731q-30 0 -51.5 -21t-21.5 -51t21.5 -52t51.5 -22h292v-150q-141 -15 -268 -92l-290 290q-11 11 -26.5 11t-26.5 -11
l-94 -94q-11 -12 -11 -26.5t11 -25.5l1411 -1412q12 -11 26.5 -11t25.5 11l94 94q12 12 12 27t-12 27zM1134 314l-710 710v-586q0 -98 49.5 -182.5t133.5 -133t183 -48.5q117 0 211 67t133 173z" />
</svg>
