<?xml version="1.0" standalone="no"?>
<!DOCTYPE svg PUBLIC "-//W3C//DTD SVG 1.1//EN" "http://www.w3.org/Graphics/SVG/1.1/DTD/svg11.dtd" >
<svg xmlns="http://www.w3.org/2000/svg" xmlns:xlink="http://www.w3.org/1999/xlink" version="1.1" viewBox="-10 0 1812 2048">
   <path fill="currentColor"
d="M1792 1812l-1684 -1684l-108 108l476 476l-16 36h-300l-84 172h344q-4 28 -4 84t4 84h-260l-84 172h384q80 228 278 370t446 142q148 0 292 -60l208 208zM636 1088q-8 -44 -8 -84t8 -84h44l172 168h-216zM1184 1560q-156 0 -288 -82t-204 -218h332l284 284
q-68 16 -124 16zM944 748h324l-84 172h-68zM800 604l-152 -152q108 -100 246 -158t286 -58t280 52t236 144l-152 152q-156 -136 -360 -136q-108 0 -206 42t-178 114z" />
</svg>
