<?xml version="1.0" standalone="no"?>
<!DOCTYPE svg PUBLIC "-//W3C//DTD SVG 1.1//EN" "http://www.w3.org/Graphics/SVG/1.1/DTD/svg11.dtd" >
<svg xmlns="http://www.w3.org/2000/svg" xmlns:xlink="http://www.w3.org/1999/xlink" version="1.1" viewBox="-10 0 1900 2048">
   <path fill="currentColor"
d="M728 300q-200 0 -366 70t-264 186t-98 256q0 148 120 280q-56 80 -88 172t-32 188v300q0 68 50 118t122 50h1108q72 0 122 -50t50 -118v-300q0 -164 -84 -300l168 -168l-256 -256l-176 176q-188 -100 -402 -94t-394 122q-52 -52 -52 -124t64 -136t172 -102t236 -38
q88 0 172 22t152 62l168 -172q-220 -148 -492 -144zM728 984q144 0 276 72q124 68 200 178t76 218v300h-1108v-300q0 -108 78 -218t202 -178q132 -72 276 -72zM768 1112q-196 0 -310 98t-114 286v84h168v-84q0 -120 32 -192q60 -140 224 -192zM1880 668q0 104 -64 196
t-160 116l-120 -116h64q60 0 106 -68t46 -136t-48 -122t-112 -54v-128q116 0 202 96t86 216zM1424 620q-88 -84 -88 -204t84 -204t204 -84v128q-64 0 -112 48t-48 112t48 110t112 46v128q-104 0 -188 60l-92 -92q36 -28 80 -48z" />
</svg>
