<?xml version="1.0" standalone="no"?>
<!DOCTYPE svg PUBLIC "-//W3C//DTD SVG 1.1//EN" "http://www.w3.org/Graphics/SVG/1.1/DTD/svg11.dtd" >
<svg xmlns="http://www.w3.org/2000/svg" xmlns:xlink="http://www.w3.org/1999/xlink" version="1.1" viewBox="-10 0 1812 2048">
   <path fill="currentColor"
d="M1792 1820l-1680 -1692l-112 112l308 308q-60 104 -60 204q0 148 120 280q-120 160 -120 360v300q0 68 50 118t122 50h1108q28 0 80 -16l76 76zM608 844l-52 28q-52 -52 -52 -120v-8zM420 1692v-300q0 -116 90 -234t226 -186l104 104q-120 40 -184 130t-64 230v84h168
v-84q0 -88 16 -148q28 -104 104 -168l572 572h-1032zM1352 844l176 -176l256 256l-168 168q84 136 84 300v112l-180 -180q-24 -116 -126 -220t-242 -148l-204 -204q204 -12 404 92zM720 520l-180 -176q204 -104 436 -104q288 0 492 144l-168 172q-68 -40 -152 -62t-172 -22
q-156 0 -256 48z" />
</svg>
