<?xml version="1.0" standalone="no"?>
<!DOCTYPE svg PUBLIC "-//W3C//DTD SVG 1.1//EN" "http://www.w3.org/Graphics/SVG/1.1/DTD/svg11.dtd" >
<svg xmlns="http://www.w3.org/2000/svg" xmlns:xlink="http://www.w3.org/1999/xlink" version="1.1" viewBox="-10 0 1724 2048">
   <path fill="currentColor"
d="M1536 554q72 0 120 52t48 120v936q0 68 -48 120t-120 52h-1368q-72 0 -120 -52t-48 -120v-936q0 -68 48 -120t120 -52h344v-172q0 -72 48 -120t120 -48h344q72 0 120 48t48 120v172h344zM168 726v936h1368v-936h-1368zM1024 554v-172h-344v172h344zM720 1534l564 -560
l-120 -120l-444 440l-176 -176l-124 120z" />
</svg>
