<?xml version="1.0" standalone="no"?>
<!DOCTYPE svg PUBLIC "-//W3C//DTD SVG 1.1//EN" "http://www.w3.org/Graphics/SVG/1.1/DTD/svg11.dtd" >
<svg xmlns="http://www.w3.org/2000/svg" xmlns:xlink="http://www.w3.org/1999/xlink" version="1.1" viewBox="-10 0 916 2048">
   <path fill="currentColor"
d="M428 340q-124 0 -212 88t-88 210t88 206q-100 68 -158 172t-58 226t64 230t172 172t236 64q232 0 424 -116l-84 -148q-160 92 -340 92q-124 0 -212 -88t-88 -212q0 -100 62 -180t158 -108l444 -120l-44 -164l-380 104q-48 -8 -80 -44t-32 -86t38 -88t90 -38q32 0 64 16
l84 -148q-68 -40 -148 -40z" />
</svg>
