<?xml version="1.0" standalone="no"?>
<!DOCTYPE svg PUBLIC "-//W3C//DTD SVG 1.1//EN" "http://www.w3.org/Graphics/SVG/1.1/DTD/svg11.dtd" >
<svg xmlns="http://www.w3.org/2000/svg" xmlns:xlink="http://www.w3.org/1999/xlink" version="1.1" viewBox="-10 0 1724 2048">
   <path fill="currentColor"
d="M596 1536q-108 0 -182 -74t-74 -182t128 -292q64 -96 128 -168l68 84q76 96 120 180q68 120 68 196q0 108 -74 182t-182 74zM1024 340v1368h-856v-1368h-168v1368q0 68 50 118t118 50h856q68 0 118 -50t50 -118v-1368h-168zM680 512v-340h-168v340h-256v172h680v-172
h-256zM1620 1492v-1024q0 -52 -38 -90t-90 -38t-90 38t-38 90v1024q-40 32 -62 76t-22 96q0 88 62 150t150 62t150 -62t62 -150q0 -104 -84 -172zM1536 1108h-88v-596h88v596z" />
</svg>
