<?xml version="1.0" standalone="no"?>
<!DOCTYPE svg PUBLIC "-//W3C//DTD SVG 1.1//EN" "http://www.w3.org/Graphics/SVG/1.1/DTD/svg11.dtd" >
<svg xmlns="http://www.w3.org/2000/svg" xmlns:xlink="http://www.w3.org/1999/xlink" version="1.1" viewBox="-10 0 1676 2048">
   <path fill="currentColor"
d="M1176 1116l480 480l-284 276l-476 -476v-76l200 -204h80zM1252 900l-84 -80l-408 408v168l-480 480l-280 -280l476 -480h168l68 -64l-328 -332h-112l-240 -240l224 -224l240 240v112l332 328l228 -228l-84 -88l112 -112h-228l-56 -56l284 -280l56 56v224l112 -112
l280 280q68 72 68 172t-68 168l-168 -172z" />
</svg>
