<?xml version="1.0" standalone="no"?>
<!DOCTYPE svg PUBLIC "-//W3C//DTD SVG 1.1//EN" "http://www.w3.org/Graphics/SVG/1.1/DTD/svg11.dtd" >
<svg xmlns="http://www.w3.org/2000/svg" xmlns:xlink="http://www.w3.org/1999/xlink" version="1.1" viewBox="-10 0 1388 2048">
   <path fill="currentColor"
d="M428 1708q0 -168 112 -464t304 -624q28 -52 76 -80t104 -28q72 0 122 50t50 122v1024h172v-1024q0 -144 -100 -244t-244 -100q-104 0 -192 54t-136 138q-180 312 -268 580v-556q0 -88 -62 -152t-150 -64t-152 64t-64 152t64 150t152 62q28 0 40 -4v944h172zM216 512
q16 0 28 12t12 30t-12 30t-30 12t-30 -12t-12 -30t12 -30t32 -12z" />
</svg>
