<?xml version="1.0" standalone="no"?>
<!DOCTYPE svg PUBLIC "-//W3C//DTD SVG 1.1//EN" "http://www.w3.org/Graphics/SVG/1.1/DTD/svg11.dtd" >
<svg xmlns="http://www.w3.org/2000/svg" xmlns:xlink="http://www.w3.org/1999/xlink" version="1.1" viewBox="-10 0 1388 2048">
   <path fill="currentColor"
d="M1024 512q-104 0 -180 76t-76 180v512q0 104 76 180t180 76h88q104 0 180 -76t76 -180v-256q0 -104 -76 -180t-180 -76h-172q0 -36 24 -60t60 -24h172q68 0 120 -52t52 -120h-344zM88 768v172h256q36 0 60 24t24 60h-172q-104 0 -180 76t-76 180t76 180t180 76h344v-512
q0 -104 -76 -180t-180 -76h-256zM940 940h172q36 0 60 24t24 60v256q0 36 -24 60t-60 24h-88q-36 0 -60 -24t-24 -60v-340zM256 1196h172v168h-172q-36 0 -60 -24t-24 -60t24 -60t60 -24z" />
</svg>
