<?xml version="1.0" standalone="no"?>
<!DOCTYPE svg PUBLIC "-//W3C//DTD SVG 1.1//EN" "http://www.w3.org/Graphics/SVG/1.1/DTD/svg11.dtd" >
<svg xmlns="http://www.w3.org/2000/svg" xmlns:xlink="http://www.w3.org/1999/xlink" version="1.1" viewBox="-10 0 1724 2048">
   <path fill="currentColor"
d="M1648 1484q56 52 56 126t-50 128t-126 54h-756q-120 0 -218 -58t-156 -156t-58 -218v-4q-148 -32 -244 -148t-96 -268q0 -116 56 -214t154 -156t214 -58h216q16 0 28 -12t12 -30t-12 -30t-28 -12h-216v-172h216q88 0 150 62t62 152t-62 152t-150 62h-216q-104 0 -180 74
t-76 182q0 84 52 152t132 92q36 -144 152 -238t268 -94q96 0 196 48q-92 52 -146 142t-54 194q0 164 112 272l60 -60q-88 -84 -88 -212q0 -100 56 -176q44 -60 120 -92q64 -28 124 -28q88 0 164 48t112 132t16 180zM1364 1620q36 0 60 -24t24 -60t-24 -60t-60 -24t-60 24
t-24 60t24 60t60 24z" />
</svg>
