<?xml version="1.0" standalone="no"?>
<!DOCTYPE svg PUBLIC "-//W3C//DTD SVG 1.1//EN" "http://www.w3.org/Graphics/SVG/1.1/DTD/svg11.dtd" >
<svg xmlns="http://www.w3.org/2000/svg" xmlns:xlink="http://www.w3.org/1999/xlink" version="1.1" viewBox="-10 0 1388 2048">
   <path fill="currentColor"
d="M1024 384q-104 0 -180 76t-76 180v1024h172v-1024q0 -36 24 -60t60 -24h88q36 0 60 24t24 60v84q0 36 -24 62t-60 26h-88v168h88q36 0 60 26t24 62v84q0 36 -24 60t-60 24h-88v172h88q104 0 180 -76t76 -180v-84q0 -52 -24 -96t-64 -76q40 -32 64 -76t24 -96v-84
q0 -104 -76 -180t-180 -76h-88zM256 640q-104 0 -180 76t-76 180v256q0 104 76 180t180 76h60q64 0 112 -44v44h172v-768h-172v44q-48 -44 -112 -44h-60zM256 812h88q36 0 60 24t24 60v256q0 36 -24 60t-60 24h-88q-36 0 -60 -24t-24 -60v-256q0 -36 24 -60t60 -24z" />
</svg>
