<?xml version="1.0" standalone="no"?>
<!DOCTYPE svg PUBLIC "-//W3C//DTD SVG 1.1//EN" "http://www.w3.org/Graphics/SVG/1.1/DTD/svg11.dtd" >
<svg xmlns="http://www.w3.org/2000/svg" xmlns:xlink="http://www.w3.org/1999/xlink" version="1.1" viewBox="-11 0 1390 2048">
   <path fill="currentColor"
d="M769 732q52 0 88 36t36 86t-36 86t-86 36t-86 -36t-36 -86t34 -86t86 -36zM769 256q164 0 302 80t218 218t80 298q0 176 -94 322t-250 218v400h-596v-256h-84q-72 0 -122 -50t-50 -122v-256h-128q-28 0 -40 -24t4 -44l164 -216q8 -156 90 -286t216 -206t290 -76z
M1025 852q0 -20 -4 -32l76 -56q4 -4 6 -12t-2 -12l-68 -116q-4 -8 -12 -10t-12 2l-84 36q-20 -24 -56 -36l-12 -88q-4 -16 -20 -16h-136q-16 0 -16 16l-12 88q-32 12 -56 36l-88 -36q-12 -4 -20 8l-68 116q-8 20 4 24l72 56l-4 32l4 36l-72 56q-12 4 -4 20l68 120q4 8 20 8
l84 -36q28 20 60 32l12 92q0 16 16 16h136q12 0 20 -16l12 -92q40 -16 56 -32l84 36q20 0 24 -8l68 -120q4 -12 -4 -20l-72 -56v-36z" />
</svg>
