<?xml version="1.0" standalone="no"?>
<!DOCTYPE svg PUBLIC "-//W3C//DTD SVG 1.1//EN" "http://www.w3.org/Graphics/SVG/1.1/DTD/svg11.dtd" >
<svg xmlns="http://www.w3.org/2000/svg" xmlns:xlink="http://www.w3.org/1999/xlink" version="1.1" viewBox="-11 0 1729 2048">
   <path fill="currentColor"
d="M940 256q164 0 302 80t218 218t80 298q0 176 -94 322t-250 218v400h-596v-256h-84q-72 0 -121.5 -50t-50.5 -122v-256h-128q-28 0 -40 -24t4 -44l164 -216q8 -156 90.5 -286t216 -206t289.5 -76zM712 632h164q5 -40 27 -60t57.5 -20t59.5 24t24 64t-18 70t-54 50
q-64 44 -89.5 78t-26.5 102h172q0 -44 10.5 -66t41.5 -42q60 -32 96 -82t36 -110q0 -96 -67.5 -154t-182 -58t-182 50t-68.5 150v4zM856 1196h172v-172h-172v172zM940 84q-192 0 -358 90t-274 244t-128 342l-136 180h-4q-36 48 -40 108t24 116q48 92 148 112v88
q0 120 74 212t182 120v268h940v-472q161 -104 250.5 -274t89.5 -366q0 -208 -102 -384t-280 -280t-386 -104z" />
</svg>
