<?xml version="1.0" standalone="no"?>
<!DOCTYPE svg PUBLIC "-//W3C//DTD SVG 1.1//EN" "http://www.w3.org/Graphics/SVG/1.1/DTD/svg11.dtd" >
<svg xmlns="http://www.w3.org/2000/svg" xmlns:xlink="http://www.w3.org/1999/xlink" version="1.1" viewBox="-11 0 1729 2048">
   <path fill="currentColor"
d="M940 256q164 0 302 80t218 218t80 298q0 176 -94 322t-250 218v400h-596v-256h-84q-72 0 -121.5 -50t-50.5 -122v-256h-128q-28 0 -40 -24t4 -44l164 -216q8 -156 90.5 -286t216 -206t289.5 -76zM940 84q-192 0 -358 90t-274 244t-128 342l-136 180h-4q-36 48 -40 108
t24 116q48 92 148 112v88q0 120 74 212t182 120v268h940v-472q161 -104 250.5 -274t89.5 -366q0 -208 -102 -384t-280 -280t-386 -104zM1284 752q0 92 -80 188q-52 64 -212 208l-52 48l-48 -48q-160 -144 -212 -208q-79 -96 -80 -188q0 -76 54 -130t130 -58h4q92 0 152 72
q65 -72 156 -72q77 0 132.5 54t55.5 134z" />
</svg>
