<?xml version="1.0" standalone="no"?>
<!DOCTYPE svg PUBLIC "-//W3C//DTD SVG 1.1//EN" "http://www.w3.org/Graphics/SVG/1.1/DTD/svg11.dtd" >
<svg xmlns="http://www.w3.org/2000/svg" xmlns:xlink="http://www.w3.org/1999/xlink" version="1.1" viewBox="-11 0 1390 2048">
   <path fill="currentColor"
d="M769 256q-156 0 -290 76t-216 206t-90 286l-164 216q-16 20 -4 44t40 24h128v256q0 72 50 122t122 50h84v256h596v-400q156 -72 250 -218t94 -322q0 -160 -80 -298t-218 -218t-302 -80zM1117 816l-168 44l124 124q20 24 20 56t-22 54t-54 22t-52 -24l-124 -120l-44 164
q-8 32 -36 48t-58 8t-46 -36t-8 -56l44 -168l-168 44q-32 8 -58 -8t-34 -46t8 -58t44 -36l168 -44l-124 -124q-20 -24 -20 -54t22 -54t54 -24t52 24l124 124l48 -168q4 -32 32 -48t58 -8t46 36t8 60l-44 168l168 -48q32 -8 60 8t36 48t-8 58t-48 34z" />
</svg>
