<?xml version="1.0" standalone="no"?>
<!DOCTYPE svg PUBLIC "-//W3C//DTD SVG 1.1//EN" "http://www.w3.org/Graphics/SVG/1.1/DTD/svg11.dtd" >
<svg xmlns="http://www.w3.org/2000/svg" xmlns:xlink="http://www.w3.org/1999/xlink" version="1.1" viewBox="-11 0 1390 2048">
   <path fill="currentColor"
d="M769 256q-156 0 -290 76t-216 206t-90 286l-164 216q-16 20 -4 44t40 24h128v256q0 72 50 122t122 50h84v256h596v-400q156 -72 250 -218t94 -322q0 -160 -80 -298t-218 -218t-302 -80zM857 1196h-172v-172h172v172zM1005 752q-36 48 -96 80q-32 20 -42 42t-10 66h-172
q0 -68 26 -102t90 -78q36 -20 54 -50t18 -70t-24 -64t-60 -24t-58 20t-26 60h-164v-4q0 -100 68 -150t182 -50t182 58t68 154q0 60 -36 112z" />
</svg>
