<?xml version="1.0" standalone="no"?>
<!DOCTYPE svg PUBLIC "-//W3C//DTD SVG 1.1//EN" "http://www.w3.org/Graphics/SVG/1.1/DTD/svg11.dtd" >
<svg xmlns="http://www.w3.org/2000/svg" xmlns:xlink="http://www.w3.org/1999/xlink" version="1.1" viewBox="-11 0 1630 2048">
   <path fill="currentColor"
d="M585 274q0 -30 -21.5 -51t-51.5 -21t-51.5 21t-21.5 51t21.5 52t51.5 22t51.5 -22t21.5 -52zM1609 238v366q0 18 -14 28q-10 8 -22 8h-8l-512 -110q-12 -3 -20.5 -13.5t-8.5 -22.5h-293v116q126 26 209.5 127t83.5 233v914q0 30 -21.5 51t-51.5 21h-585q-30 0 -51.5 -21
t-21.5 -51v-914q0 -122 71.5 -218.5t184.5 -131.5v-126h-37q-50 0 -97.5 14t-83 35t-68.5 49.5t-54 53t-39 50t-24 36t-8 14.5q-10 19 -28 29.5t-37.5 10.5t-32.5 -8q-27 -13 -36.5 -41.5t4.5 -56.5v-1q9 -16 19.5 -34t44 -61.5t70 -79t95 -73.5t121.5 -59q-29 -49 -29 -98
q0 -75 53.5 -128.5t129 -53.5t129.5 53.5t54 128.5q0 37 -16 74h345q0 -13 8.5 -23t20.5 -13l512 -110h8q12 0 22 8q14 10 14 28z" />
</svg>
