<?xml version="1.0" standalone="no"?>
<!DOCTYPE svg PUBLIC "-//W3C//DTD SVG 1.1//EN" "http://www.w3.org/Graphics/SVG/1.1/DTD/svg11.dtd" >
<svg xmlns="http://www.w3.org/2000/svg" xmlns:xlink="http://www.w3.org/1999/xlink" version="1.1" viewBox="-10 0 1828 2048">
   <path fill="currentColor"
d="M136 1472v320h320l944 -944l-320 -320zM1808 1568l-360 360l-444 -444l152 -148l84 84l212 -212l120 120l-124 124l88 84l124 -120zM444 924l-444 -444l360 -360l152 148l-212 212l92 92l208 -212l124 120l-124 120l88 88zM1648 596q24 -24 24 -58t-24 -62l-200 -196
q-24 -24 -60 -24t-60 24l-156 156l320 320z" />
</svg>
