<?xml version="1.0" standalone="no"?>
<!DOCTYPE svg PUBLIC "-//W3C//DTD SVG 1.1//EN" "http://www.w3.org/Graphics/SVG/1.1/DTD/svg11.dtd" >
<svg xmlns="http://www.w3.org/2000/svg" xmlns:xlink="http://www.w3.org/1999/xlink" version="1.1" viewBox="-11 0 1887 2048">
   <path fill="currentColor"
d="M1610 457.5q0 -45.5 -32.5 -77.5t-78 -32t-77.5 32t-32 77.5t32 77t77.5 31.5t78 -31.5t32.5 -77zM1866 128q0 284 -86.5 492t-289.5 412q-91 89 -223 202l-23 432q-2 18 -18 30l-439 256q-10 4 -18 4q-16 0 -27 -10l-73 -72q-14 -16 -9 -38l97 -314l-321 -322l-315 98
h-11q-15 0 -26 -10l-73 -74q-19 -21 -6 -44l256 -438q11 -17 30 -18l433 -24q119 -140 201 -222q145 -146 274.5 -226t277 -115t350.5 -35q16 0 27.5 10t11.5 26z" />
</svg>
