<?xml version="1.0" standalone="no"?>
<!DOCTYPE svg PUBLIC "-//W3C//DTD SVG 1.1//EN" "http://www.w3.org/Graphics/SVG/1.1/DTD/svg11.dtd" >
<svg xmlns="http://www.w3.org/2000/svg" xmlns:xlink="http://www.w3.org/1999/xlink" version="1.1" viewBox="-10 0 1473 2048">
   <path fill="currentColor"
d="M25 1878l-8 -24q-20 -72 -16 -156q12 -132 112 -240q-24 -80 -24 -160q0 -108 44 -206t120 -170q116 -112 276 -148q84 -296 112 -604q40 336 112 604q164 32 288 148q76 72 120 170t44 206q0 76 -24 152q112 52 272 68l-8 12q-8 32 -60 64h-4q-100 68 -240 68h-40
l-40 -4l-20 20q-76 76 -178 116t-216 40t-216 -40t-178 -116l-8 -8q-128 68 -208 188zM173 1402q28 -24 80 -72q76 -72 100 -112l8 -16q92 136 232 384h-20q-144 8 -260 52q68 60 154 94t178 34q188 0 328 -124l-80 -20q-116 -24 -184 -28h-16l8 -16q20 -40 136 -236
l80 -136l8 16q84 120 192 192q16 -56 16 -112q0 -96 -38 -180t-106 -148q-92 -92 -216 -120q44 144 88 240l4 8l-4 4q-32 68 -108 188q-64 108 -96 168l-8 16l-12 -16q-40 -56 -192 -308l-24 -44q48 -120 88 -256q-120 32 -208 120q-64 60 -102 146t-38 178q0 52 12 104z
" />
</svg>
