<?xml version="1.0" standalone="no"?>
<!DOCTYPE svg PUBLIC "-//W3C//DTD SVG 1.1//EN" "http://www.w3.org/Graphics/SVG/1.1/DTD/svg11.dtd" >
<svg xmlns="http://www.w3.org/2000/svg" xmlns:xlink="http://www.w3.org/1999/xlink" version="1.1" viewBox="-11 0 1390 2048">
   <path fill="currentColor"
d="M769 256q-156 0 -290 76t-216 206t-90 286l-164 216q-16 20 -4 44t40 24h128v256q0 72 50 122t122 50h84v256h596v-400q156 -72 250 -218t94 -322q0 -160 -80 -298t-218 -218t-302 -80zM769 1280v-128q-140 0 -240 -100t-100 -240q0 -104 56 -188l96 92q-24 44 -24 96
q0 88 62 150t150 62v-128l192 192zM1053 1000l-92 -92q24 -48 24 -96q0 -88 -64 -152t-152 -64v128l-192 -192l192 -192v128q144 0 244 100t100 244q0 100 -60 188z" />
</svg>
