<?xml version="1.0" standalone="no"?>
<!DOCTYPE svg PUBLIC "-//W3C//DTD SVG 1.1//EN" "http://www.w3.org/Graphics/SVG/1.1/DTD/svg11.dtd" >
<svg xmlns="http://www.w3.org/2000/svg" xmlns:xlink="http://www.w3.org/1999/xlink" version="1.1" viewBox="-11 0 1729 2048">
   <path fill="currentColor"
d="M940 256q164 0 302 80t218 218t80 298q0 176 -94 322t-250 218v400h-596v-256h-84q-72 0 -121.5 -50t-50.5 -122v-256h-128q-28 0 -40 -24t4 -44l164 -216q8 -156 90.5 -286t216 -206t289.5 -76zM940 84q-192 0 -358 90t-274 244t-128 342l-136 180h-4q-36 48 -40 108
t24 116q48 92 148 112v88q0 120 74 212t182 120v268h940v-472q161 -104 250.5 -274t89.5 -366q0 -208 -102 -384t-280 -280t-386 -104zM1028 1280v-128q-144 0 -244 -100t-100 -240q0 -104 60 -188l92 92q-24 44 -24 96q0 88 64.5 150t151.5 62v-128l192 192zM1312 1000
l-96 -92q24 -48 24 -96q0 -88 -61.5 -152t-150.5 -64v128l-192 -192l192 -192v128q140 0 240.5 100t99.5 244q0 100 -56 188z" />
</svg>
