<?xml version="1.0" standalone="no"?>
<!DOCTYPE svg PUBLIC "-//W3C//DTD SVG 1.1//EN" "http://www.w3.org/Graphics/SVG/1.1/DTD/svg11.dtd" >
<svg xmlns="http://www.w3.org/2000/svg" xmlns:xlink="http://www.w3.org/1999/xlink" version="1.1" viewBox="-10 0 1724 2048">
   <path fill="currentColor"
d="M1536 1536v-852h-1368v852h1368zM1536 512q68 0 118 50t50 122v852q0 72 -50 122t-118 50h-1368q-68 0 -118 -50t-50 -122v-1024q0 -72 50 -122t118 -50h512l172 172h684zM1364 768v172h-172v340q0 72 -50 122t-120 50t-120 -50t-50 -122t50 -122t122 -50q28 0 40 8v-348
h300z" />
</svg>
