<?xml version="1.0" standalone="no"?>
<!DOCTYPE svg PUBLIC "-//W3C//DTD SVG 1.1//EN" "http://www.w3.org/Graphics/SVG/1.1/DTD/svg11.dtd" >
<svg xmlns="http://www.w3.org/2000/svg" xmlns:xlink="http://www.w3.org/1999/xlink" version="1.1" viewBox="-10 0 1724 2048">
   <path fill="currentColor"
d="M768 1280h168v172h-168v-172zM768 1108h168v-512h-168v512zM1704 468v896l-512 512h-896q-120 0 -208 -88t-88 -208v-1112q0 -120 88 -208t208 -88h1112q120 0 208 88t88 208zM1536 496q0 -64 -46 -110t-110 -46h-1056q-64 0 -110 46t-46 110v1064q0 64 46 110t110 46
h784v-128q0 -124 88 -212t212 -88h128v-792z" />
</svg>
