<?xml version="1.0" standalone="no"?>
<!DOCTYPE svg PUBLIC "-//W3C//DTD SVG 1.1//EN" "http://www.w3.org/Graphics/SVG/1.1/DTD/svg11.dtd" >
<svg xmlns="http://www.w3.org/2000/svg" xmlns:xlink="http://www.w3.org/1999/xlink" version="1.1" viewBox="-10 0 1799 2048">
   <path fill="currentColor"
d="M680 256q-140 0 -240 100t-100 242t100 242t242 100t242 -100t100 -242t-100 -242t-244 -100zM680 428q72 0 122 50t50 120t-50 120t-120 50t-120 -50t-50 -120t50 -120t118 -50zM1280 940q-20 0 -20 20l-24 108q-12 8 -40 28l-28 16l-108 -44q-20 0 -28 8l-80 152
q-8 4 -6 12t10 16l92 68v84l-92 72q-4 4 -6 12t2 16l80 148q8 8 28 8l108 -40l28 16q28 16 40 24l24 108q0 20 20 20h168q8 0 14 -4t6 -16l16 -108l76 -40l104 40q24 0 24 -8l88 -148q4 -8 2 -16t-6 -12l-92 -72v-84l92 -68q4 -8 6 -16t-2 -12l-88 -152q0 -8 -24 -8l-104 44
l-76 -44l-16 -108q0 -8 -6 -14t-14 -6h-168zM680 1024q-124 0 -276 40q-172 44 -280 112q-124 84 -124 192v256h824q-36 -80 -48 -164h-616v-92q0 -28 80 -72t192 -76q132 -32 248 -32q52 0 112 8q28 -84 72 -152q-108 -20 -184 -20zM1368 1240q52 0 88 38t36 90t-36 90
t-90 38t-92 -38t-38 -92t38 -90t94 -36z" />
</svg>
