<?xml version="1.0" standalone="no"?>
<!DOCTYPE svg PUBLIC "-//W3C//DTD SVG 1.1//EN" "http://www.w3.org/Graphics/SVG/1.1/DTD/svg11.dtd" >
<svg xmlns="http://www.w3.org/2000/svg" xmlns:xlink="http://www.w3.org/1999/xlink" version="1.1" viewBox="-10 0 1800 2048">
   <path fill="currentColor"
d="M680 256q-140 0 -240 100t-100 242t100 242t242 100t242 -100t100 -242t-100 -242t-244 -100zM1280 940q-20 0 -24 16l-16 116q-40 16 -72 40l-108 -44q-20 0 -24 12l-84 148q-12 16 4 28l88 68v42v42l-88 72q-16 12 -4 28l84 148q4 8 24 8l108 -40q40 24 72 40l16 112
q4 16 24 16h168q20 0 20 -16l20 -112q32 -16 68 -40l108 40q20 0 28 -8l84 -148q8 -16 -4 -28l-92 -72l4 -40q0 -24 -4 -44l92 -68q12 -12 4 -28l-88 -148q-4 -12 -24 -12l-108 44q-40 -32 -72 -40l-16 -116q0 -16 -20 -16h-168zM680 1112q-184 0 -340 46t-248 124t-92 170
v172h824q-56 -124 -56 -256t52 -248q-68 -8 -140 -8zM1364 1240q52 0 90 36t38 90t-38 92t-90 38t-90 -38t-38 -92t38 -90t90 -36z" />
</svg>
