<?xml version="1.0" standalone="no"?>
<!DOCTYPE svg PUBLIC "-//W3C//DTD SVG 1.1//EN" "http://www.w3.org/Graphics/SVG/1.1/DTD/svg11.dtd" >
<svg xmlns="http://www.w3.org/2000/svg" xmlns:xlink="http://www.w3.org/1999/xlink" version="1.1" viewBox="-10 0 1724 2048">
   <path fill="currentColor"
d="M852 172q-232 0 -428 114t-310 310t-114 428t114 428t310 310t428 114t428 -114t310 -310t114 -428q0 -168 -64 -326t-184 -278t-278 -184t-326 -64zM1364 940h-428l156 -156q-100 -100 -236 -100t-234 88t-110 222t70 238t212 128t242 -48t144 -204h176
q-20 132 -104 234t-204 154t-254 36t-240 -92t-164 -194t-50 -252t78 -244t186 -174t248 -64q100 0 194 40t166 112l152 -152v428z" />
</svg>
