<?xml version="1.0" standalone="no"?>
<!DOCTYPE svg PUBLIC "-//W3C//DTD SVG 1.1//EN" "http://www.w3.org/Graphics/SVG/1.1/DTD/svg11.dtd" >
<svg xmlns="http://www.w3.org/2000/svg" xmlns:xlink="http://www.w3.org/1999/xlink" version="1.1" viewBox="-10 0 1724 2048">
   <path fill="currentColor"
d="M1152 1578v172h-152q-24 40 -62 62t-86 22t-86 -22t-62 -62h-152v-172h152q24 -40 64 -60v-108h-88q-32 0 -58 -26t-26 -62v-256h-256v344q0 32 -26 58t-58 26h-172q-36 0 -60 -26t-24 -58v-768q0 -36 24 -62t60 -26h172q32 0 58 26t26 62v256h256v-256q0 -36 26 -62
t58 -26h88v-84h-88q-32 0 -58 -26t-26 -58v-88q0 -32 26 -58t58 -26h344q32 0 58 26t26 58v88q0 32 -26 58t-58 26h-88v84h88q32 0 58 26t26 62v256h256v-256q0 -36 26 -62t58 -26h172q36 0 60 26t24 62v768q0 32 -24 58t-60 26h-172q-32 0 -58 -26t-26 -58v-344h-256v256
q0 36 -26 62t-58 26h-88v108q40 20 64 60h152zM84 1322v88h172v-88h-172zM84 1154v84h172v-84h-172zM84 982v84h172v-84h-172zM84 810v88h172v-88h-172zM84 642v84h172v-84h-172zM1448 1322v88h172v-88h-172zM1448 1154v84h172v-84h-172zM1448 982v84h172v-84h-172z
M1448 810v88h172v-88h-172zM1448 642v84h172v-84h-172z" />
</svg>
