<?xml version="1.0" standalone="no"?>
<!DOCTYPE svg PUBLIC "-//W3C//DTD SVG 1.1//EN" "http://www.w3.org/Graphics/SVG/1.1/DTD/svg11.dtd" >
<svg xmlns="http://www.w3.org/2000/svg" xmlns:xlink="http://www.w3.org/1999/xlink" version="1.1" viewBox="-10 0 1724 2048">
   <path fill="currentColor"
d="M340 1108q-140 0 -240 100t-100 242t100 242t240 100t240 -100t100 -242t-100 -242t-240 -100zM340 1620q-72 0 -122 -50t-50 -120t50 -120t122 -50t122 50t50 120t-50 120t-122 50zM340 256q-140 0 -240 100t-100 242t100 242t240 100t240 -100t100 -242t-100 -242
t-240 -100zM852 428h852v168h-852v-168zM852 1620v-168h852v168h-852zM852 940h852v168h-852v-168z" />
</svg>
