<?xml version="1.0" standalone="no"?>
<!DOCTYPE svg PUBLIC "-//W3C//DTD SVG 1.1//EN" "http://www.w3.org/Graphics/SVG/1.1/DTD/svg11.dtd" >
<svg xmlns="http://www.w3.org/2000/svg" xmlns:xlink="http://www.w3.org/1999/xlink" version="1.1" viewBox="-10 0 1724 2048">
   <path fill="currentColor"
d="M1064 224q116 0 232 12l56 8l84 16q44 8 92 22t88 32t64 42t24 56v1224q0 32 -24 56t-64 42t-88 32t-92 22l-84 16l-60 8q-112 12 -226 12t-230 -12l-56 -8l-84 -16q-48 -8 -96 -22t-86 -32t-64 -42t-26 -56v-184h-356q-28 0 -48 -22t-20 -50v-712q0 -28 20 -50t48 -22
h356v-184q0 -32 26 -56t64 -42t86 -32t96 -22l84 -16l56 -8q116 -12 228 -12zM1064 332q-52 0 -120 2t-136 12t-132 26t-116 40q52 24 116 38t132 24t134 14t122 4t122 -4t134 -14t134 -24t118 -38q-52 -24 -116 -40t-134 -26t-136 -12t-122 -2zM336 1176h180l40 128h144
l-204 -560h-140l-204 560h140zM1600 1620v-256q-56 28 -124 44t-140 26t-142 14t-130 4t-120 -4t-120 -12q-20 16 -44 16h-248v168q24 20 66 34t90 26t102 20t106 12t96 4h72h76q44 0 94 -4t104 -12t104 -20t92 -26t66 -34zM1600 1248v-308q-56 24 -124 40t-140 26t-142 14
t-126 4t-108 -4l-108 -8v320q52 8 106 10t106 2h76l96 -8q48 -4 102 -12t104 -18t90 -24t68 -34zM1600 820v-308q-56 28 -124 44t-140 24t-142 12t-128 4t-128 -4t-142 -12t-140 -24t-124 -44v84h248q28 0 50 22t22 50v240q52 4 106 6t106 2h76l96 -8q48 -4 102 -10t104 -18
t90 -26t68 -34zM368 1068l56 -172l56 172h-112z" />
</svg>
