<?xml version="1.0" standalone="no"?>
<!DOCTYPE svg PUBLIC "-//W3C//DTD SVG 1.1//EN" "http://www.w3.org/Graphics/SVG/1.1/DTD/svg11.dtd" >
<svg xmlns="http://www.w3.org/2000/svg" xmlns:xlink="http://www.w3.org/1999/xlink" version="1.1" viewBox="-10 0 1640 2048">
   <path fill="currentColor"
d="M1364 596h256l-340 -340l-340 340h256v1196h168v-1196zM172 596q0 72 50 122t120 50t120 -50t50 -120t-50 -120t-120 -50t-120 50t-50 118zM340 256q144 0 244 100t100 242t-100 242t-242 100t-242 -100t-100 -242t100 -242t240 -100zM340 1108q-140 0 -240 100t-100 242
t100 242t242 100t242 -100t100 -242t-100 -242t-244 -100z" />
</svg>
