<?xml version="1.0" standalone="no"?>
<!DOCTYPE svg PUBLIC "-//W3C//DTD SVG 1.1//EN" "http://www.w3.org/Graphics/SVG/1.1/DTD/svg11.dtd" >
<svg xmlns="http://www.w3.org/2000/svg" xmlns:xlink="http://www.w3.org/1999/xlink" version="1.1" viewBox="-10 0 1640 2048">
   <path fill="currentColor"
d="M1364 596h256l-340 -340l-340 340h256v1196h168v-1196zM172 1108q-72 0 -122 50t-50 122v340q0 72 50 122t122 50h340q72 0 122 -50t50 -122v-340q0 -72 -50 -122t-122 -50h-340zM528 1236l92 92l-340 336l-216 -216l92 -92l124 128zM172 256q-72 0 -122 50t-50 122v340
q0 72 50 122t122 50h340q72 0 122 -50t50 -122v-340q0 -72 -50 -122t-122 -50h-340zM172 428h340v340h-340v-340z" />
</svg>
