<?xml version="1.0" standalone="no"?>
<!DOCTYPE svg PUBLIC "-//W3C//DTD SVG 1.1//EN" "http://www.w3.org/Graphics/SVG/1.1/DTD/svg11.dtd" >
<svg xmlns="http://www.w3.org/2000/svg" xmlns:xlink="http://www.w3.org/1999/xlink" version="1.1" viewBox="-10 0 1468 2048">
   <path fill="currentColor"
d="M1192 596h256l-340 -340l-340 340h256v1196h168v-1196zM340 1792h-340v-172h340v-84h-172q-68 0 -118 -50t-50 -122v-84q0 -72 50 -122t118 -50h172q72 0 122 50t50 122v340q0 72 -50 122t-122 50zM340 1280h-172v84h172v-84zM168 256h172q72 0 122 50t50 122v340
q0 72 -50 122t-122 50h-172q-68 0 -118 -50t-50 -122v-340q0 -72 50 -122t118 -50zM168 768h172v-340h-172v340z" />
</svg>
