<?xml version="1.0" standalone="no"?>
<!DOCTYPE svg PUBLIC "-//W3C//DTD SVG 1.1//EN" "http://www.w3.org/Graphics/SVG/1.1/DTD/svg11.dtd" >
<svg xmlns="http://www.w3.org/2000/svg" xmlns:xlink="http://www.w3.org/1999/xlink" version="1.1" viewBox="-10 0 1212 2048">
   <path fill="currentColor"
d="M168 84q-68 0 -118 50t-50 122v1536q0 72 50 122t118 50h600q116 0 214 -58t154 -156t56 -214v-1280q0 -72 -50 -122t-118 -50h-856zM256 340h680v600h-680v-600zM340 1196h84v168h172v88h-172v168h-84v-168h-172v-88h172v-168zM936 1280q36 0 62 26t26 60t-26 60t-60 26
t-60 -26t-26 -60t26 -60t58 -26zM768 1452q32 0 58 24t26 60t-26 60t-60 24t-60 -24t-26 -60t26 -60t62 -24z" />
</svg>
