<?xml version="1.0" standalone="no"?>
<!DOCTYPE svg PUBLIC "-//W3C//DTD SVG 1.1//EN" "http://www.w3.org/Graphics/SVG/1.1/DTD/svg11.dtd" >
<svg xmlns="http://www.w3.org/2000/svg" xmlns:xlink="http://www.w3.org/1999/xlink" version="1.1" viewBox="-10 0 1600 2048">
   <path fill="currentColor"
d="M1280 1152q36 0 88 8v-264q0 -68 -50 -118t-122 -50h-84v-172q0 -116 -58 -214t-156 -156t-214 -58t-214 58t-156 156t-58 214h172q0 -108 74 -182t182 -74t182 74t74 182v172h-768q-72 0 -122 50t-50 118v856q0 68 50 118t122 50h668q-72 -116 -72 -254t70 -256
t188 -188t254 -70zM684 1496q-72 0 -122 -50t-50 -122t50 -122t122 -50t122 50t50 122t-50 122t-122 50zM1580 1516l-404 404l-236 -256l100 -96l136 136l304 -308z" />
</svg>
