<?xml version="1.0" standalone="no"?>
<!DOCTYPE svg PUBLIC "-//W3C//DTD SVG 1.1//EN" "http://www.w3.org/Graphics/SVG/1.1/DTD/svg11.dtd" >
<svg xmlns="http://www.w3.org/2000/svg" xmlns:xlink="http://www.w3.org/1999/xlink" version="1.1" viewBox="-10 0 1724 2048">
   <path fill="currentColor"
d="M1704 1132q0 88 -34 164t-92 134t-134 92t-164 34q-56 0 -108 -12q-8 72 -40 132t-82 106t-116 70t-140 24t-142 -28t-118 -80t-80 -120t-30 -144v-28l4 -24h-360q-28 0 -48 -22t-20 -50v-712q0 -28 20 -50t48 -22h252q12 -88 54 -166t106 -136t146 -90t178 -32t182 38
t152 102t104 152t38 188v24q0 16 -4 28q88 0 166 34t136 90t92 134t34 170zM800 276q-72 0 -134 24t-112 68t-82 102t-44 126h352q28 0 50 22t22 50v352l16 -4q12 -52 40 -100t68 -86t88 -68t100 -42q8 -36 8 -68q0 -80 -30 -148t-80 -118t-118 -80t-144 -30zM432 1300
q40 0 78 -8t66 -26t46 -48t18 -74t-18 -74t-46 -50t-60 -32l-64 -28q-28 -8 -46 -22t-18 -30t10 -24t24 -14t26 -6l28 -4q40 0 74 12t66 32v-124l-68 -20l-36 -4h-40q-36 0 -74 8t-70 28t-52 48t-20 72t20 72t48 48t60 36l60 24q28 12 48 24t20 30t-10 28t-22 16t-28 6h-28
q-48 0 -88 -16t-76 -44v132q84 32 172 32zM800 1772q52 0 102 -22t86 -58t56 -84t20 -100t-16 -96t-44 -78t-66 -58t-86 -32v136q0 28 -22 50t-50 22h-244q-4 24 -4 52q0 56 20 104t58 84t86 58t104 22zM1280 1452q64 0 122 -26t102 -70t70 -102t26 -122t-26 -124t-70 -104
t-102 -68t-124 -24t-124 24t-102 68t-68 104t-24 124v36q40 20 72 46t60 60t46 74t26 80q56 24 116 24z" />
</svg>
