<?xml version="1.0" standalone="no"?>
<!DOCTYPE svg PUBLIC "-//W3C//DTD SVG 1.1//EN" "http://www.w3.org/Graphics/SVG/1.1/DTD/svg11.dtd" >
<svg xmlns="http://www.w3.org/2000/svg" xmlns:xlink="http://www.w3.org/1999/xlink" version="1.1" viewBox="-10 0 1724 2048">
   <path fill="currentColor"
d="M960 276q100 0 196 28t180 76t152 116t116 150t74 178t26 200t-26 200t-74 178t-116 150t-152 116t-180 76t-196 28q-92 0 -180 -22t-166 -64t-146 -102t-124 -132h-276q-28 0 -48 -22t-20 -50v-712q0 -28 20 -50t48 -22h276q56 -72 124 -132t146 -102t166 -64t180 -22z
M1012 388v584h584q-12 -120 -60 -220t-126 -178t-180 -128t-218 -58zM640 924q0 -48 -18 -82t-46 -56t-66 -32t-86 -10h-224v560h132v-196h88q40 0 80 -12t70 -34t50 -58t20 -80zM960 1664q84 0 160 -22t146 -58t126 -90t100 -118t70 -140t34 -160h-688v-688q-124 8 -234 64
t-190 144h296q28 0 50 22t22 50v712q0 28 -22 50t-50 22h-296q44 48 100 88t116 68t126 42t134 14zM412 852q40 0 64 16t24 60q0 20 -8 32t-22 20t-30 10t-32 2h-76v-140h80z" />
</svg>
