<?xml version="1.0" standalone="no"?>
<!DOCTYPE svg PUBLIC "-//W3C//DTD SVG 1.1//EN" "http://www.w3.org/Graphics/SVG/1.1/DTD/svg11.dtd" >
<svg xmlns="http://www.w3.org/2000/svg" xmlns:xlink="http://www.w3.org/1999/xlink" version="1.1" viewBox="-10 0 1388 2048">
   <path fill="currentColor"
d="M684 172q-24 12 -44 20q-56 36 -108 84q-68 64 -124 152q-68 108 -108 244q-44 160 -44 352q0 344 144 668q20 48 62 74t94 26h256q52 0 94 -26t62 -74q144 -324 144 -668q0 -192 -44 -352q-40 -136 -108 -244q-56 -88 -124 -152q-52 -48 -108 -84zM812 1620h-256
q-128 -284 -128 -596q0 -260 92 -448q64 -128 164 -208q100 80 164 208q92 188 92 448q0 312 -128 596zM1368 1876l-332 -132q88 -192 132 -400zM332 1744l-332 132l200 -532q44 208 132 400zM684 1024q-72 0 -122 -50t-50 -120t50 -120t122 -50t122 50t50 120t-50 120
t-122 50z" />
</svg>
