<?xml version="1.0" standalone="no"?>
<!DOCTYPE svg PUBLIC "-//W3C//DTD SVG 1.1//EN" "http://www.w3.org/Graphics/SVG/1.1/DTD/svg11.dtd" >
<svg xmlns="http://www.w3.org/2000/svg" xmlns:xlink="http://www.w3.org/1999/xlink" version="1.1" viewBox="-10 0 1724 2048">
   <path fill="currentColor"
d="M596 596h172l84 216l84 -216h172l-172 428l172 428h-172l-84 -216l-84 216h-172l172 -428zM1192 596h172v684h340v172h-512v-856zM512 1280q0 72 -50 122t-122 50h-340v-172h340v-172h-172v-168h172v-172h-340v-172h340q72 0 122 50t50 122v128q0 52 -38 90t-90 38
q52 0 90 38t38 90v128z" />
</svg>
