<?xml version="1.0" standalone="no"?>
<!DOCTYPE svg PUBLIC "-//W3C//DTD SVG 1.1//EN" "http://www.w3.org/Graphics/SVG/1.1/DTD/svg11.dtd" >
<svg xmlns="http://www.w3.org/2000/svg" xmlns:xlink="http://www.w3.org/1999/xlink" version="1.1" viewBox="-10 0 1724 2048">
   <path fill="currentColor"
d="M1704 852v-340q0 -72 -50 -122t-118 -50h-1368q-68 0 -118 50t-50 122v340q68 0 118 50t50 122t-50 122t-118 50v340q0 72 50 122t118 50h1368q68 0 118 -50t50 -122v-340q-68 0 -118 -50t-50 -122t50 -122t118 -50zM1536 728q-80 44 -126 124t-46 172t46 172t126 124
v216h-1368v-216q80 -44 126 -124t46 -174t-46 -172t-126 -122v-216h1368v216zM768 1280h168v172h-168v-172zM768 940h168v168h-168v-168zM768 596h168v172h-168v-172z" />
</svg>
