<?xml version="1.0" standalone="no"?>
<!DOCTYPE svg PUBLIC "-//W3C//DTD SVG 1.1//EN" "http://www.w3.org/Graphics/SVG/1.1/DTD/svg11.dtd" >
<svg xmlns="http://www.w3.org/2000/svg" xmlns:xlink="http://www.w3.org/1999/xlink" version="1.1" viewBox="-10 0 1724 2048">
   <path fill="currentColor"
d="M1364 1172q140 0 240 100l100 -100v344h-340l152 -152q-64 -64 -152 -64t-150 64t-62 152t62 150t150 62q52 0 96 -22t76 -62h144q-36 96 -122 154t-194 58q-140 0 -240 -100t-100 -242t100 -242t240 -100zM168 192h1196q72 0 122 50t50 122v612q-68 -16 -128 -16
q-160 0 -296 84h-260v344h16q-16 64 -16 128v40h-684q-68 0 -118 -50t-50 -118v-1024q0 -72 50 -122t118 -50zM168 532v344h512v-344h-512zM852 532v344h512v-344h-512zM168 1044v344h512v-344h-512z" />
</svg>
