<?xml version="1.0" standalone="no"?>
<!DOCTYPE svg PUBLIC "-//W3C//DTD SVG 1.1//EN" "http://www.w3.org/Graphics/SVG/1.1/DTD/svg11.dtd" >
<svg xmlns="http://www.w3.org/2000/svg" xmlns:xlink="http://www.w3.org/1999/xlink" version="1.1" viewBox="-10 0 1898 2048">
   <path fill="currentColor"
d="M938 64q-64 0 -106 42t-42 106q0 36 16 68t48 56v116q-116 20 -216 76l-92 -136q24 -76 -20 -138t-120 -62q-48 0 -88 24q-48 36 -60 98t24 110q44 64 124 64l100 144q-52 52 -92 124q-24 -12 -52 -12q-60 0 -104 44t-44 106t40 106q36 32 88 44q0 64 16 132l-112 32
q-44 -36 -96 -36q-28 0 -40 4q-60 16 -90 70t-14 114q12 52 52 82t92 30q24 0 36 -8q76 -20 104 -92l128 -36q56 100 148 176l-92 172q-80 12 -116 80q-28 52 -10 112t70 88q36 20 74 20t74 -22t56 -58q18 -34 18 -68t-18 -68l92 -168q108 40 224 40h16q-16 32 -16 76
q4 60 48 100t100 40h12q64 -8 104 -54t34 -110t-54 -104q56 -24 112 -68l200 200q-12 80 40 136q48 40 108 40t104 -44t44 -104t-44 -104t-104 -44h-28l-200 -200q68 -84 96 -184h96q20 28 52 46t68 18q64 0 108 -44t44 -106t-44 -106t-108 -44q-36 0 -68 18t-52 46h-72
q0 -200 -120 -356l116 -116q8 4 28 4q60 0 104 -44t44 -106t-44 -106t-106 -44t-106 44q-52 56 -40 132l-116 116q-120 -92 -272 -116v-116q32 -24 48 -56t16 -68q0 -64 -42 -106t-106 -42zM938 1472q-116 0 -214 -58t-156 -156t-58 -214t58 -214t156 -156t214 -58t214 58
t156 156t58 214t-58 214t-156 156t-214 58zM810 788q-52 0 -90 38t-38 90t38 90t90 38t90 -38t38 -90t-38 -90t-90 -38zM1110 1128q-36 0 -62 26t-26 60t26 60t60 26t60 -26t26 -60t-26 -60t-58 -26z" />
</svg>
