<?xml version="1.0" standalone="no"?>
<!DOCTYPE svg PUBLIC "-//W3C//DTD SVG 1.1//EN" "http://www.w3.org/Graphics/SVG/1.1/DTD/svg11.dtd" >
<svg xmlns="http://www.w3.org/2000/svg" xmlns:xlink="http://www.w3.org/1999/xlink" version="1.1" viewBox="-10 0 1764 2048">
   <path fill="currentColor"
d="M168 256h1196q72 0 122 50t50 122v604q-100 -16 -194 4t-174 72h-316v344h92q-12 84 0 168h-776q-68 0 -118 -50t-50 -118v-1024q0 -72 50 -122t118 -50zM168 596v344h512v-344h-512zM852 596v344h512v-344h-512zM168 1108v344h512v-344h-512zM1400 1280v172h344v168
h-344v172l-256 -256z" />
</svg>
