<?xml version="1.0" standalone="no"?>
<!DOCTYPE svg PUBLIC "-//W3C//DTD SVG 1.1//EN" "http://www.w3.org/Graphics/SVG/1.1/DTD/svg11.dtd" >
<svg xmlns="http://www.w3.org/2000/svg" xmlns:xlink="http://www.w3.org/1999/xlink" version="1.1" viewBox="-10 0 700 2048">
   <path fill="currentColor"
d="M84 1964q-36 0 -60 -26t-24 -62v-768q0 -32 24 -58t60 -26h512q36 0 60 26t24 58v768q0 36 -24 62t-60 26h-512zM168 940q-32 0 -58 -26t-26 -62v-404l48 -56q52 -68 96 -136q64 -96 92 -172l4 4q88 56 128 92q68 64 98 148t42 236q4 92 4 288q0 36 -26 62t-58 26h-344z
" />
</svg>
