<?xml version="1.0" standalone="no"?>
<!DOCTYPE svg PUBLIC "-//W3C//DTD SVG 1.1//EN" "http://www.w3.org/Graphics/SVG/1.1/DTD/svg11.dtd" >
<svg xmlns="http://www.w3.org/2000/svg" xmlns:xlink="http://www.w3.org/1999/xlink" version="1.1" viewBox="-10 0 1898 2048">
   <path fill="currentColor"
d="M1606 1216q20 28 52 46t68 18q64 0 108 -44t44 -106t-44 -106t-108 -44q-36 0 -68 18t-52 46h-72q0 -200 -120 -356l116 -116q76 12 132 -40q44 -44 44 -106t-44 -106t-106 -44t-106 44q-52 56 -40 132l-116 116q-120 -92 -272 -116v-116q32 -24 48 -56t16 -68
q0 -64 -42 -106t-106 -42t-106 42t-42 106q0 36 16 68t48 56v116q-116 20 -216 76l-92 -136q24 -76 -20 -136q-36 -52 -96 -62t-110 24t-62 96t24 110q44 64 124 64l100 144q-52 52 -92 124q-40 -16 -84 -8t-76 40q-40 44 -40 106t40 106q36 36 88 44q0 64 16 132l-112 32
q-60 -52 -136 -32q-60 16 -90 70t-14 114t70 90t110 14q76 -20 104 -92l128 -36q56 100 148 176l-92 172q-80 12 -116 80q-28 52 -10 112t72 90t112 12t90 -74q18 -34 18 -68t-18 -68l92 -168q108 40 224 40h16q-16 32 -16 76q4 64 52 104t108 36t102 -52t36 -112t-54 -104
q56 -24 112 -68l200 200q-12 80 40 136q48 40 108 40t106 -42t44 -104t-42 -110q-56 -52 -136 -40l-200 -200q68 -84 96 -184h96zM810 1044q-52 0 -90 -38t-38 -90t38 -90t90 -38t90 38t38 90t-38 90t-90 38zM1110 1300q-36 0 -62 -26t-26 -60t26 -60t60 -26t60 26t26 60
t-26 60t-58 26z" />
</svg>
