<?xml version="1.0" standalone="no"?>
<!DOCTYPE svg PUBLIC "-//W3C//DTD SVG 1.1//EN" "http://www.w3.org/Graphics/SVG/1.1/DTD/svg11.dtd" >
<svg xmlns="http://www.w3.org/2000/svg" xmlns:xlink="http://www.w3.org/1999/xlink" version="1.1" viewBox="-10 0 1900 2048">
   <path fill="currentColor"
d="M172 340h1196q68 0 118 50t50 122v1024q0 72 -50 122t-118 50h-1196q-72 0 -122 -50t-50 -122v-1024q0 -72 50 -122t122 -50zM172 684v340h512v-340h-512zM856 684v340h512v-340h-512zM172 1196v340h512v-340h-512zM856 1196v340h512v-340h-512zM1880 596h-172v512h172
v-512zM1880 1280h-172v172h172v-172z" />
</svg>
