<?xml version="1.0" standalone="no"?>
<!DOCTYPE svg PUBLIC "-//W3C//DTD SVG 1.1//EN" "http://www.w3.org/Graphics/SVG/1.1/DTD/svg11.dtd" >
<svg xmlns="http://www.w3.org/2000/svg" xmlns:xlink="http://www.w3.org/1999/xlink" version="1.1" viewBox="-10 0 1676 2048">
   <path fill="currentColor"
d="M1392 1468l264 264l-120 120l-268 -264q-92 60 -200 60q-160 0 -272 -112t-112 -272t112 -272t272 -112t272 112t112 272q0 112 -60 204zM1068 1476q88 0 150 -62t62 -150t-62 -150t-150 -62t-152 62t-64 150t64 150t152 62zM1536 196v172h-1536v-172h1536zM0 1220v-168
h512v168h-512zM0 796v-172h1536v172h-172q-140 -88 -298 -88t-294 88h-772z" />
</svg>
