<?xml version="1.0" standalone="no"?>
<!DOCTYPE svg PUBLIC "-//W3C//DTD SVG 1.1//EN" "http://www.w3.org/Graphics/SVG/1.1/DTD/svg11.dtd" >
<svg xmlns="http://www.w3.org/2000/svg" xmlns:xlink="http://www.w3.org/1999/xlink" version="1.1" viewBox="-10 0 1640 2048">
   <path fill="currentColor"
d="M768 1450q0 -140 68 -258t186 -186t256 -68t258 68v-68l-176 -512q-16 -36 -48 -60t-76 -24h-936q-44 0 -76 24t-48 60l-176 512v684q0 32 26 58t58 26h88q32 0 58 -26t26 -58v-88h520q-8 -48 -8 -84zM300 470h936l128 384h-1192zM300 1278q-56 0 -92 -36t-36 -90t36 -92
t90 -38t92 38t38 92t-38 90t-90 36zM1364 1706v-172h-340v-168h340v-172l256 256z" />
</svg>
