<?xml version="1.0" standalone="no"?>
<!DOCTYPE svg PUBLIC "-//W3C//DTD SVG 1.1//EN" "http://www.w3.org/Graphics/SVG/1.1/DTD/svg11.dtd" >
<svg xmlns="http://www.w3.org/2000/svg" xmlns:xlink="http://www.w3.org/1999/xlink" version="1.1" viewBox="-10 0 1812 2048">
   <path fill="currentColor"
d="M1792 1812l-1684 -1684l-108 108l244 244l-140 244q-8 16 -6 30t14 26l180 140q-4 48 -4 84t4 84l-180 140q-12 12 -14 26t6 30l172 296q4 12 20 18t32 -2l212 -84q72 56 144 84l32 224q0 16 12 26t28 10h344q16 0 28 -10t12 -26l32 -224q60 -24 120 -68l392 392z
M928 1304q-124 0 -212 -88t-88 -212q0 -52 28 -112l384 384q-56 28 -112 28zM904 708l-268 -272l48 -24l32 -224q0 -16 12 -26t28 -10h344q16 0 28 10t12 26l32 224q72 28 144 84l212 -84q16 -8 32 -2t20 18l172 296q8 16 6 30t-14 26l-180 140q4 48 4 84t-4 84l180 140
q12 12 14 26t-6 30l-100 172l-428 -428q4 -8 4 -24q0 -124 -88 -212t-212 -88q-16 0 -24 4z" />
</svg>
