<?xml version="1.0" standalone="no"?>
<!DOCTYPE svg PUBLIC "-//W3C//DTD SVG 1.1//EN" "http://www.w3.org/Graphics/SVG/1.1/DTD/svg11.dtd" >
<svg xmlns="http://www.w3.org/2000/svg" xmlns:xlink="http://www.w3.org/1999/xlink" version="1.1" viewBox="-10 0 1716 2048">
   <path fill="currentColor"
d="M300 300q-44 0 -76 24t-48 60l-176 512v684q0 36 24 60t60 24h88q36 0 60 -24t24 -60v-88h452q-24 -84 -24 -168q0 -160 78 -296t210 -216h-800l128 -384h936l104 300q76 8 152 36l-132 -380q-16 -36 -48 -60t-76 -24h-936zM1196 896q-20 0 -24 16l-16 116q-40 16 -72 40
l-108 -44q-20 0 -24 12l-84 148q-12 16 4 28l88 68v42v42l-88 72q-16 12 -4 28l84 148q4 8 24 8l108 -40q40 24 72 40l16 112q4 16 24 16h168q20 0 20 -16l20 -112q32 -16 68 -40l108 40q20 0 28 -8l84 -148q8 -16 -4 -28l-92 -72l4 -40q0 -24 -4 -44l92 -68q12 -12 4 -28
l-88 -148q-4 -12 -24 -12l-108 44q-40 -32 -72 -40l-16 -116q0 -16 -20 -16h-168zM300 980q52 0 90 38t38 92t-38 90t-92 36t-90 -36t-36 -90t36 -92t92 -38zM1280 1196q52 0 90 36t38 90t-38 92t-90 38t-90 -38t-38 -92t38 -90t90 -36z" />
</svg>
