<?xml version="1.0" standalone="no"?>
<!DOCTYPE svg PUBLIC "-//W3C//DTD SVG 1.1//EN" "http://www.w3.org/Graphics/SVG/1.1/DTD/svg11.dtd" >
<svg xmlns="http://www.w3.org/2000/svg" xmlns:xlink="http://www.w3.org/1999/xlink" version="1.1" viewBox="-10 0 1888 2048">
   <path fill="currentColor"
d="M172 170h1196q68 0 118 50t50 122v604q-96 -16 -192 4t-176 72h-312v344h92q-16 84 0 168h-776q-72 0 -122 -50t-50 -118v-1024q0 -72 50 -122t122 -50zM172 510v344h512v-344h-512zM856 510v344h512v-344h-512zM172 1022v344h512v-344h-512zM1860 1562l-92 -68l4 -44
q0 -24 -4 -44l92 -68q12 -12 4 -28l-84 -148q-8 -12 -28 -12l-104 44h-4q-44 -32 -68 -40l-20 -112q0 -20 -20 -20h-168q-20 0 -24 20l-16 112q-36 16 -72 40l-104 -44q-20 0 -28 12l-84 148q-8 16 4 28l92 68q-4 24 -4 44t4 44l-92 68q-12 12 -4 28l84 148q4 12 28 12
l104 -44q40 28 72 40l16 112q4 20 24 20h168q20 0 24 -20l16 -112q28 -12 72 -40l104 44q20 0 28 -12l84 -148q8 -16 -4 -28zM1452 1578q-52 0 -90 -38t-38 -90t38 -90t90 -38t90 38t38 90t-38 90t-90 38z" />
</svg>
