<?xml version="1.0" standalone="no"?>
<!DOCTYPE svg PUBLIC "-//W3C//DTD SVG 1.1//EN" "http://www.w3.org/Graphics/SVG/1.1/DTD/svg11.dtd" >
<svg xmlns="http://www.w3.org/2000/svg" xmlns:xlink="http://www.w3.org/1999/xlink" version="1.1" viewBox="-10 0 1812 2048">
   <path fill="currentColor"
d="M1792 1812l-1684 -1684l-108 108l244 244l-140 244q-8 16 -6 30t14 26l180 140l-4 84l4 84l-180 140q-12 12 -14 26t6 30l172 296q4 12 20 18t32 -2l212 -84q72 56 144 84l32 224q0 16 12 26t28 10h344q16 0 28 -10t12 -26l32 -224q52 -20 120 -68l392 392zM756 996
l180 180h-8q-72 0 -122 -50t-50 -122v-8zM1024 1464l-32 224h-128l-32 -224q-152 -32 -256 -152l-208 88l-64 -108l180 -136q-52 -152 0 -304l-180 -132l64 -112h4l248 252q-32 68 -32 144q0 140 100 240t240 100q80 0 144 -32l96 96q-68 40 -144 56zM764 564l-132 -128
l52 -24l32 -224q0 -16 12 -26t28 -10h344q16 0 28 10t12 26l32 224q72 28 144 84l212 -84q16 -8 32 -2t20 18l172 296q8 16 6 30t-14 26l-180 140l4 84l-4 84l180 140q12 12 14 26t-6 30l-100 172l-124 -124l24 -40l-180 -132q52 -156 0 -308l180 -132l-64 -112l-204 88
q-104 -120 -260 -152l-32 -224h-128l-32 224q-40 8 -68 20zM928 664q140 0 240 100t100 240q0 28 -4 64l-400 -400q36 -4 64 -4z" />
</svg>
