<?xml version="1.0" standalone="no"?>
<!DOCTYPE svg PUBLIC "-//W3C//DTD SVG 1.1//EN" "http://www.w3.org/Graphics/SVG/1.1/DTD/svg11.dtd" >
<svg xmlns="http://www.w3.org/2000/svg" xmlns:xlink="http://www.w3.org/1999/xlink" version="1.1" viewBox="-10 0 1812 2048">
   <path fill="currentColor"
d="M1236 1262l208 124l-64 108l-272 -156v-316h128v240zM1536 790v-448q0 -72 -50 -122t-122 -50h-1196q-68 0 -118 50t-50 122v1024q0 68 50 118t118 50h488q72 156 216 250t320 94q164 0 302 -80t218 -218t80 -302q0 -148 -70 -276t-186 -212zM1364 510v196
q-88 -24 -172 -24q-188 0 -340 108v-280h512zM168 510h512v344h-512v-344zM168 1366v-344h488q-60 124 -60 256q0 40 8 88h-436zM1192 1706q-116 0 -214 -58t-154 -156t-56 -214t56 -214t154 -154t214 -56t214 56t156 154t58 214t-58 214t-156 156t-214 58z" />
</svg>
