<?xml version="1.0" standalone="no"?>
<!DOCTYPE svg PUBLIC "-//W3C//DTD SVG 1.1//EN" "http://www.w3.org/Graphics/SVG/1.1/DTD/svg11.dtd" >
<svg xmlns="http://www.w3.org/2000/svg" xmlns:xlink="http://www.w3.org/1999/xlink" version="1.1" viewBox="-10 0 1556 2048">
   <path fill="currentColor"
d="M588 564l-68 68l104 100q-68 44 -96 120h-188v88h172v84h-172v84h172v88h-172v84h188q28 76 92 124t148 48t148 -48t92 -124h188v-84h-172v-88h172v-84h-172v-84h172v-88h-188q-24 -72 -96 -128l104 -100l-60 -60l-120 120h-68q-44 0 -60 8zM684 940h168v84h-168v-84z
M684 1108h168v88h-168v-88zM1536 940q0 232 -100 446t-274 368t-394 210q-220 -56 -394 -210t-274 -368t-100 -446v-512l768 -344l768 344v512zM768 1792q160 -40 298 -170t218 -308t80 -358v-420l-596 -264l-596 264v420q0 180 80 358t218 308t298 170z" />
</svg>
