<?xml version="1.0" standalone="no"?>
<!DOCTYPE svg PUBLIC "-//W3C//DTD SVG 1.1//EN" "http://www.w3.org/Graphics/SVG/1.1/DTD/svg11.dtd" >
<svg xmlns="http://www.w3.org/2000/svg" xmlns:xlink="http://www.w3.org/1999/xlink" version="1.1" viewBox="-10 0 1900 2048">
   <path fill="currentColor"
d="M8 256l308 300q-144 100 -144 256q0 72 44 144q-96 24 -156 102t-60 178q0 156 148 256q-60 60 -60 172q0 120 88 210t208 90h1112q88 0 176 -60l60 60l112 -112l-1724 -1708zM700 940h-228q-52 0 -90 -40t-38 -86t28 -82t72 -48zM684 1792h-300q-48 0 -88 -38t-40 -90
t40 -90t88 -38h300v256zM700 1364h-400q-52 0 -90 -38t-38 -88t38 -90t90 -40h572l84 88h-16q-84 0 -148 46t-92 122zM1496 1792h-300v-256h104l244 248q-16 8 -48 8zM520 332l-116 -120q36 -56 100 -92t136 -36h600q120 0 208 90t88 210q0 72 -40 144q96 28 154 104t58 180
q0 72 -44 144q92 32 154 110t62 170q0 156 -148 256q40 52 52 104l-228 -232h24q52 0 90 -38t38 -88t-38 -90t-90 -40h-280l-172 -168h280q52 0 90 -40t38 -90t-38 -88t-90 -38h-536l-172 -172h540q48 0 88 -38t40 -90t-40 -90t-88 -38h-600q-36 0 -70 22t-50 54z" />
</svg>
