<?xml version="1.0" standalone="no"?>
<!DOCTYPE svg PUBLIC "-//W3C//DTD SVG 1.1//EN" "http://www.w3.org/Graphics/SVG/1.1/DTD/svg11.dtd" >
<svg xmlns="http://www.w3.org/2000/svg" xmlns:xlink="http://www.w3.org/1999/xlink" version="1.1" viewBox="-10 0 1640 2048">
   <path fill="currentColor"
d="M1236 1064q-76 0 -146 30t-124 84t-84 124t-30 146q0 160 114 272t272 112t270 -112t112 -272q0 -76 -28 -146t-82 -124t-126 -84t-148 -30zM1236 1192q108 0 182 76t74 180q0 72 -36 128l-348 -348q60 -32 128 -36zM1016 1320l348 348q-56 36 -128 36q-104 0 -180 -74
t-76 -182q4 -68 36 -128zM768 128q-72 0 -122 50t-50 118v28q-184 52 -304 210t-120 362v512l-172 168v88h724q-40 -104 -40 -216q0 -148 74 -276t202 -202t276 -74q68 0 128 16v-16q0 -204 -120 -362t-304 -210v-28q0 -68 -50 -118t-122 -50zM596 1748q0 72 50 122t118 50
t116 -44q-64 -56 -108 -128h-176z" />
</svg>
