<?xml version="1.0" standalone="no"?>
<!DOCTYPE svg PUBLIC "-//W3C//DTD SVG 1.1//EN" "http://www.w3.org/Graphics/SVG/1.1/DTD/svg11.dtd" >
<svg xmlns="http://www.w3.org/2000/svg" xmlns:xlink="http://www.w3.org/1999/xlink" version="1.1" viewBox="-10 0 1812 2048">
   <path fill="currentColor"
d="M1792 1820l-1680 -1692l-112 112l256 256q-84 104 -130 236t-46 276q0 72 50 122t118 50h692l84 84h-348l-112 384q-16 68 20 130t100 74l52 8h400q72 0 122 -50t50 -118l-8 -44l-28 -84l-16 -80l436 436zM248 1008q0 -208 128 -392l60 60q-16 52 -16 76q0 72 50 122
t122 50q24 0 76 -20l100 104h-520zM736 1692l24 -88l52 -168h256l76 256h-408zM1272 924q-68 0 -118 -50t-50 -122t50 -122t120 -50t120 50t50 122t-50 122t-122 50zM608 412l-128 -128q228 -128 456 -128t424 114t310 310t114 428q0 72 -50 122t-118 50h-240l-172 -172h412
q0 -236 -146 -422t-366 -242q-8 64 -58 108t-114 44t-114 -44t-58 -108q-88 28 -152 68z" />
</svg>
