<?xml version="1.0" standalone="no"?>
<!DOCTYPE svg PUBLIC "-//W3C//DTD SVG 1.1//EN" "http://www.w3.org/Graphics/SVG/1.1/DTD/svg11.dtd" >
<svg xmlns="http://www.w3.org/2000/svg" xmlns:xlink="http://www.w3.org/1999/xlink" version="1.1" viewBox="-10 0 1300 2048">
   <path fill="currentColor"
d="M640 340q96 0 208 160q108 148 184 362t76 374q0 128 -62 236t-170 172t-236 64t-236 -64t-170 -172t-62 -236q0 -160 76 -374t184 -362q112 -160 208 -160zM640 172q-164 0 -324 196q-136 172 -228 436q-88 248 -88 432q0 176 86 322t234 232t320 86t320 -86t234 -232
t86 -322q0 -184 -88 -432q-92 -264 -228 -436q-160 -196 -324 -196z" />
</svg>
