<?xml version="1.0" standalone="no"?>
<!DOCTYPE svg PUBLIC "-//W3C//DTD SVG 1.1//EN" "http://www.w3.org/Graphics/SVG/1.1/DTD/svg11.dtd" >
<svg xmlns="http://www.w3.org/2000/svg" xmlns:xlink="http://www.w3.org/1999/xlink" version="1.1" viewBox="-10 0 1812 2048">
   <path fill="currentColor"
d="M1792 1820l-1680 -1692l-112 112l652 648q-60 144 -96 204q-128 16 -218 112t-90 234t100 238t240 100t232 -92q-60 -136 -60 -250t60 -246q-40 -44 -128 -76l60 -128l248 244q-68 96 -68 208q0 140 100 240t240 100q116 0 196 -68l216 212zM592 1308q-52 0 -90 38
t-38 90h-88q0 -92 62 -154t154 -62v88zM1144 1436h-84q0 -60 24 -112l68 68q-8 16 -8 44zM1616 1416l-324 -324q128 8 222 102t102 222zM872 676l-104 -104q96 -280 96 -416l120 -8q4 16 8 64l8 64q64 -12 160 8q140 36 268 136q144 104 172 312q12 100 -4 184h-32
q-48 0 -96 -8q-72 -12 -140 -40q-88 -36 -164 -100l-80 -76q40 148 96 292l-196 -196q-28 -88 -60 -256q-36 100 -52 144z" />
</svg>
