<?xml version="1.0" standalone="no"?>
<!DOCTYPE svg PUBLIC "-//W3C//DTD SVG 1.1//EN" "http://www.w3.org/Graphics/SVG/1.1/DTD/svg11.dtd" >
<svg xmlns="http://www.w3.org/2000/svg" xmlns:xlink="http://www.w3.org/1999/xlink" version="1.1" viewBox="-10 0 1812 2048">
   <path fill="currentColor"
d="M1792 1816l-1680 -1692l-112 112l256 256q-84 104 -130 236t-46 276q0 72 50 122t118 50h692l84 84h-348l-112 384v44q0 68 50 118t122 50h400q72 0 122 -50t50 -118l-8 -44l-44 -152l436 432zM504 1004q-68 0 -118 -50t-50 -122q0 -52 30 -96t78 -64l224 220
q-20 52 -66 82t-98 30zM760 492q0 -72 50 -122t122 -50t122 50t50 122t-50 122t-122 50q-56 0 -112 -44l556 556h240q68 0 118 -50t50 -122q0 -232 -114 -428t-310 -310t-424 -114t-456 128l316 316q-36 -52 -36 -104zM1360 664q68 0 118 50t50 120t-50 120t-120 50
t-120 -50t-50 -120t50 -120t122 -50z" />
</svg>
