<?xml version="1.0" standalone="no"?>
<!DOCTYPE svg PUBLIC "-//W3C//DTD SVG 1.1//EN" "http://www.w3.org/Graphics/SVG/1.1/DTD/svg11.dtd" >
<svg xmlns="http://www.w3.org/2000/svg" xmlns:xlink="http://www.w3.org/1999/xlink" version="1.1" viewBox="-10 0 1812 2048">
   <path fill="currentColor"
d="M1792 1816l-1680 -1692l-112 112l412 408q-300 388 -232 1112q188 16 276 16q532 0 844 -240l392 392zM456 1600h-112q-28 -544 188 -836l136 136q-72 112 -116 248q-28 100 -40 200l-8 84q116 -236 276 -420l392 392q-264 196 -716 196zM760 560l-128 -128
q292 -196 744 -196q180 0 300 24l12 100q12 128 8 256q-4 180 -44 336q-48 200 -148 352l-128 -128q104 -176 136 -416q20 -148 8 -344q-40 -8 -144 -8q-380 0 -616 152zM1000 800l-104 -104q176 -120 464 -120l-52 20q-60 28 -128 68q-92 60 -180 136z" />
</svg>
