<?xml version="1.0" standalone="no"?>
<!DOCTYPE svg PUBLIC "-//W3C//DTD SVG 1.1//EN" "http://www.w3.org/Graphics/SVG/1.1/DTD/svg11.dtd" >
<svg xmlns="http://www.w3.org/2000/svg" xmlns:xlink="http://www.w3.org/1999/xlink" version="1.1" viewBox="-10 0 1812 2048">
   <path fill="currentColor"
d="M1792 1820l-1680 -1692l-112 112l284 280q-124 148 -136 336q-48 32 -64 80t4 98t64 80t96 30q72 84 182 134t246 62q12 -160 112 -316l128 128q-68 112 -68 238t64 234t172 172t234 64t238 -68l128 128zM1016 1392q0 -56 28 -120l144 144l-144 104q-28 -64 -28 -128z
M1096 1588l152 -104l24 28v180q-116 -32 -176 -104zM1360 1684v-88l68 68l-16 8q-32 12 -52 12zM1616 1416v-24q0 -64 -28 -128l-76 52l-60 -60l84 -60q-60 -72 -176 -104v68l-208 -204q104 -32 164 -32q124 0 232 64t172 172t64 232q0 92 -32 164zM1016 820l-504 -504
q100 -60 224 -100q260 -92 504 -48t376 192q52 0 96 30t64 80t4 98t-64 80q0 104 -52 208q-172 -104 -348 -104q-148 0 -300 68z" />
</svg>
