<?xml version="1.0" standalone="no"?>
<!DOCTYPE svg PUBLIC "-//W3C//DTD SVG 1.1//EN" "http://www.w3.org/Graphics/SVG/1.1/DTD/svg11.dtd" >
<svg xmlns="http://www.w3.org/2000/svg" xmlns:xlink="http://www.w3.org/1999/xlink" version="1.1" viewBox="-10 0 1812 2048">
   <path fill="currentColor"
d="M1792 1816l-1680 -1692l-112 112l412 408q-300 388 -232 1112q188 16 276 16q532 0 844 -240l392 392zM504 1432q4 -44 8 -84q12 -100 40 -200q44 -136 116 -248l112 112q-160 184 -276 420zM896 696l-264 -264q292 -196 744 -196q180 0 300 24l12 100q12 128 8 256
q-4 180 -44 336q-48 200 -148 352l-504 -504q88 -76 180 -136q68 -40 128 -68l52 -20q-288 0 -464 120z" />
</svg>
