<?xml version="1.0" standalone="no"?>
<!DOCTYPE svg PUBLIC "-//W3C//DTD SVG 1.1//EN" "http://www.w3.org/Graphics/SVG/1.1/DTD/svg11.dtd" >
<svg xmlns="http://www.w3.org/2000/svg" xmlns:xlink="http://www.w3.org/1999/xlink" version="1.1" viewBox="-10 0 1775 2048">
   <path fill="currentColor"
d="M1170 1024.5q0 120.5 -85.5 206t-206.5 85.5t-207 -85.5t-86 -206t86 -206.5t207 -86t206.5 86t85.5 206.5zM1317 1024.5q0 -89.5 -35 -170.5t-93.5 -140t-140 -93.5t-170.5 -34.5t-170.5 34.5t-140 93.5t-93.5 140t-35 170.5t35 170.5t93.5 139.5t140 93t170.5 34.5
t170.5 -34.5t140 -93t93.5 -139.5t35 -170.5zM1463 1024.5q0 118.5 -46.5 227t-124.5 187t-186.5 125t-227.5 46.5t-227.5 -46.5t-186.5 -125t-124.5 -187t-46.5 -227t46.5 -227t124.5 -187.5t186.5 -125.5t227.5 -46.5t227.5 46.5t186.5 125.5t124.5 187.5t46.5 227z
M1609 1024.5q0 -148.5 -58 -284t-156 -233.5t-233.5 -156.5t-283.5 -58.5t-283.5 58.5t-234 156.5t-156.5 233.5t-58 284t58 284t156.5 233.5t234 156t283.5 58t283.5 -58t233.5 -156t156 -233.5t58 -284zM1755 1024.5q0 119.5 -31.5 233t-88 210t-137.5 177.5t-177 137.5
t-210 88t-233 31.5t-233 -31.5t-210.5 -88t-177.5 -137.5t-137.5 -177.5t-88 -210t-31.5 -233t31.5 -233.5t88 -210t137.5 -177t177.5 -137.5t210.5 -88.5t233 -32t233 32t210 88.5t177 137.5t137.5 177t88 210t31.5 233.5z" />
</svg>
