<?xml version="1.0" standalone="no"?>
<!DOCTYPE svg PUBLIC "-//W3C//DTD SVG 1.1//EN" "http://www.w3.org/Graphics/SVG/1.1/DTD/svg11.dtd" >
<svg xmlns="http://www.w3.org/2000/svg" xmlns:xlink="http://www.w3.org/1999/xlink" version="1.1" viewBox="-10 0 1724 2048">
   <path fill="currentColor"
d="M1192 1108q-68 0 -118 50t-50 122v256h-88q-76 0 -124 -12q-64 -12 -104 -52l-324 -324q-60 -60 -138 -92t-162 -32h-84v172h84q104 0 180 72l324 324q120 124 208 184t180 80q84 20 216 20h172q140 0 240 -100t100 -240v-256q0 -72 -50 -122t-118 -50h-344zM1024 616
h-128q-68 -8 -114 -56t-44 -114t46 -110t108 -40h4v-124q-120 0 -204 84t-84 202t84 202t204 84h128q68 -4 118 42t50 114v124h128v-140q-4 -116 -90 -196t-202 -72h-4zM1536 832v192h-128v-196q0 -140 -100 -240t-244 -100v-128q64 0 112 -48t48 -112q0 -16 -4 -28h128
q4 64 -16 124t-68 108q124 60 198 176t74 252z" />
</svg>
