<?xml version="1.0" standalone="no"?>
<!DOCTYPE svg PUBLIC "-//W3C//DTD SVG 1.1//EN" "http://www.w3.org/Graphics/SVG/1.1/DTD/svg11.dtd" >
<svg xmlns="http://www.w3.org/2000/svg" xmlns:xlink="http://www.w3.org/1999/xlink" version="1.1" viewBox="-10 0 1724 2048">
   <path fill="currentColor"
d="M1280 1196h168v256h256v168h-256v256h-168v-256h-256v-168h256v-256zM1536 1024q0 -212 -118 -384t-310 -248v36q0 68 -50 118t-122 50h-168v172q0 36 -26 60t-62 24h-168v172h512q32 0 54 20t30 48q-116 68 -186 186t-70 258q0 188 124 332l-124 8q-232 0 -428 -114
t-310 -310t-114 -428t114 -428t310 -310t428 -114t428 114t310 310t114 428l-8 124q-72 -64 -160 -96v-28zM768 1700v-164q-72 0 -122 -50t-50 -122v-84l-408 -408q-20 76 -20 152q0 172 80 318t216 242t304 116z" />
</svg>
