<?xml version="1.0" standalone="no"?>
<!DOCTYPE svg PUBLIC "-//W3C//DTD SVG 1.1//EN" "http://www.w3.org/Graphics/SVG/1.1/DTD/svg11.dtd" >
<svg xmlns="http://www.w3.org/2000/svg" xmlns:xlink="http://www.w3.org/1999/xlink" version="1.1" viewBox="-10 0 1640 2048">
   <path fill="currentColor"
d="M1620 1452v168h-680v-168h680zM172 256h1192q72 0 122 50t50 122v664q-80 -48 -172 -60v-604h-272q-8 64 -56 108t-116 44h-168v172q0 32 -26 58t-62 26h-168v172h512q28 0 50 14t30 38q-140 56 -228 182t-92 278q-84 0 -136 -50t-52 -122v-84l-408 -384v740h604
q12 92 60 172h-664q-72 0 -122 -50t-50 -122v-1192q0 -72 50 -122t122 -50z" />
</svg>
