<?xml version="1.0" standalone="no"?>
<!DOCTYPE svg PUBLIC "-//W3C//DTD SVG 1.1//EN" "http://www.w3.org/Graphics/SVG/1.1/DTD/svg11.dtd" >
<svg xmlns="http://www.w3.org/2000/svg" xmlns:xlink="http://www.w3.org/1999/xlink" version="1.1" viewBox="-10 0 1820 2048">
   <path fill="currentColor"
d="M1716 1223q32 36 48 76l8 16q44 108 18 222t-110 194q-72 68 -176 92q-96 24 -200 8q-92 -12 -174 -66t-130 -134q-32 -56 -44 -112q-12 -32 -20 -92q-4 -104 36 -204t116 -164q-36 80 -28 168t60 156l12 8q16 16 38 8t22 -32l-4 -20q-56 -148 -14 -304t162 -256
q76 -60 152 -80q-44 88 -30 190t86 166q20 24 72 64q36 28 52 44zM1524 1619l-4 -4q32 -24 46 -62t14 -78l-4 -28q-8 -36 -32 -68q-12 -20 -50 -52t-58 -58t-36 -62q-24 56 -12 128l8 40q16 64 12 100q-12 44 -46 80t-90 48q36 36 86 52t98 0q32 -8 68 -36zM596 1747v-256
h-596l424 -428h-256l428 -424h-256l428 -428l424 428h-256l156 152q-148 84 -236 236t-88 336q0 220 120 384h-292z" />
</svg>
