<?xml version="1.0" standalone="no"?>
<!DOCTYPE svg PUBLIC "-//W3C//DTD SVG 1.1//EN" "http://www.w3.org/Graphics/SVG/1.1/DTD/svg11.dtd" >
<svg xmlns="http://www.w3.org/2000/svg" xmlns:xlink="http://www.w3.org/1999/xlink" version="1.1" viewBox="-10 0 1772 2048">
   <path fill="currentColor"
d="M172 148q-72 0 -122 50t-50 122v1192q0 72 50 122t122 50h776q-8 -44 -8 -84q0 -88 28 -172h-796l296 -384l216 256l296 -384l192 252q128 -80 280 -80q40 0 84 8v-776q0 -72 -50 -122t-122 -50h-1192zM1148 1416l184 184l-184 180l120 120l184 -180l180 180l120 -120
l-180 -180l180 -184l-120 -120l-180 184l-184 -184z" />
</svg>
