<?xml version="1.0" standalone="no"?>
<!DOCTYPE svg PUBLIC "-//W3C//DTD SVG 1.1//EN" "http://www.w3.org/Graphics/SVG/1.1/DTD/svg11.dtd" >
<svg xmlns="http://www.w3.org/2000/svg" xmlns:xlink="http://www.w3.org/1999/xlink" version="1.1" viewBox="-10 0 1812 2048">
   <path fill="currentColor"
d="M1684 1920l-236 -232h-8v-12l-84 -84v96h-428v-108q40 -24 64 -64q32 -60 14 -128t-78 -104v-108h8l-936 -940l108 -108l1684 1684zM1140 808h128q68 -4 118 44t54 116v120h128v-140q-4 -116 -90 -194t-206 -74h-132q-64 -4 -110 -54t-46 -114t46 -108t106 -44h4v-124
q-116 0 -200 84t-84 202t84 202t200 84zM1652 892v8v188h128v-188q0 -140 -72 -256t-196 -176h-4q48 -44 70 -106t14 -126h-124v28q0 68 -46 114t-110 46v128q140 0 240 100t100 240zM696 1344q24 -36 60 -60v-108h-424q-108 0 -182 74t-74 180t76 182t180 76h424v-108
q-60 -36 -78 -104t18 -132zM1440 1244l128 128v-196h-128v68zM1652 1456l128 128v-408h-128v280zM844 1344q-36 0 -62 26t-26 60t26 60t60 26t60 -26t26 -60t-26 -60t-58 -26z" />
</svg>
