<?xml version="1.0" standalone="no"?>
<!DOCTYPE svg PUBLIC "-//W3C//DTD SVG 1.1//EN" "http://www.w3.org/Graphics/SVG/1.1/DTD/svg11.dtd" >
<svg xmlns="http://www.w3.org/2000/svg" xmlns:xlink="http://www.w3.org/1999/xlink" version="1.1" viewBox="-10 0 1724 2048">
   <path fill="currentColor"
d="M1548 1089q116 -120 146 -278t-32 -310t-206 -244q-128 -84 -286 -86t-286 82q-112 72 -174 178t-74 226q-20 180 -132 296l-4 4q-72 72 -74 172t70 168l84 84q68 72 168 72t168 -72q120 -120 308 -140t324 -152zM364 1697q16 36 10 76t-38 68q-36 36 -88 36t-88 -36
t-40 -84q-48 -4 -84 -40t-36 -88t36 -88q28 -32 68 -38t76 10l212 -204h4q24 36 36 48l88 84q28 32 56 44z" />
</svg>
