<?xml version="1.0" standalone="no"?>
<!DOCTYPE svg PUBLIC "-//W3C//DTD SVG 1.1//EN" "http://www.w3.org/Graphics/SVG/1.1/DTD/svg11.dtd" >
<svg xmlns="http://www.w3.org/2000/svg" xmlns:xlink="http://www.w3.org/1999/xlink" version="1.1" viewBox="-10 0 1812 2048">
   <path fill="currentColor"
d="M1684 1920l-304 -304l-404 224q-20 16 -48 16t-48 -16l-676 -376q-44 -24 -44 -76v-768q0 -52 44 -76l68 -36l-272 -272l108 -108l1684 1684zM928 336l508 284l-396 224l616 616q40 -24 40 -72v-768q0 -52 -44 -76l-676 -376q-20 -16 -48 -16t-48 16l-332 184l124 124z
" />
</svg>
