<?xml version="1.0" standalone="no"?>
<!DOCTYPE svg PUBLIC "-//W3C//DTD SVG 1.1//EN" "http://www.w3.org/Graphics/SVG/1.1/DTD/svg11.dtd" >
<svg xmlns="http://www.w3.org/2000/svg" xmlns:xlink="http://www.w3.org/1999/xlink" version="1.1" viewBox="-10 0 1724 2048">
   <path fill="currentColor"
d="M852 172q232 0 428 114t310 310t114 428t-114 428t-310 310t-428 114t-428 -114t-310 -310t-114 -428t114 -428t310 -310t428 -114zM1100 1092q-68 0 -120 42t-68 110q-60 -28 -120 -4q-16 -64 -68 -106t-120 -42q-80 0 -138 56t-58 136t58 138t136 58t132 -52t62 -128
q56 -36 112 4q8 72 62 124t132 52t136 -58t58 -138t-58 -136t-138 -56zM604 1148q56 0 96 40t40 98t-40 98t-98 40t-98 -40t-40 -98t40 -98t100 -40zM1100 1148q60 0 100 40t40 98t-40 98t-98 40t-98 -40t-40 -98t40 -98t96 -40zM1348 980h-992v60h992v-60zM1036 588
q-12 -20 -30 -28t-38 -4l-116 40l-116 -40h-4q-20 -4 -38 6t-26 30l-128 332h624z" />
</svg>
