<?xml version="1.0" standalone="no"?>
<!DOCTYPE svg PUBLIC "-//W3C//DTD SVG 1.1//EN" "http://www.w3.org/Graphics/SVG/1.1/DTD/svg11.dtd" >
<svg xmlns="http://www.w3.org/2000/svg" xmlns:xlink="http://www.w3.org/1999/xlink" version="1.1" viewBox="-10 0 1812 2048">
   <path fill="currentColor"
d="M1684 1920l-100 -96q-68 32 -144 32h-172q-132 0 -216 -20q-92 -20 -180 -80t-208 -184l-324 -324q-76 -72 -180 -72h-84v-172h84q84 0 162 32t138 92l324 324q40 40 104 52q48 12 124 12h88v-180l-1100 -1100l108 -108l1684 1684zM1776 1580q4 -36 4 -64v-256
q0 -72 -50 -122t-118 -50h-324zM1484 808v4v192h128v-192q0 -136 -74 -252t-198 -176q48 -48 68 -108t16 -124h-128q4 12 4 28q0 64 -48 112t-112 48v128q144 0 244 100t100 240zM912 716q28 8 60 8h128q68 -4 118 42t50 114v124h128v-140q-4 -116 -90 -196t-202 -72h-132
q-68 -8 -114 -56t-44 -114t46 -110t108 -40h4v-124q-120 0 -204 84t-84 200q0 32 8 56z" />
</svg>
