<?xml version="1.0" standalone="no"?>
<!DOCTYPE svg PUBLIC "-//W3C//DTD SVG 1.1//EN" "http://www.w3.org/Graphics/SVG/1.1/DTD/svg11.dtd" >
<svg xmlns="http://www.w3.org/2000/svg" xmlns:xlink="http://www.w3.org/1999/xlink" version="1.1" viewBox="-10 0 1812 2048">
   <path fill="currentColor"
d="M1792 1812l-1684 -1684l-108 108l436 440q-20 36 -20 72v468l300 300v256h424v-256l72 -68l472 472zM1020 1396l-36 36h-112l-284 -284v-324l500 504zM944 748l-168 -172h324v-340h168v340q64 0 118 54t54 118v468l-12 16l-160 -160v-316v-4l-4 -4h-320zM756 560
l-168 -172v-152h168v324z" />
</svg>
