<?xml version="1.0" standalone="no"?>
<!DOCTYPE svg PUBLIC "-//W3C//DTD SVG 1.1//EN" "http://www.w3.org/Graphics/SVG/1.1/DTD/svg11.dtd" >
<svg xmlns="http://www.w3.org/2000/svg" xmlns:xlink="http://www.w3.org/1999/xlink" version="1.1" viewBox="-10 0 1812 2048">
   <path fill="currentColor"
d="M1792 1812l-1684 -1684l-108 108l252 252q-176 228 -176 516q0 232 114 428t310 310t428 114q288 0 516 -176l240 240zM668 904h-52l12 -36zM432 960h292l56 60h-348v-60zM1176 1460q-76 0 -130 -52t-62 -124q-56 -40 -112 -4q-8 76 -62 128t-132 52t-136 -58t-58 -138
t58 -136t138 -56q68 0 120 42t68 106q56 -24 116 0l56 56q4 52 40 88t84 40l52 48q-24 8 -40 8zM752 556l-276 -276q208 -128 452 -128q232 0 428 114t310 310t114 428q0 244 -128 452l-436 -436h208v-60h-264l-60 -56h140l-128 -336q-12 -20 -30 -28t-38 -4l-116 40
l-116 -40h-4q-32 -8 -56 20zM816 1264q0 60 -40 100t-98 40t-98 -40t-40 -98t40 -98t98 -40t98 40t40 96z" />
</svg>
