<?xml version="1.0" standalone="no"?>
<!DOCTYPE svg PUBLIC "-//W3C//DTD SVG 1.1//EN" "http://www.w3.org/Graphics/SVG/1.1/DTD/svg11.dtd" >
<svg xmlns="http://www.w3.org/2000/svg" xmlns:xlink="http://www.w3.org/1999/xlink" version="1.1" viewBox="-10 0 1212 2048">
   <path fill="currentColor"
d="M84 596v856h596v-856h-596zM352 1364v-264h-148l212 -416v268h144zM768 172v340h-768v-340q0 -36 24 -62t60 -26h596q36 0 62 26t26 62zM768 1536v340q0 36 -26 62t-62 26h-596q-36 0 -60 -26t-24 -62v-340h768zM1192 1108h-168v-512h168v512zM1192 1452h-168v-172h168
v172z" />
</svg>
