<?xml version="1.0" standalone="no"?>
<!DOCTYPE svg PUBLIC "-//W3C//DTD SVG 1.1//EN" "http://www.w3.org/Graphics/SVG/1.1/DTD/svg11.dtd" >
<svg xmlns="http://www.w3.org/2000/svg" xmlns:xlink="http://www.w3.org/1999/xlink" version="1.1" viewBox="-10 0 1800 2048">
   <path fill="currentColor"
d="M108 160l-108 108l176 176q-100 128 -100 292q0 156 92 312q80 136 252 312q108 112 384 360l124 112l332 -300l352 356l108 -108zM936 1596l-8 8l-8 -8q-256 -232 -356 -332q-160 -160 -236 -276q-84 -132 -84 -252q0 -96 52 -168l844 840zM612 448l-168 -168
q52 -12 100 -12q112 0 212 48t172 128q72 -80 172 -128t212 -48q128 0 236 62t170 170t62 236q0 144 -80 288q-68 132 -220 292l-120 -120q124 -136 184 -240q68 -116 68 -220q0 -128 -86 -212t-214 -84q-88 0 -168 46t-120 122h-192q-32 -60 -90 -102t-130 -58z" />
</svg>
