<?xml version="1.0" standalone="no"?>
<!DOCTYPE svg PUBLIC "-//W3C//DTD SVG 1.1//EN" "http://www.w3.org/Graphics/SVG/1.1/DTD/svg11.dtd" >
<svg xmlns="http://www.w3.org/2000/svg" xmlns:xlink="http://www.w3.org/1999/xlink" version="1.1" viewBox="-10 0 1888 2048">
   <path fill="currentColor"
d="M876 746h308v152h-152zM1584 130h-116q0 108 54 200t146 146t200 54v-116q-120 0 -202 -82t-82 -202zM1696 130q0 72 50 122t122 50v-172h-172zM1356 130h-116q0 172 84 316t228 228t316 84v-116q-140 0 -258 -68t-186 -186t-68 -258zM756 370q64 0 110 -44t46 -108
t-46 -110t-110 -46t-108 46t-44 110t44 108t108 44zM108 194l-108 108l200 200l-124 40v444h152v-316l108 -32l52 52l-312 1232h152l244 -692l200 268v424h152v-544l-212 -388l16 -60l1056 1056l108 -108zM704 462q-20 -32 -52 -52t-72 -20q-20 0 -44 8h-4l340 344z" />
</svg>
