<?xml version="1.0" standalone="no"?>
<!DOCTYPE svg PUBLIC "-//W3C//DTD SVG 1.1//EN" "http://www.w3.org/Graphics/SVG/1.1/DTD/svg11.dtd" >
<svg xmlns="http://www.w3.org/2000/svg" xmlns:xlink="http://www.w3.org/1999/xlink" version="1.1" viewBox="-10 0 1812 2048">
   <path fill="currentColor"
d="M1684 1920l-300 -300l-28 152h-856l-92 -468l156 -92l76 388h576l24 -124l-540 -540l-432 248q-32 16 -66 8t-52 -38t-8 -64t42 -54l388 -224l-124 -128l-148 88l-56 -280h-84v-96l-160 -160l108 -108l1684 1684zM1436 492l-124 624l144 144l156 -768h84v-172h-1176
l168 172h748zM884 632l-36 20l124 124q28 -16 38 -50t-8 -64t-52 -40t-66 10z" />
</svg>
