<?xml version="1.0" standalone="no"?>
<!DOCTYPE svg PUBLIC "-//W3C//DTD SVG 1.1//EN" "http://www.w3.org/Graphics/SVG/1.1/DTD/svg11.dtd" >
<svg xmlns="http://www.w3.org/2000/svg" xmlns:xlink="http://www.w3.org/1999/xlink" version="1.1" viewBox="-10 0 1775 2048">
   <path fill="currentColor"
d="M585 1462.5q0 -60.5 -42.5 -103.5t-103.5 -43t-103.5 43t-42.5 103.5t42.5 104t103.5 43.5t103.5 -43.5t42.5 -104zM986 1570q-7 -130 -61 -248t-140.5 -205t-204.5 -140.5t-249 -60.5q-15 -2 -27 10q-11 10 -11 26v146q0 15 10 25.5t24 10.5q115 9 213 69t158.5 158
t68.5 213q1 15 11.5 25.5t24.5 10.5h147q14 0 26 -12t10 -28zM1425 1572q-5 -147 -47 -286.5t-113.5 -258t-172 -219t-219 -172t-258 -113.5t-285.5 -47q-16 -1 -26 10q-11 12 -11 28v146q0 14 10.5 25t24.5 11q175 7 334.5 78.5t276.5 188.5t189 276.5t78 334.5
q1 14 11.5 25t24.5 11h147q14 0 26 -12q12 -11 10 -26zM1755 476v1096q0 90 -44 166t-119.5 120t-165.5 44h-1097q-90 0 -165.5 -44t-119.5 -120t-44 -166v-1096q0 -90 44 -166t119.5 -120t165.5 -44h1097q90 0 165.5 44t119.5 120t44 166z" />
</svg>
