<?xml version="1.0" standalone="no"?>
<!DOCTYPE svg PUBLIC "-//W3C//DTD SVG 1.1//EN" "http://www.w3.org/Graphics/SVG/1.1/DTD/svg11.dtd" >
<svg xmlns="http://www.w3.org/2000/svg" xmlns:xlink="http://www.w3.org/1999/xlink" version="1.1" viewBox="-10 0 1812 2048">
   <path fill="currentColor"
d="M1684 1920l-300 -300l-28 152h-856l-100 -516l392 -228l-92 -92l-432 248q-32 16 -66 8t-52 -38t-8 -64t42 -54l388 -224l-92 -96l-168 100l-68 -324h-84v-96l-160 -160l108 -108l1684 1684zM816 524q52 -32 112 -32q88 0 150 62t62 150q0 100 -76 164l392 392l156 -768
h84v-172h-1176l236 240zM884 632l-36 20l124 124q28 -16 38 -50t-8 -64t-52 -40t-66 10z" />
</svg>
