<?xml version="1.0" standalone="no"?>
<!DOCTYPE svg PUBLIC "-//W3C//DTD SVG 1.1//EN" "http://www.w3.org/Graphics/SVG/1.1/DTD/svg11.dtd" >
<svg xmlns="http://www.w3.org/2000/svg" xmlns:xlink="http://www.w3.org/1999/xlink" version="1.1" viewBox="-10 0 1775 2048">
   <path fill="currentColor"
d="M878 146q119 0 233 32t210 88.5t177 137.5t137.5 177t88 210t31.5 233.5t-31.5 233t-88 210t-137.5 177.5t-177 137.5t-210 88t-233 31.5t-233 -31.5t-210.5 -88t-177.5 -137.5t-137.5 -177.5t-88 -210t-31.5 -233t31.5 -233.5t88 -210t137.5 -177t177.5 -137.5
t210.5 -88.5t233 -32zM1317 1086q36 -20 36 -62t-36 -62l-622 -366q-35 -23 -73 -2q-37 23 -37 64v732q0 41 37 64q16 8 36 8q21 0 37 -10z" />
</svg>
