<?xml version="1.0" standalone="no"?>
<!DOCTYPE svg PUBLIC "-//W3C//DTD SVG 1.1//EN" "http://www.w3.org/Graphics/SVG/1.1/DTD/svg11.dtd" >
<svg xmlns="http://www.w3.org/2000/svg" xmlns:xlink="http://www.w3.org/1999/xlink" version="1.1" viewBox="-10 0 1704 2048">
   <path fill="currentColor"
d="M1344 1214q148 0 240 104l100 -104v344h-340l152 -156q-72 -60 -152 -60q-88 0 -150 62t-62 152t62 152t150 62q100 0 172 -84h144q-40 96 -124 154t-192 58q-140 0 -240 -100t-100 -242t100 -242t240 -100zM808 1686h-36l-32 -224q-144 -24 -256 -152l-208 84l-68 -112
l180 -136q-52 -152 0 -308l-180 -116l68 -112l208 84q100 -116 256 -152l24 -224h128l32 224q76 12 144 54t112 98l208 -84l68 112l-180 128q24 76 24 152h44q44 0 128 16v-16l-8 -84l180 -136q20 -24 8 -52l-172 -300q-4 -16 -16 -20t-36 -4l-212 84q-44 -36 -144 -84
l-36 -232q8 -4 -6 -14t-26 -10h-344q-12 0 -26 10t-14 22l-36 232q-32 8 -88 44l-56 32l-204 -84q-24 0 -36 4t-24 20l-172 300q-12 20 16 52l180 136l-8 84l8 84l-180 148q-20 20 -8 48l172 300q4 12 16 14t36 2l212 -84q44 36 144 84l36 232q0 12 12 22t28 10h216
q-28 -36 -48 -88q-12 -28 -28 -88zM1172 1026v-24q0 -140 -100 -240t-240 -100t-240 100t-100 240t100 240t240 100q44 -108 136 -192t204 -124zM660 1002q0 -72 50 -122t122 -50t122 50t50 122t-50 122t-122 50t-122 -50t-50 -122z" />
</svg>
