<?xml version="1.0" standalone="no"?>
<!DOCTYPE svg PUBLIC "-//W3C//DTD SVG 1.1//EN" "http://www.w3.org/Graphics/SVG/1.1/DTD/svg11.dtd" >
<svg xmlns="http://www.w3.org/2000/svg" xmlns:xlink="http://www.w3.org/1999/xlink" version="1.1" viewBox="-10 0 1704 2048">
   <path fill="currentColor"
d="M1344 1214q148 0 240 104l100 -104v344h-340l152 -156q-72 -60 -152 -60q-88 0 -150 62t-62 152t62 152t150 62q100 0 172 -84h144q-40 96 -124 154t-192 58q-140 0 -240 -100t-100 -242t100 -242t240 -100zM788 1558q0 -124 60 -256h-16q-120 0 -210 -90t-90 -210
t90 -210t210 -90t210 90t90 210q0 36 -8 44q112 -44 220 -44q44 0 128 16v-16q0 -60 -8 -84l180 -136q20 -24 8 -52l-172 -300q-4 -16 -16 -20t-36 -4l-212 84q-44 -36 -144 -84l-36 -232q8 -4 -6 -14t-26 -10h-344q-12 0 -26 10t-14 22l-36 232q-32 8 -88 44l-56 32
l-204 -84q-24 0 -36 4t-24 20l-172 300q-12 20 16 52l180 136q0 12 -4 42t-4 42q0 60 8 84l-180 148q-20 20 -8 48l172 300q4 12 16 14t36 2l212 -84q44 36 144 84l36 232q0 12 12 22t28 10h216q-96 -144 -96 -304z" />
</svg>
