<?xml version="1.0" standalone="no"?>
<!DOCTYPE svg PUBLIC "-//W3C//DTD SVG 1.1//EN" "http://www.w3.org/Graphics/SVG/1.1/DTD/svg11.dtd" >
<svg xmlns="http://www.w3.org/2000/svg" xmlns:xlink="http://www.w3.org/1999/xlink" version="1.1" viewBox="-10 0 1723 2048">
   <path fill="currentColor"
d="M692 1534q12 96 52 172h-572q-72 0 -122 -50t-50 -122v-1192q0 -72 50 -122t122 -50h1024l340 340v404q-76 -40 -172 -52v-284l-236 -236h-956v1192h520zM768 938q-108 0 -182 74t-74 182q0 84 46 148t126 92q4 -140 64 -258t164 -194q-72 -44 -144 -44zM1024 766v-340
h-768v340h768zM1688 1586l-84 144q-8 12 -24 12l-104 -36l-68 44l-16 108q0 8 -6 14t-14 6h-168q-8 0 -28 -20l-16 -108q-36 -16 -68 -44l-104 44q-16 0 -24 -8l-84 -148q-8 -8 8 -24l92 -68v-88l-92 -68q-8 -8 -8 -24l84 -144q8 -8 24 -8l104 40l68 -40l16 -112
q0 -16 28 -16h168q8 0 14 4t6 12l16 112q24 8 76 40l104 -40q24 0 24 8l88 144q8 8 -12 24l-92 68v88l92 68q8 0 8 6t-8 10zM1408 1450q0 -52 -38 -90t-90 -38t-90 38t-38 90t38 90t90 38t90 -38t38 -90z" />
</svg>
