<?xml version="1.0" standalone="no"?>
<!DOCTYPE svg PUBLIC "-//W3C//DTD SVG 1.1//EN" "http://www.w3.org/Graphics/SVG/1.1/DTD/svg11.dtd" >
<svg xmlns="http://www.w3.org/2000/svg" xmlns:xlink="http://www.w3.org/1999/xlink" version="1.1" viewBox="-10 0 1844 2048">
   <path fill="currentColor"
d="M1560 1510q60 -104 60 -204q0 -160 -112 -272t-272 -112t-272 112t-112 272t112 272t272 112q120 0 204 -60l264 264l120 -120zM1236 1518q-88 0 -150 -62t-62 -150t62 -150t150 -62t150 62t62 150t-62 150t-150 62zM1364 494h-1024v-340h1024v340zM340 1690v-340h-340
v-512q0 -112 72 -184t184 -72h1192q112 0 184 72t72 184v168q-76 -116 -200 -186t-268 -70q-168 0 -308 96t-204 248h-212v424h212q32 80 112 172h-496z" />
</svg>
