<?xml version="1.0" standalone="no"?>
<!DOCTYPE svg PUBLIC "-//W3C//DTD SVG 1.1//EN" "http://www.w3.org/Graphics/SVG/1.1/DTD/svg11.dtd" >
<svg xmlns="http://www.w3.org/2000/svg" xmlns:xlink="http://www.w3.org/1999/xlink" version="1.1" viewBox="-10 0 1723 2048">
   <path fill="currentColor"
d="M1536 914v-404l-340 -340h-1024q-72 0 -122 50t-50 122v1192q0 72 50 122t122 50h572q-40 -92 -52 -188q-80 -24 -130 -90t-50 -150q0 -108 74 -182t182 -74q24 0 76 20q84 -92 196 -140t240 -48q148 0 256 60zM1024 682h-852v-340h852v340zM1596 1502v-88l92 -68
q20 -16 12 -24l-88 -144q0 -8 -24 -8l-104 40q-52 -32 -76 -40l-16 -112q0 -8 -6 -12t-14 -4h-168q-28 0 -28 16l-16 112l-68 40l-104 -40q-16 0 -24 8l-84 144q0 16 8 24l92 68v88l-92 68q-16 16 -8 24l84 148q8 8 24 8l104 -44q32 28 68 44l16 108q20 20 28 20h168
q8 0 14 -6t6 -14l16 -108l68 -44l104 36q16 0 24 -12l84 -144q8 -4 8 -10t-8 -6zM1280 1578q-52 0 -90 -38t-38 -90t38 -90t90 -38t90 38t38 90t-38 90t-90 38z" />
</svg>
