<?xml version="1.0" standalone="no"?>
<!DOCTYPE svg PUBLIC "-//W3C//DTD SVG 1.1//EN" "http://www.w3.org/Graphics/SVG/1.1/DTD/svg11.dtd" >
<svg xmlns="http://www.w3.org/2000/svg" xmlns:xlink="http://www.w3.org/1999/xlink" version="1.1" viewBox="-10 0 1812 2048">
   <path fill="currentColor"
d="M108 128l-108 108l352 356q-20 80 -20 180q4 160 92 296t224 208q92 48 144 130t52 178v16q0 108 74 182t182 74q204 0 304 -212l280 276l108 -108zM1100 1688q-36 0 -62 -26t-26 -62v-16q0 -144 -76 -266t-208 -194q-100 -52 -162 -150t-66 -210v-24l100 96l8 28l12 -4
l104 100l-44 20q40 44 88 68q84 44 152 112h4l104 104l-20 8q68 108 84 232l108 -40l8 -20l68 68q-36 100 -88 144q-36 32 -88 32zM1252 628l-312 116l-192 -192l324 -120q136 52 180 196zM636 440l-120 -120q80 -80 184 -124t216 -44q172 0 300 60q104 52 180 148
q56 76 92 176q24 72 32 148l4 64q0 332 -28 552l-156 -156q16 -176 16 -396q0 -68 -24 -140q-36 -120 -120 -192q-108 -96 -296 -96q-156 0 -280 120zM1244 1048l-200 -200l224 -84q0 144 -4 276z" />
</svg>
