<?xml version="1.0" standalone="no"?>
<!DOCTYPE svg PUBLIC "-//W3C//DTD SVG 1.1//EN" "http://www.w3.org/Graphics/SVG/1.1/DTD/svg11.dtd" >
<svg xmlns="http://www.w3.org/2000/svg" xmlns:xlink="http://www.w3.org/1999/xlink" version="1.1" viewBox="-10 0 1704 2048">
   <path fill="currentColor"
d="M808 1622h-36l-32 -224q-144 -24 -256 -152l-208 84l-68 -112l180 -136q-52 -152 0 -308l-180 -116l68 -112l208 84q100 -116 256 -152l24 -224h128l32 224q76 12 144 54t112 98l208 -84l68 112l-180 128q24 76 24 152h44q44 0 128 16v-16l-8 -84l180 -136q20 -24 8 -52
l-172 -300q-4 -16 -16 -20t-36 -4l-212 84q-44 -36 -144 -84l-36 -232q8 -4 -6 -14t-26 -10h-344q-12 0 -26 10t-14 22l-36 232q-32 8 -88 44l-56 32l-204 -84q-24 0 -36 4t-24 20l-172 300q-12 20 16 52l180 136l-8 84l8 84l-180 148q-20 20 -8 48l172 300q4 12 16 14t36 2
l212 -84q44 36 144 84l36 232q0 12 12 22t28 10h216q-28 -36 -48 -88q-12 -28 -28 -88zM1172 962v-24q0 -140 -100 -240t-240 -100t-240 100t-100 240t100 240t240 100q44 -108 136 -192t204 -124zM660 938q0 -72 50 -122t122 -50t122 50t50 122t-50 122t-122 50t-122 -50
t-50 -122zM1344 1150v-128l-188 188l188 188v-120q88 0 150 62t62 154q0 56 -24 92l92 96q80 -116 52 -256t-144 -216q-72 -60 -188 -60zM1344 1706q-88 0 -150 -62t-62 -150q0 -56 24 -96l-92 -92q-80 116 -52 254t144 214q104 60 188 60v128l188 -188l-188 -196v128z" />
</svg>
