<?xml version="1.0" standalone="no"?>
<!DOCTYPE svg PUBLIC "-//W3C//DTD SVG 1.1//EN" "http://www.w3.org/Graphics/SVG/1.1/DTD/svg11.dtd" >
<svg xmlns="http://www.w3.org/2000/svg" xmlns:xlink="http://www.w3.org/1999/xlink" version="1.1" viewBox="-10 0 1812 2048">
   <path fill="currentColor"
d="M1792 1820l-1680 -1692l-112 112l632 632l-48 68q-80 76 -80 174t68 166l88 88q32 28 78 48t90 20q92 0 172 -68q24 -28 76 -60l616 612zM872 1248q-16 16 -46 16t-46 -16l-88 -88q-16 -16 -16 -50t24 -58l52 -60l188 188q-12 16 -40 44zM880 684l-144 -144
q52 -184 232 -300q140 -84 280 -84q168 0 288 84q148 96 210 246t30 308t-144 274q-96 96 -232 136l-144 -144l12 -4q12 -4 24 -4q132 -16 220 -104q60 -60 88 -138t16 -162q-16 -168 -172 -272q-88 -52 -198 -52t-194 60q-76 44 -120 116t-52 160v24zM660 1468l-216 204
q40 80 -24 148q-40 36 -90 36t-86 -36t-36 -88q-36 0 -88 -32q-36 -40 -36 -90t36 -90q68 -64 148 -24l212 -208q8 20 44 52l84 88q16 28 52 40z" />
</svg>
