<?xml version="1.0" standalone="no"?>
<!DOCTYPE svg PUBLIC "-//W3C//DTD SVG 1.1//EN" "http://www.w3.org/Graphics/SVG/1.1/DTD/svg11.dtd" >
<svg xmlns="http://www.w3.org/2000/svg" xmlns:xlink="http://www.w3.org/1999/xlink" version="1.1" viewBox="-10 0 1704 2048">
   <path fill="currentColor"
d="M788 1494q0 -124 60 -256h-16q-120 0 -210 -90t-90 -210t90 -210t210 -90t210 90t90 210q0 36 -8 44q112 -44 220 -44q44 0 128 16v-16q0 -60 -8 -84l180 -136q20 -24 8 -52l-172 -300q-4 -16 -16 -20t-36 -4l-212 84q-44 -36 -144 -84l-36 -232q8 -4 -6 -14t-26 -10
h-344q-12 0 -26 10t-14 22l-36 232q-32 8 -88 44l-56 32l-204 -84q-24 0 -36 4t-24 20l-172 300q-12 20 16 52l180 136q0 12 -4 42t-4 42q0 60 8 84l-180 148q-20 20 -8 48l172 300q4 12 16 14t36 2l212 -84q44 36 144 84l36 232q0 12 12 22t28 10h216q-96 -144 -96 -304z
M1344 1150v-128l-188 188l188 188v-120q88 0 150 62t62 154q0 56 -24 92l92 96q80 -116 52 -256t-144 -216q-72 -60 -188 -60zM1344 1706q-88 0 -150 -62t-62 -150q0 -56 24 -96l-92 -92q-80 116 -52 254t144 214q104 60 188 60v128l188 -188l-188 -196v128z" />
</svg>
