<?xml version="1.0" standalone="no"?>
<!DOCTYPE svg PUBLIC "-//W3C//DTD SVG 1.1//EN" "http://www.w3.org/Graphics/SVG/1.1/DTD/svg11.dtd" >
<svg xmlns="http://www.w3.org/2000/svg" xmlns:xlink="http://www.w3.org/1999/xlink" version="1.1" viewBox="-11 0 1213 2048">
   <path fill="currentColor"
d="M588 172q-164 0 -300 86t-214 228t-74 306t90 298t226 206q88 44 142 128t54 180v16q0 112 72 184t184 72q164 0 260 -136q92 -124 132 -380q32 -228 32 -592l-4 -64q-8 -76 -32 -148q-36 -100 -92 -176q-76 -96 -180 -148q-128 -60 -296 -60zM768 1708q-40 0 -64 -24
t-24 -64v-16q0 -140 -76 -264t-204 -196q-104 -52 -164 -148t-68 -212q0 -84 32 -168t88 -146t134 -96t158 -34q188 0 300 96q84 72 120 192q24 72 24 140q0 392 -44 620q-32 188 -96 264q-48 56 -116 56zM920 648l-640 232q-24 -40 -24 -108t40 -168l444 -160
q136 68 180 204zM672 1288l240 -84q-8 132 -52 280l-112 44q0 -124 -76 -240zM936 784q0 196 -8 276l-340 128q-80 -80 -156 -112q-48 -28 -92 -68z" />
</svg>
