<?xml version="1.0" standalone="no"?>
<!DOCTYPE svg PUBLIC "-//W3C//DTD SVG 1.1//EN" "http://www.w3.org/Graphics/SVG/1.1/DTD/svg11.dtd" >
<svg xmlns="http://www.w3.org/2000/svg" xmlns:xlink="http://www.w3.org/1999/xlink" version="1.1" viewBox="-10 0 1724 2048">
   <path fill="currentColor"
d="M936 1576q0 -176 112 -316q-20 -52 -36 -80q52 -44 76 -104q72 12 128 48q112 -60 238 -60t242 64q8 -56 8 -104q0 -148 -96 -224t-248 -70t-308 90q-44 -52 -104 -76q32 -160 136 -212q76 -36 110 -104t14 -138t-92 -114q-84 -48 -220 -48q-148 0 -224 96t-70 248
t90 308q-52 40 -80 104q-156 -32 -208 -136q-40 -76 -106 -110t-136 -14t-114 92q-48 84 -48 220q0 148 96 224t246 70t310 -90q40 52 104 80q-32 156 -136 208q-76 36 -110 104t-14 138t92 114q84 48 220 48q104 0 172 -48q-44 -104 -44 -208zM852 1064q-36 0 -60 -24
t-24 -60t24 -60t60 -24t60 24t24 60t-24 60t-60 24zM1620 1748v-44q0 -52 -38 -90t-90 -38q52 0 90 -36t38 -92v-40q0 -72 -50 -122t-122 -50h-256v172h256v84h-168v172h168v84h-256v172h256q72 0 122 -50t50 -122z" />
</svg>
