<?xml version="1.0" standalone="no"?>
<!DOCTYPE svg PUBLIC "-//W3C//DTD SVG 1.1//EN" "http://www.w3.org/Graphics/SVG/1.1/DTD/svg11.dtd" >
<svg xmlns="http://www.w3.org/2000/svg" xmlns:xlink="http://www.w3.org/1999/xlink" version="1.1" viewBox="-10 0 1724 2048">
   <path fill="currentColor"
d="M936 176v172q168 20 304 116t216 242t80 318q0 204 -112 372t-292 248l-196 -192v424h428l-104 -104q204 -108 324 -310t120 -438q0 -216 -102 -404t-276 -306t-390 -138zM768 172q-256 24 -456 188l120 120q148 -112 336 -140v-168zM188 484q-164 200 -188 456h168
q28 -188 140 -336zM340 684v168h256v88h-84q-72 0 -122 50t-50 118v256h428v-168h-256v-88h84q72 0 122 -50t50 -118v-88q0 -68 -50 -118t-122 -50h-256zM852 684v424h256v256h172v-256h84v-168h-84v-256h-172v256h-84v-256h-172zM0 1108q24 256 188 456l120 -120
q-112 -148 -140 -336h-168zM436 1568l-124 120q200 164 456 188v-168q-188 -28 -332 -140z" />
</svg>
