<?xml version="1.0" standalone="no"?>
<!DOCTYPE svg PUBLIC "-//W3C//DTD SVG 1.1//EN" "http://www.w3.org/Graphics/SVG/1.1/DTD/svg11.dtd" >
<svg xmlns="http://www.w3.org/2000/svg" xmlns:xlink="http://www.w3.org/1999/xlink" version="1.1" viewBox="-10 0 1556 2048">
   <path fill="currentColor"
d="M1536 1876h-1536v-168h1536v168zM1364 1620h-1192l520 -1400q24 -48 76 -48l512 256h-348zM596 640l92 40l36 88l40 -88l88 -40l-88 -40l-40 -88l-36 88zM852 1280l-176 -80l-80 -176l-80 176l-176 80l176 80l80 176l80 -176zM936 1020l88 -40l-88 -40l-40 -88l-40 88
l-88 40l88 40l40 88zM1108 1364l88 -40l-88 -40l-40 -88l-40 88l-88 40l88 40l40 88z" />
</svg>
