<?xml version="1.0" standalone="no"?>
<!DOCTYPE svg PUBLIC "-//W3C//DTD SVG 1.1//EN" "http://www.w3.org/Graphics/SVG/1.1/DTD/svg11.dtd" >
<svg xmlns="http://www.w3.org/2000/svg" xmlns:xlink="http://www.w3.org/1999/xlink" version="1.1" viewBox="-10 0 1724 2048">
   <path fill="currentColor"
d="M1620 1280v-172h-172v172h-16q-28 -60 -80 -94t-116 -34t-116 34t-80 94h-104v-684h-680l-172 -168h-84v512h84l172 -172h512v684h272q28 56 80 92t116 36t116 -36t80 -92h16v168h172v-168h84v-172h-84zM1236 1452q-36 0 -60 -26t-24 -62t24 -60t60 -24t60 24t24 60
t-24 62t-60 26z" />
</svg>
