<?xml version="1.0" standalone="no"?>
<!DOCTYPE svg PUBLIC "-//W3C//DTD SVG 1.1//EN" "http://www.w3.org/Graphics/SVG/1.1/DTD/svg11.dtd" >
<svg xmlns="http://www.w3.org/2000/svg" xmlns:xlink="http://www.w3.org/1999/xlink" version="1.1" viewBox="-10 0 1724 2048">
   <path fill="currentColor"
d="M680 1364v-84h-596v340q0 72 50 122t122 50h1192q72 0 122 -50t50 -122v-340h-596v84h-344zM1536 596h-344v-168l-168 -172h-344l-168 172v168h-344q-68 0 -118 50t-50 122v256q0 72 50 122t118 50h512v-172h344v172h512q68 0 118 -50t50 -122v-256q0 -72 -50 -122
t-118 -50zM1024 596h-344v-168h344v168z" />
</svg>
