<?xml version="1.0" standalone="no"?>
<!DOCTYPE svg PUBLIC "-//W3C//DTD SVG 1.1//EN" "http://www.w3.org/Graphics/SVG/1.1/DTD/svg11.dtd" >
<svg xmlns="http://www.w3.org/2000/svg" xmlns:xlink="http://www.w3.org/1999/xlink" version="1.1" viewBox="-10 0 1724 2048">
   <path fill="currentColor"
d="M1620 1108l-172 172h-512v-684h-272q-28 -56 -80 -92t-116 -36t-116 36t-80 92h-16l-172 -168h-84v512h84l172 -172h16q28 60 80 94t116 34t116 -34t80 -94h104v684h680l172 168h84v-512h-84zM468 768q-36 0 -60 -24t-24 -60t24 -62t60 -26t60 26t24 62t-24 60t-60 24z
" />
</svg>
