<?xml version="1.0" standalone="no"?>
<!DOCTYPE svg PUBLIC "-//W3C//DTD SVG 1.1//EN" "http://www.w3.org/Graphics/SVG/1.1/DTD/svg11.dtd" >
<svg xmlns="http://www.w3.org/2000/svg" xmlns:xlink="http://www.w3.org/1999/xlink" version="1.1" viewBox="-10 0 1556 2048">
   <path fill="currentColor"
d="M768 1196q-188 0 -300 64q-80 48 -108 124q68 32 110 96t42 140q0 108 -74 182t-180 74t-182 -74t-76 -182q0 -80 48 -146t124 -94v-712q-76 -28 -124 -94t-48 -146q0 -108 76 -182t182 -74t180 74t74 182q0 80 -46 146t-122 94v452q128 -96 340 -96q152 0 240 -68
q64 -48 88 -124q-68 -28 -112 -92t-44 -144q0 -104 74 -180t180 -76t182 76t76 180q0 88 -50 156t-130 88q-24 136 -100 224q-112 132 -320 132zM256 1536q-32 0 -58 26t-26 60t26 60t60 26t60 -26t26 -60t-26 -60t-62 -26zM256 340q-32 0 -58 26t-26 60t26 60t60 26t60 -26
t26 -60t-26 -60t-62 -26zM1112 512q-36 0 -62 26t-26 60t26 60t60 26t60 -26t26 -60t-26 -60t-58 -26zM1196 1196q148 0 240 100l100 -100v340h-340l152 -152q-72 -60 -152 -60q-88 0 -150 62t-62 150t62 150t150 62q100 0 172 -84h144q-40 96 -124 154t-192 58
q-140 0 -240 -100t-100 -240t100 -240t240 -100z" />
</svg>
