<?xml version="1.0" standalone="no"?>
<!DOCTYPE svg PUBLIC "-//W3C//DTD SVG 1.1//EN" "http://www.w3.org/Graphics/SVG/1.1/DTD/svg11.dtd" >
<svg xmlns="http://www.w3.org/2000/svg" xmlns:xlink="http://www.w3.org/1999/xlink" version="1.1" viewBox="-10 0 1724 2048">
   <path fill="currentColor"
d="M212 1446l92 92l-196 192q-20 20 -46 20t-44 -18t-18 -46t16 -44zM1388 422v-124l-536 540l-536 -540v124l476 476l-324 324q-76 -56 -170 -48t-162 76l364 360q68 -64 74 -158t-46 -170zM1688 1642l-196 -196l-92 92l196 192q20 20 46 20t44 -18t18 -46t-16 -44z
M1236 1222l-264 -264l-60 60l264 264q-52 76 -46 170t74 158l364 -360q-68 -68 -162 -76t-170 48z" />
</svg>
