<?xml version="1.0" standalone="no"?>
<!DOCTYPE svg PUBLIC "-//W3C//DTD SVG 1.1//EN" "http://www.w3.org/Graphics/SVG/1.1/DTD/svg11.dtd" >
<svg xmlns="http://www.w3.org/2000/svg" xmlns:xlink="http://www.w3.org/1999/xlink" version="1.1" viewBox="-10 0 1900 2048">
   <path fill="currentColor"
d="M1052 290l-300 296l60 60l120 -116l92 92v196q0 72 -50 122t-118 50h-48q132 144 132 340q0 44 -8 84h268q16 -144 124 -242t256 -98q116 0 212 64v-404q0 -72 -50 -122t-118 -50h-540l-92 -92l120 -120zM256 646q-32 0 -58 26t-26 60t26 60t58 26h428q0 -72 -50 -122
t-122 -50h-256zM428 902q-68 0 -132 24l28 80l-40 12l-28 -76q-140 60 -208 196l76 36l-16 36l-76 -32q-32 72 -32 152q0 68 24 132l80 -28l12 40l-76 28q60 140 196 208l32 -76l40 16l-32 76q72 32 152 32q68 0 132 -24l-28 -80l40 -12l28 76q140 -60 208 -196l-76 -32
l16 -40l76 32q32 -72 32 -152q0 -68 -24 -132l-80 28l-12 -40l76 -28q-60 -140 -196 -208l-32 76l-40 -16l32 -76q-72 -32 -152 -32zM428 1074q108 0 182 74t74 182t-74 182t-182 74t-182 -74t-74 -182t74 -182t182 -74zM1580 1158q-124 0 -212 88t-88 212t88 212t212 88
t212 -88t88 -212t-88 -212t-212 -88zM1580 1330q52 0 90 38t38 90t-38 90t-90 38t-90 -38t-38 -90t38 -90t90 -38z" />
</svg>
