<?xml version="1.0" standalone="no"?>
<!DOCTYPE svg PUBLIC "-//W3C//DTD SVG 1.1//EN" "http://www.w3.org/Graphics/SVG/1.1/DTD/svg11.dtd" >
<svg xmlns="http://www.w3.org/2000/svg" xmlns:xlink="http://www.w3.org/1999/xlink" version="1.1" viewBox="-10 0 1556 2048">
   <path fill="currentColor"
d="M768 1110q-188 0 -300 64q-80 48 -108 124q68 32 110 96t42 140q0 108 -74 182t-180 74t-182 -74t-76 -182q0 -80 48 -146t124 -94v-712q-76 -28 -124 -94t-48 -146q0 -108 76 -182t182 -74t180 74t74 182q0 80 -46 146t-122 94v452q128 -96 340 -96q152 0 240 -68
q64 -48 88 -124q-68 -28 -112 -92t-44 -144q0 -104 74 -180t180 -76t182 76t76 180q0 88 -50 156t-130 88q-24 136 -100 224q-112 132 -320 132zM256 1450q-32 0 -58 26t-26 60t26 60t60 26t60 -26t26 -60t-26 -60t-62 -26zM256 254q-32 0 -58 26t-26 60t26 60t60 26t60 -26
t26 -60t-26 -60t-62 -26zM1112 426q-36 0 -62 26t-26 60t26 60t60 26t60 -26t26 -60t-26 -60t-58 -26zM1196 1022v128q140 0 240 100t100 244q0 100 -56 188l-92 -92q20 -48 20 -96q0 -88 -62 -152t-150 -64v128l-192 -192zM1196 1962v-128q-140 0 -240 -100t-100 -240
q0 -104 56 -188l92 92q-20 44 -20 96q0 88 62 150t150 62v-128l192 196q-16 16 -192 188z" />
</svg>
