<?xml version="1.0" standalone="no"?>
<!DOCTYPE svg PUBLIC "-//W3C//DTD SVG 1.1//EN" "http://www.w3.org/Graphics/SVG/1.1/DTD/svg11.dtd" >
<svg xmlns="http://www.w3.org/2000/svg" xmlns:xlink="http://www.w3.org/1999/xlink" version="1.1" viewBox="-10 0 1775 2048">
   <path fill="currentColor"
d="M1463 1060v-548q0 -30 -21.5 -52t-51.5 -22h-549q-22 0 -40.5 13t-27 32.5t-4 42t20.5 38.5l164 164l-610 610q-22 22 -22 52t22 52l117 116q22 21 51 21t51 -21l611 -610l164 164q20 22 52 22q13 0 28 -6q20 -8 32.5 -26.5t12.5 -41.5zM1755 476v1096q0 90 -44 166
t-119.5 120t-165.5 44h-1097q-90 0 -165.5 -44t-119.5 -120t-44 -166v-1096q0 -90 44 -166t119.5 -120t165.5 -44h1097q90 0 165.5 44t119.5 120t44 166z" />
</svg>
