<?xml version="1.0" standalone="no"?>
<!DOCTYPE svg PUBLIC "-//W3C//DTD SVG 1.1//EN" "http://www.w3.org/Graphics/SVG/1.1/DTD/svg11.dtd" >
<svg xmlns="http://www.w3.org/2000/svg" xmlns:xlink="http://www.w3.org/1999/xlink" version="1.1" viewBox="-10 0 1812 2048">
   <path fill="currentColor"
d="M956 1832v-24q0 -96 -68 -164t-164 -68t-164 68t-68 164v24h-324q-68 0 -118 -50t-50 -118v-324h24q96 0 164 -68t68 -164t-68 -164t-164 -68h-24v-324q0 -68 50 -118t118 -50h260q16 -112 100 -184t196 -72t196 72t100 184h260q68 0 118 50t50 118v260q112 16 184 100
t72 196v24q-80 -44 -176 -60q-12 -40 -46 -66t-74 -26h-128v-428h-428v-128q0 -52 -38 -90t-90 -38t-90 38t-38 90v128h-428v184q116 44 186 144t70 228t-70 228t-186 144v184h184q44 -116 144 -186t224 -70t228 68q-12 48 -12 100q0 140 72 256h-52zM1364 1236v256h-256
v172h256v256h172v-256h256v-172h-256v-256h-172z" />
</svg>
