<?xml version="1.0" standalone="no"?>
<!DOCTYPE svg PUBLIC "-//W3C//DTD SVG 1.1//EN" "http://www.w3.org/Graphics/SVG/1.1/DTD/svg11.dtd" >
<svg xmlns="http://www.w3.org/2000/svg" xmlns:xlink="http://www.w3.org/1999/xlink" version="1.1" viewBox="-10 0 1812 2048">
   <path fill="currentColor"
d="M956 1862v-24q0 -96 -68 -164t-164 -68t-164 68t-68 164v24h-324q-68 0 -118 -50t-50 -118v-324h24q96 0 164 -68t68 -164t-68 -164t-164 -68h-24v-324q0 -68 50 -118t118 -50h260q16 -112 100 -184t196 -72t196 72t100 184h260q68 0 118 50t50 118v260q96 16 164 78
t84 154q-116 -64 -248 -64h-168v-428h-428v-128q0 -52 -38 -90t-90 -38t-90 38t-38 90v128h-428v184q116 44 186 144t70 228t-70 228t-186 144v184h184q44 -116 144 -186t228 -70q116 0 212 60v24q0 196 132 340h-112zM1448 1890l52 -44l40 -36q136 -132 180 -188
q72 -88 72 -170t-56 -134t-132 -52q-48 0 -88 18t-68 50q-24 -32 -66 -50t-86 -18q-76 0 -132 56t-56 134t68 166q48 56 184 188l40 36z" />
</svg>
