<?xml version="1.0" standalone="no"?>
<!DOCTYPE svg PUBLIC "-//W3C//DTD SVG 1.1//EN" "http://www.w3.org/Graphics/SVG/1.1/DTD/svg11.dtd" >
<svg xmlns="http://www.w3.org/2000/svg" xmlns:xlink="http://www.w3.org/1999/xlink" version="1.1" viewBox="-10 0 1741 2048">
   <path fill="currentColor"
d="M964 1884l-140 -324q192 -72 376 -196zM324 1060l-324 -140l520 -236q-124 184 -196 376zM1484 332q44 0 64 4q16 128 -32 264q-64 196 -252 380q-216 220 -512 332l-184 -180q120 -300 336 -512q160 -160 328 -232q128 -56 252 -56zM1484 164q-156 0 -312 64
q-200 84 -388 272q-236 232 -372 572q-20 48 -8 96t48 84l180 180q52 52 120 52q28 0 60 -12q328 -124 572 -372q136 -132 220 -280q68 -120 96 -248q24 -100 20 -196q0 -72 -16 -132l-16 -48l-56 -16q-68 -16 -148 -16zM1084 800q-48 -52 -48 -122t50 -120t120 -50t120 50
t50 120t-50 120t-120 50t-122 -48zM600 1404l-120 -120zM376 1868l312 -308q-44 -12 -84 -40l-348 348h120zM16 1868h120l408 -404l-124 -120l-404 404v120zM16 1628l348 -348q-28 -40 -40 -84l-308 312v120z" />
</svg>
