<?xml version="1.0" standalone="no"?>
<!DOCTYPE svg PUBLIC "-//W3C//DTD SVG 1.1//EN" "http://www.w3.org/Graphics/SVG/1.1/DTD/svg11.dtd" >
<svg xmlns="http://www.w3.org/2000/svg" xmlns:xlink="http://www.w3.org/1999/xlink" version="1.1" viewBox="-10 0 1724 2048">
   <path fill="currentColor"
d="M852 172q-68 0 -120 48l-684 684q-48 48 -48 120t48 120l684 684q48 48 120 48t120 -48l684 -684q48 -48 48 -120t-48 -120l-684 -684q-52 -48 -120 -48zM852 340l280 284l-280 280l-280 -280zM452 744l280 280l-280 280l-284 -280zM1252 744l284 280l-284 280l-280 -280
zM852 1144l280 280l-280 284l-280 -284z" />
</svg>
