<?xml version="1.0" standalone="no"?>
<!DOCTYPE svg PUBLIC "-//W3C//DTD SVG 1.1//EN" "http://www.w3.org/Graphics/SVG/1.1/DTD/svg11.dtd" >
<svg xmlns="http://www.w3.org/2000/svg" xmlns:xlink="http://www.w3.org/1999/xlink" version="1.1" viewBox="-10 0 1775 2048">
   <path fill="currentColor"
d="M1149 1258l402 -402q22 -21 22 -51t-22 -51l-402 -404q-15 -16 -37.5 -20t-41.5 4q-20 9 -33 27.5t-13 40.5v184q-107 0 -198 13.5t-159 36.5t-124 58t-94 73t-67 86.5t-45.5 94t-26.5 99.5t-13.5 99.5t-3.5 97.5q0 62 19 131.5t42 120t55 102.5t46 71t27 35q1 1 1 2
q12 12 29 12q8 0 15 -2q11 -5 17.5 -15.5t4.5 -22.5q-26 -206 -9 -338t79 -202q53 -60 149 -87t256 -27v182q0 23 13 41.5t33 26.5q16 6 27 6q30 0 52 -22zM1755 476v1096q0 90 -44 166t-119.5 120t-165.5 44h-1097q-90 0 -165.5 -44t-119.5 -120t-44 -166v-1096
q0 -90 44 -166t119.5 -120t165.5 -44h1097q90 0 165.5 44t119.5 120t44 166z" />
</svg>
