<?xml version="1.0" standalone="no"?>
<!DOCTYPE svg PUBLIC "-//W3C//DTD SVG 1.1//EN" "http://www.w3.org/Graphics/SVG/1.1/DTD/svg11.dtd" >
<svg xmlns="http://www.w3.org/2000/svg" xmlns:xlink="http://www.w3.org/1999/xlink" version="1.1" viewBox="-10 0 1741 2048">
   <path fill="currentColor"
d="M964 1884l-140 -324q192 -72 376 -196zM324 1060l-324 -140l520 -236q-124 184 -196 376zM1688 196l-48 -16q-60 -16 -132 -16q-96 -4 -196 20q-128 28 -248 96q-148 84 -280 220q-236 232 -372 572q-20 48 -8 96t48 84l180 180q36 36 84 48t96 -8q328 -124 572 -372
q136 -132 220 -280q68 -120 96 -248q24 -100 20 -196q0 -72 -16 -132zM1084 800q-48 -52 -48 -122t50 -120t120 -50t120 50t50 120t-50 120t-120 50t-122 -48zM600 1404l-120 -120zM376 1868l312 -308q-44 -12 -84 -40l-348 348h120zM16 1868h120l408 -404l-124 -120
l-404 404v120zM16 1628l348 -348q-28 -40 -40 -84l-308 312v120z" />
</svg>
