<?xml version="1.0" standalone="no"?>
<!DOCTYPE svg PUBLIC "-//W3C//DTD SVG 1.1//EN" "http://www.w3.org/Graphics/SVG/1.1/DTD/svg11.dtd" >
<svg xmlns="http://www.w3.org/2000/svg" xmlns:xlink="http://www.w3.org/1999/xlink" version="1.1" viewBox="-10 0 1724 2048">
   <path fill="currentColor"
d="M896 852q0 -104 -76 -180t-182 -76t-180 76t-74 182t74 180t180 74t182 -74t76 -182zM640 940q-36 0 -62 -26t-26 -62t26 -60t62 -24t60 24t24 60t-24 62t-60 26zM1192 1108q72 0 122 -50t50 -120t-50 -120t-120 -50t-120 50t-50 120t50 120t118 50zM852 172
q-232 0 -428 114t-310 310t-114 428t114 428t310 310t428 114t428 -114t310 -310t114 -428t-114 -428t-310 -310t-428 -114zM328 1460q44 -36 136 -66t176 -30h20q36 -92 112 -156q-72 -12 -132 -12q-96 0 -200 28q-124 32 -204 92q-68 -140 -68 -292q0 -184 92 -342
t250 -250t342 -92t342 92t250 250t92 342q0 148 -64 288q-60 -36 -144 -56q-72 -20 -136 -20q-72 0 -156 24q-96 28 -156 76q-72 56 -72 132v236q-140 -8 -266 -72t-214 -172z" />
</svg>
