<?xml version="1.0" standalone="no"?>
<!DOCTYPE svg PUBLIC "-//W3C//DTD SVG 1.1//EN" "http://www.w3.org/Graphics/SVG/1.1/DTD/svg11.dtd" >
<svg xmlns="http://www.w3.org/2000/svg" xmlns:xlink="http://www.w3.org/1999/xlink" version="1.1" viewBox="-10 0 1812 2048">
   <path fill="currentColor"
d="M1792 1812l-1684 -1684l-108 108l328 328l-140 12l152 324q20 -108 72 -196q4 -8 12 -20l12 -12l120 124q-56 96 -56 210t58 212t156 156t212 58t210 -56l548 544zM928 1260q-108 0 -182 -74t-74 -182q0 -36 16 -80l320 320q-44 16 -80 16zM1444 704q-52 -92 -132 -156
l356 28l-152 324q-20 -104 -72 -196zM928 576q116 0 214 58t156 156t58 214q0 60 -24 132l-148 -152q-8 -92 -76 -160t-160 -76l-152 -148q72 -24 132 -24zM928 408q-104 0 -204 36l204 -292l204 292q-100 -36 -204 -36zM1516 1108l148 324l-32 4l-172 -172q40 -84 56 -156z
M928 1600q100 0 204 -36l-204 292l-204 -292q100 36 204 36zM412 1304q52 88 132 160l-352 -32l148 -324q20 104 72 196z" />
</svg>
