<?xml version="1.0" standalone="no"?>
<!DOCTYPE svg PUBLIC "-//W3C//DTD SVG 1.1//EN" "http://www.w3.org/Graphics/SVG/1.1/DTD/svg11.dtd" >
<svg xmlns="http://www.w3.org/2000/svg" xmlns:xlink="http://www.w3.org/1999/xlink" version="1.1" viewBox="-10 0 1600 2048">
   <path fill="currentColor"
d="M1172 1884l-232 -256l96 -100l136 136l308 -308l100 120zM1196 332v512l-172 -168l-172 168v-512h-340v1368h264q12 88 60 168h-496q-64 0 -116 -52t-52 -116v-88h-172v-168h172v-344h-172v-168h172v-344h-172v-168h172v-88q0 -68 50 -118t118 -50h1024q68 0 120 52
t52 116v836q-80 -44 -172 -60v-776h-168zM172 1612h168v-168h-168v168zM172 1100h168v-168h-168v168zM172 588h168v-168h-168v168z" />
</svg>
