<?xml version="1.0" standalone="no"?>
<!DOCTYPE svg PUBLIC "-//W3C//DTD SVG 1.1//EN" "http://www.w3.org/Graphics/SVG/1.1/DTD/svg11.dtd" >
<svg xmlns="http://www.w3.org/2000/svg" xmlns:xlink="http://www.w3.org/1999/xlink" version="1.1" viewBox="-10 0 1640 2048">
   <path fill="currentColor"
d="M1196 214h168v256h256v168h-256v256h-168v-256h-256v-168h256v-256zM340 470h344v168h-344q-68 0 -118 50t-50 122v684q0 68 50 118t118 50h684q72 0 122 -50t50 -118v-344h168v344q0 140 -100 240t-240 100h-684q-140 0 -240 -100t-100 -240v-684q0 -140 100 -240
t240 -100z" />
</svg>
