<?xml version="1.0" standalone="no"?>
<!DOCTYPE svg PUBLIC "-//W3C//DTD SVG 1.1//EN" "http://www.w3.org/Graphics/SVG/1.1/DTD/svg11.dtd" >
<svg xmlns="http://www.w3.org/2000/svg" xmlns:xlink="http://www.w3.org/1999/xlink" version="1.1" viewBox="-10 0 1900 2048">
   <path fill="currentColor"
d="M1408 1138q104 0 216 20v128q-80 -20 -216 -20q-240 0 -384 84v-144q152 -68 384 -68zM1024 978q164 -68 384 -68q108 0 216 20v128q-80 -20 -216 -20q-240 0 -384 84v-144zM1408 810q-244 0 -384 84v-140q160 -72 384 -72q100 0 216 20v132q-96 -24 -216 -24zM1708 1494
v-984q-136 -40 -300 -40q-260 0 -468 128v980q208 -128 468 -128q156 0 300 44zM1408 298q304 0 472 128v1244q0 16 -16 30t-28 14t-20 -4q-164 -88 -408 -88q-260 0 -468 128q-172 -128 -468 -128q-212 0 -408 88l-20 8q-16 0 -30 -12t-14 -28v-1252q172 -128 470 -128
t470 128q172 -128 468 -128z" />
</svg>
