<?xml version="1.0" standalone="no"?>
<!DOCTYPE svg PUBLIC "-//W3C//DTD SVG 1.1//EN" "http://www.w3.org/Graphics/SVG/1.1/DTD/svg11.dtd" >
<svg xmlns="http://www.w3.org/2000/svg" xmlns:xlink="http://www.w3.org/1999/xlink" version="1.1" viewBox="-10 0 1600 2048">
   <path fill="currentColor"
d="M1172 1884l-232 -256l96 -100l136 136l308 -308l100 120zM0 588v-168h172v-88q0 -68 50 -118t118 -50h512v596l216 -128l212 128v-596h84q68 0 120 52t52 116v836q-116 -68 -256 -68t-258 70t-186 188t-68 256t68 254h-496q-64 0 -116 -52t-52 -116v-88h-172v-168h172
v-344h-172v-168h172v-344h-172zM172 420v168h168v-168h-168zM172 1612h168v-168h-168v168zM172 1100h168v-168h-168v168z" />
</svg>
