<?xml version="1.0" standalone="no"?>
<!DOCTYPE svg PUBLIC "-//W3C//DTD SVG 1.1//EN" "http://www.w3.org/Graphics/SVG/1.1/DTD/svg11.dtd" >
<svg xmlns="http://www.w3.org/2000/svg" xmlns:xlink="http://www.w3.org/1999/xlink" version="1.1" viewBox="-10 0 1384 2048">
   <path fill="currentColor"
d="M1364 1484v168h-680v-168h680zM172 1228q0 -108 104 -300q92 -168 236 -352q104 132 184 264q88 148 128 256q76 -32 168 -40q-72 -208 -284 -500q-104 -144 -196 -248l-80 96q-96 120 -176 236q-112 164 -176 300q-80 168 -80 288q0 136 68 254t186 188t258 70h28
q-28 -84 -28 -172q-140 0 -240 -100t-100 -240z" />
</svg>
