<?xml version="1.0" standalone="no"?>
<!DOCTYPE svg PUBLIC "-//W3C//DTD SVG 1.1//EN" "http://www.w3.org/Graphics/SVG/1.1/DTD/svg11.dtd" >
<svg xmlns="http://www.w3.org/2000/svg" xmlns:xlink="http://www.w3.org/1999/xlink" version="1.1" viewBox="-10 0 1812 2048">
   <path fill="currentColor"
d="M1792 1812l-1684 -1684l-108 108l556 560q-140 228 -140 400q0 136 68 254t186 188t258 70q108 0 206 -44t170 -124l380 380zM928 1536q-144 0 -242 -100t-98 -240q0 -88 96 -276l500 500q-48 56 -114 86t-142 30zM856 656l-124 -120q72 -96 132 -164l64 -72l64 72l68 84
q84 100 152 200q104 156 156 260q72 156 72 280q0 28 -4 44l-212 -212q-68 -148 -152 -276q-64 -88 -128 -164l-16 -20z" />
</svg>
