<?xml version="1.0" standalone="no"?>
<!DOCTYPE svg PUBLIC "-//W3C//DTD SVG 1.1//EN" "http://www.w3.org/Graphics/SVG/1.1/DTD/svg11.dtd" >
<svg xmlns="http://www.w3.org/2000/svg" xmlns:xlink="http://www.w3.org/1999/xlink" version="1.1" viewBox="-10 0 1388 2048">
   <path fill="currentColor"
d="M1368 628v512h-172v-512h172zM1196 1484h172v-172h-172v172zM512 308l-80 96q-96 120 -176 236q-112 164 -176 300q-80 168 -80 288q0 136 70 254t188 188t256 70t256 -70t186 -188t68 -254q0 -216 -256 -588q-128 -188 -256 -332zM320 884q44 0 76 32t32 76t-32 76
t-76 32t-74 -32t-30 -76t30 -76t74 -32zM704 1484q-44 0 -74 -32t-30 -76t30 -76t74 -32t76 32t32 76t-32 76t-76 32zM304 1484l-92 -88l512 -512l92 88z" />
</svg>
