<?xml version="1.0" standalone="no"?>
<!DOCTYPE svg PUBLIC "-//W3C//DTD SVG 1.1//EN" "http://www.w3.org/Graphics/SVG/1.1/DTD/svg11.dtd" >
<svg xmlns="http://www.w3.org/2000/svg" xmlns:xlink="http://www.w3.org/1999/xlink" version="1.1" viewBox="-10 0 1556 2048">
   <path fill="currentColor"
d="M1364 256v1536h-512v-300h-168v300h-512v-1536h1192zM1024 596h172v-168h-172v168zM684 596h168v-168h-168v168zM340 596h172v-168h-172v168zM1024 940h172v-172h-172v172zM684 940h168v-172h-168v172zM340 940h172v-172h-172v172zM1024 1280h172v-172h-172v172z
M684 1280h168v-172h-168v172zM340 1280h172v-172h-172v172zM1024 1620h172v-168h-172v168zM340 1620h172v-168h-172v168zM1536 84h-1536v1880h1536v-1880z" />
</svg>
