<?xml version="1.0" standalone="no"?>
<!DOCTYPE svg PUBLIC "-//W3C//DTD SVG 1.1//EN" "http://www.w3.org/Graphics/SVG/1.1/DTD/svg11.dtd" >
<svg xmlns="http://www.w3.org/2000/svg" xmlns:xlink="http://www.w3.org/1999/xlink" version="1.1" viewBox="-10 0 1724 2048">
   <path fill="currentColor"
d="M340 768q0 -36 26 -60t60 -24t60 24t26 60t-26 60t-60 24t-60 -24t-26 -60zM1280 852q32 0 58 -24t26 -60t-26 -60t-60 -24t-60 24t-26 60t26 60t62 24zM1704 848v92q0 208 -102 384t-280 280t-386 104h-168q-212 0 -388 -104t-278 -280t-102 -384v-92q0 -140 68 -256
t184 -184t252 -68h696q136 0 252 68t184 184t68 256zM1064 768q0 88 64 150t152 62t150 -62t62 -150t-62 -150t-150 -62t-152 62t-64 150zM212 768q0 88 62 150t150 62t152 -62t64 -150t-64 -150t-152 -62t-150 62t-62 150zM596 1452q0 -36 -26 -62t-60 -26t-60 26t-26 60
t26 60t60 26t60 -26t26 -58zM980 1452q0 -56 -38 -92t-90 -36t-90 36t-38 90t38 92t90 38t90 -38t38 -90zM1280 1452q0 -36 -26 -62t-60 -26t-60 26t-26 60t26 60t60 26t60 -26t26 -58zM1532 996q-100 112 -252 112q-144 0 -244 -100t-100 -240q0 -76 32 -142t88 -114h-408
q56 48 88 114t32 142q0 140 -100 240t-244 100q-72 0 -138 -30t-114 -82q20 212 172 364q228 -164 508 -164t508 164q152 -152 172 -364z" />
</svg>
