<?xml version="1.0" standalone="no"?>
<!DOCTYPE svg PUBLIC "-//W3C//DTD SVG 1.1//EN" "http://www.w3.org/Graphics/SVG/1.1/DTD/svg11.dtd" >
<svg xmlns="http://www.w3.org/2000/svg" xmlns:xlink="http://www.w3.org/1999/xlink" version="1.1" viewBox="-10 0 1724 2048">
   <path fill="currentColor"
d="M468 1620q0 52 -38 90t-90 38t-90 -38t-38 -88t38 -90t90 -40t90 40t38 88zM1364 1492q-52 0 -90 40t-38 90t38 88t90 38t90 -38t38 -88t-38 -90t-90 -40zM1364 1280h-24q128 -104 204 -262t76 -336t-76 -336t-204 -262h-976q-128 104 -204 262t-76 336t76 336t204 262
h-24q-140 0 -240 100t-100 242t100 242t240 100h1024q140 0 240 -100t100 -242t-100 -242t-240 -100zM256 684q0 -120 46 -232t130 -196h840q84 84 130 196t46 232q0 164 -80 300t-216 216t-300 80t-300 -80t-216 -216t-80 -300zM1364 1792h-1024q-72 0 -122 -50t-50 -120
t50 -120t122 -50h1024q72 0 122 50t50 120t-50 120t-122 50zM928 452q0 44 34 78t78 34t78 -34t34 -78t-36 -78t-82 -34t-76 34t-30 78zM560 452q0 44 34 78t78 34t78 -34t34 -78t-34 -78t-80 -34t-78 32t-32 80zM484 852q64 0 106 -42t42 -100t-44 -102t-104 -44t-102 40
t-42 100t44 104t100 44zM816 1000q0 -60 -42 -104t-102 -44t-102 44t-42 104t42 102t102 42t102 -42t42 -102zM852 852q64 0 104 -42t40 -100t-44 -102t-100 -44t-100 44t-44 100t44 100t100 44zM1184 1000q0 -60 -44 -104t-104 -44t-100 44t-40 104t42 102t102 42t102 -42
t42 -102zM1364 708q0 -56 -44 -100t-104 -44t-102 42t-42 104t44 102t102 40t102 -44t44 -100z" />
</svg>
