<?xml version="1.0" standalone="no"?>
<!DOCTYPE svg PUBLIC "-//W3C//DTD SVG 1.1//EN" "http://www.w3.org/Graphics/SVG/1.1/DTD/svg11.dtd" >
<svg xmlns="http://www.w3.org/2000/svg" xmlns:xlink="http://www.w3.org/1999/xlink" version="1.1" viewBox="-10 0 1724 2048">
   <path fill="currentColor"
d="M936 768q0 72 50 122t122 50t122 -50t50 -122t-50 -122t-122 -50t-122 50t-50 122zM424 768q0 72 50 122t122 50t122 -50t50 -122t-50 -122t-122 -50t-122 50t-50 122zM596 1128q0 -40 -32 -72t-70 -32t-70 32t-32 70t32 70t70 32t70 -30t32 -70zM1024 1364
q0 -68 -50 -118t-122 -50t-122 50t-50 120t50 120t122 50t122 -50t50 -122zM852 340q184 0 342 92t250 250t92 342t-92 342t-250 250t-342 92t-342 -92t-250 -250t-92 -342t92 -342t250 -250t342 -92zM852 172q-232 0 -428 114t-310 310t-114 428t114 428t310 310t428 114
t428 -114t310 -310t114 -428t-114 -428t-310 -310t-428 -114zM1320 1128q0 -44 -30 -74t-72 -30t-72 32t-30 70t32 70t70 36t70 -28t32 -76z" />
</svg>
