<?xml version="1.0" standalone="no"?>
<!DOCTYPE svg PUBLIC "-//W3C//DTD SVG 1.1//EN" "http://www.w3.org/Graphics/SVG/1.1/DTD/svg11.dtd" >
<svg xmlns="http://www.w3.org/2000/svg" xmlns:xlink="http://www.w3.org/1999/xlink" version="1.1" viewBox="-10 0 1724 2048">
   <path fill="currentColor"
d="M468 812q-88 0 -150 62t-62 150t62 150t150 62t150 -62t62 -150t-62 -150t-150 -62zM1236 812q-88 0 -150 62t-62 150t62 150t150 62t150 -62t62 -150t-62 -150t-150 -62zM852 340q184 0 342 92t250 250t92 342t-92 342t-250 250t-342 92t-342 -92t-250 -250t-92 -342
t92 -342t250 -250t342 -92zM852 172q-232 0 -428 114t-310 310t-114 428t114 428t310 310t428 114t428 -114t310 -310t114 -428t-114 -428t-310 -310t-428 -114zM852 428q-88 0 -150 62t-62 150t62 150t150 62t150 -62t62 -150t-62 -150t-150 -62zM980 640q0 16 -16 52
l-52 -52l52 -52q16 36 16 52zM904 528l-52 52l-52 -52q36 -16 52 -16t52 16zM740 692q-16 -36 -16 -52t16 -52l52 52zM800 752l52 -52l52 52q-36 16 -52 16t-52 -16zM852 1196q-88 0 -150 62t-62 150t62 150t150 62t150 -62t62 -150t-62 -150t-150 -62zM980 1408
q0 16 -16 52l-52 -52l52 -52q16 36 16 52zM904 1296l-52 52l-52 -52q36 -16 52 -16t52 16zM740 1460q-16 -36 -16 -52t16 -52l52 52zM800 1520l52 -52l52 52q-36 16 -52 16t-52 -16z" />
</svg>
