<?xml version="1.0" standalone="no"?>
<!DOCTYPE svg PUBLIC "-//W3C//DTD SVG 1.1//EN" "http://www.w3.org/Graphics/SVG/1.1/DTD/svg11.dtd" >
<svg xmlns="http://www.w3.org/2000/svg" xmlns:xlink="http://www.w3.org/1999/xlink" version="1.1" viewBox="-10 0 1724 2048">
   <path fill="currentColor"
d="M1304 428q112 96 172 228t60 284q0 184 -92 340t-250 248t-342 92t-342 -92t-250 -248t-92 -340q0 -148 64 -288q60 -124 168 -224h904zM1364 256h-1024l-52 44q-140 120 -214 286t-74 354q0 228 114 424t310 312t428 116t428 -116t310 -312t114 -424q0 -188 -74 -354
t-214 -286zM936 640q0 52 40 90t90 38t88 -38t38 -90t-38 -90t-88 -38t-90 38t-40 90zM512 640q0 52 38 90t88 38t90 -38t40 -90t-40 -90t-90 -38t-88 38t-38 90zM424 1108q72 0 122 -50t50 -120t-50 -120t-120 -50t-120 50t-50 120t50 120t118 50zM808 1280q0 -72 -50 -122
t-120 -50t-120 50t-50 122t50 122t120 50t120 -50t50 -122zM852 1108q72 0 122 -50t50 -120t-50 -120t-122 -50t-122 50t-50 120t50 120t122 50zM1236 1280q0 -72 -50 -122t-120 -50t-120 50t-50 122t50 122t120 50t120 -50t50 -122zM1448 940q0 -72 -50 -122t-120 -50
t-120 50t-50 120t50 120t120 50t120 -50t50 -118z" />
</svg>
