<?xml version="1.0" standalone="no"?>
<!DOCTYPE svg PUBLIC "-//W3C//DTD SVG 1.1//EN" "http://www.w3.org/Graphics/SVG/1.1/DTD/svg11.dtd" >
<svg xmlns="http://www.w3.org/2000/svg" xmlns:xlink="http://www.w3.org/1999/xlink" version="1.1" viewBox="-10 0 1812 2048">
   <path fill="currentColor"
d="M1684 1920l-748 -744h-8q-72 0 -122 -50t-50 -122v-8l-136 -136q-32 68 -32 144q0 140 100 240l-120 120q-72 -68 -112 -162t-40 -198q0 -148 80 -272l-124 -124q-128 176 -128 396q0 140 54 264t146 220l-120 120q-116 -120 -182 -276t-66 -328q0 -288 176 -516
l-252 -252l108 -108l1684 1684zM1264 1068l136 136q40 -96 40 -200t-40 -198t-112 -162l-120 120q100 100 100 240q0 28 -4 64zM1528 1332l124 124q128 -208 128 -452q0 -172 -66 -328t-182 -276l-120 120q92 96 146 220t54 264q0 176 -84 328z" />
</svg>
