<?xml version="1.0" standalone="no"?>
<!DOCTYPE svg PUBLIC "-//W3C//DTD SVG 1.1//EN" "http://www.w3.org/Graphics/SVG/1.1/DTD/svg11.dtd" >
<svg xmlns="http://www.w3.org/2000/svg" xmlns:xlink="http://www.w3.org/1999/xlink" version="1.1" viewBox="-10 0 1900 2048">
   <path fill="currentColor"
d="M1840 1416l-184 180l184 184l-120 120l-184 -184l-180 184l-120 -120l180 -184l-180 -180l120 -120l180 180l184 -180zM940 1084q-72 0 -122 50t-50 122t50 122t122 50t122 -50t50 -122t-50 -122t-122 -50zM1056 1768h-672q-56 0 -102 -36t-62 -88l-216 -792
q-4 -8 -4 -24q0 -32 26 -58t62 -26h408l372 -560q28 -36 72 -36t72 36l372 560h408q36 0 62 26t26 58l-4 24l-84 304q-80 -48 -160 -60l52 -180h-1484l184 680h640q0 88 32 172zM700 744h480l-240 -360z" />
</svg>
