<?xml version="1.0" standalone="no"?>
<!DOCTYPE svg PUBLIC "-//W3C//DTD SVG 1.1//EN" "http://www.w3.org/Graphics/SVG/1.1/DTD/svg11.dtd" >
<svg xmlns="http://www.w3.org/2000/svg" xmlns:xlink="http://www.w3.org/1999/xlink" version="1.1" viewBox="-10 0 1721 2048">
   <path fill="currentColor"
d="M932 172v172q184 24 330 134t216 278t50 352q-32 232 -198 398t-398 194v172q232 -24 416 -158t278 -340t70 -434q-16 -200 -122 -368t-274 -274t-368 -126zM764 176q-260 24 -456 188l120 124q148 -116 336 -140v-172zM188 484q-164 196 -188 456h168q28 -188 140 -336z
M0 1108q24 256 188 456l120 -120q-116 -152 -136 -336h-172zM428 1568l-120 116q200 164 456 192v-168q-184 -24 -336 -140zM932 1536h-168v-172h168v172zM932 1280h-168q0 -104 48 -172q28 -44 100 -100q56 -40 76 -64q32 -40 32 -92q0 -68 -50 -118t-122 -50t-122 50
t-50 118h-168q0 -140 100 -240t240 -100t240 100t100 240q0 76 -40 132q-24 36 -88 92t-88 88q-40 52 -40 116z" />
</svg>
