<?xml version="1.0" standalone="no"?>
<!DOCTYPE svg PUBLIC "-//W3C//DTD SVG 1.1//EN" "http://www.w3.org/Graphics/SVG/1.1/DTD/svg11.dtd" >
<svg xmlns="http://www.w3.org/2000/svg" xmlns:xlink="http://www.w3.org/1999/xlink" version="1.1" viewBox="-10 0 1900 2048">
   <path fill="currentColor"
d="M1840 1416l-184 180l184 184l-120 120l-184 -184l-180 184l-120 -120l180 -184l-180 -180l120 -120l180 180l184 -180zM1880 828l-4 28l-84 296q-116 -68 -254 -68t-256 70t-188 188t-70 254q0 88 32 172h-672q-48 0 -88 -26t-64 -66l-224 -808l-8 -40q0 -32 26 -58
t62 -26h388l396 -560q24 -36 68 -36t72 36l392 560h388q36 0 62 26t26 58zM1112 1256q0 -72 -50 -122t-122 -50t-122 50t-50 122t50 122t122 50t122 -50t50 -122zM1196 744l-256 -364l-256 364h512z" />
</svg>
