<?xml version="1.0" standalone="no"?>
<!DOCTYPE svg PUBLIC "-//W3C//DTD SVG 1.1//EN" "http://www.w3.org/Graphics/SVG/1.1/DTD/svg11.dtd" >
<svg xmlns="http://www.w3.org/2000/svg" xmlns:xlink="http://www.w3.org/1999/xlink" version="1.1" viewBox="-10 0 1556 2048">
   <path fill="currentColor"
d="M84 256q-36 0 -60 24t-24 60q0 396 196 732q192 332 524 524q336 196 732 196q36 0 60 -24t24 -60v-300q0 -40 -24 -62t-60 -22q-168 0 -308 -52q-44 -12 -84 16l-188 188q-176 -88 -322 -234t-242 -330l188 -188q20 -20 24 -42t-8 -42q-44 -156 -44 -300q0 -36 -22 -60
t-62 -24h-300zM1372 300l-176 176l-180 -176l-120 120l180 176l-180 180l120 120l180 -180l176 180l120 -120l-176 -180l176 -176z" />
</svg>
