<?xml version="1.0" standalone="no"?>
<!DOCTYPE svg PUBLIC "-//W3C//DTD SVG 1.1//EN" "http://www.w3.org/Graphics/SVG/1.1/DTD/svg11.dtd" >
<svg xmlns="http://www.w3.org/2000/svg" xmlns:xlink="http://www.w3.org/1999/xlink" version="1.1" viewBox="-10 0 1640 2048">
   <path fill="currentColor"
d="M1024 768h172v172h-172v-172zM1196 428h-172v168h172v-168zM684 1280h168v-172h-168v172zM852 428h-168v168h168v-168zM684 940h168v-172h-168v172zM512 428h-172v168h172v-168zM512 768h-172v172h172v-172zM984 1792h-132v-300h-168v300h-512v-1536h1192v684
q88 8 172 52v-908h-1536v1880h1100v-4q-76 -104 -116 -168zM340 1620h172v-168h-172v168zM512 1108h-172v172h172v-172zM1620 1408q0 100 -76 244q-56 100 -144 216l-76 96l-80 -96q-88 -116 -144 -216q-76 -144 -76 -244q0 -120 88 -210t210 -90t210 90t88 210zM1424 1416
q0 -36 -32 -68t-70 -32t-70 28t-32 70t30 74t74 32t76 -32t24 -72z" />
</svg>
