<?xml version="1.0" standalone="no"?>
<!DOCTYPE svg PUBLIC "-//W3C//DTD SVG 1.1//EN" "http://www.w3.org/Graphics/SVG/1.1/DTD/svg11.dtd" >
<svg xmlns="http://www.w3.org/2000/svg" xmlns:xlink="http://www.w3.org/1999/xlink" version="1.1" viewBox="-10 0 1900 2048">
   <path fill="currentColor"
d="M1452 1110l68 8l-4 20l40 12l16 -12q68 36 100 100l-12 12l16 40l20 -4q12 40 12 80l-8 64h-20l-16 40l16 12q-36 68 -100 104l-16 -16l-36 20v20q-36 12 -76 12l-68 -8v-24l-36 -16l-16 16q-68 -36 -104 -96l16 -16l-16 -40h-20q-12 -36 -12 -72l8 -68h20l16 -40
l-16 -12q36 -68 100 -104l16 16l36 -20v-16q36 -12 76 -12zM1452 1238q-52 0 -90 36t-38 90t38 92t90 38t90 -38t38 -92t-38 -90t-90 -36zM428 1110l68 8l-4 20l40 12l16 -12q68 36 100 100l-12 12l16 40l20 -4q12 40 12 80l-8 64h-20l-16 40l16 12q-36 68 -100 104l-16 -16
l-36 20v20q-36 12 -76 12l-68 -8v-24l-36 -16l-16 16q-68 -36 -104 -96l16 -16l-16 -40h-20q-12 -36 -12 -72l8 -68h20l16 -40l-16 -12q36 -68 100 -104l16 16l36 -20v-16q36 -12 76 -12zM428 1238q-52 0 -90 36t-38 90t38 92t90 38t90 -38t38 -92t-38 -90t-90 -36z
M1280 426l256 340h172q72 0 122 50t50 122v256h-172q0 -108 -74 -182t-182 -74t-182 74t-74 182h-512q0 -108 -74 -182t-182 -74t-182 74t-74 182h-172v-428h812v-340h468zM940 554v212h464l-164 -212h-300z" />
</svg>
