<?xml version="1.0" standalone="no"?>
<!DOCTYPE svg PUBLIC "-//W3C//DTD SVG 1.1//EN" "http://www.w3.org/Graphics/SVG/1.1/DTD/svg11.dtd" >
<svg xmlns="http://www.w3.org/2000/svg" xmlns:xlink="http://www.w3.org/1999/xlink" version="1.1" viewBox="-10 0 1724 2048">
   <path fill="currentColor"
d="M1584 1186l100 120l-404 404l-236 -256l100 -100l136 136zM1456 338l-120 120q92 96 146 220t54 264v28q88 36 160 96q8 -72 8 -124q0 -172 -66 -328t-182 -276zM1188 974q88 -32 176 -32q0 -104 -40 -198t-112 -162l-120 120q100 100 100 240zM852 770q-72 0 -122 50
t-50 122t50 122t122 50t122 -50t50 -122t-50 -122t-122 -50zM368 458l-120 -120q-116 120 -182 276t-66 328t66 328t182 276l120 -120q-92 -96 -146 -220t-54 -264t54 -264t146 -220zM492 582q-72 68 -112 162t-40 198t40 198t112 162l120 -120q-100 -100 -100 -240
t100 -240z" />
</svg>
