<?xml version="1.0" standalone="no"?>
<!DOCTYPE svg PUBLIC "-//W3C//DTD SVG 1.1//EN" "http://www.w3.org/Graphics/SVG/1.1/DTD/svg11.dtd" >
<svg xmlns="http://www.w3.org/2000/svg" xmlns:xlink="http://www.w3.org/1999/xlink" version="1.1" viewBox="-10 0 1812 2048">
   <path fill="currentColor"
d="M1192 172v168h-168v-168h168zM852 172h-172v340h172v-340zM680 1196h-168v168h168v-168zM1192 340v172h-168v172h340v-344h-172zM512 172h-172v340h172v-340zM1536 172h-172v168h172v-168zM1004 1876h-1004v-1704h168v340h172v512h-172v172h172v168h172v172h168v172h172
v-172h-172v-172h172v-340h-340v-340h340v168h172v172h168v-172h172v172h340v152q-120 -68 -256 -68q-152 0 -280 88h-144v144q-88 128 -88 280q0 136 68 256zM340 1536h-172v172h172v-172zM1704 684h-340v168h340v-168zM1704 512v-172h-168v172h168zM1108 1536v172h684v-172
h-684z" />
</svg>
