<?xml version="1.0" standalone="no"?>
<!DOCTYPE svg PUBLIC "-//W3C//DTD SVG 1.1//EN" "http://www.w3.org/Graphics/SVG/1.1/DTD/svg11.dtd" >
<svg xmlns="http://www.w3.org/2000/svg" xmlns:xlink="http://www.w3.org/1999/xlink" version="1.1" viewBox="-10 0 1177 2048">
   <path fill="currentColor"
d="M1115 1493l40 182q4 13 -2.5 25t-19.5 17l-8 3l-20 5t-28.5 7t-38 8t-45 7.5t-52 5.5t-56.5 2q-267 0 -467.5 -149.5t-272.5 -401.5h-108q-15 0 -26 -11t-11 -25v-130q0 -14 11 -25t26 -11h75q-2 -65 1 -120h-76q-16 0 -26.5 -10.5t-10.5 -26.5v-130q0 -16 10.5 -26.5
t26.5 -10.5h112q77 -240 278.5 -386t457.5 -146q91 0 221 26q12 3 23 17q8 12 4 28l-50 181q-4 15 -16.5 22.5t-26.5 3.5l-5 -1q-5 -1 -13.5 -3t-19.5 -4t-25.5 -4t-29.5 -4t-32.5 -3t-34.5 -1q-144 0 -258 73t-172 201h535q18 0 29 14q11 13 8 30l-28 130q-2 13 -12.5 21.5
t-23.5 8.5h-558q-3 42 0 120h525q16 0 28 14q10 13 7 30l-27 128q-2 13 -12.5 21.5t-23.5 8.5h-442q55 134 171 212t261 78q20 0 41 -1.5t38.5 -4t33.5 -5.5t28.5 -5.5t21.5 -5t14 -4.5l5 -1q16 -5 29 2q14 9 17 24z" />
</svg>
