<?xml version="1.0" standalone="no"?>
<!DOCTYPE svg PUBLIC "-//W3C//DTD SVG 1.1//EN" "http://www.w3.org/Graphics/SVG/1.1/DTD/svg11.dtd" >
<svg xmlns="http://www.w3.org/2000/svg" xmlns:xlink="http://www.w3.org/1999/xlink" version="1.1" viewBox="-10 0 1724 2048">
   <path fill="currentColor"
d="M1536 1032q-20 0 -36 16l-84 88l180 180l84 -88q12 -12 12 -34t-12 -34l-112 -112q-16 -16 -32 -16zM1372 1188l-520 512v176h180l520 -520zM512 512h-172v-340h172v340zM680 1364h-168v-168h168v168zM852 512h-172v-340h172v340zM1192 172v168h-168v-168h168zM1536 340
h-172v-168h172v168zM680 1708v-172h-168v-172h-172v-168h-172v-172h172v-512h-172v-340h-168v1704h680v-168zM340 1708h-172v-172h172v172zM1704 852h-340v-168h340v168zM1536 512v-172h168v172h-168zM1364 340v344h-340v-172h168v-172h172zM680 1536v-172h172v-340h-340
v-340h340v168h172v172h168v-172h172v96l-248 248h-92v92l-248 248h-96z" />
</svg>
