<?xml version="1.0" standalone="no"?>
<!DOCTYPE svg PUBLIC "-//W3C//DTD SVG 1.1//EN" "http://www.w3.org/Graphics/SVG/1.1/DTD/svg11.dtd" >
<svg xmlns="http://www.w3.org/2000/svg" xmlns:xlink="http://www.w3.org/1999/xlink" version="1.1" viewBox="-10 0 1984 2048">
   <path fill="currentColor"
d="M88 1364h168v512h-168v-512zM256 172h-168v512h168v-512zM1624 940h-684v168h684v-168zM172 852q-72 0 -122 50t-50 122t50 122t122 50t122 -50t50 -122t-50 -122t-122 -50zM1964 512v1024q0 72 -50 122t-122 50h-1024q-68 0 -118 -50t-50 -122v-340l-172 -172l172 -172
v-340q0 -72 50 -122t118 -50h1024q72 0 122 50t50 122zM1792 512h-1024v1024h1024v-1024z" />
</svg>
