<?xml version="1.0" standalone="no"?>
<!DOCTYPE svg PUBLIC "-//W3C//DTD SVG 1.1//EN" "http://www.w3.org/Graphics/SVG/1.1/DTD/svg11.dtd" >
<svg xmlns="http://www.w3.org/2000/svg" xmlns:xlink="http://www.w3.org/1999/xlink" version="1.1" viewBox="-10 0 1984 2048">
   <path fill="currentColor"
d="M1536 596h-256l344 -340l340 340h-256v1196h-172v-1196zM600 1364h256v-256h-256v256zM1024 428h-84v-172h-172v172h-340v-172h-172v172h-84q-72 0 -122 50t-50 118v940q0 72 50 122t122 50h852q72 0 122 -50t50 -122v-940q0 -68 -50 -118t-122 -50zM172 1536v-596h852
v596h-852z" />
</svg>
