<?xml version="1.0" standalone="no"?>
<!DOCTYPE svg PUBLIC "-//W3C//DTD SVG 1.1//EN" "http://www.w3.org/Graphics/SVG/1.1/DTD/svg11.dtd" >
<svg xmlns="http://www.w3.org/2000/svg" xmlns:xlink="http://www.w3.org/1999/xlink" version="1.1" viewBox="-10 0 1556 2048">
   <path fill="currentColor"
d="M428 1036v-864h-172v864q-112 28 -184 120t-72 210t72 208t184 122v180h172v-180q112 -32 184 -122t72 -208t-72 -210t-184 -120zM340 1196q72 0 122 50t50 120t-50 120t-120 50t-120 -50t-50 -120t50 -120t118 -50zM1280 172h-172v180q-112 32 -184 122t-72 208t72 210
t184 120v864h172v-864q112 -28 184 -120t72 -210t-72 -208t-184 -122v-180zM1196 512q68 0 118 50t50 120t-50 120t-120 50t-120 -50t-50 -120t50 -120t122 -50z" />
</svg>
