<?xml version="1.0" standalone="no"?>
<!DOCTYPE svg PUBLIC "-//W3C//DTD SVG 1.1//EN" "http://www.w3.org/Graphics/SVG/1.1/DTD/svg11.dtd" >
<svg xmlns="http://www.w3.org/2000/svg" xmlns:xlink="http://www.w3.org/1999/xlink" version="1.1" viewBox="-10 0 1732 2048">
   <path fill="currentColor"
d="M724 1460l-92 -92l1080 -1080l-120 -120l-1080 1080l-92 -92q-48 -48 -120 -48t-120 48l-180 184l60 60l180 -184l60 64l-180 180l60 60l180 -180l60 60l-180 180l60 60l180 -180l60 60l-180 180l60 60l180 -180l64 60l-184 180l60 60l184 -180q48 -48 48 -120t-48 -120z
" />
</svg>
