<?xml version="1.0" standalone="no"?>
<!DOCTYPE svg PUBLIC "-//W3C//DTD SVG 1.1//EN" "http://www.w3.org/Graphics/SVG/1.1/DTD/svg11.dtd" >
<svg xmlns="http://www.w3.org/2000/svg" xmlns:xlink="http://www.w3.org/1999/xlink" version="1.1" viewBox="-10 0 1556 2048">
   <path fill="currentColor"
d="M308 920q88 176 234 322t330 242l188 -188q16 -20 40 -24t44 8q140 52 308 52q36 0 60 24t24 60v292q0 36 -24 60t-60 24q-396 0 -732 -196q-332 -192 -524 -524q-196 -336 -196 -732q0 -36 26 -60t58 -24h300q40 0 62 24t22 60q0 156 52 308q12 40 -16 84zM940 256
q-40 0 -64 24t-24 62t24 62t62 24t62 -24t24 -62t-24 -62t-60 -24zM1196 256q-40 0 -64 24t-24 62t24 62t62 24t62 -24t24 -62t-24 -62t-60 -24zM1452 256q-40 0 -64 24t-24 62t24 62t62 24t62 -24t24 -62t-24 -62t-60 -24zM940 512q-40 0 -64 24t-24 62t24 62t62 24t62 -24
t24 -62t-24 -62t-60 -24zM1196 512q-40 0 -64 24t-24 62t24 62t62 24t62 -24t24 -62t-24 -62t-60 -24zM1452 512q-40 0 -64 24t-24 62t24 62t62 24t62 -24t24 -62t-24 -62t-60 -24zM940 768q-40 0 -64 24t-24 62t24 62t62 24t62 -24t24 -62t-24 -62t-60 -24zM1196 768
q-40 0 -64 24t-24 62t24 62t62 24t62 -24t24 -62t-24 -62t-60 -24zM1452 768q-40 0 -64 24t-24 62t24 62t62 24t62 -24t24 -62t-24 -62t-60 -24z" />
</svg>
