<?xml version="1.0" standalone="no"?>
<!DOCTYPE svg PUBLIC "-//W3C//DTD SVG 1.1//EN" "http://www.w3.org/Graphics/SVG/1.1/DTD/svg11.dtd" >
<svg xmlns="http://www.w3.org/2000/svg" xmlns:xlink="http://www.w3.org/1999/xlink" version="1.1" viewBox="-10 0 1724 2048">
   <path fill="currentColor"
d="M1516 564l-68 116v176l-112 136l-32 140l-112 64l-40 -76l80 -44l28 -124l60 -72q12 -12 10 -30t-16 -30t-32 -10t-30 14l-72 88l-24 108h-8q-28 4 -40 4q-88 0 -152 -52q-4 84 -30 152t-62 108l-140 148l-48 308l-160 104l-44 -72l128 -84l40 -276l40 -120
q-68 -60 -96 -192l-28 52q-52 96 -84 144l-8 12q-36 52 -60 76q-36 44 -84 72q-28 16 -66 24t-70 0q-68 -16 -112 -72q-32 -44 -48 -96q-12 -36 -24 -96l80 -24q40 104 82 140t78 4t76 -128q24 -48 60 -160l16 -44q76 -212 140 -326t144 -182q120 -104 260 -104q76 0 168 64
q76 56 140 136q24 36 70 32t70 -44l76 -132q-16 -8 -28 -20q-24 -28 -24 -62t24 -58l96 96h8q52 0 76 48l92 196l-84 44z" />
</svg>
