<?xml version="1.0" standalone="no"?>
<!DOCTYPE svg PUBLIC "-//W3C//DTD SVG 1.1//EN" "http://www.w3.org/Graphics/SVG/1.1/DTD/svg11.dtd" >
<svg xmlns="http://www.w3.org/2000/svg" xmlns:xlink="http://www.w3.org/1999/xlink" version="1.1" viewBox="-11 0 1086 2048">
   <path fill="currentColor"
d="M1065 1354q0 174 -113.5 300.5t-295.5 156.5v200q0 16 -10.5 26.5t-26.5 10.5h-154q-14 0 -25.5 -11t-11.5 -26v-200q-74 -11 -144.5 -36t-116 -50.5t-84.5 -55t-53 -43t-21 -20.5q-18 -24 -3 -46l118 -155q9 -11 26.5 -13t27.5 10q1 0 3 2q13 11 27 23t53.5 37.5
t78 43.5t94 33t108.5 15q59 0 111 -19.5t87.5 -63.5t35.5 -105q0 -18 -5 -35t-12.5 -30.5t-23.5 -28.5t-28 -25t-36.5 -23.5t-39.5 -21.5t-46 -21.5t-47 -20t-52 -20.5q-58 -23 -91 -37t-89 -41.5t-89 -50.5t-74 -60.5t-63.5 -76.5t-38.5 -91.5t-16 -112.5q0 -157 112 -276
t291 -154v-206q0 -15 11.5 -25.5t25.5 -10.5h154q16 0 26.5 10t10.5 26v201q66 7 127 26.5t99 38t73 43t44.5 33t16.5 16.5q18 21 5 43l-92 167q-9 16 -27 18q-15 3 -30 -8q-3 -3 -16 -13.5t-44.5 -30t-67 -36.5t-85.5 -30t-98 -13q-108 0 -177 49t-69 127q0 20 6 38.5
t13.5 33t24 30t29 26.5t38 25t41.5 22t48 21.5t49 20.5t53 21q60 23 92.5 36.5t87.5 39.5t86 48.5t71 57.5t61 72t35.5 87.5t14.5 107.5z" />
</svg>
