<?xml version="1.0" standalone="no"?>
<!DOCTYPE svg PUBLIC "-//W3C//DTD SVG 1.1//EN" "http://www.w3.org/Graphics/SVG/1.1/DTD/svg11.dtd" >
<svg xmlns="http://www.w3.org/2000/svg" xmlns:xlink="http://www.w3.org/1999/xlink" version="1.1" viewBox="-10 0 1724 2048">
   <path fill="currentColor"
d="M1536 172h-1368q-68 0 -118 50t-50 118v1024q0 72 50 122t118 50h344l340 340l340 -340h344q68 0 118 -50t50 -122v-1024q0 -68 -50 -118t-118 -50zM1536 1364h-412l-272 272l-272 -272h-412v-1024h1368v1024zM548 1036l184 -184l-184 -180l124 -120l180 180l180 -180
l124 120l-184 180l184 184l-124 120l-180 -184l-180 184z" />
</svg>
