<?xml version="1.0" standalone="no"?>
<!DOCTYPE svg PUBLIC "-//W3C//DTD SVG 1.1//EN" "http://www.w3.org/Graphics/SVG/1.1/DTD/svg11.dtd" >
<svg xmlns="http://www.w3.org/2000/svg" xmlns:xlink="http://www.w3.org/1999/xlink" version="1.1" viewBox="-10 0 1300 2048">
   <path fill="currentColor"
d="M652 1168q-48 44 -100 68v556l-168 172l-172 -172l172 -144l-128 -112l128 -112l-172 -144v-44q-96 -48 -154 -138t-58 -202q0 -160 112 -272t272 -112h8l-8 16q-36 76 -40 160q-40 16 -64 48t-24 76q0 52 36 90t92 38h8q40 80 108 138t152 90zM936 512q0 -80 -24 -156
q88 24 156 86t104 150q36 108 12 214t-96 182l192 520l-104 220l-220 -104l108 -192l-156 -60l84 -148l-212 -80l-12 -40q-108 -12 -194 -78t-124 -166t-20 -202t84 -180t162 -114l48 -12q-44 -80 -124 -130t-176 -50q-140 0 -240 100t-100 240q0 16 4 24q-48 36 -76 76
q-12 -56 -12 -100q0 -116 56 -214t154 -156t214 -58t214 58t156 156t58 214q0 144 -92 260q116 -8 156 -136q24 -64 20 -124zM664 692q8 16 24 36q76 -88 80 -208l-28 8q-48 20 -72 68t-4 96z" />
</svg>
