<?xml version="1.0" standalone="no"?>
<!DOCTYPE svg PUBLIC "-//W3C//DTD SVG 1.1//EN" "http://www.w3.org/Graphics/SVG/1.1/DTD/svg11.dtd" >
<svg xmlns="http://www.w3.org/2000/svg" xmlns:xlink="http://www.w3.org/1999/xlink" version="1.1" viewBox="-10 0 1724 2048">
   <path fill="currentColor"
d="M340 512q72 0 122 -50t50 -120t-50 -120t-122 -50t-122 50t-50 120t50 120t122 50zM680 804q0 -52 -28 -94t-76 -62q-112 -52 -236 -52t-236 52q-48 20 -76 62t-28 94v48h680v-48zM1364 512q72 0 122 -50t50 -120t-50 -120t-122 -50t-122 50t-50 120t50 120t122 50z
M1704 804q0 -52 -28 -94t-76 -62q-112 -52 -236 -52t-236 52q-48 20 -76 62t-28 94v48h680v-48zM1448 1452v-172h-1192v172l-256 -256l256 -256v168h1192v-168l256 256zM680 1620v-84h-212q-16 0 -30 12t-14 32v256q0 16 14 28t30 12h172q16 0 28 -12t12 -28v-128
q0 -20 -12 -32t-28 -12h-128v-44h168zM596 1748v44h-84v-44h84zM1320 1620h-84v256h-84v-256h-88v-84h256v84zM896 1620v44h84v84h-84v128h-88v-340h216v84h-128z" />
</svg>
