<?xml version="1.0" standalone="no"?>
<!DOCTYPE svg PUBLIC "-//W3C//DTD SVG 1.1//EN" "http://www.w3.org/Graphics/SVG/1.1/DTD/svg11.dtd" >
<svg xmlns="http://www.w3.org/2000/svg" xmlns:xlink="http://www.w3.org/1999/xlink" version="1.1" viewBox="-10 0 1724 2048">
   <path fill="currentColor"
d="M256 512q-72 0 -122 50t-50 120t50 120t120 50t120 -50t50 -120t-50 -120t-118 -50zM852 340q-72 0 -122 50t-50 122t50 122t122 50t122 -50t50 -122t-50 -122t-122 -50zM1448 172q-68 0 -118 50t-50 120t50 120t120 50t120 -50t50 -120t-50 -120t-122 -50zM128 940
q-56 0 -92 36t-36 92v384h84v424h340v-424h88v-384q0 -56 -38 -92t-90 -36h-256zM724 768q-52 0 -90 38t-38 90v384h84v428h344v-428h84v-384q0 -52 -38 -90t-90 -38h-256zM1320 596q-52 0 -90 38t-38 90v384h88v428h340v-428h84v-384q0 -52 -36 -90t-92 -38h-256z" />
</svg>
