<?xml version="1.0" standalone="no"?>
<!DOCTYPE svg PUBLIC "-//W3C//DTD SVG 1.1//EN" "http://www.w3.org/Graphics/SVG/1.1/DTD/svg11.dtd" >
<svg xmlns="http://www.w3.org/2000/svg" xmlns:xlink="http://www.w3.org/1999/xlink" version="1.1" viewBox="-10 0 1812 2048">
   <path fill="currentColor"
d="M1620 768q-72 0 -122 -50t-50 -122q0 -40 44 -128q32 -64 84 -144l44 -68l44 68q52 80 84 144q44 88 44 128q0 72 -50 122t-122 50zM1320 596q0 -80 80 -224q-112 -96 -254 -148t-294 -52q-232 0 -428 114t-310 310t-114 428t114 428t310 310t428 114t428 -114t310 -310
t114 -428q0 -60 -12 -140q-40 12 -72 12q-124 0 -212 -88t-88 -212zM1160 628l92 92l-92 92l92 88l-92 92l-180 -180zM452 720l92 -92l180 184l-180 180l-92 -92l92 -88zM1144 1452q-44 -80 -122 -126t-170 -46t-170 46t-122 126h-144q36 -96 112 -172l-252 -144
q-32 16 -64 16t-64 -16q-44 -28 -58 -78t12 -96t76 -60t98 10q32 20 48 50t16 62l304 176q96 -48 208 -48q148 0 266 82t170 218h-144z" />
</svg>
