<?xml version="1.0" standalone="no"?>
<!DOCTYPE svg PUBLIC "-//W3C//DTD SVG 1.1//EN" "http://www.w3.org/Graphics/SVG/1.1/DTD/svg11.dtd" >
<svg xmlns="http://www.w3.org/2000/svg" xmlns:xlink="http://www.w3.org/1999/xlink" version="1.1" viewBox="-10 0 1616 2048">
   <path fill="currentColor"
d="M1596 1786l-120 120l-276 -268l-92 208l-168 -592l596 168l-216 88zM1364 742h-1192v936h716l48 172h-764q-72 0 -122 -50t-50 -122v-1192q0 -72 50 -122t122 -50h84v-172h172v172h680v-172h172v172h84q72 0 122 50t50 122v764l-172 -52v-456zM768 910v428h-428v-428h428
z" />
</svg>
