<?xml version="1.0" standalone="no"?>
<!DOCTYPE svg PUBLIC "-//W3C//DTD SVG 1.1//EN" "http://www.w3.org/Graphics/SVG/1.1/DTD/svg11.dtd" >
<svg xmlns="http://www.w3.org/2000/svg" xmlns:xlink="http://www.w3.org/1999/xlink" version="1.1" viewBox="-11 0 1195 2048">
   <path fill="currentColor"
d="M688 1755h-196q-15 0 -25.5 -10.5t-10.5 -26.5v-377h-330q-15 0 -25.5 -10t-10.5 -26v-118q0 -16 10.5 -26.5t25.5 -10.5h330v-97h-330q-15 0 -25.5 -10t-10.5 -26v-119q0 -15 10.5 -26t25.5 -11h244l-366 -660q-10 -18 0 -37q12 -18 32 -18h222q22 0 32 20l246 486
q26 51 64 143q12 -29 36.5 -81.5t29.5 -65.5l220 -480q9 -22 32 -22h218q20 0 32 18q11 17 0 36l-358 661h246q16 0 27 11t11 26v119q0 16 -11 26t-27 10h-330v97h330q16 0 27 10.5t11 26.5v118q0 16 -11 26t-27 10h-330v377q0 15 -11.5 26t-26.5 11z" />
</svg>
