<?xml version="1.0" standalone="no"?>
<!DOCTYPE svg PUBLIC "-//W3C//DTD SVG 1.1//EN" "http://www.w3.org/Graphics/SVG/1.1/DTD/svg11.dtd" >
<svg xmlns="http://www.w3.org/2000/svg" xmlns:xlink="http://www.w3.org/1999/xlink" version="1.1" viewBox="-10 0 1360 2048">
   <path fill="currentColor"
d="M652 1168q-60 60 -140 88v708h-256v-172h-256v-256h256v-280q-116 -40 -186 -138t-70 -222q0 -160 112 -272t272 -112h8q-64 128 -48 264q-40 12 -64 46t-24 74q0 52 36 90t92 38q24 0 56 -12q80 108 212 156zM1340 1660l-236 96l-64 -156l-236 100l-100 -236l236 -100
l-108 -256q-120 8 -224 -56t-152 -176q-64 -148 -2 -296t206 -208q24 -12 64 -20q-44 -80 -124 -130t-176 -50q-140 0 -240 100t-100 240v20q-40 36 -72 80q-12 -56 -12 -100q0 -116 56 -214t154 -156t214 -58t214 58t156 156t58 214q0 88 -34 166t-98 138q28 28 64 36
t76 -8q48 -20 68 -70t0 -98q-4 -12 -12 -24q20 -72 20 -140q0 -80 -24 -156q84 24 150 82t102 138q48 116 20 234t-120 198zM680 732q48 -52 72 -120q-36 16 -54 50t-18 70z" />
</svg>
