<?xml version="1.0" standalone="no"?>
<!DOCTYPE svg PUBLIC "-//W3C//DTD SVG 1.1//EN" "http://www.w3.org/Graphics/SVG/1.1/DTD/svg11.dtd" >
<svg xmlns="http://www.w3.org/2000/svg" xmlns:xlink="http://www.w3.org/1999/xlink" version="1.1" viewBox="-10 0 1796 2048">
   <path fill="currentColor"
d="M436 900l92 -88l-92 -92l92 -92l180 184l-180 180zM196 768h8q76 -192 248 -310t384 -118q136 0 260 52t220 144q16 -72 68 -164q-112 -96 -254 -148t-294 -52q-204 0 -382 90t-298 248t-156 354q36 -44 88 -70t108 -26zM1604 896q-48 0 -100 -20q16 76 16 148
q0 184 -92 342t-250 250t-342 92q-212 0 -384 -118t-248 -310h-8q-68 0 -128 -36q-40 -20 -68 -56q36 192 156 350t298 248t382 90q232 0 428 -114t310 -310t114 -428q0 -60 -12 -140q-40 12 -72 12zM1604 256q-24 32 -44 68q-52 80 -84 144q-44 88 -44 128q0 72 50 122
t122 50t122 -50t50 -122q0 -56 -88 -204q-40 -76 -84 -136zM1144 628l-180 184l180 180l92 -92l-92 -88l92 -92zM544 1452q44 -80 122 -126t170 -46t170 46t122 126h144q-52 -136 -170 -218t-266 -82q-112 0 -208 48l-304 -176q0 -32 -16 -62t-48 -50q-48 -24 -98 -10
t-76 60t-14 96t60 78q28 16 64 16t64 -16l252 148q-72 68 -112 168h144z" />
</svg>
