<?xml version="1.0" standalone="no"?>
<!DOCTYPE svg PUBLIC "-//W3C//DTD SVG 1.1//EN" "http://www.w3.org/Graphics/SVG/1.1/DTD/svg11.dtd" >
<svg xmlns="http://www.w3.org/2000/svg" xmlns:xlink="http://www.w3.org/1999/xlink" version="1.1" viewBox="-10 0 1724 2048">
   <path fill="currentColor"
d="M936 1792h-168v-1280l-168 -172l80 -84l172 172l172 -172l84 84l-172 172v1280zM1024 768v-172q112 -84 256 -84q116 0 214 58t154 156t56 214q0 100 -46 190t-122 150v172q0 140 -100 240t-244 100q-92 0 -168 -48v-168q76 44 168 44q72 0 122 -50t50 -118v-272
q76 -28 124 -94t48 -146q0 -108 -76 -182t-180 -74q-144 0 -256 84zM680 768q-112 -84 -256 -84q-104 0 -180 74t-76 182q0 80 48 146t124 94v272q0 68 50 118t122 50q92 0 168 -44v168q-76 48 -168 48q-144 0 -244 -100t-100 -240v-172q-76 -60 -122 -150t-46 -190
q0 -116 56 -214t154 -156t214 -58q144 0 256 84v172zM596 940l-128 -128l-128 128l128 128zM1364 940l-128 -128l-128 128l128 128z" />
</svg>
