<?xml version="1.0" standalone="no"?>
<!DOCTYPE svg PUBLIC "-//W3C//DTD SVG 1.1//EN" "http://www.w3.org/Graphics/SVG/1.1/DTD/svg11.dtd" >
<svg xmlns="http://www.w3.org/2000/svg" xmlns:xlink="http://www.w3.org/1999/xlink" version="1.1" viewBox="-10 0 1900 2048">
   <path fill="currentColor"
d="M812 340q-144 0 -266 68t-200 186t-90 258h-256l344 344l340 -344h-252q16 -144 124 -242t256 -98q160 0 272 112t112 272t-112 272t-272 112h-724v172h724q152 0 278 -76t202 -202t76 -278t-76 -278t-202 -202t-278 -76zM1536 1024v256h-212q-80 104 -192 172h404v256
l344 -344z" />
</svg>
