<?xml version="1.0" standalone="no"?>
<!DOCTYPE svg PUBLIC "-//W3C//DTD SVG 1.1//EN" "http://www.w3.org/Graphics/SVG/1.1/DTD/svg11.dtd" >
<svg xmlns="http://www.w3.org/2000/svg" xmlns:xlink="http://www.w3.org/1999/xlink" version="1.1" viewBox="-10 0 1640 2048">
   <path fill="currentColor"
d="M0 386l108 -108l1512 1512l-108 108l-148 -148q-36 20 -84 20q0 36 -26 60t-60 24t-60 -24t-26 -60h-512q0 36 -26 60t-60 24t-60 -24t-26 -60q-72 0 -120 -50t-48 -122v-956zM640 1514h-128v-616l-88 -88v788h788l-84 -84h-64v-64l-148 -148v212h-128v-340l-148 -148
v488zM916 746v124l-124 -124h124zM1064 746h128v400l-128 -128v-272zM1280 490q72 0 120 50t48 122v740l-168 -168v-572h-572l-172 -172h60v-256q0 -36 26 -60t58 -24h344q32 0 58 24t26 60v256h172zM724 278v212h256v-212h-256z" />
</svg>
