<?xml version="1.0" standalone="no"?>
<!DOCTYPE svg PUBLIC "-//W3C//DTD SVG 1.1//EN" "http://www.w3.org/Graphics/SVG/1.1/DTD/svg11.dtd" >
<svg xmlns="http://www.w3.org/2000/svg" xmlns:xlink="http://www.w3.org/1999/xlink" version="1.1" viewBox="-10 0 1812 2048">
   <path fill="currentColor"
d="M1368 406l52 116l116 52l-116 56l-52 116l-56 -116l-116 -56l116 -52zM1624 1174q68 0 118 -50t50 -122q0 -60 -84 -204q-44 -76 -84 -136l-44 68q-52 80 -84 140q-44 92 -44 132q0 72 50 122t122 50zM856 498v-180h168q72 0 132 40l124 -124q-116 -84 -256 -84h-468v168
h128v180q-112 28 -198 104t-122 188h184q36 -60 94 -94t126 -34q104 0 178 72t78 176l172 64v-56q0 -156 -98 -272t-242 -148zM1792 1598v88l-680 212l-600 -164v120h-512v-936h680l528 196q72 24 116 88t44 140h168q108 0 182 76t74 180zM344 1686v-600h-172v600h172z
M1616 1562q-12 -20 -34 -34t-46 -14h-456q-72 0 -136 -20l-200 -68l52 -164l204 68q16 4 108 12h88q0 -24 -14 -42t-34 -26l-496 -188h-140v472l596 160z" />
</svg>
