<?xml version="1.0" standalone="no"?>
<!DOCTYPE svg PUBLIC "-//W3C//DTD SVG 1.1//EN" "http://www.w3.org/Graphics/SVG/1.1/DTD/svg11.dtd" >
<svg xmlns="http://www.w3.org/2000/svg" xmlns:xlink="http://www.w3.org/1999/xlink" version="1.1" viewBox="-10 0 1724 2048">
   <path fill="currentColor"
d="M852 1708q184 0 342 -92t250 -250t92 -342t-92 -342t-250 -250t-342 -92t-342 92t-250 250t-92 342t92 342t250 250t342 92zM852 1876q-232 0 -428 -114t-310 -310t-114 -428t114 -428t310 -310t428 -114t428 114t310 310t114 428t-114 428t-310 310t-428 114zM768 1156
h-256l340 336l340 -336h-256v-600h-168v600z" />
</svg>
