<?xml version="1.0" standalone="no"?>
<!DOCTYPE svg PUBLIC "-//W3C//DTD SVG 1.1//EN" "http://www.w3.org/Graphics/SVG/1.1/DTD/svg11.dtd" >
<svg xmlns="http://www.w3.org/2000/svg" xmlns:xlink="http://www.w3.org/1999/xlink" version="1.1" viewBox="-10 0 1724 2048">
   <path fill="currentColor"
d="M1192 340q0 -68 50 -118t122 -50t122 50t50 120t-50 120t-122 50t-122 -50t-50 -122zM1600 648q-112 -52 -236 -52q-84 0 -164 24q80 76 80 184v48h424v-48q0 -52 -28 -94t-76 -62zM340 512q72 0 122 -50t50 -120t-50 -120t-122 -50t-122 50t-50 120t50 120t122 50z
M504 620q-80 -24 -164 -24q-124 0 -236 52q-48 20 -76 62t-28 94v48h424v-48q0 -108 80 -184zM680 340q0 -68 50 -118t122 -50t122 50t50 120t-50 120t-122 50t-122 -50t-50 -122zM1192 852h-680v-48q0 -52 28 -94t76 -62q112 -52 236 -52t236 52q48 20 76 62t28 94v48z
M1108 1364q0 -68 50 -118t120 -50t120 50t50 120t-50 120t-120 50t-120 -50t-50 -122zM1620 1876h-684v-48q0 -52 30 -94t74 -62q116 -52 240 -52t236 52q48 20 76 62t28 94v48zM256 1364q0 -68 50 -118t120 -50t120 50t50 120t-50 120t-120 50t-120 -50t-50 -122zM768 1876
h-684v-48q0 -52 28 -94t76 -62q112 -52 236 -52t240 52q44 20 74 62t30 94v48zM916 1108v-168h-128v168h-192l256 256l256 -256h-192z" />
</svg>
