<?xml version="1.0" standalone="no"?>
<!DOCTYPE svg PUBLIC "-//W3C//DTD SVG 1.1//EN" "http://www.w3.org/Graphics/SVG/1.1/DTD/svg11.dtd" >
<svg xmlns="http://www.w3.org/2000/svg" xmlns:xlink="http://www.w3.org/1999/xlink" version="1.1" viewBox="-10 0 1724 2048">
   <path fill="currentColor"
d="M168 1024q0 184 92 342t250 250t342 92t342 -92t250 -250t92 -342t-92 -342t-250 -250t-342 -92t-342 92t-250 250t-92 342zM0 1024q0 -232 114 -428t310 -310t428 -114t428 114t310 310t114 428t-114 428t-310 310t-428 114t-428 -114t-310 -310t-114 -428zM720 940
v-256l-336 340l336 340v-256h600v-168h-600z" />
</svg>
