<?xml version="1.0" standalone="no"?>
<!DOCTYPE svg PUBLIC "-//W3C//DTD SVG 1.1//EN" "http://www.w3.org/Graphics/SVG/1.1/DTD/svg11.dtd" >
<svg xmlns="http://www.w3.org/2000/svg" xmlns:xlink="http://www.w3.org/1999/xlink" version="1.1" viewBox="-10 0 1728 2048">
   <path fill="currentColor"
d="M1196 1142q36 0 64 28t28 66t-28 66t-66 28t-66 -28t-28 -66t28 -66t68 -28zM1196 1406q-56 0 -116 24q-72 32 -72 72q32 44 82 72t106 28t104 -28t84 -72q0 -40 -72 -72q-60 -24 -116 -24zM1280 862v-412l-640 -280l-640 280v420q0 188 84 366t230 304t326 166
q52 -8 136 -44q72 100 182 158t238 58q136 0 254 -70t188 -188t70 -254q0 -192 -122 -332t-306 -172zM684 1366q0 48 16 136l-60 24q-204 -64 -336 -248t-132 -408v-308l468 -204l468 204v300q-180 32 -302 172t-122 332zM1196 1706q-144 0 -244 -100t-100 -242t100 -242
t242 -100t242 100t100 242t-100 242t-240 100z" />
</svg>
