<?xml version="1.0" standalone="no"?>
<!DOCTYPE svg PUBLIC "-//W3C//DTD SVG 1.1//EN" "http://www.w3.org/Graphics/SVG/1.1/DTD/svg11.dtd" >
<svg xmlns="http://www.w3.org/2000/svg" xmlns:xlink="http://www.w3.org/1999/xlink" version="1.1" viewBox="-10 0 1806 2048">
   <path fill="currentColor"
d="M1721 744q72 -72 64 -164q-12 -72 -64 -128l-256 -256q-72 -72 -164 -64q-72 12 -128 64l-144 144h-220q-116 0 -196 56q-68 48 -108 128l-380 380v340l-60 60q-72 72 -64 164q12 72 64 128l256 256q64 64 140 64q44 0 84 -18t68 -46l228 -232h308q100 0 168 -56
q56 -44 76 -120q68 -20 116 -68q36 -44 56 -104q92 -24 140 -104q40 -68 40 -144v-256h-48zM1577 1024q0 36 -20 60t-68 24h-84v88q0 32 -20 58t-64 26h-88v84q0 36 -18 62t-66 26h-376l-280 280q-28 24 -52 0l-256 -256q-24 -24 0 -52l112 -108v-344l168 -168v136
q0 92 60 164q68 92 196 92t200 -92q56 -72 56 -164h600v84zM1601 624l-144 144h-648v172q0 32 -20 58t-66 26t-66 -26t-20 -58v-256q0 -56 28 -100q44 -72 144 -72h288l196 -196q28 -24 52 0l256 256q24 24 0 52z" />
</svg>
