<?xml version="1.0" standalone="no"?>
<!DOCTYPE svg PUBLIC "-//W3C//DTD SVG 1.1//EN" "http://www.w3.org/Graphics/SVG/1.1/DTD/svg11.dtd" >
<svg xmlns="http://www.w3.org/2000/svg" xmlns:xlink="http://www.w3.org/1999/xlink" version="1.1" viewBox="-10 0 1556 2048">
   <path fill="currentColor"
d="M1364 256h-1192q-72 0 -122 50t-50 122v1192q0 72 50 122t122 50h1192q72 0 122 -50t50 -122v-1192q0 -72 -50 -122t-122 -50zM1364 1620h-1192v-1192h1192v1192zM272 656h428v128h-428v-128zM852 1348h428v128h-428v-128zM852 1128h428v128h-428v-128zM428 1536h128
v-172h168v-128h-168v-168h-128v168h-172v128h172v172zM948 932l120 -120l120 120l92 -88l-120 -120l120 -120l-92 -92l-120 120l-120 -120l-96 92l120 120l-120 120z" />
</svg>
