<?xml version="1.0" standalone="no"?>
<!DOCTYPE svg PUBLIC "-//W3C//DTD SVG 1.1//EN" "http://www.w3.org/Graphics/SVG/1.1/DTD/svg11.dtd" >
<svg xmlns="http://www.w3.org/2000/svg" xmlns:xlink="http://www.w3.org/1999/xlink" version="1.1" viewBox="-10 0 1724 2048">
   <path fill="currentColor"
d="M1536 900v-112q0 -64 -40 -112l-336 -400q-52 -64 -132 -64h-860q-68 0 -118 50t-50 122v596q0 72 50 122t118 50h4q16 72 74 122t136 50t136 -50t74 -122h692q12 72 72 122t136 50q88 0 150 -64t62 -152q0 -76 -48 -134t-120 -74zM128 384q0 -16 12 -30t28 -14h256v384
h-296v-340zM384 1196q-36 0 -62 -26t-26 -60t26 -60t60 -26t60 26t26 60t-26 60t-58 26zM936 1024h-340v-128h172v-172h-172v-384h340v684zM1108 412l260 312h-260v-312zM1492 1196q-36 0 -60 -26t-24 -60t24 -60t60 -26t60 26t24 60t-24 60t-60 26zM768 1580h-344l512 256
v-172h344l-512 -256v172z" />
</svg>
