<?xml version="1.0" standalone="no"?>
<!DOCTYPE svg PUBLIC "-//W3C//DTD SVG 1.1//EN" "http://www.w3.org/Graphics/SVG/1.1/DTD/svg11.dtd" >
<svg xmlns="http://www.w3.org/2000/svg" xmlns:xlink="http://www.w3.org/1999/xlink" version="1.1" viewBox="-10 0 1724 2048">
   <path fill="currentColor"
d="M1448 342q0 -72 -50 -122t-118 -50h-256v172h256v224l-300 372h-300v-428h-340q-140 0 -240 100t-100 244v256h168q0 104 76 180t182 76t180 -76t74 -180h384l384 -484v-284zM424 1194q-32 0 -58 -26t-26 -58h172q0 32 -26 58t-62 26zM256 254h424v172h-424v-172z
M1448 854q-104 0 -180 74t-76 180t76 182t182 76t180 -76t74 -182t-74 -180t-182 -74zM1448 1194q-32 0 -58 -26t-26 -60t26 -60t60 -26t60 26t26 60t-26 60t-62 26zM424 1622h344v-172l512 256h-344v172z" />
</svg>
