<?xml version="1.0" standalone="no"?>
<!DOCTYPE svg PUBLIC "-//W3C//DTD SVG 1.1//EN" "http://www.w3.org/Graphics/SVG/1.1/DTD/svg11.dtd" >
<svg xmlns="http://www.w3.org/2000/svg" xmlns:xlink="http://www.w3.org/1999/xlink" version="1.1" viewBox="-10 0 1724 2048">
   <path fill="currentColor"
d="M1448 596q0 -68 -50 -118t-118 -50h-256v168h256v228l-300 372h-300v-428h-340q-140 0 -240 100t-100 240v256h168q0 108 76 182t182 74t180 -74t74 -182h384l384 -480v-288zM424 1452q-32 0 -58 -26t-26 -62h172q0 36 -26 62t-62 26zM512 1196h-344v-88q0 -68 50 -118
t122 -50h172v256zM1448 1108q-104 0 -180 76t-76 182t76 180t182 74t180 -74t74 -180t-74 -182t-182 -76zM1448 1452q-32 0 -58 -26t-26 -60t26 -60t60 -26t60 26t26 60t-26 60t-62 26zM680 684h-424v-172h424v172z" />
</svg>
