<?xml version="1.0" standalone="no"?>
<!DOCTYPE svg PUBLIC "-//W3C//DTD SVG 1.1//EN" "http://www.w3.org/Graphics/SVG/1.1/DTD/svg11.dtd" >
<svg xmlns="http://www.w3.org/2000/svg" xmlns:xlink="http://www.w3.org/1999/xlink" version="1.1" viewBox="-10 0 1724 2048">
   <path fill="currentColor"
d="M1620 632h-60l-4 -4q-132 -8 -240 -48t-164 -100l-128 64l-16 24q100 88 100 192q0 32 -16 80l-160 -160q-32 36 -60 60l172 172q-28 36 -64 60l-176 -180q-28 20 -76 48l172 176q-44 16 -92 24l-160 -160q-52 20 -88 32l144 144h-24q-188 0 -316 -100q-96 16 -196 16
q-76 0 -120 68q-32 44 -44 120l-4 68q0 72 50 122t118 50v84q0 36 26 60t60 24t60 -24t26 -60v-84h84v84q0 36 26 60t60 24t60 -24t26 -60v-84h84v84q0 36 26 60t60 24t60 -24t26 -60v-84h256v84q0 36 26 60t60 24t60 -24t26 -60v-84h84v84q0 36 26 60t60 24t60 -24t26 -60
v-84h84l12 -8q16 -12 32 -40q16 -44 28 -116q12 -88 12 -222t-20 -230q-16 -72 -40 -120z" />
</svg>
