<?xml version="1.0" standalone="no"?>
<!DOCTYPE svg PUBLIC "-//W3C//DTD SVG 1.1//EN" "http://www.w3.org/Graphics/SVG/1.1/DTD/svg11.dtd" >
<svg xmlns="http://www.w3.org/2000/svg" xmlns:xlink="http://www.w3.org/1999/xlink" version="1.1" viewBox="-10 0 1721 2048">
   <path fill="currentColor"
d="M916 1020q-48 -320 -136 -532q-128 -316 -314 -316t-314 316q-84 208 -132 532q-32 204 -12 376t80 296q40 88 100 144q48 40 112 40h332q64 0 112 -40q144 -136 180 -440q20 -172 -8 -376zM468 340q24 -8 64 46t84 154l-400 340q32 -160 84 -296q48 -120 94 -186t74 -58
zM656 1108h-380q-24 0 -44 -16l444 -380q44 148 64 296q8 40 -18 70t-66 30zM1684 1020q-48 -320 -136 -532q-128 -316 -312 -316q-172 0 -292 260q48 128 84 284l444 376q-24 16 -48 16h-328q16 164 0 308q-32 256 -136 420q48 40 108 40h332q64 0 112 -40
q144 -136 180 -440q20 -172 -8 -376zM1088 540q44 -100 84 -154t64 -46q24 -8 72 58t92 186q52 136 88 296z" />
</svg>
