<?xml version="1.0" standalone="no"?>
<!DOCTYPE svg PUBLIC "-//W3C//DTD SVG 1.1//EN" "http://www.w3.org/Graphics/SVG/1.1/DTD/svg11.dtd" >
<svg xmlns="http://www.w3.org/2000/svg" xmlns:xlink="http://www.w3.org/1999/xlink" version="1.1" viewBox="-10 0 1812 2048">
   <path fill="currentColor"
d="M1492 128l-92 208l-208 92l208 92l92 208l92 -208l208 -92l-208 -92zM852 216q-232 0 -428 114t-310 310t-114 428v852h1704v-852q0 -184 -76 -352l-104 228q12 64 12 124q0 184 -92 342t-250 250t-342 92t-342 -92t-250 -250t-92 -342v-12q168 -64 296 -186t196 -286
q120 148 294 230t366 82q60 0 116 -8l-76 -160h-40q-180 0 -334 -90t-250 -242q68 -12 120 -12t116 12l232 -104q-168 -76 -352 -76zM520 472q-40 120 -122 220t-194 164q40 -124 122 -222t194 -162zM596 1048q-44 0 -76 30t-32 74t32 76t76 32t76 -32t32 -76t-32 -74
t-76 -30zM1108 1048q-44 0 -76 30t-32 74t32 76t76 32t76 -32t32 -76t-32 -74t-76 -30zM168 1576q76 100 176 176h-176v-176zM1536 1576v176h-176q100 -76 176 -176z" />
</svg>
