<?xml version="1.0" standalone="no"?>
<!DOCTYPE svg PUBLIC "-//W3C//DTD SVG 1.1//EN" "http://www.w3.org/Graphics/SVG/1.1/DTD/svg11.dtd" >
<svg xmlns="http://www.w3.org/2000/svg" xmlns:xlink="http://www.w3.org/1999/xlink" version="1.1" viewBox="-11 0 1726 2048">
   <path fill="currentColor"
d="M681 300q0 -56 38 -92t92 -36t90 36t36 90t-36 92t-90 38t-92 -38t-38 -90zM1705 684v296l-88 32q-8 76 -68 130t-140 54h-8q-16 84 -80 152v528h-212v-424h-20q-20 0 -56 -8l-376 -60l-96 168l64 324h-216l-68 -320q-4 -44 12 -72l88 -156q-64 -36 -102 -98t-42 -138
q-4 24 0 60v28q8 80 6 126t-22 90t-48 76q-48 56 -120 92l-56 -56l4 -16q28 -68 28 -96q8 -40 -8 -80l-44 -96q-44 -100 -36 -180q0 -60 32 -122t84 -98q108 -72 228 -44q64 12 124 56q48 -20 108 -20h20v-120q0 -64 40 -116t100 -60q80 -16 140 36t60 132v128h128v-44
q0 -140 100 -240t244 -100h296l-76 112q36 24 56 62t20 82zM1537 956l-92 -140q-8 -16 -22 -12t-14 20v284q52 0 90 -36t38 -92v-24z" />
</svg>
