<?xml version="1.0" standalone="no"?>
<!DOCTYPE svg PUBLIC "-//W3C//DTD SVG 1.1//EN" "http://www.w3.org/Graphics/SVG/1.1/DTD/svg11.dtd" >
<svg xmlns="http://www.w3.org/2000/svg" xmlns:xlink="http://www.w3.org/1999/xlink" version="1.1" viewBox="-10 0 1812 2048">
   <path fill="currentColor"
d="M1792 1022l-260 -96q-16 -60 -48 -112l-32 -40q-104 -108 -252 -108t-252 108l-128 124l-564 -600q-64 252 -8 500t216 456l-464 452l124 20q156 24 308 24q216 -4 392 -44q224 -56 376 -176q160 -124 236 -228q56 -76 84 -176zM1340 1042q-24 24 -60 24t-62 -24t-26 -60
t26 -60t62 -24t60 24t24 60t-24 60z" />
</svg>
