<?xml version="1.0" standalone="no"?>
<!DOCTYPE svg PUBLIC "-//W3C//DTD SVG 1.1//EN" "http://www.w3.org/Graphics/SVG/1.1/DTD/svg11.dtd" >
<svg xmlns="http://www.w3.org/2000/svg" xmlns:xlink="http://www.w3.org/1999/xlink" version="1.1" viewBox="-10 0 1775 2048">
   <path fill="currentColor"
d="M1678 544q17 17 32 41h-540v-540q24 15 41 32zM1134 731h621v1207q0 46 -31.5 78t-77.5 32h-1536q-46 0 -78 -32t-32 -78v-1829q0 -46 32 -77.5t78 -31.5h914v621q0 46 32 78t78 32zM1317 1572v-73q0 -16 -10.5 -26.5t-26.5 -10.5h-805q-16 0 -26 10.5t-10 26.5v73
q0 16 10 26.5t26 10.5h805q16 0 26.5 -10.5t10.5 -26.5zM1317 1280v-74q0 -16 -10.5 -26t-26.5 -10h-805q-16 0 -26 10t-10 26v74q0 16 10 26t26 10h805q16 0 26.5 -10t10.5 -26zM1317 987v-73q0 -16 -10.5 -26.5t-26.5 -10.5h-805q-16 0 -26 10.5t-10 26.5v73q0 16 10 26.5
t26 10.5h805q16 0 26.5 -10.5t10.5 -26.5z" />
</svg>
