<?xml version="1.0" standalone="no"?>
<!DOCTYPE svg PUBLIC "-//W3C//DTD SVG 1.1//EN" "http://www.w3.org/Graphics/SVG/1.1/DTD/svg11.dtd" >
<svg xmlns="http://www.w3.org/2000/svg" xmlns:xlink="http://www.w3.org/1999/xlink" version="1.1" viewBox="-10 0 1724 2048">
   <path fill="currentColor"
d="M1536 256h-1368q-68 0 -118 50t-50 122v1192q0 72 50 122t118 50h1368q68 0 118 -50t50 -122v-1192q0 -72 -50 -122t-118 -50zM512 1620h-256v-168h256v168zM512 1364h-256v-168h256v168zM512 1108h-256v-168h256v168zM980 1620h-256v-168h256v168zM980 1364h-256v-168
h256v168zM980 1108h-256v-168h256v168zM1448 1620h-256v-168h256v168zM1448 1364h-256v-168h256v168zM1448 1108h-256v-168h256v168zM1448 768h-1192v-340h1192v340z" />
</svg>
