<?xml version="1.0" standalone="no"?>
<!DOCTYPE svg PUBLIC "-//W3C//DTD SVG 1.1//EN" "http://www.w3.org/Graphics/SVG/1.1/DTD/svg11.dtd" >
<svg xmlns="http://www.w3.org/2000/svg" xmlns:xlink="http://www.w3.org/1999/xlink" version="1.1" viewBox="-10 0 1388 2048">
   <path fill="currentColor"
d="M1196 340v1368h-1024v-956l408 -412h616zM1196 172h-684l-512 512v1024q0 68 50 118t122 50h1024q72 0 122 -50t50 -118v-1368q0 -68 -50 -118t-122 -50zM472 1620h-172v-168h172v168zM1068 1620h-172v-168h172v168zM472 1280h-172v-340h172v340zM768 1620h-168v-340h168
v340zM768 1108h-168v-168h168v168zM1068 1280h-172v-340h172v340z" />
</svg>
