<?xml version="1.0" standalone="no"?>
<!DOCTYPE svg PUBLIC "-//W3C//DTD SVG 1.1//EN" "http://www.w3.org/Graphics/SVG/1.1/DTD/svg11.dtd" >
<svg xmlns="http://www.w3.org/2000/svg" xmlns:xlink="http://www.w3.org/1999/xlink" version="1.1" viewBox="-10 0 1900 2048">
   <path fill="currentColor"
d="M1624 768q-84 0 -150 48t-94 124h-200q-28 -76 -94 -124t-146 -48t-146 48t-94 124h-200q-28 -76 -94 -124t-150 -48q-104 0 -180 74t-76 182t76 182t180 74q84 0 150 -48t94 -124h200q28 76 94 124t146 48t146 -48t94 -124h200q28 76 94 124t150 48q104 0 180 -74
t76 -182t-76 -182t-180 -74z" />
</svg>
