<?xml version="1.0" standalone="no"?>
<!DOCTYPE svg PUBLIC "-//W3C//DTD SVG 1.1//EN" "http://www.w3.org/Graphics/SVG/1.1/DTD/svg11.dtd" >
<svg xmlns="http://www.w3.org/2000/svg" xmlns:xlink="http://www.w3.org/1999/xlink" version="1.1" viewBox="-10 0 1557 2048">
   <path fill="currentColor"
d="M1081 956q-16 -20 -52 -60l-12 -12q-28 -20 -80 -60q-68 -52 -100 -80q-92 -92 -112 -230t40 -258q-104 24 -212 112q-168 136 -226 348t22 412q8 16 8 28q0 32 -30 44t-58 -12q-8 -4 -12 -12q-72 -92 -84 -212t36 -228q-104 88 -160 224t-48 276q12 84 24 128
q16 68 60 148q72 108 184 182t240 90q148 20 276 -12q144 -32 244 -124q116 -108 152 -262t-24 -302l-8 -20q-20 -40 -68 -108zM813 1492q-44 40 -96 52q-64 24 -136 0q-64 -20 -112 -68q72 -20 120 -68t60 -108q12 -48 -12 -136l-12 -56q-16 -96 16 -176q32 64 54 92t74 74
t72 74q36 40 44 92q8 16 8 36q0 52 -22 106t-58 86zM1537 1108h-172v-512h172v512zM1537 1452h-172v-172h172v172z" />
</svg>
