<?xml version="1.0" standalone="no"?>
<!DOCTYPE svg PUBLIC "-//W3C//DTD SVG 1.1//EN" "http://www.w3.org/Graphics/SVG/1.1/DTD/svg11.dtd" >
<svg xmlns="http://www.w3.org/2000/svg" xmlns:xlink="http://www.w3.org/1999/xlink" version="1.1" viewBox="-10 0 1900 2048">
   <path fill="currentColor"
d="M1840 1310l-184 180l184 184l-120 120l-184 -184l-180 184l-120 -120l180 -184l-180 -180l120 -120l180 180l184 -180zM940 638q-108 0 -182 74t-74 182t74 182t182 74t182 -74t74 -182t-74 -182t-182 -74zM940 1362q-240 0 -444 -126t-308 -342q104 -216 308 -342
t444 -126t444 126t308 342q-24 48 -56 96q92 16 164 60q44 -72 80 -156q-112 -284 -368 -462t-572 -178t-572 178t-368 462q112 284 368 462t572 178q60 0 88 -4q-4 -12 -4 -40q0 -64 20 -136q-60 8 -104 8z" />
</svg>
