<?xml version="1.0" standalone="no"?>
<!DOCTYPE svg PUBLIC "-//W3C//DTD SVG 1.1//EN" "http://www.w3.org/Graphics/SVG/1.1/DTD/svg11.dtd" >
<svg xmlns="http://www.w3.org/2000/svg" xmlns:xlink="http://www.w3.org/1999/xlink" version="1.1" viewBox="-10 0 1724 2048">
   <path fill="currentColor"
d="M324 1092l-324 -324l60 -80q80 -96 172 -176q132 -112 272 -176q172 -80 348 -80t348 80q140 64 272 176q92 80 172 176l60 80l-324 324l-528 -528zM980 1536h-256v172l128 84l128 -84v-172zM1260 1212l-220 220q-84 -68 -188 -68t-188 68l-220 -220l408 -408zM936 1196
q0 -36 -24 -62t-60 -26t-60 26t-24 60t24 60t60 26t60 -26t24 -58z" />
</svg>
