<?xml version="1.0" standalone="no"?>
<!DOCTYPE svg PUBLIC "-//W3C//DTD SVG 1.1//EN" "http://www.w3.org/Graphics/SVG/1.1/DTD/svg11.dtd" >
<svg xmlns="http://www.w3.org/2000/svg" xmlns:xlink="http://www.w3.org/1999/xlink" version="1.1" viewBox="-10 0 1900 2048">
   <path fill="currentColor"
d="M1240 432v-260h-300v168h128v92q-96 8 -196 36q-24 -40 -72 -40h-288q-32 0 -58 24t-26 60t26 60t58 24h92q-192 132 -308 338t-124 446q-76 28 -124 94t-48 146q0 108 76 182t182 74t180 -74t74 -182q0 -80 -46 -146t-122 -94q8 -192 96 -356q-12 68 -12 128
q0 196 98 364t264 264t364 96t364 -96t264 -264t98 -364q0 -184 -86 -340t-232 -258t-322 -122zM256 1708q-32 0 -58 -26t-26 -60t26 -60t60 -26t60 26t26 60t-26 60t-62 26zM1152 1708q-148 0 -276 -76t-202 -202t-74 -278q0 -204 134 -360t334 -188v676h172v-676
q200 32 334 188t134 360q0 152 -74 278t-202 202t-280 76z" />
</svg>
