<?xml version="1.0" standalone="no"?>
<!DOCTYPE svg PUBLIC "-//W3C//DTD SVG 1.1//EN" "http://www.w3.org/Graphics/SVG/1.1/DTD/svg11.dtd" >
<svg xmlns="http://www.w3.org/2000/svg" xmlns:xlink="http://www.w3.org/1999/xlink" version="1.1" viewBox="-10 0 1556 2048">
   <path fill="currentColor"
d="M940 300q0 52 -38 90t-92 38t-90 -38t-36 -92t36 -90t90 -36t92 36t38 92zM468 428q-52 0 -90 36t-38 90t38 92t92 38t90 -38t36 -92t-36 -90t-92 -36zM940 1024l-68 -192h252l184 -92q24 -12 32 -36t-2 -48t-36 -34t-50 2l-72 36l-40 -72q-20 -40 -60 -62t-84 -10
l-212 44q-44 12 -72 48t-28 80v60l-208 140v0q-16 12 -20 24l-76 148l-152 76q-24 12 -32 38t4 50q16 36 56 36q16 0 28 -8l192 -96l88 -176l120 128q-32 88 -144 204q-92 88 -232 192q-100 72 -212 144l-96 60l104 44q132 48 276 80q200 44 388 44t388 -44q144 -32 276 -80
l104 -44l-116 -104q-140 -124 -252 -252q-152 -176 -228 -328zM1180 948l-24 12h-104l4 12q64 128 180 260l-44 -292z" />
</svg>
