<?xml version="1.0" standalone="no"?>
<!DOCTYPE svg PUBLIC "-//W3C//DTD SVG 1.1//EN" "http://www.w3.org/Graphics/SVG/1.1/DTD/svg11.dtd" >
<svg xmlns="http://www.w3.org/2000/svg" xmlns:xlink="http://www.w3.org/1999/xlink" version="1.1" viewBox="-10 0 1388 2048">
   <path fill="currentColor"
d="M684 1364q72 0 122 50t50 122t-50 122t-122 50t-122 -50t-50 -122t50 -122t122 -50zM684 340q72 0 122 50t50 122t-50 122t-122 50t-122 -50t-50 -122t50 -122t122 -50zM172 1364q72 0 122 50t50 122t-50 122t-122 50t-122 -50t-50 -122t50 -122t122 -50zM172 852
q72 0 122 50t50 122t-50 122t-122 50t-122 -50t-50 -122t50 -122t122 -50zM172 340q72 0 122 50t50 122t-50 122t-122 50t-122 -50t-50 -122t50 -122t122 -50zM1196 1364q72 0 122 50t50 122t-50 122t-122 50t-122 -50t-50 -122t50 -122t122 -50zM1196 852q72 0 122 50
t50 122t-50 122t-122 50t-122 -50t-50 -122t50 -122t122 -50zM1196 340q72 0 122 50t50 122t-50 122t-122 50t-122 -50t-50 -122t50 -122t122 -50z" />
</svg>
