<?xml version="1.0" standalone="no"?>
<!DOCTYPE svg PUBLIC "-//W3C//DTD SVG 1.1//EN" "http://www.w3.org/Graphics/SVG/1.1/DTD/svg11.dtd" >
<svg xmlns="http://www.w3.org/2000/svg" xmlns:xlink="http://www.w3.org/1999/xlink" version="1.1" viewBox="-10 0 1812 2048">
   <path fill="currentColor"
d="M520 320l-128 -128q48 -40 108 -40h856q68 0 118 50t50 118v1008l-168 -172v-836h-344v496l-168 -172v-324h-324zM1792 1812l-108 108l-204 -204q-52 56 -124 56v84h-172v-84h-512v84h-172v-84q-68 0 -118 -50t-50 -122v-1032l-332 -332l108 -108zM500 832h96l-96 -92v92
zM844 1080l-88 -84v180h-256v424h344v-520zM1356 1592l-344 -340v348h344v-8z" />
</svg>
