<?xml version="1.0" standalone="no"?>
<!DOCTYPE svg PUBLIC "-//W3C//DTD SVG 1.1//EN" "http://www.w3.org/Graphics/SVG/1.1/DTD/svg11.dtd" >
<svg xmlns="http://www.w3.org/2000/svg" xmlns:xlink="http://www.w3.org/1999/xlink" version="1.1" viewBox="-10 0 1812 2048">
   <path fill="currentColor"
d="M108 128l-108 108l332 332v1032q0 72 50 122t118 50v84h172v-84h212v-648l88 84v564h212v84h172v-84q72 0 124 -56l204 204l108 -108zM756 1176h-256v-344h96l160 164v180zM1524 1328l-552 -556v-620h384q68 0 118 50t50 118v1008zM884 688l-492 -496q48 -40 108 -40h384
v536z" />
</svg>
