<?xml version="1.0" standalone="no"?>
<!DOCTYPE svg PUBLIC "-//W3C//DTD SVG 1.1//EN" "http://www.w3.org/Graphics/SVG/1.1/DTD/svg11.dtd" >
<svg xmlns="http://www.w3.org/2000/svg" xmlns:xlink="http://www.w3.org/1999/xlink" version="1.1" viewBox="-10 0 1556 2048">
   <path fill="currentColor"
d="M1196 340v1280q0 72 -50 122t-122 50v84h-172v-84h-212v-1620h384q72 0 122 50t50 118zM172 172h384v1620h-216v84h-168v-84q-72 0 -122 -50t-50 -122v-1280q0 -68 50 -118t122 -50zM428 852h-256v344h256v-344zM1364 596v512h172v-512h-172zM1364 1452h172v-172h-172
v172z" />
</svg>
