<?xml version="1.0" standalone="no"?>
<!DOCTYPE svg PUBLIC "-//W3C//DTD SVG 1.1//EN" "http://www.w3.org/Graphics/SVG/1.1/DTD/svg11.dtd" >
<svg xmlns="http://www.w3.org/2000/svg" xmlns:xlink="http://www.w3.org/1999/xlink" version="1.1" viewBox="-10 0 1212 2048">
   <path fill="currentColor"
d="M596 172q164 0 300 80t216 216t80 300q0 196 -152 484q-112 208 -288 436q-88 116 -156 188l-92 -108q-112 -140 -208 -280q-128 -192 -204 -360q-92 -208 -92 -360q0 -164 80 -300t216 -216t300 -80zM596 340q-116 0 -214 58t-156 156t-58 214q0 68 16 124
q28 108 112 252q104 192 300 452q196 -260 300 -452q84 -144 112 -252q16 -56 16 -124q0 -116 -58 -214t-156 -156t-214 -58zM596 980l204 128l-52 -236l188 -164l-248 -16l-92 -232l-92 224l-248 24l188 164l-60 236z" />
</svg>
