<?xml version="1.0" standalone="no"?>
<!DOCTYPE svg PUBLIC "-//W3C//DTD SVG 1.1//EN" "http://www.w3.org/Graphics/SVG/1.1/DTD/svg11.dtd" >
<svg xmlns="http://www.w3.org/2000/svg" xmlns:xlink="http://www.w3.org/1999/xlink" version="1.1" viewBox="-10 0 1772 2048">
   <path fill="currentColor"
d="M1568 1512l184 184l-120 120l-184 -184l-180 184l-120 -120l180 -184l-180 -180l120 -120l180 180l184 -180l120 120zM944 1428h-776v-1024h1368v604q88 16 168 64v-668q0 -72 -50 -122t-118 -50h-1368q-68 0 -118 50t-50 122v1024q0 72 50 122t118 50h776q-8 -52 -8 -86
t8 -86z" />
</svg>
