<?xml version="1.0" standalone="no"?>
<!DOCTYPE svg PUBLIC "-//W3C//DTD SVG 1.1//EN" "http://www.w3.org/Graphics/SVG/1.1/DTD/svg11.dtd" >
<svg xmlns="http://www.w3.org/2000/svg" xmlns:xlink="http://www.w3.org/1999/xlink" version="1.1" viewBox="-10 0 1212 2048">
   <path fill="currentColor"
d="M596 172q-164 0 -300 80t-216 216t-80 300q0 152 92 360q76 168 204 360q96 140 208 280l92 108l92 -108q112 -140 208 -280q128 -192 204 -360q92 -208 92 -360q0 -164 -80 -300t-216 -216t-300 -80zM808 1108l-212 -128l-212 128l60 -236l-188 -164l248 -16l92 -232
l92 224l248 24l-188 164z" />
</svg>
