<?xml version="1.0" standalone="no"?>
<!DOCTYPE svg PUBLIC "-//W3C//DTD SVG 1.1//EN" "http://www.w3.org/Graphics/SVG/1.1/DTD/svg11.dtd" >
<svg xmlns="http://www.w3.org/2000/svg" xmlns:xlink="http://www.w3.org/1999/xlink" version="1.1" viewBox="-10 0 1980 2048">
   <path fill="currentColor"
d="M980 84q-88 0 -150 64t-62 152q0 64 34 116t94 80v100h-344q-68 0 -118 50t-50 122v60q-60 28 -94 80t-34 116t34 116t94 80v60h-88q-68 0 -118 50t-50 122v100q-60 28 -94 80t-34 116q0 88 62 152t150 64t150 -64t62 -152q0 -64 -34 -116t-94 -80v-100h344v100
q-60 28 -94 80t-34 116q0 88 62 152t150 64t150 -64t62 -152q0 -64 -34 -116t-94 -80v-100q0 -72 -50 -122t-118 -50h-88v-60q60 -28 94 -80t34 -116t-34 -116t-94 -80v-60h856v60q-60 28 -94 80t-34 116t34 116t94 80v60h-88q-68 0 -118 50t-50 122v100q-60 28 -94 80
t-34 116q0 88 62 152t150 64t150 -64t62 -152q0 -64 -34 -116t-94 -80v-100h344v100q-60 28 -94 80t-34 116q0 88 62 152t150 64t150 -64t62 -152q0 -64 -34 -116t-94 -80v-100q0 -72 -50 -122t-118 -50h-88v-60q60 -28 94 -80t34 -116t-34 -116t-94 -80v-60q0 -72 -50 -122
t-118 -50h-344v-100q60 -28 94 -80t34 -116q0 -88 -62 -152t-150 -64zM980 212q36 0 60 26t24 62t-24 60t-60 24t-60 -24t-24 -60t24 -62t60 -26zM468 940q36 0 60 24t24 60t-24 60t-60 24t-60 -24t-24 -60t24 -60t60 -24zM1492 940q36 0 60 24t24 60t-24 60t-60 24t-60 -24
t-24 -60t24 -60t60 -24zM212 1664q36 0 60 24t24 60t-24 62t-60 26t-60 -26t-24 -62t24 -60t60 -24zM724 1664q36 0 60 24t24 60t-24 62t-60 26t-60 -26t-24 -62t24 -60t60 -24zM1236 1664q36 0 60 24t24 60t-24 62t-60 26t-60 -26t-24 -62t24 -60t60 -24zM1748 1664
q36 0 60 24t24 60t-24 62t-60 26t-60 -26t-24 -62t24 -60t60 -24z" />
</svg>
