<?xml version="1.0" standalone="no"?>
<!DOCTYPE svg PUBLIC "-//W3C//DTD SVG 1.1//EN" "http://www.w3.org/Graphics/SVG/1.1/DTD/svg11.dtd" >
<svg xmlns="http://www.w3.org/2000/svg" xmlns:xlink="http://www.w3.org/1999/xlink" version="1.1" viewBox="-10 0 1640 2048">
   <path fill="currentColor"
d="M0 552v-168h172v-88q0 -68 50 -118t118 -50h512v596l216 -128l212 128v-596h84q64 0 118 52t54 116v836q-124 -68 -260 -68t-252 70t-186 188t-70 254t68 256h-496q-68 0 -118 -52t-50 -116v-88h-172v-168h172v-344h-172v-168h172v-344h-172zM172 384v168h168v-168h-168z
M172 1576h168v-168h-168v168zM172 1064h168v-168h-168v168zM1196 1236v256h-256v172h256v256h168v-256h256v-172h-256v-256h-168z" />
</svg>
