<?xml version="1.0" standalone="no"?>
<!DOCTYPE svg PUBLIC "-//W3C//DTD SVG 1.1//EN" "http://www.w3.org/Graphics/SVG/1.1/DTD/svg11.dtd" >
<svg xmlns="http://www.w3.org/2000/svg" xmlns:xlink="http://www.w3.org/1999/xlink" version="1.1" viewBox="-10 0 1760 2048">
   <path fill="currentColor"
d="M760 958q104 -108 246 -144t282 -2t248 138v-496q0 -72 -50 -122t-122 -50h-356q-28 -76 -94 -124t-146 -48t-146 48t-94 124h-356q-72 0 -122 50t-50 122v1192q0 72 50 122t122 50h688q-60 -36 -100 -76q-108 -108 -144 -250t0 -286t144 -248zM768 282q36 0 60 26t24 60
t-24 60t-60 26t-60 -26t-24 -60t24 -60t60 -26zM1476 1554q60 -92 60 -204q0 -160 -112 -272t-272 -112t-272 112t-112 272t112 272t272 112q108 0 204 -60l264 264l120 -120zM1152 1562q-88 0 -150 -62t-62 -150t62 -152t150 -64t150 64t62 152t-62 150t-150 62z" />
</svg>
