<?xml version="1.0" standalone="no"?>
<!DOCTYPE svg PUBLIC "-//W3C//DTD SVG 1.1//EN" "http://www.w3.org/Graphics/SVG/1.1/DTD/svg11.dtd" >
<svg xmlns="http://www.w3.org/2000/svg" xmlns:xlink="http://www.w3.org/1999/xlink" version="1.1" viewBox="-10 0 1828 2048">
   <path fill="currentColor"
d="M1708 644q48 52 48 124t-48 116l-240 236l-668 -664l240 -240q52 -48 124 -48t116 48l152 156l256 -256l120 120l-256 256zM1212 1140l-120 -120l-240 240l-180 -180l240 -240l-120 -120l-236 240l-128 -120l-240 240q-52 52 -52 122t52 118l152 152l-340 340l120 120
l340 -340l152 152q52 52 124 52t116 -52l240 -240l-120 -116z" />
</svg>
