<?xml version="1.0" standalone="no"?>
<!DOCTYPE svg PUBLIC "-//W3C//DTD SVG 1.1//EN" "http://www.w3.org/Graphics/SVG/1.1/DTD/svg11.dtd" >
<svg xmlns="http://www.w3.org/2000/svg" xmlns:xlink="http://www.w3.org/1999/xlink" version="1.1" viewBox="-10 0 1812 2048">
   <path fill="currentColor"
d="M1696 440q0 -72 -50 -122t-122 -50h-356q-28 -76 -94 -124t-146 -48t-146 48t-94 124h-256l1264 1264v-1092zM928 440q-36 0 -60 -26t-24 -60t24 -60t60 -26t60 26t24 60t-24 60t-60 26zM1792 1844l-108 108l-152 -148h-1200q-72 0 -122 -50t-50 -122v-1200l-160 -164
l108 -108z" />
</svg>
