<?xml version="1.0" standalone="no"?>
<!DOCTYPE svg PUBLIC "-//W3C//DTD SVG 1.1//EN" "http://www.w3.org/Graphics/SVG/1.1/DTD/svg11.dtd" >
<svg xmlns="http://www.w3.org/2000/svg" xmlns:xlink="http://www.w3.org/1999/xlink" version="1.1" viewBox="-10 0 1723 2048">
   <path fill="currentColor"
d="M1696 1001l-76 -44v-16l60 -60q8 -8 8 -18t-8 -18l-8 -8l-76 -24q0 -20 -12 -20l52 -68q8 -4 6 -16t-14 -16h-4q-4 -4 -4 -8l-84 -20q0 -4 -4 -8t-4 -8l32 -76v-24q-8 -12 -24 -12h-88v-4q0 -4 -8 -4l16 -84q0 -24 -16 -24h-8l-84 16q0 -8 -8 -12l-12 -4v-88
q0 -24 -24 -24h-8l-76 32h-8l-20 -84q0 -12 -8 -18t-16 2h-8l-68 52q-20 0 -20 -12l-24 -76q-16 -16 -32 -16h-8q-4 4 -4 8l-68 60h-16l-44 -68q-8 -16 -40 -16l-8 8l-44 76h-16l-60 -60q-8 -8 -18 -8t-18 8l-8 8l-24 76q-20 0 -20 12l-68 -52q-28 -16 -40 8v8l-20 84l-4 4
q-8 0 -12 4l-76 -32q-8 -8 -18 -4t-18 12v96q0 4 -4 8t-4 8l-84 -16q-24 -16 -24 16v8l16 84q-4 0 -8 4t-8 4h-88q-24 0 -24 28v8l32 76v16l-84 20q-12 0 -18 8t-6 16v8l48 68q0 20 -8 20l-68 32q-16 16 -16 36v4q4 4 8 4l60 60v16l-68 44q-16 8 -16 32l8 8l76 52v16l-60 60
q-8 8 -8 18t8 18l8 8l76 24q0 20 12 20l-52 68q-8 4 -6 16t14 16h4q4 4 4 8l84 20q0 4 4 8t4 8l-32 76q-8 8 -4 18t12 18h96q4 0 8 4t8 4l-16 84q0 24 16 24h8l84 -16q0 8 8 12l12 4v88q0 24 24 24h8l76 -32h8l20 84q0 12 8 18t16 -2h8l68 -52q20 0 20 12l24 76q16 16 32 16
h8q4 -4 4 -8l68 -60h16l44 68q4 8 16 12t16 -4l8 -8l44 -68h16l60 60q8 8 18 8t18 -8l8 -8l24 -76q16 0 16 -12l72 52q4 8 16 6t16 -14v-4q4 -4 8 -4l16 -84q8 0 12 -4t8 -4l76 32q4 8 16 4t16 -12v-96l20 -16l84 16q24 0 24 -16v-8l-16 -84l16 -20h88q24 0 24 -24v-8
l-32 -76q0 -4 4 -8t4 -12l84 -16q12 0 18 -10t-2 -14v-8l-48 -68l8 -20l76 -24q16 -16 16 -36v-4q-4 -4 -8 -4l-68 -60v-16l68 -44q24 -8 8 -48v4v-4zM1212 1597q-20 -8 -32 -24t-8 -36t20 -32t36 -8t32 20t12 40t-18 36t-42 4zM1192 1433q-16 -4 -32 6t-16 30l-36 120
q-116 52 -258 52t-262 -60l-28 -120q-12 -48 -48 -36l-104 28l-52 -60l520 -4v-192h-152v-112h164q76 0 100 84l12 48q12 72 22 94t38 52t56 30h264q-16 24 -60 68zM484 1597q-20 8 -36 -4t-22 -36t6 -40t36 -24q48 -12 60 44q0 20 -12 36t-32 24zM288 813q8 20 0 40t-26 26
t-40 0t-28 -26t2 -40t24 -28q56 -12 68 28zM228 949l112 -44q20 -4 26 -22t-2 -38l-24 -52h84v404h-168q-40 -128 -28 -248zM708 913v-120h212q20 0 40 12q36 16 36 48t-28 46t-64 14h-196zM1476 1017v44h-76v32q0 48 -24 66t-52 18t-50 -10t-30 -22q-8 -68 -32 -104
q-16 -24 -56 -56l-12 -12q128 -92 128 -182t-96 -158q-40 -24 -84 -36q-32 -8 -52 -8h-648q144 -156 348 -196l76 84q28 28 72 0l84 -84q132 28 244 108t184 200l-60 136q-8 20 -2 36t26 24l112 52v68zM816 333q16 -12 36 -12t34 12t14 34t-12 34q-40 40 -80 0
q-20 -20 8 -68zM1408 813q4 -20 26 -26t40 0t26 26t2 40t-28 26t-42 0t-26 -26t2 -40z" />
</svg>
