<?xml version="1.0" standalone="no"?>
<!DOCTYPE svg PUBLIC "-//W3C//DTD SVG 1.1//EN" "http://www.w3.org/Graphics/SVG/1.1/DTD/svg11.dtd" >
<svg xmlns="http://www.w3.org/2000/svg" xmlns:xlink="http://www.w3.org/1999/xlink" version="1.1" viewBox="-10 0 1724 2048">
   <path fill="currentColor"
d="M680 256q-184 0 -340 46t-248 124t-92 170v856q0 92 92 170t248 124t342 46t342 -46t248 -124t92 -170v-856q0 -92 -92 -170t-248 -124t-344 -46zM1192 1452q0 24 -60 60q-68 48 -172 76q-128 32 -278 32t-282 -32q-104 -28 -172 -76q-60 -36 -60 -60v-192
q216 104 512 104t512 -104v192zM1192 1064q-84 60 -220 96t-290 36t-292 -36t-222 -96v-240q96 52 230 84t284 32t282 -32t228 -84v240zM680 768q-148 0 -280 -36q-104 -28 -172 -72q-60 -36 -60 -62t60 -62q68 -48 172 -76q132 -32 282 -32t278 32q104 28 172 76
q60 36 60 62t-60 62q-68 44 -172 72q-128 36 -280 36zM1704 596v512h-168v-512h168zM1536 1280h168v172h-168v-172z" />
</svg>
