<?xml version="1.0" standalone="no"?>
<!DOCTYPE svg PUBLIC "-//W3C//DTD SVG 1.1//EN" "http://www.w3.org/Graphics/SVG/1.1/DTD/svg11.dtd" >
<svg xmlns="http://www.w3.org/2000/svg" xmlns:xlink="http://www.w3.org/1999/xlink" version="1.1" viewBox="-10 0 1716 2048">
   <path fill="currentColor"
d="M1184 1536l88 84q-92 80 -248 126t-340 46t-342 -46t-250 -124t-92 -170v-856q0 -92 92 -170t250 -124t342 -46t340 46t248 126l-88 84l-32 36q-64 -48 -172 -80q-132 -40 -296 -40q-152 0 -280 32q-104 28 -172 76q-60 36 -60 62t60 62q68 44 172 72q128 36 284 36
t288 -40l80 84h-244v120q-68 8 -128 8q-148 0 -282 -32t-230 -84v240q84 60 220 96t292 36q60 0 128 -8v48h244l-84 88l12 8q-148 32 -300 32q-296 0 -512 -104v192q0 24 60 60q68 48 172 76q128 32 280 32q160 0 296 -40q108 -28 172 -76zM1276 604l-124 120l216 216h-428
v168h428l-216 216l124 120l420 -420z" />
</svg>
