<?xml version="1.0" standalone="no"?>
<!DOCTYPE svg PUBLIC "-//W3C//DTD SVG 1.1//EN" "http://www.w3.org/Graphics/SVG/1.1/DTD/svg11.dtd" >
<svg xmlns="http://www.w3.org/2000/svg" xmlns:xlink="http://www.w3.org/1999/xlink" version="1.1" viewBox="-10 0 1644 2048">
   <path fill="currentColor"
d="M1368 1074v-520q0 -92 -92 -170t-250 -124t-342 -46t-342 46t-250 124t-92 170v856q0 92 92 170t250 124t342 46q76 0 112 -4q-28 -84 -28 -168v-4q-24 4 -84 4q-152 0 -280 -32q-104 -28 -172 -76q-60 -36 -60 -60v-192q216 104 512 104q80 0 160 -8q68 -112 184 -180
t252 -68q36 0 88 8zM1196 1022q-84 60 -220 96t-292 36t-292 -36t-220 -96v-240q96 52 230 84t282 32t282 -32t230 -84v240zM684 726q-152 0 -280 -36q-104 -28 -172 -72q-60 -36 -60 -62t60 -62q68 -48 172 -76q128 -32 280 -32t280 32q104 28 172 76q60 36 60 62t-60 62
q-68 44 -172 72q-128 36 -280 36zM1368 1834v-168h-344v-172h344v-172l256 256z" />
</svg>
