<?xml version="1.0" standalone="no"?>
<!DOCTYPE svg PUBLIC "-//W3C//DTD SVG 1.1//EN" "http://www.w3.org/Graphics/SVG/1.1/DTD/svg11.dtd" >
<svg xmlns="http://www.w3.org/2000/svg" xmlns:xlink="http://www.w3.org/1999/xlink" version="1.1" viewBox="-10 0 1556 2048">
   <path fill="currentColor"
d="M684 1578q-152 0 -280 -32q-104 -28 -172 -76q-60 -36 -60 -60v-192q216 104 512 104l88 -4q-4 -12 -4 -36q0 -68 20 -136q-32 8 -104 8q-156 0 -292 -36t-220 -96v-240q96 52 230 84t282 32t282 -32t230 -84v32q16 -4 44 -4q60 0 128 20v-276q0 -92 -92 -170t-250 -124
t-342 -46t-342 46t-250 124t-92 170v856q0 92 92 170t250 124t342 46q128 0 256 -24q-52 -76 -92 -160q-84 12 -164 12zM684 386q152 0 280 32q104 28 172 76q60 36 60 62t-60 62q-68 44 -172 72q-128 36 -280 36t-280 -36q-104 -28 -172 -72q-60 -36 -60 -62t60 -62
q68 -48 172 -76q128 -32 280 -32zM1240 982q-124 0 -212 88t-88 212q0 96 76 240q56 104 144 220l80 92l76 -92q88 -116 144 -220q76 -144 76 -240q0 -124 -88 -212t-208 -88zM1240 1390q-44 0 -74 -30t-30 -72t32 -72t70 -30t70 32t36 70t-28 70t-76 32z" />
</svg>
