<?xml version="1.0" standalone="no"?>
<!DOCTYPE svg PUBLIC "-//W3C//DTD SVG 1.1//EN" "http://www.w3.org/Graphics/SVG/1.1/DTD/svg11.dtd" >
<svg xmlns="http://www.w3.org/2000/svg" xmlns:xlink="http://www.w3.org/1999/xlink" version="1.1" viewBox="-10 0 1644 2048">
   <path fill="currentColor"
d="M684 1322q92 0 196 -16l248 -248q-84 44 -200 70t-244 26q-156 0 -292 -36t-220 -96v-240q96 52 230 84t282 32t282 -32t230 -84v212l120 -120q20 -20 52 -36v-284q0 -92 -92 -170t-250 -124t-342 -46t-342 46t-250 124t-92 170v856q0 84 80 158t216 122t304 56v-156
l12 -16q-128 -4 -240 -40q-92 -28 -148 -68q-52 -36 -52 -56v-192q216 104 512 104zM684 386q152 0 280 32q104 28 172 76q60 36 60 62t-60 62q-68 44 -172 72q-128 36 -280 36t-280 -36q-104 -28 -172 -72q-60 -36 -60 -62t60 -62q68 -48 172 -76q128 -32 280 -32z
M1292 1138l176 176l-524 520h-176v-172zM1608 1170l-80 84l-176 -176l84 -84q12 -12 30 -12t30 12l112 112q16 16 16 34t-16 30z" />
</svg>
