<?xml version="1.0" standalone="no"?>
<!DOCTYPE svg PUBLIC "-//W3C//DTD SVG 1.1//EN" "http://www.w3.org/Graphics/SVG/1.1/DTD/svg11.dtd" >
<svg xmlns="http://www.w3.org/2000/svg" xmlns:xlink="http://www.w3.org/1999/xlink" version="1.1" viewBox="-10 0 1728 2048">
   <path fill="currentColor"
d="M756 1024l-420 420l-124 -120l216 -216h-428v-168h428l-216 -216l124 -120zM1024 256q-216 0 -390 60t-246 160l40 36l88 92l-4 -8q0 -24 60 -60q68 -48 172 -76q128 -32 280 -32t280 32q104 28 172 76q60 36 60 62t-60 62q-68 44 -172 72q-128 36 -280 36t-284 -36
q-100 -28 -168 -72l264 264q96 16 188 16q148 0 282 -32t230 -84v240q-84 60 -220 96t-292 36q-120 0 -236 -24l-140 140q176 52 376 52q296 0 512 -104v192q0 24 -60 60q-68 48 -172 76q-128 32 -280 32t-280 -32q-104 -28 -172 -76q-60 -36 -60 -60v-4l-84 88l-40 36
q76 100 248 160t388 60q184 0 342 -46t250 -124t92 -170v-856q0 -92 -92 -170t-250 -124t-342 -46z" />
</svg>
