<?xml version="1.0" standalone="no"?>
<!DOCTYPE svg PUBLIC "-//W3C//DTD SVG 1.1//EN" "http://www.w3.org/Graphics/SVG/1.1/DTD/svg11.dtd" >
<svg xmlns="http://www.w3.org/2000/svg" xmlns:xlink="http://www.w3.org/1999/xlink" version="1.1" viewBox="-10 0 1760 2048">
   <path fill="currentColor"
d="M1196 792h-44h44zM340 1304h256q12 -96 44 -172h-300v172zM760 956q80 -80 182 -122t210 -42h-812v172h412zM760 1740q40 40 100 76h-688q-72 0 -122 -50t-50 -122v-1192q0 -72 50 -122t122 -50h356q44 -116 156 -152q96 -36 192 8t132 144h356q72 0 122 50t50 122v496
q-76 -72 -172 -112v-384h-168v168h-856v-168h-168v1192h512q32 48 76 96zM684 364q0 36 24 62t60 26t60 -26t24 -60t-24 -60t-60 -26t-60 26t-24 58zM1740 1816l-120 120l-264 -264q-96 60 -204 60q-160 0 -272 -112t-112 -272t112 -272t272 -112t272 112t112 272
q0 112 -60 204zM1364 1348q0 -88 -62 -152t-150 -64t-150 64t-62 152t62 150t150 62t150 -62t62 -150z" />
</svg>
