<?xml version="1.0" standalone="no"?>
<!DOCTYPE svg PUBLIC "-//W3C//DTD SVG 1.1//EN" "http://www.w3.org/Graphics/SVG/1.1/DTD/svg11.dtd" >
<svg xmlns="http://www.w3.org/2000/svg" xmlns:xlink="http://www.w3.org/1999/xlink" version="1.1" viewBox="-10 0 1556 2048">
   <path fill="currentColor"
d="M172 1022v-240q96 52 230 84t282 32t282 -32t230 -84v120l44 -4q60 0 128 20v-364q0 -92 -92 -170t-250 -124t-342 -46t-342 46t-250 124t-92 170v856q0 92 92 170t250 124t342 46q56 0 84 -4v-172q-24 4 -84 4q-152 0 -280 -32q-104 -28 -172 -76q-60 -36 -60 -60v-192
q216 104 512 104q36 0 104 -4q24 -64 72 -104q8 -36 24 -80q-96 20 -200 20q-156 0 -292 -36t-220 -96zM684 386q152 0 280 32q104 28 172 76q60 36 60 62t-60 62q-68 44 -172 72q-128 36 -280 36t-280 -36q-104 -28 -172 -72q-60 -36 -60 -62t60 -62q68 -48 172 -76
q128 -32 280 -32zM1452 1322v-40q0 -88 -62 -152t-150 -64t-152 64t-64 152v40q-32 0 -58 26t-26 62v340q0 36 26 60t58 24h428q36 0 60 -24t24 -60v-340q0 -36 -24 -62t-60 -26zM1368 1322h-256v-40q0 -56 36 -92t90 -36t92 36t38 92v40z" />
</svg>
