<?xml version="1.0" standalone="no"?>
<!DOCTYPE svg PUBLIC "-//W3C//DTD SVG 1.1//EN" "http://www.w3.org/Graphics/SVG/1.1/DTD/svg11.dtd" >
<svg xmlns="http://www.w3.org/2000/svg" xmlns:xlink="http://www.w3.org/1999/xlink" version="1.1" viewBox="-10 0 1728 2048">
   <path fill="currentColor"
d="M1152 1344l244 144l-64 104l-308 -184v-428h128v364zM1708 1320q0 164 -80 302t-218 218t-302 80q-148 0 -278 -70t-210 -186q-172 -12 -314 -58t-224 -122t-82 -164v-852q0 -92 92 -170t248 -124t342 -46t342 46t248 124t92 170v316q156 72 250 216t94 320zM1196 732
v-40q-32 20 -68 32q24 0 68 8zM172 468q0 24 60 64q68 44 172 72q128 36 278 36t282 -36q104 -28 172 -72q60 -40 60 -64t-60 -64q-68 -44 -172 -72q-132 -36 -282 -36t-278 36q-104 28 -172 72q-60 40 -60 64zM172 932q68 52 172 84t228 44q80 -164 244 -256q-72 4 -132 4
q-152 0 -284 -30t-228 -86v240zM536 1480q-24 -84 -24 -160q0 -44 8 -96q-204 -24 -348 -92v188q0 20 44 52t120 60q88 36 200 48zM1536 1320q0 -116 -58 -214t-156 -154t-214 -56t-214 56t-154 154t-56 214t56 214t154 156t214 58t214 -58t156 -156t58 -214z" />
</svg>
