<?xml version="1.0" standalone="no"?>
<!DOCTYPE svg PUBLIC "-//W3C//DTD SVG 1.1//EN" "http://www.w3.org/Graphics/SVG/1.1/DTD/svg11.dtd" >
<svg xmlns="http://www.w3.org/2000/svg" xmlns:xlink="http://www.w3.org/1999/xlink" version="1.1" viewBox="-10 0 1644 2048">
   <path fill="currentColor"
d="M684 1278q36 0 104 -4q24 -100 80 -180q-92 16 -184 16q-156 0 -292 -36t-220 -96v-240q96 52 230 84t282 32t282 -32t230 -84v132q68 -16 132 -16h40v-344q0 -92 -92 -170t-250 -124t-342 -46t-342 46t-250 124t-92 170v856q0 92 92 170t250 124t342 46q84 0 164 -12
q-48 -76 -64 -164q-32 4 -100 4q-152 0 -280 -32q-104 -28 -172 -76q-60 -36 -60 -60v-192q216 104 512 104zM684 342q152 0 280 32q104 28 172 76q60 36 60 62t-60 62q-68 44 -172 72q-128 36 -280 36t-280 -36q-104 -28 -172 -72q-60 -36 -60 -62t60 -62q68 -48 172 -76
q128 -32 280 -32zM1624 1406q0 104 -60 188l-92 -92q24 -44 24 -96q0 -88 -64 -150t-152 -62v128l-192 -192l192 -192v128q144 0 244 100t100 240zM1280 1494l192 192l-192 192v-128q-140 0 -240 -100t-100 -244q0 -100 56 -188l96 92q-24 48 -24 96q0 88 62 152t150 64
v-128z" />
</svg>
