<?xml version="1.0" standalone="no"?>
<!DOCTYPE svg PUBLIC "-//W3C//DTD SVG 1.1//EN" "http://www.w3.org/Graphics/SVG/1.1/DTD/svg11.dtd" >
<svg xmlns="http://www.w3.org/2000/svg" xmlns:xlink="http://www.w3.org/1999/xlink" version="1.1" viewBox="-10 0 1728 2048">
   <path fill="currentColor"
d="M1152 1344l244 144l-64 104l-308 -184v-428h128v364zM1708 1320q0 164 -80 302t-218 218t-302 80q-148 0 -278 -70t-210 -186q-172 -12 -314 -58t-224 -122t-82 -164v-256q0 120 146 212t370 120q-4 -48 -4 -76q0 -40 8 -96q-224 -28 -372 -120t-148 -208v-256
q0 88 82 162t224 122t314 56q76 -112 192 -176q-72 4 -128 4q-188 0 -344 -46t-248 -124t-92 -170t92 -170t248 -124t342 -46t342 46t248 124t92 170q0 76 -62 142t-170 114q96 4 184 40q48 -64 48 -124v144q156 72 250 216t94 320zM1536 1320q0 -116 -58 -214t-156 -154
t-214 -56t-214 56t-154 154t-56 214t56 214t154 156t214 58t214 -58t156 -156t58 -214z" />
</svg>
