<?xml version="1.0" standalone="no"?>
<!DOCTYPE svg PUBLIC "-//W3C//DTD SVG 1.1//EN" "http://www.w3.org/Graphics/SVG/1.1/DTD/svg11.dtd" >
<svg xmlns="http://www.w3.org/2000/svg" xmlns:xlink="http://www.w3.org/1999/xlink" version="1.1" viewBox="-10 0 1812 2048">
   <path fill="currentColor"
d="M108 128l-108 108l264 264q-20 40 -20 76v856q0 92 92 170t250 124t342 46q144 0 274 -28t226 -80l256 256l108 -108zM416 804q100 56 236 84l284 288h-8q-156 0 -292 -36t-220 -96v-240zM928 1600q-152 0 -280 -32q-104 -28 -172 -76q-60 -36 -60 -60v-192
q216 104 512 104q80 0 172 -8l200 200q-160 64 -372 64zM640 444l-132 -136q188 -72 420 -72q184 0 342 46t250 124t92 170v836l-172 -168v-4l-132 -128q80 -32 132 -68v-240q-136 76 -336 104l-160 -160q148 -4 272 -36q100 -28 168 -72q56 -40 56 -64t-60 -60
q-68 -48 -172 -76q-128 -32 -282 -32t-286 36z" />
</svg>
