<?xml version="1.0" standalone="no"?>
<!DOCTYPE svg PUBLIC "-//W3C//DTD SVG 1.1//EN" "http://www.w3.org/Graphics/SVG/1.1/DTD/svg11.dtd" >
<svg xmlns="http://www.w3.org/2000/svg" xmlns:xlink="http://www.w3.org/1999/xlink" version="1.1" viewBox="-10 0 1676 2048">
   <path fill="currentColor"
d="M600 1556q-128 -8 -236 -44q-88 -28 -140 -64t-52 -56v-192q144 72 340 96q0 -104 20 -172q-232 -28 -360 -120v-240q92 52 222 82t274 34l8 -8q140 -140 334 -160t358 84v-260q0 -92 -92 -170t-250 -124t-342 -46t-342 46t-250 124t-92 170v856q0 92 92 170t250 124
t342 46q60 0 84 -4q-56 -36 -92 -72q-48 -48 -76 -100zM684 368q152 0 280 32q104 28 172 76q60 36 60 62t-60 62q-68 44 -172 72q-128 36 -280 36t-280 -36q-104 -28 -172 -72q-60 -36 -60 -62t60 -62q68 -48 172 -76q128 -32 280 -32zM1392 1468q60 -92 60 -204
q0 -160 -112 -272t-272 -112t-272 112t-112 272t112 272t272 112q108 0 204 -60l264 264l120 -120zM1068 1476q-88 0 -150 -62t-62 -150t62 -152t150 -64t150 64t62 152t-62 150t-150 62z" />
</svg>
