<?xml version="1.0" standalone="no"?>
<!DOCTYPE svg PUBLIC "-//W3C//DTD SVG 1.1//EN" "http://www.w3.org/Graphics/SVG/1.1/DTD/svg11.dtd" >
<svg xmlns="http://www.w3.org/2000/svg" xmlns:xlink="http://www.w3.org/1999/xlink" version="1.1" viewBox="-10 0 1556 2048">
   <path fill="currentColor"
d="M172 1000v-240q96 52 230 84t282 32t282 -32t230 -84v204q16 -4 44 -4q56 0 128 16v-444q0 -92 -92 -170t-250 -124t-342 -46t-342 46t-250 124t-92 170v856q0 92 92 170t250 124t342 46h44q-32 -76 -40 -172h-4q-152 0 -280 -32q-104 -28 -172 -76q-60 -36 -60 -60v-192
q216 104 512 104h44q44 -104 124 -180q-84 12 -168 12q-156 0 -292 -36t-220 -96zM684 364q152 0 280 32q104 28 172 76q60 36 60 62t-60 62q-68 44 -172 72q-128 36 -280 36t-280 -36q-104 -28 -172 -72q-60 -36 -60 -62t60 -62q68 -48 172 -76q128 -32 280 -32zM1196 1516
l152 -152q-64 -64 -152 -64t-150 64t-62 152t62 150t150 62q52 0 96 -22t76 -62h144q-36 96 -122 154t-194 58q-140 0 -240 -100t-100 -242t100 -242t240 -100t240 100l100 -100v344h-340z" />
</svg>
