<?xml version="1.0" standalone="no"?>
<!DOCTYPE svg PUBLIC "-//W3C//DTD SVG 1.1//EN" "http://www.w3.org/Graphics/SVG/1.1/DTD/svg11.dtd" >
<svg xmlns="http://www.w3.org/2000/svg" xmlns:xlink="http://www.w3.org/1999/xlink" version="1.1" viewBox="-10 0 1844 2048">
   <path fill="currentColor"
d="M768 922q36 -52 76 -92q108 -108 250 -146t284 0t250 146q40 40 76 96v-516q0 -72 -50 -122t-118 -50h-1368q-68 0 -118 50t-50 122v1024q0 72 50 122t118 50h668q-72 -76 -112 -172h-556v-512h600zM168 410h1368v172h-1368v-172zM1560 1426q60 -92 60 -204
q0 -160 -112 -272t-272 -112t-272 112t-112 272t112 272t272 112q108 0 204 -60l264 264l120 -120zM1236 1434q-88 0 -150 -62t-62 -150t62 -152t150 -64t150 64t62 152t-62 150t-150 62z" />
</svg>
