<?xml version="1.0" standalone="no"?>
<!DOCTYPE svg PUBLIC "-//W3C//DTD SVG 1.1//EN" "http://www.w3.org/Graphics/SVG/1.1/DTD/svg11.dtd" >
<svg xmlns="http://www.w3.org/2000/svg" xmlns:xlink="http://www.w3.org/1999/xlink" version="1.1" viewBox="-10 0 1844 2048">
   <path fill="currentColor"
d="M836 838q-100 104 -136 244t0 278t136 246h-668q-68 0 -118 -50t-50 -122v-1024q0 -72 50 -122t118 -50h1368q68 0 118 50t50 122v516q-36 -56 -78 -100t-90 -72v-172h-1368v256h668zM1824 1690l-120 120l-264 -264q-96 60 -204 60q-160 0 -272 -112t-112 -272t112 -272
t272 -112t272 112t112 272q0 112 -60 204zM1448 1222q0 -88 -62 -152t-150 -64t-150 64t-62 152t62 150t150 62t150 -62t62 -150z" />
</svg>
