<?xml version="1.0" standalone="no"?>
<!DOCTYPE svg PUBLIC "-//W3C//DTD SVG 1.1//EN" "http://www.w3.org/Graphics/SVG/1.1/DTD/svg11.dtd" >
<svg xmlns="http://www.w3.org/2000/svg" xmlns:xlink="http://www.w3.org/1999/xlink" version="1.1" viewBox="-10 0 1812 2048">
   <path fill="currentColor"
d="M936 1364q0 112 44 216h-812q-68 0 -118 -50t-50 -122v-1024q0 -72 50 -122t118 -50h1368q68 0 118 50t50 122v468q-100 -40 -212 -40h44v-256h-1368v256h1324q-152 0 -278 74t-202 202t-76 276zM1448 1580q-88 0 -150 -64t-62 -152q0 -48 24 -96l-96 -92q-56 88 -56 188
q0 144 100 244t240 100v128l192 -192l-192 -192v128zM1448 1024v-128l-192 192l192 192v-128q88 0 152 62t64 150q0 52 -24 96l92 92q60 -84 60 -188q0 -140 -100 -240t-244 -100z" />
</svg>
