<?xml version="1.0" standalone="no"?>
<!DOCTYPE svg PUBLIC "-//W3C//DTD SVG 1.1//EN" "http://www.w3.org/Graphics/SVG/1.1/DTD/svg11.dtd" >
<svg xmlns="http://www.w3.org/2000/svg" xmlns:xlink="http://www.w3.org/1999/xlink" version="1.1" viewBox="-10 0 1723 2048">
   <path fill="currentColor"
d="M684 1068q-156 0 -292 -36t-220 -96v-240q96 52 230 84t282 32t282 -32t230 -84v208q44 -8 84 -8t88 8v-436q0 -92 -92 -170t-250 -124t-342 -46t-342 46t-250 124t-92 170v856q0 92 92 170t250 124t342 46h24q-24 -88 -24 -172q-152 0 -280 -32q-104 -28 -172 -76
q-60 -36 -60 -60v-192q216 104 512 104h60q52 -108 136 -184q-100 16 -196 16zM684 300q152 0 280 32q104 28 172 76q60 36 60 62t-60 62q-68 44 -172 72q-128 36 -280 36t-280 -36q-104 -28 -172 -72q-60 -36 -60 -62t60 -62q68 -48 172 -76q128 -32 280 -32zM1596 1544
v-84l96 -68q16 -20 8 -28l-84 -144q0 -8 -28 -8l-100 44q-52 -36 -80 -44l-16 -112q0 -4 -6 -10t-10 -6h-172q-24 0 -24 16l-20 112l-68 44l-100 -44q-16 0 -28 8l-84 144q0 20 8 28l96 68v84l-96 68q-16 16 -8 28l84 144q12 8 28 8l100 -44q32 32 68 44l20 112q16 16 24 16
h172q4 0 10 -6t6 -10l16 -112l68 -44l104 36q16 0 24 -8l88 -148q4 -4 4 -10t-4 -6zM1280 1620q-48 0 -88 -38t-40 -88t40 -90t90 -40t88 40t38 90t-38 88t-90 38z" />
</svg>
