<?xml version="1.0" standalone="no"?>
<!DOCTYPE svg PUBLIC "-//W3C//DTD SVG 1.1//EN" "http://www.w3.org/Graphics/SVG/1.1/DTD/svg11.dtd" >
<svg xmlns="http://www.w3.org/2000/svg" xmlns:xlink="http://www.w3.org/1999/xlink" version="1.1" viewBox="-10 0 1812 2048">
   <path fill="currentColor"
d="M168 1408v-512h1028q136 -84 296 -84q112 0 212 40v-468q0 -72 -50 -122t-118 -50h-1368q-68 0 -118 50t-50 122v1024q0 72 50 122t118 50h812q-32 -80 -40 -172h-772zM168 384h1368v172h-1368v-172zM1792 1364q0 104 -60 188l-92 -92q24 -44 24 -96q0 -88 -64 -150
t-152 -62v128l-192 -192l192 -192v128q144 0 244 100t100 240zM1448 1452l192 192l-192 192v-128q-140 0 -240 -100t-100 -244q0 -100 56 -188l96 92q-24 48 -24 96q0 88 62 152t150 64v-128z" />
</svg>
