<?xml version="1.0" standalone="no"?>
<!DOCTYPE svg PUBLIC "-//W3C//DTD SVG 1.1//EN" "http://www.w3.org/Graphics/SVG/1.1/DTD/svg11.dtd" >
<svg xmlns="http://www.w3.org/2000/svg" xmlns:xlink="http://www.w3.org/1999/xlink" version="1.1" viewBox="-10 0 1812 2048">
   <path fill="currentColor"
d="M604 408l-172 -172h924l340 340v924l-172 -172v-680l-240 -240h-680zM1184 832v-340h-496l344 340h152zM1792 1812l-108 108l-152 -148h-1200q-72 0 -122 -50t-50 -122v-1200l-160 -164l108 -108zM1364 1600l-216 -212q-32 60 -90 94t-130 34q-108 0 -182 -74t-74 -182
q0 -72 34 -130t94 -90l-204 -208h-180v-180l-84 -84v1032h1032z" />
</svg>
