<?xml version="1.0" standalone="no"?>
<!DOCTYPE svg PUBLIC "-//W3C//DTD SVG 1.1//EN" "http://www.w3.org/Graphics/SVG/1.1/DTD/svg11.dtd" >
<svg xmlns="http://www.w3.org/2000/svg" xmlns:xlink="http://www.w3.org/1999/xlink" version="1.1" viewBox="-10 0 1640 2048">
   <path fill="currentColor"
d="M852 1708h-680v-856h1192v92q96 8 172 60v-492q0 -72 -50 -122t-122 -50h-84v-168h-172v168h-680v-168h-172v168h-84q-72 0 -122 50t-50 122v1196q0 68 50 118t122 50h696q-16 -40 -16 -84v-84zM172 512h1192v172h-1192v-172zM1536 1364v-40q0 -88 -62 -152t-150 -64
t-152 64t-64 152v40q-32 0 -58 26t-26 62v340q0 36 26 60t58 24h428q36 0 60 -24t24 -60v-340q0 -36 -24 -62t-60 -26zM1452 1364h-256v-40q0 -56 36 -92t90 -36t92 36t38 92v40z" />
</svg>
