<?xml version="1.0" standalone="no"?>
<!DOCTYPE svg PUBLIC "-//W3C//DTD SVG 1.1//EN" "http://www.w3.org/Graphics/SVG/1.1/DTD/svg11.dtd" >
<svg xmlns="http://www.w3.org/2000/svg" xmlns:xlink="http://www.w3.org/1999/xlink" version="1.1" viewBox="-10 0 1849 2048">
   <path fill="currentColor"
d="M293 1536q0 -30 -22 -52t-52 -22t-51.5 22t-21.5 52q0 31 21 52.5t52 21.5q30 0 52 -21.5t22 -52.5zM475 950v732q0 30 -21.5 52t-51.5 22h-329q-30 0 -51.5 -22t-21.5 -52v-732q0 -30 21.5 -51t51.5 -21h329q30 0 51.5 21t21.5 51zM1829 950q0 46 -17 92t-46 80
q17 48 17 86q3 86 -49 156q20 64 0 134q-17 66 -62 108q10 128 -56 206q-74 88 -225 90h-41h-87h-20q-58 0 -116.5 -8t-123 -25.5t-100 -29t-101.5 -33.5q-141 -50 -180 -50q-30 -1 -51.5 -22.5t-21.5 -51.5v-732q0 -29 20 -50t49 -24q28 -1 88 -67t115 -139
q75 -97 115 -136q16 -17 27.5 -35.5t20.5 -49.5t11.5 -42.5t11.5 -52.5q9 -46 14.5 -69.5t21.5 -58.5t39 -58q22 -22 52 -22q41 0 76 7.5t59.5 19t44.5 30.5t32.5 36t21 42t13 42.5t6.5 43t2.5 38.5t0.5 33q0 44 -10.5 87.5t-22 69.5t-31.5 63q-3 6 -11.5 20.5t-13 25.5
t-8.5 28h316q89 0 154.5 64.5t65.5 153.5z" />
</svg>
