<?xml version="1.0" standalone="no"?>
<!DOCTYPE svg PUBLIC "-//W3C//DTD SVG 1.1//EN" "http://www.w3.org/Graphics/SVG/1.1/DTD/svg11.dtd" >
<svg xmlns="http://www.w3.org/2000/svg" xmlns:xlink="http://www.w3.org/1999/xlink" version="1.1" viewBox="-10 0 1849 2048">
   <path fill="currentColor"
d="M293 512q0 30 -22 51.5t-52 21.5q-31 0 -52 -21.5t-21 -51.5q0 -31 21 -52t52 -21q30 0 52 21.5t22 51.5zM475 1097v-731q0 -30 -21.5 -52t-51.5 -22h-329q-30 0 -51.5 22t-21.5 52v731q0 30 21.5 51.5t51.5 21.5h329q30 0 51.5 -21.5t21.5 -51.5zM1766 927q29 32 46 78
t17 92q-1 89 -66 154t-154 65h-316q4 17 8.5 28t13.5 26.5t11 19.5q21 41 31.5 64.5t21.5 67t11 87.5q0 28 -0.5 45t-5.5 51t-14 57t-28 52t-45 46t-68 29.5t-95 12.5q-30 0 -52 -22q-23 -22 -39 -57t-21.5 -58.5t-14.5 -70.5q-21 -101 -40 -138q-13 -24 -31 -42
q-40 -40 -115 -137q-55 -72 -115 -138t-88 -68q-29 -2 -49 -23.5t-20 -49.5v-732q0 -30 21.5 -51.5t51.5 -22.5q39 -1 180 -50q89 -30 138 -45.5t138.5 -33t164.5 -17.5h20h87h41q151 1 225 89q66 79 56 207q45 42 62 108q20 70 0 133q52 70 49 157q0 39 -17 87z" />
</svg>
