<?xml version="1.0" standalone="no"?>
<!DOCTYPE svg PUBLIC "-//W3C//DTD SVG 1.1//EN" "http://www.w3.org/Graphics/SVG/1.1/DTD/svg11.dtd" >
<svg xmlns="http://www.w3.org/2000/svg" xmlns:xlink="http://www.w3.org/1999/xlink" version="1.1" viewBox="-10 0 1812 2048">
   <path fill="currentColor"
d="M756 560l-160 -160l160 -164h344l168 172v168h344q68 0 118 50t50 122v428q0 44 -22 84t-62 60v180l-324 -324h240v-428h-668l-168 -172h324v-168h-344v152zM1792 1812l-108 108l-152 -148h-1200q-72 0 -122 -50t-50 -122v-276q-40 -24 -62 -64t-22 -84v-428
q0 -72 50 -122t118 -50h96l-340 -340l108 -108zM844 1260h168v-8l-160 -164h-8v172zM672 1176v-256h8l-168 -172h-268v428h428zM1364 1600l-180 -180v12h-512v-88h-340v256h1032z" />
</svg>
