<?xml version="1.0" standalone="no"?>
<!DOCTYPE svg PUBLIC "-//W3C//DTD SVG 1.1//EN" "http://www.w3.org/Graphics/SVG/1.1/DTD/svg11.dtd" >
<svg xmlns="http://www.w3.org/2000/svg" xmlns:xlink="http://www.w3.org/1999/xlink" version="1.1" viewBox="-10 0 1556 2048">
   <path fill="currentColor"
d="M768 172q-208 0 -384 102t-280 280t-104 386v936l256 -256l256 256l256 -256l256 256l256 -256l256 256v-936q0 -208 -104 -386t-280 -280t-384 -102zM1364 1464l-84 -84l-256 256l-256 -256l-256 256l-256 -256l-84 84v-524q0 -164 80 -300t218 -218t298 -82t298 82
t218 218t80 300v524zM684 852q0 72 -50 122t-122 50t-122 -50t-50 -120t50 -120t122 -50t122 50t50 118zM1196 852q0 72 -50 122t-122 50t-122 -50t-50 -120t50 -120t122 -50t122 50t50 118z" />
</svg>
