<?xml version="1.0" standalone="no"?>
<!DOCTYPE svg PUBLIC "-//W3C//DTD SVG 1.1//EN" "http://www.w3.org/Graphics/SVG/1.1/DTD/svg11.dtd" >
<svg xmlns="http://www.w3.org/2000/svg" xmlns:xlink="http://www.w3.org/1999/xlink" version="1.1" viewBox="-10 0 1812 2048">
   <path fill="currentColor"
d="M756 560l-160 -160l160 -164h344l168 172v168h344q68 0 118 50t50 122v256q0 72 -50 122t-118 50h-240l-596 -600h324v-168h-344v152zM108 128l-108 108l340 340h-96q-68 0 -118 50t-50 122v256q0 72 50 122t118 50h512v-172h12l332 332v8h-344v-84h-596v340q0 72 50 122
t122 50h1200l152 148l108 -108zM1696 1500v-240h-240z" />
</svg>
