<?xml version="1.0" standalone="no"?>
<!DOCTYPE svg PUBLIC "-//W3C//DTD SVG 1.1//EN" "http://www.w3.org/Graphics/SVG/1.1/DTD/svg11.dtd" >
<svg xmlns="http://www.w3.org/2000/svg" xmlns:xlink="http://www.w3.org/1999/xlink" version="1.1" viewBox="-10 0 1688 2048">
   <path fill="currentColor"
d="M1364 1042q88 0 172 32v-372l-512 -512h-852q-72 0 -122 50t-50 122v1192q0 72 50 122t122 50h712q-32 -84 -32 -172q0 -136 70 -254t188 -188t254 -70zM940 318l468 468h-468v-468zM1484 1554l184 184l-120 120l-184 -184l-180 184l-120 -120l180 -184l-180 -180
l120 -120l180 180l184 -180l120 120z" />
</svg>
