<?xml version="1.0" standalone="no"?>
<!DOCTYPE svg PUBLIC "-//W3C//DTD SVG 1.1//EN" "http://www.w3.org/Graphics/SVG/1.1/DTD/svg11.dtd" >
<svg xmlns="http://www.w3.org/2000/svg" xmlns:xlink="http://www.w3.org/1999/xlink" version="1.1" viewBox="-10 0 1775 2048">
   <path fill="currentColor"
d="M1050 1490v-180q0 -58 -33 -58q-20 0 -38 18v256q19 20 38 20q33 0 33 -56zM1261 1350h75v-40q0 -58 -38 -58q-37 0 -37 58v40zM608 1046v80h-91v484h-85v-484h-89v-80h265zM838 1190v420h-77v-46q-45 50 -87 50q-38 0 -48 -32q-7 -18 -7 -60v-332h76v308q0 28 1 30
q2 18 17 18q23 0 48 -36v-320h77zM1126 1316v168q0 60 -8 82q-14 48 -61 48q-41 0 -78 -46v42h-76v-564h76v184q36 -46 78 -46q47 0 61 48q8 23 8 84zM1413 1464v10q0 26 -3 49.5t-17 46.5q-30 44 -90.5 44t-93.5 -42q-24 -32 -24 -98v-148q0 -67 23 -98q33 -44 91 -44
q59 0 90 44q24 33 24 98v86h-152v74q0 60 38 60q27 0 35 -30v-8.5t0.5 -18t0.5 -25.5h78zM897 522v178q0 58 -36 58q-37 0 -37 -58v-178q0 -60 37 -60q36 0 36 60zM1506 1338q0 -72 -0.5 -104.5t-5.5 -90.5t-15 -103q-12 -50 -49.5 -84t-86.5 -40q-155 -16 -471 -16
q-315 0 -470 16q-50 6 -87.5 40t-48.5 84q-23 100 -23 298q0 65 1 101.5t6 93.5t16 101q11 50 48.5 83.5t86.5 40.5q157 16 471 16t471 -16q49 -7 86 -40.5t48 -83.5q11 -44 16 -101t6 -93.5t1 -101.5zM643 594l103 -340h-85l-59 224l-60 -224h-89q8 27 26.5 79.5t26.5 78.5
q42 125 53 182v228h84v-228zM974 686v-148q0 -68 -24 -100q-33 -44 -89 -44q-59 0 -90 44q-24 32 -24 100v148q0 66 24 100q31 42 90 42q56 0 89 -42q24 -32 24 -100zM1181 822h76v-422h-76v324q-25 34 -48 34q-18 0 -19 -18q-1 -2 -1 -30v-310h-76v334q0 47 6 64
q12 30 50 30q41 0 88 -50v44zM1755 476v1096q0 90 -44 166t-119.5 120t-165.5 44h-1097q-90 0 -165.5 -44t-119.5 -120t-44 -166v-1096q0 -90 44 -166t119.5 -120t165.5 -44h1097q90 0 165.5 44t119.5 120t44 166z" />
</svg>
