<?xml version="1.0" standalone="no"?>
<!DOCTYPE svg PUBLIC "-//W3C//DTD SVG 1.1//EN" "http://www.w3.org/Graphics/SVG/1.1/DTD/svg11.dtd" >
<svg xmlns="http://www.w3.org/2000/svg" xmlns:xlink="http://www.w3.org/1999/xlink" version="1.1" viewBox="-10 0 1724 2048">
   <path fill="currentColor"
d="M424 1748h172v172h-172v-172zM768 1920h168v-172h-168v172zM1108 1920h172v-172h-172v172zM1704 596q0 156 -92 312q-80 136 -252 312q-108 112 -384 360l-124 112l-124 -112q-276 -248 -384 -360q-172 -176 -252 -312q-92 -156 -92 -312q0 -128 62 -236t170 -170
t236 -62q112 0 212 48t172 128q72 -80 172 -128t212 -48q128 0 236 62t170 170t62 236zM1536 596q0 -128 -86 -212t-214 -84q-100 0 -186 56t-118 144h-160q-32 -88 -118 -144t-186 -56q-128 0 -214 84t-86 212q0 120 84 252q76 116 236 276q100 100 356 332l8 8l8 -8
q256 -232 356 -332q160 -160 236 -276q84 -132 84 -252z" />
</svg>
