<?xml version="1.0" standalone="no"?>
<!DOCTYPE svg PUBLIC "-//W3C//DTD SVG 1.1//EN" "http://www.w3.org/Graphics/SVG/1.1/DTD/svg11.dtd" >
<svg xmlns="http://www.w3.org/2000/svg" xmlns:xlink="http://www.w3.org/1999/xlink" version="1.1" viewBox="-10 0 1772 2048">
   <path fill="currentColor"
d="M1568 1512l184 184l-120 120l-184 -184l-180 184l-120 -120l180 -184l-180 -180l120 -120l180 180l184 -180l120 120zM936 1512q0 36 8 88h-776q-68 0 -118 -50t-50 -122v-1024q0 -72 50 -122t118 -50h1368q68 0 118 50t50 122v668q-116 -72 -254 -72t-256 70t-188 188
t-70 254zM1536 576v-172l-684 428l-684 -428v172l684 424z" />
</svg>
