<?xml version="1.0" standalone="no"?>
<!DOCTYPE svg PUBLIC "-//W3C//DTD SVG 1.1//EN" "http://www.w3.org/Graphics/SVG/1.1/DTD/svg11.dtd" >
<svg xmlns="http://www.w3.org/2000/svg" xmlns:xlink="http://www.w3.org/1999/xlink" version="1.1" viewBox="-10 0 1688 2048">
   <path fill="currentColor"
d="M84 232h1368v172h-1368v-172zM1064 1332l120 -120l180 180l184 -180l120 120l-184 180l184 184l-120 120l-184 -184l-180 184l-120 -120l180 -184zM84 488h1368l84 428v116q-88 -36 -180 -36q-152 0 -284 92h-132v128q-92 132 -92 292l4 92h-768v-512h-84v-172zM256 1088
v340h512v-340h-512z" />
</svg>
