<?xml version="1.0" standalone="no"?>
<!DOCTYPE svg PUBLIC "-//W3C//DTD SVG 1.1//EN" "http://www.w3.org/Graphics/SVG/1.1/DTD/svg11.dtd" >
<svg xmlns="http://www.w3.org/2000/svg" xmlns:xlink="http://www.w3.org/1999/xlink" version="1.1" viewBox="-10 0 1884 2048">
   <path fill="currentColor"
d="M852 1492q0 88 28 176l-28 24l-124 -112q-276 -248 -384 -360q-172 -176 -252 -312q-92 -156 -92 -312q0 -128 62 -236t170 -170t236 -62q112 0 212 48t172 128q72 -80 172 -128t212 -48q128 0 236 62t170 170t62 236q0 156 -96 320q-80 -20 -160 -20q-160 0 -298 80
t-218 218t-80 298zM1860 1632l-84 148q-4 12 -28 12l-104 -44q-40 28 -72 40l-16 116q-4 16 -20 16h-172q-20 0 -24 -16l-16 -116q-32 -12 -72 -40l-104 44q-24 0 -28 -12l-84 -148q-8 -16 4 -28l92 -68q-4 -20 -4 -42t4 -42l-92 -72q-12 -12 -4 -28l84 -148q8 -8 28 -8
l104 40l72 -40l16 -112q4 -16 24 -16h172q16 0 20 16l16 112q28 12 72 40l104 -40q24 0 28 8l84 148q8 16 -4 28l-92 72q4 20 4 40l-4 44l92 68q12 12 4 28zM1576 1492q0 -52 -36 -90t-90 -38t-92 38t-38 92t38 90t92 36t90 -36t36 -92z" />
</svg>
