<?xml version="1.0" standalone="no"?>
<!DOCTYPE svg PUBLIC "-//W3C//DTD SVG 1.1//EN" "http://www.w3.org/Graphics/SVG/1.1/DTD/svg11.dtd" >
<svg xmlns="http://www.w3.org/2000/svg" xmlns:xlink="http://www.w3.org/1999/xlink" version="1.1" viewBox="-10 0 1884 2048">
   <path fill="currentColor"
d="M1432 938q-204 8 -360 136t-204 324l-16 -12l-528 320l140 -600l-464 -404l612 -52l240 -564l240 564l612 52zM1860 1674l-84 148q-4 12 -28 12l-104 -44q-40 28 -72 40l-16 116q-4 16 -20 16h-172q-20 0 -24 -16l-16 -116q-32 -12 -72 -40l-104 44q-24 0 -28 -12
l-84 -148q-8 -16 4 -28l92 -68q-4 -20 -4 -42t4 -42l-92 -72q-12 -12 -4 -28l84 -148q8 -8 28 -8l104 40l72 -40l16 -112q4 -16 24 -16h172q16 0 20 16l16 112q28 12 72 40l104 -40q24 0 28 8l84 148q8 16 -4 28l-92 72q4 20 4 40l-4 44l92 68q12 12 4 28zM1576 1534
q0 -52 -36 -90t-90 -38t-92 38t-38 92t38 90t92 36t90 -36t36 -92z" />
</svg>
