<?xml version="1.0" standalone="no"?>
<!DOCTYPE svg PUBLIC "-//W3C//DTD SVG 1.1//EN" "http://www.w3.org/Graphics/SVG/1.1/DTD/svg11.dtd" >
<svg xmlns="http://www.w3.org/2000/svg" xmlns:xlink="http://www.w3.org/1999/xlink" version="1.1" viewBox="-10 0 1724 2048">
   <path fill="currentColor"
d="M1560 684l80 -260q28 -8 46 -30t18 -54t-24 -58t-60 -26t-60 26t-24 58t20 60l-64 220l-64 -220q20 -28 20 -60t-24 -58t-60 -26t-60 26t-24 58t18 54t46 30l80 260q-64 12 -104 58t-40 110v192q-88 -200 -270 -324t-406 -124q-164 0 -302 84t-220 226t-82 310
q0 116 48 218t128 174l-104 12q-32 4 -52 30t-20 58t24 58t60 26h1376q68 0 114 -46t46 -114v-632q40 -24 62 -62t22 -86q0 -64 -40 -110t-104 -58zM1160 1484l-304 40q64 -112 64 -220q0 -152 -104 -256t-248 -104q-68 0 -132 28q-32 16 -42 50t6 66t48 44t62 -2t58 -14
q76 0 128 54t52 134q0 104 -72 180t-176 76q-136 0 -234 -100t-98 -244q0 -120 60 -224t160 -164t216 -60q156 0 286 78t206 212t76 290q0 64 -12 136z" />
</svg>
