<?xml version="1.0" standalone="no"?>
<!DOCTYPE svg PUBLIC "-//W3C//DTD SVG 1.1//EN" "http://www.w3.org/Graphics/SVG/1.1/DTD/svg11.dtd" >
<svg xmlns="http://www.w3.org/2000/svg" xmlns:xlink="http://www.w3.org/1999/xlink" version="1.1" viewBox="-10 0 1904 2048">
   <path fill="currentColor"
d="M1866 748q-36 -96 -120 -132q-76 -32 -160 -10t-156 90q12 -36 24 -76q16 -88 2 -170t-54 -138q-56 -84 -152 -98t-184 60t-128 198q-44 -128 -134 -200t-184 -56t-150 96q-44 60 -56 140t8 168q4 36 16 60q-72 -60 -150 -78t-150 14q-84 36 -120 132q-24 68 -16 146
t44 154q52 104 140 164t176 60q48 0 92 -16q88 -40 120 -136q44 -108 -4 -244q76 60 156 60q16 0 28 -4q92 -12 148 -96q20 -28 36 -60q12 36 28 60q60 84 152 96q12 4 28 4q92 0 176 -76q-60 140 -12 260q32 96 120 136q44 16 92 16q88 0 176 -60t140 -164q36 -76 44 -154
t-16 -146zM418 1064q-12 28 -32 36q-36 16 -94 -22t-94 -106q-24 -48 -26 -92t8 -72t30 -40l24 -4q36 0 84 36t76 96q24 44 30 90t-6 78zM762 740q-16 20 -32 24q-36 4 -80 -46t-64 -134q-8 -56 -2 -102t24 -72t34 -26q36 -4 82 46t62 134q12 56 4 102t-28 74zM1282 584
q-16 84 -60 134t-80 46q-20 -4 -36 -28t-24 -70t4 -102q16 -80 58 -130t78 -50h8q16 0 34 28t24 76t-6 96zM1686 972q-36 68 -94 106t-94 22q-20 -8 -30 -40t-6 -76t24 -88q32 -56 80 -92t88 -36h24q16 12 28 40t8 72t-28 92zM1310 1280q-32 -32 -96 -120
q-80 -112 -124 -156q-76 -68 -156 -68t-152 68q-44 40 -120 144q-68 96 -108 132q-28 28 -92 84q-76 56 -108 92q-52 56 -56 112q-8 72 30 144t102 104q40 20 92 20q64 0 200 -48q72 -24 108 -32q56 -16 102 -16t106 16q36 8 104 32q136 44 200 44q52 0 96 -16
q56 -28 94 -86t36 -122t-58 -128q-28 -40 -112 -112q-64 -56 -88 -88zM1366 1660q-8 4 -24 4q-32 0 -144 -36l-4 -4q-80 -28 -124 -36q-72 -20 -136 -20t-140 20q-44 12 -124 40l-16 4q-100 32 -132 32q-12 0 -16 -4q-16 -8 -28 -30t-10 -40t78 -82l20 -12q76 -56 112 -96
q44 -44 120 -148l8 -12q96 -136 128 -136t136 144l4 8q64 92 108 140l80 80l20 20q112 92 116 120q0 12 -12 26t-20 18z" />
</svg>
