<?xml version="1.0" standalone="no"?>
<!DOCTYPE svg PUBLIC "-//W3C//DTD SVG 1.1//EN" "http://www.w3.org/Graphics/SVG/1.1/DTD/svg11.dtd" >
<svg xmlns="http://www.w3.org/2000/svg" xmlns:xlink="http://www.w3.org/1999/xlink" version="1.1" viewBox="-10 0 1904 2048">
   <path fill="currentColor"
d="M1866 684q-36 -96 -124 -132q-72 -32 -158 -10t-154 90q12 -36 24 -76q16 -88 2 -170t-54 -138q-56 -84 -152 -98t-184 60t-128 198q-44 -128 -134 -200t-184 -56t-150 96l-4 8l128 124q8 -24 16 -32q16 -28 32 -28q36 -4 82 46t62 134q8 40 4 76l140 144l8 -8l12 28
l116 112q28 12 46 16t34 4q92 0 176 -76q-60 140 -12 260q32 96 120 136q44 16 92 16q88 0 176 -60t140 -164q36 -76 44 -154t-16 -146zM1282 520q-16 84 -60 134t-80 46q-20 -4 -36 -28t-24 -70t4 -102q16 -80 58 -130t78 -50h8q16 0 34 28t24 76t-6 96zM1686 908
q-36 68 -94 106t-94 22q-20 -8 -30 -40t-6 -76t24 -88q32 -56 80 -92t88 -36h20q20 12 30 40t8 72t-26 92zM14 236l312 316q-100 -40 -188 -2t-120 134q-24 68 -16 146t44 154q52 104 140 164t176 60q48 0 92 -16q88 -40 120 -136q40 -116 -4 -244q20 16 52 32l128 128
q-32 32 -88 112q-68 96 -108 132q-28 28 -92 84q-76 56 -108 92q-52 56 -56 112q-8 72 30 144t102 104q40 20 92 20q64 0 200 -48q72 -24 108 -32q56 -16 102 -16t106 16q36 8 104 32q136 44 200 44q52 0 96 -16q28 -16 52 -40l208 208l108 -108l-1684 -1684zM870 1092
l500 500l-4 4q-8 4 -24 4q-32 0 -140 -36l-8 -4q-80 -28 -124 -36q-72 -20 -136 -20t-140 20q-44 12 -124 40l-16 4q-100 32 -132 32q-12 0 -16 -4q-16 -8 -28 -30t-10 -40t78 -82l20 -12q76 -56 112 -96q44 -44 120 -148v-4q36 -52 72 -92zM394 832q24 44 28 88t-6 76
t-30 40q-36 16 -94 -22t-94 -106q-24 -48 -26 -92t8 -72t30 -40l24 -4q36 0 84 36t76 96z" />
</svg>
