<?xml version="1.0" standalone="no"?>
<!DOCTYPE svg PUBLIC "-//W3C//DTD SVG 1.1//EN" "http://www.w3.org/Graphics/SVG/1.1/DTD/svg11.dtd" >
<svg xmlns="http://www.w3.org/2000/svg" xmlns:xlink="http://www.w3.org/1999/xlink" version="1.1" viewBox="-10 0 1724 2048">
   <path fill="currentColor"
d="M1704 1364v172h-168q-172 0 -344 -84q-160 80 -340 80t-340 -80q-172 84 -344 84h-168v-172h168q176 0 344 -108q152 108 340 108t340 -108q168 108 344 108h168zM280 1176q72 -20 136 -64l96 -64q100 -336 -36 -696q276 48 508 264t328 508q96 60 192 68
q-60 -276 -234 -512t-414 -368q-248 -140 -516 -140q-48 0 -72 40t-4 84q128 256 120 500q-8 196 -104 380zM1192 1596q-152 108 -340 108t-340 -108q-168 112 -344 112h-168v168h168q172 0 344 -84q160 84 340 84t340 -84q172 84 344 84h168v-168h-168q-176 0 -344 -112z
" />
</svg>
