<?xml version="1.0" standalone="no"?>
<!DOCTYPE svg PUBLIC "-//W3C//DTD SVG 1.1//EN" "http://www.w3.org/Graphics/SVG/1.1/DTD/svg11.dtd" >
<svg xmlns="http://www.w3.org/2000/svg" xmlns:xlink="http://www.w3.org/1999/xlink" version="1.1" viewBox="-10 0 1900 2048">
   <path fill="currentColor"
d="M1880 1260v256q0 32 -20 54t-52 30l-168 -168h68v-88h-152l-20 -16v-152q0 -116 -56 -214t-154 -156t-214 -58h-156l-168 -172h68v-108q-40 -20 -64 -60t-24 -88q0 -68 50 -118t122 -50t122 50t50 118q0 48 -24 88t-64 60v108h88q160 0 298 80t218 218t80 302h84
q36 0 62 24t26 60zM640 1132q-68 0 -118 50t-50 120t50 120t120 50t120 -50t50 -120t-50 -120t-122 -50zM1804 1812l-108 108l-84 -80q-36 16 -76 16h-1192q-72 0 -122 -50t-50 -118v-88h-84q-36 0 -62 -24t-26 -60v-256q0 -36 26 -60t62 -24h84q0 -156 74 -290t202 -214
l-436 -436l108 -108zM1460 1688l-212 -216h-8q-72 0 -122 -50t-50 -118v-8l-496 -496q-104 52 -166 152t-62 224v168h-172v88h172v256h1116z" />
</svg>
