<?xml version="1.0" standalone="no"?>
<!DOCTYPE svg PUBLIC "-//W3C//DTD SVG 1.1//EN" "http://www.w3.org/Graphics/SVG/1.1/DTD/svg11.dtd" >
<svg xmlns="http://www.w3.org/2000/svg" xmlns:xlink="http://www.w3.org/1999/xlink" version="1.1" viewBox="-10 0 1724 2048">
   <path fill="currentColor"
d="M1108 894q0 -32 26 -58t60 -26t60 26t26 60t-26 60t-60 26t-60 -26t-26 -62zM1704 682v596l-240 80l-144 476h-468v-172h-172v172h-468l-56 -196q-64 -232 -104 -416q-52 -256 -52 -368q0 -128 62 -236t170 -172t236 -64h428q60 -76 148 -122t192 -46q52 0 90 36t38 92
q0 24 -12 48q-20 48 -24 100l192 192h184zM1536 854h-88l-296 -300q0 -84 20 -164q-60 16 -108 60t-68 104h-528q-124 0 -212 88t-88 212q0 184 172 808h172v-168h512v168h168l136 -440l208 -68v-300z" />
</svg>
