<?xml version="1.0" standalone="no"?>
<!DOCTYPE svg PUBLIC "-//W3C//DTD SVG 1.1//EN" "http://www.w3.org/Graphics/SVG/1.1/DTD/svg11.dtd" >
<svg xmlns="http://www.w3.org/2000/svg" xmlns:xlink="http://www.w3.org/1999/xlink" version="1.1" viewBox="-10 0 1644 2048">
   <path fill="currentColor"
d="M1068 1386l244 144l-64 104l-308 -184v-428h128v364zM1624 1366q0 160 -80 298t-218 218t-302 80q-120 0 -226 -44t-190 -128h-436q-72 0 -122 -50t-50 -118v-1368q0 -68 50 -118t122 -50h84v596l216 -128l212 128v-596h512q72 0 122 50t50 118v620q116 84 186 212
t70 280zM1452 1366q0 -116 -58 -214t-156 -156t-214 -58t-214 58t-154 156t-56 214t56 214t154 154t214 56t214 -56t156 -154t58 -214z" />
</svg>
