<?xml version="1.0" standalone="no"?>
<!DOCTYPE svg PUBLIC "-//W3C//DTD SVG 1.1//EN" "http://www.w3.org/Graphics/SVG/1.1/DTD/svg11.dtd" >
<svg xmlns="http://www.w3.org/2000/svg" xmlns:xlink="http://www.w3.org/1999/xlink" version="1.1" viewBox="-10 0 1630 2048">
   <path fill="currentColor"
d="M682 830q-12 20 -293 521q-10 16 -18 25.5t-23.5 18.5t-33.5 9h-273q-23 0 -35 -20q-12 -19 0 -41l289 -512q1 0 0 -1l-184 -319q-14 -25 -1 -42q10 -17 36 -17h273q46 0 76 51zM1603 96q13 18 0 42l-603 1068q-1 0 -1 0.5t1 0.5l384 703q12 24 1 42q-13 17 -36 17h-274
q-48 0 -75 -51l-387 -711q20 -37 606 -1077q14 -24 30 -37.5t44 -13.5h275q24 0 35 17z" />
</svg>
