<?xml version="1.0" standalone="no"?>
<!DOCTYPE svg PUBLIC "-//W3C//DTD SVG 1.1//EN" "http://www.w3.org/Graphics/SVG/1.1/DTD/svg11.dtd" >
<svg xmlns="http://www.w3.org/2000/svg" xmlns:xlink="http://www.w3.org/1999/xlink" version="1.1" viewBox="-10 0 1644 2048">
   <path fill="currentColor"
d="M768 1768q0 56 24 108h-620q-72 0 -122 -50t-50 -118v-1368q0 -68 50 -118t122 -50h1024q72 0 122 50t50 118v524q-44 -12 -86 -12t-86 12v-524h-428v684l-212 -192l-212 192v-684h-172v1368h596v60zM1624 1476v300q0 40 -34 70t-78 30h-468q-40 0 -72 -32t-32 -76v-300
q0 -40 32 -72t72 -32v-128q0 -88 72 -150t164 -62t166 62t74 150v128q40 0 72 34t32 78zM1408 1236q0 -48 -36 -78t-90 -30t-92 30t-38 78v128h256v-128z" />
</svg>
