<?xml version="1.0" standalone="no"?>
<!DOCTYPE svg PUBLIC "-//W3C//DTD SVG 1.1//EN" "http://www.w3.org/Graphics/SVG/1.1/DTD/svg11.dtd" >
<svg xmlns="http://www.w3.org/2000/svg" xmlns:xlink="http://www.w3.org/1999/xlink" version="1.1" viewBox="-10 0 1644 2048">
   <path fill="currentColor"
d="M700 1664q24 92 72 168h-600q-72 0 -122 -50t-50 -118v-1368q0 -68 50 -118t122 -50h1024q72 0 122 50t50 118v700q-72 -16 -128 -16q-28 0 -44 4v-688h-428v684l-212 -192l-212 192v-684h-172v1368h528zM1624 1536q0 160 -112 272t-272 112t-272 -112t-112 -272
t112 -272t272 -112t272 112t112 272zM1368 1756l-348 -348q-36 56 -36 128q0 104 74 180t182 76q72 0 128 -36zM1496 1536q0 -108 -76 -182t-180 -74q-72 0 -128 36l348 348q36 -56 36 -128z" />
</svg>
