<?xml version="1.0" standalone="no"?>
<!DOCTYPE svg PUBLIC "-//W3C//DTD SVG 1.1//EN" "http://www.w3.org/Graphics/SVG/1.1/DTD/svg11.dtd" >
<svg xmlns="http://www.w3.org/2000/svg" xmlns:xlink="http://www.w3.org/1999/xlink" version="1.1" viewBox="-10 0 1556 2048">
   <path fill="currentColor"
d="M768 1704q0 68 24 128h-620q-72 0 -122 -50t-50 -118v-1368q0 -68 50 -118t122 -50h1024q72 0 122 50t50 118v600h-172v-600h-428v684l-212 -192l-212 192v-684h-172v1368h600zM1368 1064h-128v444q-40 -16 -88 -16q-88 0 -150 62t-62 150t62 152t150 64t152 -64t64 -152
v-468h168v-172h-168z" />
</svg>
