<?xml version="1.0" standalone="no"?>
<!DOCTYPE svg PUBLIC "-//W3C//DTD SVG 1.1//EN" "http://www.w3.org/Graphics/SVG/1.1/DTD/svg11.dtd" >
<svg xmlns="http://www.w3.org/2000/svg" xmlns:xlink="http://www.w3.org/1999/xlink" version="1.1" viewBox="-10 0 1775 2048">
   <path fill="currentColor"
d="M783 874q0 -1 -144 -254q-24 -38 -60 -38h-210q-20 0 -30 12q-9 14 2 34l142 246v2l-224 394q-10 17 0 32q10 16 28 16h211q35 0 57 -42zM1496 306q-9 -14 -27 -14h-214q-35 0 -56 40l-470 834q2 2 300 550q22 40 59 40h210q20 0 29 -14q10 -15 -1 -32l-297 -544v-2
l467 -826q10 -17 0 -32zM1755 476v1096q0 90 -44 166t-119.5 120t-165.5 44h-1097q-90 0 -165.5 -44t-119.5 -120t-44 -166v-1096q0 -90 44 -166t119.5 -120t165.5 -44h1097q90 0 165.5 44t119.5 120t44 166z" />
</svg>
