<?xml version="1.0" standalone="no"?>
<!DOCTYPE svg PUBLIC "-//W3C//DTD SVG 1.1//EN" "http://www.w3.org/Graphics/SVG/1.1/DTD/svg11.dtd" >
<svg xmlns="http://www.w3.org/2000/svg" xmlns:xlink="http://www.w3.org/1999/xlink" version="1.1" viewBox="-10 0 1556 2048">
   <path fill="currentColor"
d="M684 1558q0 160 88 296h-600q-72 0 -122 -50t-50 -118v-1368q0 -68 50 -118t122 -50h84v596l216 -128l212 128v-596h512q72 0 122 50t50 118v700q-72 -16 -128 -16q-152 0 -280 74t-202 202t-74 280zM1536 1558v-344l-100 100q-100 -100 -240 -100t-240 100t-100 242
t100 242t240 100q108 0 194 -58t122 -154h-144q-32 40 -76 62t-96 22q-88 0 -150 -62t-62 -150t62 -152t150 -64t152 64l-152 152h340z" />
</svg>
