<?xml version="1.0" standalone="no"?>
<!DOCTYPE svg PUBLIC "-//W3C//DTD SVG 1.1//EN" "http://www.w3.org/Graphics/SVG/1.1/DTD/svg11.dtd" >
<svg xmlns="http://www.w3.org/2000/svg" xmlns:xlink="http://www.w3.org/1999/xlink" version="1.1" viewBox="-10 0 1900 2048">
   <path fill="currentColor"
d="M1536 684h88v84h-88v-84zM1624 428h-88v168h88v-84h40q20 0 32 -12t12 -32v-168q0 -20 -12 -32t-32 -12h-212v84h172v88zM1368 256h-88v340h88v-340zM1068 1324q0 68 50 118t120 50t120 -50t50 -120t-50 -120t-120 -50t-120 50t-50 122zM1368 684h-88v84h88v-84z
M1792 1196h-84q0 -188 -108 -344h-236q80 60 126 150t46 194v168h172v88h-172v256h-1192v-256h-172v-88h172v-168q0 -116 56 -214t154 -156t214 -58h344q40 0 84 8v-172q-44 -8 -84 -8h-88v-108q40 -20 64 -60t24 -88q0 -68 -50 -118t-122 -50t-122 50t-50 118q0 48 24 88
t64 60v108h-88q-160 0 -298 80t-218 218t-80 302h-84q-36 0 -62 24t-26 60v256q0 36 26 60t62 24h84v88q0 68 50 118t122 50h1192q72 0 122 -50t50 -118v-88h84q36 0 62 -24t26 -60v-256q0 -36 -26 -60t-62 -24zM640 1152q-68 0 -118 50t-50 120t50 120t120 50t120 -50
t50 -120t-50 -120t-122 -50z" />
</svg>
