<?xml version="1.0" standalone="no"?>
<!DOCTYPE svg PUBLIC "-//W3C//DTD SVG 1.1//EN" "http://www.w3.org/Graphics/SVG/1.1/DTD/svg11.dtd" >
<svg xmlns="http://www.w3.org/2000/svg" xmlns:xlink="http://www.w3.org/1999/xlink" version="1.1" viewBox="-10 0 1900 2048">
   <path fill="currentColor"
d="M824 1232l-92 92l92 88l-92 92l-92 -92l-88 92l-92 -92l92 -88l-92 -92l92 -92l88 92l92 -92zM1328 1140l-88 92l-92 -92l-92 92l92 92l-92 88l92 92l92 -92l88 92l92 -92l-92 -88l92 -92zM1880 1280v256q0 36 -26 60t-62 24h-84v88q0 68 -50 118t-122 50h-1192
q-72 0 -122 -50t-50 -118v-88h-84q-36 0 -62 -24t-26 -60v-256q0 -36 26 -60t62 -24h84q0 -164 80 -302t218 -218t298 -80h88v-108q-40 -20 -64 -60t-24 -88q0 -68 50 -118t122 -50t122 50t50 118q0 48 -24 88t-64 60v108h88q160 0 298 80t218 218t80 302h84q36 0 62 24
t26 60zM1708 1364h-172v-168q0 -116 -56 -214t-154 -156t-214 -58h-344q-116 0 -214 58t-154 156t-56 214v168h-172v88h172v256h1192v-256h172v-88z" />
</svg>
