<?xml version="1.0" standalone="no"?>
<!DOCTYPE svg PUBLIC "-//W3C//DTD SVG 1.1//EN" "http://www.w3.org/Graphics/SVG/1.1/DTD/svg11.dtd" >
<svg xmlns="http://www.w3.org/2000/svg" xmlns:xlink="http://www.w3.org/1999/xlink" version="1.1" viewBox="-10 0 1900 2048">
   <path fill="currentColor"
d="M1880 1260v256q0 32 -20 54t-52 30l-272 -276v-20q0 -88 -62 -152t-150 -64q-16 0 -24 4l-512 -516h68v-108q-40 -20 -64 -60t-24 -88q0 -68 50 -118t122 -50t122 50t50 118q0 48 -24 88t-64 60v108h88q160 0 298 80t218 218t80 302h84q36 0 62 24t26 60zM1804 1812
l-108 108l-84 -80q-36 16 -76 16h-1192q-72 0 -122 -50t-50 -118v-88h-84q-36 0 -62 -24t-26 -60v-256q0 -36 26 -60t62 -24h84q0 -156 74 -290t202 -214l-436 -436l108 -108zM768 1304q0 -88 -62 -152t-150 -64t-150 64t-62 152t62 150t150 62t150 -62t62 -150zM1288 1512
l-172 -172q12 64 58 112t114 60z" />
</svg>
