<?xml version="1.0" standalone="no"?>
<!DOCTYPE svg PUBLIC "-//W3C//DTD SVG 1.1//EN" "http://www.w3.org/Graphics/SVG/1.1/DTD/svg11.dtd" >
<svg xmlns="http://www.w3.org/2000/svg" xmlns:xlink="http://www.w3.org/1999/xlink" version="1.1" viewBox="-10 0 1959 2048">
   <path fill="currentColor"
d="M920 896q-256 0 -460 152l-156 -204q132 -96 290 -150t326 -54t326 54t290 150l-40 52q-140 8 -256 68q-152 -68 -320 -68zM1688 640l152 -204q-196 -148 -430 -228t-490 -80t-490 80t-430 228l152 204q164 -124 360 -190t408 -66t408 66t360 190zM920 1152
q-172 0 -308 104l308 408l20 -24q-20 -76 -20 -148q0 -180 100 -328q-52 -12 -100 -12zM1928 1612q4 0 4 6t-4 10l-88 148q-8 8 -24 8l-104 -36l-68 44l-16 112q0 4 -6 10t-10 6h-172q-8 0 -24 -16l-20 -112q-36 -12 -68 -44l-100 44q-16 0 -28 -8l-84 -144q-8 -12 8 -28
l96 -68v-84l-96 -68q-8 -8 -8 -28l84 -144q12 -8 28 -8l100 44l68 -44l20 -112q0 -16 24 -16h172q4 0 10 6t6 10l16 112q28 8 80 44l100 -44q28 0 28 8l84 144q8 8 -8 28l-96 68v84zM1644 1492q0 -48 -38 -88t-88 -40t-90 40t-40 90t40 88t90 38t88 -38t38 -90z" />
</svg>
