<?xml version="1.0" standalone="no"?>
<!DOCTYPE svg PUBLIC "-//W3C//DTD SVG 1.1//EN" "http://www.w3.org/Graphics/SVG/1.1/DTD/svg11.dtd" >
<svg xmlns="http://www.w3.org/2000/svg" xmlns:xlink="http://www.w3.org/1999/xlink" version="1.1" viewBox="-10 0 1920 2048">
   <path fill="currentColor"
d="M920 938q-256 0 -460 152l-156 -204q132 -96 290 -150t326 -54t326 54t290 150l-112 144q-52 12 -92 28q-184 -120 -412 -120zM1688 682l152 -204q-196 -148 -430 -228t-490 -80t-490 80t-430 228l152 204q164 -124 360 -190t408 -66t408 66t360 190zM920 1194
q-172 0 -308 104l308 408l88 -120q-4 -16 -4 -52q0 -168 104 -304q-96 -36 -188 -36zM1348 1194l-216 256h128v340h172v-340h128zM1772 1622v-344h-168v344h-128l212 256l212 -256h-128z" />
</svg>
