<?xml version="1.0" standalone="no"?>
<!DOCTYPE svg PUBLIC "-//W3C//DTD SVG 1.1//EN" "http://www.w3.org/Graphics/SVG/1.1/DTD/svg11.dtd" >
<svg xmlns="http://www.w3.org/2000/svg" xmlns:xlink="http://www.w3.org/1999/xlink" version="1.1" viewBox="-10 0 1880 2048">
   <path fill="currentColor"
d="M920 470q-212 0 -408 66t-360 190l-152 -204q196 -148 430 -228t490 -80t490 80t430 228l-152 204q-164 -124 -360 -190t-408 -66zM1380 838q-220 -112 -460 -112q-168 0 -326 54t-290 150l156 204q204 -152 460 -152q120 0 236 36q76 -132 224 -180zM612 1342l308 408
l84 -112v-212q0 -88 60 -164q-72 -24 -144 -24q-172 0 -308 104zM1860 1434v300q0 40 -34 70t-78 30h-468q-40 0 -72 -32t-32 -76v-300q0 -40 32 -72t72 -32v-128q0 -88 72 -150t164 -62t166 62t74 150v128q40 0 72 34t32 78zM1644 1194q0 -48 -36 -78t-90 -30t-92 30
t-38 78v128h256v-128z" />
</svg>
