<?xml version="1.0" standalone="no"?>
<!DOCTYPE svg PUBLIC "-//W3C//DTD SVG 1.1//EN" "http://www.w3.org/Graphics/SVG/1.1/DTD/svg11.dtd" >
<svg xmlns="http://www.w3.org/2000/svg" xmlns:xlink="http://www.w3.org/1999/xlink" version="1.1" viewBox="-10 0 1880 2048">
   <path fill="currentColor"
d="M920 426q-212 0 -408 66t-360 190l-152 -204q196 -148 430 -228t490 -80t490 80t430 228l-152 204q-164 -124 -360 -190t-408 -66zM1220 998q120 -60 256 -60h20l40 -52q-132 -96 -290 -150t-326 -54t-326 54t-290 150l156 204q204 -152 460 -152q156 0 300 60zM920 1194
q-172 0 -308 104l308 408l28 -40q-28 -88 -28 -172q0 -160 84 -292q-44 -8 -84 -8zM1860 1494q0 160 -112 272t-272 112t-272 -112t-112 -272t112 -272t272 -112t272 112t112 272zM1604 1714l-348 -348q-36 56 -36 128q0 104 74 180t182 76q72 0 128 -36zM1732 1494
q0 -108 -76 -182t-180 -74q-72 0 -128 36l348 348q36 -56 36 -128z" />
</svg>
