<?xml version="1.0" standalone="no"?>
<!DOCTYPE svg PUBLIC "-//W3C//DTD SVG 1.1//EN" "http://www.w3.org/Graphics/SVG/1.1/DTD/svg11.dtd" >
<svg xmlns="http://www.w3.org/2000/svg" xmlns:xlink="http://www.w3.org/1999/xlink" version="1.1" viewBox="-10 0 1860 2048">
   <path fill="currentColor"
d="M920 960q-256 0 -460 152l-156 -204q132 -96 290 -150t326 -54t326 54t290 150l-40 52h-20q-136 0 -256 60q-144 -60 -300 -60zM1688 704l152 -204q-196 -148 -430 -228t-490 -80t-490 80t-430 228l152 204q164 -124 360 -190t408 -66t408 66t360 190zM920 1216
q-172 0 -308 104l308 408l28 -40q-28 -88 -28 -172q0 -160 84 -292q-44 -8 -84 -8zM1432 1172q-140 0 -240 100t-100 242t100 242t240 100q108 0 194 -58t122 -154h-144q-32 40 -76 62t-96 22q-88 0 -150 -62t-62 -150t62 -152t150 -64t152 64l-152 152h340v-344l-100 100
q-100 -100 -240 -100z" />
</svg>
