<?xml version="1.0" standalone="no"?>
<!DOCTYPE svg PUBLIC "-//W3C//DTD SVG 1.1//EN" "http://www.w3.org/Graphics/SVG/1.1/DTD/svg11.dtd" >
<svg xmlns="http://www.w3.org/2000/svg" xmlns:xlink="http://www.w3.org/1999/xlink" version="1.1" viewBox="-10 0 1860 2048">
   <path fill="currentColor"
d="M920 1622l-308 -412q136 -100 308 -100t308 100zM304 802l156 204q204 -152 460 -152t460 152l156 -204q-132 -100 -290 -152t-326 -52t-326 52t-290 152zM920 86q-256 0 -490 80t-430 224l152 208q164 -124 360 -190t408 -66t408 66t360 190l152 -208
q-196 -144 -430 -224t-490 -80zM492 1962h172v-172h-172v172zM1176 1962h172v-172h-172v172zM836 1962h168v-172h-168v172z" />
</svg>
