<?xml version="1.0" standalone="no"?>
<!DOCTYPE svg PUBLIC "-//W3C//DTD SVG 1.1//EN" "http://www.w3.org/Graphics/SVG/1.1/DTD/svg11.dtd" >
<svg xmlns="http://www.w3.org/2000/svg" xmlns:xlink="http://www.w3.org/1999/xlink" version="1.1" viewBox="-10 0 2008 2048">
   <path fill="currentColor"
d="M1988 554h-4l-180 232q-84 -48 -176 -56l108 -136q-344 -208 -744 -208t-744 208l744 924l84 -108v276l-84 108l-992 -1240q212 -164 468 -252t524 -88t524 88t472 252zM1828 1322h-368v-212q0 -48 38 -80t92 -32t90 32t36 80v44h112v-44q0 -88 -74 -150t-166 -62
t-164 62t-72 150v212q-40 0 -72 32t-32 72v300q0 44 32 76t72 32h468q44 0 78 -30t34 -70v-300q0 -44 -32 -78t-72 -34z" />
</svg>
