<?xml version="1.0" standalone="no"?>
<!DOCTYPE svg PUBLIC "-//W3C//DTD SVG 1.1//EN" "http://www.w3.org/Graphics/SVG/1.1/DTD/svg11.dtd" >
<svg xmlns="http://www.w3.org/2000/svg" xmlns:xlink="http://www.w3.org/1999/xlink" version="1.1" viewBox="-10 0 1860 2048">
   <path fill="currentColor"
d="M920 470q-212 0 -408 66t-360 190l-152 -204q196 -148 430 -228t490 -80t490 80t430 228l-152 204q-164 -124 -360 -190t-408 -66zM1004 1246q-40 -8 -84 -8q-172 0 -308 104l308 408l152 -204q-68 -148 -68 -264v-36zM920 726q-168 0 -326 54t-290 150l156 204
q204 -152 460 -152q88 0 180 20q104 -136 260 -176q-208 -100 -440 -100zM1772 1282q0 136 -148 360q-76 112 -148 192l-80 -92q-88 -116 -144 -220q-76 -144 -76 -240q0 -124 88 -212t210 -88t210 88t88 212zM1576 1290q0 -40 -32 -72t-70 -32t-70 30t-32 72t30 72t74 30
t76 -32t24 -68z" />
</svg>
