<?xml version="1.0" standalone="no"?>
<!DOCTYPE svg PUBLIC "-//W3C//DTD SVG 1.1//EN" "http://www.w3.org/Graphics/SVG/1.1/DTD/svg11.dtd" >
<svg xmlns="http://www.w3.org/2000/svg" xmlns:xlink="http://www.w3.org/1999/xlink" version="1.1" viewBox="-10 0 1880 2048">
   <path fill="currentColor"
d="M920 426q-212 0 -408 66t-360 190l-152 -204q196 -148 430 -228t490 -80t490 80t430 228l-152 204q-164 -124 -360 -190t-408 -66zM920 1194q-172 0 -308 104l308 408l108 -144q-24 -80 -24 -156q0 -96 40 -196q-68 -16 -124 -16zM1196 990q128 -112 296 -132
q-260 -176 -572 -176q-168 0 -326 54t-290 150l156 204q204 -152 460 -152q144 0 276 52zM1516 1622q-88 0 -150 -64t-62 -152q0 -48 24 -96l-96 -92q-56 88 -56 188q0 144 100 244t240 100v128l192 -192l-192 -192v128zM1516 1066v-128l-192 192l192 192v-128q88 0 152 62
t64 150q0 52 -24 96l92 92q60 -84 60 -188q0 -140 -100 -240t-244 -100z" />
</svg>
