<?xml version="1.0" standalone="no"?>
<!DOCTYPE svg PUBLIC "-//W3C//DTD SVG 1.1//EN" "http://www.w3.org/Graphics/SVG/1.1/DTD/svg11.dtd" >
<svg xmlns="http://www.w3.org/2000/svg" xmlns:xlink="http://www.w3.org/1999/xlink" version="1.1" viewBox="-10 0 1728 2048">
   <path fill="currentColor"
d="M1024 1154v-4q0 -52 38 -90t90 -38q36 0 68 20q76 -20 144 -20q84 0 164 28q8 -56 8 -112q0 -68 -12 -128q-12 -28 -44 -36q-16 -8 -28 -8h-172v-84q0 -52 -44 -76q-20 -8 -40 -8h-172v-88q0 -52 -44 -72q-20 -12 -40 -12h-88v-172q0 -52 -40 -72q-24 -12 -44 -12
q-208 0 -384 104t-280 280t-104 384t104 384t280 280t384 104q56 0 112 -8q-28 -80 -28 -164q0 -112 46 -210t126 -170zM300 1022q-56 0 -92 -36t-36 -90t36 -92t90 -38t92 38t38 92t-38 90t-90 36zM428 554q0 -52 36 -90t90 -38t92 38t38 90t-38 90t-92 38t-90 -38t-36 -90
zM684 1534q-56 0 -92 -36t-36 -90t36 -92t90 -38t92 38t38 92t-38 90t-90 36zM724 1110q-52 0 -90 -38t-38 -92t38 -90t92 -36t90 36t36 90t-36 92t-92 38zM1708 1450v172h-256v256h-172v-256h-256v-172h256v-256h172v256h256z" />
</svg>
