<?xml version="1.0" standalone="no"?>
<!DOCTYPE svg PUBLIC "-//W3C//DTD SVG 1.1//EN" "http://www.w3.org/Graphics/SVG/1.1/DTD/svg11.dtd" >
<svg xmlns="http://www.w3.org/2000/svg" xmlns:xlink="http://www.w3.org/1999/xlink" version="1.1" viewBox="-10 0 1900 2048">
   <path fill="currentColor"
d="M1452 852h-172v-84q0 -52 -40 -76q-24 -8 -44 -8h-172v-88q0 -52 -40 -72q-24 -12 -44 -12h-84v-172q0 -52 -44 -72q-20 -12 -44 -12q-208 0 -384 102t-280 280t-104 386t104 386t280 280t386 102t386 -102t278 -280t102 -386q0 -84 -8 -128q-16 -28 -48 -36
q-16 -8 -28 -8v0zM300 1108q-52 0 -90 -38t-38 -88t38 -90t90 -40t90 40t38 90t-38 88t-90 38zM428 640q0 -52 38 -90t90 -38t90 38t38 90t-38 90t-90 38t-90 -38t-38 -90zM684 1620q-52 0 -90 -38t-38 -88t38 -90t90 -40t90 40t38 90t-38 88t-90 38zM728 1196
q-52 0 -90 -40t-38 -90t38 -88t88 -38t90 38t40 88t-40 90t-88 40zM1152 1364q-48 0 -88 -38t-40 -88t40 -90t90 -40t88 40t38 90t-38 88t-90 38zM1708 1280h172v172h-172v-172zM1880 596v512h-172v-512h172z" />
</svg>
