<?xml version="1.0" standalone="no"?>
<!DOCTYPE svg PUBLIC "-//W3C//DTD SVG 1.1//EN" "http://www.w3.org/Graphics/SVG/1.1/DTD/svg11.dtd" >
<svg xmlns="http://www.w3.org/2000/svg" xmlns:xlink="http://www.w3.org/1999/xlink" version="1.1" viewBox="-10 0 1684 2048">
   <path fill="currentColor"
d="M1024 810h-44q-52 0 -90 -36t-38 -92v-40h-40q-56 0 -92 -38t-36 -90v-124q-200 28 -340 172t-168 340q12 -40 46 -66t78 -26q52 0 90 38t38 92t-38 90t-90 36t-88 -34t-40 -82q0 84 8 128q24 172 144 304t288 176q-56 -40 -56 -108q0 -52 36 -90t90 -38t92 38t38 88
t-30 84t-74 42q84 8 144 0v4q0 84 28 164q-56 8 -112 8q-208 0 -384 -104t-280 -280t-104 -384t104 -384t280 -280t384 -104l24 4q24 4 40 20q20 24 20 60v172h88l20 4q28 4 40 20q24 24 24 60v88h172h20q28 8 40 24q24 24 24 60v84h172l28 8q32 8 44 36q12 60 12 128
q0 56 -8 112q-80 -28 -164 -28h-4q4 -44 4 -84h-128q-52 0 -90 -38t-38 -90v-44h-84zM1024 1194v4q88 -76 196 -112q-32 -20 -68 -20q-52 0 -90 38t-38 90zM724 1154q56 0 92 -38t36 -92t-36 -90t-90 -36t-92 36t-38 90t38 92t90 38zM684 598q0 -52 -38 -90t-92 -38t-90 38
t-36 90t36 90t90 38t92 -38t38 -90zM1564 1310l-304 308l-136 -136l-100 96l236 256l404 -404z" />
</svg>
