<?xml version="1.0" standalone="no"?>
<!DOCTYPE svg PUBLIC "-//W3C//DTD SVG 1.1//EN" "http://www.w3.org/Graphics/SVG/1.1/DTD/svg11.dtd" >
<svg xmlns="http://www.w3.org/2000/svg" xmlns:xlink="http://www.w3.org/1999/xlink" version="1.1" viewBox="-10 0 1556 2048">
   <path fill="currentColor"
d="M768 852q72 0 122 50t50 122t-50 122t-122 50t-122 -50t-50 -122t50 -122t122 -50zM172 256h1192q72 0 122 50t50 122v1024h-348q84 -84 130 -194t46 -234q0 -164 -80 -300t-216 -216t-300 -80t-300 80t-216 216t-80 300t80 300t216 216t300 80h768q0 72 -50 122t-122 50
h-1192q-72 0 -122 -50t-50 -122v-1192q0 -72 50 -122t122 -50z" />
</svg>
