<?xml version="1.0" standalone="no"?>
<!DOCTYPE svg PUBLIC "-//W3C//DTD SVG 1.1//EN" "http://www.w3.org/Graphics/SVG/1.1/DTD/svg11.dtd" >
<svg xmlns="http://www.w3.org/2000/svg" xmlns:xlink="http://www.w3.org/1999/xlink" version="1.1" viewBox="-10 0 1807 2048">
   <path fill="currentColor"
d="M1536 920v-24q0 -68 -12 -128q-12 -28 -44 -36q-16 -8 -28 -8h-172v-84q0 -52 -44 -76q-20 -8 -40 -8h-172v-88q0 -52 -44 -72q-20 -12 -40 -12h-88v-172q0 -52 -40 -72q-24 -12 -44 -12q-208 0 -384 104t-280 280t-104 384t104 384t280 280t384 104h24q-24 -88 -24 -172
v-32q-36 32 -88 32t-88 -36t-36 -90t36 -92t92 -38q36 0 66 20t46 52q60 -180 216 -296t352 -116q84 0 172 24zM300 980q-56 0 -92 -36t-36 -90t36 -92t90 -38t92 38t38 92t-38 90t-90 36zM556 640q-56 0 -92 -38t-36 -90t36 -90t90 -38t92 38t38 90t-38 90t-90 38z
M724 1068q-52 0 -90 -38t-38 -92t38 -90t92 -36t90 36t36 90t-36 92t-92 38zM1680 1544v-84l96 -68q16 -20 8 -28l-84 -144q0 -8 -28 -8l-100 44q-52 -36 -80 -44l-16 -112q0 -4 -6 -10t-10 -6h-172q-24 0 -24 16l-20 112l-68 44l-100 -44q-16 0 -28 8l-84 144q0 20 8 28
l96 68v84l-96 68q-16 16 -8 28l84 144q12 8 28 8l100 -44q32 32 68 44l20 112q16 16 24 16h172q4 0 10 -6t6 -10l16 -112l68 -44l104 36q16 0 24 -8l88 -148q4 -4 4 -10t-4 -6zM1364 1620q-48 0 -88 -38t-40 -88t40 -90t90 -40t88 40t38 90t-38 88t-90 38z" />
</svg>
