<?xml version="1.0" standalone="no"?>
<!DOCTYPE svg PUBLIC "-//W3C//DTD SVG 1.1//EN" "http://www.w3.org/Graphics/SVG/1.1/DTD/svg11.dtd" >
<svg xmlns="http://www.w3.org/2000/svg" xmlns:xlink="http://www.w3.org/1999/xlink" version="1.1" viewBox="-10 0 1556 2048">
   <path fill="currentColor"
d="M852 894q0 56 -36 92t-90 36t-92 -36t-38 -90t38 -92t92 -38t90 38t36 90zM684 470q0 -56 -38 -92t-92 -36t-90 36t-36 90t36 92t90 38t92 -38t38 -90zM1536 854q0 208 -104 384t-280 280t-384 104t-384 -104t-280 -280t-104 -384t104 -386t280 -280t384 -102h24
q24 8 40 24q20 24 20 60v172h88h20q28 8 40 24q24 24 24 60v84h172l20 4q28 8 40 24q24 20 24 60v84h172l28 4q32 12 44 40q12 60 12 128zM1364 854h-128q-52 0 -90 -38t-38 -90v-44h-128q-52 0 -90 -38t-38 -90v-44h-40q-56 0 -92 -36t-36 -92v-120q-200 28 -340 172
t-168 340q12 -40 46 -66t78 -26q52 0 90 38t38 90t-38 90t-90 38t-88 -34t-40 -82q0 84 8 128q24 168 144 300t288 176q-56 -36 -56 -104q0 -52 36 -90t90 -38t92 38t38 86t-30 84t-74 44q176 16 328 -60t240 -218t88 -314zM1152 938q-52 0 -90 38t-38 90t38 90t90 38
t90 -38t38 -90t-38 -90t-90 -38zM340 1962h172v-172h-172v172zM1024 1962h172v-172h-172v172zM684 1962h168v-172h-168v172z" />
</svg>
