<?xml version="1.0" standalone="no"?>
<!DOCTYPE svg PUBLIC "-//W3C//DTD SVG 1.1//EN" "http://www.w3.org/Graphics/SVG/1.1/DTD/svg11.dtd" >
<svg xmlns="http://www.w3.org/2000/svg" xmlns:xlink="http://www.w3.org/1999/xlink" version="1.1" viewBox="-10 0 1900 2048">
   <path fill="currentColor"
d="M1280 1236q0 52 -38 90t-88 38t-90 -38t-40 -88t40 -90t90 -40t88 40t38 88zM1528 896q8 44 8 128q0 208 -102 386t-278 280t-386 102t-386 -102t-280 -280t-104 -386t104 -386t280 -280t384 -102l24 4q24 4 40 20q24 24 24 60v172h84l24 4q24 4 40 20q20 24 20 60v88
h172h24q24 8 40 24q20 24 20 60v84h172l28 8q32 8 48 36zM1368 1024h-128q-52 0 -90 -38t-38 -90v-44h-128q-52 0 -90 -38t-38 -90v-40h-44q-52 0 -90 -40t-38 -88v-120q-196 24 -336 168t-168 344q8 -40 42 -68t82 -28t86 40t38 90t-38 88t-90 38t-86 -34t-42 -86
q0 88 8 128q24 172 146 304t290 176q-60 -44 -60 -98t38 -94t90 -40t90 40t38 86t-28 82t-76 48q176 20 328 -58t242 -222t90 -316zM728 940q-52 0 -90 38t-38 88t38 90t88 40t90 -40t40 -90t-40 -88t-88 -38zM684 640q0 -52 -38 -90t-90 -38t-90 38t-38 90t38 90t90 38
t90 -38t38 -90zM1708 1452h172v-172h-172v172zM1708 596v512h172v-512h-172z" />
</svg>
