<?xml version="1.0" standalone="no"?>
<!DOCTYPE svg PUBLIC "-//W3C//DTD SVG 1.1//EN" "http://www.w3.org/Graphics/SVG/1.1/DTD/svg11.dtd" >
<svg xmlns="http://www.w3.org/2000/svg" xmlns:xlink="http://www.w3.org/1999/xlink" version="1.1" viewBox="-10 0 1728 2048">
   <path fill="currentColor"
d="M1152 1022q36 0 68 20q-108 36 -196 112v-4q0 -52 38 -90t90 -38zM1108 766v44q0 52 38 90t90 38h128q0 40 -4 84h4q84 0 164 28q8 -56 8 -112q0 -68 -12 -128q-12 -28 -44 -36q-16 -8 -28 -8h-172v-84q0 -52 -44 -76q-20 -8 -40 -8h-172v-88q0 -52 -44 -72
q-20 -12 -40 -12h-88v-172q0 -52 -40 -72q-24 -12 -44 -12q-208 0 -384 104t-280 280t-104 384t104 384t280 280t384 104q56 0 112 -8q-28 -80 -28 -164v-4q-60 8 -144 0q44 -8 74 -42t30 -84t-38 -88t-92 -38t-90 38t-36 90q0 68 56 108q-168 -44 -288 -176t-144 -304
q-8 -44 -8 -128q4 48 40 82t88 34t90 -36t38 -90t-38 -92t-90 -38q-44 0 -78 26t-46 66q28 -196 168 -340t340 -172v124q0 52 36 90t92 38h40v40q0 56 38 92t90 36h128zM724 1110q56 0 92 -38t36 -92t-36 -90t-90 -36t-92 36t-38 90t38 92t90 38zM684 554q0 -52 -38 -90
t-92 -38t-90 38t-36 90t36 90t90 38t92 -38t38 -90zM1452 1450v-256h-172v256h-256v172h256v256h172v-256h256v-172h-256z" />
</svg>
