<?xml version="1.0" standalone="no"?>
<!DOCTYPE svg PUBLIC "-//W3C//DTD SVG 1.1//EN" "http://www.w3.org/Graphics/SVG/1.1/DTD/svg11.dtd" >
<svg xmlns="http://www.w3.org/2000/svg" xmlns:xlink="http://www.w3.org/1999/xlink" version="1.1" viewBox="-10 0 1688 2048">
   <path fill="currentColor"
d="M1152 1042q36 0 68 20q76 -20 144 -20q84 0 164 28q8 -56 8 -112q0 -68 -12 -128q-12 -28 -44 -36q-16 -8 -28 -8h-172v-84q0 -52 -44 -76q-20 -8 -40 -8h-172v-88q0 -52 -44 -72q-20 -12 -40 -12h-88v-172q0 -52 -40 -72q-24 -12 -44 -12q-208 0 -384 104t-280 280
t-104 384t104 384t280 280t384 104q56 0 112 -8q-28 -80 -28 -164q0 -112 46 -210t126 -170v-4q0 -52 38 -90t90 -38zM300 1042q-56 0 -92 -36t-36 -90t36 -92t90 -38t92 38t38 92t-38 90t-90 36zM428 574q0 -52 36 -90t90 -38t92 38t38 90t-38 90t-92 38t-90 -38t-36 -90z
M684 1554q-56 0 -92 -36t-36 -90t36 -92t90 -38t92 38t38 92t-38 90t-90 36zM724 1130q-52 0 -90 -38t-38 -92t38 -90t92 -36t90 36t36 90t-36 92t-92 38zM1484 1554l184 184l-120 120l-184 -184l-180 184l-120 -120l180 -184l-180 -180l120 -120l180 180l184 -180l120 120z
" />
</svg>
