<?xml version="1.0" standalone="no"?>
<!DOCTYPE svg PUBLIC "-//W3C//DTD SVG 1.1//EN" "http://www.w3.org/Graphics/SVG/1.1/DTD/svg11.dtd" >
<svg xmlns="http://www.w3.org/2000/svg" xmlns:xlink="http://www.w3.org/1999/xlink" version="1.1" viewBox="-10 0 1807 2048">
   <path fill="currentColor"
d="M980 724q-52 0 -90 -36t-38 -92v-40h-40q-56 0 -92 -38t-36 -90v-124q-200 28 -340 172t-168 340q12 -40 46 -66t78 -26q52 0 90 38t38 92t-38 90t-90 36t-88 -34t-40 -82q0 84 8 128q24 172 144 304t288 176q-56 -40 -56 -108q0 -52 36 -90t92 -38q36 0 66 20t46 52
q-20 64 -28 148q-24 28 -60 32q20 4 60 4q0 84 24 172h-24q-208 0 -384 -104t-280 -280t-104 -384t104 -384t280 -280t384 -104l24 4q24 4 40 20q20 24 20 60v172h88l20 4q28 4 40 20q24 24 24 60v88h172h20q28 8 40 24q24 24 24 60v84h172l28 8q32 8 44 36q12 60 12 128v24
q-88 -24 -172 -24h-128q-52 0 -90 -38t-38 -90v-44h-128zM724 812q-52 0 -90 36t-38 90t38 92t92 38t90 -38t36 -92t-36 -90t-92 -36zM684 512q0 -52 -38 -90t-92 -38t-90 38t-36 90t36 90t90 38t92 -38t38 -90zM1776 1612q4 0 4 6t-4 10l-88 148q-8 8 -24 8l-104 -36
l-68 44l-16 112q0 4 -6 10t-10 6h-172q-8 0 -24 -16l-20 -112q-36 -12 -68 -44l-100 44q-16 0 -28 -8l-84 -144q-8 -12 8 -28l96 -68v-84l-96 -68q-8 -8 -8 -28l84 -144q12 -8 28 -8l100 44l68 -44l20 -112q0 -16 24 -16h172q4 0 10 6t6 10l16 112q28 8 80 44l100 -44
q28 0 28 8l84 144q8 8 -8 28l-96 68v84zM1492 1492q0 -48 -38 -88t-88 -40t-90 40t-40 90t40 88t90 38t88 -38t38 -90z" />
</svg>
