<?xml version="1.0" standalone="no"?>
<!DOCTYPE svg PUBLIC "-//W3C//DTD SVG 1.1//EN" "http://www.w3.org/Graphics/SVG/1.1/DTD/svg11.dtd" >
<svg xmlns="http://www.w3.org/2000/svg" xmlns:xlink="http://www.w3.org/1999/xlink" version="1.1" viewBox="-10 0 1556 2048">
   <path fill="currentColor"
d="M1524 726q-12 -28 -44 -40l-28 -4h-172v-84q0 -56 -44 -76q-20 -12 -40 -12h-172v-84q0 -52 -44 -76q-20 -8 -40 -8h-88v-172q0 -36 -20 -60q-16 -16 -40 -24h-24q-208 0 -384 102t-280 280t-104 386t104 384t280 280t384 104t384 -104t280 -280t104 -384q0 -68 -12 -128
zM300 938q-56 0 -92 -38t-36 -90t36 -90t90 -38t92 38t38 90t-38 90t-90 38zM428 470q0 -56 36 -92t90 -36t92 36t38 90t-38 92t-92 38t-90 -38t-36 -90zM684 1450q-56 0 -92 -38t-36 -90t36 -90t90 -38t92 38t38 90t-38 90t-90 38zM724 1022q-52 0 -90 -36t-38 -90t38 -92
t92 -38t90 38t36 92t-36 90t-92 36zM1152 1194q-52 0 -90 -38t-38 -90t38 -90t90 -38t90 38t38 90t-38 90t-90 38zM340 1790h172v172h-172v-172zM684 1790h168v172h-168v-172zM1024 1790h172v172h-172v-172z" />
</svg>
