<?xml version="1.0" standalone="no"?>
<!DOCTYPE svg PUBLIC "-//W3C//DTD SVG 1.1//EN" "http://www.w3.org/Graphics/SVG/1.1/DTD/svg11.dtd" >
<svg xmlns="http://www.w3.org/2000/svg" xmlns:xlink="http://www.w3.org/1999/xlink" version="1.1" viewBox="-10 0 1775 2048">
   <path fill="currentColor"
d="M1170 1024.5q0 -120.5 -85.5 -207t-206.5 -86.5t-207 86.5t-86 207t86 206t207 85.5t206.5 -85.5t85.5 -206zM1328 1024.5q0 91.5 -35.5 175t-96 143.5t-143.5 95.5t-175 35.5t-175.5 -35.5t-144 -95.5t-96 -143.5t-35.5 -175t36 -175t96 -144t143.5 -96.5t175.5 -36
t175.5 36t143.5 96.5t95.5 144t35.5 175zM1451 555.5q0 43.5 -30.5 74t-74 30.5t-74.5 -30.5t-31 -74t31 -74.5t74.5 -31t74 31t30.5 74.5zM878 304q-11 0 -88 -0.5t-120 0t-111 3.5t-117 11t-82 21q-58 24 -101 66.5t-66 100.5q-13 33 -21 82.5t-11 117t-4 110.5t0 120
t1 88.5t-1 88t0 119.5t4 110.5t11 117t21 81.5q23 59 66 101.5t101 65.5q33 13 81.5 21.5t118 11.5t109.5 4t121.5 0t87.5 -1t87.5 1t121 0t109 -4t118 -11.5t81.5 -21.5q58 -23 101 -65.5t66 -101.5q13 -32 21.5 -80.5t11.5 -118t4 -109.5t0 -121.5t-1 -87t1 -87.5
t0 -121.5t-4 -109.5t-11.5 -118.5t-21.5 -81.5q-23 -58 -66 -100.5t-101 -66.5q-33 -13 -82 -21t-116.5 -11t-110.5 -3.5t-120 0t-88 0.5zM1755 1024q0 276 -5 362q-6 116 -37.5 206t-104.5 162.5t-162.5 104.5t-205.5 37q-86 5 -362 5q-277 0 -363 -5q-115 -5 -205 -37
t-162.5 -104.5t-104 -162.5t-37.5 -206q-6 -103 -6 -362t6 -363q6 -116 37.5 -205.5t104 -162t162 -104t205.5 -37.5q104 -6 363 -6q258 0 362 6q116 6 206 37.5t162.5 104t104 162.5t37.5 205q5 87 5 363z" />
</svg>
