<?xml version="1.0" standalone="no"?>
<!DOCTYPE svg PUBLIC "-//W3C//DTD SVG 1.1//EN" "http://www.w3.org/Graphics/SVG/1.1/DTD/svg11.dtd" >
<svg xmlns="http://www.w3.org/2000/svg" xmlns:xlink="http://www.w3.org/1999/xlink" version="1.1" viewBox="-10 0 1556 2048">
   <path fill="currentColor"
d="M1524 896q-12 -28 -44 -36q-16 -8 -28 -8h-172v-84q0 -52 -44 -76q-20 -8 -40 -8h-172v-88q0 -52 -44 -72q-20 -12 -40 -12h-88v-172q0 -52 -40 -72q-24 -12 -44 -12q-208 0 -384 104t-280 280t-104 384t104 384t280 280t384 104t384 -104t280 -280t104 -384
q0 -68 -12 -128zM708 1616q44 -8 74 -42t30 -84t-38 -88t-92 -38t-90 38t-36 90q0 68 56 108q-168 -44 -288 -176t-144 -304q-8 -44 -8 -128q4 48 40 82t88 34t90 -36t38 -90t-38 -92t-90 -38q-44 0 -78 26t-46 66q28 -196 168 -340t340 -172v124q0 52 36 90t92 38h40v40
q0 56 38 92t90 36h128v44q0 52 38 90t90 38h128q0 172 -88 314t-240 220t-328 58zM556 768q-56 0 -92 -38t-36 -90t36 -90t90 -38t92 38t38 90t-38 90t-90 38zM852 1068q0 52 -36 90t-90 38t-92 -38t-38 -92t38 -90t92 -36t90 36t36 92zM1280 1236q0 56 -38 92t-90 36
t-90 -36t-38 -90t38 -92t90 -38t90 38t38 90z" />
</svg>
