<?xml version="1.0" standalone="no"?>
<!DOCTYPE svg PUBLIC "-//W3C//DTD SVG 1.1//EN" "http://www.w3.org/Graphics/SVG/1.1/DTD/svg11.dtd" >
<svg xmlns="http://www.w3.org/2000/svg" xmlns:xlink="http://www.w3.org/1999/xlink" version="1.1" viewBox="-10 0 1812 2048">
   <path fill="currentColor"
d="M552 640q-52 0 -90 -38t-38 -92t38 -90t92 -36t90 36t36 90t-36 92t-92 38zM1236 980h-128v428l308 184l64 -104l-244 -144v-364zM1792 1320q0 164 -80 302t-218 218t-302 80q-148 0 -278 -70t-214 -190q-192 -16 -354 -122t-254 -276t-92 -366q0 -208 102 -386t280 -280
t386 -102h20q28 8 40 24q24 24 24 60v172h84h24q24 8 40 24q24 24 24 60v84h168l24 4q24 8 40 24q24 20 24 60v84h168l28 4q32 12 48 40q8 36 8 60q120 84 190 214t70 278zM608 1468q-56 -36 -56 -104q0 -56 48 -96q8 -116 64 -220q-32 -16 -50 -46t-18 -66q0 -52 38 -90
t92 -38t94 48q128 -104 288 -124v-8h-128q-52 0 -90 -38t-38 -90v-44h-44q-52 0 -90 -36t-38 -92v-120q-196 28 -338 172t-166 340q12 -40 46 -66t74 -26q56 0 92 38t36 90t-36 90t-88 38t-90 -34t-42 -82q0 84 8 128q28 168 146 300t286 176zM1620 1320q0 -116 -58 -214
t-156 -154t-214 -56t-214 56t-154 154t-56 214t56 214t154 156t214 58t214 -58t156 -156t58 -214z" />
</svg>
