<?xml version="1.0" standalone="no"?>
<!DOCTYPE svg PUBLIC "-//W3C//DTD SVG 1.1//EN" "http://www.w3.org/Graphics/SVG/1.1/DTD/svg11.dtd" >
<svg xmlns="http://www.w3.org/2000/svg" xmlns:xlink="http://www.w3.org/1999/xlink" version="1.1" viewBox="-10 0 1640 2048">
   <path fill="currentColor"
d="M1324 898q112 0 212 64q0 -48 -12 -108q-12 -28 -44 -36q-16 -8 -28 -8h-172v-84q0 -52 -44 -76q-20 -8 -40 -8h-172v-88q0 -52 -44 -72q-20 -12 -40 -12h-88v-172q0 -52 -40 -72q-24 -12 -44 -12q-208 0 -384 104t-280 280t-104 384t104 384t280 280t384 104q56 0 84 -4
v-336q0 -60 26 -110t66 -86q24 -136 132 -226t248 -90zM300 1066q-56 0 -92 -36t-36 -90t36 -92t90 -38t92 38t38 92t-38 90t-90 36zM428 598q0 -52 36 -90t90 -38t92 38t38 90t-38 90t-92 38t-90 -38t-36 -90zM684 1578q-56 0 -92 -36t-36 -90t36 -92t90 -38t92 38t38 92
t-38 90t-90 36zM724 1154q-52 0 -90 -38t-38 -92t38 -90t92 -36t90 36t36 90t-36 92t-92 38zM1536 1322v-40q0 -88 -62 -152t-150 -64t-152 64t-64 152v40q-32 0 -58 26t-26 62v340q0 36 26 60t58 24h428q36 0 60 -24t24 -60v-340q0 -36 -24 -62t-60 -26zM1452 1322h-256
v-40q0 -56 36 -92t90 -36t92 36t38 92v40z" />
</svg>
