<?xml version="1.0" standalone="no"?>
<!DOCTYPE svg PUBLIC "-//W3C//DTD SVG 1.1//EN" "http://www.w3.org/Graphics/SVG/1.1/DTD/svg11.dtd" >
<svg xmlns="http://www.w3.org/2000/svg" xmlns:xlink="http://www.w3.org/1999/xlink" version="1.1" viewBox="-10 0 1812 2048">
   <path fill="currentColor"
d="M692 496l-152 -152q180 -108 388 -108l24 4q24 4 40 20q20 24 20 60v172h88l20 4q28 4 40 20q24 24 24 60v88h172h20q28 8 40 24q24 24 24 60v84h172l28 8q32 8 44 36q12 60 12 128q0 208 -108 388l-152 -152l4 -24q0 -52 -38 -90t-90 -38l-20 4l-452 -452l4 -20
q0 -52 -38 -90t-90 -38zM1792 1812l-108 108l-300 -300q-204 152 -456 152q-208 0 -384 -104t-280 -280t-104 -384q0 -252 152 -456l-312 -312l108 -108zM588 960q0 -52 -38 -90t-92 -38t-90 38t-36 92t36 90t90 36t92 -36t38 -92zM756 1048q0 52 38 90t90 38q24 0 44 -8
l-164 -164q-8 20 -8 44zM972 1472q0 -52 -38 -90t-92 -38t-90 38t-36 92t36 90t90 36t92 -36t38 -92z" />
</svg>
