<?xml version="1.0" standalone="no"?>
<!DOCTYPE svg PUBLIC "-//W3C//DTD SVG 1.1//EN" "http://www.w3.org/Graphics/SVG/1.1/DTD/svg11.dtd" >
<svg xmlns="http://www.w3.org/2000/svg" xmlns:xlink="http://www.w3.org/1999/xlink" version="1.1" viewBox="-10 0 1812 2048">
   <path fill="currentColor"
d="M1532 828q0 -24 -8 -60q-16 -28 -48 -40l-28 -4h-168v-84q0 -56 -44 -76q-20 -12 -44 -12h-168v-84q0 -52 -44 -76q-20 -8 -44 -8h-84v-172q0 -36 -24 -60q-12 -16 -40 -24h-20q-208 0 -386 102t-280 280t-102 386q0 196 92 366t254 276t354 122q84 120 214 190t278 70
q164 0 302 -80t218 -218t80 -302q0 -148 -70 -278t-190 -214zM820 856q-100 80 -156 192q-32 -16 -50 -46t-18 -66q0 -52 38 -90t92 -38t94 48zM296 980q-52 0 -90 -38t-38 -90t38 -90t92 -38t90 38t36 90t-36 90t-92 38zM424 512q0 -56 38 -92t92 -36t90 36t36 90t-36 92
t-90 38t-92 -38t-38 -90zM552 1364q0 -56 48 -96q-4 16 -4 52q0 76 20 156q-64 -44 -64 -112zM1192 1748q-116 0 -214 -58t-154 -156t-56 -214t56 -214t154 -154t214 -56t214 56t156 154t58 214t-58 214t-156 156t-214 58zM1236 1344l244 144l-64 104l-308 -184v-428h128
v364z" />
</svg>
