<?xml version="1.0" standalone="no"?>
<!DOCTYPE svg PUBLIC "-//W3C//DTD SVG 1.1//EN" "http://www.w3.org/Graphics/SVG/1.1/DTD/svg11.dtd" >
<svg xmlns="http://www.w3.org/2000/svg" xmlns:xlink="http://www.w3.org/1999/xlink" version="1.1" viewBox="-10 0 1728 2048">
   <path fill="currentColor"
d="M556 470q52 0 90 38t38 90t-38 90t-92 38t-90 -38t-36 -90t36 -90t92 -38zM724 898q-52 0 -90 36t-38 90t38 92t92 38t90 -38t36 -92t-36 -90t-92 -36zM684 1322q-56 0 -92 38t-36 90q0 68 56 108q-168 -44 -288 -176t-144 -304q-8 -44 -8 -128q4 48 40 82t88 34t90 -36
t38 -90t-38 -92t-90 -38q-44 0 -78 26t-46 66q28 -196 168 -340t340 -172v124q0 52 36 90t92 38h40v40q0 56 38 92t90 36h128v44q0 52 38 90t90 38h56l108 -108q36 -36 88 -52q-12 -8 -24 -8l-184 -4v-84q0 -52 -44 -76q-20 -8 -40 -8h-172v-88q0 -52 -44 -72
q-20 -12 -40 -12h-88v-172q0 -52 -40 -72q-24 -12 -44 -12q-208 0 -384 104t-280 280t-104 384q0 196 90 362t246 272t348 130v-156l124 -124q4 -8 4 -16q0 -52 -38 -90t-90 -38zM1024 1194q0 24 8 48l164 -168q-24 -8 -44 -8q-52 0 -90 38t-38 90zM1692 1106l-112 -112
q-12 -12 -30 -12t-30 12l-84 84l176 176l80 -84q16 -12 16 -30t-16 -34zM852 1662v172h176l524 -520l-176 -176z" />
</svg>
