<?xml version="1.0" standalone="no"?>
<!DOCTYPE svg PUBLIC "-//W3C//DTD SVG 1.1//EN" "http://www.w3.org/Graphics/SVG/1.1/DTD/svg11.dtd" >
<svg xmlns="http://www.w3.org/2000/svg" xmlns:xlink="http://www.w3.org/1999/xlink" version="1.1" viewBox="-10 0 1728 2048">
   <path fill="currentColor"
d="M1032 1242q-8 -24 -8 -48q0 -52 38 -90t90 -38q20 0 44 8l204 -200q36 -36 88 -52q-12 -8 -24 -8l-184 -4v-84q0 -52 -44 -76q-20 -8 -40 -8h-172v-88q0 -52 -44 -72q-20 -12 -40 -12h-88v-172q0 -52 -40 -72q-24 -12 -44 -12q-208 0 -384 104t-280 280t-104 384
q0 196 90 362t246 272t348 130v-156l12 -12h-12q-56 0 -92 -36t-36 -90t36 -92t90 -38t92 38t38 90v12zM300 1066q-56 0 -92 -36t-36 -90t36 -92t90 -38t92 38t38 92t-38 90t-90 36zM556 726q-56 0 -92 -38t-36 -90t36 -90t90 -38t92 38t38 90t-38 90t-90 38zM724 1154
q-52 0 -90 -38t-38 -92t38 -90t92 -36t90 36t36 90t-36 92t-92 38zM1692 1170l-80 84l-176 -176l84 -84q12 -12 30 -12t30 12l112 112q16 16 16 34t-16 30zM1376 1138l176 176l-524 520h-176v-172z" />
</svg>
