<?xml version="1.0" standalone="no"?>
<!DOCTYPE svg PUBLIC "-//W3C//DTD SVG 1.1//EN" "http://www.w3.org/Graphics/SVG/1.1/DTD/svg11.dtd" >
<svg xmlns="http://www.w3.org/2000/svg" xmlns:xlink="http://www.w3.org/1999/xlink" version="1.1" viewBox="-10 0 1812 2048">
   <path fill="currentColor"
d="M668 468l-128 -124q180 -108 388 -108l24 4q24 4 40 20q20 24 20 60v172h88l20 4q28 4 40 20q24 24 24 60v88h172h20q28 8 40 24q24 24 24 60v84h172l28 8q32 8 44 36q12 60 12 128q0 208 -108 388l-124 -124q60 -124 60 -264h-128q-52 0 -90 -38t-38 -90v-44h-128
q-52 0 -90 -36t-38 -92v-40h-40q-56 0 -92 -38t-36 -90v-124q-92 16 -176 56zM692 496l148 144l4 -20q0 -52 -38 -90t-90 -38zM1292 1092l144 148l4 -24q0 -52 -38 -90t-90 -38zM1792 1812l-108 108l-300 -300q-204 152 -456 152q-208 0 -384 -104t-280 -280t-104 -384
q0 -252 152 -456l-312 -312l108 -108zM1260 1500l-332 -332q-20 8 -44 8q-52 0 -90 -38t-38 -90q0 -24 8 -44l-332 -332q-80 120 -96 252q12 -40 46 -66t78 -26q52 0 90 38t38 92t-38 90t-90 36t-88 -34t-40 -82q0 84 8 128q24 172 144 304t288 176q-56 -40 -56 -108
q0 -52 36 -90t90 -38t92 38t38 88t-30 84t-74 42q216 20 392 -96z" />
</svg>
