<?xml version="1.0" standalone="no"?>
<!DOCTYPE svg PUBLIC "-//W3C//DTD SVG 1.1//EN" "http://www.w3.org/Graphics/SVG/1.1/DTD/svg11.dtd" >
<svg xmlns="http://www.w3.org/2000/svg" xmlns:xlink="http://www.w3.org/1999/xlink" version="1.1" viewBox="-10 0 1728 2048">
   <path fill="currentColor"
d="M1152 1388l244 144l-64 104l-308 -184v-428h128v364zM1708 1364q0 164 -80 302t-218 218t-302 80q-120 0 -226 -46t-190 -126h-520q-72 0 -122 -50t-50 -122v-1192q0 -72 50 -122t122 -50h356q28 -76 94 -124t146 -48t146 48t94 124h356q72 0 122 50t50 122v520
q80 84 126 190t46 226zM684 340q0 36 24 62t60 26t60 -26t24 -60t-24 -60t-60 -26t-60 26t-24 58zM1536 1364q0 -116 -58 -214t-156 -154t-214 -56t-214 56t-154 154t-56 214t56 214t154 156t214 58t214 -58t156 -156t58 -214z" />
</svg>
