<?xml version="1.0" standalone="no"?>
<!DOCTYPE svg PUBLIC "-//W3C//DTD SVG 1.1//EN" "http://www.w3.org/Graphics/SVG/1.1/DTD/svg11.dtd" >
<svg xmlns="http://www.w3.org/2000/svg" xmlns:xlink="http://www.w3.org/1999/xlink" version="1.1" viewBox="-10 0 1640 2048">
   <path fill="currentColor"
d="M684 1300q32 0 60 16t48 44q48 -176 196 -288t336 -112q108 0 212 44v-44q0 -68 -12 -128q-12 -28 -44 -36q-16 -8 -28 -8h-172v-84q0 -52 -44 -76q-20 -8 -40 -8h-172v-88q0 -52 -44 -72q-20 -12 -40 -12h-88v-172q0 -52 -40 -72q-24 -12 -44 -12q-208 0 -384 104
t-280 280t-104 384t104 384t280 280t384 104h44q-44 -104 -44 -204q-36 32 -88 32t-88 -36t-36 -90t36 -92t92 -38zM852 1004q0 52 -36 90t-90 38t-92 -38t-38 -92t38 -90t92 -36t90 36t36 92zM300 1044q-56 0 -92 -36t-36 -90t36 -92t90 -38t92 38t38 92t-38 90t-90 36z
M428 576q0 -52 36 -90t90 -38t92 38t38 90t-38 90t-92 38t-90 -38t-36 -90zM1280 1516l152 -152q-64 -64 -152 -64t-150 64t-62 152t62 150t150 62q52 0 96 -22t76 -62h144q-36 96 -122 154t-194 58q-140 0 -240 -100t-100 -242t100 -242t240 -100t240 100l100 -100v344
h-340z" />
</svg>
