<?xml version="1.0" standalone="no"?>
<!DOCTYPE svg PUBLIC "-//W3C//DTD SVG 1.1//EN" "http://www.w3.org/Graphics/SVG/1.1/DTD/svg11.dtd" >
<svg xmlns="http://www.w3.org/2000/svg" xmlns:xlink="http://www.w3.org/1999/xlink" version="1.1" viewBox="-10 0 1640 2048">
   <path fill="currentColor"
d="M596 1026q0 -56 38 -92t92 -36t90 36t36 90t-36 92t-90 38t-92 -38t-38 -90zM1108 810v44q0 52 36 88q88 -44 180 -44q112 0 212 64q0 -48 -12 -108q-12 -28 -44 -36q-16 -8 -28 -8h-172v-84q0 -52 -44 -76q-20 -8 -40 -8h-172v-88q0 -52 -44 -72q-20 -12 -40 -12h-88
v-172q0 -52 -40 -72q-24 -12 -44 -12q-208 0 -384 104t-280 280t-104 384t104 384t280 280t384 104q56 0 84 -4v-172q-60 8 -144 0q44 -8 74 -42t30 -84t-38 -88t-92 -38t-90 38t-36 90q0 68 56 108q-168 -44 -288 -176t-144 -304q-8 -44 -8 -128q4 48 40 82t88 34t90 -36
t38 -90t-38 -92t-90 -38q-44 0 -78 26t-46 66q28 -196 168 -340t340 -172v124q0 52 36 90t92 38h40v40q0 56 38 92t90 36h128zM684 598q0 -52 -38 -90t-92 -38t-90 38t-36 90t36 90t90 38t92 -38t38 -90zM1620 1410v340q0 36 -24 60t-60 24h-428q-32 0 -58 -24t-26 -60v-340
q0 -36 26 -62t58 -26v-40q0 -88 64 -152t152 -64t150 64t62 152v40q36 0 60 26t24 62zM1452 1282q0 -56 -38 -92t-92 -36t-90 36t-36 92v40h256v-40z" />
</svg>
