<?xml version="1.0" standalone="no"?>
<!DOCTYPE svg PUBLIC "-//W3C//DTD SVG 1.1//EN" "http://www.w3.org/Graphics/SVG/1.1/DTD/svg11.dtd" >
<svg xmlns="http://www.w3.org/2000/svg" xmlns:xlink="http://www.w3.org/1999/xlink" version="1.1" viewBox="-10 0 1812 2048">
   <path fill="currentColor"
d="M1704 971l-232 -136q32 -28 56 -68q52 -92 24 -194t-120 -154q-52 -32 -114 -34t-118 22l-76 32l-8 -80q-8 -60 -40 -112t-88 -84q-92 -52 -194 -26t-154 118q-20 36 -32 84l-232 -136q-64 -36 -132 -18t-100 78l-128 224q-20 32 -10 66t38 50l508 292h-552v856
q0 68 50 118t118 50h1368q68 0 118 -50t50 -118v-440l64 -108q36 -60 18 -128t-82 -104zM1232 599q16 -32 50 -42t64 8t40 52t-8 66t-52 40t-64 -10t-40 -50t10 -64zM1028 775l592 344l-84 148l-592 -344zM768 1751h-600v-684h600v684zM796 839l-592 -340l84 -148l592 340z
M820 459q-32 -20 -42 -52t8 -64t52 -42t66 8t40 52t-10 66t-52 40t-62 -8zM936 1751v-632l600 344v288h-600z" />
</svg>
