<?xml version="1.0" standalone="no"?>
<!DOCTYPE svg PUBLIC "-//W3C//DTD SVG 1.1//EN" "http://www.w3.org/Graphics/SVG/1.1/DTD/svg11.dtd" >
<svg xmlns="http://www.w3.org/2000/svg" xmlns:xlink="http://www.w3.org/1999/xlink" version="1.1" viewBox="-10 0 1930 2048">
   <path fill="currentColor"
d="M1127 542l-236 -300l168 -32l232 300zM1711 426l-64 -332l-336 64l232 304zM1487 930q136 0 256 60v-232h-1704v856q0 68 50 118t118 50h744q-60 -120 -60 -256q0 -160 80 -298t218 -218t298 -80zM875 594l-236 -304l-168 36l236 300zM223 374l-84 16q-68 16 -108 74
t-28 130l36 164l416 -80zM1899 1646q4 0 4 6t-4 10l-88 148q-8 8 -24 8l-104 -36l-68 44l-16 112q0 4 -6 10t-10 6h-172q-8 0 -24 -16l-20 -112q-36 -12 -68 -44l-100 44q-16 0 -28 -8l-84 -144q-8 -12 8 -28l96 -68v-84l-96 -68q-8 -8 -8 -28l84 -144q12 -8 28 -8l100 44
l68 -44l20 -112q0 -16 24 -16h172q4 0 10 6t6 10l16 112q28 8 80 44l100 -44q28 0 28 8l84 144q8 8 -8 28l-96 68v84zM1615 1526q0 -48 -38 -88t-88 -40t-90 40t-40 90t40 88t90 38t88 -38t38 -90z" />
</svg>
