<?xml version="1.0" standalone="no"?>
<!DOCTYPE svg PUBLIC "-//W3C//DTD SVG 1.1//EN" "http://www.w3.org/Graphics/SVG/1.1/DTD/svg11.dtd" >
<svg xmlns="http://www.w3.org/2000/svg" xmlns:xlink="http://www.w3.org/1999/xlink" version="1.1" viewBox="-10 0 1807 2048">
   <path fill="currentColor"
d="M1127 628l-236 -300l168 -32l232 300zM1711 512l-64 -332l-336 64l232 304zM875 680l-236 -304l-168 36l236 300zM223 460l-84 16q-68 16 -108 74t-28 130l36 164l416 -80zM207 1700v-684h1368v92q88 16 168 64v-328h-1704v856q0 68 50 118t118 50h840q-48 -76 -64 -168
h-776zM1687 1344l-304 308l-136 -136l-100 96l236 256l404 -404z" />
</svg>
