<?xml version="1.0" standalone="no"?>
<!DOCTYPE svg PUBLIC "-//W3C//DTD SVG 1.1//EN" "http://www.w3.org/Graphics/SVG/1.1/DTD/svg11.dtd" >
<svg xmlns="http://www.w3.org/2000/svg" xmlns:xlink="http://www.w3.org/1999/xlink" version="1.1" viewBox="-10 0 1891 2048">
   <path fill="currentColor"
d="M852 1450q0 40 8 88h-692q-68 0 -118 -50t-50 -122v-1024q0 -72 50 -122t118 -50h88l168 344h256l-168 -344h168l172 344h256l-172 -344h172l172 344h256l-172 -344h340v744q-120 -60 -256 -60q-160 0 -298 80t-218 218t-80 298zM1860 1570q4 0 4 6t-4 10l-88 148
q-8 8 -24 8l-104 -36l-68 44l-16 112q0 4 -6 10t-10 6h-172q-8 0 -24 -16l-20 -112q-36 -12 -68 -44l-100 44q-16 0 -28 -8l-84 -144q-8 -12 8 -28l96 -68v-84l-96 -68q-8 -8 -8 -28l84 -144q12 -8 28 -8l100 44l68 -44l20 -112q0 -16 24 -16h172q4 0 10 6t6 10l16 112
q28 8 80 44l100 -44q28 0 28 8l84 144q8 8 -8 28l-96 68v84zM1576 1450q0 -48 -38 -88t-88 -40t-90 40t-40 90t40 88t90 38t88 -38t38 -90z" />
</svg>
