<?xml version="1.0" standalone="no"?>
<!DOCTYPE svg PUBLIC "-//W3C//DTD SVG 1.1//EN" "http://www.w3.org/Graphics/SVG/1.1/DTD/svg11.dtd" >
<svg xmlns="http://www.w3.org/2000/svg" xmlns:xlink="http://www.w3.org/1999/xlink" version="1.1" viewBox="-10 0 1851 2048">
   <path fill="currentColor"
d="M1543 522l-232 -304l336 -64l64 332zM1291 570l-232 -300l-168 32l236 300zM223 434l-84 16q-68 16 -108 74t-28 130l36 164l416 -80zM875 654l-236 -304l-168 36l236 300zM207 1674v-684h1368v92q88 16 168 64v-328h-1704v856q0 68 50 118t118 50h840q-48 -76 -64 -168
h-776zM1831 1494l-248 -24l-96 -224l-96 224l-244 24l188 160l-60 240l212 -128l212 128l-56 -240z" />
</svg>
