<?xml version="1.0" standalone="no"?>
<!DOCTYPE svg PUBLIC "-//W3C//DTD SVG 1.1//EN" "http://www.w3.org/Graphics/SVG/1.1/DTD/svg11.dtd" >
<svg xmlns="http://www.w3.org/2000/svg" xmlns:xlink="http://www.w3.org/1999/xlink" version="1.1" viewBox="-10 0 1763 2048">
   <path fill="currentColor"
d="M1127 628l-236 -300l168 -32l232 300zM1711 512l-64 -332l-336 64l232 304zM223 460l-84 16q-68 16 -108 74t-28 130l36 164l416 -80zM875 680l-236 -304l-168 36l236 300zM39 844v856q0 68 50 118t118 50h840q-72 -116 -72 -254t70 -256t188 -188t256 -70t254 72v-328
h-1704zM1319 1868l424 -256l-424 -256v512z" />
</svg>
