<?xml version="1.0" standalone="no"?>
<!DOCTYPE svg PUBLIC "-//W3C//DTD SVG 1.1//EN" "http://www.w3.org/Graphics/SVG/1.1/DTD/svg11.dtd" >
<svg xmlns="http://www.w3.org/2000/svg" xmlns:xlink="http://www.w3.org/1999/xlink" version="1.1" viewBox="-10 0 1763 2048">
   <path fill="currentColor"
d="M1127 456l-236 -300l168 -32l232 300zM1711 340l-64 -332l-336 64l232 304zM875 508l-236 -304l-168 36l236 300zM39 676v852q0 72 50 122t118 50h1368q68 0 118 -50t50 -122v-852h-1704zM223 292l-84 16q-68 12 -108 72t-28 128l36 168l416 -84zM807 2040h168v-172h-168
v172zM463 2040h172v-172h-172v172zM1147 2040h172v-172h-172v172z" />
</svg>
