<?xml version="1.0" standalone="no"?>
<!DOCTYPE svg PUBLIC "-//W3C//DTD SVG 1.1//EN" "http://www.w3.org/Graphics/SVG/1.1/DTD/svg11.dtd" >
<svg xmlns="http://www.w3.org/2000/svg" xmlns:xlink="http://www.w3.org/1999/xlink" version="1.1" viewBox="-10 0 1851 2048">
   <path fill="currentColor"
d="M983 1700q16 88 64 168h-840q-68 0 -118 -50t-50 -118v-856h1704v328q-76 -48 -168 -64v-92h-1368v684h776zM1711 512l-64 -332l-336 64l232 304zM1291 596l-232 -300l-168 32l236 300zM223 460l-84 16q-68 16 -108 74t-28 130l36 164l416 -80zM875 680l-236 -304
l-168 36l236 300zM1147 1528v172h684v-172h-684z" />
</svg>
