<?xml version="1.0" standalone="no"?>
<!DOCTYPE svg PUBLIC "-//W3C//DTD SVG 1.1//EN" "http://www.w3.org/Graphics/SVG/1.1/DTD/svg11.dtd" >
<svg xmlns="http://www.w3.org/2000/svg" xmlns:xlink="http://www.w3.org/1999/xlink" version="1.1" viewBox="-10 0 1851 2048">
   <path fill="currentColor"
d="M1127 584l-236 -300l168 -32l232 300zM1711 468l-64 -332l-336 64l232 304zM207 1656v-684h1368v92q88 16 168 64v-328h-1704v856q0 68 50 118t118 50h840q-48 -76 -64 -168h-776zM875 636l-236 -304l-168 36l236 300zM223 416l-84 16q-68 16 -108 74t-28 130l36 164
l416 -80zM1575 1484v-256h-172v256h-256v172h256v256h172v-256h256v-172h-256z" />
</svg>
