<?xml version="1.0" standalone="no"?>
<!DOCTYPE svg PUBLIC "-//W3C//DTD SVG 1.1//EN" "http://www.w3.org/Graphics/SVG/1.1/DTD/svg11.dtd" >
<svg xmlns="http://www.w3.org/2000/svg" xmlns:xlink="http://www.w3.org/1999/xlink" version="1.1" viewBox="-10 0 1763 2048">
   <path fill="currentColor"
d="M1543 376l-232 -304l336 -64l64 332zM1291 424l-232 -300l-168 32l236 300zM875 508l-236 -304l-168 36l236 300zM223 292l-84 16q-68 12 -108 72t-28 128l36 168l416 -84zM1743 676v852q0 72 -50 122t-118 50h-1368q-68 0 -118 -50t-50 -122v-852h1704zM1575 844h-1368
v684h1368v-684zM463 2040h172v-172h-172v172zM1147 2040h172v-172h-172v172zM807 2040h168v-172h-168v172z" />
</svg>
