<?xml version="1.0" standalone="no"?>
<!DOCTYPE svg PUBLIC "-//W3C//DTD SVG 1.1//EN" "http://www.w3.org/Graphics/SVG/1.1/DTD/svg11.dtd" >
<svg xmlns="http://www.w3.org/2000/svg" xmlns:xlink="http://www.w3.org/1999/xlink" version="1.1" viewBox="-10 0 1812 2048">
   <path fill="currentColor"
d="M1036 836h748v752zM1752 504l-68 -332l-332 68l228 300zM916 668l-232 -300l-100 16l288 292zM112 128l-112 112l224 220l-44 12q-68 12 -108 70t-28 126l36 168l432 -84l88 84h-520v856q0 68 50 118t118 50h1376l60 60l108 -108zM1332 588l-228 -304l-172 32l240 300z
" />
</svg>
