<?xml version="1.0" standalone="no"?>
<!DOCTYPE svg PUBLIC "-//W3C//DTD SVG 1.1//EN" "http://www.w3.org/Graphics/SVG/1.1/DTD/svg11.dtd" >
<svg xmlns="http://www.w3.org/2000/svg" xmlns:xlink="http://www.w3.org/1999/xlink" version="1.1" viewBox="-10 0 1851 2048">
   <path fill="currentColor"
d="M1127 628l-236 -300l168 -32l232 300zM1711 512l-64 -332l-336 64l232 304zM207 1016h1208l168 -172h-1544v856q0 68 50 118t118 50h600v-168h-600v-684zM875 680l-236 -304l-168 36l236 300zM223 460l-84 16q-68 16 -108 74t-28 130l36 164l416 -80zM975 1696v172h176
l524 -520l-176 -176zM1815 1140l-112 -112q-12 -12 -30 -12t-30 12l-84 84l176 176l80 -84q16 -12 16 -30t-16 -34z" />
</svg>
