<?xml version="1.0" standalone="no"?>
<!DOCTYPE svg PUBLIC "-//W3C//DTD SVG 1.1//EN" "http://www.w3.org/Graphics/SVG/1.1/DTD/svg11.dtd" >
<svg xmlns="http://www.w3.org/2000/svg" xmlns:xlink="http://www.w3.org/1999/xlink" version="1.1" viewBox="-10 0 1811 2048">
   <path fill="currentColor"
d="M1127 604l-236 -300l168 -32l232 300zM875 656l-236 -304l-168 36l236 300zM1711 488l-64 -332l-336 64l232 304zM1487 1076q140 0 256 72v-328h-1704v856q0 68 50 118t118 50h840q-72 -116 -72 -254t70 -256t188 -188t254 -70zM223 436l-84 16q-68 16 -108 74t-28 130
l36 164l416 -80zM1791 1408l-120 -120l-184 180l-180 -180l-120 120l180 180l-180 184l120 120l180 -184l184 184l120 -120l-184 -184z" />
</svg>
