<?xml version="1.0" standalone="no"?>
<!DOCTYPE svg PUBLIC "-//W3C//DTD SVG 1.1//EN" "http://www.w3.org/Graphics/SVG/1.1/DTD/svg11.dtd" >
<svg xmlns="http://www.w3.org/2000/svg" xmlns:xlink="http://www.w3.org/1999/xlink" version="1.1" viewBox="-10 0 1812 2048">
   <path fill="currentColor"
d="M1588 536l-236 -300l332 -68l68 332zM1792 1816l-108 108l-60 -68h-1376q-68 0 -118 -50t-50 -118v-856h520l-88 -84l-432 84l-36 -168q-12 -68 28 -126t108 -70l44 -12l-224 -220l112 -112zM1452 1688l-684 -684h-520v684h1204zM1784 1584v-752h-748l168 172h412v408z
M1332 584l-228 -304l-172 32l240 300zM916 664l-232 -300l-100 16l288 292z" />
</svg>
