<?xml version="1.0" standalone="no"?>
<!DOCTYPE svg PUBLIC "-//W3C//DTD SVG 1.1//EN" "http://www.w3.org/Graphics/SVG/1.1/DTD/svg11.dtd" >
<svg xmlns="http://www.w3.org/2000/svg" xmlns:xlink="http://www.w3.org/1999/xlink" version="1.1" viewBox="-10 0 1851 2048">
   <path fill="currentColor"
d="M1543 504l-232 -304l336 -64l64 332zM1291 552l-232 -300l-168 32l236 300zM1487 1056q140 0 256 72v-328h-1704v856q0 68 50 118t118 50h840q-72 -116 -72 -254t70 -256t188 -188t254 -70zM875 636l-236 -304l-168 36l236 300zM223 416l-84 16q-68 16 -108 74t-28 130
l36 164l416 -80zM1575 1484v-256h-172v256h-256v172h256v256h172v-256h256v-172h-256z" />
</svg>
