<?xml version="1.0" standalone="no"?>
<!DOCTYPE svg PUBLIC "-//W3C//DTD SVG 1.1//EN" "http://www.w3.org/Graphics/SVG/1.1/DTD/svg11.dtd" >
<svg xmlns="http://www.w3.org/2000/svg" xmlns:xlink="http://www.w3.org/1999/xlink" version="1.1" viewBox="-10 0 1724 2048">
   <path fill="currentColor"
d="M1364 170l172 344h-256l-172 -344h-172l172 344h-256l-172 -344h-168l168 344h-256l-168 -344h-88q-68 0 -118 50t-50 122v1024q0 72 50 122t118 50h1368q68 0 118 -50t50 -122v-1196h-340zM1536 1366h-1368v-984l152 300h1216v684zM768 1706h168v172h-168v-172z
M424 1706h172v172h-172v-172zM1108 1706h172v172h-172v-172z" />
</svg>
