<?xml version="1.0" standalone="no"?>
<!DOCTYPE svg PUBLIC "-//W3C//DTD SVG 1.1//EN" "http://www.w3.org/Graphics/SVG/1.1/DTD/svg11.dtd" >
<svg xmlns="http://www.w3.org/2000/svg" xmlns:xlink="http://www.w3.org/1999/xlink" version="1.1" viewBox="-10 0 1640 2048">
   <path fill="currentColor"
d="M292 722l44 -44q36 -40 90 -38t94 38v4q60 60 160 68q64 8 120 42t96 90q44 72 42 156t-46 152q-52 76 -132 110t-164 16t-148 -78q-68 -72 -80 -172t-76 -164q-36 -36 -36 -90t36 -90zM652 1406q-156 0 -264 -108q-92 -96 -108 -220q-4 -52 -28 -92q-84 112 -84 252
q0 100 48 190t128 150h1104v-84q0 -228 -134 -408t-346 -248q56 92 54 202t-58 198q-52 80 -136 124t-176 44zM1088 686h108q60 0 100 40t40 108v60h108v-84q0 -96 -72 -160t-176 -64h-108q-52 0 -92 -44t-40 -98t40 -90t92 -36v-104q-96 0 -166 68t-70 168t70 168t166 68z
M212 686q8 -12 20 -24l44 -44q8 -8 24 -20l-120 -124q8 -16 6 -36t-18 -38t-44 -18t-46 18t-18 42q-24 4 -42 22t-18 44t16 44t36 20t36 -6zM1396 418q72 -72 72 -168h-108q0 52 -38 90t-90 38v108q116 0 200 84t84 204v208h104v-208q0 -116 -62 -212t-162 -144zM256 1834
h1192q72 0 122 -50t50 -122h-1536q0 72 50 122t122 50z" />
</svg>
