<?xml version="1.0" standalone="no"?>
<!DOCTYPE svg PUBLIC "-//W3C//DTD SVG 1.1//EN" "http://www.w3.org/Graphics/SVG/1.1/DTD/svg11.dtd" >
<svg xmlns="http://www.w3.org/2000/svg" xmlns:xlink="http://www.w3.org/1999/xlink" version="1.1" viewBox="-10 0 1900 2048">
   <path fill="currentColor"
d="M812 1324q0 44 -24 84q-24 -40 -62 -62t-84 -22t-86 22t-60 62q-24 -44 -24 -84q0 -72 50 -122t120 -50t120 50t50 122zM1880 1280v256q0 36 -26 60t-62 24h-84v88q0 68 -50 118t-122 50h-1192q-72 0 -122 -50t-50 -118v-88h-84q-36 0 -62 -24t-26 -60v-256q0 -36 26 -60
t62 -24h84q0 -164 80 -302t218 -218t298 -80h88v-108q-40 -20 -64 -60t-24 -88q0 -68 50 -118t122 -50t122 50t50 118q0 48 -24 88t-64 60v108h88q160 0 298 80t218 218t80 302h84q36 0 62 24t26 60zM1708 1364h-172v-168q0 -116 -56 -214t-154 -156t-214 -58h-344
q-116 0 -214 58t-154 156t-56 214v168h-172v88h172v256h1192v-256h172v-88zM1240 1152q-72 0 -122 50t-50 122q0 40 24 84q24 -40 62 -62t84 -22t86 22t60 62q24 -40 24 -84q0 -72 -50 -122t-118 -50z" />
</svg>
