<?xml version="1.0" standalone="no"?>
<!DOCTYPE svg PUBLIC "-//W3C//DTD SVG 1.1//EN" "http://www.w3.org/Graphics/SVG/1.1/DTD/svg11.dtd" >
<svg xmlns="http://www.w3.org/2000/svg" xmlns:xlink="http://www.w3.org/1999/xlink" version="1.1" viewBox="-10 0 1724 2048">
   <path fill="currentColor"
d="M1704 170v1196q0 72 -50 122t-118 50h-1368q-68 0 -118 -50t-50 -122v-1024q0 -72 50 -122t118 -50h88l168 344h256l-168 -344h168l172 344h256l-172 -344h172l172 344h256l-172 -344h340zM424 1878h172v-172h-172v172zM768 1878h168v-172h-168v172zM1108 1878h172v-172
h-172v172z" />
</svg>
