<?xml version="1.0" standalone="no"?>
<!DOCTYPE svg PUBLIC "-//W3C//DTD SVG 1.1//EN" "http://www.w3.org/Graphics/SVG/1.1/DTD/svg11.dtd" >
<svg xmlns="http://www.w3.org/2000/svg" xmlns:xlink="http://www.w3.org/1999/xlink" version="1.1" viewBox="-10 0 1630 2048">
   <path fill="currentColor"
d="M931 981q5 35 -12 66.5t-45.5 49t-62.5 22.5t-65 -15q-44 -19 -61 -66t-0.5 -94t59.5 -67q29 -19 62 -16.5t60.5 17t46 43t18.5 60.5zM1058 957q-6 -48 -30 -90t-60.5 -71t-80 -45.5t-91.5 -16t-92 20.5q-72 32 -115 101t-39 148q3 68 42.5 126t103 89.5t131.5 25
t124.5 -48.5t85.5 -106.5t21 -132.5zM1331 338q-17 -22 -39 -37.5t-52 -25.5t-50 -14.5t-56 -10.5q-10 -1 -14 -2q-336 -53 -647 2q-35 5 -55.5 9.5t-50 14t-51.5 25.5t-38 39q21 20 49 35t49.5 23t59.5 15.5t54 9.5t59 7q260 34 512 1q4 -1 13 -2q46 -5 71 -9t64 -13.5
t68.5 -26t53.5 -40.5zM1397 1521q-8 27 -14.5 70t-12.5 76t-17 69.5t-33 65t-56 47.5q-99 54 -217 81t-231 25t-230 -21q-52 -10 -93 -21t-87.5 -30.5t-83 -49.5t-59.5 -70q-29 -110 -65 -334l7 -18l20 -10q169 111 374 150t410.5 0t374.5 -150q24 7 27.5 26.5t-5.5 51.5
t-9 42zM1603 422q-31 200 -126 749q-5 26 -18.5 48.5t-36.5 40.5t-41.5 29.5t-46.5 26.5q-289 144 -697 101q-283 -30 -451 -159q-17 -14 -29.5 -30.5t-19.5 -40t-10 -38.5t-7 -45.5t-6 -39.5q-9 -52 -30 -170.5t-32.5 -186.5t-26.5 -167t-25 -182q4 -30 20.5 -55.5
t35.5 -42.5t51 -34t52.5 -25.5t55.5 -21.5q146 -54 358 -73q433 -42 772 57q82 24 143.5 55.5t102.5 83.5q18 23 18.5 58t-6.5 62z" />
</svg>
