<?xml version="1.0" standalone="no"?>
<!DOCTYPE svg PUBLIC "-//W3C//DTD SVG 1.1//EN" "http://www.w3.org/Graphics/SVG/1.1/DTD/svg11.dtd" >
<svg xmlns="http://www.w3.org/2000/svg" xmlns:xlink="http://www.w3.org/1999/xlink" version="1.1" viewBox="-10 0 1848 2048">
   <path fill="currentColor"
d="M1444 1278l-768 -768q124 -68 260 -68t252 68t186 186t70 258v324zM1624 422l-120 -116l-180 176l120 120zM1572 910v172h256v-172h-256zM292 910h-256v172h256v-172zM0 270l472 468q-52 92 -52 216v680h948l84 88h-1032q-72 0 -122 50t-50 118h1376l60 60l108 -108
l-1680 -1684zM1016 98h-168v256h168v-256z" />
</svg>
