<?xml version="1.0" standalone="no"?>
<!DOCTYPE svg PUBLIC "-//W3C//DTD SVG 1.1//EN" "http://www.w3.org/Graphics/SVG/1.1/DTD/svg11.dtd" >
<svg xmlns="http://www.w3.org/2000/svg" xmlns:xlink="http://www.w3.org/1999/xlink" version="1.1" viewBox="-10 0 1724 2048">
   <path fill="currentColor"
d="M724 1660q-100 48 -212 48q-140 0 -258 -70t-186 -188t-68 -254v-428q0 -140 68 -258t186 -186t258 -68l212 392q-156 80 -248 214t-92 290t92 290t248 218zM1192 1616v92h88q32 0 58 24t26 60t-26 60t-58 24h-256q-36 0 -62 -24t-26 -60t26 -60t62 -24v-92
q-144 -16 -262 -82t-184 -166t-66 -216q0 -128 80 -236t216 -170t300 -62h48l-24 -44q-56 -104 -76 -152q-32 -84 -32 -148q0 -68 50 -118t118 -50q144 0 244 100t100 240h-172l52 44q64 60 120 132q72 100 116 200q52 132 52 264q0 116 -66 216t-184 166t-262 82zM1192 340
q0 36 26 62t60 26t60 -26t26 -60t-26 -60t-60 -26t-60 26t-26 58zM1280 1024q0 -72 -50 -122t-122 -50q-140 0 -240 100t-100 244h340q72 0 122 -50t50 -122z" />
</svg>
