<?xml version="1.0" standalone="no"?>
<!DOCTYPE svg PUBLIC "-//W3C//DTD SVG 1.1//EN" "http://www.w3.org/Graphics/SVG/1.1/DTD/svg11.dtd" >
<svg xmlns="http://www.w3.org/2000/svg" xmlns:xlink="http://www.w3.org/1999/xlink" version="1.1" viewBox="-10 0 1812 2048">
   <path fill="currentColor"
d="M1792 1812l-1684 -1684l-108 108l508 512q-88 88 -136 212t-40 256q8 84 24 128q16 68 60 148q68 108 182 182t242 90q144 20 276 -12q140 -32 240 -124l16 -16l312 308zM656 1180q-32 12 -56 -12q-8 -4 -12 -12q-64 -84 -82 -190t18 -206l112 112q0 128 40 236
q8 16 8 28q0 32 -28 44zM1140 1472q-44 40 -92 52q-68 24 -140 0q-60 -20 -108 -68q72 -20 118 -68t62 -108q4 -24 4 -60l200 200q-24 36 -44 52zM1520 1320l-792 -788q64 -108 152 -184q112 -88 216 -112q-64 120 -44 258t116 230q32 28 96 80q56 40 80 60l12 12
q40 40 56 60l24 40q28 44 40 68l12 20q48 120 32 256z" />
</svg>
