<?xml version="1.0" standalone="no"?>
<!DOCTYPE svg PUBLIC "-//W3C//DTD SVG 1.1//EN" "http://www.w3.org/Graphics/SVG/1.1/DTD/svg11.dtd" >
<svg xmlns="http://www.w3.org/2000/svg" xmlns:xlink="http://www.w3.org/1999/xlink" version="1.1" viewBox="-10 0 1724 2048">
   <path fill="currentColor"
d="M852 912q-72 0 -122 50t-50 122t50 122t122 50t122 -50t50 -122t-50 -122t-122 -50zM1364 1084q0 -140 -70 -256t-186 -186t-256 -70t-256 70t-186 186t-70 256t70 256t186 188l84 -144q-76 -48 -122 -126t-46 -166q0 -140 100 -240t240 -100t240 100t100 240
q0 96 -46 174t-122 118l84 144q116 -64 186 -184t70 -260zM852 232q-232 0 -428 114t-310 310t-114 428t116 428t308 304l88 -144q-156 -92 -250 -248t-94 -340t92 -342t250 -250t342 -92t342 92t250 250t92 344t-92 340t-252 246l88 144q192 -108 308 -304t116 -428
t-114 -428t-310 -310t-428 -114z" />
</svg>
