<?xml version="1.0" standalone="no"?>
<!DOCTYPE svg PUBLIC "-//W3C//DTD SVG 1.1//EN" "http://www.w3.org/Graphics/SVG/1.1/DTD/svg11.dtd" >
<svg xmlns="http://www.w3.org/2000/svg" xmlns:xlink="http://www.w3.org/1999/xlink" version="1.1" viewBox="-10 0 1775 2048">
   <path fill="currentColor"
d="M969 994q0 -31 -23 -55.5t-53 -30t-59 9.5q-31 14 -43 48.5t0 68t44 47.5q22 14 47 10.5t45.5 -15.5t32.5 -35t9 -48zM1061 976q10 76 -40.5 139t-126.5 69.5t-136 -46t-64 -128.5q-2 -57 29 -107t83 -73q40 -20 83 -14.5t79 25.5t62 56.5t31 78.5zM1257 530
q-18 18 -39.5 30t-53.5 19t-47 9.5t-54 7.5q-178 23 -370 0q-39 -6 -54 -8.5t-46.5 -9.5t-53.5 -19t-41 -29q15 -22 41.5 -35.5t45.5 -18t54 -10.5q227 -39 466 0q37 5 58 9.5t49.5 18.5t44.5 36zM1305 1382q0 -8 6 -30t3.5 -36.5t-19.5 -19.5q-185 122 -418 122t-418 -122
l-13 6l-6 14q32 185 47 240q17 29 43.5 51.5t59.5 36.5t63 22t67 14q84 15 166 16t167 -18t156 -58q24 -14 40 -35t24 -47t12.5 -50.5t9 -55.5t10.5 -50zM1454 590q11 -59 -9 -86q-50 -63 -178 -100q-244 -72 -556 -42q-154 15 -258 52q-25 10 -39.5 16.5t-38.5 19t-37.5 25
t-25.5 31t-15 38.5q7 61 18 132t19.5 119.5t23.5 134.5t21 124q1 7 4.5 28t6 32.5t7.5 28t14 29t21 22.5q118 90 325 114q297 31 502 -72q21 -12 34 -20t29.5 -21t26.5 -29.5t13 -35.5q53 -298 92 -540zM1755 476v1096q0 90 -44 166t-119.5 120t-165.5 44h-1097
q-90 0 -165.5 -44t-119.5 -120t-44 -166v-1096q0 -90 44 -166t119.5 -120t165.5 -44h1097q90 0 165.5 44t119.5 120t44 166z" />
</svg>
