<?xml version="1.0" standalone="no"?>
<!DOCTYPE svg PUBLIC "-//W3C//DTD SVG 1.1//EN" "http://www.w3.org/Graphics/SVG/1.1/DTD/svg11.dtd" >
<svg xmlns="http://www.w3.org/2000/svg" xmlns:xlink="http://www.w3.org/1999/xlink" version="1.1" viewBox="-10 0 1724 2048">
   <path fill="currentColor"
d="M1328 1228q36 -80 36 -188q0 -140 -70 -256t-186 -186t-256 -70q-84 0 -188 36l136 136h52q140 0 240 100t100 240q0 36 -8 52zM852 356q184 0 342 92t250 250t92 342q0 160 -88 316l128 128q128 -212 128 -444t-114 -428t-310 -310t-428 -114q-252 0 -444 128l128 128
q136 -88 316 -88zM108 228l-108 112l176 180q-176 232 -176 520q0 232 116 428t308 304l88 -144q-156 -92 -250 -248t-94 -340q0 -216 128 -400l128 128q-84 128 -84 270t70 258t186 188l84 -144q-76 -48 -122 -126t-46 -166q0 -52 32 -152l136 136v16q0 72 50 122t122 50
h16l640 640l112 -112z" />
</svg>
