<?xml version="1.0" standalone="no"?>
<!DOCTYPE svg PUBLIC "-//W3C//DTD SVG 1.1//EN" "http://www.w3.org/Graphics/SVG/1.1/DTD/svg11.dtd" >
<svg xmlns="http://www.w3.org/2000/svg" xmlns:xlink="http://www.w3.org/1999/xlink" version="1.1" viewBox="-10 0 1812 2048">
   <path fill="currentColor"
d="M928 492q108 0 182 74t74 178t-68 176l-360 -360q72 -68 172 -68zM928 320q116 0 214 58t156 156t58 214q0 168 -120 292l124 120q76 -80 120 -186t44 -226q0 -164 -80 -300t-216 -216t-300 -80q-120 0 -226 44t-186 120l120 124q124 -120 292 -120zM1792 1812l-108 108
l-120 -120q-48 56 -124 56h-1024q-72 0 -122 -50t-50 -118q0 -52 28 -88l152 -272q104 88 234 138t274 50t288 -60l-136 -132q-76 20 -156 20q-164 0 -300 -80t-216 -216t-80 -300q0 -80 20 -156l-352 -356l108 -108zM936 1176l-436 -436v8q0 116 58 214t156 156t214 58h8z
" />
</svg>
