<?xml version="1.0" standalone="no"?>
<!DOCTYPE svg PUBLIC "-//W3C//DTD SVG 1.1//EN" "http://www.w3.org/Graphics/SVG/1.1/DTD/svg11.dtd" >
<svg xmlns="http://www.w3.org/2000/svg" xmlns:xlink="http://www.w3.org/1999/xlink" version="1.1" viewBox="-10 0 1724 2048">
   <path fill="currentColor"
d="M1536 172h-1368q-68 0 -118 50t-50 118v1536l340 -340h1196q68 0 118 -50t50 -122v-1024q0 -68 -50 -118t-118 -50zM936 1196h-168v-172h168v172zM1092 768q-28 36 -96 68q-32 20 -40 44q-12 12 -16 24t-4 36h-168q0 -56 24 -96q32 -28 96 -68q32 -12 50 -44t18 -62
t-26 -56t-70 -26q-24 0 -60 16q-24 16 -24 52h-172q16 -92 76 -144q56 -44 180 -44t190 54t66 142q12 52 -24 104z" />
</svg>
