<?xml version="1.0" standalone="no"?>
<!DOCTYPE svg PUBLIC "-//W3C//DTD SVG 1.1//EN" "http://www.w3.org/Graphics/SVG/1.1/DTD/svg11.dtd" >
<svg xmlns="http://www.w3.org/2000/svg" xmlns:xlink="http://www.w3.org/1999/xlink" version="1.1" viewBox="-10 0 1900 2048">
   <path fill="currentColor"
d="M1536 256q-112 0 -188 32q-144 64 -212 232q-32 -8 -112 -8h-168q-80 0 -112 8q-68 -168 -212 -232q-76 -32 -188 -32q-60 0 -128 36q-92 52 -144 152q-72 128 -72 324q0 204 124 316q84 76 220 104v92q0 140 68 256t186 186t258 70h168q140 0 258 -70t186 -186t68 -256
v-92q136 -28 220 -104q124 -112 124 -316q0 -196 -72 -324q-52 -100 -144 -152q-68 -36 -128 -36zM344 1024v36q-84 -24 -116 -92q-24 -56 -6 -122t62 -102q-16 -20 -68 -4q-24 4 -34 4t-10 -12q0 -24 80 -68q52 -24 100 -40q-12 -24 -76 -36q-28 -4 -40 -8t-12 -16
q0 -24 64 -44t124 -8q80 16 136 60q-96 88 -148 196q-56 120 -56 256zM640 1280q-80 0 -112 -64t0 -128t112 -64t112 64t0 128t-112 64zM984 1536h-88q-44 0 -70 -36t-6 -76l60 -256q12 -40 68 -60q44 0 68 60l60 256q8 40 -20 76t-72 36zM1240 1280q-80 0 -112 -64t0 -128
t112 -64t112 64t0 128t-112 64zM1596 732q44 36 62 104t-6 124q-32 64 -116 88q8 -136 -48 -264t-156 -212q56 -44 136 -60q64 -12 126 6t62 46q0 12 -14 16t-42 8q-60 8 -72 28l40 20q140 64 140 96q0 12 -10 12t-30 -8q-52 -16 -72 -4z" />
</svg>
