<?xml version="1.0" standalone="no"?>
<!DOCTYPE svg PUBLIC "-//W3C//DTD SVG 1.1//EN" "http://www.w3.org/Graphics/SVG/1.1/DTD/svg11.dtd" >
<svg xmlns="http://www.w3.org/2000/svg" xmlns:xlink="http://www.w3.org/1999/xlink" version="1.1" viewBox="-10 0 1724 2048">
   <path fill="currentColor"
d="M852 256q-232 0 -428 92t-310 250t-114 342q0 136 64 260t172 208q0 56 -40 136q-64 120 -196 248q300 -12 552 -212q156 40 300 40q232 0 428 -92t310 -248t114 -340t-114 -342t-310 -250t-428 -92zM852 1452q-184 0 -342 -70t-250 -188t-92 -256t92 -256t250 -186
t342 -68t342 68t250 186t92 256t-92 256t-250 188t-342 70zM868 556q-108 0 -180 40q-80 56 -68 148h172q0 -40 24 -52q36 -16 60 -16q44 0 70 24t26 54t-16 66q-36 32 -52 40q-64 40 -96 72q-24 16 -32 38t-8 54h168q0 -16 8 -36v-24q8 -12 28 -28l16 -16q52 -20 96 -76
q32 -44 32 -100q0 -92 -68 -148q-56 -40 -180 -40zM768 1108v172h168v-172h-168z" />
</svg>
