<?xml version="1.0" standalone="no"?>
<!DOCTYPE svg PUBLIC "-//W3C//DTD SVG 1.1//EN" "http://www.w3.org/Graphics/SVG/1.1/DTD/svg11.dtd" >
<svg xmlns="http://www.w3.org/2000/svg" xmlns:xlink="http://www.w3.org/1999/xlink" version="1.1" viewBox="-10 0 1112 2048">
   <path fill="currentColor"
d="M1001 1591l91 271q-26 40 -127 75.5t-202 36.5q-119 2 -218 -29.5t-163 -84t-108 -121t-63 -137t-19 -135.5v-622h-192v-246q60 -21 110.5 -53t86.5 -67.5t65.5 -78t48 -82t32 -83.5t20 -78.5t10.5 -70.5q1 -13 14 -13h279v484h381v288h-382v592q0 27 4 51t16.5 50.5
t32 45.5t53 30.5t77.5 10.5q37 0 81.5 -10.5t71.5 -23.5z" />
</svg>
