<?xml version="1.0" standalone="no"?>
<!DOCTYPE svg PUBLIC "-//W3C//DTD SVG 1.1//EN" "http://www.w3.org/Graphics/SVG/1.1/DTD/svg11.dtd" >
<svg xmlns="http://www.w3.org/2000/svg" xmlns:xlink="http://www.w3.org/1999/xlink" version="1.1" viewBox="-10 0 1724 2048">
   <path fill="currentColor"
d="M1536 172h-1368q-68 0 -118 50t-50 118v1536l340 -340h1196q68 0 118 -50t50 -122v-1024q0 -68 -50 -118t-118 -50zM1536 1364h-1264l-104 104v-1128h1368v1024zM868 468q-108 0 -180 44q-80 56 -68 144h172q0 -36 24 -52q36 -16 60 -16q44 0 70 26t26 56t-16 62
q-36 36 -52 44q-64 40 -96 68q-24 20 -32 40t-8 56h168q0 -16 8 -36v-24q8 -12 28 -28l16 -16q52 -20 96 -76q32 -48 32 -104q0 -88 -68 -144q-56 -44 -180 -44zM768 1024v172h168v-172h-168z" />
</svg>
