<?xml version="1.0" standalone="no"?>
<!DOCTYPE svg PUBLIC "-//W3C//DTD SVG 1.1//EN" "http://www.w3.org/Graphics/SVG/1.1/DTD/svg11.dtd" >
<svg xmlns="http://www.w3.org/2000/svg" xmlns:xlink="http://www.w3.org/1999/xlink" version="1.1" viewBox="-10 0 1900 2048">
   <path fill="currentColor"
d="M940 1452q-72 0 -122 -50t-50 -122t50 -122t122 -50t122 50t50 122t-50 122t-122 50zM1536 1196h-168q0 116 -58 214t-156 154t-214 56t-214 -56t-156 -154t-58 -214h-168q0 176 94 320t246 216v232h512v-232q152 -72 246 -216t94 -320zM1880 664q0 48 -48 74t-88 -6
q-8 -4 -20 -12l-16 -12l-172 400h-168l-128 -532q-300 -32 -600 0l-128 532h-168l-172 -400l-16 12q-12 8 -20 12q-40 32 -88 6t-48 -74v-324l4 -8q4 -16 14 -34t36 -40t70 -46t108 -44q72 -24 164 -44q104 -16 236 -28q140 -12 308 -12t308 12q132 12 236 28q92 20 164 44
q64 20 108 44t70 46t36 40t14 34l4 8v324zM504 596q-124 28 -216 60l128 304zM1592 656q-92 -32 -216 -60l88 364z" />
</svg>
