<?xml version="1.0" standalone="no"?>
<!DOCTYPE svg PUBLIC "-//W3C//DTD SVG 1.1//EN" "http://www.w3.org/Graphics/SVG/1.1/DTD/svg11.dtd" >
<svg xmlns="http://www.w3.org/2000/svg" xmlns:xlink="http://www.w3.org/1999/xlink" version="1.1" viewBox="-10 0 1728 2048">
   <path fill="currentColor"
d="M980 854q20 0 32 12t12 28v128h-512v-128q0 -16 12 -28t32 -12h424zM1324 938q56 0 128 16v-188h-172v176q16 -4 44 -4zM256 1534v-768h-172v940h728q-32 -76 -40 -172h-516zM1536 682h-1536v-512h1536v512zM1364 342h-1192v168h1192v-168zM1708 1494q0 160 -112 272
t-272 112t-272 -112t-112 -272t112 -272t272 -112t272 112t112 272zM1452 1714l-348 -348q-36 56 -36 128q0 104 74 180t182 76q72 0 128 -36zM1580 1494q0 -108 -76 -182t-180 -74q-72 0 -128 36l348 348q36 -56 36 -128z" />
</svg>
