<?xml version="1.0" standalone="no"?>
<!DOCTYPE svg PUBLIC "-//W3C//DTD SVG 1.1//EN" "http://www.w3.org/Graphics/SVG/1.1/DTD/svg11.dtd" >
<svg xmlns="http://www.w3.org/2000/svg" xmlns:xlink="http://www.w3.org/1999/xlink" version="1.1" viewBox="-10 0 1556 2048">
   <path fill="currentColor"
d="M512 1108v-168h172v168h-172zM684 1280v-172h168v172h-168zM684 940v-172h168v172h-168zM512 768v-172h172v172h-172zM512 1452v-172h172v172h-172zM0 428v1192q0 72 50 122t122 50h1192q72 0 122 -50t50 -122v-1192q0 -72 -50 -122t-122 -50h-1192q-72 0 -122 50
t-50 122zM1280 1280v172h-172v-172h172zM1280 940v168h-172v-168h172zM1280 596v172h-172v-172h172zM684 428v168h168v-168h172v168h-172v172h172v172h-172v168h172v172h-172v172h172v168h-172v-168h-168v168h-512v-1192h512z" />
</svg>
