<?xml version="1.0" standalone="no"?>
<!DOCTYPE svg PUBLIC "-//W3C//DTD SVG 1.1//EN" "http://www.w3.org/Graphics/SVG/1.1/DTD/svg11.dtd" >
<svg xmlns="http://www.w3.org/2000/svg" xmlns:xlink="http://www.w3.org/1999/xlink" version="1.1" viewBox="-11 0 1899 2048">
   <path fill="currentColor"
d="M1458 1048l124 540l-472 -288l-476 288l124 -540l-416 -364l552 -48l216 -508l216 508l552 48zM86 1104q24 0 44 -12l276 -180l-136 -116l-232 152q-28 20 -36 54t12 66q28 36 72 36zM14 1884q24 36 72 36q24 0 44 -12l352 -232l28 -116l28 -124l-500 328q-28 20 -36 54
t12 66zM38 1356q-28 20 -36 54t12 66q24 36 72 36q24 0 44 -12l464 -304l24 -100l-80 -72z" />
</svg>
