<?xml version="1.0" standalone="no"?>
<!DOCTYPE svg PUBLIC "-//W3C//DTD SVG 1.1//EN" "http://www.w3.org/Graphics/SVG/1.1/DTD/svg11.dtd" >
<svg xmlns="http://www.w3.org/2000/svg" xmlns:xlink="http://www.w3.org/1999/xlink" version="1.1" viewBox="-10 0 1728 2048">
   <path fill="currentColor"
d="M1324 938q56 0 128 16v-356h-1368v1108h728q-44 -104 -44 -212q0 -152 74 -280t202 -202t280 -74zM512 1022v-128q0 -16 12 -28t32 -12h424q20 0 32 12t12 28v128h-512zM1536 510h-1536v-340h1536v340zM1324 1110q-160 0 -272 112t-112 272t112 272t272 112t272 -112
t112 -272t-112 -272t-272 -112zM1324 1750q-108 0 -182 -76t-74 -180q0 -72 36 -128l348 348q-56 36 -128 36zM1544 1622l-348 -348q56 -36 128 -36q104 0 180 74t76 182q0 72 -36 128z" />
</svg>
