<?xml version="1.0" standalone="no"?>
<!DOCTYPE svg PUBLIC "-//W3C//DTD SVG 1.1//EN" "http://www.w3.org/Graphics/SVG/1.1/DTD/svg11.dtd" >
<svg xmlns="http://www.w3.org/2000/svg" xmlns:xlink="http://www.w3.org/1999/xlink" version="1.1" viewBox="-10 0 1724 2048">
   <path fill="currentColor"
d="M1704 1942v-172q-100 4 -176 -12q-92 -20 -164 -72q-112 80 -256 80t-256 -80q-112 80 -256 80t-256 -80q-72 52 -164 72q-76 16 -176 12v172q212 8 340 -64q116 64 254 64t258 -64q120 64 258 64t254 -64q128 72 340 64zM1576 998v-172q-112 0 -214 -58t-154 -158
l-76 -132q-36 -56 -104 -76l-476 -88l-296 208l96 140l240 -164l172 28l-184 124q-40 28 -58 70t-10 86l44 264q-156 -60 -276 -68q-184 -20 -196 104q16 120 132 240q68 68 232 188l68 48q88 32 180 -4t156 -112q56 72 140 104t174 18t154 -74q-64 -60 -128 -104v-328
l-324 -256l192 -128q76 140 216 222t300 78zM1024 1174v124q0 -4 -176 -100q-16 -8 -12 -4l-92 -48l-36 -224zM1448 278q0 68 -50 118t-120 50t-120 -50t-50 -120t50 -120t120 -50t120 50t50 122z" />
</svg>
