<?xml version="1.0" standalone="no"?>
<!DOCTYPE svg PUBLIC "-//W3C//DTD SVG 1.1//EN" "http://www.w3.org/Graphics/SVG/1.1/DTD/svg11.dtd" >
<svg xmlns="http://www.w3.org/2000/svg" xmlns:xlink="http://www.w3.org/1999/xlink" version="1.1" viewBox="-10 0 1720 2048">
   <path fill="currentColor"
d="M1236 384l-84 -92l204 -208h180zM1616 1964q-136 0 -256 -64q-116 64 -254 64t-258 -64q-116 64 -254 64t-254 -64q-128 72 -340 64v-172q100 4 176 -12q92 -20 164 -72q112 80 254 80t254 -80q116 80 258 80t254 -80q72 52 164 72q76 16 176 12v172h-84zM1564 1048
q-100 -40 -228 -12q-76 16 -228 72l-80 32l-144 -160h-240v-296q160 12 292 -28q152 -44 248 -148l-120 -120q-56 60 -136 92t-160 32h-256q-72 0 -124 50t-48 122v124q-4 140 0 212q8 116 40 164l132 252q-76 52 -128 100q64 64 152 78t172 -18t140 -104q64 76 156 110
t180 6q116 -80 204 -152q144 -124 200 -220q68 -124 -24 -188zM804 1252q-104 56 -140 80l-72 -172l212 -8l60 64zM512 84q-72 0 -122 50t-50 122t50 122t120 50t120 -50t50 -122t-50 -122t-118 -50z" />
</svg>
