<?xml version="1.0" standalone="no"?>
<!DOCTYPE svg PUBLIC "-//W3C//DTD SVG 1.1//EN" "http://www.w3.org/Graphics/SVG/1.1/DTD/svg11.dtd" >
<svg xmlns="http://www.w3.org/2000/svg" xmlns:xlink="http://www.w3.org/1999/xlink" version="1.1" viewBox="-10 0 1684 2048">
   <path fill="currentColor"
d="M1536 214h-1536v512h1536v-512zM1364 554h-1192v-168h1192v168zM980 898q20 0 32 12t12 28v128h-512v-128q0 -16 12 -28t32 -12h424zM1280 1074v-264h172v264q-52 -8 -86 -8t-86 8zM852 1578q0 88 32 172h-800v-940h172v768h596zM1664 1430l-404 404l-236 -256l100 -96
l136 136l304 -308z" />
</svg>
