<?xml version="1.0" standalone="no"?>
<!DOCTYPE svg PUBLIC "-//W3C//DTD SVG 1.1//EN" "http://www.w3.org/Graphics/SVG/1.1/DTD/svg11.dtd" >
<svg xmlns="http://www.w3.org/2000/svg" xmlns:xlink="http://www.w3.org/1999/xlink" version="1.1" viewBox="-10 0 1724 2048">
   <path fill="currentColor"
d="M1064 1024q0 -88 -62 -150t-150 -62t-150 62t-62 150q0 64 32 114t88 78l-96 92q-68 -44 -110 -120t-42 -164q0 -140 100 -240t240 -100t240 100t100 240q0 88 -42 164t-110 120l-96 -92q56 -28 88 -78t32 -114zM852 172q-232 0 -428 114t-310 310t-114 428q0 192 80 362
t220 290l92 -92q-124 -100 -194 -248t-70 -312q0 -196 96 -364t264 -264t364 -96t364 96t264 264t96 364q0 164 -70 312t-194 248l92 92q140 -120 220 -290t80 -362q0 -232 -114 -428t-310 -310t-428 -114zM1448 1024q0 -164 -80 -300t-216 -216t-300 -80t-300 80t-216 216
t-80 300q0 140 60 262t168 206l92 -88q-92 -68 -142 -166t-50 -214q0 -128 62 -236t170 -170t236 -62t236 62t170 170t62 236q0 116 -50 214t-142 166l92 88q108 -84 168 -206t60 -262zM340 1876h1024l-512 -512z" />
</svg>
