<?xml version="1.0" standalone="no"?>
<!DOCTYPE svg PUBLIC "-//W3C//DTD SVG 1.1//EN" "http://www.w3.org/Graphics/SVG/1.1/DTD/svg11.dtd" >
<svg xmlns="http://www.w3.org/2000/svg" xmlns:xlink="http://www.w3.org/1999/xlink" version="1.1" viewBox="-11 0 1899 2048">
   <path fill="currentColor"
d="M1878 684l-552 -48l-216 -508l-216 508l-552 48l416 364l-124 540l476 -288l472 288l-124 -540zM1290 1088l36 144l-216 -128l-220 128l60 -244l-192 -168l252 -20l100 -232l96 232l252 20l-192 168zM14 1068q-20 -32 -12 -66t36 -54l232 -152l136 116l-276 180
q-20 12 -44 12q-44 0 -72 -36zM38 1764l500 -328l-28 124l-28 116l-352 232q-20 12 -44 12q-48 0 -72 -36q-20 -32 -12 -66t36 -54zM538 1024l80 72l-24 100l-464 304q-20 12 -44 12q-48 0 -72 -36q-20 -32 -12 -66t36 -54z" />
</svg>
