<?xml version="1.0" standalone="no"?>
<!DOCTYPE svg PUBLIC "-//W3C//DTD SVG 1.1//EN" "http://www.w3.org/Graphics/SVG/1.1/DTD/svg11.dtd" >
<svg xmlns="http://www.w3.org/2000/svg" xmlns:xlink="http://www.w3.org/1999/xlink" version="1.1" viewBox="-10 0 1728 2048">
   <path fill="currentColor"
d="M1452 838v-196h-1368v1108h600v-160l716 -716q20 -20 52 -36zM1024 1066h-512v-128q0 -16 12 -28t32 -12h424q20 0 32 12t12 28v128zM1536 554h-1536v-340h1536v340zM1692 1170l-80 84l-176 -176l84 -84q12 -12 30 -12t30 12l112 112q16 16 16 34t-16 30zM1376 1138
l176 176l-524 520h-176v-172z" />
</svg>
