<?xml version="1.0" standalone="no"?>
<!DOCTYPE svg PUBLIC "-//W3C//DTD SVG 1.1//EN" "http://www.w3.org/Graphics/SVG/1.1/DTD/svg11.dtd" >
<svg xmlns="http://www.w3.org/2000/svg" xmlns:xlink="http://www.w3.org/1999/xlink" version="1.1" viewBox="-10 0 1728 2048">
   <path fill="currentColor"
d="M1280 994v-184h172v28q-32 16 -52 36zM556 898q-20 0 -32 12t-12 28v128h512v-128q0 -16 -12 -28t-32 -12h-424zM256 810h-172v940h600v-160l8 -12h-436v-768zM1536 726h-1536v-512h1536v512zM1364 386h-1192v168h1192v-168zM852 1662v172h176l524 -520l-176 -176z
M1692 1106l-112 -112q-12 -12 -30 -12t-30 12l-84 84l176 176l80 -84q16 -12 16 -30t-16 -34z" />
</svg>
