<?xml version="1.0" standalone="no"?>
<!DOCTYPE svg PUBLIC "-//W3C//DTD SVG 1.1//EN" "http://www.w3.org/Graphics/SVG/1.1/DTD/svg11.dtd" >
<svg xmlns="http://www.w3.org/2000/svg" xmlns:xlink="http://www.w3.org/1999/xlink" version="1.1" viewBox="-10 0 1640 2048">
   <path fill="currentColor"
d="M1152 1290v-436h300v-256h-1368v1108h772q-4 -12 -4 -44q0 -136 86 -240t214 -132zM512 1022v-128q0 -16 12 -28t32 -12h424q20 0 32 12t12 28v128h-512zM1536 510h-1536v-340h1536v340zM1620 1022v172h-168v468q0 88 -64 152t-152 64t-150 -64t-62 -152t62 -150t150 -62
q48 0 88 16v-444h296z" />
</svg>
