<?xml version="1.0" standalone="no"?>
<!DOCTYPE svg PUBLIC "-//W3C//DTD SVG 1.1//EN" "http://www.w3.org/Graphics/SVG/1.1/DTD/svg11.dtd" >
<svg xmlns="http://www.w3.org/2000/svg" xmlns:xlink="http://www.w3.org/1999/xlink" version="1.1" viewBox="-10 0 1728 2048">
   <path fill="currentColor"
d="M852 1620q0 88 32 172h-800v-940h172v768h596zM1364 1108q36 0 88 8v-264h-172v264q52 -8 84 -8zM556 940q-20 0 -32 12t-12 28v128h512v-128q0 -16 -12 -28t-32 -12h-424zM1536 768h-1536v-512h1536v512zM1364 428h-1192v168h1192v-168zM1024 1536v172h684v-172h-684z
" />
</svg>
