<?xml version="1.0" standalone="no"?>
<!DOCTYPE svg PUBLIC "-//W3C//DTD SVG 1.1//EN" "http://www.w3.org/Graphics/SVG/1.1/DTD/svg11.dtd" >
<svg xmlns="http://www.w3.org/2000/svg" xmlns:xlink="http://www.w3.org/1999/xlink" version="1.1" viewBox="-10 0 1728 2048">
   <path fill="currentColor"
d="M980 898q24 0 36 16q-44 72 -56 152h-448v-128q0 -16 12 -28t32 -12h424zM852 1578h-596v-768h-172v940h772q-4 -8 -4 -24v-148zM1536 726h-1536v-512h1536v512zM1364 386h-1192v168h1192v-168zM1604 1322h-368v-212q0 -48 38 -80t92 -32t90 32t36 80v44h112v-44
q0 -88 -74 -150t-166 -62t-164 62t-72 150v212q-40 0 -72 32t-32 72v300q0 44 32 76t72 32h468q44 0 78 -30t34 -70v-300q0 -44 -32 -78t-72 -34z" />
</svg>
