<?xml version="1.0" standalone="no"?>
<!DOCTYPE svg PUBLIC "-//W3C//DTD SVG 1.1//EN" "http://www.w3.org/Graphics/SVG/1.1/DTD/svg11.dtd" >
<svg xmlns="http://www.w3.org/2000/svg" xmlns:xlink="http://www.w3.org/1999/xlink" version="1.1" viewBox="-10 0 1807 2048">
   <path fill="currentColor"
d="M1536 468h-1536v-340h1536v340zM768 1492q0 88 24 172h-708v-1108h1368v348q-48 -8 -88 -8q-160 0 -298 80t-218 218t-80 298zM1024 980v-128q0 -16 -12 -28t-32 -12h-424q-20 0 -32 12t-12 28v128h512zM1776 1612q4 0 4 6t-4 10l-88 148q-8 8 -24 8l-104 -36l-68 44
l-16 112q0 4 -6 10t-10 6h-172q-8 0 -24 -16l-20 -112q-36 -12 -68 -44l-100 44q-16 0 -28 -8l-84 -144q-8 -12 8 -28l96 -68v-84l-96 -68q-8 -8 -8 -28l84 -144q12 -8 28 -8l100 44l68 -44l20 -112q0 -16 24 -16h172q4 0 10 6t6 10l16 112q28 8 80 44l100 -44q28 0 28 8
l84 144q8 8 -8 28l-96 68v84zM1492 1492q0 -48 -38 -88t-88 -40t-90 40t-40 90t40 88t90 38t88 -38t38 -90z" />
</svg>
