<?xml version="1.0" standalone="no"?>
<!DOCTYPE svg PUBLIC "-//W3C//DTD SVG 1.1//EN" "http://www.w3.org/Graphics/SVG/1.1/DTD/svg11.dtd" >
<svg xmlns="http://www.w3.org/2000/svg" xmlns:xlink="http://www.w3.org/1999/xlink" version="1.1" viewBox="-10 0 1640 2048">
   <path fill="currentColor"
d="M1536 170h-1536v512h1536v-512zM1364 510h-1192v-168h1192v168zM1280 854v-88h172v88h-172zM980 854q20 0 32 12t12 28v128h-512v-128q0 -16 12 -28t32 -12h424zM876 1534q-24 64 -24 128q0 32 4 44h-772v-940h172v768h620zM1620 1022v172h-168v468q0 88 -64 152t-152 64
t-150 -64t-62 -152t62 -150t150 -62q48 0 88 16v-444h296z" />
</svg>
