<?xml version="1.0" standalone="no"?>
<!DOCTYPE svg PUBLIC "-//W3C//DTD SVG 1.1//EN" "http://www.w3.org/Graphics/SVG/1.1/DTD/svg11.dtd" >
<svg xmlns="http://www.w3.org/2000/svg" xmlns:xlink="http://www.w3.org/1999/xlink" version="1.1" viewBox="-10 0 1812 2048">
   <path fill="currentColor"
d="M1684 1920l-716 -716l-52 60l-240 -240l60 -60l-736 -724l112 -112l1680 1684zM504 1180q-108 0 -182 72t-74 184q0 76 -60 124q-52 44 -108 44q56 80 150 126t190 46q140 0 240 -100t100 -240q0 -112 -72 -184t-184 -72zM1676 496q24 -24 24 -58t-24 -62l-112 -112
q-28 -24 -62 -24t-58 24l-496 488l240 240z" />
</svg>
