<?xml version="1.0" standalone="no"?>
<!DOCTYPE svg PUBLIC "-//W3C//DTD SVG 1.1//EN" "http://www.w3.org/Graphics/SVG/1.1/DTD/svg11.dtd" >
<svg xmlns="http://www.w3.org/2000/svg" xmlns:xlink="http://www.w3.org/1999/xlink" version="1.1" viewBox="-10 0 1900 2048">
   <path fill="currentColor"
d="M1196 1112q0 108 -74 182t-182 74t-182 -74t-74 -180t74 -182t182 -76t182 76t74 180zM684 168v84q0 72 50 122t122 50v348q44 -8 84 -8t84 8v-348q72 0 122 -50t50 -122v-84h-512zM256 944q-104 0 -180 74t-76 180t76 182t182 76t180 -76t74 -182t-74 -180t-182 -74z
M1624 944q-108 0 -182 74t-74 180t74 182t180 76t182 -76t76 -182t-76 -180t-180 -74zM1624 1540q-88 0 -164 -32q-68 32 -136 32t-130 -30t-102 -82q-68 28 -152 28t-152 -28q-40 52 -102 82t-130 30t-136 -32q-76 32 -164 32q-28 0 -68 -8q68 84 164 132t204 48
q168 0 300 -108v192q0 36 24 60t60 24t60 -24t24 -60v-192q132 108 300 108q108 0 204 -48t164 -132q-40 8 -68 8z" />
</svg>
