<?xml version="1.0" standalone="no"?>
<!DOCTYPE svg PUBLIC "-//W3C//DTD SVG 1.1//EN" "http://www.w3.org/Graphics/SVG/1.1/DTD/svg11.dtd" >
<svg xmlns="http://www.w3.org/2000/svg" xmlns:xlink="http://www.w3.org/1999/xlink" version="1.1" viewBox="-10 0 1612 2048">
   <path fill="currentColor"
d="M1592 1462q-46 144 -141 286q-146 224 -293 224q-54 0 -160 -38q-96 -36 -173 -36q-70 0 -162 38q-95 38 -151 38q-174 0 -344 -296q-168 -298 -168 -574q0 -261 129 -428q129 -164 325 -164q80 0 202 34q117 34 158 34q50 0 163 -38q117 -40 198 -40q134 0 243 76
q58 39 119 114q-91 76 -130 134q-74 108 -74 236q0 145 78 256q79 112 181 144zM1162 122q0 70 -33 154q-35 88 -106 158q-60 61 -124 82q-38 12 -118 20q3 -170 89 -294q85 -122 285 -168q1 4 3 12.5t3 11.5q0 4 0.5 12t0.5 12z" />
</svg>
