<?xml version="1.0" standalone="no"?>
<!DOCTYPE svg PUBLIC "-//W3C//DTD SVG 1.1//EN" "http://www.w3.org/Graphics/SVG/1.1/DTD/svg11.dtd" >
<svg xmlns="http://www.w3.org/2000/svg" xmlns:xlink="http://www.w3.org/1999/xlink" version="1.1" viewBox="-10 0 1812 2048">
   <path fill="currentColor"
d="M1008 1152h-356q-12 -92 -12 -172t12 -172h400q12 100 12 172q0 60 -8 124q80 -64 180 -96v-28q0 -72 -12 -172h288q24 92 24 172v16q84 20 164 68q4 -24 4 -84q0 -232 -114 -428t-310 -310t-428 -114t-428 114t-310 310t-114 428t114 428t310 310t428 114q60 0 84 -4
q-52 -88 -72 -188l-12 20q-112 -164 -164 -340h208q36 -92 112 -168zM1444 640h-252q-44 -164 -120 -304q120 40 214 118t158 186zM852 300q112 164 164 340h-328q52 -176 164 -340zM192 1152q-24 -92 -24 -172t24 -172h288q-12 100 -12 172t12 172h-288zM260 1320h252
q48 172 120 304q-120 -40 -214 -118t-158 -186zM512 640h-252q64 -108 158 -186t214 -118q-72 132 -120 304zM1408 1152q-160 0 -272 112t-112 272t112 272t272 112t272 -112t112 -272t-112 -272t-272 -112zM1408 1792q-108 0 -182 -76t-74 -180q0 -72 36 -128l348 348
q-56 36 -128 36zM1628 1664l-348 -348q56 -36 128 -36q104 0 180 74t76 182q0 72 -36 128z" />
</svg>
