<?xml version="1.0" standalone="no"?>
<!DOCTYPE svg PUBLIC "-//W3C//DTD SVG 1.1//EN" "http://www.w3.org/Graphics/SVG/1.1/DTD/svg11.dtd" >
<svg xmlns="http://www.w3.org/2000/svg" xmlns:xlink="http://www.w3.org/1999/xlink" version="1.1" viewBox="-10 0 1472 2048">
   <path fill="currentColor"
d="M1348 1364v-128q0 -88 -72 -150t-164 -62t-166 62t-74 150v128q-40 0 -72 32t-32 72v300q0 44 32 76t72 32h468q44 0 78 -30t34 -70v-300q0 -44 -32 -78t-72 -34zM1240 1364h-256v-128q0 -48 36 -78t90 -30t92 30t38 78v128zM620 1876h-504q-48 0 -82 -32t-34 -80v-1308
q0 -48 34 -82t82 -34h140v-168h512v168h144q48 0 80 34t32 82v408q-136 28 -230 134t-94 238v20q-44 40 -72 96t-28 116v300q0 56 20 108z" />
</svg>
