<?xml version="1.0" standalone="no"?>
<!DOCTYPE svg PUBLIC "-//W3C//DTD SVG 1.1//EN" "http://www.w3.org/Graphics/SVG/1.1/DTD/svg11.dtd" >
<svg xmlns="http://www.w3.org/2000/svg" xmlns:xlink="http://www.w3.org/1999/xlink" version="1.1" viewBox="-10 0 1812 2048">
   <path fill="currentColor"
d="M1236 956q0 -48 -12 -144v-4h288q12 48 16 88q96 8 176 40q-12 -220 -128 -406t-308 -294t-420 -108t-424 114t-310 310t-114 428t114 428t310 310t428 114q108 0 212 -28q-104 -128 -124 -296q-44 84 -88 152q-112 -164 -164 -340h264q24 -88 72 -168h-372
q-12 -92 -12 -172t12 -172h400q12 100 12 172q0 56 -8 128q72 -96 180 -152zM192 1152q-24 -92 -24 -172t24 -172h288q-12 100 -12 172t12 172h-288zM260 1320h252q48 172 120 304q-120 -40 -214 -118t-158 -186zM512 640h-252q64 -108 158 -186t214 -118q-72 132 -120 304z
M688 640q52 -176 164 -340q112 164 164 340h-328zM1444 640h-252q-44 -164 -120 -304q120 40 214 118t158 186zM1792 1448q0 104 -60 188l-92 -92q24 -44 24 -96q0 -88 -64 -150t-152 -62v128l-192 -192l192 -192v128q144 0 244 100t100 240zM1448 1536l192 192l-192 192
v-128q-140 0 -240 -100t-100 -244q0 -100 56 -188l96 92q-24 48 -24 96q0 88 62 152t150 64v-128z" />
</svg>
