<?xml version="1.0" standalone="no"?>
<!DOCTYPE svg PUBLIC "-//W3C//DTD SVG 1.1//EN" "http://www.w3.org/Graphics/SVG/1.1/DTD/svg11.dtd" >
<svg xmlns="http://www.w3.org/2000/svg" xmlns:xlink="http://www.w3.org/1999/xlink" version="1.1" viewBox="-10 0 1629 2048">
   <path fill="currentColor"
d="M563 479q19 0 32 -13.5t13 -32t-13 -31.5t-32 -13q-18 0 -30.5 13t-12.5 31.5t12.5 32t30.5 13.5zM1046 479q18 0 30.5 -13.5t12.5 -32t-12.5 -31.5t-30.5 -13q-19 0 -32 13t-13 31.5t13 32t32 13.5zM118 689q48 0 82 34t34 82v492q0 49 -33.5 83.5t-82.5 34.5t-83.5 -35
t-34.5 -83v-492q0 -48 34.5 -82t83.5 -34zM1329 711v761q0 52 -36 88.5t-88 36.5h-86v260q0 48 -34.5 83t-83.5 35t-83.5 -35t-34.5 -83v-260h-157v260q0 48 -34.5 83t-83.5 35q-48 0 -82.5 -35t-34.5 -83l-1 -260h-84q-53 0 -89.5 -36.5t-36.5 -88.5v-761h1049zM1064 248
q122 62 195.5 174.5t73.5 246.5h-1058q0 -135 73.5 -247t196.5 -174l-81 -150q-9 -14 6 -23q15 -6 23 7l82 151q108 -48 230 -48q121 0 229 48l83 -151q8 -13 22 -7q15 9 6 23zM1609 805v492q0 48 -34.5 83t-83.5 35q-48 0 -82 -35t-34 -83v-492q0 -49 34 -82.5t82 -33.5
q49 0 83.5 33.5t34.5 82.5z" />
</svg>
