<?xml version="1.0" standalone="no"?>
<!DOCTYPE svg PUBLIC "-//W3C//DTD SVG 1.1//EN" "http://www.w3.org/Graphics/SVG/1.1/DTD/svg11.dtd" >
<svg xmlns="http://www.w3.org/2000/svg" xmlns:xlink="http://www.w3.org/1999/xlink" version="1.1" viewBox="-10 0 1556 2048">
   <path fill="currentColor"
d="M1536 1708q0 32 -26 58t-58 26h-88v-172h172v88zM1024 1792v-172h172v172h-172zM684 1792v-172h168v172h-168zM340 1792v-172h172v172h-172zM84 1792q-32 0 -58 -26t-26 -58v-88h172v172h-88zM0 1280h172v172h-172v-172zM1536 1280v172h-172v-172h172zM988 684l-220 220
l-220 -220l-120 120l220 220l-220 220l120 120l220 -220l220 220l120 -120l-220 -220l220 -220zM0 940h172v168h-172v-168zM1536 940v168h-172v-168h172zM0 596h172v172h-172v-172zM1536 596v172h-172v-172h172zM84 256h88v172h-172v-88q0 -32 26 -58t58 -26zM1452 256
q32 0 58 26t26 58v88h-172v-172h88zM1024 428v-172h172v172h-172zM684 428v-172h168v172h-168zM340 428v-172h172v172h-172z" />
</svg>
