<?xml version="1.0" standalone="no"?>
<!DOCTYPE svg PUBLIC "-//W3C//DTD SVG 1.1//EN" "http://www.w3.org/Graphics/SVG/1.1/DTD/svg11.dtd" >
<svg xmlns="http://www.w3.org/2000/svg" xmlns:xlink="http://www.w3.org/1999/xlink" version="1.1" viewBox="-11 0 1761 2048">
   <path fill="currentColor"
d="M750 469q-12 1 -17 12t-11 11q-7 1 -5 -8q4 -16 33 -15zM849 485q-4 1 -12.5 -7t-20.5 -5q28 -12 36 2q5 7 -3 10zM448 973q-4 -1 -6 3.5t-5 14t-7 15.5q-2 6 -11 15q-9 13 -2 14q5 1 14.5 -8t14.5 -21l3 -6q7 -24 -1 -27zM1425 1384q0 -20 -63 -48q14 -46 17 -84
t-0.5 -63t-14.5 -76q-3 -12 -5 -19q-11 -54 -53.5 -116.5t-82.5 -86.5q27 21 65 95q42 78 62.5 162.5t-0.5 155.5q-12 46 -57 48q-22 3 -33.5 -6.5t-14.5 -33t-3.5 -50t-3.5 -69t-12 -80.5q-13 -55 -28 -94t-24.5 -53t-20.5 -25l-12 -12q-15 -70 -34.5 -117.5t-34 -64
t-27.5 -37.5t-18 -46q-3 -18 1 -39.5t9 -37t5 -30t-12 -24.5t-41 -16q-16 -3 -50 -20.5t-42 -18.5q-9 -1 -12 -29.5t9.5 -57.5t40.5 -31q23 -1 38.5 10t21 27.5t7.5 34t-4 28.5q-12 22 -2 30.5t34 0.5q11 -3 14 -22.5t0.5 -36.5t0.5 -24q-5 -34 -15 -57t-24.5 -35t-27 -17
t-31.5 -9q-121 10 -101 153q1 17 -1 17q-6 -6 -17.5 -9t-23.5 -3t-23 0.5t-18.5 -0.5t-7.5 -5q1 -65 -18 -103t-51 -39q-30 0 -47.5 32.5t-19.5 67.5q-1 17 4.5 42t15 43t17.5 15q13 -3 19 -16q4 -9 -9 -9q-8 0 -17 -16.5t-11 -38.5q0 -25 11 -41.5t38 -16.5q13 1 22 10.5
t13.5 22.5t6 27t1 23.5t-2.5 10.5q-9 7 -21 18.5t-15 14.5q-8 15 -30.5 27.5t-23.5 13.5q-14 16 -17 30.5t7 20.5q17 10 29.5 23t18.5 21.5t21 15.5t40 7q54 3 117 -17q2 0 26.5 -7t39.5 -12t33.5 -15t23.5 -21q10 -15 23 -9q6 3 8 10t-3.5 14t-19.5 10q-23 7 -65 25.5
t-52 21.5q-46 20 -80 26q-30 6 -88 -2q-12 -2 -12 2t19 22q15 14 31.5 20t45.5 5q20 0 42 -7t41 -16.5t38 -20.5t34 -19.5t27.5 -13.5t20 -3t9.5 12q1 3 -0.5 5.5t-5 5t-6.5 5t-9.5 6t-10 5.5t-11 6t-11.5 5q-19 10 -42 25t-39 27.5t-35.5 25.5t-33 20t-31 9.5t-29.5 -6.5
q-24 -13 -70 -81q-21 -30 -26 -30t-5 14q1 28 -16.5 64.5t-34 64t-24 66t12.5 71.5q-26 7 -71.5 103t-54.5 161q-2 21 -1 79.5t-7 66.5q-8 27 -32 4q-33 -31 -40 -99q-4 -37 3 -73q5 -20 0 -20q-3 0 -6 5q-14 27 -15.5 62.5t6 66.5t20.5 61q6 14 28.5 31.5t27.5 23.5
q23 26 119 103t106 88q18 17 20 43.5t-15.5 49.5t-52.5 26q11 20 27.5 43.5t25 37.5t15.5 43t6 69q52 -27 8 -105q-5 -9 -12.5 -18t-11 -13.5t-2.5 -7.5q2 -2 8 -6.5t15 -6.5t15 5q54 59 190 41q151 -17 202 -100q27 -43 39 -34q13 7 11 60q0 13 -3 29.5t-5.5 24.5
t-9.5 28.5t-8 22.5q-9 26 -5.5 43t26.5 17q4 -23 17 -88.5t15 -102.5q2 -22 -3.5 -63.5t-10.5 -76.5t0 -73.5t24 -61.5q18 -21 58 -21q2 -42 40 -60t82.5 -12t68.5 26zM707 438q4 -19 -2.5 -34t-13.5 -17q-10 -2 -9 8q1 7 5 7q5 0 7.5 5t0.5 12q-3 23 9 23q3 0 3 -4z
M1186 664q-2 -10 -7 -13.5t-15 -6t-17 -6.5q-8 -5 -15.5 -14.5t-11 -13t-7.5 -0.5q-16 18 8.5 50t44.5 36q11 2 17 -8.5t3 -23.5zM983 420q1 -17 -10.5 -29t-18.5 -11q-6 1 -8 3t0 4t5 3q7 2 13 12.5t7 23.5q0 1 3 0t6 -2.5t3 -3.5zM1045 154q1 -2 -2.5 -5.5t-10.5 -8
t-11 -7.5q-17 -17 -28 -17q-10 1 -13 8.5t-1.5 15.5t-0.5 14q-1 4 -4.5 9.5t-6 8.5t-3 7.5t3.5 6.5q5 4 9.5 0.5t13 -10.5t16.5 -11q2 0 11 -0.5t17 -2.5t10 -8zM1690 1686q23 14 36 28.5t13.5 28t-3 25.5t-17.5 24.5t-27 22.5t-34.5 21.5t-36 19t-36 18t-31.5 14.5
q-43 22 -97.5 64.5t-86.5 72.5q-19 19 -77 22.5t-102 -17.5q-17 -8 -28 -21t-17 -23.5t-14.5 -20.5t-26 -16.5t-46.5 -7.5q-50 -1 -148 -1q-21 1 -65 3t-67 2q-41 1 -74.5 11.5t-55 25t-40.5 28.5t-42 23.5t-50 8.5q-32 -1 -126.5 -35.5t-167.5 -49.5q-22 -4 -58 -10.5
t-57 -10.5t-45 -11t-37.5 -16.5t-20.5 -22.5q-8 -14 -4.5 -34t10 -35t14.5 -35t8 -34q1 -18 -4.5 -45.5t-11.5 -48.5t-5 -41.5t12 -31.5q16 -13 65.5 -15.5t68.5 -13.5q35 -20 48 -40t13 -59q12 42 2 73t-38 48q-16 11 -42.5 16t-52.5 2q-39 -3 -49 11q-14 19 6 65
q3 5 10 20t9 21.5t4.5 19t1.5 25.5q0 17 -19.5 56t-16.5 55q4 18 43 29q25 7 99 22t111 23q28 7 85 25.5t94 26.5t63 4q36 -5 59 -19.5t32 -33t9.5 -43.5t-5 -47t-15.5 -46t-17.5 -38.5t-15.5 -27.5q-133 -209 -186 -269q-82 -93 -136 -53q-12 11 -16.5 -12t-3.5 -49
q2 -33 12 -59t27.5 -54t24.5 -48q9 -22 30.5 -82t33.5 -89.5t34 -69t45 -62.5q127 -164 142 -223q-13 -127 -18 -354q0 -49 4.5 -86t19 -76t45.5 -71.5t79 -58.5q46 -24 119 -24q61 0 121.5 16t101.5 46q65 48 104.5 139t33.5 169q-6 106 34 244q22 72 58 130t94 120
q64 68 114.5 186.5t67.5 217.5q9 57 5.5 97.5t-13.5 63.5t-23 24q-9 2 -20.5 15t-23.5 30.5t-28.5 34.5t-42.5 28t-58 9q-20 -1 -35.5 -5.5t-25.5 -15t-15 -17.5t-13 -24t-12 -23q-25 -42 -46.5 -34t-32.5 56q-10 48 8 111q10 35 12.5 73t-0.5 70t-11 80q-8 57 9.5 94.5
t49 49.5t70.5 4t72 -36q68 -56 103 -76t118 -49q50 -16 76.5 -33.5t31.5 -32t-5.5 -28.5t-30.5 -25t-50 -21q-37 -12 -56 -54.5t-17 -83t17 -54.5q2 36 9.5 65t16.5 46t23.5 32.5t24 21.5t24.5 14.5t18 10.5z" />
</svg>
