<?xml version="1.0" standalone="no"?>
<!DOCTYPE svg PUBLIC "-//W3C//DTD SVG 1.1//EN" "http://www.w3.org/Graphics/SVG/1.1/DTD/svg11.dtd" >
<svg xmlns="http://www.w3.org/2000/svg" xmlns:xlink="http://www.w3.org/1999/xlink" version="1.1" viewBox="-10 0 1724 2048">
   <path fill="currentColor"
d="M1536 1708v-256h168v256q0 68 -50 118t-118 50h-256v-168h256zM0 1708v-256h168v256h256v168h-256q-68 0 -118 -50t-50 -118zM680 1708h344v168h-344v-168zM1072 684l-220 220l-220 -220l-120 120l220 220l-220 220l120 120l220 -220l220 220l120 -120l-220 -220
l220 -220zM1536 852h168v344h-168v-344zM0 852h168v344h-168v-344zM0 340q0 -68 50 -118t118 -50h256v168h-256v256h-168v-256zM1704 340v256h-168v-256h-256v-168h256q68 0 118 50t50 118zM680 172h344v168h-344v-168z" />
</svg>
