<?xml version="1.0" standalone="no"?>
<!DOCTYPE svg PUBLIC "-//W3C//DTD SVG 1.1//EN" "http://www.w3.org/Graphics/SVG/1.1/DTD/svg11.dtd" >
<svg xmlns="http://www.w3.org/2000/svg" xmlns:xlink="http://www.w3.org/1999/xlink" version="1.1" viewBox="-10 0 1700 2048">
   <path fill="currentColor"
d="M356 1728l104 -136q116 76 248 100l-24 172q-168 -32 -328 -136zM1220 1592l100 136q-148 104 -324 136l-24 -172q132 -24 248 -100zM1508 1160l172 24q-32 172 -136 324l-136 -104q76 -112 100 -244zM0 1180l172 -24q24 132 100 248l-136 104q-104 -160 -136 -328z
M1060 684l-220 220l-220 -220l-120 120l220 220l-220 220l120 120l220 -220l220 220l120 -120l-220 -220l220 -220zM1408 644l136 -104q104 156 136 328l-172 24q-24 -136 -100 -248zM172 892l-172 -24q32 -168 136 -328l136 104q-76 116 -100 248zM972 356l24 -172
q168 32 328 136l-104 136q-116 -76 -248 -100zM460 456l-104 -136q160 -104 328 -136l24 172q-132 24 -248 100z" />
</svg>
