<?xml version="1.0" standalone="no"?>
<!DOCTYPE svg PUBLIC "-//W3C//DTD SVG 1.1//EN" "http://www.w3.org/Graphics/SVG/1.1/DTD/svg11.dtd" >
<svg xmlns="http://www.w3.org/2000/svg" xmlns:xlink="http://www.w3.org/1999/xlink" version="1.1" viewBox="-10 0 1775 2048">
   <path fill="currentColor"
d="M1170 1714q-8 -50 -22.5 -116t-52 -197t-85.5 -255h-2h-2q-9 4 -25.5 10t-65.5 28.5t-96 48t-109 66.5t-113.5 85.5t-101 105.5t-78.5 124l-17 -12q100 82 222 127t256 45q152 0 292 -60zM959 1020q-25 -58 -61 -126q-359 106 -769 106q-1 8 -1 24q0 142 50.5 270.5
t141.5 229.5q42 -74 98 -141.5t112.5 -116t115 -90t108.5 -67.5t90 -45t62 -27l23 -7zM837 778q-110 -195 -279 -432q-158 74 -267.5 212.5t-146.5 311.5q27 0 46.5 -0.5t100.5 -5t154 -13t182 -27.5t210 -46zM1618 1142q-15 -4 -32 -9t-69 -15t-102.5 -15t-123 -4.5
t-140.5 11.5q100 275 146 536q127 -86 211.5 -217t109.5 -287zM698 296q-1 0 -2 2q1 -2 2 -2zM1373 462q-100 -90 -227.5 -139t-267.5 -49q-87 0 -177 22q169 231 281 436q79 -29 148.5 -68.5t110.5 -70.5t75 -65.5t43 -46t14 -19.5zM1627 1016q-1 -130 -45.5 -250.5
t-124.5 -217.5l-1 1q-10 13 -21.5 27t-49.5 50.5t-81 69.5t-114.5 74.5t-150.5 73.5q26 54 50 110q3 6 8 19t8 19q41 -5 85 -7.5t84 -2.5t79 1.5t73 5t64.5 7t55 7t41.5 6.5t28 5t12 2zM1755 1024.5q0 119.5 -31.5 233t-88 210t-137.5 177.5t-177 137.5t-210 88t-233 31.5
t-233 -31.5t-210.5 -88t-177.5 -137.5t-137.5 -177.5t-88 -210t-31.5 -233t31.5 -233.5t88 -210t137.5 -177t177.5 -137.5t210.5 -88.5t233 -32t233 32t210 88.5t177 137.5t137.5 177t88 210t31.5 233.5z" />
</svg>
