<?xml version="1.0" standalone="no"?>
<!DOCTYPE svg PUBLIC "-//W3C//DTD SVG 1.1//EN" "http://www.w3.org/Graphics/SVG/1.1/DTD/svg11.dtd" >
<svg xmlns="http://www.w3.org/2000/svg" xmlns:xlink="http://www.w3.org/1999/xlink" version="1.1" viewBox="-10 0 1724 2048">
   <path fill="currentColor"
d="M852 172q-232 0 -428 114t-310 310t-114 428t114 428t310 310t428 114t428 -114t310 -310t114 -428t-114 -428t-310 -310t-428 -114zM852 1708q-184 0 -342 -92t-250 -250t-92 -342t92 -342t250 -250t342 -92t342 92t250 250t92 342t-92 342t-250 250t-342 92zM512 1196
l-88 -512l256 168l172 -256l172 256l256 -168l-88 512h-680zM560 1364q-24 0 -36 -12t-12 -36v-36h680v36q0 24 -12 36t-36 12h-584z" />
</svg>
