<?xml version="1.0" standalone="no"?>
<!DOCTYPE svg PUBLIC "-//W3C//DTD SVG 1.1//EN" "http://www.w3.org/Graphics/SVG/1.1/DTD/svg11.dtd" >
<svg xmlns="http://www.w3.org/2000/svg" xmlns:xlink="http://www.w3.org/1999/xlink" version="1.1" viewBox="-10 0 1468 2048">
   <path fill="currentColor"
d="M1236 596q52 0 90 -36t38 -94t-36 -130q-44 -80 -92 -80t-92 80q-36 72 -36 130t38 94t90 36zM1236 448q16 0 30 12t14 30t-14 30t-30 12t-30 -12t-14 -30t14 -30t30 -12zM724 512q52 0 90 -38t38 -94t-36 -128q-44 -80 -92 -80t-92 80q-36 72 -36 128t38 94t90 38z
M724 364q16 0 30 12t14 30t-14 30t-30 12t-30 -12t-14 -30t14 -30t30 -12zM212 596q52 0 90 -36t38 -94t-36 -130q-44 -80 -92 -80t-92 80q-36 72 -36 130t38 94t90 36zM212 448q16 0 30 12t14 30t-14 30t-30 12t-30 -12t-14 -30t14 -30t30 -12zM1448 940q0 32 -24 58
t-60 26h-44v172q0 68 -50 118t-118 50h-344v344h88q68 0 118 50t50 118h-680q0 -68 50 -118t118 -50h88v-344h-344q-68 0 -118 -50t-50 -118v-172h-44q-36 0 -60 -26t-24 -60t24 -60t60 -26v-84q0 -36 26 -60t58 -24h88q32 0 58 24t26 60v84q36 0 60 26t24 60t-24 60t-60 26
h-44v172h344v-172h-44q-36 0 -60 -26t-24 -60t24 -60t60 -26v-168q0 -36 26 -62t58 -26h88q32 0 58 26t26 62v168q36 0 60 26t24 60t-24 60t-60 26h-44v172h344v-172h-44q-36 0 -60 -26t-24 -60t24 -60t60 -26v-84q0 -36 26 -60t58 -24h88q32 0 58 24t26 60v84q36 0 60 26
t24 62z" />
</svg>
