<?xml version="1.0" standalone="no"?>
<!DOCTYPE svg PUBLIC "-//W3C//DTD SVG 1.1//EN" "http://www.w3.org/Graphics/SVG/1.1/DTD/svg11.dtd" >
<svg xmlns="http://www.w3.org/2000/svg" xmlns:xlink="http://www.w3.org/1999/xlink" version="1.1" viewBox="-10 0 1468 2048">
   <path fill="currentColor"
d="M1448 940q0 32 -24 58t-60 26h-44v172q0 68 -50 118t-118 50h-344v344h88q68 0 118 50t50 118h-680q0 -68 50 -118t118 -50h88v-344h-344q-68 0 -118 -50t-50 -118v-172h-44q-36 0 -60 -26t-24 -60t24 -60t60 -26h44v-512l168 88v424h44q36 0 60 26t24 60t-24 60t-60 26
h-44v172h344v-172h-44q-36 0 -60 -26t-24 -60t24 -60t60 -26h44v-680l168 84v596h44q36 0 60 26t24 60t-24 60t-60 26h-44v172h344v-172h-44q-36 0 -60 -26t-24 -60t24 -60t60 -26h44v-512l168 88v424h44q36 0 60 26t24 62z" />
</svg>
