<?xml version="1.0" standalone="no"?>
<!DOCTYPE svg PUBLIC "-//W3C//DTD SVG 1.1//EN" "http://www.w3.org/Graphics/SVG/1.1/DTD/svg11.dtd" >
<svg xmlns="http://www.w3.org/2000/svg" xmlns:xlink="http://www.w3.org/1999/xlink" version="1.1" viewBox="-10 0 1724 2048">
   <path fill="currentColor"
d="M1664 952v-100q0 -32 -26 -58t-62 -26h-84q-36 0 -60 26t-24 58v88h-88v-88q0 -32 -24 -58t-60 -26h-84q-36 0 -62 26t-26 58v88h-84v-256q0 -36 -26 -62t-58 -26h-88q-32 0 -58 26t-26 62v256h-84v-88q0 -32 -26 -58t-62 -26h-84q-36 0 -60 26t-24 58v88h-88v-88
q0 -32 -24 -58t-60 -26h-84q-36 0 -62 26t-26 58v100q-40 24 -40 72q0 36 24 60t60 24h108q56 152 180 264q160 140 396 160v176h-88q-68 0 -118 50t-50 118h680q0 -68 -50 -118t-118 -50h-88v-176q236 -24 396 -164q128 -108 180 -260h108q36 0 60 -24t24 -60
q0 -48 -40 -72zM380 1108h388v252q-152 -16 -260 -100q-80 -60 -128 -152zM936 1360v-252h388q-48 92 -128 152q-108 84 -260 100zM852 512q52 0 90 -38t38 -94t-36 -128q-44 -80 -92 -80t-92 80q-36 72 -36 128t38 94t90 38zM852 364q16 0 30 12t14 30t-14 30t-30 12
t-30 -12t-14 -30t14 -30t30 -12zM1192 684q56 0 92 -38t36 -96t-36 -130q-40 -80 -90 -80t-90 80q-40 72 -40 130t38 96t90 38zM1192 532q20 0 32 14t12 30t-12 30t-30 14t-30 -14t-12 -30t12 -30t28 -14zM1536 684q52 0 90 -38t38 -96t-40 -130q-40 -80 -90 -80t-90 80
q-36 72 -36 130t36 96t92 38zM1536 532q16 0 28 14t12 30t-12 30t-30 14t-30 -14t-12 -30t12 -30t32 -14zM168 684q56 0 92 -38t36 -96t-36 -130q-40 -80 -90 -80t-90 80q-40 72 -40 130t38 96t90 38zM168 532q20 0 32 14t12 30t-12 30t-30 14t-30 -14t-12 -30t12 -30
t28 -14zM512 684q52 0 90 -38t38 -96t-40 -130q-40 -80 -90 -80t-90 80q-36 72 -36 130t36 96t92 38zM512 532q16 0 28 14t12 30t-12 30t-30 14t-30 -14t-12 -30t12 -30t32 -14z" />
</svg>
