<?xml version="1.0" standalone="no"?>
<!DOCTYPE svg PUBLIC "-//W3C//DTD SVG 1.1//EN" "http://www.w3.org/Graphics/SVG/1.1/DTD/svg11.dtd" >
<svg xmlns="http://www.w3.org/2000/svg" xmlns:xlink="http://www.w3.org/1999/xlink" version="1.1" viewBox="-10 0 1044 2048">
   <path fill="currentColor"
d="M208 624l-136 -76q68 -108 180 -148q-8 -24 -30 -42t-50 -18v-168q96 0 168 64v104q28 0 50 18t30 42q-68 24 -124 84t-88 140zM172 940q0 -100 48 -180l-112 -64q-48 20 -78 62t-30 94v88q0 392 232 652q148 168 368 256q-188 -148 -300 -352q-128 -248 -128 -556z
M1024 852v1024l-72 -24q-88 -32 -168 -84q-116 -72 -204 -168q-108 -120 -168 -268q-72 -180 -72 -392v-88q0 -44 24 -84t64 -60l104 60l152 -84l148 84l108 -60q36 20 60 60t24 84zM852 1612v-636l-168 -96l-172 96q8 232 120 408q84 136 220 228zM404 564l128 76l152 -84
l148 84l128 -76q-72 -128 -196 -168q-12 -96 -84 -160t-168 -64v168q28 0 50 18t30 42q-116 40 -188 164z" />
</svg>
