<?xml version="1.0" standalone="no"?>
<!DOCTYPE svg PUBLIC "-//W3C//DTD SVG 1.1//EN" "http://www.w3.org/Graphics/SVG/1.1/DTD/svg11.dtd" >
<svg xmlns="http://www.w3.org/2000/svg" xmlns:xlink="http://www.w3.org/1999/xlink" version="1.1" viewBox="-10 0 1775 2048">
   <path fill="currentColor"
d="M1341 1214q0 -57 -22.5 -104t-55.5 -78t-83.5 -56t-94.5 -39t-100 -27l-119 -26q-29 -8 -42 -11t-35 -10t-32 -13.5t-22 -16.5t-16.5 -22.5t-4.5 -28.5q0 -45 43.5 -66.5t121.5 -21.5q50 0 88 13.5t61.5 33t44 38.5t45.5 33t55 14q54 0 86 -37t32 -89q0 -63 -64 -113.5
t-162.5 -76.5t-207.5 -26q-62 0 -120.5 10.5t-115 34.5t-98.5 60t-67.5 90.5t-25.5 122.5q0 56 15 101t40 76t64 55t80.5 39.5t95.5 28.5l166 40q4 2 13 4q31 7 45 11t35.5 11t31.5 13.5t21 17t15 23.5t4 30q0 45 -46 74.5t-120 29.5q-43 0 -79 -10t-60.5 -25.5t-46 -34
t-39.5 -37.5t-35 -34.5t-38.5 -25t-46.5 -9.5q-57 0 -86 34t-29 86q0 69 64 127.5t172.5 92.5t235.5 34q66 0 128.5 -12.5t119 -40t99 -67t67.5 -96t25 -124.5zM1755 1462q0 90 -34.5 171t-93.5 140t-140 94t-170 35q-150 0 -268 -92q-90 18 -171 18q-164 0 -313 -63.5
t-257 -171t-171.5 -256.5t-63.5 -313q0 -82 18 -172q-91 -118 -91 -266q0 -90 35 -171t93.5 -140t140 -94t170.5 -35q149 0 267 92q90 -18 172 -18q164 0 313 63.5t256.5 171t171 257t63.5 312.5q0 82 -18 172q91 118 91 266z" />
</svg>
