<?xml version="1.0" standalone="no"?>
<!DOCTYPE svg PUBLIC "-//W3C//DTD SVG 1.1//EN" "http://www.w3.org/Graphics/SVG/1.1/DTD/svg11.dtd" >
<svg xmlns="http://www.w3.org/2000/svg" xmlns:xlink="http://www.w3.org/1999/xlink" version="1.1" viewBox="-10 0 1388 2048">
   <path fill="currentColor"
d="M592 400q-8 -24 -30 -42t-50 -18v-168q100 0 172 64v104q28 0 50 18t30 42q-72 24 -126 84t-86 140l-136 -76q68 -108 176 -148zM512 940q0 -100 52 -180l-112 -64q-52 20 -80 62t-28 94v88q0 392 232 652q148 168 368 256q-192 -148 -300 -352q-132 -248 -132 -556z
M424 400q-8 -24 -30 -42t-50 -18v-104q-72 -64 -172 -64v168q28 0 50 18t30 42q-108 40 -176 148l132 76q32 -80 88 -140t128 -84zM172 940q0 -100 52 -180l-116 -64q-48 20 -78 62t-30 94v88q0 392 232 652q152 168 368 256q-188 -148 -296 -352q-132 -248 -132 -556z
M1368 852v1024l-72 -24q-88 -32 -168 -84q-116 -72 -204 -168q-108 -120 -168 -268q-72 -180 -72 -392v-88q0 -44 24 -84t60 -60l108 60l148 -84l152 84l104 -60q40 20 64 60t24 84zM1196 1612v-636l-172 -96l-168 96q8 232 120 408q84 136 220 228zM748 564l128 76l148 -84
l152 84l128 -76q-76 -128 -196 -168q-12 -96 -84 -160t-168 -64v168q28 0 48 18t32 42q-120 40 -188 164z" />
</svg>
