<?xml version="1.0" standalone="no"?>
<!DOCTYPE svg PUBLIC "-//W3C//DTD SVG 1.1//EN" "http://www.w3.org/Graphics/SVG/1.1/DTD/svg11.dtd" >
<svg xmlns="http://www.w3.org/2000/svg" xmlns:xlink="http://www.w3.org/1999/xlink" version="1.1" viewBox="-10 0 1388 2048">
   <path fill="currentColor"
d="M1280 344q-36 0 -60 24t-24 64v84h-128l-120 -256q-16 -36 -32 -44q-32 -32 -80 -38t-92 14l-60 16l-60 -24q-44 -20 -92 -14t-80 38q-16 16 -32 52l-120 256h-128v-84q0 -40 -24 -64t-62 -24t-62 24t-24 64v84q0 72 50 122t122 50h1024q72 0 122 -50t50 -122v-84
q0 -36 -24 -62t-64 -26zM0 1880v-256q0 -104 128 -188q104 -72 276 -116q152 -36 280 -36t280 36q172 44 276 116q128 84 128 188v256h-1368zM1204 1720v-96q0 -28 -80 -70t-192 -74q-128 -32 -248 -32t-248 32q-112 32 -192 74t-80 70v96h1040zM1024 772v84q0 144 -100 244
t-240 100t-240 -100t-100 -244v-84h168v84q0 72 50 122t122 50t122 -50t50 -122v-84h168z" />
</svg>
