<?xml version="1.0" standalone="no"?>
<!DOCTYPE svg PUBLIC "-//W3C//DTD SVG 1.1//EN" "http://www.w3.org/Graphics/SVG/1.1/DTD/svg11.dtd" >
<svg xmlns="http://www.w3.org/2000/svg" xmlns:xlink="http://www.w3.org/1999/xlink" version="1.1" viewBox="-10 0 1812 2048">
   <path fill="currentColor"
d="M1688 1236v-128q0 -88 -74 -150t-166 -62t-164 62t-72 150v128q-40 0 -72 32t-32 72v300q0 44 32 76t72 32h468q44 0 78 -30t34 -70v-300q0 -44 -32 -78t-72 -34zM1576 1236h-256v-128q0 -48 38 -78t92 -30t90 30t36 78v128zM256 896h856q-56 76 -68 172h-788v-172z
M1200 812h-1032v768h-168v-940l852 -340l852 340v176q-112 -92 -252 -92t-252 88zM936 1580h-680v-172h680v172zM256 1152h764q-72 72 -84 172h-680v-172z" />
</svg>
