<?xml version="1.0" standalone="no"?>
<!DOCTYPE svg PUBLIC "-//W3C//DTD SVG 1.1//EN" "http://www.w3.org/Graphics/SVG/1.1/DTD/svg11.dtd" >
<svg xmlns="http://www.w3.org/2000/svg" xmlns:xlink="http://www.w3.org/1999/xlink" version="1.1" viewBox="-10 0 1728 2048">
   <path fill="currentColor"
d="M1708 1324h-172v168h172v-168zM1708 640h-172v512h172v-512zM1368 980v-168h-172v-428h-172v428h-168v-428h-172v428h-172v-344h-168v344h-172v-172h-172v1024h172v-172h172v172h168v-172h172v172h172v-172h168v172h172v-172h172v-168h-172v-344h172zM344 1324h-172v-344
h172v344zM684 1324h-172v-344h172v344zM1024 1324h-168v-344h168v344z" />
</svg>
