<?xml version="1.0" standalone="no"?>
<!DOCTYPE svg PUBLIC "-//W3C//DTD SVG 1.1//EN" "http://www.w3.org/Graphics/SVG/1.1/DTD/svg11.dtd" >
<svg xmlns="http://www.w3.org/2000/svg" xmlns:xlink="http://www.w3.org/1999/xlink" version="1.1" viewBox="-10 0 1300 2048">
   <path fill="currentColor"
d="M596 298h-172v428h-168v-428h-172v428h-84v168h84v156q80 -44 172 -60v-96h168v96q92 16 172 60v-156h172v316q84 128 84 284q0 40 -8 84h92v-172h172v172h172v-1024h-172v172h-172v-344h-168v344h-172v-428zM1108 894v344h-172v-344h172zM0 1494l256 256v-172h340v-172
h-340v-168z" />
</svg>
