<?xml version="1.0" standalone="no"?>
<!DOCTYPE svg PUBLIC "-//W3C//DTD SVG 1.1//EN" "http://www.w3.org/Graphics/SVG/1.1/DTD/svg11.dtd" >
<svg xmlns="http://www.w3.org/2000/svg" xmlns:xlink="http://www.w3.org/1999/xlink" version="1.1" viewBox="-10 0 1724 2048">
   <path fill="currentColor"
d="M1080 1212q4 12 4 24q0 44 -16 84t-48 68t-72 40q-52 20 -112 0q-44 -16 -84 -52q56 -16 94 -52t50 -88q4 -36 -12 -100l-8 -44q-12 -76 12 -136q24 48 42 70t58 58t56 56q28 32 36 72zM1704 1024q0 232 -114 428t-310 310t-428 114t-428 -114t-310 -310t-114 -428
t114 -428t310 -310t428 -114t428 114t310 310t114 428zM1292 1072l-8 -16q-12 -32 -52 -84q-12 -16 -44 -48l-8 -8q-20 -16 -64 -48q-52 -40 -76 -60q-72 -76 -88 -182t32 -198q-84 20 -168 88q-132 104 -176 268t16 320q4 16 4 24q0 20 -24 30t-40 -6q-8 -4 -12 -12
q-56 -68 -66 -162t30 -178q-84 68 -128 174t-36 214v16q8 56 20 84q12 48 48 116q52 84 142 142t190 70q112 16 216 -8q112 -28 188 -96q96 -84 124 -206t-20 -234z" />
</svg>
