<?xml version="1.0" standalone="no"?>
<!DOCTYPE svg PUBLIC "-//W3C//DTD SVG 1.1//EN" "http://www.w3.org/Graphics/SVG/1.1/DTD/svg11.dtd" >
<svg xmlns="http://www.w3.org/2000/svg" xmlns:xlink="http://www.w3.org/1999/xlink" version="1.1" viewBox="-10 0 1724 2048">
   <path fill="currentColor"
d="M852 172q-232 0 -428 114t-310 310t-114 428t114 428t310 310t428 114t428 -114t310 -310t114 -428t-114 -428t-310 -310t-428 -114zM852 1620q-116 0 -214 -56t-156 -154t-58 -214q0 -100 68 -240q52 -116 148 -252q64 -96 144 -196l68 -76l68 76q80 100 144 196
q96 136 148 252q68 140 68 240q0 116 -58 214t-156 154t-214 56z" />
</svg>
