<?xml version="1.0" standalone="no"?>
<!DOCTYPE svg PUBLIC "-//W3C//DTD SVG 1.1//EN" "http://www.w3.org/Graphics/SVG/1.1/DTD/svg11.dtd" >
<svg xmlns="http://www.w3.org/2000/svg" xmlns:xlink="http://www.w3.org/1999/xlink" version="1.1" viewBox="-10 0 1744 2048">
   <path fill="currentColor"
d="M596 172q164 0 300 80t216 216t80 300q0 148 -68 278t-188 210v196q0 32 -24 58t-60 26h-512q-36 0 -60 -26t-24 -58v-196q-120 -80 -188 -210t-68 -278q0 -164 80 -300t216 -216t300 -80zM340 1792v-84h512v84q0 36 -26 60t-58 24h-344q-32 0 -58 -24t-26 -60zM596 340
q-116 0 -214 58t-156 156t-58 214q0 128 72 234t184 158v204h344v-204q112 -52 184 -158t72 -234q0 -116 -58 -214t-156 -156t-214 -58zM1448 1108h-168l-276 768h164l60 -168h272l60 168h164zM1264 1592l100 -312l100 312h-200z" />
</svg>
