<?xml version="1.0" standalone="no"?>
<!DOCTYPE svg PUBLIC "-//W3C//DTD SVG 1.1//EN" "http://www.w3.org/Graphics/SVG/1.1/DTD/svg11.dtd" >
<svg xmlns="http://www.w3.org/2000/svg" xmlns:xlink="http://www.w3.org/1999/xlink" version="1.1" viewBox="-10 0 1812 2048">
   <path fill="currentColor"
d="M1792 1812l-1684 -1684l-108 108l252 252q-176 228 -176 516q0 232 114 428t310 310t428 114q288 0 516 -176l240 240zM928 1688q-184 0 -342 -92t-250 -250t-92 -342q0 -216 128 -396l124 124q-80 128 -80 272q0 164 96 296l60 -60q-72 -108 -72 -236q0 -108 56 -208
l64 64q-32 68 -32 144q0 92 48 172l60 -60q-24 -56 -24 -112q0 -40 16 -80l320 320q-40 16 -80 16q-56 0 -108 -24l-64 60q80 48 172 48q76 0 144 -32l64 64q-100 56 -208 56q-128 0 -236 -72l-60 60q132 96 296 96q144 0 272 -80l124 124q-180 128 -396 128zM928 664
q92 0 172 48l-60 60q-44 -16 -92 -20l-80 -84q28 -4 60 -4zM1180 984q-4 -52 -20 -88l60 -64q48 80 48 172q0 32 -4 60zM1164 648q-108 -72 -236 -72q-68 0 -132 24l-64 -64q92 -44 196 -44q164 0 296 96zM604 408l-128 -128q208 -128 452 -128q232 0 428 114t310 310
t114 428q0 244 -128 452l-128 -124q88 -152 88 -332t-92 -338t-250 -250t-338 -92t-328 88zM1332 1136q24 -64 24 -132q0 -128 -72 -236l60 -60q96 132 96 296q0 100 -44 196z" />
</svg>
