<?xml version="1.0" standalone="no"?>
<!DOCTYPE svg PUBLIC "-//W3C//DTD SVG 1.1//EN" "http://www.w3.org/Graphics/SVG/1.1/DTD/svg11.dtd" >
<svg xmlns="http://www.w3.org/2000/svg" xmlns:xlink="http://www.w3.org/1999/xlink" version="1.1" viewBox="-10 0 1812 2048">
   <path fill="currentColor"
d="M604 408l-172 -172h1092q72 0 122 50t50 122v1092l-172 -172v-920h-920zM1396 1200q44 -96 44 -196q0 -140 -68 -258t-186 -186t-258 -68q-100 0 -196 44l132 132q36 -4 64 -4q140 0 240 100t100 240q0 28 -4 64zM1792 1812l-108 108l-152 -148h-1200q-72 0 -122 -50
t-50 -122v-1200l-160 -164l108 -108zM588 1004q0 140 100 240t240 100q76 0 144 -32l-452 -452q-32 68 -32 144zM1364 1600l-164 -164q-124 80 -268 80t-262 -68t-186 -186t-68 -262t80 -268l-164 -164v1032h1032z" />
</svg>
