<?xml version="1.0" standalone="no"?>
<!DOCTYPE svg PUBLIC "-//W3C//DTD SVG 1.1//EN" "http://www.w3.org/Graphics/SVG/1.1/DTD/svg11.dtd" >
<svg xmlns="http://www.w3.org/2000/svg" xmlns:xlink="http://www.w3.org/1999/xlink" version="1.1" viewBox="-10 0 1724 2048">
   <path fill="currentColor"
d="M852 340q184 0 342 92t250 250t92 342t-92 342t-250 250t-342 92t-342 -92t-250 -250t-92 -342t92 -342t250 -250t342 -92zM852 172q-232 0 -428 114t-310 310t-114 428t114 428t310 310t428 114t428 -114t310 -310t114 -428t-114 -428t-310 -310t-428 -114zM852 940
q-36 0 -60 24t-24 60t24 60t60 24t60 -24t24 -60t-24 -60t-60 -24zM744 792q52 -24 108 -24t112 24l60 -60q-80 -48 -172 -48t-172 48zM1108 1024q0 56 -24 112l60 60q48 -80 48 -172t-48 -172l-60 64q24 52 24 108zM596 1024q0 -56 24 -108l-60 -64q-48 80 -48 172t48 172
l60 -60q-24 -56 -24 -112zM964 1256q-56 24 -112 24t-108 -24l-64 60q80 48 172 48t172 -48zM1268 728l-60 60q72 108 72 236t-72 236l60 60q96 -132 96 -296t-96 -296zM616 668q108 -72 236 -72t236 72l60 -60q-132 -96 -296 -96t-296 96zM1088 1380q-108 72 -236 72
t-236 -72l-60 60q132 96 296 96t296 -96zM496 1260q-72 -108 -72 -236t72 -236l-60 -60q-96 132 -96 296t96 296z" />
</svg>
