<?xml version="1.0" standalone="no"?>
<!DOCTYPE svg PUBLIC "-//W3C//DTD SVG 1.1//EN" "http://www.w3.org/Graphics/SVG/1.1/DTD/svg11.dtd" >
<svg xmlns="http://www.w3.org/2000/svg" xmlns:xlink="http://www.w3.org/1999/xlink" version="1.1" viewBox="-10 0 1744 2048">
   <path fill="currentColor"
d="M596 172q-164 0 -300 80t-216 216t-80 300q0 148 68 278t188 210v196q0 32 24 58t60 26h512q36 0 60 -26t24 -58v-196q120 -80 188 -210t68 -278q0 -164 -80 -300t-216 -216t-300 -80zM340 1792q0 36 26 60t58 24h344q32 0 58 -24t26 -60v-84h-512v84zM1448 1108h-168
l-276 768h164l60 -168h272l60 168h164zM1264 1592l100 -312l100 312h-200z" />
</svg>
