<?xml version="1.0" standalone="no"?>
<!DOCTYPE svg PUBLIC "-//W3C//DTD SVG 1.1//EN" "http://www.w3.org/Graphics/SVG/1.1/DTD/svg11.dtd" >
<svg xmlns="http://www.w3.org/2000/svg" xmlns:xlink="http://www.w3.org/1999/xlink" version="1.1" viewBox="-10 0 1383 2048">
   <path fill="currentColor"
d="M1093 569l42 -222q6 -26 -10 -45.5t-40 -19.5h-814q-27 0 -44.5 19t-17.5 42v1259q0 3 2.5 3.5t4.5 -2.5l333 -402q26 -30 43.5 -38.5t54.5 -8.5h273q26 0 43 -17t20 -34q16 -93 42 -218q5 -24 -12.5 -45.5t-41.5 -21.5h-336q-34 0 -55.5 -21.5t-21.5 -55.5v-48
q0 -33 21.5 -54t55.5 -21h395q20 0 39.5 -15t23.5 -34zM1352 315q-17 84 -60.5 305t-79 399.5t-40.5 198.5q-5 19 -7 26.5t-9 26.5t-14 28.5t-20 24.5t-28 22.5t-37.5 13t-49.5 5.5h-310h-3q-8 0 -11.5 2t-10.5 10q-9 11 -487 564q-17 20 -43 27.5t-45.5 6t-33.5 -7.5
q-24 -9 -43.5 -35.5t-19.5 -76.5v-1611q0 -27 9 -54.5t28.5 -55t57 -44.5t86.5 -17h1015q109 0 145 60t11 182zM1352 315l-180 903q5 -20 40.5 -198.5t79 -399.5t60.5 -305z" />
</svg>
