<?xml version="1.0" standalone="no"?>
<!DOCTYPE svg PUBLIC "-//W3C//DTD SVG 1.1//EN" "http://www.w3.org/Graphics/SVG/1.1/DTD/svg11.dtd" >
<svg xmlns="http://www.w3.org/2000/svg" xmlns:xlink="http://www.w3.org/1999/xlink" version="1.1" viewBox="-10 0 1724 2048">
   <path fill="currentColor"
d="M1704 852h-340v-256q0 -104 -74 -180t-182 -76t-182 76t-74 180h172q0 -32 24 -58t60 -26t60 26t24 58v256h-680q68 0 118 -50t50 -118v-344h-512v344q0 68 50 118t122 50h-340v172h168v684h1368v-684h168v-172zM340 512h172v172h-172v-172zM340 1536v-512h428v512h-428z
M1364 1536h-428v-512h428v512z" />
</svg>
