<?xml version="1.0" standalone="no"?>
<!DOCTYPE svg PUBLIC "-//W3C//DTD SVG 1.1//EN" "http://www.w3.org/Graphics/SVG/1.1/DTD/svg11.dtd" >
<svg xmlns="http://www.w3.org/2000/svg" xmlns:xlink="http://www.w3.org/1999/xlink" version="1.1" viewBox="-11 0 1725 2048">
   <path fill="currentColor"
d="M1376 1424q-52 88 -128 88q-52 -4 -140 -52l-28 -20q-80 -48 -116 -56q-56 -16 -92 32q-32 36 -28 100q4 36 28 120l12 48q20 84 4 124q-28 56 -128 68q-84 -8 -100 -76q-12 -44 4 -144l8 -28q16 -96 16 -136q-4 -68 -48 -88q-40 -28 -76 0q-24 16 -68 76l-16 20
q-52 68 -92 88q-60 36 -128 0q-64 -52 -60 -96q4 -32 48 -84q56 -60 72 -108q32 -76 8 -164q-12 -32 -48 -40q-24 -4 -80 -4h-40q-72 -4 -104 -24q-48 -28 -56 -104q-4 -48 28 -76q20 -20 68 -40l16 -8q48 -16 64 -28q28 -24 30 -52t-10 -56q-8 -20 -28 -48l-16 -28
q-20 -32 -18 -64t38 -72q60 -48 124 -24q40 16 108 80l8 4q68 68 104 84q64 32 120 -4q40 -28 28 -80q-12 -32 -56 -104l-16 -24q-48 -72 -44 -112q0 -56 88 -80q76 -20 124 24q32 28 68 112l12 24q32 84 56 116q44 52 100 64q80 16 160 -56q48 -44 132 -160l32 -40
q84 -112 140 -136q80 -32 164 74t28 186q-36 52 -168 116l-44 16q-128 56 -172 92q-76 56 -52 128q12 40 56 40q24 0 92 -24l28 -12q76 -24 116 -16q64 16 92 100t-32 124q-40 28 -144 40l-72 8q-92 4 -124 12q-56 16 -60 48t28 56q16 16 72 44l36 20q60 32 80 68
q28 52 -8 124zM1576 1620q-56 0 -88 -38t-32 -90t32 -90t90 -38t92 38t34 90t-34 90t-94 38z" />
</svg>
