<?xml version="1.0" standalone="no"?>
<!DOCTYPE svg PUBLIC "-//W3C//DTD SVG 1.1//EN" "http://www.w3.org/Graphics/SVG/1.1/DTD/svg11.dtd" >
<svg xmlns="http://www.w3.org/2000/svg" xmlns:xlink="http://www.w3.org/1999/xlink" version="1.1" viewBox="-10 0 1388 2048">
   <path fill="currentColor"
d="M1368 852h-256v-96q112 -28 184 -120t72 -208h-256v-88q0 -32 -26 -58t-62 -26h-680q-36 0 -62 26t-26 58v88h-256q0 116 72 208t184 120v96h-256q0 120 72 210t184 122v96h-256q0 116 72 208t184 120v100q0 32 26 58t62 26h680q36 0 62 -26t26 -58v-100
q112 -28 184 -120t72 -208h-256v-96q112 -32 184 -122t72 -210zM940 1620h-512v-1192h512v1192zM684 1536q52 0 90 -38t38 -90t-38 -90t-90 -38t-90 38t-38 90t38 90t90 38zM684 1152q52 0 90 -38t38 -90t-38 -90t-90 -38t-90 38t-38 90t38 90t90 38zM684 768q52 0 90 -38
t38 -90t-38 -90t-90 -38t-90 38t-38 90t38 90t90 38z" />
</svg>
