<?xml version="1.0" standalone="no"?>
<!DOCTYPE svg PUBLIC "-//W3C//DTD SVG 1.1//EN" "http://www.w3.org/Graphics/SVG/1.1/DTD/svg11.dtd" >
<svg xmlns="http://www.w3.org/2000/svg" xmlns:xlink="http://www.w3.org/1999/xlink" version="1.1" viewBox="-10 0 1900 2048">
   <path fill="currentColor"
d="M516 424l-300 300q-140 140 -190 326t0 374t190 326t326 188t372 0t326 -190l512 -512q64 -60 64 -150t-64 -150q-12 -16 -32 -28l32 -32q64 -64 64 -152t-64 -152q-16 -16 -44 -36q24 -60 12 -124t-60 -112q-52 -52 -130 -60t-142 36q-12 -20 -28 -36q-64 -60 -152 -60
t-152 60l-212 216q-12 -16 -28 -32q-60 -64 -150 -64t-150 64zM636 544q12 -12 30 -12t30 12t12 30t-12 30l-272 272q76 76 76 182t-76 178l120 120q92 -88 118 -214t-22 -242l540 -536q12 -16 30 -16t30 14t12 32t-12 30l-392 392l120 120l512 -512q12 -12 30 -12t30 12
t12 30t-12 30l-512 512l120 120l424 -420q12 -16 30 -16t30 14t12 32t-12 30l-484 480l120 124l304 -304q12 -12 30 -12t30 12t12 30t-12 30l-512 512q-108 108 -250 146t-286 0t-250 -144t-144 -250t0 -286t146 -250zM1880 1452q0 136 -70 254t-188 188t-254 70v-128
q160 0 272 -112t112 -272h128zM0 596q0 -136 70 -254t188 -188t254 -70v128q-160 0 -272 112t-112 272h-128z" />
</svg>
