<?xml version="1.0" standalone="no"?>
<!DOCTYPE svg PUBLIC "-//W3C//DTD SVG 1.1//EN" "http://www.w3.org/Graphics/SVG/1.1/DTD/svg11.dtd" >
<svg xmlns="http://www.w3.org/2000/svg" xmlns:xlink="http://www.w3.org/1999/xlink" version="1.1" viewBox="-10 0 1556 2048">
   <path fill="currentColor"
d="M1536 940q0 232 -100 448t-276 368t-392 208q-216 -56 -392 -208t-276 -368t-100 -448v-512l768 -344l768 344v512zM768 1792q156 -44 294 -172t220 -304t82 -360v-420l-596 -264l-596 264v420q0 184 82 360t220 304t294 172zM512 1224q72 88 184 122t224 4t188 -122
q12 -16 6 -38t-30 -26q-84 -12 -156 -60t-116 -126t-50 -164t22 -166q8 -20 -6 -38t-34 -14q-140 28 -228 134t-92 244t88 250z" />
</svg>
