<?xml version="1.0" standalone="no"?>
<!DOCTYPE svg PUBLIC "-//W3C//DTD SVG 1.1//EN" "http://www.w3.org/Graphics/SVG/1.1/DTD/svg11.dtd" >
<svg xmlns="http://www.w3.org/2000/svg" xmlns:xlink="http://www.w3.org/1999/xlink" version="1.1" viewBox="-10 0 1900 2048">
   <path fill="currentColor"
d="M1880 1452q0 136 -70 254t-188 188t-254 70v-128q160 0 272 -112t112 -272h128zM0 596q0 -136 70 -254t188 -188t254 -70v128q-160 0 -272 112t-112 272h-128zM600 368l-392 392q-136 136 -184 318t0 362t184 316t316 184t362 0t318 -184l604 -604q28 -32 28 -74t-30 -74
t-74 -32t-76 32l-380 376l-60 -60l560 -560q32 -32 32 -76t-32 -74t-76 -30t-76 32l-496 496l-60 -60l588 -588q28 -32 28 -76t-30 -76t-74 -32t-76 32l-588 588l-60 -60l468 -468q32 -32 32 -76t-32 -74t-76 -30t-76 28l-648 652q76 100 70 230t-98 222l-64 -64
q76 -72 76 -178t-76 -182l-28 -28l348 -348q32 -32 32 -76t-32 -76t-76 -32t-76 32z" />
</svg>
