<?xml version="1.0" standalone="no"?>
<!DOCTYPE svg PUBLIC "-//W3C//DTD SVG 1.1//EN" "http://www.w3.org/Graphics/SVG/1.1/DTD/svg11.dtd" >
<svg xmlns="http://www.w3.org/2000/svg" xmlns:xlink="http://www.w3.org/1999/xlink" version="1.1" viewBox="-10 0 1724 2048">
   <path fill="currentColor"
d="M852 852q44 -12 88 -20q100 -32 164 -68q88 -56 88 -116q0 -32 -34 -136t-34 -142t36 -90q16 -24 32 -40l-68 -68q-60 32 -134 32t-138 -32q-64 32 -138 32t-134 -32l-68 68l32 40q36 52 36 90t-34 142t-34 136q0 84 168 156q88 32 172 48zM804 452l48 -112l48 112
l124 12l-96 80l28 120l-104 -64l-104 64l28 -120l-96 -80zM1620 512h-372q32 92 32 136q0 124 -172 208q-96 52 -240 84h-32q-144 -32 -240 -84q-172 -84 -172 -208q0 -44 32 -136h-372q-36 0 -60 26t-24 58v1280h680v-424h344v424h680v-1280q0 -32 -24 -58t-60 -26z
M512 1708h-344v-256h344v256zM512 1280h-344v-256h344v256zM1024 1280h-344v-256h344v256zM1536 1708h-344v-256h344v256zM1536 1280h-344v-256h344v256z" />
</svg>
