<?xml version="1.0" standalone="no"?>
<!DOCTYPE svg PUBLIC "-//W3C//DTD SVG 1.1//EN" "http://www.w3.org/Graphics/SVG/1.1/DTD/svg11.dtd" >
<svg xmlns="http://www.w3.org/2000/svg" xmlns:xlink="http://www.w3.org/1999/xlink" version="1.1" viewBox="-10 0 1724 2048">
   <path fill="currentColor"
d="M1704 1280h-168v256q0 72 -50 122t-122 50h-256v168l-256 -256l256 -256v172h256v-256h-172l256 -256zM1704 340v344q0 68 -50 118t-118 50h-856v856q0 68 -50 118t-118 50h-344q-68 0 -118 -50t-50 -118v-1368q0 -68 50 -118t118 -50h1368q68 0 118 50t50 118zM168 684
h344v-344h-344v344zM168 852v344h344v-344h-344zM512 1708v-344h-344v344h344zM1024 684v-344h-344v344h344zM1536 340h-344v344h344v-344z" />
</svg>
