<?xml version="1.0" standalone="no"?>
<!DOCTYPE svg PUBLIC "-//W3C//DTD SVG 1.1//EN" "http://www.w3.org/Graphics/SVG/1.1/DTD/svg11.dtd" >
<svg xmlns="http://www.w3.org/2000/svg" xmlns:xlink="http://www.w3.org/1999/xlink" version="1.1" viewBox="-10 0 1775 2048">
   <path fill="currentColor"
d="M883 1488l400 -540q13 -18 21.5 -47.5t9.5 -66.5t-19 -75.5t-61 -66.5q-46 -30 -95 -29t-84 20.5t-62 50.5q-39 46 -110 46q-69 0 -108 -46q-27 -31 -62 -50.5t-84.5 -20.5t-95.5 29q-40 28 -60 66.5t-19 75t9.5 66.5t21.5 48zM1755 1024.5q0 119.5 -31.5 233t-88 210
t-137.5 177.5t-177 137.5t-210 88t-233 31.5t-233 -31.5t-210.5 -88t-177.5 -137.5t-137.5 -177.5t-88 -210t-31.5 -233t31.5 -233.5t88 -210t137.5 -177t177.5 -137.5t210.5 -88.5t233 -32t233 32t210 88.5t177 137.5t137.5 177t88 210t31.5 233.5z" />
</svg>
