<?xml version="1.0" standalone="no"?>
<!DOCTYPE svg PUBLIC "-//W3C//DTD SVG 1.1//EN" "http://www.w3.org/Graphics/SVG/1.1/DTD/svg11.dtd" >
<svg xmlns="http://www.w3.org/2000/svg" xmlns:xlink="http://www.w3.org/1999/xlink" version="1.1" viewBox="-10 0 1900 2048">
   <path fill="currentColor"
d="M1880 172q-252 0 -496 112q-220 -112 -444 -112t-444 112q-244 -112 -496 -112v168q156 0 316 56q-76 56 -92 80q-52 52 -52 120v940q0 140 100 240t242 100t242 -100t100 -240v-940q0 -76 -60 -128q-48 -40 -112 -80q132 -48 256 -48t256 48q-64 40 -112 80
q-60 52 -60 128v940q0 140 100 240t242 100t242 -100t100 -240v-940q0 -68 -52 -120q-16 -24 -92 -80q160 -56 316 -56v-168zM684 596v940q0 72 -50 122t-120 50t-120 -50t-50 -122v-940l40 -36q56 -44 120 -84q112 64 180 120zM1536 596v940q0 72 -50 122t-120 50t-120 -50
t-50 -122v-940l48 -36q64 -44 132 -84q100 64 160 120z" />
</svg>
