<?xml version="1.0" standalone="no"?>
<!DOCTYPE svg PUBLIC "-//W3C//DTD SVG 1.1//EN" "http://www.w3.org/Graphics/SVG/1.1/DTD/svg11.dtd" >
<svg xmlns="http://www.w3.org/2000/svg" xmlns:xlink="http://www.w3.org/1999/xlink" version="1.1" viewBox="-10 0 1556 2048">
   <path fill="currentColor"
d="M768 384q88 0 140 16t88 52q24 20 68 84l4 4q64 88 120 148q44 40 108 100h4q52 48 68 68q24 28 32 62t8 106q0 144 -4 192q-8 68 -34 114t-94 114l-8 8q-96 92 -132 124q-60 48 -122 68t-162 20q-64 0 -104 -20q-28 -12 -72 -48l-4 -4q-56 -44 -96 -64q-68 -36 -148 -36
q-172 0 -248 -168q-52 -116 -52 -300q0 -100 36 -180q44 -96 132 -124q100 -36 180 -104q48 -40 116 -120q60 -68 84 -84q40 -28 92 -28zM768 256q-92 0 -160 48q-44 28 -112 108q-60 72 -100 104q-60 56 -140 80q-128 44 -196 172q-60 116 -60 256q0 240 84 396
q112 200 344 200q52 0 92 24q28 12 72 48q60 48 100 68q68 32 160 32q124 0 206 -28t154 -84q48 -40 152 -144q84 -84 120 -150t44 -154q8 -56 8 -208q0 -96 -16 -152t-52 -100q-24 -24 -86 -80t-102 -96q-44 -44 -112 -132q-52 -76 -84 -104q-52 -52 -120 -76
q-80 -28 -196 -28zM768 684q-140 0 -240 100t-100 240t100 240t240 100t240 -100t100 -240t-100 -240t-240 -100zM768 852q-72 0 -122 50t-50 122h-84q0 -104 76 -180t180 -76v84z" />
</svg>
