<?xml version="1.0" standalone="no"?>
<!DOCTYPE svg PUBLIC "-//W3C//DTD SVG 1.1//EN" "http://www.w3.org/Graphics/SVG/1.1/DTD/svg11.dtd" >
<svg xmlns="http://www.w3.org/2000/svg" xmlns:xlink="http://www.w3.org/1999/xlink" version="1.1" viewBox="-10 0 1724 2048">
   <path fill="currentColor"
d="M852 172q168 0 326 64t278 184t184 278t64 326t-64 326t-184 278t-278 184t-326 64t-326 -64t-278 -184t-184 -278t-64 -326q0 -232 114 -428t310 -310t428 -114zM852 340q-184 0 -342 92t-250 250t-92 342t92 342t250 250t342 92t342 -92t250 -250t92 -342
q0 -136 -52 -262t-148 -222t-222 -148t-262 -52zM980 1196l176 240q-136 100 -304 100t-304 -100l176 -240q60 40 128 40t128 -40zM852 940q36 0 60 24t24 60t-24 60t-60 24t-60 -24t-24 -60t24 -60t60 -24zM624 564l132 268q-52 28 -84 78t-32 114h-300q0 -148 78 -270
t206 -190zM1080 564q128 68 206 190t78 270h-300q0 -64 -32 -114t-84 -78z" />
</svg>
