<?xml version="1.0" standalone="no"?>
<!DOCTYPE svg PUBLIC "-//W3C//DTD SVG 1.1//EN" "http://www.w3.org/Graphics/SVG/1.1/DTD/svg11.dtd" >
<svg xmlns="http://www.w3.org/2000/svg" xmlns:xlink="http://www.w3.org/1999/xlink" version="1.1" viewBox="-10 0 1724 2048">
   <path fill="currentColor"
d="M168 1196q180 0 344 -116q156 112 340 112t340 -112q164 116 344 116h168v168h-168q-176 0 -344 -84q-160 84 -340 84t-340 -84q-168 84 -344 84h-168v-168h168zM512 1592q156 112 340 112t340 -112q164 116 344 116h168v168h-168q-176 0 -344 -84q-160 84 -340 84
t-340 -84q-168 84 -344 84h-168v-168h168q180 0 344 -116zM340 852v-256h428v-168h-428v-256l-340 340z" />
</svg>
