<?xml version="1.0" standalone="no"?>
<!DOCTYPE svg PUBLIC "-//W3C//DTD SVG 1.1//EN" "http://www.w3.org/Graphics/SVG/1.1/DTD/svg11.dtd" >
<svg xmlns="http://www.w3.org/2000/svg" xmlns:xlink="http://www.w3.org/1999/xlink" version="1.1" viewBox="-10 0 1724 2048">
   <path fill="currentColor"
d="M1704 684v-512h-512v324l-136 188h-408l-136 -188v-324h-512v512h168v680h-168v512h512v-168h680v168h512v-512h-168v-680h168zM768 852h168v172h-168v-172zM168 340h172v172h-172v-172zM340 1708h-172v-172h172v172zM1192 1536h-680v-172h-172v-680h92l164 220v292h512
v-292l164 -220h92v680h-172v172zM1536 1708h-172v-172h172v172zM1364 512v-172h172v172h-172z" />
</svg>
