<?xml version="1.0" standalone="no"?>
<!DOCTYPE svg PUBLIC "-//W3C//DTD SVG 1.1//EN" "http://www.w3.org/Graphics/SVG/1.1/DTD/svg11.dtd" >
<svg xmlns="http://www.w3.org/2000/svg" xmlns:xlink="http://www.w3.org/1999/xlink" version="1.1" viewBox="-10 0 1724 2048">
   <path fill="currentColor"
d="M1364 852v-168h172v168h-172zM1364 1024v-172h-172v172h172zM1364 684v-172h-172v172h172zM1192 244v96h172q-84 -60 -172 -96zM1364 340v172h172q-76 -96 -172 -172zM1536 512v172h96q-36 -88 -96 -172zM1704 1024q0 -84 -16 -172h-152v172h168zM1192 512v-172h-168v172
h168zM1192 1364h172v-168h-172v168zM1364 1536h172v-172h-172v172zM1192 1708h172v-172h-172v172zM1024 1860q84 -16 168 -56v-96h-168v152zM1364 1196h172v-172h-172v172zM1192 684h-168v168h168v-168zM1536 1364h96q40 -84 56 -168h-152v168zM1192 1024h-168v172h168v-172
zM852 1536v-172h172v-168h-172v-172h172v-172h-172v-168h172v-172h-172v-172h172v-152q-88 -16 -172 -16q-232 0 -428 114t-310 310t-114 428t114 428t310 310t428 114v-168h172v-172h-172zM1024 1536h168v-172h-168v172z" />
</svg>
