<?xml version="1.0" standalone="no"?>
<!DOCTYPE svg PUBLIC "-//W3C//DTD SVG 1.1//EN" "http://www.w3.org/Graphics/SVG/1.1/DTD/svg11.dtd" >
<svg xmlns="http://www.w3.org/2000/svg" xmlns:xlink="http://www.w3.org/1999/xlink" version="1.1" viewBox="-10 0 1984 2048">
   <path fill="currentColor"
d="M1460 844q-76 -76 -180 -76t-180 76t-76 180t76 180t180 76t180 -76t76 -180t-76 -180zM596 512v1024h1368v-1024h-1368zM1792 1196q-72 0 -122 50t-50 118h-680q0 -68 -50 -118t-122 -50v-344q72 0 122 -50t50 -118h680q0 68 50 118t122 50v344zM428 684h-172
q-36 0 -60 -26t-24 -60t24 -60t60 -26h172v172zM428 1108h-256q-36 0 -62 -24t-26 -60t26 -60t62 -24h256v168zM428 1536h-344q-32 0 -58 -26t-26 -60t26 -60t58 -26h344v172z" />
</svg>
