<?xml version="1.0" standalone="no"?>
<!DOCTYPE svg PUBLIC "-//W3C//DTD SVG 1.1//EN" "http://www.w3.org/Graphics/SVG/1.1/DTD/svg11.dtd" >
<svg xmlns="http://www.w3.org/2000/svg" xmlns:xlink="http://www.w3.org/1999/xlink" version="1.1" viewBox="-10 0 1724 2048">
   <path fill="currentColor"
d="M256 256q-80 0 -144 48q-52 40 -82 100t-30 108v428q0 48 30 108t82 100q64 48 142 48t170 -64v576q0 32 26 58t62 26h84q36 0 60 -26t24 -58v-1024q0 -84 -70 -186t-172 -172t-182 -70zM512 872l-180 116q-52 36 -76 36q-40 0 -68 -40q-20 -32 -20 -44v-424
q0 -20 20 -48q28 -40 66 -40t100 48t110 108t48 100v188zM1236 1280q88 0 172 -28v456q0 32 -26 58t-62 26h-168q-36 0 -62 -26t-26 -58v-456q84 28 172 28zM1236 256q-128 0 -236 64t-170 170t-62 234t62 236t170 172t236 64t236 -64t170 -172t62 -236t-62 -234t-170 -170
t-236 -64zM1236 1024q-124 0 -212 -88t-88 -212t88 -210t212 -86t212 86t88 210t-88 212t-212 88z" />
</svg>
