<?xml version="1.0" standalone="no"?>
<!DOCTYPE svg PUBLIC "-//W3C//DTD SVG 1.1//EN" "http://www.w3.org/Graphics/SVG/1.1/DTD/svg11.dtd" >
<svg xmlns="http://www.w3.org/2000/svg" xmlns:xlink="http://www.w3.org/1999/xlink" version="1.1" viewBox="-10 0 1724 2048">
   <path fill="currentColor"
d="M852 172q-232 0 -428 114t-310 310t-114 428t114 428t310 310t428 114t428 -114t310 -310t114 -428t-114 -428t-310 -310t-428 -114zM852 852q72 0 122 50t50 122t-50 122t-122 50t-122 -50t-50 -122t50 -122t122 -50zM168 1024q0 -208 116 -378t300 -250l128 316
q-92 44 -146 128t-54 184h-344zM852 1708q-196 0 -360 -104l188 -284q80 44 172 44t172 -44l188 284q-164 104 -360 104zM1192 1024q0 -100 -54 -184t-146 -128l128 -316q188 80 302 250t114 378h-344z" />
</svg>
