<?xml version="1.0" standalone="no"?>
<!DOCTYPE svg PUBLIC "-//W3C//DTD SVG 1.1//EN" "http://www.w3.org/Graphics/SVG/1.1/DTD/svg11.dtd" >
<svg xmlns="http://www.w3.org/2000/svg" xmlns:xlink="http://www.w3.org/1999/xlink" version="1.1" viewBox="-10 0 1812 2048">
   <path fill="currentColor"
d="M1792 1812l-308 -308l-376 -376l-636 -636l-364 -364l-108 108l120 124q-44 72 -44 132v428q0 48 30 108t82 100q64 48 142 48t170 -64v576q0 32 26 58t62 26h84q36 0 60 -26t24 -58v-692l384 384v308q0 32 26 58t62 26h168q28 0 50 -16t30 -44l208 208zM588 852
l-180 116q-52 36 -76 36q-40 0 -68 -40q-20 -32 -20 -44v-424q0 -8 4 -12l340 340v28zM1060 860l-212 -212q20 -176 152 -294t312 -118q128 0 236 64t170 170t62 234q0 180 -118 314t-294 154l-212 -212q72 44 156 44q124 0 212 -88t88 -212t-88 -210t-212 -86t-212 86
t-88 210q0 84 48 156z" />
</svg>
