<?xml version="1.0" standalone="no"?>
<!DOCTYPE svg PUBLIC "-//W3C//DTD SVG 1.1//EN" "http://www.w3.org/Graphics/SVG/1.1/DTD/svg11.dtd" >
<svg xmlns="http://www.w3.org/2000/svg" xmlns:xlink="http://www.w3.org/1999/xlink" version="1.1" viewBox="-10 0 1556 2048">
   <path fill="currentColor"
d="M1364 1108v-168h172v168h-172zM1536 768v-172h-172v172h172zM1536 256h-172v172h172v-172zM1196 1280h168v-172h-168v172zM1536 1452v-172h-172v172h172zM852 1452v-172h172v-172h-172v-168h172v-172h-172v-172h172v-168h-172v-172h-852v1536h852v-172h172v-168h-172z
M1024 1792h172v-172h-172v172zM1196 256h-172v172h172v-172zM1196 940h168v-172h-168v172zM1024 1452h172v-172h-172v172zM1196 1620h168v-168h-168v168zM1536 1792v-172h-172v172h172zM1024 768h172v-172h-172v172zM1024 1108h172v-168h-172v168zM1196 428v168h168v-168
h-168z" />
</svg>
