<?xml version="1.0" standalone="no"?>
<!DOCTYPE svg PUBLIC "-//W3C//DTD SVG 1.1//EN" "http://www.w3.org/Graphics/SVG/1.1/DTD/svg11.dtd" >
<svg xmlns="http://www.w3.org/2000/svg" xmlns:xlink="http://www.w3.org/1999/xlink" version="1.1" viewBox="-10 0 1812 2048">
   <path fill="currentColor"
d="M1684 1920l-236 -232h-92q-72 0 -122 -50t-50 -122v-96l-200 -200l-72 44q-60 36 -128 16t-104 -80l-128 -220q-28 -44 -24 -94t32 -90l-560 -560l108 -108l1684 1684zM1484 1088q0 -72 -48 -128l168 -96q68 -40 86 -112t-18 -136l-120 -204q-36 -64 -108 -84t-136 16
l-484 280l604 608q56 -60 56 -144zM76 1056l296 520l216 -272l-168 -296z" />
</svg>
