<?xml version="1.0" standalone="no"?>
<!DOCTYPE svg PUBLIC "-//W3C//DTD SVG 1.1//EN" "http://www.w3.org/Graphics/SVG/1.1/DTD/svg11.dtd" >
<svg xmlns="http://www.w3.org/2000/svg" xmlns:xlink="http://www.w3.org/1999/xlink" version="1.1" viewBox="-11 0 1973 2048">
   <path fill="currentColor"
d="M1634 1023.5q0 -133.5 -52.5 -255.5t-140.5 -210.5t-210 -140.5t-255.5 -52t-255.5 52t-210 140.5t-140 210.5t-52 255.5t52 255.5t140 210t210 140.5t255.5 52.5t255.5 -52.5t210 -140.5t140.5 -210t52.5 -255.5zM1950 1340q-5 17 -23 23l-334 110v349q0 18 -15 30
q-18 12 -33 5l-334 -108l-205 284q-12 15 -30.5 15t-29.5 -15l-205 -284l-334 108q-16 7 -33 -5q-15 -12 -15 -30v-349l-334 -110q-19 -6 -23 -23q-6 -20 5 -33l206 -283l-206 -284q-10 -15 -5 -33q4 -18 23 -23l334 -110v-349q0 -19 15 -30q17 -12 33 -5l334 108l205 -284
q10 -14 29.5 -14t30.5 14l205 284l334 -108q15 -7 33 5q15 11 15 30v349l334 110q18 5 23 23t-5 33l-206 284l206 283q10 13 5 33z" />
</svg>
