<?xml version="1.0" standalone="no"?>
<!DOCTYPE svg PUBLIC "-//W3C//DTD SVG 1.1//EN" "http://www.w3.org/Graphics/SVG/1.1/DTD/svg11.dtd" >
<svg xmlns="http://www.w3.org/2000/svg" xmlns:xlink="http://www.w3.org/1999/xlink" version="1.1" viewBox="-10 0 1900 2048">
   <path fill="currentColor"
d="M1880 684v680l-256 88l-264 -472q-16 -28 -50 -18t-30 46l88 784l-856 -340l100 -688q20 -144 104 -260t210 -182t270 -66h684l-136 204q60 32 98 92t38 132zM256 428h308q60 -96 156 -172h-464q-32 0 -58 26t-26 60t26 60t58 26zM416 940h-328q-36 0 -62 24t-26 60
t26 60t62 24h300zM172 768h268l4 -28q8 -72 32 -144h-304q-36 0 -60 26t-24 60t24 60t60 26z" />
</svg>
