<?xml version="1.0" standalone="no"?>
<!DOCTYPE svg PUBLIC "-//W3C//DTD SVG 1.1//EN" "http://www.w3.org/Graphics/SVG/1.1/DTD/svg11.dtd" >
<svg xmlns="http://www.w3.org/2000/svg" xmlns:xlink="http://www.w3.org/1999/xlink" version="1.1" viewBox="-10 0 1701 2048">
   <path fill="currentColor"
d="M1442 1489q-59 10 -125 10q-156 0 -298.5 -61t-245 -163.5t-163.5 -245t-61 -298.5q0 -223 118 -408q-151 45 -269.5 147t-185 246.5t-66.5 307.5q0 148 58 283.5t156.5 233.5t234 156t283.5 58q165 0 313 -70.5t251 -195.5zM1674 1392q-107 232 -323.5 370.5
t-472.5 138.5q-119 0 -232.5 -31.5t-210 -88t-177.5 -138t-138 -177.5t-88.5 -209.5t-31.5 -232.5q0 -175 66 -334t178.5 -276t269.5 -189t331 -78q23 -1 42 11.5t27 33.5q9 22 4.5 44t-21.5 38q-98 89 -150 207t-52 250q0 126 49.5 241.5t132.5 198.5t198.5 132.5
t241.5 49.5q134 0 260 -59q46 -21 82 15q16 16 20.5 39.5t-5.5 43.5z" />
</svg>
