<?xml version="1.0" standalone="no"?>
<!DOCTYPE svg PUBLIC "-//W3C//DTD SVG 1.1//EN" "http://www.w3.org/Graphics/SVG/1.1/DTD/svg11.dtd" >
<svg xmlns="http://www.w3.org/2000/svg" xmlns:xlink="http://www.w3.org/1999/xlink" version="1.1" viewBox="-10 0 1891 2048">
   <path fill="currentColor"
d="M1172 1006q-128 68 -208 184l-152 -284l-332 332l32 212l-92 92l-148 -272l-272 -152l88 -92l212 32l332 -332l-632 -332l120 -120l784 180l332 -332q36 -36 90 -36t92 36t38 90t-40 90l-332 332zM1860 1654q4 0 4 6t-4 10l-88 148q-8 8 -24 8l-104 -36l-68 44l-16 112
q0 4 -6 10t-10 6h-172q-8 0 -24 -16l-20 -112q-36 -12 -68 -44l-100 44q-16 0 -28 -8l-84 -144q-8 -12 8 -28l96 -68v-84l-96 -68q-8 -8 -8 -28l84 -144q12 -8 28 -8l100 44l68 -44l20 -112q0 -16 24 -16h172q4 0 10 6t6 10l16 112q28 8 80 44l100 -44q28 0 28 8l84 144
q8 8 -8 28l-96 68v84zM1576 1534q0 -48 -38 -88t-88 -40t-90 40t-40 90t40 88t90 38t88 -38t38 -90z" />
</svg>
