<?xml version="1.0" standalone="no"?>
<!DOCTYPE svg PUBLIC "-//W3C//DTD SVG 1.1//EN" "http://www.w3.org/Graphics/SVG/1.1/DTD/svg11.dtd" >
<svg xmlns="http://www.w3.org/2000/svg" xmlns:xlink="http://www.w3.org/1999/xlink" version="1.1" viewBox="-10 0 1724 2048">
   <path fill="currentColor"
d="M1136 944q-76 52 -126 130t-66 170l-132 -252l-332 332l32 212l-92 92l-148 -272l-272 -152l88 -92l212 32l332 -332l-632 -332l120 -120l784 180l332 -332q36 -36 90 -36t92 36t38 90t-40 90l-332 332zM1704 1324q0 136 -148 360q-76 112 -148 192l-80 -92
q-88 -116 -144 -220q-76 -144 -76 -240q0 -124 88 -212t210 -88t210 88t88 212zM1508 1332q0 -40 -32 -72t-70 -32t-70 30t-32 72t30 72t74 30t76 -32t24 -68z" />
</svg>
