<?xml version="1.0" standalone="no"?>
<!DOCTYPE svg PUBLIC "-//W3C//DTD SVG 1.1//EN" "http://www.w3.org/Graphics/SVG/1.1/DTD/svg11.dtd" >
<svg xmlns="http://www.w3.org/2000/svg" xmlns:xlink="http://www.w3.org/1999/xlink" version="1.1" viewBox="-10 0 1556 2048">
   <path fill="currentColor"
d="M768 406q-72 0 -122 50t-50 118v88h-296q-44 0 -76 24t-48 60l-176 512v684q0 32 26 58t58 26h88q32 0 58 -26t26 -58v-88h1024v88q0 32 26 58t58 26h88q32 0 58 -26t26 -58v-684l-176 -512q-16 -36 -48 -60t-76 -24h-296v-88q0 -68 -50 -118t-122 -50zM300 790h936
l128 384h-1192zM300 1342q52 0 90 38t38 92t-38 90t-92 36t-90 -36t-36 -90t36 -92t92 -38zM1236 1342q56 0 92 38t36 92t-36 90t-90 36t-92 -36t-38 -90t38 -92t90 -38zM1128 270q-80 -72 -172 -110t-188 -38t-188 38t-172 110l-68 -72q88 -88 200 -132t228 -44t228 44
t200 132zM1048 338l-68 68q-84 -88 -212 -88t-212 88l-68 -68q56 -60 130 -90t150 -30t150 30t130 90z" />
</svg>
