<?xml version="1.0" standalone="no"?>
<!DOCTYPE svg PUBLIC "-//W3C//DTD SVG 1.1//EN" "http://www.w3.org/Graphics/SVG/1.1/DTD/svg11.dtd" >
<svg xmlns="http://www.w3.org/2000/svg" xmlns:xlink="http://www.w3.org/1999/xlink" version="1.1" viewBox="-10 0 1556 2048">
   <path fill="currentColor"
d="M1536 596v1280h-1536v-168h1364v-1112h-364q-24 40 -62 64t-86 24q0 68 -50 118t-118 50h-256q-72 0 -122 -50t-50 -118v-344q0 -68 50 -118t122 -50h256q68 0 118 50t50 118q48 0 86 24t62 64h364q72 0 122 50t50 118zM256 1280h596l-168 -340h-256z" />
</svg>
