<?xml version="1.0" standalone="no"?>
<!DOCTYPE svg PUBLIC "-//W3C//DTD SVG 1.1//EN" "http://www.w3.org/Graphics/SVG/1.1/DTD/svg11.dtd" >
<svg xmlns="http://www.w3.org/2000/svg" xmlns:xlink="http://www.w3.org/1999/xlink" version="1.1" viewBox="-10 0 1724 2048">
   <path fill="currentColor"
d="M1448 172v168h-596q-72 0 -122 50t-50 122v256h172v-256h596v172l256 -256zM1448 768v172h-424v168h424v172l256 -256zM772 852q-72 0 -122 50t-52 122t48 122t120 50t120 -50t50 -120t-48 -120t-116 -54zM0 940v168h512v-168h-512zM680 1280v256q0 72 50 122t122 50h596
v168l256 -256l-256 -256v172h-596v-256h-172z" />
</svg>
