<?xml version="1.0" standalone="no"?>
<!DOCTYPE svg PUBLIC "-//W3C//DTD SVG 1.1//EN" "http://www.w3.org/Graphics/SVG/1.1/DTD/svg11.dtd" >
<svg xmlns="http://www.w3.org/2000/svg" xmlns:xlink="http://www.w3.org/1999/xlink" version="1.1" viewBox="-10 0 1922 2048">
   <path fill="currentColor"
d="M1170 950.5q0 -30.5 -21.5 -51.5t-51.5 -21h-292q-30 0 -51.5 21t-21.5 51.5t21.5 52t51.5 21.5h292q30 0 51.5 -21.5t21.5 -52zM1829 732v1096q0 30 -21.5 52t-51.5 22h-1610q-30 0 -51.5 -22t-21.5 -52v-1096q0 -30 21.5 -52t51.5 -22h1610q30 0 51.5 22t21.5 52z
M1902 220v292q0 30 -21.5 52t-51.5 22h-1756q-30 0 -51.5 -22t-21.5 -52v-292q0 -30 21.5 -52t51.5 -22h1756q30 0 51.5 22t21.5 52z" />
</svg>
