<?xml version="1.0" standalone="no"?>
<!DOCTYPE svg PUBLIC "-//W3C//DTD SVG 1.1//EN" "http://www.w3.org/Graphics/SVG/1.1/DTD/svg11.dtd" >
<svg xmlns="http://www.w3.org/2000/svg" xmlns:xlink="http://www.w3.org/1999/xlink" version="1.1" viewBox="-10 0 1900 2048">
   <path fill="currentColor"
d="M1452 1364h-48l-72 -68q120 -160 120 -356q0 -164 -80 -302t-218 -218t-298 -80q-200 0 -360 120q-132 100 -192 246t-42 304t114 288t244 190t306 42t286 -114l68 68v52l428 428l172 -172zM856 1364q-116 0 -214 -56t-156 -154t-58 -214t58 -214t156 -156t214 -58
t214 58t154 156t56 214t-56 214t-154 154t-214 56zM172 512l-172 172v-600h600l-172 172h-256v256zM1708 84v600l-172 -172v-256h-256l-168 -172h596zM428 1620l172 172h-600v-596l172 168v256h256z" />
</svg>
