<?xml version="1.0" standalone="no"?>
<!DOCTYPE svg PUBLIC "-//W3C//DTD SVG 1.1//EN" "http://www.w3.org/Graphics/SVG/1.1/DTD/svg11.dtd" >
<svg xmlns="http://www.w3.org/2000/svg" xmlns:xlink="http://www.w3.org/1999/xlink" version="1.1" viewBox="-10 0 1772 2048">
   <path fill="currentColor"
d="M1192 1156q-116 68 -184 184l-196 -372l-332 332l32 212l-92 92l-148 -272l-272 -152l88 -92l212 32l332 -332l-632 -332l120 -120l784 180l332 -332q36 -36 90 -36t92 36t38 90t-40 90l-332 332zM1752 1416l-120 -120l-184 180l-180 -180l-120 120l180 180l-180 184
l120 120l180 -184l184 184l120 -120l-184 -184z" />
</svg>
