<?xml version="1.0" standalone="no"?>
<!DOCTYPE svg PUBLIC "-//W3C//DTD SVG 1.1//EN" "http://www.w3.org/Graphics/SVG/1.1/DTD/svg11.dtd" >
<svg xmlns="http://www.w3.org/2000/svg" xmlns:xlink="http://www.w3.org/1999/xlink" version="1.1" viewBox="-10 0 1848 2048">
   <path fill="currentColor"
d="M1828 1152q0 30 -21.5 51.5t-51.5 21.5h-256q0 195 -77 331l238 239q22 22 22 51.5t-22 51.5q-21 22 -51 22q-31 0 -52 -22l-226 -225q-6 6 -17.5 15t-47.5 32.5t-74 41.5t-94.5 33t-110.5 15v-1024h-146v1024q-58 0 -116 -15.5t-100 -37.5t-75 -44.5t-50 -38.5l-17 -15
l-209 237q-22 24 -55 24q-27 0 -49 -19q-22 -20 -24 -50.5t18 -53.5l231 -259q-66 -130 -66 -313h-256q-30 0 -51.5 -21.5t-21.5 -51.5t21.5 -51.5t51.5 -21.5h256v-336l-198 -198q-22 -22 -22 -51.5t22 -51.5t51.5 -22t51.5 22l198 198h964l198 -198q22 -22 51.5 -22
t51.5 22t22 51.5t-22 51.5l-198 198v336h256q30 0 51.5 21.5t21.5 51.5zM1280 493h-732q0 -151 107 -258t259 -107t259 107t107 258z" />
</svg>
