<?xml version="1.0" standalone="no"?>
<!DOCTYPE svg PUBLIC "-//W3C//DTD SVG 1.1//EN" "http://www.w3.org/Graphics/SVG/1.1/DTD/svg11.dtd" >
<svg xmlns="http://www.w3.org/2000/svg" xmlns:xlink="http://www.w3.org/1999/xlink" version="1.1" viewBox="-10 0 1555 2048">
   <path fill="currentColor"
d="M1535 1668l-124 124l-548 -548l124 -124zM863 256q-168 0 -326 64t-282 188h-4q-164 168 -222 390t0 444t222 386l1220 -1220q-124 -124 -282 -188t-326 -64zM267 1472q-96 -160 -96 -352q0 -116 36 -228q28 252 180 464zM511 1232q-88 -132 -120 -284t0 -300
q88 -16 148 -16q236 0 436 136zM635 464q112 -36 228 -36q192 0 352 96l-116 120q-212 -152 -464 -180z" />
</svg>
