<?xml version="1.0" standalone="no"?>
<!DOCTYPE svg PUBLIC "-//W3C//DTD SVG 1.1//EN" "http://www.w3.org/Graphics/SVG/1.1/DTD/svg11.dtd" >
<svg xmlns="http://www.w3.org/2000/svg" xmlns:xlink="http://www.w3.org/1999/xlink" version="1.1" viewBox="-10 0 1559 2048">
   <path fill="currentColor"
d="M867 1245l124 -124l548 548l-124 124zM1235 753l244 -244q-168 -164 -390 -224t-444 -2t-386 226q252 -84 514 -18t462 262zM255 513q-168 164 -226 386t2 444t224 390l244 -244q-196 -200 -262 -462t18 -514zM255 509q-24 200 72 430t296 426l488 -488
q-196 -200 -426 -296t-430 -72z" />
</svg>
