<?xml version="1.0" standalone="no"?>
<!DOCTYPE svg PUBLIC "-//W3C//DTD SVG 1.1//EN" "http://www.w3.org/Graphics/SVG/1.1/DTD/svg11.dtd" >
<svg xmlns="http://www.w3.org/2000/svg" xmlns:xlink="http://www.w3.org/1999/xlink" version="1.1" viewBox="-10 0 1388 2048">
   <path fill="currentColor"
d="M1232 1088q0 -88 -64 -150t-152 -62q-68 0 -120 36v-16q0 -88 -62 -150t-150 -62t-150 62t-62 150v16q-52 -36 -120 -36q-88 0 -152 62t-64 150q0 64 34 114t90 78q-56 28 -90 78t-34 114q0 88 64 150t152 62q64 0 120 -36v16q0 88 62 150t150 62t150 -62t62 -150v-16
q56 36 120 36q88 0 152 -62t64 -150q0 -64 -34 -114t-90 -78q56 -28 90 -78t34 -114zM684 1492q-88 0 -150 -62t-62 -150t62 -150t150 -62t150 62t62 150t-62 150t-150 62zM600 512q0 -36 24 -60t60 -24t60 24t24 60t-24 60t-60 24t-60 -24t-24 -60zM256 684q0 -36 26 -62
t60 -26t60 26t26 60t-26 60t-60 26t-60 -26t-26 -58zM88 512q-36 0 -62 -26t-26 -60t26 -60t60 -26t60 26t26 60t-26 60t-58 26zM344 256q0 -36 24 -60t60 -24t60 24t24 60t-24 60t-60 24t-60 -24t-24 -60zM856 256q0 -36 24 -60t60 -24t60 24t24 60t-24 60t-60 24t-60 -24
t-24 -60zM1368 428q0 32 -26 58t-60 26t-60 -26t-26 -60t26 -60t60 -26t60 26t26 62zM1024 596q36 0 62 26t26 60t-26 60t-60 26t-60 -26t-26 -60t26 -60t58 -26z" />
</svg>
