<?xml version="1.0" standalone="no"?>
<!DOCTYPE svg PUBLIC "-//W3C//DTD SVG 1.1//EN" "http://www.w3.org/Graphics/SVG/1.1/DTD/svg11.dtd" >
<svg xmlns="http://www.w3.org/2000/svg" xmlns:xlink="http://www.w3.org/1999/xlink" version="1.1" viewBox="-10 0 1388 2048">
   <path fill="currentColor"
d="M600 512q0 -36 24 -60t60 -24t60 24t24 60t-24 60t-60 24t-60 -24t-24 -60zM344 768q32 0 58 -26t26 -60t-26 -60t-60 -26t-60 26t-26 60t26 60t62 26zM172 428q0 -36 -26 -62t-60 -26t-60 26t-26 60t26 60t60 26t60 -26t26 -58zM428 340q36 0 60 -24t24 -60t-24 -60
t-60 -24t-60 24t-24 60t24 60t60 24zM940 340q36 0 60 -24t24 -60t-24 -60t-60 -24t-60 24t-24 60t24 60t60 24zM1280 340q-32 0 -58 26t-26 60t26 60t60 26t60 -26t26 -60t-26 -60t-62 -26zM940 684q0 32 26 58t60 26t60 -26t26 -60t-26 -60t-60 -26t-60 26t-26 62z
M1240 1116q0 92 -60 164q60 76 60 164q0 112 -80 190t-192 78h-36q-32 72 -98 118t-150 46t-150 -46t-98 -118h-36q-112 0 -192 -78t-80 -190q0 -92 60 -164q-60 -76 -60 -164q0 -112 80 -190t192 -78h36q32 -72 98 -118t150 -46t150 46t98 118h36q112 0 192 78t80 190z
M300 1116q0 28 16 52t40 36l76 32q16 -92 92 -152l-72 -48q-24 -16 -52 -16q-40 0 -70 28t-30 68zM524 1476q-76 -60 -92 -152l-76 32q-24 12 -40 36t-16 52q0 40 30 68t70 28q32 0 56 -16zM780 1612l-8 -92q-44 16 -88 16t-84 -16l-12 92q0 40 28 68t68 28t68 -28t28 -68z
M780 948q0 -40 -28 -68t-68 -28t-68 28t-28 68l12 92q40 -16 84 -16t88 16zM1068 1444q0 -28 -16 -52t-40 -36l-76 -36q-16 96 -92 156l72 48q24 16 52 16q40 0 70 -28t30 -68zM1068 1116q0 -40 -30 -68t-70 -28q-28 0 -56 16l-68 48q76 60 92 152l72 -32q28 -12 44 -36
t16 -52z" />
</svg>
