<?xml version="1.0" standalone="no"?>
<!DOCTYPE svg PUBLIC "-//W3C//DTD SVG 1.1//EN" "http://www.w3.org/Graphics/SVG/1.1/DTD/svg11.dtd" >
<svg xmlns="http://www.w3.org/2000/svg" xmlns:xlink="http://www.w3.org/1999/xlink" version="1.1" viewBox="-10 0 1476 2048">
   <path fill="currentColor"
d="M1420 302l-332 332l180 784l-120 124l-336 -636l-328 332l32 212l-92 92l-152 -272l-272 -152l92 -92l208 32l336 -332l-636 -332l120 -120l784 180l332 -332q40 -36 92 -36t90 36t38 90t-36 90zM300 1962h172v-172h-172v172zM644 1962h168v-172h-168v172zM984 1962h172
v-172h-172v172z" />
</svg>
