<?xml version="1.0" standalone="no"?>
<!DOCTYPE svg PUBLIC "-//W3C//DTD SVG 1.1//EN" "http://www.w3.org/Graphics/SVG/1.1/DTD/svg11.dtd" >
<svg xmlns="http://www.w3.org/2000/svg" xmlns:xlink="http://www.w3.org/1999/xlink" version="1.1" viewBox="-10 0 1556 2048">
   <path fill="currentColor"
d="M1160 812q36 -104 36 -172q0 -128 -58 -236t-156 -170t-214 -62t-214 62t-156 170t-58 236q0 104 36 172q-160 4 -268 108t-108 260t110 256t274 100l60 -4q68 -4 124 -20q76 -24 116 -60v28q0 40 -12 88q-16 64 -52 136q-40 84 -108 172h512q-124 -160 -160 -308
q-16 -76 -12 -116q40 36 116 60q56 16 124 20l60 4q164 0 274 -100t110 -256t-108 -260t-268 -108zM1152 1364h-60q-68 -8 -124 -24q-76 -24 -116 -60h-168q-56 52 -184 76q-64 8 -116 8q-84 0 -144 -44q-68 -52 -68 -138t62 -144t150 -58q24 0 112 20q4 0 12 4t12 4
l76 -148q-16 -16 -32 -48q-52 -80 -52 -172q0 -124 74 -212t182 -88t182 88t74 212q0 104 -52 180l-24 40l76 148q4 0 12 -4t12 -4q68 -20 112 -20q92 0 152 58t60 138q-4 92 -72 144q-64 44 -148 44z" />
</svg>
