<?xml version="1.0" standalone="no"?>
<!DOCTYPE svg PUBLIC "-//W3C//DTD SVG 1.1//EN" "http://www.w3.org/Graphics/SVG/1.1/DTD/svg11.dtd" >
<svg xmlns="http://www.w3.org/2000/svg" xmlns:xlink="http://www.w3.org/1999/xlink" version="1.1" viewBox="-10 0 1388 2048">
   <path fill="currentColor"
d="M1024 1236q0 100 -32 216q-48 164 -156 324l-68 -412l80 -160q-28 0 -80 -4t-84 -4t-84 4t-80 4l80 160l-68 412q-108 -152 -156 -320q-32 -116 -32 -220q-156 48 -250 126t-94 174v340h1368v-340q0 -96 -94 -174t-250 -126zM172 384q0 -60 68 -108t186 -76t258 -28
t258 28t186 76t68 108q0 44 -44 84q-56 -56 -182 -92t-286 -36t-286 36t-182 92q-44 -40 -44 -84zM1016 632q8 16 8 52q0 140 -100 240t-240 100t-240 -100t-100 -240q0 -36 8 -52q128 52 332 52t332 -52zM1076 520q-168 76 -392 76t-392 -76q48 -40 152 -66t240 -26t240 26
t152 66z" />
</svg>
