<?xml version="1.0" standalone="no"?>
<!DOCTYPE svg PUBLIC "-//W3C//DTD SVG 1.1//EN" "http://www.w3.org/Graphics/SVG/1.1/DTD/svg11.dtd" >
<svg xmlns="http://www.w3.org/2000/svg" xmlns:xlink="http://www.w3.org/1999/xlink" version="1.1" viewBox="-10 0 1724 2048">
   <path fill="currentColor"
d="M1504 824l-28 -80l156 -60q-56 -136 -158 -242t-234 -174l-68 152l-80 -36l68 -152q-152 -60 -308 -60q-112 0 -260 40l60 160l-80 28l-60 -156q-136 56 -242 158t-174 234l152 68l-36 80l-152 -68q-60 152 -60 308q0 112 40 260l160 -60l28 80l-156 60q56 136 158 242
t234 174l68 -152l80 36l-68 152q152 60 308 60q112 0 260 -40l-60 -160l80 -28l60 156q136 -56 242 -158t174 -234l-152 -68l36 -80l152 68q60 -152 60 -308q0 -112 -40 -260zM1048 1496q-128 52 -264 34t-244 -100t-160 -210t-34 -264t100 -244t210 -160t264 -34t244 100
t162 210t34 264t-102 244t-210 160z" />
</svg>
