<?xml version="1.0" standalone="no"?>
<!DOCTYPE svg PUBLIC "-//W3C//DTD SVG 1.1//EN" "http://www.w3.org/Graphics/SVG/1.1/DTD/svg11.dtd" >
<svg xmlns="http://www.w3.org/2000/svg" xmlns:xlink="http://www.w3.org/1999/xlink" version="1.1" viewBox="-10 0 2216 2048">
   <path fill="currentColor"
d="M2192 488q26 73 -172 336q-27 36 -73 95q-35 45 -50 64.5t-33 50t-23 40t-4.5 33t5.5 31.5t24 32.5t34.5 38.5t51.5 48q4 3 6 5q28 26 53.5 51t44.5 45.5t35 39t28 33.5t21 27.5t15.5 22.5t10.5 16t7 11.5l3 5.5q1 3 3.5 7.5t7 18t6 25.5t-1.5 27t-12.5 25.5t-31 18
t-52.5 7.5l-293 5q-28 6 -64.5 -5.5t-59.5 -25.5l-22 -14q-29 -20 -64.5 -56t-64 -70t-58 -64.5t-57 -46t-49.5 -8.5q-3 1 -9 4t-20 17t-24.5 34t-19 59t-7.5 88q0 17 -4 31.5t-9 20.5l-4 6q-20 22 -60 25h-132q-59 4 -121 -8t-113.5 -33.5t-100.5 -48.5t-86 -54.5
t-65.5 -51t-42.5 -37.5l-15 -15q-11 -12 -31.5 -34.5t-81.5 -103.5t-121 -173t-140.5 -241.5t-148.5 -310.5q-7 -19 -7 -31.5t4 -18.5l4 -6q2 -2 6 -5.5t21 -9.5t38 -6l313 -3q13 2 25.5 7.5t18.5 9.5l6 4q19 13 28 37q23 57 52.5 118t47.5 94l18 32q28 57 54 102t47.5 73.5
t42 48t36.5 26.5t30.5 8.5t25.5 -6.5l3 -3t8 -10.5t11 -22.5t11.5 -38.5t9 -57.5t5 -80.5t-1.5 -107.5q-2 -46 -10.5 -83.5t-15.5 -51.5l-7 -15q-30 -40 -97 -49q-14 -1 5 -26q18 -23 44 -36q38 -18 101.5 -23t171.5 -4q97 1 154 14q20 5 34 14t23 20.5t13.5 31t6 38.5t1 50
t-1.5 59.5t-2.5 73t-1.5 83.5q0 12 -1 48t-0.5 55t3.5 46t13 44.5t26 27.5q6 4 12.5 5t18 -3t24 -13.5t31 -28.5t39 -46t48 -68t57.5 -93q68 -119 122 -257q4 -11 11 -19.5t13 -12.5l5 -3q2 -1 5.5 -2.5t15 -3.5t22.5 -1l329 -2q29 -3 50 -1t33.5 7.5t20 11.5t9.5 10z" />
</svg>
