<?xml version="1.0" standalone="no"?>
<!DOCTYPE svg PUBLIC "-//W3C//DTD SVG 1.1//EN" "http://www.w3.org/Graphics/SVG/1.1/DTD/svg11.dtd" >
<svg xmlns="http://www.w3.org/2000/svg" xmlns:xlink="http://www.w3.org/1999/xlink" version="1.1" viewBox="-10 0 1807 2048">
   <path fill="currentColor"
d="M680 210q-140 0 -240 100t-100 242t100 242t242 100t242 -100t100 -242t-100 -242t-244 -100zM680 722q-68 0 -118 -50t-50 -120t50 -120t120 -50t120 50t50 120t-50 120t-122 50zM1784 1678l-352 -348q28 -68 12 -142t-72 -128t-132 -66t-148 20l160 160l-120 120
l-168 -168q-32 68 -20 146t70 138t128 76t138 -12l348 352q12 12 28 12t24 -12l84 -88q20 -16 22 -34t-2 -26zM604 1150q-8 24 -8 84q0 96 24 172h-452v-84q0 -24 54 -62t146 -66q108 -36 236 -44zM680 978q-184 0 -340 46t-248 126t-92 172v256h936q-76 -60 -122 -150
t-46 -194q0 -144 76 -248q-24 0 -78 -4t-86 -4z" />
</svg>
