<?xml version="1.0" standalone="no"?>
<!DOCTYPE svg PUBLIC "-//W3C//DTD SVG 1.1//EN" "http://www.w3.org/Graphics/SVG/1.1/DTD/svg11.dtd" >
<svg xmlns="http://www.w3.org/2000/svg" xmlns:xlink="http://www.w3.org/1999/xlink" version="1.1" viewBox="-10 0 1212 2048">
   <path fill="currentColor"
d="M1024 172h-856q-68 0 -118 50t-50 118v1368q0 68 50 118t118 50h856q68 0 118 -50t50 -118v-1368q0 -68 -50 -118t-118 -50zM748 1280q-48 0 -100 -24l76 196h-256l76 -196q-52 24 -100 24q-80 0 -134 -56t-54 -134t68 -166q44 -56 184 -188l36 -36l52 -44l52 44l36 36
q140 132 184 188q68 88 68 168t-54 134t-134 54z" />
</svg>
