<?xml version="1.0" standalone="no"?>
<!DOCTYPE svg PUBLIC "-//W3C//DTD SVG 1.1//EN" "http://www.w3.org/Graphics/SVG/1.1/DTD/svg11.dtd" >
<svg xmlns="http://www.w3.org/2000/svg" xmlns:xlink="http://www.w3.org/1999/xlink" version="1.1" viewBox="-10 0 1212 2048">
   <path fill="currentColor"
d="M1024 172h-856q-68 0 -118 50t-50 118v1368q0 68 50 118t118 50h856q68 0 118 -50t50 -118v-1368q0 -68 -50 -118t-118 -50zM768 1280q-68 0 -128 -60l84 232h-256l84 -232q-60 60 -128 60t-118 -50t-50 -120t50 -120t118 -50h28q-28 -40 -28 -88q0 -68 50 -118t122 -50
t122 50t50 118q0 48 -28 88h28q68 0 118 50t50 120t-50 120t-118 50z" />
</svg>
