<?xml version="1.0" standalone="no"?>
<!DOCTYPE svg PUBLIC "-//W3C//DTD SVG 1.1//EN" "http://www.w3.org/Graphics/SVG/1.1/DTD/svg11.dtd" >
<svg xmlns="http://www.w3.org/2000/svg" xmlns:xlink="http://www.w3.org/1999/xlink" version="1.1" viewBox="-10 0 2069 2048">
   <path fill="currentColor"
d="M771 1468q24 -40 13 -79.5t-51 -56.5q-38 -17 -83 -2t-69 53q-25 38 -14.5 77.5t48.5 58.5q40 18 85.5 3t70.5 -54zM879 1330q8 -16 4 -31.5t-20 -20.5q-16 -6 -32.5 0.5t-24.5 21.5t-4.5 29.5t19.5 21.5q16 6 33 0t25 -21zM1078 1452q-25 57 -73.5 102t-107.5 69
t-126 29.5t-130 -15.5q-60 -20 -103.5 -58.5t-65 -87t-20 -104.5t27.5 -109q53 -107 173 -159t241 -21q62 15 109.5 51.5t71.5 84t27 104t-24 114.5zM1434 1268.5q-11 -109.5 -102 -194.5t-237.5 -125t-313.5 -23q-167 16 -303 84t-209 169t-62 210.5t102.5 194.5t238 125
t313.5 24q167 -17 302.5 -85t208.5 -169t62 -210.5zM1786 1274q0 64 -30.5 132t-85.5 132.5t-139 121.5t-184 100t-226.5 68.5t-261.5 25.5q-128 0 -252.5 -24t-233.5 -71t-192.5 -111.5t-132 -152.5t-48.5 -186q0 -132 79.5 -280.5t225.5 -294.5q95 -95 198 -165.5
t193 -105t164.5 -33.5t116.5 43q74 72 23 238q-4 15 -1 22t11.5 8.5t17 -0.5t15 -4.5t6.5 -1.5q158 -67 281 -67.5t175 70.5q51 72 0 203q-4 11 -4.5 19t1 13t8.5 9t12 6t16 6q47 14 89 37.5t79 57t58.5 81.5t21.5 104zM1702 561q48 53 62.5 123t-7.5 135q-8 26 -33.5 38.5
t-51.5 4.5q-26 -9 -38.5 -33.5t-4.5 -50.5q11 -33 3.5 -67t-31.5 -60t-56.5 -36.5t-65.5 -3.5q-28 6 -51.5 -9.5t-28.5 -42.5q-6 -28 8.5 -51.5t42.5 -28.5q68 -15 136 6.5t116 75.5zM1909 374q66 73 102 164t37 183t-26 184q-11 30 -39.5 45t-59.5 5q-31 -11 -46 -39.5
t-5 -58.5q32 -94 11.5 -197.5t-91.5 -180.5q-71 -78 -169 -108.5t-198 -9.5q-31 6 -59 -12t-35 -49.5t11 -59t50 -33.5q141 -30 279.5 13t237.5 154z" />
</svg>
