<?xml version="1.0" standalone="no"?>
<!DOCTYPE svg PUBLIC "-//W3C//DTD SVG 1.1//EN" "http://www.w3.org/Graphics/SVG/1.1/DTD/svg11.dtd" >
<svg xmlns="http://www.w3.org/2000/svg" xmlns:xlink="http://www.w3.org/1999/xlink" version="1.1" viewBox="-10 0 1900 2048">
   <path fill="currentColor"
d="M1624 597q-4 -24 -8 -52q-12 -64 -48 -116q-44 -76 -124 -120q-100 -52 -248 -52q-184 0 -340 44q-100 -88 -212 -116q-212 -56 -388 120l220 220q-120 128 -180 316q-48 148 -60 332q-8 128 8 260l12 104l-40 4q-48 12 -88 40q-56 36 -88 100q-40 80 -40 196l344 -84
l340 84q0 -116 -40 -196q-32 -64 -88 -100q-40 -28 -88 -40l-40 -4l12 -52q16 -64 48 -128q40 -88 100 -160q76 -88 172 -148q120 -68 264 -92v240q116 0 180 -92q52 -64 68 -164h180q236 0 340 -56q88 -40 88 -116q0 -60 -94 -116t-162 -56zM1452 685q-36 0 -60 -26
t-24 -60t24 -60t60 -26t60 26t24 60t-24 60t-60 26z" />
</svg>
