<?xml version="1.0" standalone="no"?>
<!DOCTYPE svg PUBLIC "-//W3C//DTD SVG 1.1//EN" "http://www.w3.org/Graphics/SVG/1.1/DTD/svg11.dtd" >
<svg xmlns="http://www.w3.org/2000/svg" xmlns:xlink="http://www.w3.org/1999/xlink" version="1.1" viewBox="-10 0 1775 2048">
   <path fill="currentColor"
d="M1295 1786q-194 108 -421 108q-225 0 -419 -108q157 -99 268.5 -241t150.5 -307q40 165 152 307t269 241zM729 154v554q0 192 -67 366.5t-184.5 305t-270.5 204.5q-99 -117 -153 -261.5t-54 -304.5q0 -159 56 -307t153 -261.5t232 -191.5t288 -104zM1755 1018
q0 160 -53.5 305t-152.5 261q-153 -74 -271 -204.5t-185 -305t-67 -366.5v-554q153 26 288 104t232 191.5t153 261.5t56 307z" />
</svg>
