<?xml version="1.0" standalone="no"?>
<!DOCTYPE svg PUBLIC "-//W3C//DTD SVG 1.1//EN" "http://www.w3.org/Graphics/SVG/1.1/DTD/svg11.dtd" >
<svg xmlns="http://www.w3.org/2000/svg" xmlns:xlink="http://www.w3.org/1999/xlink" version="1.1" viewBox="-10 0 1212 2048">
   <path fill="currentColor"
d="M1024 172h-856q-68 0 -118 50t-50 118v1368q0 68 50 118t118 50h856q68 0 118 -50t50 -118v-1368q0 -68 -50 -118t-118 -50zM1024 1708h-856v-1368h856v1368zM596 656l-52 44l-36 36q-140 132 -184 188q-68 88 -68 166t54 134t134 56q48 0 100 -24l-76 196h256l-76 -196
q36 24 100 24q80 0 134 -54t54 -134t-68 -168q-44 -56 -184 -188l-36 -36z" />
</svg>
