<?xml version="1.0" standalone="no"?>
<!DOCTYPE svg PUBLIC "-//W3C//DTD SVG 1.1//EN" "http://www.w3.org/Graphics/SVG/1.1/DTD/svg11.dtd" >
<svg xmlns="http://www.w3.org/2000/svg" xmlns:xlink="http://www.w3.org/1999/xlink" version="1.1" viewBox="-10 0 1388 2048">
   <path fill="currentColor"
d="M600 1452v28q0 40 -12 88q-16 64 -52 136q-40 84 -108 172h512q-124 -160 -160 -308q-16 -76 -12 -116l28 20q40 28 88 40q64 24 144 24t160 -50t130 -128t50 -162q0 -124 -52 -236q-40 -96 -124 -196q-52 -64 -170 -184t-178 -188q-96 -112 -160 -220q-64 108 -160 220
q-60 68 -178 188t-170 184q-84 100 -124 196q-52 112 -52 236q0 84 50 162t130 128t160 50t144 -24q48 -12 88 -40zM768 1196h-168l-28 44q-40 48 -88 80q-64 44 -140 44q-60 0 -116 -56t-56 -112q-8 -120 92 -260q60 -88 220 -252q144 -148 200 -224q52 68 188 204
q168 172 228 260q104 148 96 272q0 56 -56 112t-116 56q-104 0 -192 -84q-40 -44 -64 -84z" />
</svg>
