<?xml version="1.0" standalone="no"?>
<!DOCTYPE svg PUBLIC "-//W3C//DTD SVG 1.1//EN" "http://www.w3.org/Graphics/SVG/1.1/DTD/svg11.dtd" >
<svg xmlns="http://www.w3.org/2000/svg" xmlns:xlink="http://www.w3.org/1999/xlink" version="1.1" viewBox="-10 0 1556 2048">
   <path fill="currentColor"
d="M768 84l768 344v512q0 232 -100 448t-276 368t-392 208q-216 -56 -392 -208t-276 -368t-100 -448v-512zM768 272l-596 264v420q0 184 82 360t220 304t294 172q156 -44 294 -172t220 -304t82 -360v-420zM1108 1196v128v8q-4 28 -40 32h-600q-36 -4 -40 -32v-136h680z
M1196 684l-88 424h-680l-88 -424l228 228l200 -200l200 200z" />
</svg>
