<?xml version="1.0" standalone="no"?>
<!DOCTYPE svg PUBLIC "-//W3C//DTD SVG 1.1//EN" "http://www.w3.org/Graphics/SVG/1.1/DTD/svg11.dtd" >
<svg xmlns="http://www.w3.org/2000/svg" xmlns:xlink="http://www.w3.org/1999/xlink" version="1.1" viewBox="-10 0 1900 2048">
   <path fill="currentColor"
d="M876 668l620 620q72 -24 116 -44q-24 -28 -52 -44q-68 -44 -192 -68q128 -24 220 -12q72 8 120 44l20 16q72 -48 112 -96t40 -82t-96 -86t-236 -96q-156 -48 -304 -64q-56 -116 -176 -192q-108 -72 -212 -72q28 88 20 176zM1388 864q60 16 148 40v16q0 32 -24 58t-60 26
t-60 -26t-24 -56t20 -58zM1804 1812l-108 108l-464 -464q-72 60 -120 60v-172q-160 0 -440 -84q-136 -44 -244 -84l-52 64q-60 76 -124 124q-88 68 -164 68l84 -344l-172 -512q108 0 280 172q84 84 148 172l56 -24q68 -24 140 -48l-612 -612l108 -108z" />
</svg>
