<?xml version="1.0" standalone="no"?>
<!DOCTYPE svg PUBLIC "-//W3C//DTD SVG 1.1//EN" "http://www.w3.org/Graphics/SVG/1.1/DTD/svg11.dtd" >
<svg xmlns="http://www.w3.org/2000/svg" xmlns:xlink="http://www.w3.org/1999/xlink" version="1.1" viewBox="-10 0 1684 2048">
   <path fill="currentColor"
d="M1364 428h-424v-172h424q72 0 122 50t50 122v716q-104 -36 -172 -36v-680zM596 84h172v1880h-172v-172h-424q-72 0 -122 -50t-50 -122v-1192q0 -72 50 -122t122 -50h424v-172zM596 1024l-424 512h424v-512zM1084 1196l-144 -172v316q40 -72 144 -144zM1544 1324l-180 176
l-176 -176l-120 120l176 176l-176 180l120 120l176 -180l180 180l120 -120l-180 -180l180 -176z" />
</svg>
