<?xml version="1.0" standalone="no"?>
<!DOCTYPE svg PUBLIC "-//W3C//DTD SVG 1.1//EN" "http://www.w3.org/Graphics/SVG/1.1/DTD/svg11.dtd" >
<svg xmlns="http://www.w3.org/2000/svg" xmlns:xlink="http://www.w3.org/1999/xlink" version="1.1" viewBox="-10 0 1812 2048">
   <path fill="currentColor"
d="M1792 1216v84l-680 216l-600 -164v120h-512v-940h684l528 196q68 28 112 92t44 140h168q112 0 184 74t72 182zM344 1300v-596h-172v596h172zM1616 1180q-28 -48 -80 -48h-460q-52 0 -136 -20l-196 -68l52 -160l204 68l196 8q0 -56 -52 -68l-496 -188h-136v468l600 164z
" />
</svg>
