<?xml version="1.0" standalone="no"?>
<!DOCTYPE svg PUBLIC "-//W3C//DTD SVG 1.1//EN" "http://www.w3.org/Graphics/SVG/1.1/DTD/svg11.dtd" >
<svg xmlns="http://www.w3.org/2000/svg" xmlns:xlink="http://www.w3.org/1999/xlink" version="1.1" viewBox="-10 0 1637 2048">
   <path fill="currentColor"
d="M1472 618q-220 -308 -624 -444q216 128 360 284q128 140 188 288q52 140 44 276q-8 128 -66 234t-152 174t-210 84t-232 -28q-124 -48 -232 -160l-220 40l-292 292q-36 36 -36 92t38 90t92 34t86 -36l272 -276q184 148 396 164q192 12 364 -82t274 -262t94 -364
q-4 -212 -144 -400z" />
</svg>
