<?xml version="1.0" standalone="no"?>
<!DOCTYPE svg PUBLIC "-//W3C//DTD SVG 1.1//EN" "http://www.w3.org/Graphics/SVG/1.1/DTD/svg11.dtd" >
<svg xmlns="http://www.w3.org/2000/svg" xmlns:xlink="http://www.w3.org/1999/xlink" version="1.1" viewBox="-10 0 1784 2048">
   <path fill="currentColor"
d="M740 172l-204 288q136 -32 204 -32t208 32zM1680 1176v-580q0 -68 -50 -118t-120 -50t-120 50t-50 118v580q-88 88 -88 194t74 178t184 72t182 -72t72 -184q0 -56 -22 -104t-62 -84zM1596 684h-172v-88q0 -36 24 -60t62 -24t62 24t24 60v88zM356 572l-356 24l152 324
q12 -96 68 -196q72 -96 136 -152zM740 596q-116 0 -214 58t-154 156t-56 214t56 214t154 156t216 58t216 -58t154 -156t56 -214t-56 -214t-154 -156t-218 -58zM740 1280q-108 0 -182 -74t-74 -182t74 -182t184 -74t182 74t72 182t-72 182t-184 74zM160 1128l-152 324l348 32
q-80 -80 -128 -160q-52 -76 -68 -196zM536 1588l204 288l208 -288q-140 32 -208 32q-84 0 -204 -32z" />
</svg>
