<?xml version="1.0" standalone="no"?>
<!DOCTYPE svg PUBLIC "-//W3C//DTD SVG 1.1//EN" "http://www.w3.org/Graphics/SVG/1.1/DTD/svg11.dtd" >
<svg xmlns="http://www.w3.org/2000/svg" xmlns:xlink="http://www.w3.org/1999/xlink" version="1.1" viewBox="-10 0 1900 2048">
   <path fill="currentColor"
d="M1624 684h-256v-344h-1368v1112h172q0 104 74 180t182 76t182 -76t74 -180h512q0 104 74 180t182 76t182 -76t74 -180h172v-428zM428 1580q-52 0 -90 -38t-38 -92t38 -90t90 -36t90 36t38 90t-38 92t-90 38zM1196 596h-172v600h-168v-600h-172v600h-172v-600h-168v600
h-172v-684h1024v84zM1452 1580q-52 0 -90 -38t-38 -92t38 -90t90 -36t90 36t38 90t-38 92t-90 38zM1368 1024v-212h212l168 212h-380z" />
</svg>
