<?xml version="1.0" standalone="no"?>
<!DOCTYPE svg PUBLIC "-//W3C//DTD SVG 1.1//EN" "http://www.w3.org/Graphics/SVG/1.1/DTD/svg11.dtd" >
<svg xmlns="http://www.w3.org/2000/svg" xmlns:xlink="http://www.w3.org/1999/xlink" version="1.1" viewBox="-10 0 1932 2048">
   <path fill="currentColor"
d="M932 914q-80 80 -122 182t-42 210v-300h-512v340h512v-40q0 108 44 212h-724v-512h-88v-172l88 -424h1364l76 380q-152 -60 -314 -28t-282 152zM1452 154h-1364v168h1364v-168zM1912 1774l-120 120l-264 -264q-96 60 -204 60q-160 0 -272 -112t-112 -272t112 -272
t272 -112t272 112t112 272q0 112 -60 204zM1536 1306q0 -88 -62 -152t-150 -64t-150 64t-62 152t62 150t150 62t150 -62t62 -150z" />
</svg>
