<?xml version="1.0" standalone="no"?>
<!DOCTYPE svg PUBLIC "-//W3C//DTD SVG 1.1//EN" "http://www.w3.org/Graphics/SVG/1.1/DTD/svg11.dtd" >
<svg xmlns="http://www.w3.org/2000/svg" xmlns:xlink="http://www.w3.org/1999/xlink" version="1.1" viewBox="-10 0 1688 2048">
   <path fill="currentColor"
d="M1452 404h-1368v-172h1368v172zM1084 1088h-144v144q-88 128 -88 280q0 36 8 88h-776v-512h-84v-172l84 -428h1368l84 428v116q-84 -32 -172 -32q-152 0 -280 88zM768 1088h-512v340h512v-340zM1360 916l-48 -256h-1088l-48 256h1184zM1668 1332l-120 -120l-184 180
l-180 -180l-120 120l180 180l-180 184l120 120l180 -184l184 184l120 -120l-184 -184z" />
</svg>
