<?xml version="1.0" standalone="no"?>
<!DOCTYPE svg PUBLIC "-//W3C//DTD SVG 1.1//EN" "http://www.w3.org/Graphics/SVG/1.1/DTD/svg11.dtd" >
<svg xmlns="http://www.w3.org/2000/svg" xmlns:xlink="http://www.w3.org/1999/xlink" version="1.1" viewBox="-10 0 1898 2048">
   <path fill="currentColor"
d="M546 380l-180 -184q44 -12 88 4t72 56q40 56 20 124zM1726 980q-36 0 -68 18t-52 46h-72q0 -200 -120 -356l116 -116q76 12 132 -40q44 -44 44 -106t-44 -106t-106 -44t-106 44q-52 56 -40 132l-116 116q-120 -92 -272 -116v-116q32 -24 48 -56t16 -68q0 -64 -42 -106
t-106 -42t-106 42t-42 106q0 36 16 68t48 56v116q-92 16 -180 56l800 800q24 -52 36 -92h96q20 28 52 46t68 18q64 0 108 -44t44 -106t-44 -106t-108 -44zM1802 1852l-108 108l-64 -64q-56 -4 -94 -42t-42 -94l-224 -220l-8 4q-52 32 -80 44q48 40 54 104t-36 112t-102 52
t-108 -36t-52 -104q0 -44 16 -76h-16q-116 0 -224 -40l-92 168q18 34 18 68t-18 68q-32 56 -90 74t-112 -12t-72 -90t10 -112q36 -68 116 -80l92 -172q-92 -76 -148 -176l-128 36q-28 72 -104 92q-56 16 -110 -14t-70 -90t14 -114t90 -70q76 -20 136 32l112 -32
q-16 -68 -16 -132q-52 -8 -88 -44q-40 -44 -40 -106t40 -106q32 -32 76 -40t84 8l28 -44l-432 -436l108 -108z" />
</svg>
