<?xml version="1.0" standalone="no"?>
<!DOCTYPE svg PUBLIC "-//W3C//DTD SVG 1.1//EN" "http://www.w3.org/Graphics/SVG/1.1/DTD/svg11.dtd" >
<svg xmlns="http://www.w3.org/2000/svg" xmlns:xlink="http://www.w3.org/1999/xlink" version="1.1" viewBox="-10 0 1556 2048">
   <path fill="currentColor"
d="M940 1092q-72 -68 -176 -68t-178 74t-74 182q0 84 48 148t124 92q4 -136 72 -250t184 -178zM692 1620h-520v-1192h952l240 240v384q100 36 172 104v-560l-340 -340h-1024q-72 0 -122 50t-50 122v1192q0 72 50 122t122 50h580q-48 -80 -60 -172zM256 852h768v-340h-768
v340zM1088 1792l-236 -256l100 -100l136 136l308 -304l96 120z" />
</svg>
