<?xml version="1.0" standalone="no"?>
<!DOCTYPE svg PUBLIC "-//W3C//DTD SVG 1.1//EN" "http://www.w3.org/Graphics/SVG/1.1/DTD/svg11.dtd" >
<svg xmlns="http://www.w3.org/2000/svg" xmlns:xlink="http://www.w3.org/1999/xlink" version="1.1" viewBox="-10 0 1212 2048">
   <path fill="currentColor"
d="M596 172q-160 0 -298 80t-218 218t-80 294t92 368q76 164 204 360q96 136 208 276l92 108l92 -108q112 -140 208 -276q128 -196 204 -360q92 -208 92 -366t-80 -296t-218 -218t-298 -80zM596 340q72 0 122 50t50 122t-50 122t-122 50t-122 -50t-50 -122t50 -122t122 -50z
M596 1196q-104 0 -194 -50t-146 -134q0 -76 128 -132q108 -44 212 -44t212 44q128 56 128 132q-56 84 -146 134t-194 50z" />
</svg>
