<?xml version="1.0" standalone="no"?>
<!DOCTYPE svg PUBLIC "-//W3C//DTD SVG 1.1//EN" "http://www.w3.org/Graphics/SVG/1.1/DTD/svg11.dtd" >
<svg xmlns="http://www.w3.org/2000/svg" xmlns:xlink="http://www.w3.org/1999/xlink" version="1.1" viewBox="-10 0 1898 2048">
   <path fill="currentColor"
d="M1878 1128q0 64 -44 108t-108 44q-36 0 -68 -18t-52 -46h-96q-12 40 -36 92l-132 -132q24 -72 24 -132q0 -116 -58 -214t-156 -156t-214 -58q-60 0 -132 24l-132 -132q88 -40 180 -56v-116q-32 -24 -48 -56t-16 -68q0 -64 42 -106t106 -42t106 42t42 106q0 36 -16 68
t-48 56v116q152 24 272 116l116 -116q-12 -76 40 -132q44 -44 106 -44t106 44t44 106t-44 106t-104 44q-20 0 -28 -4l-116 116q120 156 120 356h72q20 -28 52 -46t68 -18q64 0 108 44t44 104zM1802 1852l-108 108l-64 -64q-56 -4 -94 -42t-42 -94l-224 -220l-8 4
q-52 32 -80 44q48 40 54 104t-34 110t-104 54h-12q-56 0 -100 -40t-48 -100q0 -44 16 -76h-16q-116 0 -224 -40l-92 168q18 34 18 68t-18 68q-20 36 -56 58t-74 22t-74 -20q-52 -28 -70 -88t10 -112q36 -68 116 -80l92 -172q-92 -76 -148 -176l-128 36q-28 72 -104 92
q-12 8 -36 8q-52 0 -92 -30t-52 -82q-16 -60 14 -114t90 -70q12 -4 40 -4q52 0 96 36l112 -32q-16 -68 -16 -132q-52 -12 -88 -44q-40 -44 -40 -106t44 -106t104 -44q28 0 52 12l28 -44l-432 -436l108 -108zM1146 1416l-580 -580q-56 100 -56 212t58 210t156 156t212 58
t210 -56zM526 256q-44 -64 -120 -64q-20 0 -44 4l184 184q20 -68 -20 -124z" />
</svg>
