<?xml version="1.0" standalone="no"?>
<!DOCTYPE svg PUBLIC "-//W3C//DTD SVG 1.1//EN" "http://www.w3.org/Graphics/SVG/1.1/DTD/svg11.dtd" >
<svg xmlns="http://www.w3.org/2000/svg" xmlns:xlink="http://www.w3.org/1999/xlink" version="1.1" viewBox="-10 0 1740 2048">
   <path fill="currentColor"
d="M684 1708q0 68 -50 118t-120 50t-120 -50t-50 -120t50 -120t120 -50t120 50t50 122zM1368 1536q-72 0 -122 50t-50 120t50 120t120 50t120 -50t50 -120t-50 -120t-118 -50zM528 1260l4 -12l76 -140h636q48 0 88 -24t60 -64l328 -596l-148 -84l-328 600h-600l-364 -768
h-280v168h172l308 648l-116 212q-20 36 -20 80q0 72 50 122t118 50h1024v-172h-988q-8 0 -14 -6t-6 -14zM940 792l-52 -40l-36 -36q-140 -132 -184 -188q-68 -88 -68 -168t54 -134t134 -54q44 0 86 18t66 50q24 -32 66 -50t86 -18q80 0 134 52t54 134t-68 170
q-44 56 -184 188l-36 36z" />
</svg>
