<?xml version="1.0" standalone="no"?>
<!DOCTYPE svg PUBLIC "-//W3C//DTD SVG 1.1//EN" "http://www.w3.org/Graphics/SVG/1.1/DTD/svg11.dtd" >
<svg xmlns="http://www.w3.org/2000/svg" xmlns:xlink="http://www.w3.org/1999/xlink" version="1.1" viewBox="-10 0 1556 2048">
   <path fill="currentColor"
d="M1088 1632q-52 0 -90 -46t-38 -112t38 -114t90 -48t90 48t38 114t-38 112t-90 46zM768 960q-80 0 -136 -46t-56 -114t56 -114t136 -46t136 46t56 114t-56 114t-136 46zM448 1632q-52 0 -90 -46t-38 -112t38 -114t90 -48t90 48t38 114t-38 112t-90 46zM768 704q28 0 46 18
t18 46t-18 46t-46 18t-46 -18t-18 -46t18 -46t46 -18zM1344 1024q-40 0 -76 16q-64 -76 -164 -128q76 -112 76 -244v-4q72 -16 118 -72t46 -128q0 -88 -60 -148t-148 -60t-148 64q-100 -64 -220 -64t-220 64q-60 -64 -148 -64t-148 60t-60 148q0 72 46 128t118 72v4
q0 132 76 244q-100 52 -164 128q-36 -16 -76 -16q-80 0 -136 56t-56 136t56 136t136 56h4q-4 32 -4 64q0 132 74 226t182 94q64 0 118 -36t90 -100q56 8 112 8t112 -8q36 64 90 100t118 36q108 0 182 -94t74 -226q0 -32 -4 -64h4q80 0 136 -56t56 -136t-56 -136t-136 -56z
" />
</svg>
