<?xml version="1.0" standalone="no"?>
<!DOCTYPE svg PUBLIC "-//W3C//DTD SVG 1.1//EN" "http://www.w3.org/Graphics/SVG/1.1/DTD/svg11.dtd" >
<svg xmlns="http://www.w3.org/2000/svg" xmlns:xlink="http://www.w3.org/1999/xlink" version="1.1" viewBox="-10 0 1812 2048">
   <path fill="currentColor"
d="M1684 1920l-860 -860q-60 -48 -96 -68q-52 -32 -100 -32q-116 0 -196 48q-64 36 -100 104q-28 44 -40 100l-4 48h-212l4 -72q16 -88 48 -164q48 -108 132 -172q104 -84 256 -100l-516 -516l108 -108l1132 1132h-4l556 552zM1780 748h-212l-4 44q-12 56 -36 100
q-36 64 -96 104q-76 48 -188 52l192 192q120 -36 200 -120q64 -68 104 -164q24 -68 36 -144z" />
</svg>
