<?xml version="1.0" standalone="no"?>
<!DOCTYPE svg PUBLIC "-//W3C//DTD SVG 1.1//EN" "http://www.w3.org/Graphics/SVG/1.1/DTD/svg11.dtd" >
<svg xmlns="http://www.w3.org/2000/svg" xmlns:xlink="http://www.w3.org/1999/xlink" version="1.1" viewBox="-10 0 1900 2048">
   <path fill="currentColor"
d="M1196 936h128v240l208 124l-64 108l-272 -156v-316zM1464 624q-60 -164 -202 -266t-318 -102t-314 94t-202 246q-116 0 -214 58t-156 156t-58 214t58 214t156 154t214 56h316q72 156 216 250t320 94q164 0 302 -80t218 -218t80 -302q0 -196 -116 -352t-300 -216z
M428 1280q-108 0 -182 -76t-74 -182t74 -180t182 -74q44 0 92 16q24 -156 142 -258t278 -102q104 0 192 46t148 126q-160 0 -298 80t-218 218t-80 298q0 40 8 88h-264zM1280 1620q-116 0 -214 -58t-154 -156t-56 -214t56 -214t154 -154t214 -56t214 56t156 154t58 214
t-58 214t-156 156t-214 58z" />
</svg>
