<?xml version="1.0" standalone="no"?>
<!DOCTYPE svg PUBLIC "-//W3C//DTD SVG 1.1//EN" "http://www.w3.org/Graphics/SVG/1.1/DTD/svg11.dtd" >
<svg xmlns="http://www.w3.org/2000/svg" xmlns:xlink="http://www.w3.org/1999/xlink" version="1.1" viewBox="-10 0 1900 2048">
   <path fill="currentColor"
d="M940 320q-316 0 -572 178t-368 462q112 284 368 462t572 178h92q-8 -24 -8 -84q0 -48 16 -128l4 -20q-68 20 -104 20q-116 0 -214 -58t-156 -156t-58 -214t58 -214t156 -156t214 -58t214 58t156 156t58 214q0 52 -8 76q116 -32 176 -32q160 0 284 84q24 -44 60 -128
q-112 -284 -368 -462t-572 -178zM940 704q-108 0 -182 74t-74 182t74 182t182 74t182 -74t74 -182t-74 -182t-182 -74zM1536 1728v-172h-340v-168h340v-172l256 256z" />
</svg>
