<?xml version="1.0" standalone="no"?>
<!DOCTYPE svg PUBLIC "-//W3C//DTD SVG 1.1//EN" "http://www.w3.org/Graphics/SVG/1.1/DTD/svg11.dtd" >
<svg xmlns="http://www.w3.org/2000/svg" xmlns:xlink="http://www.w3.org/1999/xlink" version="1.1" viewBox="-10 0 1812 2048">
   <path fill="currentColor"
d="M1792 1816l-1680 -1692l-112 112l496 496l-8 16q-52 -64 -136 -92q-72 -24 -160 -12q-96 12 -114 60t54 112t144 78t144 -2v112q0 80 28 160t76 148q-104 100 -104 204q0 92 70 170t186 124t256 46q160 0 290 -58t186 -154l284 280zM712 936q-36 24 -36 66t24 64t66 22
t62 -32l120 120h-8q-148 0 -264 48q-84 -84 -84 -220q0 -88 32 -144zM1272 1516q0 72 -100 122t-240 50t-240 -50t-100 -122t100 -122t240 -50q124 0 220 44l120 120v8zM736 536l-164 -164q76 -100 188 -136l-8 8q-32 56 -44 112q-16 96 28 180zM872 672l-136 -136
q100 -44 196 -44t196 44q64 -124 -12 -276l-12 -24q116 40 180 132q56 72 64 172q4 84 -24 140l52 68q52 -64 136 -92q72 -24 160 -12q96 12 114 60t-54 112t-144 78t-144 -2v112q0 96 -44 196l-136 -136q0 -8 4 -30t4 -30q0 -140 -100 -240t-240 -100q-44 0 -60 8z
M1104 1560q0 16 -12 28t-32 12t-32 -12t-12 -30t12 -30t32 -12t32 12t12 32zM848 1560q0 16 -12 28t-32 12t-32 -12t-12 -30t12 -30t32 -12t32 12t12 32z" />
</svg>
