<?xml version="1.0" standalone="no"?>
<!DOCTYPE svg PUBLIC "-//W3C//DTD SVG 1.1//EN" "http://www.w3.org/Graphics/SVG/1.1/DTD/svg11.dtd" >
<svg xmlns="http://www.w3.org/2000/svg" xmlns:xlink="http://www.w3.org/1999/xlink" version="1.1" viewBox="-10 0 1728 2048">
   <path fill="currentColor"
d="M1536 948v-520q0 -72 -50 -122t-122 -50h-356q-28 -76 -94 -124t-146 -48t-146 48t-94 124h-356q-72 0 -122 50t-50 122v1192q0 72 50 122t122 50h520q84 80 190 126t226 46q164 0 302 -80t218 -218t80 -302q0 -120 -46 -226t-126 -190zM768 256q36 0 60 26t24 60t-24 60
t-60 26t-60 -26t-24 -60t24 -60t60 -26zM172 1620v-1192h168v168h856v-168h168v400q-120 -60 -256 -60h-768v172h352q-72 68 -120 168h-232v172h180q-8 44 -8 84q0 136 60 256h-400zM1108 1792q-116 0 -214 -58t-154 -156t-56 -214t56 -214t154 -154t214 -56t214 56t156 154
t58 214t-58 214t-156 156t-214 58zM1152 1388l244 144l-64 104l-308 -184v-428h128v364z" />
</svg>
