<?xml version="1.0" standalone="no"?>
<!DOCTYPE svg PUBLIC "-//W3C//DTD SVG 1.1//EN" "http://www.w3.org/Graphics/SVG/1.1/DTD/svg11.dtd" >
<svg xmlns="http://www.w3.org/2000/svg" xmlns:xlink="http://www.w3.org/1999/xlink" version="1.1" viewBox="-10 0 1724 2048">
   <path fill="currentColor"
d="M516 1396v-4q56 -144 100 -216q68 -120 164 -196q116 -88 284 -128l-68 8q-84 12 -160 44q-108 40 -188 116q-100 92 -148 228l-20 -24q-20 -28 -36 -56q-20 -44 -20 -80q0 -48 32 -108q36 -72 96 -120q72 -60 172 -80t196 -32q160 -20 232 -40q108 -28 128 -68l-20 76
q-24 92 -56 180q-48 120 -108 216q-80 116 -172 176q-112 76 -244 76q-20 0 -56 -12l-40 100l-80 -28zM852 340q184 0 342 92t250 250t92 342t-92 342t-250 250t-342 92t-342 -92t-250 -250t-92 -342t92 -342t250 -250t342 -92zM852 172q-232 0 -428 114t-310 310t-114 428
t114 428t310 310t428 114t428 -114t310 -310t114 -428t-114 -428t-310 -310t-428 -114z" />
</svg>
