<?xml version="1.0" standalone="no"?>
<!DOCTYPE svg PUBLIC "-//W3C//DTD SVG 1.1//EN" "http://www.w3.org/Graphics/SVG/1.1/DTD/svg11.dtd" >
<svg xmlns="http://www.w3.org/2000/svg" xmlns:xlink="http://www.w3.org/1999/xlink" version="1.1" viewBox="-10 0 1900 2048">
   <path fill="currentColor"
d="M1880 596v512h-172v-512h172zM1708 1452h172v-172h-172v172zM0 768v172h344q4 -32 8 -88t8 -84h-360zM344 1108h-344v172h360q-4 -28 -8 -84t-8 -88zM420 548q4 -40 36 -96l16 -24h-472v168h404q4 -8 8 -24t8 -24zM0 1452v168h480q-56 -80 -76 -168h-404zM768 408
q-120 0 -192 192q-64 176 -64 424t64 424q72 192 192 192q180 0 352 -76q184 -76 296 -212q120 -144 120 -328t-120 -328q-112 -136 -296 -212q-172 -76 -352 -76zM776 1468q-32 -32 -56 -140q-36 -132 -36 -304t36 -304q24 -108 56 -140q132 4 264 56q144 56 228 148
q100 108 100 240t-100 240q-84 92 -228 148q-132 52 -264 56z" />
</svg>
