<?xml version="1.0" standalone="no"?>
<!DOCTYPE svg PUBLIC "-//W3C//DTD SVG 1.1//EN" "http://www.w3.org/Graphics/SVG/1.1/DTD/svg11.dtd" >
<svg xmlns="http://www.w3.org/2000/svg" xmlns:xlink="http://www.w3.org/1999/xlink" version="1.1" viewBox="-10 0 1724 2048">
   <path fill="currentColor"
d="M852 172q-232 0 -428 114t-310 310t-114 428t114 428t310 310t428 114t428 -114t310 -310t114 -428t-114 -428t-310 -310t-428 -114zM648 1468q-28 0 -68 -16l-48 120l-100 -36l16 -32q68 -176 116 -264q84 -144 200 -232q140 -108 344 -156l-56 4q-68 8 -136 28
q-96 28 -176 72q-100 56 -176 140q-88 100 -136 232l-20 -28q-28 -36 -44 -68q-24 -52 -24 -96q0 -60 36 -132q44 -84 116 -144q88 -72 208 -96q52 -12 164 -28l68 -12q196 -24 276 -44q132 -32 156 -84l-20 92q-28 112 -72 216q-56 144 -128 256q-92 140 -204 216
q-136 92 -292 92z" />
</svg>
