<?xml version="1.0" standalone="no"?>
<!DOCTYPE svg PUBLIC "-//W3C//DTD SVG 1.1//EN" "http://www.w3.org/Graphics/SVG/1.1/DTD/svg11.dtd" >
<svg xmlns="http://www.w3.org/2000/svg" xmlns:xlink="http://www.w3.org/1999/xlink" version="1.1" viewBox="-10 0 1775 2048">
   <path fill="currentColor"
d="M1317 914v220q0 14 -11.5 25t-25.5 11h-402v220q0 15 -10.5 25.5t-26.5 10.5q-13 0 -27 -12l-365 -364q-10 -10 -10 -26t10 -26l366 -366q11 -10 26 -10q14 0 25.5 11t11.5 25v220h402q14 0 25.5 11t11.5 25zM1499 1024.5q0 -126.5 -49 -241.5t-132.5 -198.5t-198.5 -133
t-241 -49.5t-241.5 49.5t-198.5 133t-132.5 198.5t-49.5 241.5t49.5 241.5t132.5 198t198.5 132.5t241.5 49.5t241 -49.5t198.5 -132.5t132.5 -198t49 -241.5zM1755 1024.5q0 119.5 -31.5 233t-88 210t-137.5 177.5t-177 137.5t-210 88t-233 31.5t-233 -31.5t-210.5 -88
t-177.5 -137.5t-137.5 -177.5t-88 -210t-31.5 -233t31.5 -233.5t88 -210t137.5 -177t177.5 -137.5t210.5 -88.5t233 -32t233 32t210 88.5t177 137.5t137.5 177t88 210t31.5 233.5z" />
</svg>
