<?xml version="1.0" standalone="no"?>
<!DOCTYPE svg PUBLIC "-//W3C//DTD SVG 1.1//EN" "http://www.w3.org/Graphics/SVG/1.1/DTD/svg11.dtd" >
<svg xmlns="http://www.w3.org/2000/svg" xmlns:xlink="http://www.w3.org/1999/xlink" version="1.1" viewBox="-10 0 1724 2048">
   <path fill="currentColor"
d="M1704 1108q0 72 -48 120l-36 36q-4 -180 -122 -316t-294 -172l-436 -436h-600v600l436 436q36 176 172 294t316 122l-36 36q-48 48 -118 48t-122 -48l-768 -768q-48 -52 -48 -120v-600q0 -68 50 -118t118 -50h600q68 0 120 48l768 768q48 52 48 120zM256 556q0 52 36 90
t90 38t92 -38t38 -92t-38 -90t-92 -36t-90 36t-36 92zM1116 904q-160 0 -272 112t-112 272t112 272t272 112q112 0 204 -56l268 260l116 -116l-260 -268q56 -88 56 -204q0 -160 -112 -272t-272 -112zM1116 1076q92 0 154 62t62 150t-62 152t-152 64t-152 -62t-62 -152
t62 -152t150 -62z" />
</svg>
