<?xml version="1.0" standalone="no"?>
<!DOCTYPE svg PUBLIC "-//W3C//DTD SVG 1.1//EN" "http://www.w3.org/Graphics/SVG/1.1/DTD/svg11.dtd" >
<svg xmlns="http://www.w3.org/2000/svg" xmlns:xlink="http://www.w3.org/1999/xlink" version="1.1" viewBox="-10 0 1812 2048">
   <path fill="currentColor"
d="M1364 1310q0 164 -70 306t-194 230l-224 -220l120 -120l104 104q72 -104 84 -216h-160v-168h160q-24 -120 -84 -216l-104 104l-120 -120l104 -104q-104 -72 -212 -84v164h-172v-164q-120 28 -212 84l256 256q8 0 20 -4t20 -4q72 0 122 50t50 122t-50 122t-120 50
t-120 -50t-50 -122q0 -24 8 -44l-256 -256q-72 104 -88 216h164v168h-164q28 120 88 216l100 -104l120 120l-220 220q-124 -88 -194 -230t-70 -306q0 -184 92 -342t248 -250t342 -92t342 92t248 250t92 342zM1792 458q0 -108 -76 -182t-182 -74t-180 74t-74 182q0 80 46 146
t122 94v272h172v-272q76 -28 124 -94t48 -146zM1536 542q-36 0 -62 -26t-26 -60t26 -60t60 -26t60 26t26 60t-26 60t-58 26z" />
</svg>
