<?xml version="1.0" standalone="no"?>
<!DOCTYPE svg PUBLIC "-//W3C//DTD SVG 1.1//EN" "http://www.w3.org/Graphics/SVG/1.1/DTD/svg11.dtd" >
<svg xmlns="http://www.w3.org/2000/svg" xmlns:xlink="http://www.w3.org/1999/xlink" version="1.1" viewBox="-10 0 1644 2048">
   <path fill="currentColor"
d="M0 938v-256q0 92 92 170t250 124t342 46t342 -46t250 -124t92 -170v256q0 48 -44 120q-92 -36 -212 -36q-160 0 -306 66t-242 182q-244 -20 -404 -112t-160 -220zM684 854q184 0 342 -46t250 -126t92 -172t-92 -170t-250 -124t-342 -46t-342 46t-250 124t-92 170t92 172
t250 126t342 46zM436 1594l-24 -60l32 -72q8 -16 8 -28q-204 -40 -328 -126t-124 -198v256q0 112 136 202t352 122q-16 -28 -52 -96zM1112 1450q-40 0 -64 24t-24 62t24 62t62 24t62 -24t24 -62t-24 -62t-60 -24zM1624 1534q-60 152 -202 248t-312 96t-312 -96t-198 -248
q56 -148 198 -244t312 -96t312 96t202 244zM1324 1534q0 -88 -62 -150t-152 -62t-152 62t-62 152t62 152t152 62t152 -62t62 -154z" />
</svg>
