<?xml version="1.0" standalone="no"?>
<!DOCTYPE svg PUBLIC "-//W3C//DTD SVG 1.1//EN" "http://www.w3.org/Graphics/SVG/1.1/DTD/svg11.dtd" >
<svg xmlns="http://www.w3.org/2000/svg" xmlns:xlink="http://www.w3.org/1999/xlink" version="1.1" viewBox="-10 0 1724 2048">
   <path fill="currentColor"
d="M680 340h856q68 0 118 50t50 122v172h-288l-224 220v340l-168 172v292h-344v-292l-168 -172v-440l168 -172v-292zM1364 972v224h340v-344h-220zM392 684l120 -120v-224h-344q-68 0 -118 50t-50 122v172h392zM340 1196v-344h-340v344h340zM512 1484l-120 -120h-392v172
q0 72 50 122t118 50h344v-224zM1312 1364l-120 120v224h344q68 0 118 -50t50 -122v-172h-392z" />
</svg>
