<?xml version="1.0" standalone="no"?>
<!DOCTYPE svg PUBLIC "-//W3C//DTD SVG 1.1//EN" "http://www.w3.org/Graphics/SVG/1.1/DTD/svg11.dtd" >
<svg xmlns="http://www.w3.org/2000/svg" xmlns:xlink="http://www.w3.org/1999/xlink" version="1.1" viewBox="-10 0 1388 2048">
   <path fill="currentColor"
d="M600 940v-344h168v344h-168zM768 84v344h-168v-344h168zM600 1452v-344h168v344h-168zM428 1708h-256v-1368h256v-168h-256q-72 0 -122 50t-50 118v1368q0 68 50 118t122 50h256v-168zM940 256v428h256v1024h-256v168h256q72 0 122 -50t50 -118v-1024zM768 1620h-168v344
h168v-344z" />
</svg>
