<?xml version="1.0" standalone="no"?>
<!DOCTYPE svg PUBLIC "-//W3C//DTD SVG 1.1//EN" "http://www.w3.org/Graphics/SVG/1.1/DTD/svg11.dtd" >
<svg xmlns="http://www.w3.org/2000/svg" xmlns:xlink="http://www.w3.org/1999/xlink" version="1.1" viewBox="-10 0 1640 2048">
   <path fill="currentColor"
d="M684 212q-144 0 -244 100t-100 242t100 242t242 100t242 -100t100 -242t-100 -242t-240 -100zM684 384q68 0 118 50t50 120t-50 120t-120 50t-120 -50t-50 -120t50 -120t122 -50zM684 980q-128 0 -280 40q-172 40 -280 112q-124 84 -124 192v256h812q-28 -56 -44 -164
h-604v-92q0 -28 80 -72t188 -72q132 -36 252 -36q20 0 62 4t66 4q48 -104 92 -144q-128 -28 -220 -28zM1280 1580q-88 0 -150 -62t-62 -154q0 -56 24 -92l-92 -96q-60 92 -60 188q0 144 100 244t240 100v128l188 -188l-188 -196v128zM1280 1024v-128l-188 188l188 188v-120
q88 0 150 62t62 150q0 56 -24 96l92 92q60 -88 60 -188q0 -140 -100 -240t-240 -100z" />
</svg>
