<?xml version="1.0" standalone="no"?>
<!DOCTYPE svg PUBLIC "-//W3C//DTD SVG 1.1//EN" "http://www.w3.org/Graphics/SVG/1.1/DTD/svg11.dtd" >
<svg xmlns="http://www.w3.org/2000/svg" xmlns:xlink="http://www.w3.org/1999/xlink" version="1.1" viewBox="-10 0 1900 2048">
   <path fill="currentColor"
d="M1112 898l-600 -600q168 -76 420 -76q184 0 342 46t250 124t92 170q0 120 -142 210t-362 126zM1292 1074h68q120 0 212 36q44 -56 44 -120v-256q0 96 -102 178t-266 122zM1480 1262l372 376q20 -32 28 -44q-60 -128 -164 -216t-236 -116zM1792 1802l-108 108l-52 -48
q-152 76 -272 76q-172 0 -314 -96t-198 -248q76 -180 248 -272l-128 -128q-60 36 -164 136q-240 -24 -398 -118t-158 -222v-256q0 132 174 226t434 114l-196 -196q-184 -44 -298 -130t-114 -186q0 -24 20 -76l-268 -264l112 -112zM1512 1734l-92 -96q-12 36 -60 36
q-40 0 -64 -24t-24 -66t36 -66l-96 -92q-68 68 -68 156t62 150t154 62q44 4 86 -12t66 -48zM660 1586l24 -60l8 -12q8 -16 8 -28q-204 -40 -328 -126t-124 -198v256q0 112 136 202t352 122q-32 -48 -44 -96z" />
</svg>
