<?xml version="1.0" standalone="no"?>
<!DOCTYPE svg PUBLIC "-//W3C//DTD SVG 1.1//EN" "http://www.w3.org/Graphics/SVG/1.1/DTD/svg11.dtd" >
<svg xmlns="http://www.w3.org/2000/svg" xmlns:xlink="http://www.w3.org/1999/xlink" version="1.1" viewBox="-10 0 1892 2048">
   <path fill="currentColor"
d="M1872 1586q-20 36 -28 44l-376 -376q140 32 246 120t158 212zM932 394q152 0 280 32q104 28 172 76q60 36 60 60t-60 64q-64 40 -168 68q-120 36 -268 40l164 164q208 -28 332 -104v240q-52 32 -84 48q128 0 256 52v-572q0 -92 -92 -170t-250 -124t-342 -46
q-252 0 -420 76l140 136q112 -40 280 -40zM1792 1802l-108 108l-52 -48q-152 76 -272 76q-172 0 -314 -96t-198 -248q76 -180 248 -272l-128 -128q-60 36 -164 136q-228 -12 -392 -100v188q0 24 68 64q80 48 188 72l-8 32l68 156q-208 -32 -344 -122t-136 -202v-856
q0 -24 20 -76l-268 -264l112 -112zM940 1162l-288 -292q-108 -20 -240 -84v240q80 60 216 94t296 34q4 4 12 4zM1512 1734l-92 -96q-12 36 -60 36q-40 0 -64 -24t-24 -66t36 -66l-96 -92q-68 68 -68 156t62 150t154 62q44 4 86 -12t66 -48z" />
</svg>
