<?xml version="1.0" standalone="no"?>
<!DOCTYPE svg PUBLIC "-//W3C//DTD SVG 1.1//EN" "http://www.w3.org/Graphics/SVG/1.1/DTD/svg11.dtd" >
<svg xmlns="http://www.w3.org/2000/svg" xmlns:xlink="http://www.w3.org/1999/xlink" version="1.1" viewBox="-10 0 1556 2048">
   <path fill="currentColor"
d="M1364 548l128 -120q-84 -88 -128 -120l-120 120q-208 -172 -476 -172q-208 0 -386 102t-280 280t-102 386t102 386t280 280t386 102t386 -102t280 -280t102 -386q0 -136 -44 -260t-128 -216zM852 1108h-168v-596h168v596zM1024 0h-512v172h512v-172zM852 2048h-168v-172
h168v172zM1196 2048h-172v-172h172v172zM512 2048h-172v-172h172v172z" />
</svg>
