<?xml version="1.0" standalone="no"?>
<!DOCTYPE svg PUBLIC "-//W3C//DTD SVG 1.1//EN" "http://www.w3.org/Graphics/SVG/1.1/DTD/svg11.dtd" >
<svg xmlns="http://www.w3.org/2000/svg" xmlns:xlink="http://www.w3.org/1999/xlink" version="1.1" viewBox="-10 0 1900 2048">
   <path fill="currentColor"
d="M1536 596q-68 0 -118 50t-50 122v172q0 68 50 118t118 50h172v172h-340v172h340q72 0 122 -50t50 -122v-172q0 -68 -50 -118t-122 -50h-172v-172h344v-172h-344zM684 596v856h340q72 0 122 -50t50 -122v-512q0 -72 -50 -122t-122 -50h-340zM856 768h168v512h-168v-512z
M172 596q-72 0 -122 50t-50 122v684h172v-344h172v344h168v-684q0 -72 -50 -122t-118 -50h-172zM172 768h172v172h-172v-172z" />
</svg>
