<?xml version="1.0" standalone="no"?>
<!DOCTYPE svg PUBLIC "-//W3C//DTD SVG 1.1//EN" "http://www.w3.org/Graphics/SVG/1.1/DTD/svg11.dtd" >
<svg xmlns="http://www.w3.org/2000/svg" xmlns:xlink="http://www.w3.org/1999/xlink" version="1.1" viewBox="-10 0 1900 2048">
   <path fill="currentColor"
d="M956 748l-168 -172h236q72 0 122 50t50 122v240l-172 -172v-68h-68zM1880 748v-172h-344q-68 0 -118 50t-50 122v172q0 68 50 118t118 50h172v172h-240l172 172h68q72 0 122 -50t50 -122v-172q0 -68 -50 -118t-122 -50h-172v-172h344zM1800 1816l-108 108l-548 -544
q-52 52 -120 52h-340v-520l-172 -172v692h-168v-344h-172v344h-172v-684q0 -72 50 -122t122 -50h180l-344 -340l112 -112zM344 748h-172v172h172v-172zM1024 1252l-168 -172v180h168v-8z" />
</svg>
