<?xml version="1.0" standalone="no"?>
<!DOCTYPE svg PUBLIC "-//W3C//DTD SVG 1.1//EN" "http://www.w3.org/Graphics/SVG/1.1/DTD/svg11.dtd" >
<svg xmlns="http://www.w3.org/2000/svg" xmlns:xlink="http://www.w3.org/1999/xlink" version="1.1" viewBox="-10 0 1644 2048">
   <path fill="currentColor"
d="M436 1594l-24 -60l16 -32q-112 -32 -188 -76q-68 -40 -68 -60v-188q168 76 392 100q88 -100 212 -168h-92q-152 0 -290 -36t-222 -92v-248q104 52 228 84q136 36 284 36q312 0 512 -120v240q-52 32 -84 48q128 0 256 52v-564q0 -92 -92 -170t-250 -124t-342 -46t-342 46
t-250 124t-92 170v856q0 112 136 202t352 122q-16 -28 -52 -96zM684 342q152 0 280 32q104 28 172 76q60 36 60 62t-60 62q-68 44 -172 72q-128 36 -280 36t-280 -36q-104 -28 -172 -72q-60 -36 -60 -62t60 -62q68 -48 172 -76q128 -32 280 -32zM1112 1450q36 0 60 24t24 62
t-24 62t-62 24t-62 -24t-24 -62t24 -62t64 -24zM1112 1194q-172 0 -314 96t-198 244q56 152 198 248t312 96t312 -96t202 -248q-60 -148 -202 -244t-310 -96zM1112 1750q-92 0 -154 -62t-62 -152t62 -152t152 -62t152 62t62 152t-62 152t-150 62z" />
</svg>
