<?xml version="1.0" standalone="no"?>
<!DOCTYPE svg PUBLIC "-//W3C//DTD SVG 1.1//EN" "http://www.w3.org/Graphics/SVG/1.1/DTD/svg11.dtd" >
<svg xmlns="http://www.w3.org/2000/svg" xmlns:xlink="http://www.w3.org/1999/xlink" version="1.1" viewBox="-10 0 1900 2048">
   <path fill="currentColor"
d="M888 464l-152 -76l108 -216h724l108 216l-152 76l-64 -124h-512zM1772 684h-388l-68 -256h-220l-72 256h-384l-108 216l152 76l64 -124h916l60 124l156 -76zM1696 1876h-176l-20 -76l-296 -444l-296 444l-20 76h-176l248 -936h176l-32 112l100 152l100 -152l-28 -112h176
zM1152 1280l-76 -116l-100 384zM1436 1548l-104 -384l-76 116zM684 1364l-340 -340v256h-344v172h344v256z" />
</svg>
