<?xml version="1.0" standalone="no"?>
<!DOCTYPE svg PUBLIC "-//W3C//DTD SVG 1.1//EN" "http://www.w3.org/Graphics/SVG/1.1/DTD/svg11.dtd" >
<svg xmlns="http://www.w3.org/2000/svg" xmlns:xlink="http://www.w3.org/1999/xlink" version="1.1" viewBox="-10 0 1723 2048">
   <path fill="currentColor"
d="M1688 1656q8 0 8 6t-8 10l-84 144q-8 12 -24 12l-104 -36l-68 44l-16 108q0 8 -6 14t-14 6h-168q-8 0 -28 -20l-16 -108q-36 -16 -68 -44l-104 44q-16 0 -24 -8l-84 -148q-8 -8 8 -24l92 -68v-88l-92 -68q-8 -8 -8 -24l84 -144q8 -8 24 -8l104 40l68 -40l16 -112
q0 -16 28 -16h168q8 0 14 4t6 12l16 112q24 8 76 40l104 -40q24 0 24 8l88 144q8 8 -12 24l-92 68v88zM1408 1536q0 -52 -38 -90t-90 -38t-90 38t-38 90t38 90t90 38t90 -38t38 -90zM684 1536q0 -188 108 -340h-108v-600h168v520q180 -176 428 -176q132 0 248 48
q-40 -208 -164 -356l128 -120q-84 -84 -128 -120l-120 120q-92 -84 -216 -128t-260 -44q-208 0 -386 104t-280 280t-102 386t102 386t280 278t386 102h24q-108 -152 -108 -340zM1024 84h-512v172h512v-172z" />
</svg>
