<?xml version="1.0" standalone="no"?>
<!DOCTYPE svg PUBLIC "-//W3C//DTD SVG 1.1//EN" "http://www.w3.org/Graphics/SVG/1.1/DTD/svg11.dtd" >
<svg xmlns="http://www.w3.org/2000/svg" xmlns:xlink="http://www.w3.org/1999/xlink" version="1.1" viewBox="-11 0 1682 2048">
   <path fill="currentColor"
d="M962 1876h-304q-16 0 -28 -10t-12 -26l-32 -224q-72 -28 -144 -84l-212 84q-16 8 -32 2t-20 -18l-172 -296q-8 -16 -6 -30t14 -26l180 -140q-4 -48 -4 -84t4 -84l-180 -140q-12 -12 -14 -26t6 -30l172 -296q4 -12 20 -18t32 2l212 84q72 -56 144 -84l32 -224
q0 -16 12 -26t28 -10h344q16 0 28 10t12 26l32 224q72 28 144 84l212 -84q16 -8 32 -2t20 18l172 296q8 16 6 30t-14 26l-180 140q4 48 4 84v16q-68 -16 -128 -16q-116 0 -220 48q8 -32 8 -48q0 -124 -88 -212t-212 -88t-212 88t-88 212t88 212t212 88q16 0 48 -8
q-48 104 -48 220q0 196 132 340zM1170 1280v512l428 -256z" />
</svg>
