<?xml version="1.0" standalone="no"?>
<!DOCTYPE svg PUBLIC "-//W3C//DTD SVG 1.1//EN" "http://www.w3.org/Graphics/SVG/1.1/DTD/svg11.dtd" >
<svg xmlns="http://www.w3.org/2000/svg" xmlns:xlink="http://www.w3.org/1999/xlink" version="1.1" viewBox="-11 0 1682 2048">
   <path fill="currentColor"
d="M962 1876h-304q-16 0 -28 -10t-12 -26l-32 -224q-72 -28 -144 -84l-212 84q-16 8 -32 2t-20 -18l-172 -296q-8 -16 -6 -30t14 -26l180 -140l-4 -84l4 -84l-180 -140q-12 -12 -14 -26t6 -30l172 -296q4 -12 20 -18t32 2l212 84q72 -56 144 -84l32 -224q0 -16 12 -26
t28 -10h344q16 0 28 10t12 26l32 224q72 28 144 84l212 -84q16 -8 32 -2t20 18l172 296q8 16 6 30t-14 26l-180 140l4 100q-68 -16 -128 -16q-28 0 -44 4q0 -84 -24 -156l180 -132l-64 -112l-204 88q-104 -120 -260 -152l-32 -224h-128l-32 224q-156 32 -260 152l-204 -88
l-64 112l180 132q-52 152 0 304l-180 136l64 108l208 -88q104 120 256 152l32 224h92q36 96 104 168zM862 1360q-12 4 -32 4q-140 0 -240 -100t-100 -240t100 -240t240 -100t240 100t100 240q0 20 -4 32q-104 36 -186 118t-118 186zM1002 1024q0 -72 -50 -122t-122 -50
t-122 50t-50 122t50 122t122 50t122 -50t50 -122zM1426 1280h172v512h-172v-512zM1086 1280h172v512h-172v-512z" />
</svg>
