<?xml version="1.0" standalone="no"?>
<!DOCTYPE svg PUBLIC "-//W3C//DTD SVG 1.1//EN" "http://www.w3.org/Graphics/SVG/1.1/DTD/svg11.dtd" >
<svg xmlns="http://www.w3.org/2000/svg" xmlns:xlink="http://www.w3.org/1999/xlink" version="1.1" viewBox="-10 0 1604 2048">
   <path fill="currentColor"
d="M776 1684h-604l512 -512l160 160q84 -132 216 -196l136 -136v92q52 -8 86 -8t86 8v-432l-512 -512h-684q-72 0 -122 50t-50 118v1368q0 68 50 118t122 50h668q-48 -80 -64 -168zM768 276l472 468h-472v-468zM344 744q68 0 118 50t50 120t-50 120t-120 50t-120 -50
t-50 -120t50 -120t122 -50zM1584 1416l-184 180l184 184l-120 120l-184 -184l-180 184l-120 -120l180 -184l-180 -180l120 -120l180 180l184 -180z" />
</svg>
