<?xml version="1.0" standalone="no"?>
<!DOCTYPE svg PUBLIC "-//W3C//DTD SVG 1.1//EN" "http://www.w3.org/Graphics/SVG/1.1/DTD/svg11.dtd" >
<svg xmlns="http://www.w3.org/2000/svg" xmlns:xlink="http://www.w3.org/1999/xlink" version="1.1" viewBox="-10 0 1724 2048">
   <path fill="currentColor"
d="M1016 929q20 180 -24 268q-16 32 -48 52t-84 20t-92 -32q-20 -20 -32 -44t-12 -44h-152q0 44 26 94t62 82q60 56 148 70t172 -14t132 -88q84 -108 84 -268t-84 -268q-52 -64 -136 -90t-172 -12t-148 70q-40 36 -62 86t-22 110h152q0 -52 40 -96t100 -44q88 0 128 72
q16 36 24 76zM852 173q-232 0 -428 114t-310 310t-114 428q12 324 188 544q160 200 416 272q248 68 496 0q256 -72 416 -272q176 -220 188 -544q0 -232 -114 -428t-310 -310t-428 -114zM168 1025q12 -260 156 -436q128 -156 328 -214t400 0t328 214q144 176 156 436
q0 184 -92 342t-250 250t-342 92t-342 -92t-250 -250t-92 -342z" />
</svg>
