<?xml version="1.0" standalone="no"?>
<!DOCTYPE svg PUBLIC "-//W3C//DTD SVG 1.1//EN" "http://www.w3.org/Graphics/SVG/1.1/DTD/svg11.dtd" >
<svg xmlns="http://www.w3.org/2000/svg" xmlns:xlink="http://www.w3.org/1999/xlink" version="1.1" viewBox="-10 0 1882 2048">
   <path fill="currentColor"
d="M1169 1338l117 233q-66 204 -240 331.5t-388 127.5q-178 0 -329.5 -88.5t-240 -240.5t-88.5 -330q0 -207 119 -377t314 -241l20 150q-140 62 -223.5 189t-83.5 279q0 104 40.5 198.5t109.5 163.5t163.5 109.5t198.5 40.5q145 0 266.5 -74.5t188 -200.5t56.5 -270z
M1795 1452l67 131l-293 146q-13 8 -33 8t-38.5 -11t-26.5 -29l-273 -545h-540q-28 0 -48.5 -18.5t-24.5 -46.5l-110 -891q-2 -17 7 -48q16 -59 65.5 -94.5t110.5 -35.5q76 0 129.5 53.5t53.5 129.5q0 79 -59 134.5t-137 47.5l42 330h483v146h-465l18 147h520q21 0 39.5 11
t26.5 29l260 520z" />
</svg>
