<?xml version="1.0" standalone="no"?>
<!DOCTYPE svg PUBLIC "-//W3C//DTD SVG 1.1//EN" "http://www.w3.org/Graphics/SVG/1.1/DTD/svg11.dtd" >
<svg xmlns="http://www.w3.org/2000/svg" xmlns:xlink="http://www.w3.org/1999/xlink" version="1.1" viewBox="-10 0 1724 2048">
   <path fill="currentColor"
d="M1544 1208l124 124l-184 180l184 180l-124 124l-180 -184l-180 184l-120 -124l180 -180l-180 -180l120 -120l180 180zM1564 376l-144 -144l-140 144l-144 -144l-140 144l-144 -144l-144 144l-140 -144l-144 144l-140 -144l-144 144l-140 -144v1364q0 72 50 122t118 50
h752q-68 -116 -68 -256q0 -156 84 -284v-144h144q128 -84 284 -84q192 0 340 128v-896zM768 1596h-600v-512h600v512zM1536 916h-1368v-256h1368v256z" />
</svg>
