<?xml version="1.0" standalone="no"?>
<!DOCTYPE svg PUBLIC "-//W3C//DTD SVG 1.1//EN" "http://www.w3.org/Graphics/SVG/1.1/DTD/svg11.dtd" >
<svg xmlns="http://www.w3.org/2000/svg" xmlns:xlink="http://www.w3.org/1999/xlink" version="1.1" viewBox="-11 0 1729 2048">
   <path fill="currentColor"
d="M505 1831q-124 -104 -164 -260t16 -304l180 -508q16 -40 56 -44t64 32l24 48q32 52 12 112l-84 232l40 32l508 -576q20 -24 54 -26t60 20t28 56t-18 58l-380 432l48 40l464 -524q24 -28 58 -30t60 20t28 56t-22 62l-464 524l48 44l400 -452q24 -28 58 -30t58 22t26 56
t-18 56l-400 456l48 44l268 -304q24 -28 58 -30t60 20t28 56t-22 58l-444 504q-92 108 -224 152t-270 18t-242 -122zM817 787l244 -276q32 -36 72 -52l36 -68q12 -32 2 -64t-40 -46t-64 -4t-46 42l-216 440zM769 683v4l236 -484q16 -32 4 -64t-42 -46t-62 -4t-48 42
l-224 460q88 16 136 92zM237 1223l180 -508q16 -48 54 -80t86 -40l184 -376q16 -32 4 -64t-42 -46t-62 -4t-48 42l-336 692l-44 -20l16 -248q8 -60 -36 -108l-40 -36q-32 -28 -70 -14t-42 54l-40 540q-8 128 44 246t156 198q-4 -120 36 -228z" />
</svg>
