<?xml version="1.0" standalone="no"?>
<!DOCTYPE svg PUBLIC "-//W3C//DTD SVG 1.1//EN" "http://www.w3.org/Graphics/SVG/1.1/DTD/svg11.dtd" >
<svg xmlns="http://www.w3.org/2000/svg" xmlns:xlink="http://www.w3.org/1999/xlink" version="1.1" viewBox="-10 0 1556 2048">
   <path fill="currentColor"
d="M768 172q-144 0 -280 16q-208 28 -328 96q-160 84 -160 228v1024q0 144 160 228q120 68 328 96q136 16 280 16t280 -16q208 -28 328 -96q160 -84 160 -228v-1024q0 -144 -160 -228q-120 -68 -328 -96q-136 -16 -280 -16zM768 852q140 0 272 -16q204 -28 324 -88v552
q-120 -60 -324 -88q-132 -16 -272 -16t-272 16q-204 28 -324 88v-552q120 60 324 88q132 16 272 16zM768 340q164 0 300 24t216 62t80 86t-80 86t-216 62t-300 24t-300 -24t-216 -62t-80 -86t80 -86t216 -62t300 -24zM768 1708q-164 0 -300 -24t-216 -62t-80 -86t80 -86
t216 -62t300 -24t300 24t216 62t80 86t-80 86t-216 62t-300 24z" />
</svg>
