<?xml version="1.0" standalone="no"?>
<!DOCTYPE svg PUBLIC "-//W3C//DTD SVG 1.1//EN" "http://www.w3.org/Graphics/SVG/1.1/DTD/svg11.dtd" >
<svg xmlns="http://www.w3.org/2000/svg" xmlns:xlink="http://www.w3.org/1999/xlink" version="1.1" viewBox="-10 0 1724 2048">
   <path fill="currentColor"
d="M1672 1424l-748 -1212q-24 -40 -72 -40t-72 40l-748 1208q-32 56 -32 116q0 132 148 220q212 120 704 120q336 0 548 -56q304 -88 304 -284q0 -60 -32 -112zM852 420l512 824q-208 -48 -512 -48t-512 48zM852 1708q-184 0 -342 -24t-250 -62t-92 -86t92 -86t250 -62
t342 -24t342 24t250 62t92 86t-92 86t-250 62t-342 24z" />
</svg>
