<?xml version="1.0" standalone="no"?>
<!DOCTYPE svg PUBLIC "-//W3C//DTD SVG 1.1//EN" "http://www.w3.org/Graphics/SVG/1.1/DTD/svg11.dtd" >
<svg xmlns="http://www.w3.org/2000/svg" xmlns:xlink="http://www.w3.org/1999/xlink" version="1.1" viewBox="-10 0 1715 2048">
   <path fill="currentColor"
d="M1192 1022q-16 0 -20 20l-16 112q-40 16 -72 40l-108 -44q-20 0 -24 12l-88 148q-8 16 4 28l92 68q-4 24 -4 44t4 44l-92 68q-12 12 -4 28l88 148q4 12 24 12l108 -44q36 28 72 40l16 112q4 20 20 20h172q16 0 20 -20l16 -112q32 -16 72 -40l104 44q24 0 28 -12l88 -148
q8 -16 -8 -28l-88 -68v-44v-44l88 -68q16 -12 4 -28l-84 -148q-4 -12 -28 -12l-104 44q-44 -28 -72 -40l-16 -112q0 -20 -20 -20h-172zM1280 1322q52 0 90 38t38 90t-38 90t-92 38t-90 -38t-36 -90t36 -90t92 -38zM1192 858v-688h-1192v1536h512v-300h172q16 -208 158 -362
t350 -186zM340 1534h-172v-168h172v168zM340 1194h-172v-172h172v172zM340 854h-172v-172h172v172zM340 510h-172v-168h172v168zM852 342h172v168h-172v-168zM852 682h172v172h-172v-172zM680 1194h-168v-172h168v172zM680 854h-168v-172h168v172zM512 510v-168h168v168
h-168z" />
</svg>
