<?xml version="1.0" standalone="no"?>
<!DOCTYPE svg PUBLIC "-//W3C//DTD SVG 1.1//EN" "http://www.w3.org/Graphics/SVG/1.1/DTD/svg11.dtd" >
<svg xmlns="http://www.w3.org/2000/svg" xmlns:xlink="http://www.w3.org/1999/xlink" version="1.1" viewBox="-10 0 1712 2048">
   <path fill="currentColor"
d="M1536 1030q-16 0 -36 20l-84 84l180 180l84 -84q12 -16 12 -36t-12 -36l-108 -108q-20 -20 -36 -20zM1372 1186l-520 512v180h180l520 -520zM1536 682h-684v-512h684v512zM852 1454v-600h684v8q-44 0 -86 20t-70 48zM684 1022h-684v-852h684v852zM684 1706h-684v-512h684
v512z" />
</svg>
