<?xml version="1.0" standalone="no"?>
<!DOCTYPE svg PUBLIC "-//W3C//DTD SVG 1.1//EN" "http://www.w3.org/Graphics/SVG/1.1/DTD/svg11.dtd" >
<svg xmlns="http://www.w3.org/2000/svg" xmlns:xlink="http://www.w3.org/1999/xlink" version="1.1" viewBox="-10 0 1812 2048">
   <path fill="currentColor"
d="M556 360l-136 -140q204 -68 508 -68q144 0 280 16q208 28 328 96q160 84 160 228v1008l-252 -252q44 12 80 32v-552q-172 88 -496 104l-168 -168h68q164 0 300 -24t216 -62t80 -86t-80 -86t-216 -62t-300 -24q-204 0 -372 40zM1792 1812l-108 108l-168 -164
q-120 60 -320 84q-132 16 -272 16t-276 -16q-208 -28 -328 -96q-160 -84 -160 -228v-1024q0 -36 16 -80l-176 -176l108 -108zM332 1280q120 -60 324 -88q132 -16 272 -16h8l-372 -376q-140 -28 -232 -72v552zM1388 1624l-272 -272q-100 -8 -188 -8q-164 0 -300 24t-216 62
t-80 86t80 86t216 62t300 24q280 0 460 -64z" />
</svg>
