<?xml version="1.0" standalone="no"?>
<!DOCTYPE svg PUBLIC "-//W3C//DTD SVG 1.1//EN" "http://www.w3.org/Graphics/SVG/1.1/DTD/svg11.dtd" >
<svg xmlns="http://www.w3.org/2000/svg" xmlns:xlink="http://www.w3.org/1999/xlink" version="1.1" viewBox="-10 0 1800 2048">
   <path fill="currentColor"
d="M1280 1108q-20 0 -24 20l-16 112q-40 16 -72 40l-108 -44q-20 0 -24 12l-84 148q-12 16 4 28l88 68v44v44l-88 68q-16 12 -4 28l84 148q4 12 24 12l108 -44q40 28 72 40l16 112q4 20 24 20h168q20 0 20 -20l20 -112q32 -16 68 -40l108 44q20 0 28 -12l84 -148
q8 -16 -4 -28l-92 -68l4 -44q0 -24 -4 -44l92 -68q12 -12 4 -28l-88 -148q-4 -12 -24 -12l-108 44q-40 -28 -72 -40l-16 -112q0 -20 -20 -20h-168zM1364 1408q52 0 90 38t38 90t-38 90t-90 38t-90 -38t-38 -90t38 -90t90 -38zM680 428h172v168h-172v-168zM1192 596h-168
v-168h168v168zM1024 768h168v172h-168v-172zM680 768h172v172h-172v-172zM948 1964h-948v-1880h1536v880q-88 -24 -172 -24v-684h-1196v1536h512v-300h88v44q0 124 46 234t134 194zM512 1280h-172v-172h172v172zM512 940h-172v-172h172v172zM512 596h-172v-168h172v168z
M340 1452h172v168h-172v-168zM680 1108h172v120l-28 52h-144v-172z" />
</svg>
