<?xml version="1.0" standalone="no"?>
<!DOCTYPE svg PUBLIC "-//W3C//DTD SVG 1.1//EN" "http://www.w3.org/Graphics/SVG/1.1/DTD/svg11.dtd" >
<svg xmlns="http://www.w3.org/2000/svg" xmlns:xlink="http://www.w3.org/1999/xlink" version="1.1" viewBox="-10 0 1812 2048">
   <path fill="currentColor"
d="M1152 1392q-136 196 -136 340q0 28 16 92l4 20q0 16 -8 24t-14 4t-6 -12q-64 -84 -96 -164t-32 -168q0 -152 104 -308l-120 -120q-152 196 -152 376q0 28 12 92l4 20q0 16 -8 24t-14 4t-6 -12q-64 -84 -96 -164t-32 -168q0 -160 128 -340l-116 -112q-148 176 -148 308
q0 44 20 76q0 8 -8 16t-16 4l-4 -4q-92 -104 -92 -238t120 -282l-456 -460l112 -112l1680 1684l-108 108zM780 580q48 -88 48 -176q0 -136 -92 -240q-8 -8 -24 -8q-8 0 -4 8l4 8q16 52 16 76q0 96 -68 204zM1384 540q0 192 -212 432l168 172q188 -188 188 -392
q0 -168 -128 -332q-8 -8 -16 -4t-8 20t4 50t4 54zM1060 864q152 -192 152 -376q0 -168 -128 -332h-16q-8 8 -8 24q16 68 16 112q0 176 -188 408z" />
</svg>
