<?xml version="1.0" standalone="no"?>
<!DOCTYPE svg PUBLIC "-//W3C//DTD SVG 1.1//EN" "http://www.w3.org/Graphics/SVG/1.1/DTD/svg11.dtd" >
<svg xmlns="http://www.w3.org/2000/svg" xmlns:xlink="http://www.w3.org/1999/xlink" version="1.1" viewBox="-10 0 1724 2048">
   <path fill="currentColor"
d="M852 340q-204 0 -404 28q-116 12 -308 48l-56 12l-4 16q-40 164 -56 256q-24 152 -24 324t24 332q16 96 60 264l56 12q192 36 308 48q200 28 404 28q212 0 424 -28q124 -16 316 -52l28 -8q44 -140 60 -264q24 -152 24 -328t-24 -336q-20 -112 -60 -264l-28 -8
q-192 -36 -316 -52q-212 -28 -424 -28z" />
</svg>
