<?xml version="1.0" standalone="no"?>
<!DOCTYPE svg PUBLIC "-//W3C//DTD SVG 1.1//EN" "http://www.w3.org/Graphics/SVG/1.1/DTD/svg11.dtd" >
<svg xmlns="http://www.w3.org/2000/svg" xmlns:xlink="http://www.w3.org/1999/xlink" version="1.1" viewBox="-10 0 1872 2048">
   <path fill="currentColor"
d="M984 1140q-24 -76 -4 -168l4 -4l-4 -8q-20 -84 -4 -152q20 -60 80 -120l12 -8q20 -84 92 -140q60 -40 156 -40q8 -8 44 -28v-248q4 -56 -34 -96t-94 -40h-1096q-56 0 -96 40t-40 96v840q0 56 40 96t96 40h880q-20 -24 -32 -60zM172 432v-172l512 256l512 -256v172
l-512 256zM1844 848q-12 -32 -56 -64q-20 -12 -28 -20t-16 -32q-16 -52 -44 -72t-84 -20q-24 0 -36 -4t-40 -24q-40 -28 -74 -28t-78 32l-28 20q-12 4 -40 4q-52 0 -80 18t-40 62q-12 32 -20 42t-28 26q-48 32 -58 62t6 78q12 28 12 40t-12 40q-16 48 -6 82t58 62
q20 12 26 20t14 32q20 56 48 76t80 20q28 0 40 2t36 22q44 28 76 28t80 -32l28 -20h36q56 0 84 -24t44 -72q8 -24 16 -32t28 -24q44 -32 56 -62t-8 -78q-8 -28 -8 -40t8 -40q20 -48 8 -80zM1468 1232q-108 0 -182 -76t-74 -178t78 -180t180 -78t178 78t76 180t-74 178
t-182 76zM1596 968q0 52 -38 90t-90 38t-90 -38t-38 -90t38 -90t90 -38t90 38t38 90zM1580 1464l-44 228l-48 268l-172 -164l-204 92l84 -484q52 24 120 24q44 28 84 44q16 8 68 8q56 12 112 -16zM1852 1668l-168 -60l32 -188l52 -24l8 -8z" />
</svg>
