<?xml version="1.0" standalone="no"?>
<!DOCTYPE svg PUBLIC "-//W3C//DTD SVG 1.1//EN" "http://www.w3.org/Graphics/SVG/1.1/DTD/svg11.dtd" >
<svg xmlns="http://www.w3.org/2000/svg" xmlns:xlink="http://www.w3.org/1999/xlink" version="1.1" viewBox="-10 0 1812 2048">
   <path fill="currentColor"
d="M108 128l-108 108l252 252q-176 228 -176 516q0 232 114 428t310 310t428 114q288 0 516 -176l240 240l108 -108zM372 612l92 92q-104 20 -172 48q32 -72 80 -140zM244 1004q0 -48 102 -88t270 -64l320 324h-8q-184 0 -342 -24t-250 -62t-92 -86zM928 1688
q-212 0 -384 -120t-252 -312q220 88 636 88q112 0 176 -4l220 220q-176 128 -396 128zM604 408l-128 -128q208 -128 452 -128q232 0 428 114t310 310t114 428q0 244 -128 452l-128 -128q20 -28 40 -72q-36 16 -84 28l-144 -144q128 -24 202 -60t74 -76q0 -64 -166 -112
t-414 -56l-172 -172h68q416 0 636 88q-80 -192 -252 -312t-384 -120q-176 0 -324 88z" />
</svg>
