<?xml version="1.0" standalone="no"?>
<!DOCTYPE svg PUBLIC "-//W3C//DTD SVG 1.1//EN" "http://www.w3.org/Graphics/SVG/1.1/DTD/svg11.dtd" >
<svg xmlns="http://www.w3.org/2000/svg" xmlns:xlink="http://www.w3.org/1999/xlink" version="1.1" viewBox="-10 0 1212 2048">
   <path fill="currentColor"
d="M1064 436q68 84 98 164t30 168q0 112 -48 216t-156 220q-140 148 -212 264q-96 152 -96 280q0 28 16 92l4 20q0 16 -8 24t-14 4t-6 -12q-64 -84 -96 -164t-32 -168q0 -112 50 -216t154 -220q144 -148 216 -264q92 -152 92 -280q0 -28 -12 -92l-4 -20q0 -16 8 -20t16 4z
M400 180q84 108 84 240q0 156 -152 324q-108 112 -160 200q-72 116 -72 208q0 44 20 76q0 8 -8 16t-16 4l-4 -4q-92 -116 -92 -244q0 -160 152 -324q104 -116 160 -204q72 -112 72 -208q0 -44 -20 -76v-16q28 0 36 8zM432 844q144 -148 216 -264q92 -152 92 -280
q0 -28 -12 -92l-4 -20q0 -16 8 -24t12 -4t4 12q68 84 98 164t30 168q0 112 -48 216t-156 220q-140 148 -212 264q-96 152 -96 280q0 28 16 92l4 20q0 16 -8 24t-14 4t-6 -12q-64 -84 -96 -164t-32 -168q0 -112 50 -216t154 -220z" />
</svg>
