<?xml version="1.0" standalone="no"?>
<!DOCTYPE svg PUBLIC "-//W3C//DTD SVG 1.1//EN" "http://www.w3.org/Graphics/SVG/1.1/DTD/svg11.dtd" >
<svg xmlns="http://www.w3.org/2000/svg" xmlns:xlink="http://www.w3.org/1999/xlink" version="1.1" viewBox="-10 0 1900 2048">
   <path fill="currentColor"
d="M940 640q108 0 182 74t74 182t-74 182t-182 74t-182 -74t-74 -182t74 -182t182 -74zM1452 1452l152 -156q-72 -60 -152 -60q-88 0 -150 62t-62 152t62 152t150 62q100 0 172 -84h144q-40 96 -124 154t-192 58q-140 0 -240 -100t-100 -242t100 -242t244 -100t236 104
l100 -104v344h-340zM940 1452q0 -60 8 -88h-8q-244 0 -446 -126t-306 -342q104 -216 306 -342t446 -126t446 126t306 342q-8 4 -12 16l-8 20q80 24 156 76l52 -112q-112 -284 -368 -462t-572 -178t-572 178t-368 462q112 284 368 462t572 178h8q-8 -24 -8 -84z" />
</svg>
