<?xml version="1.0" standalone="no"?>
<!DOCTYPE svg PUBLIC "-//W3C//DTD SVG 1.1//EN" "http://www.w3.org/Graphics/SVG/1.1/DTD/svg11.dtd" >
<svg xmlns="http://www.w3.org/2000/svg" xmlns:xlink="http://www.w3.org/1999/xlink" version="1.1" viewBox="-11 0 1725 2048">
   <path fill="currentColor"
d="M144 780q-24 -24 -56 -24q-52 0 -78 50t14 94q152 136 192 192q52 68 52 208q0 164 128 252q72 56 156 84v-332q0 -120 -80 -200zM1232 1108q-80 80 -80 196v336q120 -44 204 -134t84 -206q0 -144 48 -208q12 -24 44 -54t64 -62l56 -52l28 -24q24 -24 24 -60t-24 -60
t-60 -24t-60 24zM852 1708q92 0 172 -24v-304q0 -76 -52 -130t-120 -54t-120 52t-52 124v312q80 24 172 24zM596 724q0 56 -38 92t-90 36t-90 -36t-38 -90t38 -92t90 -38t90 38t38 90zM1364 724q0 56 -38 92t-90 36t-90 -36t-38 -90t38 -92t90 -38t90 38t38 90zM980 468
q0 56 -38 92t-90 36t-90 -36t-38 -90t38 -92t90 -38t90 38t38 90zM980 940q0 52 -38 90t-90 38t-90 -38t-38 -92t38 -90t90 -36t90 36t38 92z" />
</svg>
