<?xml version="1.0" standalone="no"?>
<!DOCTYPE svg PUBLIC "-//W3C//DTD SVG 1.1//EN" "http://www.w3.org/Graphics/SVG/1.1/DTD/svg11.dtd" >
<svg xmlns="http://www.w3.org/2000/svg" xmlns:xlink="http://www.w3.org/1999/xlink" version="1.1" viewBox="-10 0 1812 2048">
   <path fill="currentColor"
d="M1684 1920l-548 -544q-120 68 -264 50t-246 -120t-122 -246t52 -264l-556 -556l112 -112l1680 1684zM1232 708q-88 -88 -204 -114t-232 14l536 536q40 -116 14 -234t-114 -202zM1420 768q76 24 160 4q100 -24 172 -96q-100 -100 -248 -128q56 -84 68 -172l-52 12
q-64 20 -120 56q-4 -64 -38 -130t-90 -118q-72 72 -92 172q-20 84 0 164q84 16 148 82t92 154zM444 1248q-76 -24 -160 -4q-100 24 -172 96q100 100 248 128q-56 84 -68 172l52 -12q64 -20 120 -56q4 64 38 130t90 118q72 -72 92 -172q20 -84 0 -164q-84 -16 -148 -82
t-92 -154z" />
</svg>
