<?xml version="1.0" standalone="no"?>
<!DOCTYPE svg PUBLIC "-//W3C//DTD SVG 1.1//EN" "http://www.w3.org/Graphics/SVG/1.1/DTD/svg11.dtd" >
<svg xmlns="http://www.w3.org/2000/svg" xmlns:xlink="http://www.w3.org/1999/xlink" version="1.1" viewBox="-10 0 1556 2048">
   <path fill="currentColor"
d="M1364 428v1192h-1192v-1192h1192zM1364 256h-1192q-72 0 -122 50t-50 122v1192q0 72 50 122t122 50h1192q72 0 122 -50t50 -122v-1192q0 -72 -50 -122t-122 -50zM596 1536v-340h88v-216q0 -68 -50 -118t-122 -50h-84q-72 0 -122 50t-50 118v216h84v340h256zM468 724
q44 0 76 -30t32 -74t-32 -76t-76 -32t-74 32t-30 76t30 74t74 30zM1280 940l-212 -344l-216 344h428zM852 1108l216 344l212 -344h-428z" />
</svg>
