<?xml version="1.0" standalone="no"?>
<!DOCTYPE svg PUBLIC "-//W3C//DTD SVG 1.1//EN" "http://www.w3.org/Graphics/SVG/1.1/DTD/svg11.dtd" >
<svg xmlns="http://www.w3.org/2000/svg" xmlns:xlink="http://www.w3.org/1999/xlink" version="1.1" viewBox="-10 0 1812 2048">
   <path fill="currentColor"
d="M1792 1812l-1684 -1684l-108 108l160 164v1200q0 72 50 122t122 50h1200l152 148zM332 1600v-1032l224 228q-60 8 -100 56t-40 108v216h84v340h256v-340h88v-96l520 520h-1032zM604 408l-172 -172h1092q72 0 122 50t50 122v1092l-172 -172v-920h-920zM1440 920h-324
l-64 -64l176 -280zM1380 1184l-92 -96h152z" />
</svg>
