<?xml version="1.0" standalone="no"?>
<!DOCTYPE svg PUBLIC "-//W3C//DTD SVG 1.1//EN" "http://www.w3.org/Graphics/SVG/1.1/DTD/svg11.dtd" >
<svg xmlns="http://www.w3.org/2000/svg" xmlns:xlink="http://www.w3.org/1999/xlink" version="1.1" viewBox="-10 0 1652 2048">
   <path fill="currentColor"
d="M1120 720q80 84 108 194t0 220t-110 192t-192 110t-220 0t-192 -110t-110 -192t0 -220t110 -192t192 -110t220 0t194 108zM1452 388q-24 8 -52 12q-64 20 -120 56q-20 -144 -128 -248q-76 72 -96 168q-20 84 0 164q92 24 156 88t88 156q80 20 164 0q96 -20 168 -96
q-104 -104 -244 -128q56 -84 64 -172zM180 1660q24 -8 52 -12q64 -20 120 -56q20 144 128 248q76 -72 96 -168q20 -84 0 -164q-92 -24 -156 -88t-88 -156q-80 -20 -164 0q-96 20 -168 96q104 104 244 128q-56 84 -64 172z" />
</svg>
