<?xml version="1.0" standalone="no"?>
<!DOCTYPE svg PUBLIC "-//W3C//DTD SVG 1.1//EN" "http://www.w3.org/Graphics/SVG/1.1/DTD/svg11.dtd" >
<svg xmlns="http://www.w3.org/2000/svg" xmlns:xlink="http://www.w3.org/1999/xlink" version="1.1" viewBox="-10 0 2507 2048">
   <path fill="currentColor"
d="M709 1208q-125 72 -307 72h-146v-72h-73q-16 0 -26.5 -27.5t-10.5 -64.5q0 -31 8 -56q-66 -2 -110 -12t-44 -23.5t44 -24t110 -12.5q-8 -25 -8 -56q0 -37 10.5 -63.5t26.5 -26.5h73v-74h146q182 0 307 74h1272q38 6 78 13t79 13.5t56 9.5q78 13 137.5 32.5t92 40.5
t48 39.5t15.5 34t-15.5 34t-48 39t-92 40t-137.5 32.5q-88 15 -213 38h-1272zM1987 920q61 41 61 104.5t-61 105.5l93 34q36 -26 57 -62t21 -77.5t-21 -78t-57 -62.5zM714 1226h1160q-249 43 -521 90q-41 0 -82.5 11.5t-71 28t-54 32.5t-36.5 27l-12 11l-329 330
q-30 29 -81 50.5t-102 21.5h-110l-106 -530h33q180 0 312 -72zM402 750h-33l106 -530h110q52 0 102.5 21t80.5 51l329 330q4 4 12.5 11.5t35.5 26.5t55 33.5t70 26.5t83 12l521 92h-1160q-134 -74 -312 -74z" />
</svg>
