<?xml version="1.0" standalone="no"?>
<!DOCTYPE svg PUBLIC "-//W3C//DTD SVG 1.1//EN" "http://www.w3.org/Graphics/SVG/1.1/DTD/svg11.dtd" >
<svg xmlns="http://www.w3.org/2000/svg" xmlns:xlink="http://www.w3.org/1999/xlink" version="1.1" viewBox="-10 0 1812 2048">
   <path fill="currentColor"
d="M1792 1816l-1680 -1692l-112 112l564 564q-68 120 -50 264t120 246t246 122t264 -52l548 544zM752 1184q-52 -52 -68 -124t8 -140l324 324q-72 24 -142 10t-122 -70zM1172 516q-24 -80 -4 -160q20 -100 96 -172q116 116 128 248q60 -36 120 -56q32 -8 52 -12
q-12 100 -68 172q148 28 248 128q-72 72 -172 92q-84 20 -164 0q-16 -84 -82 -148t-154 -92zM948 748l-152 -152q112 -40 230 -14t206 114t114 204t-14 232l-144 -144q-16 -112 -76 -164q-80 -64 -164 -76zM692 1492q24 80 4 160q-20 100 -96 172q-116 -116 -128 -248
q-60 36 -120 56q-32 8 -52 12v0q12 -100 68 -172q-148 -28 -248 -128q72 -72 172 -92q84 -20 164 0q16 84 82 148t154 92z" />
</svg>
