<?xml version="1.0" standalone="no"?>
<!DOCTYPE svg PUBLIC "-//W3C//DTD SVG 1.1//EN" "http://www.w3.org/Graphics/SVG/1.1/DTD/svg11.dtd" >
<svg xmlns="http://www.w3.org/2000/svg" xmlns:xlink="http://www.w3.org/1999/xlink" version="1.1" viewBox="-10 0 1922 2048">
   <path fill="currentColor"
d="M1736 960q71 0 118.5 46t47.5 116q0 111 -107 148l-196 68l64 192q8 22 8 52q0 68 -48.5 117t-115.5 49q-54 0 -97.5 -30.5t-60.5 -81.5l-63 -190l-355 122l63 188q9 25 9 54q0 67 -48 115.5t-116 48.5q-54 0 -97.5 -30.5t-60.5 -81.5l-63 -186l-175 60q-33 10 -57 10
q-70 0 -116 -45.5t-46 -114.5q0 -54 31.5 -97.5t81.5 -60.5l178 -62l-120 -356l-178 60q-27 10 -55 10q-68 0 -115 -46.5t-47 -115.5q0 -53 31.5 -96t81.5 -60l180 -62l-61 -182q-9 -25 -9 -52q0 -68 48 -117t116 -49q54 0 97.5 30.5t60.5 81.5l62 184l354 -120l-62 -184
q-9 -25 -9 -54q0 -67 49 -115.5t116 -48.5q54 0 98 31t61 81l60 184l185 -62q22 -8 50 -8q68 0 116.5 45.5t48.5 112.5q0 52 -34.5 93.5t-84.5 58.5l-179 62l120 362l187 -64q28 -10 53 -10zM829 1260l354 -120l-120 -360l-354 122z" />
</svg>
