<?xml version="1.0" standalone="no"?>
<!DOCTYPE svg PUBLIC "-//W3C//DTD SVG 1.1//EN" "http://www.w3.org/Graphics/SVG/1.1/DTD/svg11.dtd" >
<svg xmlns="http://www.w3.org/2000/svg" xmlns:xlink="http://www.w3.org/1999/xlink" version="1.1" viewBox="-10 0 1896 2048">
   <path fill="currentColor"
d="M1348 1863q-64 28 -130 2t-94 -92t-2 -132t92 -92t132 0t92 90t0 130t-90 94zM568 511q68 0 118 -50t50 -120t-50 -120t-120 -50t-120 50t-50 120t50 120t122 50zM1796 1395l-328 140q32 32 48 68t20 88l328 -140zM784 747l64 156q-32 -12 -56 -28q-76 -48 -112 -124
l-64 -136q-28 -44 -66 -66t-76 -22t-78 20q-76 56 -120 168q-24 56 -28 100l-32 132q-12 68 -12 136v420l-204 276l128 96l236 -320l16 -276l144 200v396h156v-516l-156 -224v-52q0 -76 8 -112l32 -104q48 72 116 124q32 24 100 56q76 32 148 48l184 424q28 -32 68 -48
q32 -16 84 -20l-324 -768zM1228 1035l164 392l484 -208l-168 -392z" />
</svg>
