<?xml version="1.0" standalone="no"?>
<!DOCTYPE svg PUBLIC "-//W3C//DTD SVG 1.1//EN" "http://www.w3.org/Graphics/SVG/1.1/DTD/svg11.dtd" >
<svg xmlns="http://www.w3.org/2000/svg" xmlns:xlink="http://www.w3.org/1999/xlink" version="1.1" viewBox="-10 0 1688 2048">
   <path fill="currentColor"
d="M512 840h-512v-172h512q32 0 58 26t26 60t-26 60t-58 26zM1096 272l-32 76l-536 -32l-112 268h96q68 0 118 50t50 120t-50 120t-118 50h-236l-72 180l408 352l-32 80l160 64l516 -1264zM1604 436l64 160l-196 80l-64 -156zM1432 1056l236 100l-64 156l-240 -96z
M1208 1712l-160 64l-80 -196l156 -64z" />
</svg>
