<?xml version="1.0" standalone="no"?>
<!DOCTYPE svg PUBLIC "-//W3C//DTD SVG 1.1//EN" "http://www.w3.org/Graphics/SVG/1.1/DTD/svg11.dtd" >
<svg xmlns="http://www.w3.org/2000/svg" xmlns:xlink="http://www.w3.org/1999/xlink" version="1.1" viewBox="-10 0 1900 2048">
   <path fill="currentColor"
d="M1708 1364v-256q0 -68 -50 -118t-122 -50h-512v-256h172v-512h-512v512h172v256h-512q-72 0 -122 50t-50 118v256h-172v512h512v-512h-168v-256h512v256h-172v512h512v-512h-172v-256h512v256h-168v512h512v-512h-172zM856 340h168v172h-168v-172zM344 1708h-172v-172
h172v172zM1024 1708h-168v-172h168v172zM1708 1708h-172v-172h172v172z" />
</svg>
