<?xml version="1.0" standalone="no"?>
<!DOCTYPE svg PUBLIC "-//W3C//DTD SVG 1.1//EN" "http://www.w3.org/Graphics/SVG/1.1/DTD/svg11.dtd" >
<svg xmlns="http://www.w3.org/2000/svg" xmlns:xlink="http://www.w3.org/1999/xlink" version="1.1" viewBox="-10 0 1775 2048">
   <path fill="currentColor"
d="M1426 146q90 0 165.5 44t119.5 120t44 166v1096q0 90 -44 166t-119.5 120t-165.5 44h-1097q-90 0 -165.5 -44t-119.5 -120t-44 -166v-1096q0 -90 44 -166t119.5 -120t165.5 -44h1097zM1463 1354v-500q-37 41 -73 64q-41 27 -153.5 98.5t-171.5 111.5q-111 78 -187 78v0v0
q-77 0 -188 -78q-53 -36 -162 -105.5t-162 -106.5q-14 -9 -37.5 -31t-35.5 -31v500q0 45 31.5 76.5t77.5 31.5h951q46 0 78 -31.5t32 -76.5zM1463 698q0 -47 -31.5 -79.5t-78.5 -32.5h-951q-46 0 -77.5 31.5t-31.5 76.5q0 43 35 88.5t77 73.5q55 37 158 102.5t147 93.5
q1 1 15 10.5t18 12t17.5 11.5t20 12.5t19 10.5t21 10t19.5 7t20 6t18 2t18 -2t20 -6t19.5 -7t21 -10t19 -10.5t20 -12.5t17.5 -11.5t18 -12t15 -10.5q137 -88 305 -198q40 -27 76 -72t36 -84z" />
</svg>
