<?xml version="1.0" standalone="no"?>
<!DOCTYPE svg PUBLIC "-//W3C//DTD SVG 1.1//EN" "http://www.w3.org/Graphics/SVG/1.1/DTD/svg11.dtd" >
<svg xmlns="http://www.w3.org/2000/svg" xmlns:xlink="http://www.w3.org/1999/xlink" version="1.1" viewBox="-10 0 1556 2048">
   <path fill="currentColor"
d="M1452 1324q-168 0 -308 -52h-28q-32 0 -56 24l-188 188q-184 -96 -330 -242t-234 -322l188 -188q20 -16 24 -40t-8 -44q-44 -156 -44 -308q0 -32 -26 -58t-58 -26h-300q-32 0 -58 26t-26 58q0 396 196 732q192 332 524 524q336 196 732 196q32 0 58 -26t26 -58v-300
q0 -32 -26 -58t-58 -26zM172 428h128q8 92 40 220l-100 104q-56 -172 -68 -324zM1364 1620q-152 -12 -324 -68l104 -100q136 32 220 32v136zM1196 596l148 -148q-60 -64 -148 -64t-152 62t-64 150t64 152t152 64q52 0 96 -24t72 -64h148q-40 96 -126 156t-190 60
q-144 0 -244 -100t-100 -242t100 -242t242 -100t242 100l100 -100v340h-340z" />
</svg>
