<?xml version="1.0" standalone="no"?>
<!DOCTYPE svg PUBLIC "-//W3C//DTD SVG 1.1//EN" "http://www.w3.org/Graphics/SVG/1.1/DTD/svg11.dtd" >
<svg xmlns="http://www.w3.org/2000/svg" xmlns:xlink="http://www.w3.org/1999/xlink" version="1.1" viewBox="-10 0 1556 2048">
   <path fill="currentColor"
d="M172 1792v172h168v-172h-168zM684 1792h-172v172h172v-172zM340 1536v172h172v-172h-172zM684 1280v172h-172v-172h172zM1024 1792h-172v172h172v-172zM684 1536v172h168v-172h-168zM1024 1280v172h-172v-172h172zM1364 1792h-168v172h168v-172zM1024 1536v172h172v-172
h-172zM1108 940v168h-680v-168h256v-512h168v512h256zM1536 84v172h-256v256l-340 340v-236l168 -172v-188h-680v188l168 172v236l-340 -340v-256h-256v-172h1536z" />
</svg>
