<?xml version="1.0" standalone="no"?>
<!DOCTYPE svg PUBLIC "-//W3C//DTD SVG 1.1//EN" "http://www.w3.org/Graphics/SVG/1.1/DTD/svg11.dtd" >
<svg xmlns="http://www.w3.org/2000/svg" xmlns:xlink="http://www.w3.org/1999/xlink" version="1.1" viewBox="-10 0 1724 2048">
   <path fill="currentColor"
d="M1704 470v256h-1704v-256h1704zM1704 1150v428h-1704v-428h128q52 0 90 -36t38 -90t-38 -92t-90 -38h-128v-84h1704v84h-128q-52 0 -90 38t-38 92t38 90t90 36h128zM936 982q0 -36 -24 -62t-60 -26t-60 26t-24 62v168q0 36 24 62t60 26t60 -26t24 -62v-168z" />
</svg>
