<?xml version="1.0" standalone="no"?>
<!DOCTYPE svg PUBLIC "-//W3C//DTD SVG 1.1//EN" "http://www.w3.org/Graphics/SVG/1.1/DTD/svg11.dtd" >
<svg xmlns="http://www.w3.org/2000/svg" xmlns:xlink="http://www.w3.org/1999/xlink" version="1.1" viewBox="-10 0 1556 2048">
   <path fill="currentColor"
d="M768 84l-768 344v512q0 232 100 446t274 368t394 210q220 -56 394 -210t274 -368t100 -446v-512zM1108 1348q0 40 -32 72t-76 32h-472q-40 0 -70 -34t-30 -78v-300q0 -36 32 -68t68 -32v-216q0 -88 74 -150t166 -62t166 62t74 150v44h-112v-44q0 -48 -38 -78t-90 -30
t-90 30t-38 78v216h368q40 0 70 32t30 76v300z" />
</svg>
