<?xml version="1.0" standalone="no"?>
<!DOCTYPE svg PUBLIC "-//W3C//DTD SVG 1.1//EN" "http://www.w3.org/Graphics/SVG/1.1/DTD/svg11.dtd" >
<svg xmlns="http://www.w3.org/2000/svg" xmlns:xlink="http://www.w3.org/1999/xlink" version="1.1" viewBox="-10 0 1932 2048">
   <path fill="currentColor"
d="M588 880q-160 0 -272 112t-112 272q0 112 60 204l-264 264l120 120l264 -264q96 60 204 60q160 0 272 -112t112 -272t-112 -272t-272 -112zM588 1476q-88 0 -150 -62t-62 -150t62 -152t150 -64t150 64t62 152t-62 150t-150 62zM1912 368v1192q0 72 -50 122t-122 50h-856
q104 -64 172 -172h684v-852h-684v-340h-852v496q-80 76 -126 180t-46 220v-896q0 -72 50 -122t122 -50h1536q72 0 122 50t50 122z" />
</svg>
