<?xml version="1.0" standalone="no"?>
<!DOCTYPE svg PUBLIC "-//W3C//DTD SVG 1.1//EN" "http://www.w3.org/Graphics/SVG/1.1/DTD/svg11.dtd" >
<svg xmlns="http://www.w3.org/2000/svg" xmlns:xlink="http://www.w3.org/1999/xlink" version="1.1" viewBox="-10 0 1556 2048">
   <path fill="currentColor"
d="M1452 1388q-168 0 -308 -52h-28q-32 0 -56 24l-188 188q-184 -96 -330 -242t-234 -322l188 -188q20 -16 24 -40t-8 -44q-44 -156 -44 -308q0 -32 -26 -58t-58 -26h-300q-32 0 -58 26t-26 58q0 396 196 732q192 332 524 524q336 196 732 196q32 0 58 -26t26 -58v-300
q0 -32 -26 -58t-58 -26zM172 492h128q8 92 40 220l-100 104q-56 -172 -68 -324zM1364 1684q-152 -12 -324 -68l104 -100q136 32 220 32v136zM1196 320v-128l-192 192l192 192v-128q88 0 150 62t62 150q0 52 -24 96l96 92q56 -84 56 -188q0 -140 -100 -240t-240 -100z
M1196 876q-88 0 -152 -64t-64 -152q0 -48 24 -96l-92 -92q-60 88 -60 188q0 144 100 244t244 100v128l192 -192l-192 -192v128z" />
</svg>
