<?xml version="1.0" standalone="no"?>
<!DOCTYPE svg PUBLIC "-//W3C//DTD SVG 1.1//EN" "http://www.w3.org/Graphics/SVG/1.1/DTD/svg11.dtd" >
<svg xmlns="http://www.w3.org/2000/svg" xmlns:xlink="http://www.w3.org/1999/xlink" version="1.1" viewBox="-10 0 1652 2048">
   <path fill="currentColor"
d="M616 368l196 -284l196 284q-88 -28 -196 -28t-196 28zM1280 528q164 160 196 352l148 -316zM216 692q0 -4 4 -8l-4 8q8 -8 8 -16q52 -80 120 -148l-344 28l148 316q28 -100 68 -180zM1428 1316v0q-20 32 -28 40v16q-24 48 -88 120l-32 36l352 -28l-144 -312
q-36 84 -60 128zM232 1384q0 -4 -4 -10t-4 -10q-8 -8 -8 -16l-8 -12q-12 -16 -12 -32q-32 -84 -40 -128l-148 316l352 28q-72 -52 -128 -136zM864 1708h-104q-36 0 -108 -20l-36 -8l196 284l196 -284zM1172 664q-100 -96 -230 -130t-264 0t-234 130t-134 228t2 264t132 234
t228 136t264 -2t234 -132t136 -230t0 -266t-134 -232zM512 1324l180 -420l428 -188l-180 420zM872 1084q-24 24 -60 24t-60 -24t-24 -60t24 -60t60 -24t60 24t24 60t-24 60z" />
</svg>
