<?xml version="1.0" standalone="no"?>
<!DOCTYPE svg PUBLIC "-//W3C//DTD SVG 1.1//EN" "http://www.w3.org/Graphics/SVG/1.1/DTD/svg11.dtd" >
<svg xmlns="http://www.w3.org/2000/svg" xmlns:xlink="http://www.w3.org/1999/xlink" version="1.1" viewBox="-10 0 1739 2048">
   <path fill="currentColor"
d="M632 1033q60 80 120 156q140 176 252 288q68 68 192 156l24 16q52 32 60 92t-36 104q-28 28 -66 36t-70 -12q-132 -64 -280 -204q-112 -112 -256 -288l-120 -156zM868 797q80 60 156 120q176 140 288 252q68 68 156 192l16 24q32 52 92 60t104 -36q28 -28 36 -66t-12 -70
q-64 -132 -204 -280q-112 -112 -288 -256l-156 -120zM716 461l-240 -236l-300 -60l-40 40l196 196q72 -12 120 36q36 40 36 90t-38 88t-88 38t-90 -36q-24 -24 -32 -60t-4 -68l-196 -188l-40 40l60 300l236 240l120 240l164 -164l-88 -152l140 -136l160 76l164 -164z" />
</svg>
