<?xml version="1.0" standalone="no"?>
<!DOCTYPE svg PUBLIC "-//W3C//DTD SVG 1.1//EN" "http://www.w3.org/Graphics/SVG/1.1/DTD/svg11.dtd" >
<svg xmlns="http://www.w3.org/2000/svg" xmlns:xlink="http://www.w3.org/1999/xlink" version="1.1" viewBox="-10 0 1900 2048">
   <path fill="currentColor"
d="M1368 340h-1196q-72 0 -122 50t-50 122v940h172q0 108 74 182t182 74t182 -74t74 -182h512q0 108 74 182t182 74t182 -74t74 -182h172v-428l-256 -340h-256v-344zM788 452h24q32 8 50 34t10 62l-44 168l172 -40q32 -8 60 10t34 48t-10 58t-40 36l-172 44l120 116
q24 20 24 54t-22 60t-56 26t-58 -28l-128 -120l-44 172q-4 32 -32 48t-60 6t-48 -38t-4 -60l44 -168l-172 40q-32 8 -60 -8t-34 -44t10 -56t40 -36l172 -44l-120 -136q-20 -20 -20 -52t20 -54t54 -22t58 20l120 116l44 -168q4 -16 24 -30t44 -14zM1368 812h212l172 212h-384
v-212zM428 1324q52 0 90 38t38 88t-38 90t-90 40t-90 -40t-38 -90t38 -88t90 -38zM1452 1324q52 0 90 38t38 88t-38 90t-90 40t-90 -40t-38 -90t38 -88t90 -38z" />
</svg>
