<?xml version="1.0" standalone="no"?>
<!DOCTYPE svg PUBLIC "-//W3C//DTD SVG 1.1//EN" "http://www.w3.org/Graphics/SVG/1.1/DTD/svg11.dtd" >
<svg xmlns="http://www.w3.org/2000/svg" xmlns:xlink="http://www.w3.org/1999/xlink" version="1.1" viewBox="-10 0 1724 2048">
   <path fill="currentColor"
d="M1408 1432q-44 0 -74 -30t-30 -72t32 -72t70 -30t70 32t36 70t-28 70t-76 32zM1408 1024q-124 0 -212 88t-88 212q0 96 76 240q56 104 144 220l80 92l76 -92q88 -116 144 -220q76 -144 76 -240q0 -124 -88 -212t-208 -88zM596 172l-172 168h-256q-68 0 -118 50t-50 122
v1024q0 72 50 122t118 50h896q-84 -128 -120 -264q-24 8 -92 8q-116 0 -214 -58t-156 -156t-58 -214t58 -214t156 -156t214 -58q136 0 246 78t154 206q76 -28 156 -28q160 0 296 112v-452q0 -72 -50 -122t-118 -50h-256l-172 -168h-512zM844 768q-104 0 -176 76t-72 182
t74 180t182 74q36 0 84 -16q28 -176 164 -300q-20 -84 -92 -140t-164 -56h4h-4z" />
</svg>
