<?xml version="1.0" standalone="no"?>
<!DOCTYPE svg PUBLIC "-//W3C//DTD SVG 1.1//EN" "http://www.w3.org/Graphics/SVG/1.1/DTD/svg11.dtd" >
<svg xmlns="http://www.w3.org/2000/svg" xmlns:xlink="http://www.w3.org/1999/xlink" version="1.1" viewBox="-10 0 1724 2048">
   <path fill="currentColor"
d="M1408 1432q-44 0 -74 -30t-30 -72t32 -72t70 -30t70 32t36 70t-28 70t-76 32zM1408 1024q-124 0 -212 88t-88 212q0 96 76 240q56 104 144 220l80 92l76 -92q88 -116 144 -220q76 -144 76 -240q0 -124 -88 -212t-208 -88zM596 172l-152 168h-276q-68 0 -118 50t-50 122
v1024q0 72 50 122t118 50h896q-64 -96 -84 -172h-812v-1024h352l152 -172h360l152 172h352v360q88 24 168 92v-452q0 -72 -50 -122t-118 -50h-276l-152 -168h-512zM852 596q-116 0 -214 58t-156 156t-58 214t58 214t156 156t214 58q68 0 104 -8l-4 -20q-16 -64 -16 -100v-60
q-48 16 -84 16q-108 0 -182 -74t-74 -182t74 -182t182 -74q88 0 158 56t90 140q80 -64 152 -84q-44 -128 -154 -206t-246 -78z" />
</svg>
