<?xml version="1.0" standalone="no"?>
<!DOCTYPE svg PUBLIC "-//W3C//DTD SVG 1.1//EN" "http://www.w3.org/Graphics/SVG/1.1/DTD/svg11.dtd" >
<svg xmlns="http://www.w3.org/2000/svg" xmlns:xlink="http://www.w3.org/1999/xlink" version="1.1" viewBox="-10 0 1900 2048">
   <path fill="currentColor"
d="M1624 684h-256v-344h-1196q-72 0 -122 50t-50 122v940h172q0 108 74 182t182 74t182 -74t74 -182h512q0 108 74 182t182 74t182 -74t74 -182h172v-428zM428 1580q-52 0 -90 -40t-38 -90t38 -88t90 -38t90 38t38 88t-38 90t-90 40zM1196 1280h-580q-32 -40 -82 -62
t-106 -22t-106 22t-82 62h-68v-768h1024v768zM1452 1580q-52 0 -90 -40t-38 -90t38 -88t90 -38t90 38t38 88t-38 90t-90 40zM1368 1024v-212h212l172 212h-384zM600 940h-172v-172h172v-172h168v172h172v172h-172v168h-168v-168z" />
</svg>
