<?xml version="1.0" standalone="no"?>
<!DOCTYPE svg PUBLIC "-//W3C//DTD SVG 1.1//EN" "http://www.w3.org/Graphics/SVG/1.1/DTD/svg11.dtd" >
<svg xmlns="http://www.w3.org/2000/svg" xmlns:xlink="http://www.w3.org/1999/xlink" version="1.1" viewBox="-10 0 1724 2048">
   <path fill="currentColor"
d="M1364 936q-92 0 -166 64t-74 152v128q-36 0 -68 32t-32 68v300q0 44 30 78t70 34h472q44 0 76 -32t32 -72v-300q0 -44 -30 -76t-70 -32v-128q0 -88 -74 -152t-166 -64zM1364 1040q52 0 90 30t38 82v128h-256v-128q0 -52 38 -82t90 -30zM468 256q-124 0 -232 64t-172 172
t-64 232t64 232t172 172t232 64h488v-40q0 -60 8 -88h-496q-140 0 -240 -100t-100 -240t100 -240t240 -100h896q88 0 150 62t62 150q0 56 -28 106t-80 82q48 8 136 60q100 -104 100 -246t-100 -242t-240 -100h-896zM640 512q-92 0 -154 62t-62 150t62 150t154 62h384
q64 -88 152 -128h-536q-40 0 -64 -22t-24 -62t24 -62t64 -22h640v-128h-640z" />
</svg>
