<?xml version="1.0" standalone="no"?>
<!DOCTYPE svg PUBLIC "-//W3C//DTD SVG 1.1//EN" "http://www.w3.org/Graphics/SVG/1.1/DTD/svg11.dtd" >
<svg xmlns="http://www.w3.org/2000/svg" xmlns:xlink="http://www.w3.org/1999/xlink" version="1.1" viewBox="-10 0 1896 2048">
   <path fill="currentColor"
d="M1708 342h-940q-72 0 -122 50t-50 118v1196l344 -340h768q68 0 118 -50t50 -122v-684q0 -68 -50 -118t-118 -50zM1708 1194h-836l-104 104v-788h940v684zM256 510q-40 0 -62 24t-22 62t22 62t62 24h172v-172h-172zM172 854q-40 0 -64 22t-24 62t24 62t64 22h256v-168
h-256zM84 1194q-36 0 -60 24t-24 62t24 62t60 24h344v-172h-344z" />
</svg>
