<?xml version="1.0" standalone="no"?>
<!DOCTYPE svg PUBLIC "-//W3C//DTD SVG 1.1//EN" "http://www.w3.org/Graphics/SVG/1.1/DTD/svg11.dtd" >
<svg xmlns="http://www.w3.org/2000/svg" xmlns:xlink="http://www.w3.org/1999/xlink" version="1.1" viewBox="-10 0 1812 2048">
   <path fill="currentColor"
d="M1792 1820l-1680 -1692l-112 112l592 588l-336 332l180 180l-264 264v240l384 -384l180 180l332 -332l616 612zM864 1280l-120 120l-240 -240l216 -212l120 120l-96 92zM924 728l-120 -120l300 -292l176 180l120 -120l-120 -120l120 -120l368 360l-120 120l-128 -120
l-120 120l180 180l-288 296l-240 -236l52 -60l120 120l116 -120l-236 -240z" />
</svg>
