<?xml version="1.0" standalone="no"?>
<!DOCTYPE svg PUBLIC "-//W3C//DTD SVG 1.1//EN" "http://www.w3.org/Graphics/SVG/1.1/DTD/svg11.dtd" >
<svg xmlns="http://www.w3.org/2000/svg" xmlns:xlink="http://www.w3.org/1999/xlink" version="1.1" viewBox="-10 0 2653 2048">
   <path fill="currentColor"
d="M2027 956l21 360q4 79 -94 147t-268 107.5t-369 39.5t-369 -39.5t-268.5 -107.5t-94.5 -147l21 -360l656 206q24 8 55 8q30 0 54 -8zM2633 586q0 24 -25 34l-1280 402q-10 2 -11 2q-2 0 -12 -2l-745 -234q-49 38 -81 126.5t-39 203.5q33 20 52.5 53t19.5 73
q0 37 -18 69.5t-48 52.5l66 494q2 17 -9 30q-11 12 -28 12h-219q-16 0 -27 -12q-12 -14 -10 -30l67 -494q-31 -20 -49 -52.5t-18 -69.5q0 -40 21 -74t54 -54q6 -107 33.5 -206.5t78.5 -169.5l-381 -120q-25 -10 -25 -34q0 -26 25 -36l1280 -402q5 -2 12 -2q6 0 11 2
l1280 402q25 10 25 36z" />
</svg>
