<?xml version="1.0" standalone="no"?>
<!DOCTYPE svg PUBLIC "-//W3C//DTD SVG 1.1//EN" "http://www.w3.org/Graphics/SVG/1.1/DTD/svg11.dtd" >
<svg xmlns="http://www.w3.org/2000/svg" xmlns:xlink="http://www.w3.org/1999/xlink" version="1.1" viewBox="-10 0 1812 2048">
   <path fill="currentColor"
d="M1792 1820l-1680 -1692l-112 112l428 428h-60l-112 212l156 76l60 -120h128l84 88l-248 936h180l16 -76l300 -444l300 444l16 76h180l-68 -272l332 332zM700 1528l104 -384l76 112zM1164 1528l-180 -264l16 -24l112 108zM1120 924h60l16 76zM1112 668h384l112 220
l-156 76l-60 -128h-356l-256 -256l40 -168h224zM624 428l-128 -128l76 -144h728l108 212l-152 76l-68 -120h-512z" />
</svg>
