<?xml version="1.0" standalone="no"?>
<!DOCTYPE svg PUBLIC "-//W3C//DTD SVG 1.1//EN" "http://www.w3.org/Graphics/SVG/1.1/DTD/svg11.dtd" >
<svg xmlns="http://www.w3.org/2000/svg" xmlns:xlink="http://www.w3.org/1999/xlink" version="1.1" viewBox="-10 0 1556 2048">
   <path fill="currentColor"
d="M1408 300l-128 -128l-128 128l-128 -128l-128 128l-128 -128l-128 128l-128 -128l-128 128l-128 -128l-128 128l-128 -128v1704l128 -128l128 128l128 -128l128 128l128 -128l128 128l128 -128l128 128l128 -128l128 128l128 -128l128 128v-1704zM1364 1628h-1192v-1208
h1192v1208zM256 1280h1024v172h-1024v-172zM256 940h1024v168h-1024v-168zM256 596h1024v172h-1024v-172z" />
</svg>
