<?xml version="1.0" standalone="no"?>
<!DOCTYPE svg PUBLIC "-//W3C//DTD SVG 1.1//EN" "http://www.w3.org/Graphics/SVG/1.1/DTD/svg11.dtd" >
<svg xmlns="http://www.w3.org/2000/svg" xmlns:xlink="http://www.w3.org/1999/xlink" version="1.1" viewBox="-10 0 1812 2048">
   <path fill="currentColor"
d="M1792 1820l-1680 -1692l-112 112l344 340h-264v172h168v684h172v-776l280 280q-48 12 -78 56t-30 96v344h512v-96l580 580zM760 1264v-172h96l168 172h-264zM1104 904l-324 -324h152q72 0 122 50t50 122v152zM1616 752h-344v-172h344q68 0 118 50t50 122v128q0 52 -38 90
t-90 38q52 0 90 38t38 90v128q0 64 -44 114t-108 58l-172 -172h156v-172h-172v-168h172v-172z" />
</svg>
