<?xml version="1.0" standalone="no"?>
<!DOCTYPE svg PUBLIC "-//W3C//DTD SVG 1.1//EN" "http://www.w3.org/Graphics/SVG/1.1/DTD/svg11.dtd" >
<svg xmlns="http://www.w3.org/2000/svg" xmlns:xlink="http://www.w3.org/1999/xlink" version="1.1" viewBox="-10 0 1900 2048">
   <path fill="currentColor"
d="M600 172q164 0 300 80t216 216t80 300q0 152 -70 280t-186 208v196q0 36 -24 60t-60 24h-512q-40 0 -64 -24t-24 -60v-196q-116 -80 -186 -208t-70 -280q0 -164 80 -300t218 -216t302 -80zM344 1792v-84h512v84q0 40 -24 62t-64 22h-340q-40 0 -62 -22t-22 -62zM600 340
q-120 0 -218 58t-154 156t-56 214q0 132 70 236t186 156v204h340v-204q120 -52 188 -156t68 -236q0 -116 -56 -214t-154 -156t-214 -58zM1664 1236v128h-128v-128h128zM1496 812h-128v-44q0 -108 72 -182t182 -74t184 74t74 182q0 64 -30 118t-82 86l-24 16q-80 52 -80 148
v16h-128v-16q0 -80 38 -146t98 -102l28 -16q52 -40 52 -104q0 -52 -40 -90t-90 -38t-88 38t-38 90v44z" />
</svg>
