<?xml version="1.0" standalone="no"?>
<!DOCTYPE svg PUBLIC "-//W3C//DTD SVG 1.1//EN" "http://www.w3.org/Graphics/SVG/1.1/DTD/svg11.dtd" >
<svg xmlns="http://www.w3.org/2000/svg" xmlns:xlink="http://www.w3.org/1999/xlink" version="1.1" viewBox="-10 0 1812 2048">
   <path fill="currentColor"
d="M1792 1820l-1680 -1692l-112 112l344 340h-8q-112 0 -184 74t-72 180t68 174q-68 68 -68 174t72 180t182 74t184 -74t74 -182q220 -20 332 -20l760 760zM1616 1416l-572 -572q36 0 114 -4t114 -4q0 -108 74 -182t184 -74t182 74t72 180t-68 174q68 68 68 172
q0 80 -46 146t-122 90z" />
</svg>
