<?xml version="1.0" standalone="no"?>
<!DOCTYPE svg PUBLIC "-//W3C//DTD SVG 1.1//EN" "http://www.w3.org/Graphics/SVG/1.1/DTD/svg11.dtd" >
<svg xmlns="http://www.w3.org/2000/svg" xmlns:xlink="http://www.w3.org/1999/xlink" version="1.1" viewBox="-10 0 1526 2048">
   <path fill="currentColor"
d="M857 1166l15 808q-67 -12 -120 -12q-51 0 -120 12l14 -808q-51 -87 -193.5 -339t-245 -423t-207.5 -330q68 16 123 16q50 0 127 -16q72 126 154 263t189.5 312.5t158.5 260.5q35 -57 156.5 -252.5t198.5 -325t146 -258.5q64 16 123 16q63 0 130 -16v0q-26 36 -51.5 73.5
t-53.5 84t-45 74.5t-50.5 85.5t-45.5 78.5q-114 193 -403 696z" />
</svg>
