<?xml version="1.0" standalone="no"?>
<!DOCTYPE svg PUBLIC "-//W3C//DTD SVG 1.1//EN" "http://www.w3.org/Graphics/SVG/1.1/DTD/svg11.dtd" >
<svg xmlns="http://www.w3.org/2000/svg" xmlns:xlink="http://www.w3.org/1999/xlink" version="1.1" viewBox="-10 0 1900 2048">
   <path fill="currentColor"
d="M600 172q-164 0 -302 80t-218 216t-80 300q0 152 70 280t186 208v196q0 36 24 60t64 24h512q36 0 60 -24t24 -60v-196q116 -88 186 -216t70 -272q0 -164 -80 -300t-216 -216t-300 -80zM344 1792q0 40 22 62t62 22h340q40 0 64 -22t24 -62v-84h-512v84zM1664 1236v128
h-128v-128h128zM1496 812h-128v-44q0 -108 72 -182t182 -74t184 74t74 182q0 64 -30 118t-82 86l-24 16q-80 52 -80 148v16h-128v-16q0 -80 38 -146t98 -102l28 -16q52 -40 52 -104q0 -52 -40 -90t-90 -38t-88 38t-38 90v44z" />
</svg>
