<?xml version="1.0" standalone="no"?>
<!DOCTYPE svg PUBLIC "-//W3C//DTD SVG 1.1//EN" "http://www.w3.org/Graphics/SVG/1.1/DTD/svg11.dtd" >
<svg xmlns="http://www.w3.org/2000/svg" xmlns:xlink="http://www.w3.org/1999/xlink" version="1.1" viewBox="-10 0 1556 2048">
   <path fill="currentColor"
d="M596 172q-164 0 -300 80t-216 216t-80 300q0 152 70 280t186 208v196q0 36 24 60t60 24h512q40 0 64 -24t24 -60v-196q116 -88 186 -216t70 -272q0 -164 -80 -300t-218 -216t-302 -80zM340 1792q0 40 24 62t64 22h340q40 0 62 -22t22 -62v-84h-512v84zM1364 1024v-428
h172v512h-172v-84zM1364 1452v-172h172v172h-172z" />
</svg>
