<?xml version="1.0" standalone="no"?>
<!DOCTYPE svg PUBLIC "-//W3C//DTD SVG 1.1//EN" "http://www.w3.org/Graphics/SVG/1.1/DTD/svg11.dtd" >
<svg xmlns="http://www.w3.org/2000/svg" xmlns:xlink="http://www.w3.org/1999/xlink" version="1.1" viewBox="-10 0 1812 2048">
   <path fill="currentColor"
d="M1108 556q-140 0 -240 100t-100 240v684h-600q-68 0 -118 -50t-50 -122v-1024q0 -72 50 -122t118 -50h512l172 172h684q68 0 118 50t50 122v184l-184 -184h-412zM1792 1068v596q0 72 -50 122t-122 50h-512q-72 0 -122 -50t-50 -122v-768q0 -72 50 -122t122 -50h340z
M1620 1136l-240 -240h-16v256h256v-16z" />
</svg>
