<?xml version="1.0" standalone="no"?>
<!DOCTYPE svg PUBLIC "-//W3C//DTD SVG 1.1//EN" "http://www.w3.org/Graphics/SVG/1.1/DTD/svg11.dtd" >
<svg xmlns="http://www.w3.org/2000/svg" xmlns:xlink="http://www.w3.org/1999/xlink" version="1.1" viewBox="-10 0 1812 2048">
   <path fill="currentColor"
d="M168 1408h600v172h-600q-68 0 -118 -50t-50 -122v-1024q0 -72 50 -122t118 -50h512l172 172h684q68 0 118 50t50 122v184l-168 -172v-12h-1368v852zM1792 1068v596q0 72 -50 122t-122 50h-512q-72 0 -122 -50t-50 -122v-768q0 -72 50 -122t122 -50h340zM1620 1152h-256
v-256h-256v768h512v-512z" />
</svg>
