<?xml version="1.0" standalone="no"?>
<!DOCTYPE svg PUBLIC "-//W3C//DTD SVG 1.1//EN" "http://www.w3.org/Graphics/SVG/1.1/DTD/svg11.dtd" >
<svg xmlns="http://www.w3.org/2000/svg" xmlns:xlink="http://www.w3.org/1999/xlink" version="1.1" viewBox="-10 0 1724 2048">
   <path fill="currentColor"
d="M852 172q-232 0 -428 114t-310 310t-114 428t114 428t310 310t428 114t428 -114t310 -310t114 -428t-114 -428t-310 -310t-428 -114zM580 600q64 0 108 46t44 108t-44 106t-106 44t-108 -44t-46 -106t46 -108t106 -46zM1128 1452q-64 0 -108 -46t-44 -108t44 -106
t106 -44t108 44t46 106t-46 108t-106 46zM552 1452l-128 -128l728 -728l128 128z" />
</svg>
