<?xml version="1.0" standalone="no"?>
<!DOCTYPE svg PUBLIC "-//W3C//DTD SVG 1.1//EN" "http://www.w3.org/Graphics/SVG/1.1/DTD/svg11.dtd" >
<svg xmlns="http://www.w3.org/2000/svg" xmlns:xlink="http://www.w3.org/1999/xlink" version="1.1" viewBox="-10 0 1740 2048">
   <path fill="currentColor"
d="M878 898h828q14 79 14 146q0 187 -61 345.5t-170 271.5t-266.5 177t-344.5 64q-120 0 -234 -31.5t-210 -88t-177 -137.5t-137.5 -177t-88 -210t-31.5 -233.5t31.5 -233.5t88 -210.5t137.5 -177.5t177 -137.5t210 -88t234 -31.5q342 0 588 230l-239 230q-59 -58 -146 -97
t-203 -39q-110 0 -210.5 44t-173.5 118t-116.5 177t-43.5 215.5t43.5 215t116.5 177t173.5 118t210.5 43.5q99 0 182.5 -27t137 -68t93.5 -94t59 -99.5t26 -89.5h-498v-302z" />
</svg>
