<?xml version="1.0" standalone="no"?>
<!DOCTYPE svg PUBLIC "-//W3C//DTD SVG 1.1//EN" "http://www.w3.org/Graphics/SVG/1.1/DTD/svg11.dtd" >
<svg xmlns="http://www.w3.org/2000/svg" xmlns:xlink="http://www.w3.org/1999/xlink" version="1.1" viewBox="-10 0 1724 2048">
   <path fill="currentColor"
d="M1280 1300q0 60 -46 106t-108 46t-106 -46t-44 -108t44 -106t106 -44t108 44t46 108zM580 904q64 0 108 -44t44 -106t-44 -108t-106 -46t-108 46t-46 108t46 106t106 44zM424 1324l128 128l728 -728l-128 -128zM1704 1024q0 232 -114 428t-310 310t-428 114t-428 -114
t-310 -310t-114 -428t114 -428t310 -310t428 -114t428 114t310 310t114 428zM1536 1024q0 -184 -92 -342t-250 -250t-342 -92t-342 92t-250 250t-92 342t92 342t250 250t342 92t342 -92t250 -250t92 -342z" />
</svg>
