<?xml version="1.0" standalone="no"?>
<!DOCTYPE svg PUBLIC "-//W3C//DTD SVG 1.1//EN" "http://www.w3.org/Graphics/SVG/1.1/DTD/svg11.dtd" >
<svg xmlns="http://www.w3.org/2000/svg" xmlns:xlink="http://www.w3.org/1999/xlink" version="1.1" viewBox="-10 0 1728 2048">
   <path fill="currentColor"
d="M1364 1932l-48 -44l-40 -36q-136 -128 -184 -184q-68 -92 -68 -170t56 -134t132 -56q44 0 86 18t66 50q28 -32 68 -50t88 -18q76 0 132 54t56 134t-72 172q-44 56 -180 184l-40 36zM1196 284v512l-172 -168l-172 168v-512h-340v1368h348q16 88 60 168h-580
q-64 0 -116 -52t-52 -116v-88h-172v-168h172v-344h-172v-168h172v-344h-172v-168h172v-88q0 -68 50 -118t118 -50h1024q68 0 120 52t52 116v800q-84 -32 -172 -32v-768h-168zM172 1564h168v-168h-168v168zM172 1052h168v-168h-168v168zM172 540h168v-168h-168v168z" />
</svg>
