<?xml version="1.0" standalone="no"?>
<!DOCTYPE svg PUBLIC "-//W3C//DTD SVG 1.1//EN" "http://www.w3.org/Graphics/SVG/1.1/DTD/svg11.dtd" >
<svg xmlns="http://www.w3.org/2000/svg" xmlns:xlink="http://www.w3.org/1999/xlink" version="1.1" viewBox="-10 0 1820 2048">
   <path fill="currentColor"
d="M1716 1200q32 40 48 80l8 16q44 108 18 222t-110 194q-72 64 -176 92q-96 20 -200 8q-92 -12 -174 -66t-130 -138q-32 -56 -44 -108q-12 -32 -20 -92q-4 -104 36 -204t116 -164q-36 76 -28 166t60 154l12 12q16 16 38 8t22 -32l-4 -20q-56 -148 -14 -304t162 -256
q76 -64 152 -84q-44 88 -30 190t86 170q20 24 72 60q36 28 52 44zM1524 1600l-4 -4q32 -24 46 -64t14 -76l-4 -28q-8 -36 -32 -68q-12 -20 -50 -54t-54 -54l-40 -68q-24 56 -12 128l8 40q16 68 12 104q-12 44 -46 80t-90 48q36 36 86 52t98 0q32 -12 68 -36zM84 1256h688
l-4 88q0 176 84 328v12h-768v-428zM0 744h512v428h-512v-428zM596 744h512v8q-120 68 -202 178t-118 242h-192v-428zM84 232h684v428h-684v-428zM852 232h768v428h-768v-428z" />
</svg>
