<?xml version="1.0" standalone="no"?>
<!DOCTYPE svg PUBLIC "-//W3C//DTD SVG 1.1//EN" "http://www.w3.org/Graphics/SVG/1.1/DTD/svg11.dtd" >
<svg xmlns="http://www.w3.org/2000/svg" xmlns:xlink="http://www.w3.org/1999/xlink" version="1.1" viewBox="-10 0 1388 2048">
   <path fill="currentColor"
d="M1036 720q28 32 48 76l8 16q44 108 18 222t-110 194q-72 68 -176 92q-96 24 -200 8q-92 -12 -174 -66t-130 -134q-32 -60 -44 -112q-12 -32 -20 -92q-4 -104 36 -204t116 -164q-36 80 -28 168t60 156l12 8q16 20 38 10t22 -34l-4 -20q-56 -148 -14 -304t162 -256
q76 -60 152 -80q-44 88 -30 190t86 166q20 24 68 60q40 28 56 48zM844 1116l-4 -4q32 -24 46 -62t14 -78l-4 -28q-8 -36 -32 -68q-12 -20 -50 -52t-58 -58t-36 -66q-24 60 -12 132l8 40q16 64 12 100q-12 44 -46 80t-90 48q36 36 86 52t98 0q36 -12 68 -36zM600 1504v84
q0 36 24 62t60 26t60 -26t24 -62v-84h172v84q0 36 26 62t60 26t60 -26t26 -62v-84q76 0 164 52q92 52 92 120v168h-1368v-168q0 -68 96 -120q84 -52 160 -52v84q0 36 26 62t60 26t60 -26t26 -62v-84h172z" />
</svg>
