<?xml version="1.0" standalone="no"?>
<!DOCTYPE svg PUBLIC "-//W3C//DTD SVG 1.1//EN" "http://www.w3.org/Graphics/SVG/1.1/DTD/svg11.dtd" >
<svg xmlns="http://www.w3.org/2000/svg" xmlns:xlink="http://www.w3.org/1999/xlink" version="1.1" viewBox="-10 0 1900 2048">
   <path fill="currentColor"
d="M1324 1302l244 144l-64 104l-308 -184v-428h128v364zM1880 1278q0 164 -80 302t-218 218t-302 80q-148 0 -276 -70t-212 -186h-536v-684h-256l856 -768l596 536q188 56 308 214t120 358zM1708 1278q0 -116 -58 -214t-156 -154t-214 -56t-214 56t-154 154t-56 214t56 214
t154 156t214 58t214 -58t156 -156t58 -214z" />
</svg>
