<?xml version="1.0" standalone="no"?>
<!DOCTYPE svg PUBLIC "-//W3C//DTD SVG 1.1//EN" "http://www.w3.org/Graphics/SVG/1.1/DTD/svg11.dtd" >
<svg xmlns="http://www.w3.org/2000/svg" xmlns:xlink="http://www.w3.org/1999/xlink" version="1.1" viewBox="-10 0 1812 2048">
   <path fill="currentColor"
d="M168 296h256l172 -168h512l172 168h256q68 0 118 50t50 122v512q-112 -84 -256 -84q-96 0 -188 40q-40 -152 -152 -264q-116 -120 -256 -120q-116 0 -214 58t-156 156t-58 214t58 214t156 156t214 58q56 0 104 -16q-20 48 -20 100v172h-768q-68 0 -118 -50t-50 -122
v-1024q0 -72 50 -122t118 -50zM852 724q108 0 182 74t74 182t-74 182t-182 74t-182 -74t-74 -182t74 -182t182 -74zM1792 1516v300q0 40 -34 72t-78 32h-468q-40 0 -72 -34t-32 -78v-300q0 -36 32 -68t72 -32v-128q0 -88 72 -152t164 -64t166 64t74 152v128q40 0 72 32
t32 76zM1576 1280q0 -52 -36 -82t-90 -30t-92 30t-38 82v128h256v-128z" />
</svg>
