<?xml version="1.0" standalone="no"?>
<!DOCTYPE svg PUBLIC "-//W3C//DTD SVG 1.1//EN" "http://www.w3.org/Graphics/SVG/1.1/DTD/svg11.dtd" >
<svg xmlns="http://www.w3.org/2000/svg" xmlns:xlink="http://www.w3.org/1999/xlink" version="1.1" viewBox="-10 0 1812 2048">
   <path fill="currentColor"
d="M1792 1516v300q0 40 -34 72t-78 32h-468q-40 0 -72 -34t-32 -78v-300q0 -36 32 -68t72 -32v-128q0 -88 72 -152t164 -64t166 64t74 152v128q40 0 72 32t32 76zM1576 1280q0 -52 -36 -82t-90 -30t-92 30t-38 82v128h256v-128zM1536 296q68 0 118 50t50 122v512
q-76 -56 -168 -76v-436h-348l-156 -172h-360l-156 172h-348v1024h768v172h-768q-68 0 -118 -50t-50 -122v-1024q0 -72 50 -122t118 -50h272l156 -168h512l156 168h272zM852 552q164 0 284 110t140 270q-108 48 -178 148t-74 220q-44 40 -68 92q-48 16 -104 16
q-116 0 -214 -58t-156 -156t-58 -214t58 -214t156 -156t214 -58zM852 1236q104 0 180 -76t76 -180t-76 -180t-180 -76t-180 76t-76 180t76 180t180 76z" />
</svg>
