<?xml version="1.0" standalone="no"?>
<!DOCTYPE svg PUBLIC "-//W3C//DTD SVG 1.1//EN" "http://www.w3.org/Graphics/SVG/1.1/DTD/svg11.dtd" >
<svg xmlns="http://www.w3.org/2000/svg" xmlns:xlink="http://www.w3.org/1999/xlink" version="1.1" viewBox="-10 0 1724 2048">
   <path fill="currentColor"
d="M1536 1620v-1364h-1368v1364h-168v172h1704v-172h-168zM1192 768h172v172h-172v-172zM1024 940h-684v-172h684v172zM1364 596h-172v-168h172v168zM1024 428v168h-684v-168h684zM340 1620v-512h684v156q-64 48 -64 124q0 60 42 104t106 44t106 -44t42 -104q0 -40 -16 -72
t-48 -52v-156h172v512h-1024z" />
</svg>
