<?xml version="1.0" standalone="no"?>
<!DOCTYPE svg PUBLIC "-//W3C//DTD SVG 1.1//EN" "http://www.w3.org/Graphics/SVG/1.1/DTD/svg11.dtd" >
<svg xmlns="http://www.w3.org/2000/svg" xmlns:xlink="http://www.w3.org/1999/xlink" version="1.1" viewBox="-10 0 1802 2048">
   <path fill="currentColor"
d="M1684 1578v-42v-42l88 -72q12 -8 4 -28l-84 -144q-8 -16 -24 -12l-108 40l-12 -8q-36 -20 -60 -28l-16 -116q-4 -16 -20 -16h-172q-20 0 -20 16l-16 116q-24 8 -60 32l-12 4l-104 -40q-20 -4 -28 12l-88 144q-8 20 8 28l88 72l-4 40l4 44l-88 68q-16 12 -8 28l88 148
q4 12 28 12l104 -44q40 28 72 40l16 116q0 16 20 16h172q16 0 20 -16l16 -116q28 -12 72 -40l108 44q20 0 24 -12l84 -148q12 -16 -4 -28zM1364 1686q-60 0 -104 -44t-44 -106t44 -106t106 -44t106 44t44 106t-44 106t-108 44zM776 1622h-776v-88l172 -168v-512
q0 -200 116 -358t308 -214v-28q0 -68 50 -118t122 -50t122 50t50 118v28q192 56 308 214t116 358v84q-84 0 -168 24v-108q0 -120 -58 -218t-156 -154t-214 -56t-214 56t-156 154t-58 218v596h436q-8 44 -8 84t8 88zM792 1706q28 84 68 144q-44 28 -92 28q-72 0 -122 -50
t-50 -122h196z" />
</svg>
