<?xml version="1.0" standalone="no"?>
<!DOCTYPE svg PUBLIC "-//W3C//DTD SVG 1.1//EN" "http://www.w3.org/Graphics/SVG/1.1/DTD/svg11.dtd" >
<svg xmlns="http://www.w3.org/2000/svg" xmlns:xlink="http://www.w3.org/1999/xlink" version="1.1" viewBox="-10 0 1212 2048">
   <path fill="currentColor"
d="M1144 136q-52 -52 -120 -52h-856q-68 0 -118 52t-50 120v1536q0 68 50 120t118 52h856q68 0 118 -52t50 -120v-1536q0 -68 -48 -120zM936 596q0 40 -22 64t-62 24h-512q-40 0 -62 -24t-22 -64v-168q0 -40 22 -64t62 -24h512q40 0 62 24t22 64v168z" />
</svg>
