<?xml version="1.0" standalone="no"?>
<!DOCTYPE svg PUBLIC "-//W3C//DTD SVG 1.1//EN" "http://www.w3.org/Graphics/SVG/1.1/DTD/svg11.dtd" >
<svg xmlns="http://www.w3.org/2000/svg" xmlns:xlink="http://www.w3.org/1999/xlink" version="1.1" viewBox="-10 0 1388 2048">
   <path fill="currentColor"
d="M1196 980v-384l-180 92q8 40 8 80q0 140 -100 240t-240 100t-240 -100t-100 -240q0 -40 8 -80l-264 -136l596 -296l596 296v428h-84zM684 852l-172 -84q0 68 50 118t122 50t122 -50t50 -118zM920 548l-224 -116l-228 120l220 112zM684 1192q128 0 280 40q172 44 276 112
q128 84 128 192v256h-1368v-256q0 -108 128 -192q104 -68 276 -112q152 -40 280 -40zM684 1356q-120 0 -248 32q-112 32 -192 76t-80 72v92h1040v-92q0 -28 -80 -72t-192 -76q-128 -32 -248 -32z" />
</svg>
