<?xml version="1.0" standalone="no"?>
<!DOCTYPE svg PUBLIC "-//W3C//DTD SVG 1.1//EN" "http://www.w3.org/Graphics/SVG/1.1/DTD/svg11.dtd" >
<svg xmlns="http://www.w3.org/2000/svg" xmlns:xlink="http://www.w3.org/1999/xlink" version="1.1" viewBox="-10 0 1812 2048">
   <path fill="currentColor"
d="M1256 736q-64 0 -114 44t-54 112l184 184q76 -4 118 -58t38 -120t-48 -114t-124 -48zM1172 1192l336 340v-4zM544 564l428 428zM1600 564h-72q-124 -84 -272 -84t-268 84h-228l224 224q40 -96 128 -142t186 -34t172 84t84 170t-36 186t-142 128l240 240q64 -8 108 -56
t44 -116v-512q0 -72 -50 -122t-118 -50zM1256 736q-64 0 -114 44t-54 112l184 184q76 -4 118 -58t38 -120t-48 -114t-124 -48zM1256 736q-64 0 -114 44t-54 112l184 184q76 -4 118 -58t38 -120t-48 -114t-124 -48zM1792 1812l-1684 -1684l-108 108l328 328h-96
q-68 0 -118 50t-50 122v512q0 72 50 122t118 50h88v84q0 36 24 60t60 24h172q32 0 58 -24t26 -60v-84h512v84q0 36 26 60t58 24h96l332 332zM576 1164h-344v-88h344v88zM576 992h-344v-84h344v84zM576 820h-344v-84h264l80 76v8zM108 128l436 436zM544 564l428 428z
M1508 1528v4l-336 -340zM544 564l-436 -436zM972 992l-428 -428zM1508 1528v4l-336 -340z" />
</svg>
