<?xml version="1.0" standalone="no"?>
<!DOCTYPE svg PUBLIC "-//W3C//DTD SVG 1.1//EN" "http://www.w3.org/Graphics/SVG/1.1/DTD/svg11.dtd" >
<svg xmlns="http://www.w3.org/2000/svg" xmlns:xlink="http://www.w3.org/1999/xlink" version="1.1" viewBox="-10 0 1802 2048">
   <path fill="currentColor"
d="M1364 938q-160 0 -298 80t-218 218t-80 298q0 40 8 88h-776v-88l172 -168v-512q0 -200 118 -358t306 -214v-28q0 -68 50 -118t122 -50t122 50t50 118v28q188 56 306 214t118 358v84zM596 1706q0 72 50 122t122 50q48 0 92 -28q-40 -60 -68 -144h-196zM1772 1646
q16 12 4 28l-84 148q-4 12 -24 12l-108 -44q-44 28 -72 40l-16 116q-4 16 -20 16h-172q-20 0 -20 -16l-16 -116q-32 -12 -72 -40l-104 44q-24 0 -28 -12l-88 -148q-8 -16 8 -28l88 -68l-4 -44l4 -40l-88 -72q-16 -8 -8 -28l88 -144q8 -16 28 -12l104 40l12 -4q36 -24 60 -32
l16 -116q0 -16 20 -16h172q16 0 20 16l16 116q24 8 60 28l12 8l108 -40q16 -4 24 12l84 144q8 20 -4 28l-88 72v42v42zM1516 1534q0 -60 -44 -104t-106 -44t-106 44t-44 106t44 106t106 44t106 -44t44 -108z" />
</svg>
