<?xml version="1.0" standalone="no"?>
<!DOCTYPE svg PUBLIC "-//W3C//DTD SVG 1.1//EN" "http://www.w3.org/Graphics/SVG/1.1/DTD/svg11.dtd" >
<svg xmlns="http://www.w3.org/2000/svg" xmlns:xlink="http://www.w3.org/1999/xlink" version="1.1" viewBox="-10 0 1775 2048">
   <path fill="currentColor"
d="M1073 1290q6 6 6 15t-6 15q-25 26 -69.5 40.5t-72 17t-53.5 2.5t-54 -2.5t-72.5 -17t-69.5 -40.5q-6 -6 -6 -15t6 -15t15 -6t15 6q24 25 71.5 36.5t94.5 11.5t94 -11.5t71 -36.5q6 -6 15 -6t15 6zM773 1112q0 36 -26 62t-62 26t-62 -26t-26 -62t26 -62t62 -26t62 26
t26 62zM1159 1112q0 36 -26 62t-62 26t-62 -26t-26 -62t26 -62t62 -26t62 26t26 62zM1405 994q0 -48 -34.5 -82t-83.5 -34q-48 0 -84 36q-130 -90 -305 -94l62 -278l195 44q1 37 26.5 62.5t61.5 25.5t62 -26t26 -62t-26 -62t-62 -26q-25 0 -46 13t-32 35l-216 -48
q-8 -2 -15 3t-9 13l-69 306q-177 7 -303 94q-35 -36 -84 -36t-83.5 34t-34.5 82q0 35 18 63.5t48 42.5q-6 34 -6 56q0 91 62.5 168.5t170.5 122.5t235 45t235 -45t170.5 -122.5t62.5 -168.5q0 -35 -6 -56q29 -15 46.5 -43t17.5 -63zM1755 476v1096q0 90 -44 166t-119.5 120
t-165.5 44h-1097q-90 0 -165.5 -44t-119.5 -120t-44 -166v-1096q0 -90 44 -166t119.5 -120t165.5 -44h1097q90 0 165.5 44t119.5 120t44 166z" />
</svg>
