<?xml version="1.0" standalone="no"?>
<!DOCTYPE svg PUBLIC "-//W3C//DTD SVG 1.1//EN" "http://www.w3.org/Graphics/SVG/1.1/DTD/svg11.dtd" >
<svg xmlns="http://www.w3.org/2000/svg" xmlns:xlink="http://www.w3.org/1999/xlink" version="1.1" viewBox="-10 0 1686 2048">
   <path fill="currentColor"
d="M85 386q-28 0 -54 20t-30 54t16 62l456 580v512l196 196q24 24 60 24t60 -24t24 -60t-24 -60l-148 -144v-500l-488 -628q-24 -32 -68 -32zM1153 982v672q8 44 -20 70t-64 26t-60 -24l-172 -172q-28 -32 -24 -72v-500h-4l-492 -628q-20 -28 -16 -64t30 -56t54 -20h1196
q28 0 54 20t30 56t-16 64l-492 628h-4z" />
</svg>
