<?xml version="1.0" standalone="no"?>
<!DOCTYPE svg PUBLIC "-//W3C//DTD SVG 1.1//EN" "http://www.w3.org/Graphics/SVG/1.1/DTD/svg11.dtd" >
<svg xmlns="http://www.w3.org/2000/svg" xmlns:xlink="http://www.w3.org/1999/xlink" version="1.1" viewBox="-10 0 1984 2048">
   <path fill="currentColor"
d="M1280 1154h128v236l208 120l-72 112l-264 -152v-316zM1708 922q-8 -140 -104 -210t-246 -62t-306 92q-40 -52 -104 -76q36 -164 136 -212q76 -40 112 -108t16 -138t-96 -114q-84 -52 -220 -52q-148 0 -224 100q-72 96 -66 248t86 312q-52 36 -76 100q-164 -36 -212 -136
q-36 -76 -102 -110t-136 -16t-114 94q-52 84 -52 220q0 148 100 224q96 72 248 68t312 -88q28 40 100 76q-36 164 -136 216q-76 32 -110 100t-16 138t94 114q84 48 220 48q44 0 60 -8q84 124 214 194t282 70q164 0 300 -80t216 -216t80 -300q0 -152 -70 -280t-186 -208z
M856 810q36 0 60 24t24 62t-24 62t-62 24t-62 -24t-24 -62t24 -62t64 -24zM1368 1834q-120 0 -218 -56t-154 -154t-56 -216t56 -216t154 -154t216 -56t216 56t154 154t56 216t-56 216t-154 154t-214 56z" />
</svg>
