<?xml version="1.0" standalone="no"?>
<!DOCTYPE svg PUBLIC "-//W3C//DTD SVG 1.1//EN" "http://www.w3.org/Graphics/SVG/1.1/DTD/svg11.dtd" >
<svg xmlns="http://www.w3.org/2000/svg" xmlns:xlink="http://www.w3.org/1999/xlink" version="1.1" viewBox="-10 0 1644 2048">
   <path fill="currentColor"
d="M888 1114q-32 -52 -32 -112q0 -88 62 -150t150 -62h84q80 0 136 -44q24 -20 36 -44l4 80q-4 96 -20 176q-20 112 -72 176q-64 80 -168 80q-60 0 -112 -32q-48 124 -64 252q80 16 142 56t94 96q108 -76 174 -196t66 -260h256q0 220 -110 406t-296 296t-406 110t-406 -110
t-296 -296t-110 -406t110 -406t296 -296t406 -110v-212l340 340l-340 344v-216q-152 0 -278 76t-202 202t-76 278q0 140 66 260t174 196q36 -60 102 -100t154 -52q-12 -96 -44 -176q-44 44 -112 44t-118 -50t-50 -122v-84q0 -72 -44 -128h60q72 4 132 16q84 24 132 64
q60 52 60 132q0 36 -12 68q-72 -48 -116 -68q40 28 86 88t86 132q96 -232 256 -392q-92 60 -180 156z" />
</svg>
