<?xml version="1.0" standalone="no"?>
<!DOCTYPE svg PUBLIC "-//W3C//DTD SVG 1.1//EN" "http://www.w3.org/Graphics/SVG/1.1/DTD/svg11.dtd" >
<svg xmlns="http://www.w3.org/2000/svg" xmlns:xlink="http://www.w3.org/1999/xlink" version="1.1" viewBox="-10 0 1775 2048">
   <path fill="currentColor"
d="M990 958l103 -30v-70q0 -91 -66.5 -155.5t-157.5 -64.5t-157.5 64t-66.5 154v324q0 22 -15.5 38t-38 16t-38 -16t-15.5 -38v-138h-172v140q0 93 65.5 158.5t159.5 65.5q92 0 158 -64.5t66 -155.5v-320q0 -23 15.5 -38.5t38.5 -15.5q22 0 37 15.5t15 38.5v60zM1370 1182
v-140h-171v144q0 23 -15.5 38.5t-38.5 15.5q-22 0 -37 -15.5t-15 -38.5v-140l-103 30l-69 -32v140q0 92 66.5 157t159 65t158 -65.5t65.5 -158.5zM1755 1024.5q0 119.5 -31.5 233t-88 210t-137.5 177.5t-177 137.5t-210 88t-233 31.5t-233 -31.5t-210.5 -88t-177.5 -137.5
t-137.5 -177.5t-88 -210t-31.5 -233t31.5 -233.5t88 -210t137.5 -177t177.5 -137.5t210.5 -88.5t233 -32t233 32t210 88.5t177 137.5t137.5 177t88 210t31.5 233.5z" />
</svg>
