<?xml version="1.0" standalone="no"?>
<!DOCTYPE svg PUBLIC "-//W3C//DTD SVG 1.1//EN" "http://www.w3.org/Graphics/SVG/1.1/DTD/svg11.dtd" >
<svg xmlns="http://www.w3.org/2000/svg" xmlns:xlink="http://www.w3.org/1999/xlink" version="1.1" viewBox="-10 0 1700 2048">
   <path fill="currentColor"
d="M340 1708h512v84q0 36 -26 60t-58 24h-344q-32 0 -58 -24t-26 -60v-84zM768 1272v92h-344v-204q-112 -52 -184 -158t-72 -234q0 -116 58 -214t156 -156t210 -58t212 60q68 -60 164 -100q-164 -128 -372 -128q-164 0 -300 80t-216 216t-80 300q0 148 68 278t188 210v196
q0 32 24 58t60 26h512q36 0 60 -26t24 -58v-60q-100 -48 -168 -120zM1612 848l-40 -140l108 -92l-140 -4l-56 -136l-48 140l-144 8l116 88l-36 140l120 -80zM1460 1044q-88 -12 -160 -62t-118 -130t-54 -170t24 -174q8 -20 -6 -38t-38 -14q-144 28 -232 138t-92 252t88 258
q76 96 190 130t228 2t194 -128q12 -16 4 -38t-28 -26z" />
</svg>
