<?xml version="1.0" standalone="no"?>
<!DOCTYPE svg PUBLIC "-//W3C//DTD SVG 1.1//EN" "http://www.w3.org/Graphics/SVG/1.1/DTD/svg11.dtd" >
<svg xmlns="http://www.w3.org/2000/svg" xmlns:xlink="http://www.w3.org/1999/xlink" version="1.1" viewBox="-10 0 2214 2048">
   <path fill="currentColor"
d="M1214 814v-136q0 -47 -34.5 -81.5t-82.5 -34.5t-82 34t-34 82v700q0 99 -39 188.5t-105 154t-157 103t-190 38.5q-100 0 -190.5 -39t-156 -104.5t-104.5 -156.5t-39 -190v-304h375v298q0 49 34 83.5t82 34.5t82.5 -34.5t34.5 -83.5v-708q0 -96 39.5 -183.5t105.5 -150.5
t156 -100.5t188 -37.5t188.5 37.5t156 101t105 151.5t39.5 186v156l-223 66zM1819 1068h375v304q0 99 -39 190t-104.5 156.5t-156 104.5t-190.5 39t-190.5 -38.5t-156 -103.5t-104.5 -154.5t-39 -189.5v-306l149 70l223 -66v308q0 47 34.5 81.5t82.5 34.5t82 -34t34 -82
v-314z" />
</svg>
