<?xml version="1.0" standalone="no"?>
<!DOCTYPE svg PUBLIC "-//W3C//DTD SVG 1.1//EN" "http://www.w3.org/Graphics/SVG/1.1/DTD/svg11.dtd" >
<svg xmlns="http://www.w3.org/2000/svg" xmlns:xlink="http://www.w3.org/1999/xlink" version="1.1" viewBox="-10 0 1812 2048">
   <path fill="currentColor"
d="M1792 1812l-1684 -1684l-108 108l124 128l-48 204l344 88l260 260l-244 96l452 116l120 116l-708 -176l-80 332l1260 316l204 204zM568 1400l-164 -40l40 -168l168 40zM900 1484l-164 -44l40 -164l164 40zM1228 1564l-164 -40l40 -168l20 8l124 120zM1588 1392l192 48
l-28 116zM1256 1060l-140 -140l304 76zM792 484l-20 88l224 228l560 140l80 -332l-1108 -280l116 116zM1288 608l164 40l-40 168l-168 -40zM956 524l164 44l-40 164l-164 -40z" />
</svg>
