<?xml version="1.0" standalone="no"?>
<!DOCTYPE svg PUBLIC "-//W3C//DTD SVG 1.1//EN" "http://www.w3.org/Graphics/SVG/1.1/DTD/svg11.dtd" >
<svg xmlns="http://www.w3.org/2000/svg" xmlns:xlink="http://www.w3.org/1999/xlink" version="1.1" viewBox="-10 0 1556 2048">
   <path fill="currentColor"
d="M1364 256h-1192q-72 0 -122 50t-50 122v1192q0 72 50 122t122 50h1192q72 0 122 -50t50 -122v-1192q0 -72 -50 -122t-122 -50zM1364 1620h-1192v-1192h1192v1192zM768 1536q140 0 258 -68t186 -186t68 -258t-68 -258t-186 -186t-258 -68t-258 68t-186 186t-68 258t68 258
t186 186t258 68zM704 1360q-68 -12 -128 -56l128 -128v184zM832 1360v-180l128 128q-60 40 -128 52zM1052 1216l-128 -128h180q-12 68 -52 128zM1104 960h-180l128 -128q40 60 52 128zM832 688q68 12 128 56l-128 128v-184zM768 940q36 0 60 24t24 60t-24 60t-60 24t-60 -24
t-24 -60t24 -60t60 -24zM704 688v180l-128 -128q60 -40 128 -52zM484 832l128 128h-180q12 -68 52 -128zM612 1088l-128 128q-36 -56 -52 -128h180z" />
</svg>
