<?xml version="1.0" standalone="no"?>
<!DOCTYPE svg PUBLIC "-//W3C//DTD SVG 1.1//EN" "http://www.w3.org/Graphics/SVG/1.1/DTD/svg11.dtd" >
<svg xmlns="http://www.w3.org/2000/svg" xmlns:xlink="http://www.w3.org/1999/xlink" version="1.1" viewBox="-10 0 1812 2048">
   <path fill="currentColor"
d="M1792 1831l-1684 -1684l-108 108l156 160q-40 16 -40 52l-40 540q-8 128 44 246t156 198q-4 -120 36 -228l172 -484l100 100l-152 428q-56 148 -16 304t164 260q104 96 242 122t270 -18t224 -152l100 -112l268 268zM332 839l-44 -20l16 -256l108 108zM724 1171l-40 -32
l52 -144l76 76zM1180 999l308 -348q24 -28 58 -30t60 20t28 56t-22 62l-316 356zM1596 875q24 -28 58 -30t58 20t26 56t-18 58l-264 300l-116 -116zM1756 1167q24 20 26 54t-22 58l-140 164l-116 -116l132 -152q24 -28 58 -30t62 22zM1232 595q20 -24 54 -26t60 20t28 56
t-18 58l-224 252l-116 -116zM900 719l196 -400q12 -32 46 -42t64 4t40 46t-2 64l-36 68q-40 16 -72 52l-208 236zM680 499l-124 -120l112 -232q16 -32 48 -42t62 4t42 46t-4 64zM728 551l204 -420q16 -32 48 -42t62 4t42 46t-4 64l-232 468z" />
</svg>
