<?xml version="1.0" standalone="no"?>
<!DOCTYPE svg PUBLIC "-//W3C//DTD SVG 1.1//EN" "http://www.w3.org/Graphics/SVG/1.1/DTD/svg11.dtd" >
<svg xmlns="http://www.w3.org/2000/svg" xmlns:xlink="http://www.w3.org/1999/xlink" version="1.1" viewBox="-10 0 1732 2048">
   <path fill="currentColor"
d="M1456 554q-68 0 -118 50t-50 122v580q-88 84 -88 190t74 180t184 74t182 -74t72 -182q0 -56 -22 -106t-62 -82v-580q0 -72 -50 -122t-122 -50zM1456 638q36 0 62 24t26 64v84h-172v-84q0 -40 26 -64t58 -24zM1116 1774q-136 60 -232 60q-60 0 -136 -28q-48 -12 -144 -56
t-144 -60q-80 -28 -148 -28q-120 0 -312 60v-168q192 -60 324 -60q60 0 136 24q48 16 144 58t144 62q80 24 148 24q96 0 228 -60v172h-8zM884 1494q96 0 232 -60v-172q-76 32 -172 60v-852q0 -40 24 -64t64 -24h236q-24 -76 -90 -122t-146 -46q-112 0 -184 72t-72 184v84
h-428v-84q0 -40 24 -64t60 -24h240q-24 -76 -90 -122t-150 -46q-108 0 -182 72t-74 184v700q-76 8 -168 48v172q164 -68 316 -68q60 0 140 28q48 16 140 58t140 58q80 28 140 28zM348 726h428v168h-428v-168zM348 1066h428v240q-60 -20 -176 -68q-84 -40 -124 -56
q-72 -24 -128 -32v-84z" />
</svg>
