<?xml version="1.0" standalone="no"?>
<!DOCTYPE svg PUBLIC "-//W3C//DTD SVG 1.1//EN" "http://www.w3.org/Graphics/SVG/1.1/DTD/svg11.dtd" >
<svg xmlns="http://www.w3.org/2000/svg" xmlns:xlink="http://www.w3.org/1999/xlink" version="1.1" viewBox="-10 0 1212 2048">
   <path fill="currentColor"
d="M1008 1256q-20 -12 -68 -68q104 -144 164 -300q88 -220 88 -440q0 -124 -44 -190t-124 -66q-72 0 -154 60t-154 168q-76 124 -120 280q-44 -156 -120 -280q-72 -108 -154 -168t-154 -60q-80 0 -124 66t-44 190q0 220 88 440q60 156 164 300q-48 56 -68 68l-4 4
q-56 48 -84 92q-56 76 -56 160q0 144 100 244t244 100q80 0 156 -24q36 -12 56 -24v0l24 12q36 12 76 24q56 12 112 12q144 0 244 -100t100 -244q0 -84 -56 -160q-28 -44 -84 -92zM368 1060q-80 -120 -132 -256q-68 -180 -68 -356q0 -56 12 -84q48 16 108 88q72 88 116 212
q60 160 64 352q-56 16 -100 44zM468 1448q-16 0 -30 -18t-14 -44t14 -46t30 -20t30 20t14 46t-14 44t-30 18zM596 1684q-32 0 -58 -32t-26 -52t24 -32t60 -12t60 12t24 32t-26 52t-58 32zM724 1448q-16 0 -30 -18t-14 -44t14 -46t30 -20t30 20t14 46t-14 44t-30 18z
M724 1016q4 -192 64 -352q44 -124 116 -212q60 -72 108 -88q12 28 12 84q0 176 -68 356q-52 136 -132 256q-44 -28 -100 -44z" />
</svg>
