<?xml version="1.0" standalone="no"?>
<!DOCTYPE svg PUBLIC "-//W3C//DTD SVG 1.1//EN" "http://www.w3.org/Graphics/SVG/1.1/DTD/svg11.dtd" >
<svg xmlns="http://www.w3.org/2000/svg" xmlns:xlink="http://www.w3.org/1999/xlink" version="1.1" viewBox="-10 0 1676 2048">
   <path fill="currentColor"
d="M1392 1596q56 -88 60 -190t-44 -194t-136 -146t-190 -58t-192 44t-146 136t-60 190t42 192t138 148t202 58t202 -60l268 264l120 -120zM1068 1604q-88 0 -152 -62t-64 -150t64 -150t152 -62t150 62t62 150t-62 150t-150 62zM600 1692h-428v-1024h1192v256q108 68 172 172
v-428q0 -72 -50 -122t-122 -50h-168q0 -116 -58 -214t-156 -156t-214 -58t-214 58t-156 156t-58 214h-168q-72 0 -122 50t-50 122v1024q0 68 50 118t122 50h600q-104 -64 -172 -168zM768 240q108 0 182 74t74 182h-512q0 -108 74 -182t182 -74zM1024 752h172q0 48 -12 100
q-56 -16 -116 -16q-40 0 -60 4q16 -44 16 -88zM576 1132q-108 -52 -172 -154t-64 -226h172q0 84 48 150t124 90q-68 64 -108 140z" />
</svg>
