<?xml version="1.0" standalone="no"?>
<!DOCTYPE svg PUBLIC "-//W3C//DTD SVG 1.1//EN" "http://www.w3.org/Graphics/SVG/1.1/DTD/svg11.dtd" >
<svg xmlns="http://www.w3.org/2000/svg" xmlns:xlink="http://www.w3.org/1999/xlink" version="1.1" viewBox="-10 0 1638 2048">
   <path fill="currentColor"
d="M1210 386q104 0 144 8q28 328 -60 588q80 0 172 36q40 -132 56 -284q16 -124 12 -252q-4 -88 -16 -176l-8 -68l-84 -12q-104 -12 -216 -12q-308 0 -548 96q-336 132 -504 432q-204 376 -144 992q188 16 276 16q284 0 512 -72q-36 -88 -36 -168q-204 68 -476 68h-112
q-28 -604 240 -896q144 -164 384 -240q184 -56 408 -56zM1194 554q-240 0 -416 92q-152 72 -256 208q-80 112 -128 256q-36 100 -48 208l-8 92q96 -192 220 -352q108 -136 228 -244q100 -88 204 -156q76 -48 148 -80zM1194 1410h-256v168h256v256h168v-256h256v-168h-256
v-256h-168v256z" />
</svg>
