<?xml version="1.0" standalone="no"?>
<!DOCTYPE svg PUBLIC "-//W3C//DTD SVG 1.1//EN" "http://www.w3.org/Graphics/SVG/1.1/DTD/svg11.dtd" >
<svg xmlns="http://www.w3.org/2000/svg" xmlns:xlink="http://www.w3.org/1999/xlink" version="1.1" viewBox="-10 0 1212 2048">
   <path fill="currentColor"
d="M1024 1196q-16 -16 -44 -48l-12 -16q92 -144 148 -296q76 -204 76 -408q0 -124 -44 -190t-124 -66q-72 0 -154 60t-154 168q-76 124 -120 280q-44 -156 -120 -280q-72 -108 -154 -168t-154 -60q-80 0 -124 66t-44 190q0 204 76 408q56 152 148 296l-12 16q-28 32 -44 48
l-12 12q-60 48 -96 96q-60 88 -60 188q0 160 112 272t272 112q56 0 112 -8q40 -8 72 -24l28 -8l28 8q32 16 72 24q56 8 112 8q160 0 272 -112t112 -272q0 -100 -60 -188q-36 -48 -96 -96zM1012 344q12 28 12 84q0 164 -60 328q-44 128 -116 248q-48 -36 -120 -52
q8 -176 64 -324q48 -120 116 -200q60 -68 104 -84zM168 428q0 -56 12 -84q44 16 104 84q68 80 116 200q56 148 68 324q-76 16 -120 52q-76 -120 -120 -248q-60 -164 -60 -328zM808 1708q-100 0 -188 -48q24 -12 42 -38t18 -44t-24 -30t-60 -12t-60 12t-24 30t18 44t42 38
q-88 48 -188 48q-88 0 -152 -64t-64 -152q0 -72 88 -148q48 -36 108 -116l4 -4q56 -68 88 -88q48 -28 140 -28t140 28q32 20 88 88l4 4q60 80 108 116q88 76 88 148q0 88 -64 152t-152 64zM768 1364q0 28 -14 46t-30 18t-30 -18t-14 -44t14 -46t30 -20t30 20t14 44z
M512 1364q0 28 -14 46t-30 18t-30 -18t-14 -44t14 -46t30 -20t30 20t14 44z" />
</svg>
