<?xml version="1.0" standalone="no"?>
<!DOCTYPE svg PUBLIC "-//W3C//DTD SVG 1.1//EN" "http://www.w3.org/Graphics/SVG/1.1/DTD/svg11.dtd" >
<svg xmlns="http://www.w3.org/2000/svg" xmlns:xlink="http://www.w3.org/1999/xlink" version="1.1" viewBox="-10 0 1708 2048">
   <path fill="currentColor"
d="M1284 1804l-236 -256l100 -96l136 136l304 -308l100 120zM792 1536q0 -96 34 -184t98 -156l-132 76l-212 -124v-248l212 -124l212 124v220q76 -52 168 -80v-140l172 -96l200 52l44 -164l-152 -40l40 -152l-168 -44l-52 200l-168 96l-212 -124v-192l148 -144l-120 -120
l-112 108l-112 -108l-120 120l148 144v192l-216 124l-168 -96l-52 -200l-164 44l40 152l-148 40l44 164l196 -52l172 96v248l-172 96l-196 -52l-44 164l148 40l-40 152l168 44l52 -200l168 -96l212 124v192l-148 144l120 120l112 -108l112 108l8 -8q-120 -144 -120 -332z
" />
</svg>
