<?xml version="1.0" standalone="no"?>
<!DOCTYPE svg PUBLIC "-//W3C//DTD SVG 1.1//EN" "http://www.w3.org/Graphics/SVG/1.1/DTD/svg11.dtd" >
<svg xmlns="http://www.w3.org/2000/svg" xmlns:xlink="http://www.w3.org/1999/xlink" version="1.1" viewBox="-10 0 1784 2048">
   <path fill="currentColor"
d="M1344 796l132 -284l-352 -32q76 68 132 160q36 64 56 148q-72 -20 -148 -20h-36q-48 -116 -154 -186t-234 -70q-116 0 -214 58t-156 156t-58 214q0 128 70 234t186 154v36q0 164 80 302t218 218t300 80t300 -80t218 -218t80 -302q0 -196 -118 -354t-302 -214zM484 940
q0 -108 74 -182t182 -74q68 0 126 32t90 92q-120 44 -212 136t-136 212q-60 -32 -92 -90t-32 -126zM1164 1792q-116 0 -214 -58t-154 -156t-56 -214t56 -214t154 -154t214 -56t214 56t156 154t58 214t-58 214t-156 156t-214 58zM1208 1388l244 144l-64 104l-308 -184v-428
h128v364zM740 340q-108 0 -204 36l204 -292l204 292q-100 -36 -204 -36zM224 1236q48 92 132 160l-356 -32l152 -320q20 104 72 192zM152 836l-152 -324l356 -28q-84 68 -136 156t-68 196z" />
</svg>
