<?xml version="1.0" standalone="no"?>
<!DOCTYPE svg PUBLIC "-//W3C//DTD SVG 1.1//EN" "http://www.w3.org/Graphics/SVG/1.1/DTD/svg11.dtd" >
<svg xmlns="http://www.w3.org/2000/svg" xmlns:xlink="http://www.w3.org/1999/xlink" version="1.1" viewBox="-10 0 1628 2048">
   <path fill="currentColor"
d="M596 1590l180 -180h-436v-172h600v12l180 -184h-780v-168h856v96l104 -108q64 -64 156 -64q40 0 80 16v-452q0 -72 -50 -122t-122 -50h-1192q-72 0 -122 50t-50 122v1192q0 72 50 122t122 50h424v-160zM340 554h856v172h-856v-172zM1596 1182l-84 84l-176 -172l84 -88
q16 -12 34 -12t34 12l108 112q12 12 12 32t-12 32zM768 1658l516 -516l176 176l-516 516h-176v-176z" />
</svg>
