<?xml version="1.0" standalone="no"?>
<!DOCTYPE svg PUBLIC "-//W3C//DTD SVG 1.1//EN" "http://www.w3.org/Graphics/SVG/1.1/DTD/svg11.dtd" >
<svg xmlns="http://www.w3.org/2000/svg" xmlns:xlink="http://www.w3.org/1999/xlink" version="1.1" viewBox="-10 0 1788 2048">
   <path fill="currentColor"
d="M1348 792l128 -280l-348 -36q80 68 128 164q32 68 60 144q-88 -16 -148 -16h-32q-52 -116 -156 -186t-236 -70q-120 0 -218 56t-154 154t-56 218q0 132 70 236t186 156v32q0 164 80 302t216 218t300 80t302 -80t218 -218t80 -302q0 -196 -118 -354t-302 -218zM1168 1792
q-116 0 -214 -56t-154 -154t-56 -216t56 -216t154 -154t216 -56t216 56t154 154t56 216t-56 216t-154 154t-218 56zM1212 1384l248 144l-68 100l-308 -176v-428h128v360zM744 340q-68 0 -208 36l208 -292l204 292q-136 -36 -204 -36zM224 1236q52 92 136 164l-352 -36
l156 -324q12 120 60 196zM152 836l-152 -324l360 -24q-68 52 -136 152q-56 96 -72 196z" />
</svg>
