<?xml version="1.0" standalone="no"?>
<!DOCTYPE svg PUBLIC "-//W3C//DTD SVG 1.1//EN" "http://www.w3.org/Graphics/SVG/1.1/DTD/svg11.dtd" >
<svg xmlns="http://www.w3.org/2000/svg" xmlns:xlink="http://www.w3.org/1999/xlink" version="1.1" viewBox="-10 0 1900 2048">
   <path fill="currentColor"
d="M1368 512h-88v-84q0 -72 -50 -122t-118 -50h-344q-68 0 -118 50t-50 122v84h-88q-136 0 -254 68t-188 186t-70 258t70 258t188 186t254 68v256h172v-256h512v256h172v-256q136 0 254 -68t188 -186t70 -258t-70 -258t-188 -186t-254 -68zM768 428h344v84h-344v-84z" />
</svg>
