<?xml version="1.0" standalone="no"?>
<!DOCTYPE svg PUBLIC "-//W3C//DTD SVG 1.1//EN" "http://www.w3.org/Graphics/SVG/1.1/DTD/svg11.dtd" >
<svg xmlns="http://www.w3.org/2000/svg" xmlns:xlink="http://www.w3.org/1999/xlink" version="1.1" viewBox="-10 0 1628 2048">
   <path fill="currentColor"
d="M596 1750h-424q-72 0 -122 -50t-50 -122v-1192q0 -72 50 -122t122 -50h1192q72 0 122 50t50 122v452q-40 -16 -84 -16t-88 20v-456h-1192v1192h436l-12 12v160zM340 726h856v-172h-856v172zM340 1410h436l164 -160v-12h-600v172zM340 1066h780l76 -72v-96h-856v168z
M1596 1118l-108 -112q-16 -12 -34 -12t-34 12l-84 88l176 172l84 -84q12 -12 12 -32t-12 -32zM768 1834h176l516 -516l-176 -176l-516 516v176z" />
</svg>
