<?xml version="1.0" standalone="no"?>
<!DOCTYPE svg PUBLIC "-//W3C//DTD SVG 1.1//EN" "http://www.w3.org/Graphics/SVG/1.1/DTD/svg11.dtd" >
<svg xmlns="http://www.w3.org/2000/svg" xmlns:xlink="http://www.w3.org/1999/xlink" version="1.1" viewBox="-10 0 1760 2048">
   <path fill="currentColor"
d="M596 572v172h-596v-172h596zM596 1000v168h-596v-168h596zM1364 1424v172h-1364v-172h1364zM1476 1040q60 -88 60 -204q0 -160 -112 -272t-272 -112t-272 112t-112 272t112 272t272 112q108 0 200 -56l268 260l120 -116zM1152 1052q-88 0 -152 -62t-64 -152t64 -152
t152 -62t150 62t62 150t-62 152t-150 64z" />
</svg>
