<?xml version="1.0" standalone="no"?>
<!DOCTYPE svg PUBLIC "-//W3C//DTD SVG 1.1//EN" "http://www.w3.org/Graphics/SVG/1.1/DTD/svg11.dtd" >
<svg xmlns="http://www.w3.org/2000/svg" xmlns:xlink="http://www.w3.org/1999/xlink" version="1.1" viewBox="-10 0 1775 2048">
   <path fill="currentColor"
d="M1195 1166q0 72 -43 124t-104 52q-48 0 -80 -18v-316q32 -20 80 -20q61 0 104 52t43 126zM803 676q0 74 -43 126t-104 52q-48 0 -80 -18v-316q32 -20 80 -20q61 0 104 52t43 124zM1446 1169.5q0 -100.5 -46 -186t-125.5 -135.5t-172.5 -50q-15 0 -45 4q-25 87 -89 156
q-48 52 -110.5 82t-130.5 34v726l241 -46v-236q59 22 134 22q94 0 173 -49.5t125 -135t46 -186zM1054 681.5q0 -100.5 -46 -186t-125.5 -135.5t-173.5 -50q-83 0 -162 42h-212v960l241 -46v-236q63 22 133 22q94 0 173.5 -49.5t125.5 -135t46 -186zM1755 476v1096
q0 90 -44 166t-119.5 120t-165.5 44h-1097q-90 0 -165.5 -44t-119.5 -120t-44 -166v-1096q0 -90 44 -166t119.5 -120t165.5 -44h1097q90 0 165.5 44t119.5 120t44 166z" />
</svg>
