<?xml version="1.0" standalone="no"?>
<!DOCTYPE svg PUBLIC "-//W3C//DTD SVG 1.1//EN" "http://www.w3.org/Graphics/SVG/1.1/DTD/svg11.dtd" >
<svg xmlns="http://www.w3.org/2000/svg" xmlns:xlink="http://www.w3.org/1999/xlink" version="1.1" viewBox="-10 0 1388 2048">
   <path fill="currentColor"
d="M728 278q0 -72 50 -122t120 -50t120 50t50 120t-50 120t-120 50t-120 -50t-50 -118zM200 1602l-96 -124l-104 80l204 260q68 84 160 120q36 12 64 -12q20 -16 24 -42t-16 -50q-12 -12 -24 -16q-60 -24 -100 -72l-8 -8l296 -208l76 -272l180 172v384h-172v128h332
q108 0 192 -52q32 -20 32 -56q0 -24 -20 -44t-48 -20q-16 0 -32 8q-52 32 -116 36v-512l-180 -172l52 -256q84 100 208 156t264 56v-168q-120 0 -218 -58t-150 -150l-88 -136q-56 -84 -144 -84q-36 0 -104 24q-48 20 -248 104l-160 68v400h172v-292l152 -60l-136 696z" />
</svg>
