<?xml version="1.0" standalone="no"?>
<!DOCTYPE svg PUBLIC "-//W3C//DTD SVG 1.1//EN" "http://www.w3.org/Graphics/SVG/1.1/DTD/svg11.dtd" >
<svg xmlns="http://www.w3.org/2000/svg" xmlns:xlink="http://www.w3.org/1999/xlink" version="1.1" viewBox="-10 0 2255 2048">
   <path fill="currentColor"
d="M1350 1066q62 -2 120 11.5t104.5 35.5t92.5 59.5t80.5 74t73.5 89t65 93t60 97.5q27 46 56.5 85.5t68.5 79.5t65.5 64.5t78.5 69.5q13 12 20 19q-55 34 -123 65.5t-159 68t-130 54.5q-39 -33 -67.5 -92.5t-44.5 -128.5t-32 -149.5t-28 -156.5t-34.5 -147t-50.5 -124
t-76 -84.5t-111 -31.5l-11 2l-7 4q5 5 15 16q8 6 26.5 21.5t24 20.5t19.5 17.5t18 18t14 17.5t12.5 20.5t8.5 22t8 27t4 31t3 38.5l1 36q1 31 -3 67t-8.5 59t-14.5 67t-13 61q-40 -2 -115 10t-112 12q-43 0 -82 -12q-3 -26 -3 -52q0 -83 4 -110q2 -13 23 -36t45.5 -45
t44 -48.5t18.5 -44.5q-26 -3 -49 28q-42 61 -128 113.5t-155 52.5q-22 0 -64 -46t-82.5 -103t-86 -115.5t-71.5 -77.5q-9 -6 -31 -34q-126 29 -346 78.5t-240 49.5q-18 0 -32 -13t-14 -31q0 -16 9.5 -29.5t25.5 -16.5l556 -122q-9 -16 -9 -28.5t5.5 -20t18 -13t23 -8
t26 -5.5t21.5 -5q5 -1 18 -8.5t20 -7.5q17 0 32 18.5t23 37.5q175 -42 197 -42q19 0 33.5 13t14.5 31q0 17 -10 30t-27 16l-208 46l-1 18q0 19 46 78t98.5 110.5t67.5 51.5q34 0 87 -44.5t92.5 -102t39.5 -93.5q0 -33 -17.5 -51.5t-42.5 -24t-50.5 -9.5t-43 -15t-17.5 -34
q0 -16 12 -38l-78 -22q49 -51 49 -134q0 -29 -5 -66q100 -18 164 -18q50 0 81.5 1.5t55.5 9.5t35.5 15.5t23.5 28t18 38t19.5 54.5t27.5 69l57 -28q-2 37 -18 59t-36.5 27.5t-40.5 8t-33 8t-12 19.5zM1418 798q-8 -8 -23.5 -26.5t-21 -24l-15 -15t-16 -14t-14.5 -8.5
q-8 -3 -16.5 -5.5t-23.5 -3t-25.5 -0.5t-36.5 0.5t-43 0.5q-145 0 -248 48q18 -34 41 -53t62 -33q31 -12 58 -28.5t51.5 -39.5t40.5 -40t43 -49t41 -47q14 9 32 34.5t36.5 42.5t43.5 15h14v86l25 2q134 -52 235.5 -101.5t188.5 -116.5q32 -24 57.5 -44t48.5 -42.5t37.5 -36
t33.5 -38.5t27.5 -36t27.5 -42.5t26 -43.5t31 -54t34 -61l8 -10q-2 62 -49 160q-90 188 -234 301t-350 163q-16 3 -48 7.5t-57 10.5t-45 16q3 22 28 53t25 39q0 12 -30 34zM1166 1850q45 -29 150.5 -53.5t166.5 -24.5q11 0 26 17.5t32 49.5t29.5 56.5t28 59t16.5 37.5
q-138 50 -279 50q-72 0 -143 -12zM892 1112l55 -14l125 202l-84 54zM1465 1702l3 18q0 9 -20 17t-52.5 14.5t-62 11t-60.5 9t-37 4.5l-8 -48q23 -3 69 -10t83 -11.5t69 -4.5h16zM943 984l-110 24l-7 -20q12 -1 37.5 -7.5t39.5 -6.5q22 0 40 10zM1166 1710h35l11 94l-46 14
v-108zM2182 6zM2182 6l-2 6l-2 2l1 -4zM2182 6h1h-1z" />
</svg>
