<?xml version="1.0" standalone="no"?>
<!DOCTYPE svg PUBLIC "-//W3C//DTD SVG 1.1//EN" "http://www.w3.org/Graphics/SVG/1.1/DTD/svg11.dtd" >
<svg xmlns="http://www.w3.org/2000/svg" xmlns:xlink="http://www.w3.org/1999/xlink" version="1.1" viewBox="-10 0 1724 2048">
   <path fill="currentColor"
d="M1420 1504q-192 140 -364 108q-92 -16 -188 -96l-16 -12l-16 12q-100 80 -192 96q-172 32 -360 -108q-108 76 -180 104q-44 12 -100 12h-4v172q148 0 284 -80q132 80 284 80t284 -80q132 80 284 80t284 -80q136 80 284 80v-172q-60 0 -104 -12q-76 -28 -180 -104z
M1476 1024h228v-172h-228q-116 0 -200 -82t-84 -202q0 -52 20 -108q12 -36 56 -132l20 -44l-40 -4q-144 -24 -224 -24q-280 0 -512 130t-370 354t-142 496v172q148 0 284 -80q132 80 284 80t284 -80q132 80 284 80t284 -80q136 80 284 80v-172q-60 0 -104 -12
q-76 -28 -180 -104q-192 140 -364 108q-92 -16 -188 -96l-16 -12l-64 44l-12 12q-96 -128 -96 -280q0 -164 102 -290t258 -166q-16 72 -16 128q0 124 60 228t166 166t226 62z" />
</svg>
