<?xml version="1.0" standalone="no"?>
<!DOCTYPE svg PUBLIC "-//W3C//DTD SVG 1.1//EN" "http://www.w3.org/Graphics/SVG/1.1/DTD/svg11.dtd" >
<svg xmlns="http://www.w3.org/2000/svg" xmlns:xlink="http://www.w3.org/1999/xlink" version="1.1" viewBox="-10 0 1857 2048">
   <path fill="currentColor"
d="M256 233h512v172h-512v-172zM0 573h428v172h-428v-172zM172 1597h428v172h-428v-172zM1088 881q96 32 132 124l364 -604q44 -68 24 -146t-88 -122q-56 -32 -122 -26t-110 50l-296 276q-52 48 -52 124v332q76 -28 148 -8zM820 1025q20 -68 76 -108h-700q-84 0 -140 56
t-56 136q0 68 40 120t104 68l384 112q72 20 132 -20l232 -136q-52 -40 -72 -102t0 -126zM1812 1565l-196 -352q-36 -60 -108 -80l-268 -68q0 56 -12 84q-20 68 -76 110t-128 42q-32 0 -60 -12l-24 -8v488q-72 0 -122 50t-50 122h512q0 -72 -50 -122t-118 -50v-364l392 392
q56 56 136 56t140 -56q44 -48 54 -112t-22 -120zM988 1209q52 16 98 -10t62 -76t-10 -98t-76 -62t-98 10t-62 76t10 98t76 62z" />
</svg>
