<?xml version="1.0" standalone="no"?>
<!DOCTYPE svg PUBLIC "-//W3C//DTD SVG 1.1//EN" "http://www.w3.org/Graphics/SVG/1.1/DTD/svg11.dtd" >
<svg xmlns="http://www.w3.org/2000/svg" xmlns:xlink="http://www.w3.org/1999/xlink" version="1.1" viewBox="-10 0 1724 2048">
   <path fill="currentColor"
d="M1448 446q-68 0 -118 50t-50 118v580q-88 76 -88 188q0 108 76 182t182 74t180 -74t74 -182q0 -116 -84 -188v-580q0 -68 -50 -118t-122 -50zM1448 530q36 0 62 26t26 58v88h-172v-88q0 -32 26 -58t58 -26zM512 322l-64 68l-68 84q-84 100 -152 200q-104 156 -156 260
q-72 156 -72 280q0 136 68 254t186 188t256 70t256 -70t188 -188t70 -254q0 -124 -76 -280q-48 -104 -156 -260q-68 -100 -148 -200l-68 -84zM512 586q4 8 12 20q68 76 132 168q80 116 136 236q60 132 60 204q0 140 -100 240t-242 100t-242 -100t-100 -240q0 -72 60 -204
q56 -120 140 -236q60 -92 128 -168z" />
</svg>
