<?xml version="1.0" standalone="no"?>
<!DOCTYPE svg PUBLIC "-//W3C//DTD SVG 1.1//EN" "http://www.w3.org/Graphics/SVG/1.1/DTD/svg11.dtd" >
<svg xmlns="http://www.w3.org/2000/svg" xmlns:xlink="http://www.w3.org/1999/xlink" version="1.1" viewBox="-10 0 1723 2048">
   <path fill="currentColor"
d="M1596 1460v-88l92 -68q20 -16 12 -24l-88 -144q0 -8 -24 -8l-104 40q-52 -32 -76 -40l-16 -112q0 -8 -6 -12t-14 -4h-168q-28 0 -28 16l-16 112l-68 40l-104 -40q-16 0 -24 8l-84 144q0 16 8 24l92 68v88l-92 68q-16 16 -8 24l84 148q8 8 24 8l104 -44q32 28 68 44
l16 108q20 20 28 20h168q8 0 14 -6t6 -14l16 -108l68 -44l104 36q16 0 24 -12l84 -144q8 -4 8 -10t-8 -6zM1280 1536q-52 0 -90 -38t-38 -90t38 -90t90 -38t90 38t38 90t-38 90t-90 38zM428 640h680v172h-680v-172zM1196 556h-856v1024h-168v-1024h-172v-344h1536v344h-172
v264q-12 0 -42 -4t-42 -4q-60 0 -84 8v-264zM708 1580h-280v-172h256q0 92 24 172zM428 896h544q-120 76 -180 172h-364v-172zM428 1152h316q-40 76 -52 172h-264v-172z" />
</svg>
