<?xml version="1.0" standalone="no"?>
<!DOCTYPE svg PUBLIC "-//W3C//DTD SVG 1.1//EN" "http://www.w3.org/Graphics/SVG/1.1/DTD/svg11.dtd" >
<svg xmlns="http://www.w3.org/2000/svg" xmlns:xlink="http://www.w3.org/1999/xlink" version="1.1" viewBox="-10 0 1424 2048">
   <path fill="currentColor"
d="M856 1406l112 152q-64 124 -186 200t-264 76t-260 -68t-188 -186t-70 -258q0 -152 84 -278t220 -186l20 184q-72 48 -112 122t-40 158q0 140 100 240t240 100q120 0 210 -72t122 -184h12zM1328 1418l-108 52l-236 -320h-392l-20 -168h284v-172h-300l-24 -256
q64 -8 108 -56t44 -116t-50 -118t-120 -50t-120 50t-50 118l92 940h460l276 364l232 -116z" />
</svg>
