<?xml version="1.0" standalone="no"?>
<!DOCTYPE svg PUBLIC "-//W3C//DTD SVG 1.1//EN" "http://www.w3.org/Graphics/SVG/1.1/DTD/svg11.dtd" >
<svg xmlns="http://www.w3.org/2000/svg" xmlns:xlink="http://www.w3.org/1999/xlink" version="1.1" viewBox="-10 0 1857 2048">
   <path fill="currentColor"
d="M256 234h512v172h-512v-172zM0 574h428v172h-428v-172zM172 1598h428v172h-428v-172zM1812 1566l-196 -352q-36 -60 -108 -80l-228 -56q-4 -64 -32 -116l336 -560q44 -72 24 -150t-88 -118q-44 -28 -100 -28q-76 0 -132 52l-296 276q-52 48 -52 124v288q-60 24 -104 72
h-640q-84 0 -140 56t-56 136q0 68 40 120t104 68l384 112q24 4 44 4q48 0 88 -24l196 -116q36 36 84 52v444q-72 0 -122 50t-50 122h512q0 -72 -50 -122t-118 -50v-364l392 392q56 56 138 56t138 -56q44 -48 54 -112t-22 -120zM576 1246l-388 -112q-16 -8 -16 -20t8 -20
t16 -8h572q0 28 4 40zM1024 1174q-32 0 -58 -26t-26 -60t26 -60t60 -26t60 26t26 60t-26 60t-62 26zM1112 842v-284l292 -276q12 -12 28 -4q8 8 10 16t-2 16l-320 536zM1660 1678q-8 4 -18 6t-18 -6l-412 -416l20 -20l236 60l196 348q8 12 -4 28z" />
</svg>
