<?xml version="1.0" standalone="no"?>
<!DOCTYPE svg PUBLIC "-//W3C//DTD SVG 1.1//EN" "http://www.w3.org/Graphics/SVG/1.1/DTD/svg11.dtd" >
<svg xmlns="http://www.w3.org/2000/svg" xmlns:xlink="http://www.w3.org/1999/xlink" version="1.1" viewBox="-10 0 1724 2048">
   <path fill="currentColor"
d="M1448 460q-68 0 -118 50t-50 118v580q-88 76 -88 188q0 108 76 182t182 74t180 -74t74 -182q0 -116 -84 -188v-580q0 -68 -50 -118t-122 -50zM1448 544q36 0 62 26t26 58v88h-172v-88q0 -32 26 -58t58 -26zM512 1740q-140 0 -258 -70t-186 -188t-68 -254q0 -120 80 -288
q64 -136 176 -300q80 -116 176 -236l80 -96l80 96q96 120 176 236q112 164 176 300q80 168 80 288q0 136 -70 254t-188 188t-254 70z" />
</svg>
