<?xml version="1.0" standalone="no"?>
<!DOCTYPE svg PUBLIC "-//W3C//DTD SVG 1.1//EN" "http://www.w3.org/Graphics/SVG/1.1/DTD/svg11.dtd" >
<svg xmlns="http://www.w3.org/2000/svg" xmlns:xlink="http://www.w3.org/1999/xlink" version="1.1" viewBox="-10 0 1724 2048">
   <path fill="currentColor"
d="M680 150h344q68 0 118 50t50 118v172h344q68 0 118 50t50 122v472q-144 -132 -340 -132q-140 0 -258 68t-186 186t-68 258t68 256h-752q-68 0 -118 -50t-50 -122v-936q0 -72 50 -122t118 -50h344v-172q0 -68 50 -118t118 -50zM1024 490v-172h-344v172h344zM1448 1558
v-128h-340v-172h340v-128l256 212zM1280 1598h340v172h-340v128l-256 -212l256 -216v128z" />
</svg>
