<?xml version="1.0" standalone="no"?>
<!DOCTYPE svg PUBLIC "-//W3C//DTD SVG 1.1//EN" "http://www.w3.org/Graphics/SVG/1.1/DTD/svg11.dtd" >
<svg xmlns="http://www.w3.org/2000/svg" xmlns:xlink="http://www.w3.org/1999/xlink" version="1.1" viewBox="-10 0 1724 2048">
   <path fill="currentColor"
d="M852 172q-232 0 -428 114t-310 310t-114 428t114 428t310 310t428 114t428 -114t310 -310t114 -428t-114 -428t-310 -310t-428 -114zM852 1708q-184 0 -342 -92t-250 -250t-92 -342t92 -342t250 -250t342 -92t342 92t250 250t92 342t-92 342t-250 250t-342 92zM1296 1072
l-116 -32l288 -76q-16 -68 -78 -104t-130 -16l-116 28l212 -208q-48 -52 -120 -52t-120 52l-84 84l32 -124l44 -164q-68 -20 -130 16t-78 104l-32 116l-76 -288q-68 16 -104 78t-16 130l28 116l-208 -212q-52 48 -52 120t52 120l84 84l-124 -32l-164 -44q-20 68 16 130
t104 78l116 32l-288 76q16 68 78 104t130 16l116 -28l-212 208q48 52 120 52t120 -52l84 -84l-32 124l-44 164q68 20 130 -16t78 -104l32 -116l76 288q68 -16 104 -78t16 -130l-28 -116l208 212q52 -48 52 -120t-52 -120l-84 -84l124 32l164 44q20 -68 -16 -130t-104 -78z
M852 1152q-52 0 -90 -38t-38 -90t38 -90t90 -38t90 38t38 90t-38 90t-90 38z" />
</svg>
