<?xml version="1.0" standalone="no"?>
<!DOCTYPE svg PUBLIC "-//W3C//DTD SVG 1.1//EN" "http://www.w3.org/Graphics/SVG/1.1/DTD/svg11.dtd" >
<svg xmlns="http://www.w3.org/2000/svg" xmlns:xlink="http://www.w3.org/1999/xlink" version="1.1" viewBox="-10 0 1896 2048">
   <path fill="currentColor"
d="M1320 1266l208 120l-64 112l-272 -160v-312h128v240zM1876 1282q0 160 -80 298t-218 218t-300 80t-300 -80t-218 -218t-80 -298q0 -40 8 -88h-688v-1024h1536v572q152 72 246 218t94 322zM740 1026q24 -52 52 -88h-24q-108 0 -182 -74t-74 -180t74 -182t180 -76t182 76
t76 180q0 32 -8 64q124 -64 264 -64q40 0 84 8v-176q-72 0 -122 -50t-50 -122h-852q0 72 -50 122t-122 50v340q72 0 122 50t50 122h400zM1704 1282q0 -116 -56 -214t-154 -156t-214 -58t-214 58t-156 156t-58 214t58 214t156 154t214 56t214 -56t154 -154t56 -214z" />
</svg>
