<?xml version="1.0" standalone="no"?>
<!DOCTYPE svg PUBLIC "-//W3C//DTD SVG 1.1//EN" "http://www.w3.org/Graphics/SVG/1.1/DTD/svg11.dtd" >
<svg xmlns="http://www.w3.org/2000/svg" xmlns:xlink="http://www.w3.org/1999/xlink" version="1.1" viewBox="-10 0 1644 2048">
   <path fill="currentColor"
d="M856 128h-684q-72 0 -122 50t-50 118v1368q0 68 50 118t122 50h668q-72 -116 -72 -256q0 -40 8 -84h-604v-172h668q60 -104 160 -168h-828v-172h1024v92q44 -8 84 -8t88 8v-432zM768 724v-468l472 468h-472zM1196 1236v256h-256v172h256v256h172v-256h256v-172h-256v-256
h-172z" />
</svg>
