<?xml version="1.0" standalone="no"?>
<!DOCTYPE svg PUBLIC "-//W3C//DTD SVG 1.1//EN" "http://www.w3.org/Graphics/SVG/1.1/DTD/svg11.dtd" >
<svg xmlns="http://www.w3.org/2000/svg" xmlns:xlink="http://www.w3.org/1999/xlink" version="1.1" viewBox="-10 0 1644 2048">
   <path fill="currentColor"
d="M1624 1492h-256v-256h-172v256h-256v172h256v256h172v-256h256v-172zM172 128q-72 0 -122 50t-50 118v1368q0 68 50 118t122 50h668q-48 -80 -64 -168h-604v-1368h596v428h428v348q44 -8 84 -8t88 8v-432l-512 -512h-684zM344 980v172h680v-172h-680zM344 1320v172h424
v-172h-424z" />
</svg>
