<?xml version="1.0" standalone="no"?>
<!DOCTYPE svg PUBLIC "-//W3C//DTD SVG 1.1//EN" "http://www.w3.org/Graphics/SVG/1.1/DTD/svg11.dtd" >
<svg xmlns="http://www.w3.org/2000/svg" xmlns:xlink="http://www.w3.org/1999/xlink" version="1.1" viewBox="-10 0 1768 2048">
   <path fill="currentColor"
d="M680 172h344q68 0 118 50t50 118v172h344q68 0 118 50t50 122v472q-72 -68 -168 -104v-368h-1368v936h692q12 92 60 172h-752q-68 0 -118 -50t-50 -122v-936q0 -72 50 -122t118 -50h344v-172q0 -68 50 -118t118 -50zM1024 512v-172h-344v172h344zM1320 1620h128v-340h172
v340h128l-212 256zM1280 1452v340h-172v-340h-128l212 -256l216 256h-128z" />
</svg>
