<?xml version="1.0" standalone="no"?>
<!DOCTYPE svg PUBLIC "-//W3C//DTD SVG 1.1//EN" "http://www.w3.org/Graphics/SVG/1.1/DTD/svg11.dtd" >
<svg xmlns="http://www.w3.org/2000/svg" xmlns:xlink="http://www.w3.org/1999/xlink" version="1.1" viewBox="-10 0 1729 2048">
   <path fill="currentColor"
d="M0 342v1024h880q-28 -84 -28 -172h-512q0 -68 -50 -118t-118 -50v-344q68 0 118 -50t50 -118h856q0 68 50 118t118 50v8q84 0 172 28v-376h-1536zM768 598q-108 0 -182 74t-74 182t74 180t182 76q48 0 96 -20q20 -80 52 -136q40 -72 104 -132q-8 -88 -80 -156t-172 -68z
M1364 770l192 192l-192 192v-128q-76 0 -132 46t-74 120t18 142l-96 92q-72 -108 -52 -234t112 -210t224 -84v-128zM1364 1706l-192 -192l192 -192v128q80 0 136 -46t74 -120t-18 -142l92 -92q76 108 56 234t-114 210t-226 84v128z" />
</svg>
