<?xml version="1.0" standalone="no"?>
<!DOCTYPE svg PUBLIC "-//W3C//DTD SVG 1.1//EN" "http://www.w3.org/Graphics/SVG/1.1/DTD/svg11.dtd" >
<svg xmlns="http://www.w3.org/2000/svg" xmlns:xlink="http://www.w3.org/1999/xlink" version="1.1" viewBox="-10 0 1775 2048">
   <path fill="currentColor"
d="M1334 1812q-2 -8 -8 -11t-20 5q-34 26 -99.5 45t-149.5 19q-147 0 -220 -56q-4 -3 -5 -3.5t-10 -0.5q-12 0 -30 14q-8 7 -9 18.5t9 23.5q30 27 70.5 43t89.5 19.5t84.5 3t85.5 -5.5q47 -4 96.5 -23t75 -34.5t32.5 -22.5q13 -14 8 -34zM1289 1682q-23 -56 -44 -70
q-26 -18 -87 -18h-16.5t-16.5 0.5t-13.5 1.5t-17 3t-17.5 7q-31 13 -90 64q-30 26 -13 50q4 6 8.5 7.5t12 -2.5t14.5 -9.5t21 -17.5q3 -2 12 -9t12 -9.5t11 -8t13 -8t14 -6t17.5 -5t19.5 -3t23 -1.5q24 0 40.5 4t26.5 13t14.5 14.5t11.5 18.5q2 3 4 8q8 14 11 16.5t13 -2.5
q27 -13 16 -38zM1695 1360q0 -24 -6 -49.5t-19 -51.5t-39 -42.5t-60 -16.5q-30 0 -83 30t-101.5 65.5t-102.5 65t-86 29.5q-31 1 -72.5 -21.5t-87 -55.5t-96 -66t-114 -55.5t-126.5 -21.5q-87 0 -161 41.5t-116.5 109t-43.5 141.5q-2 130 84 188q33 23 71.5 32.5t118.5 9.5
q53 0 118.5 -24t125.5 -59t116.5 -69.5t106.5 -58t80 -23.5q25 1 58 24.5t65.5 56t64 65t61 56t48.5 24.5q40 4 67 -15.5t64 -72.5q32 -47 48.5 -115t16.5 -121zM1755 1178q0 125 -32 240t-89.5 207.5t-138.5 168.5t-177 127t-206 79t-226 28q-115 0 -227 -30t-210 -84
t-181 -132.5t-142 -173t-92.5 -209.5t-33.5 -237q0 -103 22 -198t56 -166t81 -135.5t89.5 -107t90 -79.5t74 -53.5t48.5 -28.5q15 -8 58 -30t62 -33t54.5 -34t69.5 -51q41 -32 66.5 -82.5t34.5 -143.5q47 56 75 88.5t69 73.5t68 60q50 32 148.5 77t147.5 75q24 15 44.5 29
t69 53.5t87 80.5t86 108.5t79 139t53.5 169.5t22 204z" />
</svg>
