<?xml version="1.0" standalone="no"?>
<!DOCTYPE svg PUBLIC "-//W3C//DTD SVG 1.1//EN" "http://www.w3.org/Graphics/SVG/1.1/DTD/svg11.dtd" >
<svg xmlns="http://www.w3.org/2000/svg" xmlns:xlink="http://www.w3.org/1999/xlink" version="1.1" viewBox="-10 0 1724 2048">
   <path fill="currentColor"
d="M1620 640h-172v520q148 24 256 120v-556q0 -32 -26 -58t-58 -26zM340 1580q0 32 26 58t58 26h428q0 -132 68 -256h-580v172zM1192 300h-1108q-32 0 -58 26t-26 58v1196l340 -344h744q88 -64 196 -76v-776q0 -32 -28 -58t-60 -26zM1704 1580v168h-680v-168h680z" />
</svg>
