<?xml version="1.0" standalone="no"?>
<!DOCTYPE svg PUBLIC "-//W3C//DTD SVG 1.1//EN" "http://www.w3.org/Graphics/SVG/1.1/DTD/svg11.dtd" >
<svg xmlns="http://www.w3.org/2000/svg" xmlns:xlink="http://www.w3.org/1999/xlink" version="1.1" viewBox="-10 0 1775 2048">
   <path fill="currentColor"
d="M1223 1226l-183 184l-173 172l-34 36q-75 73 -173 99t-196 1q-18 80 -82.5 132t-147.5 52q-97 0 -165.5 -69t-68.5 -167q0 -82 51 -146t130 -82q-25 -99 1 -198t100 -174l14 -14l173 174l-13 12q-43 43 -42.5 103t42.5 103q42 42 101.5 42t101.5 -42l35 -34l172 -174
l184 -184zM833 446l14 14l-174 174l-14 -14q-42 -42 -101.5 -42t-101.5 42t-42 103t42 103l33 32l174 174l183 182l-173 174l-184 -182l-172 -174l-35 -34q-77 -77 -102.5 -182.5t5.5 -205.5q-79 -17 -131 -81t-52 -147q0 -98 69 -167t166 -69q88 0 153 56t79 140
q96 -22 193.5 5t170.5 99zM1755 1666q0 98 -68.5 167t-165.5 69q-85 0 -149.5 -53.5t-81.5 -134.5q-99 31 -205 6t-184 -102l-13 -14l173 -174l13 14q42 42 102 42t102 -42t42 -102t-42 -102l-35 -34l-173 -174l-183 -182l174 -174l182 182l174 174l33 34q73 74 100 172.5
t3 195.5q86 13 144 78.5t58 153.5zM1753 382q0 88 -58.5 154t-144.5 78q30 98 3.5 202.5t-103.5 181.5l-13 14l-173 -174l14 -14q42 -42 42 -102t-42 -102t-102 -42t-102 42l-34 34l-174 174l-183 184l-173 -174l184 -184l173 -172l34 -36q77 -76 181.5 -102t203.5 4
q12 -86 78 -144t155 -58q97 0 165.5 69t68.5 167z" />
</svg>
