<?xml version="1.0" standalone="no"?>
<!DOCTYPE svg PUBLIC "-//W3C//DTD SVG 1.1//EN" "http://www.w3.org/Graphics/SVG/1.1/DTD/svg11.dtd" >
<svg xmlns="http://www.w3.org/2000/svg" xmlns:xlink="http://www.w3.org/1999/xlink" version="1.1" viewBox="-10 0 1604 2048">
   <path fill="currentColor"
d="M1584 1780l-184 -184l184 -180l-120 -120l-184 180l-180 -180l-120 120l180 180l-180 184l120 120l180 -184l184 184zM172 148q-72 0 -122 50t-50 118v1368q0 68 50 118t122 50h668q-48 -80 -64 -168h-604v-1368h596v428h428v348q44 -8 84 -8t88 8v-432l-512 -512h-684z
M344 1000v172h680v-172h-680zM344 1340v172h424v-172h-424z" />
</svg>
