<?xml version="1.0" standalone="no"?>
<!DOCTYPE svg PUBLIC "-//W3C//DTD SVG 1.1//EN" "http://www.w3.org/Graphics/SVG/1.1/DTD/svg11.dtd" >
<svg xmlns="http://www.w3.org/2000/svg" xmlns:xlink="http://www.w3.org/1999/xlink" version="1.1" viewBox="-10 0 1801 2048">
   <path fill="currentColor"
d="M1773 1562l-92 -68l4 -44q0 -24 -4 -44l92 -68q12 -12 4 -28l-88 -148q-4 -12 -24 -12l-108 44q-40 -28 -72 -40l-16 -112q0 -20 -20 -20h-168q-20 0 -24 20l-16 112q-40 16 -72 40l-108 -44q-20 0 -24 12l-84 148q-12 16 4 28l88 68v44v44l-88 68q-16 12 -4 28l84 148
q4 12 24 12l108 -44q40 28 72 40l16 112q4 20 24 20h168q20 0 20 -20l20 -112q32 -16 68 -40l108 44q20 0 28 -12l84 -148q8 -16 -4 -28zM1365 1578q-52 0 -90 -38t-38 -90t38 -90t90 -38t90 38t38 90t-38 90t-90 38zM85 170q-28 0 -54 20t-30 56t16 64l492 628h4v500
q-8 40 24 72l172 172q20 20 52 22t56 -14q-48 -116 -48 -240q0 -164 84 -308v-204h4l492 -628q20 -28 16 -64t-30 -56t-54 -20h-1196z" />
</svg>
