<?xml version="1.0" standalone="no"?>
<!DOCTYPE svg PUBLIC "-//W3C//DTD SVG 1.1//EN" "http://www.w3.org/Graphics/SVG/1.1/DTD/svg11.dtd" >
<svg xmlns="http://www.w3.org/2000/svg" xmlns:xlink="http://www.w3.org/1999/xlink" version="1.1" viewBox="-10 0 1724 2048">
   <path fill="currentColor"
d="M1448 1452q96 0 168 -60q88 -68 88 -196t-88 -200q-72 -56 -168 -56h-168v-172h168q128 0 200 -88q56 -72 56 -168q0 -128 -88 -200q-72 -56 -168 -56h-168v-84h-88v84h-680v-84h-88v84h-424v172h424v168h-168q-96 0 -168 60q-88 68 -88 196t88 200q72 56 168 56h168v172
h-168q-96 0 -168 56q-88 72 -88 200t88 200q72 56 168 56h168v84h88v-84h680v84h88v-84h424v-172h-424v-168h168zM1448 1108q36 0 62 20t26 66t-26 66t-62 20h-168v-172h168zM1192 940h-680v-172h680v172zM1448 428q36 0 62 18t26 66q0 36 -20 60t-68 24h-168v-168h168z
M512 428h680v168h-680v-168zM256 940q-36 0 -62 -20t-26 -66t26 -66t62 -20h168v172h-168zM512 1108h680v172h-680v-172zM256 1620q-36 0 -62 -18t-26 -66t26 -66t62 -18h168v168h-168zM1192 1620h-680v-168h680v168z" />
</svg>
