<?xml version="1.0" standalone="no"?>
<!DOCTYPE svg PUBLIC "-//W3C//DTD SVG 1.1//EN" "http://www.w3.org/Graphics/SVG/1.1/DTD/svg11.dtd" >
<svg xmlns="http://www.w3.org/2000/svg" xmlns:xlink="http://www.w3.org/1999/xlink" version="1.1" viewBox="-10 0 1728 2048">
   <path fill="currentColor"
d="M1604 1322v-128q0 -88 -74 -150t-166 -62t-164 62t-72 150v128q-40 0 -72 32t-32 72v300q0 44 32 76t72 32h468q44 0 78 -30t34 -70v-300q0 -44 -32 -78t-72 -34zM1492 1322h-256v-128q0 -48 38 -78t92 -30t90 30t36 78v128zM172 214q-72 0 -122 50t-50 122v1192
q0 72 50 122t122 50h684q-4 -8 -4 -24v-232h-680l296 -384l216 256l296 -384l24 32q52 -96 150 -150t210 -54q84 0 172 36v-460q0 -72 -50 -122t-122 -50h-1192z" />
</svg>
