<?xml version="1.0" standalone="no"?>
<!DOCTYPE svg PUBLIC "-//W3C//DTD SVG 1.1//EN" "http://www.w3.org/Graphics/SVG/1.1/DTD/svg11.dtd" >
<svg xmlns="http://www.w3.org/2000/svg" xmlns:xlink="http://www.w3.org/1999/xlink" version="1.1" viewBox="-10 0 1724 2048">
   <path fill="currentColor"
d="M1536 172h-1368q-68 0 -118 50t-50 118v1368q0 68 50 118t118 50h1368q68 0 118 -50t50 -118v-1368q0 -68 -50 -118t-118 -50zM936 640q0 -120 90 -210t210 -90t210 90t90 210t-90 210t-210 90t-210 -90t-90 -210zM168 340h600v600h-600v-600zM168 1708v-600h600v600
h-600zM1536 1708h-600v-600h600v600z" />
</svg>
