<?xml version="1.0" standalone="no"?>
<!DOCTYPE svg PUBLIC "-//W3C//DTD SVG 1.1//EN" "http://www.w3.org/Graphics/SVG/1.1/DTD/svg11.dtd" >
<svg xmlns="http://www.w3.org/2000/svg" xmlns:xlink="http://www.w3.org/1999/xlink" version="1.1" viewBox="-10 0 1724 2048">
   <path fill="currentColor"
d="M424 1536h-168v-172h168v172zM424 1196h-168v-172h168v172zM768 1536h-172v-172h172v172zM768 1196h-172v-172h172v172zM1108 1536h-172v-172h172v172zM1108 1196h-172v-172h172v172zM1448 1536h-168v-172h168v172zM1448 1196h-168v-172h168v172zM1192 684q-32 0 -58 -26
t-26 -62v-256q0 -32 26 -58t60 -26t60 26t26 58v256q0 36 -26 62t-62 26zM512 684q-36 0 -62 -26t-26 -62v-256q0 -32 26 -58t60 -26t60 26t26 58v256q0 36 -26 62t-58 26zM1524 428h-116v168q0 88 -64 152t-152 64t-150 -64t-62 -152v-148q0 -8 -6 -14t-14 -6h-216
q-8 0 -14 6t-6 14v148q0 88 -62 152t-150 64t-152 -64t-64 -152v-168h-116q-72 -4 -126 46t-54 122v1024q0 72 54 122t126 50h1344q72 0 126 -50t54 -122v-1024q0 -72 -54 -122t-126 -46zM1536 1620h-1368v-680h1368v680z" />
</svg>
