<?xml version="1.0" standalone="no"?>
<!DOCTYPE svg PUBLIC "-//W3C//DTD SVG 1.1//EN" "http://www.w3.org/Graphics/SVG/1.1/DTD/svg11.dtd" >
<svg xmlns="http://www.w3.org/2000/svg" xmlns:xlink="http://www.w3.org/1999/xlink" version="1.1" viewBox="-10 0 1724 2048">
   <path fill="currentColor"
d="M1536 172h-1368q-68 0 -118 50t-50 118v1368q0 68 50 118t118 50h1368q68 0 118 -50t50 -118v-1368q0 -68 -50 -118t-118 -50zM1132 340q-108 152 -108 344h-344q0 -104 46 -194t126 -150h280zM1024 1196h-344q0 -192 -108 -344h280q80 60 126 150t46 194zM168 340h452
q-108 152 -108 344h-344v-344zM168 852h172q80 60 126 148t46 196h-344v-344zM168 1708v-344h452q-108 152 -108 344h-344zM680 1708q0 -104 46 -194t126 -150h280q-108 152 -108 344h-344zM1536 1708h-344q0 -104 46 -194t126 -150h172v344zM1536 1196h-344
q0 -192 -108 -344h452v344zM1536 684h-344q0 -104 46 -194t126 -150h172v344z" />
</svg>
