<?xml version="1.0" standalone="no"?>
<!DOCTYPE svg PUBLIC "-//W3C//DTD SVG 1.1//EN" "http://www.w3.org/Graphics/SVG/1.1/DTD/svg11.dtd" >
<svg xmlns="http://www.w3.org/2000/svg" xmlns:xlink="http://www.w3.org/1999/xlink" version="1.1" viewBox="-10 0 1724 2048">
   <path fill="currentColor"
d="M1536 172h-1368q-68 0 -118 50t-50 118v1368q0 68 50 118t118 50h1368q68 0 118 -50t50 -118v-1368q0 -68 -50 -118t-118 -50zM1536 768q0 116 -58 214t-156 156t-214 58t-214 -58t-156 -156t-58 -214t58 -214t156 -156t214 -58t214 58t156 156t58 214zM168 340h344v856
h-344v-856zM168 1708v-344h344v344h-344zM1536 1708h-856v-344h856v344z" />
</svg>
