<?xml version="1.0" standalone="no"?>
<!DOCTYPE svg PUBLIC "-//W3C//DTD SVG 1.1//EN" "http://www.w3.org/Graphics/SVG/1.1/DTD/svg11.dtd" >
<svg xmlns="http://www.w3.org/2000/svg" xmlns:xlink="http://www.w3.org/1999/xlink" version="1.1" viewBox="-10 0 1775 2048">
   <path fill="currentColor"
d="M747 1232q-3 1 -7 1t-15 -4t-19 -7.5t-18.5 -8t-13.5 -5.5q-45 -21 -99 -56q-8 -5 -47 -36t-43 -33q-69 107 -154 207q-3 3 -21.5 25.5t-32.5 38.5t-33.5 35t-32.5 27q-5 2 -22 3.5t-21 0.5q8 -6 25 -25.5t40 -46.5t29 -33q23 -26 96.5 -130.5t90.5 -135.5
q20 -36 59 -113.5t41 -87.5q-12 -1 -126 37q-9 3 -31.5 8.5t-39.5 10.5t-19 6q-3 3 -3 12.5t-1 10.5q-2 4 -13.5 10t-21.5 7q-29 8 -54 0q-10 -2 -19.5 -10t-12.5 -14q-5 -7 -6 -26q7 -2 28 -5t34 -7q56 -16 120 -37q12 -4 39 -13.5t48.5 -17t29.5 -9.5q11 -2 49 -22.5
t50 -24.5q10 -3 24.5 -9t17 -6.5t6.5 0.5q2 14 -1 38q0 3 -14 31t-30.5 60.5t-19.5 38.5q-52 93 -88 150q2 1 33 14t40 18q14 7 85.5 37.5t76.5 31.5t12 29t5 35zM513 676q2 16 -4 32q-13 25 -58 44q-32 13 -68 13q-30 -3 -56 -29q-16 -17 -21 -47q0 -4 1 -4q4 4 23 6t30 0
q23 -5 66 -18q39 -14 63 -16q20 0 24 19zM1311 824l72 259l-159 -48zM45 1738l793 -265v-1180l-793 267v1178zM1463 1376l116 35l-206 -751l-115 -35l-247 612l117 36l51 -126l242 74zM888 276l655 210v-434zM1243 1788l181 15l-62 183l-45 -76q-153 97 -316 124
q-66 14 -104 14h-96q-91 0 -228.5 -44.5t-209.5 -97.5q-9 -8 -9 -18t6 -16t15 -6q4 0 20 8t35 19t24 13q84 42 182.5 70t179.5 28q109 0 191.5 -16.5t178.5 -57.5q1 0 107 -58zM1755 555v1233l-884 -281q-16 7 -428.5 146t-420.5 139q-16 0 -21 -15q0 -1 -0.5 -2t-0.5 -2
v-1232q3 -9 5 -11q8 -9 22 -13l5 -1q5 -2 13.5 -5t19.5 -6.5t26 -8.5t31 -10.5t36 -12t40 -13.5v-439l637 227l362 -124q362 -124 368 -124q22 0 22 24v477z" />
</svg>
