<?xml version="1.0" standalone="no"?>
<!DOCTYPE svg PUBLIC "-//W3C//DTD SVG 1.1//EN" "http://www.w3.org/Graphics/SVG/1.1/DTD/svg11.dtd" >
<svg xmlns="http://www.w3.org/2000/svg" xmlns:xlink="http://www.w3.org/1999/xlink" version="1.1" viewBox="-10 0 1728 2048">
   <path fill="currentColor"
d="M684 684h168v512h-168v-512zM1024 84h-512v172h512v-172zM768 1708q-164 0 -300 -80t-216 -218t-80 -300t80 -300t216 -218t300 -80q148 0 276 68t212 186t104 262q96 4 176 40q-16 -248 -168 -436l120 -124q-60 -68 -120 -120l-120 124q-100 -80 -224 -126t-256 -46
q-208 0 -384 104t-280 280t-104 384t104 386t280 280t384 102q56 0 84 -4q-48 -76 -68 -164h-16zM1708 1580q0 160 -112 272t-272 112t-272 -112t-112 -272t112 -272t272 -112t272 112t112 272zM1452 1800l-348 -348q-36 56 -36 128q0 104 74 180t182 76q72 0 128 -36z
M1580 1580q0 -108 -76 -182t-180 -74q-72 0 -128 36l348 348q36 -56 36 -128z" />
</svg>
