<?xml version="1.0" standalone="no"?>
<!DOCTYPE svg PUBLIC "-//W3C//DTD SVG 1.1//EN" "http://www.w3.org/Graphics/SVG/1.1/DTD/svg11.dtd" >
<svg xmlns="http://www.w3.org/2000/svg" xmlns:xlink="http://www.w3.org/1999/xlink" version="1.1" viewBox="-10 0 1724 2048">
   <path fill="currentColor"
d="M1280 768h-768v-172h768v172zM424 596h-168v172h168v-172zM424 340h-168v172h168v-172zM680 340h-168v172h168v-172zM936 1452v168h88q32 0 58 26t26 62h596v168h-596q0 36 -26 62t-58 26h-344q-32 0 -58 -26t-26 -62h-596v-168h596q0 -36 26 -62t58 -26h88v-168h-600
q-68 0 -118 -50t-50 -122v-1024q0 -72 50 -122t118 -50h1368q68 0 118 50t50 122v1024q0 72 -50 122t-118 50h-600zM1536 1280v-1024h-1368v1024h1368zM768 512h680v-172h-680v172zM256 1024h512v-172h-512v172zM936 1196h512v-172h-512v172z" />
</svg>
