<?xml version="1.0" standalone="no"?>
<!DOCTYPE svg PUBLIC "-//W3C//DTD SVG 1.1//EN" "http://www.w3.org/Graphics/SVG/1.1/DTD/svg11.dtd" >
<svg xmlns="http://www.w3.org/2000/svg" xmlns:xlink="http://www.w3.org/1999/xlink" version="1.1" viewBox="-10 0 1728 2048">
   <path fill="currentColor"
d="M1024 256h-512v-172h512v172zM768 1580q0 156 84 292q-28 4 -84 4q-208 0 -384 -102t-280 -280t-104 -386t104 -384t280 -280t384 -104q132 0 256 46t224 126l120 -124q60 52 120 120l-120 124q152 188 168 436q-104 -44 -212 -44q-152 0 -280 74t-202 202t-74 280z
M852 596h-168v600h168v-600zM1708 1580q0 160 -112 272t-272 112t-272 -112t-112 -272t112 -272t272 -112t272 112t112 272zM1452 1800l-348 -348q-36 56 -36 128q0 104 74 180t182 76q72 0 128 -36zM1580 1580q0 -108 -76 -182t-180 -74q-72 0 -128 36l348 348
q36 -56 36 -128z" />
</svg>
