<?xml version="1.0" standalone="no"?>
<!DOCTYPE svg PUBLIC "-//W3C//DTD SVG 1.1//EN" "http://www.w3.org/Graphics/SVG/1.1/DTD/svg11.dtd" >
<svg xmlns="http://www.w3.org/2000/svg" xmlns:xlink="http://www.w3.org/1999/xlink" version="1.1" viewBox="-10 0 1640 2048">
   <path fill="currentColor"
d="M1024 256h-512v-172h512v172zM684 1196h168v-512h-168v512zM856 1700q-40 8 -88 8q-164 0 -300 -80t-216 -218t-80 -300t80 -300t216 -218t300 -80q200 0 358 120t214 308h176q-40 -172 -148 -308l120 -124q-60 -68 -120 -120l-120 124q-100 -80 -224 -126t-256 -46
q-208 0 -384 104t-280 280t-104 384t104 386t280 280t384 102q44 0 104 -8q-20 -60 -20 -120zM1324 1108v444q-40 -16 -88 -16q-88 0 -150 62t-62 150t62 152t150 64t152 -64t64 -152v-468h168v-172h-296z" />
</svg>
