<?xml version="1.0" standalone="no"?>
<!DOCTYPE svg PUBLIC "-//W3C//DTD SVG 1.1//EN" "http://www.w3.org/Graphics/SVG/1.1/DTD/svg11.dtd" >
<svg xmlns="http://www.w3.org/2000/svg" xmlns:xlink="http://www.w3.org/1999/xlink" version="1.1" viewBox="-10 0 1640 2048">
   <path fill="currentColor"
d="M1152 1376v-436h364q-40 -172 -148 -308l120 -124q-60 -68 -120 -120l-120 124q-100 -80 -224 -126t-256 -46q-208 0 -384 104t-280 280t-104 384t104 386t280 280t384 102q44 0 104 -8q-20 -60 -20 -120q0 -136 86 -240t214 -132zM852 1196h-168v-600h168v600zM1024 256
h-512v-172h512v172zM1620 1108v172h-168v468q0 88 -64 152t-152 64t-150 -64t-62 -152t62 -150t150 -62q48 0 88 16v-444h296z" />
</svg>
