<?xml version="1.0" standalone="no"?>
<!DOCTYPE svg PUBLIC "-//W3C//DTD SVG 1.1//EN" "http://www.w3.org/Graphics/SVG/1.1/DTD/svg11.dtd" >
<svg xmlns="http://www.w3.org/2000/svg" xmlns:xlink="http://www.w3.org/1999/xlink" version="1.1" viewBox="-10 0 1728 2048">
   <path fill="currentColor"
d="M1024 300h-512v-172h512v172zM1400 960l-716 716v240q-192 -20 -348 -128t-246 -274t-90 -362q0 -208 104 -384t280 -280t384 -104q132 0 256 46t224 126l120 -124q60 52 120 120l-120 124q84 104 124 228q-52 16 -92 56zM852 640h-168v600h168v-600zM852 1748v172h176
l524 -520l-176 -176zM1692 1192l-112 -112q-12 -12 -30 -12t-30 12l-84 84l176 176l80 -84q16 -12 16 -30t-16 -34z" />
</svg>
