<?xml version="1.0" standalone="no"?>
<!DOCTYPE svg PUBLIC "-//W3C//DTD SVG 1.1//EN" "http://www.w3.org/Graphics/SVG/1.1/DTD/svg11.dtd" >
<svg xmlns="http://www.w3.org/2000/svg" xmlns:xlink="http://www.w3.org/1999/xlink" version="1.1" viewBox="-10 0 1728 2048">
   <path fill="currentColor"
d="M1024 300h-512v-172h512v172zM956 1196v104q-48 40 -76 96t-28 116v300q0 48 20 100q-60 8 -104 8q-208 0 -384 -102t-280 -280t-104 -386t104 -384t280 -280t384 -104q132 0 256 46t224 126l120 -124q60 52 120 120l-120 124q56 68 92 148q-52 -12 -96 -12
q-108 0 -202 52t-150 140t-56 192zM852 640h-168v600h168v-600zM1604 1408h-368v-212q0 -48 38 -80t92 -32t90 32t36 80v44h112v-44q0 -88 -74 -150t-166 -62t-164 62t-72 150v212q-40 0 -72 32t-32 72v300q0 44 32 76t72 32h468q44 0 78 -30t34 -70v-300q0 -44 -32 -78
t-72 -34z" />
</svg>
