<?xml version="1.0" standalone="no"?>
<!DOCTYPE svg PUBLIC "-//W3C//DTD SVG 1.1//EN" "http://www.w3.org/Graphics/SVG/1.1/DTD/svg11.dtd" >
<svg xmlns="http://www.w3.org/2000/svg" xmlns:xlink="http://www.w3.org/1999/xlink" version="1.1" viewBox="-10 0 1728 2048">
   <path fill="currentColor"
d="M684 728h168v512h-168v-512zM1024 128h-512v172h512v-172zM768 1752q-164 0 -300 -80t-216 -218t-80 -300t80 -300t216 -218t300 -80t300 80t216 218t80 298q84 0 172 32v-32q0 -132 -44 -254t-124 -222l120 -124q-60 -68 -120 -120l-120 124q-100 -80 -224 -126
t-256 -46q-208 0 -384 104t-280 280t-104 384t104 386t280 280t384 102q72 0 144 -12q-40 -80 -52 -164q-56 8 -92 8zM1024 1580v172h684v-172h-684z" />
</svg>
