<?xml version="1.0" standalone="no"?>
<!DOCTYPE svg PUBLIC "-//W3C//DTD SVG 1.1//EN" "http://www.w3.org/Graphics/SVG/1.1/DTD/svg11.dtd" >
<svg xmlns="http://www.w3.org/2000/svg" xmlns:xlink="http://www.w3.org/1999/xlink" version="1.1" viewBox="-10 0 1629 2048">
   <path fill="currentColor"
d="M1536 0q30 0 51.5 21.5t21.5 51.5v1901q0 30 -21.5 52t-51.5 22h-1463q-30 0 -51.5 -22t-21.5 -52v-1901q0 -30 21.5 -51.5t51.5 -21.5h1463zM585 329v73q0 16 10.5 26t26.5 10h73q16 0 26 -10t10 -26v-73q0 -16 -10 -26.5t-26 -10.5h-73q-16 0 -26.5 10.5t-10.5 26.5z
M585 621v73q0 16 10.5 26.5t26.5 10.5h73q16 0 26 -10.5t10 -26.5v-73q0 -16 -10 -26t-26 -10h-73q-16 0 -26.5 10t-10.5 26zM585 914v73q0 16 10.5 26.5t26.5 10.5h73q16 0 26 -10.5t10 -26.5v-73q0 -16 -10 -26.5t-26 -10.5h-73q-16 0 -26.5 10.5t-10.5 26.5zM585 1206v74
q0 16 10.5 26t26.5 10h73q16 0 26 -10t10 -26v-74q0 -16 -10 -26t-26 -10h-73q-16 0 -26.5 10t-10.5 26zM439 1572v-73q0 -16 -10.5 -26.5t-26.5 -10.5h-73q-16 0 -26 10.5t-10 26.5v73q0 16 10 26.5t26 10.5h73q16 0 26.5 -10.5t10.5 -26.5zM439 1280v-74q0 -16 -10.5 -26
t-26.5 -10h-73q-16 0 -26 10t-10 26v74q0 16 10 26t26 10h73q16 0 26.5 -10t10.5 -26zM439 987v-73q0 -16 -10.5 -26.5t-26.5 -10.5h-73q-16 0 -26 10.5t-10 26.5v73q0 16 10 26.5t26 10.5h73q16 0 26.5 -10.5t10.5 -26.5zM439 694v-73q0 -16 -10.5 -26t-26.5 -10h-73
q-16 0 -26 10t-10 26v73q0 16 10 26.5t26 10.5h73q16 0 26.5 -10.5t10.5 -26.5zM439 402v-73q0 -16 -10.5 -26.5t-26.5 -10.5h-73q-16 0 -26 10.5t-10 26.5v73q0 16 10 26t26 10h73q16 0 26.5 -10t10.5 -26zM1024 1865v-220q0 -16 -10.5 -26t-26.5 -10h-365q-16 0 -26.5 10
t-10.5 26v220q0 16 10.5 26t26.5 10h365q16 0 26.5 -10t10.5 -26zM1024 1280v-74q0 -16 -10.5 -26t-26.5 -10h-73q-16 0 -26 10t-10 26v74q0 16 10 26t26 10h73q16 0 26.5 -10t10.5 -26zM1024 987v-73q0 -16 -10.5 -26.5t-26.5 -10.5h-73q-16 0 -26 10.5t-10 26.5v73
q0 16 10 26.5t26 10.5h73q16 0 26.5 -10.5t10.5 -26.5zM1024 694v-73q0 -16 -10.5 -26t-26.5 -10h-73q-16 0 -26 10t-10 26v73q0 16 10 26.5t26 10.5h73q16 0 26.5 -10.5t10.5 -26.5zM1024 402v-73q0 -16 -10.5 -26.5t-26.5 -10.5h-73q-16 0 -26 10.5t-10 26.5v73
q0 16 10 26t26 10h73q16 0 26.5 -10t10.5 -26zM1317 1572v-73q0 -16 -10.5 -26.5t-26.5 -10.5h-73q-16 0 -26.5 10.5t-10.5 26.5v73q0 16 10.5 26.5t26.5 10.5h73q16 0 26.5 -10.5t10.5 -26.5zM1317 1280v-74q0 -16 -10.5 -26t-26.5 -10h-73q-16 0 -26.5 10t-10.5 26v74
q0 16 10.5 26t26.5 10h73q16 0 26.5 -10t10.5 -26zM1317 987v-73q0 -16 -10.5 -26.5t-26.5 -10.5h-73q-16 0 -26.5 10.5t-10.5 26.5v73q0 16 10.5 26.5t26.5 10.5h73q16 0 26.5 -10.5t10.5 -26.5zM1317 694v-73q0 -16 -10.5 -26t-26.5 -10h-73q-16 0 -26.5 10t-10.5 26v73
q0 16 10.5 26.5t26.5 10.5h73q16 0 26.5 -10.5t10.5 -26.5zM1317 402v-73q0 -16 -10.5 -26.5t-26.5 -10.5h-73q-16 0 -26.5 10.5t-10.5 26.5v73q0 16 10.5 26t26.5 10h73q16 0 26.5 -10t10.5 -26z" />
</svg>
