<?xml version="1.0" standalone="no"?>
<!DOCTYPE svg PUBLIC "-//W3C//DTD SVG 1.1//EN" "http://www.w3.org/Graphics/SVG/1.1/DTD/svg11.dtd" >
<svg xmlns="http://www.w3.org/2000/svg" xmlns:xlink="http://www.w3.org/1999/xlink" version="1.1" viewBox="-10 0 1728 2048">
   <path fill="currentColor"
d="M684 728h168v512h-168v-512zM852 1744q-44 8 -84 8q-164 0 -300 -80t-216 -218t-80 -300t80 -300t216 -218t300 -80q176 0 322 96t218 252l56 -8q64 0 136 24q-44 -136 -132 -244l120 -124q-60 -68 -120 -120l-120 124q-100 -80 -224 -126t-256 -46q-208 0 -384 104
t-280 280t-104 384t104 386t280 280t384 102q44 0 104 -8q-20 -52 -20 -100v-68zM1024 128h-512v172h512v-172zM1708 1520v300q0 40 -34 70t-78 30h-468q-40 0 -72 -32t-32 -76v-300q0 -40 32 -72t72 -32v-128q0 -88 72 -150t164 -62t166 62t74 150v128q40 0 72 34t32 78z
M1492 1280q0 -48 -36 -78t-90 -30t-92 30t-38 78v128h256v-128z" />
</svg>
