<?xml version="1.0" standalone="no"?>
<!DOCTYPE svg PUBLIC "-//W3C//DTD SVG 1.1//EN" "http://www.w3.org/Graphics/SVG/1.1/DTD/svg11.dtd" >
<svg xmlns="http://www.w3.org/2000/svg" xmlns:xlink="http://www.w3.org/1999/xlink" version="1.1" viewBox="-10 0 1640 2048">
   <path fill="currentColor"
d="M684 728h168v512h-168v-512zM1024 128h-512v172h512v-172zM768 1752q-164 0 -300 -80t-216 -218t-80 -300t80 -300t216 -218t300 -80q176 0 322 94t218 246h16q92 0 180 40q-44 -144 -136 -260l120 -124q-60 -68 -120 -120l-120 124q-100 -80 -224 -126t-256 -46
q-208 0 -384 104t-280 280t-104 384t104 386t280 280t384 102q152 0 292 -56q-52 -72 -96 -148q-96 36 -196 36zM1620 1368q0 136 -148 360q-76 112 -148 192l-80 -92q-88 -116 -144 -220q-76 -144 -76 -240q0 -124 88 -212t210 -88t210 88t88 212zM1424 1376q0 -40 -32 -72
t-70 -32t-70 30t-32 72t30 72t74 30t76 -32t24 -68z" />
</svg>
