<?xml version="1.0" standalone="no"?>
<!DOCTYPE svg PUBLIC "-//W3C//DTD SVG 1.1//EN" "http://www.w3.org/Graphics/SVG/1.1/DTD/svg11.dtd" >
<svg xmlns="http://www.w3.org/2000/svg" xmlns:xlink="http://www.w3.org/1999/xlink" version="1.1" viewBox="-10 0 1600 2048">
   <path fill="currentColor"
d="M1536 1184q-88 -32 -172 -32q0 -160 -80 -298t-216 -218t-300 -80t-300 80t-216 218t-80 300t80 300t216 218t300 80q36 0 92 -8q12 84 52 164q-72 12 -144 12q-208 0 -384 -102t-280 -280t-104 -386t104 -384t280 -280t384 -104q132 0 256 46t224 126l120 -124
q60 52 120 120l-120 124q80 100 124 222t44 254v32zM684 1240h168v-512h-168v512zM1024 128h-512v172h512v-172zM1420 1452v428h160v-428h-160zM1152 1880h160v-428h-160v428z" />
</svg>
