<?xml version="1.0" standalone="no"?>
<!DOCTYPE svg PUBLIC "-//W3C//DTD SVG 1.1//EN" "http://www.w3.org/Graphics/SVG/1.1/DTD/svg11.dtd" >
<svg xmlns="http://www.w3.org/2000/svg" xmlns:xlink="http://www.w3.org/1999/xlink" version="1.1" viewBox="-10 0 1600 2048">
   <path fill="currentColor"
d="M1364 1152q84 0 172 32v-32q0 -132 -44 -254t-124 -222l120 -124q-60 -68 -120 -120l-120 124q-100 -80 -224 -126t-256 -46q-208 0 -384 104t-280 280t-104 384t104 386t280 280t384 102q72 0 144 -12q-60 -112 -60 -244q0 -136 70 -254t188 -188t254 -70zM852 1240
h-168v-600h168v600zM1024 300h-512v-172h512v172zM1580 1452v428h-428v-428h428z" />
</svg>
