<?xml version="1.0" standalone="no"?>
<!DOCTYPE svg PUBLIC "-//W3C//DTD SVG 1.1//EN" "http://www.w3.org/Graphics/SVG/1.1/DTD/svg11.dtd" >
<svg xmlns="http://www.w3.org/2000/svg" xmlns:xlink="http://www.w3.org/1999/xlink" version="1.1" viewBox="-10 0 1336 2048">
   <path fill="currentColor"
d="M1284 544l-334 334v942q0 53 -37 90.5t-90.5 37.5t-91 -37.5t-37.5 -90.5v-440h-72v440q0 53 -37.5 90.5t-91 37.5t-90.5 -37.5t-37 -90.5v-942l-334 -334q-32 -32 -32 -77.5t32 -78.5q32 -31 77.5 -31t78.5 31l260 262h420l260 -262q33 -31 78.5 -31t77.5 31
q32 33 32 78.5t-32 77.5zM914 356.5q0 106.5 -75 181t-181.5 74.5t-181 -74.5t-74.5 -181t74.5 -181.5t181 -75t181.5 75t75 181.5z" />
</svg>
