<?xml version="1.0" standalone="no"?>
<!DOCTYPE svg PUBLIC "-//W3C//DTD SVG 1.1//EN" "http://www.w3.org/Graphics/SVG/1.1/DTD/svg11.dtd" >
<svg xmlns="http://www.w3.org/2000/svg" xmlns:xlink="http://www.w3.org/1999/xlink" version="1.1" viewBox="-10 0 1728 2048">
   <path fill="currentColor"
d="M1024 256h-512v-172h512v172zM852 1492q0 200 128 356q-108 28 -212 28q-208 0 -384 -102t-280 -280t-104 -386t104 -384t280 -280t384 -104q132 0 256 46t224 126l120 -124q60 52 120 120l-120 124q112 140 152 316q-60 -8 -112 -8q-152 0 -278 74t-202 202t-76 276z
M852 596h-168v600h168v-600zM1364 1152v-128l-192 192l192 192v-128q88 0 152 62t64 150q0 52 -24 96l92 92q60 -84 60 -188q0 -140 -100 -240t-244 -100zM1364 1708q-88 0 -150 -64t-62 -152q0 -48 24 -96l-96 -92q-56 88 -56 188q0 144 100 244t240 100v128l192 -192
l-192 -192v128z" />
</svg>
