<?xml version="1.0" standalone="no"?>
<!DOCTYPE svg PUBLIC "-//W3C//DTD SVG 1.1//EN" "http://www.w3.org/Graphics/SVG/1.1/DTD/svg11.dtd" >
<svg xmlns="http://www.w3.org/2000/svg" xmlns:xlink="http://www.w3.org/1999/xlink" version="1.1" viewBox="-10 0 1692 2048">
   <path fill="currentColor"
d="M820 524q-88 0 -150 62t-62 150t62 150t150 62t150 -62t62 -150t-62 -150t-150 -62zM1160 1420v168h172v344h172v-344h168v-168h-512zM792 1116l-684 728l-108 -108l628 -668q76 44 164 48zM1416 736q0 168 -88 332q-56 96 -124 168q-44 44 -120 100q-64 52 -88 76
q-40 44 -60 100q-36 116 -90 188t-142 116q-68 28 -142 28t-140 -30t-114 -82l124 -124q48 68 132 68q36 0 64 -16q48 -24 82 -68t64 -132t90 -156q36 -40 116 -100q68 -56 100 -88q56 -56 96 -128q72 -124 72 -252q0 -116 -58 -214t-156 -156t-214 -58t-214 58t-156 156
t-58 214h-168q0 -164 78 -302t216 -216t302 -78t302 78t216 216t78 302zM1364 320l200 -204l108 108l-228 232q-32 -72 -80 -136z" />
</svg>
