<?xml version="1.0" standalone="no"?>
<!DOCTYPE svg PUBLIC "-//W3C//DTD SVG 1.1//EN" "http://www.w3.org/Graphics/SVG/1.1/DTD/svg11.dtd" >
<svg xmlns="http://www.w3.org/2000/svg" xmlns:xlink="http://www.w3.org/1999/xlink" version="1.1" viewBox="-10 0 1728 2048">
   <path fill="currentColor"
d="M684 684h168v512h-168v-512zM768 1708q-164 0 -300 -80t-216 -218t-80 -300t80 -300t216 -218t300 -80q200 0 360 122t212 310q24 -4 68 -4q52 0 112 8q-40 -176 -152 -316l120 -124q-60 -68 -120 -120l-120 124q-100 -80 -224 -126t-256 -46q-208 0 -384 104t-280 280
t-104 384t104 386t280 280t384 102q104 0 212 -28q-56 -68 -88 -156q-56 16 -124 16zM1024 84h-512v172h512v-172zM1364 1152v-128l-192 192l192 192v-128q88 0 152 62t64 150q0 52 -24 96l92 92q60 -84 60 -188q0 -140 -100 -240t-244 -100zM1364 1708q-88 0 -150 -64
t-62 -152q0 -48 24 -96l-96 -92q-56 88 -56 188q0 144 100 244t240 100v128l192 -192l-192 -192v128z" />
</svg>
