<?xml version="1.0" standalone="no"?>
<!DOCTYPE svg PUBLIC "-//W3C//DTD SVG 1.1//EN" "http://www.w3.org/Graphics/SVG/1.1/DTD/svg11.dtd" >
<svg xmlns="http://www.w3.org/2000/svg" xmlns:xlink="http://www.w3.org/1999/xlink" version="1.1" viewBox="-10 0 1640 2048">
   <path fill="currentColor"
d="M684 706h168v512h-168v-512zM1024 106h-512v172h512v-172zM768 1730q-164 0 -300 -80t-216 -218t-80 -300t80 -300t216 -218t300 -80q148 0 276 68t212 186t104 262q96 4 176 40q-16 -248 -168 -436l120 -124q-60 -68 -120 -120l-120 124q-100 -80 -224 -126t-256 -46
q-208 0 -384 104t-280 280t-104 384t104 386t280 280t384 102q56 0 84 -4q-48 -76 -68 -164h-16zM1620 1602v-344l-100 100q-100 -100 -240 -100t-240 100t-100 242t100 242t240 100q108 0 194 -58t122 -154h-144q-32 40 -76 62t-96 22q-88 0 -150 -62t-62 -150t62 -152
t150 -64t152 64l-152 152h340z" />
</svg>
