<?xml version="1.0" standalone="no"?>
<!DOCTYPE svg PUBLIC "-//W3C//DTD SVG 1.1//EN" "http://www.w3.org/Graphics/SVG/1.1/DTD/svg11.dtd" >
<svg xmlns="http://www.w3.org/2000/svg" xmlns:xlink="http://www.w3.org/1999/xlink" version="1.1" viewBox="-10 0 1922 2048">
   <path fill="currentColor"
d="M891 540q0 49 -13 97.5t-38 90t-67 67t-95 25.5t-101.5 -25.5t-83.5 -67t-60.5 -93.5t-38.5 -105.5t-13 -102.5t13 -97.5t38 -90t67 -67t95 -25.5q54 0 102 25.5t83 67t61 93.5t38.5 105.5t12.5 102.5zM501 1092q0 58 -19 107.5t-62 84t-103 34.5q-66 0 -126.5 -37.5
t-101 -95t-65 -126t-24.5 -131.5q0 -58 19 -108t62.5 -85t102.5 -35q53 0 103 25t88 65.5t67 91.5t44 105.5t15 104.5zM951 1060q68 0 146 31.5t149.5 83.5t138.5 121t116 142.5t78.5 151.5t29.5 144q0 41 -13.5 72.5t-35 49t-53.5 28.5t-63 14.5t-70 3.5q-51 0 -110 -16.5
t-104 -35.5t-102.5 -35.5t-106.5 -16.5q-51 0 -111.5 16t-108 35.5t-111 35t-118.5 15.5q-44 0 -80 -8t-66 -26.5t-46.5 -52t-16.5 -79.5q0 -67 29.5 -144.5t78.5 -151t116 -143t138.5 -121t149.5 -83t146 -31.5zM1224 820q-53 0 -95 -25.5t-67.5 -67t-38.5 -90t-13 -97.5
t12.5 -102.5t38.5 -105.5t61 -93.5t83 -67t102 -25.5q53 0 95 25.5t67.5 67t38.5 90t13 97.5t-13 102.5t-38.5 105.5t-60.5 93.5t-83.5 67t-101.5 25.5zM1718 700q59 0 102.5 35t62.5 85t19 108q0 63 -24.5 131.5t-65 126t-101 95t-126.5 37.5q-60 0 -103 -34.5t-62 -84
t-19 -107.5q0 -50 15 -104.5t44 -105.5t67 -91.5t88 -65.5t103 -25z" />
</svg>
