<?xml version="1.0" standalone="no"?>
<!DOCTYPE svg PUBLIC "-//W3C//DTD SVG 1.1//EN" "http://www.w3.org/Graphics/SVG/1.1/DTD/svg11.dtd" >
<svg xmlns="http://www.w3.org/2000/svg" xmlns:xlink="http://www.w3.org/1999/xlink" version="1.1" viewBox="-10 0 1922 2048">
   <path fill="currentColor"
d="M1024 1788l731 -399v-726l-731 266v859zM951 800l798 -291l-798 -290l-798 290zM1902 512v877q0 40 -21 74.5t-56 53.5l-804 439q-32 19 -70 19t-70 -19l-804 -439q-35 -19 -56 -53.5t-21 -74.5v-877q0 -46 26.5 -83.5t69.5 -53.5l805 -293q24 -9 50 -9t50 9l805 293
q43 16 69.5 53.5t26.5 83.5z" />
</svg>
