<?xml version="1.0" standalone="no"?>
<!DOCTYPE svg PUBLIC "-//W3C//DTD SVG 1.1//EN" "http://www.w3.org/Graphics/SVG/1.1/DTD/svg11.dtd" >
<svg xmlns="http://www.w3.org/2000/svg" xmlns:xlink="http://www.w3.org/1999/xlink" version="1.1" viewBox="-10 0 2507 2048">
   <path fill="currentColor"
d="M731 1865l439 -220v-359l-439 188v391zM658 1346l462 -198l-462 -198l-461 198zM1902 1865l439 -220v-359l-439 188v391zM1829 1346l461 -198l-461 -198l-462 198zM1317 1011l438 -189v-304l-438 188v305zM1243 578l504 -216l-504 -216l-504 216zM2487 1170v475
q0 42 -22 77.5t-59 53.5l-512 256q-31 16 -65 16q-35 0 -66 -16l-512 -256q-5 -2 -8 -5q-3 3 -8 5l-512 256q-31 16 -65 16t-65 -16l-512 -256q-37 -18 -59 -53.5t-22 -77.5v-475q0 -43 24 -80t65 -55l496 -213v-457q0 -43 24 -80t65 -55l512 -219q25 -11 57 -11q33 0 58 11
l512 219q41 18 65 55t24 80v457l496 213q41 18 65 54.5t24 80.5z" />
</svg>
