<?xml version="1.0" standalone="no"?>
<!DOCTYPE svg PUBLIC "-//W3C//DTD SVG 1.1//EN" "http://www.w3.org/Graphics/SVG/1.1/DTD/svg11.dtd" >
<svg xmlns="http://www.w3.org/2000/svg" xmlns:xlink="http://www.w3.org/1999/xlink" version="1.1" viewBox="-10 0 2361 2048">
   <path fill="currentColor"
d="M2112 388h-584v142h584v-142zM1824 874q-103 0 -167 60.5t-71 163.5h467q-10 -107 -67 -165.5t-162 -58.5zM1842 1542q45 0 91 -14.5t84.5 -46.5t51.5 -75h252q-58 179 -179 265.5t-309 86.5q-162 0 -283.5 -69t-186 -193t-64.5 -286q0 -116 39 -217.5t108.5 -175.5
t169.5 -116.5t217 -42.5q119 0 216.5 45t160.5 122.5t97 180t34 218.5q0 2 -3 54h-752q0 126 65.5 195t190.5 69zM317 1486h338q51 0 91.5 -10t73.5 -31.5t51 -59.5t18 -91q0 -204 -227 -204h-345v396zM317 872h321q89 0 141 -42t52 -130q0 -47 -17.5 -80.5t-49 -51t-68 -25
t-82.5 -7.5h-297v336zM0 290h679q79 0 143.5 9.5t125 34t101.5 63.5t65.5 102.5t24.5 146.5q0 108 -49 181t-147 121q130 36 196.5 131t66.5 233q0 86 -28 156t-75.5 118.5t-112.5 81t-138.5 47.5t-153.5 15h-698v-1440z" />
</svg>
