<?xml version="1.0" standalone="no"?>
<!DOCTYPE svg PUBLIC "-//W3C//DTD SVG 1.1//EN" "http://www.w3.org/Graphics/SVG/1.1/DTD/svg11.dtd" >
<svg xmlns="http://www.w3.org/2000/svg" xmlns:xlink="http://www.w3.org/1999/xlink" version="1.1" viewBox="-10 0 1775 2048">
   <path fill="currentColor"
d="M1419 740q0 -91 -65 -156.5t-156 -65.5t-156 65.5t-65 156.5t65 155.5t156 64.5q92 0 156.5 -64.5t64.5 -155.5zM722 1411.5q0 94.5 -66 160.5t-160 66q-64 0 -117.5 -33.5t-82.5 -88.5q44 18 112 46t137 -1.5t97 -98.5t-1 -137.5t-99 -96.5l-94 -38q25 -4 48 -4
q94 0 160 65.5t66 160zM1755 476v1096q0 90 -44 166t-119.5 120t-165.5 44h-1097q-90 0 -165.5 -44t-119.5 -120t-44 -166v-174l197 78q23 105 106.5 173.5t192.5 68.5q119 0 207 -80t99 -196l395 -288q112 0 207 -56t150 -150.5t55 -205.5q0 -113 -55 -208t-149.5 -149.5
t-207.5 -54.5q-111 0 -205.5 54.5t-150 148.5t-56.5 205l-257 368q-10 -2 -32 -2q-85 0 -157 42l-339 -136v-534q0 -90 44 -166t119.5 -120t165.5 -44h1097q90 0 165.5 44t119.5 120t44 166zM1473 742q0 114 -80.5 195t-195.5 81q-114 0 -195 -81t-81 -195q0 -115 81 -195.5
t195 -80.5q115 0 195.5 80.5t80.5 195.5z" />
</svg>
