<?xml version="1.0" standalone="no"?>
<!DOCTYPE svg PUBLIC "-//W3C//DTD SVG 1.1//EN" "http://www.w3.org/Graphics/SVG/1.1/DTD/svg11.dtd" >
<svg xmlns="http://www.w3.org/2000/svg" xmlns:xlink="http://www.w3.org/1999/xlink" version="1.1" viewBox="-10 0 2033 2048">
   <path fill="currentColor"
d="M937 1386l-17 420l-2 25l-480 -33q-41 -4 -76.5 -37t-53.5 -74q-11 -26 -14.5 -56t-1.5 -54.5t10.5 -59t15.5 -55t20 -57t18 -51.5q88 14 581 32zM495 716l206 433l-168 -105q-72 82 -127.5 165t-83 142.5t-45 107.5t-21.5 72l-4 25l-217 -408q-13 -19 -18 -40t-3.5 -38
t5 -31t7.5 -22l4 -7q40 -73 130 -215l-160 -99zM1902 1307l-215 410q-8 20 -23 36t-29.5 24t-28.5 13t-22 6l-9 2q-81 8 -250 14l9 187l-263 -419l241 -414l8 198q116 13 209 12t163 -12t116.5 -24t70.5 -23zM1005 251q-54 71 -303 497l-362 -214l-22 -14l257 -406
q23 -36 68.5 -52t91.5 -11q27 2 55 13.5t48.5 23.5t48 37.5t40.5 39t41.5 45.5t36.5 41zM1753 602l243 414q15 24 16 56t-8 61t-25 55q-15 23 -38 42t-44 31.5t-55 25t-54 18t-58.5 16t-52.5 14.5q-40 -82 -303 -498l358 -223zM1590 343l162 -95l-251 427l-479 -23l173 -98
q-38 -103 -85 -191t-87 -141t-74 -91t-53 -53l-20 -15l463 1q22 -2 43 3.5t35 15t24.5 19t15.5 16.5l5 8q45 70 128 217z" />
</svg>
