<?xml version="1.0" standalone="no"?>
<!DOCTYPE svg PUBLIC "-//W3C//DTD SVG 1.1//EN" "http://www.w3.org/Graphics/SVG/1.1/DTD/svg11.dtd" >
<svg xmlns="http://www.w3.org/2000/svg" xmlns:xlink="http://www.w3.org/1999/xlink" version="1.1" viewBox="-10 0 2361 2048">
   <path fill="currentColor"
d="M549 1207q0 -76 -53.5 -129.5t-129.5 -53.5t-129.5 53.5t-53.5 129.5t53.5 129.5t129.5 53.5t129.5 -53.5t53.5 -129.5zM590 841h1161l-102 -408q-2 -10 -16 -20.5t-24 -10.5h-878q-10 0 -24 10.5t-16 20.5zM2158 1207q0 -76 -53.5 -129.5t-129.5 -53.5t-129.5 53.5
t-53.5 129.5t53.5 129.5t129.5 53.5t129.5 -53.5t53.5 -129.5zM2341 1097v439q0 16 -10.5 26.5t-26.5 10.5h-110v146q0 91 -64 155t-155 64t-155.5 -64t-64.5 -155v-146h-1170v146q0 91 -64 155t-155 64t-155.5 -64t-64.5 -155v-146h-109q-16 0 -26.5 -10.5t-10.5 -26.5
v-439q0 -107 75 -181.5t181 -74.5h32l120 -479q26 -108 118.5 -180t204.5 -72h878q112 0 205 72t119 180l120 479h32q107 0 181.5 74.5t74.5 181.5z" />
</svg>
