<?xml version="1.0" standalone="no"?>
<!DOCTYPE svg PUBLIC "-//W3C//DTD SVG 1.1//EN" "http://www.w3.org/Graphics/SVG/1.1/DTD/svg11.dtd" >
<svg xmlns="http://www.w3.org/2000/svg" xmlns:xlink="http://www.w3.org/1999/xlink" version="1.1" viewBox="-10 0 2361 2048">
   <path fill="currentColor"
d="M2085 1024q107 0 181.5 75t74.5 181v438q0 16 -10.5 26.5t-26.5 10.5h-110v73q0 91 -64 155.5t-155 64.5t-155.5 -64.5t-64.5 -155.5v-73h-1170v73q0 91 -64 155.5t-155 64.5t-155.5 -64.5t-64.5 -155.5v-73h-109q-16 0 -26.5 -10.5t-10.5 -26.5v-438q0 -106 75 -181
t181 -75h32l120 -479q26 -108 118.5 -180.5t204.5 -72.5h147v-256q0 -16 10 -26t26 -10h512q16 0 26.5 10t10.5 26v256h146q112 0 205 72.5t119 180.5l120 479h32zM366 1572q76 0 129.5 -53.5t53.5 -129.5t-53.5 -129.5t-129.5 -53.5t-129.5 53.5t-53.5 129.5t53.5 129.5
t129.5 53.5zM590 1024h1161l-102 -408q-2 -10 -16 -20.5t-24 -10.5h-878q-10 0 -24 10.5t-16 20.5zM1975 1572q76 0 129.5 -53.5t53.5 -129.5t-53.5 -129.5t-129.5 -53.5t-129.5 53.5t-53.5 129.5t53.5 129.5t129.5 53.5z" />
</svg>
