<?xml version="1.0" standalone="no"?>
<!DOCTYPE svg PUBLIC "-//W3C//DTD SVG 1.1//EN" "http://www.w3.org/Graphics/SVG/1.1/DTD/svg11.dtd" >
<svg xmlns="http://www.w3.org/2000/svg" xmlns:xlink="http://www.w3.org/1999/xlink" version="1.1" viewBox="-10 0 1775 2048">
   <path fill="currentColor"
d="M1288 1382q0 -22 -8 -34t-26 -24q-219 -130 -511 -130q-151 0 -328 38q-48 12 -48 60q0 22 15.5 39t40.5 17l42 -10q153 -30 278 -30q259 0 454 118q21 12 37 12q22 0 38 -16t16 -40zM1398 1138q0 -47 -40 -70q-131 -78 -292.5 -120t-334.5 -42q-172 0 -346 48
q-55 15 -55 74q0 28 20 48t49 20q8 0 42 -10q135 -36 287 -36q159 0 303 37.5t255 102.5q28 16 43 16q29 0 49 -20t20 -48zM1521 854q0 -53 -46 -80q-144 -84 -334.5 -127t-391.5 -43q-234 0 -416 54q-26 8 -44 29.5t-18 54.5q0 36 23.5 60t58.5 24q7 0 46 -8
q154 -44 351 -44q181 0 353.5 39t289.5 109q25 14 46 14q33 0 57.5 -23.5t24.5 -58.5zM1755 1024.5q0 119.5 -31.5 233t-88 210t-137.5 177.5t-177 137.5t-210 88t-233 31.5t-233 -31.5t-210.5 -88t-177.5 -137.5t-137.5 -177.5t-88 -210t-31.5 -233t31.5 -233.5t88 -210
t137.5 -177t177.5 -137.5t210.5 -88.5t233 -32t233 32t210 88.5t177 137.5t137.5 177t88 210t31.5 233.5z" />
</svg>
