<?xml version="1.0" standalone="no"?>
<!DOCTYPE svg PUBLIC "-//W3C//DTD SVG 1.1//EN" "http://www.w3.org/Graphics/SVG/1.1/DTD/svg11.dtd" >
<svg xmlns="http://www.w3.org/2000/svg" xmlns:xlink="http://www.w3.org/1999/xlink" version="1.1" viewBox="-10 0 2653 2048">
   <path fill="currentColor"
d="M896 1568l18 -276l-18 -598q-1 -11 -8.5 -18.5t-18.5 -7.5t-19 7.5t-8 18.5l-16 598l16 276q1 12 8.5 19t18.5 7t18.5 -7t8.5 -19zM1234 1534l13 -240l-14 -670q0 -18 -15 -28q-12 -6 -18 -6t-18 6q-15 10 -15 28l-1 6l-12 662q0 2 13 270v2q0 10 7 18q11 14 26 14
q13 0 23 -10q10 -9 10 -24zM40 1146l23 146l-23 144q-2 10 -10 10q-9 0 -11 -10l-19 -144l19 -146q2 -10 11 -10q8 0 10 10zM138 1056l30 236l-30 232q-2 10 -11 10q-10 0 -10 -10l-27 -232l27 -236q0 -10 10 -10q9 0 11 10zM458 1574zM243 1012l29 280l-29 272
q0 5 -3.5 8.5t-8.5 3.5q-12 0 -14 -12l-24 -272l24 -280q1 -6 5 -10t9 -4q12 0 12 14zM351 1004l26 288l-26 280q-2 14 -16 14q-6 0 -10.5 -4t-4.5 -10l-24 -280l24 -288q0 -6 4.5 -10t10.5 -4q14 0 16 14zM458 1026l24 266l-24 282q-1 7 -6 12.5t-12 5.5t-12 -5.5t-5 -12.5
l-23 -282l23 -266q0 -7 5 -12.5t12 -5.5t12 5.5t6 12.5zM896 1568zM566 858l24 434l-24 282q0 8 -6 14t-14 6t-13.5 -6t-6.5 -14l-21 -282l21 -434q1 -8 6.5 -14t13.5 -6t14 6t6 14zM673 760l22 534l-22 280q0 9 -6.5 15.5t-15.5 6.5q-20 0 -22 -22l-19 -280l19 -534
q2 -22 22 -22q9 0 15.5 6.5t6.5 15.5zM785 714l21 578l-21 278q-1 10 -8 17t-17 7t-16.5 -7t-7.5 -17l-18 -278l18 -578q0 -10 7 -17t17 -7t17 7t8 17zM1233 1562v0v0v0zM1007 710l17 582l-17 274q0 12 -8.5 20t-20.5 8t-19.5 -8t-8.5 -20l-16 -274l16 -582q0 -12 8 -20
t20 -8t20.5 8t8.5 20zM1120 732l16 562l-16 270q0 12 -9 21t-22 9t-22 -9t-10 -21l-14 -270l14 -562q1 -14 10 -23t22 -9t21.5 9t9.5 23zM1362 1294l-16 264v0q0 14 -10.5 25t-24.5 11t-25 -11t-12 -25l-7 -130l-6 -134l13 -728v-2q2 -17 14 -28q10 -8 23 -8q9 0 17 6
q16 9 18 30zM2633 1272q0 88 -43.5 162t-117.5 117t-162 43h-899q-15 -1 -25 -11.5t-10 -26.5v-1026q0 -15 7 -23.5t25 -14.5q98 -40 207 -40q110 0 211 41t176 110.5t123.5 165.5t58.5 203q61 -24 126 -24q88 0 162 43.5t117.5 118t43.5 162.5z" />
</svg>
