<?xml version="1.0" standalone="no"?>
<!DOCTYPE svg PUBLIC "-//W3C//DTD SVG 1.1//EN" "http://www.w3.org/Graphics/SVG/1.1/DTD/svg11.dtd" >
<svg xmlns="http://www.w3.org/2000/svg" xmlns:xlink="http://www.w3.org/1999/xlink" version="1.1" viewBox="-10 0 1775 2048">
   <path fill="currentColor"
d="M878 877q271 0 506 -49t371 -145v194q0 79 -117 146.5t-319.5 107t-440.5 39.5t-440.5 -39.5t-320 -107t-117.5 -146.5v-194q136 96 371.5 145t506.5 49zM878 1755q271 0 506 -49t371 -145v194q0 79 -117 146.5t-319.5 107t-440.5 39.5t-440.5 -39.5t-320 -107
t-117.5 -146.5v-194q136 96 371.5 145t506.5 49zM878 1316q271 0 506 -49t371 -145v194q0 79 -117 146.5t-319.5 107t-440.5 39.5t-440.5 -39.5t-320 -107t-117.5 -146.5v-194q136 96 371.5 145t506.5 49zM878 0q238 0 440.5 39t319.5 106.5t117 146.5v146q0 79 -117 146.5
t-319.5 107t-440.5 39.5t-440.5 -39.5t-320 -107t-117.5 -146.5v-146q0 -79 117.5 -146.5t320 -106.5t440.5 -39z" />
</svg>
