<?xml version="1.0" standalone="no"?>
<!DOCTYPE svg PUBLIC "-//W3C//DTD SVG 1.1//EN" "http://www.w3.org/Graphics/SVG/1.1/DTD/svg11.dtd" >
<svg xmlns="http://www.w3.org/2000/svg" xmlns:xlink="http://www.w3.org/1999/xlink" version="1.1" viewBox="-10 0 1775 2048">
   <path fill="currentColor"
d="M1678 434q32 32 54.5 86.5t22.5 100.5v1317q0 46 -31.5 78t-77.5 32h-1536q-46 0 -78 -32t-32 -78v-1829q0 -46 32 -77.5t78 -31.5h1024q46 0 100.5 22.5t86.5 54.5zM1170 155v430h430q-13 -35 -25 -47l-358 -358q-12 -12 -47 -25zM1609 1901v-1170h-475q-46 0 -78 -32
t-32 -78v-475h-878v1755h1463zM1022 1224q33 26 96 64q64 -8 133 -8q168 0 203 56q18 25 2 59q0 1 -2 3q0 2 -1 2v1q-6 43 -82 43q-55 0 -131.5 -22.5t-148.5 -60.5q-250 27 -448 95q-176 299 -276 299q-19 0 -32 -8l-28 -14q-1 -1 -6 -5q-11 -11 -7 -42q10 -46 63.5 -104.5
t151.5 -109.5q15 -10 26 6q2 2 2 5q59 -98 122 -225q80 -162 119 -300q-28 -94 -35.5 -182.5t8.5 -145.5q12 -45 48 -45h24h1q26 0 40 17q20 23 10 78q-2 8 -4 9q1 3 1 9v34q-2 141 -16 220q62 186 167 272zM363 1693q61 -29 157 -180q-59 45 -100.5 95.5t-56.5 84.5z
M818 642q-16 48 -2 151q6 -36 8 -51q1 -11 4 -28t4 -21q1 -3 5 -9l-3 -6q-1 -25 -15 -41q0 1 -1 3v2zM677 1397q150 -59 324 -92l-33 -27q-86 -75 -145 -201q-31 98 -95 225q-34 64 -51 95zM1415 1379q-27 -27 -160 -27q85 32 142 32q10 0 20 -2q0 -1 -2 -3z" />
</svg>
