<?xml version="1.0" standalone="no"?>
<!DOCTYPE svg PUBLIC "-//W3C//DTD SVG 1.1//EN" "http://www.w3.org/Graphics/SVG/1.1/DTD/svg11.dtd" >
<svg xmlns="http://www.w3.org/2000/svg" xmlns:xlink="http://www.w3.org/1999/xlink" version="1.1" viewBox="-10 0 1775 2048">
   <path fill="currentColor"
d="M1678 434q32 32 54.5 86.5t22.5 100.5v1317q0 46 -31.5 78t-77.5 32h-1536q-46 0 -78 -32t-32 -78v-1829q0 -46 32 -77.5t78 -31.5h1024q46 0 100.5 22.5t86.5 54.5zM1170 155v430h430q-13 -35 -25 -47l-358 -358q-12 -12 -47 -25zM1609 1901v-1170h-475q-46 0 -78 -32
t-32 -78v-475h-878v1755h1463zM490 1634v121h321v-121h-85l117 -184q6 -9 11.5 -19.5t8.5 -15t4 -4.5h3q1 5 5 11q1 2 20 28l122 184h-87v121h333v-121h-78l-219 -312l223 -322h76v-123h-319v123h85l-118 181q-4 6 -8 12.5t-6.5 11t-5 8t-3.5 5.5l-1 1h-2q-1 -3 -6 -11
q-12 -19 -19 -27l-121 -181h86v-123h-331v123h78l216 310l-222 324h-78z" />
</svg>
