<?xml version="1.0" standalone="no"?>
<!DOCTYPE svg PUBLIC "-//W3C//DTD SVG 1.1//EN" "http://www.w3.org/Graphics/SVG/1.1/DTD/svg11.dtd" >
<svg xmlns="http://www.w3.org/2000/svg" xmlns:xlink="http://www.w3.org/1999/xlink" version="1.1" viewBox="-10 0 1775 2048">
   <path fill="currentColor"
d="M731 438v-146h-146v146h146zM878 585v-147h-147v147h147zM731 731v-146h-146v146h146zM878 877v-146h-147v146h147zM1678 434q32 32 54.5 86.5t22.5 100.5v1317q0 46 -31.5 78t-77.5 32h-1536q-46 0 -78 -32t-32 -78v-1829q0 -46 32 -77.5t78 -31.5h1024q46 0 100.5 22.5
t86.5 54.5zM1170 155v430h430q-13 -35 -25 -47l-358 -358q-12 -12 -47 -25zM1609 1901v-1170h-475q-46 0 -78 -32t-32 -78v-475h-146v146h-147v-146h-585v1755h1463zM893 1077l122 399q9 28 9 60q0 95 -83 157t-210 62t-209.5 -62t-82.5 -157q0 -32 9 -60q24 -71 137 -452
v-147h146v147h91q25 0 44.5 14.5t26.5 38.5zM731 1609q61 0 104 -21.5t43 -51.5t-43.5 -52t-103.5 -22t-103 22t-43 52t42.5 51.5t103.5 21.5z" />
</svg>
