<?xml version="1.0" standalone="no"?>
<!DOCTYPE svg PUBLIC "-//W3C//DTD SVG 1.1//EN" "http://www.w3.org/Graphics/SVG/1.1/DTD/svg11.dtd" >
<svg xmlns="http://www.w3.org/2000/svg" xmlns:xlink="http://www.w3.org/1999/xlink" version="1.1" viewBox="-10 0 1775 2048">
   <path fill="currentColor"
d="M1678 434q32 32 54.5 86.5t22.5 100.5v1317q0 46 -31.5 78t-77.5 32h-1536q-46 0 -78 -32t-32 -78v-1829q0 -46 32 -77.5t78 -31.5h1024q46 0 100.5 22.5t86.5 54.5zM1170 155v430h430q-13 -35 -25 -47l-358 -358q-12 -12 -47 -25zM1609 1901v-1170h-475q-46 0 -78 -32
t-32 -78v-475h-878v1755h1463zM709 971q22 9 22 34v622q0 25 -22 34q-1 0 -6 1.5t-8 1.5q-13 0 -26 -11l-190 -191h-150q-16 0 -26 -10t-10 -26v-220q0 -16 10 -26t26 -10h150l190 -191q19 -17 40 -8zM1185 1758q35 0 57 -27q148 -182 148 -415t-148 -415q-19 -24 -49.5 -27
t-53.5 16q-24 19 -27 49.5t17 54.5q114 140 114 322t-114 322q-20 24 -17 54t27 49q22 17 46 17zM944 1589q31 0 54 -23q99 -107 99 -250t-99 -250q-20 -22 -51 -23t-53 19q-22 21 -23 51t20 53q60 65 60 150t-60 150q-21 23 -20 53t23 51q22 19 50 19z" />
</svg>
