<?xml version="1.0" standalone="no"?>
<!DOCTYPE svg PUBLIC "-//W3C//DTD SVG 1.1//EN" "http://www.w3.org/Graphics/SVG/1.1/DTD/svg11.dtd" >
<svg xmlns="http://www.w3.org/2000/svg" xmlns:xlink="http://www.w3.org/1999/xlink" version="1.1" viewBox="-10 0 1775 2048">
   <path fill="currentColor"
d="M1678 434q32 32 54.5 86.5t22.5 100.5v1317q0 46 -31.5 78t-77.5 32h-1536q-46 0 -78 -32t-32 -78v-1829q0 -46 32 -77.5t78 -31.5h1024q46 0 100.5 22.5t86.5 54.5zM1170 155v430h430q-13 -35 -25 -47l-358 -358q-12 -12 -47 -25zM1609 1901v-1170h-475q-46 0 -78 -32
t-32 -78v-475h-878v1755h1463zM878 877q60 0 103 43.5t43 103.5v438q0 60 -43 103.5t-103 43.5h-439q-60 0 -103 -43.5t-43 -103.5v-438q0 -60 43 -103.5t103 -43.5h439zM1440 880q23 10 23 34v658q0 24 -23 34q-1 0 -6 1.5t-8 1.5q-15 0 -26 -11l-303 -304v-102l303 -304
q11 -11 26 -11q3 0 8 1.5t6 1.5z" />
</svg>
