<?xml version="1.0" standalone="no"?>
<!DOCTYPE svg PUBLIC "-//W3C//DTD SVG 1.1//EN" "http://www.w3.org/Graphics/SVG/1.1/DTD/svg11.dtd" >
<svg xmlns="http://www.w3.org/2000/svg" xmlns:xlink="http://www.w3.org/1999/xlink" version="1.1" viewBox="-10 0 1775 2048">
   <path fill="currentColor"
d="M1678 434q32 32 54.5 86.5t22.5 100.5v1317q0 46 -31.5 78t-77.5 32h-1536q-46 0 -78 -32t-32 -78v-1829q0 -46 32 -77.5t78 -31.5h1024q46 0 100.5 22.5t86.5 54.5zM1170 155v430h430q-13 -35 -25 -47l-358 -358q-12 -12 -47 -25zM1609 1901v-1170h-475q-46 0 -78 -32
t-32 -78v-475h-878v1755h1463zM549 877q10 -12 24.5 -14.5t26.5 7.5l58 44q12 10 14.5 24.5t-7.5 26.5l-208 278l208 278q10 12 7.5 26.5t-14.5 24.5l-58 44q-12 10 -26.5 7.5t-24.5 -14.5l-259 -344q-15 -22 0 -44zM1465 1221q15 22 0 44l-258 344q-10 12 -25 14.5
t-27 -7.5l-58 -44q-12 -10 -14.5 -24.5t7.5 -26.5l208 -278l-208 -278q-10 -12 -7.5 -26.5t14.5 -24.5l58 -44q12 -10 27 -7.5t25 14.5zM757 1748q-15 -2 -23.5 -14.5t-6.5 -27.5l158 -950q2 -15 14.5 -23.5t27.5 -6.5l72 12q15 2 23.5 14.5t6.5 27.5l-158 950
q-2 15 -14.5 23.5t-27.5 6.5z" />
</svg>
