<?xml version="1.0" standalone="no"?>
<!DOCTYPE svg PUBLIC "-//W3C//DTD SVG 1.1//EN" "http://www.w3.org/Graphics/SVG/1.1/DTD/svg11.dtd" >
<svg xmlns="http://www.w3.org/2000/svg" xmlns:xlink="http://www.w3.org/1999/xlink" version="1.1" viewBox="-10 0 1686 2048">
   <path fill="currentColor"
d="M1666 1018v226q-116 26 -226 26q-56 119 -137.5 239t-159 207.5t-143 149t-103.5 82.5q-47 27 -91.5 27t-93.5 -30q-32 -19 -69.5 -49t-97 -95.5t-116.5 -147t-123 -210.5t-121 -279t-104.5 -359.5t-80.5 -446.5h323q24 201 62.5 376t84.5 307t105.5 251t117 204.5
t128.5 171.5q195 -195 328 -464q-162 -82 -254.5 -251t-92.5 -381q0 -143 51.5 -255t153 -178t238.5 -66q203 0 312 120.5t109 339.5q0 84 -17 170.5t-49 156.5q-4 1 -11.5 2.5t-30 3t-44 0.5t-50.5 -6t-53 -14.5t-48 -28.5t-39 -46q36 -117 36 -210q0 -99 -33.5 -151
t-90.5 -52q-61 0 -97.5 56.5t-36.5 160.5q0 107 33 194.5t90 145t135 88.5t168 31q68 0 138 -16z" />
</svg>
