<?xml version="1.0" standalone="no"?>
<!DOCTYPE svg PUBLIC "-//W3C//DTD SVG 1.1//EN" "http://www.w3.org/Graphics/SVG/1.1/DTD/svg11.dtd" >
<svg xmlns="http://www.w3.org/2000/svg" xmlns:xlink="http://www.w3.org/1999/xlink" version="1.1" viewBox="-10 0 2361 2048">
   <path fill="currentColor"
d="M2057 951q127 53 205.5 166.5t78.5 252.5q0 123 -62 227.5t-168 165.5t-231 61q-5 0 -13 -0.5t-12 -0.5h-1382h-1h-2h-6q-194 -11 -329 -143.5t-135 -320.5q0 -125 63 -231.5t168 -168.5q-14 -47 -14 -94q0 -131 94 -223.5t227 -92.5q108 0 197 66q86 -176 254 -283.5
t373 -107.5q142 0 271 54.5t222 146.5t148 219t55 266q0 7 -0.5 20.5t-0.5 20.5zM535 1255q0 140 96 221t238 81q83 0 147.5 -27.5t126.5 -86.5q-18 -22 -54 -63.5t-50 -58.5q-76 74 -165 74q-63 0 -107 -38t-44 -100q0 -61 44 -99.5t105 -38.5q51 0 96.5 24t82.5 63
t74.5 85.5t79.5 93.5t88.5 86t111 63t138.5 24q138 0 233.5 -82t95.5 -218q0 -138 -96 -219t-237 -81q-85 0 -150 26t-125 85q13 14 106 123q75 -73 163 -73q59 0 104.5 38t45.5 96q0 65 -42 104.5t-107 39.5q-49 0 -94 -24t-82 -63t-74.5 -85.5t-79.5 -93.5t-89 -86
t-110.5 -63t-135.5 -24q-139 0 -236.5 80.5t-97.5 216.5z" />
</svg>
