<?xml version="1.0" standalone="no"?>
<!DOCTYPE svg PUBLIC "-//W3C//DTD SVG 1.1//EN" "http://www.w3.org/Graphics/SVG/1.1/DTD/svg11.dtd" >
<svg xmlns="http://www.w3.org/2000/svg" xmlns:xlink="http://www.w3.org/1999/xlink" version="1.1" viewBox="-10 0 1994 2048">
   <path fill="currentColor"
d="M1974 1020q0 134 -35.5 262t-99 236t-154.5 199t-199.5 155t-236.5 99t-262 35t-262 -35t-236.5 -99t-199.5 -155t-154.5 -199t-99 -236t-35.5 -262q0 -183 65 -352t177 -297.5t267.5 -215.5t331.5 -113v260q-124 25 -232 91.5t-186 160t-122.5 214.5t-44.5 252
q0 148 58 283.5t156 233.5t233.5 155.5t283.5 57.5t283.5 -57.5t233.5 -155.5t156 -233.5t58 -283.5q0 -131 -44.5 -252t-122.5 -214.5t-186 -160t-232 -91.5v-260q176 26 331.5 113t267.5 215.5t177 297.5t65 352z" />
</svg>
