<?xml version="1.0" standalone="no"?>
<!DOCTYPE svg PUBLIC "-//W3C//DTD SVG 1.1//EN" "http://www.w3.org/Graphics/SVG/1.1/DTD/svg11.dtd" >
<svg xmlns="http://www.w3.org/2000/svg" xmlns:xlink="http://www.w3.org/1999/xlink" version="1.1" viewBox="-11 0 2027 2048">
   <path fill="currentColor"
d="M0 998q9 -248 133 -463.5t348 -363.5h2q2 -1 2.5 -0.5t-0.5 3.5q-9 9 -32 38t-59 87.5t-68 126.5t-51 155t-16 172t45 179.5t123 176.5q43 42 86 65t78.5 27t68.5 -1.5t58 -19t43.5 -26.5t28.5 -24l9 -10q33 -42 50.5 -93.5t19 -100t-3.5 -97.5t-17 -89.5t-23 -72.5
t-20 -49l-9 -18q-11 -29 -34.5 -56.5t-49 -46.5t-49.5 -34t-39 -22l-16 -7l119 -132q29 12 57.5 33t49.5 42t37.5 40.5t25.5 32.5l8 12q1 -34 -8 -72.5t-22 -69.5t-26.5 -57t-23.5 -40l-10 -14l184 -209l182 206q-23 33 -41 72t-27 71t-14 59t-7 42l-1 15q26 -42 71 -83
t77 -60l32 -20l117 132q-31 10 -62 31t-52.5 43t-38.5 42.5t-25 34.5l-9 13q-25 47 -42.5 111t-23.5 136.5t11 147.5t57 131q28 38 62.5 57.5t68.5 21t68 -5.5t63 -21.5t52 -28t36 -24.5l12 -10q69 -61 111 -131.5t55.5 -138.5t11.5 -139t-20.5 -134.5t-42.5 -122.5
t-52 -106.5t-51 -83t-39 -54.5l-16 -19q-17 -16 -5 -14l8 2q59 43 93 69t91 77t91.5 94.5t77 111t67 136.5t42 162t18.5 196q2 148 -30.5 284.5t-94 249.5t-152 206t-201 157t-244 98.5t-279.5 34.5q-141 0 -274.5 -38.5t-245 -107t-204 -166t-155.5 -213t-96 -250.5
t-29 -275z" />
</svg>
