<?xml version="1.0" standalone="no"?>
<!DOCTYPE svg PUBLIC "-//W3C//DTD SVG 1.1//EN" "http://www.w3.org/Graphics/SVG/1.1/DTD/svg11.dtd" >
<svg xmlns="http://www.w3.org/2000/svg" xmlns:xlink="http://www.w3.org/1999/xlink" version="1.1" viewBox="-10 0 1775 2048">
   <path fill="currentColor"
d="M665 1494q0 76 -106 76q-122 0 -122 -72t112 -72q116 0 116 68zM624 962q0 98 -85 98q-88 0 -88 -96q0 -104 88 -104q41 0 63 29.5t22 72.5zM814 876v-142q-90 32 -155 32q-57 -32 -125 -32q-98 0 -165.5 65t-67.5 163q0 58 33 117t84 77v2q-43 19 -43 98q0 61 47 88v4
q-129 41 -129 158q0 52 23 90t62 58t82 29t92 9q256 0 256 -214q0 -33 -12 -59.5t-30.5 -43.5t-46 -30t-53 -20t-57.5 -13q-31 -5 -59 -23.5t-28 -44.5q0 -28 14 -41.5t42 -18.5q88 -17 139.5 -80t51.5 -154q0 -29 -11 -58q4 -2 25 -7t31 -9zM881 1356h157q-3 -47 -3 -94
v-442q0 -41 3 -80h-157q4 35 4 82v448q0 47 -4 86zM1463 1338v-140q-35 24 -78 24q-60 0 -60 -92v-258h59q10 0 30 1t31 1v-134h-120q0 -9 -0.5 -28t-0.5 -30.5t1 -27.5t3 -30h-160q5 36 5 62v54h-69v134q4 0 18.5 -2t23.5 -2q4 0 13 1t14 1v2h-3v248q0 42 3 73.5t13 65
t28 55t49.5 35t75.5 13.5q75 0 124 -26zM1056 530q0 -41 -27.5 -72.5t-68.5 -31.5t-69 31t-28 73t28 72t69 30q40 0 68 -30.5t28 -71.5zM1755 476v1096q0 90 -44 166t-119.5 120t-165.5 44h-1097q-90 0 -165.5 -44t-119.5 -120t-44 -166v-1096q0 -90 44 -166t119.5 -120
t165.5 -44h1097q90 0 165.5 44t119.5 120t44 166z" />
</svg>
