<?xml version="1.0" standalone="no"?>
<!DOCTYPE svg PUBLIC "-//W3C//DTD SVG 1.1//EN" "http://www.w3.org/Graphics/SVG/1.1/DTD/svg11.dtd" >
<svg xmlns="http://www.w3.org/2000/svg" xmlns:xlink="http://www.w3.org/1999/xlink" version="1.1" viewBox="-10 0 1353 2048">
   <path fill="currentColor"
d="M897 653q0 91 -64.5 156t-155.5 65q-68 0 -127 -40q-72 79 -132 167q-281 423 -230 981q2 25 -14 44.5t-40 21.5h-6q-23 0 -40 -15.5t-19 -38.5q-16 -179 0 -345.5t58.5 -299t90 -232.5t106.5 -187q70 -106 150 -189q-18 -37 -18 -88q0 -91 64.5 -155.5t156.5 -64.5
q91 0 155.5 64.5t64.5 155.5zM1333 666q0 180 -89.5 333.5t-243 242.5t-334.5 89q-71 0 -149 -16q-24 -6 -37 -27t-8 -45q6 -24 26.5 -37t44.5 -8q60 15 123 15q111 0 212.5 -43.5t175 -116.5t117 -174.5t43.5 -212.5q0 -149 -73.5 -275t-199.5 -199.5t-275 -73.5
q-111 0 -212.5 43.5t-174.5 117t-116.5 175t-43.5 212.5q0 131 59 249q11 23 4 46t-29 34t-45.5 3.5t-34.5 -29.5q-73 -141 -73 -303q0 -181 89.5 -334.5t242.5 -242.5t334 -89t334.5 89t243 242.5t89.5 334.5z" />
</svg>
