<?xml version="1.0" standalone="no"?>
<!DOCTYPE svg PUBLIC "-//W3C//DTD SVG 1.1//EN" "http://www.w3.org/Graphics/SVG/1.1/DTD/svg11.dtd" >
<svg xmlns="http://www.w3.org/2000/svg" xmlns:xlink="http://www.w3.org/1999/xlink" version="1.1" viewBox="-10 0 2361 2048">
   <path fill="currentColor"
d="M663 526q0 -47 -28.5 -75.5t-75.5 -28.5q-49 0 -87 29.5t-38 74.5t38 74.5t87 29.5q47 0 75.5 -28.5t28.5 -75.5zM1512 1106q0 -32 -29.5 -57t-74.5 -25q-31 0 -56.5 26t-25.5 56q0 32 25.5 58t56.5 26q46 0 75 -25.5t29 -58.5zM1242 526q0 -47 -28 -75.5t-75 -28.5
q-49 0 -86.5 29.5t-37.5 74.5t37.5 74.5t86.5 29.5q47 0 75 -28.5t28 -75.5zM1968 1106q0 -32 -29.5 -57t-74.5 -25q-31 0 -56.5 26t-25.5 56q0 32 25.5 58t56.5 26q45 0 74.5 -25.5t29.5 -58.5zM1664 652q-35 -4 -80 -4q-145 0 -275.5 52t-224.5 139.5t-149 208.5t-55 254
q0 90 26 174q-52 4 -77 4t-51.5 -1.5t-46 -4t-49 -7.5t-45 -8t-50 -10.5t-49.5 -10.5l-289 146l82 -250q-159 -111 -245 -252t-86 -308q0 -116 42 -224t119 -194t179 -150.5t228 -100t261 -35.5q201 0 380 75.5t299.5 209t155.5 297.5zM2341 1294q0 132 -79 254.5
t-212 221.5l63 208l-227 -126q-54 14 -85.5 21.5t-78.5 14t-85 6.5q-145 0 -276 -47.5t-224.5 -128t-148.5 -191.5t-55 -233.5t55 -233.5t148.5 -191.5t224.5 -128.5t276 -48q138 0 267 48t225 128.5t154 192t58 233.5z" />
</svg>
