<?xml version="1.0" standalone="no"?>
<!DOCTYPE svg PUBLIC "-//W3C//DTD SVG 1.1//EN" "http://www.w3.org/Graphics/SVG/1.1/DTD/svg11.dtd" >
<svg xmlns="http://www.w3.org/2000/svg" xmlns:xlink="http://www.w3.org/1999/xlink" version="1.1" viewBox="-10 0 1926 2048">
   <path fill="currentColor"
d="M1851 1902q-50 0 -151.5 -4t-152.5 -4t-151 4t-150 4q-27 0 -42.5 -23.5t-15.5 -52.5q0 -35 19.5 -52.5t44.5 -19.5t58.5 -7t51.5 -17q38 -24 38 -160l-1 -448q0 -24 -1 -36q-12 -4 -58 -4h-771q-46 0 -58 4q-1 12 -1 36l-2 424q0 162 43 188q18 11 54.5 14.5t65.5 4
t51.5 17t22.5 52.5q0 30 -14.5 55t-41.5 25q-53 0 -159.5 -4t-158.5 -4q-49 0 -146 4t-145 4q-26 0 -40.5 -24t-14.5 -52q0 -34 18 -51t41 -19.5t54 -8t48 -17.5q38 -26 38 -164l-1 -66v-928q0 -1 0.5 -30t0 -42.5t-1.5 -43.5t-4 -48.5t-8 -41t-13 -36.5t-18 -20
q-18 -11 -51.5 -13.5t-60 -2.5t-47 -16t-20.5 -52q0 -29 14 -54.5t41 -25.5q53 0 158 4t158 4q48 0 144.5 -4t144.5 -4q28 0 43 25.5t15 54.5q0 34 -19.5 50t-44 17t-57 5t-49.5 14q-40 24 -40 182l2 366q0 24 1 38q15 2 44 2h799q29 0 44 -2q1 -14 1 -38l1 -366
q0 -158 -40 -182q-18 -10 -50.5 -14t-57.5 -5t-44.5 -17t-19.5 -50q0 -29 15 -54.5t43 -25.5q50 0 150 4t151 4q49 0 147.5 -4t147.5 -4q28 0 42.5 25t14.5 55q0 35 -20 50.5t-45.5 16t-58.5 4t-51 13.5q-40 26 -40 184l2 1078q0 137 38 160q18 12 52.5 16t61 5.5t47.5 17.5
t21 51q0 29 -14 54.5t-41 25.5z" />
</svg>
