<?xml version="1.0" standalone="no"?>
<!DOCTYPE svg PUBLIC "-//W3C//DTD SVG 1.1//EN" "http://www.w3.org/Graphics/SVG/1.1/DTD/svg11.dtd" >
<svg xmlns="http://www.w3.org/2000/svg" xmlns:xlink="http://www.w3.org/1999/xlink" version="1.1" viewBox="-10 0 1775 2048">
   <path fill="currentColor"
d="M402 1536v146h-402v-146h402zM805 1390q30 0 51.5 21.5t21.5 52.5v292q0 30 -21.5 51t-51.5 21h-293q-30 0 -51.5 -21t-21.5 -51v-292q0 -31 21.5 -52.5t51.5 -21.5h293zM987 952v146h-987v-146h987zM256 366v146h-256v-146h256zM1755 1536v146h-841v-146h841zM658 220
q30 0 51.5 21t21.5 51v294q0 30 -21.5 51t-51.5 21h-292q-30 0 -51.5 -21t-21.5 -51v-294q0 -30 21.5 -51t51.5 -21h292zM1390 804q30 0 51.5 22t21.5 52v292q0 30 -21.5 52t-51.5 22h-293q-30 0 -51.5 -22t-21.5 -52v-292q0 -30 21.5 -52t51.5 -22h293zM1755 952v146h-256
v-146h256zM1755 366v146h-987v-146h987z" />
</svg>
