<?xml version="1.0" standalone="no"?>
<!DOCTYPE svg PUBLIC "-//W3C//DTD SVG 1.1//EN" "http://www.w3.org/Graphics/SVG/1.1/DTD/svg11.dtd" >
<svg xmlns="http://www.w3.org/2000/svg" xmlns:xlink="http://www.w3.org/1999/xlink" version="1.1" viewBox="-10 0 1775 2048">
   <path fill="currentColor"
d="M1463 1366q0 -102 -71.5 -173t-172.5 -71q-96 0 -165 66l-276 -138q0 -3 1 -8t1.5 -9.5t0.5 -8.5t-0.5 -8t-1.5 -9.5t-1 -8.5l276 -138q69 66 165 66q101 0 172.5 -71t71.5 -173q0 -100 -71.5 -172t-172.5 -72t-172.5 72t-71.5 172q0 8 2 26l-275 138q-70 -66 -166 -66
q-101 0 -172 71.5t-71 173t71 172.5t172 71q96 0 166 -66l275 138q-2 18 -2 26q0 100 71.5 172t172.5 72t172.5 -72t71.5 -172zM1755 476v1096q0 90 -44 166t-119.5 120t-165.5 44h-1097q-90 0 -165.5 -44t-119.5 -120t-44 -166v-1096q0 -90 44 -166t119.5 -120t165.5 -44
h1097q90 0 165.5 44t119.5 120t44 166z" />
</svg>
