<?xml version="1.0" standalone="no"?>
<!DOCTYPE svg PUBLIC "-//W3C//DTD SVG 1.1//EN" "http://www.w3.org/Graphics/SVG/1.1/DTD/svg11.dtd" >
<svg xmlns="http://www.w3.org/2000/svg" xmlns:xlink="http://www.w3.org/1999/xlink" version="1.1" viewBox="-11 0 2032 2048">
   <path fill="currentColor"
d="M979 845q0 96 -72.5 163.5t-174.5 67.5t-174.5 -67.5t-72.5 -163.5q0 -95 72.5 -163t174.5 -68t174.5 68t72.5 163zM1552 845q0 96 -71.5 163.5t-174.5 67.5q-102 0 -174.5 -67.5t-72.5 -163.5q0 -95 72.5 -163t174.5 -68q103 0 174.5 67.5t71.5 163.5zM1810 1051v-762
q0 -99 -37 -141t-127 -42h-1271q-94 0 -128 39t-34 144v769q44 23 88 41.5t87.5 31t79.5 21.5t79 13.5t69.5 7t68 2.5t58 -0.5t55.5 -2t45 -2.5q77 -1 108 31q7 7 12 10q32 31 69 58q4 -50 35.5 -75.5t99.5 -23.5q3 1 41 2.5t50 2t52.5 1t60.5 -1t62 -5t70 -9.5t70.5 -15.5
t77.5 -22.5t77 -31t82 -40zM1996 1045q-61 75 -168.5 151t-256.5 137q93 317 -20 522q-71 128 -198 174q-114 41 -208 -3q-95 -45 -109 -154q-3 -20 -2 -43l-2 -371v-2q-7 -1 -15.5 -3t-19.5 -5t-19 -5l-2 386q4 127 -89 185q-85 53 -200 24q-128 -33 -207 -150
q-123 -181 -62 -471q9 -41 21 -84q-149 -61 -256.5 -137t-168.5 -151q-18 -26 -13.5 -51.5t25.5 -31.5t52 12q4 3 12.5 9t12.5 9v-794q0 -82 54 -140t130 -58h1437q77 0 130.5 58t53.5 140v794l24 -18q24 -16 41.5 -14t27.5 13.5t9.5 32t-14.5 39.5z" />
</svg>
