<?xml version="1.0" standalone="no"?>
<!DOCTYPE svg PUBLIC "-//W3C//DTD SVG 1.1//EN" "http://www.w3.org/Graphics/SVG/1.1/DTD/svg11.dtd" >
<svg xmlns="http://www.w3.org/2000/svg" xmlns:xlink="http://www.w3.org/1999/xlink" version="1.1" viewBox="-10 0 1582 2048">
   <path fill="currentColor"
d="M786 1508v145q0 47 -1 123q0 154 -1 185t-4 41q-14 35 -59 45q-40 6 -124.5 -17t-163.5 -60.5t-105 -67.5q-16 -19 -19 -41q-2 -14 4 -30q4 -12 38 -53.5t208 -246.5q2 -1 69 -80q17 -22 44.5 -28.5t56.5 4.5q28 11 42.5 32.5t14.5 48.5zM616 1221q-2 29 -18 50.5
t-41 29.5l-137 45q-153 48 -221.5 69.5t-86 26t-26.5 4.5q-40 -2 -62 -41q-15 -29 -19 -86q-10 -86 0 -190t35 -142q24 -39 64 -37q10 0 42 12t187 75q81 34 133 55l96 39q25 10 40 34.5t14 55.5zM1560 1561q-6 39 -53.5 112.5t-108 137.5t-97.5 79q-43 16 -72 -8
q-11 -8 -44 -59t-167 -269l-53 -88q-16 -25 -13.5 -53t22.5 -52q18 -23 44 -31t51 1q1 1 136 46q237 78 278.5 92t51.5 22q32 24 25 70zM792 838q1 33 -3.5 59t-10.5 39.5t-17.5 23.5t-16.5 12t-14 6q-66 20 -130 -81l-432 -684q-10 -40 22 -71q30 -32 133 -69.5
t210.5 -58.5t150.5 -10q45 10 56 51q3 20 24.5 345.5t27.5 437.5zM1549 962q3 44 -30 67q-11 7 -67 21.5t-309 76.5q-81 18 -104 27q0 -1 1 -3q-26 6 -52.5 -5t-42.5 -36q-17 -26 -16.5 -52.5t16.5 -46.5q1 -3 86 -117q141 -193 170 -232t40 -45q34 -24 75 -3q35 16 89.5 83
t96.5 143t47 118v4z" />
</svg>
