<?xml version="1.0" standalone="no"?>
<!DOCTYPE svg PUBLIC "-//W3C//DTD SVG 1.1//EN" "http://www.w3.org/Graphics/SVG/1.1/DTD/svg11.dtd" >
<svg xmlns="http://www.w3.org/2000/svg" xmlns:xlink="http://www.w3.org/1999/xlink" version="1.1" viewBox="-10 0 2265 2048">
   <path fill="currentColor"
d="M1122 1821q-23 0 -106 -84t-83 -107q0 -37 71 -62t118 -25t118.5 25t71.5 62q0 23 -83.5 107t-106.5 84zM1431 1511q-4 0 -32 -18t-65 -39t-95.5 -39t-116.5 -18t-116.5 18t-95 39t-64.5 39t-32 18q-20 0 -106.5 -86t-86.5 -106q0 -15 11 -26q89 -88 224 -138t266 -50
t266.5 50t224.5 138q11 11 11 26q0 20 -86.5 106t-106.5 86zM1743 1201q-12 0 -26 -10q-103 -80 -185 -127t-186.5 -76.5t-223.5 -29.5q-97 0 -194.5 25t-170 60.5t-130 71.5t-90.5 61t-35 25q-20 0 -105.5 -86t-85.5 -106q0 -15 11 -26q151 -151 365.5 -234t434.5 -83
t434.5 83t365.5 234q12 12 12 26q0 20 -85.5 106t-105.5 86zM2053 891q-14 0 -26 -10q-205 -180 -425 -271t-480 -91t-480 91t-425 271q-12 10 -25 10q-20 0 -106 -86t-86 -106q0 -15 11 -26q214 -213 508.5 -329.5t602.5 -116.5t602.5 116.5t508.5 329.5q12 12 12 26
q0 20 -86 106t-106 86z" />
</svg>
