<?xml version="1.0" standalone="no"?>
<!DOCTYPE svg PUBLIC "-//W3C//DTD SVG 1.1//EN" "http://www.w3.org/Graphics/SVG/1.1/DTD/svg11.dtd" >
<svg xmlns="http://www.w3.org/2000/svg" xmlns:xlink="http://www.w3.org/1999/xlink" version="1.1" viewBox="-11 0 2028 2048">
   <path fill="currentColor"
d="M463 768q37 0 59 29q306 417 414 885h-510q-144 -502 -419 -856q-13 -18 -2.5 -38t32.5 -20h426zM1102 1176q-56 229 -143 449q-90 -355 -293 -679q47 -258 51 -513q241 388 385 743zM1215 365q268 369 439 798t211 885h-515q-11 -178 -50.5 -362.5t-97 -350.5t-138 -340
t-163.5 -323.5t-183 -306.5h497zM2007 1024q0 236 -30 477t-85 451q-75 -640 -411 -1238q-28 -344 -121 -668q-4 -18 7 -32t29 -14h410q24 0 44 14.5t26 37.5q131 465 131 972z" />
</svg>
