<?xml version="1.0" standalone="no"?>
<!DOCTYPE svg PUBLIC "-//W3C//DTD SVG 1.1//EN" "http://www.w3.org/Graphics/SVG/1.1/DTD/svg11.dtd" >
<svg xmlns="http://www.w3.org/2000/svg" xmlns:xlink="http://www.w3.org/1999/xlink" version="1.1" viewBox="-10 0 2653 2048">
   <path fill="currentColor"
d="M2257 1132h-158q17 -44 76 -206q0 1 4 -10t10.5 -29t10.5 -29l14 62zM607 1058l-66 -338q-12 -62 -86 -62h-306l-3 16q355 91 461 384zM811 658l-185 500l-19 -100q-30 -80 -97.5 -148t-149.5 -102l154 582h200l299 -732h-202zM970 1392h190l119 -734h-190zM1848 676
q-79 -30 -170 -30q-140 0 -229.5 67.5t-90.5 174.5q0 38 14.5 70t41.5 56.5t52 40.5t57 31q55 26 77 47t22 45q0 35 -34 53.5t-79 18.5q-57 0 -95 -8.5t-84 -29.5l-25 -14l-26 166q36 16 92.5 27t118.5 11q149 1 239 -67t92 -183q0 -62 -39 -110.5t-121 -87.5
q-56 -28 -81.5 -48.5t-25.5 -43.5q0 -26 28.5 -45t80.5 -19q80 -1 142 28l17 10zM2334 658h-147q-37 0 -61 14t-38 48l-281 672h199l40 -110h242q6 26 23 110h176zM2633 292v1464q0 60 -43 103t-103 43h-2341q-60 0 -103 -43t-43 -103v-1464q0 -60 43 -103t103 -43h2341
q60 0 103 43t43 103z" />
</svg>
