<?xml version="1.0" standalone="no"?>
<!DOCTYPE svg PUBLIC "-//W3C//DTD SVG 1.1//EN" "http://www.w3.org/Graphics/SVG/1.1/DTD/svg11.dtd" >
<svg xmlns="http://www.w3.org/2000/svg" xmlns:xlink="http://www.w3.org/1999/xlink" version="1.1" viewBox="-10 0 2653 2048">
   <path fill="currentColor"
d="M1279 390q-146 -98 -321 -98q-118 0 -226 46.5t-186 124.5t-124 185.5t-46 225.5t46 225.5t124 185.5t186 123.5t226 45.5q175 0 321 -96q-112 -92 -171 -222t-58.5 -262.5t59 -262.5t170.5 -221zM1317 418q-108 85 -165 208t-57.5 248.5t57 248.5t165.5 207
q108 -84 165.5 -207t57 -248.5t-57.5 -248.5t-165 -208zM1354 390q111 91 170 221t59.5 263t-58.5 263t-171 221q146 96 321 96q118 0 226 -45.5t186 -123.5t124 -185.5t46 -225.5t-46 -225.5t-124 -185.5t-186 -124.5t-226 -46.5q-175 0 -321 98zM2201 1214h8v-2h-19v2h8
v20h3v-20zM2234 1234h5v-22h-6l-7 14l-7 -14h-5v22h3v-16l7 14h5l5 -14v16zM2225 1738v2h-2h-4v-4h4h2v2zM2225 1748h4l-5 -6q1 0 2 -1l1 -1l2 -2q0 -2 -2 -4l-1.5 -1t-2.5 -1h-7v16h3v-6h2zM783 1669.5q0 -21.5 12.5 -35.5t34.5 -14q20 0 32.5 14.5t12.5 35.5t-12.5 34.5
t-32.5 13.5q-22 0 -34.5 -13.5t-12.5 -35zM1323 1620q35 0 40 36h-80q2 -16 12.5 -26t27.5 -10zM1730 1669.5q0 -20.5 12.5 -35t33.5 -14.5t34 14.5t13 35.5t-12.5 34.5t-34.5 13.5q-21 0 -33.5 -14t-12.5 -34.5zM2041 1669.5q0 -20.5 13 -35t34 -14.5q20 0 33.5 14.5
t13.5 35.5t-13.5 34.5t-33.5 13.5q-21 0 -34 -14t-13 -34.5zM2222 1752q-1 0 -5 -2q-1 0 -3 -2h-1l-2 -2q-1 -2 -1 -5t1 -5q0 -2 3 -4q0 -1 1 -1.5t2 -0.5q2 -2 5 -2t4 2q1 0 2.5 0.5t2.5 1t1.5 2.5l0.5 2q0 1 0.5 2t0.5 2t-0.5 2.5t-0.5 3.5q-1 0 -1 1t-1 1q-2 2 -5 2
q-2 2 -4 2zM685 1748h34v-98q0 -27 -16.5 -44t-45.5 -18q-36 0 -54 28q-16 -28 -51 -28q-27 0 -45 24v-18h-34v154h34v-86q0 -20 10 -31t28 -11q34 0 34 42v86h34v-86q0 -20 10 -31t27 -11q35 0 35 42v86zM874 1748h33v-78v-76h-33v18q-18 -24 -49 -24q-32 0 -54 23
t-22 58.5t22 58t54 22.5q33 0 49 -22v20zM1078 1700q0 -37 -54 -46l-16 -2q-26 -3 -26 -16q0 -16 28 -16q27 0 49 12l14 -28q-26 -16 -63 -16q-29 0 -46.5 13.5t-17.5 36.5q0 38 54 46l15 2q27 4 27 16q0 20 -35 20q-30 0 -52 -16l-14 26q26 18 66 18q33 0 52 -13.5
t19 -36.5zM1226 1740l-9 -30q-13 8 -30 8q-21 0 -21 -24v-70h55v-30h-55v-48h-35v48h-32v30h32v70q0 56 54 56q25 0 41 -10zM1325 1588q-34 0 -55.5 23t-21.5 59t22 58t57 22q39 0 63 -20l-16 -26q-22 18 -45 18q-39 0 -47 -38h116v-14q0 -36 -20.5 -59t-52.5 -23z
M1506 1588q-27 0 -40 24v-18h-34v154h34v-88q0 -40 33 -40q9 0 21 6l10 -32q-13 -6 -24 -6zM1541 1669.5q0 35.5 22.5 58t59.5 22.5q34 0 55 -18l-16 -26q-21 14 -40 12q-21 0 -34 -13t-13 -35.5t13 -36t34 -13.5q20 0 40 14l16 -28q-22 -18 -55 -18q-37 0 -59.5 23
t-22.5 58.5zM1821 1748h34v-78v-76h-34v18q-16 -24 -48 -24q-33 0 -55.5 23.5t-22.5 58t22.5 57.5t55.5 23t48 -22v20zM1973 1588q-27 0 -40 24v-18h-34v154h34v-88q0 -40 33 -40q8 0 20 6l11 -32q-12 -6 -24 -6zM2133 1748h33v-78v-140h-33v82q-16 -24 -50 -24
q-32 0 -54 23.5t-22 58t22 57.5t54 23q35 0 50 -22v20zM2222 1724l-2.5 1t-3.5 1q-2 0 -5 4q-3 1 -3 4q-1 2 -1 6t1 6q0 3 3 4q3 4 5 5t6 1q5 0 7 -2l4 -4l4 -4q1 -2 1 -6t-1 -6l-4 -4l-4 -4q-1 0 -3.5 -1t-3.5 -1zM2633 292v1464q0 60 -43 103t-103 43h-2341
q-60 0 -103 -43t-43 -103v-1464q0 -60 43 -103t103 -43h2341q60 0 103 43t43 103z" />
</svg>
