<?xml version="1.0" standalone="no"?>
<!DOCTYPE svg PUBLIC "-//W3C//DTD SVG 1.1//EN" "http://www.w3.org/Graphics/SVG/1.1/DTD/svg11.dtd" >
<svg xmlns="http://www.w3.org/2000/svg" xmlns:xlink="http://www.w3.org/1999/xlink" version="1.1" viewBox="-10 0 2653 2048">
   <path fill="currentColor"
d="M358 888q0 59 -41 96q-32 30 -102 30h-20v-252h20q70 0 102 32q41 36 41 94zM2387 814q0 60 -73 60h-21v-116h22q72 0 72 56zM434 888q0 -84 -56.5 -137t-147.5 -53h-109v380h109q85 0 136 -44q68 -58 68 -146zM469 1078h74v-380h-74v380zM834 962q0 -45 -22.5 -70
t-86.5 -48q-34 -12 -46 -22.5t-12 -25.5q0 -19 15.5 -30.5t39.5 -11.5q34 0 61 30l39 -50q-46 -42 -112 -42q-50 0 -84.5 31t-34.5 77q0 40 21 63.5t73 42.5q43 14 51 20q22 14 22 40q0 23 -16 38.5t-41 15.5q-56 0 -82 -50l-48 44q50 74 132 74q58 0 94.5 -35t36.5 -91z
M1152 1066v-88q-42 42 -89 42q-56 0 -92 -37t-36 -95q0 -55 36 -93.5t88 -38.5q49 0 93 44v-88q-46 -22 -91 -22q-84 0 -143.5 57.5t-59.5 140.5q0 84 58 141t143 57q50 0 93 -20zM2560 1756v-602q-74 46 -164.5 95.5t-271.5 133.5t-376.5 157.5t-477 153t-576.5 134.5h1793
q30 0 51.5 -21t21.5 -51zM1587 890.5q0 -85.5 -60.5 -146t-145.5 -60.5t-146 60.5t-61 146t61 146.5t146 61t145.5 -61t60.5 -146.5zM1761 1088l165 -390h-81l-103 256l-102 -256h-81l162 390h40zM1959 1078h210v-64h-136v-104h132v-64h-132v-84h136v-64h-210v380z
M2406 1078h91l-120 -160q42 -9 64.5 -36.5t22.5 -71.5q0 -53 -35 -82.5t-100 -29.5h-111v380h75v-152h10zM2633 300v1448q0 64 -44.5 109t-106.5 45h-2331q-62 0 -106.5 -45t-44.5 -109v-1448q0 -64 44.5 -109t106.5 -45h2331q62 0 106.5 45t44.5 109z" />
</svg>
