<?xml version="1.0" standalone="no"?>
<!DOCTYPE svg PUBLIC "-//W3C//DTD SVG 1.1//EN" "http://www.w3.org/Graphics/SVG/1.1/DTD/svg11.dtd" >
<svg xmlns="http://www.w3.org/2000/svg" xmlns:xlink="http://www.w3.org/1999/xlink" version="1.1" viewBox="-10 0 2653 2048">
   <path fill="currentColor"
d="M136 780h102l-52 -124zM846 1380l84 -90l-80 -90h-186v56h162v62h-162v62h182zM1026 1292l113 126v-248zM1355 1238q0 -38 -45 -38h-96v78h95q46 0 46 -40zM1686 1234q0 -34 -48 -34h-94v70h93q49 0 49 -36zM1368 700q0 -32 -48 -32h-94v68h93q49 0 49 -36zM1893 780h101
l-50 -124zM799 602v310h-76v-242l-107 242h-65l-108 -242v242h-150l-29 -68h-154l-29 68h-80l133 -310h109l126 294v-294h121l97 210l88 -210h124zM1434 1238q0 22 -6.5 39.5t-15.5 29t-25.5 19t-30.5 11t-35.5 5t-35.5 1.5t-37.5 -0.5t-33.5 -0.5v104h-144l-92 -104
l-95 104h-292v-310h297l91 102l94 -102h237q124 0 124 102zM1102 848v64h-248v-310h248v66h-174v56h169v62h-169v62h174zM2633 1486v262q0 63 -44.5 108.5t-106.5 45.5h-2331q-62 0 -106.5 -45.5t-44.5 -108.5v-774h127l28 -70h63l29 70h249v-52l22 52h129l23 -54v54h618
v-114h11q12 0 12 16v98h319v-26q26 13 62.5 20t60 7.5t71 -0.5t59.5 -1l29 -70h64l29 70h259v-66l39 66h208v-432h-206v50l-28 -50h-212v50l-26 -50h-285q-79 0 -124 24v-24h-197v24q-27 -24 -83 -24h-718l-49 110l-49 -110h-227v50l-25 -50h-193l-89 204v-446
q0 -63 44.5 -108.5t106.5 -45.5h2331q62 0 106.5 45.5t44.5 108.5v774h-137q-59 0 -93 26v-26h-202q-63 0 -89 26v-26h-361v26q-36 -26 -100 -26h-238v26q-26 -26 -104 -26h-268l-62 66l-57 -66h-399v432h392l63 -68l60 68h241v-102h24q68 0 103 -14v116h199v-112h9
q9 0 11 1.5t2 10.5v100h605q66 0 101 -28v28h192q67 0 108 -20zM1767 1220q0 26 -14 48.5t-39 33.5q29 10 39 29.5t10 52.5v62h-74v-52q0 -38 -14 -50t-52 -12h-79v114h-74v-310h176q25 0 44 3t38 11t29 25.5t10 44.5zM1450 686q0 27 -14 50t-38 34q30 10 39.5 29t9.5 53v60
h-74q0 -10 0.5 -26.5t0 -24.5t-1.5 -20t-5.5 -17.5t-11.5 -12t-19.5 -9t-29.5 -2.5h-80v112h-73v-310l175 2q26 0 44.5 2.5t38 10.5t29.5 25t10 44zM2055 1382v64h-247v-310h247v64h-173v56h169v62h-169v62zM1568 602v310h-75v-310h75zM2360 1348q0 98 -117 98h-144v-66h144
q39 0 39 -30q0 -17 -19.5 -23t-48 -6.5t-56.5 -4.5t-47.5 -25.5t-19.5 -62.5q0 -44 30 -68t76 -24h148v66h-136q-41 0 -41 28q0 18 20 23t48 4.5t56 3t48 24.5t20 63zM2633 1290v116q-27 40 -100 40h-143v-66h143q37 0 37 -30q0 -17 -19.5 -22.5t-48 -6t-56.5 -4.5
t-47.5 -26t-19.5 -63q0 -44 30.5 -68t76.5 -24h147v66h-135q-19 0 -30 5.5t-11 22.5q0 18 21 23.5t49 3.5t59 5.5t47 27.5zM2445 604v308h-106l-139 -232v232h-151l-30 -68h-153l-28 68h-86q-147 0 -147 -152q0 -78 37 -118t115 -40h72v68q-9 -1 -28.5 -1.5t-28.5 -0.5
t-24.5 1t-23 4t-17.5 9.5t-15 16.5t-8.5 24.5t-3.5 34.5q0 43 15.5 65.5t56.5 22.5h33l105 -242h111l125 292v-292h113l130 214v-214h76z" />
</svg>
