<?xml version="1.0" standalone="no"?>
<!DOCTYPE svg PUBLIC "-//W3C//DTD SVG 1.1//EN" "http://www.w3.org/Graphics/SVG/1.1/DTD/svg11.dtd" >
<svg xmlns="http://www.w3.org/2000/svg" xmlns:xlink="http://www.w3.org/1999/xlink" version="1.1" viewBox="-10 0 2653 2048">
   <path fill="currentColor"
d="M851 1036q0 41 -29 69.5t-71 28.5q-33 0 -53 -18t-20 -50q0 -43 28.5 -72.5t70.5 -29.5q32 0 53 19.5t21 52.5zM1749 866q0 48 -25.5 65t-75.5 17h-37l20 -122q2 -12 15 -12h20q18 0 30 1t25.5 6t20.5 16t7 29zM2150 1036q0 41 -29 69.5t-71 28.5q-33 0 -53.5 -18
t-20.5 -50q0 -43 28.5 -72.5t70.5 -29.5q33 0 54 19.5t21 52.5zM586 840q0 -67 -44 -97.5t-115 -30.5h-182q-9 0 -16 6t-8 16l-75 466q-1 7 3.5 12.5t11.5 5.5h87q10 0 17 -6t8 -16l21 -126q1 -9 8 -14.5t17.5 -7t19.5 -1.5t21 1.5t16 1.5q98 0 154 -56t56 -154zM939 1196
l47 -298q1 -6 -3.5 -12t-11.5 -6h-86q-17 0 -20 38q-18 -27 -44 -36.5t-64 -9.5q-83 0 -140.5 61.5t-57.5 144.5q0 68 39.5 108t105.5 40q32 0 66 -13t55 -37q-4 14 -4 24q0 18 14 18h79q10 0 16.5 -6t8.5 -16zM1450 896q0 -6 -4.5 -11t-10.5 -5h-88q-12 0 -20 12l-121 178
l-51 -172q-2 -7 -9.5 -12.5t-15.5 -5.5h-85q-6 0 -10.5 5t-4.5 11q0 3 22 68t48 140.5t27 79.5q-94 123 -94 138q0 6 4.5 10t10.5 4h88q12 0 21 -12l291 -420q2 -2 2 -8zM1885 840q0 -67 -44 -97.5t-115 -30.5h-182q-10 0 -17 6t-8 16l-74 466q-1 7 3 12.5t11 5.5h94
q14 0 18 -14l21 -134q1 -9 8 -14.5t17.5 -7t19.5 -1.5t21 1.5t16 1.5q98 0 154.5 -56t56.5 -154zM2238 1196l47 -298q1 -6 -3.5 -12t-11.5 -6h-87q-17 0 -20 38q-17 -27 -43 -36.5t-65 -9.5q-83 0 -140.5 61.5t-57.5 144.5q0 68 39.5 108t105.5 40q33 0 67.5 -13t53.5 -37
q0 2 -2 11t-2 13q0 18 15 18h79q10 0 16.5 -6t8.5 -16zM2487 730v-2q0 -6 -4.5 -11t-10.5 -5h-85q-12 0 -14 12l-75 476l-1 2q0 7 4.5 11.5t11.5 4.5h76q9 0 16 -6t8 -16zM448 882q-6 40 -30 53t-68 13h-38l19 -122q2 -12 15 -12h22q45 0 66 13t14 55zM2633 292v1464
q0 60 -43 103t-103 43h-2341q-60 0 -103 -43t-43 -103v-1464q0 -60 43 -103t103 -43h2341q60 0 103 43t43 103z" />
</svg>
