<?xml version="1.0" standalone="no"?>
<!DOCTYPE svg PUBLIC "-//W3C//DTD SVG 1.1//EN" "http://www.w3.org/Graphics/SVG/1.1/DTD/svg11.dtd" >
<svg xmlns="http://www.w3.org/2000/svg" xmlns:xlink="http://www.w3.org/1999/xlink" version="1.1" viewBox="-10 0 2653 2048">
   <path fill="currentColor"
d="M1825 1032q0 78 -24 122q-22 40 -59 40q-25 0 -47 -12v-256q33 -34 65 -34q65 0 65 140zM2326 990h-126q4 -57 19.5 -84.5t44.5 -27.5q59 0 62 112zM544 1146q0 -68 -37.5 -106t-115.5 -66q-41 -14 -59.5 -26.5t-18.5 -29.5q0 -28 44 -28q65 0 141 36l21 -128
q-75 -36 -170 -36q-91 0 -141 44q-55 44 -55 124q0 67 37 104.5t114 63.5q45 17 62.5 30t17.5 30q0 36 -55 36q-32 0 -79.5 -14t-82.5 -34l-21 128q33 20 85 34t107 14q92 0 148 -44q58 -46 58 -132zM881 900l22 -128h-110v-154l-147 24l-21 130l-52 10l-20 118h71v250
q0 96 50 136q44 36 127 36q41 0 90 -14v-134q-40 8 -50 8q-48 0 -48 -58v-224h88zM1242 928v-158q-22 -4 -32 -4q-36 0 -63 18t-38 52l-12 -64h-150v538h172v-348q30 -36 94 -36q13 0 29 2zM1285 1310h171v-538h-171v538zM1995 1026q0 -140 -51 -204q-46 -60 -127 -60
q-73 0 -134 64l-9 -54h-151v738l172 -28v-174q42 14 78 14q95 0 153 -64q69 -74 69 -232zM1461 628.5q0 -37.5 -26.5 -64t-64.5 -26.5t-64 26.5t-26 64t26.5 64.5t63.5 27t64 -27t27 -64.5zM2487 1036q0 -129 -55 -200q-58 -74 -165 -74q-110 0 -173 75.5t-63 206.5
q0 146 72 214q63 64 184 64q116 0 183 -46l-19 -118q-66 36 -146 36q-49 0 -72 -22q-28 -23 -32 -76h284q2 -16 2 -60zM2633 292v1464q0 60 -43 103t-103 43h-2341q-60 0 -103 -43t-43 -103v-1464q0 -60 43 -103t103 -43h2341q60 0 103 43t43 103z" />
</svg>
