<?xml version="1.0" standalone="no"?>
<!DOCTYPE svg PUBLIC "-//W3C//DTD SVG 1.1//EN" "http://www.w3.org/Graphics/SVG/1.1/DTD/svg11.dtd" >
<svg xmlns="http://www.w3.org/2000/svg" xmlns:xlink="http://www.w3.org/1999/xlink" version="1.1" viewBox="-11 0 2329 2048">
   <path fill="currentColor"
d="M1173 1938q0 -7 -6 -12.5t-13 -5.5q-68 0 -116 -48.5t-48 -116.5q0 -7 -6 -12.5t-13.5 -5.5t-12.5 5.5t-5 12.5q0 83 58.5 142t142.5 59q7 0 13 -5.5t6 -12.5zM559 1395l1002 -869q-23 -47 -58.5 -87.5t-85 -74t-117.5 -53t-146 -19.5q-86 0 -160 24t-124.5 62.5t-86 87
t-52 98t-16.5 94.5q0 440 -156 737zM2105 1609q0 60 -43 103t-103 43h-512q0 121 -86.5 207t-207 86t-206 -85.5t-85.5 -206.5l170 -147h865q-189 -212 -259 -525l127 -111q69 408 340 636zM2203 18l96 110q9 12 8.5 27t-11.5 25l-2139 1854q-12 10 -27.5 8.5t-24.5 -13.5
l-96 -109q-10 -12 -9 -27t13 -25l212 -184q-22 -36 -22 -75q56 -48 103 -101t98 -137t85.5 -181t57 -235t22.5 -297q0 -83 33.5 -165t94.5 -152t154 -120.5t203 -66.5q-9 -21 -9 -45q0 -46 31.5 -77.5t77 -31.5t78 31.5t32.5 77.5q0 24 -9 45q142 21 249.5 94.5t169.5 179.5
l478 -415q11 -10 26 -8.5t25 13.5z" />
</svg>
