<?xml version="1.0" standalone="no"?>
<!DOCTYPE svg PUBLIC "-//W3C//DTD SVG 1.1//EN" "http://www.w3.org/Graphics/SVG/1.1/DTD/svg11.dtd" >
<svg xmlns="http://www.w3.org/2000/svg" xmlns:xlink="http://www.w3.org/1999/xlink" version="1.1" viewBox="-10 0 1629 2048">
   <path fill="currentColor"
d="M585 1572v-804q0 -15 -10 -25.5t-26 -10.5h-74q-16 0 -26 10.5t-10 25.5v804q0 16 10 27t26 11h74q16 0 26 -11t10 -27zM878 1572v-804q0 -15 -10.5 -25.5t-26.5 -10.5h-73q-16 0 -26.5 10.5t-10.5 25.5v804q0 16 10.5 27t26.5 11h73q16 0 26.5 -11t10.5 -27zM1170 1572
v-804q0 -15 -10 -25.5t-26 -10.5h-73q-16 0 -26.5 10.5t-10.5 25.5v804q0 16 10.5 27t26.5 11h73q16 0 26 -11t10 -27zM549 438h512l-55 -132q-2 -4 -8.5 -8.5t-11.5 -5.5h-362q-12 2 -19 14zM1609 476v72q0 16 -10 27t-26 11h-110v1082q0 95 -54 164.5t-129 69.5h-951
q-76 0 -129.5 -67t-53.5 -161v-1088h-109q-16 0 -26.5 -11t-10.5 -27v-72q0 -16 10.5 -27t26.5 -11h353l80 -190q17 -42 61.5 -72t90.5 -30h365q46 0 90.5 30t61.5 72l80 190h354q16 0 26 11t10 27z" />
</svg>
