<?xml version="1.0" standalone="no"?>
<!DOCTYPE svg PUBLIC "-//W3C//DTD SVG 1.1//EN" "http://www.w3.org/Graphics/SVG/1.1/DTD/svg11.dtd" >
<svg xmlns="http://www.w3.org/2000/svg" xmlns:xlink="http://www.w3.org/1999/xlink" version="1.1" viewBox="-10 0 1775 2048">
   <path fill="currentColor"
d="M1314 1228v124q0 47 -28 85t-72.5 62.5t-101 41.5t-111 24t-105.5 7q-116 0 -218 -42.5t-174.5 -116t-114.5 -176t-42 -219.5q0 -114 41.5 -215t113.5 -172.5t173 -113t215 -41.5q39 0 86 5t106 20.5t106 39t79 64.5t32 93v124q0 7 -5.5 12.5t-12.5 5.5h-135
q-7 0 -12.5 -5.5t-5.5 -12.5v-80q0 -34 -39.5 -59t-90.5 -36t-102 -11q-160 0 -261 105t-101 271q0 114 47.5 205t132 142t191.5 51q33 0 72 -6t77 -18t63.5 -32.5t25.5 -45.5v-80q0 -8 5 -13t12 -5h136q7 0 12.5 5t5.5 13zM878 292q-148 0 -283.5 58.5t-234 156.5
t-156.5 233.5t-58 284t58 284t156.5 233.5t234 156t283.5 58t283.5 -58t233.5 -156t156 -233.5t58 -284t-58 -284t-156 -233.5t-233.5 -156.5t-283.5 -58.5zM1755 1024.5q0 119.5 -31.5 233t-88 210t-137.5 177.5t-177 137.5t-210 88t-233 31.5t-233 -31.5t-210.5 -88
t-177.5 -137.5t-137.5 -177.5t-88 -210t-31.5 -233t31.5 -233.5t88 -210t137.5 -177t177.5 -137.5t210.5 -88.5t233 -32t233 32t210 88.5t177 137.5t137.5 177t88 210t31.5 233.5z" />
</svg>
