<?xml version="1.0" standalone="no"?>
<!DOCTYPE svg PUBLIC "-//W3C//DTD SVG 1.1//EN" "http://www.w3.org/Graphics/SVG/1.1/DTD/svg11.dtd" >
<svg xmlns="http://www.w3.org/2000/svg" xmlns:xlink="http://www.w3.org/1999/xlink" version="1.1" viewBox="-10 0 1775 2048">
   <path fill="currentColor"
d="M1111 886q0 -124 -61 -194t-169 -70q-72 0 -142 35t-126 97t-90.5 157t-34.5 205q0 128 60.5 198t172.5 70q67 0 128.5 -29t108.5 -78.5t82 -113.5t53 -135.5t18 -141.5zM1755 1024q0 103 -28.5 187t-74.5 139.5t-108 94t-126.5 56t-132.5 19.5q-7 0 -18 1t-19 1
q-109 0 -162 -62q-34 -38 -38 -94q-60 74 -151 125t-198 51q-184 0 -285 -109.5t-101 -308.5q0 -134 44.5 -256t120 -210.5t179 -141t217.5 -52.5q100 0 178 40.5t121 113.5l2 -22l12 -64q1 -6 6.5 -13t11.5 -7h134q8 0 15 12q6 7 4 18l-137 702q-6 27 -6 56q0 44 14 59
t51 15q21 -1 43 -3.5t56 -12t63.5 -24t61 -41.5t54 -62t37 -88.5t14.5 -118.5q0 -165 -52 -301.5t-146.5 -231t-231 -147t-301.5 -52.5q-148 0 -283.5 58.5t-234 156.5t-156.5 233.5t-58 284t58 284t156.5 233.5t234 156t283.5 58q126 0 245.5 -43t217.5 -123
q12 -10 26.5 -8.5t24.5 14.5l47 56q9 12 8 26q-2 16 -14 26q-116 96 -259.5 147t-295.5 51q-119 0 -232.5 -32t-210 -88.5t-177.5 -137.5t-138 -177t-88.5 -210t-31.5 -232.5t31.5 -232.5t88.5 -210t138 -177.5t177.5 -138t210 -88.5t232.5 -32q195 0 358.5 64t277.5 178.5
t177.5 278t63.5 357.5z" />
</svg>
