<?xml version="1.0" standalone="no"?>
<!DOCTYPE svg PUBLIC "-//W3C//DTD SVG 1.1//EN" "http://www.w3.org/Graphics/SVG/1.1/DTD/svg11.dtd" >
<svg xmlns="http://www.w3.org/2000/svg" xmlns:xlink="http://www.w3.org/1999/xlink" version="1.1" viewBox="-10 0 2361 2048">
   <path fill="currentColor"
d="M2341 1756v146h-2341v-1756h146v1610h2195zM2194 330v496q0 25 -22.5 34t-40.5 -8l-138 -138l-723 722q-11 12 -26.5 12t-26.5 -12l-266 -266l-476 476l-219 -220l669 -668q11 -12 26 -12t26 12l266 266l531 -530l-139 -138q-18 -18 -8 -41t34 -23h497q16 0 26 11t10 27z
" />
</svg>
