<?xml version="1.0" standalone="no"?>
<!DOCTYPE svg PUBLIC "-//W3C//DTD SVG 1.1//EN" "http://www.w3.org/Graphics/SVG/1.1/DTD/svg11.dtd" >
<svg xmlns="http://www.w3.org/2000/svg" xmlns:xlink="http://www.w3.org/1999/xlink" version="1.1" viewBox="-10 0 2653 2048">
   <path fill="currentColor"
d="M871 1316h-359q-46 0 -66 -40t8 -76l215 -286q-75 -36 -157 -36q-99 0 -183.5 49t-133.5 133.5t-49 183t49 183t133.5 134t183.5 49.5q132 0 232.5 -83.5t126.5 -210.5zM658 1170h213q-21 -96 -86 -168zM1207 1170l329 -438h-549l-113 150q119 117 144 288h189z
M2487 1243.5q0 -98.5 -49 -183t-133.5 -133.5t-183.5 -49q-67 0 -138 28l199 296q17 26 11 56t-31 46q-17 12 -41 12q-39 0 -60 -32l-199 -298q-50 52 -78.5 118t-28.5 140q0 98 49 182.5t133.5 134t183.5 49.5t183.5 -49.5t133.5 -134t49 -183zM2633 1243.5
q0 103.5 -40.5 198.5t-109.5 163.5t-163.5 109.5t-198.5 41t-198.5 -41t-163.5 -109.5t-109.5 -163.5t-40.5 -198q0 -112 45 -210.5t125 -171.5l-74 -112l-403 536q-22 30 -59 30h-225q-17 123 -88 223.5t-181 158.5t-237 58q-104 0 -198.5 -41t-163.5 -109.5t-109.5 -163.5
t-40.5 -198.5t40.5 -198.5t109.5 -163.5t163.5 -109t198.5 -40.5q131 0 246 62l156 -208h-256q-30 0 -51.5 -22t-21.5 -52t21.5 -52t51.5 -22h439v148h497l-97 -148h-254q-30 0 -51.5 -21t-21.5 -51t21.5 -52t51.5 -22h293q37 0 61 32l305 458q103 -50 219 -50
q104 0 198.5 40.5t163.5 109t109.5 163.5t40.5 198.5z" />
</svg>
