<?xml version="1.0" standalone="no"?>
<!DOCTYPE svg PUBLIC "-//W3C//DTD SVG 1.1//EN" "http://www.w3.org/Graphics/SVG/1.1/DTD/svg11.dtd" >
<svg xmlns="http://www.w3.org/2000/svg" xmlns:xlink="http://www.w3.org/1999/xlink" version="1.1" viewBox="-10 0 1775 2048">
   <path fill="currentColor"
d="M439 1389q0 -61 -42.5 -103.5t-103.5 -42.5t-104 42.5t-43 103.5t43 104t104 43t103.5 -43t42.5 -104zM1609 1389q0 -61 -42.5 -103.5t-103.5 -42.5t-103.5 42.5t-42.5 103.5t42.5 104t103.5 43t103.5 -43t42.5 -104zM1557 937l-83 -439q-5 -26 -25.5 -43t-46.5 -17
h-1049q-26 0 -46.5 17t-25.5 43l-82 439q-6 34 15.5 60.5t56.5 26.5h1214q35 0 56.5 -26.5t15.5 -60.5zM1298 237q0 -23 -16 -39t-39 -16h-731q-23 0 -39 16t-16 39t16 39t39 16h731q23 0 39 -16t16 -39zM1755 1066v689h-146v146q0 61 -42.5 104t-103.5 43t-103.5 -43
t-42.5 -104v-146h-878v146q0 61 -42.5 104t-103.5 43t-104 -43t-43 -104v-146h-146v-689q0 -129 29 -255l117 -519q11 -89 112 -156t262.5 -101.5t357.5 -34.5t357 34.5t262 101.5t112 156l120 519q26 113 26 255z" />
</svg>
