<?xml version="1.0" standalone="no"?>
<!DOCTYPE svg PUBLIC "-//W3C//DTD SVG 1.1//EN" "http://www.w3.org/Graphics/SVG/1.1/DTD/svg11.dtd" >
<svg xmlns="http://www.w3.org/2000/svg" xmlns:xlink="http://www.w3.org/1999/xlink" version="1.1" viewBox="-10 0 2361 2048">
   <path fill="currentColor"
d="M1672 1023.5q0 40.5 -28.5 69.5t-69.5 29h-803q-41 0 -69.5 -29t-28.5 -69.5t28.5 -69t69.5 -28.5h803q41 0 69.5 28.5t28.5 69zM1917 1024q0 -94 -27 -194h-1122q-41 0 -69.5 -28.5t-28.5 -69.5t28.5 -69.5t69.5 -28.5h1038q-100 -163 -269 -259.5t-366 -96.5
q-151 0 -289.5 59.5t-238.5 159t-159 237.5t-59 290q0 98 26 194h1123q41 0 69.5 28.5t28.5 69.5t-28.5 69.5t-69.5 28.5h-1038q100 163 268.5 259.5t366.5 96.5q151 0 289 -59.5t238 -159.5t159.5 -238t59.5 -289zM2341 732q0 41 -29 69.5t-70 28.5h-149q19 92 19 194
q0 127 -34 249t-94.5 225.5t-147.5 190.5t-190 148t-225 95t-250 34q-187 0 -357 -70.5t-297.5 -194.5t-202.5 -287h-216q-41 0 -69.5 -28.5t-28.5 -69.5t28.5 -69.5t69.5 -28.5h151q-19 -92 -19 -194q0 -128 34 -250t94.5 -225.5t147.5 -190t190 -147.5t225 -95t250 -34
q186 0 355.5 70.5t297.5 194.5t203 287h215q41 0 70 28.5t29 69.5z" />
</svg>
