<?xml version="1.0" standalone="no"?>
<!DOCTYPE svg PUBLIC "-//W3C//DTD SVG 1.1//EN" "http://www.w3.org/Graphics/SVG/1.1/DTD/svg11.dtd" >
<svg xmlns="http://www.w3.org/2000/svg" xmlns:xlink="http://www.w3.org/1999/xlink" version="1.1" viewBox="-10 0 1457 2048">
   <path fill="currentColor"
d="M1076 432l-130 374l134 24q188 -520 188 -592q0 -64 -43 -64q-65 0 -149 258zM734 1217q32 80 38 100q39 -45 81 -76q-13 -3 -37.5 -6.5t-44.5 -7.5t-37 -10zM401 193q0 111 181 595q20 -11 56 -11q18 0 86 5l-138 -401q-60 -171 -100 -222q-22 -29 -41 -29
q-21 0 -32.5 20t-11.5 43zM310 1060q0 41 59 136t134.5 175t114.5 80q17 0 29.5 -15t12.5 -31q0 -26 -36 -116q-15 -37 -37 -82.5t-54 -101.5t-70 -92.5t-71 -36.5q-23 0 -52.5 30.5t-29.5 53.5zM130 1443q0 48 28 119q67 166 209.5 259.5t322.5 93.5q259 0 436 -194
q174 -194 174 -488q0 -49 -1.5 -76.5t-13 -71t-34.5 -64.5q-64 -56 -241.5 -86t-309.5 -30q-42 0 -56 12q-14 6 -14 40q0 39 24.5 68.5t63.5 45.5t88.5 27t100 13.5t97 4.5t80.5 0h26q27 0 46 22q18 22 22 63q-30 30 -110 61q-69 26 -106 53q-73 53 -124 130.5t-51 156.5
q0 36 21 101t21 100l-4 14q-4 14 -4 16q-156 -11 -167 -247q-9 2 -46 2q2 8 2 24q0 61 -46 102.5t-108 41.5q-60 0 -127.5 -41t-113.5 -105t-46 -125q0 -39 37 -76l22 27.5t25.5 32t21.5 27.5q87 118 152 118q14 0 30.5 -10t16.5 -23q0 -25 -48.5 -96.5t-105.5 -133.5
t-79 -62q-49 0 -80 51t-31 103zM0 1453q0 -115 48.5 -186.5t155.5 -100.5q-32 -81 -32 -118q0 -71 69.5 -141t139.5 -70q33 0 80 17q-186 -527 -186 -648q0 -91 46.5 -148.5t136.5 -57.5q149 0 370 661q7 21 10 29q7 -18 27.5 -75t40.5 -110.5t49 -123.5t59.5 -127.5
t64.5 -108.5t71.5 -79.5t74.5 -28.5q81 0 128 56.5t47 139.5q0 125 -182 628q69 17 114.5 52.5t67.5 89t29.5 107t7.5 126.5q0 171 -53.5 319.5t-150.5 258t-241.5 172t-317.5 62.5q-128 0 -255 -48q-110 -42 -204.5 -123.5t-154.5 -194.5t-60 -229z" />
</svg>
