<?xml version="1.0" standalone="no"?>
<!DOCTYPE svg PUBLIC "-//W3C//DTD SVG 1.1//EN" "http://www.w3.org/Graphics/SVG/1.1/DTD/svg11.dtd" >
<svg xmlns="http://www.w3.org/2000/svg" xmlns:xlink="http://www.w3.org/1999/xlink" version="1.1" viewBox="-10 0 2361 2048">
   <path fill="currentColor"
d="M897 1152h237q-16 181 -112.5 284.5t-245.5 103.5q-185 0 -291 -133t-106 -361q0 -111 29 -204t79.5 -155t118.5 -96.5t146 -34.5q170 0 266 99.5t110 282.5h-232q-6 -73 -41 -113.5t-93 -40.5q-65 0 -101 69.5t-36 202.5q0 43 3.5 77.5t13 68.5t25.5 57t43 37t63 14
q56 0 86.5 -42.5t37.5 -115.5zM1711 1152h235q-16 181 -111.5 284.5t-244.5 103.5q-185 0 -291 -133t-106 -361q0 -111 29 -204t79.5 -155t118.5 -96.5t146 -34.5q170 0 266 99.5t110 282.5h-233q-5 -73 -40 -113.5t-93 -40.5q-65 0 -101 69.5t-36 202.5q0 44 3 78
t12.5 68.5t25 57t42.5 36.5t63 14q56 0 87.5 -42.5t38.5 -115.5zM2121 1016q0 -236 -17.5 -350t-69.5 -184q-7 -9 -16 -16.5t-23.5 -17t-18.5 -12.5q-98 -72 -797 -72q-319 0 -540 17t-271 55q-6 4 -20.5 13t-24 16.5t-16.5 16.5q-51 68 -68 181.5t-17 352.5t17 352t68 182
q7 10 17 18t23.5 16t20.5 14q51 37 274 55.5t537 18.5t530 -18t267 -56q6 -5 19 -13t23 -16t16 -19q52 -68 69.5 -181.5t17.5 -352.5zM2341 146v1756h-2341v-1756h2341z" />
</svg>
