<?xml version="1.0" standalone="no"?>
<!DOCTYPE svg PUBLIC "-//W3C//DTD SVG 1.1//EN" "http://www.w3.org/Graphics/SVG/1.1/DTD/svg11.dtd" >
<svg xmlns="http://www.w3.org/2000/svg" xmlns:xlink="http://www.w3.org/1999/xlink" version="1.1" viewBox="-10 0 1775 2048">
   <path fill="currentColor"
d="M1498 962v130q0 28 -15 44t-43 16h-231q-28 0 -43.5 -16t-15.5 -44v-130q0 -27 15.5 -43.5t43.5 -16.5h231q28 0 43 16.5t15 43.5zM938 1226v-286q0 -61 -37 -98.5t-98 -37.5h-152q-76 0 -109 60q-33 -60 -110 -60h-149q-60 0 -97 37.5t-37 98.5v286q0 24 24 24h62
q26 0 26 -24v-264q0 -28 15.5 -44t43.5 -16h107q28 0 44 16.5t16 43.5v264q0 24 24 24h62q25 0 25 -24v-264q0 -27 15.5 -43.5t43.5 -16.5h111q28 0 43 16.5t15 43.5v264q0 24 25 24h63q24 0 24 -24zM1611 1116v-176q0 -61 -37.5 -98.5t-98.5 -37.5h-301q-61 0 -98.5 37.5
t-37.5 98.5v468q0 24 25 24h63q24 0 24 -24v-206q35 48 107 48h218q61 0 98.5 -37t37.5 -97zM1755 412v1224q0 110 -77.5 188t-187.5 78h-1225q-109 0 -187 -78t-78 -188v-1224q0 -110 78 -188t187 -78h1225q110 0 187.5 78t77.5 188z" />
</svg>
