<?xml version="1.0" standalone="no"?>
<!DOCTYPE svg PUBLIC "-//W3C//DTD SVG 1.1//EN" "http://www.w3.org/Graphics/SVG/1.1/DTD/svg11.dtd" >
<svg xmlns="http://www.w3.org/2000/svg" xmlns:xlink="http://www.w3.org/1999/xlink" version="1.1" viewBox="-10 0 2361 2048">
   <path fill="currentColor"
d="M2341 1022q0 24 -15 41.5t-38 22.5l-234 407q3 11 3 21q0 23 -14.5 41t-36.5 22l-221 385q4 12 4 18q0 26 -19.5 45.5t-46.5 19.5q-29 0 -46 -20h-458q-18 23 -49 23t-49 -23h-456q-18 23 -49 23q-26 0 -45.5 -19t-19.5 -47q0 -8 4 -22l-220 -383q-23 -5 -37.5 -22.5
t-14.5 -40.5q0 -7 4 -21l-236 -407q-23 -5 -37 -23t-14 -41q0 -24 15.5 -41.5t38.5 -22.5l227 -393q0 -1 -0.5 -3.5t-0.5 -3.5q0 -41 39 -58l239 -415q-5 -15 -5 -20q0 -27 19 -46t46 -19q30 0 51 24h452q18 -24 49 -24t49 24h455q21 -24 51 -24q27 0 46 19t19 46q0 3 -5 20
l237 409q26 1 44.5 20t18.5 44q0 17 -8 31l213 371q22 5 36.5 22t14.5 40zM1215 1936h444l-390 -405h-164l-391 405h412q21 -19 44 -19q24 0 45 19zM128 1008q1 5 1 14q0 12 -2 18l238 411q3 1 9 3.5t8 3.5l215 -228v-396l-214 -222q-15 10 -33 12zM1127 112h-444l218 228
l633 -228h-320q-18 18 -44 18q-25 0 -43 -18zM1930 1497q1 -6 6 -13l-73 -78l-20 91h87zM1809 1497l25 -120l-288 -304l-338 351l72 73h529zM1709 1917l18 -32l74 -354h-488l381 392q2 -1 4.5 -2.5t5 -2.5t5.5 -1zM661 1936h5l391 -405h-426v383l4 7q16 5 26 15zM631 1497
h459l73 -76l-353 -367l-179 190v253zM410 1497h187v-216l-192 202q4 11 5 14zM409 554l1 2v2q0 20 -9 34l196 202v-308zM631 474v355l175 180l339 -359l-255 -270zM635 126l-4 10v301l234 -84l-218 -230q-5 1 -12 3zM1654 112h-19l-709 256l243 257zM1169 674l-339 360
l355 364l338 -350zM786 1030l-155 -161v325zM1186 1446l-48 51h97zM1570 1049l272 287l151 -714l-3 -5l-1 -1zM1963 592q-9 -13 -9 -34v-2l-247 -430q-3 0 -14 -5l-500 529l354 374zM597 450v-255l-187 322zM597 1531h-187l187 323v-323zM1837 1531l-55 259l148 -259h-93z
M1976 1451l237 -413q0 -2 -1 -5t-1.5 -5.5t-0.5 -5.5q0 -4 2 -10t2 -8l-196 -338l-147 699l88 94q14 -7 17 -8z" />
</svg>
