<?xml version="1.0" standalone="no"?>
<!DOCTYPE svg PUBLIC "-//W3C//DTD SVG 1.1//EN" "http://www.w3.org/Graphics/SVG/1.1/DTD/svg11.dtd" >
<svg xmlns="http://www.w3.org/2000/svg" xmlns:xlink="http://www.w3.org/1999/xlink" version="1.1" viewBox="-10 0 1775 2048">
   <path fill="currentColor"
d="M1067 172q-362 137 -635 413.5t-409 640.5q-23 -101 -23 -200q0 -119 31.5 -232.5t87.5 -210t137 -177t176.5 -137t209 -88t232.5 -31.5q94 0 193 22zM1375 308q105 72 187 176q-294 86 -541.5 263t-423 425.5t-259.5 543.5q-109 -86 -177 -186q84 -291 258.5 -537.5
t419.5 -422.5t536 -262zM537 1832q132 -407 434 -711t708 -439q47 108 62 224q-334 137 -589.5 393.5t-392.5 592.5q-119 -16 -222 -60zM1755 1898q-215 -55 -419 -132q-157 98 -331 124q126 -235 313.5 -424.5t420.5 -315.5q-25 175 -115 326q72 194 131 422z" />
</svg>
