<?xml version="1.0" standalone="no"?>
<!DOCTYPE svg PUBLIC "-//W3C//DTD SVG 1.1//EN" "http://www.w3.org/Graphics/SVG/1.1/DTD/svg11.dtd" >
<svg xmlns="http://www.w3.org/2000/svg" xmlns:xlink="http://www.w3.org/1999/xlink" version="1.1" viewBox="-10 0 2361 2048">
   <path fill="currentColor"
d="M1714 1566v-836q0 -25 -17 -42.5t-40 -17.5h-106q-23 0 -40 17.5t-17 42.5v836q0 24 17 41t40 17h106q23 0 40 -17t17 -41zM1390 1566v-606q0 -23 -17 -40.5t-40 -17.5h-116q-23 0 -40 17.5t-17 40.5v606q0 24 17 41t40 17h116q23 0 40 -17t17 -41zM1056 1566v-490
q0 -23 -17 -39.5t-40 -16.5h-116q-23 0 -40 16.5t-17 39.5v490q0 24 17 41t40 17h116q23 0 40 -17t17 -41zM722 1566v-412q0 -24 -17 -41t-40 -17h-115q-23 0 -40 17t-17 41v412q0 24 17 41t40 17h115q23 0 40 -17t17 -41zM2341 1400q0 94 -36.5 179t-98.5 146.5t-147 98
t-178 36.5h-1422q-93 0 -178 -36.5t-146.5 -98t-98 -146.5t-36.5 -179q0 -132 72 -245t192 -169q-11 -38 -11 -84q0 -130 91.5 -222t221.5 -92q115 0 205 78q34 -138 123 -247t216 -170t269 -61q127 0 243 50t200 134t134 199.5t50 242.5q0 74 -16 140q154 38 252.5 163.5
t98.5 282.5z" />
</svg>
