<?xml version="1.0" standalone="no"?>
<!DOCTYPE svg PUBLIC "-//W3C//DTD SVG 1.1//EN" "http://www.w3.org/Graphics/SVG/1.1/DTD/svg11.dtd" >
<svg xmlns="http://www.w3.org/2000/svg" xmlns:xlink="http://www.w3.org/1999/xlink" version="1.1" viewBox="-10 0 1775 2048">
   <path fill="currentColor"
d="M0 36h1755v1590l-886 386l-869 -386v-1590zM1641 1552v-1058h-1527v1058l756 336zM1641 380v-230h-1527v230h1527zM207 720v132h-42v-132h42zM207 888v132h-42v-132h42zM207 1058v132h-42v-132h42zM207 1228v130h-42v-130h42zM207 1396v132h-42v-132h42zM237 1560l17 -40
l120 54l-17 38zM392 1628l17 -38l120 52l-17 38zM546 1696l17 -38l120 52l-17 40zM702 1764l17 -38l119 54l-17 38zM911 1780l120 -54l17 38l-120 54zM1065 1710l120 -52l17 38l-120 54zM1221 1642l120 -52l17 38l-120 52zM1375 1574l120 -54l17 40l-120 52zM296 204v40
h-130v-40h130zM481 204v40h-131v-40h131zM666 204v40h-131v-40h131zM850 204v40h-130v-40h130zM1035 204v40h-130v-40h130zM1221 204v40h-132v-40h132zM1406 204v40h-132v-40h132zM1590 204v40h-131v-40h131zM207 592v90h-42v-132h131v42h-89zM481 550v42h-131v-42h131z
M666 550v42h-131v-42h131zM850 550v42h-130v-42h130zM1035 550v42h-130v-42h130zM1221 550v42h-132v-42h132zM1406 550v42h-132v-42h132zM1549 682v-90h-90v-42h132v132h-42zM1549 852v-132h42v132h-42zM1549 1020v-132h42v132h-42zM1549 1190v-132h42v132h-42zM1549 1358
v-130h42v130h-42zM1549 1528v-132h42v132h-42zM869 1488q-97 0 -179.5 -48t-130.5 -130.5t-48 -179.5t48 -179.5t130.5 -130.5t179.5 -48t179.5 48t130 130.5t47.5 179.5t-47.5 179.5t-130 130.5t-179.5 48zM680 1052q0 41 22.5 64.5t56.5 29t73 8t73 2t56.5 10.5t22.5 34
q0 18 -14.5 30.5t-37.5 17.5t-41 6.5t-35 1.5q-112 0 -141 -58h-3l-35 72q75 48 185 48q33 0 64.5 -5t63.5 -18t52 -38t20 -61q0 -44 -23 -70t-57 -33t-74 -9.5t-74 -1.5t-57 -7t-23 -27q0 -18 13 -30.5t33 -18t37 -7.5t34 -2q39 0 80.5 12t58.5 38h4l34 -66q-4 -1 -21.5 -8
t-22 -9t-19.5 -7.5t-22 -7.5t-20 -5.5t-22.5 -5t-22 -2.5t-24.5 -1q-33 0 -64.5 5.5t-62 19t-49 39t-18.5 60.5z" />
</svg>
