<?xml version="1.0" standalone="no"?>
<!DOCTYPE svg PUBLIC "-//W3C//DTD SVG 1.1//EN" "http://www.w3.org/Graphics/SVG/1.1/DTD/svg11.dtd" >
<svg xmlns="http://www.w3.org/2000/svg" xmlns:xlink="http://www.w3.org/1999/xlink" version="1.1" viewBox="-10 0 2361 2048">
   <path fill="currentColor"
d="M1634 667zM1931 900q169 0 289.5 112.5t120.5 279.5q0 179 -125 298.5t-305 119.5q-123 0 -231.5 -50.5t-191.5 -131t-161 -177.5t-155.5 -194.5t-159.5 -178t-189 -131t-228 -50.5q-176 0 -287 104.5t-111 279.5q0 180 118.5 286t300.5 106q114 0 237.5 -43t220.5 -112
q6 -4 24.5 -21t34 -28t25.5 -11q16 0 28 12t12 28q0 29 -69 88q-116 100 -268 162t-298 62q-152 0 -280.5 -66t-205.5 -188.5t-77 -275.5q0 -154 74.5 -279.5t202.5 -195.5t282 -70q108 0 206.5 31t175.5 83t148.5 119t133 141.5t120.5 149.5t120 142t124 119t138.5 83
t156.5 31q117 0 193 -70t76 -186q0 -108 -74 -181.5t-182 -73.5q-35 0 -94 21.5t-78 21.5q-23 0 -40.5 -17t-17.5 -40q0 -21 10 -65t10 -68q0 -181 -123 -300t-305 -119q-66 0 -127 21t-96 46t-63.5 46t-37.5 21q-17 0 -29.5 -12t-12.5 -29q0 -21 29 -52
q68 -77 168.5 -118.5t207.5 -41.5q218 0 363.5 143.5t145.5 360.5q0 33 -5 75q66 -17 131 -17z" />
</svg>
