<?xml version="1.0" standalone="no"?>
<!DOCTYPE svg PUBLIC "-//W3C//DTD SVG 1.1//EN" "http://www.w3.org/Graphics/SVG/1.1/DTD/svg11.dtd" >
<svg xmlns="http://www.w3.org/2000/svg" xmlns:xlink="http://www.w3.org/1999/xlink" version="1.1" viewBox="-10 0 1922 2048">
   <path fill="currentColor"
d="M1390 732q0 -30 -21.5 -52t-51.5 -22h-147v-146q0 -30 -21.5 -51t-51.5 -21t-51.5 21t-21.5 51v146h-146q-30 0 -51.5 22t-21.5 52t21.5 51t51.5 21h146v148q0 30 21.5 51t51.5 21t51.5 -21t21.5 -51v-148h147q30 0 51.5 -21t21.5 -51zM731 1682.5q0 60.5 -42.5 103
t-103.5 42.5t-103.5 -42.5t-42.5 -103t42.5 -103.5t103.5 -43t103.5 43t42.5 103.5zM1755 1682.5q0 60.5 -42.5 103t-103.5 42.5t-103.5 -42.5t-42.5 -103t42.5 -103.5t103.5 -43t103.5 43t42.5 103.5zM1902 440v584q0 28 -18.5 49t-46.5 25l-1194 138q1 8 5.5 25t7 30.5
t2.5 24.5q0 10 -3 20.5t-6 17t-9.5 19t-8.5 17.5h1051q30 0 51.5 21.5t21.5 52t-21.5 51.5t-51.5 21h-1170q-30 0 -51.5 -21t-21.5 -51q0 -16 12.5 -45.5t34 -68.5t23.5 -44l-203 -940h-233q-30 0 -51.5 -22t-21.5 -52t21.5 -51t51.5 -21h293q19 0 33 7.5t22.5 17t15 28
t8.5 30.5t5.5 33.5t5.5 29.5h1373q30 0 51.5 21.5t21.5 52.5z" />
</svg>
