<?xml version="1.0" standalone="no"?>
<!DOCTYPE svg PUBLIC "-//W3C//DTD SVG 1.1//EN" "http://www.w3.org/Graphics/SVG/1.1/DTD/svg11.dtd" >
<svg xmlns="http://www.w3.org/2000/svg" xmlns:xlink="http://www.w3.org/1999/xlink" version="1.1" viewBox="-11 0 2363 2048">
   <path fill="currentColor"
d="M242 804l712 760l-343 -760h-369zM1170 1687l399 -883h-798zM615 658l233 -439h-299l-330 439h396zM1386 1564l712 -760h-369zM781 658h779l-233 -439h-313zM1726 658h395l-329 -439h-299zM1887 103l439 585q17 20 15 46.5t-20 46.5l-1097 1171q-21 23 -54 23
q-31 0 -53 -23l-1098 -1171q-18 -20 -19 -46.5t15 -46.5l439 -585q22 -30 58 -30h1317q36 0 58 30z" />
</svg>
