<?xml version="1.0" standalone="no"?>
<!DOCTYPE svg PUBLIC "-//W3C//DTD SVG 1.1//EN" "http://www.w3.org/Graphics/SVG/1.1/DTD/svg11.dtd" >
<svg xmlns="http://www.w3.org/2000/svg" xmlns:xlink="http://www.w3.org/1999/xlink" version="1.1" viewBox="-10 0 2317 2048">
   <path fill="currentColor"
d="M2048 1777q22 -22 51.5 -22t51.5 22l146 146l-103 103l-95 -95l-95 95q-21 22 -51 22q-31 0 -52 -22l-94 -95l-95 95q-22 22 -51.5 22t-51.5 -22l-95 -95l-95 95q-22 22 -51.5 22t-51.5 -22l-95 -95l-94 95q-22 22 -51.5 22t-51.5 -22l-95 -95l-95 95q-22 22 -51.5 22
t-51.5 -22l-95 -95l-95 95q-22 22 -51 22t-51 -22l-95 -95l-95 95q-22 22 -51.5 22t-51.5 -22l-146 -146l103 -103l94 95l95 -95q22 -22 51.5 -22t51.5 22l95 95l95 -95q22 -22 51.5 -22t51.5 22l95 95l94 -95q22 -22 51.5 -22t51.5 22l95 95l95 -95q22 -22 51.5 -22
t51.5 22l95 95l95 -95q22 -22 51 -22t51 22l95 95l95 -95q22 -22 51.5 -22t51.5 22l95 95zM249 1733q-22 22 -51.5 22t-51.5 -22l-146 -146l103 -103l94 94l95 -94q22 -22 51.5 -22t51.5 22l95 94l73 -73v-335l-240 -359q-20 -30 -8 -64.5t46 -46.5l202 -66v-342h146v-146
h293v-146h293v146h292v146h146v342l203 66q34 12 45.5 46.5t-8.5 64.5l-240 359v335l22 -21q22 -22 51.5 -22t51.5 22l95 94l95 -94q22 -22 51.5 -22t51.5 22l146 146l-103 103l-95 -95l-95 95q-21 22 -51 22q-31 0 -52 -22l-94 -95l-95 95q-22 22 -51.5 22t-51.5 -22
l-95 -95l-95 95q-22 22 -51.5 22t-51.5 -22l-95 -95l-94 95q-22 22 -51.5 22t-51.5 -22l-95 -95l-95 95q-22 22 -51.5 22t-51.5 -22l-95 -95l-95 95q-22 22 -51 22t-51 -22l-95 -95zM709 438v147l439 -147l439 147v-147h-146v-146h-585v146h-147z" />
</svg>
