<?xml version="1.0" standalone="no"?>
<!DOCTYPE svg PUBLIC "-//W3C//DTD SVG 1.1//EN" "http://www.w3.org/Graphics/SVG/1.1/DTD/svg11.dtd" >
<svg xmlns="http://www.w3.org/2000/svg" xmlns:xlink="http://www.w3.org/1999/xlink" version="1.1" viewBox="-10 0 1629 2048">
   <path fill="currentColor"
d="M658 1828l110 -512l-110 -146l-146 -72zM951 1828l146 -730l-146 72l-110 146zM1134 674q-2 -4 -5 -6q-11 -10 -110 -10q-87 0 -190 22q-12 2 -24 2t-24 -2q-103 -22 -191 -22q-99 0 -110 10q-3 2 -5 6q1 13 5 32q2 2 8 6t9 12q2 7 8.5 24t8.5 23t8 20t9.5 19.5t11 16
t13.5 15t15.5 11t19.5 9t23.5 4.5t28.5 2q35 0 59.5 -10t35.5 -25t19.5 -32.5t12 -32.5t10.5 -25.5t18 -10.5h13q11 0 18 10.5t10.5 25.5t12 32.5t19.5 32.5t35.5 25t59.5 10q15 0 28.5 -2t23.5 -4.5t19.5 -9t15.5 -11t13.5 -15t11 -16t9.5 -19.5t8 -20t8.5 -23t8.5 -24
q3 -8 9 -12t8 -6q4 -19 5 -32zM1609 1678q0 138 -83 217t-222 79h-999q-139 0 -222 -79t-83 -217q0 -70 5 -135t21.5 -143t42.5 -141t72.5 -118.5t107.5 -84.5l-103 -252h245q-25 -73 -25 -146q0 -14 2 -36q-21 -5 -41 -9.5t-56 -15t-61 -22t-44.5 -28.5t-19.5 -35
q0 -67 240 -114q20 -69 59.5 -152t80.5 -130q37 -42 87 -42q35 0 96 35t96 35t96 -35t96 -35q49 0 86 42q41 47 80.5 130t59.5 152q240 47 240 114q0 18 -19.5 35t-44.5 28.5t-61 22t-56 15t-41 9.5q9 93 -23 182h245l-94 258q59 30 103.5 85.5t70 118t41 139.5t20.5 141
t5 132z" />
</svg>
