<?xml version="1.0" standalone="no"?>
<!DOCTYPE svg PUBLIC "-//W3C//DTD SVG 1.1//EN" "http://www.w3.org/Graphics/SVG/1.1/DTD/svg11.dtd" >
<svg xmlns="http://www.w3.org/2000/svg" xmlns:xlink="http://www.w3.org/1999/xlink" version="1.1" viewBox="-10 0 2654 2048">
   <path fill="currentColor"
d="M2630 1184q14 118 -25 227.5t-113.5 187t-181.5 120.5t-224 35q-121 -7 -225 -69t-170 -164t-78 -223q-13 -127 31.5 -241t134.5 -195l-81 -122q-110 92 -172.5 222.5t-62.5 278.5q0 31 -21 53t-52 22h-293h-79q-17 123 -88 223.5t-181 158t-237 57.5
q-104 0 -198.5 -40.5t-163.5 -109t-109.5 -163.5t-40.5 -198.5t40.5 -198.5t109.5 -163.5t163.5 -109.5t198.5 -41q84 0 174 31l27 -52q-139 -125 -347 -125h-73q-30 0 -52 -21.5t-22 -51.5t22 -52t52 -22h146q73 0 140 12.5t109 27t87.5 39.5t60.5 36t42 32h585h131
l-97 -147h-254q-34 0 -56 -25t-16 -60q4 -25 26.5 -43t49.5 -18h289q37 0 61 32l80 120l130 -130q22 -22 52 -22h116q30 0 51.5 21.5t21.5 51.5v147q0 30 -21.5 51.5t-51.5 21.5h-205l132 196q150 -72 314 -41q164 30 279.5 154.5t134.5 289.5zM512 1609q132 0 232.5 -83
t126.5 -210h-359q-41 0 -63 -35q-21 -36 -1 -72l168 -317q-55 -15 -104 -15q-99 0 -183.5 49.5t-133.5 134t-49 183t49 183t133.5 133.5t183.5 49zM2121 1609q99 0 183.5 -49t133.5 -133.5t49 -183t-49 -183t-133.5 -134t-183.5 -49.5q-67 0 -138 28l199 297q17 26 11 56
t-31 46q-17 12 -41 12q-39 0 -60 -33l-199 -297q-50 51 -78.5 117.5t-28.5 139.5q0 99 49 183.5t133.5 133.5t183.5 49z" />
</svg>
