<?xml version="1.0" standalone="no"?>
<!DOCTYPE svg PUBLIC "-//W3C//DTD SVG 1.1//EN" "http://www.w3.org/Graphics/SVG/1.1/DTD/svg11.dtd" >
<svg xmlns="http://www.w3.org/2000/svg" xmlns:xlink="http://www.w3.org/1999/xlink" version="1.1" viewBox="-10 0 1629 2048">
   <path fill="currentColor"
d="M1609 1737q0 72 -70.5 130t-187 92.5t-256.5 52.5t-290 18t-290 -18t-257 -52.5t-187.5 -92.5t-70.5 -130q0 -55 38 -101t103.5 -76.5t134.5 -50.5t150 -34q30 -5 55 12.5t30 47.5t-12.5 54.5t-47.5 29.5q-66 12 -121 27t-87.5 28.5t-55 27t-31.5 22.5t-10 14
q4 13 31 30.5t83.5 37.5t130.5 37t183.5 28.5t230.5 11.5t230.5 -11.5t183.5 -28.5t130 -37.5t83 -38.5t31 -31q-2 -9 -26 -26t-98.5 -45t-180.5 -46q-30 -5 -47.5 -29.5t-12.5 -54.5t30 -47.5t55 -12.5q81 14 150 34t134.5 50.5t103.5 76.5t38 101zM1170 713v439
q0 30 -21.5 51.5t-51.5 21.5h-73v439q0 30 -21.5 51.5t-51.5 21.5h-293q-30 0 -51.5 -21.5t-21.5 -51.5v-439h-73q-30 0 -51.5 -21.5t-21.5 -51.5v-439q0 -61 42.5 -103.5t103.5 -42.5h439q61 0 103.5 42.5t42.5 103.5zM1061 274q0 106 -74.5 181t-181.5 75t-181.5 -75
t-74.5 -181t74.5 -181t181.5 -75t181.5 75t74.5 181z" />
</svg>
