<?xml version="1.0" standalone="no"?>
<!DOCTYPE svg PUBLIC "-//W3C//DTD SVG 1.1//EN" "http://www.w3.org/Graphics/SVG/1.1/DTD/svg11.dtd" >
<svg xmlns="http://www.w3.org/2000/svg" xmlns:xlink="http://www.w3.org/1999/xlink" version="1.1" viewBox="-10 0 1337 2048">
   <path fill="currentColor"
d="M1317 659q0 124 -45.5 239t-124 201t-186.5 143t-230 71v297h256q16 0 26.5 10t10.5 26v73q0 15 -10.5 26t-26.5 11h-256v255q0 16 -10 26.5t-26 10.5h-73q-16 0 -26.5 -10.5t-10.5 -26.5v-255h-256q-16 0 -26 -11t-10 -26v-73q0 -16 10 -26t26 -10h256v-297
q-128 -14 -241 -76.5t-191.5 -156t-119.5 -218t-31 -257.5q12 -153 91.5 -284.5t208.5 -215t281 -100.5q98 -11 192.5 6t174.5 57t148.5 101.5t116.5 137t75 166t27 186.5zM146 659q0 104 40.5 198.5t109.5 163t163.5 109.5t198.5 41t198.5 -41t163 -109.5t109.5 -163
t41 -198.5t-41 -198.5t-109.5 -163.5t-163 -109.5t-198.5 -40.5t-198.5 40.5t-163.5 109.5t-109.5 163.5t-40.5 198.5z" />
</svg>
