<?xml version="1.0" standalone="no"?>
<!DOCTYPE svg PUBLIC "-//W3C//DTD SVG 1.1//EN" "http://www.w3.org/Graphics/SVG/1.1/DTD/svg11.dtd" >
<svg xmlns="http://www.w3.org/2000/svg" xmlns:xlink="http://www.w3.org/1999/xlink" version="1.1" viewBox="-10 0 1337 2048">
   <path fill="currentColor"
d="M949 362q165 82 266.5 240t101.5 349q0 124 -46 239t-124 201t-186.5 143t-229.5 71v151h110q15 0 26 10.5t11 25.5v73q0 16 -10.5 26t-26.5 10h-110v110q0 16 -10.5 26.5t-25.5 10.5h-73q-16 0 -26.5 -10.5t-10.5 -26.5v-110h-110q-16 0 -26 -10t-10 -26v-73
q0 -15 10 -25.5t26 -10.5h110v-151q-122 -14 -230 -71t-186 -143t-123.5 -201t-45.5 -239q0 -191 101 -349t267 -240q-91 -53 -158.5 -133t-102.5 -179q-7 -18 4.5 -33.5t30.5 -15.5h79q23 0 33 22q50 121 159.5 195.5t244.5 74.5t244.5 -74.5t160.5 -195.5q9 -22 42 -22h70
q18 0 29 15.5t5 33.5q-35 99 -102.5 179t-157.5 133zM658 1463q104 0 198.5 -41t163 -109.5t109.5 -163t41 -198.5t-41 -199t-109.5 -163.5t-163 -109t-198.5 -40.5t-199 40.5t-163.5 109t-109 163.5t-40.5 199t40.5 198.5t109 163t163.5 109.5t199 41z" />
</svg>
