<?xml version="1.0" standalone="no"?>
<!DOCTYPE svg PUBLIC "-//W3C//DTD SVG 1.1//EN" "http://www.w3.org/Graphics/SVG/1.1/DTD/svg11.dtd" >
<svg xmlns="http://www.w3.org/2000/svg" xmlns:xlink="http://www.w3.org/1999/xlink" version="1.1" viewBox="-10 0 1629 2048">
   <path fill="currentColor"
d="M1170 37q0 -16 10.5 -26t26.5 -10h329q30 0 51.5 21.5t21.5 51.5v329q0 16 -10.5 26t-25.5 10h-74q-16 0 -26 -10t-10 -26v-153l-290 291q68 86 106 191t38 219q0 124 -45.5 239t-124 201t-186.5 143t-230 71v151h110q16 0 26.5 10.5t10.5 25.5v73q0 16 -10.5 26
t-26.5 10h-110v110q0 16 -10 26.5t-26 10.5h-73q-16 0 -26.5 -10.5t-10.5 -26.5v-110h-110q-16 0 -26 -10t-10 -26v-73q0 -15 10 -25.5t26 -10.5h110v-151q-128 -14 -240.5 -76t-191.5 -155.5t-120 -218t-31 -256.5q12 -153 91 -284.5t208 -215.5t281 -101
q135 -16 260.5 21.5t226.5 117.5l291 -290h-153q-16 0 -26.5 -10.5t-10.5 -26.5v-73zM658 1463q104 0 198.5 -41t163 -109.5t109.5 -163t41 -198.5t-41 -199t-109.5 -163.5t-163 -109t-198.5 -40.5t-198.5 40.5t-163.5 109t-109.5 163.5t-40.5 199t40.5 198.5t109.5 163
t163.5 109.5t198.5 41z" />
</svg>
