<?xml version="1.0" standalone="no"?>
<!DOCTYPE svg PUBLIC "-//W3C//DTD SVG 1.1//EN" "http://www.w3.org/Graphics/SVG/1.1/DTD/svg11.dtd" >
<svg xmlns="http://www.w3.org/2000/svg" xmlns:xlink="http://www.w3.org/1999/xlink" version="1.1" viewBox="-10 0 1921 2048">
   <path fill="currentColor"
d="M1462 37q0 -16 10.5 -26t25.5 -10h330q30 0 51.5 21.5t21.5 51.5v329q0 16 -10.5 26t-26.5 10h-73q-16 0 -26.5 -10t-10.5 -26v-153l-290 291q69 86 106.5 191t37.5 219q0 124 -45 239t-123 201t-186.5 143t-229.5 71v151h110q15 0 25.5 10.5t10.5 25.5v73q0 16 -10.5 26
t-25.5 10h-110v110q0 16 -11 26.5t-26 10.5h-73q-16 0 -26 -10.5t-10 -26.5v-110h-110q-16 0 -26.5 -10t-10.5 -26v-73q0 -15 10.5 -25.5t26.5 -10.5h110v-151q-122 -14 -230 -71t-186 -143t-123.5 -201t-45.5 -239q0 -114 37.5 -219t106.5 -191l-60 -60l-115 126
q-11 11 -26 12.5t-26 -8.5l-55 -50q-11 -10 -12 -25.5t10 -26.5l120 -131l-127 -128v153q0 16 -10 26t-26 10h-73q-16 0 -26.5 -10t-10.5 -26v-329q0 -30 21.5 -51.5t51.5 -21.5h329q16 0 26.5 10t10.5 26v73q0 16 -10.5 26.5t-26.5 10.5h-152l121 122l99 -107
q10 -11 25 -12.5t26 8.5l55 51q11 10 11.5 25t-9.5 26l-103 113l66 64q86 -68 191 -106t218.5 -38t218.5 38t192 106l291 -290h-154q-15 0 -25.5 -10.5t-10.5 -26.5v-73zM950.5 1463q103.5 0 198.5 -41t163.5 -109.5t109 -163t40.5 -198.5t-40.5 -199t-109 -163.5
t-163.5 -109t-198.5 -40.5t-198.5 40.5t-163.5 109t-109 163.5t-40.5 199t40.5 198.5t109 163t163.5 109.5t198.5 41z" />
</svg>
