<?xml version="1.0" standalone="no"?>
<!DOCTYPE svg PUBLIC "-//W3C//DTD SVG 1.1//EN" "http://www.w3.org/Graphics/SVG/1.1/DTD/svg11.dtd" >
<svg xmlns="http://www.w3.org/2000/svg" xmlns:xlink="http://www.w3.org/1999/xlink" version="1.1" viewBox="-10 0 2068 2048">
   <path fill="currentColor"
d="M2045 605q11 133 -30 257.5t-120 218t-191.5 156t-240.5 76.5v297h256q15 0 25.5 10t10.5 26v73q0 15 -10.5 26t-25.5 11h-256v255q0 16 -11 26.5t-26 10.5h-73q-16 0 -26 -10.5t-10 -26.5v-255h-586v255q0 16 -10 26.5t-26 10.5h-73q-16 0 -26.5 -10.5t-10.5 -26.5v-255
h-256q-16 0 -26 -11t-10 -26v-73q0 -16 10 -26t26 -10h256v-297q-128 -14 -241 -76.5t-191.5 -156t-119.5 -218t-31 -257.5q12 -155 93.5 -287.5t212.5 -215.5t285 -98q117 -12 227.5 16.5t203.5 90.5q93 -62 203 -90.5t228 -16.5q154 15 285 98t212 215.5t93 287.5z
M1024 1017q69 -72 107.5 -164t38.5 -194t-38.5 -194.5t-107.5 -163.5q-69 71 -107.5 163.5t-38.5 194.5t38.5 194t107.5 164zM658 1171q132 0 249 -65q-84 -90 -130 -205t-46 -242t46 -241.5t130 -205.5q-117 -65 -249 -65q-104 0 -198.5 40.5t-163.5 109.5t-109.5 163.5
t-40.5 198.5t40.5 198.5t109.5 163t163.5 109.5t198.5 41zM1317 1610v-297q-154 -16 -293 -108q-139 92 -293 108v297h586zM1390 1171q103 0 198 -41t163.5 -109.5t109 -163t40.5 -198.5t-40.5 -198.5t-109 -163.5t-163.5 -109.5t-198 -40.5q-132 0 -249 65
q83 91 129.5 205.5t46.5 241.5t-46 242t-130 205q117 65 249 65z" />
</svg>
