<?xml version="1.0" standalone="no"?>
<!DOCTYPE svg PUBLIC "-//W3C//DTD SVG 1.1//EN" "http://www.w3.org/Graphics/SVG/1.1/DTD/svg11.dtd" >
<svg xmlns="http://www.w3.org/2000/svg" xmlns:xlink="http://www.w3.org/1999/xlink" version="1.1" viewBox="-11 0 2215 2048">
   <path fill="currentColor"
d="M1755 476q0 -16 10.5 -26.5t26.5 -10.5h329q30 0 51.5 22t21.5 52v329q0 16 -10.5 26t-25.5 10h-73q-16 0 -26.5 -10.5t-10.5 -25.5v-153l-290 291q86 108 122 244t11 283q-36 208 -190 356.5t-363 177.5q-120 17 -235.5 -8.5t-208 -84.5t-163.5 -147t-108 -194
q-133 -7 -252 -65.5t-203 -152t-129.5 -220t-37.5 -262.5q11 -155 90 -288t208 -218.5t283 -102.5q135 -16 260.5 21.5t226.5 117.5l291 -290h-153q-16 0 -26.5 -10.5t-10.5 -26.5v-73q0 -16 10.5 -26t26.5 -10h329q30 0 51.5 21.5t21.5 51.5v329q0 16 -10 26t-26 10h-74
q-16 0 -26 -10t-10 -26v-153l-290 291q67 84 106 193q208 10 375 142l291 -290h-153q-16 0 -26.5 -10.5t-10.5 -26.5v-73zM1170 951q0 -22 -4 -66q-122 19 -221 89.5t-156.5 180t-57.5 235.5q0 12 5 67q122 -19 221 -90t156 -180.5t57 -235.5zM146 951q0 126 58.5 237
t160 182t224.5 88q-4 -44 -4 -68q0 -119 41.5 -229t113.5 -194.5t172 -143.5t214 -80q-61 -136 -187.5 -220t-280.5 -84q-104 0 -198.5 40.5t-163 109t-109.5 163.5t-41 199zM1243 1901q104 0 198.5 -40.5t163 -109t109.5 -163.5t41 -198q0 -127 -58.5 -237.5t-159.5 -181
t-224 -87.5q4 44 4 67q0 118 -41.5 228.5t-113.5 195t-172 143.5t-214 80q61 136 187 219.5t280 83.5z" />
</svg>
