<?xml version="1.0" standalone="no"?>
<!DOCTYPE svg PUBLIC "-//W3C//DTD SVG 1.1//EN" "http://www.w3.org/Graphics/SVG/1.1/DTD/svg11.dtd" >
<svg xmlns="http://www.w3.org/2000/svg" xmlns:xlink="http://www.w3.org/1999/xlink" version="1.1" viewBox="-11 0 2361 2048">
   <path fill="currentColor"
d="M1901 37q0 -16 10 -26t26 -10h329q30 0 52 21.5t22 51.5v329q0 16 -10.5 26t-26.5 10h-73q-16 0 -26.5 -10t-10.5 -26v-153l-290 291q87 109 123 244.5t11 282.5q-36 205 -188.5 354t-358.5 180q-127 19 -247 -8.5t-220 -94.5q-135 89 -292 106v151h110q15 0 26 10.5
t11 25.5v73q0 16 -11 26t-26 10h-110v110q0 16 -10.5 26.5t-25.5 10.5h-73q-16 0 -26.5 -10.5t-10.5 -26.5v-110h-110q-16 0 -26 -10t-10 -26v-73q0 -15 10 -25.5t26 -10.5h110v-151q-133 -15 -249 -81t-195.5 -165.5t-116.5 -231t-17 -269.5q19 -141 95 -260.5
t194.5 -197.5t258.5 -99q128 -19 248 8.5t220 94.5q167 -111 366 -111q114 0 219 38t191 106l291 -290h-153q-16 0 -26 -10.5t-10 -26.5v-73zM1023 1309q69 -72 107.5 -164t38.5 -194t-38 -194t-108 -163q-69 71 -107 163t-38 194t38 194t107 164zM146 951q0 104 40.5 198.5
t109 163t163.5 109.5t199 41q133 0 248 -65q-83 -91 -129 -205.5t-46 -241.5t46 -241t129 -205q-117 -66 -248 -66q-104 0 -199 40.5t-163.5 109t-109 163.5t-40.5 199zM1389 1463q104 0 199 -41t163.5 -109.5t109 -163t40.5 -198.5t-40.5 -199t-109 -163.5t-163.5 -109
t-199 -40.5q-131 0 -249 66q84 91 130 205t46 241t-46 241.5t-130 205.5q116 65 249 65z" />
</svg>
