<?xml version="1.0" standalone="no"?>
<!DOCTYPE svg PUBLIC "-//W3C//DTD SVG 1.1//EN" "http://www.w3.org/Graphics/SVG/1.1/DTD/svg11.dtd" >
<svg xmlns="http://www.w3.org/2000/svg" xmlns:xlink="http://www.w3.org/1999/xlink" version="1.1" viewBox="-10 0 1337 2048">
   <path fill="currentColor"
d="M731 737q122 14 230 70.5t186.5 142.5t124 200.5t45.5 239.5q0 95 -27 186t-75 166.5t-116.5 137t-148.5 101t-174.5 56.5t-192.5 6q-152 -16 -281 -99.5t-208.5 -215t-91.5 -284.5q-10 -133 31 -257.5t119.5 -218t191.5 -155.5t241 -76v-151h-183q-16 0 -26 -10.5
t-10 -26.5v-73q0 -16 10 -26.5t26 -10.5h183v-188l-105 105q-11 11 -25.5 11t-25.5 -11l-53 -53q-10 -10 -10 -25t10 -26l231 -230q22 -22 51.5 -22t51.5 22l231 230q10 11 10 26t-10 25l-53 53q-11 11 -25.5 11t-25.5 -11l-106 -105v188h183q16 0 26.5 10.5t10.5 26.5v73
q0 16 -10.5 26.5t-26.5 10.5h-183v151zM658 1901q104 0 198.5 -40.5t163 -109t109.5 -163.5t41 -198.5t-41 -198.5t-109.5 -163.5t-163 -109t-198.5 -40.5t-198.5 40.5t-163.5 109t-109.5 163.5t-40.5 198.5t40.5 198.5t109.5 163.5t163.5 109t198.5 40.5z" />
</svg>
