<?xml version="1.0" standalone="no"?>
<!DOCTYPE svg PUBLIC "-//W3C//DTD SVG 1.1//EN" "http://www.w3.org/Graphics/SVG/1.1/DTD/svg11.dtd" >
<svg xmlns="http://www.w3.org/2000/svg" xmlns:xlink="http://www.w3.org/1999/xlink" version="1.1" viewBox="-11 0 2214 2048">
   <path fill="currentColor"
d="M2172 1046q21 22 21 51.5t-21 51.5l-336 336q-11 11 -26.5 11t-25.5 -11l-51 -51q-12 -11 -12 -26.5t12 -25.5l211 -211h-336v256q0 15 -10 25.5t-26 10.5h-74q-16 0 -26 -10.5t-10 -25.5v-256h-151q-14 121 -71 229.5t-143 186.5t-200.5 123.5t-239.5 45.5
q-96 0 -186.5 -27t-165.5 -75t-136.5 -116.5t-101.5 -148.5t-57 -175t-6 -192q17 -153 100.5 -281t215 -207.5t284.5 -91.5q133 -11 257.5 30.5t218 120t155.5 191.5t76 241h151v-256q0 -16 10 -26.5t26 -10.5h74q15 0 25.5 10.5t10.5 26.5v256h336l-211 -212
q-12 -11 -12 -26t12 -25l51 -52q10 -11 25.5 -11t26.5 11zM657 1610q104 0 198.5 -41t163.5 -109.5t109.5 -163t40.5 -198.5t-40.5 -199t-109.5 -163.5t-163.5 -109t-198.5 -40.5t-198.5 40.5t-163 109t-109.5 163.5t-41 199t41 198.5t109.5 163t163 109.5t198.5 41z" />
</svg>
