<?xml version="1.0" standalone="no"?>
<!DOCTYPE svg PUBLIC "-//W3C//DTD SVG 1.1//EN" "http://www.w3.org/Graphics/SVG/1.1/DTD/svg11.dtd" >
<svg xmlns="http://www.w3.org/2000/svg" xmlns:xlink="http://www.w3.org/1999/xlink" version="1.1" viewBox="-10 0 1337 2048">
   <path fill="currentColor"
d="M1317 659q0 124 -46 239t-124 201t-186.5 143t-229.5 71v698q0 16 -10.5 26.5t-25.5 10.5h-73q-16 0 -26.5 -10.5t-10.5 -26.5v-698q-122 -14 -230 -71t-186 -143t-123.5 -201t-45.5 -239q0 -134 52 -255.5t140.5 -210t210 -140.5t255 -52t255.5 52t210.5 140.5t141 210
t52.5 255.5zM658 1171q104 0 198.5 -41t163 -109.5t109.5 -163t41 -198.5t-41 -198.5t-109.5 -163.5t-163 -109.5t-198.5 -40.5t-199 40.5t-163.5 109.5t-109 163.5t-40.5 198.5t40.5 198.5t109 163t163.5 109.5t199 41z" />
</svg>
