<?xml version="1.0" standalone="no"?>
<!DOCTYPE svg PUBLIC "-//W3C//DTD SVG 1.1//EN" "http://www.w3.org/Graphics/SVG/1.1/DTD/svg11.dtd" >
<svg xmlns="http://www.w3.org/2000/svg" xmlns:xlink="http://www.w3.org/1999/xlink" version="1.1" viewBox="-10 0 1337 2048">
   <path fill="currentColor"
d="M1170 1098q0 -104 -41 -199t-109.5 -163.5t-163 -109t-198.5 -40.5t-199 40.5t-163.5 109t-109 163.5t-40.5 199t40.5 198.5t109 163t163.5 109.5t199 41t198.5 -41t163 -109.5t109.5 -163t41 -198.5zM1317 1097.5q0 133.5 -52.5 255.5t-141 210t-210.5 140.5
t-255.5 52.5t-255 -52.5t-210 -140.5t-140.5 -210t-52 -255.5t52 -255.5t140 -210t210 -140.5t255.5 -52.5t255.5 52.5t210.5 140.5t141 210t52.5 255.5z" />
</svg>
