<?xml version="1.0" standalone="no"?>
<!DOCTYPE svg PUBLIC "-//W3C//DTD SVG 1.1//EN" "http://www.w3.org/Graphics/SVG/1.1/DTD/svg11.dtd" >
<svg xmlns="http://www.w3.org/2000/svg" xmlns:xlink="http://www.w3.org/1999/xlink" version="1.1" viewBox="-10 0 1775 2048">
   <path fill="currentColor"
d="M1658 146q40 0 68.5 28.5t28.5 69.5v1560q0 41 -28.5 69.5t-68.5 28.5h-447v-680h228l34 -266h-262v-168q0 -65 27 -96.5t105 -31.5l139 -2v-236q-80 -10 -203 -10q-155 0 -248.5 91.5t-93.5 258.5v194h-228v266h228v680h-840q-41 0 -69 -28.5t-28 -69.5v-1560
q0 -41 28 -69.5t69 -28.5h1561z" />
</svg>
