<?xml version="1.0" standalone="no"?>
<!DOCTYPE svg PUBLIC "-//W3C//DTD SVG 1.1//EN" "http://www.w3.org/Graphics/SVG/1.1/DTD/svg11.dtd" >
<svg xmlns="http://www.w3.org/2000/svg" xmlns:xlink="http://www.w3.org/1999/xlink" version="1.1" viewBox="-10 0 1483 2048">
   <path fill="currentColor"
d="M0 756q0 -124 43 -233t118 -190t173.5 -140.5t212 -89t230.5 -29.5q107 0 209 28t188 83t151 130t101.5 174t36.5 209q0 91 -15.5 179.5t-46 173t-80 156t-112.5 125.5t-148.5 85t-183.5 31q-77 0 -154 -37t-110 -101q-12 46 -28.5 115.5t-24 97.5t-21 76.5t-23.5 72.5
t-27 62.5t-37 70.5t-47 73t-64 92l-16 4l-11 -10q-2 -17 -5.5 -53t-5.5 -56.5t-4 -50.5t-2 -56q0 -81 19 -195t40 -201.5t54.5 -217t46.5 -182.5q-36 -72 -36 -194q0 -59 24.5 -118t74 -100.5t111.5 -41.5q69 0 108 46t39 116q0 76 -50 218.5t-50 213.5q0 73 51.5 120.5
t124.5 47.5q63 0 116.5 -29t90 -78t64 -108.5t43 -126.5t23 -127t7.5 -113q0 -133 -59.5 -228.5t-160.5 -142.5t-232 -47q-112 0 -211 39t-170 107t-112.5 166t-41.5 210q0 51 14 98t31.5 74.5t31.5 52t14 35.5q0 32 -17.5 83t-42.5 51q-1 0 -19 -4q-58 -17 -103 -63.5
t-70 -107.5t-37.5 -123.5t-12.5 -121.5z" />
</svg>
