<?xml version="1.0" standalone="no"?>
<!DOCTYPE svg PUBLIC "-//W3C//DTD SVG 1.1//EN" "http://www.w3.org/Graphics/SVG/1.1/DTD/svg11.dtd" >
<svg xmlns="http://www.w3.org/2000/svg" xmlns:xlink="http://www.w3.org/1999/xlink" version="1.1" viewBox="-10 0 1775 2048">
   <path fill="currentColor"
d="M1126 1114q14 0 110.5 50t102.5 60q3 10 3 18q0 34 -20 86q-18 45 -80.5 75.5t-116.5 30.5q-36 0 -100.5 -23.5t-117.5 -48.5q-112 -50 -194.5 -134t-168.5 -212q-82 -122 -81 -222v-8q3 -106 84 -182q27 -24 60 -24q7 0 20.5 1t21.5 1q22 0 30.5 8t17.5 32q8 20 37 99.5
t29 86.5q0 24 -39 66t-39 52q0 8 5 18q37 80 117 156q68 64 172 116q13 8 26 8q14 0 38 -27.5t47.5 -55t35.5 -27.5zM894 1718q145 0 278 -56.5t229 -153t153 -229t57 -278t-57 -278.5t-153 -229t-229 -153t-278 -57t-278 57t-229.5 153t-153.5 229t-57 279q0 232 137 420
l-90 266l276 -88q179 118 395 118zM894 140q117 0 228.5 31t206 86.5t174 135t135 174t86.5 206.5t31 228.5t-31 228.5t-86.5 206t-135 173.5t-174 135.5t-206 86.5t-228.5 30.5q-224 0 -417 -106l-477 152l155 -462q-123 -204 -123 -444q0 -117 31 -229t86.5 -206.5
t135.5 -174t174.5 -135t206 -86.5t228.5 -31z" />
</svg>
