<?xml version="1.0" standalone="no"?>
<!DOCTYPE svg PUBLIC "-//W3C//DTD SVG 1.1//EN" "http://www.w3.org/Graphics/SVG/1.1/DTD/svg11.dtd" >
<svg xmlns="http://www.w3.org/2000/svg" xmlns:xlink="http://www.w3.org/1999/xlink" version="1.1" viewBox="-10 0 2361 2048">
   <path fill="currentColor"
d="M805 1024q-89 0 -170.5 -34.5t-140 -93.5t-93.5 -140t-35 -170.5t35 -170.5t93.5 -140t140 -94t170.5 -35t170 35t140 94t93.5 140t34.5 170.5t-34.5 170.5t-93.5 140t-140 93.5t-170 34.5zM1902 1170h402q14 0 25.5 11t11.5 25v220q0 15 -11.5 25.5t-25.5 10.5h-402v404
q0 14 -11.5 25t-25.5 11h-219q-14 0 -25.5 -11t-11.5 -25v-404h-402q-14 0 -25.5 -10.5t-11.5 -25.5v-220q0 -14 11.5 -25t25.5 -11h402v-402q0 -14 11.5 -25t25.5 -11h219q14 0 25.5 11t11.5 25v402zM1061 1426q0 60 43 103t103 43h292v272q-78 58 -195 58h-999
q-139 0 -222 -79.5t-83 -216.5q0 -61 4 -118.5t15.5 -124.5t30 -124t49.5 -111.5t71 -92.5t98 -61.5t127 -23.5q20 0 45 20q90 70 176 105t188.5 35t188.5 -35t176 -105q25 -20 45 -20q150 0 248 110h-255q-60 0 -103 43t-43 103v220z" />
</svg>
