<?xml version="1.0" standalone="no"?>
<!DOCTYPE svg PUBLIC "-//W3C//DTD SVG 1.1//EN" "http://www.w3.org/Graphics/SVG/1.1/DTD/svg11.dtd" >
<svg xmlns="http://www.w3.org/2000/svg" xmlns:xlink="http://www.w3.org/1999/xlink" version="1.1" viewBox="-10 0 2350 2048">
   <path fill="currentColor"
d="M805 1024q-89 0 -170.5 -34.5t-140 -93.5t-93.5 -140t-35 -170.5t35 -170.5t93.5 -140t140 -94t170.5 -35t170 35t140 94t93.5 140t34.5 170.5t-34.5 170.5t-93.5 140t-140 93.5t-170 34.5zM2035 1390l285 284q10 10 10 26t-10 26l-155 156q-10 10 -26 10t-26 -10
l-284 -286l-285 286q-10 10 -26 10q-15 0 -25 -10l-156 -156q-10 -10 -10 -26t10 -26l285 -284l-285 -284q-10 -10 -10 -28q0 -14 10 -24l156 -156q10 -10 25 -10q16 0 26 10l285 284l284 -284q10 -10 26 -10t26 10l155 156q10 10 10 24q0 18 -10 28zM1466 1390l-207 206
q-42 42 -42 104t42 104l95 94q-24 4 -50 4h-999q-139 0 -222 -79.5t-83 -216.5q0 -61 4 -118.5t15.5 -124.5t30 -124t49.5 -111.5t71 -92.5t98 -61.5t127 -23.5q20 0 45 20q87 69 174.5 104.5t190.5 35.5t190 -35.5t174 -104.5q25 -20 45 -20q34 0 65 8q-33 31 -47.5 56.5
t-14.5 63.5q0 62 42 104z" />
</svg>
