<?xml version="1.0" standalone="no"?>
<!DOCTYPE svg PUBLIC "-//W3C//DTD SVG 1.1//EN" "http://www.w3.org/Graphics/SVG/1.1/DTD/svg11.dtd" >
<svg xmlns="http://www.w3.org/2000/svg" xmlns:xlink="http://www.w3.org/1999/xlink" version="1.1" viewBox="-10 0 2361 2048">
   <path fill="currentColor"
d="M293 1170h1974q30 0 52 22t22 52v512h-293v-294h-1755v294h-293v-1390q0 -30 21.5 -52t51.5 -22h146q30 0 52 22t22 52v804zM951 804.5q0 -120.5 -86 -206.5t-207 -86t-206.5 86t-85.5 206.5t85.5 207t206.5 86.5t207 -86.5t86 -207zM2341 1098v-74q0 -89 -35 -170
t-93.5 -140t-140 -93.5t-170.5 -34.5h-805q-30 0 -51.5 21t-21.5 51v440h1317z" />
</svg>
