<?xml version="1.0" standalone="no"?>
<!DOCTYPE svg PUBLIC "-//W3C//DTD SVG 1.1//EN" "http://www.w3.org/Graphics/SVG/1.1/DTD/svg11.dtd" >
<svg xmlns="http://www.w3.org/2000/svg" xmlns:xlink="http://www.w3.org/1999/xlink" version="1.1" viewBox="-10 0 1775 2048">
   <path fill="currentColor"
d="M1243 0q139 0 257 48.5t186.5 133t68.5 183.5v1024q0 148 -143 254t-349 111l243 231q18 17 9 40t-34 23h-1207q-25 0 -34 -23t9 -40l244 -231q-206 -5 -349.5 -111t-143.5 -254v-1024q0 -99 68.5 -183.5t186.5 -133t257 -48.5h731zM329 1499q76 0 129.5 -53.5
t53.5 -129.5t-53.5 -129.5t-129.5 -53.5t-129.5 53.5t-53.5 129.5t53.5 129.5t129.5 53.5zM805 877v-585h-622v585h622zM1426 1499q76 0 129.5 -53.5t53.5 -129.5t-53.5 -129.5t-129.5 -53.5t-129.5 53.5t-53.5 129.5t53.5 129.5t129.5 53.5zM1609 877v-585h-658v585h658z
" />
</svg>
