<?xml version="1.0" standalone="no"?>
<!DOCTYPE svg PUBLIC "-//W3C//DTD SVG 1.1//EN" "http://www.w3.org/Graphics/SVG/1.1/DTD/svg11.dtd" >
<svg xmlns="http://www.w3.org/2000/svg" xmlns:xlink="http://www.w3.org/1999/xlink" version="1.1" viewBox="-11 0 2458 2048">
   <path fill="currentColor"
d="M452 1918q-9 18 -30.5 39t-42.5 29q-29 10 -59 -4.5t-32 -35.5q-1 -25 45.5 -63t77.5 -43q26 -5 39 24t2 54zM1985 1918q8 18 29.5 39t43.5 29q28 10 58.5 -4.5t31.5 -35.5q2 -25 -45 -62.5t-78 -43.5q-25 -5 -37.5 24.5t-2.5 53.5zM2040 1793q16 30 65.5 67.5t87.5 48.5
q52 14 94 -6t42 -57q0 -35 -38.5 -78t-87.5 -72.5t-83 -32.5q-22 -3 -42 10t-30.5 33.5t-14 44t6.5 42.5zM395 1793q-16 30 -65 67.5t-87 48.5q-52 14 -94 -6t-42 -57q0 -35 38.5 -78t88 -72.5t82.5 -32.5q23 -3 42.5 10t30 33.5t14 44t-7.5 42.5zM1229 509h2q-47 0 -87 17
q30 10 49.5 35t19.5 56q0 40 -30.5 68.5t-74.5 28.5q-29 0 -53 -13.5t-38 -35.5q-6 32 -6 48q0 85 63.5 145t154.5 60t155.5 -60.5t64.5 -145t-64.5 -144t-155.5 -59.5zM1577 260q-113 -125 -252 -151t-281 51q19 -44 52.5 -76.5t73.5 -51.5t85 -25.5t89 -0.5t85 25.5t73 50
t52 76.5t23 102zM2434 1676q8 11 -13 48q8 24 8 45q1 48 -30 98.5t-77.5 88t-101.5 62.5t-101 27q-55 2 -105.5 -25.5t-75.5 -74.5q-796 28 -1439 0q-26 47 -76 74t-106 26q-45 -2 -100 -27t-101.5 -62.5t-78 -88t-30.5 -98.5q2 -26 8 -45q-21 -37 -13 -48q9 -12 35 -2
q16 -25 47 -58q-8 -32 3 -43q13 -12 44 4q31 -23 68 -39q0 -33 14 -42q10 -6 27 -1.5t32 19.5q40 -5 69 3q20 4 44 21v-83q-13 0 -21 -2q-61 -12 -110.5 -51.5t-62.5 -99.5q-10 -44 0 -93q17 -71 106 -108q2 -19 22 -40.5t41 -27.5q22 -6 37.5 8t21.5 36h15q52 5 69 26
q2 2 5 8q12 -1 35.5 -4t34.5 -4q-14 -12 -34 -19q-15 -27 -40.5 -38t-63.5 -12q0 -6 1 -11q-70 -2 -135 -21t-97 -54q-37 -41 -48.5 -106t-3.5 -128q8 -62 33.5 -117.5t69.5 -86.5q26 -19 59 -5.5t37 46.5q0 1 1 10t1.5 15.5t2 16.5t3 18t4 15.5t5.5 13t7 7.5q33 15 87 14
q54 -53 112 -85q-26 -1 -37.5 -2t-36.5 2t-36.5 4.5t-37 5.5t-37.5 6l54 -52q73 -69 186 -127q169 -85 322 -99q-23 -10 -47 -18t-54 -16t-47.5 -12t-55 -12.5t-48.5 -10.5q679 -145 1033 159q113 95 180 253q97 12 139 -10h1q16 -9 24 -96q4 -32 37 -45.5t59 5.5
q44 31 70 86t34 117q8 65 -4 129.5t-49 104.5q-32 36 -95.5 55t-131.5 21v12q-39 1 -66 11.5t-43 37.5q-19 7 -35 19q12 1 36 4t35 4q2 -6 5 -9q18 -21 69 -26h15q6 -21 22 -35t37 -9q22 5 41.5 26.5t21.5 41.5q89 35 106 108q11 48 2 93q-13 60 -63.5 100t-111.5 51
q-12 2 -20 2q0 56 -1 83q24 -18 44 -21q29 -8 69 -3q15 -15 32.5 -19.5t26.5 1.5q16 10 16 42q37 17 67 39q30 -15 43 -4q13 12 3 43q32 34 47 58q25 -10 35 2zM2120 588q0 32 -11 61q94 37 128 151q5 -42 -10.5 -112.5t-47.5 -103.5q-23 -22 -41 -19t-18 23zM2031 702
q40 48 54 124t-1 142q76 -15 111 -51q13 -15 21 -32q-4 -73 -36 -131t-90 -76q-18 18 -59 24zM1988 706q-34 0 -50 -1q49 133 61 273q24 0 49 -3q19 -78 1.5 -155t-61.5 -114zM201 800q34 -114 128 -151q-10 -26 -10 -61q0 -20 -18.5 -23t-41.5 19q-32 33 -47.5 103
t-10.5 113zM242 917q33 35 111 51q-15 -66 -0.5 -142t54.5 -124v0q-42 -6 -60 -24q-58 18 -89.5 75.5t-36.5 131.5q12 21 21 32zM444 978q15 -141 84 -268q-26 6 -63 20l-52 22v-1q-24 45 -30 104.5t8 119.5q29 3 53 3zM1545 1023q9 44 19.5 128t12.5 98q4 20 11.5 24.5
t26.5 -4.5q46 -23 71 -98t26 -143q-55 -3 -167 -5zM1223 290q-87 0 -161.5 43t-118 117.5t-43.5 161.5t43.5 161.5t118 117.5t161.5 43t161 -43t117.5 -117.5t43.5 -161.5t-43 -161.5t-117.5 -117.5t-161.5 -43zM1483 1021q-120 -2 -241 0v-1q-1 32 3 98t15 75
q33 16 107 16.5t109 -11.5q10 -3 12 -44.5t0 -78.5t-5 -54zM1177 1248q9 -5 11 -55t0 -101t-5 -71v-1q-244 3 -245 3q-5 22 -8 70.5t0.5 95.5t15.5 52q39 17 115.5 18t115.5 -11zM727 1032q-19 68 4 135.5t89 96.5q17 9 27.5 5.5t13.5 -23.5q4 -19 10 -104t11 -117
q-54 1 -155 7zM581 1176q3 27 -38 41q150 162 310 275t349 176q103 -29 198 -75t181.5 -109t156 -124t154.5 -145q-37 -14 -34 -39q1 -3 3 -10v-1v1q-19 -2 -56.5 -6.5t-55.5 -5.5q-29 99 -90 148q-56 44 -92 7q-9 -9 -15 -21q-7 -14 -20 -71q-10 22 -31.5 28.5t-63.5 8.5
q-6 1 -9 1q-117 10 -186 -13q-8 35 -29 45t-74 15q-6 0 -10 1q-204 21 -232 -46q-3 64 -54 63q-50 -2 -104 -52q-21 -20 -33 -40q-18 -31 -30 -75q-49 4 -99 12q1 1 4 11zM485 1894q4 -20 4 -34q-20 -81 -59 -149t-83 -80q-35 -11 -85 5.5t-94.5 49t-74.5 81t-26 95.5
q40 61 114.5 106t135.5 48q58 2 107 -32.5t61 -89.5zM489 1698q27 73 31 136q221 -128 448 -198q-111 -60 -206.5 -138.5t-205.5 -187.5l-33 15q0 1 -0.5 4.5t-1.5 5.5q35 20 25 42q-14 26 -64 39q-12 14 -33 28h-1q-2 95 1 171q25 45 40 83zM568 1888q615 24 1308 0
q-139 -81 -254 -136t-235 -88q-91 40 -178 65q-9 3 -18 0q-81 -26 -148 -56q-233 67 -475 215h-1v1q1 0 1 -1zM1921 1836q4 -62 32 -138q16 -43 38 -81l-2 1q4 -116 4 -174q-15 -8 -34 -29q-20 -5 -38.5 -15.5t-25.5 -22.5q-10 -23 25 -43q-3 -6 -3 -10q-17 -4 -32 -14
q-230 215 -437 324q219 65 473 202zM2369 1862q5 -47 -24.5 -95.5t-74 -81t-95.5 -49t-86 -5.5q-44 12 -83 80t-59 149q0 14 4 34q12 55 61 89.5t107 32.5q61 -3 135.5 -48t114.5 -106z" />
</svg>
