<?xml version="1.0" standalone="no"?>
<!DOCTYPE svg PUBLIC "-//W3C//DTD SVG 1.1//EN" "http://www.w3.org/Graphics/SVG/1.1/DTD/svg11.dtd" >
<svg xmlns="http://www.w3.org/2000/svg" xmlns:xlink="http://www.w3.org/1999/xlink" version="1.1" viewBox="-10 0 2652 2048">
   <path fill="currentColor"
d="M1742 1784q0 78 -55 133t-133 55t-133 -55t-55 -133t55 -133t133 -55t133 55t55 133zM886 1784q0 78 -55.5 133t-133.5 55t-132.5 -55t-54.5 -133t54.5 -133t132.5 -55t133.5 55t55.5 133zM0 76q65 69 126.5 120t138.5 94t155 72t189.5 51.5t229 35.5t286 21.5t347 11
t425.5 2.5q549 0 682 81q94 57 20 173q-60 92 -277 281q-52 45 -169 144q-211 180 -327 283q61 -106 224 -276q136 -141 167 -178q104 -124 79 -191q-39 -104 -410 -126q-147 -9 -351 -5q-191 2 -357 -7.5t-291 -25.5t-234 -47t-182.5 -57.5t-140.5 -71.5t-104.5 -75.5
t-78 -81.5t-57.5 -78t-46 -77t-44 -73z" />
</svg>
