<?xml version="1.0" standalone="no"?>
<!DOCTYPE svg PUBLIC "-//W3C//DTD SVG 1.1//EN" "http://www.w3.org/Graphics/SVG/1.1/DTD/svg11.dtd" >
<svg xmlns="http://www.w3.org/2000/svg" xmlns:xlink="http://www.w3.org/1999/xlink" version="1.1" viewBox="-10 0 2653 2048">
   <path fill="currentColor"
d="M2194 586v876h-1901v-876h1901zM2341 1244h146v-440h-146v-328q0 -16 -10.5 -27t-26.5 -11h-2121q-16 0 -26.5 11t-10.5 27v1096q0 16 10.5 27t26.5 11h2121q16 0 26.5 -11t10.5 -27v-328zM2633 804v440q0 60 -42.5 103t-103.5 43v182q0 76 -53.5 130t-129.5 54h-2121
q-76 0 -129.5 -54t-53.5 -130v-1096q0 -76 53.5 -130t129.5 -54h2121q76 0 129.5 54t53.5 130v182q61 0 103.5 43t42.5 103z" />
</svg>
