<?xml version="1.0" standalone="no"?>
<!DOCTYPE svg PUBLIC "-//W3C//DTD SVG 1.1//EN" "http://www.w3.org/Graphics/SVG/1.1/DTD/svg11.dtd" >
<svg xmlns="http://www.w3.org/2000/svg" xmlns:xlink="http://www.w3.org/1999/xlink" version="1.1" viewBox="-10 0 2653 2048">
   <path fill="currentColor"
d="M2633 877h-146v732h146v439h-439v-147h-1024v147h-439v-439h147v-147h-439v147h-439v-439h146v-732h-146v-438h439v146h1024v-146h439v438h-147v147h439v-147h439v439zM2341 585v146h146v-146h-146zM1609 146v146h146v-146h-146zM146 146v146h147v-146h-147zM293 1462
v-146h-147v146h147zM1755 1316h-146v146h146v-146zM439 1316h1024v-146h146v-732h-146v-146h-1024v146h-146v732h146v146zM1024 1901v-146h-146v146h146zM2487 1901v-146h-146v146h146zM2341 1609v-732h-147v-146h-439v439h147v439h-439v-147h-439v147h146v146h1024v-146
h147z" />
</svg>
