<?xml version="1.0" standalone="no"?>
<!DOCTYPE svg PUBLIC "-//W3C//DTD SVG 1.1//EN" "http://www.w3.org/Graphics/SVG/1.1/DTD/svg11.dtd" >
<svg xmlns="http://www.w3.org/2000/svg" xmlns:xlink="http://www.w3.org/1999/xlink" version="1.1" viewBox="-10 0 2653 2048">
   <path fill="currentColor"
d="M2230 1140q0 30 -18 51.5t-44 26.5q-10 2 -21 2h-174v-160h174q11 0 21 2q26 6 44 27.5t18 50.5zM2209 897.5q0 28.5 -17 48t-43 24.5h-18h-158v-148h158q3 0 10 1t8 1q26 5 43 25t17 48.5zM832 1084v-352h-261v352q0 67 -43 108.5t-120 41.5q-121 0 -262 -68v128
q61 17 138.5 26.5t125.5 10.5l47 1q375 0 375 -248zM1648 1294v-128q-113 59 -229 68q-123 9 -192.5 -47t-69.5 -163t69.5 -163t192.5 -47q114 9 229 68v-128q-54 -14 -113.5 -23t-92.5 -11l-32 -2q-117 -6 -208 8.5t-148 43t-94 70.5t-51.5 87t-14.5 97.5t14.5 97.5
t51.5 87t94 70t148 42.5t208 8.5q116 -5 238 -36zM2487 1164q0 -63 -49 -102t-125 -44v-4q65 -10 101.5 -48.5t36.5 -89.5q0 -64 -47 -101.5t-122 -40.5q-3 0 -13.5 -1t-15.5 -1h-520v584h561q85 0 139 -42t54 -110zM2633 292v1464q0 60 -43 103t-103 43h-2341
q-60 0 -103 -43t-43 -103v-1464q0 -60 43 -103t103 -43h2341q60 0 103 43t43 103z" />
</svg>
