<?xml version="1.0" standalone="no"?>
<!DOCTYPE svg PUBLIC "-//W3C//DTD SVG 1.1//EN" "http://www.w3.org/Graphics/SVG/1.1/DTD/svg11.dtd" >
<svg xmlns="http://www.w3.org/2000/svg" xmlns:xlink="http://www.w3.org/1999/xlink" version="1.1" viewBox="-10 0 2653 2048">
   <path fill="currentColor"
d="M981 1418v-792q-121 48 -196.5 155.5t-75.5 241t75.5 241.5t196.5 154zM1557 1022.5q0 -133.5 -75.5 -241t-196.5 -155.5v794q121 -48 196.5 -156t75.5 -241.5zM1802 1022q0 136 -53 260t-142.5 214t-213.5 143t-260 53t-260 -53t-214 -143t-143 -214t-53 -260t53 -260
t143 -213.5t214 -142t260 -52.5t260 52.5t213.5 142t142.5 213.5t53 260zM2240 1030q0 -128 -41 -244t-113.5 -204.5t-168 -154.5t-209.5 -100.5t-233 -34.5h-344q-151 0 -286 54.5t-235 150.5t-158.5 234.5t-58.5 298.5q0 147 59 281.5t158 231.5t235.5 155t285.5 58h344
q99 0 195.5 -26.5t180.5 -73t156 -114t123.5 -146.5t80.5 -173.5t29 -192.5zM2633 292v1464q0 60 -43 103t-103 43h-2341q-60 0 -103 -43t-43 -103v-1464q0 -60 43 -103t103 -43h2341q60 0 103 43t43 103z" />
</svg>
