<?xml version="1.0" standalone="no"?>
<!DOCTYPE svg PUBLIC "-//W3C//DTD SVG 1.1//EN" "http://www.w3.org/Graphics/SVG/1.1/DTD/svg11.dtd" >
<svg xmlns="http://www.w3.org/2000/svg" xmlns:xlink="http://www.w3.org/1999/xlink" version="1.1" viewBox="-10 0 2507 2048">
   <path fill="currentColor"
d="M1975 512l-439 804h878zM512 512l-439 804h878zM1450 292q-17 47 -52 82.5t-81 51.5v1475h694q16 0 26.5 10.5t10.5 26.5v73q0 16 -10.5 26.5t-26.5 10.5h-1536q-16 0 -26 -10.5t-10 -26.5v-73q0 -16 10 -26.5t26 -10.5h695v-1475q-46 -16 -81 -51.5t-52 -82.5h-562
q-16 0 -26 -10t-10 -26v-74q0 -16 10 -26t26 -10h562q24 -65 79.5 -105.5t126.5 -40.5t127 40.5t80 105.5h561q16 0 26.5 10t10.5 26v74q0 16 -10.5 26t-26.5 10h-561zM1243 310q38 0 65 -27t27 -64t-27 -64t-65 -27q-37 0 -64 27t-27 64t27 64t64 27zM2487 1316
q0 67 -35.5 124t-91 94t-125 62.5t-135.5 37t-125 11.5t-125 -11.5t-135.5 -37t-125 -62.5t-91 -94t-35.5 -124q0 -13 40.5 -93.5t105 -199t122 -223.5t116.5 -210t64 -114q21 -38 64 -38t64 38q5 9 64 114t116.5 210t122 223.5t105 199t40.5 93.5zM1024 1316
q0 67 -35.5 124t-91 94t-125 62.5t-135.5 37t-125 11.5t-125 -11.5t-135.5 -37t-125 -62.5t-91 -94t-35.5 -124q0 -13 40.5 -93.5t105 -199t122 -223.5t116.5 -210t64 -114q21 -38 64 -38t64 38q5 9 64 114t116.5 210t122 223.5t105 199t40.5 93.5z" />
</svg>
