<?xml version="1.0" standalone="no"?>
<!DOCTYPE svg PUBLIC "-//W3C//DTD SVG 1.1//EN" "http://www.w3.org/Graphics/SVG/1.1/DTD/svg11.dtd" >
<svg xmlns="http://www.w3.org/2000/svg" xmlns:xlink="http://www.w3.org/1999/xlink" version="1.1" viewBox="-10 0 1775 2048">
   <path fill="currentColor"
d="M1609 146q0 153 -34.5 293.5t-95 249.5t-135 193t-161.5 142q183 122 304.5 350.5t121.5 526.5h110q16 0 26 10.5t10 26.5v73q0 16 -10 26.5t-26 10.5h-1682q-16 0 -26.5 -10.5t-10.5 -26.5v-73q0 -16 10.5 -26.5t26.5 -10.5h109q0 -153 34.5 -293t95 -249.5t135.5 -193
t162 -141.5q-87 -58 -162 -142t-135.5 -193t-95 -249.5t-34.5 -293.5h-109q-16 0 -26.5 -10.5t-10.5 -26.5v-73q0 -16 10.5 -26t26.5 -10h1682q16 0 26 10t10 26v73q0 16 -10 26.5t-26 10.5h-110zM999 955q88 -33 170 -105.5t148 -174.5t106 -240t40 -289h-1170
q0 151 40 289t106 240t148 174.5t170 105.5q22 7 35 26.5t13 42.5t-13 42t-35 26q-88 33 -170 105.5t-148 174.5t-106 240t-40 289h1170q0 -151 -40 -289t-106 -240t-148 -174.5t-170 -105.5q-22 -7 -35 -26t-13 -42t13 -42.5t35 -26.5z" />
</svg>
