<?xml version="1.0" standalone="no"?>
<!DOCTYPE svg PUBLIC "-//W3C//DTD SVG 1.1//EN" "http://www.w3.org/Graphics/SVG/1.1/DTD/svg11.dtd" >
<svg xmlns="http://www.w3.org/2000/svg" xmlns:xlink="http://www.w3.org/1999/xlink" version="1.1" viewBox="-10 0 1775 2048">
   <path fill="currentColor"
d="M1609 146q0 153 -34.5 293.5t-95 249.5t-135 193t-161.5 142q183 122 304.5 350.5t121.5 526.5h110q16 0 26 10.5t10 26.5v73q0 16 -10 26.5t-26 10.5h-1682q-16 0 -26.5 -10.5t-10.5 -26.5v-73q0 -16 10.5 -26.5t26.5 -10.5h109q0 -153 34.5 -293t95 -249.5t135.5 -193
t162 -141.5q-87 -58 -162 -142t-135.5 -193t-95 -249.5t-34.5 -293.5h-109q-16 0 -26.5 -10.5t-10.5 -26.5v-73q0 -16 10.5 -26t26.5 -10h1682q16 0 26 10t10 26v73q0 16 -10 26.5t-26 10.5h-110zM1463 146h-1170q0 79 10 146h1150q10 -67 10 -146zM1463 1901
q0 -148 -39 -284.5t-103.5 -238t-144.5 -174t-167 -107.5h-263q-87 35 -167 107.5t-144.5 174t-103 238t-38.5 284.5h1170z" />
</svg>
