<?xml version="1.0" standalone="no"?>
<!DOCTYPE svg PUBLIC "-//W3C//DTD SVG 1.1//EN" "http://www.w3.org/Graphics/SVG/1.1/DTD/svg11.dtd" >
<svg xmlns="http://www.w3.org/2000/svg" xmlns:xlink="http://www.w3.org/1999/xlink" version="1.1" viewBox="-10 0 1775 2048">
   <path fill="currentColor"
d="M1719 1828q16 0 26 10.5t10 26.5v146q0 16 -10 26.5t-26 10.5h-1682q-16 0 -26.5 -10.5t-10.5 -26.5v-146q0 -16 10.5 -26.5t26.5 -10.5h1682zM149 1755q5 -80 28.5 -155.5t50 -131.5t81 -119t87 -98t104 -89.5t96.5 -71.5t98 -65l1 -1q-48 -32 -74 -49.5t-76 -54
t-80.5 -63t-75.5 -69t-73.5 -79t-61.5 -87t-52.5 -99.5t-34 -108.5t-18.5 -122.5h1458q-4 63 -18.5 122.5t-34 108.5t-52.5 99.5t-61.5 87t-73.5 79t-75.5 69t-80.5 63t-76 54t-74 49.5q182 121 272 203q257 233 274 528h-1458zM1719 0q16 0 26 10t10 26v146q0 16 -10 26.5
t-26 10.5h-1682q-16 0 -26.5 -10.5t-10.5 -26.5v-146q0 -16 10.5 -26t26.5 -10h1682z" />
</svg>
