<?xml version="1.0" standalone="no"?>
<!DOCTYPE svg PUBLIC "-//W3C//DTD SVG 1.1//EN" "http://www.w3.org/Graphics/SVG/1.1/DTD/svg11.dtd" >
<svg xmlns="http://www.w3.org/2000/svg" xmlns:xlink="http://www.w3.org/1999/xlink" version="1.1" viewBox="-10 0 1775 2048">
   <path fill="currentColor"
d="M878 438q-61 0 -104 43t-43 104v146h-36v-106q0 -55 -37 -93.5t-91 -38.5q-53 0 -90.5 37.5t-37.5 90.5v491l-37 -35v-196q0 -55 -37 -93.5t-91 -38.5q-53 0 -90.5 37.5t-37.5 90.5v256q0 54 40 94l355 338q44 44 44 117q0 30 21.5 51.5t51.5 21.5h732q30 0 51.5 -21.5
t21.5 -51.5v-29q0 -48 11 -88l124 -498q11 -40 11 -88v-281q0 -55 -37 -93.5t-91 -38.5q-53 0 -90.5 37.5t-37.5 90.5v37h-36v-143q0 -46 -28.5 -82.5t-73.5 -46.5q-16 -2 -26 -2q-53 0 -90.5 37.5t-37.5 90.5v146h-37v-139q0 -59 -37 -102.5t-94 -49.5q-12 -2 -15 -2z
M878 292q96 0 170 57q66 -39 141 -39q68 0 127.5 31.5t97.5 86.5q29 -8 67 -8q114 0 194 81.5t80 196.5v281q0 61 -14 123l-125 499q-7 27 -7 81q0 91 -64 155t-155 64h-732q-96 0 -157.5 -66.5t-61.5 -162.5l-352 -339q-41 -38 -64 -91t-23 -109v-256q0 -113 80.5 -193.5
t193.5 -80.5q13 0 19 1q7 -108 86.5 -182.5t187.5 -74.5q59 0 112 24q84 -79 199 -79z" />
</svg>
