<?xml version="1.0" standalone="no"?>
<!DOCTYPE svg PUBLIC "-//W3C//DTD SVG 1.1//EN" "http://www.w3.org/Graphics/SVG/1.1/DTD/svg11.dtd" >
<svg xmlns="http://www.w3.org/2000/svg" xmlns:xlink="http://www.w3.org/1999/xlink" version="1.1" viewBox="-10 0 1885 2048">
   <path fill="currentColor"
d="M1006 146q-53 0 -90.5 37.5t-37.5 90.5v750h-37v-604q0 -53 -37.5 -90.5t-90.5 -37.5t-90.5 37.5t-37.5 90.5v604v292l-176 -234q-42 -58 -116 -58q-61 0 -104 43t-43 103q0 49 30 88l439 585q42 58 116 58h787q40 0 70 -25.5t38 -63.5l87 -463q6 -44 6 -67v-569
q0 -53 -37.5 -90.5t-90.5 -37.5t-90.5 37.5t-37.5 90.5v311h-37v-604q0 -53 -37.5 -90.5t-90.5 -37.5t-90.5 37.5t-37.5 90.5v604h-36v-750q0 -53 -37.5 -90.5t-90.5 -37.5zM1006 0q77 0 143 40t101 110q21 -4 48 -4q113 0 194 80.5t81 193.5v20q120 -7 206 73t86 200v569
q0 48 -9 95l-87 461q-17 91 -88 150.5t-163 59.5h-787q-68 0 -130.5 -31.5t-103.5 -85.5l-439 -585q-58 -76 -58 -176q0 -121 86 -207t207 -86q88 0 146 39v-496q0 -113 80.5 -193.5t193.5 -80.5q27 0 48 4q35 -69 101 -109.5t144 -40.5z" />
</svg>
