<?xml version="1.0" standalone="no"?>
<!DOCTYPE svg PUBLIC "-//W3C//DTD SVG 1.1//EN" "http://www.w3.org/Graphics/SVG/1.1/DTD/svg11.dtd" >
<svg xmlns="http://www.w3.org/2000/svg" xmlns:xlink="http://www.w3.org/1999/xlink" version="1.1" viewBox="-10 0 2068 2048">
   <path fill="currentColor"
d="M1226 1901h-202q-186 0 -258 -161q-27 -59 -27 -116v-6q-71 -35 -112.5 -101.5t-41.5 -145.5q0 -44 6 -55h-298q-121 0 -207 -85.5t-86 -206.5t86 -207t207 -86h129l-51 -19q-84 -31 -136 -107t-52 -167q0 -121 85.5 -206.5t206.5 -85.5q56 0 104 19l718 273h458
q121 0 207 86t86 207v763q0 101 -62 180.5t-160 103.5l-387 97q-106 26 -213 26zM1170 1089l-177 81l-186 84q-35 16 -55.5 48t-20.5 69q0 53 37.5 90.5t90.5 37.5q31 0 53 -11l386 -176q-56 -12 -92 -57t-36 -103v-63zM1536 1444q0 -53 -37.5 -90.5t-90.5 -37.5
q-29 0 -53 12l-331 150q-31 14 -42 19.5t-35 20t-33.5 27t-18.5 33.5t-9 46q0 57 36 93.5t93 36.5q25 0 43 -10l403 -183q34 -16 54.5 -47.5t20.5 -69.5zM1271 585l-743 -284q-25 -9 -53 -9q-60 0 -103 42.5t-43 103.5q0 46 26 83.5t68 54.5l601 228v73h-731q-61 0 -104 43
t-43 104t43 103.5t104 42.5h611l266 -121v-227q0 -71 53 -121l127 -116h-79zM1226 1755q93 0 177 -22l388 -97q49 -12 80 -52t31 -90v-763q0 -61 -43 -103.5t-104 -42.5h-352l-155 144q-41 38 -41 93v339q0 53 37.5 88t90.5 35t90.5 -39.5t37.5 -92.5v-238h36v238
q0 80 -65 130q60 10 99.5 56t39.5 106q0 48 -26.5 89.5t-69.5 60.5l-355 161h104z" />
</svg>
