<?xml version="1.0" standalone="no"?>
<!DOCTYPE svg PUBLIC "-//W3C//DTD SVG 1.1//EN" "http://www.w3.org/Graphics/SVG/1.1/DTD/svg11.dtd" >
<svg xmlns="http://www.w3.org/2000/svg" xmlns:xlink="http://www.w3.org/1999/xlink" version="1.1" viewBox="-10 0 2361 2048">
   <path fill="currentColor"
d="M1315 0q70 0 133 32t104 88l654 892q135 183 135 410v406q0 91 -64.5 155.5t-155.5 64.5h-439q-91 0 -155 -64.5t-64 -155.5v-202l-327 -164h-624q-91 0 -155 -64t-64 -155v-37q0 -136 96.5 -232.5t232.5 -96.5h480l48 -146h-784q-114 0 -198 -77t-94 -190
q-74 -89 -74 -208v-37q0 -91 64 -155t155 -64h1096zM2194 1828v-406q0 -180 -106 -324l-655 -893q-43 -59 -118 -59h-1096q-30 0 -51.5 21.5t-21.5 51.5q0 37 1.5 57t11 46t28.5 49q11 -35 40.5 -57t65.5 -22h950v37h-950q-30 0 -52 21.5t-22 51.5q0 48 4 66
q10 50 50.5 83.5t92.5 33.5h731h104q46 0 78 31.5t32 77.5q0 15 -6 35l-73 219q-11 34 -40 55t-64 21h-506q-76 0 -129.5 53t-53.5 129v37q0 30 21.5 51.5t51.5 21.5h641q20 0 33 8l363 181q28 14 44 40.5t16 57.5v225q0 30 21.5 51.5t51.5 21.5h439q30 0 51.5 -21.5
t21.5 -51.5z" />
</svg>
