<?xml version="1.0" standalone="no"?>
<!DOCTYPE svg PUBLIC "-//W3C//DTD SVG 1.1//EN" "http://www.w3.org/Graphics/SVG/1.1/DTD/svg11.dtd" >
<svg xmlns="http://www.w3.org/2000/svg" xmlns:xlink="http://www.w3.org/1999/xlink" version="1.1" viewBox="-10 0 2214 2048">
   <path fill="currentColor"
d="M525 2048q-88 0 -157 -54.5t-91 -140.5l-116 -458q-15 -67 -15 -123t-5 -77l-133 -545q-8 -29 -8 -65q0 -106 71 -184t177 -89q19 -97 94 -159t175 -62q95 0 169 59t97 151l95 398l117 -489q23 -92 97.5 -151t169.5 -59q102 0 177 65t92 165q105 12 174 91t69 185
q0 30 -8 67l-141 585q10 -8 37 -28.5t38 -28.5t34 -24t38.5 -22.5t38 -15.5t45 -12t47.5 -3q120 0 205.5 84.5t85.5 204.5q0 71 -32.5 135t-89.5 107l-579 434q-78 59 -175 59h-793zM1262 146q-44 0 -79 27.5t-45 70.5l-187 780h-145l-166 -688q-11 -43 -45.5 -71t-77.5 -28
q-54 0 -91 37.5t-37 91.5q0 17 3 32l151 626h-30l-113 -467q-11 -43 -46 -71.5t-79 -28.5q-53 0 -91 37.5t-38 90.5q0 11 4 29l132 547q8 32 10.5 98.5t11.5 100.5l114 458q10 37 39.5 60t67.5 23h793q49 0 87 -29l579 -434q64 -49 64 -125q0 -60 -42.5 -101.5t-102.5 -41.5
q-49 0 -88 30l-351 262v-259q0 -4 37 -158.5t77.5 -321t44.5 -184.5q4 -20 4 -33q0 -54 -36 -93t-90 -39q-44 0 -79 28t-46 71l-133 551h-29l171 -714q4 -20 4 -32q0 -55 -36 -93.5t-91 -38.5z" />
</svg>
