<?xml version="1.0" standalone="no"?>
<!DOCTYPE svg PUBLIC "-//W3C//DTD SVG 1.1//EN" "http://www.w3.org/Graphics/SVG/1.1/DTD/svg11.dtd" >
<svg xmlns="http://www.w3.org/2000/svg" xmlns:xlink="http://www.w3.org/1999/xlink" version="1.1" viewBox="-10 0 1922 2048">
   <path fill="currentColor"
d="M731 146q-61 0 -103.5 42.5t-42.5 103.5v585v439l-172 -231q-47 -61 -123 -61q-60 0 -102 43t-42 103q0 49 30 88l439 585q42 58 116 58h821q25 0 45 -15.5t26 -39.5l105 -420q27 -110 27 -222v-248q0 -47 -31.5 -81t-77.5 -34t-78 31.5t-32 77.5h-37v-69
q0 -55 -37 -93.5t-91 -38.5q-53 0 -90.5 37.5t-37.5 90.5v73h-36v-102q0 -62 -42.5 -108t-103.5 -46t-104 43t-43 104v109h-36v-651q0 -62 -42.5 -107.5t-104.5 -45.5zM731 0q122 0 207.5 88.5t85.5 210.5v251q26 -2 37 -2q112 0 197 79q52 -24 113 -24q62 0 117.5 26
t93.5 73q29 -8 64 -8q107 0 181.5 77.5t74.5 184.5v248q0 133 -32 257l-105 421q-18 73 -77.5 119.5t-135.5 46.5h-821q-68 0 -130.5 -31.5t-103.5 -85.5l-439 -585q-58 -76 -58 -176q0 -120 85 -206.5t205 -86.5q80 0 149 40v-625q0 -121 85.5 -206.5t206.5 -85.5z
M878 1609v-439h-37v439h37zM1170 1609v-439h-36v439h36zM1463 1609v-439h-37v439h37z" />
</svg>
