<?xml version="1.0" standalone="no"?>
<!DOCTYPE svg PUBLIC "-//W3C//DTD SVG 1.1//EN" "http://www.w3.org/Graphics/SVG/1.1/DTD/svg11.dtd" >
<svg xmlns="http://www.w3.org/2000/svg" xmlns:xlink="http://www.w3.org/1999/xlink" version="1.1" viewBox="-10 0 1775 2048">
   <path fill="currentColor"
d="M1472 739q67 0 122 26q161 72 161 259v202q0 106 -26 212l-97 388q-24 98 -103 160t-180 62h-764q-121 0 -206.5 -86t-85.5 -207v-458l-274 -718q-19 -48 -19 -104q0 -121 86 -207t207 -86q91 0 166.5 52t106.5 137l19 50v-129q0 -121 86 -206.5t207 -85.5t206.5 85.5
t85.5 206.5v298q30 -5 55 -5q79 0 145.5 41.5t101.5 112.5zM1225 731q-38 0 -69 20.5t-47 54.5l-85 187l-81 177h63q58 0 103 36t57 92l176 -386q11 -22 11 -53q0 -53 -37.5 -90.5t-90.5 -37.5zM1478 885q-31 0 -53.5 10t-41 36t-25.5 40t-25 53l-151 331q-12 24 -12 53
q0 53 37.5 90.5t90.5 37.5q37 0 69 -20.5t48 -55.5l183 -402q10 -18 10 -44q0 -57 -36.5 -93t-93.5 -36zM146 475q0 27 9 53l284 742v79l116 -127q49 -52 122 -52h226l121 -266v-612q0 -61 -42.5 -103.5t-103.5 -42.5t-104 42.5t-43 103.5v732h-73l-228 -602
q-17 -42 -54 -67.5t-83 -25.5q-61 0 -104 43t-43 103zM1349 1901q50 0 89.5 -31t51.5 -80l97 -387q22 -84 22 -177v-104l-161 354q-19 43 -60.5 69.5t-89.5 26.5q-60 0 -106 -39t-56 -99q-50 65 -130 65h-238v-37h238q53 0 92.5 -37.5t39.5 -90.5t-35 -90.5t-88 -37.5h-338
q-55 0 -94 42l-144 155v352q0 61 42.5 103.5t103.5 42.5h764z" />
</svg>
