<?xml version="1.0" standalone="no"?>
<!DOCTYPE svg PUBLIC "-//W3C//DTD SVG 1.1//EN" "http://www.w3.org/Graphics/SVG/1.1/DTD/svg11.dtd" >
<svg xmlns="http://www.w3.org/2000/svg" xmlns:xlink="http://www.w3.org/1999/xlink" version="1.1" viewBox="-10 0 2275 2048">
   <path fill="currentColor"
d="M979 475v134q0 14 -11 24.5t-25 10.5h-341v928q0 16 -10.5 26.5t-24.5 10.5h-154q-16 0 -26.5 -10.5t-10.5 -26.5v-928h-339q-16 0 -26.5 -10.5t-10.5 -24.5v-134q0 -16 10.5 -26t26.5 -10h906q15 0 25.5 10.5t10.5 25.5zM2166 472l88 1098q2 16 -9 28q-11 11 -27 11
h-153q-14 0 -24 -10t-11 -23l-53 -672l-216 486q-9 21 -33 21h-137q-23 0 -33 -21l-215 -488l-52 674q-1 13 -11 23t-24 10h-154q-16 0 -27 -11q-10 -11 -10 -28l89 -1098q1 -13 11.5 -23t24.5 -10h162q23 0 33 21l252 595q4 8 22 58q4 -8 11.5 -28t11.5 -30l253 -595
q10 -21 33 -21h161q14 0 25 10t12 23z" />
</svg>
