<?xml version="1.0" standalone="no"?>
<!DOCTYPE svg PUBLIC "-//W3C//DTD SVG 1.1//EN" "http://www.w3.org/Graphics/SVG/1.1/DTD/svg11.dtd" >
<svg xmlns="http://www.w3.org/2000/svg" xmlns:xlink="http://www.w3.org/1999/xlink" version="1.1" viewBox="-10 0 2653 2048">
   <path fill="currentColor"
d="M744 1140q0 44 -31 75t-75 31t-76 -31t-32 -75t32 -75t76 -31t75 31t31 75zM2063 1138.5q0 44.5 -32 76t-76 31.5t-75.5 -31.5t-31.5 -76t31.5 -75.5t75.5 -31t76 31t32 75.5zM874 1140q0 -91 -64.5 -156.5t-155.5 -65.5t-156 65.5t-65 156.5t64.5 155.5t156.5 64.5
q91 0 155.5 -64.5t64.5 -155.5zM2192 1138q0 -90 -65 -155t-156 -65t-155.5 65t-64.5 155q0 92 64.5 156t155.5 64q92 0 156.5 -64t64.5 -156zM971 1140q0 86 -42 159.5t-115 116t-160 42.5t-160.5 -42.5t-116 -116t-42.5 -159.5q0 -87 42.5 -160t116 -115.5t160 -42.5
t160 42.5t115.5 115.5t42 160zM2290 1138.5q0 86.5 -42.5 160t-116 115.5t-160.5 42q-131 0 -224 -93t-93 -224.5t93 -225t224 -93.5q87 0 160.5 42.5t116 116t42.5 160zM1189 1141.5q0 -107.5 -42 -205t-112.5 -168.5t-168.5 -112.5t-205 -41.5t-204.5 41.5t-168 112.5
t-112.5 168.5t-42 205t42 205t112.5 168.5t168 113t204.5 42t205 -42t168.5 -113t112.5 -168.5t42 -205zM1952 486q-290 -126 -635 -126q-176 0 -345.5 32.5t-309.5 93.5q133 0 254.5 52t209 139.5t139.5 209t52 255.5q0 -131 50 -250.5t135 -207t202.5 -141t247.5 -57.5z
M2499 1141.5q0 -107.5 -41.5 -205t-112 -168.5t-168 -112.5t-204.5 -41.5t-205 41.5t-168.5 112.5t-112.5 168.5t-42 205t42 205t112.5 168.5t168.5 113t205 42t204.5 -42t168 -113t112 -168.5t41.5 -205zM2195 494h438q-50 58 -85.5 131t-45.5 131q125 173 125 386
q0 133 -52 254t-139.5 209t-208.5 139.5t-254 51.5q-152 0 -284.5 -64t-224.5 -176q-53 64 -147 204q-12 -25 -61.5 -94.5t-85.5 -111.5q-91 114 -224 178t-285 64q-133 0 -254 -51.5t-209 -139.5t-140 -209t-52 -254q0 -213 125 -386q-10 -58 -45.5 -131t-85.5 -131h417
q170 -114 405.5 -178t494.5 -64q257 0 481.5 63.5t396.5 178.5z" />
</svg>
