<?xml version="1.0" standalone="no"?>
<!DOCTYPE svg PUBLIC "-//W3C//DTD SVG 1.1//EN" "http://www.w3.org/Graphics/SVG/1.1/DTD/svg11.dtd" >
<svg xmlns="http://www.w3.org/2000/svg" xmlns:xlink="http://www.w3.org/1999/xlink" version="1.1" viewBox="-10 0 1251 2048">
   <path fill="currentColor"
d="M615 1036q-105 0 -201 -41t-165.5 -110.5t-110.5 -165t-41 -201.5q0 -105 41 -201t110.5 -165.5t165.5 -110.5t201 -41t201 41t166 110.5t111 165.5t41 201q0 106 -41 201.5t-111 165t-166 110.5t-201 41zM615 262q-106 0 -180 75t-74 181t74 180.5t180 74.5t180.5 -74.5
t74.5 -180.5t-74.5 -181t-180.5 -75zM1213 1099q15 31 17 57t-5.5 46.5t-30.5 43.5t-48.5 42t-69.5 48q-132 84 -360 107l83 82l306 305q34 36 34 85t-34 83l-14 15q-35 35 -84.5 35t-84.5 -35q-77 -78 -305 -306l-306 306q-35 35 -84.5 35t-83.5 -35l-13 -15
q-35 -34 -35 -83t35 -85l305 -305l82 -82q-232 -23 -362 -107q-44 -29 -69.5 -48t-48.5 -42t-30.5 -43.5t-5.5 -46.5t17 -57q12 -23 32 -40t47.5 -25t64 2t74.5 40q6 5 17 13t49 28t79 35t104.5 27.5t129.5 12.5t129 -12t106.5 -29t77.5 -34t51 -29l16 -12q38 -30 74.5 -40
t64 -2t47.5 25t32 40z" />
</svg>
