<?xml version="1.0" standalone="no"?>
<!DOCTYPE svg PUBLIC "-//W3C//DTD SVG 1.1//EN" "http://www.w3.org/Graphics/SVG/1.1/DTD/svg11.dtd" >
<svg xmlns="http://www.w3.org/2000/svg" xmlns:xlink="http://www.w3.org/1999/xlink" version="1.1" viewBox="-10 0 1775 2048">
   <path fill="currentColor"
d="M1059 662.5q0 75.5 -52.5 128.5t-128.5 53t-129 -53t-53 -128.5t53 -128t129 -52.5t128.5 52.5t52.5 128zM1304 1078q-8 -17 -22.5 -29t-34 -18t-45.5 1.5t-53 29.5q-4 3 -12 8.5t-35 20t-56.5 25.5t-75 19.5t-92.5 8.5t-92 -8.5t-76 -20.5t-55.5 -24t-35.5 -21l-12 -8
q-27 -22 -53.5 -29.5t-46 -1.5t-34 18t-22.5 29q-11 21 -12.5 39.5t3.5 33t22 31.5t35 30.5t50 33.5q96 61 258 78l-58 58q-163 163 -219 218q-25 25 -25 60.5t25 59.5l11 10q25 25 60 25t60 -25l218 -218q130 132 218 218q25 25 60 25t60 -25l10 -10q25 -24 25 -59.5
t-25 -60.5l-218 -218l-59 -58q160 -16 257 -78q32 -20 50 -33.5t34.5 -30.5t21.5 -31.5t3.5 -33t-12.5 -39.5zM1248 662.5q0 -100.5 -49.5 -186t-134.5 -135t-186 -49.5t-186.5 49.5t-135 135t-49.5 186t49.5 186t135 135.5t186.5 50t186 -50t134.5 -135.5t49.5 -186z
M1755 476v1096q0 90 -44 166t-119.5 120t-165.5 44h-1097q-90 0 -165.5 -44t-119.5 -120t-44 -166v-1096q0 -90 44 -166t119.5 -120t165.5 -44h1097q90 0 165.5 44t119.5 120t44 166z" />
</svg>
