<?xml version="1.0" standalone="no"?>
<!DOCTYPE svg PUBLIC "-//W3C//DTD SVG 1.1//EN" "http://www.w3.org/Graphics/SVG/1.1/DTD/svg11.dtd" >
<svg xmlns="http://www.w3.org/2000/svg" xmlns:xlink="http://www.w3.org/1999/xlink" version="1.1" viewBox="-10 0 2653 2048">
   <path fill="currentColor"
d="M1707 1873l-337 -795q-22 43 -177.5 342.5t-230.5 452.5q-1 1 -31 0.5t-30 -1.5q-93 -216 -291 -666.5t-298 -685.5q-18 -41 -54 -91t-79 -94t-91.5 -73t-86.5 -29q0 -6 -0.5 -28t-0.5 -31h666v58q-32 2 -67 12.5t-66 27t-45 43.5t0 57q21 48 242.5 560t274.5 628
q36 -70 162 -309t147 -279q-21 -43 -143.5 -320t-155.5 -338q-14 -26 -40 -43t-61 -24.5t-63 -10t-66 -3.5v-57l586 1v53q-31 1 -57.5 7.5t-46.5 19.5t-24.5 33t7.5 48q38 81 99.5 217.5t98.5 213.5q127 -248 198 -415q27 -62 -11.5 -90t-147.5 -31q1 -7 1 -28v-28
q490 -2 506 -3v56q-71 3 -136.5 38.5t-102.5 92.5l-243 505q15 38 146 332t139 312l504 -1162q-12 -33 -38 -57.5t-56.5 -36t-55 -16.5t-45.5 -6v-58l526 5l1 2l-1 51q-158 4 -230 165q-20 46 -151.5 351.5t-262 606.5t-225.5 518h-56z" />
</svg>
