<?xml version="1.0" standalone="no"?>
<!DOCTYPE svg PUBLIC "-//W3C//DTD SVG 1.1//EN" "http://www.w3.org/Graphics/SVG/1.1/DTD/svg11.dtd" >
<svg xmlns="http://www.w3.org/2000/svg" xmlns:xlink="http://www.w3.org/1999/xlink" version="1.1" viewBox="-10 0 2068 2048">
   <path fill="currentColor"
d="M1021 0q276 -1 515 137q132 77 233.5 185.5t168.5 239.5l-848 -45q-120 -7 -230 33t-194 122t-123 193l-316 -485q146 -181 355.5 -280t438.5 -100zM167 462l385 758q83 164 241.5 248.5t334.5 51.5l-263 515q-182 -27 -341.5 -117.5t-275 -223.5t-182 -307t-66.5 -363
q0 -306 167 -562zM1979 656q66 171 68 355t-55.5 350t-175 310.5t-280.5 238.5q-262 152 -569 136l463 -712q65 -101 86 -216t-8 -229t-106 -204zM1024 678q94 0 173.5 46.5t125.5 126t46 173.5t-46 173.5t-125.5 125.5t-173.5 46t-173.5 -46t-125.5 -125.5t-46 -173.5
t46 -173.5t125.5 -126t173.5 -46.5z" />
</svg>
