<?xml version="1.0" standalone="no"?>
<!DOCTYPE svg PUBLIC "-//W3C//DTD SVG 1.1//EN" "http://www.w3.org/Graphics/SVG/1.1/DTD/svg11.dtd" >
<svg xmlns="http://www.w3.org/2000/svg" xmlns:xlink="http://www.w3.org/1999/xlink" version="1.1" viewBox="-10 0 2069 2048">
   <path fill="currentColor"
d="M1032 2017q-162 0 -311.5 -46t-270.5 -129.5t-215.5 -198.5t-155.5 -254q-66 -150 -76.5 -344t29.5 -380t126.5 -356.5t204.5 -277.5l-12 322q13 -16 78 -17.5t80 17.5q32 -61 107 -113.5t167 -81.5t177 -31q-36 30 -84 93t-86.5 140t-32.5 124q29 9 71 15.5t72.5 8.5
t76.5 4.5t58 3.5q11 6 12.5 27.5t-7.5 52.5t-29 58q-2 3 -6.5 8t-21.5 19.5t-37.5 27t-56 26t-76.5 20.5l17 216l-159 -77q-20 49 -8 93t41 76t74.5 47.5t92.5 7.5t91 -28t71 -39t61.5 -32.5t67.5 -11.5q70 4 103 37.5t22 74.5q-1 3 -2.5 7t-10 14t-20.5 17.5t-35.5 12
t-53.5 1.5q-68 109 -164.5 155t-240.5 33q71 59 154 85.5t160.5 22t154.5 -29.5t139.5 -66t111 -90t73.5 -99q49 -104 44.5 -220t-42.5 -215.5t-90 -142.5q99 42 157 90t88 129q18 -194 -65.5 -392t-239.5 -324q302 88 470 319.5t173 591.5q2 121 -32.5 243.5t-98 233
t-156.5 206.5t-204 166t-247 110t-278 40z" />
</svg>
