<?xml version="1.0" standalone="no"?>
<!DOCTYPE svg PUBLIC "-//W3C//DTD SVG 1.1//EN" "http://www.w3.org/Graphics/SVG/1.1/DTD/svg11.dtd" >
<svg xmlns="http://www.w3.org/2000/svg" xmlns:xlink="http://www.w3.org/1999/xlink" version="1.1" viewBox="-10 0 2018 2048">
   <path fill="currentColor"
d="M133 146h225q-80 73 -144 170q-28 44 -48.5 91t-34 89.5t-19.5 95t-9 92.5t2 99t9 96.5t16 102t19.5 99.5t21.5 104l6 27l6 30q18 83 28 126t28.5 116t36 119.5t42.5 104t56.5 105t69.5 89.5h-311q-55 0 -94 -39t-39 -93v-1492q0 -54 39 -93t94 -39zM1513 146h352
q55 0 94 39t39 93v1492q0 54 -39 93t-94 39h-203q116 -116 175 -278.5t49 -367.5l-536 116q-2 41 -9 75t-23 69t-40 61.5t-62.5 48t-89.5 32.5q-75 13 -131.5 0.5t-96.5 -46.5q-27 -24 -45.5 -49.5t-42.5 -79t-49.5 -148t-55.5 -235.5q-30 -143 -45 -239.5t-15 -155.5
t6.5 -90t21.5 -63q23 -46 71.5 -82.5t117.5 -51.5q45 -8 80.5 -8.5t67.5 11t56.5 26.5t47 39t39 48t31.5 54l535 -114q-79 -200 -206 -328z" />
</svg>
