<?xml version="1.0" standalone="no"?>
<!DOCTYPE svg PUBLIC "-//W3C//DTD SVG 1.1//EN" "http://www.w3.org/Graphics/SVG/1.1/DTD/svg11.dtd" >
<svg xmlns="http://www.w3.org/2000/svg" xmlns:xlink="http://www.w3.org/1999/xlink" version="1.1" viewBox="-11 0 1615 2048">
   <path fill="currentColor"
d="M1585 1768l-7 6q-129 130 -296 200q-177 74 -362 74q-186 0 -362 -74q-169 -72 -296 -200q-129 -128 -200 -294q-48 -118 -62 -216q-2 -15 10 -25t22.5 -12.5t22.5 -4.5q58 -10 64 23q1 1 1 5q1 2 3.5 15t4.5 23t6.5 28t9.5 34.5t13 38.5t16 43q58 143 173 258
q112 112 259 174q151 64 315 64q161 0 315 -64q147 -63 258 -174l6 -7q12 -12 29 -7q15 3 38 25q42 42 19 67zM1046 1065l-76 75l72 72q24 24 -8 56q-20 20 -36 20q-11 0 -22 -12l-71 -70q-3 3 -37.5 38t-37.5 38q-6 6 -17 6q-17 0 -36 -19l-2 -2q-21 -18 -21 -33
q0 -10 9 -20l76 -74l-76 -75q-18 -18 16 -52q20 -20 36 -20q7 0 15 5l74 76l74 -74q21 -20 55 14q32 31 13 51zM1584 1130q0 132 -53 260q-51 120 -144 213t-213 144q-124 53 -261 53q-135 0 -260 -53q-121 -52 -214 -144q-93 -94 -143 -213q-17 -36 -17 -45h-1
q-3 -11 1 -20t16 -16t16.5 -9t15.5 -6q24 -9 43 -7.5t25 21.5q41 111 111 191h1v-387v-3q2 -73 32 -142.5t85 -122.5q59 -57 133 -87.5t156 -30.5q111 0 204.5 54t147.5 147t54 202q0 110 -54.5 203.5t-148 147.5t-203.5 54q-68 0 -128 -18l-5 -2.5t-7 -7t-6.5 -12.5
t-1.5 -19.5t5 -28.5q20 -58 51 -49l16 3.5t37.5 7t34.5 3.5q120 0 201.5 -81.5t81.5 -199.5q0 -56 -21 -107t-61 -89q-81 -81 -200 -81q-121 0 -204 92q-34 38 -53.5 87t-19.5 96v472q125 76 277 76q110 0 211.5 -41.5t177.5 -118.5q78 -77 119 -177t41 -209
q0 -110 -41.5 -210t-119.5 -178q-77 -77 -177 -118.5t-210 -41.5t-210.5 41.5t-178.5 118.5q-3 3 -18 19t-37.5 41.5t-32.5 39.5l-2 2q-6 8 -8.5 11.5t-10 9t-14.5 7t-20 1.5t-30 -4q-24 -6 -42 -19t-18 -30v-777q0 -17 12.5 -30t31.5 -13h1002q34 0 34 62q0 63 -34 63h-927
v552h1q46 -48 117 -95.5t123 -69.5q127 -53 264 -53t261 53q120 51 213 144q94 94 144 212q53 129 53 262zM1549 466q11 9 11 20t-6.5 20.5t-19.5 24.5q-30 30 -45 30q-10 0 -18 -8q-119 -104 -237 -152q-147 -64 -315 -64q-154 0 -300 56q-29 11 -51 -43q-10 -27 -9 -43
q4 -19 18 -23q71 -31 161.5 -48t180.5 -17q188 0 361 73q157 67 269 174z" />
</svg>
