<?xml version="1.0" standalone="no"?>
<!DOCTYPE svg PUBLIC "-//W3C//DTD SVG 1.1//EN" "http://www.w3.org/Graphics/SVG/1.1/DTD/svg11.dtd" >
<svg xmlns="http://www.w3.org/2000/svg" xmlns:xlink="http://www.w3.org/1999/xlink" version="1.1" viewBox="-10 0 2004 2048">
   <path fill="currentColor"
d="M1740 1686q17 -7 29.5 -3.5t12.5 20t-17 38.5q-9 12 -29.5 31.5t-60 49t-88 59.5t-116.5 60.5t-142 54t-169 38t-193 14.5q-136 0 -271.5 -35.5t-238.5 -87.5t-197.5 -118.5t-151.5 -120t-96 -100.5q-14 -16 -11.5 -28.5t14 -13.5t22.5 4q7 4 19 12q77 46 120 71.5
t131.5 71t151.5 68.5t163.5 53.5t186 38.5t200.5 9t224.5 -19.5t241 -61.5t265.5 -105zM1976 1555q13 18 3 79.5t-33 117.5q-20 49 -47.5 86.5t-49.5 54.5q-19 16 -29 10.5t0 -27.5q6 -12 14.5 -34t20.5 -56t19.5 -64.5t10.5 -58.5t-7 -38q-5 -6 -13 -10.5t-21 -7
t-24.5 -4.5t-29.5 -1.5t-29 0.5t-31 1.5t-27 2t-25.5 2.5t-19.5 2q-7 1 -14.5 1.5t-12.5 1.5t-10 1.5t-8 0.5h-6t-5 -0.5t-3.5 -1t-2.5 -1.5t-2 -3q-4 -12 24 -29.5t70 -32t78 -18.5q53 -8 123.5 -1.5t86.5 27.5zM1526 1049q0 35 15.5 73t37 66.5t43 52.5t36.5 36l15 13
l-259 256q-45 -43 -89.5 -87t-66.5 -66l-22 -23q-14 -15 -29 -38q-38 59 -95.5 104.5t-123 71.5t-137.5 35t-140.5 -0.5t-131 -41t-109 -79.5t-74.5 -122.5t-28 -165.5q0 -96 32 -176t82 -133.5t121.5 -95t140.5 -65t149 -39t136.5 -21t113.5 -7.5v-145v-6q3 -165 -162 -165
q-3 0 -9.5 0.5t-26 5t-38.5 12t-44.5 24.5t-47.5 40t-44.5 60.5t-37.5 83.5l-336 -31q0 -68 25 -135.5t76.5 -129t123.5 -108.5t173.5 -75t217.5 -28q83 0 154.5 15t123 39.5t93 57.5t67.5 67.5t43.5 71.5t24.5 68t7 57v673zM758 1073q0 96 77 150q70 49 152 30
q93 -22 133 -122q23 -58 23 -137v-185q-36 1 -70 4.5t-73.5 12t-73 21t-65 33.5t-54 47t-36 63.5t-13.5 82.5z" />
</svg>
