<?xml version="1.0" standalone="no"?>
<!DOCTYPE svg PUBLIC "-//W3C//DTD SVG 1.1//EN" "http://www.w3.org/Graphics/SVG/1.1/DTD/svg11.dtd" >
<svg xmlns="http://www.w3.org/2000/svg" xmlns:xlink="http://www.w3.org/1999/xlink" version="1.1" viewBox="-10 0 1922 2048">
   <path fill="currentColor"
d="M1270 1582l-53 53q-11 11 -25.5 11t-25.5 -11l-215 -216l-215 216q-11 11 -25.5 11t-25.5 -11l-53 -53q-10 -10 -10 -25t10 -26l216 -215l-216 -215q-10 -11 -10 -26t10 -25l53 -53q11 -11 25.5 -11t25.5 11l215 215l215 -215q11 -11 25.5 -11t25.5 11l53 53q10 10 10 25
t-10 26l-215 215l215 215q10 11 10 26t-10 25zM146 1901h1609v-1170h-1609v1170zM585 512v-330q0 -16 -10 -26t-26 -10h-74q-16 0 -26 10t-10 26v330q0 16 10 26t26 10h74q16 0 26 -10t10 -26zM1463 512v-330q0 -16 -10.5 -26t-26.5 -10h-73q-16 0 -26 10t-10 26v330
q0 16 10 26t26 10h73q16 0 26.5 -10t10.5 -26zM1902 438v1463q0 60 -43.5 103.5t-103.5 43.5h-1609q-60 0 -103 -43.5t-43 -103.5v-1463q0 -60 43 -103t103 -43h147v-110q0 -76 53 -129t129 -53h74q76 0 129 53t53 129v110h439v-110q0 -76 53.5 -129t129.5 -53h73
q76 0 129.5 53t53.5 129v110h146q60 0 103.5 43t43.5 103z" />
</svg>
