<?xml version="1.0" standalone="no"?>
<!DOCTYPE svg PUBLIC "-//W3C//DTD SVG 1.1//EN" "http://www.w3.org/Graphics/SVG/1.1/DTD/svg11.dtd" >
<svg xmlns="http://www.w3.org/2000/svg" xmlns:xlink="http://www.w3.org/1999/xlink" version="1.1" viewBox="-10 0 2360 2048">
   <path fill="currentColor"
d="M2308 13q32 24 32 61v1608q0 23 -13 41.5t-33 25.5l-732 293q-27 12 -54 0l-703 -281l-704 281q-11 6 -28 6q-20 0 -41 -13q-32 -24 -32 -61v-1608q0 -23 13 -41.5t33 -25.5l731 -293q27 -12 55 0l703 281l704 -281q37 -14 69 7zM841 167v1451l657 263v-1451zM146 415
v1451l622 -248v-1451zM2193 1633v-1451l-621 248v1451z" />
</svg>
