<?xml version="1.0" standalone="no"?>
<!DOCTYPE svg PUBLIC "-//W3C//DTD SVG 1.1//EN" "http://www.w3.org/Graphics/SVG/1.1/DTD/svg11.dtd" >
<svg xmlns="http://www.w3.org/2000/svg" xmlns:xlink="http://www.w3.org/1999/xlink" version="1.1" viewBox="-10 0 1880 2048">
   <path fill="currentColor"
d="M1859 593q-12 272 -379 744q-381 492 -643 492q-163 0 -274 -300q-19 -70 -71 -259t-80 -292q-83 -300 -179 -300q-21 0 -145 87l-88 -112q263 -235 272 -242q178 -158 275 -167q109 -11 175.5 63t92.5 233q50 328 75 426q63 285 137 285q58 0 176 -184
q116 -183 125 -281q15 -159 -125 -159q-62 0 -138 30q137 -449 524 -437q287 9 270 373z" />
</svg>
