<?xml version="1.0" standalone="no"?>
<!DOCTYPE svg PUBLIC "-//W3C//DTD SVG 1.1//EN" "http://www.w3.org/Graphics/SVG/1.1/DTD/svg11.dtd" >
<svg xmlns="http://www.w3.org/2000/svg" xmlns:xlink="http://www.w3.org/1999/xlink" version="1.1" viewBox="-10 0 1775 2048">
   <path fill="currentColor"
d="M0 146h1755v1756h-1755v-1756zM1038 512l-14 38l86 94l-36 130l29 30l122 -66l122 66l29 -30l-35 -130l85 -94l-13 -38h-109l-61 -110h-36l-61 110h-108zM733 698q36 0 50.5 18.5t13.5 71.5l198 -24q0 -50 -14 -88t-36 -60t-56 -35.5t-68.5 -18t-78.5 -4.5
q-152 0 -227.5 65.5t-75.5 208.5v82h-110v146h87q23 0 23 10v436q0 17 -5 23.5t-21 8.5l-84 8v100h512v-98l-170 -16q-6 -1 -9.5 -2t-4.5 -3.5t-0.5 -4.5t1 -8t0.5 -12v-442h219l43 -146h-264q-6 0 -2 -6q1 -2 2 -3.5t1.5 -3.5t0.5 -3v-92q0 -31 1.5 -47t8.5 -32t23 -22.5
t42 -6.5zM1426 1646v-98l-61 -10q-8 -2 -11 -3.5t-3 -3.5t1 -9t1 -14v-594h-314l-26 116l94 24q27 10 27 32v422q0 16 -6.5 22t-23.5 8l-80 10v98h402z" />
</svg>
