<?xml version="1.0" standalone="no"?>
<!DOCTYPE svg PUBLIC "-//W3C//DTD SVG 1.1//EN" "http://www.w3.org/Graphics/SVG/1.1/DTD/svg11.dtd" >
<svg xmlns="http://www.w3.org/2000/svg" xmlns:xlink="http://www.w3.org/1999/xlink" version="1.1" viewBox="-10 0 1910 2048">
   <path fill="currentColor"
d="M0 909h1q18 -144 66.5 -276.5t131.5 -248t191.5 -201t255.5 -134.5t316 -48q264 0 473.5 120t335.5 347q119 214 119 505v215h-1286q1 96 36 173t93.5 126.5t137.5 82.5t167 43.5t182.5 6.5t183.5 -24t170.5 -53t143.5 -76v431q-76 46 -188.5 81.5t-244.5 55.5
t-278.5 8.5t-269.5 -57.5q-143 -55 -256.5 -167t-177 -254.5t-64.5 -288.5q-4 -277 126.5 -471t371.5 -306q-54 68 -89 143t-53 183h726q7 -70 -3 -129t-32 -100.5t-52.5 -75.5t-66 -54.5t-71.5 -36t-69.5 -22.5t-59 -11t-41.5 -5h-15q-124 4 -241.5 35t-213.5 80
t-182.5 115.5t-152.5 137t-121 150.5z" />
</svg>
