<?xml version="1.0" standalone="no"?>
<!DOCTYPE svg PUBLIC "-//W3C//DTD SVG 1.1//EN" "http://www.w3.org/Graphics/SVG/1.1/DTD/svg11.dtd" >
<svg xmlns="http://www.w3.org/2000/svg" xmlns:xlink="http://www.w3.org/1999/xlink" version="1.1" viewBox="-10 0 1989 2048">
   <path fill="currentColor"
d="M1810 1474l-249 -127q-84 137 -224.5 216t-301.5 79q-126 0 -240 -49t-196.5 -131t-131 -196t-48.5 -239q0 -168 82.5 -309.5t224 -224t309.5 -82.5q150 0 283.5 69.5t219.5 192.5l246 -143q-126 -194 -328 -303.5t-432 -109.5q-185 0 -352.5 72t-289 193.5t-193 289
t-71.5 352.5t71.5 352.5t193 289t289 193t352.5 71.5q244 0 454.5 -122.5t331.5 -333.5zM1177 1020l792 402q-133 289 -382.5 457.5t-562.5 168.5q-209 0 -398.5 -81t-326.5 -218t-218 -326.5t-81 -398.5t81 -398.5t218 -326.5t326.5 -218t398.5 -81q297 0 538 152t383 419z
M1763 1024h-44v182h-110v-402h156q36 0 62 22.5t32.5 55t1 65t-31.5 55t-66 22.5z" />
</svg>
