<?xml version="1.0" standalone="no"?>
<!DOCTYPE svg PUBLIC "-//W3C//DTD SVG 1.1//EN" "http://www.w3.org/Graphics/SVG/1.1/DTD/svg11.dtd" >
<svg xmlns="http://www.w3.org/2000/svg" xmlns:xlink="http://www.w3.org/1999/xlink" version="1.1" viewBox="-10 0 1922 2048">
   <path fill="currentColor"
d="M731 1143v-256q0 -8 -5.5 -13.5t-12.5 -5.5h-110q-7 0 -12.5 5.5t-5.5 13.5v256q0 7 5.5 12.5t12.5 5.5h110q7 0 12.5 -5.5t5.5 -12.5zM1317 1143v-256q0 -7 -5.5 -13t-13.5 -6h-109q-7 0 -13 6t-6 13v256q0 7 5.5 12.5t13.5 5.5h109q8 0 13.5 -5.5t5.5 -12.5zM1902 1179
v860h-732v-366q0 -91 -64 -155.5t-155 -64.5t-155.5 64.5t-64.5 155.5v366h-731v-860q0 -7 5 -12.5t13 -5.5h110q8 0 13 5.5t5 12.5v128h147v-713q0 -8 5.5 -13t12.5 -5h110q7 0 12.5 5t5.5 13v128h146v-128q0 -8 5.5 -13t12.5 -5h110q7 0 12.5 5t5.5 13v128h147v-128
q0 -7 3 -11t9.5 -5.5t11 -2t13 0t10.5 0.5v-447q-37 -17 -37 -57q0 -26 19 -44.5t44 -18.5t44 18.5t19 44.5q0 40 -37 57v19q49 -11 95 -11q24 0 68 8.5t62 8.5q19 0 53 -8.5t43 -8.5q8 0 13.5 5.5t5.5 12.5v240q0 17 -40.5 24.5t-70.5 7.5q-21 0 -62.5 -8.5t-63.5 -8.5
q-45 0 -103 14v152q2 0 10.5 -0.5t13 0t11 2t9.5 5.5t3 11v128h146v-128q0 -7 5.5 -12.5t13.5 -5.5h109q8 0 13.5 5.5t5.5 12.5v128h146v-128q0 -8 5.5 -13t12.5 -5h110q7 0 12.5 5t5.5 13v713h146v-128q0 -7 5.5 -12.5t13.5 -5.5h109q8 0 13.5 5.5t5.5 12.5z" />
</svg>
