<?xml version="1.0" standalone="no"?>
<!DOCTYPE svg PUBLIC "-//W3C//DTD SVG 1.1//EN" "http://www.w3.org/Graphics/SVG/1.1/DTD/svg11.dtd" >
<svg xmlns="http://www.w3.org/2000/svg" xmlns:xlink="http://www.w3.org/1999/xlink" version="1.1" viewBox="-10 0 2653 2048">
   <path fill="currentColor"
d="M2615 994q18 9 18 30t-18 30l-366 220q-10 6 -18 6q-10 0 -18 -4q-19 -13 -19 -32v-146h-980q45 69 95 188q1 2 4 7q17 41 27 61.5t27 54.5t30 52t30 37.5t35 28.5t37 9h110v-110q0 -15 10.5 -25.5t26.5 -10.5h365q16 0 26.5 10.5t10.5 25.5v366q0 15 -10.5 25.5
t-26.5 10.5h-365q-16 0 -26.5 -10.5t-10.5 -25.5v-110h-110q-28 0 -54.5 -6.5t-47.5 -16t-42.5 -28.5t-37 -34.5t-34 -43t-29.5 -46t-27.5 -51.5t-24.5 -51t-24 -53l-3 -6q-18 -41 -28 -62.5t-27 -56t-30.5 -53t-30.5 -39t-35 -29t-37 -8.5h-411q-25 95 -103.5 156.5
t-179.5 61.5q-121 0 -207 -86t-86 -206.5t86 -206t207 -85.5q101 0 179.5 61.5t103.5 156.5h119q14 0 28 -5t27 -17t24 -23t24 -33t21.5 -36.5t22 -43.5t20 -43.5t20.5 -46.5q1 -1 2 -3q16 -35 24 -53.5t24.5 -51.5t28 -52t30 -46.5t34 -43.5t37 -34.5t43 -28.5t48 -16.5
t54.5 -6.5h122q24 -66 80 -106t127 -40q91 0 155 64t64 154.5t-64 155t-155 64.5q-71 0 -127 -40.5t-80 -105.5h-122q-15 0 -28.5 5t-27.5 17.5t-25 23.5t-24.5 33.5t-21.5 36.5t-22.5 44t-20.5 43.5t-21 46.5q-50 119 -95 188h1273v-146q0 -19 19 -32q18 -11 36 2z" />
</svg>
