<?xml version="1.0" standalone="no"?>
<!DOCTYPE svg PUBLIC "-//W3C//DTD SVG 1.1//EN" "http://www.w3.org/Graphics/SVG/1.1/DTD/svg11.dtd" >
<svg xmlns="http://www.w3.org/2000/svg" xmlns:xlink="http://www.w3.org/1999/xlink" version="1.1" viewBox="-10 0 2653 2048">
   <path fill="currentColor"
d="M1880 1254q0 -67 -38.5 -121.5t-99.5 -78.5q-8 48 -27 106q-8 27 -31 43t-51 16q-13 0 -27 -3q-35 -12 -51 -44t-5 -67q26 -81 26 -164q0 -105 -41 -201.5t-111 -166t-166 -110.5t-202 -41q-154 0 -282.5 84t-190.5 222q123 32 215 121q26 25 26 62t-26 62t-63 25
t-62 -25q-85 -85 -206 -85t-206.5 85t-85.5 206t85.5 206t206.5 85h1196q90 0 153.5 -63.5t63.5 -152.5zM2055 1254q0 162 -115 276.5t-277 114.5h-1196q-193 0 -330 -136.5t-137 -329.5q0 -174 114.5 -305t284.5 -156q71 -210 252.5 -340t404.5 -130q177 0 330 83
t248.5 226.5t112.5 316.5q133 29 220.5 135.5t87.5 244.5zM2341 1254q0 199 -111 365q-26 38 -73 38q-27 0 -50 -15q-30 -19 -36 -55t14 -66q81 -119 81 -267t-81 -266q-20 -30 -14 -65.5t36 -55.5t66.5 -13t56.5 37q111 163 111 363zM2633 1254q0 280 -153 507
q-27 39 -73 39q-25 0 -48 -15q-30 -20 -37 -55.5t13 -65.5q123 -186 123 -410t-123 -408q-20 -30 -13 -65.5t37 -55.5t65.5 -13.5t55.5 37.5q153 226 153 505z" />
</svg>
