<?xml version="1.0" standalone="no"?>
<!DOCTYPE svg PUBLIC "-//W3C//DTD SVG 1.1//EN" "http://www.w3.org/Graphics/SVG/1.1/DTD/svg11.dtd" >
<svg xmlns="http://www.w3.org/2000/svg" xmlns:xlink="http://www.w3.org/1999/xlink" version="1.1" viewBox="-10 0 1693 2048">
   <path fill="currentColor"
d="M1673 1770q0 102 -72 174.5t-175 72.5t-175.5 -72.5t-72.5 -174.5q0 -103 72.5 -175.5t175.5 -72.5t175 72.5t72 175.5zM1407 1449q-132 17 -220.5 117t-88.5 235q0 83 38 157q-169 90 -433 90q-125 0 -230 -24t-175.5 -62t-126 -88t-86.5 -97.5t-51.5 -94.5t-27 -76
t-6.5 -45q0 -22 5 -48.5t21 -63.5t42 -66.5t73 -50t108 -20.5t108 19.5t71.5 47t40.5 61t20.5 55.5t4.5 38q0 39 -26 93q32 31 93.5 48t106.5 18l45 2q131 0 217 -58.5t86 -151.5q0 -36 -17 -66.5t-47 -57.5t-85 -58t-118.5 -62t-158.5 -76q-36 -16 -54 -25
q-133 -63 -214 -114.5t-139.5 -116.5t-82 -143t-23.5 -186q0 -89 23.5 -171t75.5 -157t128.5 -130.5t190.5 -88t253 -32.5q138 0 252 29.5t187.5 76.5t124.5 107.5t73 120.5t22 118q0 52 -17 94t-42 66.5t-55.5 41t-55.5 22.5t-45 6q-74 0 -110 -11q-158 -46 -158 -287
q-17 -19 -67.5 -29.5t-92.5 -12.5l-43 -1q-59 0 -107 20.5t-75.5 52.5t-42 65.5t-14.5 64.5q0 27 5.5 49t27.5 53t61 58.5t110.5 61t171.5 66.5q86 29 158 61t125 63t94.5 67.5t69 68t47.5 71.5t30.5 71t16 72.5t7 71t1.5 71.5z" />
</svg>
