<?xml version="1.0" standalone="no"?>
<!DOCTYPE svg PUBLIC "-//W3C//DTD SVG 1.1//EN" "http://www.w3.org/Graphics/SVG/1.1/DTD/svg11.dtd" >
<svg xmlns="http://www.w3.org/2000/svg" xmlns:xlink="http://www.w3.org/1999/xlink" version="1.1" viewBox="-11 0 2070 2048">
   <path fill="currentColor"
d="M2008 1609l40 357q4 34 -18 58t-55 24h-1902q-32 0 -55 -24q-21 -24 -18 -58l40 -357h1968zM1902 650l98 886h-1952l98 -886q4 -28 24.5 -46.5t48.5 -18.5h293v146q0 61 43 103.5t103.5 42.5t103.5 -42.5t43 -103.5v-146h438v146q0 61 43.5 103.5t104 42.5t103 -42.5
t42.5 -103.5v-146h293q29 0 49.5 18.5t23.5 46.5zM1463 438v293q0 30 -21.5 51.5t-51.5 21.5t-51.5 -21.5t-21.5 -51.5v-293q0 -121 -86 -206.5t-206.5 -85.5t-207 85.5t-86.5 206.5v293q0 30 -21.5 51.5t-51.5 21.5t-51.5 -21.5t-21.5 -51.5v-293q0 -89 35 -170t94 -140
t140 -93.5t170.5 -34.5t170.5 34.5t140 93.5t93.5 140t34.5 170z" />
</svg>
