<?xml version="1.0" standalone="no"?>
<!DOCTYPE svg PUBLIC "-//W3C//DTD SVG 1.1//EN" "http://www.w3.org/Graphics/SVG/1.1/DTD/svg11.dtd" >
<svg xmlns="http://www.w3.org/2000/svg" xmlns:xlink="http://www.w3.org/1999/xlink" version="1.1" viewBox="-10 0 2361 2048">
   <path fill="currentColor"
d="M2194 877q61 0 104 43t43 104t-43 103.5t-104 42.5h-17l-131 756q-10 53 -50.5 87.5t-93.5 34.5h-1463q-53 0 -93.5 -34.5t-50.5 -87.5l-132 -756h-17q-61 0 -103.5 -42.5t-42.5 -103.5t42.5 -104t103.5 -43h2048zM554 1792q30 -2 50 -25.5t18 -53.5l-37 -476
q-2 -30 -25.5 -49.5t-53.5 -17.5t-49.5 25.5t-17.5 53.5l36 475q2 28 23.5 48t50.5 20h5zM1024 1718v-475q0 -30 -21.5 -51.5t-51.5 -21.5t-51.5 21.5t-21.5 51.5v475q0 30 21.5 52t51.5 22t51.5 -22t21.5 -52zM1463 1718v-475q0 -30 -21.5 -51.5t-51.5 -21.5t-51.5 21.5
t-21.5 51.5v475q0 30 21.5 52t51.5 22t51.5 -22t21.5 -52zM1865 1724l37 -475q2 -30 -18 -53.5t-50 -25.5t-53.5 17.5t-25.5 49.5l-36 476q-2 30 17.5 53.5t49.5 25.5h6q28 0 49.5 -19.5t23.5 -48.5zM544 333l-106 471h-151l115 -504q22 -100 102 -163.5t183 -63.5h191
q0 -30 21.5 -51.5t51.5 -21.5h439q30 0 51.5 21.5t21.5 51.5h191q103 0 182.5 63.5t101.5 163.5l116 504h-151l-106 -471q-12 -50 -51.5 -82t-91.5 -32h-191q0 30 -21.5 51.5t-51.5 21.5h-439q-30 0 -51.5 -21.5t-21.5 -51.5h-191q-52 0 -91.5 32t-51.5 82z" />
</svg>
