<?xml version="1.0" standalone="no"?>
<!DOCTYPE svg PUBLIC "-//W3C//DTD SVG 1.1//EN" "http://www.w3.org/Graphics/SVG/1.1/DTD/svg11.dtd" >
<svg xmlns="http://www.w3.org/2000/svg" xmlns:xlink="http://www.w3.org/1999/xlink" version="1.1" viewBox="-11 0 1995 2048">
   <path fill="currentColor"
d="M1096 1170l73 -292h-291l-73 292h291zM1973 594l-64 256q-9 28 -35 28h-374l-73 292h355q16 0 29 14q11 15 7 32l-64 256q-2 12 -12.5 20t-23.5 8h-373l-93 374q-4 13 -13.5 20.5t-21.5 7.5h-256q-19 0 -30 -14q-11 -13 -7 -32l89 -356h-290l-93 374q-4 13 -13.5 20.5
t-21.5 7.5h-257q-18 0 -29 -14q-11 -13 -7 -32l90 -356h-356q-16 0 -28 -14q-11 -14 -7 -32l64 -256q8 -28 35 -28h374l73 -292h-355q-18 0 -29 -14q-12 -14 -7 -32l64 -256q2 -11 12.5 -19.5t23.5 -8.5h373l93 -374q8 -28 36 -28h256q16 0 29 14q10 14 7 32l-89 356h290
l93 -374q8 -28 36 -28h256q16 0 29 14q10 14 7 32l-90 356h356q15 0 28 14q10 14 7 32z" />
</svg>
