<?xml version="1.0" standalone="no"?>
<!DOCTYPE svg PUBLIC "-//W3C//DTD SVG 1.1//EN" "http://www.w3.org/Graphics/SVG/1.1/DTD/svg11.dtd" >
<svg xmlns="http://www.w3.org/2000/svg" xmlns:xlink="http://www.w3.org/1999/xlink" version="1.1" viewBox="-10 0 1531 2048">
   <path fill="currentColor"
d="M839 1203l169 169l-170 170zM838 505l170 170l-169 169zM689 1904l531 -531l-350 -349l350 -350l-531 -530v698l-291 -292l-106 107l365 367l-365 366l106 107l291 -292v699zM1511 1024q0 238 -36.5 417.5t-100 294t-160.5 185.5t-207 99t-251 28t-251 -28t-207.5 -99
t-161 -185.5t-100 -294t-36.5 -417.5t36.5 -417.5t100 -294t161 -185.5t207.5 -99t251 -28t251 28t207 99t160.5 185.5t100 294t36.5 417.5z" />
</svg>
