<?xml version="1.0" standalone="no"?>
<!DOCTYPE svg PUBLIC "-//W3C//DTD SVG 1.1//EN" "http://www.w3.org/Graphics/SVG/1.1/DTD/svg11.dtd" >
<svg xmlns="http://www.w3.org/2000/svg" xmlns:xlink="http://www.w3.org/1999/xlink" version="1.1" viewBox="-10 0 1775 2048">
   <path fill="currentColor"
d="M1463 1462.5q0 -60.5 -43 -103.5t-103 -43t-103.5 43.5t-43.5 103t43.5 103.5t103.5 44t103 -43.5t43 -104zM585 585.5q0 -60.5 -43 -104t-103 -43.5t-103 43.5t-43 104t43 103.5t103 43t103 -43t43 -103.5zM1755 1462.5q0 89.5 -34.5 170.5t-93.5 140t-140 94t-170 35
t-170.5 -35t-140 -94t-93.5 -140t-35 -170.5t35 -170.5t93.5 -139.5t140 -93.5t170.5 -35t170 35t140 93.5t93.5 139.5t34.5 170.5zM1646 220q0 21 -15 42l-1207 1610q-23 30 -58 30h-183q-30 0 -51.5 -22t-21.5 -52q0 -21 15 -42l1206 -1610q23 -30 59 -30h183
q30 0 51.5 22t21.5 52zM878 585.5q0 89.5 -35 170.5t-93.5 140t-140 93.5t-170.5 34.5t-170.5 -34.5t-140 -93.5t-93.5 -140t-35 -170.5t35 -170.5t93.5 -140t140 -94t170.5 -35t170.5 35t140 94t93.5 140t35 170.5z" />
</svg>
