<?xml version="1.0" standalone="no"?>
<!DOCTYPE svg PUBLIC "-//W3C//DTD SVG 1.1//EN" "http://www.w3.org/Graphics/SVG/1.1/DTD/svg11.dtd" >
<svg xmlns="http://www.w3.org/2000/svg" xmlns:xlink="http://www.w3.org/1999/xlink" version="1.1" viewBox="-10 0 1620 2048">
   <path fill="currentColor"
d="M1565 929q39 40 34 93l-51 630q-4 48 -39 80t-82 32q-7 0 -10 -1q-50 -4 -83 -42t-29 -88l40 -491l-164 10q63 129 63 274q0 246 -169 425l-156 -157q104 -115 104 -268q0 -166 -117 -283.5t-283 -117.5q-154 0 -270 105l-157 -158q137 -129 325 -161l302 -343l-171 -99
l-207 184q-38 34 -87.5 31.5t-83.5 -40.5t-31 -88t40 -84l273 -243q29 -26 68 -30t74 16l558 323q41 23 55 78q19 76 -30 134l-234 265l424 -23q55 -3 94 37zM1339 406q-84 0 -143.5 -59t-59.5 -144q0 -84 59.5 -143.5t143.5 -59.5q85 0 145 59.5t60 143.5q0 85 -60 144
t-145 59zM623 1826q120 0 224 -70l158 159q-168 133 -382 133q-169 0 -312.5 -83.5t-227 -226.5t-83.5 -312q0 -215 132 -384l159 159q-68 101 -68 225q0 166 117 283t283 117z" />
</svg>
