<?xml version="1.0" standalone="no"?>
<!DOCTYPE svg PUBLIC "-//W3C//DTD SVG 1.1//EN" "http://www.w3.org/Graphics/SVG/1.1/DTD/svg11.dtd" >
<svg xmlns="http://www.w3.org/2000/svg" xmlns:xlink="http://www.w3.org/1999/xlink" version="1.1" viewBox="-10 0 1775 2048">
   <path fill="currentColor"
d="M1006 1372v182q0 16 -10.5 26t-26.5 10h-183q-16 0 -26 -10t-10 -26v-182q0 -16 10 -27t26 -11h183q16 0 26.5 11t10.5 27zM1298 804q0 34 -7 64.5t-17 52.5t-28 44t-31.5 36t-37.5 30.5t-37.5 24.5t-37.5 22q-27 15 -40.5 23.5t-28.5 20.5t-21 23.5t-6 24.5v36
q0 16 -10.5 27t-26.5 11h-183q-16 0 -26 -11t-10 -27v-76q0 -30 6.5 -55.5t14.5 -44t25 -36t29 -28t35 -23.5t34.5 -18.5t36.5 -16.5q61 -29 86 -49.5t25 -56.5q0 -47 -50 -81.5t-109 -34.5q-63 0 -108 32q-36 24 -92 94q-11 14 -28 14q-14 0 -22 -6l-123 -94
q-11 -9 -13.5 -23.5t5.5 -26.5q140 -218 399 -218q70 0 141 26.5t127.5 71.5t92.5 110.5t36 137.5zM878 292q-148 0 -283.5 58.5t-234 156.5t-156.5 233.5t-58 284t58 284t156.5 233.5t234 156t283.5 58t283.5 -58t233.5 -156t156 -233.5t58 -284t-58 -284t-156 -233.5
t-233.5 -156.5t-283.5 -58.5zM1755 1024.5q0 119.5 -31.5 233t-88 210t-137.5 177.5t-177 137.5t-210 88t-233 31.5t-233 -31.5t-210.5 -88t-177.5 -137.5t-137.5 -177.5t-88 -210t-31.5 -233t31.5 -233.5t88 -210t137.5 -177t177.5 -137.5t210.5 -88.5t233 -32t233 32
t210 88.5t177 137.5t137.5 177t88 210t31.5 233.5z" />
</svg>
