<?xml version="1.0" standalone="no"?>
<!DOCTYPE svg PUBLIC "-//W3C//DTD SVG 1.1//EN" "http://www.w3.org/Graphics/SVG/1.1/DTD/svg11.dtd" >
<svg xmlns="http://www.w3.org/2000/svg" xmlns:xlink="http://www.w3.org/1999/xlink" version="1.1" viewBox="-11 0 2654 2048">
   <path fill="currentColor"
d="M576 1136h195l-1 -304zM1749 1022q0 -100 -58 -160t-168 -60h-61v442h59q103 0 165.5 -64.5t62.5 -157.5zM1093 592l1 864q0 16 -11 27t-27 11h-247q-16 0 -27 -11t-11 -27v-72h-332l-63 92q-12 18 -32 18h-305q-24 0 -35 -21t4 -39l635 -866q11 -16 31 -16h380
q16 0 27.5 11.5t11.5 28.5zM2038 1021.5q0 110.5 -39 200.5t-108 149t-163 91t-205 32h-308q-17 0 -28 -11t-11 -27v-864q0 -17 11 -28.5t28 -11.5h306q111 0 205.5 31.5t164 90t108.5 148t39 200zM2216 1024q0 12 -0.5 33t-9.5 81.5t-24.5 116t-51 124t-83.5 117.5h-58
q43 -52 75.5 -120t47.5 -128t23.5 -112.5t10.5 -83.5l1 -30q0 -10 -1 -26.5t-9 -68.5t-22 -104.5t-46 -127t-76 -141.5h49q47 54 82.5 122t52 127t26.5 110t11 81zM2426 1024q0 12 -0.5 33t-9.5 81.5t-24.5 116t-51 123.5t-84.5 118h-58q43 -52 75.5 -120t47.5 -128
t24 -112.5t10 -83.5l2 -30q0 -10 -1 -26.5t-9 -68.5t-22.5 -104.5t-46.5 -127t-75 -141.5h50q47 54 82.5 122t51.5 127t26 110t11 81zM2633 1024q0 12 -0.5 33t-9.5 81.5t-24.5 116t-51 124t-83.5 117.5h-58q43 -52 75 -120t47 -128t23.5 -112.5t10.5 -83.5l1 -30
q0 -10 -1 -26.5t-9 -68.5t-22 -104.5t-46 -127t-75 -141.5h49q47 54 82.5 122t52 127t26.5 110t11 81z" />
</svg>
