<?xml version="1.0" standalone="no"?>
<!DOCTYPE svg PUBLIC "-//W3C//DTD SVG 1.1//EN" "http://www.w3.org/Graphics/SVG/1.1/DTD/svg11.dtd" >
<svg xmlns="http://www.w3.org/2000/svg" xmlns:xlink="http://www.w3.org/1999/xlink" version="1.1" viewBox="-10 0 1629 2048">
   <path fill="currentColor"
d="M705 1922q0 -12 -14 -64t-36 -127t-23 -77q-1 -4 -5.5 -29.5t-10 -41t-15.5 -25.5q-17 -16 -58 -16q-27 0 -80.5 6.5t-80.5 6.5q-37 0 -54 -13q-8 -6 -14 -21t-13 -41t-7 -27q-43 -151 -43 -291t43 -292q1 -4 5.5 -20.5l7.5 -27.5t9 -23t12 -18q15 -12 54 -12
q27 0 80.5 6t80.5 6q41 0 58 -16q10 -9 15.5 -24.5t10 -41t5.5 -30.5q1 -3 23 -76.5t36 -126t14 -64.5q0 -25 -49.5 -59.5t-86.5 -49.5q-22 -9 -51 -9q-34 0 -112 21q-30 9 -56 20.5t-46.5 23t-40 29t-33 30.5t-29.5 36t-25.5 37.5t-23.5 43t-22 44.5t-23 50q-5 11 -8 17
q-56 122 -77.5 246.5t-21.5 279.5t21.5 279.5t77.5 246.5q3 6 8 18q15 33 23 49.5t22 44.5t23.5 43t25.5 38t29.5 36t33 30.5t40 28.5t46.5 23t56 20q78 21 112 21q27 0 51 -10q37 -14 86.5 -48t49.5 -60zM887 878q-31 0 -52 -21q-22 -22 -22 -52t22 -52q43 -43 43 -103
q0 -57 -43 -104q-22 -22 -22 -51.5t22 -51t51.5 -21.5t51.5 21q86 86 86 207t-86 207q-22 21 -51 21zM1094 1085q-32 0 -52 -21q-22 -21 -22 -51t22 -52q62 -62 95 -142t33 -168.5t-33 -168.5t-95 -143q-22 -21 -22 -51t22 -51.5t51.5 -21.5t51.5 21q83 84 127.5 190.5
t44.5 224t-44.5 224t-127.5 189.5q-20 21 -51 21zM1301 1292q-31 0 -52 -22q-22 -21 -22 -50.5t22 -51.5q103 -103 158.5 -237.5t55.5 -280.5t-55.5 -280t-158.5 -238q-22 -21 -22 -51t22 -51.5t51.5 -21.5t51.5 21q124 125 190.5 285.5t66.5 336t-66.5 335.5t-190.5 284
q-21 22 -51 22z" />
</svg>
