<?xml version="1.0" standalone="no"?>
<!DOCTYPE svg PUBLIC "-//W3C//DTD SVG 1.1//EN" "http://www.w3.org/Graphics/SVG/1.1/DTD/svg11.dtd" >
<svg xmlns="http://www.w3.org/2000/svg" xmlns:xlink="http://www.w3.org/1999/xlink" version="1.1" viewBox="-10 0 2507 2048">
   <path fill="currentColor"
d="M219 1426q-76 0 -129 54t-53 129.5t53 129t129 53.5t129.5 -53.5t53.5 -129t-53.5 -129.5t-129.5 -54zM805 1426q-76 0 -129.5 54t-53.5 129.5t53.5 129t129.5 53.5t129 -53.5t53 -129t-53 -129.5t-129 -54zM805 842q-76 0 -129.5 53t-53.5 128.5t53.5 129t129.5 53.5
t129 -53.5t53 -129t-53 -128.5t-129 -53zM1682 1426q-76 0 -129.5 54t-53.5 129.5t53.5 129t129.5 53.5t129.5 -53.5t53.5 -129t-53.5 -129.5t-129.5 -54zM2267 1426q-76 0 -129 54t-53 129.5t53 129t129 53.5t129.5 -53.5t53.5 -129t-53.5 -129.5t-129.5 -54zM1682 842
q-76 0 -129.5 53t-53.5 128.5t53.5 129t129.5 53.5t129.5 -53.5t53.5 -129t-53.5 -128.5t-129.5 -53zM2267 842q-76 0 -129 53t-53 128.5t53 129t129 53.5t129.5 -53.5t53.5 -129t-53.5 -128.5t-129.5 -53zM2267 256q-76 0 -129 53.5t-53 129t53 129.5t129 54t129.5 -54
t53.5 -129.5t-53.5 -129t-129.5 -53.5zM439 1609.5q0 90.5 -64.5 154.5t-155.5 64t-155 -64t-64 -154.5t64 -155t155 -64.5t155.5 64.5t64.5 155zM1024 1609.5q0 90.5 -64 154.5t-155 64t-155.5 -64t-64.5 -154.5t64.5 -155t155.5 -64.5t155 64.5t64 155zM439 1023.5
q0 90.5 -64.5 155.5t-155.5 65t-155 -65t-64 -155.5t64 -155t155 -64.5t155.5 64.5t64.5 155zM1024 1023.5q0 90.5 -64 155.5t-155 65t-155.5 -65t-64.5 -155.5t64.5 -155t155.5 -64.5t155 64.5t64 155zM439 438.5q0 90.5 -64.5 155t-155.5 64.5t-155 -64.5t-64 -155
t64 -154.5t155 -64t155.5 64t64.5 154.5zM1902 1609.5q0 90.5 -64.5 154.5t-155.5 64t-155 -64t-64 -154.5t64 -155t155 -64.5t155.5 64.5t64.5 155zM1024 438.5q0 90.5 -64 155t-155 64.5t-155.5 -64.5t-64.5 -155t64.5 -154.5t155.5 -64t155 64t64 154.5zM2487 1609.5
q0 90.5 -64.5 154.5t-155.5 64t-155 -64t-64 -154.5t64 -155t155 -64.5t155.5 64.5t64.5 155zM1902 1023.5q0 90.5 -64.5 155.5t-155.5 65t-155 -65t-64 -155.5t64 -155t155 -64.5t155.5 64.5t64.5 155zM2487 1023.5q0 90.5 -64.5 155.5t-155.5 65t-155 -65t-64 -155.5
t64 -155t155 -64.5t155.5 64.5t64.5 155zM1902 438.5q0 90.5 -64.5 155t-155.5 64.5t-155 -64.5t-64 -155t64 -154.5t155 -64t155.5 64t64.5 154.5zM2487 438.5q0 90.5 -64.5 155t-155.5 64.5t-155 -64.5t-64 -155t64 -154.5t155 -64t155.5 64t64.5 154.5z" />
</svg>
