<?xml version="1.0" standalone="no"?>
<!DOCTYPE svg PUBLIC "-//W3C//DTD SVG 1.1//EN" "http://www.w3.org/Graphics/SVG/1.1/DTD/svg11.dtd" >
<svg xmlns="http://www.w3.org/2000/svg" xmlns:xlink="http://www.w3.org/1999/xlink" version="1.1" viewBox="-10 0 2068 2048">
   <path fill="currentColor"
d="M146 1974q0 30 -21.5 52t-51.5 22t-51.5 -22t-21.5 -52t21.5 -51.5t51.5 -21.5t51.5 21.5t21.5 51.5zM366 1755q0 30 -21.5 51.5t-51.5 21.5t-52 -21.5t-22 -51.5t22 -51.5t52 -21.5t51.5 21.5t21.5 51.5zM417 1338l293 292l-103 103l-293 -292zM805 1316q0 30 -22 51.5
t-52 21.5t-51.5 -21.5t-21.5 -51.5t21.5 -51.5t51.5 -21.5t52 21.5t22 51.5zM1613 950q0 55 -11 105.5t-24.5 84.5t-40.5 74.5t-43 60.5t-48 57q-35 40 -52 62t-38.5 57.5t-30 73.5t-8.5 84q0 89 -35 170.5t-94 140t-140 93.5t-170 35q-30 0 -51.5 -22t-21.5 -52t21.5 -51.5
t51.5 -21.5q120 0 206 -85.5t86 -206.5q0 -53 10.5 -102t24 -82.5t39.5 -73t43 -59.5t48 -56q34 -39 51.5 -61.5t39 -59t31 -76.5t9.5 -89q0 -104 -41 -198.5t-109.5 -163t-163 -109.5t-198.5 -41t-199 41t-163.5 109.5t-109 163t-40.5 198.5q0 30 -21.5 52t-51.5 22
t-51.5 -22t-21.5 -52q0 -133 52 -255t140 -210t210 -140t255.5 -52t255.5 52t210.5 140t141 210t52.5 255zM1024 1097q0 30 -21.5 51.5t-51.5 21.5t-51.5 -21.5t-21.5 -51.5t21.5 -51.5t51.5 -21.5t51.5 21.5t21.5 51.5zM1353 950q0 30 -21.5 52t-51.5 22t-51.5 -22
t-21.5 -52q0 -106 -75 -181t-181 -75t-181 75t-75 181q0 30 -21.5 52t-51.5 22t-51.5 -22t-21.5 -52q0 -109 53.5 -201.5t146.5 -146.5t202 -54t201.5 54t146.5 146.5t54 201.5zM1802 620q12 29 -0.5 56.5t-41.5 38.5q-13 5 -26 5q-22 0 -41 -12.5t-26 -34.5
q-77 -201 -256 -337q-24 -17 -28 -47.5t14 -53.5q18 -25 48 -29t54 14q208 157 303 400zM2042 528q11 29 -1 56t-41 38q-15 5 -26 5q-23 0 -41.5 -12.5t-27.5 -34.5q-51 -133 -137.5 -247.5t-200.5 -200.5q-25 -18 -29.5 -48.5t14.5 -53.5q17 -25 47.5 -29.5t54.5 14.5
q131 97 230 228.5t158 284.5z" />
</svg>
