<?xml version="1.0" standalone="no"?>
<!DOCTYPE svg PUBLIC "-//W3C//DTD SVG 1.1//EN" "http://www.w3.org/Graphics/SVG/1.1/DTD/svg11.dtd" >
<svg xmlns="http://www.w3.org/2000/svg" xmlns:xlink="http://www.w3.org/1999/xlink" version="1.1" viewBox="-11 0 2654 2048">
   <path fill="currentColor"
d="M1178 1097q-30 -1 -56 -17.5t-40 -45.5q-19 -38 -54 -61t-78 -23q-60 0 -103 43t-43 104q0 63 41 101l11 10q38 35 94 35q43 0 78.5 -22t53.5 -61q14 -29 40 -45.5t56 -17.5zM1828 950q0 -62 -42 -101l-11 -9q-39 -36 -94 -36q-42 0 -77.5 23t-54.5 61q-13 29 -39 45
t-57 17q31 1 57 17.5t39 45.5q19 39 54.5 61.5t77.5 22.5q61 0 104 -43t43 -104zM1341 698q-19 41 -62.5 55.5t-84.5 -5.5q-70 -35 -153 -35q-62 0 -113 19q4 0 11.5 -0.5t10.5 -0.5q106 0 195 57t135 152q20 41 5 84t-57 62q-22 11 -45 11q25 0 45 10q42 20 57 62.5
t-5 83.5q-46 96 -135 152.5t-195 56.5h-7q-18 -2 -50 -4l-332 -31l-273 137q-14 8 -33 8t-37 -10.5t-28 -29.5l-183 -366q-12 -26 -3.5 -54.5t32.5 -42.5l238 -136l170 -305q20 -176 105 -332.5t223 -270.5q36 -29 81 -24.5t73 39.5q30 36 25.5 80.5t-40.5 73.5
q-80 68 -134 146q138 -94 305 -115q46 -6 82 22t41 73q6 46 -21.5 81.5t-73.5 40.5q-95 12 -182 63q56 -12 113 -12q132 0 249 57q42 20 56.5 63.5t-5.5 84.5zM2441 515l183 366q13 26 5 54.5t-33 42.5l-239 136l-169 305q-19 177 -104 333t-224 270q-32 26 -70 26
q-51 0 -85 -40q-29 -35 -24.5 -80.5t39.5 -74.5q81 -68 134 -146q-137 94 -305 115q-10 2 -14 2q-41 0 -72 -27.5t-37 -68.5q-6 -46 22 -82t73 -41q95 -11 182 -63q-55 12 -113 12q-132 0 -249 -57q-41 -20 -56 -63.5t5 -84.5q20 -40 63.5 -55t83.5 5q70 35 153 35
q62 0 113 -19q-3 0 -10.5 0.5t-11.5 0.5q-105 0 -194.5 -56.5t-135.5 -152.5q-19 -41 -3.5 -83.5t56.5 -62.5q22 -11 44 -11q-24 0 -44 -10q-41 -19 -56.5 -62t3.5 -84q46 -95 135.5 -152t194.5 -57h7h1q16 2 48 4l333 31l273 -137q15 -8 33 -8q20 0 38 11t27 29z" />
</svg>
