<?xml version="1.0" standalone="no"?>
<!DOCTYPE svg PUBLIC "-//W3C//DTD SVG 1.1//EN" "http://www.w3.org/Graphics/SVG/1.1/DTD/svg11.dtd" >
<svg xmlns="http://www.w3.org/2000/svg" xmlns:xlink="http://www.w3.org/1999/xlink" version="1.1" viewBox="-10 0 2067 2048">
   <path fill="currentColor"
d="M1206 950q0 30 21.5 52t51.5 22t51.5 -22t21.5 -52q0 -109 -53.5 -201.5t-146.5 -146.5t-202 -54t-201.5 54t-146.5 146.5t-54 201.5q0 30 21.5 52t51.5 22t51.5 -22t21.5 -52q0 -106 75 -181t181 -75t181 75t75 181zM953.5 292q-133.5 0 -255.5 52.5t-210 140.5
t-140.5 210t-52.5 255q0 30 22 52t51.5 22t51 -22t21.5 -52q0 -104 41 -198.5t109.5 -163t163 -109.5t198.5 -41t199 41t163.5 109.5t109 163t40.5 198.5q0 49 -9 89t-31 76.5t-39.5 59t-51.5 61.5q-31 36 -47.5 56t-42.5 59.5t-39.5 73t-24.5 82.5t-11 102
q0 121 -85.5 206.5t-206.5 85.5q-30 0 -51.5 21.5t-21.5 51.5t21.5 52t51.5 22q89 0 170.5 -35t140.5 -93.5t93.5 -140t34.5 -170.5q0 -46 9 -84t30 -73.5t38.5 -57.5t51.5 -62q32 -37 48.5 -57t43 -60.5t40 -74.5t24.5 -84.5t11 -105.5q0 -133 -52.5 -255t-140.5 -210
t-210 -140.5t-255.5 -52.5zM674 1114l259 258l-662 662q-13 14 -32.5 14t-33.5 -14l-192 -192q-13 -13 -13 -32.5t13 -33.5zM1841 13l192 192q14 14 14 34t-14 34l-266 266l-30 29l-81 81q-75 -174 -223 -295l104 -104l237 -237q14 -13 34 -13t33 13z" />
</svg>
