<?xml version="1.0" standalone="no"?>
<!DOCTYPE svg PUBLIC "-//W3C//DTD SVG 1.1//EN" "http://www.w3.org/Graphics/SVG/1.1/DTD/svg11.dtd" >
<svg xmlns="http://www.w3.org/2000/svg" xmlns:xlink="http://www.w3.org/1999/xlink" version="1.1" viewBox="-10 0 1775 2048">
   <path fill="currentColor"
d="M990 588q0 34 -15 108q-12 57 -35.5 171t-35.5 171q-2 13 -5 15.5t-16 2.5q-22 2 -35 2q-35 0 -61 -17t-39.5 -46t-19.5 -59.5t-6 -63.5q0 -63 15.5 -127t52.5 -124t90 -89q32 -16 58 -16q32 0 42 18.5t10 53.5zM1545 1074q0 -16 -45 -87t-59 -77q-27 -8 -39 -8
q-64 0 -124.5 23t-133.5 65l-2 -2q4 -26 31.5 -155t27.5 -203q0 -266 -276 -266q-20 0 -78 6q-81 15 -151 67t-115 123.5t-70.5 155t-25.5 162.5q0 168 92 258t260 90h5h7.5h7t6 1t2.5 3q0 4 -1 6q-4 34 -30 134q-10 35 -30 72t-53.5 67.5t-69.5 30.5q-24 0 -36 -14.5
t-12 -39.5q0 -27 12 -53.5t29 -45t34 -33t29.5 -22.5t12.5 -10q0 -4 -8 -12q-27 -24 -67 -41t-75 -17q-40 0 -72.5 39t-47 86t-14.5 85q0 101 58.5 162.5t158.5 61.5q71 0 137 -34.5t114.5 -91t83 -121.5t52.5 -131q7 -26 17 -77t17 -75q3 -13 16 -22q134 -68 259 -68
q55 0 146 20q2 2 4 2q5 0 10.5 -4.5t5.5 -9.5zM1755 476v1096q0 90 -44 166t-119.5 120t-165.5 44h-1097q-90 0 -165.5 -44t-119.5 -120t-44 -166v-1096q0 -90 44 -166t119.5 -120t165.5 -44h1097q90 0 165.5 44t119.5 120t44 166z" />
</svg>
