<?xml version="1.0" standalone="no"?>
<!DOCTYPE svg PUBLIC "-//W3C//DTD SVG 1.1//EN" "http://www.w3.org/Graphics/SVG/1.1/DTD/svg11.dtd" >
<svg xmlns="http://www.w3.org/2000/svg" xmlns:xlink="http://www.w3.org/1999/xlink" version="1.1" viewBox="-10 0 1690 2048">
   <path fill="currentColor"
d="M808 348q0 -22 -1 -36t-5.5 -30t-13 -25.5t-23.5 -16t-36 -6.5q-45 0 -89 26q-62 35 -110.5 96t-76.5 134.5t-42 148.5t-14 147q0 40 5.5 78t19.5 77t35 68t55.5 47t77.5 18q4 0 20.5 1t23 0t18 -3.5t17 -9.5t8.5 -18q18 -88 54.5 -264.5t55.5 -265.5q21 -105 21 -166z
M1670 1098q0 8 -9 15t-17 7h-7q-27 -4 -71.5 -13t-81.5 -14t-72 -5q-191 0 -401 106q-11 5 -15.5 11t-8.5 19q-12 44 -29.5 125t-24.5 111q-21 81 -59 162.5t-93.5 158.5t-122 136t-150.5 95t-172 36q-154 0 -245 -96t-91 -252q0 -43 14 -97.5t38.5 -106.5t65.5 -87t88 -35
q25 0 79.5 16.5t103.5 43t49 48.5q0 2 -19 15t-45 35t-52.5 51t-44.5 70t-18 85q0 37 18.5 59.5t55.5 22.5q52 0 97.5 -36t76 -89t54.5 -120.5t36.5 -122.5t18.5 -102v-10q0 -3 -3.5 -4.5t-9.5 -1.5t-11.5 0.5t-11.5 1t-7 0.5q-259 0 -402 -140.5t-143 -399.5
q0 -98 24.5 -200.5t73 -199.5t115 -176.5t157 -135.5t191.5 -74q57 -10 121 -10q427 0 427 412q0 84 -16.5 177.5t-41 200.5t-34.5 174l3 4q114 -64 207.5 -100t192.5 -36q26 0 61 16q22 8 91.5 116.5t69.5 133.5z" />
</svg>
