<?xml version="1.0" standalone="no"?>
<!DOCTYPE svg PUBLIC "-//W3C//DTD SVG 1.1//EN" "http://www.w3.org/Graphics/SVG/1.1/DTD/svg11.dtd" >
<svg xmlns="http://www.w3.org/2000/svg" xmlns:xlink="http://www.w3.org/1999/xlink" version="1.1" viewBox="-11 0 1923 2048">
   <path fill="currentColor"
d="M950 769q37 0 67 20l254 169q67 45 126 111l166 195q46 53 34 121l-83 472q-7 36 -34 61t-63 29l-602 64l-402 37h-11q-45 0 -77 -32t-32 -78q0 -42 30.5 -73.5t74.5 -36.5l297 -36h-512q-47 0 -79.5 -34.5t-30.5 -81.5q2 -43 36.5 -73.5t79.5 -30.5l505 -1l-596 -73
q-47 -5 -75.5 -42t-21.5 -84q7 -40 39.5 -65.5t74.5 -25.5h12l550 68l-402 -107q-44 -11 -71 -47t-20 -79q7 -40 38 -66t71 -26q6 0 22 2l512 110l248 42q1 0 3.5 0.5t3.5 0.5q26 0 34.5 -25.5t-13.5 -41.5l-213 -143q-40 -26 -48 -72.5t21 -84.5q31 -43 87 -43zM870 1000
l212 142l-249 -42l-6 -2l-41 -44l-272 -299q-1 -1 -2.5 -4t-2.5 -4q-27 -34 -21 -79t42 -73q35 -26 77.5 -20.5t73.5 38.5l162 167q-2 2 -5.5 5t-4.5 4q-37 51 -26 113t63 98zM1882 482l18 303q5 82 -13 168l-55 250q-13 67 -76 99l-121 62q1 -72 -44 -124l-167 -195
q-58 -66 -134 -117l-253 -170q-38 -25 -87 -25q-59 0 -101 41l-268 -355q-29 -38 -21.5 -84.5t47.5 -72.5q37 -25 81 -16t72 46l304 402l-299 -520q-24 -41 -12 -86t54 -67q40 -20 82.5 -6.5t65.5 52.5l276 480l-156 -385q-18 -41 -5.5 -85.5t51.5 -63.5q42 -22 86.5 -6.5
t64.5 58.5l221 474l115 223q8 17 25.5 20t31 -8t13.5 -30l-14 -255q-3 -48 29 -82.5t79 -34.5q44 0 76 32.5t34 77.5z" />
</svg>
