<?xml version="1.0" standalone="no"?>
<!DOCTYPE svg PUBLIC "-//W3C//DTD SVG 1.1//EN" "http://www.w3.org/Graphics/SVG/1.1/DTD/svg11.dtd" >
<svg xmlns="http://www.w3.org/2000/svg" xmlns:xlink="http://www.w3.org/1999/xlink" version="1.1" viewBox="-10 0 1481 2048">
   <path fill="currentColor"
d="M1200 1264q0 246 -168 428q-168 184 -432 184q-265 0 -432 -184q-168 -182 -168 -428q0 -125 46 -239t125 -197t191 -132.5t238 -49.5q109 0 208 36q-36 71 -45 144q-74 -32 -163 -32q-95 0 -179.5 39t-143 103.5t-93 151t-34.5 180.5q0 127 57.5 233t161 168.5
t231.5 62.5t231.5 -62.5t160.5 -168.5t57 -233q0 -103 -36 -190q73 -15 140 -56q47 113 47 242zM967 1048q0 220 -91 394.5t-273 289.5h-16q-24 0 -70 -6q68 -26 125 -75.5t96.5 -110.5t70 -137.5t49 -152.5t30 -160t15.5 -154.5t4 -141.5q0 -80 -3 -118q63 184 63 372z
M904 674v2q-83 -246 -235 -504q68 46 121 135.5t80 183t34 183.5zM1183 906q-95 0 -183 -86q249 -137 331 -282q22 -44 24 -64q-48 107 -159 189.5t-234 110.5q-40 -62 -40 -128q0 -43 19.5 -91t49.5 -77q52 -50 179 -84q67 -19 121 -68t85 -114q85 122 85 288
q0 45 -7.5 103t-20.5 91q-17 41 -40.5 77t-54.5 67t-71 49.5t-84 18.5z" />
</svg>
