<?xml version="1.0" standalone="no"?>
<!DOCTYPE svg PUBLIC "-//W3C//DTD SVG 1.1//EN" "http://www.w3.org/Graphics/SVG/1.1/DTD/svg11.dtd" >
<svg xmlns="http://www.w3.org/2000/svg" xmlns:xlink="http://www.w3.org/1999/xlink" version="1.1" viewBox="-10 0 1775 2048">
   <path fill="currentColor"
d="M1200 1190q0 -90 -32 -168q-48 28 -97 38q25 57 25 130q0 88 -39.5 161t-111 116t-158.5 43q-88 0 -159 -43t-110.5 -116t-39.5 -161q0 -86 39.5 -160t111 -119t158.5 -45q61 0 112 22q4 -48 31 -100q-69 -24 -143 -24q-116 0 -211 57.5t-148 155t-53 213.5
q0 115 53.5 211.5t148.5 152.5t210 56t210 -56.5t149 -152.5t54 -211zM997 784q2 28 2 82q0 71 -6 139.5t-24 151t-46 148.5t-78 122t-115 81q24 2 48 2h12q125 -79 187.5 -198.5t62.5 -269.5q0 -136 -43 -258zM997 784q-5 -91 -51 -196t-112 -150q107 183 163 346z
M1379 664q0 -116 -58 -198q-21 44 -58.5 77.5t-83.5 46.5q-37 10 -65 23t-53 33t-38.5 50t-13.5 68q0 46 28 88q84 -19 159.5 -75.5t109.5 -132.5q-2 32 -30.5 70t-70 71.5t-76.5 57t-66 41.5q59 58 126 58q58 0 102 -42t69 -102q19 -47 19 -134zM1755 476v1096
q0 90 -44 166t-119.5 120t-165.5 44h-1097q-90 0 -165.5 -44t-119.5 -120t-44 -166v-1096q0 -90 44 -166t119.5 -120t165.5 -44h1097q90 0 165.5 44t119.5 120t44 166z" />
</svg>
