<?xml version="1.0" standalone="no"?>
<!DOCTYPE svg PUBLIC "-//W3C//DTD SVG 1.1//EN" "http://www.w3.org/Graphics/SVG/1.1/DTD/svg11.dtd" >
<svg xmlns="http://www.w3.org/2000/svg" xmlns:xlink="http://www.w3.org/1999/xlink" version="1.1" viewBox="-10 0 1775 2048">
   <path fill="currentColor"
d="M1462 1312q0 -26 -25 -30q-77 -17 -135.5 -67.5t-91.5 -124.5q-8 -24 -8 -28q0 -17 22.5 -29.5t49 -19.5t49 -24t22.5 -41q0 -22 -21 -36t-44 -14q-13 0 -36.5 9t-35.5 9q-4 0 -14 -2q6 -130 6 -132q0 -90 -19 -130q-41 -89 -118 -138.5t-174 -49.5q-111 0 -189.5 45
t-124.5 143q-20 42 -20 130q0 2 6 132q-5 2 -16 2q-13 0 -36 -9t-35 -9q-24 0 -44 14t-20 36q0 24 22.5 40.5t49 24t49 20t22.5 29.5q0 4 -8 28q-35 75 -92 125t-134 67q-25 4 -25 30q0 51 151 77q3 0 5 1q3 6 6 22t6 26t12 19t23 9t43 -6t45 -6q33 0 62.5 11.5t53 27.5
t47.5 32t57.5 27.5t71.5 11.5q40 0 74 -11.5t58 -27.5t47 -32t52 -27.5t62 -11.5q16 0 45 5t44 5q18 0 26.5 -11t13 -34.5t6.5 -28.5q2 -1 5 -1q152 -26 152 -77zM1755 1024.5q0 119.5 -31.5 233t-88 210t-137.5 177.5t-177 137.5t-210 88t-233 31.5t-233 -31.5t-210.5 -88
t-177.5 -137.5t-137.5 -177.5t-88 -210t-31.5 -233t31.5 -233.5t88 -210t137.5 -177t177.5 -137.5t210.5 -88.5t233 -32t233 32t210 88.5t177 137.5t137.5 177t88 210t31.5 233.5z" />
</svg>
