<?xml version="1.0" standalone="no"?>
<!DOCTYPE svg PUBLIC "-//W3C//DTD SVG 1.1//EN" "http://www.w3.org/Graphics/SVG/1.1/DTD/svg11.dtd" >
<svg xmlns="http://www.w3.org/2000/svg" xmlns:xlink="http://www.w3.org/1999/xlink" version="1.1" viewBox="-10 0 1888 2048">
   <path fill="currentColor"
d="M952 147q153 -2 275 77.5t187 220.5q31 66 31 205q0 57 -11 218q14 8 32 8q20 0 58 -15.5t59 -15.5q33 0 64 20.5t31 52.5q0 30 -23.5 51.5t-57.5 33.5l-68 24t-57.5 30.5t-23.5 45.5q0 18 14 50q43 93 118 170.5t164 115.5q32 13 92 27q32 7 32 40q0 18 -14 34.5
t-40 28.5t-51 21t-58 16t-50 10t-38 7q-8 12 -12.5 44t-15.5 53.5t-38 21.5q-23 0 -71 -7.5t-73 -7.5q-43 0 -71 6q-36 6 -71.5 26t-66 43.5t-66 46t-87 38t-113.5 15.5q-60 0 -110.5 -15.5t-85.5 -38t-66 -46t-66 -43.5t-71 -26q-29 -6 -72 -6q-27 0 -75 9t-67 9
q-22 0 -34.5 -14.5t-15 -32.5t-7.5 -41t-12 -34q-20 -4 -37.5 -7t-50 -10t-58 -16t-51 -21t-39.5 -28.5t-14 -34.5q0 -33 32 -40q60 -14 92 -27q89 -37 164.5 -115.5t117.5 -170.5q14 -32 14 -50q0 -27 -24 -46t-58 -31t-67.5 -24t-57.5 -33t-24 -50q0 -32 29.5 -52.5
t62.5 -20.5q16 0 54 15t62 15q21 0 36 -8q-10 -144 -10 -217q0 -140 31 -206q73 -157 196.5 -227t301.5 -71z" />
</svg>
