<?xml version="1.0" standalone="no"?>
<!DOCTYPE svg PUBLIC "-//W3C//DTD SVG 1.1//EN" "http://www.w3.org/Graphics/SVG/1.1/DTD/svg11.dtd" >
<svg xmlns="http://www.w3.org/2000/svg" xmlns:xlink="http://www.w3.org/1999/xlink" version="1.1" viewBox="-10 0 1775 2048">
   <path fill="currentColor"
d="M1463 1312q0 -26 -25 -30q-76 -17 -135 -67.5t-92 -124.5q-8 -14 -8 -28q0 -17 22 -29.5t49 -19.5t49 -24t22 -41q0 -22 -21 -36t-44 -14q-12 0 -35.5 9t-36.5 9q-4 0 -14 -2q6 -86 6 -132q0 -89 -19 -130q-41 -90 -117.5 -140t-174.5 -50q-226 0 -314 190
q-21 45 -21 130q0 31 7 132q-12 2 -17 2q-13 0 -36 -9t-35 -9q-24 0 -43.5 14t-19.5 36q0 24 22 40.5t49 24t49 20t22 29.5q0 14 -8 28q-35 75 -92 125t-134 67q-25 4 -25 30q0 53 157 78q3 7 6 23t6 26t11.5 18.5t22.5 8.5q15 0 44 -6t44 -6q33 0 63 11.5t53.5 27.5
t47.5 32t57.5 27.5t71.5 11.5q40 0 74 -11.5t58 -27.5t47 -32t52.5 -27.5t62.5 -11.5q15 0 45 6t45 6q14 0 22.5 -9t11 -19t5.5 -25.5t5 -22.5q158 -25 158 -78zM1755 476v1096q0 90 -44 166t-119.5 120t-165.5 44h-1097q-90 0 -165.5 -44t-119.5 -120t-44 -166v-1096
q0 -90 44 -166t119.5 -120t165.5 -44h1097q90 0 165.5 44t119.5 120t44 166z" />
</svg>
