<?xml version="1.0" standalone="no"?>
<!DOCTYPE svg PUBLIC "-//W3C//DTD SVG 1.1//EN" "http://www.w3.org/Graphics/SVG/1.1/DTD/svg11.dtd" >
<svg xmlns="http://www.w3.org/2000/svg" xmlns:xlink="http://www.w3.org/1999/xlink" version="1.1" viewBox="-10 0 2653 2048">
   <path fill="currentColor"
d="M2633 73q-79 53 -143 106t-101.5 93t-67.5 81t-42.5 65.5t-25 51t-16.5 32.5q-11 21 -40.5 156.5t-55.5 187.5q-17 34 -57.5 69.5t-77 58t-82 47.5t-55.5 31q-53 36 -173 264q-190 -7 -374 39t-346 142q-105 61 -346 204q54 -17 98.5 -34t61.5 -25l18 -9
q83 -31 186.5 -73.5t152.5 -61.5t124 -40t162 -36q86 -14 200 -14t189 6.5t143 15.5q3 0 7 2l4 2q12 7 16 19.5t-3 24.5l-222 395q-8 15 -23 22t-31 3q-154 -28 -404 -28q-109 0 -234.5 16t-222 34.5t-221 35.5t-230.5 18q-76 1 -142 -10t-107.5 -27t-75.5 -38t-49.5 -37
t-25.5 -29l-0.5 -1.5t-0.5 -2.5q0 -7 7 -7q18 0 51.5 -1.5t144 -17.5t228.5 -44q112 -213 221 -364t216 -242t211.5 -132t217.5 -41q6 0 17 1t43 6t62.5 13.5t70.5 27.5t72.5 45t62 68t45.5 94l116 -202l35 -69t72.5 -138.5t106.5 -176.5t142 -198q44 -54 88.5 -101
t80.5 -80t77 -63t68 -47.5t65.5 -36.5t57.5 -27t54 -23z" />
</svg>
