<?xml version="1.0" standalone="no"?>
<!DOCTYPE svg PUBLIC "-//W3C//DTD SVG 1.1//EN" "http://www.w3.org/Graphics/SVG/1.1/DTD/svg11.dtd" >
<svg xmlns="http://www.w3.org/2000/svg" xmlns:xlink="http://www.w3.org/1999/xlink" version="1.1" viewBox="-10 0 1775 2048">
   <path fill="currentColor"
d="M1511 1024q0 51 -6 86l-270 -16l256 90q-23 88 -66 161l-244 -118l202 181q-50 70 -122 123l-180 -203l118 245q-70 43 -160 68l-90 -261l16 274q-41 7 -87 7t-87 -7l16 -272l-89 259q-86 -23 -160 -68l117 -245l-179 203q-68 -49 -123 -123l203 -181l-245 119
q-43 -75 -66 -161l256 -91l-271 16q-5 -48 -5 -86q0 -40 5 -88l272 16l-257 -91q23 -87 66 -160l245 119l-202 -182q52 -70 122 -123l181 203l-118 -245q76 -45 160 -67l88 256l-15 -269q38 -7 86 -7q46 0 87 7l-16 271l89 -258q86 23 160 68l-118 244l181 -203
q70 53 122 123l-202 182l243 -119q41 68 66 161l-256 90l271 -16q6 35 6 88zM1545 1024q0 -182 -89.5 -337t-243 -245t-334.5 -90t-335 90t-243.5 245t-89.5 337q0 136 53 260t142.5 214t213 143t259.5 53t259.5 -53t212.5 -143t142 -214t53 -260zM1629 586v875l-751 438
l-751 -438v-875l751 -438zM878 1964l809 -471v-940l-809 -470l-809 470v940zM1755 512v1024l-877 512l-878 -512v-1024l878 -512z" />
</svg>
