<?xml version="1.0" standalone="no"?>
<!DOCTYPE svg PUBLIC "-//W3C//DTD SVG 1.1//EN" "http://www.w3.org/Graphics/SVG/1.1/DTD/svg11.dtd" >
<svg xmlns="http://www.w3.org/2000/svg" xmlns:xlink="http://www.w3.org/1999/xlink" version="1.1" viewBox="-10 0 1775 2048">
   <path fill="currentColor"
d="M1048 1034q0 -39 -7 -72h-414v150h248q-13 87 -85 137.5t-163 50.5q-114 0 -193.5 -81t-79.5 -194.5t80 -195t193 -81.5q107 0 175 66l119 -114q-123 -114 -294 -114q-119 0 -220 58.5t-159.5 159.5t-58.5 220.5t58.5 220t159.5 159t220 58.5q125 0 221 -54.5t148 -151.5
t52 -222zM1442 1086h125v-124h-125v-126h-125v126h-126v124h126v126h125v-126zM1755 1024.5q0 119.5 -31.5 233t-88 210t-137.5 177.5t-177 137.5t-210 88t-233 31.5t-233 -31.5t-210.5 -88t-177.5 -137.5t-137.5 -177.5t-88 -210t-31.5 -233t31.5 -233.5t88 -210
t137.5 -177t177.5 -137.5t210.5 -88.5t233 -32t233 32t210 88.5t177 137.5t137.5 177t88 210t31.5 233.5z" />
</svg>
