<?xml version="1.0" standalone="no"?>
<!DOCTYPE svg PUBLIC "-//W3C//DTD SVG 1.1//EN" "http://www.w3.org/Graphics/SVG/1.1/DTD/svg11.dtd" >
<svg xmlns="http://www.w3.org/2000/svg" xmlns:xlink="http://www.w3.org/1999/xlink" version="1.1" viewBox="-10 0 1733 2048">
   <path fill="currentColor"
d="M1713 585v959q0 26 -15.5 44.5t-40.5 25.5q-198 60 -386 60q-83 0 -246 -34t-260 -34q-188 0 -423 55v387h-183v-1564q-72 -28 -115.5 -92.5t-43.5 -141.5q0 -103 73.5 -176.5t177.5 -73.5q103 0 176.5 73t73.5 177q0 77 -43.5 141.5t-115.5 92.5v78q213 -50 392 -50
q110 0 226 17q13 2 126 25.5t173 23.5q88 0 188 -21q13 -2 91.5 -23.5t101.5 -21.5q30 0 51.5 21.5t21.5 51.5z" />
</svg>
