<?xml version="1.0" standalone="no"?>
<!DOCTYPE svg PUBLIC "-//W3C//DTD SVG 1.1//EN" "http://www.w3.org/Graphics/SVG/1.1/DTD/svg11.dtd" >
<svg xmlns="http://www.w3.org/2000/svg" xmlns:xlink="http://www.w3.org/1999/xlink" version="1.1" viewBox="-10 0 2653 2048">
   <path fill="currentColor"
d="M219 1216q34 0 53.5 -22.5t19.5 -50t-19.5 -50.5t-53.5 -23t-53.5 23t-19.5 50.5t19.5 50t53.5 22.5zM1903 1150q-7 -9 -43.5 -57t-48 -63t-42.5 -54.5t-49.5 -61t-45.5 -52.5t-52 -57l-143 160q-62 71 -150 95t-175.5 -3t-147.5 -99q-65 -78 -65 -180t67 -180l202 -236
q-25 -13 -58 -19t-54 -6.5t-64 0.5t-57 1q-104 0 -180 76l-181 180h-177v622h24h25t22 1.5t23.5 5t20 10t21.5 15.5l339 334q133 127 260 127q89 0 143 -54q65 23 128.5 -8.5t82.5 -97.5q83 8 145 -51q23 -21 41 -52t16 -57q11 11 49 11q49 0 88 -24t57 -60t13.5 -81.5
t-34.5 -84.5zM2085 1216h109v-585h-106l-179 -206q-36 -41 -87.5 -64t-106.5 -23h-190q-48 0 -92 20.5t-75 56.5l-239 278q-31 38 -31.5 86t30.5 85q49 59 125.5 60t126.5 -56l221 -250q19 -20 45 -23t46 9t31 35.5t2 49.5q19 23 64.5 73.5t68.5 76.5q33 42 94 121.5
t74 95.5q59 78 69 160zM2414 1216q34 0 53.5 -22.5t19.5 -50t-19.5 -50.5t-53.5 -23t-53.5 23t-19.5 50.5t19.5 50t53.5 22.5zM2633 558v731q0 30 -21.5 51.5t-51.5 21.5h-496q-30 74 -94 122t-143 59q-37 56 -91.5 94t-117.5 51q-48 61 -119 94t-147 27q-68 39 -143.5 45.5
t-146 -15.5t-134 -61t-118.5 -93l-328 -323h-409q-30 0 -51.5 -21.5t-21.5 -51.5v-768q0 -30 21.5 -51.5t51.5 -21.5h481q17 -16 48 -48t47 -48t44.5 -42t48 -40t49 -31t56 -25.5t60 -15t70.5 -6.5h134q112 0 207 64q95 -64 207 -64h190q40 0 76.5 7.5t64.5 17t59 30
t51 35.5t49.5 45.5t44.5 48t47 55t47 54.5h406q30 0 51.5 21.5t21.5 51.5z" />
</svg>
