<?xml version="1.0" standalone="no"?>
<!DOCTYPE svg PUBLIC "-//W3C//DTD SVG 1.1//EN" "http://www.w3.org/Graphics/SVG/1.1/DTD/svg11.dtd" >
<svg xmlns="http://www.w3.org/2000/svg" xmlns:xlink="http://www.w3.org/1999/xlink" version="1.1" viewBox="-10 0 2361 2048">
   <path fill="currentColor"
d="M1170 1292q0 -57 -5.5 -107t-21 -100.5t-40 -86t-65 -58t-92.5 -22.5q-7 4 -34.5 21t-43 25t-41 19.5t-49 17t-47.5 5.5t-47.5 -5.5t-48.5 -17t-41 -20t-42.5 -24.5t-34.5 -21q-52 0 -92.5 22.5t-65 58t-40 86t-21 100.5t-5.5 107q0 74 42.5 122t103.5 48h585
q61 0 103.5 -48t42.5 -122zM991 698q0 -107 -76.5 -183.5t-183.5 -76.5t-183 76.5t-76 183.5q0 108 76 184t183.5 76t183.5 -76t76 -184zM2048 1280v-74q0 -15 -10.5 -25.5t-26.5 -10.5h-658q-16 0 -26 10.5t-10 25.5v74q0 16 10 26t26 10h658q16 0 26.5 -10t10.5 -26z
M2048 982v-64q0 -17 -12 -28.5t-29 -11.5h-649q-17 0 -29 11.5t-12 28.5v64q0 18 12 30t29 12h649q17 0 29 -12t12 -30zM2048 694v-72q0 -16 -10.5 -26t-26.5 -10h-658q-16 0 -26 10t-10 26v72q0 16 10 27t26 11h658q16 0 26.5 -11t10.5 -27zM2341 330v1388q0 76 -53.5 130
t-129.5 54h-403v-110q0 -15 -10 -25.5t-26 -10.5h-73q-16 0 -26.5 10.5t-10.5 25.5v110h-878v-110q0 -15 -10 -25.5t-26 -10.5h-73q-16 0 -26.5 10.5t-10.5 25.5v110h-402q-76 0 -129.5 -54t-53.5 -130v-1388q0 -76 53.5 -130t129.5 -54h1975q76 0 129.5 54t53.5 130z" />
</svg>
