<?xml version="1.0" standalone="no"?>
<!DOCTYPE svg PUBLIC "-//W3C//DTD SVG 1.1//EN" "http://www.w3.org/Graphics/SVG/1.1/DTD/svg11.dtd" >
<svg xmlns="http://www.w3.org/2000/svg" xmlns:xlink="http://www.w3.org/1999/xlink" version="1.1" viewBox="-10 0 2361 2048">
   <path fill="currentColor"
d="M1170 1292q0 74 -42.5 122t-103.5 48h-585q-61 0 -103.5 -48t-42.5 -122q0 -57 5.5 -107t21 -100.5t40 -86t65 -58t92.5 -22.5q8 5 34.5 21t42.5 24.5t41 20t48.5 17t47.5 5.5t47.5 -5.5t49 -17t41 -19.5t43 -25t34.5 -21q52 0 92.5 22.5t65 58t40 86t21 100.5t5.5 107z
M991 698q0 108 -76 184t-183.5 76t-183.5 -76t-76 -184q0 -107 76 -183.5t183 -76.5t183.5 76.5t76.5 183.5zM2048 1206v74q0 16 -10.5 26t-26.5 10h-658q-16 0 -26 -10t-10 -26v-74q0 -15 10 -25.5t26 -10.5h658q16 0 26.5 10.5t10.5 25.5zM2048 918v64q0 18 -12 30t-29 12
h-649q-17 0 -29 -12t-12 -30v-64q0 -17 12 -28.5t29 -11.5h649q17 0 29 11.5t12 28.5zM2048 622v72q0 16 -10.5 27t-26.5 11h-658q-16 0 -26 -11t-10 -27v-72q0 -16 10 -26t26 -10h658q16 0 26.5 10t10.5 26zM2194 1718v-1388q0 -15 -11 -26.5t-25 -11.5h-1975
q-14 0 -25.5 11.5t-11.5 26.5v1388q0 15 11.5 26.5t25.5 11.5h402v-110q0 -16 10.5 -26t26.5 -10h73q16 0 26 10t10 26v110h878v-110q0 -16 10.5 -26t26.5 -10h73q16 0 26 10t10 26v110h403q14 0 25 -11.5t11 -26.5zM2341 330v1388q0 76 -53.5 130t-129.5 54h-1975
q-76 0 -129.5 -54t-53.5 -130v-1388q0 -76 53.5 -130t129.5 -54h1975q76 0 129.5 54t53.5 130z" />
</svg>
