<?xml version="1.0" standalone="no"?>
<!DOCTYPE svg PUBLIC "-//W3C//DTD SVG 1.1//EN" "http://www.w3.org/Graphics/SVG/1.1/DTD/svg11.dtd" >
<svg xmlns="http://www.w3.org/2000/svg" xmlns:xlink="http://www.w3.org/1999/xlink" version="1.1" viewBox="-10 0 1775 2048">
   <path fill="currentColor"
d="M1373 896q54 16 102 43t101.5 83t91 132t62.5 197t25 270q0 176 -114 301.5t-275 125.5h-976q-161 0 -275.5 -125.5t-114.5 -301.5q0 -149 25 -270t63 -197t91.5 -132t101.5 -83t102 -43q-90 -142 -90 -311q0 -158 78.5 -293t213.5 -213.5t293 -78.5t293 78.5
t213.5 213.5t78.5 293q0 169 -90 311zM878 146q-182 0 -310.5 129t-128.5 310t128.5 310t310.5 129t310.5 -129t128.5 -310t-128.5 -310t-310.5 -129zM1366 1901q101 0 172 -82t71 -198q0 -273 -89.5 -430.5t-257.5 -165.5q-166 145 -384 145t-384 -145q-168 8 -258 165.5
t-90 430.5q0 116 71.5 198t172.5 82h976z" />
</svg>
