<?xml version="1.0" standalone="no"?>
<!DOCTYPE svg PUBLIC "-//W3C//DTD SVG 1.1//EN" "http://www.w3.org/Graphics/SVG/1.1/DTD/svg11.dtd" >
<svg xmlns="http://www.w3.org/2000/svg" xmlns:xlink="http://www.w3.org/1999/xlink" version="1.1" viewBox="-10 0 1483 2048">
   <path fill="currentColor"
d="M1170 1437q0 73 -42.5 122.5t-103.5 49.5h-585q-61 0 -103.5 -49.5t-42.5 -122.5q0 -57 6 -107.5t21.5 -101t40 -86.5t64.5 -58.5t92 -22.5q91 86 214 86q124 0 215 -86q52 0 92 22.5t64.5 58.5t40 86.5t21.5 101t6 107.5zM994 844q0 108 -77 184t-186 76t-185.5 -76
t-76.5 -184q0 -107 76.5 -183t185.5 -76t186 76t77 183zM1317 1865v-1573h-1171v1573q0 14 11.5 25t25.5 11h1097q14 0 25.5 -11t11.5 -25zM1463 182v1683q0 76 -53.5 129.5t-129.5 53.5h-1097q-76 0 -129.5 -53.5t-53.5 -129.5v-1683q0 -76 53.5 -129t129.5 -53h402v109
q0 16 10.5 26.5t26.5 10.5h219q16 0 26.5 -10.5t10.5 -26.5v-109h402q76 0 129.5 53t53.5 129z" />
</svg>
