<?xml version="1.0" standalone="no"?>
<!DOCTYPE svg PUBLIC "-//W3C//DTD SVG 1.1//EN" "http://www.w3.org/Graphics/SVG/1.1/DTD/svg11.dtd" >
<svg xmlns="http://www.w3.org/2000/svg" xmlns:xlink="http://www.w3.org/1999/xlink" version="1.1" viewBox="-10 0 2361 2048">
   <path fill="currentColor"
d="M1024 1386q0 -49 -5 -92.5t-17.5 -87.5t-33 -75t-54 -51t-77.5 -20q-73 74 -179 74q-105 0 -178 -74q-44 0 -77.5 20t-54 51t-33 75t-17.5 87.5t-5 92.5q0 62 36 106t86 44h487q50 0 86 -44t36 -106zM878 877.5q0 -90.5 -64.5 -155t-155.5 -64.5t-155 64.5t-64 155
t64 155.5t155 65t155.5 -65t64.5 -155.5zM2048 1426v-72q0 -16 -10.5 -27t-26.5 -11h-804q-16 0 -26.5 11t-10.5 27v72q0 16 10.5 26t26.5 10h804q16 0 26.5 -10t10.5 -26zM1609 1134v-74q0 -15 -10 -25.5t-26 -10.5h-366q-16 0 -26.5 10.5t-10.5 25.5v74q0 15 10.5 25.5
t26.5 10.5h366q16 0 26 -10.5t10 -25.5zM2048 1134v-74q0 -15 -10.5 -25.5t-26.5 -10.5h-219q-16 0 -26.5 10.5t-10.5 25.5v74q0 15 10.5 25.5t26.5 10.5h219q16 0 26.5 -10.5t10.5 -25.5zM2048 842v-74q0 -15 -10.5 -25.5t-26.5 -10.5h-804q-16 0 -26.5 10.5t-10.5 25.5v74
q0 15 10.5 25.5t26.5 10.5h804q16 0 26.5 -10.5t10.5 -25.5zM146 438h2048v-108q0 -16 -10 -27t-26 -11h-1975q-16 0 -26.5 11t-10.5 27v108zM2341 330v1388q0 76 -53.5 130t-129.5 54h-1975q-76 0 -129.5 -54t-53.5 -130v-1388q0 -76 53.5 -130t129.5 -54h1975
q76 0 129.5 54t53.5 130z" />
</svg>
