<?xml version="1.0" standalone="no"?>
<!DOCTYPE svg PUBLIC "-//W3C//DTD SVG 1.1//EN" "http://www.w3.org/Graphics/SVG/1.1/DTD/svg11.dtd" >
<svg xmlns="http://www.w3.org/2000/svg" xmlns:xlink="http://www.w3.org/1999/xlink" version="1.1" viewBox="-10 0 2361 2048">
   <path fill="currentColor"
d="M1024 1386q0 62 -36 106t-86 44h-487q-50 0 -86 -44t-36 -106q0 -49 5 -92.5t17.5 -87.5t33 -75t54 -51t77.5 -20q73 74 178 74q106 0 179 -74q44 0 77.5 20t54 51t33 75t17.5 87.5t5 92.5zM878 877.5q0 90.5 -64.5 155.5t-155.5 65t-155 -65t-64 -155.5t64 -155
t155 -64.5t155.5 64.5t64.5 155zM2048 1354v72q0 16 -10.5 26t-26.5 10h-804q-16 0 -26.5 -10t-10.5 -26v-72q0 -16 10.5 -27t26.5 -11h804q16 0 26.5 11t10.5 27zM1609 1060v74q0 15 -10 25.5t-26 10.5h-366q-16 0 -26.5 -10.5t-10.5 -25.5v-74q0 -15 10.5 -25.5
t26.5 -10.5h366q16 0 26 10.5t10 25.5zM2048 1060v74q0 15 -10.5 25.5t-26.5 10.5h-219q-16 0 -26.5 -10.5t-10.5 -25.5v-74q0 -15 10.5 -25.5t26.5 -10.5h219q16 0 26.5 10.5t10.5 25.5zM2048 768v74q0 15 -10.5 25.5t-26.5 10.5h-804q-16 0 -26.5 -10.5t-10.5 -25.5v-74
q0 -15 10.5 -25.5t26.5 -10.5h804q16 0 26.5 10.5t10.5 25.5zM2194 1718v-1280h-2048v1280q0 15 11.5 26.5t25.5 11.5h1975q14 0 25 -11.5t11 -26.5zM2341 330v1388q0 76 -53.5 130t-129.5 54h-1975q-76 0 -129.5 -54t-53.5 -130v-1388q0 -76 53.5 -130t129.5 -54h1975
q76 0 129.5 54t53.5 130z" />
</svg>
