<?xml version="1.0" standalone="no"?>
<!DOCTYPE svg PUBLIC "-//W3C//DTD SVG 1.1//EN" "http://www.w3.org/Graphics/SVG/1.1/DTD/svg11.dtd" >
<svg xmlns="http://www.w3.org/2000/svg" xmlns:xlink="http://www.w3.org/1999/xlink" version="1.1" viewBox="-10 0 2002 2048">
   <path fill="currentColor"
d="M1401 899q0 -363 -119.5 -542t-377.5 -179q-254 0 -372.5 179t-118.5 542q0 361 118.5 539t372.5 178q84 0 150 -20q-32 -63 -58 -104t-65 -86t-87.5 -67.5t-106.5 -22.5q-53 0 -90 18l-56 -110q120 -104 315 -104q79 0 144 17.5t115 52t87 74t73 94.5q76 -170 76 -459z
M1847 1621h134q2 20 0 49.5t-12 71t-27 82.5t-48.5 82t-73.5 72t-105.5 50.5t-140.5 19.5q-82 0 -150 -22t-120 -64t-90.5 -89t-75.5 -110q-109 31 -234 31q-171 0 -334 -66.5t-289.5 -181.5t-203.5 -284.5t-77 -362.5q0 -156 50 -298t137 -250t201 -188t247 -121.5
t269 -41.5q139 0 273 41.5t248 121t201 187.5t136.5 250t49.5 299q0 217 -92 396.5t-250 302.5q53 80 106.5 122t119.5 42q70 0 107.5 -42.5t43.5 -98.5z" />
</svg>
