<?xml version="1.0" standalone="no"?>
<!DOCTYPE svg PUBLIC "-//W3C//DTD SVG 1.1//EN" "http://www.w3.org/Graphics/SVG/1.1/DTD/svg11.dtd" >
<svg xmlns="http://www.w3.org/2000/svg" xmlns:xlink="http://www.w3.org/1999/xlink" version="1.1" viewBox="-10 0 2653 2048">
   <path fill="currentColor"
d="M518 1870q0 25 -18.5 43.5t-42.5 18.5l-15 -2q-71 -17 -185 -160q-257 -325 -257 -774q0 -390 243 -702q26 -33 58.5 -69t80 -72.5t77.5 -36.5q23 0 41 16t18 38q0 4 -1.5 10t-3.5 11t-6.5 11.5t-7.5 11.5t-9 12l-9 10.5t-10 10.5t-9 9.5t-8.5 9t-7.5 6.5
q-112 116 -168 210q-71 120 -103.5 244.5t-32.5 269.5q0 321 140 560q56 97 156 198q2 3 16.5 18t22.5 24t19 23.5t16.5 27t5.5 23.5zM2053 1718q0 32 -20.5 55t-53.5 23h-1235q-30 0 -51.5 -22t-21.5 -52q0 -32 20 -55t53 -23h1235q30 0 52 22t22 52zM1807 1020
q0 152 -77 266q-29 43 -79.5 89.5t-95.5 68.5q-18 12 -30 12q-7 0 -17 -6.5t-10 -13.5q0 -10 22 -34.5t48 -53t48 -77t22 -101.5q0 -86 -40 -148q-35 -48 -53 -48q-3 0 -3 6q0 13 8.5 40t8.5 42q0 25 -24.5 39.5t-51.5 14.5q-38 0 -56.5 -23.5t-18.5 -62.5q0 -17 1.5 -50.5
t1.5 -49.5q0 -29 -11 -54q-15 -29 -47.5 -61.5t-58.5 -32.5q-8 0 -11 2t-3 10q0 5 9 16t18.5 30t9.5 44q0 36 -15.5 67.5t-39 53t-50.5 46t-50.5 46t-39 53t-15.5 66.5q0 57 10 99.5t38 82.5q34 50 91 72q1 1 2 1l9 3t6 5t3 9q0 18 -20 18q-3 0 -10.5 -2.5t-17 -6
t-10.5 -3.5q-137 -50 -223.5 -160t-86.5 -250q0 -62 28 -131.5t68 -131.5t80.5 -123.5t68.5 -129.5t28 -128q0 -63 -28 -108q-12 -18 -31 -41t-33 -31q-22 -13 -22 -24q0 -13 15.5 -18.5t31.5 -5.5q56 0 126 34q47 21 81.5 50t56.5 58.5t38 71.5t25 79t18 91q0 2 3 20.5
t5.5 28.5t7 29t10 30.5t12.5 24.5t17 19t21 6q26 0 42 -16t16 -42q0 -28 -23 -76t-23 -60t12 -12q30 0 106 80q82 88 117 179.5t35 212.5zM2633 1052q0 152 -40 299t-118 277q-22 36 -55 81.5t-77.5 98.5t-92.5 88.5t-84 35.5q-18 0 -35.5 -18t-17.5 -36t33 -58.5
t78.5 -87.5t55.5 -60q209 -261 209 -606q0 -149 -23.5 -269t-82.5 -241q-37 -76 -79.5 -135.5t-106.5 -126.5l-17.5 -17.5t-24 -25t-19.5 -23.5t-18 -29t-5 -25q0 -21 18 -39.5t40 -18.5q26 0 59.5 21t66.5 56t55 61.5t43 53.5q112 151 167.5 313t68.5 359q2 48 2 72z" />
</svg>
