<?xml version="1.0" standalone="no"?>
<!DOCTYPE svg PUBLIC "-//W3C//DTD SVG 1.1//EN" "http://www.w3.org/Graphics/SVG/1.1/DTD/svg11.dtd" >
<svg xmlns="http://www.w3.org/2000/svg" xmlns:xlink="http://www.w3.org/1999/xlink" version="1.1" viewBox="-10 0 2214 2048">
   <path fill="currentColor"
d="M1638 284q11 11 11 26.5t-11 26.5l-716 715q-11 11 -26 11t-26 -11l-94 -94q-11 -11 -11 -26t11 -26l50 -50q-83 -104 -93.5 -236.5t53.5 -246.5q-86 -81 -201 -81q-121 0 -206.5 86t-85.5 207v1463h-293v-1463q0 -158 78.5 -293t213.5 -213.5t293 -78.5q122 0 230.5 47
t189.5 131q107 -44 224.5 -27.5t211.5 90.5l50 -51q11 -11 26.5 -11t26.5 11zM1536 585q30 0 51.5 21.5t21.5 51.5t-21.5 51.5t-51.5 21.5t-51.5 -21.5t-21.5 -51.5t21.5 -51.5t51.5 -21.5zM1829 731q-30 0 -52 -21.5t-22 -51.5t22 -51.5t52 -21.5t51.5 21.5t21.5 51.5
t-21.5 51.5t-51.5 21.5zM2121 585q30 0 51.5 21.5t21.5 51.5t-21.5 51.5t-51.5 21.5t-51.5 -21.5t-21.5 -51.5t21.5 -51.5t51.5 -21.5zM1390 731q30 0 51.5 21.5t21.5 51.5t-21.5 51.5t-51.5 21.5t-51.5 -21.5t-21.5 -51.5t21.5 -51.5t51.5 -21.5zM1609 804
q0 -30 21.5 -51.5t51.5 -21.5t51.5 21.5t21.5 51.5t-21.5 51.5t-51.5 21.5t-51.5 -21.5t-21.5 -51.5zM1975 731q30 0 51.5 21.5t21.5 51.5t-21.5 51.5t-51.5 21.5t-51.5 -21.5t-21.5 -51.5t21.5 -51.5t51.5 -21.5zM1243 877q30 0 52 21.5t22 51.5t-22 52t-52 22t-51.5 -22
t-21.5 -52t21.5 -51.5t51.5 -21.5zM1536 1024q-30 0 -51.5 -22t-21.5 -52t21.5 -51.5t51.5 -21.5t51.5 21.5t21.5 51.5t-21.5 52t-51.5 22zM1829 877q30 0 51.5 21.5t21.5 51.5t-21.5 52t-51.5 22t-52 -22t-22 -52t22 -51.5t52 -21.5zM1390 1170q-30 0 -51.5 -21.5
t-21.5 -51.5t21.5 -51.5t51.5 -21.5t51.5 21.5t21.5 51.5t-21.5 51.5t-51.5 21.5zM1682 1024q30 0 51.5 21.5t21.5 51.5t-21.5 51.5t-51.5 21.5t-51.5 -21.5t-21.5 -51.5t21.5 -51.5t51.5 -21.5zM1243 1170q30 0 52 21.5t22 51.5t-22 51.5t-52 21.5t-51.5 -21.5t-21.5 -51.5
t21.5 -51.5t51.5 -21.5zM1536 1170q30 0 51.5 21.5t21.5 51.5t-21.5 51.5t-51.5 21.5t-51.5 -21.5t-21.5 -51.5t21.5 -51.5t51.5 -21.5zM1390 1316q30 0 51.5 21.5t21.5 51.5t-21.5 51.5t-51.5 21.5t-51.5 -21.5t-21.5 -51.5t21.5 -51.5t51.5 -21.5zM1243 1462q30 0 52 22
t22 52t-22 51.5t-52 21.5t-51.5 -21.5t-21.5 -51.5t21.5 -52t51.5 -22z" />
</svg>
