<?xml version="1.0" standalone="no"?>
<!DOCTYPE svg PUBLIC "-//W3C//DTD SVG 1.1//EN" "http://www.w3.org/Graphics/SVG/1.1/DTD/svg11.dtd" >
<svg xmlns="http://www.w3.org/2000/svg" xmlns:xlink="http://www.w3.org/1999/xlink" version="1.1" viewBox="-11 0 1776 2048">
   <path fill="currentColor"
d="M1136 1362q0 97 -19 225q-35 245 -63 358q-26 103 -174 103t-174 -103q-28 -113 -63 -358q-19 -128 -19 -225q0 -192 256 -192t256 192zM1755 877q0 182 -70.5 346t-195.5 284.5t-287 185.5q-10 4 -17.5 -3t-6.5 -17q5 -39 12 -76q1 -10 3.5 -27.5t3.5 -25.5
q2 -11 10 -14q182 -92 292 -267.5t110 -385.5q0 -103 -28 -200.5t-78 -179.5t-121.5 -150t-156 -114t-184 -69t-203.5 -17q-142 8 -270.5 70t-221 160.5t-147 231t-53.5 274.5q2 210 113.5 384t293.5 265q8 3 10 14q1 6 3.5 23.5t3.5 27.5q2 12 6 38.5t7 39.5
q2 10 -6.5 16.5t-18.5 2.5q-127 -50 -233 -136.5t-180 -197t-112.5 -247t-31.5 -279.5q8 -163 76 -312.5t177 -260t257 -180t311 -79.5q125 -8 246 19t223 81.5t188.5 136.5t147 180.5t94.5 216t34 241.5zM1136 840.5q0 106.5 -74.5 181.5t-181 75t-181.5 -75t-75 -181.5
t75 -181t181.5 -74.5t181 74.5t74.5 181zM1465 877q0 139 -61 261t-167 203q-8 7 -18 2.5t-12 -15.5q-6 -61 -33 -106q-8 -11 3 -22q67 -61 104.5 -145t37.5 -178q0 -95 -39.5 -181t-105.5 -145.5t-156.5 -90t-187.5 -19.5q-152 17 -262.5 129t-124.5 264q-11 105 27 201
t113 165q11 11 3 22q-27 46 -33 107q-1 10 -11.5 14.5t-18.5 -2.5q-108 -84 -169 -208.5t-59 -267.5q3 -112 48 -215.5t119 -180t175.5 -124t213.5 -52.5q124 -6 237.5 38t196 122.5t131.5 189.5t49 234z" />
</svg>
