<?xml version="1.0" standalone="no"?>
<!DOCTYPE svg PUBLIC "-//W3C//DTD SVG 1.1//EN" "http://www.w3.org/Graphics/SVG/1.1/DTD/svg11.dtd" >
<svg xmlns="http://www.w3.org/2000/svg" xmlns:xlink="http://www.w3.org/1999/xlink" version="1.1" viewBox="-10 0 2070 2048">
   <path fill="currentColor"
d="M1475 544q-17 -19 -40 -9.5t-30 32.5t6 43q16 19 46 17t39 -23t-21 -60zM1023 825q-10 10 -23 10t-21 -10q-10 -8 -10 -21.5t10 -21.5q8 -10 21 -10t23 10q8 8 8 21.5t-8 21.5zM1211 909l-40 40q-13 14 -33.5 14t-34.5 -14l-44 -43q-13 -14 -13 -34.5t13 -34.5l40 -40
q13 -13 34 -13t35 13l43 45q13 14 13 34t-13 33zM1087 761q-8 8 -21 8t-23 -8q-8 -10 -8 -23t8 -21q10 -10 23 -10t21 10q10 8 10 21t-10 23zM1547 649q-38 73 -122 97.5t-146 -18.5q-43 -31 -69.5 -75.5t-24.5 -101t45 -105.5t87 -60t80.5 6t79.5 58q2 1 15 14l16 16
t14.5 15.5t15 17.5t11.5 17.5t9.5 20.5t4.5 21t1 24t-6 25t-11 28zM1777 1200q4 -29 -17 -47t-50.5 -32t-37.5 -28q-45 -80 -95.5 -111.5t-129.5 -13.5q21 -15 45.5 -21.5t37.5 -5.5l14 1q2 -51 -39 -102q7 -23 7.5 -46t-2.5 -35l-4 -12q49 -27 81 -74t39 -104
q11 -96 -49 -172.5t-156 -87.5q-68 -7 -130 22t-94 85q-34 59 -38.5 116t16 99t50 73t64.5 48q-52 -5 -100.5 -41.5t-65.5 -100.5q-31 -123 37 -254q-18 -23 -33 -36q-57 -1 -102 21q22 -28 48 -42.5t41 -15.5l15 -1q0 -58 -15 -89q-12 -24 -37.5 -33t-53 3.5t-42.5 46.5
q2 -6 4 -8q-8 19 -8 59.5t7.5 90t26 107t44.5 103.5q-33 20 -54 41q-40 18 -98 80t-96 115l-38 54q-45 17 -99 54t-101 82.5t-74.5 98t-17.5 94.5q1 19 12 31q-20 17 -34 34q-24 28 -24 61.5t24.5 46t72.5 -6.5q47 -22 88.5 -57.5t62.5 -68.5q-3 -2 -8 -5.5t-23 -8.5t-38 -4
q30 -7 69.5 -17t53 -13t32.5 -5.5t37 -2.5q15 7 23 -28t9 -74l1 -39q0 -120 -45 -172q121 118 115 250q-1 33 -17 57t-31 31l-15 7q-4 7 -21.5 36.5t-29.5 52.5t-30.5 59.5t-29 70t-19 71.5t-7.5 76t12 72q-41 -61 -43 -91q-25 27 -39.5 44.5t-38.5 48t-35 52.5t-19 47
t-0.5 43.5t29.5 30.5q52 29 165.5 -73t217.5 -253.5t140 -261.5q99 -59 166.5 -132t97.5 -136q51 103 169 198q113 93 188 97q54 3 62 -49zM2050 1024q0 167 -51.5 323.5t-146.5 282t-221 220.5t-282.5 146.5t-323.5 51.5t-323.5 -51.5t-282.5 -146.5t-221 -220.5
t-146.5 -282t-51.5 -323.5t51.5 -323.5t146.5 -282t221 -220.5t282.5 -146.5t323.5 -51.5t323.5 51.5t282.5 146.5t221 220.5t146.5 282t51.5 323.5z" />
</svg>
