<?xml version="1.0" standalone="no"?>
<!DOCTYPE svg PUBLIC "-//W3C//DTD SVG 1.1//EN" "http://www.w3.org/Graphics/SVG/1.1/DTD/svg11.dtd" >
<svg xmlns="http://www.w3.org/2000/svg" xmlns:xlink="http://www.w3.org/1999/xlink" version="1.1" viewBox="-10 0 1775 2048">
   <path fill="currentColor"
d="M1054 910v208q0 4 0.5 17.5t0 17t-1.5 13.5t-4 13.5t-8 9t-12.5 7t-18.5 0.5v-352q9 0 16 1t12 2.5t8 6.5l4.5 7.5t2.5 10.5t1 10.5v13.5v14zM1415 1020v138q0 4 0.5 13t0.5 14t-1.5 12.5t-4 11.5t-8 7.5t-13.5 3.5q-12 0 -16 -10q-1 -4 -2 -11t-2 -17t-1 -22.5
t-0.5 -25.5t-0.5 -26.5v-26t0.5 -23.5t0.5 -19v-13v-6v-7.5v-10t0.5 -10t2 -10t3.5 -8t6 -6.5t9 -2q6 0 11 2t8 5.5t4.5 6.5t2 9.5t0.5 10v11v9.5zM206 1290h139v-540h-139v540zM702 1290h121v-540h-182l-32 254q-22 -170 -36 -254h-181v540h122v-356l52 356h87l49 -364v364
zM1187 942q0 -81 -5 -104q-4 -18 -13 -32.5t-19.5 -23.5t-28 -15.5t-30.5 -9.5t-34.5 -4.5t-33.5 -2t-34 -0.5h-14h-104v540q189 0 219 -3q65 -7 84 -44q16 -32 15 -148q-2 -143 -2 -153zM1550 1166v-152q0 -26 -1 -41.5t-6 -33.5t-15 -27.5t-28 -16.5t-44 -7q-53 0 -88 38
v-176h-134v540h126l8 -34q34 42 88 42q30 0 49.5 -11t29 -31t12.5 -40.5t3 -49.5zM1755 330v1388q0 76 -53 130t-129 54h-1390q-76 0 -129.5 -54t-53.5 -130v-1388q0 -76 53.5 -130t129.5 -54h1390q76 0 129 54t53 130z" />
</svg>
