<?xml version="1.0" standalone="no"?>
<!DOCTYPE svg PUBLIC "-//W3C//DTD SVG 1.1//EN" "http://www.w3.org/Graphics/SVG/1.1/DTD/svg11.dtd" >
<svg xmlns="http://www.w3.org/2000/svg" xmlns:xlink="http://www.w3.org/1999/xlink" version="1.1" viewBox="-10 0 2397 2048">
   <path fill="currentColor"
d="M1251 1982q-4 -1 -12 -4q-8 -5 -21.5 -13.5t-55.5 -38.5t-81.5 -63.5t-92.5 -85.5t-97 -106.5t-86.5 -126.5t-68.5 -144q-29 -5 -200 -42q75 243 268.5 413t446.5 211zM519 1290l192 32q-29 -87 -47 -192t-22 -166l-4 -61q-96 92 -139 256q4 65 20 131zM644 594
q-50 76 -88 169q54 -57 85 -78q-1 -19 0 -39t2 -36zM2287 1090q0 -123 -32.5 -240t-90 -216t-140.5 -182.5t-181 -141.5t-214 -90.5t-238 -32.5q-169 0 -322 59.5t-274 169.5q-35 67 -51 183q68 -58 163 -95.5t181.5 -49.5t163.5 -15.5t124 0.5l46 5q18 0 32 4t24 11
t17 13.5t11 17.5t7 18t3.5 20t0.5 17.5t-0.5 16t-0.5 12.5q-65 -6 -124.5 -6t-111 4t-100 14t-89.5 22t-81.5 30t-74.5 36.5t-69.5 43t-66 47.5t-64.5 53q2 14 5 39.5t14 96.5t24 133.5t35 132.5t46 112q102 4 206 -7t188 -32.5t162.5 -49t136 -55.5t101 -51.5t65.5 -38.5
l22 -15q36 -28 65 -24.5t35 45.5q16 111 -45 139q-238 111 -533 153q-91 13 -161.5 16.5t-201.5 1.5q34 80 85.5 151t106 120t112.5 90t108.5 66t91.5 42.5t64 24.5l24 7q166 27 301 -17q224 -114 359.5 -331t135.5 -477zM2371 1047q-16 157 -45 243q-40 118 -87.5 210.5
t-114.5 177t-158 157t-212 140.5q-56 39 -94 51q-81 29 -186 18q-40 3 -83 3q-160 0 -310.5 -53t-269 -146.5t-206.5 -223t-129 -280.5q-2 0 -5.5 -0.5t-4.5 -0.5q-7 57 3 128t30 131.5t41 112.5t36 82l16 30q9 13 62 93q-59 -32 -108 -82.5t-79 -106t-53 -116t-34 -114
t-17.5 -97t-7.5 -68.5l-1 -25q-4 -2 -33 -12.5t-46.5 -17t-51.5 -20t-57 -23.5t-53 -24.5t-50.5 -27t-37.5 -26t-25 -25.5q8 4 21.5 11t55 26t82 35t94.5 31.5t100 21.5l2 -37q12 -169 108 -331q47 -230 201 -417q32 -134 92 -245q17 -33 36.5 -52.5t56.5 -35.5
q134 -63 260.5 -97.5t257.5 -42t263 22t261 97.5q166 86 282 231t167 324t31 370z" />
</svg>
