<?xml version="1.0" standalone="no"?>
<!DOCTYPE svg PUBLIC "-//W3C//DTD SVG 1.1//EN" "http://www.w3.org/Graphics/SVG/1.1/DTD/svg11.dtd" >
<svg xmlns="http://www.w3.org/2000/svg" xmlns:xlink="http://www.w3.org/1999/xlink" version="1.1" viewBox="-11 0 1985 2048">
   <path fill="currentColor"
d="M1491 896q12 -18 13.5 -46.5t-8.5 -63t-29 -69.5t-51 -70t-72 -62q-66 -44 -143.5 -60.5t-135 -5.5t-77.5 42q-9 13 -10.5 20.5t6 12t16.5 6.5t31 4q27 4 44 6.5t50.5 11t64.5 19.5q41 15 76.5 36t60.5 42.5t46.5 44.5t35 43.5t25 39.5t19 32t14 21t12 7t12.5 -11z
M1905 1552q-48 116 -129 208.5t-180.5 151t-217 91.5t-238 36.5t-243 -21.5t-233 -74.5t-206 -129.5t-164 -181t-106 -234.5t-32.5 -284.5q1 -38 5 -72t13 -72t15.5 -60.5t21.5 -70.5t22 -70q-58 237 1 453t197.5 363.5t332.5 236t395.5 95t399 -85t330.5 -279.5
q21 -30 21 -17q-1 5 -5 17zM1632 1038q0 119 -46 227.5t-124 187.5t-185.5 125.5t-226 46.5t-226 -46.5t-185.5 -125.5t-124 -187.5t-46 -227.5t46 -227.5t124 -187t185.5 -125t226 -46.5t226 46.5t185.5 125t124 187t46 227.5zM1960 709q-74 -168 -206 -286.5t-289.5 -175
t-334 -61t-343.5 41.5t-315 147t-251.5 241.5t-149 339.5t-11.5 426q-57 -183 -60 -355.5t41 -311.5t125 -259t189 -206t236.5 -144.5t265 -82t277.5 -10t270 62t246.5 142.5t203.5 225q37 58 70 138.5t36 127.5zM1889 1100q7 -141 -36.5 -265t-126.5 -218t-196 -161.5
t-250 -105.5q-10 0 -12 -5q-2 -6 28 -9q128 5 238 48t188 113.5t133.5 163.5t82 196t25.5 212t-28 212t-86 195t-141.5 161.5t-200.5 111t-258 43.5q97 -27 185 -68t169.5 -102t142 -136t99 -174t44.5 -212z" />
</svg>
