<?xml version="1.0" standalone="no"?>
<!DOCTYPE svg PUBLIC "-//W3C//DTD SVG 1.1//EN" "http://www.w3.org/Graphics/SVG/1.1/DTD/svg11.dtd" >
<svg xmlns="http://www.w3.org/2000/svg" xmlns:xlink="http://www.w3.org/1999/xlink" version="1.1" viewBox="-10 0 1775 2048">
   <path fill="currentColor"
d="M219 1536v146h-128q-7 0 -12.5 -5.5t-5.5 -12.5v-18h-55q-8 0 -13 -5.5t-5 -12.5v-38q0 -7 5 -12.5t13 -5.5h55v-18q0 -7 5.5 -12.5t12.5 -5.5h128zM219 1244v146h-128q-7 0 -12.5 -5.5t-5.5 -12.5v-18h-55q-7 0 -12.5 -6t-5.5 -14v-36q0 -7 5.5 -12.5t12.5 -5.5h55v-18
q0 -8 5.5 -13t12.5 -5h128zM219 950v148h-128q-7 0 -12.5 -6t-5.5 -14v-18h-55q-8 0 -13 -5t-5 -13v-36q0 -8 5 -13t13 -5h55v-18q0 -8 5.5 -14t12.5 -6h128zM219 658v146h-128q-7 0 -12.5 -5t-5.5 -13v-18h-55q-8 0 -13 -5.5t-5 -12.5v-36q0 -8 5.5 -14t12.5 -6h55v-18
q0 -7 5.5 -12.5t12.5 -5.5h128zM219 366v146h-128q-7 0 -12.5 -5.5t-5.5 -12.5v-18h-55q-8 0 -13 -5.5t-5 -12.5v-38q0 -7 5 -12.5t13 -5.5h55v-18q0 -8 5.5 -13t12.5 -5h128zM1463 182v1684q0 45 -32 76.5t-78 31.5h-951q-46 0 -77.5 -31.5t-31.5 -76.5v-1684
q0 -45 31.5 -76.5t77.5 -31.5h951q46 0 78 31.5t32 76.5zM1755 1590v38q0 7 -5.5 12.5t-12.5 5.5h-55v18q0 7 -5.5 12.5t-12.5 5.5h-128v-146h128q7 0 12.5 5.5t5.5 12.5v18h55q7 0 12.5 5.5t5.5 12.5zM1755 1298v36q0 8 -5.5 14t-12.5 6h-55v18q0 7 -5 12.5t-13 5.5h-128
v-146h128q8 0 13 5t5 13v18h55q7 0 12.5 5.5t5.5 12.5zM1755 1006v36q0 8 -5.5 13t-12.5 5h-55v18q0 8 -5.5 14t-12.5 6h-128v-148h128q7 0 12.5 6t5.5 14v18h55q7 0 12.5 5t5.5 13zM1755 714v36q0 7 -5.5 12.5t-12.5 5.5h-55v18q0 8 -5 13t-13 5h-128v-146h128q8 0 13 5.5
t5 12.5v18h55q7 0 12.5 6t5.5 14zM1755 420v38q0 7 -5.5 12.5t-12.5 5.5h-55v18q0 7 -5 12.5t-13 5.5h-128v-146h128q8 0 13 5t5 13v18h55q7 0 12.5 5.5t5.5 12.5z" />
</svg>
