<?xml version="1.0" standalone="no"?>
<!DOCTYPE svg PUBLIC "-//W3C//DTD SVG 1.1//EN" "http://www.w3.org/Graphics/SVG/1.1/DTD/svg11.dtd" >
<svg xmlns="http://www.w3.org/2000/svg" xmlns:xlink="http://www.w3.org/1999/xlink" version="1.1" viewBox="-11 0 1816 2048">
   <path fill="currentColor"
d="M1736 1276l-191 38l212 122q26 14 34.5 44t-7.5 56t-45 33.5t-55 -7.5l-212 -121l63 183q7 19 4.5 36t-12.5 29t-23.5 20.5t-29.5 10t-31 -2t-27.5 -15t-19.5 -30.5l-116 -343l-310 -179v358l238 272q19 21 20 45t-12.5 41t-32.5 28t-43 7t-42 -25l-128 -146v244
q0 30 -21.5 52t-51.5 22t-51.5 -22t-21.5 -52v-244l-128 146q-18 21 -41.5 25t-42.5 -7t-32.5 -28t-12.5 -41t19 -45l238 -272v-358l-310 179l-117 343q-6 19 -18.5 30.5t-27.5 15t-31 2t-29.5 -10t-23.5 -20.5t-12 -29t4 -36l63 -183l-213 121q-25 15 -54 7.5t-45 -33.5
q-15 -26 -7 -56t33 -44l213 -122l-191 -38q-27 -5 -42.5 -23.5t-15.5 -40.5t8.5 -42.5t30 -31.5t48.5 -6l354 71l310 -179l-310 -180l-354 71q-5 1 -15 1q-31 0 -50.5 -20.5t-22 -46t13 -49t45.5 -29.5l191 -38l-213 -122q-25 -14 -33 -43.5t7 -55.5q16 -26 45 -34.5t54 7.5
l213 121l-63 -182q-6 -19 -4 -36t12 -29t23.5 -20.5t29.5 -10t31 2t27.5 15t18.5 30.5l117 342l310 179v-358l-238 -272q-18 -21 -19 -45t12.5 -41t32.5 -28t42.5 -7t41.5 25l128 146v-244q0 -30 21.5 -51.5t51.5 -21.5t51.5 21.5t21.5 51.5v244l128 -146q18 -21 42 -25
t43 7t32.5 28t12.5 41t-20 45l-238 272v358l310 -179l116 -342q7 -19 19.5 -30.5t27.5 -15t31 -2t29.5 10t23.5 20.5t12.5 29t-4.5 36l-63 182l212 -121q26 -15 55 -7t45 34t7.5 55.5t-34.5 43.5l-212 122l191 38q31 6 46 29.5t12.5 49t-22 46t-50.5 20.5q-10 0 -15 -1
l-354 -71l-310 180l310 179l354 -71q27 -5 48.5 6t30.5 31.5t9 42.5t-16 40.5t-43 23.5z" />
</svg>
