<?xml version="1.0" standalone="no"?>
<!DOCTYPE svg PUBLIC "-//W3C//DTD SVG 1.1//EN" "http://www.w3.org/Graphics/SVG/1.1/DTD/svg11.dtd" >
<svg xmlns="http://www.w3.org/2000/svg" xmlns:xlink="http://www.w3.org/1999/xlink" version="1.1" viewBox="-11 0 2132 2048">
   <path fill="currentColor"
d="M1483 1411q-3 -23 -21.5 -34t-42.5 -14.5t-47.5 -7t-41 -16.5t-20.5 -37q-4 -43 22 -119t59 -145t58.5 -141t20.5 -107q-17 -115 -134 -117q-25 -1 -42.5 2t-23.5 5.5t-19 10.5l-3.5 2t-4.5 2.5t-4 2.5t-5 2t-5 1t-5.5 0t-6 -2t-6.5 -3.5t-7 -5.5q-2 -3 -10 -10.5
t-11 -10t-9.5 -8.5t-11 -8.5t-10.5 -6.5t-12.5 -5.5t-13.5 -2.5q-34 -6 -55 3t-51 36q-2 1 -10.5 9t-14.5 13t-17 11.5t-18.5 6t-19.5 -2.5q-62 -31 -96 -46q-47 -21 -107.5 5t-87.5 75q-17 31 -45.5 111.5t-50.5 153t-45.5 152t-24.5 84.5q-25 78 21.5 135t125.5 53
q35 -2 58 -17.5t44 -52.5q8 -16 90.5 -228.5t87.5 -221.5q7 -13 24.5 -20.5t33.5 0.5q30 16 24 60q-3 20 -58 159t-57 152q-7 43 22 64t69.5 8t62.5 -56q4 -8 52 -105t94 -187.5t52 -100.5q23 -34 47 -32q34 0 28 43q-3 18 -75 168t-80 183q-13 60 15.5 116.5t83.5 85.5
q20 9 59 17t81.5 9.5t71.5 -16t23 -54.5zM396 1657.5q4 17.5 -5.5 31.5t-26.5 18q-16 3 -30 -6t-18 -26t5.5 -31.5t26 -18t30.5 5.5t18 26.5zM1047 1958q13 19 9 42.5t-23 37.5q-19 13 -42.5 8.5t-37.5 -23.5q-13 -20 -8.5 -43.5t23.5 -36.5q20 -14 43 -9.5t36 24.5z
M160 1029.5q-20 30.5 -56 37.5t-66 -14t-36.5 -57t13.5 -66q20 -31 56 -38t66 14t36.5 57t-13.5 66.5zM1635 1804q22 31 15 69t-39 61q-31 21 -68.5 14t-59.5 -38.5t-15.5 -69.5t37.5 -60q32 -23 69.5 -15.5t60.5 39.5zM1763 1114q52 85 56.5 183t-38 186.5t-124.5 146.5
q-103 72 -227 69q-17 68 -66 117t-109 67t-127 5t-119 -59q-5 3 -14 12q-77 53 -168 60t-173.5 -32.5t-136.5 -117.5q-58 -85 -61 -187q-64 -11 -116.5 -44t-86 -79.5t-50.5 -104t-13.5 -115t29.5 -115t73 -101.5q-41 -69 -43.5 -146.5t28 -142.5t91 -112t137.5 -58
q37 -98 113.5 -170t167.5 -104t192 -19.5t182 76.5q68 -24 134.5 -21t126.5 22t110.5 59.5t86.5 91t54 116.5t12 136q60 18 100 64.5t52 102t-6.5 114.5t-66.5 100zM478 359q16 23 11 50.5t-28 44.5q-22 16 -49.5 11t-43.5 -28.5t-11 -51t28 -43.5t50 -11t43 28zM660 38
q5 18 -6 34.5t-30 21t-35 -6t-21 -29.5q-4 -19 7 -35.5t30 -21t35 6t20 30.5zM2015 1122q5 23 -7 42t-35 24q-22 5 -41 -7.5t-24 -34.5q-5 -24 7.5 -43.5t34.5 -24.5q23 -5 42 8t23 36zM1256 101q18 30 9 66t-40 55q-31 18 -65.5 9.5t-52.5 -38.5q-19 -32 -10.5 -68.5
t39.5 -55t66 -9.5t54 41zM2109 851q5 16 -4.5 30.5t-26.5 19.5q-17 3 -31 -6.5t-18 -25.5q-4 -18 5.5 -32.5t26.5 -17.5q17 -4 30.5 5t17.5 27zM1891 574.5q17 25.5 11.5 57t-30.5 49.5q-25 17 -56 11t-48 -31.5t-11 -56t31 -48.5t55.5 -12.5t47.5 31z" />
</svg>
