<?xml version="1.0" standalone="no"?>
<!DOCTYPE svg PUBLIC "-//W3C//DTD SVG 1.1//EN" "http://www.w3.org/Graphics/SVG/1.1/DTD/svg11.dtd" >
<svg xmlns="http://www.w3.org/2000/svg" xmlns:xlink="http://www.w3.org/1999/xlink" version="1.1" viewBox="-10 0 1656 2048">
   <path fill="currentColor"
d="M0 668q4 -8 2 -20t0 -24t18 -28q-16 60 -20 72zM68 444q0 4 14 2t-2 30q-12 8 -20 16h-4q16 -24 12 -48zM856 16h-12q4 -4 92 -8q-8 0 -38 2t-42 6zM1588 924q-12 108 -64 200q44 -88 60 -188zM660 1124l12 32q-32 -52 -36 -76q16 36 24 44zM608 1128q16 28 36 60t28 48
q-12 -8 -68 -84zM1448 884q0 32 -32 128l-32 16q-12 24 -10 36t-2 32q-120 104 -140 108q-4 -4 16 -28q-16 12 -32 28t-32 26t-52 18v-4q-144 68 -296 -42t-152 -286q0 4 -8 20q-8 -96 38 -178t130 -122t170 -26t146 70q-88 -120 -232 -112q-72 0 -136 40t-88 92
q-28 20 -50 78t-26 66q-24 152 26 242t174 182q16 4 14 18l-2 14q-76 -36 -132 -100q36 52 68 76q-24 -8 -72 -60t-52 -52q60 104 206 168t238 24q-120 8 -196 -20q-16 -8 -30 -18t-24 -20t-6 -14q280 108 500 -68q16 -12 38 -34t36 -34t18 -12q-8 12 -6 18t-6 18
q16 -28 14 -46t26 -58l20 28q-4 -24 28 -88t28 -104q12 -20 12 12q0 28 -12 68q16 -20 14 -66t-2 -58q20 48 20 56q-4 -40 -2 -56t14 -44t12 -36q0 -4 -6 -2t-8 2t-6 -10t-8 -38q0 -16 6 -20l6 -4q-16 -8 -32 -72q4 -4 10 4t10 16t8 12q0 -12 -8 -44t-8 -48q-12 -32 -20 -20
q-4 8 -12 -8q-12 -32 -8 -42t10 -8t16 2t10 -16q40 60 84 212q-12 -72 -44 -152q8 4 4 -28q-4 -24 -4 -28q4 0 20 28q-32 -116 -120 -218t-192 -154q36 32 28 32q-20 -12 -34 -22t-16 -14t-6 -10t-4 -10q-20 -16 -52 -8t-40 8q-44 -24 -72 -34t-66 -22t-70 -24l4 20
q-24 -12 -70 -4t-74 4l44 -16q-28 4 -60 0t-60 4l48 -28q-20 4 -64 12q-40 0 -36 -4q-12 4 -72 28t-92 40t-78 44t-74 56l-4 -20q-12 16 -58 56t-80 78t-38 62l-12 4l-48 104q-24 44 -32 24q-48 100 -100 264q8 12 8 52t-2 86t-2 98q-16 336 200 636t512 380q44 16 208 20
q-36 -8 -84 -16t-92 -24q-24 -12 -42 -26t-38 -36t-32 -34l16 28q-40 -12 -60 -28t-56 -28l20 -24q-20 0 -46 -24t-38 -44l-28 4q-52 -68 -52 -100l-8 16q-4 -4 -20 -28q-76 -100 -64 -104q4 0 16 4q-36 -32 -44 -44l12 -16q-56 -72 -52 -104q16 24 40 32q-28 -64 -46 -84
t-30 -14t-26 -12t-34 -78l12 -4l-24 -40l8 -52q-20 -24 -26 -74t-2 -92t10 -114t10 -96t34 -80t38 -84l-16 -4q36 -60 130 -150t146 -86l12 -20l-8 4q-16 12 -20 4q36 -36 60 -50t56 -16t44 -6l16 -16q-4 4 -16 4q-24 4 -24 -4q40 -8 86 -36t122 -36q4 4 -12 12
q-28 8 -32 12q60 -32 178 -24t206 48q112 52 204 178t96 258h8v68q0 48 -2 88t-14 72zM884 44h-12h12zM848 32l48 8q-4 0 -12 4q4 -4 -22 -8h-2q-8 -4 -12 -4zM1224 864q-4 12 -8 -4l-8 -16q4 -12 8 -20t8 4t0 36zM1160 1036q32 -44 36 -88q0 16 -28 60q-28 20 -28 12
t12 -28q16 -24 16 -32q-20 32 -28 46t-2 16t14 4t8 10zM976 1080q-36 4 12 16q20 8 40 8q16 -12 32 -28q-36 12 -84 4z" />
</svg>
