<?xml version="1.0" standalone="no"?>
<!DOCTYPE svg PUBLIC "-//W3C//DTD SVG 1.1//EN" "http://www.w3.org/Graphics/SVG/1.1/DTD/svg11.dtd" >
<svg xmlns="http://www.w3.org/2000/svg" xmlns:xlink="http://www.w3.org/1999/xlink" version="1.1" viewBox="-10 0 1973 2048">
   <path fill="currentColor"
d="M0 80q512 76 906 190t612 236t324 238t110 216q4 136 -166 290t-414 274t-490 220t-418 152l-172 56q-8 4 -18 6t-44 8t-62 -6q-88 -20 -136 -96q-52 -92 8 -192q48 -80 148 -92q40 -12 110 -28t260 -68t352 -110t334 -148t260 -182t78 -208t-160 -232t-508 -252
t-914 -272zM0 80z" />
</svg>
