<?xml version="1.0" standalone="no"?>
<!DOCTYPE svg PUBLIC "-//W3C//DTD SVG 1.1//EN" "http://www.w3.org/Graphics/SVG/1.1/DTD/svg11.dtd" >
<svg xmlns="http://www.w3.org/2000/svg" xmlns:xlink="http://www.w3.org/1999/xlink" version="1.1" viewBox="-11 0 2048 2048">
   <path fill="currentColor"
d="M1051 780h208v212h104q72 0 144 -24q40 -12 72 -32q-44 -52 -48 -132q-12 -128 48 -200l24 -28l24 24q116 92 132 208q132 -40 240 24l28 16l-16 28q-80 156 -300 144q-132 328 -406 494t-638 166q-416 0 -596 -312h-4l-16 -40q-64 -140 -48 -304v-32h180v-212h208v-208
h412v-204h248v412zM367 828h16v152h-16v-152zM339 828h16v152h-16v-152zM311 828h16v152h-16v-152zM287 828h12v152h-12v-152zM259 828h12v152h-12v-152zM231 828h16v152h-16v-152zM215 816v180h180v-180h-180zM575 624h12v148h-12v-148zM547 624h16v148h-16v-148zM519 624
h16v148h-16v-148zM491 624h16v148h-16v-148zM467 624h12v148h-12v-148zM439 624h12v148h-12v-148zM423 608v180h180v-180h-180zM575 828h12v152h-12v-152zM547 828h16v152h-16v-152zM519 828h16v152h-16v-152zM491 828h16v152h-16v-152zM467 828h12v152h-12v-152zM439 828
h12v152h-12v-152zM423 816v180h180v-180h-180zM783 828h12v152h-12v-152zM755 828h12v152h-12v-152zM727 828h16v152h-16v-152zM699 828h16v152h-16v-152zM671 828h16v152h-16v-152zM647 828h12v152h-12v-152zM631 816v180h180v-180h-180zM783 624h12v148h-12v-148zM755 624
h12v148h-12v-148zM727 624h16v148h-16v-148zM699 624h16v148h-16v-148zM671 624h16v148h-16v-148zM647 624h12v148h-12v-148zM631 608v180h180v-180h-180zM987 828h16v152h-16v-152zM963 828h12v152h-12v-152zM935 828h12v152h-12v-152zM907 828h16v152h-16v-152zM879 828
h16v152h-16v-152zM855 828h12v152h-12v-152zM839 816v180h180v-180h-180zM987 624h16v148h-16v-148zM963 624h12v148h-12v-148zM935 624h12v148h-12v-148zM907 624h16v148h-16v-148zM879 624h16v148h-16v-148zM855 624h12v148h-12v-148zM839 608v180h180v-180h-180zM987 416
h16v148h-16v-148zM963 416h12v148h-12v-148zM935 416h12v148h-12v-148zM907 416h16v148h-16v-148zM879 416h16v148h-16v-148zM855 416h12v148h-12v-148zM839 400v180h180v-180h-180zM1195 828h16v152h-16v-152zM1167 828h16v152h-16v-152zM1143 828h12v152h-12v-152z
M1115 828h12v152h-12v-152zM1087 828h16v152h-16v-152zM1059 828h16v152h-16v-152zM1047 816v180h176v-180h-176zM591 1284q-20 0 -34 16t-14 36t14 34t34 14t36 -14t16 -34t-16 -36t-36 -16zM591 1300q8 0 12 4q-4 4 -4 12q0 12 12 12q8 0 12 -8q4 8 4 16q0 36 -36 36
t-36 -36t36 -36zM723 1644q-164 -80 -228 -224q-68 20 -164 24h-76h-96q200 196 508 200h56z" />
</svg>
