<?xml version="1.0" standalone="no"?>
<!DOCTYPE svg PUBLIC "-//W3C//DTD SVG 1.1//EN" "http://www.w3.org/Graphics/SVG/1.1/DTD/svg11.dtd" >
<svg xmlns="http://www.w3.org/2000/svg" xmlns:xlink="http://www.w3.org/1999/xlink" version="1.1" viewBox="-11 0 1830 2048">
   <path fill="currentColor"
d="M92 132q104 0 308 108q-180 112 -292 296q-160 -304 -84 -380q20 -24 68 -24zM904 148q212 0 396 96l-56 32q-80 -24 -116 12q-44 44 0 152t150 214t214 150t152 0q32 -32 16 -100q16 -32 36 -64q92 184 92 392q0 364 -258 624t-624 260t-626 -260t-260 -626t260 -624
t624 -258zM1784 156q64 64 -42 290t-170 290q-32 32 -110 2t-154 -106t-106 -154t2 -110q64 -64 290 -170t290 -42z" />
</svg>
