<?xml version="1.0" standalone="no"?>
<!DOCTYPE svg PUBLIC "-//W3C//DTD SVG 1.1//EN" "http://www.w3.org/Graphics/SVG/1.1/DTD/svg11.dtd" >
<svg xmlns="http://www.w3.org/2000/svg" xmlns:xlink="http://www.w3.org/1999/xlink" version="1.1" viewBox="-10 0 1975 2048">
   <path fill="currentColor"
d="M803 0q144 0 272 56q272 120 549.5 369.5t317.5 401.5q16 52 12 126t-28 118q-80 148 -384 395q-255 216 -543 380t-516 196q-163 24 -283 -44q-108 -60 -168 -180q-32 -64 -32 -188q0 -128 180 -315q88 -92 291 -268q-19 -12 -83 -46t-104 -54t-88 -56t-80 -68
q-88 -96 -76 -216q20 -171 208 -361t447 -234q52 -12 108 -12zM799 8h-20q-284 12 -501.5 216t-201.5 371q0 32 20 64t50 60t68 56t78 52t82 46t77.5 38t63.5 28t44 18t16 10q-155 132 -251 220q-180 164 -248 275.5t-20 239.5q36 108 110 154t164 42t197 -24
q260 -52 601.5 -256t575.5 -435.5t214 -355.5q-28 -144 -309.5 -391.5t-521.5 -363.5q-136 -68 -288 -64zM791 52q144 -4 368 124q243 136 491 395q108 120 144 188q32 64 12 132q-8 32 -148 172t-296 260q-383 299 -691 411q-120 48 -241.5 60t-213.5 -28q-60 -32 -84 -94
t-20 -126q4 -28 20 -64t50 -76t62 -71.5t80 -79.5t80 -74t91.5 -80t83.5 -70q116 -100 60 -128q-28 -12 -121.5 -56t-137.5 -66t-108 -60t-104 -70q-56 -48 -40 -124q36 -167 204 -291q139 -108 205 -138t210 -46h44zM887 360h-12q-148 4 -160 195q-4 92 126 160t198 44
q104 -36 144 -90t22 -104t-62 -91.5t-104 -69.5q-84 -44 -152 -44zM899 475q100 -4 174 66t-18 154h-4q0 -28 -86 -48t-98 8q-84 -60 -20 -156q16 -24 52 -24z" />
</svg>
