<?xml version="1.0" standalone="no"?>
<!DOCTYPE svg PUBLIC "-//W3C//DTD SVG 1.1//EN" "http://www.w3.org/Graphics/SVG/1.1/DTD/svg11.dtd" >
<svg xmlns="http://www.w3.org/2000/svg" xmlns:xlink="http://www.w3.org/1999/xlink" version="1.1" viewBox="-10 0 1984 2048">
   <path fill="currentColor"
d="M912 1904q-276 0 -478 -186t-202 -454v-444v-112h-232v-564l976 4l304 4q280 0 482 184t202 456v1112h-1052zM1816 1608v-816q0 -204 -156 -348t-380 -144h-304l-828 -4v264h92q52 0 96 42t44 102v560q0 204 156 348t376 144h728q72 0 124 -42t52 -106zM1096 592
q100 0 176 72q72 -72 172 -72q108 0 182 76t74 184v440q-12 112 -92 196q-96 96 -228 96h-580q-100 -12 -184 -92q-92 -92 -92 -224v-808h152v780q0 76 46 130t106 54l520 4q80 0 136 -48t56 -116v-412q0 -40 -28 -68t-66 -28t-66 28t-28 68v352h-160v-352q0 -40 -28 -68
t-68 -28t-68 28t-28 68v352h-160v-352q0 -108 76 -184t180 -76z" />
</svg>
