<?xml version="1.0" standalone="no"?>
<!DOCTYPE svg PUBLIC "-//W3C//DTD SVG 1.1//EN" "http://www.w3.org/Graphics/SVG/1.1/DTD/svg11.dtd" >
<svg xmlns="http://www.w3.org/2000/svg" xmlns:xlink="http://www.w3.org/1999/xlink" version="1.1" viewBox="-10 0 1840 2048">
   <path fill="currentColor"
d="M176 848q72 0 122 52t50 124t-50 124t-122 52t-124 -52t-52 -124t52 -124t124 -52zM1418 1642q62 -38 132 -18t106 82t18 132t-80 106t-132 18t-106 -82t-18 -132t80 -106zM552 1024q0 264 216 416l-124 216q-244 -164 -316 -444q92 -72 92 -188t-92 -188
q72 -280 316 -444l124 216q-216 152 -216 416zM1064 516q-116 0 -216 48l-120 -220q156 -76 336 -76q100 0 200 28q20 112 120 170t208 18q208 204 228 492l-252 4q-16 -196 -162 -330t-342 -134zM1064 1532q196 0 342 -134t162 -330l252 4q-20 288 -228 492
q-108 -40 -208 18t-120 170q-100 28 -200 28q-180 0 -336 -76l120 -220q100 48 216 48zM1418 406q-62 -38 -80 -106t18 -132t106 -82t132 18t80 106t-18 132t-106 82t-132 -18z" />
</svg>
