<?xml version="1.0" standalone="no"?>
<!DOCTYPE svg PUBLIC "-//W3C//DTD SVG 1.1//EN" "http://www.w3.org/Graphics/SVG/1.1/DTD/svg11.dtd" >
<svg xmlns="http://www.w3.org/2000/svg" xmlns:xlink="http://www.w3.org/1999/xlink" version="1.1" viewBox="-10 0 2068 2048">
   <path fill="currentColor"
d="M2048 1024q0 424 -300 724t-724 300t-724 -300t-300 -724t300 -724t724 -300t724 300t300 724zM328 888q-56 0 -96 40t-40 96t40 96t96 40t96 -40t40 -96t-40 -96t-96 -40zM1304 1508q-48 28 -64 84t14 104t84 62t102 -14t64 -82t-12 -104t-84 -64t-104 14zM624 1024
q0 -208 172 -328l-100 -168q-192 128 -248 348q72 56 72 148t-72 148q56 220 248 348l100 -168q-172 -120 -172 -328zM1024 624q156 0 270 106t126 258l196 -4q-12 -224 -176 -384q-84 32 -164 -14t-92 -134q-80 -20 -160 -20q-140 0 -264 60l96 168q80 -36 168 -36z
M1024 1424q-88 0 -168 -36l-96 168q124 60 264 60q80 0 160 -20q12 -88 92 -134t164 -14q164 -160 176 -384l-196 -4q-12 152 -126 258t-270 106zM1304 540q48 28 104 14t84 -64t12 -104t-64 -82t-102 -14t-84 62t-14 104t64 84z" />
</svg>
