<?xml version="1.0" standalone="no"?>
<!DOCTYPE svg PUBLIC "-//W3C//DTD SVG 1.1//EN" "http://www.w3.org/Graphics/SVG/1.1/DTD/svg11.dtd" >
<svg xmlns="http://www.w3.org/2000/svg" xmlns:xlink="http://www.w3.org/1999/xlink" version="1.1" viewBox="-10 0 2066 2048">
   <path fill="currentColor"
d="M1375 61q260 96 436 308t220 470t-48 534q-92 264 -306 440t-472 220t-534 -48q-260 -92 -436 -306t-220 -472t44 -534q80 -220 244 -378t380 -234q-4 4 20 -6t88 -26t136 -24q236 -20 448 56zM707 1889q360 132 706 -30t474 -518q120 -328 -12 -660q-76 -20 -140 -44
q-24 -8 -66 -20t-140 -26t-162 -6q-112 12 -224 44q-20 4 -32 40q-16 36 -56 86t-100 74q-4 0 -12 2t-22 16t-10 30l8 16q4 8 22 20t46 -8q20 -8 48 -26t90 -88t98 -154q4 -4 14 -6t38 -4t52 2q0 12 -8 32t-36 76t-58 104t-80 98t-102 78q-8 4 -20 8t-42 8t-52 -4t-34 -46
t-4 -102q4 -12 8 -28t26 -64t60 -92t114 -100t176 -96q228 -108 368 -160q-136 -124 -304 -184q-4 0 -96 -24q-136 92 -254 258t-166 306q-12 28 -24 76t-4 160t72 180q8 8 18 16t44 20t70 12t92 -26t108 -78q16 -12 38 -36t76 -128t86 -240q28 16 28 24q4 8 -4 70t-40 166
t-80 180q-8 8 -16 22t-40 48t-68 58t-94 42t-118 10q-256 -28 -392 -352q-40 -92 -54 -270t14 -406q-272 172 -376 464q-72 192 -48 408q52 40 110 74t146 82t170 80t188 60t196 24t198 -24q116 -32 196 -112t100 -144l24 -60q28 -80 30 -180t-6 -160l-12 -60
q84 152 104 298t-14 246t-78 178t-84 114l-44 40q-152 140 -366 198t-422 42q80 48 160 76z" />
</svg>
