<?xml version="1.0" standalone="no"?>
<!DOCTYPE svg PUBLIC "-//W3C//DTD SVG 1.1//EN" "http://www.w3.org/Graphics/SVG/1.1/DTD/svg11.dtd" >
<svg xmlns="http://www.w3.org/2000/svg" xmlns:xlink="http://www.w3.org/1999/xlink" version="1.1" viewBox="-10 0 2054 2048">
   <path fill="currentColor"
d="M188 1610q-172 -28 -188 -36q4 -20 276 -348q532 -636 736 -864q16 -16 58 -64t62 -68q44 -52 52 -52l-6 10t-20 26t-22 28q-136 188 -736 1152l-140 224h-16q-16 0 -56 -8zM248 1866q-128 -4 -130 -6t68 -118t74 -118t124 10q372 36 724 60q92 4 228 4t172 -4
q244 -44 288 -212q12 -48 12 -108q-4 -96 -36 -200q-100 -340 -496 -872q-36 -48 -64 -86t-20 -38q20 16 44 44q156 168 320 364q424 512 472 820q32 208 -112 312q-96 72 -308 96q-560 68 -1360 52zM1180 230l2 -4l2 -4q16 24 124 172q204 288 320 508q4 4 20 40
q56 112 88 208q12 32 20 60q8 36 16 68q0 8 4 28q16 112 -16 188q-32 84 -116 128q-76 40 -216 48q-52 4 -116 0q-120 0 -324 -12q-260 -20 -664 -56q0 -4 -8 -4h-8q64 -104 264 -424q272 -436 416 -660q152 -232 192 -284z" />
</svg>
