<?xml version="1.0" standalone="no"?>
<!DOCTYPE svg PUBLIC "-//W3C//DTD SVG 1.1//EN" "http://www.w3.org/Graphics/SVG/1.1/DTD/svg11.dtd" >
<svg xmlns="http://www.w3.org/2000/svg" xmlns:xlink="http://www.w3.org/1999/xlink" version="1.1" viewBox="-10 0 2020 2048">
   <path fill="currentColor"
d="M64 420v0q8 12 12 20q4 4 4 8q4 4 8 12l8 16h4q4 4 8 12v4h4v4l4 4l4 4l8 8v2q0 2 4 2q4 8 8 12q8 4 12 8v4q4 0 8 4l6 6q2 2 6 4l4 2q4 4 10 8t10 4q8 4 16 12h4q16 8 40 12q8 4 20 4q48 8 104 8q44 0 76 -4h16q16 -4 24 -4q80 -16 144 8q8 0 12 4q8 4 20 8q4 4 8 6t8 6
l2 2l2 2q4 0 4 4q4 0 8 4l8 8l6 6l6 6q12 12 20 28l4 4q4 12 8 20q4 4 6 8t2 8l4 12l232 644l232 -644q0 -4 4 -12q12 -32 32 -62t84 -58t152 -12q8 0 24 4h16q32 4 76 4q56 0 104 -8q32 -4 60 -16h4q8 -8 16 -12q36 -20 68 -56q16 -16 32 -40q4 -8 8 -14t8 -10
q8 -12 16 -28l52 20l12 4q-36 88 -76 152q-32 48 -64 84l-12 12l-2 2q-2 2 -6 2l-4 8q-8 4 -14 8t-14 8v4q-4 4 -10 8t-14 8h-4l-56 24q-24 8 -56 12q-36 4 -80 4q-60 0 -96 -4h-4v4h-4q-4 4 -8 4q0 4 -4 4q-48 40 -104 192t-120 354t-104 294h-288l-8 -24q-16 -40 -32 -84
q-28 -76 -76 -228t-68 -204q-4 -16 -8 -28q-12 -36 -24 -64q-4 -12 -8 -28q-8 -12 -12 -24q-12 -28 -24 -52q0 -4 -4 -12t-12 -20q0 -4 -4 -8q-8 -12 -12 -20q-4 -4 -6 -8l-4 -8q-2 -4 -6 -8l-6 -6l-6 -6l-4 -4l-4 -4q-4 0 -4 -2t-2 -4t-4 -2h-2h-4q0 -4 -4 -4h-16
q-12 4 -32 4h-8h-8h-8h-12h-6h-6h-2h-6h-4h-12h-4h-4h-12h-4h-4h-8q-4 0 -8 -4q-12 0 -24 -4h-6h-6h-4q-4 -4 -8 -4q-8 0 -12 -4h-2h-6h-2q-2 0 -2 -4h-4q-4 0 -8 -4q-8 0 -16 -4q-4 0 -8 -4l-2 -2q-2 -2 -4 -2h-2q-4 -4 -8 -4h-2q-2 0 -2 -2t-2 -2h-2q-4 0 -4 -4h-4
q0 -4 -4 -4t-4 -4h-4l-2 -2l-2 -2h-4v-4h-4l-2 -2l-2 -2l-8 -8h-4l-6 -6l-6 -6l-4 -4l-4 -4l-8 -8l-2 -2l-2 -2l-4 -4q0 -4 -4 -4q0 -4 -2 -4h-2q0 -4 -4 -8l-4 -4l-4 -4q0 -4 -2 -4t-2 -4l-8 -8q0 -4 -4 -8q-4 0 -4 -4v-2v-2h-4v-4l-4 -4l-4 -4v-4l-4 -4v-4q-4 0 -4 -4v-4
q-12 -16 -20 -32l-4 -4v-8h-4v-4q-4 -4 -4 -12h-4v-4q-4 -4 -4 -8q-4 -4 -4 -12q-4 0 -4 -2v-4q0 -2 -2 -2t-6 -12v-4q-8 -16 -12 -28l12 -4z" />
</svg>
