<?xml version="1.0" standalone="no"?>
<!DOCTYPE svg PUBLIC "-//W3C//DTD SVG 1.1//EN" "http://www.w3.org/Graphics/SVG/1.1/DTD/svg11.dtd" >
<svg xmlns="http://www.w3.org/2000/svg" xmlns:xlink="http://www.w3.org/1999/xlink" version="1.1" viewBox="-10 0 2751 2048">
   <path fill="currentColor"
d="M428 0q364 -4 588 26t416 106l88 32q16 8 16 24v104q12 108 66 154t124 50t198 40t240 116q-104 -112 -260 -228v-4q-12 -8 -20 -16l-8 -8l-6 -6q-2 -2 -2 -6t-4 -12v-8v-4v-4q4 -20 24 -32q12 -4 24 -4q8 0 20 4t32 16q204 124 351 316q0 4 6 10l10 10q8 8 12 16v4h4
l8 16v4q4 8 8 12q0 4 2 8t6 8q20 44 40 64q16 16 4 36l8 8q48 36 96 40q20 4 22 24t-18 28q-8 4 -22 8t-18 4t-12 6t-14 10t-14 14t-16 22q-20 24 -40 0q-40 -52 -100 -88q-12 -4 -52 -24q-44 -16 -53.5 -28t-25.5 -64q-4 -8 -12 -12q-16 -12 -80 -40q-160 -68 -216 -84
q-52 -16 -124 -16q-116 0 -182 68t-72 164t52 168t174 84q20 0 80 4q8 0 20 2t16 2h20q132 0 276 32q367 76 519 284q40 52 76 136q16 40 24 68q4 16 4 28q0 28 -16 48q-8 8 -22 12t-26 0q-16 -4 -26 -16t-18 -28q-28 -84 -112 -172t-180 -116q128 156 184 380q20 72 24 136
q4 32 4 52q0 16 -4 24q-4 12 -12 20q-16 16 -36 16q-28 0 -44 -20q-4 -8 -8 -24q-8 -16 -8 -40q0 -12 -8 -48q-12 -40 -32 -88q-212 -524 -587 -508q-96 -4 -164 -16q-132 -20 -222 -112t-118 -216q-20 -116 26 -230t158 -194l-28 -64q-4 -4 -12 -24q-256 12 -468 74
t-480 182q-80 40 -144 68q-28 12 -44 20q-12 4 -16 8h-8h-12h-12q-12 -4 -22 -12t-10 -24q-4 -12 0 -24t10 -20t18 -20q20 -16 60 -40q76 -48 176 -96q240 -120 604 -216h-156q-312 16 -704 64q-68 8 -128 16q-28 4 -40 4h-16h-8q-4 0 -8 -4h-8q-8 -4 -12 -12q-8 -8 -12 -20
q-8 -16 0 -32t24 -28q12 -4 40 -12q32 -8 160 -32q336 -60 924 -88q-336 -84 -848 -116q-76 -4 -84 -4q-16 -4 -24 -4q-4 0 -8 -4h-8l-12 -12q-12 -16 -12 -34t16 -30q4 -4 12 -8l4 -4h8h4q12 -4 72 -4h156z" />
</svg>
