<?xml version="1.0" standalone="no"?>
<!DOCTYPE svg PUBLIC "-//W3C//DTD SVG 1.1//EN" "http://www.w3.org/Graphics/SVG/1.1/DTD/svg11.dtd" >
<svg xmlns="http://www.w3.org/2000/svg" xmlns:xlink="http://www.w3.org/1999/xlink" version="1.1" viewBox="-10 0 2020 2048">
   <path fill="currentColor"
d="M0 1024q0 -416 292 -708t708 -292t708 292t292 708t-292 708t-708 292t-708 -292t-292 -708zM1128 708l-104 52l104 56v-108zM1128 684v-64l4 -4v-4h4l52 -24l-188 -96l-256 128l256 132zM448 1316l264 128v-256l-264 -132v260zM696 900l-248 -124v260h4l12 4l248 124
v-248v-8h-4zM976 760l-120 -60l-48 -24l-88 -44l-8 4l-248 124l244 124h4l8 4l12 -4zM1288 1444l260 -128v-260l-260 132v256zM1418 1052q-2 0 -2 -4l-124 -60v176l244 -124l-44 -24l-68 32q-4 4 -6 4zM1012 1328h-4v256l248 -124l12 -4v-12v-248l-244 124zM976 1320
l-244 -124v260l12 4l248 124v-248v-8h-4zM1428 768v256l40 -20l12 -4l8 -4l200 -100v-260zM1288 904v60l120 60v-256l-120 -60l-8 -8l-12 -4l-60 -28l-8 -8l-12 -4l-40 -20v188l120 60l12 4l4 4h4v4l2 2l2 2zM1208 644l12 8l12 4l36 20l12 4l8 4l132 64l256 -128l-256 -128
l-188 92l-12 8l-12 4l-44 24zM1220 940l-12 8l-184 92l-12 8h-4v256l248 -124l12 -4v-12v-188v-12v-8v-40l-36 20zM988 1048l-12 -8l-120 -60l-124 -64v260l12 4l116 60l132 64v-248v-8h-4zM1188 936l12 -8l8 -4l48 -24l-108 -52l-8 -8l-12 -4l-120 -60l-8 -4l-8 4l-248 124
l116 60l132 64l8 4l8 -4z" />
</svg>
