<?xml version="1.0" standalone="no"?>
<!DOCTYPE svg PUBLIC "-//W3C//DTD SVG 1.1//EN" "http://www.w3.org/Graphics/SVG/1.1/DTD/svg11.dtd" >
<svg xmlns="http://www.w3.org/2000/svg" xmlns:xlink="http://www.w3.org/1999/xlink" version="1.1" viewBox="-10 0 2008 2048">
   <path fill="currentColor"
d="M616 30q20 8 80 100q132 -40 268 -40q400 0 682 284t282 680v4q16 12 28 28l32 28l-16 32q-32 60 -64 108q-196 260 -712 336q-400 60 -1032 4q-48 -68 -80 -148q-40 -8 -60 -16l-24 -12l16 -32q12 -20 28 -48q-44 -136 -44 -284q0 -284 156 -524t416 -356
q24 -72 44 -144zM1864 1398zM964 2018q-220 0 -416 -92t-332 -264q596 48 992 -8q436 -64 656 -256q-104 280 -352 450t-548 170zM648 166q-4 20 -10 38t-10 38q-28 92 -68 196q-16 40 -32 84q-24 56 -52 120q-12 20 -20 40q-88 188 -216 424q-48 84 -148 264l156 40
q132 20 340 40q209 20 420 40q0 -8 -26 -386t-34 -454l-40 -72q-16 -32 -40 -64l-2 -4t-2 -8q-16 -24 -32 -46t-36 -54l-56 -84q-20 -28 -36 -56q-20 -32 -36 -60q-12 -20 -20 -36zM1024 678q104 216 116 438t-56 378q72 -4 144 -2t180 -20t204 -70q-80 -176 -226 -358
t-254 -274zM1312 858q180 124 240 184q140 140 120 328q152 -76 240 -240q-120 -108 -360 -196q-116 -40 -240 -76z" />
</svg>
