<?xml version="1.0" standalone="no"?>
<!DOCTYPE svg PUBLIC "-//W3C//DTD SVG 1.1//EN" "http://www.w3.org/Graphics/SVG/1.1/DTD/svg11.dtd" >
<svg xmlns="http://www.w3.org/2000/svg" xmlns:xlink="http://www.w3.org/1999/xlink" version="1.1" viewBox="-10 0 1556 2048">
   <path fill="currentColor"
d="M0 336q0 -132 94 -226t226 -94h1120q40 0 68 28t28 68v1600q0 40 -28 68t-68 28h-320q-40 0 -68 -28t-28 -68t28 -68t68 -28h224v-256h-1024q-53 0 -90.5 37.5t-37.5 90.5q0 52 37 90q27 28 27 67q0 40 -28 68t-68 28t-69 -29q-91 -93 -91 -224v-288v-576v-288zM1344 208
h-1024q-53 0 -90.5 37.5t-37.5 90.5v859q61 -27 127 -27h1h256h512h256v-960zM384 1584q0 -13 9.5 -22.5t22.5 -9.5h448q13 0 22.5 9.5t9.5 22.5v416q0 13 -9.5 22.5t-22.5 9.5q-11 0 -19 -6l-19 -14q-19 -15 -46 -36l-56 -40q-27 -21 -46 -35l-19 -15q-8 -6 -19 -6t-19 6
l-47 35l-92 70l-47 35q-8 6 -19 6q-13 0 -22.5 -9.5t-9.5 -22.5v-416z" />
</svg>
