<?xml version="1.0" standalone="no"?>
<!DOCTYPE svg PUBLIC "-//W3C//DTD SVG 1.1//EN" "http://www.w3.org/Graphics/SVG/1.1/DTD/svg11.dtd" >
<svg xmlns="http://www.w3.org/2000/svg" xmlns:xlink="http://www.w3.org/1999/xlink" version="1.1" viewBox="-10 0 1556 2048">
   <path fill="currentColor"
d="M384 688v112q0 40 28 68t68 28h576q40 0 68 -28t28 -68v-112q-85 -30 -138.5 -104.5t-53.5 -167.5q0 -119 84.5 -203.5t203.5 -84.5t203.5 84.5t84.5 203.5q0 93 -53.5 167.5t-138.5 104.5v112q0 119 -84.5 203.5t-203.5 84.5h-192v272q85 30 138.5 104.5t53.5 167.5
q0 119 -84.5 203.5t-203.5 84.5t-203.5 -84.5t-84.5 -203.5q0 -93 53.5 -167.5t138.5 -104.5v-272h-192q-119 0 -203.5 -84.5t-84.5 -203.5v-112q-85 -30 -138.5 -104.5t-53.5 -167.5q0 -119 84.5 -203.5t203.5 -84.5t203.5 84.5t84.5 203.5q0 93 -53.5 167.5t-138.5 104.5z
M384 416q0 -40 -28 -68t-68 -28t-68 28t-28 68t28 68t68 28t68 -28t28 -68zM1248 512q40 0 68 -28t28 -68t-28 -68t-68 -28t-68 28t-28 68t28 68t68 28zM864 1632q0 -40 -28 -68t-68 -28t-68 28t-28 68t28 68t68 28t68 -28t28 -68z" />
</svg>
