<?xml version="1.0" standalone="no"?>
<!DOCTYPE svg PUBLIC "-//W3C//DTD SVG 1.1//EN" "http://www.w3.org/Graphics/SVG/1.1/DTD/svg11.dtd" >
<svg xmlns="http://www.w3.org/2000/svg" xmlns:xlink="http://www.w3.org/1999/xlink" version="1.1" viewBox="-10 0 1748 2048">
   <path fill="currentColor"
d="M0 442q0 -119 84.5 -203.5t203.5 -84.5t203.5 84t84.5 204q0 92 -53.5 167t-138.5 105v672q85 30 138.5 104.5t53.5 167.5q0 118 -84.5 202.5t-203.5 85t-203.5 -84t-84.5 -203.5q0 -94 53.5 -168.5t138.5 -103.5v-672q-85 -30 -138.5 -105t-53.5 -167zM727 418l306 -306
q10 -10 23 -10t22.5 9.5t9.5 22.5v54v104v54h128q132 0 226 94t94 226v720q85 30 138.5 104.5t53.5 167.5q0 118 -84.5 202.5t-203.5 85t-203.5 -84t-84.5 -203.5q0 -94 53.5 -168.5t138.5 -103.5v-720q0 -53 -37.5 -90.5t-90.5 -37.5h-128v210q0 14 -9.5 23t-22.5 9
t-23 -10l-77 -76l-153 -154l-76 -76q-10 -10 -10 -23t10 -23zM288 345.5q-40 0.5 -68 28.5t-28 68t28 68t68 28t68 -28.5t28 -68.5t-28 -68t-68 -27.5zM288 1561.5q-40 0.5 -68 28.5t-28 68t28 68t68 28t68 -28.5t28 -68.5t-28 -68t-68 -27.5zM1344 1658q0 40 28 68t68 28
t68 -28.5t28 -68.5t-28 -68t-68 -27.5t-68 28.5t-28 68z" />
</svg>
