<?xml version="1.0" standalone="no"?>
<!DOCTYPE svg PUBLIC "-//W3C//DTD SVG 1.1//EN" "http://www.w3.org/Graphics/SVG/1.1/DTD/svg11.dtd" >
<svg xmlns="http://www.w3.org/2000/svg" xmlns:xlink="http://www.w3.org/1999/xlink" version="1.1" viewBox="-10 0 1684 2048">
   <path fill="currentColor"
d="M0 416q0 -93 65.5 -158.5t158.5 -65.5h320q93 0 158.5 65.5t65.5 158.5v320q0 93 -65.5 158.5t-158.5 65.5h-320q-93 0 -158.5 -65.5t-65.5 -158.5v-320zM896 416q0 -93 65.5 -158.5t158.5 -65.5h320q93 0 158.5 65.5t65.5 158.5v320q0 93 -65.5 158.5t-158.5 65.5h-320
q-93 0 -158.5 -65.5t-65.5 -158.5v-320zM0 1312q0 -93 65.5 -158.5t158.5 -65.5h320q93 0 158.5 65.5t65.5 158.5v320q0 93 -65.5 158.5t-158.5 65.5h-320q-93 0 -158.5 -65.5t-65.5 -158.5v-320zM896 1312q0 -93 65.5 -158.5t158.5 -65.5h320q93 0 158.5 65.5t65.5 158.5
v320q0 93 -65.5 158.5t-158.5 65.5h-320q-93 0 -158.5 -65.5t-65.5 -158.5v-320zM224 384q-13 0 -22.5 9.5t-9.5 22.5v320q0 13 9.5 22.5t22.5 9.5h320q13 0 22.5 -9.5t9.5 -22.5v-320q0 -13 -9.5 -22.5t-22.5 -9.5h-320zM1120 384q-13 0 -22.5 9.5t-9.5 22.5v320
q0 13 9.5 22.5t22.5 9.5h320q13 0 22.5 -9.5t9.5 -22.5v-320q0 -13 -9.5 -22.5t-22.5 -9.5h-320zM224 1280q-13 0 -22.5 9.5t-9.5 22.5v320q0 13 9.5 22.5t22.5 9.5h320q13 0 22.5 -9.5t9.5 -22.5v-320q0 -13 -9.5 -22.5t-22.5 -9.5h-320zM1120 1280q-13 0 -22.5 9.5
t-9.5 22.5v320q0 13 9.5 22.5t22.5 9.5h320q13 0 22.5 -9.5t9.5 -22.5v-320q0 -13 -9.5 -22.5t-22.5 -9.5h-320z" />
</svg>
