<?xml version="1.0" standalone="no"?>
<!DOCTYPE svg PUBLIC "-//W3C//DTD SVG 1.1//EN" "http://www.w3.org/Graphics/SVG/1.1/DTD/svg11.dtd" >
<svg xmlns="http://www.w3.org/2000/svg" xmlns:xlink="http://www.w3.org/1999/xlink" version="1.1" viewBox="-10 0 1982 2048">
   <path fill="currentColor"
d="M1813 1835h-1664q-62 0 -105.5 -44t-43.5 -106v-1322q0 -62 43.5 -106t105.5 -44h1664q62 0 105.5 44t43.5 106v1322q0 62 -43.5 106t-105.5 44zM149 341q-9 0 -15 6.5t-6 15.5v1322q0 9 6 15.5t15 6.5h271l732 -770q44 -47 108 -47q62 0 106 44l117 117t234 235l117 117
v-1040q0 -9 -6 -15.5t-15 -6.5h-1664zM1834 1685v-101l-559 -559q-6 -7 -15 -7t-16 7l-647 682h1216q9 0 15 -6.5t6 -15.5zM853 789.5q0 114.5 -81.5 196t-196 81.5t-196 -81.5t-81.5 -196t81.5 -196t196 -81.5t196 81.5t81.5 196zM725 789.5q0 -61.5 -44 -105.5t-105.5 -44
t-105.5 44t-44 105.5t44 105.5t105.5 44t105.5 -44t44 -105.5z" />
</svg>
