<?xml version="1.0" standalone="no"?>
<!DOCTYPE svg PUBLIC "-//W3C//DTD SVG 1.1//EN" "http://www.w3.org/Graphics/SVG/1.1/DTD/svg11.dtd" >
<svg xmlns="http://www.w3.org/2000/svg" xmlns:xlink="http://www.w3.org/1999/xlink" version="1.1" viewBox="-10 0 1554 2048">
   <path fill="currentColor"
d="M1095 1096q190 90 309.5 266.5t129.5 392.5v6q0 40 -28 68t-68 28q-39 0 -67 -27.5t-29 -66.5q-5 -112 -52.5 -213.5t-124 -175t-180.5 -116.5t-218 -43t-218 43t-180.5 116.5t-124 175t-52.5 213.5q-3 38 -30.5 64t-65.5 26q-40 0 -68 -28t-28 -68v-2
q10 -216 129.5 -392.5t309.5 -266.5q-86 -71 -135 -174t-49 -219q0 -104 40.5 -199t109 -163.5t163.5 -109t199 -40.5t198.5 40.5t163 109t109 163.5t40.5 199q0 117 -48.5 219.5t-134.5 173.5zM1087 703q0 -132 -94 -226t-226 -94t-226 94t-94 226t94 226t226 94t226 -94
t94 -226z" />
</svg>
