<?xml version="1.0" standalone="no"?>
<!DOCTYPE svg PUBLIC "-//W3C//DTD SVG 1.1//EN" "http://www.w3.org/Graphics/SVG/1.1/DTD/svg11.dtd" >
<svg xmlns="http://www.w3.org/2000/svg" xmlns:xlink="http://www.w3.org/1999/xlink" version="1.1" viewBox="-10 0 1556 2048">
   <path fill="currentColor"
d="M960 416q0 -119 84.5 -203.5t203.5 -84.5t203.5 84.5t84.5 203.5q0 93 -53.5 167.5t-138.5 104.5v80q0 132 -94 226t-226 94h-512q-53 0 -90.5 37.5t-37.5 90.5v144q85 30 138.5 104.5t53.5 167.5q0 119 -84.5 203.5t-203.5 84.5t-203.5 -84.5t-84.5 -203.5
q0 -93 53.5 -167.5t138.5 -104.5v-672q-85 -30 -138.5 -104.5t-53.5 -167.5q0 -119 84.5 -203.5t203.5 -84.5t203.5 84.5t84.5 203.5q0 93 -53.5 167.5t-138.5 104.5v235q61 -27 127 -27h1h128h256h128q53 0 90.5 -37.5t37.5 -90.5v-80q-85 -30 -138.5 -104.5t-53.5 -167.5z
M192 416q0 40 28 68t68 28t68 -28t28 -68t-28 -68t-68 -28t-68 28t-28 68zM1248 320q-40 0 -68 28t-28 68t28 68t68 28t68 -28t28 -68t-28 -68t-68 -28zM288 1536q-40 0 -68 28t-28 68t28 68t68 28t68 -28t28 -68t-28 -68t-68 -28z" />
</svg>
