<?xml version="1.0" standalone="no"?>
<!DOCTYPE svg PUBLIC "-//W3C//DTD SVG 1.1//EN" "http://www.w3.org/Graphics/SVG/1.1/DTD/svg11.dtd" >
<svg xmlns="http://www.w3.org/2000/svg" xmlns:xlink="http://www.w3.org/1999/xlink" version="1.1" viewBox="-10 0 1684 2048">
   <path fill="currentColor"
d="M442 660q68 136 198.5 218t287.5 82h176q30 -85 104.5 -138.5t167.5 -53.5q119 0 203.5 84.5t84.5 203.5t-84.5 203.5t-203.5 84.5q-93 0 -167.5 -53.5t-104.5 -138.5h-176h-1q-159 0 -299.5 -63.5t-243.5 -176.5v112v224v112q85 30 138.5 104.5t53.5 167.5
q0 119 -84.5 203.5t-203.5 84.5t-203.5 -84.5t-84.5 -203.5q0 -93 53.5 -167.5t138.5 -104.5v-672q-85 -30 -138.5 -104.5t-53.5 -167.5q0 -119 84.5 -203.5t203.5 -84.5t203.5 84.5t84.5 203.5q0 76 -36.5 140.5t-97.5 103.5zM288 1728q40 0 68 -28t28 -68t-28 -68t-68 -28
t-68 28t-28 68t28 68t68 28zM1376 1152q40 0 68 -28t28 -68t-28 -68t-68 -28t-68 28t-28 68t28 68t68 28zM384 416q0 -40 -28 -68t-68 -28t-68 28.5t-28 68t28 67.5t68 28t68 -28t28 -67v-1z" />
</svg>
