<?xml version="1.0" standalone="no"?>
<!DOCTYPE svg PUBLIC "-//W3C//DTD SVG 1.1//EN" "http://www.w3.org/Graphics/SVG/1.1/DTD/svg11.dtd" >
<svg xmlns="http://www.w3.org/2000/svg" xmlns:xlink="http://www.w3.org/1999/xlink" version="1.1" viewBox="-10 0 1812 2048">
   <path fill="currentColor"
d="M0 352q0 -93 65.5 -158.5t158.5 -65.5h1344q93 0 158.5 65.5t65.5 158.5v960q0 93 -65.5 158.5t-158.5 65.5h-536l-330 329q-54 55 -131 55t-132 -54.5t-55 -131.5v-50v-99v-49h-160q-93 0 -158.5 -65.5t-65.5 -158.5v-960zM224 320q-13 0 -22.5 9.5t-9.5 22.5v960
q0 13 9.5 22.5t22.5 9.5h256q40 0 68 28t28 68v280l348 -348q28 -28 68 -28h144h288h144q13 0 22.5 -9.5t9.5 -22.5v-960q0 -13 -9.5 -22.5t-22.5 -9.5h-1344z" />
</svg>
