<?xml version="1.0" standalone="no"?>
<!DOCTYPE svg PUBLIC "-//W3C//DTD SVG 1.1//EN" "http://www.w3.org/Graphics/SVG/1.1/DTD/svg11.dtd" >
<svg xmlns="http://www.w3.org/2000/svg" xmlns:xlink="http://www.w3.org/1999/xlink" version="1.1" viewBox="-10 0 2024 2048">
   <path fill="currentColor"
d="M804 190q25 -46 65.5 -76t86.5 -38t92 0t86.5 38t65.5 76l778 1456q26 50 26 106q0 93 -65.5 158.5t-158.5 65.5h-1556q-93 0 -158.5 -65.5t-65.5 -158.5q0 -56 26 -106q0 1 194.5 -363.5t389.5 -728.5zM1030 281q-9 -17 -28 -17t-28 17l-779 1456q-3 7 -3 15
q0 13 9 22.5t23 9.5h1556q14 0 23 -9.5t9 -22.5q0 -8 -3 -15l-195 -364t-389 -728zM1098 792v320q0 40 -28 68t-68 28t-68 -28t-28 -68v-320q0 -40 28 -68t68 -28t68 28t28 68zM1130 1464q0 53 -37.5 90.5t-90.5 37.5t-90.5 -37.5t-37.5 -90.5t37.5 -90.5t90.5 -37.5
t90.5 37.5t37.5 90.5z" />
</svg>
