<?xml version="1.0" standalone="no"?>
<!DOCTYPE svg PUBLIC "-//W3C//DTD SVG 1.1//EN" "http://www.w3.org/Graphics/SVG/1.1/DTD/svg11.dtd" >
<svg xmlns="http://www.w3.org/2000/svg" xmlns:xlink="http://www.w3.org/1999/xlink" version="1.1" viewBox="-10 0 1814 2048">
   <path fill="currentColor"
d="M1238 1502q-99 77 -219.5 119t-250.5 42q-156 0 -298.5 -61t-245.5 -164t-163.5 -245t-60.5 -298.5t59 -296.5t165 -246t246.5 -165.5t296.5 -59.5t298 61t245 163.5t164 245t61 298.5q0 131 -42 251.5t-119 219.5l97 97l195 195l97 97q31 29 31 70q0 34 -20.5 59.5
t-52.5 33.5q-12 3 -24 3q-41 0 -70 -30zM1343 895v-9q0 -117 -45.5 -223.5t-122.5 -183.5t-184 -123t-224 -46t-223.5 46t-183.5 123t-123 183.5t-46 223.5v9q2 116 48.5 221t123.5 180.5t182.5 120.5t221.5 45t222 -45t183 -120.5t123 -180.5t48 -221z" />
</svg>
