<?xml version="1.0" standalone="no"?>
<!DOCTYPE svg PUBLIC "-//W3C//DTD SVG 1.1//EN" "http://www.w3.org/Graphics/SVG/1.1/DTD/svg11.dtd" >
<svg xmlns="http://www.w3.org/2000/svg" xmlns:xlink="http://www.w3.org/1999/xlink" version="1.1" viewBox="-10 0 1558 2048">
   <path fill="currentColor"
d="M440 274q-114 80 -181 204t-67 270h1q0 151 72.5 279.5t195.5 206.5q52 34 84.5 89t30.5 121v2l-21 426q-1 38 -29 65.5t-67 28.5q-40 0 -68 -29t-28 -67v-8l21 -426q1 -22 -26 -40q-164 -103 -261 -275.5t-97 -372.5h1q0 -194 88.5 -359t240.5 -271q49 -35 110 -36
q57 0 104 30q45 29 71 77.5t26 104.5v362q0 16 14 26l96 66q8 4 18 4t18 -4l24 -17q24 -17 48 -33l24 -16q14 -10 14 -26v-362q0 -55 26 -103.5t71 -78.5q47 -30 103 -30q62 0 111 36q153 106 241.5 272t88.5 358h-1q0 202 -96.5 373t-260.5 275q-27 17 -26 40l21 426v6
q0 41 -28 69t-68 27q-23 0 -44 -10q-23 -12 -37 -34t-15 -48l-21 -428q-2 -66 30.5 -121t84.5 -89q124 -78 196.5 -207t72.5 -279h-1v-2q0 -144 -66.5 -268t-180.5 -204q-9 6 -9 20v362q0 56 -26.5 105.5t-71.5 78.5l-96 66q-57 38 -126 38t-126 -38l-24 -16l-48 -32
l-24 -18q-45 -30 -71.5 -79t-26.5 -105v-362q0 -13 -9 -20z" />
</svg>
