<?xml version="1.0" standalone="no"?>
<!DOCTYPE svg PUBLIC "-//W3C//DTD SVG 1.1//EN" "http://www.w3.org/Graphics/SVG/1.1/DTD/svg11.dtd" >
<svg xmlns="http://www.w3.org/2000/svg" xmlns:xlink="http://www.w3.org/1999/xlink" version="1.1" viewBox="-10 0 1684 2048">
   <path fill="currentColor"
d="M0 352q0 -93 65.5 -158.5t158.5 -65.5h320q40 0 68 28t28 68t-28 68t-68 28h-320q-13 0 -22.5 9.5t-9.5 22.5v1344q0 13 9.5 22.5t22.5 9.5h320q40 0 68 28t28 68t-28 68t-68 28h-320q-93 0 -158.5 -65.5t-65.5 -158.5v-1344zM1336 928l-252 -252q-31 -29 -31 -70
q0 -34 20.5 -59.5t52.5 -33.5q12 -3 24 -3q41 0 70 30l416 416q28 28 28 68t-28 68l-416 416q-29 31 -70 31q-34 0 -59.5 -20.5t-33.5 -52.5q-3 -12 -3 -24q0 -41 30 -70l252 -252h-728q-40 0 -68 -28t-28 -68t28 -68t68 -28h728z" />
</svg>
