<?xml version="1.0" standalone="no"?>
<!DOCTYPE svg PUBLIC "-//W3C//DTD SVG 1.1//EN" "http://www.w3.org/Graphics/SVG/1.1/DTD/svg11.dtd" >
<svg xmlns="http://www.w3.org/2000/svg" xmlns:xlink="http://www.w3.org/1999/xlink" version="1.1" viewBox="-10 0 1553 2048">
   <path fill="currentColor"
d="M0 348q3 -38 30.5 -64t65.5 -26h6q189 13 368.5 71t332.5 152t283 224t224 282.5t152 332.5t71 368v6q0 41 -28 69t-68 27q-38 0 -65.5 -25.5t-30.5 -64.5q-11 -164 -62 -320.5t-133.5 -290.5t-196 -248t-247.5 -196.5t-290.5 -133.5t-321.5 -61q-38 -2 -64 -29.5
t-26 -66.5v-6zM108 900h-1q151 20 287.5 87t239 169.5t170 239t86.5 288.5v10q0 41 -28 69t-68 27q-36 0 -63.5 -24t-31.5 -60q-19 -158 -104 -292t-218.5 -219t-291.5 -103q-36 -5 -59.5 -32.5t-23.5 -63.5q0 -40 28 -68t68 -28h10zM0 1663q0 -53 37.5 -91t90.5 -38
t90.5 38t37.5 90.5t-37.5 90t-90.5 37.5t-90.5 -37t-37.5 -90z" />
</svg>
