<?xml version="1.0" standalone="no"?>
<!DOCTYPE svg PUBLIC "-//W3C//DTD SVG 1.1//EN" "http://www.w3.org/Graphics/SVG/1.1/DTD/svg11.dtd" >
<svg xmlns="http://www.w3.org/2000/svg" xmlns:xlink="http://www.w3.org/1999/xlink" version="1.1" viewBox="-10 0 1556 2048">
   <path fill="currentColor"
d="M208 452q-16 9 -16 28v1216q0 13 9.5 22.5t22.5 9.5h1088q13 0 22.5 -9.5t9.5 -22.5v-1216q0 -19 -16 -28q-22 -12 -35 -34.5t-13 -48.5q0 -40 28 -68t68 -28q26 0 48 13q52 30 82 82t30 112v1216q0 93 -65.5 158.5t-158.5 65.5h-1088q-93 0 -158.5 -65.5t-65.5 -158.5
v-1216q0 -60 30 -112t82 -82q22 -13 48 -13q40 0 68 28t28 68q0 26 -13 48.5t-35 34.5zM480 128h576q40 0 68 28t28 68v384q0 40 -28 68t-68 28h-576q-40 0 -68 -28t-28 -68v-384q0 -40 28 -68t68 -28zM576 512h384v-192h-384v192z" />
</svg>
