<?xml version="1.0" standalone="no"?>
<!DOCTYPE svg PUBLIC "-//W3C//DTD SVG 1.1//EN" "http://www.w3.org/Graphics/SVG/1.1/DTD/svg11.dtd" >
<svg xmlns="http://www.w3.org/2000/svg" xmlns:xlink="http://www.w3.org/1999/xlink" version="1.1" viewBox="-10 0 1684 2048">
   <path fill="currentColor"
d="M0 352q0 -93 65.5 -158.5t158.5 -65.5h320q40 0 68 28t28 68t-28 68t-68 28h-320q-13 0 -22.5 9.5t-9.5 22.5v1344q0 13 9.5 22.5t22.5 9.5h320q40 0 68 28t28 68t-28 68t-68 28h-320q-93 0 -158.5 -65.5t-65.5 -158.5v-1344zM840 928h728q40 0 68 28t28 68t-28 68
t-68 28h-728l252 252q31 29 31 70q0 34 -20.5 59.5t-52.5 33.5q-12 3 -24 3q-41 0 -70 -30l-416 -416q-28 -28 -28 -68t28 -68l416 -416q29 -31 70 -31q34 0 59.5 20.5t33.5 52.5q3 12 3 24q0 41 -30 70z" />
</svg>
