<?xml version="1.0" standalone="no"?>
<!DOCTYPE svg PUBLIC "-//W3C//DTD SVG 1.1//EN" "http://www.w3.org/Graphics/SVG/1.1/DTD/svg11.dtd" >
<svg xmlns="http://www.w3.org/2000/svg" xmlns:xlink="http://www.w3.org/1999/xlink" version="1.1" viewBox="-10 0 1812 2048">
   <path fill="currentColor"
d="M919 87l370 370q10 10 10 23t-9.5 22.5t-22.5 9.5h-69h-137h-69v160q0 40 -28 68t-68 28t-68 -28t-28 -68v-160h-275q-13 0 -22.5 -9.5t-9.5 -22.5t10 -23l370 -370q10 -10 23 -10t23 10zM800 1376q0 -40 28 -68t68 -28t68 28t28 68v160h275q13 0 22.5 9.5t9.5 22.5
t-10 23l-370 370q-10 10 -23 10t-23 -10l-93 -93l-185 -185l-92 -92q-10 -10 -10 -23t9.5 -22.5t22.5 -9.5h69h137h69v-160zM160 1120h-64q-40 0 -68 -28t-28 -68t28 -68t68 -28h64q40 0 68 28t28 68t-28 68t-68 28zM640 1024q0 40 -28 68t-68 28h-64q-40 0 -68 -28t-28 -68
t28 -68t68 -28h64q40 0 68 28t28 68zM928 1120h-64q-40 0 -68 -28t-28 -68t28 -68t68 -28h64q40 0 68 28t28 68t-28 68t-68 28zM1408 1024q0 40 -28 68t-68 28h-64q-40 0 -68 -28t-28 -68t28 -68t68 -28h64q40 0 68 28t28 68zM1696 1120h-64q-40 0 -68 -28t-28 -68t28 -68
t68 -28h64q40 0 68 28t28 68t-28 68t-68 28z" />
</svg>
