<?xml version="1.0" standalone="no"?>
<!DOCTYPE svg PUBLIC "-//W3C//DTD SVG 1.1//EN" "http://www.w3.org/Graphics/SVG/1.1/DTD/svg11.dtd" >
<svg xmlns="http://www.w3.org/2000/svg" xmlns:xlink="http://www.w3.org/1999/xlink" version="1.1" viewBox="-10 0 1913 2048">
   <path fill="currentColor"
d="M542 144q66 -66 159 -66q66 0 121 36t82 94l79 170q37 82 107.5 140t158.5 78l314 76q62 13 105.5 57t59 98.5t1.5 114.5t-59 106l-282 282l476 476q29 28 29 68q0 34 -20 59.5t-52 34.5q-12 2 -24 2q-41 0 -69 -28l-476 -476l-282 282q-45 44 -105 58t-114.5 -1
t-98.5 -59t-58 -106l-75 -314q-21 -88 -79 -158t-140 -108l-170 -78q-58 -28 -94 -83t-36 -121q0 -92 66 -158l119 -120l238 -238zM730 288q-7 -14 -24 -18q-2 -1 -5 0q-14 0 -23 10l-476 476q-10 8 -10 22q0 4 1 6q3 16 18 24l170 78q121 55 207 160t117 236l75 314
q3 11 11.5 18t19.5 6q14 0 23 -8l700 -700q9 -10 9 -24q0 -10 -7 -19t-17 -11l-79 -19q-78 -18 -157 -37l-78 -20q-132 -31 -236.5 -116.5t-160.5 -207.5z" />
</svg>
