<?xml version="1.0" standalone="no"?>
<!DOCTYPE svg PUBLIC "-//W3C//DTD SVG 1.1//EN" "http://www.w3.org/Graphics/SVG/1.1/DTD/svg11.dtd" >
<svg xmlns="http://www.w3.org/2000/svg" xmlns:xlink="http://www.w3.org/1999/xlink" version="1.1" viewBox="-10 0 1823 2048">
   <path fill="currentColor"
d="M1282 188q65 -66 158 -66t158 66l35 35t70 69l34 36q66 64 66 157t-66 159l-1102 1102q-41 42 -97 56l-416 120q-13 4 -26 4q-40 0 -68 -28.5t-28 -67.5q0 -14 4 -26l119 -416q15 -56 57 -98zM1304 806l-184 -184l-805 804q-5 6 -8 14l-18 62q-18 63 -35 126l-18 62
l250 -72q8 -2 14 -8zM1463 324q-10 -10 -23 -10t-23 10l-161 162l184 184l162 -162q9 -10 9 -23t-9 -23z" />
</svg>
