<?xml version="1.0" standalone="no"?>
<!DOCTYPE svg PUBLIC "-//W3C//DTD SVG 1.1//EN" "http://www.w3.org/Graphics/SVG/1.1/DTD/svg11.dtd" >
<svg xmlns="http://www.w3.org/2000/svg" xmlns:xlink="http://www.w3.org/1999/xlink" version="1.1" viewBox="-10 0 1812 2048">
   <path fill="currentColor"
d="M867 419l160 -160q62 -62 144 -96.5t173 -34.5t174 35.5t143 95.5t95.5 143t35.5 174t-34.5 173t-96.5 144l-320 320q-62 62 -144 96.5t-173 34.5t-173 -34.5t-144 -96.5q-26 -28 -26 -66q0 -39 28.5 -67.5t67.5 -28.5q38 0 66 26q75 75 181 75t181 -75l80 -80l160 -160
l80 -80q70 -74 70 -176q0 -106 -75 -181t-181 -75q-102 0 -176 70l-160 160q-28 26 -66 26q-39 0 -67.5 -28.5t-28.5 -67.5q0 -38 26 -66zM267 1653q75 75 181 75t181 -75l40 -40l80 -80l40 -40q28 -26 66 -26q39 0 67.5 28.5t28.5 67.5q0 38 -26 66l-40 40l-80 80l-40 40
q-62 62 -144 96.5t-173 34.5t-174 -35.5t-143 -95.5t-95.5 -143t-35.5 -174t34.5 -173t96.5 -144l320 -320q62 -62 144 -96.5t173 -34.5t173 34.5t144 96.5q26 28 26 66q0 39 -28.5 67.5t-67.5 28.5q-38 0 -66 -26q-75 -75 -181 -75t-181 75l-80 80l-160 160l-80 80
q-75 75 -75 181t75 181z" />
</svg>
