<?xml version="1.0" standalone="no"?>
<!DOCTYPE svg PUBLIC "-//W3C//DTD SVG 1.1//EN" "http://www.w3.org/Graphics/SVG/1.1/DTD/svg11.dtd" >
<svg xmlns="http://www.w3.org/2000/svg" xmlns:xlink="http://www.w3.org/1999/xlink" version="1.1" viewBox="-10 0 1684 2048">
   <path fill="currentColor"
d="M1420 1480l-452 452q-56 56 -136 56t-136 -56l-113 -112l-226 -228l-113 -112q-115 -116 -179.5 -267.5t-64.5 -320.5q0 -113 30 -221.5t83.5 -199.5t130.5 -167.5t168 -130.5t199 -83.5t221 -29.5q169 0 321 64t267 179t179.5 267t64.5 321.5t-64.5 321t-179.5 267.5z
M1284.5 439q-88.5 -89 -205.5 -138t-247 -49t-248.5 50.5t-204.5 136t-136.5 204.5t-50.5 249t49.5 247t137.5 205l453 452l453 -452q88 -88 137.5 -205t49.5 -247.5t-49.5 -247t-138 -205.5zM832 1148h-6q-106 0 -181 -75t-75 -181.5t75 -181t181 -74.5h6q104 1 177 76.5
t73 179t-73 179t-177 77.5z" />
</svg>
