<?xml version="1.0" standalone="no"?>
<!DOCTYPE svg PUBLIC "-//W3C//DTD SVG 1.1//EN" "http://www.w3.org/Graphics/SVG/1.1/DTD/svg11.dtd" >
<svg xmlns="http://www.w3.org/2000/svg" xmlns:xlink="http://www.w3.org/1999/xlink" version="1.1" viewBox="-10 0 1812 2048">
   <path fill="currentColor"
d="M608 320h1088q40 0 68 28t28 68t-28 68t-68 28h-1088q-40 0 -68 -28t-28 -68t28 -68t68 -28zM608 960h1088q40 0 68 28t28 68t-28 68t-68 28h-1088q-40 0 -68 -28t-28 -68t28 -68t68 -28zM608 1600h1088q40 0 68 28t28 68t-28 68t-68 28h-1088q-40 0 -68 -28t-28 -68
t28 -68t68 -28zM128 1792q-53 0 -90.5 -37.5t-37.5 -90.5t37.5 -90.5t90.5 -37.5t90.5 37.5t37.5 90.5t-37.5 90.5t-90.5 37.5zM256 1024q0 53 -37.5 90.5t-90.5 37.5t-90.5 -37.5t-37.5 -90.5t37.5 -90.5t90.5 -37.5t90.5 37.5t37.5 90.5zM128 512q-53 0 -90.5 -37.5
t-37.5 -90.5t37.5 -90.5t90.5 -37.5t90.5 37.5t37.5 90.5t-37.5 90.5t-90.5 37.5z" />
</svg>
