<?xml version="1.0" standalone="no"?>
<!DOCTYPE svg PUBLIC "-//W3C//DTD SVG 1.1//EN" "http://www.w3.org/Graphics/SVG/1.1/DTD/svg11.dtd" >
<svg xmlns="http://www.w3.org/2000/svg" xmlns:xlink="http://www.w3.org/1999/xlink" version="1.1" viewBox="-10 0 1940 2048">
   <path fill="currentColor"
d="M640 416q0 -40 28 -68t68 -28h1088q40 0 68 28t28 68t-28 68t-68 28h-1088q-40 0 -68 -28t-28 -68zM640 1056q0 -40 28 -68t68 -28h1088q40 0 68 28t28 68t-28 68t-68 28h-1088q-40 0 -68 -28t-28 -68zM640 1696q0 -40 28 -68t68 -28h1088q40 0 68 28t28 68t-28 68
t-68 28h-1088q-40 0 -68 -28t-28 -68zM118 1321q-19 30 -54 30q-26 0 -45 -19t-19 -45q0 -18 9 -33l1 -1l1 -2q18 -27 44 -49q61 -50 137 -50q89 0 144 62q48 55 48 133q0 36 -10.5 69t-23 55t-36.5 46.5t-38 35.5t-40 30l-6 5q-64 48 -83 76h173q27 0 45.5 19t18.5 45
t-18.5 45t-45.5 19h-256q-26 0 -45 -19t-19 -45q0 -37 10.5 -70.5t23.5 -56t37 -47t38.5 -36t39.5 -30.5l5 -3q58 -43 80 -70.5t22 -67.5v-2q0 -26 -16 -46q-16 -19 -48 -19q-31 0 -55 21q-10 8 -18 19zM256 320v448h65q26 0 45 19t19 45t-19 45t-45 19h-257q-26 0 -45 -19
t-19 -45t19 -45t45 -19h64v-345l-35 18q-14 7 -29 7q-26 0 -45 -19t-19 -45q0 -39 35 -57l129 -64q13 -7 28 -7q27 0 45.5 19t18.5 45z" />
</svg>
