<?xml version="1.0" standalone="no"?>
<!DOCTYPE svg PUBLIC "-//W3C//DTD SVG 1.1//EN" "http://www.w3.org/Graphics/SVG/1.1/DTD/svg11.dtd" >
<svg xmlns="http://www.w3.org/2000/svg" xmlns:xlink="http://www.w3.org/1999/xlink" version="1.1" viewBox="-10 0 1812 2048">
   <path fill="currentColor"
d="M96 256h1344q40 0 68 28t28 68t-28 68t-68 28h-1344q-40 0 -68 -28t-28 -68t28 -68t68 -28zM608 896h1088q40 0 68 28t28 68t-28 68t-68 28h-1088q-40 0 -68 -28t-28 -68t28 -68t68 -28zM608 1536h1088q40 0 68 28t28 68t-28 68t-68 28h-1088q-40 0 -68 -28t-28 -68
t28 -68t68 -28zM192 928v768q0 40 -28 68t-68 28t-68 -28t-28 -68v-768q0 -40 28 -68t68 -28t68 28t28 68z" />
</svg>
