<?xml version="1.0" standalone="no"?>
<!DOCTYPE svg PUBLIC "-//W3C//DTD SVG 1.1//EN" "http://www.w3.org/Graphics/SVG/1.1/DTD/svg11.dtd" >
<svg xmlns="http://www.w3.org/2000/svg" xmlns:xlink="http://www.w3.org/1999/xlink" version="1.1" viewBox="-10 0 1556 2048">
   <path fill="currentColor"
d="M256 576q0 -139 68.5 -257t186.5 -186.5t257 -68.5t257 68.5t186.5 186.5t68.5 257v256h32q93 0 158.5 65.5t65.5 158.5v704q0 93 -65.5 158.5t-158.5 65.5h-1088q-93 0 -158.5 -65.5t-65.5 -158.5v-704q0 -93 65.5 -158.5t158.5 -65.5h32v-256zM1312 1024h-1088
q-13 0 -22.5 9.5t-9.5 22.5v704q0 13 9.5 22.5t22.5 9.5h1088q13 0 22.5 -9.5t9.5 -22.5v-704q0 -13 -9.5 -22.5t-22.5 -9.5zM1088 832v-256q0 -132 -94 -226t-226 -94t-226 94t-94 226v256h640z" />
</svg>
