<?xml version="1.0" standalone="no"?>
<!DOCTYPE svg PUBLIC "-//W3C//DTD SVG 1.1//EN" "http://www.w3.org/Graphics/SVG/1.1/DTD/svg11.dtd" >
<svg xmlns="http://www.w3.org/2000/svg" xmlns:xlink="http://www.w3.org/1999/xlink" version="1.1" viewBox="-10 0 1812 2048">
   <path fill="currentColor"
d="M224 128h1344q93 0 158.5 65.5t65.5 158.5v1344q0 93 -65.5 158.5t-158.5 65.5h-1344q-93 0 -158.5 -65.5t-65.5 -158.5v-1344q0 -93 65.5 -158.5t158.5 -65.5zM1568 320h-1344q-13 0 -22.5 9.5t-9.5 22.5v1344q0 13 9.5 22.5t22.5 9.5h1344q13 0 22.5 -9.5t9.5 -22.5
v-1344q0 -13 -9.5 -22.5t-22.5 -9.5zM896 512q40 0 68 28t28 68v320h320q40 0 68 28t28 68t-28 68t-68 28h-320v320q0 40 -28 68t-68 28t-68 -28t-28 -68v-320h-320q-40 0 -68 -28t-28 -68t28 -68t68 -28h320v-320q0 -40 28 -68t68 -28z" />
</svg>
