<?xml version="1.0" standalone="no"?>
<!DOCTYPE svg PUBLIC "-//W3C//DTD SVG 1.1//EN" "http://www.w3.org/Graphics/SVG/1.1/DTD/svg11.dtd" >
<svg xmlns="http://www.w3.org/2000/svg" xmlns:xlink="http://www.w3.org/1999/xlink" version="1.1" viewBox="-10 0 1812 2048">
   <path fill="currentColor"
d="M1568 128q93 0 158.5 65.5t65.5 158.5v1344q0 93 -65.5 158.5t-158.5 65.5h-1344q-93 0 -158.5 -65.5t-65.5 -158.5v-1344q0 -93 65.5 -158.5t158.5 -65.5h1344zM224 320q-13 0 -22.5 9.5t-9.5 22.5v1344q0 13 9.5 22.5t22.5 9.5h1344q13 0 22.5 -9.5t9.5 -22.5v-1344
q0 -13 -9.5 -22.5t-22.5 -9.5h-1344zM1380 1092l-416 416q-29 31 -70 31q-34 0 -59.5 -20.5t-33.5 -52.5q-3 -12 -3 -24q0 -41 30 -70l252 -252h-600q-40 0 -68 -28t-28 -68t28 -68t68 -28h600l-252 -252q-26 -28 -26 -66q0 -39 28.5 -67.5t67.5 -28.5q38 0 66 26l104 104
l208 208l104 104q28 28 28 68t-28 68z" />
</svg>
