<?xml version="1.0" standalone="no"?>
<!DOCTYPE svg PUBLIC "-//W3C//DTD SVG 1.1//EN" "http://www.w3.org/Graphics/SVG/1.1/DTD/svg11.dtd" >
<svg xmlns="http://www.w3.org/2000/svg" xmlns:xlink="http://www.w3.org/1999/xlink" version="1.1" viewBox="-10 0 1940 2048">
   <path fill="currentColor"
d="M192 228v1472q0 13 9.5 22t22.5 10h406q39 0 67.5 28t28.5 68t-28.5 68t-67.5 28h-406q-93 0 -158.5 -66t-65.5 -158v-1472q0 -94 65.5 -159.5t158.5 -64.5h1088q93 0 158.5 65.5t65.5 158.5v990q0 40 -28 68t-68 28t-68 -28.5t-28 -67.5v-990q0 -14 -9.5 -23t-22.5 -9
h-1088q-13 0 -22.5 9t-9.5 23zM1891 1448l-583 570q-28 26 -67 26q-40 0 -68 -28l-63 -62l-124 -124l-62 -62q-26 -29 -26 -66q0 -40 28.5 -68t67.5 -28q38 0 66 26l182 182l515 -504q28 -26 67 -26q40 0 68 28t28 68t-29 68zM480 516h576q40 0 68 28t28 68t-28 68t-68 28
h-576q-40 0 -68 -28.5t-28 -68.5t28 -68t68 -27zM384 995q0 -40 28 -68t68 -27h256q40 0 68 28t28 68t-28 68t-68 28h-256q-40 0 -68 -28.5t-28 -68.5z" />
</svg>
