<?xml version="1.0" standalone="no"?>
<!DOCTYPE svg PUBLIC "-//W3C//DTD SVG 1.1//EN" "http://www.w3.org/Graphics/SVG/1.1/DTD/svg11.dtd" >
<svg xmlns="http://www.w3.org/2000/svg" xmlns:xlink="http://www.w3.org/1999/xlink" version="1.1" viewBox="-10 0 1684 2048">
   <path fill="currentColor"
d="M224 320h448q40 0 68 28t28 68t-28 68t-68 28h-448q-13 0 -22.5 9.5t-9.5 22.5v1088q0 13 9.5 22.5t22.5 9.5h1088q13 0 22.5 -9.5t9.5 -22.5v-448q0 -40 28 -68t68 -28t68 28t28 68v448q0 93 -65.5 158.5t-158.5 65.5h-1088q-93 0 -158.5 -65.5t-65.5 -158.5v-1088
q0 -93 65.5 -158.5t158.5 -65.5zM1101 192h531q13 0 22.5 9.5t9.5 22.5v531q0 13 -9.5 22.5t-22.5 9.5t-23 -10l-49 -49l-99 -99l-49 -49l-480 480q-28 26 -66 26q-39 0 -67.5 -28.5t-28.5 -67.5q0 -38 26 -66l120 -120l240 -240l120 -120l-197 -197q-10 -10 -10 -23
t9.5 -22.5t22.5 -9.5z" />
</svg>
