<?xml version="1.0" standalone="no"?>
<!DOCTYPE svg PUBLIC "-//W3C//DTD SVG 1.1//EN" "http://www.w3.org/Graphics/SVG/1.1/DTD/svg11.dtd" >
<svg xmlns="http://www.w3.org/2000/svg" xmlns:xlink="http://www.w3.org/1999/xlink" version="1.1" viewBox="-10 0 2071 2048">
   <path fill="currentColor"
d="M1024 352v1344q0 40 -28 68t-68 28q-36 0 -62 -23l-106 -91l-210 -180l-105 -90h-221q-93 0 -158.5 -65.5t-65.5 -158.5v-320q0 -93 65.5 -158.5t158.5 -65.5h220l422 -361q26 -23 62 -23q40 0 68 28t28 68zM1444 668l220 220l220 -220q28 -26 66 -26q39 0 67.5 28.5
t28.5 67.5q0 38 -26 66l-23 22q-23 23 -55 55.5t-64.5 65t-55.5 54.5l-22 23l220 220q31 29 31 70q0 34 -20.5 59.5t-52.5 33.5q-12 3 -24 3q-41 0 -70 -30l-220 -220l-220 220q-29 31 -70 31q-34 0 -59.5 -20.5t-33.5 -52.5q-3 -12 -3 -24q0 -41 30 -70l220 -220l-220 -220
q-31 -29 -31 -70q0 -34 20.5 -59.5t52.5 -33.5q12 -3 24 -3q41 0 70 30zM542 809q-27 23 -62 23h-64h-128h-64q-13 0 -22.5 9.5t-9.5 22.5v320q0 13 9.5 22.5t22.5 9.5h256q35 0 62 23l290 248v-926z" />
</svg>
