<?xml version="1.0" standalone="no"?>
<!DOCTYPE svg PUBLIC "-//W3C//DTD SVG 1.1//EN" "http://www.w3.org/Graphics/SVG/1.1/DTD/svg11.dtd" >
<svg xmlns="http://www.w3.org/2000/svg" xmlns:xlink="http://www.w3.org/1999/xlink" version="1.1" viewBox="-10 0 1812 2048">
   <path fill="currentColor"
d="M90 1025q6 -1 12 -1q36 0 63.5 24.5t31.5 60.5q16 129 77 243t153 196.5t214 130.5t255 48q155 0 292.5 -63t236.5 -175l-154 -154q-10 -10 -10 -23t9.5 -22.5t22.5 -9.5h117h233h117q13 0 22.5 9.5t9.5 22.5v467q0 13 -9.5 22.5t-22.5 9.5t-23 -10l-44 -44l-88 -88
l-44 -44q-126 138 -298.5 216.5t-366.5 78.5q-169 0 -324.5 -61t-272.5 -166.5t-195 -251t-98 -309.5v-12q0 -37 24 -64t60 -31zM896 320h-1q-155 0 -292 63.5t-236 175.5l154 154q10 10 10 23t-9.5 22.5t-22.5 9.5h-117h-233h-117q-13 0 -22.5 -9.5t-9.5 -22.5v-467
q0 -13 9.5 -22.5t22.5 -9.5t23 10l44 44l88 88l44 44q126 -138 298.5 -216.5t366.5 -78.5q169 0 324.5 61t272.5 166.5t195 251t98 309.5v12q0 40 -28 68t-68 28q-36 0 -63.5 -24.5t-31.5 -60.5q-16 -129 -77 -243.5t-153 -197t-214.5 -130.5t-254.5 -48z" />
</svg>
