<?xml version="1.0" standalone="no"?>
<!DOCTYPE svg PUBLIC "-//W3C//DTD SVG 1.1//EN" "http://www.w3.org/Graphics/SVG/1.1/DTD/svg11.dtd" >
<svg xmlns="http://www.w3.org/2000/svg" xmlns:xlink="http://www.w3.org/1999/xlink" version="1.1" viewBox="-10 0 2028 2048">
   <path fill="currentColor"
d="M1797 129l182 316q29 51 29 111q0 66 -34.5 120.5t-91.5 81.5l-1504 724q-45 22 -97 22q-61 0 -112.5 -30t-81.5 -82l-57 -99q-30 -51 -30 -111q0 -57 26.5 -106t71.5 -80l1378 -940q57 -39 126 -39q62 0 113.5 30.5t81.5 81.5zM1194 1322l338 495q17 24 17 54
q0 40 -28 68t-68 28q-51 0 -79 -42l-241 -352v362q0 40 -28 68t-68 28t-68 -28t-28 -68v-362l-241 352q-29 42 -79 42q-40 0 -68 -28t-28 -68q0 -30 17 -54l66 -96q65 -96 130 -191l66 -96q14 -21 37 -33l232 -111q20 -9 42 -9q50 0 79 41zM1189 485l-636 434l120 208
l694 -334zM1584 215h1l-237 161l192 334l258 -125q13 -6 17 -19q2 -4 2 -9q0 -9 -5 -16l-46 -79l-90 -158l-46 -79q-7 -12 -20 -15q-4 -1 -7 -1q-10 0 -19 6zM206 1155q-14 10 -14 26q0 9 4 16l14 25q15 25 29 50l14 25q10 16 28 16q7 0 14 -4l51 -25l102 -48l52 -25
l-107 -184z" />
</svg>
