<?xml version="1.0" standalone="no"?>
<!DOCTYPE svg PUBLIC "-//W3C//DTD SVG 1.1//EN" "http://www.w3.org/Graphics/SVG/1.1/DTD/svg11.dtd" >
<svg xmlns="http://www.w3.org/2000/svg" xmlns:xlink="http://www.w3.org/1999/xlink" version="1.1" viewBox="-10 0 2065 2048">
   <path fill="currentColor"
d="M603 30q28 -28 68 -28t68 28l32 32l64 64l32 32q75 -28 156 -28q80 0 155 28l32 -32l64 -64l32 -32q28 -30 69 -30q33 0 59 20.5t34 52.5q3 11 3 24q0 41 -29 69l-99 99q60 62 93.5 142t33.5 170v42q0 18 -3 37q79 27 132 93l250 -101q16 -6 33 -6q39 0 67.5 28.5
t28.5 67.5q0 29 -16 53t-41 35l-259 104v222h287q40 0 68 28t28 68t-28 68t-68 28h-287v64q0 77 -18 152l277 111q26 11 41.5 34.5t15.5 52.5q0 40 -28 68t-68 28q-17 0 -33 -6l-69 -28q-70 -28 -139 -56l-70 -28q-86 143 -231.5 227.5t-316.5 84.5v-1q-172 0 -318 -84
t-231 -227l-278 112q-17 6 -34 6q-40 0 -68 -28t-28 -68q0 -29 16 -52.5t42 -34.5l277 -111q-18 -75 -18 -152v-64h-287q-40 0 -68 -28t-28 -68t28 -68t68 -28h287v-222l-259 -104q-26 -11 -42 -35t-16 -53q0 -40 28 -68t68 -28q17 0 34 6l63 25q63 25 125 50l62 26
q53 -66 132 -93q-3 -18 -3 -37v-42q0 -90 33.5 -170t93.5 -142l-99 -99q-28 -28 -28 -68t28 -68zM671 833q-40 0 -68 28t-28 68v479q0 185 131.5 316t316 131t316 -131t131.5 -316v-479q0 -40 -28 -68t-68 -28h-703zM789 641h467q9 0 15.5 -6.5t6.5 -15.5v-42
q0 -106 -75 -180.5t-180.5 -74.5t-180.5 74.5t-75 180.5v42q0 9 6.5 15.5t15.5 6.5z" />
</svg>
