<?xml version="1.0" standalone="no"?>
<!DOCTYPE svg PUBLIC "-//W3C//DTD SVG 1.1//EN" "http://www.w3.org/Graphics/SVG/1.1/DTD/svg11.dtd" >
<svg xmlns="http://www.w3.org/2000/svg" xmlns:xlink="http://www.w3.org/1999/xlink" version="1.1" viewBox="-10 0 1812 2048">
   <path fill="currentColor"
d="M1568 128q93 0 158.5 65.5t65.5 158.5v1344q0 93 -65.5 158.5t-158.5 65.5h-1344q-93 0 -158.5 -65.5t-65.5 -158.5v-1344q0 -93 65.5 -158.5t158.5 -65.5h1344zM224 320q-13 0 -22.5 9.5t-9.5 22.5v1344q0 13 9.5 22.5t22.5 9.5h1344q13 0 22.5 -9.5t9.5 -22.5v-1344
q0 -13 -9.5 -22.5t-22.5 -9.5h-1344zM1316 740l-704 704q-29 31 -70 31q-34 0 -59.5 -20.5t-33.5 -52.5q-3 -12 -3 -24q0 -41 30 -70l704 -704q28 -26 66 -26q39 0 67.5 28.5t28.5 67.5q0 38 -26 66z" />
</svg>
