<?xml version="1.0" standalone="no"?>
<!DOCTYPE svg PUBLIC "-//W3C//DTD SVG 1.1//EN" "http://www.w3.org/Graphics/SVG/1.1/DTD/svg11.dtd" >
<svg xmlns="http://www.w3.org/2000/svg" xmlns:xlink="http://www.w3.org/1999/xlink" version="1.1" viewBox="-10 0 2072 2048">
   <path fill="currentColor"
d="M537 552l2 1l1294 937l1 1l176 127q42 29 42 80q0 39 -28 67.5t-68 28.5q-32 0 -58 -20l-38 -28q-38 -27 -76 -55l-38 -27h-1422q-80 0 -137 -57t-57 -137q0 -59 33 -108l55 -82q54 -81 108 -163l55 -82q5 -8 5 -18v-85v-168v-85l-344 -249q-42 -29 -42 -80
q0 -39 28 -67.5t68 -28.5q32 0 58 20l96 70l192 138zM1481 1472l-903 -654v199q0 68 -38 124l-218 328v1q0 1 1 1v1h1h1157zM1026 192q-94 0 -178 36.5t-146 102.5q-29 30 -70 30q-40 0 -68 -28.5t-28 -67.5t27 -67q89 -93 209 -145.5t254 -52.5q130 0 248.5 50.5
t204.5 136.5t136.5 204.5t50.5 248.5v76v152v76q0 39 -28 67.5t-68 28.5t-68 -28.5t-28 -67.5v-304q0 -185 -131.5 -316.5t-316.5 -131.5zM1026 2048q-97 0 -169.5 -64.5t-84.5 -159.5q-2 -13 7.5 -22.5t22.5 -9.5h448q13 0 22.5 9.5t7.5 22.5q-12 95 -84.5 159.5
t-169.5 64.5z" />
</svg>
