<?xml version="1.0" standalone="no"?>
<!DOCTYPE svg PUBLIC "-//W3C//DTD SVG 1.1//EN" "http://www.w3.org/Graphics/SVG/1.1/DTD/svg11.dtd" >
<svg xmlns="http://www.w3.org/2000/svg" xmlns:xlink="http://www.w3.org/1999/xlink" version="1.1" viewBox="-10 0 1812 2048">
   <path fill="currentColor"
d="M1097 87q10 -10 23 -10t22.5 9.5t9.5 22.5v53v105v53h128q132 0 226 94t94 226v720q85 30 138.5 104.5t53.5 167.5q0 119 -84.5 203.5t-203.5 84.5t-203.5 -84.5t-84.5 -203.5q0 -93 53.5 -167.5t138.5 -104.5v-720q0 -53 -37.5 -90.5t-90.5 -37.5h-128v211
q0 13 -9.5 22.5t-22.5 9.5t-23 -10l-77 -77l-153 -153l-76 -76q-10 -10 -10 -23t10 -23zM640 1536v-211q0 -13 9.5 -22.5t22.5 -9.5t23 10l77 77l153 153l76 76q10 10 10 23t-10 23l-306 306q-10 10 -23 10t-22.5 -9.5t-9.5 -22.5v-53v-105v-53h-128q-132 0 -226 -94
t-94 -226v-720q-85 -30 -138.5 -104.5t-53.5 -167.5q0 -119 84.5 -203.5t203.5 -84.5t203.5 84.5t84.5 203.5q0 93 -53.5 167.5t-138.5 104.5v720q0 53 37.5 90.5t90.5 37.5h128zM384 416q0 -40 -28 -68t-68 -28t-68 28t-28 68t28 68t68 28t68 -28t28 -68zM1504 1536
q-40 0 -68 28t-28 68t28 68t68 28t68 -28t28 -68t-28 -68t-68 -28z" />
</svg>
