<?xml version="1.0" standalone="no"?>
<!DOCTYPE svg PUBLIC "-//W3C//DTD SVG 1.1//EN" "http://www.w3.org/Graphics/SVG/1.1/DTD/svg11.dtd" >
<svg xmlns="http://www.w3.org/2000/svg" xmlns:xlink="http://www.w3.org/1999/xlink" version="1.1" viewBox="-10 0 2007 2048">
   <path fill="currentColor"
d="M385 1081v-82h288v466q-110 53 -294 53q-84 0 -149.5 -25.5t-108.5 -69.5t-70.5 -107.5t-39 -135t-11.5 -156.5t11.5 -156.5t39.5 -135t70.5 -107.5t108 -69.5t149.5 -25.5q164 0 269 54v86q-80 -33 -137 -46.5t-132 -13.5q-61 0 -110 21t-81.5 57.5t-53.5 89.5
t-30.5 114t-9.5 133t9.5 132.5t30.5 113.5t53.5 89.5t81 57t109.5 20.5q151 0 208 -28v-329h-201zM1285 1138h2q67 6 111.5 20t69.5 38t34.5 53.5t9.5 70.5q0 40 -13 73.5t-41.5 62.5t-80.5 45.5t-122 16.5q-45 0 -102.5 -10t-88.5 -22v-77q82 29 191 29q92 0 130.5 -32.5
t38.5 -83.5q0 -24 -5 -40.5t-19.5 -32t-44.5 -24.5t-76 -13q-68 -6 -113 -20.5t-68.5 -38t-33 -49.5t-9.5 -62t12.5 -68.5t39 -60.5t75 -44t112.5 -16q111 0 185 32v77q-90 -30 -186 -30q-89 0 -121.5 28.5t-32.5 81.5q0 30 10.5 48t42.5 30t93 18zM1987 865v70h-198v398
q0 58 31 84t92 26q34 0 50 -2v73q-23 4 -57 4q-41 0 -77 -10t-65 -30t-45.5 -54.5t-16.5 -80.5v-409h-128v-40l128 -36v-173l88 -25v205h198zM908 862v526q0 32 12.5 44.5t42.5 12.5v73q-71 0 -106 -33t-35 -108v-515h86zM929 671.5q0 27.5 -18.5 45.5t-45.5 18h-1
q-26 0 -44 -18t-18 -44v-1q0 -28 18 -46t45.5 -18t45.5 18t18 45.5z" />
</svg>
