<?xml version="1.0" standalone="no"?>
<!DOCTYPE svg PUBLIC "-//W3C//DTD SVG 1.1//EN" "http://www.w3.org/Graphics/SVG/1.1/DTD/svg11.dtd" >
<svg xmlns="http://www.w3.org/2000/svg" xmlns:xlink="http://www.w3.org/1999/xlink" version="1.1" viewBox="-10 0 1812 2048">
   <path fill="currentColor"
d="M256 288q0 -93 65.5 -158.5t158.5 -65.5h715q93 0 158 66l373 373q66 65 66 158v1099q0 93 -65.5 158.5t-158.5 65.5h-896q-40 0 -68 -28t-28 -68t28 -68t68 -28h896q13 0 22.5 -9.5t9.5 -22.5v-928h-352q-93 0 -158.5 -65.5t-65.5 -158.5v-352h-544q-13 0 -22.5 9.5
t-9.5 22.5v352q0 40 -28 68t-68 28t-68 -28t-28 -68v-352zM192 1630v130q0 40 -28 68t-68 28t-68 -28t-28 -68v-130q0 -97 38 -186t102.5 -153t153 -102t186.5 -38h3h29v-246q0 -13 9.5 -22.5t22.5 -9.5t22 9l92 86q92 85 185 171l92 86q10 9 10 23t-10 24l-369 342
q-9 9 -22 9t-22.5 -9.5t-9.5 -22.5v-248l-30 -1h-2q-119 0 -203.5 84.5t-84.5 203.5zM1216 264v344q0 13 9.5 22.5t22.5 9.5h344l-1 -2l-373 -373z" />
</svg>
