<?xml version="1.0" standalone="no"?>
<!DOCTYPE svg PUBLIC "-//W3C//DTD SVG 1.1//EN" "http://www.w3.org/Graphics/SVG/1.1/DTD/svg11.dtd" >
<svg xmlns="http://www.w3.org/2000/svg" xmlns:xlink="http://www.w3.org/1999/xlink" version="1.1" viewBox="-10 0 1972 2048">
   <path fill="currentColor"
d="M352 160q0 -40 28 -68t68 -28t68 28t28 68v127q54 70 118.5 136t106.5 102.5t116 98.5l30 26q-7 -152 55 -277q75 -150 225.5 -227.5t324.5 -48.5q87 15 164 55.5t137.5 103t95.5 154t35 198.5q0 83 -37.5 158.5t-110 128.5t-164.5 63l18 65l9 28q52 181 61 285
q13 162 -36 288.5t-155 210.5q-186 149 -513 149h-768q-40 0 -68 -28t-28 -68t28 -68t68 -28h176q-47 -71 -72 -152q-21 -70 -21 -144q0 -62 15 -121q-24 2 -47 2q-110 0 -213 -39q-27 -10 -44.5 -35t-17.5 -55q0 -40 28 -68t68 -28q17 0 34 6q61 23 120 27t103 -8t74 -27
t48 -33l1 -1q28 -28 68 -28t68 28t28 68q0 41 -30 70q-151 152 -98 331q20 66 63 121.5t90 85.5h327q260 0 393 -107q138 -110 119 -333q-7 -87 -54 -247l-8 -28q-31 -104 -45 -166q-37 -23 -65 -56q-59 -70 -81 -160q-3 -11 -3 -22q0 -39 28.5 -67.5t67.5 -28.5
q33 0 59 20.5t34 51.5q12 48 40 80q34 39 91 39q69 0 114.5 -48.5t45.5 -111.5q0 -135 -76 -218t-196 -103q-110 -19 -204.5 29.5t-141.5 142.5q-17 34 -25.5 71.5t-10.5 68t5 78.5t13 79t20 95l6 24q0 3 1 7q71 90 120 198q10 20 10 43q0 39 -28 67.5t-68 28.5
q-29 0 -53 -16.5t-35 -42.5q-49 -107 -116.5 -184t-178.5 -171l-40 -34q-72 -59 -113 -95t-108.5 -103.5t-123.5 -136.5q-76 45 -131 113q-80 98 -92 193q24 25 75 30q36 4 72 -3.5t60 -20.5q21 -10 43 -10q40 0 68 28t28 68q0 54 -45 82q-51 28 -115.5 41t-128.5 7
q-48 -5 -90.5 -20t-84 -49.5t-66.5 -83.5l-10 -20v-23q0 -89 38 -177.5t100 -163.5q96 -117 214 -173v-94z" />
</svg>
