<?xml version="1.0" standalone="no"?>
<!DOCTYPE svg PUBLIC "-//W3C//DTD SVG 1.1//EN" "http://www.w3.org/Graphics/SVG/1.1/DTD/svg11.dtd" >
<svg xmlns="http://www.w3.org/2000/svg" xmlns:xlink="http://www.w3.org/1999/xlink" version="1.1" viewBox="-10 0 1556 2048">
   <path fill="currentColor"
d="M1152 288v160h288q40 0 68 28t28 68t-28 68t-68 28h-1344q-40 0 -68 -28t-28 -68t28 -68t68 -28h288v-160q0 -93 65.5 -158.5t158.5 -65.5h320q93 0 158.5 65.5t65.5 158.5zM319 918l85 845q1 12 10 20.5t22 8.5h664q13 0 22 -8.5t10 -20.5l21 -211l42 -422l22 -212
q4 -35 31 -59t64 -24q39 0 67.5 28t28.5 68q0 3 -1 6l-84 845q-8 85 -72 143.5t-151 58.5h-166h-332h-166q-87 0 -150.5 -58t-72.5 -144q0 1 -21 -210.5t-42 -422.5l-21 -211q-1 -6 -1 -13q0 -39 28 -67.5t68 -28.5q38 0 65.5 26t29.5 63zM576 288v160h384v-160
q0 -13 -9.5 -22.5t-22.5 -9.5h-320q-13 0 -22.5 9.5t-9.5 22.5z" />
</svg>
