<?xml version="1.0" standalone="no"?>
<!DOCTYPE svg PUBLIC "-//W3C//DTD SVG 1.1//EN" "http://www.w3.org/Graphics/SVG/1.1/DTD/svg11.dtd" >
<svg xmlns="http://www.w3.org/2000/svg" xmlns:xlink="http://www.w3.org/1999/xlink" version="1.1" viewBox="-10 0 2041 2048">
   <path fill="currentColor"
d="M1425 181q154 -111 266 -147q167 -55 265 43t47 265q-35 114 -144 268q-159 224 -483 544q-202 200 -390 295q6 36 6 73q0 97 -37 184.5t-104 153.5q-69 70 -212 111q-102 29 -245 45q-145 17 -292 17h-7l1 -96l-1 96q-39 0 -67 -28t-28 -67l95 -1l-95 1v-7
q0 -147 17 -292q12 -124 45 -245q42 -143 111 -212q66 -67 153.5 -104t185.5 -37q36 0 74 6q96 -185 296 -382q339 -335 543 -484zM207 1660q-10 90 -13 179q89 -3 179 -13q108 -11 213 -40q96 -27 130 -61q84 -85 84 -204t-84.5 -203.5t-203.5 -84.5t-204 84
q-34 34 -61 130q-29 105 -40 213zM1538 337q-185 135 -489 433l220 220q291 -290 433 -491q91 -128 117 -212q17 -57 1 -74q-14 -15 -70 3q-83 27 -212 121zM920 1267h-1q112 -62 209 -146l-53 -53l-106 -106l-53 -53q-85 95 -149 205q94 59 153 153z" />
</svg>
