<?xml version="1.0" standalone="no"?>
<!DOCTYPE svg PUBLIC "-//W3C//DTD SVG 1.1//EN" "http://www.w3.org/Graphics/SVG/1.1/DTD/svg11.dtd" >
<svg xmlns="http://www.w3.org/2000/svg" xmlns:xlink="http://www.w3.org/1999/xlink" version="1.1" viewBox="-10 0 1684 2048">
   <path fill="currentColor"
d="M1028 89q6 64 20.5 123.5t31.5 105t46.5 95t51.5 81.5t61.5 76.5t62 68t66.5 66.5q43 43 65 65.5t59 64.5t56.5 71.5t45.5 75t38.5 86.5t22 94.5t9.5 110.5q0 132 -43.5 251.5t-121 212.5t-181 162t-228.5 105.5t-258 36.5t-258.5 -36.5t-228.5 -105t-181 -161.5
t-121 -213t-43 -252q0 -125 48.5 -238t133.5 -183q37 -27 76 -7.5t57 66.5q23 59 60 94.5t74.5 42.5t71.5 -1.5t55 -29.5q29 -29 30 -76.5t-30 -115.5q-44 -88 -59 -174.5t-3 -159t42.5 -140t74 -121t95.5 -98t103.5 -74t101.5 -46.5q36 -13 65 11.5t32 65.5zM831.5 1849
q133.5 0 252.5 -45t204 -122t134.5 -183.5t49.5 -225.5q0 -46 -6.5 -85.5t-22.5 -77t-33 -66.5t-49 -66.5t-58 -64.5t-72 -73l-4 -5q-38 -37 -58.5 -58t-58 -62t-60.5 -71.5t-54.5 -77t-53 -89.5t-43 -97.5t-35.5 -111.5q-68 54 -111 122q-100 161 -6 349q24 48 37 99.5
t14 106.5t-21 109.5t-65 98.5q-58 58 -141.5 79.5t-166.5 1.5q-109 -27 -184 -112q-28 72 -28 150v1q0 120 49.5 226.5t134 183t203.5 121.5t252.5 45z" />
</svg>
