<?xml version="1.0" standalone="no"?>
<!DOCTYPE svg PUBLIC "-//W3C//DTD SVG 1.1//EN" "http://www.w3.org/Graphics/SVG/1.1/DTD/svg11.dtd" >
<svg xmlns="http://www.w3.org/2000/svg" xmlns:xlink="http://www.w3.org/1999/xlink" version="1.1" viewBox="-10 0 2058 2048">
   <path fill="currentColor"
d="M278 187l1578 1322q23 19 23 49q0 27 -18.5 45.5t-45.5 18.5q-23 0 -41 -15l-38 -31q-37 -32 -75 -63l-38 -32v333q0 27 -18.5 45.5t-45.5 18.5q-22 0 -40 -14l-123 -98q-123 -99 -247 -198l-123 -98l-493 394q-18 14 -40 14q-27 0 -45.5 -18.5t-18.5 -44.5l-5 -1339
l-228 -191q-23 -19 -23 -49q0 -27 18.5 -45.5t45.5 -18.5q23 0 41 15zM635 172h839q62 0 105.5 43.5t43.5 105.5v689q0 26 -18.5 45t-45.5 19q-23 0 -41 -15l-231 -193l-462 -388l-231 -193q-23 -19 -23 -49q0 -27 19 -45.5t45 -18.5z" />
</svg>
