<?xml version="1.0" standalone="no"?>
<!DOCTYPE svg PUBLIC "-//W3C//DTD SVG 1.1//EN" "http://www.w3.org/Graphics/SVG/1.1/DTD/svg11.dtd" >
<svg xmlns="http://www.w3.org/2000/svg" xmlns:xlink="http://www.w3.org/1999/xlink" version="1.1" viewBox="-10 0 2058 2048">
   <path fill="currentColor"
d="M1131 5q177 21 257 114q84 96 84 294q0 61 -20 210l-2 14h182q129 0 214 43q100 50 145 153q42 92 46 235t-22 318l-5 39q-25 190 -40 260q-29 140 -86 214q-35 46 -82.5 76t-111 44.5t-128 20t-154.5 5.5q-159 0 -290.5 -22.5t-271.5 -61.5q-17 -4 -60 -17
q-155 -43 -221 -53q-23 68 -81.5 111t-131.5 43h-128q-93 0 -158.5 -65.5t-65.5 -158.5v-960q0 -93 65.5 -158.5t158.5 -65.5h128q61 0 112.5 30.5t81.5 81.5q64 -27 117 -65q169 -124 169 -335v-64q0 -57 23 -111t62 -94t95 -61t119 -14zM576 1699q89 12 265 62l57 16
q129 36 248 56t262 20q110 0 178.5 -9.5t98 -23.5t47.5 -37q30 -40 50 -137q14 -65 38 -247l5 -39q44 -331 -9 -447q-16 -42 -56 -62q-45 -22 -128 -22h-224q-68 0 -115.5 -50t-38.5 -121q2 -17 9 -75q17 -125 17 -170q0 -126 -37 -168q-32 -37 -134 -49q-31 -3 -58 22
t-27 67v64q0 88 -21 166.5t-57.5 138.5t-78 104t-90.5 81q-93 67 -201 103v189v379v189zM352 829h-128q-13 0 -22.5 9.5t-9.5 22.5v960q0 13 9.5 22.5t22.5 9.5h128q13 0 22.5 -9.5t9.5 -22.5v-960q0 -13 -9.5 -22.5t-22.5 -9.5z" />
</svg>
