<?xml version="1.0" standalone="no"?>
<!DOCTYPE svg PUBLIC "-//W3C//DTD SVG 1.1//EN" "http://www.w3.org/Graphics/SVG/1.1/DTD/svg11.dtd" >
<svg xmlns="http://www.w3.org/2000/svg" xmlns:xlink="http://www.w3.org/1999/xlink" version="1.1" viewBox="-11 0 2058 2048">
   <path fill="currentColor"
d="M907 2043q-177 -20 -258 -113q-84 -97 -84 -294q0 -61 20 -210l2 -14h-182q-128 0 -213 -43q-101 -50 -146 -154q-41 -91 -45.5 -234t21.5 -318l5 -39q26 -192 40 -260q30 -141 86 -214q35 -46 82.5 -76t111.5 -45t128 -20t154 -5q160 0 291.5 22.5t270.5 60.5l61 17
q153 44 221 53q22 -67 80.5 -110t131.5 -43h128q93 0 158.5 65.5t65.5 158.5v960q0 93 -65.5 158.5t-158.5 65.5h-128q-61 0 -112.5 -30.5t-80.5 -81.5q-65 26 -118 65q-169 124 -169 335v64q0 57 -22.5 111t-61.5 93.5t-95.5 60.5t-118.5 14zM1461 350q-90 -12 -265 -62
l-56 -16q-130 -36 -248.5 -56t-262.5 -20q-110 0 -178.5 9.5t-98 23.5t-46.5 37q-30 39 -51 137q-13 65 -37 247l-6 38q-44 332 9 448q17 41 57 61q45 23 127 23h224q68 0 115.5 50t39.5 121q-3 19 -10 75q-17 123 -17 170q0 126 37 168q32 37 134 48q32 4 58.5 -21.5
t26.5 -66.5v-64q0 -89 21 -167t58 -138t78 -104.5t91 -80.5q92 -67 200 -103v-190v-378v-189zM1685 1220h128q14 0 23 -9.5t9 -22.5v-960q0 -14 -9 -23t-23 -9h-128q-13 0 -22.5 9t-9.5 23v960q0 13 9.5 22.5t22.5 9.5z" />
</svg>
