<?xml version="1.0" standalone="no"?>
<!DOCTYPE svg PUBLIC "-//W3C//DTD SVG 1.1//EN" "http://www.w3.org/Graphics/SVG/1.1/DTD/svg11.dtd" >
<svg xmlns="http://www.w3.org/2000/svg" xmlns:xlink="http://www.w3.org/1999/xlink" version="1.1" viewBox="-10 0 2058 2048">
   <path fill="currentColor"
d="M1026 2048q-97 0 -169.5 -64.5t-84.5 -159.5q-2 -13 7.5 -22.5t22.5 -9.5h448q13 0 22.5 9.5t7.5 22.5q-12 95 -84.5 159.5t-169.5 64.5zM386 640q0 -130 50.5 -248.5t136.5 -204.5t204.5 -136.5t248.5 -50.5t248.5 50.5t204.5 136.5t136.5 204.5t50.5 248.5v377
q0 10 5 18l218 327q33 49 33 107q0 81 -57 138t-137 57h-1404q-80 0 -137 -57t-57 -137q0 -59 33 -108l55 -82q54 -81 108 -163l55 -82q5 -8 5 -18v-94v-189v-94zM1026 192q-185 0 -316.5 131.5t-131.5 316.5v377q0 68 -38 124l-218 328v1v1h1v1h1h1404h1v-1h1v-1v-2
l-54 -82q-55 -81 -110 -163l-54 -81q-38 -57 -38 -124v-1v-94v-189v-94q0 -185 -131.5 -316.5t-316.5 -131.5z" />
</svg>
