<?xml version="1.0" standalone="no"?>
<!DOCTYPE svg PUBLIC "-//W3C//DTD SVG 1.1//EN" "http://www.w3.org/Graphics/SVG/1.1/DTD/svg11.dtd" >
<svg xmlns="http://www.w3.org/2000/svg" xmlns:xlink="http://www.w3.org/1999/xlink" version="1.1" viewBox="-10 0 1812 2048">
   <path fill="currentColor"
d="M828 35q33 -11 68 -11t68 11l168 54t336 107l168 54q69 22 112.5 80.5t43.5 132.5v451q0 345 -167 599q-199 304 -644 494q-40 17 -85 17t-85 -17q-445 -190 -644 -494q-167 -254 -167 -599v-451q0 -74 43.5 -132.5t112.5 -80.5zM906 218q-5 -2 -10 -2t-10 2l-168 54
q-168 53 -336 107l-168 54q-22 7 -22 30v451q0 288 135 494q168 255 559 422q5 2 10 2t10 -2q391 -166 559 -422q135 -206 135 -494v-451q0 -23 -22 -30zM992 626v384q0 40 -28 68t-68 28t-68 -28t-28 -68v-384q0 -40 28 -68t68 -28t68 28t28 68zM1024 1362q0 53 -37.5 90.5
t-90.5 37.5t-90.5 -37.5t-37.5 -90.5t37.5 -90.5t90.5 -37.5t90.5 37.5t37.5 90.5z" />
</svg>
