<?xml version="1.0" standalone="no"?>
<!DOCTYPE svg PUBLIC "-//W3C//DTD SVG 1.1//EN" "http://www.w3.org/Graphics/SVG/1.1/DTD/svg11.dtd" >
<svg xmlns="http://www.w3.org/2000/svg" xmlns:xlink="http://www.w3.org/1999/xlink" version="1.1" viewBox="-10 0 1940 2048">
   <path fill="currentColor"
d="M128 224h512q53 0 90.5 37.5t37.5 90.5v512q0 53 -37.5 90.5t-90.5 37.5h-512q-53 0 -90.5 -37.5t-37.5 -90.5v-512q0 -53 37.5 -90.5t90.5 -37.5zM724 1324q28 28 28 68t-28 68l-336 336q-28 28 -68 28t-68 -28l-48 -48l-96 -96l-48 -48q-31 -29 -31 -70
q0 -34 20.5 -59.5t52.5 -33.5q12 -3 24 -3q41 0 70 30l124 124l268 -268q28 -28 68 -28t68 28zM1120 288h704q40 0 68 28t28 68t-28 68t-68 28h-704q-40 0 -68 -28t-28 -68t28 -68t68 -28zM1120 928h704q40 0 68 28t28 68t-28 68t-68 28h-704q-40 0 -68 -28t-28 -68t28 -68
t68 -28zM1120 1568h704q40 0 68 28t28 68t-28 68t-68 28h-704q-40 0 -68 -28t-28 -68t28 -68t68 -28zM192 416v384h384v-384h-384z" />
</svg>
