<?xml version="1.0" standalone="no"?>
<!DOCTYPE svg PUBLIC "-//W3C//DTD SVG 1.1//EN" "http://www.w3.org/Graphics/SVG/1.1/DTD/svg11.dtd" >
<svg xmlns="http://www.w3.org/2000/svg" xmlns:xlink="http://www.w3.org/1999/xlink" version="1.1" viewBox="-10 0 1812 2048">
   <path fill="currentColor"
d="M224 128h1344q93 0 158.5 65.5t65.5 158.5v1344q0 93 -65.5 158.5t-158.5 65.5h-1344q-93 0 -158.5 -65.5t-65.5 -158.5v-1344q0 -93 65.5 -158.5t158.5 -65.5zM192 352v1344q0 13 9.5 22.5t22.5 9.5h1344q13 0 22.5 -9.5t9.5 -22.5v-1344q0 -13 -9.5 -22.5t-22.5 -9.5
h-1344q-13 0 -22.5 9.5t-9.5 22.5zM1380 804l-576 576q-28 28 -68 28t-68 -28l-64 -64l-128 -128l-64 -64q-26 -28 -26 -66q0 -39 28.5 -67.5t67.5 -28.5q38 0 66 26l47 47l94 94l47 47l508 -508q28 -26 66 -26q39 0 67.5 28.5t28.5 67.5q0 38 -26 66z" />
</svg>
