<?xml version="1.0" standalone="no"?>
<!DOCTYPE svg PUBLIC "-//W3C//DTD SVG 1.1//EN" "http://www.w3.org/Graphics/SVG/1.1/DTD/svg11.dtd" >
<svg xmlns="http://www.w3.org/2000/svg" xmlns:xlink="http://www.w3.org/1999/xlink" version="1.1" viewBox="-10 0 2069 2048">
   <path fill="currentColor"
d="M1315 803l-74.5 74.5t-145 144.5t-163.5 163l-65 66q-28 28 -68 28t-68 -28l-192 -192q-26 -28 -26 -66q0 -39 28.5 -67.5t67.5 -28.5q38 0 66 26l124 124l380 -380q29 -30 70 -30q40 0 68 28t28 68q0 41 -30 70zM959 1918q-130 0 -254.5 -34.5t-229.5 -96.5
t-193.5 -150.5t-150.5 -193.5t-96.5 -229.5t-34.5 -254.5t34.5 -254.5t96.5 -229.5t150.5 -193.5t193.5 -150.5t229.5 -96.5t254.5 -34.5t254.5 34.5t229.5 96.5t193.5 150.5t150.5 193.5t96.5 229.5t34.5 254.5q0 170 -56.5 325.5t-160.5 280.5l80 80l158 158l79 79
q31 29 31 70q0 34 -20.5 59.5t-52.5 33.5q-12 3 -24 3q-41 0 -70 -30l-317 -317q-125 104 -280 160.5t-324 56.5h-1h-1zM959 192q-208 0 -384.5 103t-279.5 279.5t-103 384.5t103 385t279.5 279.5t384.5 102.5q149 0 284 -54.5t240 -151.5q13 -24 38 -37q97 -105 151 -240
t54 -284q0 -160 -63 -306q-91 -206 -281 -333.5t-423 -127.5z" />
</svg>
