<?xml version="1.0" standalone="no"?>
<!DOCTYPE svg PUBLIC "-//W3C//DTD SVG 1.1//EN" "http://www.w3.org/Graphics/SVG/1.1/DTD/svg11.dtd" >
<svg xmlns="http://www.w3.org/2000/svg" xmlns:xlink="http://www.w3.org/1999/xlink" version="1.1" viewBox="-10 0 2027 2048">
   <path fill="currentColor"
d="M1006 185q10 11 18 21q8 -10 18 -21q118 -127 377 -98q242 26 348 161q89 112 89 318q0 103 -20 174q-84 -51 -179 -79q7 -39 7 -95q0 -139 -47 -199q-57 -71 -220 -90q-162 -18 -215 39q-50 53 -31 206q12 90 43 148q-113 39 -208.5 109t-165.5 166q-92 37 -212 37
q-134 0 -221 -37l-3 14v546l5 2q3 2 3 3q152 86 320 132q40 120 117 221q-190 -29 -367 -105q-85 -36 -165 -82q-30 -17 -59 -36l-3 -2l-1 -1l-2 -1q-53 -36 -101 -76q-42 -34 -78 -74q-19 -22 -33 -47q-19 -34 -20 -73v-41v-80v-41q0 -102 53.5 -186.5t141.5 -128.5l8 -4
l22 -107q-33 -82 -33 -212q0 -206 89 -318q106 -135 348 -161q259 -29 377 98zM866 316q-53 -57 -215 -39q-163 19 -220 90q-47 60 -47 199q0 131 40 175q43 49 184 49q142 0 210 -69q62 -64 79 -199q19 -153 -31 -206zM1088 1854q-108 -81 -170 -202t-62 -260
q0 -117 45.5 -223.5t122.5 -184t184 -123t224 -45.5q100 0 192.5 33t167.5 93q100 81 157.5 198t57.5 251q0 117 -46 223.5t-123 183.5t-183.5 123t-223.5 46q-190 0 -343 -113zM1344 1078v288q0 40 28 68t68 28t68 -28t28 -68v-288q0 -40 -28 -68t-68 -28t-68 28t-28 68z
M1440 1814q53 0 90.5 -37.5t37.5 -90.5t-37.5 -90.5t-90.5 -37.5t-90.5 37.5t-37.5 90.5t37.5 90.5t90.5 37.5z" />
</svg>
