<?xml version="1.0" standalone="no"?>
<!DOCTYPE svg PUBLIC "-//W3C//DTD SVG 1.1//EN" "http://www.w3.org/Graphics/SVG/1.1/DTD/svg11.dtd" >
<svg xmlns="http://www.w3.org/2000/svg" xmlns:xlink="http://www.w3.org/1999/xlink" version="1.1" viewBox="-10 0 2070 2048">
   <path fill="currentColor"
d="M18 295q29 -40 78 -40q31 0 56 18l464 336l928 672l464 336q42 29 42 80q0 39 -28 67.5t-68 28.5q-32 0 -58 -20l-72 -52t-144 -105l-72 -52q-287 227 -584 227q-322 0 -631 -266q-188 -161 -338 -387q-35 -52 -35 -115t35 -115q106 -160 239 -295l-254 -184
q-40 -29 -40 -78q0 -31 18 -56zM215 1014q-3 4 -3 9t3 9q135 203 303 347q255 220 506 220q209 0 421 -152l-285 -207q-62 39 -136 39q-106 0 -181 -75t-75 -181q0 -32 7 -61q1 -1 -80 -59.5t-162 -116.5l-81 -59q-133 131 -237 287zM1024 447q-96 0 -192 32q-16 6 -32 6
q-40 0 -68 -28t-28 -68q0 -32 19 -57.5t49 -34.5q122 -42 252 -42q322 0 631 266q188 161 338 387q35 52 35 115t-35 115q-23 35 -53 75q-28 40 -77 40q-40 0 -68 -28.5t-28 -67.5q0 -32 19 -57q23 -32 47 -68q3 -4 3 -9t-3 -9q-135 -203 -303 -347q-255 -220 -506 -220z
" />
</svg>
