<?xml version="1.0" standalone="no"?>
<!DOCTYPE svg PUBLIC "-//W3C//DTD SVG 1.1//EN" "http://www.w3.org/Graphics/SVG/1.1/DTD/svg11.dtd" >
<svg xmlns="http://www.w3.org/2000/svg" xmlns:xlink="http://www.w3.org/1999/xlink" version="1.1" viewBox="-10 0 2033 2048">
   <path fill="currentColor"
d="M66 194q65 -66 158 -66h112h224h112q53 0 100.5 23.5t78.5 66.5l115 153q10 13 26 13h672q53 0 90.5 37.5t37.5 90.5v64h-1440q-40 0 -68 28t-28 68t28 68t68 28h1533q53 0 90.5 37.5t37.5 90.5q0 8 -1 15l-92 785q0 93 -65.5 158.5t-158.5 65.5h-1472
q-93 0 -158.5 -65.5t-65.5 -158.5v-1344q0 -93 66 -158z" />
</svg>
