<?xml version="1.0" standalone="no"?>
<!DOCTYPE svg PUBLIC "-//W3C//DTD SVG 1.1//EN" "http://www.w3.org/Graphics/SVG/1.1/DTD/svg11.dtd" >
<svg xmlns="http://www.w3.org/2000/svg" xmlns:xlink="http://www.w3.org/1999/xlink" version="1.1" viewBox="-10 0 1812 2048">
   <path fill="currentColor"
d="M873 336q10 -10 23 -10t23 10l370 370q10 11 10 24t-9.5 22t-22.5 10h-275v414q0 40 -28 68t-68 28t-68 -28.5t-28 -67.5v-414h-46h-88h-101h-40q-13 0 -22.5 -9.5t-9.5 -23t10 -23.5zM1632 1530h64q40 0 68 28t28 68t-28 68t-68 28h-64q-40 0 -68 -28.5t-28 -68.5
t28 -68t68 -27zM1152 1625q0 -40 28 -68t68 -27h64q40 0 68 28t28 68t-28 68t-68 28h-64q-40 0 -68 -28.5t-28 -68.5zM864 1530h64q40 0 68 28t28 68t-28 68t-68 28h-64q-40 0 -68 -28.5t-28 -68.5t28 -68t68 -27zM384 1625q0 -40 28 -68t68 -27h64q40 0 68 28t28 68t-28 68
t-68 28h-64q-40 0 -68 -28.5t-28 -68.5zM96 1530h64q40 0 68 28t28 68t-28 68t-68 28h-64q-40 0 -68 -28.5t-28 -68.5t28 -68t68 -27z" />
</svg>
