<?xml version="1.0" standalone="no"?>
<!DOCTYPE svg PUBLIC "-//W3C//DTD SVG 1.1//EN" "http://www.w3.org/Graphics/SVG/1.1/DTD/svg11.dtd" >
<svg xmlns="http://www.w3.org/2000/svg" xmlns:xlink="http://www.w3.org/1999/xlink" version="1.1" viewBox="-10 0 1684 2048">
   <path fill="currentColor"
d="M288 512q-66 0 -113 -47t-47 -113t47 -113t113 -47t113 47t47 113t-47 113t-113 47zM192 928q0 -40 28 -68t68 -28t68 28t28 68v368q85 30 138.5 104.5t53.5 167.5q0 119 -84.5 203.5t-203.5 84.5t-203.5 -84.5t-84.5 -203.5q0 -93 53.5 -167.5t138.5 -104.5v-368z
M288 1664q40 0 68 -28t28 -68t-28 -68t-68 -28t-68 28t-28 68t28 68t68 28zM928 672q0 66 -47 113t-113 47t-113 -47t-47 -113t47 -113t113 -47t113 47t47 113zM1664 992q0 119 -84.5 203.5t-203.5 84.5t-203.5 -84.5t-84.5 -203.5t84.5 -203.5t203.5 -84.5t203.5 84.5
t84.5 203.5zM1472 992q0 -40 -28 -68t-68 -28t-68 28t-28 68t28 68t68 28t68 -28t28 -68z" />
</svg>
