<?xml version="1.0" standalone="no"?>
<!DOCTYPE svg PUBLIC "-//W3C//DTD SVG 1.1//EN" "http://www.w3.org/Graphics/SVG/1.1/DTD/svg11.dtd" >
<svg xmlns="http://www.w3.org/2000/svg" xmlns:xlink="http://www.w3.org/1999/xlink" version="1.1" viewBox="-10 0 1813 2048">
   <path fill="currentColor"
d="M288 128q119 0 203.5 84.5t84.5 203.5q0 94 -53.5 168.5t-138.5 103.5v672q85 30 138.5 105t53.5 167q0 119 -84.5 203.5t-203.5 84.5t-203.5 -84t-84.5 -204q0 -92 53.5 -167t138.5 -105v-672q-85 -31 -138.5 -104.5t-53.5 -167.5q0 -118 84.5 -202.5t203.5 -85.5z
M1504 832q40 0 68 28.5t28 67.5v432q85 30 138.5 105t53.5 167q0 119 -84.5 203.5t-203.5 84.5t-203.5 -84t-84.5 -204q0 -92 53.5 -167t138.5 -105v-432q0 -40 28 -68t68 -28zM1244 157q28 -28 68 -27.5t68 28.5l31 30l62 62l31 32l124 -124q28 -30 69 -30q33 0 59 20.5
t34 51.5q3 11 3 24q0 41 -29 70l-124 124l124 124q26 28 26 66t-28.5 67t-67.5 29q-38 0 -66 -26l-31 -32l-62 -62l-31 -30l-124 124q-29 31 -70 30q-34 0 -59.5 -20.5t-33.5 -51.5q-3 -12 -3 -24q0 -41 30 -70l124 -124l-124 -124q-28 -29 -28 -69t28 -68zM192 417
q0 40 28 68t68 27.5t68 -28.5t28 -68t-28 -68t-68 -28t-68 28.5t-28 68.5zM288 1536q-40 0 -68 28.5t-28 68.5t28 68t68 27.5t68 -28.5t28 -68t-28 -68t-68 -28zM1504 1536q-40 0 -68 28.5t-28 68.5t28 68t68 27.5t68 -28.5t28 -68t-28 -68t-68 -28z" />
</svg>
