<?xml version="1.0" standalone="no"?>
<!DOCTYPE svg PUBLIC "-//W3C//DTD SVG 1.1//EN" "http://www.w3.org/Graphics/SVG/1.1/DTD/svg11.dtd" >
<svg xmlns="http://www.w3.org/2000/svg" xmlns:xlink="http://www.w3.org/1999/xlink" version="1.1" viewBox="-10 0 1812 2048">
   <path fill="currentColor"
d="M288 128q119 0 203.5 84.5t84.5 203.5q0 93 -53.5 167.5t-138.5 104.5v672q85 30 138.5 104.5t53.5 167.5q0 119 -84.5 203.5t-203.5 84.5t-203.5 -84.5t-84.5 -203.5q0 -93 53.5 -167.5t138.5 -104.5v-672q-85 -31 -138.5 -105t-53.5 -167q0 -119 84.5 -203.5
t203.5 -84.5zM1504 1920q-119 0 -203.5 -84.5t-84.5 -203.5t84.5 -203.5t203.5 -84.5t203.5 84.5t84.5 203.5t-84.5 203.5t-203.5 84.5zM192 416q0 40 28 68t68 28t68 -28t28 -68t-28 -68t-68 -28t-68 28t-28 68zM288 1536q-40 0 -68 28t-28 68t28 68t68 28t68 -28t28 -68
t-28 -68t-68 -28zM1504 1536q-40 0 -68 28t-28 68t28 68t68 28t68 -28t28 -68t-28 -68t-68 -28zM1664 960q0 66 -47 113t-113 47t-113 -47t-47 -113t47 -113t113 -47t113 47t47 113zM1664 416q0 66 -47 113t-113 47t-113 -47t-47 -113t47 -113t113 -47t113 47t47 113z" />
</svg>
