<?xml version="1.0" standalone="no"?>
<!DOCTYPE svg PUBLIC "-//W3C//DTD SVG 1.1//EN" "http://www.w3.org/Graphics/SVG/1.1/DTD/svg11.dtd" >
<svg xmlns="http://www.w3.org/2000/svg" xmlns:xlink="http://www.w3.org/1999/xlink" version="1.1" viewBox="-10 0 1942 2048">
   <path fill="currentColor"
d="M1682 304h-1l215 42q19 5 24 22q2 6 2 10q0 14 -10 22l-175 176q-33 34 -80 34h-36h-73h-36l-366 366q6 24 6 48q0 80 -56.5 136t-135.5 56t-135.5 -55.5t-56.5 -134.5q0 -80 56.5 -136.5t135.5 -55.5q25 0 50 6l366 -366v-146q0 -46 33 -80l176 -174q9 -11 22 -10
q5 0 10 2q18 4 22 24zM192 1026q0 156 61 298t164 245t245 163t298 60t298.5 -61t245 -163t163.5 -245t61 -299q0 -108 -30 -210q-5 -16 -5 -32q0 -40 28.5 -68t67.5 -28q34 0 60.5 21t33.5 53q37 130 37 264q0 131 -34.5 255.5t-96.5 229.5t-150.5 194t-194 151t-230 96
t-254.5 34q-195 0 -370.5 -73.5t-308.5 -206.5q-132 -133 -206.5 -308.5t-74.5 -369.5q0 -131 34.5 -255.5t96.5 -229.5t151 -194t194 -150.5t229.5 -96t254.5 -34.5q136 0 265 36q30 10 49.5 35t19.5 57q0 41 -28 69t-68 27q-13 0 -26 -2q-103 -30 -212 -30
q-156 0 -298.5 61t-245 163t-163.5 245t-61 299zM576 1025.5q0 103.5 51.5 192t140 140t192.5 52.5q119 0 217 -68q77 -52 122 -136t45 -180q0 -20 -3 -46q-1 -6 -1 -12q0 -40 28.5 -68t67.5 -28q20 0 39 8q24 11 39 31.5t18 46.5q4 34 4 68q0 118 -45.5 224t-123 183
t-184 123.5t-223.5 46t-223.5 -46.5t-184 -122.5t-123 -183t-45.5 -223.5t45.5 -224t123 -184t184 -122.5t223.5 -46.5q38 0 66 4q37 2 62 29.5t25 64.5q0 41 -28 69t-68 27h-13q-22 -2 -44 -2q-105 0 -193 51t-139.5 140t-51.5 192.5z" />
</svg>
