<?xml version="1.0" standalone="no"?>
<!DOCTYPE svg PUBLIC "-//W3C//DTD SVG 1.1//EN" "http://www.w3.org/Graphics/SVG/1.1/DTD/svg11.dtd" >
<svg xmlns="http://www.w3.org/2000/svg" xmlns:xlink="http://www.w3.org/1999/xlink" version="1.1" viewBox="-10 0 1812 2048">
   <path fill="currentColor"
d="M687 131q35 6 58 32.5t23 62.5q0 8 -1 15l-54 337h509l59 -367q7 -33 33.5 -55t60.5 -22q40 0 68 28t28 68v11l-54 337h279q40 0 68 28t28 68t-28 68t-68 28h-310l-82 512h328q40 0 68 28t28 68t-28 68t-68 28h-358l-59 367q-7 33 -33.5 55t-60.5 22q-40 0 -68 -28
t-28 -68v-11l54 -337h-509l-59 367q-7 33 -33.5 55t-60.5 22q-40 0 -68 -28t-28 -68v-11l54 -337h-279q-40 0 -68 -28t-28 -68t28 -68t68 -28h310l82 -512h-328q-40 0 -68 -28t-28 -68t28 -68t68 -28h358l59 -367q6 -35 32.5 -58t62.5 -23q8 0 15 1zM1110 1282l82 -512h-510
l-82 512h510z" />
</svg>
