<?xml version="1.0" standalone="no"?>
<!DOCTYPE svg PUBLIC "-//W3C//DTD SVG 1.1//EN" "http://www.w3.org/Graphics/SVG/1.1/DTD/svg11.dtd" >
<svg xmlns="http://www.w3.org/2000/svg" xmlns:xlink="http://www.w3.org/1999/xlink" version="1.1" viewBox="-10 0 1556 2048">
   <path fill="currentColor"
d="M96 128h1344q40 0 68 28t28 68t-28 68t-68 28h-96v160q0 147 -65 274.5t-178 211.5l-43 32q-13 10 -13 26t13 26l43 32q113 84 178 211.5t65 274.5v160h96q40 0 68 28t28 68t-28 68t-68 28h-1344q-40 0 -68 -28t-28 -68t28 -68t68 -28h96v-160q0 -147 65 -274.5
t178 -211.5l43 -32q13 -10 13 -26t-13 -26l-43 -32q-113 -84 -178 -211.5t-65 -274.5v-160h-96q-40 0 -68 -28t-28 -68t28 -68t68 -28zM1152 320h-768v160q0 98 44 186t122 147l43 32q58 44 79.5 111.5t0 135t-79.5 111.5l-43 32q-77 58 -121.5 145.5t-44.5 187.5v160h768
v-160q0 -100 -44.5 -187.5t-121.5 -145.5l-43 -32q-42 -31 -66 -78t-24 -101t24 -101t66 -78l43 -32q77 -58 121.5 -145.5t44.5 -187.5v-160z" />
</svg>
