<?xml version="1.0" standalone="no"?>
<!DOCTYPE svg PUBLIC "-//W3C//DTD SVG 1.1//EN" "http://www.w3.org/Graphics/SVG/1.1/DTD/svg11.dtd" >
<svg xmlns="http://www.w3.org/2000/svg" xmlns:xlink="http://www.w3.org/1999/xlink" version="1.1" viewBox="-10 0 1764 2048">
   <path fill="currentColor"
d="M1052.5 180q28.5 -28 67.5 -28q17 0 33 5q172 63 305.5 187t209.5 295t76 361q0 122 -32 238t-90 214.5t-140.5 181t-181 140.5t-214.5 90t-238 32q-190 0 -361 -76t-295 -209.5t-187 -305.5q-5 -16 -5 -33q0 -39 28 -67.5t68 -28.5q16 0 32 6q116 42 240 42
q143 0 273.5 -55.5t225 -150t150 -225t55.5 -273.5q0 -124 -42 -240q-6 -16 -6 -32q0 -40 28.5 -68zM1259 429q5 46 5 92q0 122 -32 238t-90 214t-140.5 181t-181 141t-214.5 90t-238 32q-37 0 -91 -6q97 136 247 214.5t323 78.5q144 0 274 -56t224.5 -150.5t150 -224.5
t55.5 -273q0 -173 -78 -323.5t-214 -247.5z" />
</svg>
