<?xml version="1.0" standalone="no"?>
<!DOCTYPE svg PUBLIC "-//W3C//DTD SVG 1.1//EN" "http://www.w3.org/Graphics/SVG/1.1/DTD/svg11.dtd" >
<svg xmlns="http://www.w3.org/2000/svg" xmlns:xlink="http://www.w3.org/1999/xlink" version="1.1" viewBox="-10 0 2058 2048">
   <path fill="currentColor"
d="M956 1412l-480 -480q-28 -28 -28 -68t28 -68t68 -28t68 28l316 316v-856q0 -40 28 -68t68 -28t68 28t28 68v856l52 -52l102 -102l116 -116l46 -46q28 -28 68 -28t68 28t28 68t-28 68q-31 30 -80.5 80t-154.5 155l-175 175l-70 70q-28 28 -68 28t-68 -28zM480 1696h1088
q40 0 68 28t28 68t-28 68t-68 28h-1088q-40 0 -68 -28t-28 -68t28 -68t68 -28z" />
</svg>
