<?xml version="1.0" standalone="no"?>
<!DOCTYPE svg PUBLIC "-//W3C//DTD SVG 1.1//EN" "http://www.w3.org/Graphics/SVG/1.1/DTD/svg11.dtd" >
<svg xmlns="http://www.w3.org/2000/svg" xmlns:xlink="http://www.w3.org/1999/xlink" version="1.1" viewBox="-10 0 2058 2048">
   <path fill="currentColor"
d="M1380 1124l-480 480q-28 28 -68 28t-68 -28t-28 -68t28 -68l79 -79l158 -158l79 -79h-856q-40 0 -68 -28t-28 -68t28 -68t68 -28h856l-316 -316q-28 -28 -28 -68t28 -68t68 -28t68 28l480 480q28 28 28 68t-28 68zM1664 1600v-1088q0 -40 28 -68t68 -28t68 28t28 68v1088
q0 40 -28 68t-68 28t-68 -28t-28 -68z" />
</svg>
