<?xml version="1.0" standalone="no"?>
<!DOCTYPE svg PUBLIC "-//W3C//DTD SVG 1.1//EN" "http://www.w3.org/Graphics/SVG/1.1/DTD/svg11.dtd" >
<svg xmlns="http://www.w3.org/2000/svg" xmlns:xlink="http://www.w3.org/1999/xlink" version="1.1" viewBox="-10 0 2058 2048">
   <path fill="currentColor"
d="M1092 188l480 480q28 28 28 68t-28 68t-68 28t-68 -28l-316 -316v856q0 40 -28 68t-68 28t-68 -28t-28 -68v-856l-52 52l-102 102l-116 116l-46 46q-28 28 -68 28t-68 -28t-28 -68t28 -68q31 -30 80.5 -80t154.5 -155l175 -175l70 -70q28 -28 68 -28t68 28zM480 1696
h1088q40 0 68 28t28 68t-28 68t-68 28h-1088q-40 0 -68 -28t-28 -68t28 -68t68 -28z" />
</svg>
