<?xml version="1.0" standalone="no"?>
<!DOCTYPE svg PUBLIC "-//W3C//DTD SVG 1.1//EN" "http://www.w3.org/Graphics/SVG/1.1/DTD/svg11.dtd" >
<svg xmlns="http://www.w3.org/2000/svg" xmlns:xlink="http://www.w3.org/1999/xlink" version="1.1" viewBox="-10 0 1939 2048">
   <path fill="currentColor"
d="M608 960h960q40 0 68 28t28 68t-28 68t-68 28h-960q-40 0 -68 -28t-28 -68t28 -68t68 -28zM608 1600h960q40 0 68 28t28 68t-28 68t-68 28h-960q-40 0 -68 -28t-28 -68t28 -68t68 -28zM96 320h832q40 0 68 28t28 68t-28 68t-68 28h-832q-40 0 -68 -28t-28 -68t28 -68
t68 -28zM128 1792q-53 0 -90.5 -37.5t-37.5 -90.5t37.5 -90.5t90.5 -37.5t90.5 37.5t37.5 90.5t-37.5 90.5t-90.5 37.5zM256 1024q0 53 -37.5 90.5t-90.5 37.5t-90.5 -37.5t-37.5 -90.5t37.5 -90.5t90.5 -37.5t90.5 37.5t37.5 90.5zM1576 630l-287 -321q-8 -9 -8 -21
q0 -13 9.5 -22.5t22.5 -9.5h574q13 0 22.5 9.5t9.5 22.5q0 12 -8 21l-72 80t-143 160l-72 80q-10 11 -24 11t-24 -11v1z" />
</svg>
