<?xml version="1.0" standalone="no"?>
<!DOCTYPE svg PUBLIC "-//W3C//DTD SVG 1.1//EN" "http://www.w3.org/Graphics/SVG/1.1/DTD/svg11.dtd" >
<svg xmlns="http://www.w3.org/2000/svg" xmlns:xlink="http://www.w3.org/1999/xlink" version="1.1" viewBox="-10 0 2062 2048">
   <path fill="currentColor"
d="M121 1024l-119 -681q-2 -14 -2 -29q0 -71 50 -121.5t121 -50.5q35 0 68 14l429 184q429 183 858 367l428 184q40 17 64 53t24 80t-24 80t-64 53l-1715 735q-32 14 -67 14q-72 0 -122 -50.5t-50 -121.5q0 -15 2 -29zM198 347l101 581h623q40 0 68 28t28 68t-28 68t-68 28
h-623l-101 581l1579 -677z" />
</svg>
