<?xml version="1.0" standalone="no"?>
<!DOCTYPE svg PUBLIC "-//W3C//DTD SVG 1.1//EN" "http://www.w3.org/Graphics/SVG/1.1/DTD/svg11.dtd" >
<svg xmlns="http://www.w3.org/2000/svg" xmlns:xlink="http://www.w3.org/1999/xlink" version="1.1" viewBox="-10 0 1732 2048">
   <path fill="currentColor"
d="M1368 356q-66 -66 -158 -66q-93 0 -159 66l-187 186l-373 374l-186 186q-54 52 -83.5 123t-29.5 149q0 76 29 146.5t84 123.5q54 56 125 85.5t147 28.5q76 0 146 -29.5t125 -84.5l701 -700q28 -28 67 -28q40 0 68 28.5t28 67.5q0 40 -27 68l-702 700q-79 80 -184 125
t-222 45q-115 0 -221 -44.5t-187 -125.5q-80 -79 -124.5 -184.5t-44.5 -221.5q0 -114 44 -220.5t125 -187.5l746 -746q58 -59 134 -90.5t161 -31.5q113 0 208.5 55t151.5 151t56 210q0 82 -31.5 159t-90.5 135l-747 746q-75 76 -181 76q-106 -1 -181 -76q-75 -74 -75 -180.5
t75 -181.5l702 -702q27 -25 65 -24q40 0 68 28t28 68q0 37 -26 64l-175 176q-175 176 -351 350l-175 176q-19 18 -19 45t19 45q18 20 45 20q27 -1 46 -20l186 -186l373 -372l187 -188q66 -66 66 -158.5t-66 -157.5z" />
</svg>
