<?xml version="1.0" standalone="no"?>
<!DOCTYPE svg PUBLIC "-//W3C//DTD SVG 1.1//EN" "http://www.w3.org/Graphics/SVG/1.1/DTD/svg11.dtd" >
<svg xmlns="http://www.w3.org/2000/svg" xmlns:xlink="http://www.w3.org/1999/xlink" version="1.1" viewBox="-10 0 1971 2048">
   <path fill="currentColor"
d="M286 673q0 -98 38 -187t102.5 -153.5t153.5 -102.5t187 -38t187 38t153.5 102.5t102.5 153.5t38 187q0 123 -57.5 228t-155.5 171q157 59 275 177q33 33 33 83q1 57 0 230v138v92q0 26 -19 45t-45 19h-1188q-38 -2 -64.5 -29.5t-26.5 -66.5v-4q11 -233 148.5 -418.5
t350.5 -265.5q-98 -66 -155.5 -171.5t-57.5 -227.5zM1951 944q0 82 -39 153t-105 115q-16 9 -16 28v75q0 14 -9 23l-46 45q-5 5 -5 11.5t5 11.5l46 46q9 9 9 22v30q0 13 -9 22l-46 46q-5 5 -5 11.5t5 11.5l46 45q9 10 9 23v37q0 12 -8 21l-26 28t-51 57l-26 28
q-20 22 -49 22t-49 -22l-103 -113q-8 -9 -8 -21v-115v-230v-115q0 -19 -16 -28q-66 -44 -105 -115t-39 -153q0 -87 42.5 -160.5t116.5 -116.5t161 -43t160.5 43t116.5 116.5t43 160.5zM1727 896q0 -40 -28 -68t-68 -28t-68 28t-28 68t28 68t68 28t68 -28t28 -68z" />
</svg>
