<?xml version="1.0" standalone="no"?>
<!DOCTYPE svg PUBLIC "-//W3C//DTD SVG 1.1//EN" "http://www.w3.org/Graphics/SVG/1.1/DTD/svg11.dtd" >
<svg xmlns="http://www.w3.org/2000/svg" xmlns:xlink="http://www.w3.org/1999/xlink" version="1.1" viewBox="-10 0 2036 2048">
   <path fill="currentColor"
d="M248 768q0 -185 131.5 -316.5t316.5 -131.5t316.5 131.5t131.5 316.5q0 95 -37.5 179.5t-103.5 146.5q154 75 257.5 213t130.5 310q1 8 1 15q0 40 -28 68t-68 28q-35 0 -62 -23t-32 -58q-20 -121 -91 -219.5t-180.5 -155t-234.5 -56.5t-234.5 56.5t-180.5 155t-91 219.5
q-5 35 -32 58t-62 23q-40 0 -68 -28t-28 -68q0 -8 1 -15q27 -172 130.5 -310t257.5 -213q-66 -62 -103.5 -146.5t-37.5 -179.5zM1400 576q104 0 192.5 51.5t140 140t51.5 192.5q0 148 -100 258q118 59 203.5 159t124.5 227q4 14 4 29q0 39 -28 67t-68 28q-11 0 -21 -2
q-26 -6 -44.5 -23.5t-26.5 -42.5q-35 -112 -121.5 -193.5t-201.5 -109.5q-31 -8 -52 -34t-21 -60v-45q0 -28 14.5 -51t38.5 -35q49 -24 78 -70t29 -102q0 -80 -56 -136t-136 -56q-40 0 -68 -28t-28 -68t28 -68t68 -28zM696 512h-6q-106 0 -181 75t-75 181t75 181t181 75h6
q104 -2 177 -77t73 -179t-73 -179t-177 -77z" />
</svg>
