<?xml version="1.0" standalone="no"?>
<!DOCTYPE svg PUBLIC "-//W3C//DTD SVG 1.1//EN" "http://www.w3.org/Graphics/SVG/1.1/DTD/svg11.dtd" >
<svg xmlns="http://www.w3.org/2000/svg" xmlns:xlink="http://www.w3.org/1999/xlink" version="1.1" viewBox="-10 0 1554 2048">
   <path fill="currentColor"
d="M286 673q0 -98 38 -187t102.5 -153.5t153.5 -102.5t187 -38t187 38t153.5 102.5t102.5 153.5t38 187q0 123 -57.5 228t-155.5 171q213 80 350.5 265.5t148.5 418.5v4q0 39 -26.5 66.5t-64.5 29.5h-338h-676h-338q-38 -2 -64.5 -30t-26.5 -66v-4q11 -233 148.5 -418.5
t350.5 -265.5q-98 -66 -155.5 -171t-57.5 -228z" />
</svg>
