<?xml version="1.0" standalone="no"?>
<!DOCTYPE svg PUBLIC "-//W3C//DTD SVG 1.1//EN" "http://www.w3.org/Graphics/SVG/1.1/DTD/svg11.dtd" >
<svg xmlns="http://www.w3.org/2000/svg" xmlns:xlink="http://www.w3.org/1999/xlink" version="1.1" viewBox="-10 0 1556 2048">
   <path fill="currentColor"
d="M1440 1040q40 0 68 28t28 68v576q0 40 -28 68t-68 28h-320q-40 0 -68 -28t-28 -68t28 -68t68 -28h224v-256h-96q-40 0 -68 -28t-28 -68t28 -68t68 -28h96v-32q0 -40 28 -68t68 -28zM384 1584q0 -13 9.5 -22.5t22.5 -9.5h448q13 0 22.5 9.5t9.5 22.5v416q0 13 -9.5 22.5
t-22.5 9.5q-11 0 -19 -6l-19 -14q-19 -15 -46 -36l-56 -40q-27 -21 -46 -35l-19 -15q-8 -6 -19 -6t-19 6l-47 35l-92 70l-47 35q-8 6 -19 6q-13 0 -22.5 -9.5t-9.5 -22.5v-416zM96 1040q40 0 68 28t28 68v34q16 -2 32 -2h64q40 0 68 28t28 68t-28 68t-68 28h-64
q-13 0 -22.5 9.5t-9.5 22.5v96q0 54 38 91q29 29 29 69t-28 68t-68 28q-39 0 -67 -27q-45 -45 -70.5 -104t-25.5 -125v-88v-176v-88q0 -40 28 -68t68 -28zM1152 112q0 -40 28 -68t68 -28h192q40 0 68 28t28 68v192q0 40 -28 68t-68 28t-68 -28t-28 -68v-96h-96
q-40 0 -68 -28t-28 -68zM512 112q0 -40 28 -68t68 -28h320q40 0 68 28t28 68t-28 68t-68 28h-320q-40 0 -68 -28t-28 -68zM512 1264q0 -40 28 -68t68 -28h320q40 0 68 28t28 68t-28 68t-68 28h-320q-40 0 -68 -28t-28 -68zM383 101q1 6 1 13q0 36 -23.5 63t-58.5 32
q-42 6 -72.5 36.5t-36.5 72.5q-6 33 -32.5 55t-61.5 22q-40 0 -68 -28t-28 -68v-9q15 -105 90.5 -180.5t180.5 -90.5q7 -1 14 -1q36 0 63 24t32 59zM96 528q40 0 68 28t28 68v192q0 40 -28 68t-68 28t-68 -28t-28 -68v-192q0 -40 28 -68t68 -28zM1440 528q40 0 68 28t28 68
v192q0 40 -28 68t-68 28t-68 -28t-28 -68v-192q0 -40 28 -68t68 -28z" />
</svg>
