<?xml version="1.0" standalone="no"?>
<!DOCTYPE svg PUBLIC "-//W3C//DTD SVG 1.1//EN" "http://www.w3.org/Graphics/SVG/1.1/DTD/svg11.dtd" >
<svg xmlns="http://www.w3.org/2000/svg" xmlns:xlink="http://www.w3.org/1999/xlink" version="1.1" viewBox="-10 0 1812 2048">
   <path fill="currentColor"
d="M1248 128q40 0 68 28t28 68v320q0 13 9.5 22.5t22.5 9.5h320q40 0 68 28t28 68t-28 68t-68 28h-320q-93 0 -158.5 -65.5t-65.5 -158.5v-320q0 -40 28 -68t68 -28zM544 128q40 0 68 28t28 68v320q0 93 -65.5 158.5t-158.5 65.5h-320q-40 0 -68 -28t-28 -68t28 -68t68 -28
h320q13 0 22.5 -9.5t9.5 -22.5v-320q0 -40 28 -68t68 -28zM0 1376q0 -40 28 -68t68 -28h320q93 0 158.5 65.5t65.5 158.5v320q0 40 -28 68t-68 28t-68 -28t-28 -68v-320q0 -13 -9.5 -22.5t-22.5 -9.5h-320q-40 0 -68 -28t-28 -68zM1152 1504q0 -93 65.5 -158.5t158.5 -65.5
h320q40 0 68 28t28 68t-28 68t-68 28h-320q-13 0 -22.5 9.5t-9.5 22.5v320q0 40 -28 68t-68 28t-68 -28t-28 -68v-320z" />
</svg>
