<?xml version="1.0" standalone="no"?>
<!DOCTYPE svg PUBLIC "-//W3C//DTD SVG 1.1//EN" "http://www.w3.org/Graphics/SVG/1.1/DTD/svg11.dtd" >
<svg xmlns="http://www.w3.org/2000/svg" xmlns:xlink="http://www.w3.org/1999/xlink" version="1.1" viewBox="-10 0 1940 2048">
   <path fill="currentColor"
d="M1920 384q0 103 -51.5 191.5t-140 140t-192.5 52.5q-81 0 -153 -32t-125 -88l-126 70q-125 69 -251 140l-125 68q12 48 12 98q0 49 -12 96l502 280q53 -58 125 -89t153 -31q104 0 192.5 51t140 140t51.5 193.5t-51.5 192.5t-140 139t-193 51.5t-193 -51t-139.5 -140
t-51 -192.5q0 -50 12 -98l-502 -278q-53 56 -125 88t-153 32q-104 0 -192.5 -51.5t-140 -140t-51.5 -192.5t51.5 -193t140 -140t192.5 -51q81 0 153 31t125 87l52 -28q52 -28 125.5 -69.5t147.5 -82t125 -70.5l52 -28q-12 -46 -12 -96q0 -104 51.5 -193t140 -140t192.5 -51
t192.5 51t140 140t51.5 193zM1728 1664q0 -80 -56.5 -136.5t-136 -56t-135.5 57t-56 136t56 135t135.5 56t136 -55.5t56.5 -136zM576 1024q0 -80 -56.5 -136.5t-136 -56t-135.5 57t-56 136t56 135t135.5 56t136 -55.5t56.5 -136zM1728 384q0 -80 -56.5 -136.5t-136 -56
t-135.5 57t-56 136t56 135t135.5 56t136 -55.5t56.5 -136z" />
</svg>
