<?xml version="1.0" standalone="no"?>
<!DOCTYPE svg PUBLIC "-//W3C//DTD SVG 1.1//EN" "http://www.w3.org/Graphics/SVG/1.1/DTD/svg11.dtd" >
<svg xmlns="http://www.w3.org/2000/svg" xmlns:xlink="http://www.w3.org/1999/xlink" version="1.1" viewBox="-10 0 1812 2048">
   <path fill="currentColor"
d="M964 35l672 215q69 22 112.5 80.5t43.5 132.5v451q0 345 -167 599q-199 304 -644 494q-40 17 -85 17t-85 -17q-445 -190 -644 -494q-167 -254 -167 -599v-451q0 -74 43.5 -132.5t112.5 -80.5l672 -215q33 -11 68 -11t68 11zM886 218l-672 215q-22 7 -22 30v451
q0 288 135 494q168 256 559 422q5 2 10 2t10 -2q391 -167 559 -422q135 -206 135 -494v-451q0 -23 -22 -30l-672 -215q-5 -2 -10 -2t-10 2zM1316 822l-448 448q-28 28 -68 28t-68 -28l-48 -48l-96 -96l-48 -48q-31 -29 -31 -70q0 -34 20.5 -59.5t52.5 -33.5q12 -3 24 -3
q41 0 70 30l124 124l380 -380q28 -26 66 -26q39 0 67.5 28.5t28.5 67.5q0 38 -26 66z" />
</svg>
