<?xml version="1.0" standalone="no"?>
<!DOCTYPE svg PUBLIC "-//W3C//DTD SVG 1.1//EN" "http://www.w3.org/Graphics/SVG/1.1/DTD/svg11.dtd" >
<svg xmlns="http://www.w3.org/2000/svg" xmlns:xlink="http://www.w3.org/1999/xlink" version="1.1" viewBox="-10 0 1812 2048">
   <path fill="currentColor"
d="M964 35l672 215q69 22 112.5 80.5t43.5 132.5v451q0 345 -167 599q-199 304 -644 494q-40 17 -85 17t-85 -17q-445 -190 -644 -494q-167 -254 -167 -599v-451q0 -74 43.5 -132.5t112.5 -80.5l672 -215q33 -11 68 -11t68 11zM886 218l-672 215q-22 7 -22 30v451
q0 288 135 494q168 256 559 422q5 2 10 2t10 -2q391 -167 559 -422q135 -206 135 -494v-451q0 -23 -22 -30l-672 -215q-5 -2 -10 -2t-10 2zM1088 850q0 51 -25.5 96t-70.5 70v314q0 40 -28 68t-68 28t-68 -28t-28 -68v-314q-44 -25 -70 -69.5t-26 -96.5q0 -79 56 -135.5
t135.5 -56.5t136 56.5t56.5 135.5z" />
</svg>
