<?xml version="1.0" standalone="no"?>
<!DOCTYPE svg PUBLIC "-//W3C//DTD SVG 1.1//EN" "http://www.w3.org/Graphics/SVG/1.1/DTD/svg11.dtd" >
<svg xmlns="http://www.w3.org/2000/svg" xmlns:xlink="http://www.w3.org/1999/xlink" version="1.1" viewBox="-10 0 2072 2048">
   <path fill="currentColor"
d="M1094 34l672 216q69 22 112.5 80t43.5 132v452q0 50 -4 102q-1 40 -29 66.5t-67 25.5q-39 0 -67.5 -28t-28.5 -68q0 -5 1 -10q3 -43 3 -88v-452q0 -22 -22 -30l-672 -214q-5 -2 -10 -2t-10 2q-17 4 -44.5 13t-86 28.5t-97.5 31.5l-39 13q-13 2 -27 2q-40 0 -68 -28
t-28 -68q0 -31 18 -55t46 -35q17 -6 44.5 -14.5t86.5 -27.5t98 -31l39 -13q33 -10 68 -10t68 10zM130 384l-88 -64q-42 -29 -42 -80q0 -40 28 -68t68 -28q32 0 58 20l464 336l928 672l464 336q42 28 42 80q0 38 -28 67t-68 29q-32 0 -58 -20l-41 -30l-82 -60l-41 -30
q-202 282 -623 462q-43 18 -85 18t-85 -18q-445 -190 -644 -494q-167 -253 -167 -598v-530zM322 522v392q0 288 135 494q168 254 559 422q10 4 20 0q373 -160 542 -398z" />
</svg>
