<?xml version="1.0" standalone="no"?>
<!DOCTYPE svg PUBLIC "-//W3C//DTD SVG 1.1//EN" "http://www.w3.org/Graphics/SVG/1.1/DTD/svg11.dtd" >
<svg xmlns="http://www.w3.org/2000/svg" xmlns:xlink="http://www.w3.org/1999/xlink" version="1.1" viewBox="-10 0 1428 2048">
   <path fill="currentColor"
d="M1035 64q106 0 191.5 53.5t133.5 148.5t48 214q0 315 -336 618q-33 31 -65 56l143 715q2 9 2 19q0 40 -28 68t-68 28q-17 0 -33 -6l-77 -28l-154 -56l-77 -28q-5 -2 -11 -2t-11 2l-77 28l-154 56l-77 28q-16 6 -33 6q-40 0 -68 -28t-28 -68q0 -10 2 -19l143 -715
q-34 -27 -66 -56q-335 -304 -335 -618q0 -119 48 -214t133.5 -148.5t191.5 -53.5q91 0 173 36t144 101l14 16l14 -16q57 -60 132.5 -96t160.5 -40l5 -1h13h6zM572 1279l-92 460l147 -53q37 -14 77 -14q28 0 55 7l22 7l147 53l-92 -459q-34 22 -64 40l-22 12q-21 12 -46 12
t-46 -12q-34 -18 -66 -39zM1035 256q-83 0 -148.5 51.5t-90.5 135.5q-9 33 -36 51t-56 18t-56 -18t-36 -51q-25 -84 -90.5 -135.5t-148.5 -51.5q-80 0 -130.5 61t-50.5 163q0 229 272 476q91 82 198 153l42 27l10 -6l32 -21q104 -69 198 -153q272 -247 272 -476
q0 -102 -50.5 -163t-130.5 -61z" />
</svg>
