<?xml version="1.0" standalone="no"?>
<!DOCTYPE svg PUBLIC "-//W3C//DTD SVG 1.1//EN" "http://www.w3.org/Graphics/SVG/1.1/DTD/svg11.dtd" >
<svg xmlns="http://www.w3.org/2000/svg" xmlns:xlink="http://www.w3.org/1999/xlink" version="1.1" viewBox="-10 0 1686 2048">
   <path fill="currentColor"
d="M720 66q51 -30 112 -30t112 30l160 93t321 186l160 93q51 30 70.5 84t0 108t-70.5 84l-641 372q-51 30 -112 30t-112 -30l-160 -93q-160 -93 -321 -186l-160 -93q-36 -21 -57.5 -58t-21.5 -80.5t21.5 -80t57.5 -57.5zM848 232q-7 -4 -16 -4t-16 4l-148 86l-296 172
l-149 86l593 344q7 4 16 4t16 -4l148 -86l296 -172l149 -86zM13 1013q13 -22 35 -35t48 -13t48 13l168 98l336 194l168 98q7 4 16 4t16 -4l168 -98q168 -97 336 -195l168 -97q22 -13 48 -13q40 0 68 28t28 68q0 26 -13 48.5t-35 34.5l-672 390q-51 30 -112 30t-112 -30
l-168 -98l-336 -194l-168 -98q-22 -12 -35 -34.5t-13 -48.5t13 -48zM13 1461q13 -22 35 -35t48 -13t48 13l168 98l336 194l168 98q7 4 16 4t16 -4l168 -98q168 -97 336 -195l168 -97q22 -13 48 -13q40 0 68 28t28 68q0 26 -13 48.5t-35 34.5l-672 390q-51 30 -112 30
t-112 -30l-168 -98l-336 -194l-168 -98q-22 -12 -35 -34.5t-13 -48.5t13 -48z" />
</svg>
