<?xml version="1.0" standalone="no"?>
<!DOCTYPE svg PUBLIC "-//W3C//DTD SVG 1.1//EN" "http://www.w3.org/Graphics/SVG/1.1/DTD/svg11.dtd" >
<svg xmlns="http://www.w3.org/2000/svg" xmlns:xlink="http://www.w3.org/1999/xlink" version="1.1" viewBox="-10 0 1812 2048">
   <path fill="currentColor"
d="M1287 1104q50 51 77 118t27 139v1q0 91 -38 171t-106 136q-162 139 -467 139q-156 0 -287 -49t-212 -127q-26 -28 -26 -66q0 -40 28 -68t68 -28q36 0 63 24q53 50 148.5 86t217.5 36q234 0 343 -93q76 -65 76 -162q0 -89 -83 -153q-87 -68 -250 -104h-770q-40 0 -68 -28
t-28 -68t28 -68t68 -28h1600q40 0 68 28t28 68t-28 68t-68 28h-409zM842 432q-74 0 -136 15t-101.5 39t-67 55t-39 61t-11.5 59q0 10 1 20v7q0 40 -28 68t-68 28q-38 0 -65.5 -25.5t-30.5 -63.5q-1 -17 -1 -34q0 -88 40.5 -165t111.5 -133.5t173.5 -89.5t221.5 -33
q125 0 242.5 41t207.5 99q44 28 44 81q0 39 -28 67.5t-68 28.5q-28 0 -52 -16q-70 -45 -162 -77t-184 -32z" />
</svg>
