<?xml version="1.0" standalone="no"?>
<!DOCTYPE svg PUBLIC "-//W3C//DTD SVG 1.1//EN" "http://www.w3.org/Graphics/SVG/1.1/DTD/svg11.dtd" >
<svg xmlns="http://www.w3.org/2000/svg" xmlns:xlink="http://www.w3.org/1999/xlink" version="1.1" viewBox="-10 0 2052 2048">
   <path fill="currentColor"
d="M1516 44q49 -34 108 -34q52 0 96.5 26t69.5 70l217 376q25 43 25 94q0 58 -29.5 104t-78.5 70l-1561 752q-40 19 -84 18q-52 0 -96.5 -25.5t-69.5 -70.5l-87 -150q-26 -44 -26 -96q0 -49 22.5 -90.5t61.5 -67.5zM1084 1296q20 -10 41 -10q51 0 80 42l338 496q14 22 14 50
q0 40 -28 68t-68 28q-47 0 -76 -38l-241 -352v362q0 40 -28 68t-68 28t-68 -28.5t-28 -67.5v-362l-241 352q-28 42 -79 42q-40 0 -68 -28.5t-28 -67.5q0 -30 17 -54l65 -96q66 -96 131 -192l66 -96q14 -20 37 -32zM1401 788l173 -82l-194 -338l-159 108zM412 1028l107 186
l173 -84l-121 -210z" />
</svg>
