<?xml version="1.0" standalone="no"?>
<!DOCTYPE svg PUBLIC "-//W3C//DTD SVG 1.1//EN" "http://www.w3.org/Graphics/SVG/1.1/DTD/svg11.dtd" >
<svg xmlns="http://www.w3.org/2000/svg" xmlns:xlink="http://www.w3.org/1999/xlink" version="1.1" viewBox="-10 0 1940 2048">
   <path fill="currentColor"
d="M1525 757q72 -74 72 -178q0 -106 -75 -181t-181 -75q-104 0 -178 72l-107 107q-28 29 -69 29q-40 0 -68 -28t-28 -68t29 -69l107 -107q62 -62 144 -96.5t173 -34.5t174 35.5t143 95.5t95.5 143t35.5 174t-34.5 173t-96.5 144l-25 25q-28 25 -66 25q-39 0 -67.5 -28
t-28.5 -68q0 -37 26 -65l6 -6l13 -13zM1286 1203q-4 5 -9 10q-62 62 -140 104.5t-160 56.5q-91 17 -178.5 -6t-155.5 -91q-30 -29 -30 -70q0 -40 28 -68t68 -28q41 0 70 30q63 62 164 45q100 -18 185 -97l-159 -115q-1 0 -2 -1l-37 -27q-91 -56 -183.5 -49t-159.5 74
l-320 320q-78 76 -78 184q0 106 75 181t181 75q109 0 184 -78l27 -27l53 -53l27 -27q28 -26 66 -26q39 0 67.5 28t28.5 68q0 38 -26 66l-27 26q-27 27 -53 54l-27 27q-62 62 -144 96.5t-173 34.5t-174 -35.5t-143 -95.5t-95.5 -143t-35.5 -174t34.5 -173t96.5 -144l320 -320
q74 -75 174 -108l-457 -329q-40 -29 -40 -78q0 -40 28 -68t68 -28q31 0 56 18l190 136q190 137 379 274l190 137q20 12 43 30l798 575q40 29 40 78q0 40 -28 68t-68 28q-31 0 -56 -18l-50 -36q-49 -36 -120 -87l-142 -102q-71 -51 -121 -87z" />
</svg>
