<?xml version="1.0" standalone="no"?>
<!DOCTYPE svg PUBLIC "-//W3C//DTD SVG 1.1//EN" "http://www.w3.org/Graphics/SVG/1.1/DTD/svg11.dtd" >
<svg xmlns="http://www.w3.org/2000/svg" xmlns:xlink="http://www.w3.org/1999/xlink" version="1.1" viewBox="-10 0 1556 2048">
   <path fill="currentColor"
d="M448 576v256h896q79 0 135.5 56.5t56.5 135.5v768q0 79 -56.5 135.5t-135.5 56.5h-1152q-79 0 -135.5 -56.5t-56.5 -135.5v-768q0 -79 56 -135.5t136 -56.5h1h1h1h1h1h1h1h1h1h1h1h1h1h1h1h1h1h2h1h1h1h2h1h2h1h1h2h1h2h1h2h1h2h2h1h2h2h1h2h2h1h2h9v-256
q0 -104 40.5 -199t109 -163.5t163.5 -109t199 -40.5q134 0 248 64t183 172q16 24 16 52q0 40 -28.5 68t-67.5 28q-53 0 -81 -44q-44 -68 -115.5 -108t-154.5 -40q-87 0 -161 42.5t-116.5 116.5t-42.5 161zM192 1024v768h1152v-768h-1152z" />
</svg>
