<?xml version="1.0" standalone="no"?>
<!DOCTYPE svg PUBLIC "-//W3C//DTD SVG 1.1//EN" "http://www.w3.org/Graphics/SVG/1.1/DTD/svg11.dtd" >
<svg xmlns="http://www.w3.org/2000/svg" xmlns:xlink="http://www.w3.org/1999/xlink" version="1.1" viewBox="-10 0 2067 2048">
   <path fill="currentColor"
d="M479 960q0 -40 28 -68t68 -28h288v-288q0 -40 28 -68t68 -28t68 28t28 68v288h288q40 0 68 28t28 68t-28 68t-68 28h-288v288q0 40 -28 68t-68 28t-68 -28t-28 -68v-288h-288q-40 0 -68 -28t-28 -68zM959 0q130 0 254.5 34.5t230 96.5t194 150.5t150.5 194t96.5 230
t34.5 254.5q0 170 -56.5 325.5t-160.5 282.5q0 -1 80 78l158 159l79 79q28 28 28 68t-28 68t-68 28t-68 -28l-316 -317q-127 104 -282.5 160.5t-324.5 56.5q-131 0 -255.5 -34.5t-229.5 -96.5t-193.5 -150.5t-150.5 -194t-96.5 -230t-34.5 -255t34.5 -255t96 -229.5
t150 -193.5t194 -150.5t230 -96.5t254.5 -34.5zM191 960q0 208 103 385t280 280t385 103t385 -103t280 -280t103 -385t-103 -385t-280 -280t-385 -103t-385 103t-280 280t-103 385z" />
</svg>
